<?xml version="1.0" encoding="utf-8"?>
<!-- Generator: Adobe Illustrator 21.0.0, SVG Export Plug-In . SVG Version: 6.00 Build 0)  -->
<svg version="1.1" id="Layer_1" xmlns="http://www.w3.org/2000/svg" xmlns:xlink="http://www.w3.org/1999/xlink" x="0px" y="0px"
	 viewBox="0 0 1000 1000" style="enable-background:new 0 0 1000 1000;" xml:space="preserve">
<g>
	<path d="M515.3,769.1c4.2-3.2,4.7-7.6,4.5-12.6c-0.3-7.2-0.1-14.4-0.1-22c1.2,0,4.6,0,8,0c-4.3,8.2-2.6,29.1,2.7,34.5
		C525.4,769.1,520.4,769.1,515.3,769.1z"/>
	<path d="M494.2,769.1c1.4-4,3.7-7.9,4.1-12c0.7-7.4,0.2-15,0.2-22.7c1.4,0,4.6,0,8,0c-3.8,9.4-1.7,19.2-1.6,28.8
		c0,1.9,2.8,3.9,4.3,5.8C504.3,769.1,499.3,769.1,494.2,769.1z"/>
	<path d="M474.6,769.1c6.4-11.2,2.9-22.6,2.4-34.4c2,0,5.4,0,8.4,0c-1.3,11.6-5.5,23.4,2.8,34.4
		C483.7,769.1,479.2,769.1,474.6,769.1z"/>
	<path d="M849.5,335.8c3.2,0.5,6.5,1.1,10.3,1.7c0.1-1.3,0.2-2.9,0.2-4.4c0.2-7.6,4.5-12.9,11.7-13c1.7,0,4.6,3.5,4.9,5.7
		c0.7,4.9,0.2,10,0.2,15.3c11.2,7.4,24.6,9.2,38.1,10.6c12.4,1.2,12.4,1.3,12.5,13.5c0,2.3,0,4.5,0,7.8c4.2,0,8.3,0,12.5,0
		c-1.6,4.8-1.6,4.8-15.5,4.5c-6.8,17.6-20.6,25.4-38,28.4c-2.2,0.4-4.5,0.8-6.6,1.4c-6,1.7-10.9,4.3-8.6,12.1c-1.7,0.4-2.8,0.8-4,1
		c-3.8,0.6-10.1-0.1-11,1.8c-2.5,5.1-3.2,11.4-3.8,17.3c-0.4,3.7,0.5,7.6,0.9,11.7c-13.3-2.3-15.7-7.5-14-22.6
		c0.8-7.4,3.4-14.5,5.3-22.2c-23.9-4.1-47.2-8.2-68.1-11.8c1,2.2,3.2,5.8,4.2,9.7c0.3,1.3-2.2,4.1-4.1,5c-4.2,2.1-9.1,2.9-13.2,5.2
		c-2.3,1.3-4.8,4.5-5.1,7c-0.6,4.7-2.6,6.3-7,7c-6.6,1.2-13.1,3.2-19.5,5c-8.1,2.3-16.1,5.5-24.3,7c-4.6,0.8-9.7-1-14.5-2
		c-6.6-1.4-13.1-3.1-19.6-4.9c-15.5-4.1-15.9-5.3-6.3-17.8c2.3-3,4.8-5.7,7.8-9.3c-15.6,5.7-26.6-2.1-37.1-10.7
		c-3.6-2.9-4.1-6.3-1-10.5c5.6-7.6,5.3-8.2-3.9-14.8c-1.9,7.2-3.6,14.2-5.7,21.1c-1,3.3-2.2,6.9-4.4,9.4c-5,5.8-10.8,5.8-16.1,0.6
		c-0.9-0.9-1.7-2.6-1.6-3.9c0.8-13.1-0.5-18.2-6.9-28.1c-15,4.9-29.7,9.8-46,15.1c4.7,0.6,8.2,1.4,11.7,1.3
		c10-0.3,20.1-1.3,30.1-1.3c2.8,0,7.3,2.3,7.9,4.4c1.3,4.8,2.1,10-3.1,14.3c-4.4,3.6-7.9,8.4-11.3,13c-4.1,5.6-7.8,11.6-11.8,17.7
		c7.8,8.6,15.7,17.4,24.3,26.9c1.6-8.7-3.3-14.7-6.9-21.2c12.5,4.7,5.9,21.6,19.9,27.1c-1.1-8.4-2.2-15.8-3.2-23.3
		c7,7.4,14,15,21.8,23.3c2.5-2.7,4.7-5.1,8.2-8.9c-6.8-4.5-12.9-8.4-18.8-12.6c-0.9-0.6-1-2.4-1.4-3.7c1.7-0.4,4-1.8,5-1.1
		c3.1,2.1,5.7,4.8,8.4,7.5c7.2,7.1,7.8,7.1,16.3-0.6c2.7,3.8,5.6,7.3,8,11.2c2.4,4,4.3,8.4,6.7,13.1c0.8-2.8,0.9-5.1,2-6.7
		c0.6-0.9,3.1-1.1,4.4-0.6c0.8,0.4,1.7,3.4,1.3,3.7c-6.7,5.7-2,10.5,0.6,15.9c3.3,7,6,14.3,9.5,22.7c-4.4,0.3-6.5,0.4-9,0.6
		c-0.1,1.5-0.7,3.3-0.3,4.9c2.2,8.5,4,17.1,10.5,23.9c2.7,2.8,3.5,7.4,5.2,11.2c-1,0.6-2,1.2-3,1.8c-1.8-1.9-3.8-3.7-5.3-5.9
		c-1-1.4-0.7-3.7-1.8-4.9c-1.9-2-4.4-3.3-6.7-4.9c-1.2,2-2.5,4-4.8,7.7c-1.4-4.9-2.5-9-3.7-13.3c-0.5,1.1-1,2.1-1.6,3.3
		c-6.5-12.3-12.9-24.5-20.3-38.6c-0.2,4.3-1.1,7-0.3,9c3.8,8.9,2.4,16.7-4.8,23.6c-0.4-0.3-1.4-1.2-2.8-2.2c0.3,3.3,0.5,6.2,0.8,9.1
		c-0.7,0.3-1.3,0.6-2,0.9c-2-4-4-8-6.1-12c-0.3,0-0.6,0.1-0.9,0.1c1.4,10.5,2.9,20.9,4.3,31.4c-0.6,0.1-1.2,0.2-1.8,0.3
		c-2.9-14.5-5.8-29.1-8.7-43.6c-0.7,0.1-1.3,0.2-2,0.3c0.7,8,1.4,15.9,2.1,23.9c-0.6,0.2-1.2,0.3-1.8,0.5c-1.1-2.8-2.5-5.5-3.1-8.3
		c-2.5-10.5-9.6-19.9-6.8-31.8c0.6-2.6-2.5-6-4-9.1c-0.7,0.2-1.3,0.3-2,0.5c0,14.9,0,29.8,0,44.7c-2-17-4.9-34.1-1.2-51.3
		c7.3,5.1,9.7,11.8,10.1,19.9c0.3,5.7,1.7,11.3,3.6,16.8c1-17.1-4.2-32.6-11.7-49.4c-2,4.2-3.4,7-4.7,9.8c-2.2,5-4.6,9.9-6.5,15
		c-1.5,4-3.6,7.8,0.6,12.4c2.3,2.5,1.8,7.5,2.7,11.7c-3.8-0.9-6-1.4-9.3-2.1c-0.7-2.3-2-6.7-3.3-11c-1.2,0.3-2.4,0.6-3.6,0.9
		c1.7,7.1,4.5,14.2,4.9,21.3c0.4,7.1-1.7,14.4-2.5,20.1c-3-4.1-6.1-10.2-4.1-17.8c0.3-1.3,0-3.2-0.8-4.3c-6.1-8.5-4.8-17.8-4.2-27.5
		c0.3-4.9-3.7-10.5-6.9-15.1c-1.9-2.7-7.1,1.2-6.4,6c0.9,6.3,2.2,12.9,5.1,18.4c4.6,8.8,4.6,11.1-1.3,19.6
		c-1.8,2.7-0.7,7.4-2.2,11.3c-0.3-2-0.7-4.1-0.9-6.1c-0.3-1.9-0.5-3.8-0.7-5.7c-0.8-0.1-1.7-0.2-2.5-0.3c-0.6,4-1.5,8-1.8,12.1
		c-0.3,4.4-0.1,8.9-1,13.4c-2.3-9.2-4.2-18.3-1.9-27.8c0.8-3.3,1.6-7,0.8-10.2c-2.6-10.9-5.8-21.7-9.1-32.4c-0.8-2.5-3-4.5-4.6-6.8
		c-0.8,0.4-1.7,0.8-2.5,1.2c1.2,5.2,1.4,11,3.7,15.6c4.8,9.6,1.2,16.3-5.3,22.1c2.5,4.6,4.9,8.9,7.3,13.2c-1.1,0.8-2.2,1.7-3.2,2.5
		c-0.6-2.2-1.3-4.4-1.9-6.6c-0.7,0.5-1.5,1-2.2,1.5c0,5.8,0,11.6,0,17.4c-0.6,0-1.2,0-1.8,0.1c0-6.2,0-12.3,0-19.4
		c-7.5,0-13.8,0-21.1,0c0,6.6,0,13,0,19.3c-0.7,0.1-1.4,0.1-2.2,0.2c-0.2-2.6-0.6-5.2-0.7-7.9c-0.1-3,0-6,0-9.7
		c-1.9,1.4-3.4,2.6-5,3.8c-0.6-0.4-1.2-0.7-1.8-1.1c2.2-4.1,4.4-8.2,7.1-13.1c-15.8-10.9-2-24.5-1.6-37.5c-0.7-0.5-1.4-0.9-2-1.4
		c-1.7,2.2-4.3,4.1-5.1,6.6c-3.2,10.2-5.8,20.6-8.7,30.9c-1.1,4-1.1,7.4-0.1,11.9c1.9,8.9,0.6,18.5-0.5,27.8c-4.8-8.1,2.8-18.5-6-27
		c-0.6,5.2-1,9.2-1.5,13.5c-0.9-0.4-1.5-0.5-1.5-0.7c-1.3-5.5-1.8-11.4-4.1-16.3c-2.7-5.6-0.2-9.2,1.9-13.9
		c2.6-5.7,4.1-12.1,5.1-18.4c0.4-2.3-2.1-5.1-4-9.1c-5.4,6.8-10.2,11.8-9.4,19.4c1.1,9.1,1.8,18-3.9,26.1c-1,1.4-1.3,4.1-0.7,5.8
		c2.8,7.3-1.8,12-4.1,15.4c-1-4.9-2.7-11-3.2-17.3c-0.2-3.1,2.6-6.3,3.2-9.6c0.8-4.6,0.8-9.3,1.1-14c-0.8-0.2-1.6-0.4-2.4-0.6
		c-1.4,4.3-2.7,8.6-4.2,13.4c-0.9-1.2-1.6-2.2-2.5-3.5c-1.1,1.3-2.2,2.5-3.4,4c-0.7-0.8-1.6-1.4-1.5-1.8c0.4-3.6-0.4-8.7,1.6-10.5
		c3.7-3.2,3-6,1.7-9.2c-3.6-8.9-7.6-17.7-12.1-28.2c-7.4,16.8-13.1,32-12.7,50.3c8-12.1,0.4-28.2,14.3-38.3c1.1,3.2,2.9,6,2.8,8.7
		c-0.7,14.5-1.8,28.9-3.6,43.3c0-14.8,0-29.6,0-45.4c-10.5,7-2.8,17.4-6.9,25.2c-4,7.6-6.1,16.2-10.9,24.1c0.7-7.9,1.3-15.7,2-23.6
		c-0.8-0.1-1.6-0.3-2.4-0.4c-2.8,14.4-5.5,28.8-8.3,43.2c-0.6-0.1-1.2-0.2-1.8-0.3c1.4-10.4,2.7-20.7,4.4-33.2
		c-3.1,5.8-5.1,9.6-7.2,13.5c-0.7-0.2-1.5-0.4-2.2-0.5c0.3-2.7,0.6-5.3,1-8.7c-1.3,0.7-2.3,1.2-2.5,1.3c-13.3-8.3-3-20.7-5.6-32
		c-6.9,13.3-13.4,25.7-20,38.3c-0.4-1.2-0.9-2.6-1.7-5c-1.1,5.2-2,9.5-2.9,13.8c-0.6-0.1-1.3-0.1-1.9-0.2c-0.3-2-0.5-4.1-0.8-6.3
		c-12.4-3.4-7.9,14.3-20,14.8c2.3-5.2,3.3-10,6.1-12.9c7.5-7.8,8.9-17.4,10.3-27.2c-8.2-1.6-9.5-6.5-4.7-17c2.8-6.1,5.9-12,8.3-18.2
		c0.5-1.3-1.4-3.6-2.9-7c0,0,1.5-1.4,2.9-2.8c1.6,2.4,3.3,4.8,4.6,6.8c4.2-7,9-14.9,13.9-23.1c9.4,8.3,9.4,8.3,17.5,0.1
		c2.8-2.8,5.4-5.7,8.1-8.5c-2.8-2-5.5-3.9-8.1-5.8c0.3-1.1,0.5-2.2,0.8-3.3c3.8-0.2,8.2,0.7,11.4-0.9c2.9-1.5,4.6-5.5,6.6-8.1
		c-5.9-4.9-10.7-8.9-15.7-13c6.8-7.2,12.2-3.2,18,0.3c4.2-6.4,8.2-12.4,12.2-18.4c0.3-0.4,0.4-0.9,0.4-1.4c0.3-9.3,1.9-11,11.9-12.7
		c1.4-12.4-12-16-14.9-26.5c-1.6,2.2-2.6,3.6-3,4.2c-4.1-2.8-7.5-6.3-11.5-7.5c-8.1-2.3-5.9-6.5-2.9-11.1c1.6-2.4,3.9-4.4,7.2-8.2
		c-8,2.9-14,5.2-19.3,7.1c1.9,7.2,3.9,14.1,5.4,21c1.3,5.9-2.4,10-7,12c-2.3,1-6.2-1-9.2-2.3c-8.6-3.7-17.2-7.7-25.7-11.7
		c-3-1.4-6.5-2.4-8.5-4.7c-3.8-4.2-7.7-5.2-14.8-2.1c3.2,2.3,5.6,4,8,5.8c-1.9,3-6.7,3-9.3-1.2c-1-1.7-1.4-3.7-2-5.7
		c-2.6-8.8-6.1-10-11.9-3.3c-1.6,1.8-0.2,6.1-0.2,9.2c-6.8-3.2-14.3-6.9-22.7-10.9c-3.7-7.3-3.7-7.3-20.2-1.1
		c9.3,4.4,18,8.5,28.7,13.6c-4.7,0-8.2,0.8-11.3-0.2c-3.7-1.2-7-4-10.6-5.7c-2.4-1.2-5.2-2.7-7.7-2.5c-7.8,0.7-15.6,2.1-24.2,3.4
		c3.2,1.5,6.1,3.3,9.2,4.2c9.2,2.4,18.5,4.4,27.8,6.3c4.2,0.9,6.8,2.6,6.8,7.4c0,4.2-0.6,6.7-5.6,8.1c-6.9,1.9-13.4,5.4-20.1,8.2
		c-0.2,0.7-0.3,1.5-0.5,2.2c8.5,3.5,17,7,25.6,10.4c0.7,0.3,2.1-0.2,2.7-0.7c12.8-11,29.2-14.1,44.2-20c0.2-0.1,0.4-0.3-0.4,0.4
		c1.1-3,1.3-6.1,2.6-6.6c3.3-1.2,7.1-1.6,10.6-1.7c2.3-0.1,5.4,2.1,7,1.2c5-3,10.1-3.1,12.3,1.9c1.9,4.3,3.5,10.6-1.9,12.7
		c4.7,8.1,9.3,16.2,14,24.1c1.8,3,3.9,5.8,6.3,8.3c5.6,5.8,4.9,12.2-2.2,15.6c-3.6,1.7-7.4,3.1-11.2,4.4c-11.6,4.1-23.1,8.3-34.8,12
		c-7,2.2-14.2,3.8-20.5,5.4c7,6.8,14.8,14,22.1,21.5c1.7,1.8,3.1,4.9,2.8,7.2c-0.4,4.8-2.1,9.5-3.2,14.2
		c-4.1,18.8-7.6,37.7-12.5,56.3c-4.1,15.6-9.7,30.7-14.6,46.1c-0.7-0.2-1.5-0.5-2.2-0.7c6.2-24.5,12.5-48.9,18.7-73.4
		c-0.9-0.3-1.9-0.6-2.8-0.9c-6.8,17.1-13.7,34.2-20.5,51.2c-1-0.3-2-0.5-3-0.8c0-2.3-0.1-4.5,0-6.8c0.5-7.1,1.4-14.2,1.3-21.4
		c0-2.2-2.3-4.5-3.9-6.5c-2-2.5-4.4-4.7-8-8.4c-11.1,25.7-21.7,50.6-32.4,75.4c-0.5-0.2-1-0.3-1.4-0.5c3.4-10.2,6.8-20.4,10.9-32.7
		c-18.3,13.6-34.8,25.5-40.7,47.1c-1.6,6-5.4,11.4-8.1,17.1c-0.7-0.2-1.3-0.4-2-0.6c-0.3-0.8-0.9-1.8-0.7-2.4
		c6.4-16.1,9.1-34.1,23.8-46.1c2.3-1.9,3.9-6,3.9-9.1c0.1-13.1-0.6-26.2-1-38.8c-2.5,0.7-6.6,1.8-12.2,3.4c0,4.9,1,12.2-0.3,19.1
		c-0.9,5-4.1,10-7.5,14c-6.9,8-14.7,15.4-22,24.1c7.8,0.7,8.2,4.7,5.8,9.3c-1.9,3.7-4,8-7.3,10.1c-9.5,6.2-17.3,14.1-21.8,24.3
		c-3.2,7.4-4,15.8-6.5,23.6c-2.1,6.6-5.1,13-8.6,19.2c-0.5-10.2,11.4-20.3-2-29.7c-1.3,0.9-2.8,2-4.4,3c-0.4-0.3-0.8-0.6-1.3-0.9
		c1.2-2.2,2.2-4.7,3.6-6.7c6.7-9.3,13.7-18.5,20.3-27.9c1.6-2.3,2.3-5.2,3.4-7.8c-0.7-0.4-1.4-0.8-2.2-1.1c-1.6,1.8-2.9,3.9-4.7,5.3
		c-2.6,1.9-5.7,3.2-8.6,4.6c-15.5,7.3-33,10.7-45,24.6c-1.3,1.5-4.4,2.2-6.6,2c-4.7-0.3-13.8,5.4-17.3,11.4
		c-6.4,11.1-12.6,22.2-19.3,33.1c-2.5,4.1-6.2,7.6-10.4,10.8c-0.4-12,8.6-20.2,13.3-32.3c-6.1,5.6-10.7,9.9-15.2,14.1
		c-0.8-0.6-1.6-1.3-2.4-1.9c2.6-3.9,4.8-8.2,7.9-11.5c5.2-5.5,11-10.2,16.5-15.5c2.8-2.7,5.8-5.5,7.9-8.8
		c6.5-10.5-0.2-22.2-12.8-22.6c-5.5-0.2-11-0.3-16.5-0.5c-0.7,0-1.3-0.7-2.8-1.6c4.7-12.2,11.1-23.7,19.9-33
		c12.9-13.7,21.9-29.1,28.2-48.4c-7.6,4.2-14.2,7.7-21.8,11.9c0.4-7.3,4.5-12.7,9.4-13.7c17.5-3.6,22.4-17.5,27.9-31.2
		c4-10,7.8-20,12.4-31.8c-16.1,3.6-31,6.8-45.8,10.1c-7.6,1.7-15.1,3.7-22.7,5.6c-7.6,1.9-13.2-2-18.9-5.7c0-0.9,0-1.8,0-2.7
		c4.3-0.4,8.6-0.8,12.9-1.3c5.7-0.8,11.4-1.5,17.1-2.6c23.3-4.8,46.7-9.5,69.9-14.8c2.6-0.6,6-4,6.5-6.6c2.3-13.1,4.6-26.2,5.3-39.4
		c0.6-10.1-7.6-15.3-15.5-19.5c-10.8-5.8-21.6-11.6-32.7-16.7c-7.4-3.4-15.6-5.2-23.2-8.3c-2.3-0.9-3.8-3.8-6-6.2
		c-14.8,1.9-31,4.1-47.3,6c-0.7,0.1-1.6-2-2.9-3.6c22.9,1.6,43.4-6.8,64.8-10c5.8-0.9,11.6-1.9,17.6-3.6c-20.4-2.8-41.4-3-59.3-17.5
		c7.1-4.7,12.1-5.5,19-2.3c18.4,8.4,38.6,6.6,58.7,9c0.6-7,4.8-14-6.5-14.2c-1.1,0-3.2-1.9-3.1-2.7c0.9-10.7-8.8-10.6-14.4-14.8
		c-1.5-1.1-2.7-2.5-4-3.7c1.6-1.4,2.9-3.3,4.7-4.1c4.6-2,9.5-3.6,14.2-5.3c-0.2-0.7-0.4-1.5-0.6-2.2c-9.9,1.4-19.8,3.1-29.7,4.1
		c-13.7,1.4-27.5,2.4-41.2,3.2c-5.7,0.3-6.6,2.5-5.5,7.7c1.8,8.3,3.3,16.7,3.9,25.1c0.3,3.3-2,6.9-3.1,10.3
		c-0.7-0.2-1.4-0.4-2.2-0.6c-0.4-6.5-0.6-13-1.1-19.5c-0.6-7-3.6-11.3-11.6-10.1c-1.3,0.2-2.7-0.5-5.4-1.1c2.9-1.4,4.5-2.2,6.3-3
		c-7.7-8-17.2-11.7-27.7-12.3c-1.9-0.1-4.8,2-5.8,3.8c-4.1,7.4-7.4,15.3-11.7,22.7c-1,1.7-4.5,2-6.9,3C9,332.8,8,330,8.9,328.2
		c4.3-8.5,9.1-16.7,14.2-25.9C15,300,8,298.1,0,295.8c4.5-4.7,4.5-4.7,14-2.2c-3.8-7.7-8.1-15.7-11.9-24c-3.4-7.3,0.3-12.9,8.4-13
		c12-0.1,24,0.8,35.7-3.9c4-1.7,5.6-3.3,5-7.5c-0.4-3-0.8-6.1-0.4-9c0.2-1.8,1.9-3.5,2.9-5.2c1.6,1.4,4.2,2.5,4.6,4.1
		c1,4.7,1.1,9.7,1.6,15.8c3.8-0.8,7.2-1.9,10.8-2.1c1.9-0.1,4,1.4,6,2.2c-1.3,1.8-2.7,5.1-3.9,5c-12.3-0.8-14.8,6.3-15.3,16.6
		c-0.3,7.9-2.3,15.8-3.7,24.2c13.8,0,27.2,0,41.4,0c1.5,6.9,7.8,5.5,13.8,4.5c6-1,12-2.1,17.7-3.1c-5.4-4.9-10.4-9.4-15.4-13.8
		c-5-4.5-10.1-8.8-15.5-13.7c8.5-3.2,16.8-6.3,26.8-10.1c-19.7-6.3-39.6-7.1-53.8-20.8c0.3-0.7,0.6-1.3,0.8-2
		c15.9,5.7,31.9,11.4,47.8,17c0.3-0.7,0.6-1.3,0.9-2c-1.5-1.9-3-3.8-5.2-6.6c9.1,0.5,16.9,0.5,20.1-9.4c0.7,0.4,1.4,0.8,2.1,1.1
		c-0.9,3.2-1.4,6.8-2.9,9.7c-3.2,6-2.5,8.7,4.1,10.1c5.4,1.1,11,1.2,16.3,2.2c2.2,0.4,4.5,2,6.1,3.6c0.5,0.5-1,3-1.8,5.4
		c1.7-0.1,5.6,0.2,5.8-0.5c1.6-5.2,2.4-10.7,3.7-17.2c4-1.9,6.8-0.4,6.6,5.5c-0.2,4.5-0.8,9-1.2,13.1c8.1,4.3,16,8.5,24.5,13
		c0.3-5.7,0.6-10.9,0.8-16.1c0.6,0,1.1,0,1.7-0.1c1.4,8.4,2.9,16.8,4.4,25.7c6.8-5.2,12.8-9.7,18.3-13.9c-6.8-7.5-13.5-14.7-20.1-22
		c0.8-0.8,1.7-1.5,2.5-2.3c1.6,2.9,3.2,5.9,4.8,8.8c0.8-0.6,1.6-1.3,2.5-1.9c0.9-1.8,1.9-3.6,4-7.8c1.7,4.5,2.5,7.2,3.8,9.7
		c1.6,3.3,2.7,7.8,5.4,9.5c5.9,3.6,12.8,5.7,19.1,8.6c2.4,1.1,4.5,2.9,8.1,5.2c-4.3,2-6.7,3.1-10.1,4.7c1.3,4.4,2.7,8.9,4,13.5
		c0.9,0,1.8,0,2.7,0c1.4-11.4,2.7-22.8,4-33.6c3.3,2.6,5.9,10.8,4.5,17.8c-1.3,6.5-3.2,12.9-5,19.8c5.2-3.1,9.8-5.8,14.5-8.6
		c-0.1-0.4-0.1-0.9-0.3-1.2c-1.6-2.3-6.8-3.7-2.6-7.4c0.8-0.7,4.6,2.3,7.2,3.3c2.8,1.1,5.8,2.5,8.6,2.3c1.6-0.1,3.1-3,5-4.9
		c1.4,0.4,3.7,1.1,6.1,2c2.2,0.8,4.4,1.7,6.7,2.6c-1.3,1.8-2.5,3.6-4,5.7c3.2,5.3,6.9,11.3,10.1,16.5c4.1-3,8.8-5.8,12.7-9.5
		c1.6-1.5,1.5-4.8,2.6-8.6c2.4,3.6,4.2,6.1,6.6,9.7c0-2.4,0.1-3.5,0-4.5c-0.2-2.2-0.6-4.5-0.9-6.7c1.7,1.3,3.3,2.8,5.2,3.8
		c1.3,0.7,3.6,1.6,4.5,1c3.4-2.3,6.4-5.1,11.8-9.5c-0.3,4.9-0.5,7.7-0.7,11.3c1.6-1.7,3-3.2,4.3-4.7c4.1,5.5,8,11.1,12.3,16.3
		c4.6,5.6,1.8,8.9-3.1,11.9c-2.7,1.6-5.5,3.2-7.9,5.9c2.1-0.4,4.2-0.8,7.4-1.4c-1.7,2.7-2.9,4.7-4.1,6.7c8.4-0.1,12.2-3.2,15-11.9
		c1-3.1,2.6-6.1,4.2-10c-1.4-1.5-3.7-3.9-7.2-7.6c5.3-1.9,9.1-3.3,13-4.7c2.8-1,5.6-2.3,8.5-3.2c1.2-0.4,2.6-0.1,4-0.2
		c-0.3,1.5,0,3.6-0.9,4.3c-2,1.7-4.6,2.8-8.2,4.9c5.9,3.4,11,6.4,17.2,10c-0.5-10.8-7.4-21.1-1.1-32.7c0.9,8.9,1.7,16.5,2.5,24.1
		c0.7,0.1,1.5,0.1,2.2,0.2c1.1-4.8,2.3-9.6,4.1-17.2c3,9.6,8,11.7,14.4,7.7c2.1-1.3,4.1-4.2,4.5-6.6c0.3-1.6-2.3-3.7-3.6-5.6
		c3-2.6,7.2-1.7,7.7,2.6c0.4,3.6,0.3,7.6-0.8,11.1c-2.4,7.3,2.6,11.8,5.5,17.1c0.4,0.8,2.6,0.5,4.5,0.9c0.3-3.3,0.6-6.1,0.8-8.3
		c4-1.4,7.5-2.7,11.3-4.1c0-5.1,0-9.9,0-16.8c2.6,3.4,3.7,4.9,6.1,8.1c-0.7-4.5-1-6.9-1.5-9.8c2.5,2.1,4.6,4,6.9,6
		c-3.5,5.8-2.2,9.2,4.8,8.9c4-0.2,8.1-1.2,12.4-1.9c0.6-2.1,1.2-4.6,1.8-7c0.4,0,0.9,0.1,1.3,0.1c0.3,2.3,0.6,4.6,1,7.6
		c2.3-0.7,4.5-1.4,9.1-2.9c-2.7,3.4-4.1,5.2-5.9,7.6c3.5,3.5,12.7,3.2,9.2,13.2c-2.5,7.1-6.4,10.8-13.4,14.8c3.5,1.2,7,2.4,11.1,3.7
		c1.8-4.3,3.5-8,5.8-13.6c2.5,5.2,4.3,9,6.2,13.1c4.3-0.9,8.3-1.7,11.2-2.4c-4.3-4.7-9.4-9-12.5-14.3c-4.8-8.1,0-12.5,9.4-13.6
		c-2.7-2.9-4.3-4.7-5.9-6.5c0.2-0.4,0.4-0.9,0.7-1.3c2.3,0.7,4.7,1.3,7.3,2.1c0.3-2.8,0.5-5.2,0.7-7.7c0.5-0.1,1.1-0.2,1.6-0.3
		c0.6,2.3,1.1,4.7,1.6,7c4.1,0.7,8.3,2.2,12.5,2.1c7.3-0.1,8-1.9,5-8.6c2.3-2.6,4.6-5.1,7.6-8.4c-0.9,3.9-1.5,6.8-2.1,9.7
		c0.4,0.2,0.8,0.4,1.2,0.6c1-1.5,2.1-3,3.1-4.5c0.5,0.1,1,0.2,1.5,0.3c0,4.7,0,9.4,0,13.6c4.2,4.6,15.5,1.5,11.6,12.5
		c5.7,0.5,11.4-6.3,10.9-12.6c-0.4-6-1.1-12-0.5-18.4c5.7,3,1.2,11.2,9,13.5c7.1,2,10.4-0.5,13.7-8c1.6,6.8,2.7,11.6,3.9,16.4
		c0.7,0,1.4-0.1,2.1-0.1c0.8-7.5,1.5-14.9,2.2-22c3.7,3.5,4.3,6.2,2.6,13.9c-1.2,5.3-2.5,10.6-4,17.1c6.5-3.6,11.7-6.5,17.9-9.9
		c-3.4-2.1-6.1-3.5-8.5-5.4c-0.8-0.6-1-2.6-0.8-3.8c0.1-0.5,2.2-1.1,3.2-0.8c4.1,1.2,8.1,2.5,12,4.2c2.9,1.3,5.6,3.1,8.3,4.7
		c-1.7,2.6-3.3,5.2-5.3,8.2c6.6,6.4,4,21.6,20.1,21.4c-4.8-4.7-2.8-12.8-9.9-15.6c2.1-5,3.7-10.3,6.3-15.1c1.7-3,4.8-5.3,7.9-8.5
		c0.7,0.7,2.3,2.6,4.6,5c-0.5-3.9-0.9-7-1.4-10.1c0.6-0.2,1.3-0.5,1.9-0.7c3,2.7,5.7,5.8,9.1,7.9c1.2,0.7,4-1,5.9-2
		c1.6-0.7,2.9-1.9,4.4-2.9c0,1.9,0.2,3.9,0,5.8c-0.2,1.6-1,3.1-0.4,5.2c1.7-2.7,3.4-5.4,6-9.7c0.9,3.9,1.5,6.3,1.5,6.7
		c5.4,4.8,9.5,8.4,13.7,12.1c3.3-5.4,7.1-11.5,10.5-17c-1.4-1.8-2.9-3.7-4.3-5.5c2.2-0.9,4.5-1.9,6.7-2.7c2.3-0.8,4.8-1.4,6.1-1.7
		c2.3,1.9,4.3,4.8,6.3,4.9c2.6,0.1,5.3-2.1,7.9-3.5c1.8-1,3.4-2.6,5.3-3.2c0.7-0.2,3.2,1.9,3,2.4c-0.5,1.7-1.8,3.2-2.9,4.7
		c-0.6,0.8-1.3,1.4-1.9,2.1c4.9,2.9,9.5,5.7,15.2,9.1c-1.9-7.1-4.8-13.6-5.2-20.2c-0.4-6.2,1.8-12.6,4.5-18.6
		c1.3,11.6,2.6,23.2,3.9,34.8c0.9,0,1.7,0,2.6,0c1.5-4.4,3-8.9,4.6-13.7c-3.1-1.2-5.8-2.3-10.5-4.1c3.1-2.4,4.9-4.4,7.2-5.4
		c5.5-2.5,11.2-4.3,16.7-6.8c5.2-2.3,9.6-5.2,8.6-12.4c-0.3-2.2,2.1-4.7,3.9-8.5c2.1,3.7,3.1,5.5,5.1,9.1c2.5-3.1,4.4-5.5,6.4-8
		c0.5,0.2,1,0.4,1.5,0.6c-1.1,2.3-1.6,6-3.3,6.6c-4.7,1.7-6.2,5.1-8.3,9c-1.5,2.8-5.1,4.4-8.4,7c5.9,4.6,11.7,9,18.7,14.5
		c1.5-8.6,3-17.2,4.5-25.7c0.6,0,1.1-0.1,1.7-0.1c0.5,5.1,0.9,10.3,1.4,15.9c8-4.3,15.7-8.4,23-12.3c0.6-6.3,1.1-12.7,2.1-19.1
		c0.1-0.5,3.4-0.6,3.9-0.7c1.4,6.7,2.5,12.5,4.1,18.2c0.2,0.7,3.8,0.4,5.7,0.6c-0.9-2.4-2.5-5-1.9-5.7c1.5-1.7,3.9-3.1,6.1-3.6
		c5.6-1.1,11.5-1.1,17.1-2.4c4.7-1.1,8.5-3.4,3.9-9.4c-2.1-2.6-2.4-6.6-2.6-10.7c4.5,8.5,11.7,9.7,21.5,8.7
		c-2.3,2.9-3.8,4.8-6.1,7.7c9.3-2.1,17.9-3.3,26-6.1c7.9-2.8,15.1-7.2,22.7-10.9c0.6,0.6,1.2,1.2,1.7,1.8c-1.4,1.7-2.3,4.3-4.1,5.1
		c-9.4,4.1-18.8,8.2-28.4,11.6c-6.1,2.1-12.6,3-19.3,6.2c8.1,3.1,16.1,6.1,24.7,9.3c-10.2,9.1-20.2,18.1-31,27.9
		c8.7,1.2,17.4,2.8,26.1,3.2c2.1,0.1,4.4-3.7,6.8-5.9c1.6,0.7,3.9,2.5,6.1,2.5c11.2-0.3,22.5-1,33.9-1.6c-1.6-11.4-3.1-23-5-34.5
		c-0.3-1.6-2.4-3.6-4.2-4.2c-3-1-6.6-0.6-9.5-1.9c-1.7-0.7-2.5-3.4-3.7-5.2c1.8-0.8,3.7-2.3,5.4-2.2c3.6,0.3,7.1,1.5,11.3,2.5
		c0.3-5.5,0-10,1.1-14.2c0.6-2.3,3.5-4,5.4-5.9c1,2.3,2.8,4.6,2.9,6.9c0.2,14.2,1.4,16.1,16.1,18.2c7.9,1.1,16,0.4,24.1,0.6
		c7.8,0.2,11.6,5.5,8.4,12.6c-3.8,8.5-8.3,16.6-12.1,24.2c3-0.5,7.6-1.2,12.1-2c0.2,1,0.4,1.9,0.6,2.9c-4.8,7.5-14.5,3.3-21.5,8.7
		c4.4,8.1,9.2,16.2,13.3,24.6c1,2.1,1.2,6.5,0,7.3c-4,2.8-5.9-0.3-7.6-3.9c-3.4-7.5-7.1-14.9-11.1-22.2c-0.9-1.6-3.3-3.6-4.7-3.5
		c-10.6,1.1-20.6,4-28.3,12.6c1.6,0.8,3.1,1.6,5.3,2.7c-1.4,0.6-2.2,1.2-3,1.2c-13.3,0.3-10.3,0.4-13.9,13.1c-1.4,5-0.2,10.8-2,17.2
		c-1.4-3.1-4.1-6.3-4-9.3c0.4-7.9,1.7-15.9,3.4-23.6c1.9-8.9,2-9.2-7-10c-20.4-1.9-40.9-3.8-61.3-5.7c-2.4-0.2-4.7-1-7-1.5
		c-0.3,0.7-0.5,1.5-0.8,2.2c4.6,1.7,9.3,3.2,13.8,5.2c1.9,0.8,3.4,2.5,5.1,3.8c-1.5,1.4-2.8,3.2-4.5,4
		C855.7,320.9,847.6,324.6,849.5,335.8c-9.5-1.8-10.2-1.3-9.9,7.6c0.1,2.7-0.1,5.7,0.8,8.1c0.9,2.5,2.7,5.9,4.8,6.6
		c5,1.6,10.4,1.9,15.1,2.6c2.8-9.1-3.1-9.3-8.2-11.3c-4.1-1.6-7.6-4.7-11.4-7.2C843.7,340.1,846.6,337.9,849.5,335.8z M216.9,508.5
		c8.8,1.4,17,1.2,23.7,4.2c8.3,3.7,11.7-0.5,14.1-6.3c8.4-20.1,16.5-40.4,24.3-60.7c0.6-1.6-1.2-5.4-2.8-6.2c-8.8-4-17.9-7.4-27-11
		c-2.7,6.8-2.7,6.8-16.2,0.7c-8,5.4-15.7,10-22.7,15.4c-6,4.7-13.3,8.3-14.5,17.8c-1.8,14.3-2.4,14.3-16.8,15.8c-2,0.2-4.1,0-6,0.6
		c-1.7,0.6-4,1.7-4.7,3.1c-6.5,15-12.7,30.1-18.5,44.2c4.5,1.1,8.4,2.1,12.7,3.2c5.8-4.3,11.5-10.8,18.7-13.5
		c11.6-4.4,21.3-11,30-19.5c2-2,2.6-5.4,4.2-8.9c23.1-6.8,24.6-32.5,38.4-48.3C247.5,464.7,229.5,484.3,216.9,508.5z M344.8,391.1
		c0,5.9,0.5,10.4-0.3,14.6c-0.2,1.3-4.6,3.3-6,2.7c-14.6-6.6-33,6.4-36.1,19c-2.1,8.6,7,20.2,14.7,16.7c10.6-4.8,21.9-4.6,32.6-7.8
		c13-3.8,25.5-9.1,38.2-13.6c3.7-1.3,4.5-2.8,2.9-6.6c-5.2-12.4-11.6-23.8-23.2-32C359.8,386.5,351.4,389.1,344.8,391.1z
		 M240.2,527.2c-0.4-1-0.9-2-1.3-3c-7.3-0.8-14.7-1.2-21.9-2.4c-11.3-2-12.1-4.1-6.1-13.5c0.9-1.3,1.6-2.8,3.1-5.5
		c-9,7-16.9,12.6-24.1,19.1c-1.8,1.6-1.5,5.7-2.2,8.4c2.7,1,4.5,1.7,7.1,2.7c-3.2,4.6-6,8.6-10,14.3c0.6-3.8,0.9-5.4,1.1-7.1
		c-0.6-0.2-1.3-0.5-1.9-0.7c-14,28.2-27.9,56.5-41.8,84.6c11.1,7.6,11,7.4,20.8,1.8c4.3-2.5,9-4.2,13.5-6.3
		c3.6-1.7,7.3-3.4,12.2-5.7c-11.9-4.4-22-8.1-34.6-12.6c6.6-6.4,11.3-11.4,16.6-15.8c10.1-8.5,20.8-16.4,30.9-24.9
		c10.3-8.8,20.2-18,30.3-27C234.6,531.2,237.5,529.3,240.2,527.2z M756.8,345.4c-5.6,5.5-11.4,5.5-18.3,1.7
		c-3.2-1.8-7.7-1.2-11.6-1.5c-4.2-0.4-8.6,0.2-12.6-1c-10-2.9-19.1,3.6-20.6,13.8c-2.2,14.2-5.5,28.3-7.7,39.4
		c13.4-5.1,29-11,44.7-16.9c-3.5-3.9-7.1-7.8-10.6-11.6c6.9-5.7,12.4-5.8,18.1,0.1c1.1,1.1,4.3,1.4,5.9,0.7
		c3.6-1.7,6.7-4.3,11.7-7.7c0,4.6,1.1,8.7-0.2,9.7c-2.1,1.6-5.8,1.1-9.4,1.5c7.9,9.3,17.7-2.3,25.4,3.3c-0.9-5-2.6-9-2.3-12.9
		c0.5-6.7,1.4-12.8-7.5-14.7C759.9,349.1,758.6,347,756.8,345.4z M231.8,304.3c-0.5,3.6,0.2,8.3-1.8,11.2c-6,8.7-14.4,8-23.2,2.9
		c-0.3,0.6-0.7,1.2-1,1.7c3.6,6.3,7.2,12.6,11.7,20.5c-11,0.6-16.4,5.6-13.5,16c8.6,3.4,17.2,6.6,25.6,10.4c5.7,2.5,6,10.3,1.2,14
		c-4.6,3.5-8.8,7.5-13.2,11.2c0.6,0.8,1.2,1.7,1.8,2.5c5.1-0.3,10.2-0.6,15.4-0.9c3.4-16.6,17.2-23.8,29.2-33.3
		c-4.1-2.2-7.6-3.6-10.5-5.8c-2.9-2.3-5.1-5.5-7.9-8c-8.3-7.2-9.8-12.8-5.8-22.8C244.3,312.7,242.4,308.7,231.8,304.3z M796.2,385.6
		c3.7,0.8,6.6,1.7,9.6,2.1c15.1,2.1,30.3,3.8,45.3,6.5c3.6,0.6,6.7,4.2,10.1,6.5c-0.3,0.7-0.6,1.4-0.8,2c3.5-1.8,7-3.5,9.5-4.8
		c-1.9-6.7-4-12.7-5.4-18.8c-3-14-2.9-14.3-17.2-15.4c-8.2-0.6-13.3-3.4-13.3-12.4c0-1.5,0.2-3.5-0.7-4.4c-1.7-1.8-4.4-4.4-6.1-4.1
		c-6,1.3-11.7,3.7-17.6,5.7C817.3,359.3,814.9,366.1,796.2,385.6z M175.2,542.8c-9.6-0.4-17.2-2.8-23.9,4.8c-7,8-14.7,14.6-18,25.8
		c-2.2,7.3-10.4,12.9-15.9,19.3c-4,4.7-7.8,9.6-13,15.9c12.6,1.5,24.1-0.8,29.9,14C148.5,594.9,161.6,569.4,175.2,542.8z
		 M522.3,342.3c-12.8,2-15.5,6.1-12.6,17.1c0.7,2.7,1,5.5,1.5,8.3c-0.6,0.1-1.2,0.2-1.8,0.3c-0.7-2.3-1.3-4.7-2-7
		c-0.6-2.4-1.3-4.8-1.8-7.3c-1.1-5-6.1-5.7-7.8-3.4c-2.6,3.5-3.5,8.8-3.7,13.3c-0.1,3,2.2,6.1,3.7,9c0.8,1.5,2.2,3.1,3.7,3.8
		c5.7,2.8,11.6,5.4,17.4,8c1.9,0.9,4.7,0.2,6.9-1.4c9.4-6.8,20-11.8,19.1-27.2c-0.6-10.5-1.2-16.8-11-21.1c-2.3-1-5.8-0.8-8.2,0.2
		c-1.1,0.5-0.9,4.3-0.9,6.6c-0.1,4.6,0,9.2,0,13.8c-1.7-2-1.6-4-1.7-6C523,347.1,522.6,344.9,522.3,342.3z M679.3,419.9
		c32.1,16.7,55.6,1,77.7-17.9c-4.9-2.9-10.2-6.1-15.7-9c-1.2-0.6-3.1-0.8-4.2-0.2c-14.5,7.6-32.4,6.9-45.3,18.8
		C688,414.8,683.4,417.2,679.3,419.9z M650.7,390.2c2.7,1.6,4.7,3,6.9,4c8.4,4,11.8,2.3,14.2-6.4c1.7-6,4.2-11.7,5.7-17.8
		c2.2-9,3.9-18.1,5.8-27.2c-6.9,3-12.8,5.5-18.7,8c0-0.7-0.1-1.2,0-1.6c0.7-2.3,2.7-5.7,1.9-6.8c-1.8-2.3-5-4.6-7.8-4.7
		c-1.7,0-4.5,3.8-4.9,6.3c-1.3,6.6-5.1,9.9-12.8,10.9c5.4,6.1,9.9,11.3,14.6,16.5c4.4,4.8,4.4,11.4-0.1,14.8
		C654.1,387.3,652.8,388.4,650.7,390.2z M579.4,396.4c-14.9,3.3-27.3,2.2-38.7-5.1c-2.3-1.5-5.2-2.1-7.3-3.7
		c-5.1-3.6-9.2-1.4-14.1,1.5c2.9,3.4,5.4,6.3,7.8,9.1c3.7-2.4,6.9-4.5,10.2-6.6c-3.1,5-8.9,8.3-10.2,12.8c-1.4,4.9,1.4,11,2,14.5
		c9.2,0.5,17.7,0,25.7,1.5c11.9,2.3,13.3,2.2,18.2-9.1C574.8,407.1,576.7,402.8,579.4,396.4z M441.7,461.3c7.4-8.6,14-16.3,21-24.4
		c-3-1.4-5.3-2.5-8.6-4.1c3.3-2.5,5.7-4.4,9.5-7.3c-3.1-3.4-5.9-8.9-9.1-9.2c-4.1-0.3-12.1,3.5-12.2,5.7
		c-0.6,15-15.9,14.9-22.6,23.3c-4.2,5.2-11.2,8.2-17.7,12.7c3.3,3.7,5.5,6.2,8,8.9c7.9-8.6,15.2-16.4,22.2-24
		c-1.3,7.8-2.5,15.4-3.7,22.9c1.3,0.4,2.6,0.8,3.9,1.1c2.2-4.7,4.5-9.3,6.6-14.1c2.2-5,1.8-11.6,10.8-14
		C445.7,446.6,439.3,452.2,441.7,461.3z M247.9,419.7c11.1,9.8,23.8,13.4,38,14.9c1.2-12.2,5.7-22.8,16-31
		c-11.4-4.2-21.6-8-33.2-12.3C273.7,411.2,258.8,413.6,247.9,419.7z M169.7,594.9c6.5,0.9,12.6,3.6,17.1,1.9
		c10.5-3.8,20.2-9.6,24.5-21.3c1.4-3.9,4.3-7.4,7-10.6c8.2-9.9,14-21.9,26.4-28.1c1.7-0.8,1.8-4.8,2.7-7.3c-2.5,0.4-5,0.8-7.4,1.4
		c-0.6,0.1-1,1.1-1.5,1.6C216.2,552.7,194,572.9,169.7,594.9z M293.2,510.7c4.3-2.5,8.6-4.7,12.4-7.5c2.6-2,5.6-4.7,6.5-7.6
		c4.1-13.7,5.6-28.4,16.2-39.8c-13,10-30.4,14.1-36.5,32.6C289,496.8,286.3,503.6,293.2,510.7z M487.6,367.1c8-16.1,5.5-22.7-9-24.7
		c-0.6,4.1-1.1,8.2-1.9,13.8c-0.9-2.3-1.6-3.2-1.5-4c0.3-4,0.5-8,1.2-11.9c1-5.7-2.2-7.5-6.8-7c-7,0.7-14.3,9.3-13.9,16.5
		c0.3,6.4,1.4,12.7,2.2,20.6c5.2-2.7,9.8-4.6,13.7-7.4C480.8,356.7,485.3,357.4,487.6,367.1z M197.7,404.2
		c-2.8-5.9-6.2-10.2-6.9-14.9c-2.4-17.3-13.8-19.2-27.9-17.8c-7.1,0.7-14.3,0.4-21.4,0.6c-0.1,0.8-0.2,1.6-0.3,2.5
		c8.9,4.9,17.7,10,26.8,14.8C176.8,394,186,398.3,197.7,404.2z M317.8,505.5c5.4-6,9-10.4,13.1-14.3c1.8-1.8,6.2-4,6.7-3.4
		c2.3,2.3,5.2,5.9,4.8,8.6c-0.9,7.2-3,14.4-5.2,21.4c-1.5,4.6-3.9,8.9-5.9,13.4c1,0.4,2,0.9,3,1.3c7.9-16,15.9-32,23.6-48.1
		c0.7-1.5,0.5-4.3-0.5-5.5c-4.2-5.1-8.8-9.8-12.9-14.3c-8.8,11.3-17.4,22.3-25.7,33.4C317.7,499.4,318.2,501.9,317.8,505.5z
		 M405.5,363.7c8.7-4.3,6.8-11.1,5-17.3c-1.7-5.8-4.6-11.1-11.8-11.9c-2.2-0.3-4.4-1.4-6.5-2.2c1.9-1.4,3.9-2.8,5.7-4.1
		c-4.4-3.8-5.4-3.6-7.8,2.9c-4.4,11.7-4.3,11.6-16,8.4c-1.6-0.4-3.7,1-5.6,1.6c0.8,1.6,1.3,3.5,2.5,4.6c1.6,1.5,3.8,2.3,5.8,3.3
		C386.2,354,395.7,358.8,405.5,363.7z M46.6,279.8c0.7-0.3,1.3-0.5,2-0.8c0.7-6.3,1.4-12.5,2.1-18.5c-13.6,1.6-26,3-39.6,4.5
		c4.5,10,2.4,22.4,15.4,27.1c4.7-6.1,9.7-12.3,14.7-18.8C43.2,275.7,44.9,277.7,46.6,279.8z M989.3,264.9c-13.3-1.5-25.7-2.8-39-4.3
		c0.6,6.2,1.3,12.3,1.9,18.4c0.8,0.4,1.7,0.7,2.5,1.1c1.5-2.6,2.9-5.1,4.5-7.7c5.7,7.4,10.5,13.7,15,19.7
		C987.3,287,985.4,274.7,989.3,264.9z M313.6,458.4c-10.4-6.1-19.2-11.3-27.9-16.4c-9.1,13.2-8.5,28.3-0.2,45.4
		C290.4,473.1,299,463,313.6,458.4z M457,449.7c3.3,7.8,6.3,15,9.5,22.8c1.3-1.6,2.3-3.7,2.9-3.6c10.3,1.7,9.2-7.4,11.2-12.5
		c1.9-5,1-11,2.7-16.2c1.6-4.9,1.4-8.2-4.9-11.2C471.4,435.9,464,443,457,449.7z M563.8,353.2c-0.4-0.5-1.4-1.9-2.2-2.9
		c-2.9,3.5-5.7,6.6-8.3,9.9c-2.4,3-4.7,6.2-7.3,9.7c8-1,14.7-0.7,20.5-2.9c6.5-2.4,12.2-7,18.2-10.7c0.3-0.2,0.2-0.9,0.3-1.4
		c1.7-6.9,3.5-13.8,5.3-21.1c-5.3-2-11.3-4.2-17.6-6.6c3.4,5.3,6.4,9.9,9.3,14.4C575.6,345.7,570.2,349.1,563.8,353.2z M584.1,449.9
		c-7.7-6.4-12.4-18.6-26.7-15.2c0.8,6.1,1.3,13,2.9,19.6c1.5,6.4,0.6,15.3,11.5,14.8c0.8,0,1.7,2,2.9,3.4
		C577.9,464.7,580.9,457.5,584.1,449.9z M705.1,312.8c-2.4,6.3-4.3,11.3-6.5,17c9.1,3.3,17.4,6.4,27,9.9c3.1-7.6,6.3-15.1,9.6-23.1
		C724.8,317.8,714.5,322.2,705.1,312.8z M265.5,316.6c3.5,8.3,6.7,15.7,9.9,23.1c9.6-3.6,18-6.7,26.8-9.9
		c-2.3-5.9-4.2-10.7-6.5-16.6C286.4,321.8,276.2,318.2,265.5,316.6z M835.1,290.9c5.3,1.3,10.3,3.8,15.2,3.5
		c5.1-0.3,10.1-3,14.6-4.5c-0.4-6.4-0.6-11.5-0.9-16.7c-4.3,0.6-8,1.3-11.7,1.5C839.3,275.4,838.6,275.9,835.1,290.9z M164.9,288.7
		c-3.1-13.8-6.6-15.7-28.8-14.7c0,5,0,10,0,16.1C145.4,293.2,154.9,299.8,164.9,288.7z M729.8,340.2c4.7,1,8.3,1.2,11.3,2.6
		c4.1,1.9,7.2,3,11.5-0.2c4.6-3.3,5.8-7.7,4-11.7c-2.6-5.8-6.9-10.9-11.3-17.6C739.5,323.5,734.8,331.6,729.8,340.2z M878.2,366.9
		c0.7,4.1,0.8,6.6,1.5,8.9c1.2,4.2,1.8,9.4,4.6,12.1c2.3,2.2,8,2.8,11.3,1.6c5.8-2,11.5-5.7,11.5-13.2c0-1.3-1.9-3.5-3.2-3.8
		C896,370.5,887.9,368.9,878.2,366.9z M295.4,559c6.7-14.6,12.6-27.5,18.5-40.4c-0.6-0.4-1.2-0.7-1.8-1.1
		c-9.3,8.8-18.6,17.6-28,26.5C287.7,548.9,291.1,553.4,295.4,559z M520.7,470.4c9.5-11.2,8.2-23.2,5.8-37.2
		c-4.9,3.2-11.7,5.2-12.5,8.7C511.5,451.6,512.8,461.6,520.7,470.4z M770.4,303.8c-9.5,3.9-13.6,9.3-11.8,15.6
		c1.9,7,3.8,14.1,5.8,21.6c4.2-1.7,9.1-3.7,14.7-6.1C770.7,325.8,767.3,311.7,770.4,303.8z M207.4,432.1c0.7,0.3,1.3,0.6,2,0.9
		c3.3-4.8,6.5-9.7,10-14.4c3.3-4.5,13.1-3,11.7-12.2c-5.7,0-11.3-0.4-16.7,0.2c-1.9,0.2-4.7,2.8-5,4.7
		C208.3,418.1,208,425.1,207.4,432.1z M256.1,314.7c-14.1,14.8-16.1,22.3-7.5,26.8c0.4-0.9,1.1-1.9,1-2.8c-0.5-7.6,6.2-7.3,10.6-8.8
		c0.8-0.3,3.6,5.2,5.5,8c0.8,1.2,1.7,2.3,2.6,3.4c0.8-0.6,1.6-1.1,2.4-1.7C266,331.6,261.3,323.5,256.1,314.7z M398.8,486
		c3.3-6,5.7-10.2,8.5-15.3c-5.9-4.2-11.8-8.5-17.8-12.8c-4.9,4.6-4.7,6.5,3.1,10.5c0.9,0.5,1.6,1.9,1.9,3
		C395.9,475.9,397.1,480.3,398.8,486z M651.3,457.7c-6.1,4.3-12.1,8.6-17.6,12.5c3.3,6,5.5,10.1,8.5,15.7c1.9-5.7,3.3-10.3,5-14.9
		c0.3-0.8,1-1.7,1.8-2.2C656.2,464.8,656.3,462.6,651.3,457.7z M510.7,402.1c-4.7-5.5-8.3-9.6-12.7-14.7c-2.2,4.2-4.9,6.9-4.9,9.6
		c0.1,6.1,0.6,11.8-8,13.5c0.7,0.8,1.4,1.6,2.1,2.5C494.7,409.6,502.1,406.1,510.7,402.1z M550.8,472c11.2-12.6,2.7-24.5,2.9-35.7
		c0-1.8-1.8-3.6-2.7-5.5c-1,0.3-2.1,0.7-3.1,1c0.6,7.9,1.1,15.8,1.8,24.5c0.5-0.1-0.9,0.1-3,0.5C547.9,461.3,549,465.5,550.8,472z
		 M339.8,464.6c-8.5-4.9-9.4-5.3-12.6,0.4c-4.1,7.4-6.8,15.6-10.2,23.5c0.9,0.5,1.8,1,2.8,1.5C326.4,481.7,332.9,473.4,339.8,464.6z
		 M809,316.5c10.4,14.8,12.9,17,19.1,17.4c-1.6-7.2-3.3-14.5-5.2-22.8C818.2,313,813.7,314.7,809,316.5z M334.6,496.3
		c-1.8,1.3-2.9,2.2-4.1,2.9c-1.3,0.8-2.6,1.5-3.8,2.1c5.7,7,2.2,13.3-8,15.2c2.1,3.8,4,7.2,6.8,12.1
		C329.6,516.9,344,510.5,334.6,496.3z M172.4,335.1c9.4-2.9,14.5-9.7,19.1-18.6c-4.5-1.8-9-3.5-13.7-5.3
		C175.9,319.3,174.3,326.5,172.4,335.1z M157.5,307.7c-3.8,1.9-7.7,3.9-11.2,5.7c5.3,5.7,10.3,11.1,15.5,16.7
		C166.6,319,165.8,314.9,157.5,307.7z M843.1,307.6c-8.4,8.3-9.2,13.2-3.6,22.2c4.9-5.4,9.8-10.8,14.8-16.3
		C850.8,311.6,847.1,309.6,843.1,307.6z M487.7,437.8c-4.4,27.7-4,30.4,4,31.2c-1.9-4.6,7.6-10.2-1.9-14
		C495.1,444.9,494.6,440.1,487.7,437.8z M611.7,321.9c5.7,22.5,8.2,17.4,17.8,12.5C626.7,321.9,624.6,320.4,611.7,321.9z
		 M388.7,321.9c-12.4-1.7-15,0.2-17.5,12.6C384.4,339.8,385.2,339.1,388.7,321.9z M611.8,336.4c-0.3,7.7-0.6,13.6-0.9,19.9
		c5.9-3.2,11.7-6,17.2-9.4c1.8-1.2,2.7-3.9,3.9-6c-2.6-0.1-5.9-1.3-7.7-0.2C619.3,343.8,615.9,342.3,611.8,336.4z M277.6,537.5
		c12.3-3.9,33.8-23.8,33.3-29.9C300.7,517.7,285.4,522,277.6,537.5z M589,457.7c-12.3,10.2-12.9,18.1-1.9,29.7
		C587.7,477.5,588.3,467.6,589,457.7z M187.3,282.7c-7.3-2.6-13.2-4.7-20.9-7.4c3.8,8.6,6.5,14.8,9.8,22.3
		C180,292.4,182.9,288.5,187.3,282.7z M834.3,275.1c-7.8,2.9-13.7,5.1-20.6,7.6c4,5.5,6.9,9.6,10.8,15
		C827.9,289.9,830.6,283.6,834.3,275.1z M201,303.3c-1.7-6.4-2.9-11.1-4.8-18.2c-5.7,5.7-10.4,10.5-16.4,16.5
		C187.7,302.3,193.8,302.7,201,303.3z M877.8,357c-0.1,6.7,6.7,9.9,27.6,12.1c1.8,0.2,3.8-1.9,7.2-3.8
		C899.2,362.2,888.5,359.6,877.8,357z M454.5,487.3c0.9,0,1.8,0,2.7,0c7.1-14.4,5.9-23.4-4.8-30.4
		C453.1,467.5,453.8,477.4,454.5,487.3z M822.1,337.7c-6.7-4.9-13.2-9.6-20.1-14.7c0,5.6,0,10.1,0,15.1
		C808.2,343.1,815.1,341.4,822.1,337.7z M623,467.4c2.3,10.1,3.9,18.4,6.2,26.6c0.4,1.4,3.7,1.9,5.7,2.8
		C637.9,483.6,636,478.6,623,467.4z M406.2,497.1c2.1-1.3,5.3-2.1,5.8-3.8c2.3-7.7,3.9-15.7,6.1-25.4
		C407.1,476,403,484.7,406.2,497.1z M821.2,301.7c-6.3-6.1-11.1-10.8-16.9-16.5c-1.8,7.5-3,12.4-4.3,18.1
		C806.9,302.8,812.8,302.3,821.2,301.7z M178.5,337.9c3.7,1.3,5.9,3.4,10.3-0.7c3.3-3.1,10-9.6,15.6-0.8c0.5,0.8,2.8,0.4,4.2,0.6
		c0.5-0.7,0.9-1.4,1.4-2.1c-5.1-2.7-10.1-5.4-15.2-8.1c1.1-1.1,2.1-2.2,3.2-3.3C191.7,328.2,185.4,332.8,178.5,337.9z M528.3,491.3
		c-2.7-4.5-5.2-8.5-7.8-12.8c-2.7,4.5-5.2,8.7-7.7,12.9C519.4,500.4,522.3,500.4,528.3,491.3z M289.6,310.1
		c-11.6-7.3-20.6-7.7-26.6-0.8c4.1,1.2,8.4,2.5,12.6,3.7C280.5,314.3,285.4,315.3,289.6,310.1z M738.8,310.2
		c-8.3-7.9-16.1-7.9-27.6,0.5C720.7,319.1,729.2,308.5,738.8,310.2z M599.7,334.8c-5.3,2.6-8.4,6.8-9.9,12.5
		c-1.7,6.7-1.5,7.1,5.1,13.9C596.4,353.3,598,344.3,599.7,334.8z M512.2,416.1c-5.3,2.3-10.2,4.1-14.7,6.6c-1.2,0.7-2.1,3.2-1.9,4.8
		c0.1,1,2.3,2.3,3.7,2.5C508.8,431.4,512.2,427.9,512.2,416.1z M538.6,445.4c0.9-1.5,1.6-2.8,2.9-4.9c1,3.1,1.6,5.1,2.2,7.2
		c0.6,0,1.1-0.1,1.7-0.1c0.5-5.8,1.1-11.6,1.7-18.8c-5.5,1.2-9.4,2-13.6,2.9C535.3,436.5,536.8,440.6,538.6,445.4z M515.5,426.2
		c12.3-2.7,13.3-4.7,8.8-17.3C515.2,412.9,514.6,414.2,515.5,426.2z M258,521c6,0,10.5,0,17,0c-4.1-6-7.3-10.6-11-15.9
		C261.9,510.7,260.1,515.3,258,521z M274,555.7c0.5,6.1,1,12.9,1.5,19.1c10.1-7.5,10.1-7.5,3.5-19.1
		C277,555.7,275.1,555.7,274,555.7z M198.4,369.9c2.8,6.8,4.8,11.4,7.3,17.5c3.4-5.3,6-9.3,9.3-14.5
		C209.4,371.9,205.2,371.1,198.4,369.9z M267.8,498.1c11.6-8.1,11.9-9.3,6.4-29.1C271.9,479.5,269.8,488.8,267.8,498.1z
		 M346.8,329.1c0.7,0.4,1.3,0.8,2,1.2c3.3-3.1,8.5-5.8,9.3-9.5c0.8-3.4-2.7-8.3-8.2-8.1C348.9,318.5,347.9,323.8,346.8,329.1z
		 M791.5,372.2c1.9-4.3,4.9-8.2,4.9-12.1c0-2.1-5.2-4.1-8.4-6.3C784.5,365.4,784.5,365.4,791.5,372.2z M321,325.3
		c-1.4-4.5-2.3-7.2-3.1-9.8c-3.1,2.8-8.3,5.1-9,8.3c-1.3,6.9,5.6,7.3,9.8,9.7c0.5-0.4,1-0.9,1.5-1.3c-2.3-3.3-4.7-6.6-7-10
		c0.3-0.3,0.6-0.5,0.8-0.8C315.6,322.3,317.2,323.2,321,325.3z M486.3,331.4c1.1,0.2,2.3,0.3,3.4,0.5c1.4-3.9,4.3-8,3.7-11.5
		c-0.5-2.8-5.3-4.9-8.3-7.3c-0.5,0.4-0.9,0.8-1.4,1.3C484.6,320,485.5,325.7,486.3,331.4z M511,331.9c1.2-0.2,2.3-0.3,3.5-0.5
		c0.8-5.7,1.7-11.4,2.5-17c-0.7-0.4-1.4-0.8-2.1-1.3c-2.7,2.5-7.2,4.7-7.6,7.4C506.8,324.1,509.6,328.1,511,331.9z M651.6,330.1
		c0.7-0.4,1.5-0.8,2.2-1.3c-1-5.3-2-10.5-3.1-16.1c-5.6,0-9,4.8-8.3,8.4C643.1,324.5,648.3,327.1,651.6,330.1z M388.2,481.7
		c0.4,6.8,0.8,13.6,1.2,20.4C398,492.8,397.9,491,388.2,481.7z M477.1,321.9c-8.7-6-10.9-5.7-16.9,3
		C467.2,331.5,472.2,326.7,477.1,321.9z M529.5,485.4c0.5-8.7,0.9-16.5,1.3-24.4C527.6,468.7,517.4,476.1,529.5,485.4z M523.2,321.8
		c5.6,4.5,10.6,10.3,17.4,2.5C532.9,316.2,532.7,316.2,523.2,321.8z M228.2,311.4c-5.1-6.6-8-13.9-17.4-14.1
		c-0.6,1.8-1.2,3.6-1.5,4.5c4.7,1.8,8.9,3.3,13.1,4.9c-1.8,3.2-3.6,6.5-6.4,11.5C220.8,315.5,224.2,313.6,228.2,311.4z M652.8,481.8
		c-0.8-0.1-1.6-0.2-2.4-0.4c-7.2,11.4-7.2,11.7,1.3,22.6C652.2,495.3,652.5,488.5,652.8,481.8z M887,274.6c-0.2-0.8-0.4-1.6-0.6-2.5
		c-4.2-0.3-8.5-0.5-13.3-0.8c-0.4,4.6-0.7,8.2-1.2,13.2C878.1,280.5,882.5,277.5,887,274.6z M511.9,485.3c8.2-8.6,7.9-11.8-1.9-25.7
		C510.7,468.9,511.3,476.7,511.9,485.3z M932.8,314c6-4.3,10.2-7.3,14.3-10.3c-0.2-0.5-0.4-1-0.5-1.6c-7.2,0-14.3,0-21.5,0
		C930.4,303.6,937.1,303.2,932.8,314z M114.2,272.4c-0.1,0.8-0.3,1.7-0.4,2.5c4.6,2.9,9.2,5.8,15.3,9.6c-0.8-5.5-1.4-9.2-2.1-13.4
		C122.3,271.6,118.2,272,114.2,272.4z M68.4,314.3c-6.1-12.2,3.1-9.9,8.1-12c-8.1,0-15.5,0-25,0C57.6,306.7,61.7,309.6,68.4,314.3z
		 M690.9,332.8c1.5,5.3,2.5,8.7,3.6,12.6c4.5-2.3,8.9-4.4,13.8-6.9C702.4,336.6,697.4,334.9,690.9,332.8z M232.2,558.5
		c-9.8,7.7-19.4,23.2-18.7,30.5C220.1,578.1,226.2,568.3,232.2,558.5z M593.5,312c-8.1,4,0.2,12.1-5.5,15.6c4.3,3.2,8.6,5,9.1-1.5
		C597.5,321.7,595,317.2,593.5,312z M412.3,328.9c-1.1-6.6-2-11.4-2.8-16.3c-0.9,0.1-1.9,0.2-2.8,0.4c-0.6,3.4-1.3,6.7-1.7,10.1
		c-0.2,2.2,0.2,4.4,0.3,6.7C407.6,329.5,409.9,329.2,412.3,328.9z M967.6,296.9c-4.8-5.3-8.9-9.6-12.9-14
		C955.1,296,956.6,297.6,967.6,296.9z M686.8,323.1c-0.4,2.1-1,4.9-1.5,7.6c0.5,0.3,1,0.6,1.4,0.8c2.1-1.9,4.3-3.7,6.6-5.7
		c-1.4-2.7-2.1-5.3-3.8-6.9c-1.8-1.7-4.5-2.5-6.9-3.3c-0.3-0.1-1.5,2.1-2.2,3.3C682.3,320.2,684.3,321.5,686.8,323.1z M33.1,297.1
		c11.2,0.5,13.1-1.7,14.3-15.8C42.1,287.1,38,291.6,33.1,297.1z M441.6,345.1c3.9,6.3,7.3,11.8,10.6,17.4c0.2-0.2,0.5-0.4,0.7-0.7
		c-1.4-6-2.8-12-4.3-18.4C446.5,343.9,444.8,344.3,441.6,345.1z M615.6,372.4c0.8,0.1,1.6,0.1,2.5,0.2c1.3-5.3,2.6-10.5,4-15.8
		c-0.6-0.2-1.2-0.5-1.9-0.7c-2.6,1.8-5.1,3.6-7.6,5.3C613.6,365.4,614.6,368.9,615.6,372.4z M188.5,349.5
		c-4.6-6.7-17.7-8.2-20.9-1.6C174.6,348.5,181.6,349,188.5,349.5z M530.9,501.2c7.1-3.4,7.3-11.3,1.4-21.5
		C531.8,487,531.4,493.6,530.9,501.2z M547.8,361.7c0.3,0.3,0.5,0.7,0.8,1c3.4-5.7,6.8-11.4,10.2-17.2c-5.6-3.1-7.8-2-8.4,2.9
		C549.8,352.8,548.7,357.2,547.8,361.7z M509,479.6c-6,13.5-5.8,17.8,1.1,21.7C509.7,494.3,509.4,487.9,509,479.6z M536.4,331.3
		c4.2,4,7.7,7.4,11.2,10.7c0.5-0.3,1.1-0.7,1.6-1c-1.5-2.9-3-5.9-4.7-9.3c0.4-0.8,1.1-2.4,2.5-5.6
		C542.5,328.3,539.7,329.7,536.4,331.3z M456.6,327.5c-1.8,5.4-3.2,9.7-4.1,12.4c3-2.6,6.8-5.9,10.6-9.2
		C461.2,329.7,458.4,328.4,456.6,327.5z M386.7,468.5c-1-0.3-1.9-0.7-2.9-1c-2.5,5.9-6.6,11.4-6.2,18.2c0.8,0.3,1.6,0.5,2.4,0.8
		C382.2,480.5,384.4,474.5,386.7,468.5z M658,467.9c-1.2,0.4-2.4,0.8-3.6,1.1c2.3,5.8,4.6,11.7,7,17.5c1.1-0.4,2.3-0.8,3.4-1.2
		C662.6,479.4,660.3,473.7,658,467.9z M230.3,281.2c-5.6,3.8-10.1,6.9-16.4,11.2c8.3-1.5,14.9-1.9,18.2-8.6
		C232.5,283,230.2,281,230.3,281.2z M532,435.1c0.6,20.5,0.6,20.5,5.8,19.7C535.9,448.1,534,441.6,532,435.1z M783.7,293.2
		c0.4-0.7,0.7-1.4,1.1-2.1c-4.6-3.2-9.1-6.4-14.5-10.2c-0.1,0.4-1.6,3.2-1.3,3.4C773.8,287.6,778.8,290.4,783.7,293.2z M638.5,343.1
		c0,2.5-0.7,5.1,0.2,6.7c0.6,1,3.9,1.4,5.5,0.8c2-0.8,3.4-2.9,6-5.1C645.6,344.5,643,344,638.5,343.1z M480.6,311
		c-4.6,0.3-8.2,0.5-11.8,0.7c-0.1,0.5-0.1,0.9-0.2,1.4c3.9,2,7.9,4.1,12.8,6.6C481.1,315.9,480.9,313.8,480.6,311z M517.9,336.7
		c4.8-3.8,7.1-5.6,10.4-8.2c-3.4-1.5-6.1-2.7-9.8-4.3C518.3,328.6,518.1,331.7,517.9,336.7z M532.1,312.9c-0.1-0.5-0.2-1-0.3-1.4
		c-3.8,0-7.7,0-11.9,0c0,2.6,0,4.7,0,7.9C524.3,317,528.2,315,532.1,312.9z M472.7,328.8c3.1,2.4,5.5,4.3,9.2,7.2
		c0-4.3,0-7.6,0-12.1C478.3,325.8,475.7,327.2,472.7,328.8z M450.4,477.8c-0.4-5.5-0.9-11.1-1.3-16.6c-0.8,0.1-1.6,0.2-2.4,0.3
		C444,467.4,446.7,472.8,450.4,477.8z M553.1,334.7c5.1-1.7,8.3-2.7,11.6-3.8c-0.1-0.8-0.2-1.6-0.3-2.4c-2.1-1-4.1-2-6.7-3.3
		C556.3,328.1,555.2,330.4,553.1,334.7z M442.9,324c-2.5,2.6-4.2,4.6-6,6.5c3,1.2,5.9,2.4,8.9,3.6c0.3-0.6,0.5-1.2,0.8-1.7
		C445.7,330.3,444.8,328.3,442.9,324z M789.3,296.4c-3.8,2-6.9,3.6-10,5.2c0.3,0.7,0.6,1.4,1,2.1c3.8-0.2,7.5-0.4,12-0.6
		C791.1,300.7,790.5,299.1,789.3,296.4z"/>
	<path d="M756,486.6c9.9-17.9,6.3-34.1-2-50.3c3.3-1.1,5.3-2.2,7.5-2.5c12-1.5,22.4-6.7,32.3-13.5c7.9-5.5,10.3-4.9,15.1,1
		c-4.5,1.3-9.5,2.3-14,4.2c-9.9,4.2-19.7,8.7-29.2,13.5c-1.9,0.9-4.3,4.6-3.7,5.9c8.8,21.8,17.9,43.5,27.1,65.2
		c1.8,4.3,4.5,5,9.5,3.2c6.7-2.5,14.2-2.7,21.3-4.1c1.2-0.2,2.2-1,4.5-2.1c-7.1-11.3-14.1-22.2-20.9-33.2
		c-6.9-10.9-13.6-21.9-15.1-35.4c1.1,1.5,2.2,2.9,3.1,4.5c6.7,11.8,12.7,24,20.2,35.2c3.2,4.7,9.6,7.2,14.5,10.7
		c1.2,2.4,2,5.8,4.1,7.8c8.5,8.3,18,14.8,29.4,19.1c7.4,2.8,13.4,9.4,18.8,13.4c5-1,9-1.9,13.3-2.7c-6.7-16-13.7-32.7-20.7-49.3
		c0.8-0.5,1.6-1.1,2.4-1.6c2.5,3.3,5.7,6.3,7.3,10c5.2,11.7,10.1,23.5,14.5,35.5c3.7,10.1,9.8,16.8,20.6,19.5
		c6.6,1.6,10.6,6.8,12.6,15.2c-7.8-4.3-14.3-7.9-22.3-12.4c6.4,17.9,13.7,32.8,25.6,45.9c8.1,9,13.9,20.1,20.6,30.4
		c1,1.6,1,3.7,2,7.6c-5.7,0-10.6,0-15.4,0c-12.1-0.1-17.8,2.8-19.4,14.1c-0.7,4.9,4.9,11.3,8.9,15.9c7.2,8.3,15.4,15.7,23,23.6
		c1.2,1.3,1.6,3.3,2.4,5c-0.5,0.5-1.1,1-1.6,1.4c-4.6-4.2-9.2-8.4-13.8-12.6c-0.3,0.1-0.5,0.3-0.8,0.4c5.1,9.7,10.2,19.5,15.3,29.2
		c-0.9,0.6-1.8,1.3-2.8,1.9c-2-1.9-4.5-3.4-5.9-5.6c-7.3-11.4-14.7-22.7-21.4-34.5c-5-8.8-9.8-16.7-21.9-14.6
		c-1.2,0.2-3.1-1.5-4.2-2.8c-12.6-14.2-30.3-18.6-47-25c-4.5-1.7-8-6-13.1-10c0.5,2.8,0.3,5.3,1.4,6.8c6.5,9.5,13.4,18.7,20,28
		c1.9,2.7,3.5,5.7,4,9.6c-1.5-1-2.9-2-4.4-3.1c-12.8,9.3-2.4,19.5-2.1,30.1c-1.1-1.8-2.7-3.5-3.3-5.5c-3.3-10.9-5.9-22.1-9.6-32.9
		c-4-11.8-12.4-20.3-22.1-27.9c-3.7-2.9-6.7-7.2-9.1-11.3c-2.6-4.5-1.9-8.2,5.4-7.7c0.3-0.6,0.6-1.3,0.8-1.9
		c-6.9-7.3-13.7-14.8-20.9-21.9c-5.5-5.4-10.1-10.4-8.2-19.4c1.2-5.6-0.7-11.8-1-15.1c-5.6-1.6-9.5-2.7-14.1-4.1
		c0.2,1.8,0.5,3.6,0.5,5.4c0.3,9.7,1.2,19.4,0.4,28.9c-0.6,6.9,0.5,11.7,5.9,16.5c13.6,12.1,16.1,29.6,22.4,45.3
		c-1.1,0.5-2.1,1-3.2,1.5c-3-6.3-7.1-12.3-8.9-19c-5.7-20.9-22.6-31.7-39.3-43.3c3.4,10.1,6.8,20.3,10.2,30.4
		c-0.4,0.2-0.9,0.3-1.3,0.5c-10.6-24.6-21.2-49.2-32.2-74.8c-4.6,4.3-8.6,7.5-12,11.3c-1,1.1-0.5,3.7-0.4,5.6
		c0.6,8.5,1.2,17,1.9,25.5c-0.9,0.3-1.7,0.7-2.6,1c-1.7-3.1-3.7-6.1-5-9.4c-5.4-13.9-10.7-27.9-16-41.9c-1,0.3-2.1,0.6-3.1,1
		c6.2,24.4,12.4,48.8,18.7,73.2c-0.3,0.1-0.7,0.3-1,0.4c-2.2-5.4-5-10.6-6.5-16.2c-4.6-16.6-8.9-33.3-13-50
		c-2.8-11.4-5.3-22.9-8-34.3c-1.3-5.5-2.9-10.9-3.9-16.4c-0.3-1.7,0.7-4.2,1.9-5.4c7.5-7.2,15.3-14.1,23.1-21
		c2.5-2.2,5.9-6.1,7.8-5.5c5.4,1.5,10.2,4.8,15.1,7.7c6,3.5,12,7.1,17.6,11.2c2.6,1.9,4.7,4.9,6.5,7.8
		C751.5,477.7,753.6,482.1,756,486.6z M885.2,599.7c-0.4,0.9-0.9,1.8-1.3,2.8c-10.1,3.6-20.2,7.3-31.8,11.4c9.4,4.3,18,6.8,25,11.7
		c8.1,5.7,14.5,6.1,21.8-2c-13.8-27.8-27.8-56-41.8-84.2c-0.7,0.3-1.5,0.7-2.2,1c0.5,1.7,0.9,3.4,1.4,5.1c-0.3,0.2-0.7,0.3-1,0.5
		c-2.8-4.2-5.5-8.4-8.3-12.8c5.9-2.8,8.3-8.3,5-11c-7.6-6.4-15.6-12.3-24.3-19c8.3,16.5,6.7,19-11.1,19.2c-1.3,0-2.5-0.1-3.8,0.2
		c-3.6,0.7-7.1,1.6-12.3,2.8c3.7,3.5,6.2,5.9,8.7,8.2c9.5,8.5,18.9,17.2,28.7,25.5c10.7,9,21.8,17.5,32.5,26.5
		C875.6,589.9,880.3,594.9,885.2,599.7z M866.1,543.3c13.5,26.2,26.7,51.8,39.9,77.4c0.7,0,1.4,0,2.1,0c4.5-13.4,16.6-9.9,28.4-12.7
		c-5-5.9-9-10.6-12.9-15.4c-5.9-7.3-14.2-13.9-16.8-22.3c-2.9-9.3-9.7-14.1-14.9-20.8C885.3,541,876.8,541.1,866.1,543.3z
		 M870.4,592.4c-3.2-2.4-6.6-4.4-9.5-7c-19.8-18-39.5-36.2-59.3-54.2c-1.6-1.4-3.9-2.3-6-2.8c-0.6-0.1-2.8,2.6-2.5,3
		c1.3,2.3,2.9,4.5,4.8,6.2c1.6,1.4,4.3,1.8,5.6,3.3c7.4,9.1,14.7,18.3,21.8,27.7c7.7,10.1,11.9,23.1,26.5,26.9
		C858.2,597.3,864.3,597.9,870.4,592.4z M713.7,455.5c3.9,8.9,9.4,17.1,11.2,26c2.7,13.6,8.7,23.5,21.7,28.7
		c0.6,0.3,1.3,0.5,1.4,0.6c6.9-7,6-14.3,1.5-21.9c-3-5-4.9-11-8.9-15.1c-4.8-5-11.1-8.5-16.9-12.5
		C720.3,459.1,716.6,457.2,713.7,455.5z M696.9,464.1c-4.4,4.8-9,9.6-13.2,14.8c-1,1.2-1.1,4-0.4,5.5c7.6,15.9,15.5,31.7,23.3,47.5
		c0.8-0.3,1.6-0.6,2.4-0.9c-0.6-2.5-0.7-5.1-1.8-7.3c-2-4.3-5.7-8.2-6.5-12.6c-1.1-6.6-1-13.5-0.1-20.2c0.5-4,4.2-4.8,7.4-1.7
		c4.9,4.8,9.6,9.8,14.7,14.9c0.3-1.2,1.3-3.1,0.8-3.8C714.7,488.2,705.8,476.2,696.9,464.1z M746,559.1c4.5-5.9,7.9-10.5,11.4-15.2
		c-9.5-8.9-18.8-17.6-28-26.2c-0.6,0.5-1.2,1-1.8,1.5C733.4,531.9,739.3,544.7,746,559.1z M721.6,490.2c0.9-0.5,1.8-1,2.6-1.5
		c-3.3-7.9-6.3-16-10.1-23.7c-2.7-5.4-7.1-5.4-12.6,0C708.3,473.4,714.9,481.8,721.6,490.2z M711.1,503.9c2.2,1,3.6,1.6,5,2.3
		c0.2-0.4,0.5-0.8,0.7-1.2c-3.2-2.9-6.4-5.7-10.2-9c-9.7,15.1,5.4,21.2,9.2,33.4c2.8-5.6,4.6-9.1,7.1-14
		C712.3,517.1,711.8,511,711.1,503.9z M729,505.9c1.6,8.4,22,26.8,32.8,31.2c0-1.6,0.6-3.6-0.1-4.2
		C751.3,524.2,740.9,515.7,729,505.9z M766.7,467.1c-5.4,23.1-5.4,23.1,6.9,31.4C771.7,489.6,769.5,479.4,766.7,467.1z M777.2,504.4
		c-3.7,5.8-6.7,10.6-10.4,16.5c6.5,0,11,0,16.3,0C781,515.1,779.3,510.3,777.2,504.4z M768.1,576.6c-1.3-4.2-3.2-7.4-3.1-10.7
		c0.1-3.1,2.1-6.2,3.3-9.2c-2.3-0.5-4.2-1-6.1-1.4C755.6,567.8,755.6,567.8,768.1,576.6z M811.1,557.3c4.6,14.8,14.4,28.9,19.9,29.9
		C823.9,576.6,817.5,567,811.1,557.3z M816.6,584.8c0.8-0.5,1.7-1,2.5-1.5c-3.9-6.4-7.8-12.8-11.6-19.2c-0.4,0.3-0.9,0.5-1.3,0.8
		C809.6,571.6,813.1,578.2,816.6,584.8z"/>
	<path d="M501.1,629.6c13.6-12.7,27-25.1,40.1-37.3c-3.5-8.1-13.8,2.5-16.4-7.7c1.7,0.1,2.9,0.2,2.3,0.1c2.3-2.8,3.4-5.2,5.1-5.8
		c6.5-2.2,12.3-0.7,17.3,4.2c1.9,1.9,4,3.7,6.6,5.9c12.8-12.2,25.6-24.5,38.5-36.8c-1.5-1.7-2.8-3.2-4.1-4.8c0.7-1,1-1.8,1.6-2
		c10.7-4.7,18.7,2.6,21.9,11.6c0.5,1.3-0.3,3.8-1.4,4.6c-1,0.8-3.3,0.7-4.7,0.2c-1.5-0.5-2.8-1.9-4.4-3.2
		c-14,11.8-27.8,23.3-42.1,35.3c3.6,4,7.2,7.4,10.2,11.3c5.1,6.4,4.7,13.9-0.6,19.9c-4.2,4.8-8,3.9-11-3.1c2.1,0.4,3.8,0.7,5.8,1.1
		c-4.3-12.4-7-14.9-15.1-14.3c-4.3,0.4-13.7,9.2-14.3,13.6c1.6-0.5,3.2-1,4.8-1.5c0.3,0.5,0.6,1.1,1,1.6c-1.8,1.5-3.6,3-6.2,5
		c-0.8-2.7-1.2-4.2-1.7-5.7c-1.1-1-2.2-2-3.2-3.1c-3.8,5.4-7.6,10.7-11.7,16.6c1.8,0.7,3.3,1.3,4.8,1.9c-2.5,2.8-4.7,5.2-6.8,7.4
		c16.5,15,32.5,29.6,48.5,44.2c12.1,11,24.3,21.8,36,33.2c4.4,4.3,7.9,9.8,10.5,15.3c1.3,2.7,0.5,9.3-0.8,9.7
		c-3.5,1.1-8.1,0.8-11.6-0.6c-3.5-1.5-6.3-4.9-9.2-7.6c-17.6-15.7-35.1-31.5-52.6-47.3c-2.8-2.5-5.6-4.3-2.6-9.2
		c1-1.7-2.5-7.6-5.3-9.9c-3.9-3.3-4.9-11.9-13.6-7.8c-0.9-3-1.7-5.6-2.6-8.4c-2.4,0-5,0-7,0c-0.4-4.4-0.8-8.6-1.2-12.7
		c-0.9-0.4-1.8-0.7-2.8-1.1c2.5,10.5-3.9,9-10.5,7.9c1.5,2.7,2.2,4.2,3.3,6.2c-2.7-0.3-4.9-0.5-7.5-0.8c-0.9,2.8-1.8,5.5-2.8,8.6
		c-2.2-0.4-4.1-0.7-5.8-1c-5,2-11.8,14.3-11.7,19.3c0,2.6-1.1,6.1-3,7.9c-20.2,18.4-40.6,36.6-61,54.8c-1.5,1.3-3.3,3-5.1,3.1
		c-3.1,0.2-6.7,0.1-9.1-1.4c-1.5-1-2.1-5.6-1.1-7.4c3.8-6.6,7.5-13.8,13-19c18.1-17.4,36.4-34.6,55.9-50.4
		c4.7-3.8,7.9-8.5,12.3-12.2c5-4.1,9.5-8.9,15-14.2c-2.4-2.1-4.6-4.1-7.4-6.5c1.6-0.6,3.1-1.2,7.3-2.9c-5.3-5.7-9.8-10.5-14.2-15.3
		c-1,0.7-2,1.5-3,2.2c-0.3,1.6-0.6,3.2-1.1,6c-2.5-1.6-4.6-2.9-6.7-4.2c0.1-0.4,0.3-0.8,0.4-1.2c1.4,0,2.9,0,6,0
		c2.5-1.5-8-13.6-14.7-12.9c-5,0.5-10,3.1-14.4,5.7c-1.2,0.7-0.2,4.9-0.2,8.1c0.9,0,2.7-0.1,4.7-0.2c-3.2,6.3-6.9,7.1-10.7,2.7
		c-5.2-5.9-5.3-15.2,0.4-21.3c2.9-3.1,6.6-5.4,10.8-8.7c-15.6-13.1-29.5-24.8-42-35.2c-4.7,0.7-7.9,1.2-11,1.7
		c0.7-3.6,0.5-7.9,2.4-10.7c5-7.5,12.3-8.9,19.7-4.4c-1.1,1.8-2.1,3.6-3.2,5.4c0.6-0.6,1.2-1.2,1.7-1.8c11.5,13.3,23,26.5,34.7,40
		c9-8.3,16.1-16.3,27.6-10.5c0.8,0.4,0.6,2.9,1,5c0.8-0.1,2.2-0.1,4.2-0.3c-2.8,10.1-12.8-0.3-16.6,7.5
		C474.1,604.4,487.4,616.8,501.1,629.6z"/>
	<path d="M64.3,379.8c5.7,4.8,8,9.5,4.9,14.9c-2.4,4.2-5.8,7.9-9.7,12.9c19.7-3.2,37.7-6.2,57.4-9.4c0.4,2.7,1.8,6.8,1,10.4
		c-0.4,1.7-5.4,3.1-8.3,3.1c-15.4-0.3-30.4,1.3-44.8,7.4c-2.8,1.2-6.4,0.5-9.8,0.7c-3.9,9.4-8,18.8-11.7,28.3
		c-1.5,3.9-3.5,5.7-7.1,2.9c-2.9-2.1-10.1-1.1-5.8-8.8c4.4-8,7.5-16.7,11.2-25.1c-6.6-2.8-12.2-5.2-17.8-7.6
		c0.2-0.8,0.3-1.6,0.5-2.4c4.8-2.3,8.5-7.6,15.4-3.4c2.8,1.7,6,1.7,7.8-2.7c1.8-4.4,4-8.7,6.9-12.3C57.1,385.2,61,382.7,64.3,379.8z
		"/>
	<path d="M500,696.5c-0.4-2.8-0.8-6.4-1.3-10.1c2.1,0,4.5,0,7.1,0c0,3.7,0,7.5,0,11.7c2.9,0,5.5,0,8.5,0c0.4,2.5,0.8,4.7,1.2,7
		c-3.2-1.7-6-3.3-10.5-5.7c0.4,7,0.6,11.8,0.8,16.8c-2.6,0-5.5,0-7.3,0c0.5-4.9,1-9.7,1.7-16.2c-4.4,1.5-7.3,2.4-10.3,3.4
		C487.8,694.3,496.4,700.4,500,696.5z"/>
	<path d="M275.2,635c0.3-10,7.5-21.9,16.6-24.8C285.7,619.3,280.6,626.9,275.2,635z"/>
	<path d="M765.9,634.8c-5.5-8.2-10.4-15.5-15.9-23.6C758,612.1,765.4,623.8,765.9,634.8z"/>
</g>
</svg>
