<?xml version="1.0" encoding="utf-8"?>
<!-- Generator: Adobe Illustrator 21.0.0, SVG Export Plug-In . SVG Version: 6.00 Build 0)  -->
<svg version="1.1" id="Layer_1" xmlns="http://www.w3.org/2000/svg" xmlns:xlink="http://www.w3.org/1999/xlink" x="0px" y="0px"
	 viewBox="0 0 1000 1000" style="enable-background:new 0 0 1000 1000;" xml:space="preserve">
<path d="M556.3,359.1c1-2.1,2.4-4,2.8-6.2c0.8-4.3,2.9-10.9,1-12.6c-3-2.6-8.9-2.5-13.4-2.1c-3,0.2-5.8,2.9-9.9,3.2
	c5.6-4.4,11-9.4,17-13.3c16.5-10.8,18.1-15.3,12.1-34.9c-1.4-4.7-1.4-9.8-1.1-14.8c6.1,15.1,8.2,31.7,21.4,45.3
	c5.2-14.6,23.6-24.5,5.1-43.1c13.6,6.5,21.7,3.3,27.2-9c-1.1,7.6-3.1,13.5-2.7,19.3c0.6,8.7,5.7,10.9,11.7,4.9
	c7.3-7.4,13.8-15,25.8-13.5c1.1,0.1,2.7-4.4,5.5-9.2c-1.2,16.4,6.2,22.5,20.1,23.1c-12.6-1.2-17.8,5.5-19.4,14.3
	c-4.2-2.3-8.5-4.6-12.4-6.8c0.3-3.3,0.6-7.6,1.1-13.2c-5.9,4.3-5.9,4.3-11,26c-0.9-6.4-1.5-10.9-2.1-15.3c-0.7,0-1.4,0.1-2.1,0.1
	c0,11.9,0,23.8,0,37.6c16.4-6.1,26.1-18.2,38.6-29.4c-4.9,15-4.4,15.9,10,19.8c5.1,1.4,10.3,2.2,15.8,3.4c-1.9,3.5-3.3,6.2-5,9.3
	c-0.5-1.8-1-3.2-2.2-7c-0.8,4.4-1.1,6.7-1.8,10.5c-1.7-3.6-2.9-6-4.8-10.1c-5.9,9.4-3,17.8,0.4,25c4.3,8.8,10.5,16.7,15.9,24.9
	c-6.9-2.5-8.8-13.9-21.4-10.5c9.5,31.4-6.9,56.3-21.3,81.8c-0.1,0.1-0.6-0.1-1-0.1c-1.7-2.2-3.5-4.3-5.2-6.4
	c-7.6,5.7-10.5,11-1.7,17.8c-4.1-2.7-8.9-6-9.2-9.6c-0.3-4.6,1.8-10.9,5.2-13.9c7.1-6.4,9.8-13.8,9.8-22.7
	c0.1-9.3,0.1-18.6,0.2-27.9c0-2.9,0-5.7,0-8.6c-0.8-0.1-1.7-0.2-2.5-0.3c-4,6.4-8.1,12.7-12.5,19.7c3.1,0.5,5.3,0.9,7.5,1.3
	c0.7,0.6,1.3,1.3,2,1.9c-17.1,7.9-25.2,20.5-23.2,39c-2.2-5.2-2.4-10.7-4.5-15.2c-2-4.3-6-7.7-9.2-11.5c-3.2,2.8-6.5,5.7-11.3,9.9
	c2.8-16.3,15.1-29.8,11.9-47.3c-2.8-15.5-2.4-31.5-3.4-47.3c-1,0-2,0.1-3,0.1c-0.4,4.3-0.8,8.5-1,10.8c-3.4-1.7-6.9-3.5-10.4-5.3
	c-1.8,8.5-3-3.3-6,2.5c0,0-0.6,2.7-1.5,6.7c-0.9-3.8-1.5-6.1-2.5-10c-6.2,10.4-2.8,19.1-0.2,27.8c-1,0-2.8,0.1-2.8,0.2
	c-0.5,9.1-2.1,18.4-0.5,27.1c0.6,3.2,9.2,6.9,13.9,6.7c7.1-0.4,4.5-7,2.6-10.7c-3.5-7.1-8.2-13.6-12.4-20.3c2.6,2.8,5.4,5.6,7.9,8.5
	c4.8,5.7,9.5,11.4,15.3,18.4c-1.8,1.9-4.4,5.2-7.6,7.9c-11,9.1-11.4,15.8-1.6,26.5c4.2,4.7,8.6,9.5,11.5,14.9
	c5.2,9.9,8.5,18.8,22.4,22.5c11.2,3,20.7,6.1,30.8,2.4c2.7,1.6,5,4.3,6.9,4c6.4-1,14.1-1.2,18.6-5c12.5-10.2,24-21.7,35-33.4
	c5.2-5.5,3.6-12.6-3.2-15.9c-5.7-2.8-13.1-2.2-19-4.8c-8.1-3.5-10.8,1.4-13.8,6.7c-1.3,2.3-1.9,5.1-3.3,9
	c-3.2-14.4,8.7-25.3,21.2-26.1c1.9-0.1,5-1.2,5.4-2.4c0.5-1.7-0.6-4.4-1.8-6c-3.7-4.6-7.9-8.8-11.8-13.1c5.4,4.2,10.6,8.9,16.3,12.6
	c5.4,3.5,11.2,6.8,17.3,8.6c2.8,0.9,6.7-1.9,10.8-3.3c-0.1-0.1,0.8,1.8,1.7,3.7c0.7-0.1,1.5-0.1,2.2-0.2c0-23.2,0-46.3,0-65.1
	c2.6,17,5.8,38.2,9.1,59.5c1.5,0,2.9-0.1,4.4-0.1c0.7-14.7,1.5-29.5,2.3-46.7c2.5,13.7,4.6,25.1,6.6,36.5c1.6-0.2,3.3-0.4,4.9-0.6
	c0-24.3,0-48.5,0-72.8c0.7,0,1.3,0,2,0c2,16.1,4,32.2,6.1,48.3c1.6,0,3.3-0.1,4.9-0.1c0.9-13.3,1.7-26.5,2.3-35.2
	c3.3,9.3,8.3,22.2,12.3,35.5c1.4,4.7-1.3,11,0.8,15.1c2.5,5,7.4,9.8,12.5,12.2c4.7,2.2,9.5-0.2,10.3-7.1c1.3-11.5,8.8-21.8,5.3-34.7
	c-1.3-5,3.5-11.6,7.5-16.9c-1.6,5.8-3.3,11.6-5.2,18.4c11.1-14.5,21.5-28,31.9-41.6c0.8,0.6,1.7,1.2,2.5,1.8
	c-5.6,7.6-12,14.8-16.6,23c-3.9,7-6.9,15-8.3,22.9c-2.1,11.6,1.7,14.2,13.1,10.8c2.2-0.6,4.3-1.5,9.1-3.2c-2.9,3.4-4,4.9-5,6.1
	c16.3,3,32.8,6,49.4,9c0.5,1.1,1.3,5.1,2.6,5.2c12.9,1.7,18,13.7,26.9,20.5c7.2,5.5,11.2,15,17.3,22.2c5.8,6.7,17.9,25,20.5,32.2
	c2.2,6.2,6.4,12.2,6.7,18.4c1.1,21.5,14.4,39.9,15,61.5c0,0.8,1,1.6,1.6,2.5c0,2,0,4,0,6c-1.2-2.9-2.6-5.8-3.5-8.8
	c-3.6-11.5-5.5-23.7-14-32.1c-1.6,19-3.2,37.7-4.8,56.5c-0.4,0-0.8-0.1-1.2-0.1c-0.5-5.7-0.9-11.4-1.4-16.6
	c-17.6,15.4-16.1,36.1-16.9,58.1c-2.8-9.8-5-17.4-7.2-25c-0.9,0.2-1.8,0.3-2.7,0.5c0,5.3,0,10.6,0,15.9c-0.5,0-1,0-1.5-0.1
	c-0.6-2.8-1.1-5.6-1.9-9.4c-5,6.2-12.1,11.1-12.8,16.8c-0.6,4.9-1.4,7.3-5.3,8.2c-9,2.1-11.2,11.1-17.1,16.3
	c-1.5,1.3-1.3,4.5-1.4,5.1c11.7-2.3,23-5.6,34.4-6.5c10.5-0.8,18.7,6.4,26.7,13.5c0.6,3.2,1.4,8,2.2,12.8
	c4.3,25.5-15.9,46.5-41.3,43.1c-9.1-1.2-16.6-9.2-18.8-18.1c-3.4-13.6,2-22.3,13.7-28.4c1.5-0.8,2.2-3,3.8-5.4
	c6.6,1.4,15.8,2.4,18.3,11.9c1.3,4.7-1.2,10.4-2,15.7c-1-0.2-2-0.3-3-0.5c0.5-2.7,0.9-5.4,1.4-8.2c-2.7-0.9-4.8-2.1-6.9-2.2
	c-2.4-0.1-5.7,0.1-7,1.5c-1.4,1.5-1.9,6.1-0.8,7c4,3.5,8.8,8.5,13.3,8.6c14.2,0.1,24.1-19.1,17.2-31.7c-6.3-11.6-21.5-16-35.8-10.3
	c-12.5,4.9-26,28.4-23,39.6c2.4,9,4.5,18.2,6.7,27.3c-12.3-22.1-16.6-45.7-13.8-72.1c-2.8,3.6-5.6,7.1-8.4,10.7
	c-0.5-0.5-1-0.9-1.5-1.4c2.3-4.1,4.7-8.2,7.5-13.2c-10.2-0.8-19.3-1.6-28.9-2.4c-0.4,3.5-0.8,6.7-1.1,9.9c-0.9-2.7-1.8-5.4-3.3-9.8
	c-1.2,2.6-1.7,3.6-2.2,4.6c-0.1,0.3-0.1,0.7-0.2,0.9c-0.2,0.2-0.6,0.1-0.8,0.2c-0.4-2.6-0.8-5.1-1.2-7.9c-2.3-0.3-4.3-0.6-6.2-0.9
	c-22-3.5-21.8-3.4-20.9,18.5c0.3,6.2,2.4,9.4,8.4,9.9c10.8,1,21.5,2.1,32.3,3.1c-7.3,2.2-15.5,4.7-23.5,7.2
	c15,9.6,26,24.5,31.4,43.4c-9.9-19.1-21.4-36.3-45.2-43.1c0,19.5,0,38,0,56.4c-0.6,0.1-1.1,0.1-1.7,0.2c-1.8-19.8-3.5-39.5-5.3-59.3
	c-1.2,0-2.4,0.1-3.6,0.1c-0.7,6.9-1.3,13.9-2,20.8c-1.7-4.6-0.9-9.4-2-13.7c-0.7-2.7-4.6-6.8-6.3-6.5c-7.3,1.5-15.5,3-21.1,7.3
	c-4.4,3.4-5.6,11-7.6,15.4c-0.2-1.4-0.8-4.9-1.4-8.7c-9.5,4.8-8,9.7-2.5,16.2c8.6,10.3,16.7,21.1,24.5,32c3.9,5.4,6.6,11.6,9.8,17.5
	c-19.7-25.5-42.3-46.9-70-63.8c0.2,3.7,0.4,6.8,0.8,11.9c-11.9-21.1-11.8-21.1-27.6-30.8c-3.9-2.3-8-4.3-12.2-6
	c-3-1.3-6.4-1.9-9.6-2.8c-0.5,3.1-2.1,6.4-1.4,9.2c2.4,9.1,5.6,18,9.3,29.3c-3.9-4.7-6.2-7.6-8.8-10.4c-3.5-3.9-6.6-8.6-10.9-11.1
	c-6.4-3.5-13.5-6.1-20.6-7.7c-11.8-2.6-15.4,0.8-15.7,13.1c-0.1,3.7,0,7.4,0,11.1c-2.2-4.3-2.3-8.7-3.8-12.6
	c-1.2-3.1-3.8-7.5-6.3-7.8c-2.7-0.4-7.3,2.5-8.7,5.2c-3.5,6.9-7,14.2-0.1,21.9c7,7.8,13.1,16.5,19.6,24.8c-0.3,0.3-0.5,0.6-0.8,1
	c-11.1-10.1-22.1-20.3-35.1-32.1c0.9,5.4,1.3,7.8,1.9,11.6c-6.1-8.4-8.5-19.4-21-19c0.7,2.4,1.2,4.4,1.1,3.8
	c-8.5-3.4-17.5-9-27.1-10.5c-15.7-2.5-18.3,1-18.1,17.2c0,0.7,0,1.3,0,2c0,14,0,28,0,42.7c-5.3-24.1-6.4-47.9-4.5-72
	c0.5-6.5,3.5-13,3.4-19.4c0-3.9-2.9-9.6-6-11c-4.4-1.9-17.2,9.4-17.1,14.9c0,7.5-0.1,15.6,2.4,22.4c8.6,23.3,5.8,24.6,2,50.8
	c-0.2-4.4-0.4-8.8-0.7-14c-4.3,5.9-7.9,10.9-11.5,15.9c14.1-30,6.1-46.9-16.3-54.1c0.6,2.7,1.1,5.2,2.1,9.6
	c-11.7-17.5-20.3-19.8-35.9-11c1.1,1.6,2.2,3.1,4.4,6.3c-9.5-4-13,0.4-16.3,6.5c-5.7,10.5-4.7,20.4,1,30.3c2.2,3.8,4.5,7.6,6.8,11.4
	c-0.9,0.5-1.7,1-2.6,1.6c-8.3-13-16.5-26-25-39.4c-1.1,2.2-1.9,3.7-2.8,5.4c-2.8-3.9-4.5-8-7.5-10c-3.2-2.1-8.1-1.4-11.6-3.2
	c-16.1-8.5-19.7-6.8-22.7,11c-0.1,0.6-0.6,1.1-1.4,2.3c-0.3-6.3-0.6-11.9-0.9-17.5c-13.4,15.9-13.5,33.1-9.5,51.3
	c-3.8-14.7-5.5-29.7-8.1-44.5c-0.9-5-3.6-12.6-7-13.5c-5.1-1.4-12.6,0.6-17,3.9c-6.5,4.9-11,12.4-16.4,18.6
	c-7.9,9.1-7.6,19.4-4.2,29.9c1.6,4.9,4,9.5,6.1,14.2c-3.6-2.5-6.7-5.7-7.9-9.4c-3.6-11-6.4-22.2-9.6-33.3
	c-3.1-10.7-22.6-22.8-29.7-17.8c-12.7,9-24,19.6-22.5,37.3c0.7,8.8,2.2,17.6,3.3,26.3c-13.6-18.2-10.9-38.1-4.4-58.4
	c-2.4,0.7-4.3,1.2-6.8,1.9c5.7-6.7,10.5-12.8,15.8-18.6c18.9-20.5,44-34.9,57.1-61.3c8.5-17.2,15.7-34,11.2-56.2
	c-5.9,4.8-11.8,7.8-14.8,12.6c-2.4,3.9-3.7,7.9-7.2,11.6c-3.2,3.4-2.1,11-2.8,16.8c-0.5-0.1-0.9-0.1-1.4-0.2c0-6.6,0-13.2,0-19.8
	c-0.9-0.5-1.8-1-2.6-1.6c-6,6.6-13.9,12.4-17.4,20.1c-3.6,7.9-2.8,17.7-3.9,26.7c-0.4,0-0.7-0.1-1.1-0.1c-0.6-8.7-1.1-17.4-1.7-26.1
	c-1.2-0.1-2.3-0.1-3.5-0.2c-2.4,5.7-4.9,11.4-7.3,17.2c-1.1-2.5-2.4-5.6-4-9c-2.3,1.8-4,3.5-6,4.6c-15.9,9.3-15.1,13.9-5.7,30.7
	c4.2,7.6,9.7,8,16.5,3.3c3.7-2.6,7.8-4.7,11.7-7.1c0.6,1,1.1,2,1.7,3.1c-13.5,8.3-27.1,16.6-40.6,24.9c2.3,2.3,3.2,2.4,4.2,2.5
	c1.1,0.2,2.3,0.4,5.2,0.9c-32.8,12.6-47.3,31.5-26.2,64.8c-10.3-13.1-19.3-25.6-27.5-38.7c-6.3-10.1-15.5-15.3-26.5-17.8
	c-7.5-1.7-14.1,0.5-15.2,9c-1.4,10.9-1.6,22-2.4,33.9c-11.4-35-0.8-71.1-6.8-107.1c-5.7,2.6-10.6,4.6-15.3,7
	c-7.2,3.7-11.3,8.6-9.7,17.9c0.7,4.1,3.1,6.4,4.3,9.7c2.6,7,3.7,14.6,6.5,21.4c3.8,9.1,10.1,17.4,5.8,29.5
	c-1.1-10-0.9-20.1-12.5-21.8c-3.7-0.5-7.8,2.2-11.8,3.3c-12.2,3.3-18.4,9.5-18.1,22.2c0.3,14.6,2.8,29.1,4.5,46
	c-6-13.1-11.2-24.8-16.8-36.2c-1.1-2.3-3.9-3.7-7.1-6.6c2.9-12.3,0.5-33.8-15.5-40.9c-4.2-1.8-7.4-5.9-11.6-7.4
	c-5.9-2.1-14.3-6-18.2-3.6c-9.8,6.1-18.6,14.8-21.8,26.9c-2.4,9.3,3.8,24.2,11.8,29.2c7.5,4.8,17.6,1.9,23.2-6.5
	c3.4-5.1-0.2-13.3-7.3-17.5c-1.8-1.1-3-3.4-4.4-5.1c-9.3,5.8-8,12.2-1.3,19.8c-4.7-4-9.4-7.9-13.8-11.6c0.9-3.5,1.5-6.3,2.4-9.1
	c2.7-8.3,16-17.5,21.7-14.3c9.6,5.4,18.8,11.9,20.7,23.9c1.4,9-7.7,22.9-18.7,27c-8.7,3.2-18.3,4.2-23.5,5.3
	c-8.3-8.9-14.7-15.9-18.7-20.2c-1.8-10.3-3.1-17.9-4.5-25.5c11.4-0.5,2.8-8.4,6.4-11.2c3.3-4.9,6.5-9.9,9.9-14.8
	c1.4-2,2.7-4.7,4.7-5.5c4.8-2,10-4.3,15-4.2c7.6,0,15.4,1.2,22.8,3.2c5.2,1.4,9.9,5,15.6,8.1c10.1-21.3,5.7-42.3,5.7-62.9
	c0-4.2,0.5-8.6-0.4-12.7c-0.7-3.3-3.1-6.3-5.4-10.7c-3.8,5.6-7.2,10.6-10.4,15.4c-0.4-0.6-1.7-2.6-4.5-6.7
	c-3.5,12-6.4,21.9-9.2,31.4c-5.5-11.1,1.1-21.8,4.9-32.2c2.4-6.6,6.6-14.1,12.2-17.5c11.6-7.1,11.6-17.2,11-28.2
	c-0.7-12.1-4.6-15.8-16.4-17c-12.9-1.3-25.7-3.3-38.2-6.7c11.2,0,22.4,0.7,33.6-0.2c17.3-1.3,22.4-9.5,18.1-26.4
	c-1.6-6.2-1.9-12.8-2.9-20c1.6,0.9,2.9,1.6,4.2,2.3c0.9-0.5,1.9-0.9,2.8-1.4c-4.1-9.6-8.2-19.2-12.2-28.8c-1.1,0.1-2.1,0.3-3.2,0.4
	c-1.1,2.8-2.1,5.6-3.4,8.9c-2.2-5.5-4.2-10.6-7-17.5c-1.9,4.1-2.8,6.1-3.8,8.3c-0.6-0.8-1.3-1.2-1.2-1.6
	c1.1-11.2-8.3-14.8-14.8-20.4c-4-3.4-8.2-6.6-11.7-10.8c27.4,18.3,57.5,28.8,89.5,34.2c0.3,0.1,1.1-2.7,1.7-4.2
	c16.2,7.7,23.2,5.5,34.2-9.7c4.1-5.7,9.9-10.2,14.3-15.8c7.8-10.1,7.6-15.7-0.9-27.7c3,1.6,4.9,2.6,6.7,3.5
	c8.2-8.8,16.4-17.6,24.5-26.4c0.6,0.6,1.2,1.1,1.7,1.7c-17.3,18-20.2,32.7-7.2,43.1c5.6,4.5,11.6,12.3,20.6,8.9
	c5.8,0.5-2.4,13.6,8.7,9.8c0,4.8,0,9.8,0,16.3c4.3-2.4,6.9-3.9,11.1-6.3c-3.3,4.6-5.4,7.7-7.5,10.7c0.5,0.5,0.9,1.1,1.4,1.6
	c4-2.2,8-4.5,11.9-6.7c7.1-4,15.2-7,21-12.4c5.5-5.1,10.3-12.3,12.5-19.5c3.8-11.9,5.3-24.4,7.6-35.8c0.5,6.8,1.1,14.6,1.6,22.4
	c0.8,0.5,1.7,1.1,2.5,1.6c12-12.9,32.1-16,41.4-33.8c-3.1,6-6.4,12-9.2,18.1c-2.5,5.5-4.5,11.3-6.2,15.9c-0.4-1.2-1.3-4.5-2.3-7.7
	c-0.6-0.1-1.2-0.2-1.7-0.3c-1.1,5.7-2.1,11.5-3.4,18.4c-0.9-4.2-1.6-7.2-2.4-11.1c-6.1,6.4-10,13.1-5.5,20.8
	c2.7,4.5,7.3,8.5,12,10.9c3,1.5,7.7,0.2,11.6-0.5c4.8-0.9,9.6-2.3,14.3-3.5c-4,2.9-8,5.8-12,8.7c0.1,1.1,0.1,2.2,0.2,3.3
	c13.3,2.8,26.6,7.1,40,8.1c26.7,1.8,33.9-11.8,27.8-32.8c-1.5,3-2.5,5-3.4,6.8c-0.8-2-1.7-4-4.1-9.7c-3.4,5.2-5.4,8.4-7.5,11.5
	c-0.3-0.2-0.7-0.4-1-0.6c1.5-3.5,3-7.1,4.8-11.5c-2.6,0.8-4.1,1.2-5.6,1.7c6.1-3.4,8.7-11.1,16.3-12.9c0.7-0.2,0.7-6.9-0.4-10.1
	c-0.8-2.5-3.7-4.3-5.6-6.4c2.1,0.5,4.2,1,6.9,1.6c-0.6-6.3-1.2-12.4-1.7-18.4c-5.2,0.6-10.3,1.1-16.6,1.8c2.9,4.7,5.5,9,8.1,13.3
	c-1.7-0.8-3.6-1.5-5.2-2.5c-8.5-5.6-14-2.7-14.8,7.7c-0.1,1.6-0.3,3.2-1.7,4.9c-0.2-1.6-0.5-3.3-0.7-4.9c-0.2-1.6-0.4-3.2-0.7-5.8
	c-4.9,2.2-9,4-13.7,6c-0.5-2-1.6-5.9-2.7-10c10.6,0.8,15.2-3.4,15-13.7c-0.2-8.1-1-16.2-1.5-22.6c2.9,1.8,7.3,6.7,10.2,5.9
	c10.1-2.7,19.5-7.8,24.7-18.2c20.1,4.6,30.8,0.2,43.1-17.5c-3.3,8.6-4.5,19.1-10.3,25.4c-8.2,8.8-6.1,17.6-5.9,27.2
	c0.3,21.3-0.3,42.6-0.3,63.9c0,5.9,0.6,11.7,1,17.6c0.9-0.1,1.8-0.1,2.8-0.2c0.3-4,0.5-8.1,0.8-12.4c0.8,0.5,1.2,0.7,1.3,0.9
	c2.3,6.1,0.7,15.8,11.5,14.6c8.5-0.9,16.3-12.9,14.8-21.5c-0.2-0.9-1.3-2.1-1-2.4c10.3-11.8,2.4-23.8-0.2-35.7
	c0.9-0.2,1.7-0.4,2.6-0.6c2.2,8,4.5,16,6.6,24c0.8,3.2,1,6.5,2,9.7c3.7,11.5,6.3,12,17,7c12.5-5.8,17.3-16.2,20.8-29.6
	c-13.2,0.1-8,15.5-17.2,18.1c2.5-8.3,4.9-16.3,7.3-24.5c-10.8-10.9-15-12-19-4c-0.4-3.4-0.8-6-1.2-8.7c-0.6-0.1-1.1-0.1-1.7-0.2
	c-0.8,4.7-1.5,9.4-2.2,14c-2.6-11.8-5.3-23.6-7.7-34.6c0.2,0.1,2.4,1.2,5.5,2.6c2.7-6.3,5.1-12.7-1.7-16.8c-3-1.8-8.4,0.2-14.2,0.6
	c0,6.6,0,14,0,21.3c-0.6,0-1.1,0-1.7,0c-1.6-10.2-3.2-20.4-4.6-29.5c3.4,0.2,8.9,0.6,15.6,1c-1.1-4.6-1.7-7.4-2.1-8.8
	c3.5,1.4,8,5.1,11.3,4.2c6.8-1.8,15-17.8,14-24.7c-0.7-4.9-2.1-9.6-2.8-15c7.9,17.6,23.2,23.6,40.5,26.7
	c18.8,3.4,32.6-3.9,44.7-17.9c-2.4,3.4-5.1,6.6-7.1,10.2c-4,7.2-16.1,10-12.1,21.9c0.3,0.9-3.6,2.8-4.7,4.7
	c-2.5,4.4-4.4,9.1-6.7,13.6c-0.6,1.1-2.1,1.9-2.4,3.1c-0.9,3.8-2.2,7.7-1.8,11.4c0.1,1,6.1,2.8,8.4,1.8c4.2-1.8,7.5-5.4,12.5-7.3
	c-3.1,3.8-6.3,7.6-9.2,11.1c5,8.8,9.9,17.6,15,26.6c3.7-1.6,7.1-3.2,10.6-4.7c-1.4,1.8-2.7,3.5-4.3,5.5c12.4,1,13.9-0.4,12.4-11.3
	C559.8,356.7,558.1,357.9,556.3,359.1z M502.7,398.3c-3.7-5.5-7.4-11-12.6-18.6c-2,10.1-4.4,18.7-5.2,27.6
	c-0.6,6.7,8.3,11.9,17.6,12.3c7,0.3,6.3-4,6.1-8.4c2.6,1.5,5.3,3,7.9,4.4c1.1-0.6,2.2-1.3,3.3-1.9c-2.3-10.5-4.2-21-6.8-31.4
	c-2.7-10.7-4.5-11.2-16.2-6.2C498.8,383.3,500.7,390.8,502.7,398.3z M170.7,614.2c-2.1,1.3-4.1,2.7-6.2,4c-0.3-1-0.7-2.1-1.4-4.1
	c-0.6,2.8-1.1,4.7-1.8,7.8c-1.6-4.2-2.8-7.1-3.9-9.9c-0.7,0.1-1.5,0.2-2.2,0.3c0,12.4,0,24.9,0,37.3c0.8,0.4,1.6,0.8,2.5,1.2
	c4.4-4.9,8.8-9.9,13.2-14.8c7.9-8.9,7.7-14.9-0.6-22.2c8.8,0.5,7.5-4.9,5.3-9.9c-1.7-3.8-4.4-7.2-6.7-10.8c2.9,1.9,5.7,3.8,10.8,7.2
	c0-22.1,0-42.3,0-62.7c-1.3-0.1-4.3-0.4-8.7-0.9c11.2-5.6,12.5-15.8,7.5-26.8c0.7-15.1,1.2-25.2,1.8-36.3c-3,2-6.5,3-7.4,5
	c-1.1,2.9-0.3,6.6-0.3,10c-0.6,0-1.1,0-1.7,0c-0.5-4.8-1-9.6-1.5-14.6c-6.3-0.1-12.7-1.9-13,7c-0.7,22.5-1.8,45.1-2,67.6
	c-0.1,6.4,1.6,13.1,3.7,19.3c2.8,8.4,6.9,16.4,10.4,24.6c-4.5-5.7-8.9-11.5-14.8-19c-1.4,17.4-2.2,31.8,15.6,38.3
	C170.1,612,170.3,613.3,170.7,614.2z M613,618.5c1.3-4.5,5.1-10.2,3.6-13.4c-6.6-13.7-14.8-26.6-22.5-39.8c-1.2-2-3.1-3.4-4.8-5.1
	c1.1,24.4-5.4,48.5,3.3,73.2c7.4-5.3,13.4-9.7,19.4-14c-3,5.2-5.9,10.5-9.9,17.6c10.1,2.2,18.2,4.9,26.4,5.4
	c3.1,0.2,9.3-4.4,9.4-7.1c0.6-11-0.5-22.2-1-34.3c-3.3,1.4-4.6,1.6-5.6,2.4C625.1,608.4,619.1,613.5,613,618.5z M134,462.5
	c-3.4-2.3-6.8-4.5-11.1-7.4c0,9.8,0,18.3,0,26.8c0.6,0.2,1.1,0.3,1.7,0.5c2.2-4.1,4.4-8.2,6.6-12.3c0.4,3.2-0.5,6-1.1,8.8
	c-2.5,12.3-5.3,24.6-7,37.1c-0.4,3,2,8.5,4.4,9.3c6.7,2.3,14,2.8,21.1,3.9c0.4,0.1,1-0.8,1.4-1.3c4.5-6.3,2-33.5-4.1-40.4
	c-0.8,3.4-1.5,6.3-2.1,9.3c-1.2-8.2-2.3-16-3.5-23.8c3.9,4.9,7.9,9.7,12.1,14.9c0-24.4,0-48,0-71.5c-1-0.1-2.1-0.2-3.1-0.2
	c-0.7,5.6-1.5,11.3-2.2,16.9c-2-3.6-1.9-7.2-2.8-10.6c-0.5-1.9-2.4-4-4.2-4.7c-1.4-0.5-4.4,0.5-5.2,1.7c-3.2,5.1-6.5,10.3-8.4,16
	C122.6,445.9,130.5,453.7,134,462.5z M446.2,444c-1.3-1.4-2.5-2.8-4-4.4c-9.6,5.4-2.1,14-4,20c-13.4-9.8-13.7-26.2-18.4-40.6
	c-1.6,4.9-2.5,9.4-2.3,13.8c0.2,4.3,1.5,8.5,2,10.7c-4.1-0.9-10.3-4.3-12.7-2.5c-6,4.4-13.1,9.9-7.5,19.7c3.1,5.5,4.8,11.7,7.9,17.1
	c1.4,2.3,5.3,5.2,7.3,4.7c13-3.2,35.7-20.6,31.7-38.7c2.3,6.4,3.1,13.8,7,18.9c8.5,11.1,21.9,12.8,34.3,15.3
	c0.7-14.3-5.2-23.7-16.6-31.9c-24.7-17.7-24.2-18.4-29.8-16.4C442.7,434.5,444.5,439.2,446.2,444z M449.7,584
	c-6.8-7.6-13.3-15.4-20.4-22.6c-2.1-2.1-6-2.4-9.1-3.6c-0.9,2.9-2.5,5.7-2.5,8.6c0.1,3.1,2.7,6.2,2.6,9.2
	c-0.8,16.8-2.1,33.5-3.4,51.9c17.3-4.3,33.3-7.8,43.4-22.9c-3.3-6.7-6.4-13.2-9.6-19.6c4.1,5,8.2,9.9,12.4,15.1
	c9.3-15.3,10-27.5,2.3-29.5c4.2-11.2,3.8-12.3-4.4-11.5c1.9-4.7,4.9-9.3,5.6-14.2c1.3-10.1,1.6-20.4,1.8-30.7c0-1.7-2.6-4.9-4-4.9
	c-4.9-0.2-9.8,0.8-16,1.5c0,11,0,22.4,0,33.7c-5.5-35.4-5.5-35.4-12.5-38.4c-0.7,8.3-1.3,16.2-1.9,24.1c-0.3,0-0.6,0-1,0
	c-0.8-8.5-1.6-17-2.4-25.5c-0.9,0-1.7,0-2.6-0.1c-0.7,4.6-1.3,9.3-2.1,14.3c-2.5-8.8-4.9-17.3-7.3-25.7c-1.8,11.1-1.3,21.8-0.8,32.4
	c0.3,5.3-1.3,12,1.4,15.7c7.8,10.8,17.2,20.4,26.1,30.5C446.7,575.7,448.2,579.9,449.7,584z M563.3,453.9
	c-6.7,11.5-22.9,15.3-26.8,31.7c11.1-4.4,20.4-8.1,29.6-11.8c0.2,0.3,0.3,0.6,0.5,0.9c-3.9,2.8-7.8,5.6-12,8.6
	c10.3,2.6,18.3-3.4,27.8-3.3c13.6,0.1,22.9-11.1,27.2-23c3.5-9.8-6-16.4-12.6-22.8c-0.9-0.9-1.8-1.9-4-4.2c-8.5,6.7-17,13.3-25.5,20
	c6.9-8.6,13.8-17.2,21.9-27.3c-13.6-6.5-25.8-9.8-39.5-4c12.7-10.8,11.5-25.2,11.3-39c-0.1-6.4-3.9-9-10.7-8.6
	c-6.5,0.4-7.4,3.4-7.5,8.9c-0.1,8.5-1,17.1-1.9,25.6c-0.7,6.6-0.5,12.4,6.5,16.1c3,1.6,5,5.2,7.5,7.9c-0.4,0.3-0.8,0.6-1.2,1
	c-2.6-1.7-5.3-3.4-7.9-5.1c-1,0.8-1.9,1.5-2.9,2.3c3.7,5.2,7.4,10.5,11,15.7c-19.6-16.4-31.3-16.6-49.7,1.2
	C524.3,451.2,540.2,471.4,563.3,453.9z M618.7,583.1c1.3,0.2,2.6,0.4,4,0.5c15.2,1.8,15,1.8,14.8-14.3c-0.2-13.1,0.1-26.2,0.1-39.2
	c0-7.5,0-15.1,0-22.6c-0.6-0.1-1.2-0.2-1.7-0.3c-1.2,2.4-2.4,4.7-3.6,6.9c-0.7-1.4-1.4-2.6-2-3.9c-0.8,0.1-1.7,0.2-2.5,0.3
	c0,14.7,0,29.4,0,44.1c-7.7-15,0.2-32.2-11-46.5c0,8.3,0,16.6,0,24.9c-3.2-6.1-3.7-12.3-5.2-18.2c-0.6-2.2-4.3-5.4-5.8-5.1
	c-12.7,2.7-22.5,20.8-18,33.5c4.8,13.5,10.6,26.5,24.3,33.9c2.7,1.5,4.7,4.3,7.1,6.6c-4.3-1.8-8.5-3.7-14.2-6.1
	c3,5.8,4.9,10.8,7.9,14.9c3.1,4.3,7.2,7.8,10.8,11.7c3.1-4.4,6.2-8.8,9.3-13.2c0.3-0.4-0.1-1.2,0-0.7
	C627.7,587.6,623.2,585.3,618.7,583.1z M740.4,615.4c-3.9,6-7.8,12.1-12,18.5c17.4,4.7,25.7-8.4,21.7-32.2c-2.2,2.5-4,4.6-5.8,6.7
	c2.3-9.5,5.4-19,6.6-28.7c1.3-9.9-0.3-19.7-10.4-26.5c-1.4,4.6-2.5,8.3-3.7,12.4c-0.9-2.5-1.7-4.6-2.7-7.5
	c-12.7,11.7-6.3,27.1-9.7,40.6c-0.3-2.6-0.1-4.9-0.9-6.9c-7.9-19.9-0.1-34.8,13.1-49.8c6.6-7.5,9.7-19,12-29.2
	c1-4.2-3.4-10.9-7.2-14.3c-1.6-1.4-8.7,2.2-12.5,4.7c-8.1,5.3-13,12.8-12.3,23.1c-1.2-3.8-2.3-7.7-3.6-11.7
	c-15,10-27.8,20.3-24.6,40.4c-0.6-4.3-1.3-8.6-1.9-13c-1.3-0.1-2.6-0.3-3.8-0.4c-1.6,7-4.2,14-4.4,21c-0.3,9,3.2,18.4,1.8,27.1
	c-2.4,14.8,1.8,26.7,11.2,37.4c8.1,9.3,17.9,11.8,28.4,5.6C727,628,733.4,621.2,740.4,615.4z M855.4,552.1
	c9.4-16.7,13.3-34.4,8.1-53.1c-1.2-4.3-6.6-7.4-10-11.1c-2.7,3.4-6.2,6.4-7.9,10.2c-1.8,4.2-2,9.1-2.9,13.7c-0.8-4-1.6-8-2.7-13.9
	c-4.3,4.5-9.4,7.4-10.1,11c-2.6,13.8-5,27.9-5,41.9c0.1,12.3,9.3,15.1,19.3,7.4c3.5-2.6,7.6-4.4,11.5-6.5
	c-2.5,7.2-5.5,14.3-7.5,21.6c-1.3,4.5-1.1,9.4-1.6,14.1c-0.6-0.1-1.2-0.2-1.8-0.3c0-7.7,0-15.5,0-23.3c-12.3,0.9-8,11.7-11.1,18.4
	c-1.5-3.2-2.5-5.4-4.2-9.2c-2,5.3-3.4,8.2-4.1,11.3c-4.1,16.8,1.7,28.3,18.4,33.3c10.7,3.2,22.2,3.5,33,6.4
	c14.9,4.1,24.7-2.1,34.4-12.6c11.1-12,21-24.3,26.3-42.3c-4.4,4.2-7.3,7-10.2,9.7c7.4-14.8,19.2-28.2,9.2-46.7
	c-2,2.2-3.8,4.2-5.6,6.2c1.1-10.2,2.2-20,3.2-29.8c-0.8-0.2-1.7-0.3-2.5-0.5c-1.5,2.1-3,4.1-5.1,7c-0.4-3.5-0.5-5.4-0.7-7.4
	c-0.9-0.3-1.8-0.6-2.7-0.9c-3.9,7-7.9,14-11.3,20.1c0.1,0.2-0.9-1.6-1.9-3.3c-0.8,0.1-1.6,0.2-2.4,0.3c-1.4,21-2.8,42.1-4.2,63.1
	c-0.6,0-1.1,0-1.7,0c0-18.6,0-37.1,0-55.7c-1-0.2-1.9-0.3-2.9-0.5c-1.3,3.8-3.1,7.6-3.7,11.5c-0.7,4.1-0.1,8.4-0.1,12.6
	c-3.9-17.6-8.1-20.7-20.5-13.2c-2,1.2-3.6,3.1-5.6,4.1C864.3,548.1,859.8,550.1,855.4,552.1z M250.2,424.9
	c-0.9,12.7-1.7,24.4-2.4,36.1c-1.5,22.3,6.4,38.6,22.8,44.9c4.1,1.6,10.5,2.2,13.9,0c11.7-7.5,22.6-16.4,34.4-25.2
	c-6.7-7.9-11.7-13.9-17.7-20.8c-0.4,7.1-0.7,12.5-1.2,19.9c-1.9-10.5-3.4-19-4.9-27.5c-0.8,0-1.6,0-2.5,0c-1,2.6-2,5.2-3.8,9.8
	c-1.1-6.6-1.9-10.9-2.6-15.3c-0.8-0.1-1.7-0.2-2.5-0.3c-0.8,9-1.6,18-2.4,27c-4.3-37.2-4.3-37.2-15.4-38.8c0,8.8,0,17.7,0,26.6
	C259.3,449.9,268.8,432.1,250.2,424.9z M363,491.6c-1.3,16.7-1.6,32.5-3.9,48c-2.3,15.6-6.7,30.9-10.5,48c0-6.4,0-11.3,0-16.2
	c-0.8-0.1-1.6-0.2-2.4-0.4c-3.4,10.3-6.8,20.7-9.9,30.3c0.9,0.5-0.3-0.2-1.6-0.9c-2,6.2-5.2,12.3-5.7,18.7
	c-0.4,4.5,1.4,11.2,4.7,13.7c5.6,4.2,13.2,8.1,19.8,7.8c5.8-0.3,15.4-5.6,16.3-10.1c3.7-18.2,4-36.9-4.7-55.5
	c-2.4,5.1-4.7,10.2-7.1,15.4c3.3-17,9.1-33.1,12.9-49.7C374.7,523.9,371.9,507.5,363,491.6z M537.9,570.7c0.2-0.1,3-0.8,3-1.5
	c1.3-22.7,4-26.4-20-25.3c-10.3,0.5-13.5,4.1-12.5,14.2c0.3,2.9,0.4,5.9,0.5,8.9c0.8,16.3,0.7,32.7,2.7,48.9
	c0.7,5.7,6.5,10.7,9.9,16c7.5-6.1,20.6-11.4,21.5-18.3C544.9,599.6,540,584.8,537.9,570.7z M847.2,439.4c-0.3-0.1-0.6-0.2-0.9-0.4
	c-1.4-7.2-2.9-14.3-4.3-21.5c-1.1,0-2.1,0.1-3.2,0.1c-0.7,4-1.5,8-2.3,12.5c-0.9-3.5-1.2-6.9-2.7-9.7c-1.1-2-3.6-3.9-5.7-4.4
	c-1-0.2-3.7,3-4,4.8c-3.5,22.6,8.6,54.1,39,53.1c8-0.3,20.3-10,22.4-18.7c2.3-9.8-5.4-14-11.2-22.3c-0.6,7.4-0.9,11.7-1.3,16
	c-2-14.8-6.2-27.2-25.1-27.1C847.7,427.7,847.4,433.5,847.2,439.4z M345.1,440.5c-0.3,0.5-0.6,0.9-0.9,1.4
	c3.1,7.6,5.8,15.3,9.3,22.6c4.9,10.1,7.9,20.6,23.7,21c14,0.3,23.1-5.7,19.4-19.7c-2.5-9.3-6.5-18.1-10.1-27
	c-3-7.4-8.1-12.9-16.6-10.8c-8.8,2.1-7.5,9.6-7.1,16.8c-3.1-6.4-4.2-13.2-6.9-19.3c-1.6-3.7-5.1-7.7-8.6-9
	c-2.8-1.1-7.1,1.8-12.6,3.4c11.6,13.8,21.5,25.5,31.3,37.1c-0.3,0.3-0.5,0.5-0.8,0.8C358.4,452,351.8,446.3,345.1,440.5z
	 M800.2,475.8c-1.2,0-2.4,0-3.6,0c-1.1,8.7-2.7,17.5-2.9,26.2c0,2.1,4.5,4.8,7.3,6.2c2.2,1.1,5.2,1,7.8,1.1
	c12.3,0.3,14.5-1.8,14.2-14.3c-0.2-8.2-0.5-16.4-0.9-24.6c-0.8-16.8-1.2-33.6-3.2-50.3c-0.3-2.8-7.9-6.4-12.2-6.5
	c-3-0.1-8.6,5-8.7,8.1c-0.6,9.2,0.2,18.7,1.7,27.8c1.8,10.7,5.1,21.2,7.9,32.6C804.7,479.6,802.4,477.7,800.2,475.8z M716,505.7
	c10.1-6.2,19.7-11.8,28.9-18.1c2.3-1.6,3.5-5.3,4.1-8.3c0.5-2.4-0.9-5.1-1.1-7.7c-0.6-9.1-0.2-18.3-1.8-27.2
	c-1.5-8.3-11.6-9.9-17.5-3.6c-2.9,3.1-6.1,6.1-8.8,9.4c-4.2,5-10.2,9.7-11.8,15.4C704.2,479.6,709.3,492.7,716,505.7z M220.4,462.5
	c-0.6,3.9-1.7,7.5-1.5,11c0.6,8.3,2.8,16.5,2.6,24.8c-0.2,8.9-3,17.8-3.7,26.7c-1.1,13,1.3,14.7,14.2,12.5
	c7.8-1.4,12.8-3.4,12.3-13.4c-0.6-12.5,2.2-25.3,1.2-37.8C244.4,471.5,243,463.2,220.4,462.5z M804.9,578.7
	c-4.2,0.5-10.2-7.8-10.3,2.5c-0.2,12.1,1.1,24.2,0.9,36.3c-0.2,14,4.9,25.2,25.7,28.8c0-25.4,0-50.6,0-75.4
	C811.6,567.8,805.6,568.5,804.9,578.7z M271,528.6c-2.3-1.3-4.5-3.7-6.3-3.4c-8.3,1.2-16.3,11-17.5,20.5
	c-1.2,9.6,0.5,18.1,10.7,21.8c4.2,1.6,9,1.4,13.5,2.2c10.1,1.8,16.3-1.3,17.4-11.4c1-9.6,0-19.6-1.3-29.3c-0.5-3.5-4.4-6.6-6.8-9.8
	c-0.8,0.4-1.5,0.9-2.3,1.3c-0.8,5.2-1.7,10.3-2.7,16.6c-0.4-5-0.8-8.7-1.3-14.3C272.5,526.1,271.5,527.7,271,528.6z M303.3,496.7
	c-14,12.1-16.3,44.3-5.7,62c26.5-9.8,32.6-23.7,25.6-50.2c-2.5-9.3-6.6-11.7-14.7-12.5c-0.6,3.3-1.2,6.3-2.3,11.8
	C304.9,502.9,304.3,500.4,303.3,496.7z M903.5,464.6c-0.9-0.3-1.9-0.5-2.8-0.8c-2.7,3.3-5.3,6.5-9.1,11.2c0.8-4.9,1.2-7.9,2-12.8
	c-2.9,2.4-4.7,3.2-5.6,4.6c-4.9,8.4-2.5,37.2,4.5,43.8c3.3,3.1,9.7,5.9,13.7,4.9c17.9-4.3,23.8-18.5,15.2-34.9
	c-2.4-4.5-5.6-8.6-10.3-15.9c-2,8.1-3.3,13.5-4.6,18.6C905.6,477.2,904.5,470.9,903.5,464.6z M124.5,602
	c25.3-14,25.8-14.3,26.7-41.1c0.4-10.6-0.6-21.3-12.4-28.2c-0.5,6.2-0.9,11.5-1.4,16.9c-6.1-5.6,4.4-20.9-12.9-19.7
	C124.5,553.8,124.5,577.4,124.5,602z M219.2,542.1c-0.2,2-0.4,3-0.3,3.9c0.2,7.7,3,16.4,0.4,23c-7.9,19.9-2.9,28.9,17.8,27.9
	c2.2-0.1,4.4-0.3,7.2-0.5c0-13.2,0-25.8,0-38.4c0-16.8-1.7-18.4-18.4-16.6C223.9,541.7,221.9,541.9,219.2,542.1z M514.3,487.4
	c-1.6,5.8-2.9,8.9-3.3,12.2c-1,8.7-2.2,17.4-2,26.1c0.1,4.7,1.9,12,5,13.3c9.2,3.9,19.4,4.5,29-2.6
	C538.3,518,535.3,498.9,514.3,487.4z M690.3,489.2c-0.4-2.5-0.9-5.7-1.5-9.6c-2,1.4-3.2,2-4.1,2.9c-4.2,4.4-9.9,35.8-7.2,40.4
	c0.7,1.2,2.5,2.1,3.9,2.5c9.8,2.7,29.4-9,28.8-18.8c-0.8-12.2-5.2-24-15.8-35.1C692.7,479.1,691.4,484.5,690.3,489.2z M804,563.4
	c0.2,0.1,1.6,0.9,3.2,1.3c11.2,2.7,13.3,1.1,13.5-10.3c0.2-8.6,0.4-17.3,1-25.9c0.5-7.5-2.9-12.4-9.6-14.5c-5.8-1.7-12-2-19.5-3.2
	c1.1,16.2,2.1,30.5,3.1,44.7c1.2,0.2,2.5,0.3,3.7,0.5c1.8-7.2,3.7-14.3,5.5-21.5c0.9,0.1,1.8,0.3,2.7,0.4
	C806.5,543.9,805.4,552.8,804,563.4z M524.5,475.3c-0.1,0.6-0.3,2.8-0.8,6.9c8.2-5.7,15-10.4,23.8-16.4
	c-18.1-6.9-33.9-12.9-50.8-19.3c-2.2,7-4.5,12.4-5.6,18.1c-2.5,13.2,0,16.3,13.5,15.4C511.2,479.5,517.7,477,524.5,475.3z
	 M488.8,328.3c0-4.5,0.5-8.2-0.1-11.7c-0.5-2.9-2.2-5.7-3.4-8.5c-2.9,1.6-6.3,2.6-8.7,4.8c-3.2,2.9-5.6,6.7-8.3,10.1
	c0.1,0.9,0.2,1.7,0.3,2.6c4.7-0.8,9.5-1.5,14.2-2.3c-3.9,3.6-8.3,6.1-13.1,7.6c-7.3,2.3-8.5,5.6-2.7,10.7c2.9,2.6,7.4,3.3,10.1,6
	c6.5,6.3,9.8,6.4,14.8-2.3c2.7-4.7,4.1-10.3,5.6-15.7c1.2-4,1.8-8.1,2.3-12.2c0-0.3-3.8-1.6-4-1.3
	C493.5,319.5,491.7,323.1,488.8,328.3z M171.4,429.5c-3.7-4.6-7.6-9.3-11.4-14.1c-1.2,0.6-2.4,1.2-3.5,1.8c0,15.5-0.1,31,0.2,46.4
	c0,1.8,1.8,4.3,3.4,5.2c10.9,5.8,19.8,0.3,18.7-11.9c-0.8-8.9-2.8-17.8-4.3-26.6c-0.1-0.8-0.3-1.7-0.5-2.8
	C172.5,428.7,171.5,429.5,171.4,429.5z M631.2,379.7c0.9,4,1.6,7.1,2.2,10.1c12.2-0.7,20.7-6.1,21.1-14.8c0.5-12-0.6-24-1-37.4
	c-6.4,1.2-10.4,1.9-15.9,2.9c3.6,4.2,5.3,6.2,7.8,9.1c-4.2-1.2-6.8-1.9-11.3-3.1c0,12.3,0,23.4,0,34.3
	C634.8,380.8,633.7,380.5,631.2,379.7z M239.9,639.3c5.3-6.3,7.7-25.7,4.2-33.2c-4-8.8-12-5.4-18.4-6.2c-7.7-0.9-9.6,3.6-8.7,10.6
	C218.8,624.8,225.7,635,239.9,639.3z M232.9,426.3c-10.7,4.9-15,12.9-11.6,22.6c1.6,4.4,7.5,9,12.1,10c3.5,0.7,11.4-4.1,11.6-6.8
	c0.6-7.8-1.7-15.7-3.1-23.6c-0.1-0.7-1.5-1.2-2.6-2.1c-1.3,1.8-2.5,3.5-3.8,5.3C234.6,429.6,233.7,427.9,232.9,426.3z M467.1,649.2
	c0-15.5,0-29.3,0-43.1c-1.1-0.4-2.2-0.8-3.3-1.2c-5.3,7-11.7,13.4-15.6,21.1c-1.9,3.7-0.9,11.2,1.9,14.4
	C453.4,644.5,459.8,645.8,467.1,649.2z M880.5,514.2c1.3-0.5,2.7-1,4-1.5c-0.8-10.3-1-20.7-2.6-30.9c-0.5-3-5.1-5.3-7.9-8
	c-3.2,4.4-9.9,10.2-8.9,13.1C868.7,496.6,875.1,505.2,880.5,514.2z M828.4,462.7c-0.9,0.5-1.8,1.1-2.7,1.6
	c0.5,6.8,0.3,13.8,1.9,20.3c0.8,3.4,4.6,6.5,7.7,8.8c0.7,0.5,5.6-2.5,6.3-4.6c1.3-4.3,2.9-10.3,1-13.5
	C839.2,470.3,833.2,466.9,828.4,462.7z M252.8,528.4c5.8-6.1,14.2-11.4,13.5-15c-1.3-6.8-7.7-12.6-13.5-21
	C246.9,505.7,248.1,515.4,252.8,528.4z M865.9,539.9c1,0.4,1.9,0.9,2.9,1.3c3.3-2.6,7-4.8,9.8-7.8c5.7-6.1,4.2-16.6-2.9-20.5
	c-1.6-0.9-6.2,0-6.3,0.6C868,522.3,867,531.1,865.9,539.9z M604.4,315.4c1,4.6,2,9,2.9,13.3c1.1-0.2,2.2-0.5,3.4-0.7
	c0-9.9,2-20.2-6.9-28.8c-1.2,8.2-13.3,12.8-6.5,24.9C600.2,320.5,602.4,317.9,604.4,315.4z M247.5,589.8c1.1,0.3,2.3,0.5,3.4,0.8
	c6.8-4,13.6-8,20.5-12c-0.4-1.2-0.7-2.4-1.1-3.6c-7.2,0-14.6-0.8-21.5,0.7C247.4,576,247.9,584.9,247.5,589.8z M387.1,427.6
	c2.7,9.1,4.5,15,6.6,22.2c5.1-5.5,8.8-9.6,14.2-15.4C401.1,432.2,395.7,430.4,387.1,427.6z M679,621.7c2.1,9.1,4.2,18.1,6.7,28.9
	C692,639.2,690.6,632.4,679,621.7z M800.6,389.5c-1.5,1.3-3,2.5-4.5,3.8c2.7,4.5,5.4,8.9,8.1,13.4c2.4-2.9,4.9-5.8,7.3-8.7
	C807.9,395.2,804.3,392.4,800.6,389.5z M891.2,441.2c-0.8,0-1.6,0.1-2.4,0.1c-0.5,6.8-1,13.6-1.6,21.8c3.9-2.7,9.9-5.1,9.7-6.9
	C896.3,451.1,893.3,446.2,891.2,441.2z M370.8,641.5c-1.7-0.6-3.4-1.1-5.1-1.7c-2.1,4.8-4.2,9.6-6.2,14.4c2.6,0.5,7.4,1.9,7.5,1.5
	C368.6,651.1,369.6,646.2,370.8,641.5z M542.7,520.6c1-0.4,1.9-0.9,2.9-1.3c-3.1-8.3-6.2-16.6-9.3-25c-1.4,0.6-2.9,1.1-4.3,1.7
	C535.5,504.2,539.1,512.4,542.7,520.6z M446.8,621.2c-8.6,3.3-15.5,5.8-23.7,8.9C435.2,636.1,440.4,629.6,446.8,621.2z M463.7,399.6
	c9,6.5,11.5,5.1,15.4-8.6C473.6,394.1,469.2,396.5,463.7,399.6z"/>
</svg>
