<?xml version="1.0" encoding="utf-8"?>
<!-- Generator: Adobe Illustrator 21.0.0, SVG Export Plug-In . SVG Version: 6.00 Build 0)  -->
<svg version="1.1" xmlns="http://www.w3.org/2000/svg" xmlns:xlink="http://www.w3.org/1999/xlink" x="0px" y="0px"
	 viewBox="0 0 1000 1000" style="enable-background:new 0 0 1000 1000;" xml:space="preserve">
<g id="Layer_2">
</g>
<g id="Layer_1">
	<path d="M118.9,455.2c-7.6-17.6-8.4-33.7,9.1-50.9c-3,8.3-5.1,12.5-6.1,17c-3.2,15.7,6,26.8,21.9,28.4c11.5,1.2,22.9,3.8,35.4,6
		c0-41.1,0-82.7,0-123.9c-38.5-10.8-75.2-6.5-109,12.1c-30.3,16.7-50.9,42.6-51.6,78.5C18.1,453.6,33,478,60.2,494.3
		c2.3,1.4,4.4,3.1,7.3,5.2c-53.6-8.7-84.1-82.4-58.1-130.4c18.3-33.7,46.1-53.6,80.1-67.5c17.1-7,34.3-14.1,41.9-35.1
		c15.5,25.4,41.6,30.4,65.7,37.1c39.2,10.9,79.2,19.1,118.9,28.3c4.3,1,9.4,2.4,13.2,1.1c6.3-2.1,14.1-5.1,16.9-10.1
		c2.1-3.8-1-13.1-4.9-16.9c-12.5-12.5-21.4-25.6-18.4-44.3c3.1-20,14.8-30.1,33.4-28.4c-24,11.9-26.7,29.8-7.2,48.1
		c2.9,2.7,5.9,5.2,8.8,7.8c31.7,28.4,30.2,52.1-3.9,77.8c-6.2,4.7-9.7,12.7-15.2,20.2c-11.6-27.2-39.1-27.9-64.7-35.4
		c-1,7.7-1.8,14.1-2.6,20.9c-3.3-23.9-3.3-23.9-41-29.6c0,38.3,0.2,76.2,0,114c-0.4,66.5-1.1,133-1.3,199.6c0,4.8,3.3,9.6,6.9,19.1
		c-8.8,17.9-44.9,26.9-37.9,62c-3.4-12.7,2.5-28.5-12.8-36.1c-11-5.5-15.6-17.5-25.7-23.3c-3.7-2.1-10.9-4-13-2.2
		c-18.5,17.1-32.5,36.8-31.9,63.7c0.7,27.1,9.4,50.8,35.3,61.7c14,5.9,31.2,4.7,47.1,5.4c2.5,0.1,5.9-6.4,7.8-10.4
		c4.7-10,6.8-21.8,13.6-29.8c4.4-5.3,15.2-5.2,23.1-7.5c1.8,8,7.6,18.2,4.6,23.5c-7.4,13.1-18.9,23.8-29.3,36.3
		c8.1,17,25,22.2,46.2,11.7c6.9-3.4,12.5-9.8,19.6-12.7c15.7-6.6,31.7-12.2,47.9-17.5c11.3-3.7,23.1-6.1,39.4-10.3
		c26.5,15.5,65.9,26.9,74.3,74.8c-21.7-42.8-56.7-37.9-91.7-31.6c-7.8-26.1-19.4-31.2-46.9-19.3c-10.6,4.6-20.2,11.7-29.7,18.6
		c-26.5,19.3-53.8,14.4-68.3-8.7c-23.1-4.9-43.8-6.4-62.1-13.6c-45.1-17.9-52.1-88.4-28.2-118c18.3-22.7,38.6-43.9,57.6-66
		c2.1-2.5,2.5-7.1,2.6-10.7c0.7-35.2,1.5-70.4,1.6-105.6c0-20-23.3-38.4-42.8-34.9c-15.4,2.8-17.7,8.5-15.3,35.1
		c-1.8-3.9-3.5-7.9-6.2-13.9c-6,28.3,6.2,40.6,28.7,33.7c-10.5,11.7-20.1,12.1-31.2,1.2C96,515.2,87.2,481.4,118.9,455.2z
		 M218,670.1c1.6-0.2,3.3-0.4,4.9-0.5c0.8-3.5,2.1-7,2.2-10.5c1.1-102.1,2.2-204.3,2.8-306.4c0-4.4-3.8-8.8-5.9-13.2
		c-1.8,4.6-5,9.2-5,13.8c-0.6,40.2-0.4,80.4-0.9,120.6c-0.7,59.1-2,118.3-2.6,177.4C213.5,657.6,216.4,663.9,218,670.1z
		 M211.6,800.6c2.2,1.4,4.4,2.8,6.6,4.3c6.5-8.3,13.2-16.3,19.1-25c1.3-1.9-0.8-6-1.3-9.1c-3.5,0.6-8.9,0-10.1,2
		C220.6,781.6,216.3,791.2,211.6,800.6z"/>
	<path d="M686.2,369.1c6.3,19-1.7,41.9,14.5,55.1c1.7-0.4,3.4-0.8,5.1-1.2c6.5,8.9,13,17.7,18.3,24.9c-0.8,15.1-1.5,30.3-2.3,45.6
		c17.8,1.9,25.3-3.5,23.7-20.4c-1.6-16.7-1.5-33.5-1.7-50.3c-0.2-21.1-14.6-32.7-27.3-47.4c9.8,5.3,19.7,10.7,29.8,16.2
		c9.8-11,19.1-23.6,30.5-33.9c16.8-15.3,36.6-26.7,60.2-24.9c7.3,0.6,16.2,7.4,20.4,13.9c2.6,4-2.3,12.9-4.2,21.2
		c-2.1-9.9-1.4-18.6-5.3-22.3c-12.1-11.5-25.7-4.8-40.7-0.5c8.1,10.3,26.8,14.2,16.9,30.5c-6.5,10.7-17.3,12.4-32.7,5.1
		c6.1,0.3,8.4,1.1,10,0.3c5.2-2.4,11.5-4.3,14.6-8.4c1.9-2.5-0.1-11.5-2.8-12.9c-5.3-2.8-13.3-4.8-18.3-2.7
		c-15.9,6.8-22.6,20.9-23.5,37.6c-0.5,10,0.3,20.1,0.5,30.2c0.3,14.5,1.5,29.1,0.5,43.6c-1.1,15.2,2.7,25.2,21.4,26.7
		c-20.4,0.9-21.6,13.2-20.5,27.9c0.9,12.2-0.6,24.7,1.1,36.8c1.1,8.1,4.3,17.1,9.4,23.3c12.8,15.6,22.1,15.4,33.6-1.3
		c5.2-7.5,8.5-18.5,7.7-27.4c-0.6-6.7-8.1-14.7-14.7-18.2c-3.8-2.1-11.8,3.5-16.6,5.2c4.1-13.1,5.7-13.7,27.5-8.5
		c6.2-27,12.1-54.1,18.7-81.1c1-4.2,4.4-8.5,7.9-11.2c22.8-17.8,45.9-35.1,68.4-52.2c-11.6,25.3,12.6,31.6,27.6,41.6
		c15,10,27.8,29.9,51.4,16.9c1.2,1.8,2.4,3.5,3.5,5.3c-11.3,9.5-23.8,18-33.6,28.9c-8.5,9.4-13.9,21.6-19.9,31.2
		c-0.1-0.7-1-5-1.8-8.8c-24.9,12.5-26.3,34.1-24.1,57.2c-1.6-9.2-3.1-18.4-4.8-28.5c-24.3,11.4-17.7,32.5-15.4,49.6
		c0.9,6.8,13.9,14.2,22.8,17.2c32.9,11,61.7-5.5,77.6-42.7c3.2,18.7-7.1,39.7-35.2,57.9c-12.9,8.4-31,8.7-46.8,12.7
		c-0.7-1.4-1.5-2.8-2.2-4.2c-0.9,5.7-1.9,11.4-2.8,17.2c1.2-14.6-6.3-20.4-19.8-23.2c-25.7-5.2-43.5-21.6-56.3-46.5
		c-8.3,14.8-15.5,27.7-22.9,40.9c-9.7-4.3-11.6-2.2-14.6,21.8c-1.6-6.3-2.7-10.5-3.8-14.7c-1.3,0-2.5,0.1-3.8,0.1
		c0,21.3,0,42.5,0,63.8c-8.5-30.2,5.8-67.1-33.2-88.1c-1,7.6-1.9,14.3-3.1,23.3c-3.9-12.1,3-26.1-11.6-31.9c-1.2-0.5-2-3.8-1.9-5.8
		c1.4-23.3,3.9-46.6,4.1-70c0.1-14.5-11.9-11.1-19.5-11.1c0,28.5,0,56.3,0,84.7c-20.3,14.3-50.3,23.8-51.8,60.3
		c-0.4-5.6-0.2-11.3-1.5-16.7c-0.8-3.2-4-5.8-6.1-8.7c-2,2.8-4.1,5.5-7,9.5c1.6-14.6-2.6-24-18.8-23.8
		c-4.6,52.8-1.5,101.8,56.4,127.6c-22.9-4.1-42.9-11-58.2-29.5c-6.1-7.3-10.9-21.9-25.9-16.2c-14.6,5.5-24.3,15.8-25.5,32
		c-1.1,14.9-1.3,29.8-1.7,40.3c-16.1-20.6-16.6-52.1,5.2-75.7c21.5-23.3,27.3-33.3,20-82.5c-7.8,4.9-14.6,9.2-21.5,13.6
		c-0.6-0.5-1.2-1-1.8-1.5c4-4.9,7-11.7,12.1-14.2c14.2-6.8,13.6-18.3,13.3-31c-0.7-35.8-0.3-71.6-1.5-107.3
		c-0.3-8.3-5.2-16.4-8-24.6c-2.5-0.3-5.1-0.6-7.6-0.8c-4.5,8-10.3,15.6-12.9,24.2c-1.1,3.5,3.7,11,7.7,13.2c3,1.6,9-2.4,16.6-4.9
		c-5.3,4.7-9.1,10.8-13.1,10.9c-5.1,0.2-12.2-3.1-15.2-7.3c-10.4-14.4-4.1-27.2,6.1-39.2c21.4-25.1,21.3-25.2,24.7-60.3
		c1.6,17.5,3,31.6,4.6,48.9c5.2-4.5,7.4-6.4,7-6c4.6,6.2,9.2,12.6,13.9,19c3.4-7.9,6.8-15.8,9.4-22c0.3,2.9,0.9,8.7,1.5,14.9
		C674.6,417.1,695.4,404.4,686.2,369.1z M636.3,578.7c16.1,4.6,28.2,7.1,39.4,11.6c15.8,6.4,19.7,4.6,19.7-12.7
		c0-34-1.2-68.1-0.3-102.1c0.4-15.3-3.6-27.5-15.1-36.7c-4.8-3.8-13.4-8.4-17.5-6.5c-10.1,4.7-25.9,5.1-26.1,21.5
		C636.1,496.1,636.3,538.4,636.3,578.7z M894.4,428.3c0,33.8,0,64,0,99c21.9-22.4,40-40.7,59-60.1
		C934,454.4,914.8,441.7,894.4,428.3z M881.8,449.4c-33.8,35.6-29.1,113.2,6.1,126.7C885.9,534.4,883.9,493,881.8,449.4z"/>
	<path d="M599.9,570.9c-8.1,13-14,28.3-24.8,38.5c-13.1,12.4-9.5,26.9-11.9,40.6c-7.8-11.2-4.2-25.3-12.9-38.7
		c-17-26.3-5.9-59.6-8.9-89.8c-0.7-7.3-3.9-14.3-6.5-23.5c9.6-8.1,10.9-61.9-1.7-76.7c-32.7,14.9-19.3,44-22.2,68
		c1.3,1.2,2.5,2.3,3.8,3.5c6-4.9,11.9-9.8,17.9-14.7c0.9,0.7,1.8,1.3,2.6,2c-7.2,8.9-14.6,17.7-21.5,26.8c-1.7,2.3-2.4,5.9-2.4,9
		c-0.1,21.2-0.7,42.5,0.6,63.7c0.3,5.1,6.1,10.9,10.9,14.1c1.9,1.3,8-3.9,15.3-4.9c-4.1,5.1-7.7,14-12.5,14.6
		c-20.8,2.8-26.3,18.3-31.5,31.3c10.9,4.5,25.4,6.1,30.6,13.8c5.2,7.8,1.1,21.8,1.1,34.2c-15.2-2.5-28.1-4.7-41.5-6.9
		c1.4,18.4,16.8,26.1,32.8,33c6.6,2.9,14.1,4.2,20.2,8c19.1,11.7,20.1,29.3,0.9,47.4c1.9-6.6,3.3-10.8,4.2-15
		c3-14.5-3.6-23.5-16.5-28.9c-16.3-6.9-36.1-10.4-47.5-22.1c-7.6-7.8-5.5-27.7-3.5-41.5c1.8-12.2,10.1-23.3,14.4-35.3
		c1.5-4.1-0.5-9.5-0.9-14.2c-4.5,2.8-11,4.5-13.1,8.6c-3,5.6-2.4,13-3.9,19.5c-3.1,14.2-11.7,18.6-21.2,14.4
		c4.3-6.2,11.4-12.1,12.8-19.2c4.3-20.6,7.8-40.8,22.5-57.6c3.2-3.7,1.6-11.8,1.6-17.9c0.2-16.1,0.1-32.1,0.1-51.6
		c-7.7,3.9-13.1,6.7-19.4,9.9c4.3-9.4,1.4-23,17.9-23c0-15.6,2.9-31.9-1-46.4c-2.5-9.3-15-15.8-22.9-23.6c-2.2,4.4-6.6,8.8-6.4,13.1
		c0.9,23,4.1,46,4.1,69c-0.1,27.4-5.7,55.2-3,82.2c1.5,14.6-7.3,22.2-9.6,33.5c-15.7-3.3-11.6,9.3-13.4,16.3
		c-3.2-6.2-5.7-13.8-10.6-19.3c-3.3-3.7-11.9-7.3-14.9-5.5c-4.8,2.9-9.4,10.1-9.7,15.7c-0.5,8.4,2.8,16.9,2.9,26.3
		c-3.5-7-7-13.9-10.4-20.8c-18.1,19-17.7,31.3,1.9,56.5c-20.1-11.2-27.9-29.2-17.1-48c9.6-16.7,23.9-30.7,34.9-46.8
		c5-7.2,8.6-16.3,9.9-24.9c1.7-10.9-0.2-22.3,0.5-33.5c0.9-14-1.2-25.9-19.1-31.6c17.7-5.8,19.7-17.4,19-31.4
		c-0.9-19.8-0.2-39.8-0.2-59.7c-1.4-0.2-2.9-0.4-4.3-0.6c-1.2,2.5-2.3,5-3.4,7.1c-1.7-4.1-2.7-9.5-5.9-12.6c-1.4-1.3-7.4,2.2-12,3.8
		c-0.4-3.8,2.2-17.2-11.1-7.4c-11.1-25.4-15.5-50,18-66.5c-7.2,9.9-15.7,17.2-18.1,26.2c-2.1,7.7,2.7,17.3,5.2,29.5
		c6.5-14.3,10.6-23.4,14.7-32.5c1.8,0.6,3.6,1.2,5.3,1.8c-6.5,11-16.7,23.1-0.1,31.9c10.7,5.7,17.7-1.2,19.4-9.6
		c6.3,6.3,13.4,13.5,21.6,21.8c5-5.4,9.6-10.5,13.2-14.4c13.3,10.4,26.5,20.7,40.6,31.8c16.6-17.3,36.9-30.6,32.7-50.8
		c3.1,6.5,8.5,19.4,15.5,31.5c4.3,7.4,13.1,11.9,19.1,3.4c5.1-7.2,9.1-18.1,7.7-26.3c-1.6-9.4-11.2-13.3-21.3-7.6
		c-1.2,0.7-2.8,0.9-5.7,1.7c8.2-12.7,19.6-13.9,27.9-6.7c6.2,5.4,9.8,16.8,9.9,25.6c0.1,7.5-5.1,16.5-10.6,22.2
		c-20.8,21.6-10.8,47.4-10.5,71.6c0.1,4.4,9.6,8.7,15.5,13.5c-15.1-0.3-16.9,9.3-16.3,21.9c0.8,16.7-0.2,33.6,0.7,50.3
		c0.3,6,3.9,11.9,6,17.9c5.5-3.9,11.4-7.4,16.4-11.9c2.7-2.4,3.8-6.6,5.6-10C597.3,568.9,598.6,569.9,599.9,570.9z M449.6,511.8
		c-9.8,19.3-7.6,76.1,0,83.9C449.6,567.6,449.6,539.7,449.6,511.8z M489.5,657.4c6.3,4.9,12.6,9.8,18.9,14.7
		c3.1-5,9.8-11.4,8.6-14.9C511.9,642.7,501.5,650.7,489.5,657.4z M448.2,436.4c-7.9,19.2-6.7,48.7,0,56.4
		C448.2,474.1,448.2,455.2,448.2,436.4z"/>
	<path d="M403.5,570.1c-4.3,14.9-16.7,27.6-31.3,38.8c-6.6,5.1-23.5,11.7-41,10.5c-17.8-1.2-35.3-6-54.4-9.5
		c-0.1,0.5-1.2,4.1-1.9,6.6c-2.6-6.7-5.3-13.9-8-21c-1.3,0.3-2.5,0.6-3.8,0.9c-0.4,3.7-0.9,7.5-1.4,11.6c-0.6-0.8-1.1-1.4-1.3-2
		c-4.2-13.1-7.9-26.4-12.7-39.2c-12.5-33.2-7.2-65.8,2.4-98.4c0.6-2,1.8-4,3.3-5.4c24.2-22.6,48.6-45.2,70.8-65.8
		c-0.4,20.5,52.5,60,75.5,52.3c-7.8,9.7-15.7,19.5-23.8,29.6c-5.1-3.3-5.1-3.3-7,10.7c-1.6-1.2-5.2-4.7-5.6-4.4
		c-17.2,14.5-35.3,28.3-45.9,47.6c-8.5-4-12.1,3.6-13.7,10.2c-10.2,40.4,16.1,65.7,56.1,52.3C375.9,590.1,389.8,578.2,403.5,570.1z
		 M363,470.2c-16.8-12.9-31.6-24.5-46.6-35.7c-10-7.5-15.2-0.9-15.4,7.8c-0.9,26.3-0.3,52.7-0.3,79c1.8,0.3,3.6,0.6,5.3,1
		C324.3,505.5,342.6,488.8,363,470.2z M296.8,443.2c-37.7,36-34.6,114.1,0,131.6C296.8,532.8,296.8,490.1,296.8,443.2z"/>
	<path d="M515.3,282.2c11.1,25.6,32.7,36.2,55.6,29.7c21.5-6.2,38.3-33.9,35.4-58.3c-3.6-30-18.1-38.1-66.5-39
		c11.7-12.7,25.1-27.1,40.3-43.4c-17.5,0-32.4-1.2-47,0.7c-4.5,0.6-7.9,9.5-11,13.6c-3.4-0.4-8.3-1-14-1.7
		c4.7-5.4,10.8-9.3,12.2-14.4c6.5-24.1,24.7-22.1,43.1-21.5c17.9,0.6,35.7,0.1,46.6,0.1c-10.7,14.2-25,33.2-38.2,50.5
		c15.9,2.5,40.3,4,50.5,26.7c6.5,14.5,9.2,32.2,8.3,48.2c-1.7,34.6-36.7,52.8-70.9,50.5C529.7,322,516.6,310.2,515.3,282.2z"/>
	<path d="M719,323.9c-6.7-1.1-11.9-1.9-21.3-3.4c1.3-8.1,4.9-19.5,4.8-30.8c-0.1-35.2-1.2-70.3-2.7-105.5
		c-0.2-5.2-4.9-10.2-7.5-15.4c-1.1,1.7-2.3,3.5-3.4,5.2c-3.5-7.4-6.9-14.3-11.3-23.4c8.8,2.3,18.1,4.6,29.3,7.5
		c8.1-9.1,14.8-24.2,33.8-23.2c-33.6,25.5-17,59.9-21.7,93.9c12.1-7.8,20.8-13.3,29.7-19.1c2.2,2.1,4.1,3.4,5.3,5.1
		c13.6,18.3,13.6,90.6,1.1,109.2c-4.3,6.3-5.5,14.6-7.7,20.9c-0.5-2.8-1.5-7.6-2.4-12.5c-13.1,5-25.5,9.8-37.9,14.5
		c-1.5-1.3-2.9-2.6-4.4-3.9c47.9-11.3,45.9-45.8,42.3-81.2c-1.2-11.7-1.6-23.5-2.5-36c-26.7,5.9-22.6,23.8-21.9,39.4
		c0.7,15.4,2.8,30.7,4.2,46.1c1.5-0.1,3-0.2,4.5-0.2C725.8,315.6,722.2,319.9,719,323.9z"/>
	<path d="M496.8,320.3c-4,1-9.5,2.4-15.9,3.9c-0.3,5.1-0.6,10.6-1,16c-1.1-37.7-32.1-7.2-42.7-20c5.8-4.2,15.5-7.8,18.8-14.5
		c3.6-7.3,1.1-17.5,1.2-26.4c0.2-24,0.6-48,0.2-72c-0.1-8.1-2.1-16.1-3.6-27.1c-11.4,5.8-20.2,10.2-29,14.6c-0.6-1-1.2-1.9-1.8-2.9
		c21.8-15.1,43.6-30.1,64.9-44.9c0,29.2-0.1,57.1,0,85.1c0.1,22.9,0,45.8,1.1,68.6C489.3,306.9,493.7,312.8,496.8,320.3z"/>
	<path d="M651.5,327c-4-6-8-12.1-10.8-16.4c11.5-30.1,3-60.3,5.7-88.9c-7.1-2.2-12.6-3.8-18.1-5.5c24.2-2.3,27-24.2,38.8-40
		c0,12.2,0,21.9,0,33.6c8.2,0.4,16.3,0.7,24.7,1.1c-1.4,7.5-2.7,14.2-3.5,18c-5.2-3.3-11.3-7-20.8-13c0,31-0.6,57.4,0.6,83.8
		c0.2,3.8,8.7,7.3,13.5,11.1c-15.2,9.1-24.1,24.4-22.2,45.5c0-9,0.3-18-0.3-27c-0.1-1.4-3.6-2.7-5.6-4
		C652.8,325.7,652.2,326.3,651.5,327z"/>
</g>
</svg>
