<?xml version="1.0" encoding="utf-8"?>
<!-- Generator: Adobe Illustrator 21.0.0, SVG Export Plug-In . SVG Version: 6.00 Build 0)  -->
<svg version="1.1" xmlns="http://www.w3.org/2000/svg" xmlns:xlink="http://www.w3.org/1999/xlink" x="0px" y="0px"
	 viewBox="0 0 1000 1000" style="enable-background:new 0 0 1000 1000;" xml:space="preserve">
<g id="Layer_2">
</g>
<g id="Layer_1">
	<g>
		<path d="M691.6,596c1.4,8.7,2.8,17.3,4.8,30.3c-14.4-20.9-26-38.6-38.7-55.7c-12.6-17-26.3-33.2-40.3-50.8
			c24.5-28.3,49.5-56.7,73.7-85.6c13.6-16.2,26.6-33.1,38.8-50.4c8.1-11.5,14.1-24.9,5.1-38.5c-9-13.5-23.7-16-38.3-13
			c-12.8,2.6-25,7.9-38.3,12.4c-2.4-7.5-5.4-17.1-8.8-28.2c19.4-13.5,42.2-17.1,65.1-18.4c69.9-4.2,138.8,6.7,207.7,16.1
			c12.7,1.7,25.3,3.5,40.9,5.6c-68,0-133.1,0-200.3,0c5.5,8.8,10.5,16.9,15.6,25c9.2,14.6,17.5,30,28.1,43.5
			c18.8,23.9,26.4,51.1,28.6,84.9c-20.1-30.4-38.2-57.9-58.8-89.1c-5.2,51.4-40.9,79.6-69.6,111.6c10.3,12.2,20.1,23.9,30,35.6
			c-0.8,0.8-1.7,1.7-2.5,2.5c-5.5-4.3-10.5-9.4-16.6-12.6c-6.2-3.3-13.4-4.6-23-7.8c32,45.8,61.9,88.5,91.7,131.2
			c-1.4,1.2-2.7,2.4-4.1,3.6c-5-2.3-10-4.7-17.4-8.1c5.6,19.6,10.7,37.2,16.2,56.7c-4.3-1.4-7-2.3-10.6-3.4
			c-1.6,12.7-2.3,24.9-4.6,36.9c-15.9,82.3-80.8,124.1-163,106.8c-46.8-9.8-84.1-35.1-118.4-66.5c-5.4-5-10.7-10.1-15.6-14.8
			c-15.1,15.9-28.2,33.5-44.9,46.4c-16.6,12.9-36.9,21.2-55.5,31.5c-1-1.7-2.1-3.4-3.1-5c9.8-8.3,19.8-16.3,29.4-24.9
			c19.7-17.7,36.3-37.8,44.8-63.3c1.4-4.3,1.6-11.7-1.1-14.4c-31.2-32.3-62.7-64.4-103.5-85.2c-3-1.5-6.2-2.6-9.3-3.8
			c-32.9,46.6-47.1,97.9-17.9,152.4c-18.8-11.7-42.2-47.6-48.9-73.8c-7.9-30.7-0.4-59.3,11.8-87.6c-25.6-0.5-30.6,3-34,26
			c-2.8,19-6.1,38.1-6.3,57.2c-0.5,33.8,5.8,45.8,32.9,73.9c-17.7-1.4-23.2-4.9-46-29c-8.4,32.1-16.6,63.7-24.9,95.4
			c-1.2-0.2-2.3-0.4-3.5-0.7c4.9-63.4,9.8-126.9,14.8-190.3c-0.9-0.6-1.8-1.1-2.7-1.7c-10.7,12.3-21.4,24.6-32.1,36.8
			c-1.9-1.6-3.8-3.2-5.7-4.8c10.5-14.7,21.6-29,31.3-44.2c5.5-8.7,11.6-18.6,12.5-28.4c7.6-79.6,14.1-159.2,20.9-238.9
			c0.1-0.8-0.6-1.7-2-5.5c-22.2,35.9-43.5,70.3-64.7,104.7c-1.4-0.4-2.7-0.8-4.1-1.2c4.5-17.8,6-37.2,14.3-53
			c14.6-27.8,33.4-53.5,50.4-80.1c2.8-4.4,5.5-8.8,9.3-14.8c-66.4,0-130.3,0-194.2,0c-0.1-1-0.2-1.9-0.3-2.9
			c76.2-8.7,152.5-17.4,231.4-26.4c-2,7.7-2.3,10.9-3.6,13.8c-15.4,34.8-14.9,69.7-1.9,105.1c2.3,6.2,3.1,13.4,2.5,19.9
			c-2.6,27.5-5.7,55-9.1,82.4c-3.4,27.3-7.2,54.6-11.1,83c14.3-2.7,28.1-5,41.7-7.9c2.5-0.5,5-3,6.7-5.3
			c15.9-21.4,31.5-42.8,47.3-64.4c-15.9-21-32.4-41.2-47.1-62.7c-27.6-40.1-43.1-83.3-28.8-132.6c9.3-31.9,27.8-58.1,51.2-81.5
			c-30.7,59.3-17.1,113.7,17,165.9c13.1,20.2,26.8,40,41.8,62.3c19.9-34,33.2-66.4,21.2-103.8c-11.5-35.9-40.4-57-71.2-78.9
			c46.9,3.4,90.5,44.4,105.2,97.1c2.8-0.8,5.6-1.7,8.8-2.6c-2.9,16-5.6,31.3-8.7,48.8c5.7-3.1,9.4-5.1,17.1-9.3
			c-6.1,13.2-10.3,23.3-15.3,32.9c-7.5,14.5-14.9,29-23.4,42.8c-4.7,7.6-3.8,12.6,1.3,19.6c5.3,7.3,10.3,5.4,16.5,3.1
			c37.8-14.2,74-14,108.5,10.2c8.8,6.2,19.2,12.8,33.5,3.8c-15.9-13.7-30.9-26.6-47-40.5c13.4-16.9,27.5-32.6,39.3-49.9
			c18.2-26.9,35.5-54.4,51.8-82.5c5.3-9,7.6-20.4,8.9-31c2.2-18-8.1-26.7-26-23.9C547.5,321.8,512,383,533,428.9
			c11,24,7.2,38.8-9.5,54.8c-1.8,1.7-3.2,3.7-5.3,6.3c-20.1-14.7-26.7-36.9-37.3-60.4c6.1,3.5,9.6,5.5,15.9,9.1
			c-2.9-16.9-5.3-31.2-7.8-45.4c1.2,0.3,2.3,0.6,3.5,0.9c2.1-4.1,5.4-7.9,6-12.2c4.9-32,15.9-60.9,45.6-77.4
			c12.5-6.9,27.5-10.2,41.9-12.6c15.9-2.7,20.3-6.5,18.1-22.3c-0.4-2.7-0.9-5.4-1.7-9.4c57.9,62.3,68.9,130.3,27.7,194.8
			c-14.5,22.7-31.9,43.7-49.1,66.9c21.9,26.5,44.7,54.1,67.5,81.6c-0.5,0.9-1.1,1.7-1.6,2.6c-6.5-3.1-12.9-6.3-20.1-9.8
			c16.2,20.1,33.3,38.2,46.9,58.7c30.5,46,18.7,97.2-26.5,123.3c46.4-86.9-34.7-182.9-124.2-189.4c8.4-4.1,14.6-7,21.1-10.2
			c-22.4-19.9-65.6-19.7-94.2,0c15.8,27.9,31.6,55.8,47.4,83.7c-1,0.8-2.1,1.5-3.1,2.3c-4.8-2.8-9.6-5.6-16.2-9.5
			c4.4,23,6.7,43.3,27.5,57.4c26,17.7,49.9,38.6,74.8,58c2.7,2.1,5.8,3.7,8.5,5.9c50.9,40.4,92.7,9.7,113-29.5
			c4.3,16.5,1.8,24-18,52.5c18.1-5.9,30.7-14.7,39.9-28.5c21.3-31.9,22.8-66.3,13-102.2C728.9,640.2,714.2,615.8,691.6,596z
			 M349.8,596.1c27.3,18.4,53.4,35.9,79.4,53.5c1.3-1,2.5-2.1,3.8-3.1c-19.5-27.7-38.9-55.4-59.9-85.4
			C363.7,575.1,356.8,585.6,349.8,596.1z"/>
		<path d="M483.1,510c-12.3,1.2-23.4,2.3-36.5,3.6c17.9-32.9,4.2-66.1,7.5-101.6c-6,3.5-9.4,5.5-13.3,7.8c-0.3-1.5-0.8-2.8-0.6-4
			c1.6-12.2,2.6-24.6,5.2-36.6c4.2-19.3-1.5-36.9-7.3-54.8c-2.2-6.8-2.1-15.1-0.4-22.1c3.7-15.6-0.7-31.1-14-42.1
			c1.1,9.2,2.2,18.4,3.3,27.5c-1.7,0.6-3.5,1.2-5.2,1.8c-8.8-16.4-17.3-33.1-26.7-49.2c-2.1-3.6-7.3-7.8-11-7.8
			c-19.3,0.3-32.8-9-43.5-23.9c-24.8-34.4-24.7-80.3,0.2-106.5c6.7-7.1,13.7-13.5,24.5-5.2c-2-2.8-3.9-5.6-6.1-8.7
			c30.9-17,57.3-36.8,60.8-79c3.5,6.9,5.1,10,8.8,17.5c1.3-11.5,2.2-19.2,3.1-26.8c21.8,28.5,16.7,93.5-9.3,116.5
			c-2,1.8-6,2.3-8.9,2c-6.9-0.7-16.9-5.6-19.9-2.7c-9,8.5-17.7,18.9-22,30.3c-5.7,15.2,4.5,30.6,19.2,34.8
			c12.6,3.5,22.4-4.1,27.9-21.6c1.9-6,3.9-11.9,7.7-17.4c0,14.7-2,29.7,0.6,43.9c2.5,13.9,9.8,27,15,40.4c1.9-0.4,3.9-0.9,5.8-1.3
			c-0.4-5.7-0.7-11.5-1.1-17.2c-0.4-6.3-1.1-12.6-1.3-18.9c-0.4-17.8-0.6-35.5-0.8-53.3c0-8.1-0.7-16.3,0.8-24.2
			c4.3-23.2,9.6-46.1,13.3-63.5c5.2,20.5,11.8,46.8,18.3,73.2c0.5,1.8,0.4,4-0.1,5.8c-6.3,22.4-4.3,44.8-2.2,67.6
			c1,10.4-1.9,21.1-3.3,33.3c34-23.1,20.1-57.5,26-87.1c2.5,8.1,3.4,17.3,8,24c4.9,7,13.1,15.7,20.2,16.1
			c7.3,0.4,17.5-6.8,22.1-13.7c10.2-15.5-3.5-48.1-21.3-53.2c-3.7-1.1-8.9,0.5-12.5,2.6c-8.9,5.3-13.8,1.7-19.3-5.6
			c-21.4-29-24.3-75.8-5.1-110.8c1.3,8.9,2.5,16.5,4,26.3c2.8-5.5,4.8-9.3,8.2-16c4.8,32.8,20.1,55,47,68.9c4.5,2.3,8,6.6,13.4,11.2
			c0.1-0.2-1,2.3-0.7,1.5c6.5,3.1,13.8,4.8,18.7,9.2c38.4,34.3,15.9,107.8-17.9,125.1c-9.2,4.7-20.5,5.4-32.8,8.5
			c-3.4,7.7-7.2,18.3-12.7,28c-5.2,9.2-12.2,17.4-21.4,25.3c0.9-9.2,1.9-18.4,2.8-27.6c-13.6,11.7-17.9,26.9-13.1,43.3
			c1.4,4.8,3.1,11.2,1,15.1c-15.5,29.7-9.5,59.3-1.1,89c0.8,2.7,1.1,5.6,2,9.9c-4.2-2.2-7.1-3.6-10-5.1
			C471.6,432,474.8,486,483.1,510z"/>
		<path d="M468.4,767.5c20.2,8.7,16,23.4,14.1,39.7c-4,33.2-5.5,66.7-7.3,100.1c-1.7,30.9-2.4,61.8-4.7,92.7
			c-3.3-49.6-6.5-99.3-10.2-148.9c-0.9-12.7-1.2-26.3-6.1-37.6C444.8,791.9,458.7,780.5,468.4,767.5z"/>
		<path d="M625.2,247.2c36.2,29.9,48.2,28.5,83.2-11.6c10,8.3,12.2,24.7,4,32.9c-5.2,5.2-10.8,10.2-16.9,14.2
			c-19.6,12.9-37.4,10.6-52.2-7.5C636.3,266.7,631.2,256.6,625.2,247.2z"/>
		<path d="M204.9,235.4c46.8,41.1,55.2,41.9,88.1,8.5c-7.5,20.1-16.6,39.2-39.5,46.1c-14.4,4.3-41.1-8-49.6-25.4
			C200,256.9,204.3,245.3,204.9,235.4z"/>
	</g>
</g>
</svg>
