<?xml version="1.0" encoding="utf-8"?>
<!-- Generator: Adobe Illustrator 21.0.0, SVG Export Plug-In . SVG Version: 6.00 Build 0)  -->
<svg version="1.1" id="Layer_1" xmlns="http://www.w3.org/2000/svg" xmlns:xlink="http://www.w3.org/1999/xlink" x="0px" y="0px"
	 viewBox="0 0 1000 1000" style="enable-background:new 0 0 1000 1000;" xml:space="preserve">
<path d="M257.3,559.9c-6.3,6.3-12.2,13-18.9,18.9c-21.4,18.7-43.3,36.6-64.3,55.7c-5.3,4.8-7.6,12.9-11.3,19.5
	c-0.4,0.7-0.1,2-0.6,2.3c-33.9,20.1-45.7,58.6-71.7,85.3c-0.6,0.6-1,1.4-1.5,2c0.7,1,1.4,1.9,2.1,2.9c9.6-8.1,21-14.9,28.6-24.7
	c18.6-24.1,35.4-49.5,55.4-73.1c-0.9,2.2-1.7,4.4-2.8,6.4c-27.9,50.2-67.1,91.1-106.4,132.2c-9.3,9.8-21.1,18.6-27.5,30.2
	C31.2,831,28,847.1,24.4,862.4c-3.2,13.6-4.6,27.7-8.5,41.4c-3.2-26.6,3.2-52.3,7.6-79.9c-7.8,4-14.8,7.7-21.8,11.3
	c-0.6-0.9-1.2-1.8-1.7-2.7c0.8-1,1.4-2.5,2.5-2.9c22-8.8,36-25.7,49.1-44.7C72.9,754,96,724.3,118.1,694c1.7-2.4,1.5-6.1,2.2-9.2
	c5.6-5.5,15.4-10.8,15.6-16.5c0.2-7.2,4-9.3,7.4-12.8c11.7-11.9,23.7-23.5,35.3-35.4c2.7-2.8,5.8-6.6,6.2-10.2
	c2.3-19.4,3.8-38.8,5.9-61.7c-12.4,10.9-22.7,20.3-33.5,29c-3.5,2.9-8.3,4.1-12.6,6.1c16.5-14.3,32.8-28.9,49.5-43
	c9.4-7.9,20-14.7,15.6-29.7c-3.8,1.1-7.5,2.1-11.1,3.1c14.9-21,14-43.4,11.3-66.6c-0.5-4.4,4.3-10,7.6-14.2
	c3.6-4.5,8.3-8.2,12.8-11.9c9.1-7.5,8.2-16.7,5.9-30.3c-17.5,19.1-33.7,34.7-47.2,52.4c-6.3,8.3-7.2,20.7-10.9,31.1
	c-1.7,4.9-3.4,10.3-6.6,14.1c-12.7,14.9-24.9,30.4-39.4,43.5c-9.3,8.4-9.6,17.3-9.7,27.8c-0.1,10.3-1.4,20.6-2.2,30.9
	c-0.3,4.3-2.8,10.3,5.9,7.3c-9.5,15.9-22.3,30.8-27.8,48c-7.4,23.2-20.8,42.2-33.5,62c6-14.5,12.1-28.9,19.4-46.2
	c-26.7,16.9-38.8,43.7-61,61c16.7-20.4,33.8-40.5,50.1-61.3c13.7-17.6,29.7-34.4,38.4-54.4c7.3-16.5,5.4-37.1,7.6-55.8
	c-1.4-0.5-2.7-1-4.1-1.5c-8.7,12.2-17.4,24.4-26,36.7c-0.9-0.6-1.9-1.2-2.8-1.7c8.7-21.5,28-36.8,39.2-60.7c-6,3.9-9.5,6.2-15,9.7
	c2.5-5.4,4.2-9.1,6.4-14c-3.5,1.8-5.8,3-9.7,5c1.5-2.4,1.9-3.6,2.7-4.3c9.9-9,12.8-25.8,5.6-36.9c-1.5-2.3-5.9-3.8-9-3.8
	c-3.8,0.1-7.6,2.2-10.3,3c13.3-16.3,28.5-32,39.9-50c9.7-15.2,15-33.2,22.2-50c1.3-3,1.4-6.8,3.3-9.3c11.9-15.4,24-30.6,36.2-45.9
	c0.7-0.9,2-1.2,5.9-3.3c-2.5,8.8-4.3,15.4-6.1,22c0.5,0.3,1,0.5,1.5,0.8c12.1-15.6,24.2-31.1,36.3-46.7c-1.2-1.1-2.4-2.2-3.7-3.3
	c-6.1,5.1-12.3,10.1-19.3,15.9c2.4-21.8,4.6-42.3,6.9-62.9c-1.2-0.5-2.5-1-3.7-1.4c-11.5,17.3-23,34.7-34.5,52
	c-1.3-0.2-2.6-0.3-3.9-0.5c-1-11.1-1.9-22.2-3.1-36.5c-5.1,6.1-10.3,10.2-12.6,15.6c-7.5,17.9-21,29.5-37.4,38.5
	c-1.1,0.6-2.6,2.2-3.1,1.9c-15.2-8.9-19,6.9-28.4,13.2c0.7-4.2,1.4-7.6,2.1-11.8c-11.5,9.3-22.4,18.1-33.3,26.9
	c-0.7-0.8-1.5-1.6-2.2-2.4c19.6-18.7,39.3-37.4,58.9-56c1.1,1,2.3,2,3.4,3.1c-3.1,4.5-6.2,9-9.4,13.6c10.9-2.9,21.9-5.1,32.2-9.1
	c4-1.6,6.9-7,9.5-11.2c8.4-13.4,16.1-27.3,24.7-40.6c7.9-12.3,16-24.6,25.3-35.9c7.2-8.7,16.5-15.5,24.6-23.5
	c2.7-2.7,4.7-6.2,6.5-9.6c-15.3,11.3-23.8,13.5-65,12.9c7.5-3.8,14.9-7.6,22.4-11.3c5.9-2.9,12.6-4.7,17.5-8.8
	c10.5-8.8,20.5-18.4,29.6-28.6c3.6-4,4.4-10.6,6.4-16c0.1-0.3-1.1-1.2-1-1.4c5.1-6.5,10.3-13,15.5-19.4c0.9-1.2,2-2.2,4.1-4.4
	c-0.6,12.4-1.2,23.1-1.8,34.9c20.3-1.3,39.7-2.5,59.2-3.8c0.1,0.9,0.1,1.8,0.2,2.7c-14.9,2.7-29.9,4.5-44.5,8.4
	c-5.5,1.5-13.7,7.4-13.8,11.4c-0.2,8.1,2.4,18,7.6,23.7c2.9,3.2,13.4-0.4,20.4-1.2c6.8-0.8,13.6-3,20.4-2.8
	c20.7,0.6,55.5-25.3,59.6-45.5c0.5-2.5-1.8-5.6-1.5-4.8c5.5-3.7,10.6-7.1,16.8-11.3c2.5,5.8,3.8,15.1,9,18.9
	c5,3.7,14.1,1.8,23.6,2.5c-7.8,2.1-13.7,3.6-20.4,5.4c2.8,5.4,5,9.8,7.5,14.6c4.2-1.5,7.8-2.8,11.5-4c0.3,0.6,0.5,1.1,0.8,1.7
	c-2.3,2.1-5.2,3.9-6.9,6.5c-2,3-3.1,6.7-4.5,10.1c3.8,0.1,7.6,0.7,11.3,0c4.3-0.8,8.4-2.6,14-4.4c-3.8,7.5-18.8,4.7-12.2,18
	c10-4.3,19.7-8.4,29.5-12.6c0.3,0.4,0.6,0.9,0.9,1.3c-1.3,1.1-2.5,2.5-3.9,3.3c-20.4,11.8-20.5,11.8-14.5,35.3
	c0.8,3.2,1.9,6.3,3.6,11.5c37.8-31.5,80.2-56.4,105.1-98.4c-0.5,4.3-1.2,10.4-2.4,19.7c7.1-7.8,12.1-13.3,17.8-19.6
	c2.6,4.6,4.5,8,6.5,11.4c-0.4-22.5,20.7-27.9,30.6-41.8c-5,13.6,6,30.1-5.3,38.7c-0.8,10.5-1.5,17.8-1.8,25.2
	c-0.5,13.1-12.6,7.8-22.2,14.4c8.9,0.5,14.6,0.8,22.4,1.3c0.7,3,2,8,3.5,14.2c-5.3-1-9.2-1.7-14-2.6c0.5,2.4,0.3,4.2,0.9,4.6
	c17.8,10.9,15.7,27.7,14.5,44.9c-0.8,11.2,0.8,22.5,1.4,34.4c-3.4-1-5.2-1.5-7.1-2c-0.5,0.6-1,1.3-1.6,1.9
	c5.8,4.5,11.1,11.7,17.6,13c9.2,1.9,11.3,6.5,10.8,13.8c-0.9,12.5-2.5,24.9-3.9,37.7c-6.8-2.6-13.3-5-20-7.5
	c1.5,9.4,3.6,16.8,3.7,24.3c0.4,30.4,0.4,60.8,0,91.1c-0.1,4.7-3,9.4-4.6,14.1c-4.2-2.7-8.6-5.2-12.7-8.1c-3.8-2.6-7.3-5.6-11.7-9
	c-2.3,10.8,19.2,14.6,3.6,28.6c8.1,5.8,16.9,12.1,26.3,18.9c-2.8,5-6.5,11.4-10.4,18.3c-3.3-1.5-6.5-2.9-9.6-4.3
	c-0.6,1.1-0.9,1.6-0.9,1.7c18.9,14.9,12.9,35.1,11.5,54.2c-0.6,8-2.7,15.7,6.4,21c1.9,1.1,1.8,5.8,2.3,7.7c-4.1,1.2-9.6,2.1-9.6,2.8
	c0.4,9.2,1.1,18.5,3.1,27.4c0.5,2,6.6,2.7,11.5,4.6c-15.8,26-26.1,54.1-3.8,82.5c-8.6,0-14.8,0-21.9,0c3.3-2.8,6.2-5.2,9.8-8.3
	c-2.9-4.5-5.6-8.6-8.9-13.6c-7.6,6.2-14.6,11.9-21.6,17.7c-0.7-0.6-1.5-1.1-2.2-1.7c3.2-4.1,6-8.7,9.8-12.1
	c10.9-9.7,16.2-21.3,14.2-36.1c-2.2-16.3-4.1-32.7-6.5-52.6c-13.3,16.1-22.5,31.8-35.8,42.2c-19.9,15.6-14,38.2-22.8,57
	c1.4-15.8,3.2-31.5,3.9-47.3c0.8-17.5,0.3-35,1-52.5c0.8-18.2,1.2-36.6,4.3-54.5c1.3-7.3,9.3-13.5,14.7-20.8
	c4.9,5.4,8.6,9.4,12.3,13.5c0.6-0.5,1.2-1,1.8-1.6c-16.7-27.4-33.3-54.8-50-82.2c1.3-0.9,2.5-1.8,3.8-2.8
	c8.1,11.1,16.3,22.1,25.4,34.5c3.9-6,7.6-11.6,11.7-17.9c3.4,4.1,7.3,8.9,11.3,13.7c0.6-0.4,1.3-0.8,1.9-1.1
	c-2.1-4.2-4.9-8.3-6.3-12.7c-5.4-17.1-10.5-34.3-15.9-52.4c4.4,3.4,9,7,14.9,11.7c-3.7-38.9,7.5-77.5-5.6-114.7
	c-1.5,0-3,0.1-4.5,0.1c0,7.9,0,15.7,0,23.6c-1.1,0-2.3,0.1-3.4,0.1c-2.4-17-4.7-34.1-6.9-49.6c6.4,7.5,14,16.5,22.1,26
	c2.6-3.7,4.1-5.9,5.8-8.2c2.7,4.3,5.1,8.2,7.6,12.1c0.8-0.3,1.6-0.6,2.5-0.9c1.2-15,2.5-29.9,3.8-45.3c-7.9,8.2-17.2,18-25.1,26.4
	c0.6-10.9,2.4-23.4,1.7-35.7c-0.7-12.5-3.8-24.8-8-37.3c-22.2,20.9-34,46.1-39.7,74.8c-1.6-0.4-3.2-0.9-4.9-1.3
	c-1.5-17.1-0.9-34.7-5-51.1c-4-16.3,1.4-27.7,10.7-39.2c2-2.4,3.4-5.4,5.1-8c-0.6-1.2-1.2-2.5-1.8-3.7c-8.8,3.3-18.6,5.1-26.3,10.1
	c-15.9,10.5-27.1,24-25,45.5c1.5,14.7,0.3,29.7,0.3,46.9c9.3-13.7,17.5-25.8,25.8-37.9c1.4,0.4,2.7,0.8,4.1,1.3
	c-24.2,26.2-26.6,57.9-24.1,92.2c7-9.1,14.1-18.3,21.1-27.4c0.7,0.4,1.5,0.8,2.2,1.2c-2.9,6.6-4.5,14.3-8.9,19.8
	c-18.5,23.2-25.1,50.5-29.8,78.7c-0.6,3.6-2.8,8.2-5.7,10.1c-13.2,8.4-17.8,21.5-21.3,35.5c-1.1,4.2-3.2,8.1-6,15.1
	c12.5-9.5,23.3-17.7,33.9-25.8c-16.1,30-37.6,59.6-29,99.8c17.2-24.2,33.5-47.2,49.8-70.1c0.8,0.5,1.7,0.9,2.5,1.4
	c-5.4,9.6-10.4,19.5-16.2,28.8c-10.6,16.9-24.3,32.4-31.7,50.6c-5.7,14,2.9,28.5,17.7,41.9c2.1-13.8,3.8-24.8,5.6-36
	c0,18.9,0,37.8,0,57c30.7-10.1,38-33,39.3-59.9c-2.4,35.5-4.8,71-7.2,106.6c-0.4,0-0.8,0.1-1.2,0.1c-1.1-18.7-2.2-37.4-3.4-58.8
	c-10.2,7.2-17.5,12.4-25.4,18c-10.7-16.5-21.3-32.7-33.2-51.1c-1.4,27.8-2.7,54.1-4.1,81.3c4.8-1.7,8.6-3,12.3-4.3l0.4,0.4
	c-30.3,19.6-41.8,54.1-63,80.8c-0.9-0.6-1.8-1.1-2.7-1.7c11.3-17.9,21.1-37,34.3-53.4c12.7-15.7,17.3-32,16-51.6
	c-0.7-10.7,1.3-21.6,1.7-32.5c0.1-2.3-1.7-4.6-3.4-8.8c0.6-6.1,1.5-15.6,2.4-25.1c-0.9-0.2-1.7-0.5-2.6-0.7
	c-5.2,9.2-10.5,18.4-15.7,27.6c-0.9-0.4-1.8-0.8-2.7-1.2c8.2-17.4,16.4-34.8,24.6-52.3c-1.3-0.7-2.7-1.3-4-2
	c-15.1,12.7-24.2,29.8-32.8,47.2c-18.7,37.8-38.1,75.3-56.2,113.4c-8.6,18.1-14.7,37.4-22.1,56c-1,2.4-3.2,4.3-4.8,6.5
	c0,0,0.3,0.2,0.3,0.2c5.3-16.2,10.4-32.4,15.9-48.5c6.6-19.1,13.5-38.2,17.8-59.1c-13.1,11.9-26.2,23.9-38.9,35.5
	c2.1-10.5,4.3-21.6,6.4-32.6c-63.6,67.1-123.6,135.5-133.8,232.8c-2-0.8-3.9-1.6-5.9-2.5c6.6-26.5,13-53,19.8-79.3
	c1.3-5.2,4.4-9.9,6.6-14.8c0.1-0.2-0.2-1-0.3-1c-0.7,0-1.4,0.2-2.2,0.4c6.2-9.8,12.5-19.6,18.5-29.5c8.1-13.5,15.1-27.7,24.2-40.5
	c17.5-24.4,36.3-47.9,54.2-72.1c9.6-12.9,15.2-26.9,13.6-44.1c-1.3-13.2-1.9-27.6,10.5-39.2c3.1,5.8,6,11,10.2,18.9
	c5.5-14.7,10.2-27.2,14.8-39.6c-2.6,19.5-7.6,38.4-12.1,57.3c-1.1,4.5,1.5,11.5-0.9,13.7c-16.7,15.1-8.8,33.3-9,51.4
	c26.4-16,40.9-37.3,40.2-67.4c-2-0.1-4-0.2-8.5-0.4c16.6-25.8,32.1-49.5,47.4-73.4c7-11,12-22.5,8.2-36.5
	c-26.6,7.1-48.2,20.2-62.7,43.9c2.2-6.4,4.5-12.9,7-20.1c-23,4.3-37.8,21.3-41.4,43.5c-1.7,10.3-4.1,21.6-10,29.8
	c-9.1,12.5-19.1,23.7-24.1,39.1c-4.6,14.1-11,27.7-25.8,36.4c-10.2,6-19.1,16.3-25.1,26.6c-17.6,30.7-33.5,62.4-50.1,93.7
	c7.3-17.7,14.7-35.3,21.8-53.1c7.6-19.1,15.5-38.2,22.1-57.7c1.9-5.5,0-12.2-0.1-18.4c-0.1-7.5,0-14.9,0-25.3
	c3.7,12.4,6.6,22.1,9.6,32.2c20.2-7.6,38.7-14.5,43.1-38.5c1.9-10.5,7.1-20.4,11.5-30.3c1.9-4.2,5.6-7.5,8.3-11.4
	c1.6-2.3,4.5-5.9,3.7-7.4c-6.6-12.6,4.5-18,9.3-26.5c-6.7,4.7-13.5,9.4-20.2,14c2-2.5,6.1-5.5,5.7-7.5c-3.5-16.3-7.8-32.4-12.1-49.4
	c-44.8,37.5-63,71-57.7,106c6.6-5.1,12.9-9.8,19.1-14.6C227.1,583.1,242.2,571.5,257.3,559.9z M352.9,423.5c-1.3-2.7-1.9-6.2-4-8.1
	c-8.8-7.8-18-15.3-27.2-22.7c-2.4-1.9-5.8-4-8.4-3.7c-13.6,1.8-32.1,23.4-31.5,37.3c1.1,26.2,2.9,52.5,4.7,78.7
	c0.5,7.3,1.8,14.5,2.8,21.9c2.2-0.6,3.3-0.6,3.7-1.1c17.1-25.5,34.1-51,51-76.7c1.4-2.2,2.7-7.1,2.1-7.5c-7.9-4.6-1-7,1.2-10
	c4.4,8.6,1.6,15.4-3.3,23.2c-10.7,16.9-20,34.8-29.9,52.3c0.9,0.6,1.9,1.1,2.8,1.7c18.9-14.2,34-31.6,42.6-54.3
	c9.5,10.4,20.9,13.3,24.9,5.8c12.1-22.6,22.6-45.9,22.2-71.7c-6.9,5.1-13.8,14.3-20.1,14C369.2,401.9,359.1,408.5,352.9,423.5z
	 M278.6,270.5c-0.3,6.8-0.8,13.6-0.9,20.5c-0.1,3.6,1.9,9.2,0.3,10.5c-16,12.6-4.1,28.5-8,45.2c12.1-7.7,21.3-14.2,31-19.5
	c9.1-5,8.6-10.6,3.6-18.2c-2.3-3.5-5.1-8.2-4.5-11.9c2.9-18.2,7.1-36.3,27.8-43.3c5.8-1.9,12-2.9,17.8-4.3
	c3.7,31.3,1.3,55.6-28.1,71c-12.9,6.8-25.9,20.3-30.6,33.7c-5.2,14.6-13.7,25.1-22.2,36.7c-2.8,3.9-2.9,9.8-4.2,14.8
	c1.4,0.8,2.9,1.6,4.3,2.3c16-15.5,31.9-31.1,48.1-46.3c7.9-7.5,9.9-15.6,5.9-25.9c-1.1-2.9-0.3-8.8,1.9-10.5
	c11.6-9,23.9-17.1,38.5-27.4c-8.2,12.6-14.3,22-20.4,31.3c0.6,0.4,1.2,0.8,1.8,1.2c28.4-34.3,56.8-68.5,85.8-103.5
	c-9.3,4.7-18.5,9.3-27.6,13.9c10.9-23.9,10.9-23.9,4.2-43.5c-3.4,1.5-6.7,2.9-10.8,4.7c0-4.9,0-9,0-12.5c-4.6-2.9-8.6-5.4-12.9-8
	c2.8-3.7,4.8-6.3,6.8-9c-20.5,11-40.7,22.3-42.5,49.4c3.2-0.8,6.1-1.5,12.3-3c-9.7,7.4-16.5,12.6-23.3,17.9
	c-11.5,8.9-22.9,17.8-34.2,27.1c-1.7,1.4-1.9,4.4-2.8,6.7c0.9,0.6,1.8,1.2,2.7,1.8c-4.1,2.7-8.2,5.4-11.9,7.8
	c0.8-5.8,1.6-11.5,2.5-17.2c4.4-4.4,9.9-8.1,13-13.2c14.1-23.7,27.5-47.8,41.6-72.6c-25.9,3.6-51.5,7.1-77,10.6
	c-0.1,1.1-0.2,2.2-0.3,3.3c5.2,4.3,10.4,8.5,16.2,13.2c-9.7,14.6-18.8,28.5-28,42.4c1.4,1.3,2.9,2.5,4.3,3.8
	c4.7-7.2,9.4-14.5,14.1-21.7c1.2,1,2.5,2.1,3.7,3.1c-0.5,9.5-1.5,19.1-1.4,28.6C275,263.7,277.4,267.1,278.6,270.5z M408.4,253.7
	c-13.5,18.2-24.7,33.1-35.7,48.1c-9.4,12.8-15.4,26.9-14,43c0.8,8.8-0.4,15.3-9.4,19.2c-2.2,1-5.1,6.4-4.5,7.3
	c7.1,9.1,11.4,21.8,26.4,22.6c9.4-14.6,18.5-29.1,27.9-43.4c9.3-14,18.9-27.6,28.5-41.6c-9.2,5.5-18.8,11.3-28.3,17.1
	c-1.3-0.5-2.6-1.1-4-1.6C417.5,304.5,409.6,280.6,408.4,253.7z M259.3,319.4c-1-1.2-2-2.4-3-3.7c-14.1,12-28.8,23.4-42,36.3
	c-9.7,9.6-17.4,21.3-26,32.1c-1.2,1.5-3.7,4.2-4.2,3.9c-11.8-7.2-10.5,5.1-13.9,9.5c-6,7.9-11.5,16.3-16.9,24.7
	c-7.1,11-13.9,22.1-21,33.5c27.4-2.6,45.6-17.8,61.8-36.2c16-18.1,31.9-36.1,47.9-54.2c0.6,0.5,1.3,0.9,1.9,1.4
	c-13.3,8.3-26.7,16.6-40,25c-0.6-3.1,0-4.7,1.1-5.6c10.5-8.7,19.8-17.8,19.4-33.1c-0.1-2.7,2.7-6,5-8
	C239.2,336.3,249.3,327.9,259.3,319.4z M532.3,544.9c-1.4-0.1-2.9-0.2-4.3-0.3c-3.5,28.9-7,57.8-10.6,87.1
	c20.3-0.6,28.4-18.2,20-35.4c-2.4-5-5.2-13.2-2.9-16.5C543.3,566.9,539.7,556.1,532.3,544.9z M261.3,428.1
	c-30.6,26.2-41.5,50.9-41.9,92.2c7.2-6.7,13.7-13.1,20.7-18.9c6.4-5.3,7-10.5,4.4-18.5c-2.2-6.7-2.2-15.5,0.3-22.1
	C248.9,449.4,255.6,439,261.3,428.1z M170.8,454.3c-13.7,2.2-20.3,9-23.4,21.7c-2.2,9.3-8.2,17.9-13.2,26.4
	c-3.5,6.1-8,11.5-12.4,17.8C136.4,519.8,157.8,490.6,170.8,454.3z M150.7,462.7c-1.2-0.8-2.4-1.6-3.7-2.4
	c-26.1,8.1-28.7,13.5-18.6,47.4C135.9,492.7,143.3,477.7,150.7,462.7z M515.4,209.1c15.6-14.1,19.7,2.9,28.8,7.4c4,2,8,4.1,14.8,7.5
	c-2.7-9.7-4.7-17-6.5-23.5c-7.4,0.4-13.3,0.8-18.8,1.1c-1.3-8-2.5-15.3-3.8-23C514.2,183.7,517.7,195.6,515.4,209.1z M326.2,354.2
	c-9.4,11.9-18.2,23-26.9,34c8.1-1.7,14.2-6.8,21.1-8.3C340.2,375.6,331.4,365.2,326.2,354.2z"/>
<path d="M613.1,469c-8.2-1.4-10.8-6.7-10.3-14.4c0.5-6.7,0.8-13.3,1.2-20c0.1-1.2,0.1-3.4,0.7-3.6c11.3-3.9,6.6-18.4,15.7-23.7
	c4.3,2.8,8.4,5.6,12.6,8.4c0.7-0.8,1.5-1.6,2.2-2.5c-6.4-7.2-12.9-14.4-19.7-22.1c5.9-11.1,11.9-22.5,18.3-34.6
	c4,2.3,7.8,4.5,12.4,7.2c2.1-3.8,4.2-7.6,6.9-12.6c-5.3-3.2-10.5-6.2-17.1-10.2c3.5-3.1,6.7-5.9,9.8-8.8c9.9-9.1,10.2-14.1,0.9-23.2
	c-5.1-5-10.7-9.3-15.7-14.3c-3.5-3.5-6.3-7.7-9.4-11.5c0.8-0.7,1.5-1.4,2.3-2c14.2,8.9,28.5,17.8,40.2,25.2c3-9.4,5.5-18.4,8.5-27.1
	c6.4-18.2,6.2-19.4-9.2-31.4c-3.8-2.9-7.8-5.5-11.6-8.3c1.1-1.2,2.3-2.5,3.4-3.7c4.1,2.5,8,5.4,12.3,7.4c4.4,2,9.3,3.2,15.1,5.1
	c1.4-7.7,2.6-14.5,4.1-22.9c-4.1,1.3-6.9,2.2-9.9,3.2c-3.9-18.3-0.4-34.1,11.2-48.1c9.1-10.1,18.2-20.2,27.3-30.3
	c10.8,12,20.6,5.3,30.8-1.2c3.8-2.4,8.7-3.2,13.8-2.4c-8.5,5.2-17,10.5-25.8,15.9c10.8,12.4,20.7,13.3,34.2,8.8
	c32-10.7,64.7-19.2,97-28.7c7.1-2.1,13.9-4.9,22.3-6.3c-2.1,1.7-4,3.9-6.4,4.9c-7.3,3.1-14.6,6-22.1,8.7
	c-15.6,5.6-16.3,6.9-11.5,23.8c-2.7-4.9-5.3-9.7-8.2-15.1c-8.6,3.7-16.8,7.2-25,10.7c5.1,16.1,20.1,24.9,29.9,18.6
	c3,10.3,19.5,17.1,32.9,13c7.4-2.3,14.4-5.5,22.6-6.1c-7.1,3.8-14.3,7.5-22.4,11.8c6.2,2.7,12,4.1,16.6,7.4c4.9,3.5,8.5,8.9,13,13
	c3.6,3.2,7.8,5.8,11.9,8.5c3.2,2.1,6.6,3.9,12.6,7.3c-41.7-2.4-33.6,2.9-34.7,21.5c-1.1-0.2-2.1-0.3-3.2-0.5
	c1.3-8.6,1.6-17.6,4.3-25.7c4.7-14.3,4.7-15.7-9.1-21.8c-18.1-8.1-18.1-8.1-40.5,9.7c2.1-5.7,3.6-9.7,5.6-15.1
	c-19.2-3-34.2,5.7-49.3,13.8c10.6-8.2,21.2-16.3,31.8-24.4c-5.7-3.8-13.6-7.8-19.9-13.6c-10.4-9.7-20.5-11.3-34-5.8
	c-8.1,3.3-15.6,10.9-27,6.4c-7.8-3-17.3-1.5-26.9-2c1,24.3,9,49.7-12,71.3c0.1,1.3,1.5,5.4,0.4,8.5c-5.9,16.6-11.1,33.7-19.3,49.2
	c-6.5,12.3-4.2,19.1,6.9,25c-18.9-6.1-20.7-5.6-23.8,7.5c3.7,1.3,7.5,2.7,12,4.3c-5.1,13.3-9.8,25.7-15.1,39.4
	c-5.4-4.2-11.1-8.7-14.6-11.5c-3.3,9.5-6.8,19.7-9.9,28.6c18.6,0,37.8,0.6,56.9-0.4c5.6-0.3,11.1-4.7,16.6-7.3
	c-0.3-0.9-0.6-1.8-1-2.7c2.2,0.9,4.3,1.8,3.7,1.5c-1.5-7.9-3.4-16.3-4.6-24.7c-1.3-9.3,0.9-19.6-8.5-26.3c1.9-1.6,5.4-3.4,5.3-4.9
	c-0.5-7-1.9-14-3-21c-2-12.2-1.5-23,7.5-33.6c8.8-10.3,14.3-23.3,21.9-34.7c2.1-3.2,6.4-5,10.3-8c-4.6-13.2,1.3-24.9,21.4-38.3
	c-0.7,4.8-1.7,9.2-1.7,13.5c-0.2,10,5.4,14.4,15.2,12.6c-0.7,2.5-2.9,6.1-2,7.3c8.5,11.6,16.4,24,26.8,33.7
	c9.6,8.9,22.3,14.5,33.2,22c8.8,6,16.9,9.7,25.9-0.5c-1.6,2.4-3.1,4.8-6,9.3c10.9,5.4,21.6,10.8,32.4,16c10,4.8,20,9.4,29.4,15.1
	c-30.6-5.3-55-24.1-84.9-32.8c10.8,9.9,21.6,19.7,32.5,29.6c-0.4,1-0.9,1.9-1.3,2.9c-11.3-8.4-20.5-23.3-38.9-13.2
	c16.9,27,43.4,43.8,67.3,64.6c-15.6,4.2-35-0.4-40.5,20.4c-13.8-10.4-27.4-20.6-40.9-30.7c-3,16.9,3.2,29.2,11.1,40.2
	c9.4,13.1,20.6,25,30.9,37.5c-6.8-5.1-13.7-10.2-20.6-15.3c0.2,19.9,2.2,22.4,21.2,26.2c-0.3-3.8-0.6-7.5-0.9-11.2
	c3.7,3.4,7.3,6.7,11.6,10.6c2.8-2.6,5.6-5.2,8.5-7.9c-2.4,8-6.7,15.9,3.3,21.7c11.3,6.5,23.7,5.2,31.9-4.2c0,5.8,0,10.7,0,17.8
	c-4.6,0-10.2,1.4-14.5-0.3c-10.9-4.2-12-3.9-12.5,10.3c-10.6-31.2-36.6-32.7-61.2-36.8c-1.1,1.4-2.3,2.9-3.4,4.3
	c9.2,10.6,18.3,21.1,28.1,32.4c-9.4,12.5-3.2,23.9,5.8,35.5c5-6.5,9.8-12.8,14.7-19.1c0.5,0.3,1.1,0.7,1.6,1c-2.3,7-5.6,13.8-6.7,21
	c-2.2,14.2-3.9,28.5-4.3,42.8c-0.2,6.8,1,13.4,11.1,16.7c6.8,2.2,10.3,13.7,15.7,20.8c14.9,19.7,30,39.3,44.9,59
	c8.4,11,16.6,22.2,23.2,34.6c-15.2-17.6-30.5-35.2-45.7-52.8c-1.3,0.9-2.6,1.7-3.9,2.6c5.6,12.9,11.1,25.8,16.7,38.7
	c-9.8-17-20.1-33.7-29.1-51.2c-6.6-12.9-11.4-26.7-17.1-40.1c-1.2,0.5-2.3,1-3.5,1.5c6,15.7,11.9,31.4,17.9,47.1
	c-0.9,0.4-1.8,0.7-2.6,1.1c-6.5-14.5-13-29.1-19.4-43.6c-1.6,16-1.4,31.3,0.6,46.3c1.3,9.4,5.3,18.5,8.1,27.8
	c0.2,2.5-0.4,5.6,0.8,7.3c19.8,28.4,40,56.5,59.6,85.1c10,14.5,19.1,29.6,35.3,38.1c5.5,2.9,11,5.7,16.5,8.5c-0.5,1.3-1,2.5-1.5,3.8
	c-6.9-3.3-13.8-6.5-21-9.9c3.4,28.5,6.8,56.3,10.2,84.1c-1.2,0.2-2.3,0.4-3.5,0.6c-1.5-7.3-3-14.5-4.6-21.8
	c-4.5-20.8-8.8-41.6-13.6-62.3c-0.8-3.4-3.1-6.9-5.6-9.5c-26.4-28.1-53.2-55.7-79.3-84c-9.3-10-17.6-21.1-25.3-32.4
	c-11.1-16.5-21.3-33.6-33.1-52.5c5.8,4.3,9.6,7.2,13.5,10c22.2,36.8,52.3,86.6,76.7,86.6c-9.2-8.2-18.4-14.1-24.4-22.3
	c-13.1-17.9-24.2-37.3-37.2-55.4c-3.1-4.3-10.2-5.8-15.4-8.6c0.1-2.7,1.4-6.7,0-8.1c-8.9-9.1-18.4-17.7-30-28.7
	c-1.5,7.6-2.4,12.1-3.3,16.6c0.5,0.2,1.1,0.3,1.6,0.5c0.8-2.1,1.5-4.2,3.3-9.1c0.5,6.1,1.3,9.6,0.9,12.9
	c-3.2,24.6,5.3,46.1,15.1,68.1c16.6,37.1,31.4,74.9,47.6,114.1c4.4-4.9,8.8-9.8,14.3-16c-1.3,12.7-18.1,20.4-6.6,34.4
	c-1.3,0.5-2.5,1.1-3.8,1.6c-12.6-15.4-25.2-30.9-37.9-46.3c7.5,6.5,14.9,13,22.4,19.5c-13.3-51.7-42.4-95.3-65.8-143.5
	c-7,9.9-12.3,17.1-18.1,25.3c-11.8-20.4-23-39.9-34.3-59.4c-1.1,0.7-2.2,1.4-3.4,2.1c10.9,19.2,21.1,38.8,32.8,57.5
	c11.6,18.6,24.6,36.3,36.8,54.6c8.6,13,16.8,26.4,25.2,39.6c-0.8,1.4-2.6,3-2.4,4.1c7.3,29,14.8,58,22.2,87c0.2,0.7-0.2,1.6-1.5,2.9
	c-13.1-51.6-26.1-103.2-63.8-144.1c-7.8,11.2-1.3,25.1,18.7,36.9c-7.5-1.3-11.7-3.1-15.3-2.3c-4.1,0.9-7.7,4.2-11.3,6.3
	c6.8-27.8-5.5-49.3-24-69.2c-1.7,18.4-8.3,37,3.7,55c-21.2-16.4-24.7-43.5-39-63.7c-18.5,6.8-18.7,7.3-13.9,24.7
	c1.5,5.6,2.7,11.3,4,16.9l0.3-0.2c-1.9-1.3-3.8-2.5-6.3-4.2c0.2,3.2,0.3,6,0.4,8.7c0.1,2.4,0,4.7,0,9.8c-8.7-19.3-4.4-40.3-19.2-55
	c9.3-1.3,19-3.3,28.7-3.6c3.9-0.1,9.2,2.6,11.7,5.8c6.8,8.8,12.4,18.5,19.2,28.9c3.4-16.8,6.2-31.3-9.1-43.9
	c-11.7-9.6-21-22.2-31.2-33.4c-14.3,8.5-17.5-6-25-10.9c5.4,2.6,10.7,5.2,19.9,9.7c-1-11.2,0.3-20.6-3.3-27.6
	c-2.7-5.3-11.5-7.5-18.5-11.6c3.6-2.7,8.1-6.1,12.4-9.4c4,6.8,7.1,11.9,10.8,18.1c4.7-15.6-2-31.7,8.9-43
	c-2.9-12.1-5.8-24.2-8.8-36.2c1.1-0.5,2.1-0.9,3.2-1.4c4.6,5.6,8.5,12.1,14,16.6c6.7,5.5,14.7,9.7,22.4,13.9
	c22.3,12.2,30.8,29.5,23,54.6c-1.2,3.9,1.7,11.6,5.1,13.8c8.3,5.3,18.1,8.5,30.1,13.7c-4-17.9-7.3-33.3-11.1-48.5
	c-1-4-3.1-8.6-6.2-11.1c-27.4-22.5-55-44.8-83-66.4c-4.4-3.4-11.6-3-17.5-4.3c-0.7-0.2-1.4-0.6-2.6-1.1c1.3-2.8,2.5-5.5,4.1-8.8
	c-5.5-2.6-10.3-4.9-16.8-8c0.9,5.5,1.5,8.9,2.3,13.2c-3-1.3-5-2.2-9.5-4.2c-0.9,13.9-1.7,26.5-2.6,39c-0.4,0-0.9,0-1.3,0
	c-1.4-6.9-2.7-13.9-4.1-20.8c-1.1-0.1-2.2-0.3-3.2-0.4c-5.1,8.3-10.2,16.6-14.8,24.1c4.6,7.4,8.6,13.9,12.6,20.3
	c-0.7,0.4-1.3,0.9-2,1.3c-3-3.7-6-7.3-9.3-11.4c-7.7,3.7-15,7.3-22.6,10.9c2.3,7.6,4.3,14,6.2,20.3c-9.6-5.7-13.9-14.2-13.8-25.2
	c5.8-1.5,11.2-2.4,16.3-4.4c6.6-2.6,7.8-7.2,5.2-14.1c-4-10.7-6.6-22-7.4-33.9c4.2,9.9,8.3,19.9,12.4,29.5
	c18.4-15.7,22.4-35.2,13.5-55.9c-2.7-6.3-13.1-9.9-20.6-13.3c-5.4-2.5-11.9-2.7-17.9-6.4c5.5,0,11.1,0,18.3,0
	c-3.6-4.1-6.3-7.3-9-10.5c24.8,6.1,40.8,26,61.5,39.4c-6.4-14.4-14.6-27.4-21.2-41.1c-4.3-8.9-11.4-10-19.1-10
	c-7,0-14.1,1.6-20.9,3.2C613.9,462.3,613.7,466.6,613.1,469z M787.7,366.8c0.1-1.2,0.3-2.5,0.4-3.7c3.9,0.3,8-0.2,11.6,1.1
	c18.9,6.9,37.6,14.3,57.8,22.1c2.8-2.7,7-6.6,9.8-9.3c-7-30.1-33.6-37.6-57.7-52.6c8.3,0.7,12.7,1.1,17,1.5
	c-8.3-8.7,1.4-31.7-18.8-27.1c-8.7-13.1-16.8-25.1-25.4-38c4,0,7.3,0,13,0c-6.4-10-11.7-18.2-17-26.5c-1.7,0.6-3.4,1.2-5.1,1.8
	c2.2,16.7,4.4,33.5,6.9,51.8c-3.7-2.7-6-4.3-8.3-6c-1,0.4-2,0.9-3,1.3c1.8,9.3,3.6,18.7,5.3,27.1c0.7,0.2-1.7-0.5-7.8-2.3
	c2.7,9.4,4,16.5,6.8,22.9c4.6,11.1,10.2,21.8,15.3,32.7c-2.9-2.6-6.1-4.9-8.6-7.8c-3.9-4.4-7.3-9.2-10.9-13.9
	c-3,19.9-10.7,38.4-3.5,58.6c11.6-7.8,13.7-14.9,1.6-23.5c8-3.9,14.4-7.2,20.9-10.4c0.2,6.4-2.2,16.2,1,18.6
	c11.9,9.1,8.8,22.2,12.1,33.5c7.2,24.3,8.7,33.4,42.6,36.9c-9.4-21.8-16.6-43-27.5-62.2C810,382.4,803.1,369.2,787.7,366.8z
	 M771.4,515.9c-1.8,9.3-3.5,17.5-4.9,25.7c-4.4,24.3,10.3,51.9,31.9,61.7c6.2,2.8,12.1,7.1,17.1,11.8c15.2,14.4,29.8,29.3,44.6,44
	c1.5,1.5,3.3,3.5,3.5,5.4c1.2,9.3,4.3,13.2,17.4,18c-6.8-41-13.4-80.4-20.3-121.9c1.6-3.1,4.3-8.6,5.5-11
	c-7.3-13.9-13.8-25.2-19.2-37c-2-4.4,0.2-11.4-2.5-14.8c-18.5-23.7-37.9-46.8-57-70.1c-1,0.2-2,0.3-3.1,0.5c0,14.6,0,29.2,0,43.9
	c-0.6-0.1-1.2-0.3-1.8-0.4c-5.5-12.8-11-25.6-16.5-38.4c-1.8,0.6-3.7,1.2-5.5,1.7c2.4,19.2,3.4,38.6,7.4,57.4
	c6.4,30.2,30.4,48.8,49.7,70.6c-5.7-2.6-10.4-6.4-15.5-9.5c-2.9-1.8-6.6-2.2-10-3.3c-0.5,3.5-1.7,7-1.5,10.4
	c0.4,5.8,1.9,11.5,2.8,17.3c0.8,5.2,1.3,10.5,2,15.7C783.1,569,790.4,539.3,771.4,515.9z M709.9,471.1c-0.9-0.4-1.9-0.8-2.8-1.1
	c-4.3,4.9-8.6,9.8-12.8,14.7c-0.6-0.4-1.2-0.8-1.8-1.2c5.5-14.1,11.1-28.3,17.7-45.3c-9.6,1.6-16.5,2.8-23.4,3.9
	c1.7-3.4,3.5-6.8,5.2-10.3c-0.5-0.4-1-0.7-1.5-1.1c-11.2,9.1-22.4,18.1-35.6,28.8c10.5,17.1,22.2,36.2,34,55.4
	c1.3-0.1,2.6-0.3,3.9-0.4C698.5,500,704.2,485.6,709.9,471.1z M695.5,523.7c0.1,1.4,0.2,2.8,0.3,4.2c5.7,0.7,14.6,4,16.5,1.6
	c5.3-6.6,7.8-15.5,11.3-23.5c-0.9-0.4-1.7-0.8-2.6-1.2C712.6,511.1,704,517.4,695.5,523.7z M769.9,656.6c-0.9,0.6-1.7,1.3-2.6,1.9
	c3,8.3,6,16.5,9.4,25.7c5.4-4.5,9.6-8,15.2-12.6C783.2,665.7,776.6,661.2,769.9,656.6z M836.2,302c-0.8,1.3-1.6,2.6-2.3,3.9
	c2.5,8.6,6.2,14.8,18.8,7C846.4,308.8,841.3,305.4,836.2,302z"/>
<path d="M715.4,150.2c-9.1,10.1-18.2,20.2-27.3,30.3c-4.2,2.5-8.4,5.1-13.9,8.4c-5.8-24.7-26.3-20.8-44.4-21.9
	c-6.1-0.4-12.1-1-18-4.2c26.8,0,53.5,0,80.7,0c-9.3-6.7-17.5-12.6-26.4-19c3.2-1.6,6.1-3.1,8.9-4.5c0-0.8-0.1-1.6-0.1-2.4
	c-11.5-1.4-23-2.7-34.5-4.1c0-0.6,0-1.3,0.1-1.9c10.7,0,21.5,0,33,0c0-6.6,0-12.3,0-19.3c11.4,2.4,17.2,18.2,31.4,10.3
	c10-5.5,21.5-8.3,33.4-9.7c-12.4,5.8-24.7,11.6-37.1,17.4C706.7,137.5,711,143.8,715.4,150.2z"/>
<path d="M203,142c-21.6,17-43.1,34.1-64.7,51.1c0.4,0.6,0.7,1.2,1.1,1.7c8.3-2.4,16.5-4.8,24.8-7.1c0.3,0.5,0.6,1.1,1,1.6
	c-7.9,6.8-14.9,15.7-24,19.7c-8.7,3.8-19.7,2-29.6,3.4c-6.4,0.9-12.7,3.1-19.8,3.3c13-7.3,26.1-14.7,39.1-22c0-1.1-0.1-2.1-0.1-3.2
	c-11.5-2-23-4-34.4-6c-4.9,9.1-9.1,17.1-13.4,25c-0.9-0.4-1.9-0.7-2.8-1.1c2.3-6.6,4.5-13.1,7.4-21.5c-10.2-6-21.3-12.6-32.4-19.2
	c0.3-0.8,0.5-1.5,0.8-2.3c2.8,1.2,5.8,2.1,8.5,3.5c5.2,2.7,9.9,7,15.4,8.1c12.2,2.5,25.1,2.4,37.1,5.4c13.4,3.3,24.7,3.9,35.2-7.4
	c6.7-7.2,15.6-12.5,23.8-18.2c8.2-5.7,16.6-11,25-16.5C201.6,140.8,202.3,141.4,203,142z"/>
<path d="M145.7,786.2c-2.3,9.9-4.6,19.8-7.4,31.7c10.5-9.2,19.7-17.3,28.8-25.3c-16.4,19.1-32.8,38.1-49.5,57.6
	c2.2-9,6.2-16.7,5.1-23.6c-1.2-7.1-7.4-13.4-9.8-21.3c5.9,7.3,11.9,14.6,16.1,19.8C134.5,812.3,140.1,799.3,145.7,786.2z"/>
<path d="M158.9,229.1c4.9-6.4,9.8-12.7,16-20.8c-7.8-1-13.6-1.7-19.8-2.5c6.4-8.2,6.4-8.2,48.5-10c-16,12.8-29.7,23.7-43.4,34.6
	C159.8,230,159.4,229.6,158.9,229.1z"/>
<path d="M177.6,328.5c-11.6,13.1-20.9,29.5-41.3,31.4C141.2,338.1,161.4,335.9,177.6,328.5z"/>
<path d="M413.9,656.8c9-5.6,18-11.1,27-16.7c1.2,1.4,2.2,1.9,2.2,2.5c1.3,17.4,2.7,34.5,26.1,35.6c0.7,0,1.4,0.9,1.9,1.6
	c0.4,0.6,0.5,1.5,1.2,3.9c-12.9-3.4-26.5-15.5-37.3,3.3c10.6-13.2,8.1-26.5,3.5-40.2c-8.4,3.6-16.3,6.9-24.2,10.3
	C414.3,657.2,413.9,656.8,413.9,656.8z"/>
<path d="M622.8,93.6c-11.5,30.3-13.2,32.8-22.7,33.1C598.3,109.2,606.9,98.9,622.8,93.6z"/>
<path d="M652.6,634.5c5.8,4.3,10.7,10.7,19.8,6.6c1.2-0.5,5.4,5.6,8.2,8.7c-1.8,1.4-5.2,2.8-5.2,4.3c-0.1,3.5,1.3,7,1,10.9
	c-2-3.5-4.1-7-6.9-11.7c-1.7,3-2.8,5.1-4.5,8.1C660.6,652,656.6,643.2,652.6,634.5z"/>
<path d="M136,350.7c-12.9,13.8-25.9,27.6-38.8,41.5c-1.2-1.1-2.4-2.2-3.6-3.3c12.7-14,25.4-28.1,38.1-42.1
	C133.1,348.1,134.6,349.4,136,350.7z"/>
<path d="M710.6,747.3c6,11.3,12,22.6,16.4,31c-1.8,11.7-3.3,21.1-5.1,32.4c-3.9-22.4-7.5-43-11.1-63.6
	C710.8,747.1,710.6,747.3,710.6,747.3z"/>
<path d="M901.5,563.1c8.6,11.5,17.3,23.2,26.7,35.9c-10-4.7-19.2-9.1-28.8-13.7C912.1,579.1,900.4,569.4,901.5,563.1z"/>
<path d="M283.2,759.6c-1.1,16.5-2.2,32.9-3.3,49.4c-1.1-0.1-2.2-0.2-3.3-0.3c0.4-16.5-8.3-33.9,6.8-48.8
	C283.5,759.8,283.2,759.6,283.2,759.6z"/>
<path d="M384.8,622.5c-0.4-4.8-0.8-9.7-1.2-15.2c-6.7,2.3-12.8,4.4-18.8,6.5c-0.4-0.9-0.7-1.9-1.1-2.8c7.5-3,14.9-6,23.1-9.3
	c-0.4,7.3-0.7,14.1-1.1,20.8C385.5,622.5,385.2,622.5,384.8,622.5z"/>
</svg>
