<?xml version="1.0" encoding="utf-8"?>
<!-- Generator: Adobe Illustrator 21.0.0, SVG Export Plug-In . SVG Version: 6.00 Build 0)  -->
<svg version="1.1" xmlns="http://www.w3.org/2000/svg" xmlns:xlink="http://www.w3.org/1999/xlink" x="0px" y="0px"
	 viewBox="0 0 1000 1000" style="enable-background:new 0 0 1000 1000;" xml:space="preserve">
<g id="Layer_2">
</g>
<g id="Layer_1">
	<g>
		<path d="M747.3,563.8c-7.1,6.1-14.2,12.2-18.6,16c3.5,9.5,5.7,15.5,7.9,21.6c-0.9,0.4-1.8,0.7-2.6,1.1c-1.2-2-2.3-4.1-3.9-6.8
			c-4.7,12.9-9.1,24.8-13.4,36.6c1.2,0.5,2.4,0.9,3.5,1.4c-3.5,2.3-7.1,4.7-10.6,7c-1.2-0.5-2.5-0.9-3.7-1.4
			c4.7-25.5,9.4-51,14.4-77.8c0.4,0.1-2.8-0.9-3.4-1.1c0-10.6,0-20,0-31.4c-0.3,0.2,2.7-1.7,6.1-3.9c-2.2-0.7-3.9-1.3-9-2.9
			c7.3-3.6,12.3-6.2,17.7-8.9c-1.8-2.6-4.1-6-5.2-7.6c-4.5,0.3-8.5,0.5-12.7,0.8c-1.3,3-3.2,7.3-5,11.7c-0.6-0.1-1.2-0.2-1.8-0.3
			c0-3.1,0-6.2,0-11.3c-5.5,1.2-10.3,2.3-16.3,3.6c-0.1-0.1-2.9-5.5-3.9-5.2c-7.5,2.3-14.6,5.8-21.9,8.9c0.4,1.2,0.9,2.4,1.3,3.5
			c5.7-0.7,11.3-1.4,21.3-2.7c-3.3,11.1-6.6,19.9-8.3,28.9c-0.7,3.6,2.4,11.3,3.3,11.2c17.1-1.7,10.2,10.7,9.9,17.7
			c-0.2,4.5-4.1,8.9-6.6,13.8c2.5,0.9,4.8,1.8,6.1,2.3c0.8,11.3,1.5,21.9,2.3,34.2c-0.7,0.1,1.5-0.1,3.9-0.3c0.1,0.6,0.8,2,0.5,2.3
			c-9.6,8.2,0.7,17.2-1,25.8c-0.2,1.1,4.2,3,4,4.3c-3.1,22.9,6.3,43.4,11.6,64.9c3.4,14,3.2,28.8,1.9,43.3c-2.5-8.6-5.6-17-7.5-25.8
			c-1.8-8.3-2.4-17-3.6-26.1c-1.7,2.1-2.9,3.6-4,5c-3.4-12-7.7-23.6-9.9-35.6c-1.7-9.5-8.4-18.1-5.8-28.8c0.4-1.8-5-5-7.5-7.4
			c1.6-2.7,3.6-6.4,6.3-11.1c-3.5,0.6-5.4,0.9-7.8,1.3c0-4.8,12.2-13.3-3.8-12.7c1.9-3.1,3.8-6,6.6-10.5c-4.6,0.6-7.4,1-10.8,1.5
			c2.9-3.9,5.3-7.1,9.5-12.6c-6.2,0.7-9.3,1.1-12.4,1.5c-0.6-0.8-1.3-1.7-1.9-2.5c2.1-1.3,4.2-2.6,7.6-4.7
			c-4.8-0.8-8.7-1.4-13.8-2.3c5-6.7,9.1-12.3,13.8-18.7c-10.5-1.2-10.7-2.1-8.5-9c0.8-2.4-1.8-5.9-3-9.5c0.8-1.9,2.4-5.7,3.9-9.4
			c-2-0.6-4.7-2.3-5.9-1.6c-3.8,2.3-7,5.6-12.1,9.9c0.7-5.7,1.1-8.4,1.8-13.6c-13.2,21.1-13.2,21.1-2.9,35.6c-5.4,0.5-10.2,1-14,1.4
			c-1.7,9-3.3,17.8-5.2,28.3c-0.5-0.4,1.6,1.3,3.5,2.8c-2.2,4.5-5.1,8.9-6.8,13.7c-3.7,10.4-6.8,21-10.1,31.5
			c-0.1,0.3,0.7,1,0.6,1.2c-10.4,15.8-9.1,32.2-5.3,50.1c1.7,8.1-4.5,17.9-6.9,26.4c-5-24.3-10.2-49.9-15.5-75.5
			c-1.1,0.1-2.2,0.3-3.4,0.4c2.2-2.8,4.4-5.7,7.2-9.2c-3.5-3.2-7-6.5-12.2-11.3c0.3-0.6,2-4.6,2.6-5.9c-3.8-7.4-6.7-13.3-10.3-20.4
			c1.1-0.1-1,0.1-3.3,0.4c1.1-9.1,2.2-17.9,3.4-27.9c-0.6-0.1-3.5-0.4-7.5-0.8c2.3-2.1,4.1-3.7,6.9-6.3c-5.1-0.5-9.5-0.9-14.6-1.3
			c-0.4-3.4-0.9-7-1.3-10.5c3-3.4,6-6.8,9-10.1c-1.2-8.8-2.6-18.7-4-28.6c-4.1,2.7-7.4,6.4-6.6,8.7c3.3,9.7,0,13-9.6,13.7
			c-3.1,0.2-5.9,4.5-8.6,6.7c6.1,4,10.3,6.7,14.5,9.4c-5.1-1-10.3-1.9-16.3-3.1c2.7,6.5,4.7,11.4,6.7,16.3c-2.7,0.5-5.3,1.1-8.4,1.7
			c4.5,3.1,8.4,5.7,12.2,8.4c-12.7-1.6-19.4,1.6-17.8,15.9c0.5,4.3-3.8,8.9-4.8,13.6c-0.5,2.2,1.5,4.9,2,6.1c-3,5.9-7,11.9-9.1,18.5
			c-4.9,15.1-5.5,30.4-1.3,46.2c1.2,4.4-5.1,10.7-8.3,16.7c-11.2-7.1-8.3-15.7-8.2-24.3c0.1-17.3-1-34.7-2.2-52
			c-0.1-2-4.5-3.5-6.5-5.7c-0.5-0.5,0.8-2.7,1.4-4.7c-1.8-0.4-4.5-0.9-7.7-1.6c5.8-10.1,10-19.5-6.4-22.3c6.1-10.8,1.1-25-5.8-26.7
			c-2.6-17.5-11.9-34.5-2.1-50.8c-6.2-5.3-11.8-10.1-18-15.5c2.4-3,5.6-7,8.7-11.1c-1.1,1.4-2.3,2.8-3.4,4.3
			c-3.2-5.3-6.5-10.6-9.6-15.6c3.8-5.2,6.6-9.1,9.9-13.7c-6.4-2.8-11.2-4.9-15.9-7.1c0.3-0.9,0.5-1.8,0.8-2.8c3.1,0.3,6.2,0.7,9.3,1
			c0.2-0.9,0.5-1.7,0.7-2.6c-3.8-1.4-7.5-2.9-11.8-4.5c5.6-2.6,10.9-5.1,17.5-8.2c-3.7-0.9-5.8-1.4-8.2-2c0.4-0.7,0.6-1.5,1-1.7
			c3.4-1.8,9.2-2.8,9.9-5.2c2.1-7.6,2.1-15.7,3.3-23.6c0.1-0.9,2.4-1.3,3.3-2.3c1.7-2,4.5-4.4,4.2-6.4c-0.8-7.9-2.6-15.6-4.1-23.6
			c2.7-0.1,7.3-0.4,13-0.6c-3-3.8-5.4-7-8.8-11.4c4.1-3.3,8.2-6.5,12-9.5c-1.9-1.8-4.8-4.6-6.2-5.8c7.2-9.2,14-17.8,23.1-29.4
			c-12.3-1.2-20-2-27.7-2.8c-0.1-1.1-0.3-2.2-0.4-3.3c6.2-1.4,12.5-2.2,18.5-4.3c3.4-1.2,6.1-4.3,9.1-6.6c-2.8-2.1-5.5-4.2-8.6-6.5
			c21-6.4,3.4-26.1,11.4-39.2c2.6,4.2,4.5,7.2,6.4,10.2c1.2,0,2.4-0.1,3.5-0.1c0.6-8.6,1.2-17.1,1.8-25.7c1.2,0.1,2.5,0.2,3.7,0.3
			c-0.8,9.2,7.9,18.2-2.8,28c-2.7,2.5-2.1,10.1-1,14.8c2.1,9.3,5.6,18.3,9.5,26.5c0.6,8.8,1.1,17.6,1.7,27.3
			c3.5-0.3,7.2-0.7,11.9-1.1c-0.2,1.5-0.1,2.6-0.5,3.4c-2,4.9-6.7,10.4-5.7,14.5c2,8.3,6.3,16.3,11,23.5c4.1,6.2,5,5.6-0.3,15.2
			c4.5,5.6,8.9,11.1,13.6,17c-4.3,1.1-7.6,1.9-11,2.8c0.6,1.7,0.9,3.2,1.2,3.2c3.9,0,8.2,0.8,11.7-0.5c3.3-1.3,5.7-4.8,10.2-8.8
			c-0.2-0.4-2-4-4.5-8.9c3.9,0.4,6.1,0.6,10.8,1.1c-4.2-3.5-6.7-5.6-10.2-8.5c3.9-0.9,6.7-1.5,10.3-2.4c-3.7-2.3-6.8-4.2-11-6.8
			c2.8-1.8,5-3.2,7.1-4.6c-1.7-1.5-3.7-3.3-5.7-5.1c2.6-5.3,19.9,8.4,10.4-9.5c3.2,0.8,5.1,1.3,7,1.8c0.3-0.6,0.6-1.3,0.8-1.9
			c-4.1-3.3-8.3-6.5-11.3-8.9c4.4-1.6,10.5-2.1,13.4-5.4c6.1-6.9,4-12.8-8-14.8c5.7-4.7,10-8.2,17.3-14.2c-4.1-1.6-7.8-3-11.5-4.5
			c0.7-0.9,1.3-1.8,2-2.7c3.8,0.7,7.5,1.3,13.8,2.4c-3.6-7.1-9.8-13.8-8.5-18.2c1.5-4.9,9.8-7.8,15.9-12.1
			c-4.8-4.9,2.4-17.4-11.5-16.9c0-1.5-0.1-2.9,0.1-4.3c0.1-0.3,2.1-0.5,2.9-0.1c7.1,3.7,13,8.1,14.4,17.2c0.6,3.9,4.2,7.4,7.7,13.2
			c-4,10.6-0.8,16.8,15.4,20.8c-3.7,4.5-6.8,8.1-11.2,13.4c6,0,10.4,0,17.9,0c-4.5,5.5-7.3,8.9-10.3,12.6
			c3.4,6.7,16.4,10.4,8.4,22.5c-0.3,0.4-4.6,12.4,6.8,12.8c2.1,0.1,3.8,11.2,6,18.3c3.9-1.2,9.6-2.9,20-6c-6-2.2-9.6-3.6-13.2-4.9
			c0.8-1.1,1.6-2.2,2.4-3.3c3.4,0.4,6.7,0.7,10.1,1.1c0.4-0.8,0.8-1.7,1.2-2.5c-4.5-3.2-8.9-6.5-15.8-11.5c9.2-1.1,16.1-1.9,26-3
			c-5.7-3.9-9.1-6.2-15.1-10.3c7.1,0,11.7,0,14.6,0c3.3-12.9,6.6-25.3,9.7-37.7c0.7-2.8,1.3-6,0.8-8.8c-1.5-10.5,2.1-18.4,10.8-24.3
			l-0.4-0.4c1.6,7,4.1,14,4.7,21.2c0.7,8.8,4.5,11.4,16,7.7c-10.7,11.2,14.3,20.9-5.2,30.3c8.3,0.5,15,1,24.6,1.6
			c-5.9,4.4,2.3,18.3-12.8,11.7c-0.5-0.2-4.3,7.1-8.1,13.4c7.3-1.2,11-1.8,12-2c2.5,5.8,7.8,12.4,6.2,15.2c-4.8,8.7-1.4,10.6,8,10.5
			c-4.6,5-7.9,8.7-11.6,12.8c5.4,1.7,10.7,3.4,19.2,6.1c-7.2,5.4-11,8.3-13.4,10.1c4.5,6,8.5,11.3,13.9,18.6
			c6.1-2.2,7.1-9.6,6.5-16.6c-0.5-5.9-5.8-12.6,5.4-13.9c0.4-0.1,0.3-4.9,0.6-10.4c0.4,0.3-2.3-1.8-3.8-3.1c2.1-8.3,4-15.5,5.8-22.8
			c-1.2-0.5-2.4-0.9-3.7-1.4c2.7-0.5,5.3-0.9,6-1.1c1.7-6.4,3.2-11.7,4.9-18.2c0.2,0.1,2.5,0.8,5.1,1.7c0.6-6.7,1.1-13.2,1.7-19.5
			c14.1-21.2,16.8-44.1,9.4-68.7c1.2-0.1,2.5-0.3,3.7-0.4c0.7,3.8,1.5,7.6,2.6,13.4c3.5-5,6.5-9.3,9.5-13.5c1.4,0.7,2.8,1.4,4.2,2
			c-1.2,5-3.7,10.2-3.3,15.1c0.9,10.5,0.6,22.5,5.7,30.9c6.1,9.9,7.1,18,1.4,30.3c6.6-1.8,11.6-3.1,19.8-5.4
			c-4.8,7-8.1,11.9-10.8,15.8c3.9,7.7,7.5,14.9,12.2,24.3c-4,4.6-10.9,12.1,1.2,20.2c0.7,0.5-3.5,8.4-6.7,15.7
			c11-5,19.3-8.8,27.7-12.6c-0.1-0.8-0.3-1.7-0.4-2.5c-4.5-0.4-9.1-0.7-13.6-1.1c-0.4-0.8-0.7-1.6-1.1-2.5c7.5-4.3,15-8.7,24.2-13.9
			c-6.6-3.1-12-5.6-18.3-8.6c4.6-5.7,18.7-6.8,8.9-18.4c-0.4-0.5,4.1-5,5.9-7.8c1.4-2.1,2.8-4.4,3.1-6.8c0.6-6-2.7-13.6,8.1-14.4
			c1.2-0.1,1.6-7.5,2.9-11.3c2.6-7.8,5.5-15.4,7.1-19.6c-4.9-9-8.9-16.4-12.8-23.7c1.1-0.7,2.2-1.3,3.3-2c4,4.5,7.9,9.1,11.8,13.5
			c3.4-11.9,6.5-22.7,9.5-33.6c1.9,0.6,3.8,1.3,5.6,1.9c-2.1,4.2-5,8.3-6.1,12.8c-1.6,6.5-4.2,14.3-2.1,19.8
			c3.9,10.1,10.4,19.3,16.9,28.1c5.1,6.9,12.1,12.4,17.5,19.1c1.2,1.5-0.8,5.5-1.4,8.8c3.7-1.3,6.8-2.5,12.2-4.4
			c-4.3,6.1-7.2,10.2-10.1,14.4c0.8,0.9,1.5,1.8,2.3,2.6c4.8-3.5,9.6-6.9,14.3-10.3c0,3,0,7.7,0,12.4c-0.8,0.9-1.6,1.7-2.3,2.6
			c0,1.1,0,2.3,0,3.4c0.8,0.8,1.6,1.6,2.3,2.4c1.1-0.7,2.2-1.5,3.2-2.2l-0.3-0.9c3.1,5.8,6.3,11.6,10.3,18.9c-1.3,1.6-3.8,4.8-4.8,6
			c5.3,3,12.1,4.9,15.3,9.3c3.6,5,4.1,12.4,5.9,18.9c17.4-6.2,8.1,26,27.5,21.4c-4.4,5.6-7.1,9-9.7,12.3c-2.6-5.5-5.2-11-8-17
			c-3.7,1-7.6,2.1-10.3,2.9c-8.2-8.1-15.7-15.5-24.7-24.4c0.3,5.2,0.4,7.3,0.5,9.3c-1,0.4-2.1,0.7-3.1,1.1
			c-9.4-19.3-18.8-38.7-28.1-57.9c-3.1,0.9-5.5,1.6-8.5,2.4c1.8-3.8,3.2-6.7,5.5-11.5c-4.9,1.4-7.7,2.3-11.3,3.3
			c2-3.9,3.5-6.7,5.5-10.5c-3.4,0.9-5.3,1.4-7.8,2.1c1.4-4.6,2.6-8.2,3.7-11.8c-1.9-0.8-3.8-1.6-5.6-2.4c-3.3,6.8-6.6,13.6-9.8,20.5
			c-0.7,1.4-0.7,3.1-1.2,4.6c-2.5,7.8-5.2,15.6-7.7,23.4c-1.1,3.3-1.9,6.7-2.7,10.1c-1.1,4.8-1.9,9.6-2.9,14.4
			c1.3,0.4,2.7,0.8,4,1.2c-2.6,0.6-5.1,1.3-7.9,1.9c2.8,2.2,5.5,4.3,8.7,6.8c-4.3,0.4-7.7,0.7-8.8,0.8c-3,17.3-11.9,37,14.4,43
			c0.7-3.2,1.2-6.2,1.9-9.3c6.7,2,12.6,4.4,18.8,5.4c4,0.6,11.3,0.3,12.1-1.6c2.2-5.4,1.8-11.9,2.8-21c6.4,6.8,10.8,11.4,15.1,15.9
			c0.5-0.7,2.4-3.4,3.2-4.4c3.8,1.7,6.8,3,8.8,3.9c0.8-4.3,0.3-9.1,2.5-11c2-1.8,6.9-1.4,10.1-0.5c10.5,2.9,20.9,6.4,31.3,9.7
			c0,7.5,0,15.1,0,23c-9.1,0.8-14.6,13.1-9.7,26.5c-10.6,6-15.4,13.8-6.5,26.3c-4.9,2.7-9.4,5.1-13.9,7.8c-1.4,0.8-3.7,2.8-3.4,3.3
			c4.8,10.7-8.1,12.5-10,20.7c3.3,0.5,6.5,1,9.7,1.5c0.1,0.5,0.1,1,0.2,1.5c-4,0.4-8,0.8-12,1.2c-6.8,17.6-6.8,17.6-1.4,23.9
			c-2,4.1-3.6,7.3-5.4,11c-2-0.1-6.3-0.4-13.6-0.9c7.5,7.7,12.3,12.7,17.1,17.7c-0.7,1-1.4,2-2.1,3.1c-3.7-0.6-7.4-1.2-14.1-2.3
			c4.8,3.5,7.5,5.5,10.2,7.4c-13.4,0.6-15,1.3-8.8,25.9c-3.8-5.3-6.1-8.4-9.8-13.6c-1.9,10.1-2,18.6-5.1,25.9
			c-3.2,7.7-9.2,14.2-14.4,21.7c3.7,1.3,5.8,2,7.9,2.7c-7.8,5.9-10.5,12.3-7.5,22.9c4.7,16.7,6.7,34.1,10,52.6
			c-4-3.2-6.6-5.2-11.6-9.2c-2.9,15-5.4,27.8-7.9,40.6c-0.3,0-0.6,0.1-0.9,0.1c0-8.8,1.4-17.9-0.4-26.3
			c-2.2-10.5-10.8-14.8-22.1-14.2c4.7-21.3,17.9-39.8,15-64c-0.5-0.4-2.9-2.1-4.6-3.4c1.4-6.8,2.6-12.8,4-19.8
			c-4.9,2-9.9,4-18.7,7.6c4.9-10.7,8.2-18.1,11.7-25.9c-5.8,0-11.5,0-19.5,0c6.3-7.1,11.8-13.3,19.3-21.7
			c-5.1-3.6-11.9-8.5-19.3-13.8c2.9-2.3,7.5-5.9,14.2-11.2c-5.6,0-9.1,0-15.1,0c4.6-4.2,7.3-6.6,9.9-9.1c-0.9-0.3-1.9-0.5-2.8-0.8
			c0.9-3.1,1.8-6.2,2.7-9.6c-1.9,0.3-3.8,0.6-5.8,0.9c0.8-3.6,1.5-7.1,2.3-10.5c-4.8-0.8-9.6-1.5-15.3-2.4
			c8.4-9.9,12.5-21.8,5.9-33.8c-1.7-3.1-10.4-2.3-19.8-4c9,9.3,15.5,15.7,0.7,19.5c-2.8,0.7-5.1,7.7-5.6,12
			c-1.9,15.4-2.9,30.9-2.9,46.6c-3.1,4.5-14.7,4.4-6.6,16.3c2.1,3.1-4.2,11.7-6.3,17.9c-2.8,8.6-5.3,17.3-8.3,27
			c9,2.9,6,9.9,4.9,18.2c-0.9,6.9,4,14.6,6.2,21.9c0.8,2.5,0.8,5.3,1.8,7.7c2,4.6,4.6,8.9,7.9,15.2c-0.5,1-2.4,5-5.2,10.7
			c-3.9-7.9-6.5-15.4-11.1-21.5c-3.2-4.3-8.9-6.6-13.5-9.8c-2.5,4.6-5.5,8.9-7.5,13.7c-2.7,6.5-4.7,13.3-8.3,23.7
			c-3.1-6.5-4.3-9-5.5-11.4c-1.2,0.5-2.4,1.1-3.6,1.6c2,3.8,3.9,7.5,5.6,10.7c-2.4,8.2-5,17.1-7.7,25.9c-0.8-0.1-1.6-0.2-2.5-0.3
			c0.7-6.5,1.5-13,2.2-19.6c0.2-2,0.8-4.8-0.2-5.9c-7.9-8.9-1.2-11.9,5.2-16.8c3.9-2.9,7.1-9,7.4-13.9c0.8-12.5-0.6-25.2-0.4-37.8
			c0.1-4.3,1.7-8.9,3.9-12.6c5-8.5,8.4-15.8-2.3-23.1c-2-1.4-0.3-8.3-0.3-10.3c-4.6-9.1-8.7-17-12.8-25c1.2-1,2.5-1.9,3.7-2.9
			c-2.2,0.1-4.4,0.2-9.2,0.5c18-11.7,0.9-22.9,1.6-34.4c-3.8-1-8.7-2.2-13.6-3.4c3.9-0.3,7.8-0.7,13.7-1.2
			c-4.1-10.2-7.7-19.2-11.4-28.2c-1.6,0.3-3.2,0.6-4.7,0.9c-2.9,6.9-5.9,13.8-9.1,21.4C739.2,558.7,743.2,561.3,747.3,563.8z
			 M636.7,508.7c3.8,3.5,7.2,7.8,11.5,10.2c2.1,1.2,6.2-1.2,9.3-2c-0.6-1.2-1.2-2.4-1.8-3.6c-2.7,0.6-5.5,1.2-8,1.8
			c1.6-4.3,3-8,4.4-11.7c-0.9-0.8-1.9-1.6-2.8-2.4c-4.3,2.6-8.5,5.3-12.8,7.9c1.8-4.2,3.5-8.3,5.5-13c-2.7-1.3-5.4-2.7-6.1-3
			c2.7-4.6,5.5-9.3,9.9-16.6c-7.2,1.6-9.9,2.3-12.7,2.9c-0.8-1.1-1.6-2.1-2.4-3.2c3.4-3.4,6.8-6.7,10.1-10.2c1.8-1.9,3.2-4,4.8-6
			c-2.2-0.3-4.5-0.5-6.7-0.8c1.4-3,2.7-5.9,4.1-8.7c-0.8-0.7-1.5-1.3-2.3-2c-5.4,5-10.7,10-16.4,15.3c1.5,1.4,3.3,3,7.3,6.7
			c-6.6,1-10.8,1.7-17.2,2.8C622.2,485.3,629.4,497,636.7,508.7z M620.9,437.4c0,0-0.3-0.4-0.6-0.7c2.9-1.6,5.8-3.2,9.6-5.3
			c-3.4-1.3-5.7-2.2-8.5-3.2c3.2-2.6,5.8-4.8,8.9-7.3c-3-2.6-5.3-4.6-7-6.1c2.2-2.6,4.3-5.1,7.9-9.3c-5.2,0-8.3,0-11.8,0
			c1.4-7.1,2.7-13.1,3.8-18.7c-3.2,0.4-6.1,0.7-9.7,1.2c1.1-5.7,17.2-9.5,1.5-15c2.1-1.5,4.2-3.2,9-6.7c-8-2.2-13-3.7-18.5-5.2
			c10.6-8.1,3.9-15,1.7-17.5c-2.6,3.8-5.1,7.5-7.7,11.3c-2.1-1.8-4.2-3.6-6.3-5.4c2.6,2.2,5.2,4.4,8.5,7.1c-4.1,0.7-7.2,1.3-7.2,1.3
			c-5.2,16.4-9.9,31.1-14.7,45.9c-7,12-11.7,28.8-7.6,31.8c-9.8,13.1-9.9,29.3-14.7,43.8c2.1-3.4,4.2-6.9,6.9-11.2
			c1.5,9.3,3.4,14.1,2.6,18.4c-0.9,4.5-4.4,8.6-6.6,12.8c-0.1,0.2,0.4,0.7,0.6,0.9c2.9-0.3,5.7-0.7,10.2-1.2
			c-3.7,5.9-6.4,10.2-9.2,14.7c7,2.4,12.4,4.2,18.8,6.3c-3.5,8.4-6.4,15.2-9.5,22.5c4.7-1.7,8.5-3.1,11.6-4.2
			c-1.5,10.2-2.9,19.7-4.4,29.7c4.6-0.3,6.7-0.4,10.7-0.7c-4,4.7-6.6,7.8-9.3,10.8c1.4,0.2,2.8,0.4,4.2,0.6c-0.3,4.4-0.6,8.7-1,13.9
			c2,0,4.6,0,7.3,0c-4.2,16-4.2,16,9.3,28.7c2.1-4.7,3.2-11.2,7-14.7c8.5-7.8,3.9-11.1-3.1-14.6c3.9-2.4,7.8-4.7,12.3-7.4
			c-3.7-2.4-6.8-4.5-7.2-4.8c4.3-4.4,9.3-7.9,11.7-12.7c0.8-1.6-5.4-6.5-9.5-11.2c4.5-0.4,8.7-0.8,12.8-1.2c0-0.5,0.1-1,0.1-1.5
			c-3.1-0.8-6.2-1.6-6.5-1.7c1.8-6.2,2.6-12.5,5.4-17.9c5.5-10.7,5.9-10.6-5.6-11.3c1.2-2.7,2.4-5.5,3.8-8.6
			c-6.6,1.5-12.1,2.7-17.6,3.9c-0.3-1.3-0.7-2.6-1-3.9c3.5-2.7,7-5.4,11.9-9.1c-13.2-9.8-25.5-19-36.6-27.4
			c7.1-4.4,15.9-9.8,22.3-13.8c9.8-8.7,18.1-16,27.3-24.1C624.5,438.6,622.9,438,620.9,437.4z M521.6,556
			c-6.5-2.9-11.3-5.1-19.7-8.8c19.6-1.7,20.9-4.8,15-25c3.3-0.8,6.5-1.6,13.7-3.3c-5.4-2.6-7.8-3.7-9.5-4.5
			c3.4-4.2,7.5-6.9,7.9-10.1c1-7.9-2.9-18.3,0.9-23.7c8.9-12.9,4.2-20.6-5.4-28.6c10.5-8.8,9.6-23.5-1.7-29.5c2.6-3.9,5.3-7.9,8-12
			c-5.6-1.2-11.7-0.9-12.8-3.1c-2-4.1-1.2-9.7-1.6-16c-1.6-1-4.9-2.9-5.8-3.5c1.3-5.6,4.5-10.9,3-14c-2.7-5.7-8.1-10.2-12.4-15.2
			c-1.8,1.9-4.3,3.6-5.2,5.9c-3.4,8.5-0.3,20.1-12.3,24.3c-0.5,0.2-0.6,1.5-0.9,2.3c2.7,2.6,5.5,5.2,8.7,8.1
			c-4.8,5.4-8.7,11.3-12,15.3c-10.2,12.3-11.5,26.8-12,39.9c-0.3,6.2-1.9,10.4-4.6,14.7c5.4,2.3,9.9,4.2,14.9,6.4
			c-11.7,14.8-9.6,22.6,5.2,30c-2,4.1-4.9,8-5.5,12.3c-0.2,1.3,5.6,3.5,5.3,3.3c1.5,7.3,2.7,12.4,3.6,17.6c0.3,1.4,0.3,3.6-0.5,4.3
			c-9.3,8.2-1.5,10.7,2.4,12.6c1.3,10.3,2.4,18.9,3.4,27.1c3-3.3,16.5,6.9,12.2-7.1c5.3-2,10.2-3.8,15.1-5.6
			c-0.2-1.1-0.4-2.2-0.7-3.3c-6-1.9-12.1-3.8-22.1-6.9C506.7,558.2,513.4,557.2,521.6,556z M874,573c6.6,2.1,13.1,4.1,19.1,6
			c-2.8,1.9-6.4,4.3-11.9,7.9c6,0.8,9.8,1.3,12.7,1.7c-3.9,5.4-10.8,11.5-9.7,14.1c2.8,6.3,9.3,11,16.2,18.5
			c2.4-15.4,4.4-27.6,6.2-39c4.8-4,10.1-8.4,15.6-13c-4.1-4.9-7-8.3-10.4-12.4c6.3-3.5,11.8-6.4,17.9-9.8c-1.8-2.8-3.4-5.4-5.1-8.3
			c6.3-5.9,12.6-11.8,19.2-18.1c-1.4-4.8-3.3-11.3-5.2-17.7c14-2.1,14.4-2,18.4-21.5c0.8-3.9-2.1-9.3-4.8-12.9
			c-7.8-10.1-14.1-0.2-20.5,2.9c-1.9-3.4-3.4-6-3.1-5.5c-7.4,1.9-12.6,3.2-18.4,4.7c0.3,2.4,0.9,6.8,2.1,15c-6.3-7-9.8-11-13.4-15
			c-1.1,0.5-2.3,1-3.4,1.5c0.9,7.8,1.8,15.6,2.6,23.4c-5.4-2.6-9-6.4-10.1-10.9c-2.9-12.4-5.1-13.4-15.6-5.3c-3,2.3-5.6,5.2-7.7,7.1
			c-3.9-2.4-7.4-4.5-11-6.7c-1.6,4.4-4,8.7-4.6,13.2c-0.8,6.2-0.2,12.6-0.2,18.9c3.3-0.5,7.9-1.2,12.6-2c1,10-1.4,22.9,3.3,26.3
			C879,546.6,878.3,558.4,874,573z M678.1,425.6c-6.7,5.3-11.5,9.1-16.2,12.9c5.2,5.7,9.4,10.3,12.2,13.4
			c-3.8,6.3-9.8,14.5-9.1,15.2c9.6,8.6,0.1,14.9-2,21.8c19.2,8.8,20.1,8.6,22.2-0.6c21.8-12.2,28.7-34.8,45.9-46.8
			c-3.1,0.5-6.2,1-10.8,1.7c1.1-7.1,1.9-12.8,3-20.1c-4.8,0-10.4,0-19.2,0c6.7-4.6,10.5-7.2,12.8-8.8c-2-6.5-2.3-12.7-5.4-16.7
			c-4.8-6.3-11.6-11.2-18.6-17.7c14.2-5.8,16.7-14.8,7.6-29.9c-7.3,12-13.6,22.4-20,32.8c6.6,2.6,10.5,4.1,14.3,5.7
			c-5.6,2.1-14.1,0.8-14.7,2.4c-2.7,7.4-3.3,15.6-4.8,24.8c-1.3,0.4-5.3,1.6-10.7,3.2C670.1,421.4,673.5,423.2,678.1,425.6z
			 M820,476.2c-1.6-13.9,15.3-26.1-5.7-34.8c2.4-3.1,4.7-6.2,6.8-9c-4.2-2.1-7.6-3.7-7.3-3.6c0.5-11.8,3.1-22.1,0.5-30.8
			c-2.4-7.8,5-21.8-11.8-22.5c2.7-3.4,4.6-5.9,6.4-8.3c-6.6-0.3-12-0.6-16.2-0.8c-3,7.8-5.7,14.8-8.4,21.6c0,6.7,0,13.8,0,20.9
			c-1.1,0-2.2,0-3.3,0c2,1.7,3.9,3.4,3,2.6c-2.2,5.5-3.4,8.8-4.9,12.1c-2.1,4.7-4.5,9.2-7.5,15.4c4.5,4.1,3.9,9.8-5.8,13.4
			c2.7,2.4,5,4.4,7.2,6.4c-1.4,0.1-2.8,0.2-4.2,0.3c-0.3,2.8-1.7,6.3-0.6,8.3c2.6,4.8,6.4,9,11.2,15.4c-0.5-5.4-0.8-8.3-1.1-11.1
			c0.7-0.1,1.3-0.2,2-0.3c1.1,2.1,2.3,4.3,2.3,4.4c3.3-5.5,7.1-11.8,10.9-18.1c1.1,0.4,2.2,0.7,3.3,1.1c0.9,6,1.8,12,2.7,18
			c1,0,1.9,0,2.9,0c1.3-3.7,2.5-7.5,4.1-12.2C810.8,468.2,813.8,470.9,820,476.2z M788.5,505.2c-9.6-3.6-17.5-6.5-27.6-10.3
			c3.3,8.9,6,16.4,9.4,25.6c-0.3,0.4-2.7,3.6-6,8.2c5.2,0,8.7,0,15.7,0c-19.4,17.7,5.2,31.4,0.3,48.3c-2.1,7.2,2.3,16.3,3.8,24.5
			c3-0.7,5.7-1.4,10.1-2.5c-2.4,7.5-4.2,13-6.3,19.7c14.7-6.5,15.2-9.7,9.4-48.3c3.8,0.2,7.7,0.5,12.1,0.8c-2-3.6-3.6-6.2-5.4-9.4
			c3-1.1,5.4-2,7.5-2.8c-2.4-3.9-5.8-7.5-6.7-11.6c-0.7-3.2,1.9-7.1,3.3-11.8c1.8-0.6,5.7-2,11.1-3.8c-5.3-4.6-8.8-7.8-12.6-11.1
			c7.8-5.6,18-8.7,13.4-20.9c1.7-0.2,4-0.4,6.3-0.6c-5.1-3.3-10.3-6.6-15.7-10.1c0,5.4,0,10.2,0,15.2c-4.5-4.1-8.8-7.9-11.3-10.2
			C794.8,498.8,790.7,502.9,788.5,505.2z M643.2,429.7c1.5-0.3,3-0.5,4.5-0.8c3.3-8.9,6.6-17.8,11.3-30.7
			c-7.9,6.4-14.7,9.6-17.3,14.8C639.5,417.3,642.5,424.1,643.2,429.7z"/>
		<path d="M266.6,373.6c0-1.3-0.5-3.3,0.1-3.8c15.5-12.5,15.6-12.4,5-26.3c4.5-3.5,11.6-6.3,12.6-10.6c0.9-3.5-5.5-8.8-7.7-11.9
			c6.8-7,13.7-14.1,21.3-21.9c-4.9-2.4-7.4-3.6-12.5-6.1c22.9-5.1,10-19.7,11.3-32.2c4.2,4.6,7.2,7.8,10.1,11c0.6-1.4,1.3-3,1.9-4.6
			c-1.1,13.9-0.7,26.5,15.4,32.8c2.9,1.1,3.7,8.1,5.2,12.5c0.3,0.9-0.6,2.9-1.5,3.4c-0.8,0.5-2.4-0.2-3.7-0.5
			c-2.5-0.7-4.9-1.4-8.4-1c11.4,8,15.1,17.5,11.3,25c2.9,9.2,4.1,14.8,6.5,19.7c2.5,5.1,6.3,9.7,11,16.6c-1.3,2-4.2,6.5-7.4,11.4
			c1.5,0.6,3.7,1.4,5.9,2.2c-1.5,3.9-2.8,7.6-4.2,11.2c3.5,1,7.1,2,10.3,2.9c1.7,4.6,3.6,10.1,6.1,16.8c4.4-3.3,7.2-5.4,11.2-8.3
			c-3.1-1.1-5-1.8-6.9-2.5c6.5-6,15.6-11.5,2.1-20.4c3.3-0.6,5.9-1.1,8.5-1.6c-4-6.7-8-13.2-12.6-20.8c5.2,0.8,9.7,1.5,14.2,2.2
			c-0.5-1.1-1-2.3-1.4-3.4c1.8-1.6,3.6-3.2,6.5-5.7c-2-1.9-4.8-4.4-8.1-7.5c3.1-6.7,6.4-13.8,10.8-23.3c0.3,0.4-1.7-2-4.8-5.4
			c4.5-1.1,8.3-2.1,12.2-3.1c0.3-0.5,1-1.4,1-2.1c-1.4-12.5-1.3-12.4,7.3-33.4c2.8-6.9,6.1-14.3,6.2-21.6c0.1-6.4-4.6-12.7-5.8-19.4
			c-1.1-5.7-0.2-11.7,2.2-17.4c2.7,8.7,5.4,17.4,8.1,26.2c0.4-0.1,1.1-0.2,1.2-0.5c0.5-1.1,0.9-2.4,3.4-3.8
			c1.5,11.5,1.5,23.4,4.9,34.3c2.7,8.7,9.3,16.2,14.8,25.2c-3.3,2.1-6.5,4.2-7.9,5.1c5.2,5.1,10.7,10.6,17.1,16.9
			c-4.3,3.3-7.8,6-13.5,10.4c4.9,4.2,9.3,8.1,14,12.2c-2.6,5.1-5.3,10.1-7.5,14.3c2.9,9.2,20.2,2.5,16.1,17.8
			c-3.5-2.8-6.7-5.3-11.5-9c-0.9,6.5-1.7,11.5-2.4,16.5c-1,0.8-2,1.5-3,2.3c-3-5-6.1-10-8.9-15.1c-0.4-0.7,1.8-2.6,1.4-3.3
			c-4.2-9.7-8.6-19.4-13.4-30.1c0.4-0.2,3.1-1.6,5.7-3.1c-0.8-1.9-1.4-3.4-1.5-3.4c-5.2,1.6-11.4,2.1-15.4,5.2
			c-11.8,9.5-9.8,24.9-14,37.6c-4.3,13.1-2.3,27.7-11.7,40c-2.7,3.6,2.9,13.1,3.7,20c0.4,3.5-0.9,7.5-2.6,10.8
			c-5.6,11.3-10.6,22.7-6.9,35.6c1.8,6.3,6.6,11.5,3.9,19.1c-0.6,1.6,4.1,5.1,6.7,8.2c-1.7,2.3-4.1,5.8-7.1,9.8c4,0.6,7,1.1,9.9,1.6
			c0.3,1.3,1,2.6,0.7,2.9c-5,4.7-4.5,8.3-0.1,14c3.2,4.2,2.9,11.1,3.5,14.1c0.5,9.7,0.8,15.4,1.2,21.9c3.6-0.2,7.3-0.3,11.2-0.5
			c0,7.1,0,13.8,0,21.6c14.1-10,16.1-15.9,10.6-21.3c3.2-8.2,6-15.4,9.1-23.3c-5-6.4-4.4-7.3,1.9-13.9c2.8-3,3.5-8.1,5.1-12.3
			c3.8-10.3,6.8-21.3,20.9-23.4c-1.7,13-3.1,24.5-4.9,38.5c0.4,0.3,3.6,2.3,7.4,4.8c-1.8,0.7-3.4,1.3-4.7,1.8
			c1.8,2.5,3.7,5.1,5.7,7.8c-4.7,2.7-9.5,5.3-17,9.6c0.7,4,3.1,11,2.6,17.7c-0.3,4-5.1,7.6-9.1,13c0.7,1.5,2.8,5.7,5.4,11.1
			c-5.2,0-8.5,0-11.8,0c-0.1,1-0.2,2-0.3,3c4.6,0.6,9.2,1.1,16.4,2c-8,5-14.4,9.1-21.9,13.8c0.1-1.1-0.3-0.1,0,0.7
			c2,5.9,8.1,10-2.1,16.9c-5.8,4-5.5,18.4-6.1,28.2c-0.9,14.1-0.2,28.2-0.2,43.8c-6-6.4-9.9-9.7-12.5-13.8c-1.5-2.4-2.5-7.6-1.1-8.9
			c10.9-11-1.2-21-1.1-31.4c0-1.4-5.5-2.9-5.6-2.9c0-11.5,0-21.8,0-33.2c-2.6,0.8-5.1,1.4-7.8,2.2c-1.2-11.4-2.4-23-3.5-34.6
			c-1.9,0.5-3.8,0.9-6.5,1.5c1.4-4,2.5-6.9,3.5-9.9c-2.3-0.9-4.7-1.7-3.8-1.4c-2.4-18.4-4.6-34.8-7.2-54.7
			c-6.3,3.4-13.6,6.6-19.6,11.4c-1.2,0.9,2.8,8.3,5.3,14.8c-6.7,7.3-16.6,17.2-6.6,31.3c1,1.4,4.9,0.7,12,1.4
			c-23.8,6.2-31.1,18.5-22.3,39.4c-0.7,0.5-2.8,2.2-5.1,3.4c-6.9,3.3-8,7-7.5,14.1c0.4,6.5-1.4,13.2-2.3,19.8
			c-0.9,6.4-2.8,12.7-2.7,19c0.1,6.7,2,13.3,2.6,16.8c-5.7-0.9-11.6-1.9-19.3-3.1c0-17.8,0-38,0-58.7c-3.6-2-7.1-4-11.7-6.6
			c1.6-5.8,3.3-11.9,5.1-18.4c-4-4.3-11.1-8.6-12.7-14.4c-2.1-7.5,0.1-16.3,0.5-26c-2.4-0.4-6.4-1-10.5-1.7
			c3.4-4.8,7.1-9.8,11.6-16.2c-6.5,0-10.5,0-13.1,0c2.6-5.5,5.3-11.1,8-16.7c-3.8-1-7.6-2.1-12.2-3.4c1.1-2.9,2.6-6.6,4.6-12
			c-5.1,2.2-8.7,3.6-15.4,6.5c2.6-6.9,4.3-11.3,6-15.8c-1-0.6-2-1.2-3-1.8c-3.7,6.2-8.6,12-10.9,18.8c-2.2,6.5-1.6,13.9-3.7,20.9
			c0.7,6.2,9.5,10.2-1.9,19.2c-10.8,8.5-9.8,24.5-7.1,37.4c3.3,15.7,4.1,16-13.5,18.3c2.1,5.4,4.1,10.6,6.3,16.2
			c-10.9,8.9-11.7,15.5-0.6,21.7c-3.3,1.6-5.9,2.8-8.6,4c4.6,10,9.3,19.9,13.9,29.9c-0.9,0.5-1.8,1.1-2.8,1.6
			c-2.8-3.7-5.6-7.3-9.5-12.5c-2.3,16.1-4.5,31.1-6.8,46.9c-1.7-9-3.4-17.5-5.2-26.4c-1.1,1.6-1.9,2.9-3.7,5.6
			c-0.2-3.2-1.2-5.7-0.3-7c7.8-12.1,6.3-22.8-3.2-33.6c-2.1-2.4,0.8-8.7-0.4-12.7c-2.4-8.1-7-15.7-8.7-23.9
			c-1.4-6.9,0.7-14.4-0.3-21.4c-0.4-3.2-4.5-6-6.8-8.9c-1.1,0.8-2.3,1.6-3.4,2.3c1.9-4.1,5.3-8.1,5.4-12.2c0.1-4.8-2.7-9.7-4.2-14.5
			c-2.3,1.8-4.5,3.5-6.8,5.3c2.9-3.8,5.9-7.6,9.6-12.5c-4.3-1.1-7.5-1.9-10.9-2.7c1.1-3,2.2-5.9,3.7-9.9c-3.3,0.9-6,1.6-11.6,3
			c14-12.8,2.7-19.5,0-27.7c-0.7-7.1-1.4-14.1-2.3-23.1c-5.4,0.9-10.6,1.9-13.7,2.4c2.8,10.4,5,18.9,7,26.2
			c-6.2,0.8-10.3,0.5-13.6,2c-8.4,3.9-0.4,6.7,0.6,10.5c2.1,8.7,1.5,18,2,27.7c0.4-0.2-0.3,0.6-1.1,0.6c-5,0.2-10,0.3-15,0.4
			c0.9,5.7,2.8,11.5,2.3,17.1c-0.4,4.7-3.7,9.2-5.7,14.5c-2.7,5.7-6.6,11.2-7.8,17.3c-2.7,13.4,3,25.4,8.3,37.3
			c1.7,3.8,2.2,8,3.3,12.1c-1.3,0.7-2.7,1.4-4,2c-2.8-2.8-5.5-5.6-8.4-8.6c-2.5,1.8-6.2,4.6-10.6,7.8c-2.1-2.7-4.1-5.3-7.4-9.3
			c-2.5,6.1-4.4,10.9-7.9,19.4c0-10.9,0-17.8,0-24.4c2.3-2.8,5.6-6.7,8.3-10.9c0.2-0.3-3.4-3.2-5.7-5.3c0.2-2.3,2.1-7.3,0.4-9.9
			c-9.6-14.6-10.8-34.7-26.5-43.3c1.2-2.9,4.3-6.8,3.4-8.7c-4.3-8.9-9.7-17.3-15.5-27.3c-0.7,0.3-3.9,1.4-8.3,3
			c1.3-8.5,2.6-16.6,3.9-24.6c-0.9-0.2-1.8-0.4-2.7-0.6c-1.2,2.2-2.4,4.4-3.6,6.6c-0.6-12.1-7.9-23-8.8-32.1
			c-1.2-11.4-13-18.2-9.7-30.4c0.5-1.8-10.9-6.8-17.4-10.6c2.7-3.5,6.3-8.1,12-15.4c5.3,6.9,10,13.5,15.2,19.7
			c3.9,4.7,8.6,8.6,12.5,13.2c2.7,3.2,5.8,6.9,6.5,10.7c1.7,9.5,0.7,19.8,10.1,26.5c0.2,0.1-2.2,3.9-3.8,6.6c3-0.3,5.1-0.6,8.2-0.9
			c-0.9,4.7-1.8,9.1-2.7,13.4c0.8-0.9,1.7-1.9,2.5-2.8c4.1,5.3,8.1,10.6,12.5,16.3c-6.4,8.7-10.1,16,5.3,19.5
			c4,0.9,6.2,9.5,9.5,15.1c3.2,0,8,0,11.6,0c0-7,0-13.8,0-20.8c2.7-0.4,6.6-1,10.6-1.6c-3.1-7.2-5.7-13.5-8.4-19.8
			c15.3-7.7,18.7-14.1,12.6-25.5c3.1-0.6,6.1-1.2,7.8-1.5c0-12.1-0.1-23.2,0.1-34.4c0-1.7,1.9-4.1,1.2-4.9c-6.2-8-14.1-14-23.9-16.8
			c-1.1-0.3-3.4,3.4-5.3,5.4c-0.4-3-0.8-5.7-1.3-9.4c-3.6,3-6.6,5.4-8.7,7.2c-8.2-5.2-16.2-10.1-24.1-15.1c0.9-1.2,1.8-2.4,2.7-3.6
			c-3.3,3-6.6,5.9-8.9,8c-5.2-5.5-10.9-11.5-17.4-18.4c-3.3,4.4-5.1,6.8-7.3,9.7c-9.7-5.4-15-27.6-31-8.3
			c-2.2-13.2-2.2-13.6,9.2-15.8c8.1-1.6,16.5-2.6,24.8-2.7c4.4,0,10,1.4,13.1,4.3c7.1,6.4,11.3,3.3,17-2c3.1-2.9,8.7-3.3,12.8-4.7
			c4.3,7,8.3,13.3,13.7,22c4.1-1.5,9.8-3.5,16.4-5.8c0.3,2.5,0.6,5.1,1.3,10.4c3.7-5.5,5.8-8.7,7.8-11.6c2.1,2.2,4.2,4.5,7.3,7.8
			c3.9-6.9,7.3-12.9,11.2-19.6c-3.9-4-9.1-9.2-13.4-13.7c1.4-5.6,3.1-11.9,4.7-18.3c-2.5-0.6-5.1-1.2-8.7-2.1
			c3-2.5,5.6-4.6,10.4-8.6c-6.1,1.3-9.6,2-14,2.9c1.9-7.6,3.5-14.2,5.4-21.9c-2.1,0.6-4.4,1.3-6.7,1.9c0.3-6.8,0.7-13.7,1-21.2
			c-1.7-0.3-4.7-0.9-8.3-1.7c2.5-1.3,4.4-2.3,3.9-2c-1.5-6.4-2.7-11.9-4.2-18.3c-7.1,2.6-6.3-13.9-16.4-8.5
			c-2.7,1.4-7.1,4.4-6.8,6.2c2.1,15.3-14,18.4-18.5,29c-0.9,2.1-0.3,4.7-0.5,7.9c-1.6,0.3-4.5,0.8-7.7,1.3c1.7,2.9,3.3,5.5,3.3,5.5
			c-13.8,11.1-18.9,24.4-18.2,40.5c-0.6,0.4-1.2,0.8-1.3,0.8c-1.5-1.5-2.9-3.1-5.2-5.5c-2.9,2.4-5.8,4.7-10.2,8.4
			c-0.3-4.3-0.6-7.3-0.9-10.5c-2.8,1.5-5.5,2.9-9.6,5c4.9-12,20.9-17.9,12.6-31.9c4.5-2.1,9-4.1,13.6-6.2c-4.1-2.4-8.2-4.8-13.3-7.8
			c6.9-4,27.7,1.3,11.9-17.8c19,4.6,10.3-6.3,9.4-13.8c3.7,0.5,7.8,1.1,13.6,1.9c-2.3-4.2-3.8-6.8-5.2-9.4c2.7-0.6,5.7-1.4,8.7-2.1
			c-1.2-2.8-2.4-5.6-2.9-6.6c4-5.3,7.8-10.3,12.2-16.2c10.6,1.1,14.1-2.1,10.3-11.1c14.2-9.6,15.9-15.3,9.4-37.2
			C90.5,241.1,86,230,82,219c5.1,4,11.2,8.9,19,15.1c1.1-0.4,5.1-1.7,11.7-3.9c-5.1-2.2-8-3.5-11.2-4.9c4.5-3.1,16.3,3.2,14.7-10.2
			c0.8,4.9,2.4,9.8,2.3,14.7c-0.1,8.6,2.1,12.2,13.1,8.4c-3.8,8.2-7.3,16.7-11.7,24.6c-4.4,7.9-10.4,14.1-2.5,24.3
			c3.4,4.4,0.5,13.5,1.4,20.3c0.3,2.1,3.7,3.7,7,6.8c-5.3,5.8-0.5,11.8,2.8,19.5c4.6,10.9,8.2,22.1,14.6,32.3c1,1.6,0.1,5.9-1.4,7.3
			c-7.4,6.6-7.6,6.4-2.9,14.1c4.3,7,11,13.5,12.5,21c2.3,12.1,7.4,6.7,9.4,3.2c2.2-8,4.3-15.9,6.7-24.8c-2.5-1.3-6.1-3.3-10.1-5.4
			c2.6-5,4.8-9.3,7.9-15.4c1.5-0.1,5.9-0.3,10.3-0.5c0.7-0.8,1.3-1.5,2-2.3c-2.3-1.2-4.7-2.5-4.5-2.4c3.2-7,6.1-13.2,8.7-18.9
			c-2.7-6.4-5.2-12.5-7.2-17.1c5.9-3,10.9-5.7,16-8.3c-1.7-1.6-3.5-3.2-4.4-4.1c2.4-4.2,5.2-8.9,9.1-15.7c-5.7,1.1-9.2,1.8-10.7,2.1
			c5.2-7.3,11.6-15.1,16.8-23.6c4.9-8,8.6-16.8,12.8-25.3c1.2,0.1,2.4,0.2,3.6,0.3c0,5,2.1,12.6-0.4,14.5c-10.1,8-3.8,17.7-3.6,26.3
			c0.1,3.7,6.7,7.5,10.8,10.8c2.3,1.8,5.4,2.6,9.2,4.3c-3.5,4.6-6.2,8-9.8,12.7c4.5,1.4,8.3,2.6,13,4.1c-11,2.9-11.8,6.3-2.5,13
			c3.3,2.4,4.4,10.9,3.1,15.7c-2.6,9.6,2.5,12.1,9.5,14.5c6.7,2.3,13.3,4.8,19.9,7.2c-3.1,2.6-5.8,5.6-9.2,7.6
			c-13.8,8.1-14.3,10.2-4.3,23.5c10.5-0.8,13.2-8.1,13.2-16.9C266.7,382.9,279.2,378,266.6,373.6z M218.2,385.8
			c-3.2-7.4-6.8-12.4-7.3-17.6c-0.7-6.4,1.4-13.1,1.7-19.6c0-0.4-5.8-2.3-7.7-1.3c-8.2,4.2-19.7,31.9-17.4,41c0.4,1.7,3,2.9,4.7,4.4
			c-6.7,2.8-11,13.8-9.9,20.4c1.2,6.8,1.3,14,0,20.8c-0.3,1.5-8,1.6-12.7,2.4c3.6,5.4,9.2,10.6-2.1,14.7c-1.9,0.7,0,11.2-0.1,17.2
			c-0.1,5.2-2.2,11.2-0.4,15.6c4.8,11.7,14.9,22,6.1,37.4c5.3-0.4,8.4-0.6,10-0.7c1.3,14.3,2.1,28.4,3.9,42.4
			c2.1,17.2,11.4,25.8,24.9,25.1c0.8-9.3,1.6-18.2,2.4-26.5c1.9-2.1,4.4-4.6,5.2-5.6c-12-17.8,6.7-25.5,9.5-36.9
			c-3.5-2.4-6.4-4.4-6.8-4.6c3.3-7.2,4.6-14.7,9-18.9c11.3-10.9-1.5-12.5-6.4-16.9c14.8-4.3,16.1-16.9,17.5-27.7
			c0.8-6.3-2.8-14.5-7.1-19.6c-3.8-4.5-11.3-6-17.5-8.9c21.4-11.9,3.6-28.6,6-41.1C222.3,382.4,220,384.3,218.2,385.8z M287.6,524.7
			c-1.7,4.9-3.8,8-3.3,10.4c3.6,17.1,7,34.3,12,50.9c1.7,5.6,5.1,14.6,12.1,11.9c3.1-6.9,4.9-11.1,7.3-16.5
			c-5.8-7.3-5-18.4,4.6-20.9c8.9-2.4,5.3-6.3,3.4-10.8c-2.9-6.8-9.1-14.7,5.6-15.4c-3.1-4.2-5.6-7.6-8.6-11.7
			c4.6-1.1,7.7-1.8,13.2-3c-5.8-2.7-9.1-4.3-9.8-4.7c5.6-7.7,11.4-14.3,15.4-22c1.3-2.5-4.1-10.3-3.1-11.1
			c14-10.1-1.1-20.3-1.2-29.8c-0.1-18.4-10.2-36.6-14.2-55.3c-2.1-9.8-5.8-12.4-14.1-9.5c3.5-6,7.1-12.1,11.5-19.6
			c-5.1,0.3-7.5,0.4-10.3,0.5c2.1-3.2,3.8-5.7,5.6-8.4c-19.4-6.5-22.6-3.9-19.8,14.7c0.5,3.3,1.8,7.6,0.4,10
			c-5.8,9.9-12.5,19.2-16.4,25c-0.9,7.8-0.4,12-2.1,15.1c-2.5,4.8-5.7,8.4,2,11.3c1.2,0.5,1,4.7,1.6,8c-4-3.2-6.5-5.3-9-7.3
			c-2.5,6.3-5,12.5-7.4,18.5c13.5,10.1,14.4,20,2.1,32.4c5.6,1.8,10.4,3.3,16.3,5.2c-4.1,0.7-7.3,1.2-13.9,2.3
			c6.1,1.2,8.7,1.7,11.5,2.3c-1.6,2.7-3.2,5.3-4.7,8c1.3,0.1,2.7,0.3,4,0.4c0,3.8,0,7.7,0,11.5C281.2,519.5,284.7,522.4,287.6,524.7
			z"/>
		<path d="M697.3,280.6c-2.7-0.6-5.3-1.1-11.2-2.4c-1.7-8.6-4-20.9-6.4-33.2c1.1-0.4,2.2-0.7,3.3-1.1c2.4,6.8,3.4,14.8,7.7,20.1
			c2.9,3.6,10.4,3.5,17.4,5.5c-2.7,2.5-7,6.5-11.3,10.6C696.8,280.2,697.3,280.6,697.3,280.6z"/>
		<path d="M940.6,354.4c0.8-0.9,1.6-1.7,2.3-2.6c1,1.7,2,3.5,2.9,5.2l0.3,0.9c-1-0.2-2.1-0.4-3.1-0.7c0,0,0.4,0.4,0.4,0.4
			C942.5,356.6,941.5,355.5,940.6,354.4z"/>
		<path d="M940.6,354.4c1,1.1,1.9,2.2,2.9,3.3c-1,0-1.9,0.1-2.9,0.1C940.6,356.7,940.6,355.5,940.6,354.4z"/>
		<path d="M940.6,357.8c1,0,1.9-0.1,2.9-0.1c0,0-0.4-0.4-0.4-0.4c0,1-0.1,1.9-0.1,2.9C942.1,359.4,941.4,358.6,940.6,357.8z"/>
		<path d="M942.9,360.2c0-1,0.1-1.9,0.1-2.9c1,0.2,2.1,0.4,3.1,0.7C945.1,358.7,944,359.4,942.9,360.2z"/>
	</g>
</g>
</svg>
