<?xml version="1.0" encoding="utf-8"?>
<!-- Generator: Adobe Illustrator 21.0.0, SVG Export Plug-In . SVG Version: 6.00 Build 0)  -->
<svg version="1.1" id="Layer_1" xmlns="http://www.w3.org/2000/svg" xmlns:xlink="http://www.w3.org/1999/xlink" x="0px" y="0px"
	 viewBox="0 0 1000 1000" style="enable-background:new 0 0 1000 1000;" xml:space="preserve">
<g>
	<path d="M542.2,703.1c12.8-11.2,20-23.1,8.4-40.1c-2.9-4.2-0.4-12-0.4-18.6c4.3,13.3,8,24.8,11.7,36.3c0.6-0.1,1.2-0.2,1.8-0.2
		c-2.2-13.2-4.5-26.5-6.9-40.8c-14.9-1.5-30.8,30.3-31.3,58.6c-8.4-10.1-11.1-35.2-3.7-46.5c5.4-8.4,12.8-15.5,19.3-23.2
		c1.1-1.3,2.8-2.9,2.6-4.2c-1.2-9.8-2.7-19.5-4.2-29.7c-12.3,4.3-10.7,14.6-8.7,26.5c-14.2-20.9-13.7-37.5-0.5-52.9
		c-3.8,2.2-7.7,4.4-11.5,6.6c11.9-14.4,21.4-29,5-47.1c5.1,5.5,10.2,11,15.2,16.5c0.8-0.4,1.6-0.9,2.4-1.3
		c-3.6-5.8-5.9-14.9-11-16.9c-17.2-6.8-35.4-18.1-55,0.2c13.6,4.8,22.4,13.9,21.1,28.7c-0.5,5.6-3.4,11-5.2,16.4
		c-1.1-0.3-2.1-0.5-3.2-0.8c0-4.5,0-9,0-13.6c-7.3,0-13.8,0-20.1,0c1.5,7.8,3.1,16.1,4.7,24.4c-0.8,0.2-1.6,0.5-2.4,0.7
		c-9.1-13.7-18.2-27.5-27.3-41.2c-1.5,0.1-3,0.3-4.5,0.4c2.1,9.5,4.2,18.9,6.3,28.4c-1.1,0.2-2.3,0.4-3.4,0.6
		c-5.2-4.6-10.3-9.1-15.5-13.7c-0.8,0.8-1.5,1.6-2.3,2.5c7.3,9.4,14.7,18.9,24,30.8c1.9-6.8,2.7-9.8,4.2-15c4,3.5,7.5,6.2,10.4,9.4
		c6,6.5,10.5,15.8,17.8,19.6c34.1,17.6,36.4,44.9,5.4,72.9c1.4-7,4.7-14.7,3.9-22c-2.5-21.5-16.6-35.3-37.7-40.5
		c-6.5-1.6-12.4-5.6-18.6-8.4c-3.4-1.5-7-3.7-10.5-3.8c-3-0.1-6,2.5-9,3.9c1.7,2.8,2.9,6,5.1,8.2c2.8,2.9,6.5,4.9,8.7,9.3
		c-5.4-1.5-10.8-2.9-16.2-4.4c-0.7,1.1-1.4,2.2-2.1,3.3c3.3,2,6.6,4,11.4,6.8c-4.7,9.9-12.7,18.9-12.3,27.6
		c0.5,11.6,4.9,24.9,12.2,33.8c6.8,8.3,17.4,1.6,23.9-5.6c2.2-2.5,2.2-7.5,2-11.4c0-1.1-4-2.1-6.2-3.1c-0.4,3.8-0.7,7.7-1.1,11.5
		c-0.8,0.4-1.7,0.9-2.5,1.3c-1.7-5.4-3.5-10.8-5.2-16.2c4.7-1.2,10.3-4.7,13.9-3.3c7.8,3,14.9,8.8,12.6,19c-0.8,3.6-3.2,7.6-6.1,10
		c-9,7.4-8.5,15.1-3.4,24.6c5.1,9.7,9.4,20,13.2,30.3c10.2,27.4-3.3,64.5-24.9,74.6c3.5-11.6,7.8-24.7,11.4-38
		c2.8-10.5,0.2-18.8-10.8-23.7c-8.9-4-15-9.3-11.3-21.8c1.1-3.9-8.1-11.6-13.6-16.3c-1.6-1.4-8.1,0.6-10.4,3
		c-4.3,4.2-6.5,10.6-10.8,14.7c-4.6,4.4-10.6,7.3-15.9,10.8c-2.7-6.8-6.2-13.4-7.6-20.5c-0.7-3.3,2.8-7.5,5.2-13.3
		c1.7,3.6,2.5,4.5,2.6,5.6c0.3,3.6,0.2,7.2,0.6,10.8c0,0.3,4.3,0.7,4.6,0.1c1.8-3.7,5.4-8.9,4.1-11.3c-4.2-7.7-9.6-15.2-15.9-21.2
		c-4.2-3.9-10.9-5.2-17.3-8c-4.3,13.7,1.1,25.3,8.2,35.1c-13.3,22.6-27.5,43.7-27.9,71c-0.4-3-0.8-6-1.2-9
		c-1.5-9.9-3.3-19.8-4.4-29.8c-0.6-5.9-0.1-12,0-18c0.1-5.1,0.3-10.1,0.5-15.2c15.7-13.8,15.4-38.6,1-49.4c0,13.6,0,28.4,0,43.2
		c-2.1-1.5-4.5-2.8-6.1-4.7c-4.6-5.5-8.9-10.4-16.5-2.3c1.5-8.4,3.1-16.8,4.7-25.5c-25.7,4-38.3,28.4-30,55.3
		c3.2,10.2,5.3,20.8,5.8,32.1c-4.3-13.2-8-28.4-24.3-27.6c-17.2,0.9-15.5,19.9-24.5,30.3c1.9-6.6,4.2-13.2,5.6-19.9
		c1.5-6.9,3.8-14.1,2.8-20.8c-0.9-6.7-5.4-12.8-8.3-19.2c-1.1,0.4-2.2,0.7-3.3,1.1c-0.4,5-0.7,10-1.1,15c-1,0.1-1.9,0.2-2.9,0.3
		c-0.4-4.6-2-9.5-1-13.8c3.4-14.7,9.3-27.4,20.1-39.2c6.7-7.3,6.7-21,8.9-32c0.3-1.3-4.8-5.4-6.2-4.9c-3.2,1.2-7.3,3.9-8.2,6.8
		c-5,15.7-9.2,31.7-13.8,48.3c-9.8-4.8-6.9-15.1-6.9-24c-0.1-8.2,10.9-15.6,2.6-25.5c-4.5,6.2-8.3,11.6-12.2,16.9
		c-0.9-0.4-1.8-0.8-2.7-1.2c1.3-6.8,2.6-13.6,3.9-20.4c-1.1-0.6-2.2-1.2-3.3-1.8c-9.6,14.3-19.4,28.4-28.4,43
		c-0.6,0.9,4.2,6.5,7.4,8c2.1,1,5.7-1.3,8.9-2.1c-0.8,8.9-19.1,9.2-10.9,20.9c-4.8,1.6-13.3,2.2-14.1,5.1
		c-1.4,4.6,0.7,13.3,4.3,15.7c4.5,3,12.1,1.4,20.7,1.9c-6,3.4-13.2,7.6-21.6,12.4c9.8,7.8,14.9,11.8,20.2,16
		c9.6-7.5,20.1-3.1,28.9,1.8c3.2,1.8,2.4,10.8,3.4,16.6c-1.1,0.2-2.2,0.3-3.3,0.5c-2.3-4.1-4.5-8.3-6.8-12.4
		c-1.1-0.2-2.3-0.4-3.4-0.5c-3.4,19.8-9.8,37.5-30,45.6c2.5-0.8,5-1.6,7.5-2.4c0.5,0.7,1.1,1.3,1.6,2c-6.6,3-13.3,6.1-17.5,8
		c-2.8-20.7-6.6-47.7-10.3-74.8c-1.3,0-2.7,0-4,0c-0.7,6-3.3,12.5-1.8,17.9c2.9,10.5-0.9,16.4-7.5,24.4c-11.8,14.5-11,33.1-8.8,50.8
		c0.9,7.7,3.7,15.2,3.9,23.8c-2-3.1-4.1-6.2-6-9.2c0,3.1,0,6.4,0,10.3c-1.2-0.6-2.9-1-3.1-1.7c-4.3-21.1-8.4-42.2-12.5-63.3
		c-0.2-1.3-0.4-3,0.2-3.9c16-20.2,12.2-42.5,5.9-64.9c-9.8,0-9.8,0-27.7,29.6c-4.1-29.6-4.1-29.6,12.5-45c-11.2-4-20.1-1.4-27.4,6.4
		c-8.8,9.3-22.4,15.4-22.9,30.7c-0.5,13.3-0.1,26.6-0.1,39.9c1.4,0.2,2.8,0.3,4.2,0.5c3.2-2.4,6.4-4.9,9.6-7.3
		c0.8,0.6,1.6,1.2,2.5,1.8c-4.2,6.7-8.4,13.3-14,22.3c7.5-0.9,12-1.5,16.6-2.1c-5.6,8-10.9,15.6-16.2,23.2c1,1,2,2,3,3
		c3.5-0.8,7-1.5,10.6-2.3c0.6,5.3,1.1,10.5,1.8,16.6c-4.9-3.3-8.6-5.8-13.8-9.3c-1.6,9.7-3,17.7-4.3,25.6
		c-1.3,7.8-2.5,15.5-4.1,25.7c-6.1-3.6-11.2-6.6-19.2-11.4c6.6-2.5,11.1-4.2,15.1-5.7c-5.3-5.7-7.9-4.8-20.4,9.2
		c-0.5-3.3-0.8-6-1.3-9.1c-17.4-0.7-31.1-7.2-36.6-24.8c-6.1-19.4,8.5-27.3,23.3-36c0,5.9,0,12.4,0,18.9c-0.7,0.8-1.3,1.6-2,2.4
		c-1.6-3.2-3.1-6.3-4.7-9.5C7,838.8,6.1,850.7,14.8,858.6c8,7.3,19.1,5.3,27.4-5.4c10.1-13,11.9-28,4.9-42.3
		c-11-22.4-11.4-44.6-4.8-68c1.3-4.5-1.2-10-2.4-18c-8.5,9.8-16.3,15.7-19.8,23.6c-3.4,7.9-2.4,17.7-3.4,27.3
		c-10.9-16.1-8.5-33.4-1.3-49.3c6.9-15.4,17.2-29.2,25-45.9c-4.8,3.5-9.6,6.9-15,10.9c1.5-16.9,20.9-15.1,26.7-26.8
		c-11.7-5.6-23.3-11.3-35-16.9c0.2-1.3,0.3-2.6,0.5-3.9c18.2,0,36.4,0,54.6,0c0.1-1.4,0.1-2.8,0.2-4.2c-3-0.6-6-1.2-8.9-1.7
		c-0.1-0.8-0.2-1.7-0.3-2.5c12.6-3.1,25.1-6,37.7-9.3c2.7-0.7,5.5-1.9,7.7-3.7c0.7-0.6-0.3-4.9-1.3-5.3c-2.3-0.8-5.1-0.4-7.7-0.2
		c-7.7,0.4-15.4,0.9-25.1,1.5c-0.2,0.4-1.3,3-2.5,5.6c-20.8,4.5-20.8,4.5-32.6,14.3c1.8-20.1,13.4-31.9,28-41.1
		c17.4-10.8,31.8-1,46.7,8.5c-12.1-10.9-27.7-20.1-16-39.1c8.4-13.8,19.9-17.5,35.7-11.8c-13.5,2.2-26.9,3.4-26.8,18.7
		c0,6,4.1,15,8.8,17.1c5.6,2.5,13.8-0.9,22.5-2c-3.1-7.5-5-12.1-7.6-18.2c8.2,4.8,14.6,10.6,21.9,11.8c3.7,0.6,8.8-6.9,14-11.5
		c1.3,1.4,4.5,4.9,7.7,8.4c0.7-0.5,1.4-1,2.1-1.4c-2.7-5.3-5.3-10.5-8-15.8c0.8-0.5,1.7-1,2.5-1.6c4.6,5.3,9.2,10.6,16.1,18.5
		c-1.6-15.8-7-24.8-19.4-27.3c-14.7-2.9-9.9,12.8-17.9,19.5c-3.8-10-2.5-19.6,4.2-25.3c6-5,15.5-5.9,23.5-8.5c0.5,1.3,1,2.5,1.6,3.8
		c9.1-8.7,18.2-17.4,28-26.7c-4.9-3.9-8.4-6.7-14.3-11.4c8.6-0.5,14.5-0.9,21.1-1.3c0-4.4,0-8.5,0-15.1
		c-10.3,5.2-20.7,7.7-26.6,14.3c-5.5,6.3-6.2,16.8-9.7,27.7c-10.4-7.6-19.5-14.2-28.6-20.8c-0.6,0.7-1.3,1.3-1.9,2
		c1.3,3.4,2.6,6.7,4.7,11.9c-21.2-9.9-32.3,3.1-45,15.4c-11.4,11.1-24.8,20.3-38.2,29.1c-3.7,2.4-10.4,0.4-16.7,0.4
		c1.3-5.6,2.2-9.5,3.3-14.7c3,3.1,5.5,5.8,7.4,7.9c9-8.7,17.5-17.7,26.8-25.7c8.8-7.5,18.5-13.9,29-21.7
		c-6.7-9.1-13.5-18.4-20.4-27.6c0.6-0.9,1.1-1.8,1.7-2.6c14.6,5.5,29.2,11,43.8,16.4c0.4-0.8,0.9-1.5,1.3-2.3
		c-3.3-2.8-6.7-5.6-11.7-9.8c5.8-0.4,9.8-0.7,13.7-1c1-1,2-2,3-3c-8.3-9.1-16.7-18.1-25-27.2c0.3-0.6,0.7-1.2,1-1.8
		c17.6,6,35.2,11.9,53.4,18.1c2.6-11.4,4.6-20.2,6.5-28.5c6.6,1.1,14.4,2.4,22.3,3.7c0.4-1.8,0.8-3.6,1.2-5.3
		c-5.7-1.8-11.5-3.6-18.2-5.7c2.8-2.5,6.5-5.7,10.1-9c-0.6-0.4-1.3-1.2-1.8-1c-18.9,4.8-38.1,8.6-56.4,14.9
		c-10.4,3.6-19.4,11.2-29.5,17.4c0.8-15.2,8.8-25.6,27.1-32.8c-27.4-8-23-33.6-37.1-52.5c0.6,22.3-16.4,25.5-29.2,32.6
		c-3.9,2.1-10.4-0.6-14.5,1.3c-15.7,7.4-24.1,20-23.6,37.9c0.1,4.4-0.4,8.8-2.4,13.8c1.5-23.8-6.5-43.6-24.5-60.6
		c17.1,11.7,29.7,5.3,42.4-5.7c5.8-5,14.1-7.1,21.1-10.9c7.4-4,14.9-7.7,14.5-18.3c-0.1-2.7,2.5-7.8,4-7.8
		c21.1-0.8,23.9-24.8,40.6-31.5c9.2-3.7,17.4-10.1,27.9-16.4c-4.8-6.3-9.3-12.1-13.2-17.3c9.3-0.1,9.3-0.1,23.3,17
		c-1-4.3-0.5-10.1-3.1-12.5c-11.4-10.2-19.2-21.4-17.7-37.7c0.3-3-2.5-6.4-3.8-9.4c3.7-0.7,7.1-1.4,10.6-2.1c-2.2,2-4.5,4.1-6.7,6.1
		c6.9,3.2,14.6,5.5,20.7,9.9c25.8,18.7,28.9,48.1,7.2,74c0.2-3.3,0.3-5.5,0.5-9c-4.4,6.2-8.1,11.4-12.6,17.6c3.8,0,6.2,0,7.7,0
		c2,5.3,3.8,10,5.7,14.8c4.9-3,9.8-6,15.9-9.7c-13.3-11.9-1.8-20.4,0.8-29.8c0.6-2,2-4.1,3.6-5.5c17.2-14.7,25.7-31.1,9.3-52.8
		c21.2,18.1,20.3,59.1-0.5,80c0.1,5.3,17.4,6.6,4.9,13.4c13.7,1,27.5,2,41.1,3.1c-0.3-2.5-0.6-5.3-0.9-8.1c1.8,1.4,3.3,3.5,5.3,4.1
		c4.2,1.2,8.5,1.6,13,0.8c-13.6-18.6-28.8-3.8-44.5-3.7c-2.3-4.2-5.1-9.4-8-14.6c2.9-1.1,7.7-2.1,7.8-3.2
		c0.6-15.5,11.1-28.9,7.2-45.7c-4.6-20.1,3.7-33.8,22.1-41.5c12.4-5.2,11.7-13.3,8.2-24c2.5,5,5,9.9,7.6,15.2
		c0.5-4.9,1-9.8,1.6-15.6c7.5,14.1,3.3,25.2-15.6,44.5c6.7,4.9,13.3,9.7,20.1,14.6c10.6-14,20.2-26.7,29.8-39.4
		c11.5-15.3,6.6-33.8-11-41.9c0.6-1.1,1.2-2.2,1.9-3.3c9,5.1,20.1,8.3,26.6,15.7c8.3,9.5,4.8,22.3-1.6,32.2
		c-4.6,7.2-12.6,12.1-18.3,18.7c-2.9,3.4-6.1,8.5-5.6,12.3c0.4,2.9,6.6,4.9,11,7.9c-1.5,1.2-5,2.7-6.2,5.3c-1.2,2.7-1.5,8.1,0.1,9.3
		c10.5,7.8,21.6,14.8,32.5,22.1c0.9-0.8,1.7-1.6,2.6-2.4c-2.2-3-4.3-6-6.6-8.9c-5.6-7-7.2-12.8,0.8-20.3c3.8-3.5,3.7-11.5,4.5-17.6
		c0.6-4.5-0.3-9.2-0.5-13.8c1.6-0.3,3.3-0.6,4.9-1c1.6,6.1,6.1,13.4,4.2,18.1c-6.5,16.3,1.7,29.2,6.3,43.1c1.2,0.2,2.4,0.4,3.6,0.6
		c1.7-9.6,3.6-19.2,4.9-28.9c0.5-3.6-1.8-8.5-0.1-10.9c11.9-17.1,24.4-33.8,36.8-50.5c1,0.6,2,1.3,3,1.9
		c-6,10.4-11.8,20.9-18.1,31.1c-9.2,14.9-3.4,29.3,13.7,33.8c2.4,0.6,4.3,3.4,6.7,4c3.5,0.8,7.7,1.6,10.7,0.3
		c1.5-0.6,1.4-5.8,1.6-8.9c0.2-4.3,0.1-8.7,0.1-13.1c12.3,4.2,25.2-1.1,30.1-12.8c1.1-2.5,1.2-6.3,0.1-8.7
		c-10.1-22,1.5-38.8,21.6-48c4.9-2.2,10.7-2.5,16.8-1.6c-1.6,1.1-3.2,2.4-4.9,3.3c-16.4,9.6-22.5,21.2-19.3,39.4
		c3.4,19.1,2.6,36.8-14.9,52.1c4.3,3.4,7.7,6.1,11.1,8.8c3-4.4,8.1-8.5,8.5-13.1c1.7-15.8,4-30.7,17.3-41.7
		c2.6-2.1,2.3-7.6,3.7-12.8c4.9,8.1,13.7,14.4,0.7,24.6c5.3,0.3,8.1,0.4,10.9,0.6c0,0.4,0,0.9-0.1,1.2c-0.2,0.4-0.5,0.7-0.8,1.1
		c-30.5,8.2-19.5,32-19,55.4c10.7-19.4,14-37.8,18.5-55.7c4.1-9.2,13-19.4,11.2-27.2c-2.8-11.8,4.5-14.2,9.5-19.7
		c0,0-0.5,0.4-0.5,0.4c0.8-3.1,2.8-6.3,2.2-9.1c-7-35.6,8.7-59.5,38.7-76.2c3.5-1.9,7-3.9,10.1-6.4c8.7-6.9,11.6-15.1,5.9-25.6
		c-2.3-4.3-3.6-9.2-5.3-13.8c1.6-0.9,3.1-1.8,4.7-2.7c3.4,5.2,8.9,10.1,9.6,15.7c1.6,11.5,3.6,24.1-8,32.8
		c-7.4,5.6-14.5,11.5-22.1,16.9c-16,11.3-20.8,26.1-19.4,45.8c1.3,19.6,10.3,34.9,19.1,54.4c18.5-27.3,13.7-57.3,22.8-84.3
		c0,9.9,0,19.9,0,29.8c1.2,0.2,2.4,0.5,3.6,0.7c2-4.1,4.4-8.1,5.8-12.3c3.7-11.4,6.6-23.1,10.8-34.3c1.1-3,6.4-4.2,8.3-7.1
		c2.6-4,4.8-8.8,5.2-13.4c2-22.3,6.8-43.5,23.6-59.6c4.5-4.3,10.8-6.8,18.5-8.1c-25.3,29.2-17.6,67.3-35.2,101.4
		c8-1.1,11.4-1.6,16.5-2.4c-1.4,6.8-2.8,13.2-4.7,22.2c17.3-23.8,31.2-45.5,15.8-73.6c18.7,3.3,22.9,7.2,20.6,24.2
		c-1.6,11.9-6.8,23.2-12.3,34.1c3.3-15.1,6.6-30.2,9.9-45.4c-1.9-0.3-3.8-0.6-5.7-0.9c0,4,0.7,8.1-0.1,11.9
		c-2,8.8-3.1,18.6-7.8,25.9c-5.9,9.3-9.4,17.3-2.8,27.5c16.4-4.2,21.5-17.7,25.9-32.9c9.2,8.6,6.3,15.7,0.4,23.3
		c-11.3,14.7-5.9,26.9,13,29.4c9.1,1.2,18.4,1.6,27.6,2.3c0.2,0.5,0.4,1,0.6,1.4c2.3,2.6,4.5,5.2,7.5,8.5c4.6-14.1,9-27.1,13.2-40.2
		c3.4-10.6,11.4-15,21.6-17.1c12.2-2.6,24.3-5.7,38.6-9.1c-10.1,5.7-18.7,11-27.7,15.5c-13.1,6.6-19.4,17.1-15.3,30.9
		c4.1,13.9,0.8,24-10.7,32.3c-9.5,6.9-14.9,14.7-6.6,26.7c1.9,2.7-0.4,9.1-2.1,13.3c-3.6,8.4-8.1,16.4-12.2,24.6
		c0.7,1.2,1.5,2.3,2.2,3.5c11.4-5.3,22.9-10.6,34.3-15.9c0.3,0.7,0.6,1.5,1,2.2c-4.8,2.5-9.5,5-14.3,7.5c0.3,0.7,0.6,1.4,0.8,2.1
		c4.3-1.2,8.6-2.5,12.9-3.7c0.4,0.9,0.8,1.9,1.2,2.8c-3.6,1.3-7.7,1.8-10.6,4c-3.1,2.3-6,5.9-7,9.5c-0.4,1.3,4.4,5,7.4,6.3
		c8.8,3.9,17.9,7.2,27.1,10.9c-14,8.5-27.7,16.8-41.8,25.4c4.6,5.5,7.3,8.8,10.1,11.9c3,3.3,6.2,6.4,9.3,9.6
		c2.2-4.2,4.4-8.3,6.3-11.8c4.6,7.1,4.5,7.3-6.6,17.9c3.1,0,5.6,0,8.4,0c0.7,18.3-16.1,7.2-22.8,14.3c8.1,10.2,8.4,21.4,3.2,33.6
		c-1.9,4.4-1.9,14.1-0.4,14.7c8.7,3.1,11-3.9,12.8-10.7c0.1-0.5,1.3-0.7,2.9-1.5c0,5.2,0,9.9,0,16.5c-11.3,8.6-23,10.4-33.9,0.5
		c-15.8-14.3-31.7-6.2-49.5-5.2c11.8,13.2,14.2,13.2,32.8,2.9c-1.5,3.5-2,9.1-4.6,10.3c-12.8,5.8-24.3,15.6-40.6,11.6
		c-7.2-1.8-15.7,1.7-23.6,2.8c0.1,1.6,0.2,3.3,0.2,4.9c4.4,0,8.9-0.6,13.1,0.2c5,0.9,11.6,1.5,14.4,4.8c7.9,9.6,15.4,8,24.8,1.5
		c7.8,17.3,24.7,11.3,38,14.8c5.4,1.4,11.5,0.7,17.2,0.3c13.1-1.1,17.5-7,14.6-22.4c6.9,4.2,12.3,7.5,19.3,11.7
		c13.7-6.3,28.1,0.6,42.9,6.6c6.5,2.7,13.9,3.4,20.8,5c0.3-0.6-0.6,1.2-1.5,3.3c2.7-0.5,5-0.9,8.6-1.5c-1.5,2-2,3.7-2.9,3.8
		c-5.6,1-11.3,1.4-16.9,2.4c-10.7,2-22.2,2.5-31.9,6.8c-16.5,7.3-32.5,8.7-50.2,5.8c-11.5-1.9-23.7,0.4-35.9,0.9
		c0.6,4.4,0.5,5.8,0.8,5.9c14,3.6,29.3,2.7,41.5,12.6c1.2,1,5.5-1.4,8.3-2.6c10.5-4.6,37.7,8.5,39.1,19.8
		c1.5,12.6,8.3,13.7,17.4,9.8c13.7-5.9,26.9-13.1,40.6-19.2c4.7-2.1,10-3.3,15.2-3.9c14.2-1.6,28.5-2.8,42.1-4
		c-10.6,11.5-27.6,14.1-43.7,18.4c-4.9,1.3-10.7,2.1-14,5.2c-3.2,3-6.6,10.6-5,13c2.4,3.9,8.8,6.4,13.8,7.2
		c17.9,3.1,35.7,4.6,52-6.7c1.1-0.8,5.8,3.7,9.3,6c-7.6,5.8-15.7,11.3-23,17.7c-7.4,6.5-4.1,20.6,5.4,28.9
		c6.5,5.7,13.5,11.4,18.2,18.5c9,13.7,22.1,18.4,37,19.5c11.3,0.8,18.2,4.3,14.4,18.3c4-1.9,6.2-3,8.4-4c0.6,1,1.4,1.8,1.3,2.4
		c-0.9,6.1-3.5,12.4-2.8,18.2c4.2,33.4,10.2,66.6,13.2,100.1c0.8,8.6-5.8,19-11.3,26.9c-8.8,12.7-19,24.5-19.9,40.9
		c-0.3,5.5,0,10.9-0.9,16.3c-7.2-17.2,0.6-32.1,8-47.2c13.7-13.4,24.1-28.1,20.6-48.7c-3.7-21.1-7.8-42.2-11.3-63.3
		c-1.5-9-1.8-18.2-2.7-27.3c-1.7,0.2-3.3,0.3-5,0.5c2.4,21.4,3.8,43,7.5,64.3c2.4,13.7,9.4,26.7,3.4,41
		c-4.6,10.9-8.9,21.8-13.3,32.8c-2.6,1.9-5.2,3.8-7.8,5.6c11.7-19,7.5-38.3,3.1-57.5c-1-4.1-2-9-4.7-11.9
		c-17.1-18.6-28.1-40.8-38.8-63.3c-2.2-4.6-7.7-9.9-12.3-10.6c-19.2-2.9-31.4-12.4-35.5-32.7c2.8,18.7,8.2,36.4-1.6,54
		c-9.1,16.4-19.9,30.6-39.1,36.6c15.8-12.6,12.9-29.3,11.9-48.6c-3.3,15.5-6,28.2-9.5,44.4c0-21.5,2-39.1-0.6-55.9
		c-2.5-16.4-9.2-32.2-15.4-47.8c-1.5-3.7-8-5.3-12.1-8.2c-4.3-2.9-9.1-5.5-12.3-9.4c-3.7-4.4-5.9-10-9.5-16.4
		c6.3,3,13.3,6.3,20.3,9.7c5.8-12.3,3-16.8-8.6-21.8c-14.6-6.3-28.2-15-43.4-23.3c-1.3,1.8-4.2,5.9-8.7,12c0-22.8-20.7-24-30.8-35.5
		c-4.1-4.7-9.8-8.1-13.3-13c-4.7-6.7-8.3-14-19.5-10.7c14.2,23.5,24,49.9,52.7,63c-8.2,2.8-14.7,5-21.5,7.3
		c14.2,26.4,14.2,26.4,30,20.9c-0.4,3.4-0.8,7.1-1.3,11.3c-2.4,0-6.7-0.8-10.6,0.1c-15.5,3.8-24.1,0.1-32.7-13.6
		c-6.7-10.7-14.7-20.7-20.9-31.7c-3.6-6.3-4.4-14-7.2-20.8c-2.3-5.8-4.5-15-8.6-16.1c-13-3.6-12.1-13.4-13.9-26.1
		c-17.3-2.6-35.6-5.9-54-7.7c-3.6-0.3-7.7,5.4-11.6,8.4c2.6,3.2,4.7,7.1,7.9,9.4c12.1,8.6,24.5,16.6,35.8,27
		c-11-4.8-22-9.6-35.8-15.6c1.3,19.3,14.2,28.3,26.5,39.2c-3.7,3.2-7.2,6.1-10.7,9.1c12.2,3.5,12.2,3.5,21.8-24.4
		c-3.4,17.5,17,35.6-2.7,52.8c-1.6,1.4-2.1,4.9-1.8,7.4c1.4,15.8,3.1,31.5,4.9,47.2c0.2,1.6,1.7,3,3.5,5.9
		c9-11.1,17.8-20.7,11.9-36.5c3.1,6,6.1,12,9.2,18.1c0.7-0.2,1.4-0.5,2.2-0.7c-1.6-5.8-3.2-11.6-4.8-17.4
		c11.8,9.9,12.9,33.4,2.5,45.6c-8.8,10.3-7.5,16.3,5.2,24.1c-8.3,15.6-5.3,31,3.9,44.4c12.3,17.8,17,34.3,1.7,52.7
		c-2,2.4-1.9,8-0.8,11.5c6.8,22,13.5,44.8,37.3,54.9c19.8,8.4,31.1,20.7,25.3,43.6c-0.8,3.1,0.3,6.6,0.6,10.4
		c-3-0.9-5.8-1.8-8.6-2.6c3.6-30.4-1.4-39.3-31.9-49c-27-8.6-42.9-28.1-52.1-52.5c-4.1-10.9,0.2-24.9,0.6-37.6
		c0.1-4.8,1.4-10.1-0.3-14.2c-6.3-15.1-13.7-29.7-21.8-46.9c2.1,16.8,2.7,31.8,6.1,46.2c6.1,26.2,8.8,51.5-2.2,77.3
		c-9.8,22.9,6.8,38,19.3,53.8c2.9,3.7,6.2,7,8.4,11.4c-15.1-5.9-21.9-19.5-29.1-32.3c-6-10.7-11.4-22.1-14.8-33.8
		c-2.1-7.1-1.5-15.9,0.6-23.1c6.2-21.5-2.1-33.6-24.1-33.2c-1.5,0-3-0.3-4.4-0.4c7.5-8.2,16.7-15,21-24.1c3.1-6.5-0.5-16.1-3-25.6
		c-4.4,28.9-25.5,35.4-48.5,39.8c4.7-1,9.4-2.1,16.6-3.7c-8.7,7.7-15.2,13.5-21.8,19.3c1,1.1,2,2.1,3,3.2c3.5-5.2,7-10.3,10.5-15.5
		c1.4,1,2.8,2.1,4.2,3.1c-2.1,8.2-20.9,15.1-3.9,27c-3.8-1.7-7.6-3.3-10.7-4.7c5.4,12.2,9.4,12.1,22.2-1.5
		c3.1,11.1-1.5,18.2-13.8,21.1c-7.4,1.7-17-6.4-19.2-16.2c-5-22.3,5.7-45,27.4-58.1c10.8-6.5,21.4-12.9,14.8-30.7
		c-5.8,7.6-9.8,15-15.7,20.2c-5.4,4.8-12.8,7.2-20.1,9c22.9-16.1,24.4-19.3,17.6-40.6c-23,2.6-28.7,16.1-26.6,62
		c-3-9.2-9.5-18.8-8.4-27.5c2.4-19.1,7.8-38,27.4-48.7c5.6-3.1,9.2-9.8,11.4-16.6c-5.9,4.7-11.8,9.4-17.7,14
		C542.8,703.8,542.5,703.4,542.2,703.1z M158,377.6c-3-2.5-5.9-5-8.9-7.6c-3.9,10.2-10,1.7-15,1.5c-4-0.2-7.9-1.9-13.4-3.3
		c2.7,10.5,1.7,19.5,13.9,22.1c10.5,2.3,12.8-4.4,16.9-10.5c1.1-1.6,4.4-1.7,6.6-2.5c-2,6.2-4.1,12.4-6.1,18.5
		c1.1,0.4,2.3,0.9,3.4,1.3c-3.3,1.9-6.6,3.7-10.5,5.9c2.2,5.1,4.1,9.5,4.7,10.9c8.4-2,13.9-3.4,19.4-4.7c7.4-1.6,14.8-3.1,22.2-4.6
		c1.6-1.9,4.8,1.3,6.4,0.6c7.9-3.4,15.3-7.9,23.5-12.3c-2.1-3.3-4.2-6.4-6-9.2c-7.7,4.3-14.6,8.2-21.5,12.1
		C181.6,376.5,173.7,372.4,158,377.6z M542.6,316.5c-4.5-5.7-9-11.5-14-17.8c5.5-0.5,12.3-1.2,18.6-1.8c-2.5-20.3-4.9-40.1-7.5-61.1
		c-9.7,4.4-14.1,7.6-8.9,16c1.7,2.8,1.9,7.7,0.8,11c-4.1,12.3-9.5,24.2-13.6,36.5c-1.7,5-3.5,14.2-1.6,15.3
		c5.4,3.2,12.7,3.6,19.3,4.3c2.3,0.3,4.8-1.7,7.3-2.7c-2,3.9-2.9,9-6,11.4c-11.7,8.8-24,16.6-36.1,24.8c1,9.1,17.7,11.9,10.2,24.9
		c-4.9-2-9.2-3.7-10.7-4.3c-10.2,8-18.1,14.4-29,23c9.9,0,15.6,0.1,21.3,0c6.8-0.1,15.1,2,20.1-1.1c11-6.9,15.8-2.4,20.2,6.9
		c2.6,5.4,5.3,10.8,7.9,16.2c0.4-0.3,0.8-0.7,1.2-1c-3.6-23.4-7.2-46.9-10.9-70.6C544.7,334.8,547.3,328.3,542.6,316.5z M617,430.9
		c29.8-3.5,32.9-7.3,23.4-31.5c2.6-0.7,5.1-1.3,7.6-1.9c19.2-5.1,22.3-13.8,11.6-30.3c-7.7-11.9-14.9-24.1-21.8-35.3
		c7.3,1.8,14.9,3.7,22.8,5.6c4.2-23-11.7-28.9-25.4-36c4.2-8.7,19.2-9.8,13.9-23.4c-19.3,1.1-36.7,5.4-48.8,21.5
		c-1.4,1.9-0.9,5.2-1.3,7.8c2.7-0.4,5.9,0,8-1.3c4.7-3.1,8.9-7.1,13.3-10.7c-3.9,16.2-4.4,34.5-28.9,33.2c0.8,1.3,1.7,2.6,2.5,3.8
		c4.7,0.6,9.5,1.1,17.5,2c-5.9,9.8-11.2,18.6-16.7,27.7c8.9,5.4,14.3-2,19.7-8.8c5.3-6.7,10.5-13.6,16.9-21.9
		c2.7,8.4,4.3,13.4,6.1,19.3c-14.4-6.6-15.7-5.9-14.3,8.9c0.9,8.7,3.5,17.3,5.3,25.5c-11.7-13-21.1-1.3-31.9,4.3
		c8.1,3,15.6,5.7,23.8,8.7c-8.6,4.2-7.6,9.7,0.4,15.4c-15.2,3.1-27.4,7.6-30,20.7c6.2,6.1,11.3,11.2,18.6,18.5
		C611.5,446.5,614,439.5,617,430.9z M523.3,400.4c-1.3-0.6-2.7-1.3-4-1.9c-6.7,6.2-12.7,13.3-20.2,18.3c-6.4,4.3-15.3,9.8-21.6,8.4
		c-22.3-4.9-37.8,3.2-49.6,22.2c4.9-2.1,9.7-4.1,15-6.3c2.9,1.7,6.4,3.8,9.8,5.9c0.4-0.5,0.8-1,1.1-1.5c-2.1-2.6-4.1-5.3-5.9-7.6
		c5.5-0.8,10.3-1.5,15.4-2.3c-0.7,1.6-1.3,3.1-0.8,1.9c5.5,2.2,12.3,3.2,16.2,7c7.5,7.5,7.1,15.3,1.3,24c-8.2-13.5-17.7-11.4-34.8,8
		c4.2,3.7,8.4,7.3,14.1,12.4c2.9-3.8,5.8-7.7,9.6-12.7c3.9,4.1,8,8.4,12.9,13.6c3.2-2.3,7.8-4.1,9.8-7.4c2.1-3.6,1.7-8.6,2.4-13
		c1.4,0.2,2.9,0.5,4.3,0.7c-1.5,8.8-3,17.5-4.5,26.3c-0.5,0,2.3,1,3.8,0c12.3-8.1,24.7-16.2,36.1-25.4c1.5-1.2-1-9.1-3.2-13.1
		c-3.4-6.4-8.1-12.2-12-18.3c-0.4-0.6,0.8-2.2,1.2-3.1c2.3,3,4.6,5.9,7.6,9.8c3.3-4.5,6.5-7.5,6-8.3c-4.8-7.6-10.1-14.9-14.4-20.9
		C520.4,411.3,521.8,405.9,523.3,400.4z M331.1,568.9c-0.4,0.7-0.8,1.4-1.3,2.2c2.5,1.3,5,2.6,7.5,3.9c2.5-6.7,5-13.3,8.6-23.2
		c1.5,8.6,2.6,15.1,3.7,21.5c1.1,5.9,2.2,11.8,3.6,19.2c5-5.1,9.6-9.8,13.9-14.1c12.3,20.8,12.3,20.8,22.6,10.5
		c-3.4-1.1-6.3-2-6-1.9c0-6.7,1.9-13.1-0.4-15.5c-3.4-3.4-9.7-3.8-15.9-5.9c4.3-2.2,7.2-3.7,10.7-5.5c-4.9-2.3-8.7-4.1-12.6-6
		c0.4-0.9,0.8-1.9,1.3-2.8c6.7,2.7,13.5,5.4,23.1,9.2c-11.5-8-20.7-14.5-29-20.3c2.7-7.5,5-13.8,7.3-20.1c-1-0.4-1.9-0.7-2.9-1.1
		c-2.2,4.8-4.5,9.7-6.5,13.9c-0.5-10.6-1-21.1-1.6-33.7c-18,6.2-30.5,4.1-41.8-8.9c-1.6,5.5-2.4,10.7-0.2,13.9
		c2.8,4.2,7.8,7,11.9,10.3c10.2,8.3,13.3,19.1,11.2,31.9c-1.3,7.7-1.7,15.5-2.6,23.6C335.6,570.2,333.3,569.6,331.1,568.9z
		 M153.8,687c3.8-3.2,7.5-6.2,10.8-9c-2.7-4.3-4.4-7-6.3-10.1c23.2-2.5,24.2-3.3,27.7-18.1c-4.5,0-9.6,0-16.1,0
		c-5.6,4-13.3,9.4-24,16.9c6.6-11.7,11-19.6,16.3-29c-7.2,2.1-11.8,3.5-16.4,4.8c0.9,0.7,1.7,1.4,2.6,2.1c-2.7,3.3-5.2,6.8-8.1,9.9
		c-3.3,3.5-9.4,6.2-10.2,10c-2.9,15.2-4.2,30.8-6.5,49.1c13.9-5.8,26-10.8,39.8-16.6C158.5,692,156.1,689.5,153.8,687z M278.9,433
		c-0.6,1.7-1.2,3.4-1.8,5.1c8,3,15.7,6.6,23.9,8.7c18,4.7,36.3,12.4,54.1-0.2c3.9-2.8,6.6-7.2,9.8-10.9c-0.9-0.9-1.9-1.7-2.8-2.6
		c-4.8,4.2-9.5,8.3-17.6,15.4c6.2-15.3-1.2-19.4-10.9-22.3c-2.5-0.7-4.3-3.7-6.4-5.6c-4.8-4.5-9.6-9-14.4-13.5
		c-0.9,0.9-1.8,1.8-2.7,2.7c0.5,2.3,1,4.6,1.7,7.7c-4-1.7-7.1-3.1-10.2-4.4c4.1,9.6,7.9,18.3,11.7,27c-0.8,0.5-1.7,1.1-2.5,1.6
		c-4.9-3.3-9.9-6.6-14.9-9.9c-1.9,2.9-3.5,5.1-4.6,6.8C286.4,436.4,282.6,434.7,278.9,433z M390.8,528.5c3.2-6.8,5.3-11.2,7.6-16.3
		c-6.1-3.1-11-5.7-14.8-7.6c2.5-5.5,4.9-10.6,6.8-14.6c-4.3-5.5-7.6-10-11.4-14.2c-1.9-2.1-5.3-5.6-6.7-5
		c-11.5,4.5-23.7,8.4-33.7,15.3c-7.5,5.2-1.6,13.4,4.9,11.9c10.6-2.4,15.6,2.4,22.3,8.5c-3.2-5.5-6.3-11-9.5-16.5
		c1.4-0.9,2.7-1.7,4.1-2.6C370.1,500.4,379.7,513.5,390.8,528.5z M373.3,422c-2.8-5.8-4-12.2-7.9-14.9c-3.4-2.4-9.8-0.5-14.5-0.5
		c0.6-3.2,3.2-8.5,1.6-10.5c-5.6-7.2-12.6-13.2-19-19.7c-1.2,0.1-2.4,0.1-3.6,0.2c1,6.9-0.3,16,3.6,20.4
		c11.3,12.5,24.7,23,37.6,34.6c-1.9,5.3-4.8,13.1-7.6,20.9c1.6,0.8,3.2,1.6,4.9,2.3c4.1-7.2,8.3-14.3,10.7-18.6
		c5.8,1.4,11.4,4.5,14.1,2.9c3.4-2,7.3-9.2,6.1-12C393.5,414.6,382.6,420.9,373.3,422z M236.9,293.8c19.1,6.4,25.9,16.3,14.6,33.5
		c11.8-2.1,21-3.7,30.7-5.4c0.5,5.3,0.9,8.9,1.2,12.6c1.6,1.3,3.2,2.6,4.9,3.9c5.1-5.7,10.2-11.5,15.3-17.2
		c-8.3-4.9-14.8-9.3-14.3-12.7c1.7-12-4.5-11.8-12.3-10c-4.7,1.1-9.1,3.2-15.6,5.6c2.9-6.7,4.4-10.4,6.7-15.6
		C258.2,290.1,250.2,291.5,236.9,293.8z M577.6,498.1c26.7,6.4,51.5,12.4,76.7,18.5c-2-2.6-3.9-6.9-7.1-9.1
		c-13.7-9.2-27.8-17.8-44.1-28.1c1.9,5.3,2.8,7.9,4.4,12.1C595.5,484.7,585.9,484.2,577.6,498.1z M638.4,190
		c-9.2,17.6-17.6,33.7-26,49.8c1.5,0.9,3.1,1.7,4.6,2.6c5.9-10,11.7-19.9,18.6-31.6c-1,14.6-1.8,26.6-2.8,42.5
		c6.2-4.6,12.3-7.4,12.1-9.3C642.7,227,655.2,209.1,638.4,190z M262.6,550.3c0.7-21.7,30.5-27,24.4-50c-18,8.2-39.5,36.6-35.6,46.9
		c-6.4,1.8-12.8,3.7-19.2,5.5c0.3,1.4,0.7,2.7,1,4.1C243.1,554.6,252.9,552.5,262.6,550.3z M678.7,213.5c0.9,3,1.6,4.5,1.9,6.1
		c2.5,13.1,7.3,26.1,1.8,39.7c-0.8,2,1.3,5.2,2.1,7.8c2.7-0.8,7-1,7.7-2.6c3.1-7.6,5.9-15.4,7.5-23.5
		C703.6,220.8,700.7,217,678.7,213.5z M308.1,539.9c6.7-16.5,6.7-20,0.1-28.9c-9.8-13.3-7.6-20,7.6-27.7c4.9-2.5,8.6-7.3,12.8-11
		c-0.9-0.9-1.7-1.8-2.6-2.8c-11.5,7.8-23.1,15.7-34.3,23.3C293.9,510.3,292.3,528.2,308.1,539.9z M212.3,541.6
		c15.9-2,18.6-14.1,14.4-31.5c-9.5,16-19.8,31.1-40.4,34.1c9.2,6,13.3,20,25.8,11.6C213.9,554.5,212.3,547.9,212.3,541.6z
		 M427.7,390.4c-10.2-7.8-19-13.6-23.8,2.4c-1.4,4.7-7.1,8.1-12.1,13.5c-0.6-5.5,0.3-9.7-1.4-11.2c-6.2-5.8-13.1-10.8-23-18.6
		c8.1,13,13.4,25.3,22.2,34.1c4,4.1,14.8,1.4,24.1,1.9c-2.1-7.2-3.2-11.1-4.1-14.1C416.3,395.4,422,392.9,427.7,390.4z M289,593.1
		c0.4,0.8,0.8,1.6,1.3,2.4c-2.9,1.6-5.8,3.3-8.7,4.9c-1.7-6.4-3.5-12.9-5.2-19.2c-1.5,2.7-4.4,6.2-5.6,10.2c-3,9.7,5,13.1,11.4,14.1
		c3.4,0.5,9.8-4.5,11.4-8.4c2.9-7.4,3.7-15.7,4.6-23.8c0.6-5.1,0.3-10.5-0.9-15.5c-0.6-2.4-4.3-4-6.5-6c-1.3,2.9-3.3,5.8-3.7,8.8
		c-0.8,5.4-0.2,11-1.2,16.4c-1.1,6-3.4,11.8-5.7,19.4C284.8,594.6,286.9,593.8,289,593.1z M449.9,800.3
		c12.1-21.3,14.4-42.6,1.9-63.9c-2.3-3.9-6.4-6.7-9.6-10c-0.3,4.7-2.2,10-0.6,14C449.1,759.7,459.2,778.4,449.9,800.3z M115,677.2
		c-11.5,11.8-22,22.6-32.4,33.5c-1,1-1.7,4-1.2,4.4c1.7,1.5,4.4,3.4,6.1,3c8-2.1,16.2-4.2,23.6-7.8c3-1.4,4.1-6.7,6-10.2
		c-1.5-1.1-3-2.2-4.5-3.4c-2.2,4.2-4.3,8.4-6.5,12.6c-0.7-0.8-1.4-1.6-2.1-2.4C107.7,697.1,111.3,687.3,115,677.2z M271.2,684.5
		c11.8-9.5,8.8-21.9,8.9-35.1C263.1,660.6,261.4,668.2,271.2,684.5z M250.3,590.2c0.7,0.6,1.4,1.3,2.1,1.9c3.1-4.5,7.6-8.5,8.8-13.4
		c1.8-7.2,1.3-15.1,1.8-23.7c-11,0.1-16.8,8.6-19.7,20.6c3.2-2.4,6.4-4.8,12.7-9.5C253.6,576.4,252,583.3,250.3,590.2z M136.6,345.1
		c9-11.2,16.1-20,24.7-30.7c-13.3,7.3-27.7,9.6-33,26.2C132.3,342.8,135.9,344.7,136.6,345.1z M241.3,526.1
		c3.5-5.5,7.2-10.9,10.4-16.5c5.9-10.5,5.8-10.5,0.5-14.5C234.8,513.1,232.5,519.9,241.3,526.1z M75.7,669.7
		c-14.7,8.5-17.7,18.4-17,31.9C72.4,695.4,72.7,684,75.7,669.7z M467.9,604.1c18.2,11.1,35.5,22.7,29.8,49.1
		C510.5,627.6,494.3,615.5,467.9,604.1z M760,511.6c9.9,7.1,28.6,2.9,41.1-11.2C785.6,504.7,772.9,508.1,760,511.6z M342.1,606.6
		c0,4.5,0,8.5,0,14c7.7-5.7,21.6-3.3,17.7-18.6C353.9,603.5,348.5,604.9,342.1,606.6z M552.6,414.3c2,0.2,3.9,0.3,5.9,0.5
		c0.7-11.3,1.5-22.6,2.2-33.9c-1.6-0.2-3.2-0.3-4.8-0.5C554.8,391.8,553.7,403.1,552.6,414.3z M453.1,364.2
		c-2.7-6.7-5.2-12.6-8.1-19.9c-5.8,2.9-11.2,5.5-19.4,9.5C436.7,358,444.2,360.9,453.1,364.2z M238.3,710.9c18,1.6,26-4.6,27.9-16.1
		C258,699.5,248.2,705.2,238.3,710.9z M389.3,622.9c-1.3,2.4-2.5,4.8-3.8,7.2c4.6,2.5,9,5.3,13.8,7c0.8,0.3,3.4-4.8,5.2-7.3
		C399.4,627.5,394.3,625.2,389.3,622.9z M441.9,302.6c-1.1-1.1-2.2-2.2-3.3-3.3c-4.6,3.8-9.1,7.7-13.7,11.5c2.9,2.6,5.8,5.2,9.3,8.3
		C437.6,311.9,439.8,307.2,441.9,302.6z M308.6,318.6c-1,0.6-2,1.2-2.9,1.9c1,6.6,2,13.1,3.5,22.8c5-7,7.8-11,11.1-15.6
		C315.8,324.2,312.2,321.4,308.6,318.6z M471.3,530.9c0.5-0.8,1-1.5,1.5-2.3c-9.2-3-18.3-6.1-27.5-9.1c-0.5,1-1.1,2-1.6,3
		c2,3.1,3.9,6.2,5.9,9.2c0.5-1.1,0.9-2.3,1.4-3.4C457.8,529.2,464.6,530.1,471.3,530.9z"/>
	<path d="M707.5,877.1c-7.3-8.1-15.5-15.7-21.8-24.6c-10.4-14.8-17.8-30.1-6.2-48.7c7.8-12.5-0.6-24.2-5.3-36
		c-4.5-11.2-7.5-23.1-10.5-34.8c-0.6-2.5,1.6-5.8,4-8.6c-2.2,17.1,3.1,31.4,11.6,45.6c7.7,12.9,10.1,26.8,1.8,41.3
		c-8.1,14.2-0.2,26.6,7.5,37.9c6.3,9.2,14.4,17.1,21.7,25.6C709.4,875.6,708.4,876.4,707.5,877.1z"/>
	<path d="M963.7,817.7c-8.9,6.9-17.7,13.8-26.6,20.6c-0.5-5-1.9-10.2-1.4-15.3c0.6-5.1,3.1-10.1,4.8-15.1c4.3,2.8,8.6,5.6,14.5,9.4
		c0.5-0.2,3.6-1.2,6.7-2.1C962.3,816,963,816.9,963.7,817.7z"/>
	<path d="M523.7,154.1c5-5.8,9.5-12.1,15.2-17.1c3.8-3.4,10.1-4.1,13.7-7.7c5.3-5.1,12.5-11.8,12.4-17.7c-0.1-4.6-10-9.1-16.8-14.6
		c0.3-0.2,3.7-3.2,4.6-2.5c6.2,4.3,13.8,8.3,16.9,14.5c1.9,3.9-2.2,11.9-5.5,16.9c-2.4,3.7-7.8,5.4-11.7,8.3
		c-9.3,6.9-18.6,13.9-27.9,20.9C524.4,154.7,524.1,154.4,523.7,154.1z"/>
	<path d="M543.2,704.2c-4.9,5-10.4,9.5-14.7,15c-11.5,14.5-13.3,30.9-8.4,48.5c3.9,14.3,2.2,19.2-4.7,23.7c0-8.8,1.5-19.4-0.3-29.4
		c-4.4-23.7,5.4-46.5,27.2-58.9C542.5,703.4,542.8,703.8,543.2,704.2z"/>
	<path d="M708.4,641.1c-11,0-18-4.8-19-15.6c-1.2-13.8-6.8-24.2-16.5-34.6c-5.7-6.1-5-18.2-5-28.3c0,16.6,7.7,28.8,19.5,39.6
		c3.3,3,4.2,9.6,4.6,14.7C692.8,628.3,695.7,637.6,708.4,641.1z"/>
	<path d="M524.8,155.1c-15.3,20.4-12.4,43.1-8.3,66c0,0,0.5-0.4,0.5-0.4c-2.8,0.9-5.6,1.7-7.4,2.3c0.6-13.1,2-26.6,1.6-40
		c-0.4-12.1,4.3-21,12.7-28.8C524.1,154.4,524.4,154.7,524.8,155.1z"/>
	<path d="M553.3,234.5c2.8-18.9,5.6-37.8,8.4-56.7c0.8,0.1,1.6,0.2,2.3,0.3c-1.9,19.1-3.7,38.1-5.6,57.2
		C556.7,235,555,234.8,553.3,234.5z"/>
	<path d="M760.5,158.7c27.6-9.2,26.2-21.5,17.4-39.1c9.8,4.1,11.4,11.5,9.8,19.5C784.8,153.5,774.4,158.7,760.5,158.7z"/>
	<path d="M275.6,777.8c-4.2-6.4-8.4-12.8-12.6-19.1c-5.1,5.6-10.2,11.2-15.2,16.8c-0.7-0.1-1.4-0.2-2.1-0.3
		c3.7-5.9,6.7-12.4,11.4-17.4c2-2.1,10.1-2.4,11.1-0.8c4.1,6.7,6.5,14.4,9.6,21.7C277,778.4,276.3,778.1,275.6,777.8z"/>
	<path d="M712.5,212.7c-0.2-0.5-0.4-1-0.6-1.4c-2.4-2.5-4.8-5-5.4-5.7c5.8-11.4,11.2-22,16.1-31.7c-2,12.6-4.1,25.8-6.4,38.9
		C716.1,213,713.8,212.8,712.5,212.7z"/>
	<path d="M127.2,319.5c-9.8,10-19.5,20-29.3,30c-1-1.1-2-2.3-3-3.4c10.1-9.6,20.3-19.3,30.4-28.9C125.9,318,126.6,318.8,127.2,319.5
		z"/>
	<path d="M509.8,430.1c6.8,14.1,12.4,25.5,18.7,38.5c-1.2,1.4-4,4.5-5.4,6c-2.3-6.4-4.8-12.8-6.7-19.3
		C514,447.7,512.3,439.9,509.8,430.1z"/>
</g>
</svg>
