<?xml version="1.0" encoding="utf-8"?>
<!-- Generator: Adobe Illustrator 21.0.0, SVG Export Plug-In . SVG Version: 6.00 Build 0)  -->
<svg version="1.1" id="Layer_1" xmlns="http://www.w3.org/2000/svg" xmlns:xlink="http://www.w3.org/1999/xlink" x="0px" y="0px"
	 viewBox="0 0 1000 1000" style="enable-background:new 0 0 1000 1000;" xml:space="preserve">
<path d="M359.3,825.9c0-30.4,0-60.8,0-91.2c-1.7,0-3.4,0-5.1,0c0,14,0,28.1,0,42.1c-1.5,0.1-3.1,0.2-4.6,0.3
	c-2-12.6-4-25.2-6.5-41.2c7-9.5,16.5-22.5,26.1-35.5c-32.4,17.5-65.2,23.1-100.1,11.1c35.2,5.9,68.4,2.9,99.3-21.7
	c-14.8-3.6-29.3-6.8-33-22.3c-4-17,1-33,8.4-48.1c1.4,0.2,2.7,0.3,4.1,0.5c-0.8,5.7-1.1,11.4-2.4,17c-3.6,14.8,4.7,31.7,17.4,34.7
	c11.4,2.6,24.4-7.5,27.4-22.6c7.7-38.7,6-77.6,3.2-116.4c-1.4-0.3-2.7-0.7-4.1-1c-4.8,12-9.6,24.1-14.4,36
	c-15.1-4-18.5-1.7-19.3,19.5c-10.1-3.6-18.4,4.2-18.2,16.4c0.1,7.3,4.4,16-6.1,21.9c-1.3-4.9-2.3-9.2-3.7-14.4
	c-11.9,8.7-14.6,29.1-35.7,23c-0.9,14.9-1.8,28.2-2.6,41.5c-0.6,0-1.2,0-1.8,0c0-10.8-1-21.6,0.3-32.2c1.5-12.5-7.9-16-15-15.1
	c-5.6,0.7-14.1,9.4-14.4,15c-1.6,23.1-0.6,46.4-0.7,69.6c0,4.5-0.9,8.9-3.9,13.1c-1.2-23.9-2.3-47.9-3.5-73.2
	c-27.3,13.6-42.1,36.2-56.9,57.5c-5.5,7.9-1,22.8-1,34.6c0,8.1,0,16.3,0,24.4c-1.5,0.1-3,0.2-4.5,0.3c-0.7-15.5-1.4-31-2.3-50.3
	c-19.3,21.9-42.1,37-38,69.2c2.4,18.8,0.4,38-2.6,57.2c0-24.2,0-48.5,0-72.7c-1.3-0.2-2.7-0.5-4-0.7c-18.8,22-37.7,44-56.3,66.2
	c-7.6,9-15.1,18.3-21.3,28.2c-2.8,4.5-3.1,11-3.6,16.7c-0.9,11-1.1,22.1-1.6,33.2c-1.6,0.1-3.2,0.2-4.8,0.2
	c-1.2-9.7-2.3-19.3-3.5-29c-1.2,0-2.5,0.1-3.7,0.1c0,37.3,0,74.6,0,111.9c-1.3,0.1-2.7,0.2-4,0.3c-0.8-2.4-2.2-4.8-2.2-7.1
	c0.2-29.1,2.3-58.3,0.2-87.2c-1.1-15.2,2.1-25,12.1-36.3c24-27.1,46.3-55.8,68.5-84.4c31.2-40.3,62-80.9,92.2-122
	c4.9-6.7,4.8-16.8,8.9-24.3c4.8-8.8,11.1-16.9,17.6-24.6c5-5.9,4.3-10.3-0.5-15.3c-1.7-1.8-3.1-4-4.6-6.1
	c-9.8-14.2-9.6-17.8,1.7-30.8c5.2-6,11.3-11.5,15.9-18c9-12.9,4.3-22.4-11-23.2c-6.2-0.3-12.5-0.1-21.9-0.1c0,32,0,62.9,0,93.9
	c-1.4,0-2.8,0.1-4.3,0.1c-0.8-2.5-2.4-5-2.4-7.6c0-23.6,0.4-47.2,0.5-70.8c0-2.5,0.4-5.4-0.7-7.5c-1.5-2.9-4.2-5.1-6.4-7.6
	c-1.7,2.8-4.6,5.4-4.8,8.3c-0.7,8-0.2,16.1-0.2,24.2c-1.7,0.1-3.4,0.2-5,0.4c-1-7.3-2-14.5-3.4-24.6c0,31.8,0,60.8,0,89.7
	c-1.7,0.1-3.4,0.1-5.1,0.2c-0.7-31.1-1.4-62.2-2.1-92.9c-19.9-3.3-18.7,9.6-20.4,21.1c-1.5-4.9-3.1-9.8-4.7-14.8
	c-29.1,7.8-44.5,28.3-51.8,55.4c-1.8,6.7-1,16.5,2.8,21.8c9.7,13.5,6.4,27.7,5.9,42.4c-7.2-23.6-14.2-46.6-20.7-67.9
	C82.7,600.9,85.8,624,114,694.5c-10.4-4-20.2-23.6-27.1-52c-5.1-20.7-3.8-40.8,3.6-60.9c-1.3-0.5-2.6-1-3.9-1.5
	c-7.1,13.2-14.1,26.5-21.4,40.1c-2.7-9.3,0.6-21.1,9.4-33.6c22.1-31.7,49.3-58.6,85.5-72.4c24.5-9.3,51.4-13,77.5-17.6
	c12.4-2.2,25.4-1.4,38.1-0.8c10.2,0.5,17.7-3.3,23.8-10.8c3.7-4.5,6.1-10.4,10.4-14.2c14.6-12.9,15.7-28.3,10.6-45.7
	c-4.5-15-8.1-30.2-12.2-45.3c-1.4,0.2-2.9,0.4-4.3,0.6c0,16.4,0,32.9,0,49.3c-1.5,0-3,0-4.5,0.1c0-19.3,0-38.5,0-59.2
	c-14.9,5.4-21.2,12.2-25.7,25.9c-8.6,26.6-8.2,53-5.8,80.1c-1.3,0.2-2.7,0.5-4,0.7c-1.1-4.1-3.2-8.2-3.2-12.2
	c0-18.1,0.7-36.2,0.9-54.4c0-4.1-0.9-8.1-1.3-12.2c-1.2-0.1-2.5-0.2-3.7-0.3c-0.6,12-1.3,24-1.9,36.1c-1.5,0-2.9,0.1-4.4,0.1
	c0-10.2,0-20.3,0-31.3c-16.6,6.9-16.4,6.7-21.8-9.4c-4.3-12.5-9.5-24.8-14.3-37.1c-1.2,0.1-2.5,0.3-3.7,0.4c0,26.7,0,53.5,0,80.2
	c-1.2,0-2.4,0-3.6,0c0-21-0.2-42,0-63c0.3-32.1-6.6-51.5-28.6-77.5c-1,11.1-1.9,20.7-2.8,30.4c-0.9,0-1.8,0-2.7,0
	c0-10.6,0-21.3,0-31.9c-1.7,0-3.3,0-5,0c-0.4,8.3-1.6,16.7-1.1,24.9c1,17.3,3.1,34.5,4.2,51.7c0.2,3.8-2,7.8-3,11.7
	c-1.4-0.2-2.8-0.4-4.2-0.6c-0.7-22.4-1.4-44.8-2.1-67.2c-0.1-4.6-0.3-9.3-0.3-13.9c-0.1-20.1-4.6-25.7-23.7-30.2
	c-9.6-2.3-21.7,4.5-27.9,15.6c-7.9,14.2-6.7,30.1,5.1,38.8c10.1,7.5,22,12.4,36.5,20.3c0,28.8,0,62.4,0,96c-1.4,0.3-2.8,0.6-4.1,0.8
	c-0.9-4.1-2.6-8.1-2.6-12.2c-0.2-23.2,0.1-46.4,0-69.6c0-4.2-1.3-8.4-1.9-12.6c-1.3,0.1-2.5,0.2-3.8,0.3c0,16.4,0,32.9,0,49.3
	c-1,0-2.1,0-3.1,0.1c-0.7-14.6-1.6-29.1-2.2-43.7c-0.3-7.9-3.4-11.8-12.7-9.9c-0.4,3.8-0.8,7.9-1.1,11.2
	c-11-17.3-22.5-34.7-33.1-52.6c-2.1-3.5-1.3-8.8-1.5-13.2c-0.2-4.5,0-9,0-15.7c-16.9,11.6-22.1,26.6-19.1,42.8
	c2.8,15.2,9.6,29.6,14.2,43c-15.1-4.6-23.4-44-18.5-60.5c7-23.5,18.4-44.7,67.9-49.6c-13.4-8.3-26.7-16.6-41.4-25.7
	c-2,5.1-3.3,8.3-4.3,10.9c-1.7-3.6-2.6-8.9-5.7-11.7c-3.1-2.7-8.4-2.8-15-4.7c0,18.4,0,35.3,0,52.2c-1.4,0-2.8,0-4.1,0
	c-5.6-18.7,4.2-40-7.5-61.4c14.4,2.6,30,2.5,42.9,8.4c21.7,9.8,42.6,22.1,62.3,35.7c16,11,31.4,10.1,48,5c2.5-0.8,5.7-3.3,6.2-5.5
	c3-14.3,14.1-21.4,24.7-29.1c4.9-3.5,7.3-7,2.2-12.2c-14.1-14.5-28.2-29.1-42.4-43.6c-1-1.1-2.8-1.5-6.4-3.3c0,13,0,24.4,0,35.8
	c-1.6-41-3.5-46.6-21.8-56.2c0,20.6,0,40.9,0,61.2c-1.4,0.1-2.8,0.2-4.2,0.3c-0.8-3.7-2-7.4-2.2-11.1c-0.8-14.7-1.9-29.5-1.7-44.3
	c0.2-16.7-7.2-28.7-20.7-38.3c0,14,0.4,27.6-0.1,41.2c-0.5,12.6,7.4,25.9-0.8,38c-1.8,0-3.6,0.1-5.5,0.1c0-28.8,0-57.6,0-86.4
	c-1.4-0.3-2.9-0.6-4.3-1c-4.9,3.9-9.8,7.8-15.1,11.9c-7.3-8.7-3.2-16.4,1.4-21.4c23.2-25,47-49.4,71.2-73.4c4-3.9,11.3-4.4,17.1-6.4
	c1,1.4,2,2.9,3.1,4.3c-5.3,7-10.6,14-16.3,21.6c23.1,24.9,46.3,49.8,69.5,74.8c10.6,11.4,21.5,22.7,31.8,34.4
	c6.2,7.1,10.5,7,17.1-0.2c8.5-9.4,18.7-17.3,28.2-25.9c1.5,1,2.9,2,4.4,3c-2.5,6.7-4.1,13.8-7.5,20c-13.7,24.9-13.1,28.5,10.8,48.1
	c1.3-0.7,3-1.2,4.1-2.3c21.2-24.4,33-52.8,32.6-85c-0.1-9.4-7.5-18.7-11.5-28c-1.7,0.4-3.5,0.7-5.2,1.1c-0.7,12.2-0.7,24.4-2.2,36.5
	c-1.3,10.8,7.2,23.3-1.6,32.8c-1.7-0.2-3.4-0.4-5.1-0.6c0-20,0-40,0-60c-0.6,0-1.2-0.1-1.8-0.1c-0.7,3.9-1.3,7.8-2.5,14.7
	c-3-3.8-4.6-5.5-5.9-7.4c-0.3-0.5,0.2-1.6,0.3-2.4c3.1-27.1,3.1-27.1-24.5-27.3c-1.2,0-2.3-0.8-3.5-1.3c8.3-14,37.3-10.2,63.3,8.2
	c0.3-30.1-37.9-66.7-93.8-49.4c4.7-7.9,11-10.3,32.9-9.2c34.5,1.7,56.9,20.2,70.6,51.8c-1.6-6.4-2.8-12.9-4.9-19.1
	c-2.3-6.8-5.2-13.3-8.3-19.8c-3-6.1-6.5-12-9-18.3c41.6,40.6,48.4,114.8-4.8,205.3c3.4,2.9,7,6.1,13.2,11.5
	c12.1-25.1,27.3-47.5,33.3-72.1c5.9-24.3,2.4-51,3.1-78.8c3.6,10.5,8,19.4,9.8,28.8c7.5,39.5-1.8,76-20.3,111
	c-12.6,23.9-12.4,24.5,6.5,42.8c13.5,13.2,28.1,25.3,42.6,38.3c15.8-17.6,31.1-34.2,45.7-51.5c2-2.3,1.4-8.4-0.1-11.8
	c-8.7-19.2-17.9-38.2-27.3-57c-12.5-25.2-23.2-50.9-20.4-79.9c0.6-6.7,2.8-13.3,6-19.9c-4,54.9,26.9,94.8,55.7,135.6
	c0.4,0.6,3.5-0.8,7.5-1.7c-23.2-27.3-38.1-57.6-47.9-90.2c-10.7-36-12.3-72.2,4.5-107.3c2-4.2,5.5-7.6,10-13.6
	c-4.8,20.6-8.9,38-13,55.5c1.3,0.6,2.6,1.2,3.9,1.8C488,30.1,506.1,9,536.4,3.3c8.5-1.6,17.9,1.8,26.9,5.6
	c-21.2-4.5-39.9,0.7-56.1,13.6c-16.3,12.9-26.5,29.8-28.3,51.7c16.2-20.3,38.6-24.8,62.1-25.6c4.6-0.2,9.3,3.6,13.2,8.3
	c-9.3,0-18.6,0-30.7,0c0,34.2,0,66.4,0,98.6c-1.9,0-3.9,0-5.8,0c-3.7-29.7,3.4-59.8-0.4-89.6c-16.3,3.9-31.1,25.4-28.5,42.6
	c3.5,23.5,9.3,46.6,24.6,65.6c6.7,8.2,15.5,14.7,22.6,21.2c3.4-1.5,4.3-1.7,4.8-2.2c20.6-23.1,20.5-23,3.5-48.8
	c-3.4-5.2-5.6-11.2-8.3-16.8c1.5-1,2.9-2,4.4-3c13.2,10.1,26.3,20.2,41.4,31.7c34.6-42.5,69-84.7,103.3-126.8
	c-7.4-6.4-14.1-12.2-20.9-18.1c0.9-1.8,1.7-3.5,2.6-5.3c5.8,0.5,12.6-0.7,17.4,1.8c34.5,17.8,65.3,40.4,87.4,73.2
	c0.6,0.9,0.7,2.3,1.3,4.5c-12.5,2.6-10.8,12.4-10.8,21.4c-0.1,9.4,0,18.8-2.9,28.2c0-14-0.2-28,0.1-41.9c0.2-8.8-3.3-14.5-11.8-16.7
	c-16.6,13.7-26,29.7-23,52.4c1.9,14.1,0.5,28.7,0.1,43c-0.1,3.1-2.1,6.1-3.2,9.2c-1.1-0.3-2.2-0.5-3.4-0.8c0-22.2,0-44.3,0-68.5
	c-10.9,12.8-24,22.8-22.9,42.1c-1.3-2.1-2.5-4.1-4.8-7.8c-14.8,19.3-28.7,37.6-43.4,56.9c10.6,8.7,20,16.9,30.1,24.2
	c2,1.4,7.3-0.2,10.3-1.9c12.5-7,24.4-15.2,37.2-21.7c12.3-6.3,25.3-11.4,38.4-16.1c3.9-1.4,9,0.8,13.4,3.1
	c-29.8,4.2-50.7,21.6-73.9,43.1c40.3,7.1,55.6,32,56.9,66.5c0.7,17.7-10,35.2-19.2,38.9c4.3-11.3,12.4-23.4,12.7-35.7
	c0.4-13.9-6.1-28.1-10.2-41.9c-0.4-1.4-5.3-1.5-10.7-2.9c-2.6-11.5-7.6-15.7-21.6-15.4c11.5,17.8,11.5,35.8,2.6,54.9
	c-3.7,8-4.7,17.3-6,26.2c-1.2,8-1.1,16.3-1.6,24.4c-1.6,0-3.1,0-4.7,0.1c-0.7-9.8-1.4-19.6-2.1-29.4c-1.5,0-2.9,0-4.4,0
	c0,23.1,0,46.1,0,69.2c-1.7,0.1-3.4,0.2-5.2,0.4c-0.8-2.7-2.2-5.4-2.2-8.2c0-12.2,0.5-24.5,0.8-36.7c0.3-11.9,3.9-25.7-17.6-26.9
	c23.3-8.6,39.3-20.8,35.8-46.3c-1.2-8.4-5.4-15.9-17.3-16.9c0,11.7,0,22.6,0,33.6c-0.7,0-1.4,0-2.1,0c-0.7-11.4-1.4-22.9-2.1-34.3
	c-1.2-0.8-2.4-1.6-3.6-2.4c-4,3.5-8.1,7.1-11.7,10.2c-0.9-1-3.3-4-5.8-6.9c-1.6,3.4-4,6.7-4.6,10.2c-1.4,8.2-1.8,16.6-2.7,24.9
	c-1.5-0.1-3.1-0.2-4.6-0.3c0-10,0-20,0-30.4c-10.3-0.2-13.7,3.8-13.6,12.2c0.2,20.7,0,41.3-0.3,62c-0.1,5.2-1.3,10.4-4.4,15.5
	c-5.6-26.8,0.2-53.7-3.7-82.1c-5.4,8.7-13.2,16.8-15.8,26.2c-10.3,37.8-19.1,76-27.9,114.1c-0.8,3.6,1.3,9,3.9,12
	c24.4,27.7,48.9,55.3,74.1,82.2c4.5,4.7,12.4,6.9,19.2,8.6c19.6,5,39.4,9.6,59.3,13.4c34,6.6,62.9,23.5,91,42.6
	c12.5,8.5,27.6,35.9,26.7,51.3c-6.7-12.3-10.9-22.6-17.5-31.1c-6.8-8.7-15.9-15.6-26.1-21.9c11.1,19.1,19.3,38.3,18.8,60.4
	c-0.5,21.4-5.1,41.4-19.9,58.2c3.8-11.1,8.4-21.9,11.3-33.2c4.6-17.8,4.9-36-1.1-53.6c-1.9-5.5-6.3-10.2-11.4-18.2
	c-6,18.1-3.6,36.3-20.5,45.5c9-18.1,14.6-36.5,2.4-54.7c-4.3-6.4-11.7-10.8-20-18.1c-1.3,10.9-2,17.6-2.8,24.3
	c-1.2,0.1-2.4,0.1-3.6,0.2c-1-8.3-1.9-16.6-2.9-24.9c-1.4,0-2.9,0.1-4.3,0.1c0,24.3,0,48.6,0,72.8c-1.7,0.1-3.3,0.2-5,0.4
	c-0.8-4-2.3-8-2.3-12c-0.2-16.9-0.8-33.8,0.4-50.6c0.9-13.2-4.5-17.7-18-17.1c-0.8,7.1-1.5,14.2-2.6,24.3c-2-11-0.9-21.8-5.5-25.6
	c-5.7-4.6-16.3-3.3-25.6-1.8c4.2,3.8,8,8.1,12.7,11.3c11.2,7.6,11.8,17.4,4.4,26.9c-10,12.8-7.1,21.1,4.5,31.3
	c6.8,6,9.4,16.9,13.9,25.6c1.1,2.2,2,4.7,3.6,6.5c20.1,22.7,39.8,45.8,60.6,67.9c37.2,39.7,75.1,78.8,112.6,118.2
	c13.3,14,26.6,28.1,39.7,42.3c1.9,2.1,4.5,4.7,4.4,7.1c-0.1,22.4-0.6,44.7-1.1,67.1c0,1.4-1.5,2.8-3.5,6.3c-1.2-4.5-2.3-7-2.3-9.5
	c0.1-13.1-1-26.4,1.1-39.2c3.9-22.5-7.4-36.7-24.3-50c-5.5,18.2,2.2,37.3-4.5,54.9c-5.9-24.8,8.6-52.5-15.4-74.1
	c0,12.6,0,25.3,0,37.9c-1.3,0.1-2.5,0.2-3.8,0.4c-0.5-4.4-1.8-8.9-1.4-13.2c2.7-25.3-6.9-44.5-26.2-60.7
	c-11.1-9.4-19.7-21.8-29.4-32.9c-1.4,0.9-2.8,1.8-4.2,2.7c-1,3.3-1.9,6.7-3.6,12.1c-1.7-16.1-4.9-29.7-20.9-36.3
	c0,12.4,0,24.3,0,36.3c-1.3,0-2.5,0.1-3.8,0.1c0-9.1-0.4-18.3,0.1-27.4c0.6-10.8-2.5-19.2-10.4-27.1c-25.3-25.3-49.9-51.3-75-76.8
	c-2.7-2.7-6.8-4-10.2-5.9c-1.4,3.6-3.9,7.1-4,10.7c-0.5,14.8-0.2,29.6-0.5,44.4c-0.1,4.7-1,9.3-1.6,14c-1.4,0-2.7-0.1-4.1-0.1
	c-0.3-4.2-0.7-8.3-0.7-12.5c0.1-18.2,0.3-36.3,0.8-54.5c0.4-14-11.4-19.1-19.6-26.1c-4.8-4.1-18.3,7.4-18.5,15.7
	c-0.5,19.8-0.5,39.6-0.8,59.5c-0.1,4.1-0.3,8.1-0.5,12.2c-1.1,0-2.2,0-3.4,0c0-13.8,0-27.7,0-41.5c0-7.2,0.5-14.3,0.3-21.5
	c-0.3-11.7-1-12.3-15.8-15.5c0,11.2,0,22,0,32.7c-1.8,0.3-3.6,0.7-5.4,1c-1.8-21.9,9.6-48.8-20-59.7c0,24.5,0,49.9,0,75.2
	c-1.8,0-3.7,0.1-5.5,0.1c0-14.8,0.1-29.7,0-44.5c-0.1-11.8,0.2-23.7-1-35.4c-1-10.6-1.8-10.5-8.1-10.4
	c-11.7-13.4-21.5-24.6-33.8-38.8c-1.6,9.4-2.4,14.5-3.5,20.8c-1.2-8.5-2.2-16-3.3-23.9c-9.6-1.7-12.3,3-12,11.2
	c0.5,15.2,1.1,30.4,1.3,45.5c0.1,5.1-1.1,10.3-4.2,15.4c-7.8-21.5,0.3-43.9-4.2-68.6c-9.8,6.6-18.1,12.2-29.9,20.2
	c0-18.6-0.7-35.2,0.2-51.8c1-19.3,1.6-19.2-17.6-31.9c-1.4,8.4-2.4,16-3.9,23.5c-7.2,36.2-8.4,72.8-6.8,109.6
	c0.5,10.5,1.7,21,3.6,31.4c2.3,13.4,17.9,19.9,34.9,15.3c13.2-3.6,17-11.5,11.2-26.3c-2.7-6.8-7.7-12.7-11.5-18.9
	c10.8,0.6,21.6,15.3,21.5,29.7c-0.2,19-13.1,28.9-41.6,30.6c10.3,15.3,24.8,22.8,40.5,26.4c15.6,3.6,31.9,4,47,5.7
	c-17.7,12.8-51.5,3.8-92-25.5c-0.8,12.5,4.9,22.1,27.2,46.8c-2.5,6.3-6.1,10.9-6,15.5c0.4,21.9,2,43.8,2.8,65.7
	c0.2,5.3-1,10.7-1.5,16c-1.7,0.1-3.3,0.2-5,0.3c-1-4.4-2.6-8.8-2.8-13.2c-0.9-26.9-1-53.9-2.5-80.7c-0.3-6.2-5.1-12.1-9.5-17.6
	c-4.1,12.3,6.1,24.7-0.8,36.2c-1.3,0.1-2.6,0.3-3.9,0.4c-1-4.5-2.1-9-2.9-13.6c-3.4-18.1-4.5-36.9-10.4-54
	C474.8,632.9,470,577.6,472,521.2c0.7-21.1,0.6-42.2,0.1-63.3c-0.1-5-3.6-9.9-6.6-17.5c-11.6,13-21.9,21.7-19.8,38
	c1.8,13.8,2.1,27.8,2.5,41.7c0.2,6.4-0.9,12.8-3.7,19.1c-7.3-20.9-2.3-42.5-4.8-64.4c-17.6,11-20.4,26.3-19.7,45.1
	c2.2,59.7-6.9,117.6-32.7,172.2c-0.4,0.8-0.4,1.8-1,2.3c-24.1,24.2-19.4,54.8-19,84.5c0.2,11.8,1.1,23.6,0.9,35.4
	c-0.1,4.1-2.3,8.3-3.5,12.4C362.9,826.4,361.1,826.1,359.3,825.9z M158.8,68.8c37.8,40.2,74.7,79.4,112.6,119.7
	c8.6-9.3,15.6-16.9,23.2-25.1c-36.9-40.2-73-79.4-109.5-119.2C176.1,52.6,167.9,60.3,158.8,68.8z M283.4,537.5
	c-15.9-4.6-15.9-4.6-20.2,1.1c-8.4,11.1-17.1,21.9-24.7,33.5c-2.1,3.2-2.7,10.4-0.7,12.6c12.2,13.1,24.5,26.3,38.7,37.1
	c6,4.5,20.1,7.1,24.3,3.5c8.8-7.7,19.5-16.5,18.8-31.1c-0.7-14.7-1-29.4-1.2-44c-0.2-14.4-2.4-16.8-19-17.7c0,16.5,0,33.1,0,49.6
	c-4-13.7-5.8-27.3-6.2-41c-0.4-14.5-2.3-16.4-18.6-14.5C277.6,530.3,280.5,533.9,283.4,537.5z M155.8,74
	c-25.8,26.9-27.2,18.6-2.3,44c16.7,17,33.6,33.8,50.2,50.9c14,14.4,27.6,29.2,44.6,47.2c4.7-6.7,7.5-13,12.2-16.7
	c7-5.6,6.2-9.6,0.6-15.1c-9.6-9.5-18.8-19.3-28.1-29.1C207.5,128.5,182,101.6,155.8,74z M419.2,476.7c18.9-21.1,39.2-38.6,52.6-60.3
	c13.6-22.1,12.9-49.8,17-75.7c-29.6,11-12.3,37.6-19,55.7c-1.5-0.2-3-0.4-4.5-0.7c-0.4-8.2-0.8-16.3-1.4-27.5
	c-5.9,10-10.3,17.5-15.1,25.7c-4.8-5.5-7.8-9-12.2-14c-2.8,21.4,6,41.3-5.4,59.7c-2-3.7-2.8-7.4-2.8-11.2c0.1-14.3,1-28.7,0.4-42.9
	c-0.4-10.9-3.9-20.8-16-23.7c-14.1,8.3-3.5,14.6,2,22c-5.7,0-10,0-14.7,0C406.4,414.2,412.5,443.8,419.2,476.7z M690.8,32.7
	c-34.1,43.5-67.4,85.9-101.7,129.6c7.4,5.4,14,10.2,21.9,16C645.6,135.2,679.4,93,713.9,50C705.6,43.8,698.6,38.6,690.8,32.7z
	 M616.3,181c5.4,4.4,9.5,7.9,13.7,11.2c6.2,4.9,10.8,3.9,15.8-2.6c14.3-18.5,29.3-36.5,43.9-54.8c11.8-14.9,23.7-29.7,35-45
	c4.8-6.4,11.6-14.2,11.1-20.8c-0.4-5.4-10.4-10.1-17-15.9C683.7,96.9,650.3,138.5,616.3,181z M718.9,566.3c-9-9.5-15.6-19.8-25-25.3
	c-9.4-5.5-21.6-6.4-32.7-8.6c-1.4-0.3-5.2,4.3-5.3,6.8c-1.2,21.7-2.5,43.5-2.5,65.3c0,12.5,5.2,15.9,17.2,11.9
	C695.6,608.3,710.2,589.6,718.9,566.3z M325.5,147.8c-0.9-0.6-1.9-1.2-2.8-1.8c-32.1,32.3-64.2,64.7-96.4,97c0.7,1,1.4,2.1,2,3.1
	c6.2-3.7,12.3-7.5,19.3-11.7c6,8.6,13.8,7.6,22.7,3.2c9.7-4.8,20.2-7.8,29.8-12.8c13.2-6.9,25.8-14.9,40.1-23.2
	c-10.6-12.4-19.3-22.5-27.3-31.9C317.5,161.6,321.5,154.7,325.5,147.8z M544.4,202.8c27.7,8,53.3,15.4,79,22.7
	c1.5,0.4,4.4,0.2,4.8-0.6c7-12.8,14.8-4.7,22.6-1.2c2.2,1,5.1,0.4,7.6,0.6c0.5-1.1,1-2.2,1.5-3.2c-33.3-23.6-66.6-47.3-99.9-70.9
	c-1.2,3.2-1,5,0,5.9c8.6,7.8,8.8,14.8,0.2,23.4C554.4,185.2,550.8,193.1,544.4,202.8z M582.2,423.4c-5.2,27.4-13.3,51.7-8.1,77.9
	c26.7,0,52.4,0,81.1,0C630.1,474.5,607,449.9,582.2,423.4z M533.5,335c1.5,0.4,2.9,0.8,4.4,1.2c6-8.2,13.5-15.7,17.5-24.8
	c5.2-11.8,7.6-24.8,11-37.4c6.6-25.1-1.9-48.6-34.5-48.2c1.4,3.2,2.8,6.3,5.1,11.5c-6.3-2.2-10.3-3.6-17.6-6.1
	C535.2,266.3,537.4,300.3,533.5,335z M270.2,274.6c-23.9,11.4-30,45.3-12.2,62.9c1.7,1.7,6.2,2.1,8.7,1.3c13-4.5,26.2-8.9,38.7-14.7
	c17.5-8.2,17.2-8.7,3.3-21c-1.8-1.6-2.9-4-4.7-5.7c-8.2-7.8-16.6-15.6-25.6-23.9c-5.5,16.9,2.8,33.5-8.2,47.2
	C270.2,305.6,270.2,290.7,270.2,274.6z M524.9,480.2c5.3-30.5,10.7-61.1,16-91.8c0.4-2,0.9-4.8-0.1-6.2c-2.8-3.8-6.4-7-9.6-10.5
	c-1.9,3.4-4.8,6.6-5.6,10.3c-4.8,21.4-9,42.9-13.6,64.3C507.8,465.6,510.8,473.6,524.9,480.2z M629.2,585.9
	c12.6-7.5,22.6-16.4,18.4-33.4c-0.7-2.8,0.7-6.1-0.2-8.7c-1.6-4.4-4.3-12.1-6.4-12.1c-8.7,0.1-21-0.3-25.4,5
	C605.7,548.2,615.1,576.8,629.2,585.9z M334.8,302.7c-1.6-23.5-2.8-42-4.2-61.7c-17.3,8.7-32.5,16.4-48.8,24.6
	c7.5,6.3,14.1,11.8,20.1,16.9c6-4.2,10.9-7.5,15.7-10.9c0.8,1,1.6,2,2.4,3c-3.2,5.1-6.5,10.2-10.9,17.3
	C317.5,295.5,324.8,298.6,334.8,302.7z M343.1,270.1c7.2-9.4,13.6-17.1,19.4-25.3c3.6-5.2,12.3-8.8,5-17.9
	c-6.9-8.4-12.3-6.1-18.4,0.2c-2.9,3-6.3,5.5-9.4,8.4C331.4,243.2,335.4,267,343.1,270.1z M125.9,89c14.8-13.7,42.5-39.3,70.2-65
	C162.2,43.8,138.4,73.3,125.9,89z M377.7,459.1c-6.5,9.1-4.4,56.5,2.2,66.4C394.5,512.4,389.1,485.7,377.7,459.1z M249.7,611.6
	c-7.4,9.3-14.7,17.4-20.6,26.5c-1.7,2.7,0.6,8,1.1,12.1c3.5-0.7,8.2-0.2,10.2-2.3c8-8.2,15.1-17.2,23.1-26.6
	C258.3,617.6,254.6,615,249.7,611.6z M696.7,610.9c6.9,7.4,12,13.7,18,18.9c2.4,2.1,6.9,1.8,10.4,2.6c0.4-3.8,2.5-8.7,0.9-11.1
	c-5.3-7.8-12-14.7-18.9-22.8C702.8,603.7,699.6,607.4,696.7,610.9z M359.7,404c5.9-14-7.2-62.5-16.1-67
	C349.1,360,354.4,382,359.7,404z M325.9,498.3c1.4-1.1,2.8-2.3,4.2-3.4c-2.7-5.9-5.4-11.9-8-17.8c-6.3,5-12.7,9.9-19,14.9
	c0.7,1.1,1.4,2.2,2.1,3.3C312.1,496.3,319,497.3,325.9,498.3z M88.7,294.6c8.1-11.7,15.7-22.7,23-33.4C93,260.8,86.3,270,88.7,294.6
	z M551.2,337.2c-19.7,20.9-20.1,23.4-5.4,29.5C547.4,357.7,549.1,348.9,551.2,337.2z M646.8,606c0-10.1,0-17.8,0-25.9
	c-5,3.8-9.8,7.3-15.2,11.5C637.4,597.1,641.1,600.7,646.8,606z M606.4,539.7c-1-1.7-2-3.3-3-5c-6.9,1.8-13.8,3.6-22.6,5.8
	c4.5,4.9,7.2,7.8,11.4,12.4C597.4,548,601.9,543.9,606.4,539.7z M326,594.4c1.1,0,2.2,0.1,3.2,0.1c0-10.4,0-20.9,0-31.3
	c-1.1,0-2.2-0.1-3.2-0.1C326,573.5,326,584,326,594.4z M755,74.4c0.9-1,1.9-2.1,2.8-3.1c-8.5-7.5-16.9-14.9-25.4-22.4
	c-1,1.2-2.1,2.3-3.1,3.5C737.8,59.7,746.4,67,755,74.4z M345.5,292.9c-8.1,20.2-7.9,21.8,3.8,27.5C348.1,311.6,347,304,345.5,292.9z
	 M395.8,342.2c-1.8,0.6-3.7,1.2-5.5,1.8c2,6.7,4,13.3,6.1,20c2-0.7,4.1-1.4,6.1-2.1C400.3,355.4,398,348.8,395.8,342.2z"/>
</svg>
