<?xml version="1.0" encoding="utf-8"?>
<!-- Generator: Adobe Illustrator 21.0.0, SVG Export Plug-In . SVG Version: 6.00 Build 0)  -->
<svg version="1.1" id="Layer_1" xmlns="http://www.w3.org/2000/svg" xmlns:xlink="http://www.w3.org/1999/xlink" x="0px" y="0px"
	 viewBox="0 0 1000 1000" style="enable-background:new 0 0 1000 1000;" xml:space="preserve">
<path d="M252.1,497.7c-1.3,3.3-2.5,6.7-3.9,10.2c-0.5-1.1-1.2-2.3-1.9-3.8c-1.6,1.5-3,2.8-4.6,4.4c0-1.1-0.3-1.8-0.1-2
	c5.2-4.3,6.1-10,5.8-16.4c-0.4-8.7-0.1-17.5-0.1-26.5c-1.9,0-3.4,0-5.1,0c0.3-0.7,0.4-1.1,0.7-1.3c8.8-5.2,3.5-13.3,3.9-20
	c0.3-5.9-4.4-5.8-9-6c-5.5-0.3-10.9-1.4-15.8-2.1c-5.1,11.9-9.9,23.2-14.9,34.7c23.6,19.5,23.5,39.5-1.7,52.9
	c6.2-12.6,4.4-22.6-6.9-30.4c-4.4-3-8.2-4.8-12.3,0.1c-0.7,0.8-2.3,0.8-3.5,1.2c1.7-2.4,3.3-4.8,5.2-7.5
	c-14.2-6.6-23.7-16.7-21.4-33.5c1.9-13.3,10.8-21,24-26.3c-18.4,22.5-15.9,30.8,13.1,41.6c1.9-10.4,3.7-20.4,5.4-30.4
	c0.8-4.7-1.2-7-5.6-8.8c-31.3-13-49.1-36.2-51.8-70c-16.6-7.2-46.8-0.4-57.7,12.9c-7.5,9.2-8.2,19.6-4,30.1
	c5.1,12.8,15.7,19.1,29.1,20.3c12.1,1.1,15.1,0.1,38.5-9.5c-11.1,13-39.3,16.3-56.3,6.7c-24.8-14-28.4-43.7-7.7-63.8
	c14.6-14.2,32.6-19.7,52.6-18.1c5.5,0.4,7.4-1.1,9-6c2.3-7.2,5.6-14.2,9.3-23.5c-10.6,0-20.5-0.3-30.5,0
	c-26.6,0.8-50.7,8.9-71.2,26.1c-33.2,27.8-29.9,78,6.4,104.6c17.7,12.9,37.8,17.4,59.4,16c3.9-0.3,7.8-0.8,12.8-1.3
	c-10.3,4.6-22.8,5.5-41.7,1.8c-27.4-5.4-50-18.4-61.5-45.2c-12.1-28-3.5-60.4,20.4-79c28.2-22,60.8-27.9,95.5-24.7
	c7.9,0.7,13.4-0.2,19.1-6.9c15.4-18,35.8-28.1,59.2-31.6c35-5.2,66.9,2.4,94.6,25c0.6,0.5,1.1,1.1,1.6,1.7c0.1,0.1,0,0.4-0.1,1.5
	c-33.8-25.4-71.5-27.8-110.6-18.7c-18.7,4.3-34.6,14.5-47,29.7c9.3,3.8,18.3,7.5,27.2,11.2c-1.3,0-2.7,0.4-3.9,0.1
	c-7.4-2.5-14.6-5.3-22.1-7.5c-1.7-0.5-5.2,0.5-5.9,1.8c-4.1,8.1-7.7,16.4-11.5,24.8c2.5,1.1,3.2,1.5,3.9,1.7
	c34,7.4,55.2,27.4,62.2,62c0.5,2.6,3.2,6.1,5.7,6.9c6.2,2,12.9,2.8,20.5,4.3c0-20.2,0-38.1,0-56c3.8,7.1-1.4,16.8,8.6,21.3
	c-2-0.4-3.9-0.7-6.2-1.1c0,10.7,0,20.9,0,31.6c1.8-0.4,3.3-0.8,4.8-1.1c-1.3,4.9-5.2,12.4-3.4,14.3c5.4,5.5,2.5,9.1-1,13.4
	c14.2,1.4,14.2,1.4,18.2-10.9c0.9-2.8,2.1-5.4,3.2-8.1c5.8-14.4,15.9-25.3,27.6-33.5c-7.4-3.9-14.8-7.3-21.7-11.6
	c-6.1-3.7-11.4-8.8-17.5-12.5c-8.4-5.1-16.8-11.2-27.7-5.6c-5.1,2.6-10.7,4.1-16.9,6.3c2.8-3.1,4.9-6.1,7.6-8.4
	c4.1-3.4,4.6-6.6,1-10.4c3.6,3.1,6.8,3.3,11.8,1.3c17.4-7.1,34.3-5.6,49.8,5.7c5.4,3.9,10,9.3,15.8,12c6.7,3.1,14.4,5.4,21.7,5.6
	c7.9,0.3,14.4-4.1,17.4-14.4c1.5,10.5-3.8,16.1-9.6,20.4c-5.2,3.9-11.5,7.3-17.8,8.2c-8.5,1.2-13.2,5.6-17,12.4
	c-7.3,12.9-11,26.8-11.9,43.2c5.3-1.4,9.8-2.1,14-3.9c1.3-0.6,2.1-3.7,2.3-5.7c0.7-9.3,3.1-18.2,10.8-23.8c3.3-2.4,8.5-2.2,12.8-3.2
	c0.6,4.2,2.9,9.3,1.4,12.5c-2.7,5.4-7.3,10.3-12,14.3c-7.6,6.3-8.4,7.6-3.6,16.1c1.5,2.8,3.4,5.4,5.1,8c-0.6,0.5-1.2,1-1.9,1.4
	c-4.2-5.8-8.3-11.6-12.7-17.7c-5.1,1.4-10.8,3.1-16.5,4.7c-1.4,16.1-1.4,16.1,13.9,19.2c22.8,4.7,42.6,14.8,57.3,33.4
	c21.9,27.7,15.7,62-14.1,81.2c-24,15.4-50.3,17.1-77.6,13.7c-3-0.4-6.2,1-9.2,1.6c-1.7-1.9-3-4.3-5-5.6c-4.7-3-9.8-5.6-14.7-8.3
	c6.9,2.7,13.8,5.5,22.8,9c0.3-8,1.4-14.5,0.5-20.8c-0.9-6.4-3.8-12.4-5.9-18.6c10,11.3,9.8,24.5,6.2,40.4
	c11.9,0.5,23.1,1.5,34.2,1.2c20.2-0.4,38.5-7.1,54.2-19.9c16-13.1,20.9-38,12.1-59.3c-11-26.5-44.2-47.7-73.1-46.5
	c-4.5,25.5,17.2,47.3,40.6,40.8c-6.2,4.6-12.4,9.1-18.4,13.9c-6,4.7-11.7,9.6-19.3,15.7c2.7-3.8,4.2-6,5.3-7.6
	c-7.7-8.8-14.9-17.4-22.6-25.6c-1.1-1.2-4.5-1-6.5-0.4c-4.3,1.3-8.3,3.2-12.5,4.9c5.5-3.2,11-6.5,16.5-9.8
	c-1.3-4.7-3.1-9.7-4.1-14.8c-1-5.1-1.3-10.3-1.9-15.5c-13.1,1.4-13.1,1.4-13.1,13.6c0,6.9-0.2,13.8,0.1,20.7
	C249.6,494,251.2,495.9,252.1,497.7z M155.2,357.7c-3.4,27,25.3,64.2,52.2,67.9C208.5,394.1,184.4,362.8,155.2,357.7z M222.2,408.7
	c0,7.4,0,15,0,23.6c8.2,0.6,16.3,1.2,22.7,1.7c-0.5-5-1.4-8.6-1.1-12.2c0.2-2.8,1.8-5.5,2.7-7.9C237.5,412,230.4,410.4,222.2,408.7z
	 M305.8,423.4c0.9,0.7,1.8,1.3,2.7,2c4.9-5.9,10.2-11.4,14.3-17.7c1.3-2-0.6-6.1-1-9.2c-3,1-6.7,1.2-8.8,3.2
	C306.9,407.5,305.2,415.2,305.8,423.4z M264,437c-13.7-1.7-16.8,3.2-13.7,20.4C262.5,456.2,262.5,456.2,264,437z"/>
<path d="M496.7,566.4c13.7-0.5,27.5-1.3,41.2-1.2c1.6,0,4.2,4.3,4.4,6.8c0.6,6,1.7,8.3,8.3,5.5c10-4.3,13.7-1.6,13.7,9
	c0,42,0,84.1,0,126.1c0,10.7-3.3,13.4-13.4,9.7c-6.2-2.3-8.5-1.1-8.3,5.3c0.2,5.7-2.8,7.3-8,7.2c-15.4-0.1-30.9-0.1-46.3,0.1
	c-5.8,0.1-8.3-2.2-7.9-8.1c0.4-5.7-2.3-7.1-7.4-5c-1.9,0.8-4.1,1-6.1,1.3c-6,0.9-8.4-1.2-8.4-7.8c0.3-30.3,0.1-60.7,0.1-91
	c0-12.8,0-25.5,0-38.3c0-9.9,4-12.9,13.3-8.8c6.8,3.1,8.4,1,8.8-5.6c0.1-2.3,2.2-5,4.1-6.5c0.7-0.6,3.7,1.7,5.6,2.6
	C492.5,567.3,494.6,566.9,496.7,566.4z M505.6,621.3c1.8,12.3,1,13.5-4.5,24c-1.4,2.8-0.4,9.2,1.8,11c5.2,4.3,2.6,9.3,3.4,13.9
	c1.1,6.3-0.8,10.2-8,10.4c-0.8,0-1.6,1.7-2.9,3.1c4.1,1.8,7.6,3.3,12.1,5.2c-3,2.7-4.7,4.3-6.5,5.8c-6.8,5.6-6.8,6.3-0.2,11.8
	c2,1.7,3.7,3.9,5.9,6.3c-4.6,1.8-8,3.1-12.2,4.7c8.3,5.3,26.3,5.2,33.4-0.3c-4-1.6-7.4-2.9-10.8-4.2c-0.8-1-1.6-2-2.4-3
	c2.8-1.5,5.6-2.9,8.3-4.5c5.1-3.2,4.7-6.7,0-9.8c-2.8-1.8-5.9-3.1-8.9-4.7c0.9-1.1,1.9-2.3,2.8-3.4c3.3-1.2,6.6-2.3,12.3-4.3
	c-4-1.8-6-2.6-8-3.5c-1.6-0.7-3.7-1.2-4.5-2.4c-2.2-3.6,0.3-17.5,3.3-20.7c3.9-4,5.3-9.1,0.7-12.5c-5.7-4.3-3.6-9.8-4.6-15
	c-1.4-7.9,3.7-9.2,9.2-10.7c0.5-0.1,0.8-1.2,1.5-2.4c-3.7-1.6-7.3-3.2-12-5.3c3.4-2.9,5.5-4.9,7.9-6.6c5-3.6,5.1-6.8-0.1-10.4
	c-2.4-1.7-4.2-4.2-6.7-6.8c4.7-1.9,8-3.2,12.3-4.9c-9.2-5.3-26.4-5-33.6,0.5c4.1,1.5,7.6,2.7,12.3,4.4c-4,4.1-10.1,7.7-10,11
	c0.2,4.1,5.7,7.8,8.9,11.8c0.3,0.3,0.1,1,0.2,2.1c-3.3,1.3-6.8,2.6-10.3,3.9c0,0.6-0.1,1.2-0.1,1.9C499,618.8,502.3,620,505.6,621.3
	z"/>
<path d="M826.1,593.5c-3.3,11-11.5,17.9-21.4,22.1c-25.3,10.5-60.7-3.9-60.9-37.5c0-0.8-0.3-1.5-0.7-3.1
	c-15.3,5.8-30.8,6.5-46.5,2.7c-38.4-9.3-53.6-50.6-28.8-81.6c9.4-11.8,22.1-20.9,32.3-30.4c-4.8-7-12.8-15-16.5-24.7
	c-11.4-29.5,10.1-55.6,30.5-61.7l0,0c-6.4,5.8-13.8,10.8-19.1,17.4c-14.7,18.3-11.7,46.8,5.8,62c3.4,2.9,6.4,5.6,11.8,3.4
	c21.4-8.8,44-11.2,66.3-6.7c13.4,2.7,21.5-2.6,29.7-11c2-2.1,4-4.1,6.1-6.2c-5.5,6.7-11.1,13.4-16.8,20.3c6.2,2.1,12.8,4.3,20,6.7
	c0-8.5,0.1-16.2-0.2-23.8c0-1-2.2-1.9-3.3-2.9c1.6-5.5,3.1-11,4.7-16.5c-5.1,0.2-8,1.3-10.9,2.7c-10.2,4.7-20.6,8.4-32.2,7.7
	c-15.3-0.9-27-11.8-28.4-27c-1.6-16.8,6-30.3,18.9-39.1c19.8-13.5,41.1-24.7,61.7-36.9c0.3,0.5,0.6,1,1,1.5
	c-4.1,3.1-8.1,6.3-12.6,9.7c11,11.9,25.1,12.8,39.6,11.7c10.6-0.8,15.7-8.1,18.7-19.9c-0.5,23.7-20.2,36.7-54.5,38
	c0,6.3-0.1,12.6,0.1,18.9c0,0.9,2,1.8,3,2.7c-4.8,6.5-4.3,8,3.5,9.3c2.3,0.4,4.7,0.5,7.1,0.6c19.2,1,36.5-4.3,52.4-14.8
	c0.2,0.3,0.4,0.5,0.7,0.8c-19.2,17.1-42.4,18-66.3,15.4c0,4.9,0,9,0,11.7c11.9-1.8,23.2-4.7,34.7-5.1c17.5-0.7,30.5,8.6,36,23.6
	c5.8,15.8,1.7,31.7-12.2,42.9c-8.6,6.9-18.3,12.4-27.9,18.8c0.5,1.7,1.2,3.9,1.9,6.1c-3.9-5-8.1-6.2-13.5-2
	c-1.8,1.4-4.3,1.9-6.4,2.8c4.4-3,8.8-6.1,13.6-9.4c-4.7-5.1-9-9.7-13.3-14.3c5.4,4.4,10.8,8.8,17.4,14.3c4.3-5.3,9.9-10.2,13-16.4
	c6.9-13.8,9-28.5,0.5-42.6c-7.5-12.4-19.3-17.2-33.3-15.6c-4.6,0.5-15.5-2.1-8.8,9.8c0.3,0.5-0.6,1.4-0.7,2.2
	c-0.7,11.7-1.4,23.4-2.1,36.1c4.8-2.9,8-4.8,11.2-6.8l-0.1-0.2c-2.7,3-5.3,6-7.8,8.9c3.7,3.5,6.7,6.3,9.7,9.2
	c-3.2-1.7-6.3-3.5-8.9-4.9c-8.4,10.6-7.1,21.2-1.8,31.9c4-0.8,7.4-1.4,10.7-2c-2.9,1.5-5.7,3.1-8.7,4.6c0.9,2.1,1.6,3.7,2.3,5.3
	c-5.6-5.4-11.6-4.2-17.6-0.8c-9.1,5.2-18.2,10.5-27.6,15.9c2.7-3.1,5.4-6.2,8.5-9.9c-2.9-2-5.6-4.1-8.5-5.8
	c-15.7-8.8-32.7-9.9-50.2-7.9c-11.7,1.3-21.9,6.3-30.7,13.9c-8.2,7.1-10.7,17.5-6.7,25.8c4,8.1,14,12.7,24.4,10.7
	c4.5-0.8,8.8-2.3,14.5-3.7c-12.3,8.8-28.1,8.4-37.2,0c-7.5-7-8.3-21.3-1.7-32.5c1.3-2.3,3.1-4.3,4.8-6.3
	c24.3-27.4,82.7-31.4,110.5-7.5c3.4,2.9,6.4,4.7,8.8,2.2c-0.8-13.1-1.5-24.8-2.4-38.8c-5.5-1.7-13.1-4.3-20.9-6.4
	c-1.5-0.4-3.5,0.6-5.1,1.4c-24.4,11.8-49.6,14.3-75.8,7.5c-2.3-0.6-5.3-0.5-7.4,0.5c-16.1,8-29.2,19.3-37.9,35.3
	c-10.9,20.1-7.4,44.2,7.9,58.6c16.4,15.6,49.3,15.7,65.6,8.5c1.7-0.8,2.6-3.4,3.8-5.3c4.2-6.9,7.6-14.4,12.6-20.7
	c3.2-4.1,9.4-7.4,13.6-2.5c1.7,2-0.6,9.6-3.2,12.8c-4.4,5.4-10.8,9.3-16,14.1c-1.9,1.8-4.4,4.4-4.3,6.6c0.4,10.7,3.8,20.3,12.7,27.2
	c20.7,16.2,47.3,11.5,65.2-11.7L826.1,593.5z M811.1,399.3c1.9-2.2,5.8-4.9,6.5-8.3c1.2-5.9,0.5-12.2,0.2-18.2
	c-0.1-1.6-1.6-3.7-3-4.7c-6.7-4.2-13.8-7.8-20.3-12.2c-3.8-2.5-6.5-2.5-9.8,0.4c-11.1,9.5-17.3,21-16.8,36.1
	c0.5,14,5.8,24.2,17.7,27c8.4,2,17.7,1.5,26.4,0.7c9.6-0.9,5.8-9.2,5.6-14.5C817.5,403.4,813.3,401.3,811.1,399.3z M785.5,460.2
	c-23.6-3.6-46.7-3.8-70.6,6.6C740.5,473.6,763.4,471,785.5,460.2z M749,568.4c0.8,0.7,1.7,1.3,2.5,2c6-6.1,12.1-12.1,17.8-18.5
	c1.1-1.3,0.3-4.3,0.4-6.5c-2.2,0-4.8-0.7-6.5,0.1C753.7,550.2,750.5,558.9,749,568.4z"/>
<path d="M600.5,441.3c10.4-9,20.9-18,31.9-27.5c-2.1,3.6-3.9,6.8-6.6,11.5c5.5,3.8,11.1,7.7,16.7,11.5c-8.7,2.7-9.3,10.4-8.9,19.2
	c0.5,10.9,0.4,21.8,0,32.7c-0.3,6.8,2.4,11.9,8.4,13.7c3.1,0.9,7.3-1.9,11.3-3.1c-8.7,9.4-17.7,19-26.6,28.7
	c-0.3-0.1-0.5-0.2-0.8-0.3c1.2-2.4,2.3-4.9,3.9-8.2c-8-6.6-13.9-14.9-11.2-27.7c-13.4,12.7-25.7,24.4-38.6,36.7
	c5.2-14-3.6-23.2-21.5-21.3c2.7-1.9,4.2-3.1,5.9-4c6.2-3.4,8.9-8.7,8.8-15.7c-0.1-12.5,0.5-25-0.3-37.5c-0.3-4.7-3.9-9.2-6-13.8
	c-3.7,1.9-7.4,3.9-11,5.8c-0.7,0.4-1.3,0.9-2,1.4c1.4-6.8,11.2-16.6,24.5-24.9c1.3,2.4,2.8,4.8,4,7.2c2.3,4.8,6.2,9.6,6.4,14.5
	c0.8,16.5-0.1,33,0.6,49.5c0.2,4.1,3.2,8.7,6.1,12c2.9,3.3,7.1,3.1,10.5-0.4c7.3-7.5,13.8-15.2,12.3-27c-0.9-6.8-0.2-13.8-0.2-20.7
	C618,441.3,611.5,436.8,600.5,441.3z"/>
<path d="M537,439.5c-14.1,7.6-14.1,7.6-28.7-3.4c-10.2,7.2-21.6,13.5-18.5,29.6c0.8,4.4,0.4,9.1,0.1,13.5
	c-1,11.7,1.4,21.7,12.1,26.2c-7.9,7.4-15.6,14.6-22.8,21.3c4.5-14.4-0.8-19.1-20.3-17c15.4-13.4,15.4-13.4,15.4-35.9
	c0-27.4-0.1-54.8,0-82.3c0.2-25.5,21.2-43.5,45.4-39.2c12.7,2.3,21.3,12.7,19.3,23.1c-1.2,6.1-4.9,10.4-10.6,9.5
	c-3.9-0.6-8.8-4.2-10.5-7.7c-2.7-5.4,0.3-10.2,6.1-12.7c1.4-0.6,2.8-1.4,4.6-2.3c-4.1-7.6-11.2-8-18-7.4
	c-8.3,0.7-15.6,3.8-18.5,12.7c-1,3-1.5,6.2-1.9,9.3c-0.3,1.8-0.1,3.7-0.1,5.6c0,21,0,42,0,65.8c12.5-11.6,23.4-21.7,33.7-31.2
	c-2.5,5.6,0.2,12.2,7.1,13.6c5.6,1.1,12.1-2.1,17.1-3.2c-2.9,3.2-6.9,7.7-11,12.2C536.8,439.7,537,439.5,537,439.5z"/>
<path d="M714.1,379.2c0.3-2.3,1.6-5.2,0.6-6.8c-17.2-29.8-10.3-61.3,17.9-81.3c40-28.3,102.9-29.9,144-3.5
	c36.4,23.4,39,65.4,18.9,91.4c-0.5,0.6-0.6,1.4-0.9,2.1c7.5,3.5,15.2,6.3,22.2,10.4c42.2,24.5,47.8,80.3,11.3,112.9
	c-4.7,4.2-6.7,7.4-5.3,14.5c3.8,19.3-5.9,33.6-20.2,45.5c-2.8,2.3-4.7,6.9-7.7,7.6c-6.8,1.7-14,1.5-21.1,2.2l0.1,0.1
	c4.3-3.8,8.5-7.6,12.9-11.2c1.1-0.9,3.4-2,4.2-1.5c5.4,3.6,9-0.7,12.7-2.9c15.7-9.3,22.3-34.6,13.9-45.7
	c-14.9,9.4-30.9,15.1-48.9,13.9c-2-0.1-4.1,1.7-6.2,2.6l0.2-0.1c-2.7-1.6-5.4-3.2-8.1-4.8c1.9-0.4,3.8-0.7,6-1.1
	c-1.5-5.7-2.9-11.2-4.4-16.6c2.7,5.9,5.5,11.7,8.2,17.5c22.7,2.2,42.8-4.3,58.8-20.1c39-38.6,29.6-98.5-24.7-118.4
	c-4.6-1.7-8-1.3-11.4,2c-0.2-0.3-0.4-0.5-0.7-0.8c0.6-1.3,1.2-2.6,2-4.1c-22.5-4.6-43.3-1.7-63.1,8.8c2.4-1.9,4.5-4.3,7.2-5.5
	c16.9-7.8,34.8-8.8,53-6.1c4.2,0.6,6.6-0.2,9.1-3.7c17.9-24.9,14-56.8-9.5-76.6c-39.4-33.3-112.9-34.7-153.5-3.1
	c-24.7,19.3-30.5,46.3-15.7,71.9c3,5.2,6.2,6.4,11.9,6c4.6-0.4,9.7,1.1,14,3c1.8,0.8,3.5,5.2,2.9,7.2c-0.5,1.8-4.7,3.9-6.8,3.5
	c-5.3-1.2-10.3-3.8-15.4-5.8C719.7,381.2,716.9,380.2,714.1,379.2L714.1,379.2z M724.2,376.2c-0.3,1.2-0.7,2.4-1,3.6
	c4,1.9,8,4.1,12.2,5.5c1.4,0.5,3.5-1.2,5.4-1.9c-0.9-1.8-1.5-4.8-2.8-5.1C733.5,377.1,728.8,376.8,724.2,376.2z"/>
<path d="M429,527.2c5.5-6.1,0.9-10-2-15c-2.7-4.6-4.1-10.4-4.3-15.7c-0.5-14.9-0.1-29.8-0.2-44.6c0-12.6-4.7-16.2-17.1-12.2
	c10.4-8.8,20.2-17.1,29.9-25.4c0.4,0.2,0.7,0.4,1.1,0.6c-2.2,3.3-4.4,6.5-7.5,11c5.2,3.5,10.3,6.9,15.8,10.6c-6.7,4-7,10.8-6.9,18.1
	c0.3,10.9,0,21.8,0.1,32.7c0.2,14.2,6.9,19.3,22.2,14.6C448.7,511.1,438.9,519.2,429,527.2z"/>
<path d="M171.3,502.1c-12.9,10.2-27.5,16.1-43.9,14.5c-7.8-0.8-11,2.3-14.1,8.1c-14.1,26.1-3.9,59.8,23.7,75.3
	c30.1,16.9,61,17.1,92.3,3.3c1.9-0.8,3.9-1.3,5.9-2c-12.9,9.8-28.1,13.3-43.7,14.2c-24,1.4-46.5-3.9-66-18.8
	c-26.4-20-31.1-52.1-11.8-78.9c0.4-0.6,0.7-1.3,1-2c-4.8-3-10-5.4-14.1-9c-5.6-4.8-8.1-11.4-5.3-18.7c2.5-6.3,7.3-11.4,14.5-10.3
	c4.6,0.8,10.2,3.9,12.4,7.7c1.8,3,0.5,10.3-2.1,12.7c-3,2.7-8.9,2.4-13.7,2.9c-1.3,0.2-2.8-1.2-5-2.2c0.4,7.8,6.2,9.6,10.9,12.5
	c4.6,2.8,7.2-0.2,10.4-2.6c3.1-2.3,6.8-3.6,10.3-5.3c-3.6,3.2-7.2,6.3-10.8,9.5c0.2,0.8,0.4,1.5,0.6,2.3c6.8-0.8,13.9-0.6,20.4-2.6
	C152.9,510.1,162,505.8,171.3,502.1z"/>
<path d="M496.7,566.4c-2.1,0.4-4.2,0.9-6.3,1.3c12.8-11.2,25.3-22.7,32.7-38.4c5-10.7,7.2-21.8,1.9-33c-9.3-19.4-5.9-36.4,8.7-51.7
	c1.4-1.5,2.2-3.4,3.3-5.2c0,0-0.2,0.3-0.2,0.3c1.4-0.1,2.9-0.3,4.3-0.4c0.1,0.6,0.4,1.3,0.2,1.6c-10.8,11.4-10.2,23.4-2.9,36.4
	c8.6,15.5,5.8,31.1-3.8,44.4C523.1,537.4,509.4,551.6,496.7,566.4z"/>
<path d="M356.6,367.2c11.5-8.9,29-7.8,40.1,2.4c17,15.6,20.5,39.7,8.8,59.7c-16.4,27.8-51.6,39.3-82.3,25.1c8.1,1.6,13.9,3,19.8,4
	c33.8,5.9,67-24.4,64.5-58.6c-2.1-27.8-23.4-41.7-49.5-32.2C357.7,367.7,357.1,367.4,356.6,367.2z"/>
<path d="M989.2,454.2c-6.1,0.2-12.2-5.1-12.4-10.9c-0.2-5.3,5-11,10.3-11.3c6.3-0.3,13,5.6,12.9,11.5
	C999.9,448.5,994.3,454.1,989.2,454.2z"/>
<path d="M988.5,507.3c-6-0.1-12-6.1-11.8-11.8c0.2-5.7,5.2-10.6,10.9-10.6c6-0.1,12.5,5.8,12.4,11.2
	C999.9,501.7,994.1,507.3,988.5,507.3z"/>
<path d="M11.7,454.2c-6.2-0.1-11.9-5.9-11.7-11.6c0.3-5.3,5.9-10.6,11.1-10.6c5.9,0.1,12.3,6.2,12.2,11.5
	C23.2,448.7,17.2,454.3,11.7,454.2z"/>
<path d="M11.5,507.2c-5.5-0.1-11.3-5.8-11.4-11.3c-0.2-5.8,5.4-11.2,11.2-11.1c6.1,0.2,12.4,6.2,12,11.5
	C23,502,17.2,507.3,11.5,507.2z"/>
<path d="M423.5,363.1c8.2-0.2,13.3,4.3,13,10c-0.3,5.9-3.7,9.3-9.5,9.7c-5.6,0.4-11.7-4.9-11.1-10.1
	C416.4,367.1,419.4,363.3,423.5,363.1z"/>
<path d="M250.5,301.2c-5.7-1-9.9-2.4-14.1-2.3c-4.1,0.1-8.1,1.8-12.1,2.7c-0.2-0.7-0.4-1.5-0.6-2.2c5-1.7,10-3.3,15-5
	c2.6-0.9,5.1-2,7.6-2.9c1.2-0.4,3-1.4,3.5-1c8.1,7,19.9,4.1,27.5,11C268.5,302.2,258.9,294.9,250.5,301.2z"/>
<path d="M873.9,574.1c-13.9,4.6-27.8,2.9-41.3,0.1c-2.2,6.6-4.3,12.9-6.4,19.2c0,0-0.4-0.4-0.4-0.4c1.2-7.9,2.4-15.8,3.4-22.5
	c4.6,1,10.2,2.9,15.9,3.2c9.6,0.6,19.3,0.3,29,0.4L873.9,574.1z"/>
<path d="M354.2,403.4c1.6-0.6,3.3-1.2,4.1-1.6c0.3-3.2-0.1-6.2,1.2-8.1c0.6-1,4.7-0.7,6.4,0.4c1.2,0.7,1.9,4.9,1.3,5.4
	c-3.7,2.6-7.9,4.6-11.9,6.8C354.9,405.3,354.5,404.3,354.2,403.4z"/>
<path d="M334.6,343.3c9.4-10.8,7.5-22.9,2.9-37.2C347,319.8,345.3,335.3,334.6,343.3z"/>
<path d="M251.6,540.7c-3.2-2.1-6.2-5.4-9.8-6.1c-5.3-1.1-11.7-2-16.4-0.1c-5.7,2.3-6.5,9.1-4.3,14.6c2.6,6.5,6.4,12.5,9.7,18.8
	c-10.9-4.1-18.2-19.7-14.1-29.9c3.4-8.4,13.3-11.9,22.9-7.1C244.1,533.1,247.7,537.3,251.6,540.7z"/>
<path d="M145.6,564.3c-10.1-10.9-10.9-21.7-3.4-29.8c7.2-7.8,20.2-8.1,29.5-0.8c5.7,4.5,7,8.2,4.2,12.2c-8.2-14-17.7-18.4-27.9-12.9
	C138.3,538.3,137.4,546.7,145.6,564.3z"/>
<path d="M191.5,576.5c-9.2-0.6-18-3.2-25.5-1c-9.1,2.6-11.4-7.1-18.4-6.9c-0.3,0-0.7-2.3-1.1-3.6
	C161.3,568.8,175.6,572.4,191.5,576.5z"/>
<path d="M316.6,543.8c-5.5,8.3-14.1,9.9-26.7,5.2C297.6,547.5,307.1,545.6,316.6,543.8z"/>
<path d="M755,312.5c13.1-7.3,24.4-13.6,35.7-19.9c0.4,0.5,0.7,1.1,1.1,1.6c-0.6,1.1-1.3,2.2-1,1.7c12.2,1.1,24.8,2.3,37.5,3.4
	c-0.1,0.5-0.1,1.1-0.2,1.6c-12.9,0-25.8,0-38.7,0c-0.4,0.5-0.7,1-1.1,1.5c1.3,0.7,2.5,1.5,2.8,1.6C780.5,306.5,769,309.2,755,312.5z
	"/>
<path d="M752.6,444.4c-15,8.5-35.3,6.1-43.9-4.1c-6.8-8-6.3-19.9,1.9-29c-5.7,12-7.3,23.4,5.3,31.8
	C727,450.5,739.1,447.1,752.6,444.4z"/>
<path d="M839.6,308.2c9.5,5.2,14.2,17.1,9.1,24.3c-1.3,1.8-4.7,2.1-7.5,2.1C851.8,327.1,851.7,324,839.6,308.2z"/>
<path d="M723.5,401.1c5.8,0.9,10,1.1,14,2.4c1.3,0.4,2.1,3.3,2.5,5.2c0.2,0.7-1.8,2.7-2.1,2.5c-1.7-0.7-3.2-1.8-4.7-2.9
	C730.5,406.4,727.9,404.4,723.5,401.1z"/>
<path d="M739.3,346.2c-2.2-9.6,2.2-19.2,9.6-26.7C745.9,328.2,742.3,337.9,739.3,346.2z"/>
<path d="M862.5,529.5c3.9,7.5,1.9,14.5-1.8,21.4c-0.6,1.1-1.9,2.4-2.9,2.5c-2.6,0.2-5.2-0.3-7.8-0.6c0.4-1.6,0.8-3.3,1.2-4.9
	c2.1,0.9,4.2,1.7,7.1,2.9c6.1-5.5,3-14,4.4-21.4C862.7,529.3,862.5,529.5,862.5,529.5z"/>
<path d="M825.8,511.7c9.7,4.3,19.4,8.7,29.1,13C843.7,523.8,833.2,521.3,825.8,511.7z"/>
<path d="M912.3,475.2c1.6-3.9,3.3-7.7,4.6-11.7c1.3-4.1,4.2-8.4-0.9-12.2c-0.6-0.5-0.7-2-0.6-3c1.8-19-5.8-31.6-23.5-38.9
	c-1.7-0.7-3.4-1.4-5.3-2.2c9-0.5,21.6,7.3,27,17.3c3.9,7.2,7.7,14.7,10.1,22.6c0.9,3.1-1.9,7.6-3.5,11.2c-2.5,5.7-5.3,11.2-8,16.7
	C912.2,475,912.3,475.2,912.3,475.2z"/>
<path d="M890.1,492.6c-4.4,0.7-8.8,1.6-13.2,1.8c-1.2,0.1-3.3-2.1-3.4-3.3c-0.1-1.4,1.4-3.8,2.7-4.2c3.4-1.1,7.7-2.8,10.7-1.7
	c10.4,3.7,17.2-0.3,22.8-8.5c0.5-0.7,1.7-1,2.6-1.5c0,0-0.2-0.1-0.1-0.1c-3.7,4.7-7.3,9.3-11.1,14.1c2.2,1.6,4.9,3.5,6.8,4.9
	c-4.2-0.5-9.1-1.1-14.1-1.7c-2.3-5.8-9.2-6.7-15.1,0.3C882.5,492.6,886.3,492.6,890.1,492.6z"/>
<path d="M830.8,459.2c8.5-6.7,22.8-7,28.4,0.3c1.9,2.4,1.3,6.9,1.2,10.5c0,0.5-3.4,1-5.2,1.5c0.1-1.6-0.5-3.7,0.4-4.7
	c4.7-5.4,0.8-8.7-3.4-9.1c-7.1-0.6-14.4,0.7-21.6,1.3C830.6,459,830.8,459.2,830.8,459.2z"/>
</svg>
