<?xml version="1.0" encoding="utf-8"?>
<!-- Generator: Adobe Illustrator 21.0.0, SVG Export Plug-In . SVG Version: 6.00 Build 0)  -->
<svg version="1.1" xmlns="http://www.w3.org/2000/svg" xmlns:xlink="http://www.w3.org/1999/xlink" x="0px" y="0px"
	 viewBox="0 0 1000 1000" style="enable-background:new 0 0 1000 1000;" xml:space="preserve">
<g id="Layer_2">
</g>
<g id="Layer_1">
	<g>
		<path d="M148.3,559c-8.1-11.4-17.3-22.1-24.2-34.2c-8.8-15.4-22.8-10.3-34.7-9.1c-3.2,0.3-5.9,12.4-7.7,19.4
			C72,571.5,62.6,608,53.1,644.5c-2.3-0.6-4.7-1.1-7-1.7c3.5-12.2,7.3-24.3,10.6-36.6c6.8-25.5,13.9-51,19.9-76.7
			c3-13.1-4.7-15.8-15-10.7c-8.1,4-15.3,9.9-24,15.7c1.5-3.8,2.8-7,4.6-11.6c-14,8.7-26.8,16.8-39.7,24.8c-0.9-0.8-1.8-1.5-2.6-2.3
			c2.8-3.1,5.6-6.2,8.4-9.2c14.7-15.7,30.8-30.4,43.7-47.5c15.7-20.8,15.1-31.5-1.2-51.5c-10.6-13-23.7-24-35.6-35.9
			c1.1-1.3,2.1-2.5,3.2-3.8c18.7,15.2,37.4,30.3,57.5,46.6c17.3-36.3,40.6-70.6,38.1-112.4c-2.5-39.6-9.5-79-14-114.2
			c17.5,24.4,22.7,64.2,20.2,172.5c1.7,0.3,3.5,0.5,5.2,0.8c7.2-49.4,14.4-98.9,22.2-152.4c6.7,84-10.7,159.3-47.1,231
			c2.8,1.3,5.5,2.5,8.3,3.8c7.1-10.3,16.6-19.8,20.9-31.2c22.6-59.2,45.1-118.5,64.8-178.7c5.9-18.1,2.5-39.2,3.4-58.9
			c0.3-5.6,0.7-11.1,3.9-16.4c-0.8,16.1-1.7,32.3-2.8,53c20.9-22.5,27.3-46.9,27.3-70.3c0-23.1-8.9-46.2-12.6-69.8
			c8.5,23.5,17,46.9,26.2,72.2c6.9-6,12.5-10.9,18.1-15.8c0.8,0.6,1.5,1.2,2.3,1.8c-2.3,3.1-4.1,6.7-6.8,9.2
			c-8.2,7.5-9.5,14.7-5,25.8c15,37.1,8.9,75.8,2.9,113.5c-4.9,30.8-4.2,60.1,7.6,90.2c13.6-2.8,22.2-9.5,24.6-24.7
			c5.1-31.7,12.8-63,16.5-94.8c1.8-15.5-3.1-31.8-4.3-47.7c-1.3-17-1.9-34.1-1.6-50.9c6.3,30.8,12.6,61.7,18.9,92.5
			c1.9-0.2,3.8-0.4,5.7-0.7c4.1-8.7,8.2-17.4,12.3-26.1c1.1,17.1-15.5,33.5-0.8,55.6c3-19.9,5.6-35.6,7.5-51.3
			c0.2-1.9-3.6-4.3-5.6-6.5c2.8-10.9,5.7-21.8,8.6-32.9c7.5,37.8-7.9,75.5-0.8,112.8c2.6,0.4,5.2,0.7,7.8,1.1
			c10.3-30.4,20.7-60.8,31.4-92.3c-4.3,49.3-23.6,98.2-2.8,148.4c13-26.1,29.1-49.2,18.2-81.8c-11.3-33.8-4.7-69.6-1.2-104.5
			c0.6-6,0.1-12.1,1.6-18.2c8,44.7-10.5,91.1,10.1,138.5c6.2-15.4,11.5-28.5,16.8-41.6c1.3,0.3,2.6,0.7,3.9,1
			c-3,10.4-5.6,21-8.9,31.3c-3.9,12.1-8.3,24-13.8,39.4c8.3-4.5,13.2-7.2,18-9.8c-6.8,10.4-13.2,20.4-21.5,33.2
			c28,0.5,45.4-15.9,49.3-39.9c1.4-8.5,3.7-16.8,5-25.2c1.2-7.7,1.6-15.6,5.9-23.2c-1.4,14.4-2.8,28.8-4.1,43.2c1,0.5,2,1.1,2.9,1.6
			c7.2-11.6,14.5-23.1,21.5-34.7c1.1-1.8,1.3-4.7,0.7-6.7c-4.9-17.7-10.1-35.4-15.1-53c0,0,0.3,0.5,0.3,0.5
			c1.4-22.6,2.8-45.1,4.2-67.7c0.6-0.1,1.2-0.2,1.8-0.3c3.8,37.3,7.5,74.5,11.3,111.8c2.2-0.1,4.4-0.1,6.6-0.2
			c18.8-35.4,6-76.4,20.4-113.1c0,21.4,0,42.7,0.1,64.2c-4.2,18.8-8.6,37.6-12.8,56.4c-0.6,2.7-1.3,6.2-0.1,8.2
			c7.2,11.9,14.9,23.5,25.2,39.4c-1.1-12.4-1.4-19.5-2.3-26.5c-3.3-25.9-6.9-51.8-10.3-77.7c4.5-4.2,9-8.4,13.5-12.5l1.1,1
			c-10,45.7-2.4,89.8,13.4,133.3c-0.3-4.7-0.6-9.3-0.9-14c1.1,0,2.3-0.1,3.4-0.1c0.5,5.8,1.4,11.6,1.4,17.4
			c0.2,18,14.7,16.3,25.9,19.1c1.3-5.7,5.3-12.8,3.3-16.9c-3-6.1-10.3-10.1-14.9-16.9c5,2.1,10,4.3,18,7.7
			c-12.9-36.7-28.9-70.6-23.6-104c5.4,21.6,11.9,47.3,18.3,73.1c2.9-0.1,5.9-0.2,8.8-0.4c1.8-26.2,4-52.3,5.1-78.5
			c0.9-20.7,0.2-41.4,0.6-62.1c0.3-19.7,1.1-39.5,1.7-59.2c1.8,0.1,3.7,0.2,5.5,0.2c-1.9,23.6-4,47.3-5.4,70.9
			c-0.7,11.1-1.9,22.6,0.5,33.2c7.5,32.4,0.9,63.4-5.2,94.9c-2,10.2-0.3,22.1,2.9,32.2c4,12.4,11.3,23.8,18.3,37.7
			c13.4-38.8,10-75.9,5.4-113.9c8.3,18.5,16.5,37.1,24.8,55.7c9.5-8.9,10.4-57.1,4-113.2c3.6,11.1,7.1,22.2,10.7,33.3
			c-2.5,1.4-7.2,3.2-7,4.3c2.1,16.6,4.8,33.2,7.3,49.7c2.1-0.1,4.3-0.2,6.4-0.3c0-7.3,0.9-14.7-0.2-21.8
			c-1.6-10.9-4.5-21.5-6.9-32.3c4.1,9.5,8.2,19,12.4,28.5c1.8,0.3,3.6,0.6,5.5,1c6.7-29.5,13.3-59,20-88.4c0.5,0,0.9-0.1,1.4-0.1
			c-2.8,28.4-7.8,56.9-7.8,85.3c0,23.8,5.7,47.6,9.3,71.3c1.6,10.4,5.3,20.4,6.6,30.8c1.8,15,10.3,22.9,23.9,26.8
			c18.4-34,12.7-69.6,7.3-104.8c-5.6-36.6-5.9-72.1,6.6-107.8c2.4-6.8-8-18-13.8-30c7.3,6.4,12.6,11,20.1,17.6
			c9-24.5,17.6-47.9,26.2-71.4c-15.6,46.3-21.1,91.9,11.7,136.5c0-17.1,0-32.5,0-47.9c1.3-0.1,2.5-0.1,3.8-0.2
			c0.4,5.6,1.6,11.2,1,16.7c-4,35.5,6.2,67.8,19.1,100.4c17.4,44,31.4,89.3,48.2,133.5c4.5,12,13.9,22.1,21,33.1
			c2.4-1.1,4.7-2.3,7.1-3.4c-10-26.2-21.7-51.9-29.4-78.7c-7.9-27.8-14-56.5-16.9-85.3c-2.8-28.4-0.6-57.3-0.6-83.3
			c7.3,53.2,15.1,109.4,22.8,165.7c2-0.2,4.1-0.4,6.1-0.5c-3-59.5-5.9-119,23.4-174.2c-5.3,25.6-13.2,51-15.2,76.8
			c-2,26-1.8,53.3,4,78.5c6,25.8,20,49.8,30.9,75.6c21.2-17.2,39.8-32.3,58.4-47.4c0.7,0.9,1.3,1.8,2,2.6
			c-12.7,13.7-25.9,27-37.8,41.4c-9.9,11.9-12.3,26.2-2.6,39.3c11.7,15.7,24.3,30.9,37.6,45.3c13.8,14.9,28.9,28.5,41.4,44.8
			c-24.2-32.2-58.5-45.4-97.8-55.6c-0.4,54.5,26,100.2,35.9,149.5c-2.3,0.6-4.6,1.1-6.9,1.7c-11.7-46.7-23.3-93.5-35.4-140.1
			c-1.2-4.4-5.8-11.6-8.3-11.4c-10.4,0.8-22.3,1.4-30.4,6.9c-8.6,5.8-13.6,16.9-20.2,25.8c2.3-8.3,4.6-16.6,6.8-24.9
			c-1.4-1-2.8-2.1-4.2-3.1c-10.4,12.3-21.1,24.4-31.1,37.1c-8.1,10.4-5.2,17.7,7.4,21.1c7.4-10.6,14.5-20.6,21.6-30.7
			c-21.8,28.3-11.5,50.3,13.3,69.9c4.6,3.6,8.1,8.7,9.6,15.5c-12.1-13.9-24.2-27.8-38.4-44.1c-7.4,13.4-11.7,21-15.9,28.7
			c1.1-5.9,1.8-12,3.5-17.7c3.8-12.3,4.1-12.2-12.6-19.6c-1.7,19.9-3.3,38.7-5.2,60.5c4.3-4.9,6.3-7.1,8.3-9.4
			c-2.3,14.3-4.6,28.6-6.9,42.9c-1.4,0.1-2.9,0.2-4.3,0.3c-0.4-5.7-1.3-11.5-1-17.2c1.1-25.1,2.8-50.3,3.6-75.4
			c0.1-4.6-1.7-11.2-5-13.6c-12-8.9-25.1-16.4-39-25.2c-11.7,48-8.4,93.4,2.1,138.8c-11.3-26.1-18.7-52.6-14.4-81.5
			c2.6-17.7,3.9-35.7,3.5-53.5c-0.1-5.6-7.8-11-12-16.5c-2.4,0.4-4.8,0.8-7.2,1.2c-12,38.9-23.9,77.8-35.1,114.3
			c-8.7-39.9,27.6-76.5,19.5-122.9c-10.3,22.9-19.2,42.7-28.1,62.5c6.6-22,13.1-44,21.2-71c-8.4,2.7-15.8,2.8-17.3,5.9
			c-9.1,18.4-16.8,37.5-25.3,57.1c5.5,0.8,8.3,1.3,10.7,1.6c-4.5,3.5-12.5,6.6-12.9,10.5c-1.7,15.2-1,30.7-1.2,46
			c2.6,0,5.1-0.1,7.7-0.1c0.5,5.7,1.1,11.5,1.9,20.4c-23.2-20.1-10.1-44.7-16.6-67c0,42.4,0,82.8,0,129.2
			c16-39.8,41.3-54.4,78.3-42.2c23.6,7.8,36.7,48.2,28.6,86.2c-2.3-16.6-4.5-33.2-7.5-55c-4.9,9-7.2,13.1-10.9,20
			c0.3-6-0.1-9.2,0.6-12.1c5.7-22.4-7.5-40.9-27.7-34.3c-14.9,4.9-31.5,16.4-38.9,29.7c-17.1,30.9-20.9,66.2-22.2,101.5
			c-1.2,32.9-4.3,65.7-6.5,98.5c-2.3-0.2-4.5-0.4-6.8-0.6c1.4-7.8,4-15.6,4.1-23.4c0.1-39.4-0.5-78.7-0.7-118.1
			c-0.2-49.8,0.3-99.6-0.8-149.4c-0.2-10.1,10.9-27.8-12.1-29.8c-4.7,77.5-9.3,153.7-13.9,229.8c-0.9,0-1.8,0-2.7,0
			c2.3-74.4,4.7-148.9,7-223.3c-2.4-0.1-4.9-0.2-7.3-0.2c0,35.6,0,71.2,0,106.8c-1.8-0.1-3.6-0.2-5.5-0.3c0-35.4,0-70.8,0-109.2
			c-8.3,2.7-14.8,4.9-22.6,7.4c5.2,19,10,36.5,14.8,54c-1.6,0.5-3.2,1.1-4.9,1.6c-5.4-16.1-10.9-32.2-16.3-48.3
			c-1.4-0.5-2.8-1-4.2-1.5c-1,6-3.7,12.2-2.8,17.8c4.4,28.6,9.7,57.2,13.1,86.3c-8.1-28.2-16.3-56.5-24.6-85.6
			c-17.9,15.2-27.9,31.7-24.9,56.5c4.5,37.6,0.1,75-12.1,111.3c4.1-36.7,16.4-73.4-3.4-110.1c0,15.9,0,31.8,0,47.8
			c-1.2,0.2-2.5,0.3-3.7,0.5c-1.2-8.1-2.4-16.2-3.5-24.2c-1.5-0.1-3.1-0.2-4.6-0.2c-1.6,17.9-3.2,35.8-4.8,54.4
			c-1-0.7-3.3-2.4-7.3-5.4c1.9,20.1,3.6,39.2,5.4,58.2c-1.7,0.3-3.5,0.5-5.2,0.8c-2.8-35.9-5.7-71.7-8.5-107.6
			c-1.5-0.1-3-0.1-4.5-0.2c-1.3,7.9-2.7,15.8-4,23.8c-0.7,0-1.4-0.1-2.1-0.1c0-15.8,0-31.6,0-47.3c-2.3-0.3-4.6-0.7-6.9-1
			c-2,14.9-5.5,29.8-5.5,44.7c0,15.9,3.3,31.7,4,47.7c-11.1-29.9-12.8-61.1-8.4-92.1c3.5-24.8-6.4-41.4-24.6-56.8
			c-9.3,31.3-18.3,61.4-27.3,91.6c-1.1-0.3-2.2-0.6-3.3-1c5.8-23.7,11.7-47.4,17.3-71.2c1.9-8.1,4.4-16.3,4.3-24.5
			c0-4.8-4.5-9.7-8.2-16.7c-6.8,19.9-12.5,36.5-18.2,53.2c-1.6-0.5-3.2-1.1-4.9-1.6c4.8-17.5,9.7-34.9,15.1-54.2
			c-7.1-2.7-13.6-5.1-22.5-8.5c0,47,0,91.3,0,135.6c-1.8,0-3.6,0-5.4,0c0-44.3,0-88.5,0-132.8c-2.5,0.1-5,0.1-7.4,0.2
			c2.3,75.2,4.7,150.3,7,225.5c-1.1,0-2.2,0-3.3,0c-4.2-76.2-8.5-152.4-12.8-230c-8.1-2.3-14.1-2.4-13.7,11.4
			c1.2,46.5,2.3,93.1,1.6,139.6c-0.5,34.8-5.1,69.5-5.4,104.3c-0.2,20,4.7,40,7.3,60c0.4,3.5,0.8,7-3.2,11.2
			c-3.3-21.5-7.5-42.9-9.5-64.5c-3-32-2.8-64.3-7-96c-2.3-17.2-8.3-35.2-17.6-49.7c-7.2-11.2-21.1-19.3-33.7-25.5
			c-12.9-6.3-29.7,4.3-33.5,18c-5.7,20.7-11.5,41.4-16.6,59.5c-8.2-20.1,1.9-61.8,20.6-76.9c24.8-20,63.9-10.7,78,18.5
			c2.1,4.4,4.9,8.4,10.3,17.7c0-23.6,0.5-41.9-0.4-60.2c-0.2-3.9-5.2-7.6-8.3-11.2c-2.9-3.2-8-5.5-9.1-9.1
			c-7.2-22.6-13.5-45.5-20.1-68.3c9.5,22.9,18.9,45.8,29.4,71.1c8.4-48.4-12.1-86.5-30.6-126.2c-5,2.3-9.1,4.2-12.7,5.8
			c2.2,9.8,4.1,18.2,6,26.5c-4.5-6-9.1-12-14.6-19.3c-9.1,43.3,29.1,79.5,19.1,118.5c-10.9-35.7-22.6-74.3-34.5-113.4
			c-16.6,2.8-21.1,6.2-19.1,22.3c4.6,36.4,8.2,73.6-3.2,109.8c-1.9,6.1-4.7,12-8.3,17.8c10.2-45.4,13.1-90.8,2.6-139
			c-14.3,8.9-27.9,16.6-40.4,25.7c-3.2,2.3-4.3,9.3-4.1,14.1c1.2,28.1,3.9,56.2,4.1,84.3c0.1,7.3-7,14.7-8.9,18.3
			c-1-15-2.2-33.4-3.4-51.8c1.6,1.6,3.1,3.3,4.7,4.8c0.2,0.2,1.1-0.3,3-0.8c-1.8-18.9-3.6-38-5.6-58.1c-13.4,4-17.1,9-12.5,19.9
			c4.7,11.2,7.4,23.2,10.9,34.9c-6.2-13.1-12.5-26.2-18.9-39.7c-18.4,16.3-36.1,31.8-54.8,48.3c9.6-11.4,17.3-23.6,27.8-32.6
			c17.2-14.6,27.4-29.7,14.6-52c4.7,6.7,9.4,13.5,15.7,22.5c4.1-5.8,11-11.8,9.9-14.5c-7.7-18.6-18.3-35.3-40.3-45.1
			C138.8,535.6,143.6,547.3,148.3,559z M580.1,392c-1.4-15.1-10.9-18.4-25.4-17.1c7,10.2,11.1,21.8,26.1,16.5
			c4.4,5.6,8.8,11.3,13.2,16.9c2.6-1.8,5.1-3.5,7.7-5.3c-2.4-5.2-3.7-11.8-7.7-15C591.7,386.3,584.9,390.5,580.1,392z M523.4,581.2
			c3.2-2.6,8.5-4.7,9.3-7.9c1.9-8.2,2.2-16.9,2.2-25.4c0-3.9-2.2-7.9-3.4-11.8c-3.4,3.3-9.6,6.5-9.7,10c-0.3,11.9,1.4,23.9,2.4,35.8
			c-17.1,10.2-2.6,21.9-4.7,32.9c2.5-0.1,5-0.2,7.5-0.3C525.8,603.3,524.6,592.2,523.4,581.2z M454.4,580.6
			c-10.3,13.8-3.3,25.4,5.1,40.3c0.8-12.8,2.1-22,1.6-31.2c-0.1-2.9-4.7-5.7-7.3-8.5c0.4-12.9,1.3-25.9,0.9-38.8
			c-0.1-2.2-5.4-4.2-8.3-6.3c-1.3,2.8-3.8,5.7-3.7,8.4c0.4,10.4,1.2,20.8,3,31.1C446.1,577.7,451.4,579,454.4,580.6z M212.1,519.2
			c-11.1-9.7-22.3-19.4-33.4-29.3c-10.3-9.1-31.4-2.2-36.8-22.5c-1.8,4.6-2.6,12-0.1,13.5c27.7,15.5,53.2,33,66.4,64.1
			c2.2-0.7,4.4-1.4,6.7-2.1c-1.2-8.1-2.3-16.3-3.5-24.4c4.5,4.9,9,9.9,15.4,16.9c-2.2-38.6-27.4-54.2-55.8-67.3
			c0.6-4.6,1.2-9,1.8-13.4c-1.2-0.3-2.4-0.7-3.6-1c-2.3,6.3-4.7,12.6-7,18.8c1.7-0.8,3.4-1.6,5.1-2.4
			C182.3,486.6,197.2,502.9,212.1,519.2z M766.3,516.8c-1,4-2.7,8-2.9,12.1c-0.2,4.3,0.8,8.7,1.3,13.1c4.2-2,8.3-3.9,12.5-5.9
			c4.8,9.9,9.7,19.8,14.5,29.6c2-0.5,4-1,6-1.4c10.7-25.5,25.3-46.4,53.6-54.7c5.7-1.7,8.8-12.1,14.9-21.1c-7-0.3-11-1-14.9-0.6
			c-31.3,3.3-51.7,24.2-72.1,45c3.2-5.7,5-13,9.7-16.9c14.7-12,30.5-22.7,45.9-33.8c9.3-6.7,9.3-6.7,1.1-13
			c-23.3,15.8-46,31.1-68.7,46.5c14.8-15.1,29.6-30.2,46.6-47.6c-0.7-1.8-2.8-7.7-4.1-11.2c-5.4,6.2-9.8,12.7-15.6,17.5
			c-7.1,5.8-16,9.5-23.1,15.3c-13.5,11.3-18.2,26.6-20.9,48.4C757.9,527.9,762.1,522.3,766.3,516.8z M483.2,328.4
			c-10.8,17.6-10,33.9,6,49.4c12.5-14.5,20.7-29,8.2-47.2c8.8,8.7,17.6,17.5,26.5,26.2c1.4-1.4,2.7-2.8,4.1-4.2
			c-8.6-12.6-16.9-25.5-26.1-37.7c-1.9-2.5-7.2-2.5-10.9-3.6c-4.3,0.5-10.7-0.6-12.6,1.9c-10.1,12.9-19.1,26.6-28.4,40
			c1.4,1.2,2.8,2.4,4.3,3.6C463.8,347.3,473.5,337.8,483.2,328.4z M199.9,279.8c1,11.3,4.5,23.2,2.4,33.8
			c-6.1,30.1-14.7,59.6-22,89.4c-3.2,13.1-5.7,26.3-8.5,39.5c2.1,0.4,4.1,0.9,6.2,1.3c18-65.4,41.5-129.4,43.5-198.6
			c5.5,67-20.4,128.8-33.1,198.2c10.8-8.1,20.1-11.7,23.5-18.3c8.6-16.8,17.3-34.4,21-52.7c6.8-33.6,11.5-67.8,14.1-102
			c2-26.8,4.9-54.6-7.1-80.2c-1.9-0.5-3.7-0.9-5.6-1.4c-11.3,30.5-22.6,60.9-33.9,91.4c-2.1,2-5.3,3.6-6.2,6.1
			c-7.8,21.3-15.7,42.6-22.5,64.3c-10.8,34.4-20.7,69.1-31,103.7c1.6,1.1,3.2,2.2,4.8,3.3c3.8-4.1,9.4-7.6,11.1-12.5
			c9.4-26.1,19.3-52.1,26.2-78.9C190.2,337.8,194.4,308.6,199.9,279.8z M833.6,457.3c2.3-1.4,4.6-2.8,7-4.2
			c-27-76.3-54.1-152.5-81.4-228.7c-0.1-0.3-4.8,1-4.4,1c-4.6-13.2-8.7-24.8-12.7-36.4c-2.2,0.5-4.5,1-6.7,1.5
			c-1.6,12.1-5,24.3-4.3,36.3c2.4,42.4,4.2,85,10.2,127c3.3,23.2,13.2,45.9,22.6,67.8c3.3,7.7,13.9,12.4,21.2,18.4
			c-8.8-66.7-33.9-127.6-28.5-193.6c2.3,69,25.2,133,44.1,197.9c1.9-0.4,3.8-0.9,5.7-1.3c-12-51.1-24-102.1-36-153.2
			c1.7-0.4,3.3-0.9,5-1.3c1.7,4.5,3.6,8.9,4.9,13.4c13.9,48.5,27.4,97.1,41.8,145.4C823.2,451.3,829.6,453.9,833.6,457.3z
			 M365.4,564.4c12-12.8,20.7-21.9,29.3-31.1c9.3-10-3.6-20.1,1.1-32.7c6-16,1.5-35.9,1-54.2c-0.3-13-8.3-20.1-21.1-25.3
			c1.9,31.8,3.7,61.5,5.5,92.7c-5.5-0.7-10.5-1.4-15.8-2.1C365.4,527.9,365.4,543.4,365.4,564.4z M602.2,417.4
			c-14.6,12.5-23.2,20.6-20.5,36.3c2.1,11.8,0.3,24.1,0.9,36.2c0.4,8.4,5.7,19.2,2.2,24.5c-6.7,10.1-4.6,16.7,2.1,23.7
			c7.4,7.7,15.7,14.6,25.8,23.8c0-18.6,0-34.2,0-50.5c-5.5,1-10.5,1.8-16,2.8C598.5,482.8,600.2,452.7,602.2,417.4z M180.5,563.3
			c26-15.4,27.1-19.5,8.6-39.9c-7.4-8.2-15.7-16-25-21.8c-14.8-9.2-30.8-16.4-50.7-10.5c7.4,9.6,16.3,16.7,24.9,24.1
			c10.5,9,21.4,17.6,30.9,27.6C174.3,548.4,176.7,556.4,180.5,563.3z M435.9,507.2c5.7-9.7,10.9-16.7,14.2-24.6
			c3.3-7.6,4-16.2,7.1-23.8c3.9-9.9,6.8-20.1-4-26c-7.3-4-21.1-8.1-24.3-4.8c-6.5,6.9-7.9,18.7-11.4,28.4c2.2,0.7,4.4,1.5,6.6,2.2
			c3.4-9.3,6.8-18.6,11.9-32.4C436.6,455.5,413.2,478.6,435.9,507.2z M541.8,505.2c16.9-19.3,16.9-27.6,1.8-32.3
			c2.4-12,22.7-15.9,12.4-35.3c-6.5-12.2-14.2-15-22.2-10.3c-7.4,4.4-14.9,15.1-15.1,23.2c-0.3,11.7,5.2,24,9.8,35.3
			C531.4,492.9,537.1,498.5,541.8,505.2z M181.3,461.8c25.1,16.5,52,30.4,53.3,64.8c15.7-6.5,16.7-7,12.1-17.6
			c-7.9-18-16-36.1-26.2-52.8C209.2,438,192.7,440.2,181.3,461.8z M736.5,528.1c1.9-0.7,3.8-1.4,5.7-2.2
			c9.6-32.2,12.3-36.4,44.4-57.8c7.7-5.1,11.8-9,4.9-17c-8.2-9.5-25.4-9.9-31.5,0.9c-10.9,19.2-20.4,39.2-29,59.6
			C729.5,515.6,734.6,522.5,736.5,528.1z M404.2,402.2c0.5,1.3,1.1,2.7,1.6,4c11.4-2.8,22.7-5.9,34.1-8.2c29.9-6,31.2-7.4,28.7-37.5
			c-0.1-1.5-1.1-3-2.1-6c-12.2,12.1-37,10.1-33.3,30.3C421.7,391.7,412.9,396.9,404.2,402.2z M643.6,578.7c0.9-0.2,1.9-0.3,2.8-0.5
			c9.6-22.5,19.1-45,29.3-68.9c-11.5-2.9-19.4-4.9-28.8-7.3C645.8,528.8,644.7,553.7,643.6,578.7z M330.7,501.1
			c-10.2,3.2-18.2,5.7-28.7,9c10.6,23.8,20.4,46,30.2,68.1c0.9-0.2,1.9-0.4,2.8-0.6C333.6,553,332.2,528.5,330.7,501.1z
			 M509.5,578.2c-15.3,7.6-16.4,20.1-14.9,33.6c1.5,13.4,2.8,26.8,4.7,40.1c1.1,7.2,3.3,14.2,5,21.3c2.2-0.2,4.5-0.5,6.7-0.7
			c0-24,0-47.9,0-71.9c-0.4,0-0.7-0.1-1.1-0.1c-0.5,7.4-1.1,14.8-1.6,22.3c-1.7-0.2-3.4-0.4-5.2-0.6
			C505.2,608.1,507.2,594.3,509.5,578.2z M491.6,496.5c-1.7-0.2-3.4-0.5-5.1-0.7c-4.7,18.4-9.5,36.8-14.5,56.2c12.8,0,21.7,0,34.2,0
			C501.1,532.3,496.4,514.4,491.6,496.5z M251,498.5c1.2-0.2,2.3-0.4,3.5-0.5c0-20.3,0-40.5,0-62.9c-9.1,1.1-19.6,2.3-31.2,3.6
			c2.6,7.5,3.8,12.2,5.9,16.5C236.3,469.7,243.7,484,251,498.5z M488.9,719.2c9.9-22.9,9.7-76.8-3-99.7
			C486.8,655.9,471.4,687.8,488.9,719.2z M756.8,437.9c-15.4-1.1-25.4-1.9-34.5-2.5c1,22.1,1.9,42,2.8,61.9c1.1,0.1,2.1,0.1,3.2,0.2
			C737.1,478.9,746,460.4,756.8,437.9z M505,387.7c13.6,4,26.2,7.8,38.5,11.4c5.7-28.9-14.2-35.3-33-43.1
			C508.8,365.8,507.2,375.3,505,387.7z M469.1,672.9c2-0.2,4-0.4,6-0.5c3.1-24.2,7.3-48.2,8.7-72.5c0.4-6.9-7.6-14.3-11.7-21.5
			c-0.8,0.8-1.7,1.5-2.5,2.3c1.8,14.1,3.5,28.2,5.3,42.4c-1.8,0.2-3.6,0.4-5.4,0.5c-0.7-7.5-1.4-15-2.1-22.5
			C465.5,625.2,461.1,649.5,469.1,672.9z M655.3,488.2c7.9-10.1,18.3-18,20-27.5c1.5-8.3-6.7-18.3-11-28.4
			C644.5,449.4,642.2,465.6,655.3,488.2z M420.2,606.8c5.4-31.4,10.4-60.2,15.5-90.2C417.8,528,405.2,593.8,420.2,606.8z
			 M542.8,518.1c5.1,29.7,10,58.5,15.2,88.8C572.8,593.5,560.6,527.8,542.8,518.1z M313.7,431.8c-4.3,10.5-12.6,20.8-11,29.4
			c1.7,9.3,12.5,17,21,27.5C334.7,465.1,333.6,448.4,313.7,431.8z M619.1,353.6c-11.4,32.5-7.8,39.2,25,45.2
			C635.1,383.4,648.2,358.8,619.1,353.6z M334.4,402.6c34.2-17.6,35.1-18.8,28.3-39.2c-1.2-3.6-6-8.1-9.2-8.3
			c-3.6-0.1-9.8,3.6-10.7,6.9C339.3,374.2,337.5,386.8,334.4,402.6z M344.2,576.2c18.6-8,18.5-51.9,0-70
			C344.2,529.9,344.2,552.1,344.2,576.2z M394.8,546.9c-6.7,13.1-14.6,22.3-14.8,31.6c-0.1,5,13.3,10.2,23.3,17.2
			c4.3-22.3,7.6-39.8,11-57.3c-2.1-0.3-4.1-0.7-6.2-1c-1.2,10-2.5,20.1-4,31.8C401.3,562.6,399.1,557.4,394.8,546.9z M633.9,575
			c0-22.8,0-45.4,0-69.4C615.6,523.7,616.2,569.7,633.9,575z M314.9,303.4c-4.3,22.5-8.5,45.1-13.7,72.4
			C321.6,361,329.6,320.3,314.9,303.4z M573.7,571.8c-1.6-13.9-2.9-24.4-4.1-34.8c-2.4,0.4-4.7,0.8-7.1,1.2c4.2,18,8.4,36,13.6,58.1
			c9.6-7.8,21.9-13.4,21.7-18.5c-0.4-9.1-8.3-17.9-15.4-31.1C578.5,558.2,576.5,563.7,573.7,571.8z M662.3,300.5
			c-14.6,16.8-6.5,61.2,14.5,74.1C671.7,348.4,667.2,325.6,662.3,300.5z M605,505.8c13.4-4.6,15.4-54.1,0-76
			C605,457.3,605,481.6,605,505.8z M276.7,503.2c1.9,0.5,3.8,0.9,5.7,1.4c3.3-4.2,10.2-10.2,9.2-12.3c-5.7-12,4.9-31-18.2-38.4
			C274.6,471.6,275.6,487.4,276.7,503.2z M701.8,454.4c-18.6,15.3-19.5,41.5,0,48.9C701.8,486.9,701.8,471.7,701.8,454.4z
			 M371,432.7c-2.2-0.3-4.3-0.6-6.5-0.9c0,23.6-0.2,47.2,0.4,70.7c0,1.6,5.3,3,9.7,5.3C373.3,481.3,372.2,457,371,432.7z
			 M733.4,390.4c-2.5,10-6.5,17.4-4.5,19.6c6.9,7.8,15.8,13.9,23.9,20.6c1.4-1.5,2.7-3,4.1-4.5C750.1,415.8,743.2,405.4,733.4,390.4
			z M218.5,430.3c30.4-10.8,36.3-20.8,23.4-36C234.8,405.3,228,415.7,218.5,430.3z M447.4,634.4c1.8-0.8,3.5-1.5,5.3-2.3
			c-6.1-12.5-12.2-25.1-19.5-40.3C426.5,611.7,426.5,611.7,447.4,634.4z M654,367.2c-2.7,0.6-5.4,1.1-8.1,1.7
			c6.9,15.1-1.8,33.6,11.3,47.4c2-0.4,3.9-0.8,5.9-1.2C660.1,399.1,657,383.1,654,367.2z M315.2,415.3c1.9,0.4,3.7,0.7,5.6,1.1
			c13.2-13.9,5.8-31.9,9.8-47.6c-2.2-0.4-4.3-0.8-6.5-1.3C321.2,383.5,318.2,399.4,315.2,415.3z M672.4,379.9
			c-2.4,0.6-4.8,1.3-7.2,1.9c1.4,12.3-1.8,26.3,9.8,35c2.4-0.8,4.8-1.5,7.2-2.3C678.9,403,675.6,391.4,672.4,379.9z M543,591.5
			c-6.5,16.4-11.6,29-16.7,41.7c1.7,0.7,3.4,1.4,5.2,2.1C536.9,622.5,559.6,616.6,543,591.5z M296.4,414.4c3.7,0.9,7.3,1.8,11,2.7
			c1.9-11.6,3.9-23.2,5.8-34.7c-2.7-0.6-5.3-1.2-8-1.8C302.3,391.8,299.3,403.1,296.4,414.4z M433.2,409.2
			c38.7,2.8,42.2,1.6,43-15.8C462.2,398.6,449.1,403.4,433.2,409.2z M530,413c0.8-2.8,1.7-5.7,2.5-8.5c-10.3-3.5-20.7-6.9-31-10.4
			c-1,3.3-1.9,6.6-2.9,9.9C509.1,407,519.5,410,530,413z M564.2,444.7c1.9,0.4,3.9,0.7,5.8,1.1c2-7.3,3.9-14.6,6.4-23.5
			c-8.6,0-13.8,0-20.6,0C558.9,430.6,561.5,437.7,564.2,444.7z M425.9,379.7c-1.4-1.7-2.8-3.3-4.2-5c-21.8,1.4-25.2,5.2-16.3,20.4
			C412.4,389.8,419.2,384.8,425.9,379.7z M636.8,417.5c1.2-2.7,2.4-5.4,3.7-8.1c-9.2-5.1-18.4-10.1-27.6-15.2
			c-1.3,2.4-2.6,4.8-4,7.2C618.1,406.8,627.5,412.2,636.8,417.5z"/>
		<path d="M465.7,230.3c-0.8,10.4-1.5,20.8-2.3,31.2c-5.2-44.6-36.3-86.2-15.4-128.8c2,30.1-6.2,67,18,98.2
			C466.1,230.8,465.7,230.3,465.7,230.3z"/>
		<path d="M385.9,83.3c4,26.1,8,52.1,12,78.2c-1.6,0.2-3.1,0.4-4.7,0.7c-3.8-25.9-7.6-51.9-11.4-77.8
			C383.2,84,384.5,83.6,385.9,83.3z"/>
		<path d="M523.5,212.9c3.1-23.4,6.1-46.8,9.2-70.2c1.4,24.1,8.6,48.8-8.1,71.1C524.6,213.9,523.5,212.9,523.5,212.9z"/>
	</g>
</g>
</svg>
