<?xml version="1.0" encoding="utf-8"?>
<!-- Generator: Adobe Illustrator 21.0.0, SVG Export Plug-In . SVG Version: 6.00 Build 0)  -->
<svg version="1.1" id="Layer_1" xmlns="http://www.w3.org/2000/svg" xmlns:xlink="http://www.w3.org/1999/xlink" x="0px" y="0px"
	 viewBox="0 0 1000 1000" style="enable-background:new 0 0 1000 1000;" xml:space="preserve">
<style type="text/css">
	.st0{fill:none;}
	.st1{fill:none;stroke:#000000;stroke-width:0;stroke-linecap:round;stroke-linejoin:round;}
</style>
<g>
	<path d="M0.1,841.2C6.3,815,11.4,788.5,19,762.8c16.9-57.5,51.3-103.9,96.1-145c0.7,4.2,0.2,8.7,2.2,11.2c3.4,4.2,9.2,10.7,12.7,10
		c11.1-2.2,22.6-5.6,31.9-11.8c10.1-6.7,12.3-19,13-31.2c0.7-11.4,4.9-22.8,4.2-33.9c-0.5-8.7-5.3-17.6-10-25.4
		c-4.2-6.9-10.8-12.3-16.4-18.3c8.4,6.4,16.8,12.8,25.3,19.2c1.4-0.5,2.7-1,4.1-1.5c-1.4-11.6-2.8-23.2-4.1-34.8
		c-1.4,0.1-2.8,0.2-4.2,0.3c-1.2,6.3-2.3,12.7-4.2,22.5c-0.5-7.3-0.7-11-0.9-14.6c-0.3-3.5-0.6-7-1-12.2c-4,2.4-6.6,4-7.1,4.3
		c-3.9-4.8-6.2-10.3-10.1-11.7c-3.5-1.2-12.2,1.8-12.4,3.4c-0.4,5.6,1.6,11.5,3.4,17c0.6,1.9,3,3.2,4.6,4.8c-3.9-1-7.8-2-13-3.3
		c0-5.2,0-11.8,0-18.5c-1.3-0.2-2.7-0.3-4-0.5c-1.2,10.1-2.4,20.1-3.7,30.2c-0.3,0-0.6,0-1,0c0-7.5,0-15,0-22.6
		c-1.1-0.3-2.3-0.7-3.4-1c-4,8.8-8.1,17.5-13.6,29.6c1.5-12.1,2.6-20.8,3.7-29.5c-1.6-0.3-3.3-0.6-4.9-1c-2,8.5-4,17-5.8,24.9
		c-0.3-3.6-0.8-8.1-1.3-14c-1.7,2.6-2.7,4.1-3.8,5.8c-0.8-2.4-1.5-4.6-2.2-6.9c-0.9,0-1.8,0-2.7,0c-1,6.9-2,13.8-3.1,22.1
		c-0.9-4.7-1.6-8.4-2.3-12.1c-0.5,0-1.1,0-1.6,0c-0.6,4.4-1.1,8.7-1.5,12.2c-0.5-2.9-1.1-6.7-1.7-10.5c-1.4-0.6-2.8-1.3-4.3-1.9
		c-6.4,11-12.8,22.1-19.2,33.1c0.9,0.6,1.9,1.3,2.8,1.9c-0.5-3-0.9-6-1.5-9.5c-2.6,1.5-4.7,2.7-7.7,4.5c0.8-2.3,1-3.7,1.7-4.6
		c15.5-21.8,31.9-42.1,57.7-53.5c13.1-5.8,24-16.3,37.3-25.6c12.9,13,23.3-7.8,36.9-5.4c-0.5-8.5,14.9-27.7,22.3-29.4
		c14.3-3.3,28.4-7.2,42.8-10.2c3.7-0.7,8.1,0.8,11.8,2.2c11.2,4.3,17.4,3.2,15.7-11.3c-0.6-5,2.9-10.4,3.5-15.8c0.2-1.8-2.5-3.9-4-6
		c5.7-7.6,18.6-13.9,11-26.3c-5.8-9.4-13.5-3.7-19.7,2.8c-5.8-20.4-25.2-6.4-35.8-19.8c-1.7,8.9-2.5,13-3.3,16.8
		c-0.5-3.6-1.1-7.6-1.8-12.4c-11.8,5.2-22.9,10.1-33.4,14.6c4.2-12.4,28.1-28.2,45.8-28.4c9.4-0.1,18.9-4.6,28.5,2.1
		c6,4.2,11.4-10.8,19.8-2.8c2.4,2.3,7.4,1.8,9.7,4.1c8.7,8.6,17.7,10.7,24.4,5.9c6.2,1.5,9.2,2.1,12.1,2.9c1.5,0.5,3.1,1.2,4.4,2.2
		c10.7,8.2,21.4,16.4,32.1,24.7c0.7,0.5,2.1,0.9,2.1,1.5c1.2,11.3,3.3,22.7,3,34.1c-0.1,5.8-4.5,11.5-7,17.5
		c-17-1.7-3.4,15.2-12.6,19.7c-0.1-0.1-1.5-1.4-3-2.9c-0.6,0.3-2,0.6-2,1c-0.7,24.3-11,50.2,0.4,72.6c11.7,23,13.4,46.8,17.4,71
		c1.5,8.9,7.3,17.1,9.1,26.8c-1.9-2.1-3.8-4.3-5.7-6.4c-3.4,5.8-6.5,11.2-10.9,18.7c-1.1-5.1-1.6-7.6-2.1-10.3
		c-5.3,8-10.6,16-15.5,23.4c3.4-19.2,6.7-38.3,10.2-57.3c1.2-6.6,2-14.1-6-15c-5-0.6-10.7,4.2-18,7.4c0,0-2.6-1.7-9.4-6
		c-1.3,18.9-2.5,34.6-3.5,50.3c-0.1,1.3,1,3.2,0.4,3.8c-17.7,18.4-13.4,41.4-13.6,63.6c-18.3-52.9-3.8-103.7,11.6-150.1
		c5.2-8.2,11.3-13.7,11.7-19.5c0.3-5.4-5.4-11.3-8.7-16.8c-4.3-7.2-7.6-15.8-13.8-20.8c-6.1-5-15.2-6.4-23-9.4
		c-0.8,1.1-1.6,2.2-2.4,3.3c7.8,15.1,15.6,30.3,22,42.7c-3.2,4.9-6.9,8.4-6.2,10c8.8,19.8-1.1,39.6,0.4,59.4
		c-0.9-2.1-1.8-4.3-4.2-10c-3.9,21.2-7.1,39-10.3,56.7c-1.1-0.2-2.2-0.3-3.2-0.5c0-3.4,0-6.8,0-10.3c-1.5-0.1-3-0.2-4.4-0.3
		c-1,17.5-1.9,35-2.9,52.5c-0.5,0-1.1,0-1.6,0c0-13.1,0-26.2,0-39.3c-1.2-0.2-2.4-0.5-3.6-0.7c-2,7.7-4,15.4-6.1,23.8
		c-2.8-5.5-5.5-10.7-9.6-18.6c-3.5,6.2-8.1,11.1-8.8,16.5c-1.7,12.7-1.4,25.6-2.1,38.5c-0.5,7.7-1.4,15.3-3.6,22.9
		c0-20.8,0-41.6,0-62.5c-16,24.5-6.4,52.5-12.6,78.5c0-22.4,0-44.9,0-67.3c-1-0.2-2-0.5-3-0.7c-2.2,6.5-4.5,12.9-7.1,20.6
		c-1-5.5-1.8-10.1-2.7-14.8c-4.4,2-8.5,3.9-14.1,6.5c-0.6,8.5-1.3,18.9-2.1,30.3c-1.5-11.8-2.9-22.6-4.2-33.3c-1.1,0-2.1,0-3.2,0.1
		c-1.1,12.9-2.3,25.8-3.4,38.7c-0.6,0-1.2,0-1.8,0c0-12,0-24,0-35.9c-1,0-2,0-3,0c-0.4,8.1-0.7,16.2-1.3,28.5
		c-0.5-10.8-0.9-17.4-1.2-24.1c-1.5-0.3-3.1-0.5-4.6-0.8c-1.7,11.2-3.4,22.3-5.1,33.5c-0.3,0.1-0.6,0.2-1,0.2
		c-0.3-6.2-0.5-12.3-0.9-21c-11.2,16.2-13,31.3-7.6,47.7c-1.3,0.3-2.5,0.5-3.8,0.8c-3.3-9.4-6.7-18.8-10-28.2
		c1.9-7.2,5.6-14.5,5.2-21.6c-0.3-5.3-5.8-10.2-10.4-17.7c-1.3,9.8-2,15.9-2.8,22c-0.4-4.3-0.9-8.5-1.3-12.8c-1-0.1-2-0.2-3-0.3
		c-3,8.2-5.9,16.4-10,27.5c-1.6-13.1-2.8-23.5-4.1-33.9c-12.6,1.3-12.6,1.3-16.9,48.2c-1.1-14.5-2-27.7-3-40.1
		c-32.9,10.5-38.2,38.6-45.6,67c-1.8-3.4-2.8-5.3-4.1-7.9c-19.8,31.4-34,64.5-39.9,101c-1.2,7.6-3.6,14.9-5.4,22.4
		C0.1,859.6,0.1,850.4,0.1,841.2z M211,560.5c-4.1,7.4-8.6,14.6-12.2,22.3c-2.9,6.2-4.6,13-6.8,19.6c1.2,0.4,2.3,0.8,3.5,1.2
		c2.8-5.6,5.5-11.3,8.5-16.9c3.1-5.8,6.4-11.4,9.6-17c-1.8,17.1-15.5,30.1-10.4,51c3.5,14.3,14.5,5,16.9,12.5
		c3.5-2.4,7.8-4.2,10.3-7.3c2.7-3.5,3.8-8.2,5.6-12.4c10.7-3.6,22.3-8.2,28.4-16.6c17.3-24.3,16.2-51.6,9.3-79
		c-1.2-0.3-2.5-0.5-3.7-0.8c-2.7,10.8-5.4,21.5-8.1,32.3c-0.8-0.1-1.7-0.1-2.5-0.2c0-17.4,0-34.7,0-52.1c-1.1-0.1-2.3-0.3-3.4-0.4
		c-1.3,2.8-2.5,5.6-4.2,9.3c-1.9-3.2-3.3-5.4-5-8.3c-11.4,24.6-22.4,48.6-33.6,72.6C212.5,566.9,211.8,563.7,211,560.5
		c11.3-22.7,22.5-45.5,33.7-68.3c-1.9-1.1-3.9-2.1-5.8-3.2c-4.1,6.2-8.1,12.4-11.4,17.4c-2.8-4.1-6.9-10.1-11-16.2
		c-21.7,16.1-27,46.2-13.6,68c-3.7,7.2-7.1,14-10.6,20.8c0.8,0.4,1.6,0.8,2.4,1.2C200.2,573.6,205.6,567,211,560.5z M314.5,375.8
		c-1.6-0.3-3.1-0.6-4.7-0.9c-5.7,15-12.2,29.7-16.4,45c-1.3,4.7,2.4,12.4,6.3,16.4c1.8,1.8,9.4-2,14.4-3.5c1.1-0.3,1.9-1.2,3.1-1.9
		c2.1,3.5,3.9,6.5,5.6,9.5c11.2-6.3,11.7-51.2,0.6-72.3c-2.3,8.3-4.3,15.4-6.9,24.4C315.7,385.4,315.1,380.6,314.5,375.8z
		 M203.5,459.5c14.1-2.6,27.5-5.1,40.4-7.5c7.8,6.4,15.8,13,26.3,21.7c2.9-7.1,4.9-12.3,8.2-20.3c-8.6,2-12.9,2.9-14.6,3.3
		c-8-11-19.2-13.2-29-15.8C220.1,437,211.6,442.8,203.5,459.5z M279.9,465.1c13.1-5.6,23.5-1.7,33.4,7.8c3.3,3.1,10.2,4,15,3.2
		c2.9-0.5,4.8-6.3,7.2-9.8c-3.9-1.3-7.7-2.6-14.1-4.7c-6.9-10.6-11-12.3-25.9-8.9c-1.3,0.3-2.7,1.2-3.9,1
		C278.2,450.9,278.2,450.9,279.9,465.1z M332.5,368.7c-2.3,24.2,3.6,43.5,15,50.5C357.1,402.7,349.5,375.3,332.5,368.7z
		 M323.6,562.8c10.8-4.4,17-6.9,26.9-11c-3.4-11-7.4-23.6-11.9-38C333.4,530.9,328.9,545.6,323.6,562.8z"/>
	<path d="M615.9,355.1c13.1-8.2,26.2-16.3,40.8-25.5c-2.1,3.9-3.5,6.5-5,9.1c5.6,3.8,11,7.4,13.7,9.3c-8.7,3.8-22.5,5.5-25.6,12.1
		c-4.5,9.6-12.1,20.7-5.8,34.3c2.8,6-0.8,15-1.5,22.7c1.2,0.6,2.4,1.2,3.6,1.8c3.2-5,6.4-9.9,11.8-18.5c-2.1,11.5-3.6,19.6-5.7,30.8
		c7.2-3.1,13.8-6,20.2-8.8c0.4,1.4,1.1,4.4,2,7.3c0.3,0.8,1.2,1.4,3.2,3.6c6.6-4.4,13.5-9,19.8-13.2c1.9,1.7,4.1,3.6,6.4,5.5
		c1.1-1.6,2.3-3.1,3.4-4.7c-5.6-3.2-12.8-5.3-16.3-10.1c-3.5-4.8-3.4-12.4-3.8-19.2c12.9,18.5,28.5,24.2,49.6,15.4
		c2.7-1.1,8.2,4.4,12.9,7c0.5-2.8,0.9-5.4,1.5-8.6c4.4,3.5,8.4,6.7,12.5,10c1.4-0.3,2.9-0.5,4.3-0.8c-1-10.5-2-20.9-3.2-33.4
		c-4.7,2.5-7.2,3.8-9.8,5.2c-1.3-3-2.6-6.1-5-11.7c-5.3,15.3-29.8,1.4-30.5,25c-4.8-7.5-9.6-14.9-15.8-24.6c0,7.3,0,12.1,0,16.8
		c-0.9,0.3-1.8,0.5-2.7,0.8c-3.2-8.8-6.3-17.6-10.1-28.1c-3.4,4.8-5.8,8.3-8.2,11.8c-0.8-0.2-1.6-0.4-2.3-0.6
		c1.6-7.3,3.1-14.5,4.7-21.8c0.5-2.2,2.4-5.3,1.6-6.4c-9.1-11.8,3.5-18.3,7.7-24.4c5-2.7,10-5.5,12.5-6.9c11.9-0.6,21.7-1,31.8-1.5
		c-0.8,1.1-1.9,2.6-3,4.1c13.8,1.1,28.8-0.9,40.9,4.1c13.4,5.5,23.9,17.6,29.8,34.1c-11.5-8.9-21.6-16.7-32.7-25.3
		c-0.8,5-1.3,8.4-1.6,10.4c-2.9-2.4-6-5-9-7.6c-2.1,2.7-4.3,5.5-6.3,8.1c-11-9.3-23.6-13.8-38.1-4.6c-0.7,0.4-1.7,0.2-2.5,0.4
		c-4.1,0.7-8.9,0.5-12,2.6c-1.4,0.9-0.8,8.7,1.1,9.9c5,3.2,11.1,4.8,17,6.5c3.4,1,7.2,0.7,10.7,1.1c2.7,0.3,6.3,2.2,7.8,1.1
		c16.1-11.7,30.7,4,32.5,10.7c6.8,25.8,35.1,34.3,42.5,58.8c-5.1-2.1-9.9-4-15.5-6.3c-2.3,5.6-4.2,10.6-6.5,16.3
		c-4.7-3.7-8.8-6.8-15.4-12c0.7,8.5,1.2,14.4,1.5,17.7c-4.1-4.8-9.6-11.4-15.1-17.9c-1.7,1.1-3.5,2.3-5.2,3.4
		c-0.4,4.1-0.8,8.3-1.2,12.4c-22.2-13.3-41-12.2-52,3.5c7.9,1.7,15.5,3.4,26.9,5.9c-6.8,2.4-9.8,3.8-13,4.5
		c-17.9,3.8-27.7,13.2-30.8,30.2c-0.9,5.1,2.8,12.5-6.9,12.8c2.4,6.3,3.1,16,7.5,18.2c7,3.5,8.2,8.3,10.9,14.2
		c6.1,13.6,14.9,26.2,20.5,40c12.2,29.9,20.4,60.8,15.8,94.2c-1-3.6-2.1-7.2-2.9-10.9c-3.1-15.4-6.4-30.2-18.8-41.8
		c-4.3-4.1-4-12.9-6.1-19.5c-3.4-10.9-7-21.7-11.6-36c-7.2,11.9-13.5,8.5-19.6,4.9c-8.2-4.9-13.5,1.7-11.6,6.7
		c8.4,23,17.4,45.9,28.7,67.5c6.5,12.4,17.7,22.3,26.9,33.3c-1.1,1-2.2,2-3.3,3c-2-1.6-3.9-3.2-7-5.6c0,7.9,0,15,0,23.9
		c-2.9-12.2-3.1-23.7-8.3-32.3c-4.2-7-14.2-10.5-24.3-17.3c-0.7,13.4-1.2,23-1.7,32.6c-1,0-1.9-0.1-2.9-0.1
		c-0.6-7.1-1.1-14.1-1.7-21.2c-0.6-0.1-1.2-0.2-1.8-0.2c-0.5,4.3-1.1,8.5-1.7,13.3c-1.1-5.4-2.1-10.3-3.1-15.1
		c-1.1,0.1-2.3,0.1-3.4,0.2c-0.4,5.6-0.9,11.1-1.4,17.8c-2.8-5.6-5.1-10.4-7.5-15.2c-0.8,0.1-1.6,0.2-2.4,0.3
		c-0.5,5.9-1,11.7-1.6,17.7c-1.2-6.7-2.4-13.2-3.6-19.8c-1,0-2,0-3,0c-2.6,12.6-5.2,25.1-7.7,37.1c-1.7-2.5-4.1-6.2-6.8-10.2
		c-1.1,1.5-1.6,2.2-2.1,2.8c-12.9,17.9-1.3,37.4-3.5,56.1c-2.2,18.5-3,37.2-4.3,54c-3-24.9-4.6-51.4-9.7-77.1
		c-2.9-14.5-12.6-27.5-17.2-41.8c-3.4-10.6-4-22.3-5.3-33.5c-1.4-12.6-2.6-25.3-3.2-38c-0.4-8.5,0.6-17.2,0.2-25.7
		c-1.3-23.9-2.6-47.8-5-71.6c-0.4-4.3-6.8-7.8-10.1-11.9c-3.5-4.4-6.6-9.1-8.9-14.8c7.4,4.6,10.9,14.3,23.3,7.3
		c6.9-3.9,19.4,3,23.5-10c5.4-1,10.7-1.9,16.1-2.9c-0.2-1-0.4-2-0.6-3c4.4,1.4,8.8,2.9,15.7,5.1c-8.9-16.6-15.4-30.8-10.6-47.5
		c1.1-3.9-1.1-8.9-1.9-13.3c-0.5-2.7-1.7-5.4-2-8.1c-0.6-6.5-0.9-13.1-1.3-19.6c-1.6-0.1-3.2-0.3-4.7-0.4c-4,5.4-8.1,10.8-14.2,18.9
		c1.6-9.1,2.7-14.8,3.9-21.6c-3.1,1.5-5.5,2.7-7.9,3.9c-0.9-0.9-1.7-1.8-2.6-2.8c6.1-5.7,12.1-11.4,18.2-17.2
		c4.1-3.9,8-7.9,12.1-11.8C616.2,354.9,615.9,355.1,615.9,355.1z M610.9,568.8c-4.1-6.4-9-4.4-14.3,1.3c-9.5,10.2-9.7,23.2-3.2,31
		c1.6,13.2,1,22.8,4.3,31c2.5,6.2,9.3,12.9,18,6.6c9.2-6.6,17.9-13.9,25.9-20.2c6.2,1.8,11.3,3.4,18.3,5.4
		c-5.9-7.6-10.4-13.4-14.8-19c-1.6,1.8-3.1,3.4-2,2.3c0-15.5,0.1-32.9,0-50.3c0-8.5-0.4-17-0.6-25.5c0-2.1-0.8-5.3,0.3-6.3
		c11.6-10.3,6.9-23.3,6.6-35.7c-0.3-11.7,0.7-23.5,1.1-35.2c4.6,5.3,7.2,10.2,11.3,12.6c8.1,4.8,13.1-0.5,17.7-7.1
		c3.3-4.7,8-8.5,13.5-14.1c-3.7-1.4-8.5-4.3-9.4-3.4c-3.9,3.9-6.6,8.9-9.8,13.7c-0.7-0.5-2.1-1.6-3.6-2.7
		c-14.6-11.4-23.8-11.1-37,4.3c-7.6,8.9-3.3,18.5,4.3,27.1c4.3,4.8,6.3,11.6,9.3,17.5c-15.9-10.3-15.9-10.3-20.2-1.8
		c-3.6-2.4-7.3-4.8-11.4-7.5c-2.2,3.9-4,7.1-5.7,10.2c-12.8-7-16.5-5.1-17.5,8.6c-0.3,3.8,0.7,8.1-0.6,11.5
		c-4.2,10.7-4,20.7,4.3,34.2c6-10.8,10.6-19.1,15.3-27.7c20.6,8.5,26.8,27,29.2,45.5c-4.4-5.2-10-11.8-15.6-18.4
		C619.9,560.6,615.5,564.7,610.9,568.8z M682.8,550.3c-7.7-14.9-14.7-28.5-21.9-42.5c-2,9.2-4.8,18.6-5.8,28.1
		c-0.4,3.7,2,10.1,4.8,11.2C665.7,549.5,672.6,549.2,682.8,550.3z"/>
	<path d="M543.6,801.9c-2.6-23-5.2-45.9-7.9-68.7c-1.9,0.2-3.9,0.4-5.8,0.5c0.9,11.8,1.9,23.5,2.8,35.3c-0.4,0-0.8,0.1-1.2,0.1
		c-1.7-10.4-2.8-21.1-5.4-31.3c-1.5-6-5-11.8-8.7-16.9c-0.9-1.3-6,0.4-11.3,0.9c-0.8-4.3-3.1-10.8-3.2-17.3
		c-0.4-34.8,0.3-69.7-0.3-104.5c-0.5-26.7-2.8-53.3-3.7-80c-0.2-7.2-2.7-15.7,10.8-16.8c6.4-0.5,12.1-9.4,18-14.7
		c6.5-5.8,12.4-7.4,19.4-0.1c20.8,21.7,17,48.6,15.5,75.5c-1.7-3.3-3.4-6.6-6.2-12.2c-1.1,13.4-1.9,24.1-2.8,34.8
		c-4.9-13.8-11.6-12.7-23-2.3c9.7,6.4,18.1,12,26.6,17.6c1.7-1.2,3.4-2.3,5.1-3.5c2.6,18.8,5.2,37.6,7.9,56.4
		c-1.4,1-2.8,1.9-4.1,2.9c-0.3-1.8-0.6-3.6-1.1-7.3c0,33.7,0,65.2,0,96.7c-1.6,0-3.1,0.1-4.7,0.1c0-9.1,0.2-18.3-0.1-27.4
		c-0.2-5.9,0.5-12.6-1.9-17.6c-9.1-18.7-9-37.9-7.4-58c1.2-14.6-7.1-26-22.3-31.5c-0.3,4.3-0.6,8.3-0.9,12.3
		c-0.8-0.4-1.5-0.9-2.3-1.3c-2.8,4.1-7.7,8-8,12.3c-0.9,12.8-1.5,25.9,0.6,38.4c1.4,8.7,7.5,16.6,11.7,25.2c1.5-1.1,3.5-2.6,6.1-4.4
		C547.9,730.2,548.5,765.6,543.6,801.9z M532.2,507c0,8,0,14.1,0,19.9c-2.4-4.7-4.9-9.5-8.2-15.8c-9.9,25.8-8.7,49.1-3.2,73
		c6.6-9.5,11.5-19.5,16.5-29.4c0.1-0.3,0.9-0.2,1.2-0.5C552,538.7,550.3,521.9,532.2,507z"/>
	<path d="M352.5,497.5c3.4-14.3,4.8-29.5,10.6-42.8c8.9-20.5,18.6-40.4,20.3-63.1c1.7-23.1-2.3-28.8-24.3-33.8
		c-4.1-0.9-7.9-3.4-11.9-5.2c0.2-1.2,0.4-2.5,0.6-3.7c8.1,0,16.2-0.3,24.3,0.2c2.9,0.2,5.8,2.3,8.7,3.5c3.6,1.4,7.7,4.6,10.6,3.8
		c12.5-3.4,24.7-1.9,33.1,6.9c9.2,9.7,15.4,22.3,21.3,34.7c-13.2-11.2-23.3-26.4-46.4-19.7c2,6.8,4.1,13.9,7.2,24.5
		c4.8-7.1,7.2-10.6,11-16.3c7.4,10.8,14.3,20.8,23.2,33.8c-10.2-5.6-16.1-8.8-22-12c-3,7.1-20.6-6.2-14.9,13.5c-3-3.7-4.6-5.6-7.4-9
		c-1.1,7.6-2,13.6-2.9,20.4c8.5,2.7,16.1,5.2,23.7,7.6c0.3-1,0.6-1.9,0.9-2.9c5.6,5.2,11.2,10.4,18.7,17.5c3.1-9.4,6.4-19.1,9.7-29
		c12.4,15.9-4.7,32.9,2.6,51.9c-16.1-10.1-29.4-18.5-44.9-28.2c-2,8.2-3.4,13.5-5.1,20.6c-3.8-6.9-7-12.7-9.8-17.8
		c-4.5,1.2-9,1.8-13,3.6c-3.9,1.7-9.2,3.7-10.7,7C360.4,474.4,356.7,486.1,352.5,497.5C352.5,497.5,352.5,497.5,352.5,497.5z"/>
	<path d="M541.6,384.9c2.5-7.1,5-14.2,7.6-21.4c2.1,0.5,5.4,2.2,6.1,1.4c11.1-11.3,27.9-10.3,40.5-18.9c6.2-4.3,15.6-4.1,25.8-6.4
		c-2.9,7.8-4.3,11.7-5.7,15.6c0,0,0.3-0.3,0.3-0.3c-8-5.3-12.9,1.7-19.4,4c-16.7,5.8-24.4,17.7-21.5,34.6
		c2.3,13.4,6.8,28.2,3.4,40.4c-4.8,17.3,5.9,17.3,16.3,22.2c3.8-5,7.5-9.9,12.7-16.8c-0.7,10.8-1.2,17.7-1.6,24.6
		c-0.8-0.6-1.6-1.1-2.4-1.7c-2.5,4.1-5,8.3-7.6,12.4c-3.4-0.9-7.1-1.4-10.2-2.9c-2.4-1.2-4.2-3.8-6.2-5.8c-1,2.2-1.5,5.8-3.2,6.4
		c-3.1,1.2-7.3,1.7-10.2,0.6c-18.4-7.1-27.2-5.2-40.5,10c-0.8,0.9-1.1,2.1-3.7,1.7c2.8-7.4,5.7-14.8,8.5-22.2c0,0-0.4,0.5-0.4,0.5
		c6.4-5,11.9-10.8,21.8-8.8c9.4,1.9,10.6-6,9.4-12.4c-0.6-3.6-4.9-6.5-7.6-9.8c3.4-15.2,7.3-32.9,11.3-50.7
		c-18.1-6-17.5,9.5-23.5,17.4C541.6,393.1,541.6,389,541.6,384.9z"/>
	<path d="M496.2,379.9c22.8-21.7,39.3-45.4,30.9-79.1c-1.3-0.3-2.7-0.7-4-1c-1.8,9.8-3.6,19.7-5.2,28.4c-2.3-10.3-4.8-21.7-7.4-33.1
		c-1.4-0.1-2.7-0.3-4.1-0.4c-2.7,3.6-5.4,7.3-6.7,9c-4.4-3.6-9.4-7.6-14.3-11.6c-1.2,0.5-2.4,1-3.7,1.5c0,15.2,0,30.5,0,45.7
		c-9.9-14,5.7-34.9-17.2-46.5c0,11.5,0,21.2,0,30.8c-0.7,0-1.3,0.1-2,0.1c-1.2-7.5-2.4-15.1-3.7-22.7c-15.4,4.3-20.1,25.9-8.8,37.8
		c5.1,5.4,9.3,11.6,14.2,17.2c4.9,5.8,10.2,11.3,13.3,19.6c-7.6-5.3-16.6-9.4-22.5-16.2c-9.5-10.9-16.8-23.6-25.2-35.4
		c-4.1-5.8-8.8-11.1-13.1-16.6c2.3-5,5.7-12.5,10.2-22.4c-9.5-1-16.5-1.7-23.5-2.5c-0.3-0.7-0.5-1.3-0.8-2c6.8-2,13.5-4.9,20.5-5.8
		c16.1-2.1,29-14.8,29.8-30.9c0.1-1.9-1.6-3.8-2.3-5.8c-3.8-11.3-7.6-22.6-11.4-33.9c1.2-0.4,2.5-0.9,3.7-1.3
		c4.7,11.2,9.4,22.3,15.1,35.9c4.9-11.2,8.4-19.3,12.6-28.8c1.3,3,2.1,5,4.6,10.7c5.9-18,10.7-32.9,14.6-45
		c5.5,17.2,11.8,36.7,18.1,56.3c13.4-7.4,15.4-11.9,17.4-38.3c5.2,11.6,3.9,25-4.8,40.3c-3.5,6.2-5.9,10.1,1.4,16
		c7.6,6,12,17,20.2,21.2c6.9,3.6,17.2,0.7,29.9,0.7c-10.4,5.7-17.3,9.5-24.9,13.8c6.6,8.8,12.4,16.6,18.7,25.1
		C541.4,333.5,527.4,365.4,496.2,379.9z M482.5,249c-1.2,0.1-2.4,0.2-3.5,0.3c-0.5,6.3-1.1,12.7-1.7,20.3c-2.3-3.2-3.5-4.9-5.7-7.9
		c-4.3,7.2-7.9,13.2-13.3,22.1c21.5-1.6,39.6-2.9,60-4.4c-11.5-15.5-20.3-27.4-28.8-38.9c-1,5.1-2.3,11.4-4.2,21
		C483.8,254.9,483.1,251.9,482.5,249z"/>
	<path class="st0" d="M483,534.6c-2,2.9-3.4,4.9-3.7,5.4c-4.3-6.4-8.2-12.3-13.4-20.1c-2.7,6.9-4,10.2-5.8,14.7
		c-1.2-3.9-2-6.3-2.8-8.6c-1.4,0.6-2.8,1.1-4.2,1.7c3.6,10.4,7.3,20.7,10.9,31.1c-2.4-0.8-4.7-1.7-7.5-2.7c0,10.4,0.6,19.8-0.1,29
		c-1.5,19.1-4.9,38-5.2,57.1c-0.2,10.1,5.9,20.2,6.4,30.4c0.7,13.7,7.7,18.1,23.1,19.5c1.6-19.9,5-39,4.2-58
		c-0.7-15.5-6-30.9-9.9-46.1c-2-7.6-5.6-14.7-8.4-22.1c5.3,8,10.6,16,15.8,24C483.6,571,495.2,552.9,483,534.6z"/>
	<path class="st0" d="M794.7,500c25.2-7.4,26-9.8,12.3-25.6C802.8,483,798.8,491.5,794.7,500z"/>
	<path class="st0" d="M747,580.3c3.7-9.2,5.7-18.5,8.2-27.7c0.2-0.8,2.9-0.9,4.7-1.3c-2.5-21.2-11.7-39.7-20.7-58.4
		C721.1,524.9,747.3,550.9,747,580.3z"/>
	<path d="M530.6,462.5c-0.1,0.2-0.3,0.3-0.4,0.5c0,0,0,0,0,0L530.6,462.5z"/>
	<path class="st1" d="M496.7,704.2C496.8,704.2,496.8,704.2,496.7,704.2"/>
	<path d="M397.7,615.3c0,4.4,0,8.7,0,13.1C398.3,623.8,398.2,619.4,397.7,615.3z"/>
	<path class="st0" d="M483,534.6c-2,2.9-3.4,4.9-3.7,5.4c-4.3-6.4-8.2-12.3-13.4-20.1c-2.7,6.9-4,10.2-5.8,14.7
		c-1.2-3.9-2-6.3-2.8-8.6c-1.4,0.6-2.8,1.1-4.2,1.7c3.6,10.4,7.3,20.7,10.9,31.1c-2.4-0.8-4.7-1.7-7.5-2.7c0,10.4,0.6,19.8-0.1,29
		c-1.5,19.1-4.9,38-5.2,57.1c-0.2,10.1,5.9,20.2,6.4,30.4c0.7,13.7,7.7,18.1,23.1,19.5c1.6-19.9,5-39,4.2-58
		c-0.7-15.5-6-30.9-9.9-46.1c-2-7.6-5.6-14.7-8.4-22.1c5.3,8,10.6,16,15.8,24C483.6,571,495.2,552.9,483,534.6z"/>
	<path d="M749.1,117.4c0,0-3-0.4-3.4,3.5c1.5,31.7-2.3,61.5-14.9,89.6c-3.4,7.7-9.8,14.3-15.8,20.5c-16.1,16.9-32.7,33.4-49.1,50
		c-0.6,0.6-1.6,1.1-1.9,1.8c-15.1,38.6-49.8,42.6-84,47c-4.4,0.6-9.2-2.8-13.9-3.4c-2.2-0.3-5.6,0.8-7.1,2.5
		c-7.9,8.7-15.7,17.4-22.7,26.7c-9.3,12.5-18.7,25.1-26.3,38.7c-3.1,5.5-3.9,12.1-0.1,20.7c7,15.9,2.9,47.9-15.8,59.4
		c-15.6-8.2-21.2-24.6-18.5-42.1c2.2-13.9,2.2-29.1-1.3-42.6c-2.2-8.6-12.9-14.9-19.4-22.5c-4.6-5.3-8.6-11.2-13.2-16.6
		c-6.6-7.8-13.4-15.4-20.7-19.6c-7.5-0.9-14.9-2.1-22.4-2.7c-4.9-0.4-10.1-0.8-14.7,0.4c-12.5,3.4-32.1-4.2-41.9-12.4
		c-6.5-5.4-15.8-7.1-20.4-15.7c-14-26.1-37.6-44.2-57.5-65.1c-23.8-25.1-30-54.8-32.5-86.7c-0.7-9-0.1-18.2-0.1-27.9
		c-0.3-3.9-3.3-3.4-3.3-3.4c-2.3,0,2.3,0,0,0c0,0-3-0.4-2.6,2.7c3.6,53.3,7.1,104.7,10.5,154c0.7-8.8,1.7-20,2.6-31
		c3.9,0.3,8.8-0.8,11.9,1.1c7.2,4.4,13,10.8,20.2,15.3c6.6,4.1,2.6,13.9,12.6,17.9c6,2.3,7.5,16.2,11.1,24.8
		c4.3-0.7,7.3,0.9,9.1,3.4c2.8,4,3.9,9.6,7.4,12.6c7.3,6.4,15.4,12.2,23.8,17c6.6,3.8,14.1,7.4,21.6,8.3c12.2,1.5,24.8,1.7,37,0.6
		c18.9-1.6,29.7,10.4,40.9,22.1c3.8,4,6.8,8.6,10.3,12.8c9.7,11.8,15.7,24.9,14,40.6c-1.8,16-3.7,32.1-5.1,43.7
		c7,6.7,12.5,10.4,15.8,15.5c3.3,5.2,4.6,11.7,6.4,16.6c-9.3,0-16.2,2-20.7-0.4c-9.7-5.2-18.1-12.6-27.8-19.6
		c0.9,7.9,1.8,16.5,2.8,25c-1.3,0.3-2.6,0.6-4,0.9c-2.9-11.4-5.8-22.9-9.2-36.3c-3.6,9.2-6.6,16.9-9.7,24.9
		c-2.5-1.9-4.8-3.7-10.1-7.9c2.6,6.7,3.4,13.1,5.5,13.5c14.4,3,7.4,13.3,7.8,20.9c0.1,2.7-1.7,5.5-1.5,8.1c0.9,15.3,2.4,30.7,2.9,46
		c0.1,3-3.1,8.7-4.8,8.7c-3.5,0-7.6-2.3-10.3-4.9c-11.5-11.4-7.2-25.4-5.9-39c0.8-8.9,3.6-19.8-0.3-26.5
		c-8.5-14.6-7.9-28.8-2.7-47.9c-6.8,7.4-10.6,11.5-14.7,16c-1.9-3.4-3.3-5.9-4.6-8.5c-5.5,10-10.6,19.5-15.8,29l0,0
		c0.7,4.1,1.5,8.2,2.3,13c2.8-3.8,5.1-6.8,9.1-12.2c0,10.1,0,17.1,0,26c2.8-6.1,4.7-10.1,6.6-14.2c1.1,0.3,2.1,0.5,3.2,0.8
		c0,22.6,0,45.2,0,68c12.9,9.5,22,21.1,24,36.3c0-2.3,0-4.7,0-7c8.9,15.8,5.3,31.4,0,47c-3.7,10.9-7.3,21.9-10.8,32.9
		c-1.5,4.8-1.9,10.1-4.2,14.4c-1.1,2.1-5.5,2.4-8.7,3.6c-9.6,40.8-14.4,83.3,1.6,125.6c-5.5-34.4-0.2-67.7,10.1-100.5
		c9.9-31.4,26.3-59.6,40.7-93.5c-1.8-5.7-5.7-16.9-8.7-28.3c-0.9-3.4-0.5-9.1,1.7-11.1c10.6-9.5,13.1-20.4,10-34.1
		c-2-8.8-1.5-18.3-1.2-27.5c0.1-2.1,3.6-4.2,6.2-6.9c-0.9-6.3-2.2-14.6-3.7-24.9c3.7,2.2,5.2,2.6,5.8,3.6c1.2,1.9,2.8,4.1,2.8,6.1
		c-0.6,24.3-1.5,48.6-2.1,73c-0.2,6.6-0.7,13.3,0.2,19.7c3.3,22.7,1.9,44.2-12.9,63c-4.6,5.8-11.4,10.6-14.2,17.1
		c-8.6,20.5-17.5,41.3-11.5,63.2c2.9-11.2,6-23.6,9.2-36.1c1.2,0.2,2.4,0.4,3.6,0.6c0.5,4.6,1,9.2,1.6,13.9c1.5-8.8,3.3-19,9.2-22.7
		c4.4-2.8,14.1,2.7,22.8,4.9c0,12.6,0,26.6,0,40.6c0.9,0,1.8,0,2.6,0c0-12.9,0-25.8,0-41.7c7.2,12.1,12.7,21.3,17.7,29.7
		c0.5-3.3,1.2-8,2.2-14.3c17.1,26.6,5.8,55.2,11.2,81.7c2.4-4.7,4.2-9.4,4.7-14.3c3.1-30,5.9-60,8.9-90.3c2.3,0.7,4,1.2,4.3,1.3
		c-0.6-26.4-1.4-53.2-1.8-80c-0.4-28.9,2.2-58.2-1.1-86.8c-4-34.2,18.8-52.5,36.4-74.5c2-23.8,3.8-47.6,6.1-71.4
		c0.2-2.4,3.5-4.5,5.3-6.7c2.5-7.1,5-14.2,7.6-21.4c1.3-1.8,2.3-4.5,4.1-5.2c18.7-7.5,37.3-15.6,56.5-21.6c6.4-2,14.4,1.7,25.2,3.3
		c19-15.7,43.3-32.9,57.6-60.9c2.9,6.3,5.1,11.2,7.3,16.1c-11.5-29.8,11.3-40.7,29.4-53.4c2.2,0.8,4.8,1.7,7.6,2.7
		c1,8.9,2.3,19.4,2.9,25c3.6-46.4,7.6-97.2,11.6-148.5C751.1,117,749.1,117.4,749.1,117.4C746.7,117.4,751.4,117.4,749.1,117.4z
		 M474.9,588c4,15.2,9.3,30.6,9.9,46.1c0.8,19-2.5,38.1-4.2,58c-15.5-1.4-22.4-5.9-23.1-19.5c-0.5-10.2-6.6-20.3-6.4-30.4
		c0.3-19.1,3.7-38,5.2-57.1c0.7-9.2,0.1-18.5,0.1-29c2.8,1,5.2,1.8,7.5,2.7c-3.6-10.4-7.3-20.7-10.9-31.1c1.4-0.6,2.8-1.1,4.2-1.7
		c0.8,2.4,1.5,4.8,2.8,8.6c1.7-4.5,3.1-7.8,5.8-14.7c5.2,7.7,9.1,13.7,13.4,20.1c0.4-0.5,1.7-2.5,3.7-5.4
		c12.2,18.3,0.7,36.4-0.6,55.2c-5.3-8-10.6-16-15.8-24C469.4,573.2,473,580.4,474.9,588z"/>
	<path class="st0" d="M747,580.3c3.7-9.2,5.7-18.5,8.2-27.7c0.2-0.8,2.9-0.9,4.7-1.3c-2.5-21.2-11.7-39.7-20.7-58.4
		C721.1,524.9,747.3,550.9,747,580.3z"/>
	<path class="st0" d="M794.7,500c25.2-7.4,26-9.8,12.3-25.6C802.8,483,798.8,491.5,794.7,500z"/>
	<path d="M996.6,835.9c-12.3-86.2-48.5-159.5-113.3-216.3c-2.7,4.4-4.8,8.7-7.8,12c-0.6,0.7-6.2-1-6.9-2.7
		c-4.5-10.6-8.4-21.6-12.3-32.5c-1-2.9,0.3-7.1-1.4-9c-11.4-12.4-10.4-27.5-11.7-42.7c-1.1-12.7,6.8-24.8,0.4-37.9
		c-1.6-3.3,3.1-9.7,4.8-14.7c1.7,0.6,3.5,1.1,5.2,1.7c-1.2,6.1-2.4,12.2-3.6,18.3c1.2,0.2,3.4,0.7,7,1.4c0-7.4,0-14.1,0-20.9
		c1.1-0.1,2.2-0.1,3.3-0.2c1,7,1.9,14,3.3,24c0.8-7.6,1.3-12.1,1.7-16.6c1-0.2,2-0.5,3.1-0.7c4,8.7,8,17.4,13.4,29.3
		c-1.4-12-2.4-20.5-3.5-29.1c1.2-0.3,2.4-0.6,3.7-0.9c1.6,3.9,3.8,7.7,4.8,11.7c0.9,4.2,0.6,8.7,0.9,13.1c0.3,0,0.7-0.1,1-0.1
		c0.5-5,1-10.1,1.8-18.5c1.8,5.8,2.5,8,3.3,10.8c1-3.2,1.8-5.4,2.5-7.7c0.9,0.1,1.7,0.1,2.6,0.2c0.9,7.1,1.9,14.3,2.8,21.4
		c0.3,0,0.6,0,1-0.1c0.4-4.4,0.7-8.7,1.1-13.1c0.7,0,1.3,0,2,0c0.6,5,1.2,10,1.7,14.3c0.5-3.1,1.1-7,2.3-13.8c7,7.8,14.3,13,17.3,20
		c2.7,6.3,3.4,11.6,11.7,9.6c-14.5-26.4-87.2-83.7-103.2-81.4c-9.2-19.4-7.3-28.3,13-68c-13.2,14.4-25,29.9-37.3,45
		c-5.7,6.9-12.7,12.7-21.7,11.8c0,6.7,3.3,17.5-0.7,23.1c-9.7,13.7-11.2,29-14.2,43.5c-19.5-21.8-23.2-54.3-45.9-72.5
		c-3,7.8-6.2,16.2-10.3,26.8c-4.6-5.8-6.2-7.8-7.5-9.5c-13.5,19.2,14.2,39.1-3.1,57.3c7.2,10.4,18.7,19.5,7,33.5
		c-0.6,0.7,1.1,3.3,1.6,5.1c5.6,22,12.6,43.7,16.3,66c5,30.6,7.4,61.7,11,92.5c0.4,3.6,1.9,7,3,10.8c0-15.7,0-30.8,0-45.9
		c0.5-0.1,1.1-0.3,1.6-0.4c2.4,6.9,4.8,13.7,6.9,19.8c2.6-1.1,4.7-2,7.4-3.2c-12.1-25.9-19.8-52,3.2-76.3c-6.2,0-12.8,1.4-13.7-0.2
		c-5.4-10-3.7-19.5,6.1-27.3c-17.4-7.7-2.9-16.8-1-25.7c1.4,3.2,2.8,6.3,2.9,6.5c0-7.1,0-16.7,0-26.4c1.2,0.5,2.9,0.8,3.2,1.6
		c9.9,25.8,19.2,51.8,29.4,77.5c4.9,12.3,11.4,24,17.2,35.9c1.4-0.3,2.8-0.7,4.2-1c-10.4-21.3-13.9-42.8-4.6-64.7
		c-9.2-2.4-13.1-12.7-10.3-24.8c0.9-3.7-0.4-8-1-12c-0.3-2.2-1.1-4.3-1.7-6.5c-3.3-11.7,6.9-23.8-1.2-35.3c2-0.5,4-0.9,6-1.4
		c2.3-5.3,4.6-10.5,7-15.8c3,4.7,6.4,9.2,9,14.1c3.8,7.1,7,14.5,12.3,25.6c-9.5-6.1-15.6-10-21.6-13.9c11.8,12.9,12.2,29,12.6,45.2
		c1.3,0,2.7,0.1,4,0.1c-4.5,10.2,6.7,19.8,3.1,28c-6.8,15.5,0.2,27.9,2.1,42.2c3.7,27.7,19.2,48.6,28.8,70.3
		c3.2-7.1,6.6-14.8,10-22.5c1.3,0.5,2.6,0.9,3.8,1.4c1.6,5.2,3.2,10.5,4.8,15.7c1.2-0.1,2.4-0.2,3.5-0.2c0.7-11.5,1.4-23,2.3-38.3
		c17.7,19.9,12.8,42.3,17.9,62.6c0-15.9,0-31.7,0-46.6c36.6,6,37.5,36.9,46.5,62.7c2-2.2,3.4-3.8,5.3-5.8
		c6.9,13.2,14,25.8,20.3,38.9c14.8,31,20.2,64.4,24.4,98c0.9-4.1,2.6-8.3,2.6-12.4c0-3.8,0-7.5,0-11.3l-3.3-25.6
		C996.6,834.2,996.6,835.1,996.6,835.9z M755.1,552.5c-2.4,9.2-4.4,18.5-8.2,27.7c0.3-29.4-25.8-55.3-7.8-87.4
		c9,18.8,18.2,37.3,20.7,58.4C758.1,551.6,755.4,551.8,755.1,552.5z M794.7,500c4.1-8.5,8.1-17,12.3-25.6
		C820.7,490.2,819.9,492.6,794.7,500z"/>
</g>
</svg>
