<?xml version="1.0" encoding="utf-8"?>
<!-- Generator: Adobe Illustrator 21.0.0, SVG Export Plug-In . SVG Version: 6.00 Build 0)  -->
<svg version="1.1" id="Layer_1" xmlns="http://www.w3.org/2000/svg" xmlns:xlink="http://www.w3.org/1999/xlink" x="0px" y="0px"
	 viewBox="0 0 1000 1000" style="enable-background:new 0 0 1000 1000;" xml:space="preserve">
<path d="M508.1,638.7c-3.3,2.6-6.2,4.6-8.8,7.1c-1.5,1.4-3.7,3.5-3.6,5.1c0.9,8.2-5,13.1-8.8,18.9c-5.2,8.1-10.5,16.2-15.8,24.2
	c-0.7-0.4-1.4-0.8-2.2-1.2c4.4-9,8.9-17.9,13.3-26.9c1.8-3.6,4-7.1,5.5-10.9c0.9-2.4,2.2-6.1,1.1-7.5c-4.7-5.9-0.5-10.5,1.4-15.4
	c4.9-12.7,10.3-25.2,15.2-37.9c3.8-9.8,2-12.3-8.3-12c-11.9,0.3-23.8,1.2-36.6,1.8c0.9-17.1-3.1-33.7,4.9-50.2
	c3.7,1.8,7.9,3.9,14.1,6.9c-0.9-4-0.9-6.7-2.1-8.7c-1.3-2.1-3.6-4-5.9-5.1c-9.7-4.7-13.6-12.5-13.5-22.9c0-5.6-2.5-9.4-7.7-11.8
	c-6.2-2.8-7.7-2.2-7.7,4.5c-0.1,18.9,0.3,37.8-0.1,56.7c-0.3,13.4,0,26.2,15.2,33c-0.4,0.6-0.8,1.1-1.2,1.7c-3,0-6.2,0.5-9.1-0.1
	c-13.3-2.6-26.4-5-38.4,5.6c-0.4-6.8-3.2-14-0.7-17.9c6.4-10.1,2.2-20.3,3.1-30.4c0.9-10.9,0.3-22,0.2-33
	c-0.1-10.3-1.5-12.3-10.1-14.1c0,25.2,0,50.2,0,75.1c-11.2,1.2-13.1,3-12.9,11.8c0.2,9.1,4.7,13.1,15.4,13.8
	c2.1,9.2,4.1,18.3,6.6,29.3c-2.8-2.6-4.7-4.4-6.6-6.1c-6-5.3-13.6-5.8-19.4-0.5c-13.1,12-25.8,24.5-38.6,36.6c0-2.5,0.1-6.7,0-10.8
	c-0.3-9.4-6.6-15.4-15.9-15.9c-16-0.9-32-0.5-45,10.3c-9.3,7.7-17.3,16.8-25.9,25.3c-0.5,0.5-0.8,1.1-1.9,1.3
	c4.1-13.8,10.6-26.2,22.4-36.9c-9.2-4.6-17.2-8.1-24.8-12.4c-12-6.8-23.5-14.5-35.6-21.1c-7-3.8-14.5-7.3-22.1-9
	c-9.1-2-16.9,1.4-21.1,10.9c-0.7-0.2-1.4-0.4-2-0.5c0.4-4.1,0.2-8.4,1.4-12.3c3.5-11.4,8.8-22.4,11.1-33.9c2.1-10.1,2.3-21,1.2-31.3
	c-1.2-10.4-12.6-14.3-23.2-8.9c-3.3,1.7-5.9,4.7-8.8,7.2c0.7-11.5,12.4-23.8,26.5-27.7c12.2-3.4,12.2-3.4,12.2-16.2
	c0-25.9-0.3-51.7,0.1-77.6c0.2-9.9-3.7-17.6-10.2-24.4c-3.8-4-8.3-7.2-11.9-11.3c-1.7-2-2.1-5.1-3.2-7.8c9.1,0.5,16.5,0.8,23.8,1.3
	c7.2,0.6,12.3-2.5,16.2-8.4c7.4-11.3,11.9-23.4,9.2-37.2c-0.3-1.4,0-2.8,1.5-5.1c3.2,5,6.5,10,9.6,15.1
	c10.4,17.1,20.2,34.6,31.2,51.4c6.2,9.5,13.7,18.4,21.6,26.6c5.3,5.6,12.4,9.5,18.6,14.4c1.9,1.5,3.3,3.8,5.6,6.5
	c-3.6,0.7-6.5,0.7-8.5,1.9c-3.5,2-8.5,4.5-9.1,7.5c-0.8,3.6,1.2,9.7,4.1,11.8c10.3,7.6,21.4,14.3,32.5,20.8c8,4.7,16.7,8.3,25,12.5
	c6.9,3.5,9.7,1.9,9.7-5.8c0-10.9,0-21.8,0-34.7c3.8,3.8,6.8,6.5,9.6,9.5c8.1,8.4,16.2,16.9,24.4,25.3c4,4.2,7.7,4.7,12-0.2
	c2-2.3,5.5-3.1,8.3-4.7c1.6-0.9,4.1-1.8,4.4-3.1c3.6-14.2,17.5-15.6,26.7-22.7c-4.1,5.8-8.7,11.4-12.3,17.5
	c-3.3,5.6-2.7,11.6,1.5,16.8c5.2,6.4,10.7,12.7,16,19c6.3-5.2,3.5-14.9-6.7-25.7c8.7-8.3,17.5-16.7,26.4-25.2c1.1,0.8,1.9,1.3,2.5,2
	c9.4,11.1,9.2,10.6,23,5.1c20.5-8.1,35.1-24.7,53-36.4c7.9-5.2,16.6-9.2,25.1-13.6c2-1,4.4-1,7.6,0c-1.5,1.6-2.8,3.3-4.4,4.7
	c-4.5,4-9.1,7.7-13.6,11.7c-4,3.5-2.9,6.1,1.6,7.8c2.7,1,5.5,1.8,8.1,2.9c6.5,2.8,13,5.7,19.4,8.5c6.1,2.7,12,6.7,18.3,7.6
	c4.8,0.7,10.5-1.9,15.1-4.3c5.2-2.6,9.6-6.7,15.4-10.9c0,20.4,0,39.2,0,58.1c0,8.9-0.7,17.8,0.2,26.6c1,10.1-7.1,16.3-8.4,27.4
	c3.5,3,8.6,7.4,13.7,11.8c-8.9,7.2-1.6,15.3,0.3,22.4c2.6,9.6,7.7,18.5,11.7,27.7c0.5,1.2,0.9,2.5,1.2,3.2c-7.1-1.3-13.9-3-20.8-3.8
	c-6.1-0.7-9.3,3.2-9.9,8.9c-0.7,6.3,3.1,9.1,9,9.6c4.2,0.3,8.4,0.6,12.6,0.8c0.2,0.7,0.4,1.3,0.5,2c-2.8,1.1-5.5,3-8.4,3.2
	c-13.3,1-26.2-0.4-38.5-6.2c-18.8-8.8-44.8-3.4-58.9,12.4c-0.6,0.6-1.4,1.1-2.7,2.1c3.2-13.3,10.4-23.2,19.9-31.3
	c5.2-4.4,9.4-8.8,8.2-16.3c9.5,1.9,18.4,4.5,27.5,5.3c5.6,0.5,11.9-0.6,17.2-2.8c5.7-2.4,5.7-7.2,1.2-11.5
	c-10.9-10.7-34.1-11.9-45.8-2.2c-21.9,18.1-43.8,36.2-65.6,54.3C499.9,632.3,500,634.5,508.1,638.7z M227.1,390.8c0,3.3,0,5.8,0,8.4
	c0,32.3,0,64.6,0,96.8c0,22-0.1,44,0.1,66c0,2.3,0.9,6,2.3,6.5c4.9,1.7,10.2,2.4,15,3.4c0.7-1.7,0.8-1.9,0.8-2.1
	c0.1-57.4,0.1-114.8,0.2-172.1c0-0.5,0.2-1.2-0.1-1.4c-1.8-1.8-3.4-4.7-5.6-5.2C236.1,390.2,232,390.8,227.1,390.8z M574.9,454.9
	c0,30.4,0,59.6,0,89.5c6.9,0,12.3-0.2,17.8,0.1c3.8,0.1,7.5,0.9,11.2,1.2c2.5,0.2,6.5,1,7.1-0.1c1.2-2,1.5-5.9,0.4-7.7
	c-6.1-9.8-5.5-20.4-5.4-31.2c0.1-14.6,0-29.2,0.1-43.8c0-4.2-0.5-7.9-5.8-8C592.3,454.8,584.4,454.9,574.9,454.9z M284.4,587.1
	c11.4-10.5,18.6-23.3,19.5-37.6c1.6-25.4,1.1-51,1.4-76.5c0-2.3-0.2-5.4-1.6-6.9c-5.6-5.9-10.9-13-17.8-16.6c-6.1-3.1-7.8,6-12,9.1
	c-0.4,0.3-1,0.8-0.9,1c0.7,1.9,1,4.3,2.3,5.6c1,0.9,3.3,0.5,5.2,0.7c-2.1,5.6-5.1,10.5-0.1,15.8c2.1,2.2,3.7,5.9,3.8,8.9
	c0.3,29.9,0.2,59.7,0.2,89.6C284.4,582.5,284.4,584.8,284.4,587.1z M352.5,495c0.6-2.4,1.2-4.6,1.8-6.8c-3.9-0.6-7.8-1.7-11.6-1.4
	c-1.2,0.1-3,3.8-3,5.9c-0.2,21.7,0,43.4-0.2,65.1c-0.1,5.5,2,7.2,7.2,6.8c4.5-0.3,9.1-0.4,13.6,0c5.4,0.4,7.1-1.7,7-7
	c-0.3-16.5-0.1-32.9-0.1-49.4c0-4.2,0-8.4,0-13.3C361.3,495,356.6,495,352.5,495z M485.1,496.1c0,18.2,0,36.8,0,55.5
	c0,17.3,0,17.1,17.3,17.1c6.8,0,9.3-2.8,9.3-9.5c-0.2-19.3-0.1-38.7-0.1-58c0-2.1-0.3-4.2-0.6-7.2
	C502.2,494.7,494.1,495.4,485.1,496.1z M543.3,547.4c0-16,0.1-32.2,0-48.4c-0.1-16.1,0.4-32.3-1.7-48.6c-2.4,2.2-3.6,4.4-4.3,6.8
	c-6.1,20.6-7.9,41.8-5.4,63c1.5,12.4,5.2,24.6,8.4,36.8c0.5,1.8,3.5,4.6,4.5,4.3c4.5-1.6,8.9-3.8,13-6.4c0.8-0.5,0.5-4.3-0.5-5.7
	c-3.1-4.5-7.5-2.9-11.7-1.5C545.1,547.9,544.6,547.6,543.3,547.4z M284.4,625.7c7.6-3.4,13.8-6,19.7-9c1.8-0.9,3-3,4.5-4.6
	c-1.5-1.3-3-2.9-4.7-3.9c-1.3-0.7-3-0.7-4.5-1c-0.2-0.8-0.5-1.5-0.7-2.3c8.8-3.4,17.6-6.8,26.5-10.2c-2-5.5-4.2-11.6-11.2-11.3
	c-7,0.2-14.3,1.2-20.9,3.6c-3.6,1.3-7.9,5.9-8.4,9.5C283.6,605.5,284.4,614.9,284.4,625.7z M353,582.1c-0.4,0.6-0.7,1.2-1.1,1.9
	c-9.3,0-14,4.5-11.3,10.6c3.7,8.3,17.3,12.8,25.4,8.5c4.6-2.5,6.2-8.6,2.2-12C363.8,587.3,358.1,585,353,582.1z M506.9,469.7
	c-5.6,0-11.1-0.5-16.4,0.1c-7.5,1-5.4,7.2-5.3,11.8c0.1,4.9,3.6,2.2,6.1,2.4C502,485.3,504.4,478.1,506.9,469.7z"/>
<path d="M806.5,602.6c-17.5-0.2-28.1,10.3-40.1,17.7c-7.3,4.5-14.6,9.1-22.4,12.6c-4.2,1.9-9.4,1.6-14.1,2.3
	c-0.2-0.8-0.4-1.5-0.6-2.3c3.7-2.1,7.5-4.1,11.2-6.3c14.2-8.6,16.7-26.9,5.6-39.6c-17.2-19.7-40.5-25.1-64.4-13.7
	c-6.2,3-10.8,9.3-16.3,14.3c0-1.5,0-3.8,0-6c-0.6-23.9-0.6-47.8-1.8-71.7c-1.5-29.9-7.3-59.1-16.1-87.7c-1.9-6.2-3.8-12.3-5.5-18.5
	c-1.3-5-4.5-5.7-9.2-5.4c-6.9,0.4-13.8-0.3-21.7-0.5c1.6-4.2,2.5-6.3,3.3-8.4c15,0.5,20.1-5.9,16.9-12.5c6.6-2.1,13.9-3.2,20-6.6
	c5.1-2.9,10.2-7.6,12.8-12.7c5.4-10.7,9.2-22.2,13.3-32.6c10.7,10,21.7,20.5,33,30.6c3.3,2.9,7.6,4.9,11.7,6.8
	c5.3,2.5,9.8,1.5,12.7-4.8c6.4,11.1,5.2,22.7,3.7,34c-1.8,14.4-4.9,28.7-8.7,43.2c-1.5-7.4-2.9-14.8-4.2-21.5
	c-10.3-4.8-26.6,7-29.4-12c6.5-5.3,12.8-10.6,19.9-16.3c-7.5-3.4-14.7-7.4-22.5-9.8c-3.2-1-7.8,1.1-11.3,2.9
	c-12,6.1-13.7,10-11.6,23.5c3.5,23.1,6.7,46.2,10.6,69.2c3.1,18.8,7.1,37.4,10.6,56.1c0.8,4.2,2,8.5,1.8,12.7
	c-0.3,6.4,2.8,8,8.3,7.3c5.4-0.6,11-0.7,16.3-1.9c13.4-2.9,18.6-12.3,16.8-27.7c-1.3-10.7-6.2-18.2-14.8-24.9
	c-7.3-5.8-12.7-14-18.8-21.3c-2.1-2.5-3.7-5.5-6.5-9.9c3.5,2.2,5.7,3.7,8,5c7.1,3.9,14.3,7.6,21.2,11.8c10.1,6.1,20,12.7,30.1,18.9
	c2.4,1.5,5.5,1.9,8.2,2.8c0.6-2.6,1.9-5.4,1.5-7.9c-1.7-10.8-7-15.3-18.8-15c3.5-5.1,6-9.6,9.2-13.4c3.7-4.3,9.4-7.7,0.4-13.7
	c12.9,2.1,22-5.1,32.2-8.3c8.5-2.7,17.3-4.6,27-7.1c-5.9,12.3-3.1,16.7,9.3,16.9c3.6,0,7.2,0.1,10.8,0c10.1-0.4,10.7-0.7,17.4-7.3
	c6.8,1.3,12.7,4.3,17.4,2.9c18.7-5.4,21.9-15.3,12.4-32.4c-6.4-11.5-12-23.4-18-35c-1.6-3.1-3.6-6-4.5-9.9
	c10.3,7.9,20.8,15.5,30.8,23.7c9.4,7.8,18.3,16.2,31.1,17.3c-5.3,14.2-2.8,28.5-2,42.6c1.7,29.7,14.5,56.4,25.8,83
	c8.7,20.5,27.9,29.1,49.6,31.4c2,0.2,4,0,6,0.7c-9.3,4.8-19.3,3.9-29.1,3.2c-16.5-1.2-32.4-5.6-47.7-12.2c-3.2-1.4-6.5-3.8-8.7,1.8
	c-0.4,1-4.2,0.6-6.3,1.1c-4.1,1-10.4,1-11.7,3.5c-2.7,5.1,0.6,10.6,5.7,13.1c11.3,5.6,22.8,10.8,34.4,15.7
	c19.3,8.3,39.5,12.4,60.7,11.6c0.1,0.6,0.2,1.3,0.3,1.9c-6.6,1.3-13.2,3.1-20,3.8c-28.1,3.2-53.6-6.7-79-16.6
	c-22.2-8.7-44-18.5-66.4-26.8c-12.7-4.7-26-7.8-39.3-10.4c-3.6-0.7-8,3-13.1,5.1c-2.1-9.6-4.4-20.4-6.8-31.2c-0.6-2.5-0.8-5.3-2-7.5
	c-2.2-4.3-5.7-7.4-11-6.2c-5.6,1.2-3.9,6.1-3.7,9.5c1.7,23.9,10.7,44.3,29.9,59.5C792.5,591.9,798.8,596.6,806.5,602.6z
	 M914.1,527.3c0-0.4-0.1-1.3-0.3-2.3c-3.5-22.1-12.2-42.4-21.8-62.4c-0.9-1.9-2.3-4.2-4-4.9c-3.3-1.4-7.2-2.5-10.6-2.2
	c-1.2,0.1-2.4,5-2.6,7.8c-0.3,3.8-0.2,7.8,0.9,11.3c4.9,15.7,9.7,31.4,15.9,46.6c2.1,5.2,7.5,9.7,12.5,13
	C909.6,538.1,914.2,534.7,914.1,527.3z M816.2,497.5c0.9-2.1,2.9-4.5,2.4-5.9c-3.9-10.7-7.8-21.4-12.8-31.5
	c-1.2-2.3-7.4-3.8-10.4-2.9c-2.5,0.7-5.4,5.9-5.1,8.8c1.2,11,3.5,21.9,5.7,32.8c1.4,7.1,2.1,15.3,13.2,13c1.2-0.2,2.7,1.4,3.8,1.9
	c1.9-3.1,3.1-6.3,5.3-8.5C822.7,500.9,819.2,499.3,816.2,497.5z M851.5,472.7c-0.9,0.5-1.8,1-2.6,1.5c0.3,5.9-0.1,11.8,1.1,17.5
	c3.3,17,7.1,33.9,11.2,50.6c0.5,2.1,5,5,7.2,4.6c2.8-0.5,6.2-3.3,7.4-6c1.2-2.7,0.7-6.7-0.4-9.8c-6-17.8-12.3-35.5-18.8-53.1
	C855.9,475.9,853.3,474.5,851.5,472.7z M805.4,532.1c1,2.8,2,7.4,4.1,11.4c2,3.8,7.1,3.3,8.4-0.5c1.2-3.6,2.1-7.4,2.1-11.1
	c0-1.5-3.1-4.4-4.5-4.2C812.5,528.1,809.7,530.1,805.4,532.1z"/>
<path d="M162.1,575.7c-13.7-2.1-15.3-1.6-20.2,10.9c-7.6,19.3-16.4,37.8-32.5,51.6c-13.9,11.9-28.2,23.2-43.2,34.1
	c23.3-25.8,41.5-54.1,48.9-88.5c-10.2-4.1-25.5,5.3-28-12.8c10.3-3,14.5-18,28.9-14.4c0-3.1,0-5.2,0-7.3
	c0.1-12.4-1.6-14.2-13.9-14.2c-7.7,0-15.3,0.2-23-0.1c-4.7-0.2-7.4,1.7-7.9,6.3c-2.3,19.5-7.3,39.2,2.9,58.2
	c2.9,5.4,4.2,11.6,6.2,17.4c-0.7,0.4-1.2,0.9-1.4,0.7c-16.6-8.8-33.2-17.6-49.8-26.5C18,585.3,11.6,576,11.1,565
	c2,1.9,3.7,3.5,5.4,5.1c7.6,6.5,17.1,3.4,18.8-6.6c1.3-7.5,1.9-15.1,2.9-22.7c2.5-18.4,5.2-36.7,7.5-55.2
	c1.8-14.7-8.8-18.3-20.3-15.2c-5.3,1.4-10.1,4.8-16.3,7.8c6-8.9,11.5-16.9,17.6-25.9c-3.6,0-5.9,0-8.3,0c-10.8,0-14.2-3.5-15-14.4
	c-0.1-1.1-2.3-1.8-2.9-3.1c-0.6-1.1-0.5-2.7-0.7-4c10.4-0.5,13.1-2.6,11.7-9.3c5.8-3.2,12.5-5,15.3-12.3c0.5-1.3,4.5-1.3,6.7-1.9
	c1.5,3.1,2.7,5.4,3.9,7.7c0.5-0.1,1.1-0.3,1.6-0.4c0.1-2.1,0.2-4.2,0.3-7.3c1.8,1.5,3,2.5,4.1,3.4c5,4.2,11.7,4.1,15.8-1.1
	C68.5,398,77,386.2,86,374.7c20.3-26.1,45.3-47.1,72.9-65.1c1.4-0.9,3-1.5,5.2-2.6c-5.6,11.3-11,21.6-15.7,32.3
	c-1.3,3-1.5,7.4-0.4,10.4c10.4,28.7,21.6,57.2,31.7,86c2,5.8,0.3,12.9-1,19.7c-0.8-1.5-1.5-3.2-2.5-4.6c-5.6-7.4-15.3-7.6-19.6,0.5
	c-4.6,8.7-10.8,17.3-8.1,28.2c0.2,0.8,0,1.8-0.3,2.7c-9,26.7-6.4,52.4,6.9,77.1c1.8,3.4,3.5,6.8,5,10.3
	C161,571.4,161.3,573.2,162.1,575.7z M117.5,396.5c-7.4,0.9-21.9,14.4-31.8,31.1c-13,22.1-18.4,46.1-14.8,72.3
	c14.4,0,28.3,0.2,42.1-0.2c1.6,0,4.3-3,4.3-4.6C117.6,462.4,117.5,429.7,117.5,396.5z"/>
<path d="M285.7,348.9c-2.4-0.8-4.8-1.6-7.3-2.4c2.5-2.5,0.6-8.5,6.8-8c0.8,0.1,1.6-1.6,2.6-2c1.2-0.5,3.7-1,3.9-0.7
	c1.4,3.1,2.7,6.4,3.2,9.7c0.1,0.7-3.4,2.1-5.4,2.8c-1,0.4-2.3-0.1-3.5-0.2C285.9,348.3,285.8,348.6,285.7,348.9z"/>
<path d="M269.1,358.3c-0.9-6.7-0.9-6.7,13-7.6C281.5,356.4,277.1,359,269.1,358.3z"/>
</svg>
