<?xml version="1.0" encoding="utf-8"?>
<!-- Generator: Adobe Illustrator 21.0.0, SVG Export Plug-In . SVG Version: 6.00 Build 0)  -->
<svg version="1.1" id="Layer_1" xmlns="http://www.w3.org/2000/svg" xmlns:xlink="http://www.w3.org/1999/xlink" x="0px" y="0px"
	 viewBox="0 0 1000 1000" style="enable-background:new 0 0 1000 1000;" xml:space="preserve">
<g>
	<path d="M741.7,686c8.8-8,16.8-17.1,26.5-23.9c19.2-13.4,43-22.3,58.2-39c26.4-28.9,51.9-61.1,39.6-105.6
		c-7.8-28.1,0.3-51.7,18.9-73.1c-14.6,26.9-15.1,54.8-9.9,84.3c9,51.2-22.1,84.4-56.9,113.9c-19,16.1-41.1,28.7-62.1,42.6
		c-3.4,2.2-7.7,3-11.6,4.5C743.5,688.4,742.6,687.2,741.7,686z"/>
	<path d="M480.8,320.2c0-15.3,0.5-30.7-0.8-45.8c-0.1-1.7-10.8-2.5-17.1-3.9c4.6,19.5,8.2,34.9,11.9,50.2
		C476.8,320.6,478.8,320.4,480.8,320.2z"/>
	<path d="M879.7,273.2c-7.1-10.2-16.3-17.6-9.9-32.5c6.4-14.8,16.3-20.5,31.1-21.7c-9.6-0.6-22-1.6-26.7,3.9
		c-24,28.6-54.6,29.1-86.8,23.4c-7.3-1.3-17.7-6.4-19.5-12c-1.8-5.7,4.4-14.8,8.9-21.2c2.9-4.1,8.9-6.1,13.7-9.1
		c-10.5-5.4-24.3,12.9-31.9-5c-4.8-11.2-8.9-22.9-11.6-34.7c-1.8-8.1,0.6-17-0.8-25.2c-2.7-15.7-5.5-31.6-10.7-46.6
		c-6.9-19.7-16.1-38.5-24.3-57.7c1.5,18.4,6.1,36.2,13.5,52.6c12.5,27.7,17.9,55.3,6.1,90.4c-20.5-24.2-38.2-45.1-56.7-67
		c12.3,33.3,32,58.9,58.8,80.4c9,7.3,11.8,22.3,17.5,33.8c-12.1,5.8-23.7,13.1-36.4,17c-8.4,2.6-20-2.6-27.3,1.3
		c-21.7,11.6-42.6,4.9-69.3,1.5c11.2-2.8,17.3-4.3,28.7-7.1c-19.2-1.8-34.2-1.5-24.2-24.2c-15.8,16.8-26.2,17-46,2.1
		c5.5-19.4,8.7-38.8-10.5-59.6c11.2,30.5,6.4,54-12,75.1c-1.8-16.6-2.8-33.2,0.3-49.1c8.5-44,37.9-77.9,58.1-116.3
		c8.1-15.4,14.2-31.8,21.2-47.7c-14.2,18.6-26.3,37.2-39.3,55.3c-9.1,12.7-17.7,14.1-29.1,0.2c-7-8.6-19.5-12.6-29.6-18.7
		c-0.8,1.4-1.6,2.9-2.3,4.3c27.9,18.5,30.8,33.5,12.3,64.2c-4.7,7.7-9.5,15.5-13.1,23.7c-13.2,29.8-26.4,35.2-56.4,21.3
		c-12-5.5-22.9-7.4-33.6,3c6.7,1,14.5-0.1,17.6,3.2c8.6,9.2,16,19.8,22.4,30.8c6.2,10.6,2.6,18.7-10,21.7c-4,0.9-11.3,1.7-11.4,3
		c-1.7,19.7-17.4,14.5-28.2,15.5c-19.9,1.9-40.2,3.7-60.1,2.2c-22.5-1.6-46.8,0.9-65.5-16.4c1.7,4.6,3.4,9.4,5.5,15.3
		c-8.7,0-19.2,0.1-29.7-0.5c-0.3,0-0.1-7.6-0.1-11.6c-12.5,2.4-25.1,6.9-37.6,6.8c-19-0.2-38-5.3-57-5.3c-20,0-40,3.5-60,5.5
		c0.2,0.8,0.4,1.6,0.6,2.4c7.7,2.1,15.4,4.1,27.2,7.2c-7.3,5.8-9.9,8.8-13.2,10.2c-23.3,9.6-36.1,24.9-35.2,51.8
		c0.3,7.5-9.5,15.3-16.3,25.4c6.5-1.3,13.6-0.8,18.4-3.9c18.2-11.8,33.5-27,39-48.8c3.6-14.5,11.8-17.7,25.4-17.4
		c14.7,0.3,29.6-1.8,44.3-3.4c30.2-3.3,51.1,5,55.6,28.2c7.8,40.9,18.3,82,7.6,124.4c-2.8,11.1-2.7,23-3.9,34.6
		c-2,0.9-4,1.7-6.1,2.6c-17-42.4-52.1-66.6-88.4-90.1c7.7,14.4,16.2,28.5,27.6,39.6c24.7,23.7,58,41.1,55.1,83.1
		c-0.1,1.3,3.2,2.5,3.7,4.2c11.3,35.6,17.6,71.6,3.2,107.8c-1.9,4.9-6.7,10.2-11.5,12.1c-29.5,11.9-58.5-4.1-66.7-35.2
		c-1.5-5.6-6.4-10.3-12.1-19.1c-1.2,43.2,23.3,63.7,52.4,78.6c19.1,9.8,35.5,19.2,44.2,40.1c4.7,11.3,13.8,20.7,20.8,31.1
		c2.8,4.1,5,8.6,7.5,13c-11.2-1.4-18.9-5.8-27.2-8.9c-40.2-15-73.6-38.2-94.5-76.7c-18.2-33.5-37-66.7-28.2-107.9
		c2.3-10.6-2.5-22.7-4-34.1c-2.8,11.5-2.8,22.1-2.8,32.8c0,15.9-1.9,32.1,0.4,47.7c5.8,40.1,24.8,76.4,53.2,102.6
		c27.2,25,63.6,39.9,95.7,59.5c7.7,4.7,15.5,9.6,21.9,15.8c34.2,32.8,64.9,70,102.5,98.2c50.3,37.7,65.1,88.5,73.1,151.1
		c0.7-13.2,2.5-21.4,1.3-29.1c-12.2-78.9-54.4-141.3-107.4-198.7c-30-32.5-56.6-68.1-84-103c-4.4-5.6-4.7-14.6-6.9-22
		c1.6-1,3.1-2,4.7-3c8.1,6,16.6,11.5,24.2,18c33.9,29,67.7,58.1,100.9,87.9c4.9,4.4,8.8,13.6,8.1,20.1c-3,32,12.8,57.3,43.8,67.1
		c8.9,2.8,17.7,6.1,23.6,8.1c0.9,16.2,1.7,30.1,2.5,44c5.9-12.2,6.6-24.4,8.8-36.3c1.9-10.2,4.6-20.8,19.4-18.5
		c26.6,4.2,30.4-0.9,38.6-26.3c6.6-20.2,16.5-41,30.3-56.9c21.1-24.3,46.5-44.9,70.5-66.6c13.5-12.1,27.9-23.1,41.9-34.6
		c1.9,10.8,2.1,20.6-2.3,27.4c-14,21.6-29.2,42.5-45,62.8c-36.6,47-74.9,92.7-110.4,140.5c-20.1,27.1-32,58.9-37.5,92.7
		c25.5-88.2,85.5-152.6,148.3-214.8c22.4-22.2,46.5-42.6,72.9-66.5c-10.5-2.1-15.4-3-25-4.9c50.4-41.1,97.8-79.7,117.7-144.5
		c-7.9,10.2-14.3,17.7-19.7,25.8c-6.4,9.7-11,20.7-18.1,29.7c-10.8,13.5-34.9,18.3-40.4,7.6c-7.9-15.1-16.6-33.1-15.1-48.9
		c3.1-31.7,13.2-62.6,19.7-94c2.4-11.5,0.3-24.7,17.3-27.1c2.5-0.4,4.3-6,6.5-9.2c18.2-27.2,36.7-54.2,54.3-81.8
		c5.9-9.3,9.4-20.3,13.9-30.5c-1.2-0.5-2.4-1-3.7-1.5c-32.6,47-65.3,94.1-97.9,141.1c-2.7-1.1-5.4-2.2-8-3.3
		c2.2-54.9,4-109.9,7-164.8c0.3-4.7,7-10.8,12.2-13.2c30.6-14.4,63.1-10.8,92.9-0.8c15.4,5.2,26.2,24.3,38.8,37.4
		c5.1,5.4,9.5,11.5,14.2,17.3C901.2,307.6,891.4,289.7,879.7,273.2z M538.8,181.5c0,14.5,0,30,0,45.5c-24.3,11.9-30.1,9.8-39.2-10.9
		C513.5,203.9,526.3,192.6,538.8,181.5z M506.4,549.8c9.7-2.9,17.1,17.9,7.5,29.3c-14.2,17-14.3,30.6-0.9,47.7
		c4.4,5.6,1.7,16.6,2.3,25.4c10.8-8.6,7.5-20.7,3.9-32.3c-5.6-17.8-5.7-17.4,13-23.1c2.4-0.7,2.4-7.7,5-9.9
		c6.2-5.2,13.4-9.3,21.4-14.7c14.5,27.8,19.8,53.9,4.9,82.1c-8,15.2-14.2,31.4-20.3,45c-47.7,2.8-79.7-18.5-95.1-62.7
		c-3.9-11.2-10.6-24.4,2.2-35.1c8.6,10.7,16.7,20.9,24.9,31.1c1.2-0.8,2.5-1.7,3.7-2.5c-2.5-3.5-4.8-7.1-7.5-10.4
		c-13.1-15.8-12.6-32.4-4.8-50.6C474.5,550.7,492.5,553.9,506.4,549.8z M565.8,528.1c-10.2-21.1-17.8-36.2-24.7-51.7
		c-1.3-2.9-1.4-7.9,0.3-10.4c11-17.1,22.6-33.9,34.1-50.7C565.7,449.6,584.2,488,565.8,528.1z M538.9,543.3
		c-9.6-7.6-22.1-13.7-28.5-23.6c-4.8-7.5-2-20-2.6-30.3c8.3,1.9,18.2,1.6,24.6,6.2C553.5,510.6,555.4,526.9,538.9,543.3z
		 M512.4,438.8c-3.3-15.3-7.3-29.1-8.7-43.1c-0.4-4.1,8.3-13.3,10-12.6c7.1,2.7,15.6,6.9,19,13.1c4.4,8,4.5,18.3,6.8,29.2
		C530.8,429.8,523.3,433.4,512.4,438.8z M433.8,397.3c2.3-3.1,4.3-6.3,7.7-11.2c10.5,21.8,18.4,39.3,27.2,56.4
		c15.8,31,9.2,52.3-23.7,74.1C417.4,480,412.4,426.1,433.8,397.3z M480,274.4c1.3,15.2,0.8,30.5,0.8,45.8c-2,0.2-4,0.3-6,0.5
		c-3.6-15.3-7.2-30.7-11.9-50.2C469.2,271.9,479.9,272.7,480,274.4z M454,281.6c4.4,0.8,9.7,12.9,9.8,20c0.4,27.5-18,45-45.3,45.8
		c-13.7,0.4-27.5,1.5-41.7,2.3c19.8-22.1,36.1-41.7,54.1-59.6C436.4,284.6,446.8,280.3,454,281.6z M307.7,294.5
		c4.1-22.1,17.8-32.5,41-33.5c24.4-1,48.9-0.2,73.5-0.2c-1.7,39.1-38.4,78.8-75.9,89.2c30.9,7.2,66.6-0.6,99.9,16.7
		c-12.9,15.9-24.8,27.9-33.5,41.9c-6.6,10.6-8.7,23.9-13.8,35.6c-2.1,4.9-6.9,8.7-10.4,13c-2.1-5.8-7.5-13-5.7-17
		c9.3-20.7,20.4-40.6,32.7-64.3c-26,29-52.4,54.1-95.2,59c-21.9-13.4-19-40.9-20.8-63.7C297.5,346,302.9,319.8,307.7,294.5z
		 M440.6,742.8c-74.5-27.6-150.5-155.5-144.8-208.6c15.8,0,22.2,9.5,21.8,23.6c-1.1,38.6,29,57.3,52.1,79.1
		c6.8,6.4,23.3,2.5,34.5,0.4c-12.3-4.1-27.6-5.1-36-13.2c-9.3-9-12.2-24.5-18-37.1c-5.7-12.3-11.1-24.7-17.3-36.7
		c-9.4-18.4-20.3-36.2-28.5-55.1c-7.1-16.2-1-29.2,16.3-31.6c13.6-1.9,33.5-2.4,41,5.6c11.2,11.7,25.4,27.7,13.4,49.9
		c-6,11.1-6.9,26.3-6.1,39.5c0.9,14.9,12.7,23,27.1,21.7c6.2-0.6,11.8-8.3,14.5-14.8c-7.8,1.8-19.7,7.4-22.4,4.5
		c-5.9-6.3-10.9-17.7-9.5-25.9c2.7-15.5,10.2-30.2,16.9-48.7c14.6,14,27.9,24.7,38.4,37.6c6.5,8,6.7,17.8,2.2,30.2
		c-14.3,39.5-2.2,75.9,21.7,108.8c6.5,8.9,14.3,16.8,21.4,25.1C468.1,710.4,454.7,726.2,440.6,742.8z M563.3,796.7
		c-14.3,12.2-27.3,27.2-38.2,27c-35.4-2-74.2-48.3-68.1-72.6c2.5-9.9,13-18.7,21.6-25.8c30.8-25.4,67.6-17.2,83.9,18.3
		c2,4.3,1.6,10.1,1.2,15.1c-0.8,10-11.3,20.3,1.7,29.7C566.4,788.9,565.2,795,563.3,796.7z M589.4,751.1
		c-11.4-12.8-26.1-24.1-32.9-39c-4.5-9.8-0.8-26.7,5-37.2c23.8-42.8,25.8-49,14.4-93.2c18.2-2.9,43.3,15.3,48.2-16.2
		c1.6-10.6-7.4-18.8-18.8-15.9c4.1,5.5,8.2,10.9,12.3,16.4c-5.3,3.9-11.3,11.8-15.8,10.9c-8.4-1.6-18.2-6.5-22.8-13.3
		c-2.3-3.3,3.9-16.7,9.6-20.3c14-8.9,56.5,2,65.9,15.4c3.1,4.4,6.4,11.2,5.2,15.7c-5.4,19.1-12.5,37.7-18,53.9
		c24.1-24.7,51.6-52.9,81.6-83.6C737.1,599.5,672.7,686.8,589.4,751.1z M605.2,478.6c14.8-24.1,15.3-23.7,36.5-20.3
		c-15.6-14.2-57.1-3.2-38.6-42.3c-3.7,5.6-7.4,11.1-11.5,17.2c-9.4-22.3,12.7-52,39-50.1c-21.5,39.1,14.2,60.6,27.4,89.2
		c3.5,7.6,13.8,12.1,21.2,18.2c4.2-11.8,7.4-20.7,10.6-29.6c1.7-0.5,3.5-1,5.2-1.5c6.1,12.1,17.7,24.8,16.6,36.3
		c-1,11.5-14.7,21.8-24.1,34.3c-9.6-12-15.3-24-24.7-29.8c-9.6-5.8-23-5.5-34.6-7.8c0.4,13.4-18.8,24.7-36,22.3
		c5.8,2.6,11.6,5.4,17.6,7.6c5.6,2.1,11.3,3.6,17,5.4c-0.7,2.7-1.4,5.3-2.1,8c-9.3-2.5-20-2.8-27.6-7.8
		c-13.3-8.7-13.9-16.3-8.4-40.3c6.1,4.9,11.9,9.6,17.6,14.2C605.7,492.1,602.2,483.4,605.2,478.6z M657.7,533.8
		c-14.3-8-26.2-14.7-37.4-21c20.7-11.3,37.9-11.7,44.5,0.5C671.1,524.7,665.7,531.3,657.7,533.8z M723.2,493.1
		c-0.2,0.9-2,1.3-0.1,0.2c-5-21-10.7-42.9-15.1-65.1c-1.3-6.5,1.6-13.8,2.5-20.8c-3.6,5.4-7.6,10.5-10.5,16.2
		c-1.3,2.6,0.9,7.4-0.7,9.3c-6.1,7-12.9,13.4-20,19.4c-1.1,0.9-7.7-2.1-7.6-2.6c1.2-7.7,3.1-15.2,5.2-24.5
		c-12.2-14.9-10.9-23.7,6.9-31.6c5.1-10.4,10.1-20.8,17-35c4.4,6.3,14,13.9,14.1,21.7c0.2,15-14.6,16.2-26.2,18.8
		c7.3,2.7,14.6,5.5,21.8,8.2c25.4-25.7,24.3-30.8-8.5-52.9c-7.2-4.9-12.4-12.8-18.5-19.3c0.3,8.8,3.9,19.7,0,25.8
		c-3.7,5.9-15,8.8-23.3,9.5c-18.7,1.6-37.6,1.7-56.4,0.9c-7.6-0.3-15-4.3-23.4-6.9c-0.6,1.4-2.4,5.2-5.6,12.3
		c-4.5-7.3-8.1-12.2-10.6-17.5c-8.6-18.8,1.7-29,12.6-34c-3.4-14.8-6.4-28-9.5-41.1c0,33.7-32.4,64.4-8.1,100.9
		c-25.2-12.6-57-7.9-74-38.2c3.3-6.8,7.4-15.3,11.1-22.8c-1.3-9.3-2.8-19.6-5.1-35.5c6.7,7.7,9.9,11.3,10.6,12
		c2.1-15.9,3.8-32.9,7.1-49.6c0.7-3.4,6.9-6.9,11.2-8.1c2.4-0.7,8.7,3.1,8.8,5.1c1.8,33.3,10.3,67.1-6,99.2c-0.9,1.8-4,2.6-8.5,5.4
		c-1.1-8.7-2-15.3-2.9-22.3c-0.5,0.3-1.8,0.7-1.7,0.8c2.2,9.2-11.6,23.9,6.6,27c16.1,2.8,17.4-12.3,20.2-23.4
		c4.3-16.9,6.3-34.6,12.4-50.8c7.1-18.7,13.6-19.6,28.5-7.2c11.2,9.3,22.7,14.5,38,15.7c27.1,2.2,45.9,21.3,64.9,38.8
		c7.3,0,14.5,0,22.8,0c-30.4-19.1-59.7-37.6-89-56.1c3.7-13.6,10.1-19.3,26.1-16.1c26.1,5.2,53.1,5.9,79.4,10.7
		c5.8,1,14.3,10.8,14.4,16.7C734.9,355.6,740.9,425,723.2,493.1z"/>
	<path d="M305.5,230.3c0.4,0.4,0.7,0.7,1.1,1c-0.2-0.4-0.3-0.9-0.5-1.3L305.5,230.3z"/>
	<path d="M306.1,229.9c-0.2-0.2-0.4-0.4-0.5-0.6c0,0.3-0.1,0.6-0.1,0.9C305.5,230.3,306.1,229.9,306.1,229.9z"/>
	<path d="M315.1,1c0,0-5.1,0-5.3,4.2c1.2,26-0.5,29-18.8,41.1c-3.3,2.2-5.9,6.1-7.5,9.8c-16.4,36.9-10.2,74.2-2.9,112.1
		c3.8,19.6,2.2,40.2,3,60.4c7.7-5.7,15.2-7.6,22,0.8c2.4-19.6,4.6-39.2,7.2-58.7c4.9-37.2,10-74.3,15.1-111.4
		c-2.1-0.3-4.2-0.6-6.2-0.9c-3.4,18.4-6.7,36.9-10.1,55.3c-2.8-0.4-5.5-0.8-8.3-1.3c5.7-35.5,11.3-71,17.3-108.5
		C321,0,315,1,315.1,1z"/>
</g>
</svg>
