<?xml version="1.0" encoding="utf-8"?>
<!-- Generator: Adobe Illustrator 21.0.0, SVG Export Plug-In . SVG Version: 6.00 Build 0)  -->
<svg version="1.1" id="Layer_1" xmlns="http://www.w3.org/2000/svg" xmlns:xlink="http://www.w3.org/1999/xlink" x="0px" y="0px"
	 viewBox="0 0 1000 1000" style="enable-background:new 0 0 1000 1000;" xml:space="preserve">
<path d="M373.8,442.2c5-1.1,10.1-1.9,15.1-3.3c7.5-2.1,14.9-4.5,23.3-4.4c-2.3,1.1-4.7,2.3-7,3.4c16,1.4,32.3,4.8,47.8-9.4
	c-3.7,8.2-7.7,11.5-14.6,14.3c-4.8,1.9-9.7,9.7-10.2,15.2c-1.1,13.1,0.5,26.5,0.9,39.8c0.5,17.1-2.1,19.8-19.6,22.2
	c-2.7,0.4-6.1,2.8-7.1,5.2c-0.8,1.9,1.7,5.1,2.7,7.7c2.5-1.4,5.3-4.4,7.5-4c7.6,1.2,10.9-4,14.6-8.5c4.3-5.2,7.9-10.9,10.6-14.8
	c-1.5,15.3,13.4,7.2,23.4,11.1c-3,34.2,10.4,71-17.3,100.8c0-0.2-0.4-2-0.8-4c-16,5.6-23.2,19.4-26.8,34.5
	c-3.8,16.1-6.4,31.6-4.3,47.9c0.1,1.1-1.3,2.6-2.3,3.6c-7.4,6.6-7.8,13.4-0.3,20.4c-12.5,4.6-12.5,5.4-2.1,15.4
	c-3.2,3.6-6.4,7.2-9.5,10.7c-2.4,0.6-6.7,0.5-7.5,2.1c-2.9,6-5.8,12.4-6.6,18.9c-1.1,8.2,0.8,16.9-0.7,25c-1.4,7.7-5.5,15-10.3,21.8
	c7.9-11.9,3.2-24.9,3.9-37.3c0.7-11.4,1.6-23.1,4.2-34.2c2.1-8.8-2-10.5-8.8-11.3c18.6-12.3,23.5-56.1,7.8-74.1
	c-0.7,3.2-1.3,5.8-1.8,8.5c-0.3,0-0.5-0.1-0.8-0.1c0-7.5,0-15,0-22.5c0-7.5,0-14.9,0-24.1c-8.1,5.9-14.7,10.7-20.4,15
	c-9.4-1.2-18.8-2.3-30-3.7c0-0.1-1.5,2.7-1.9,3.5c-6.1-4.6-12.3-9.2-21.2-15.9c-0.5,20.3-28.1,22-24,43.8c0-5.6,0-11.2,0-16.7
	c-12.1-4.4-13.3-13.1-3.5-30.1c0,6.3,0,11.2,0,16.2c1.2,0,2.4,0.1,3.5,0.1c5.2-14,0-28.6,0.8-44.4c-8-1.8-16.1-3-23.9-5.4
	c-8.5-2.6-12.3,5.7-18.1,8.3c-5.5,2.5-7.3,13.2-9.8,18.6c-3.3-8.1,2.9-23.1,14.5-27.2c7-2.4,14.6-3.1,22-4.3
	c3.6-0.6,7.4-0.3,10.7-1.4c0.7-0.2,0.6-6.1-0.9-8c-2.6-3.4-6.5-5.7-11.6-9.8c-0.6-17.7-4.1-21.9-31.3-34.5c0.4-0.9,0.8-1.9,1.2-2.8
	c12.6,5.6,25.1,11.1,39,17.3c-1-4.6-2.3-10.2-3.6-15.7c0.4-0.2,0.9-0.4,1.3-0.7c1.5,4.1,4.7,8.4,4.2,12.2
	c-1.7,11.7,5,16.4,16.3,21.5c0-10.8-0.1-20.2,0-29.5c0.1-7.5,0-14.9,0.6-22.4c0.5-7,2.7-14.1,2.5-21c-0.1-3.1-3.9-7.2-7-8.7
	c-1.6-0.8-6.5,2.5-8.2,5c-5.8,9-10.8,18.5-15.7,27c0-9.1,0-20.5,0-32.7c-3.3,0.2-5.7,0.4-9,0.6c2.5-3.8,4.6-7,6.8-10.3
	c-9.6,4.3-21.8,2.6-25.4,17.7c-2,8.1-14.1,13.3-19.6,21.2c-12.3,17.7-11.7,18.1,0.5,35.1c2.7,3.8,5.4,7.7,6.2,12.9
	c-6.1-7.3-12.2-14.6-20.3-24.5c-3.7,18.5-8.1,34.7-9.9,51.3c-3.7,33.3-18.5,58.8-47,77.2c-28.1,18.1-29.4,55.9-3.8,82
	c2.2,2.3,4.4,4.6,7.4,7.8c-28.4-17.3-44.6-61.7-13-88.8c7.7-6.6,16.6-12.1,23.7-19.3c15-15.2,21.3-34.1,23.8-55.2
	c2.6-22.1,6.5-44.3,12.6-65.8c5.1-18.2,18-33.1,34.7-41.5c18.2-9.1,26.4-23.7,31.7-42.6c-2.7,0.2-5.2,0.4-5.4,0.4
	c4.7-9.2,11.1-18.5,14.5-28.9c5.8-18-1.8-31.4-19.2-39.4c-3.7-1.7-6.6-5.1-9.8-7.8c10.9,4.5,21.8,9,32.5,13.4
	c2.8-15.2-2.2-29.6-13.1-38.2c-8.1-6.4-15.8-13.3-24-20.2c-7.8,13.2-18.2,27.8-15.9,49c6-4.5,10.7-7.9,16-11.8
	c1.3,3.2,2.3,5.9,3.4,8.6c-14.5,0.8-23.8,9.8-23.7,23.5c0.1,14.2-0.8,27.2-11.3,39.1c-5.4,6.2-4.8,17.7-7.1,26.7
	c-1.1,4.4-2.7,8.7-4.1,13.1c-0.9-0.3-1.8-0.6-2.7-0.9c3-10.3,6-20.6,9.2-31.4c-21.2,8.8-28.4,26.8-23.9,57.9
	c-9.6-14.7-7.6-34.9,5.1-50.1c2.7-3.2,5.4-6.6,8.8-8.9c6.9-4.6,6.6-10.3,3.1-16.4c-4.5-8.1-7.5-15.1,0-24.3c5.7-7-1.5-13.6-5.8-20
	c-3.9-5.8-8-5.3-13.6-3.9c-20.4,5-26.9,15-23,31.9c-2.7,5.5-4.1,8.3-5.5,11.2c-6.6,13.9-11.9,28.6-20.3,41.3
	c-4.5,6.9-13.7,11.7-21.8,15.1c-14.1,6.1-29.1,10.1-43.5,15.5c-10,3.8-20.2,7.4-29.2,12.9c-27.4,16.9-34.3,47.3-18.3,76.4
	c1.9,3.5,3.5,7.2,5.2,10.9l0.2-0.2C-8.7,545.5-7.4,498,36.3,478.1c19.1-8.7,39.7-14,59.7-20.9c2.1-0.7,4.1-1.6,7.1-2.8
	c-2-2.7-3.4-4.6-4.8-6.6c10.6,5,17.7-0.1,24-8.2c14.8-19.1,17.7-41.3,17.4-64.5c-0.3-20.1-5.4-27.6-24.5-34.2
	c-3.3-1.1-6.6-2.3-9.8-3.4c4.5-1,8.7-0.5,12.4,1c8.4,3.4,16.5,7.6,25.1,10.7c2.6,1,7.2,0.6,9-1.1c13.9-13.3,27.4-27,40.8-40.9
	c1.8-1.9,2.1-5.3,3.1-8.1c-4.4,0.1-6.3,2.6-8.5,2.8c-14.8,1.8-29.8,2.4-44.4,4.9c-8.7,1.5-17.6,4.4-25.2,8.8
	c-16.6,9.7-32.3,20.9-48.6,31.2c-20.9,13.4-33.2,41.7-26.4,65.3c2,6.8,8,13.4,14,17.5c2.3,1.6,10.7-3.2,14.1-7
	c1.7-1.9-1.1-11.5-3.1-12c-4.3-1-9.4,1.8-15.5,3.4c3.3-3,6.6-8.3,10.6-8.9c3.2-0.5,9,3.6,10.8,7.1c5.1,10-0.5,17.1-9.8,22.1
	c2.5,2,4.3,3.4,6,4.8c-21.2-4.1-32.1-16.3-32.5-38c-0.5-27.1,9.1-48.5,34.2-62c9.5-5.1,18-12.5,26.2-19.8c13.2-11.9,27.8-18,46-19.3
	c19.9-1.4,39.4-7.3,59.2-10.5c13.3-2.1,26.9-3.1,40.4-4c2.3-0.1,5.2,2.5,7.2,4.5c18.6,18.6,40.9,28.6,67.1,28.9
	c9.7,0.1,19-1,23.3-13.6c1.9-5.5,10.2-10.1,16.5-12.6c11.8-4.6,16.3-12.5,15.6-24.6c-0.3-4.5,0.4-9.1,0.5-13.6
	c0.2-17.1,8.6-28.5,27.2-36.4c-11.1,10.6-20.5,18.7-19.6,33.1c0.9,14.3,8.5,23.6,19.1,31.6c-5-2.2-10.1-4.4-12.6-5.5
	c-14.8,10.6-28.2,20.1-42.7,30.4c17.6,7.9,32.2,1.9,43.5-14.5c-2.7,5.5-6.6,10.1-9.9,15.1c-3,4.7-5.3,9.8-7.9,14.7
	c30.9-6.5,30.9-6.5,29.7-35.1c-0.1-1.9-0.4-3.8-0.5-5.6c13.2,1.2,23.3-2.9,29.4-15.5c7.8-16.1,16-31.9,23.1-46
	c-9.9-4-17.4-6.9-24.9-9.9c0.4-0.9,0.8-1.8,1.3-2.8c-4.5,2-9,4-15.8,7c6.7-5.6,11.4-9.5,16.2-13.4c-0.8,0.8-1.6,1.6-2.4,2.5
	c4.5,3.3,8.6,7.5,13.6,9.6c6.2,2.6,12.6,3,14.5-6.5c1.3-6.5,4.2-12.7,7-21.2c3.3,12.7,5.9,23.3,8.9,33.7c2.3,7.8,3.8,15.8,11.6,21.3
	c3.7,2.6,5,8.4,6.5,13.4c3.3,4.7,5.9,10.3,10.1,14c3.1,2.7,8.3,4.3,12.5,4.2c5.1-0.1,10.1-2.6,18-4.9c-7.3,7.6-12.5,13.1-17.5,18.3
	c0.1,0.2-0.9-1.4-1.9-3c-4.9,4-9.9,7.9-14.7,11.9c-1.6-2.1-6.7-6.3-0.1-10.5c-3.4-4.5-6-8.9-9.6-12.1c-2.4-2.1-7.9-4.5-9.4-3.3
	c-7.6,5.8-15.1,3.3-22.9,1.7c-1.1-0.2-2.6,2.1-4.5,3.7c-0.2-3.9-0.4-7.5-0.7-13.3c9.1,10.2,16.8,2.9,24.1,0.2
	c2.1-0.8,3.9-8.1,2.6-11.1c-2.7-6.5-22.9-5.4-25.7,1.3c-5.8,13.5-11.3,27.2-16.3,41c-1.5,4-1,8.7-1.4,13.4
	c-4.2-4.8,4.5-17.2-9.3-15.8c-4-11.3-12.6-2.8-19.5-6.4c0,12.1,0,22.2,0,32.1c0.9,0.6,1.4,1.2,2.1,1.3c6.4,1.7,15.5-2.8,18.2,7.2
	c2.9,10.7-0.2,21.4-9.7,25.7c-14,6.3-20.8,12.4-13.7,28.9c2.8,6.4-1.6,16-2.9,26.2c6.7,3.6,15,8.1,22.6,12.2c-1.9,0-5.7,0.5-9.3-0.1
	c-8.2-1.2-16.5-4.5-24.5-4c-5.7,0.3-11.1,2.4-12.8-4.3c-1.4-5.5-0.3-11.6-0.3-17.4c1.4,0,2.7,0,4.1,0.1c-0.2,2.3-1.1,4.9-0.4,6.9
	c0.7,2.2,2.9,3.9,4.5,5.8c2-1.9,5.9-4,5.7-5.7c-0.6-5.7-1.3-14.7-4.5-16c-6.6-2.7-18.2-4.4-21.9-0.7c-12.5,12.6-29.7,22.4-31,44
	c-0.3,4.5-5.7,8.8,0.7,14.9c7.1-3,14.8-6.2,21.1-8.9c-2.5,10.1-17.6,24.1-30.6,24c-9.2,0-8.8,4.2-8.2,10.9
	c12.1,2.4,20.1-2.5,29.6-9.7c9.3-7.1,17.7-20.8,33.5-14.5c-8.8-0.2-12.3,3.4-13.1,12.8c-0.8,9-5.2,17.8-7.9,26.3
	c-3.1-7-5.2-17-8-17.2c-10.3-0.9-11.7,8.4-12.8,16.5c-0.5,3.4-0.7,6.8-1.4,13.4c-1.8-9-3-14.3-4-19.5c-11.7,0.8-15.3,5.9-14,16.4
	c0.5,4.2-3,8.9-5.2,14.9c-0.6-0.2,1.9,0.8,1.5,0.6c1.2,8.4,2.2,15.3,3.1,22.1c6.2-1.2,12.3-2.3,18.3-3.5c3.4,3.6,8.5,8.9,12.9,13.6
	c-5.4-0.2-13.9-5.3-15.6,4.1c-2.5-1.6-5.4-4.9-8.6-5.2c-8-0.8-16.1-0.3-25-0.3c-0.2,2.8-0.7,8.7-1.4,16.3
	c7.4-4.6,13.2-8.2,19.1-11.8c-16.3,22.6-5.4,47-7.7,69.7c46.3,12,46.3,12,60.2-16.8c-2.7-0.2-5.3-0.3-9.7-0.6c3.2-2.3,5.8-3.2,6-4.5
	c0.8-4.6,1.1-9.3,0.8-13.9c-0.1-1.4-3.9-4.1-4.2-3.8c-6,4.7-11.1-1.1-16.5-1.2c7.6-1.1,15.2-2.3,23.5-3.6
	c-5.2-9.3-8.9-19.6-22.4-8.8c8.7-8,17-15.7,26.7-19c8.4-2.8,16.1-4.1,18.9-12.1c-5.6-4.4-10.4-8.2-15.3-11.8
	c-0.5-0.3-2.2,0.9-3.2,1.5c-0.2,0.1,0,0.8-0.1,1.1c-0.1,0.2-0.4,0.4-2,1.6c2-14.6,3.8-28,5.6-41.4c1.2-9.2,2.8-18.3,3.6-27.5
	C376.6,448.2,374.7,445.2,373.8,442.2z M175.6,334.6c1.2,5.4,2.5,10.8,4,17.4c13.8-1.3,16.2,11.5,24,23c3.6-6.2,7.9-10.3,8.3-14.9
	c1.8-17.7,6.4-34.1,16.4-48.9c1.8-2.7,2.2-6.4,4.3-12.5c-11.8,4.2-21.1,6.4-29.3,10.6c-11.4,5.8-23.2,11.8-27.2,25.7
	c-4.5,5.1-9,10.2-13.6,15.3c0.9,1.1,1.9,2.2,2.8,3.2c3.7-0.6,7.4-1.3,11.5-1.9C176.3,345,175.9,339.8,175.6,334.6z M286.1,450.7
	c18.8,1.9,21.4-1.4,21.2-16.4c-0.1-8.9,2.1-18.6,6-26.6c5.4-11.1,10.6-21.2,6.6-34.2c-4.9-15.7,2.8-31,19-37.5
	c9.8-4,10.8-9.3,4.2-19.9c-8.1,5.1-16.1,10.1-23.6,14.8c-2.7-1.9-7.7-5.2-15-10.2c-0.8,10.6-1.2,16.9-1.7,23.3c-0.2,0-0.4,0-0.6,0
	c-0.3-6.8-0.6-13.6-0.8-18.3c-18.8-8.4-36.5-16.3-54-24.2c-0.1,12.2,6.7,20.4,18.1,26c10.8,5.3,13.4,15.9,14.6,26.6
	c0.7,6.1,0.1,12.3,0.1,17.8c9.4,1,16.4,1.8,23.5,2.5c-18.3,3.1-23.6,15.3-26.8,30.8c-2.2,10.9-7.3,21.2-11,31.9
	c-2.3,6.6-4.4,13.3-6.6,19.9c1.4,0.7,2.9,1.4,4.3,2.2c10.2-10.7,20.4-21.4,30.3-31.8C291.5,434.6,288.9,442.4,286.1,450.7z
	 M401,524.6c-1.4-1-2.7-2.1-4.1-3.1c-2.6,3-6.8,5.7-7.5,9c-2.2,11.8-3.4,23.8-4.6,35.8c-1.5,14.5-2.7,29.1-3.7,43.6
	c-0.9,12.4-1.8,24.8-1.5,37.2c0.1,2.8,4.8,7.4,7.7,7.6c3,0.3,8-3,9.3-6c2.2-5,2.8-11,2.9-16.6c0.3-29.2,0.3-58.4-0.1-87.5
	c0-3.6-2.8-7.2-3.3-8.3C398,531.8,399.5,528.2,401,524.6z M356.9,322.6c-1-1.2-2.9-3.5-4.8-5.8c-0.9,0.4-1.7,0.8-2.6,1.2
	c0,17.8,0,35.7,0,56.3c10.3-2.8,17.9-4.8,25.5-6.9c-2.1-6.9-4.3-13.8-6.3-20.3c1-0.3,4.6-1.3,8.1-2.3c-16.8-7-2.3-21.3-10.4-31.3
	C362.8,317,359.4,320.2,356.9,322.6z M441.7,544.7c-0.2,0-0.5,0-0.7,0c0-4.2,0.6-8.4-0.2-12.5c-0.6-3-2.3-7.4-4.5-8.1
	c-2.2-0.7-6.9,1.6-8.3,3.9c-3.2,5.3-6.7,11.3-7.1,17.2c-0.8,10.4,2.4,21.4,0.4,31.4c-1.6,8,1.8,11.7,6.7,10.9
	c5-0.9,12.3-6.1,13.1-10.4C443,566.6,441.7,555.5,441.7,544.7z M392.2,347.2c1,1,3.7,5.7,6.9,6.1c9.4,1.1,19.6-10.2,19.2-19.9
	c-0.2-7.1-3.4-11.5-11-11.6C398.5,321.6,392.1,330.9,392.2,347.2z M414.1,518c10.2-12.8,9.4-23.3,0.1-32.8
	c-8.4-8.7-19.2-11.4-26.9-5.4C400.7,488.4,414.3,496.9,414.1,518z M411,478c0.6-7.3,2.7-14.3,1.4-20.7c-1-4.8-6.3-8.6-9.7-12.9
	c-3.6,3-9.6,5.6-10.2,9.1c-0.7,4.3,2.1,10.2,5.2,13.9C401.3,471.9,406.9,474.9,411,478z M203.1,413.3c11.6-13.4,8.8-27.3,7.9-42.3
	C195.3,381.2,193.2,392.9,203.1,413.3z M391.4,487.4c-2.1,6.9-4.3,10.6-3.8,13.8c0.7,4.6,2.7,9.6,5.7,13.1c1.1,1.3,8.7-0.2,9.5-2
	c1.5-3.4,1.2-8.6-0.5-12.1C400.3,495.8,396,492.6,391.4,487.4z M422.9,616.9c12.1-7.5,21.9-14.7,24.6-29.1
	C432,591.5,423.5,601.3,422.9,616.9z M264.4,464.8c0.4,1.2,0.7,2.4,1.1,3.6c14.2,4.1,27.5-1.8,25-12.9
	C281.7,458.7,273.1,461.8,264.4,464.8z M462.9,218.5c-0.8-0.1-1.6-0.2-2.4-0.3c-2,5.1-4.5,10.1-5.9,15.4c-0.4,1.7,1.5,5,3.3,6.1
	c1.9,1.1,5.4,1.5,7.2,0.4c1.6-1,2.8-4.5,2.4-6.6C466.4,228.4,464.4,223.5,462.9,218.5z M347,343.2c-13.4,9.4-13.2,22.4,0,29.3
	C347,363,347,353.7,347,343.2z"/>
<path d="M696.4,591.2c-12.8-13.6-27.9-20.6-48.7-16.3c0,12.4-0.5,24.3,0.2,36.1c0.3,5.4,2.3,10.9,4.6,15.9c1.2,2.6,4.7,5.5,7.3,5.7
	c1.8,0.1,3.9-4.3,5.5-6.3c1.4,5.7,1.4,5.7-10.6,19.1c-4-3.1-8.1-6.2-13.4-10.4c-0.9,6-1.5,10.2-2,13.9c-3-8.4-6-17-9-25.5
	c-3.3-9.3-11.5-12.7-19.2-17.8c-8.7-5.8-15-15.5-21.6-24c-7.7-10-14.6-20.6-21.9-31c-1.8,0.8-3.7,1.7-5.5,2.5c2,7.8,4,15.6,6,23.5
	c-1,0-3.9,0-8.1,0c3.7,9.6,4.8,20.4,10.8,26.1c6.2,5.8,17.1,6.5,27.3,9.9c-11.5,0-22.6,0-35.3,0c-0.4,2.9-1.1,9.2-2,16.1
	c-1.7-7.8-1.5-16.2-5.4-21.8c-2.8-4-1-18.6-12.5-11.4c-3.5-21.9,1.7-45.7-10.2-67.1c9.4,3.1,20.7,4.4,29.1,10.1
	c9.6,6.5,16.1,17.3,24.8,25.4c6.2,5.8,5.4,20,19.4,16.7c0.4,1.8,0.2,4.2,1.3,5.2c2.9,2.7,6.4,4.8,10.7,8c7.6-15.7,5.9-29.7-1.8-43.2
	c-5.1-8.9-13.3-16.6-10.3-29.3c-2.2,2-4.5,4.1-5.8,5.3c-11.2-7.4-21.7-15.2-30.2-3.5c2-6.9,6.8-17.8,7.9-29
	c1.1-11.5-1.3-23.4-2.2-35.2c-1.7,0-3.4,0.1-5.1,0.1c-0.4,3.7-0.9,7.4-1.1,11.1c-0.3,6.1-0.6,12.1-0.3,18.2
	c1.4,27.4-8.8,37.8-35.6,33.5c-10-1.6-19.1-8.1-28.9-11.7c-5.6-2.1-11.7-2.9-17.7-3.9c-2.7-0.5-5.6-0.1-8.5-1.6
	c1.2-0.2,2.3-0.6,3.5-0.6c14.1-0.8,20.9-7.2,18.5-22.1c-0.5-3.3,0.9-8,3.1-10.4c4.3-4.5,5.6-7.2-1.4-9.6c-0.8-0.3-1.7-2.2-1.5-3.2
	c2.2-12.6-4.3-17.9-15.7-20.4c-3.4-0.7-6-5-11.3-9.8c9.2,4.9,15.2,8.2,23.8,12.8c-0.1-15.4,6.2-27.7-4.9-37.9
	c2.3-2.8,4.4-5.2,6.4-7.5c0.8,3.3,1.7,9.2,2.5,9.2c5.9,0,11.7-1.3,17.6-2.1c-0.1-1.1-0.3-2.2-0.4-3.3c-5.5-3-10.9-6.1-16.4-9.1
	c0-22.3,0-44.6,0-67.9c-12,4-12.7,5.6-11.4,21.4c-5.6-9.1-5.2-17.2,1.2-24.4c5.5-6.2,19.3-4.6,29.7,2.4c-0.9,18.1-2.7,36.2-2.4,54.3
	c0.1,7,5.1,13.9,8.6,22.7c0-24.6,0-46.1,0-67.2c12,0.1-6.9,19.2,9.3,16.6c-2.1,8-5.4,16.4-6,25c-0.4,5.4,2.6,11.6,5.6,16.6
	c1.5,2.5,6.4,2.8,9.7,4.2c0.4-3.1,0.8-6.1,1.2-9.2c0.4-3.3,0.7-6.6,1-10.2c8.7,1.3,13,6.4,12.6,14.6c-0.4,8.5-7,10.8-14.1,12.2
	c-9.5,2-19.1,3.9-28.5,6.6c-2.8,0.8-4.8,4-7.6,6.5c-1.6-1.1-4.1-2.8-9.1-6.1c-1.1,10.8-2,19.5-3.1,30.2c15-0.9,28.1-1.4,41.1-2.6
	c11.8-1.1,20.4,1.8,28.3,12c6.1,7.8,16.6,12.2,24.9,18c-0.5,13-1.6,27.6-1.3,42.2c0.1,3.8,4.5,7.6,6.9,11.4
	c2.4-3.5,6.7-6.9,6.9-10.5c0.9-12.6,0.3-25.4-2.3-38.3c-0.7,2.5-1.4,4.9-2.4,8.5c-1.3-4.8-2.4-8.7-3.4-12.2c5.1-2.7,9.3-5,13.2-7.1
	c1.8,5,1.8,5,16,2.7c0.4-0.6,1.1-1.2,1.2-1.8c0.1-2.6,0.1-5.2,0.1-7.8c-12.3-1-22.5-3.4-33.6-11c-9.3-6.4-21-7.8-23.3-18.4
	c7.1,1.7,14.7,4.4,22.3,4.5c1.8,0,5.6-8.6,5.3-13c-0.6-8.5-7.3-10.6-15.4-9.4c-2.1-6.5-4.1-12.9-6.2-19.5c2.4-1.4,5.1-2.9,5.4-3.1
	c-1.7-8.1-3-14.4-4.2-20.7c-1.2-6.6-0.4-14.6-4-19.3c-3.4-4.4-11.4-5.2-17.6-7.7c5.9-0.6,13.3-1.4,20.6-2.2c3.3-10,3.2-18-8.1-23.2
	c-3.7-1.7-5.6-7.5-9.3-13c-0.7,6.5-1.2,11.2-1.8,16c-1.3-16.7,2.5-34.2-7.6-49c-5-7.3-2-15.9-5.3-22.5c-4.1-8.2-11.3-14.9-18.1-23.3
	c14.1,5.2,22,14.4,25.3,27.6c1,4,1.1,8.3,2,12.4c5.6,24.8,32.7,37.7,56.4,26.9c13.8,22.1,27.4,26.1,50.3,13.9
	c10.7-5.7,20.3-13.4,31.1-18.8c6-3,13.6-4.7,20.2-4c16.8,1.8,33.8,3.8,49.9,8.5c35.9,10.6,71.4,22.6,106.9,34.5
	c17.6,5.9,35.8,11.1,52.2,19.5c25,12.9,31.4,31.9,16.3,54.8c-4,6.1-9.2,11.6-14.4,16.7c-9.3,9-20.4,16.5-28.1,26.7
	c-5.3,7-7,17.2-8.7,26.3c-0.4,2.1,5.9,7.7,9.3,7.9c16.3,0.9,32.6,0.5,48.9,0.7c3.8,0,7.6,0.3,11.3,1c45.2,9.1,57.9,48.1,28,86
	c-0.4-0.3-0.7-0.7-1.1-1c3.1-6.9,6.6-13.7,9.3-20.7c10.1-25.5-2.2-49.7-28.7-56.5c-5.1-1.3-10.5-1.5-15.6-3.1
	c-7.5-2.3-10.9,0.3-10.9,5c-3.3-1.7-7.3-5.6-11.5-5.8c-10.8-0.5-21.7,0.6-33.5,1.1c8.2,12.9,16.4,25.7,24.5,38.4
	c-0.7,0.4-1.4,0.9-2,1.3c-8.5-11.9-16.8-24-25.7-35.6c-2.5-3.2-6.6-6.1-10.6-7.2c-20.1-5.4-34-16.6-38.9-37.8
	c-2.1-9-2.6-19.4-13.2-23.9c11.3-3.2,11.6-8.8,1.4-23.9c-17.6,21.2-17.8,47.4,1.8,69.5c11.2,12.7,16.8,24.5,11.4,41.9
	c-2.6,8.4,0.9,18.6,1.7,28c-0.9,0.2-1.9,0.3-2.8,0.5c-0.8-8.7-3.8-17.9-2-26.1c3.6-16.6-1-28.4-12.3-40.9
	c-16.5-18-20.7-39.7-10.4-63.2c9.4-21.3,6.1-27.2-18.6-33.6c-1.3,10.3-2.5,20.3-3.8,30.4c-0.4-0.1-0.7-0.1-1.1-0.2
	c0.5-9.2,1.1-18.4,1.6-27.6c-9.8-4.4-23.8,3.4-30.2,17.8c-9.4,21.2-5.2,42.4,1.6,63.2c5.1,15.5,12.5,30.3,16.3,46
	c2.5,10.6,0.5,22.4,0.5,30.1c-12.9,5.8-19.1,15.8-28,21.6c2.4,9.9,1.8,22,7.5,27.3c6.8,6.3,10.2,14,15.1,21
	c4.9,7,8.2,15.4,11.2,23.5c7.3,19.7-1.4,36.2-11.3,52.3c-2.4,3.9-4.7,10.2-8,11c-15.2,3.3-29.4,12.5-46.2,7.7
	c-10.7-3.1-19.8-1.1-25.6,11c-4.8,9.9-14.8,17.5-18.6,27.5c-5,13.3-6.2,28.1-8.7,40.3c-6.6-34.8,8.3-63.9,34.7-87.1
	c9.9,1.4,20.8,4.6,31.7,4.2c32.7-1,56.5-33.3,47-64.5c-3.7-12.2-11.9-23.1-18.8-34.2c-1.1-1.8-5.7-1.5-8.3-2.1
	c-1.8-9.9-3.8-21.4-6.4-35.5c-28.7,18.3-48.9,39.2-61.5,67.5c3.1-8.7,6.2-17.4,9.3-26.2c14.8-14.7,29.6-29.5,44.6-44.5
	c-7.6-10.9-22.3-15.1-29.8-27.2c-0.5-0.8-2.8-0.5-4.3-0.8c1.4-1.8,2.8-3.6,3.7-4.8c-7.8-5.9-15.1-11.4-22.9-17.3
	c-1.1,1.5-2.5,3.5-3.8,5.5c2.4-8.7,5.1-17.2,7.1-26c3.5-15.2-2.2-26.8-16.7-31.6c-1.3,8.2-2.6,16-3.7,23c-1.3-4.1-2.8-8.6-4.2-13.2
	c2.1-3.6,4.5-7,6.3-10.8c6.9-13.7,4.1-25.7-8.8-36.3c-1.2,2.5-2.2,4.8-3.3,7.1c1.3-8.1,5.5-15.1,7-22.7c1.2-6.3,0.1-13.5-1.7-19.8
	c-0.8-2.8-5.8-4.5-9.6-7.2c2.8-11.3,2.8-11.3-9-22.3c-1.7,4.2-3.2,8.1-4.2,10.5c-11,0.6-3.5-6-3.7-10.1
	c-20.2,7.2-23.3,12.1-20.4,30.7c0.3,2.2,1.4,4.3,2.1,6.5c4,13.5,7.9,27.1,11.8,40.7c-1,0.4-2,0.7-3,1.1
	c-3.8-10.6-7.1-21.3-11.5-31.7c-2.2-5.2-6.3-9.6-9.5-14.4c6.5-6.6,6.2-14.1,1.3-20.9c-2.6-3.6-7.4-5.8-11.2-8.6c1.5,0.3,3,0.5,4.4,1
	c8.5,2.8,19.5,3.5,22.2-4.7c3.1-9.5,3-22.5-1.3-31.4c-7.6-16-40.1-25.1-60.2-18.3c5.7,6.5,9.7,14.4,16,17.2
	c6.3,2.8,14.8,0.6,22.4,0.6c-4.1,3.5-9.1,5.5-14.3,6.3c-6.4,1-8.3,4.8-5.2,9.4c4.8,7.2,10.9,13.4,16.4,20.1
	c1.2,10.9,2.3,21.8,3.4,32.7c-4.9,7.1-4,14.6,2.4,19.1c11.5,8,12.4,18.7,11.7,30.9c-0.2,3.4,2.5,7,3.8,10.5c2.5-2.7,5-5.5,7.8-8.7
	c4.2,16.8,21.5,20.5,33.6,30.1c-0.8,3.8-1.7,7.5-2.3,11.3c-0.9,5.4-1.6,10.9-2.4,16.4c-1.4-15.5-13.5-22.4-33.2-17.9
	c0.6,18.5,0.6,18.5,13.1,19.3c-16.4,3.6-12.1,15.1-12.9,25.5c4.3,0.2,8.1,0.4,12.7,0.6c-1.8-5-3-8.1-4.6-12.5
	c6.1,3.8,10.8,6.8,15.8,9.9c-2,4.3-3.6,7.6-5.4,11.5c-5.6-2.2-10.6-5.3-15.9-5.9c-5.4-0.6-11.1,1.3-16.7,2.1
	c1.5,5.9,1.3,14,5.1,17.2c4.3,3.6,14,6,18.4,3.5c14.7-8.2,28-18.7,41.9-28.4c-0.4,2.1-0.9,4.2-1.6,7.5c11.6-1,22.3-1.9,33.1-2.8
	c-4.9,1.5-9.6,3.7-14.6,4.4c-14.1,2-27.3,6-36.3,17.9c-4,5.2-11.5,11.8,1.4,16c1.1,0.4,2.8,2.1,2.6,2.9c-2.3,9,5.1,8.7,10,10.3
	C681.5,573.4,692.9,577.3,696.4,591.2z M753.8,299.2c0.7-3.1,1.3-6.3,2.4-11.5c-13.7-1.3-26.4-2.6-39-3.8c-0.4,1.2-0.8,2.4-1.1,3.6
	c9.7,5.3,19.2,11,29.2,15.7c1.8,0.9,5.3-1.9,8-3c1.1,3.2,1.3,8,3.6,9.4c16.3,10.5,26.5,25.7,35.1,42.4c1.3,2.4,3.6,4.7,6.1,6
	c9.2,4.8,18.5,9.2,27.6,13.7c5.9-7.3,11.6-16.9,19.7-23.9c7.9-6.9,18.1-11.1,27.4-16.5c-0.5-1-0.9-3.2-1.9-3.6
	c-14.5-4.8-29-9.5-43.6-13.7c-0.7-0.2-2.4,3.2-3.2,4.3c-2.4-2.6-4.8-7.5-8.6-9c-13.4-5.2-27.3-8.9-40.8-13.9
	C766.6,292.4,760,293.5,753.8,299.2z M701.7,380.4c-0.9-5.3-1.3-7.8-1.5-8.7c-9.2,7.9-18.8,15.8-28,24c-1.4,1.2-2.5,4.7-1.8,5.8
	c7.4,10.9,13.1,22.2,11.8,35.9c-0.1,0.6,1.3,1.5,2.1,2.1c14.1,10,13.9,24,10.8,38.7c-2.6,12.6,0.7,18.9,11.2,25.3
	c5.1,3.1,8.3,9.3,12.9,13.5c2.9,2.7,6.9,4.2,10.5,6.2c2-0.9,1.7,1.1,2.2,2.8c2.5,8.1,14.4,17.9,19.1,15.9
	c21.4-9.4,29.4-26.3,22.9-48.9c-0.9-3.2-2.5-6.3-3.5-9.5c-8.3-27.1-22.5-52.8-19.5-82.4c1.8-17.5,8.3-32.1,26.6-38.5
	c2.7-0.9,5.1-2.8,7.4-4.2c-5.8-19.9-14-31-28.4-38.8c-0.8,2.3-1.6,4.5-2.6,7.3c-1.3-12-4.5-15.6-19.4-20.4c-2.6-0.8-6.2,1.3-9.5,2.1
	c-2.4-10.9-13.4-21.4-26.7-23.5c0,4.7,0,9.3,0,13.8c-0.5,0-1-0.1-1.5-0.1c-0.5-3.8-1.1-7.6-2-14.3c-8.9,10.1-15.8,18-22.8,25.9
	c0.7,0.7,1.5,1.3,2.2,2c-0.4-3.5-0.8-7.1-1.2-11.5c-9.9,5.5-22.7,6.3-21.5,21.3c-0.5-3.7-1-7.4-1.5-11.5c-3.6,0.9-6.7,1.7-7.3,1.8
	c-3.7,8.9-6.6,16-10.1,24.4c6.4,1.3,11.2,3.8,14,2.4c7.8-4,10.5,0.4,13,6c4,8.9,8.3,17.8,11.7,27c1.7,4.7,1.9,10,3,17
	c23.2-16.8,32.8-36.2,20.9-63c4.9,7.9,9,15,13,22c0.4,0.7,1.2,2.1,1.1,2.2c-7.1,5.8-0.8,6.2,3,8.2c9.8,5,19.7,11.9,18.1,23.7
	c-1.6,11.6-11.4,18.8-22.4,23.3c6.1-7.9,15.8-15.1,16.6-23.1c1.1-10.8-11.3-14.9-21-21C702.9,368,702.4,372.8,701.7,380.4z
	 M882.7,469.6c-3.6-21.5,4.5-36.5,19.9-48.7c8.3-6.6,16.2-13.8,23-21.8c15-17.5,19.6-37-4.8-49.6c-10.2-5.3-21.7-9.1-33-10.7
	c-6-0.8-16.6-1.8-17.2,7c-3.1-0.3-6.1-1.4-8.3-0.5c-14.8,6.1-24.2,17.7-30.7,31.9c-0.6,1.2-1,3.1-0.5,4.2
	c4.7,10.9,9.7,21.7,13.9,30.9c-5.8,8.8-1.7,17-0.1,24.1C849.1,455.2,862.3,465.5,882.7,469.6z M517.4,446.1
	c10.8,20.9-5.9,43.4,6.7,63.5c1.6-17.6,3.1-35.2,4.7-52c1.4,5.1,2.6,11.4,5,17.1c3.3,7.7,11.6,8.5,14.1,0.9
	c2.5-7.6,2.9-17.2,0.2-24.5c-1.4-3.9-11-5.4-17.2-6.7C527.2,443.5,523,445.2,517.4,446.1z M541.3,497.2c3.9-2.7,8.3-5.7,14.6-9.9
	c-10.8-2.8-18-4.6-25.9-6.7c-0.4,7.3-1,14.1-1.1,20.9c0,7.6,1.1,15.2,10.9,15.3c7.2,0.1,12.3-9.4,10.8-18.6
	C547.1,497.8,543.5,497.4,541.3,497.2z"/>
<path d="M504,607.7c-1.1-1.8-3.4-3.7-3.2-5.3c1.4-11.9-4.5-15.9-16.9-15.5c0.3,4.6,0.5,8.9,0.7,12.7c-2.1,2.1-4.7,4.5-6.3,6.1
	c-16.7-28.2-7.4-61.9-12.7-92.2c8.5-0.5,16.2-0.9,23.9-1.3c3.1-0.1,8.1-1.4,9.1,0.1c7.2,10.2,19,13.4,28.5,20c1.8,1.3,2,5.5,2.1,8.3
	c0.7,18.5,1.8,37.1,1.6,55.6c-0.1,9.3-2.8,18.7-4.3,28c-0.2-14.7-9.7-22.3-22.5-29.9C504,599.9,504,603.8,504,607.7z M505.3,584.9
	c1.7-0.4,3.5-0.7,5.2-1.1c0-11.7,1-23.5-0.2-35.1c-1.9-18.7-4.2-20.1-23.9-20.2c-0.7,12.8-1.7,25.7-1.9,38.6c0,2.9,2.4,8.1,4.1,8.3
	c3.5,0.3,7.2-2,10-3C500.5,575.9,502.9,580.4,505.3,584.9z"/>
<path d="M524.9,627.1c-4.9,12.3-0.1,17.3,18.5,19c-12.3,19.9-7,76.4,5.5,82.6c-0.6,5-2.7,9.7-1.3,12.6c7.7,15.5,11,31.1,7.3,48.4
	c-1.2,5.6,1.1,11.9,0.3,18.8c-1.7-5.6-4.8-11.1-5-16.7c-1.3-29.4-5.5-38.7-24.4-53.8c-4.2-27.6-7.9-52.4-11.6-76.4
	c1.8-0.8,7.2-1.9,7.4-3.7c0.4-3.3-1.3-8.9-3.8-10c-7.1-3.1-6.1-7.4-5.7-13.6c0.4-7.1-2.2-14.3-3.5-21.5
	C514.1,617.6,519.5,622.3,524.9,627.1z"/>
<path d="M445.5,379c-1.2,3-2.3,6-3.8,9.9c0-23.2,0-45.7,0-65.6c6.4,0,16,2.6,22.6-0.7c7.2-3.6,11.8-12.5,16.7-18.2
	c-1.8,9.1-4,20.5-6.2,31.8c-0.5,0-1,0.1-1.5,0.1c-0.4-2.6-0.8-5.3-1.2-7.9c-14.3,25.7-6.6,52.1-5.5,79.5
	c-13,2.7-10.5,14.8-11.5,25.5c-0.2-1-0.4-2.1-0.5-3.1c-0.1-1.5-0.2-3.1,0-4.5c1.6-10.8-1.5-16.6-13.9-15.3c-10.9,1.2-12.9-7-11.6-15
	c1.5-9.2,4.9-18.1,9.1-26.8c-0.9,4.8-1.9,9.5-2.5,14.3c-0.5,4.4-1.6,9.2-0.4,13.3c0.9,3.2,4.9,5.5,7.4,8.2c1.5-3,3.9-5.8,4.4-8.9
	c0.7-5.2,0.2-10.5,0.2-15.8C446.8,379.4,446.2,379.2,445.5,379z"/>
<path d="M199.9,736.8c0.3-4.2,0.6-8.4,0.9-13.6c-2.1,0.9-3.8,1.6-6.8,3c2.8-7.1,5.3-13.2,7.7-19.4c0.4,1.1,0.7,2.1,1.1,3.2
	c4.2-1.1,10-0.9,12.2-3.7c3.5-4.4,4.6-10.8,6.7-16.3c-1.8-0.6-3.6-1.1-6.2-1.9c2-1.5,4.3-3.4,8.4-6.5c0,3.9,0.1,5.9,0,8
	c-0.5,8.2,1.2,12.5,11.5,13.4c24.4,2.1,56,39.7,53.9,61.2c-8.1-21.3-22.1-38.6-42.6-49.7c-5.8-3.2-12.8-8-21-1
	c-1.8,1.5-8.2,0.5-12.9,4.6C203.5,726.2,202.8,725.3,199.9,736.8z"/>
<path d="M983.8,559.1c-9,20.4-8.7,22,6.8,40.7c-2.4-1.9-4.6-4.3-7.3-5.7c-2.2-1.1-5.1-1.1-10.4-2.2c3-10.3,6.3-22,9.7-33.8
	C983.1,558.5,983.4,558.8,983.8,559.1z"/>
<path d="M18.5,388.7c2.9,4.6,7.2,8.8,8.2,13.8c1.5,7-0.6,13.3-10,14c-5.4,0.4-10.7,2.7-16.7,3.3c3.7-1.9,7.1-4.4,11-5.6
	c14.5-4.3,15.9-7.1,9.6-20.5c-0.8-1.7-1.2-3.5-1.8-5.3C18.7,388.5,18.5,388.7,18.5,388.7z"/>
</svg>
