<?xml version="1.0" encoding="utf-8"?>
<!-- Generator: Adobe Illustrator 21.0.0, SVG Export Plug-In . SVG Version: 6.00 Build 0)  -->
<svg version="1.1" id="Layer_2" xmlns="http://www.w3.org/2000/svg" xmlns:xlink="http://www.w3.org/1999/xlink" x="0px" y="0px"
	 viewBox="0 0 1000 1000" style="enable-background:new 0 0 1000 1000;" xml:space="preserve">
<path d="M295.8,352.6c7.3-1,14.9-1.3,21.9-3.3c12.2-3.4,15.3-1.7,18.4,10.5c1.6,6.4,3.5,13,6.9,18.5c6.5,10.7,15.7,17.6,29.5,16.5
	c5.5-0.4,11.1,1.4,15.9,2.1c-0.4,0.2-2.1,1-3.8,1.8c9.7,5,14.5,4.4,18-0.8c4.1,0.7,7.2,1.3,10.3,1.8c-6.3,2.3-12.5,4.6-8.1,15.7
	c6.2-4.9,11.6-9.2,17-13.5c-0.5-0.7-1-1.4-1.4-2c-2.5,0-5.1,0-7.6,0c3.6-1.1,7.1-2.2,9.2-2.8c4.3,3.8,7.9,7,12.1,10.7
	c-7.4,10.3-9.8,24.1-7.7,38.1c0.9,5.8,5.6,11,9.8,18.6c2.6-4.3,4-6.7,5.9-9.9c1.4,3.8,2.1,5.9,2.9,8c0.8,0.2,1.6,0.4,2.4,0.6
	c1.8-4.5,4.7-9,5.1-13.6c0.7-7.4,0.6-15.2-1-22.4c-0.8-3.7-5.5-6.5-8.4-9.7c-2.7,2.9-5.3,5.9-7.7,8.5c-1.4-5.1,2.1-9.6,7.2-12
	c4.9-2.3,12.4-5.6,15.5-3.6c4.3,2.9,7.9,10.4,7.8,15.8c-0.2,8.8-2.8,17.8-5.9,26.2c-3.2,8.7-0.3,12.4,8.8,14.1
	c9.4-16.6,4.3-33.9,4-53.1c2.3-2.8,12.1-4.5,6.3-14.2c12.6,2.5,11.4,5.8,12.9,20.4c-0.9-2.6-1.7-5.2-2.6-7.8
	c-0.6-0.1-1.2-0.1-1.9-0.2c-0.9,4.3-2.6,8.5-2.7,12.8c-0.1,11,0.2,22,1.3,32.9c0.3,3.1,3.6,5.9,5.5,8.9c2.2-2.4,5.6-4.5,6.4-7.3
	c4.6-15.7,3.3-31.4-1.2-46c3.3-0.5,7.6-0.2,10.5-2c3.2-1.9,5.1-5.9,8.3-10c-4.2-0.8-6.9-1.2-9.6-1.8c-2.4-0.5-4.9-1.1-9.8-2.3
	c29.5,0.7,55.9-1.2,78.9-18c-3.3,3.1-6.6,6.1-11.5,10.7c25.8-6.8,46.6-19.3,67.4-31.6c-0.3-1-0.6-2.1-0.9-3.1
	c-7.7,2-15.5,3.4-22.9,6.1c-7.5,2.8-14.5,7-22.4,10.9c8.2-12,37.7-34,49.3-36.1c-8.4,5.4-15.3,9.8-23,14.8
	c22.4,5.2,38.6-1.9,53.4-17.3c17-17.7,33.9-35.9,57.2-46.2c21.5-9.4,43-8.7,64.7-2.1c5,1.5,9.3,5.5,13.3,9.4
	c-6.7-2.9-13.1-6.6-20.1-8.5c-28.9-8.1-53.7,2.2-76.6,18.9c-4.7,3.4-9.9,6.2-11.4,13.7c-0.9,4.2-8.4,7.1-13.6,11.1
	c2.1,1.4,3.6,2.4,4.8,3.3c0.2,0-0.2,0.1-0.6,0.2c-4.2,1.1-8.9,1.2-12.4,3.4c-6.8,4.3-12.9,9.7-20.4,15.5c6.8,2.6,12.8,4.5,18.5,7
	c7.8,3.3,10.1,11.4,5.6,18.7c-1.1,1.7-2.3,3.3-3.5,5c-11.7-7.2-11.7-7.2-5-17.3c-11.4-4.8-22.1-0.9-32.8,0.5
	c7.3-2.2,14.6-4.4,21.9-6.6c-8.6-5.9-15.9-3.7-21.9,6.6c-15.2,7-30.5,14-45.7,20.9c6.1,3.8,12.3,7.8,18.5,11.7
	c-0.5,1-0.9,1.9-1.4,2.9c-12.5-13.1-27.1-12.1-42.7-8.2c-14.2,3.5-28.8,5.6-44.1,8.5c1.2,3,2.3,6.2,3.8,9.2c3,5.6,6.5,6.9,11.4,1.6
	c3.7-4,8-7.5,12.7-11.8c3.2,3.7,6.8,8,9.4,11.1c-1.8,6.8-3.2,12.3-4.5,16.9c6.9,0.9,12.1,1.5,17.2,2.2l0.1-0.2
	c-10.3-1.2-17.4,4.9-15.5,15c1.4,7,5.5,13.5,8.6,20.8c-3.2,3.5-7.6,8.4-13.1,14.4c13.4,1.4,24.9,2.6,36.4,3.8
	c-17.1,0.6-34.2,1.3-51.4,1.9c14.3-2.5,11.7-12.4,10.6-22.6c-1.1-10.2-0.2-20.5-0.2-33.1c-3,2.6-4,3.2-4.6,4c-6.1,8-5,16.7-3.3,25.8
	c0.6,3.1-2,6.9-3.8,10.1c-0.5,0.9-4.2,1.3-4.3,1c-1.1-2.7-1.8-5.6-2.4-8.5c-0.3-1.3-0.2-2.6-0.6-6.6c-5.5,8.4-9.6,14.7-14.3,21.9
	c4,0.3,6.6,0.4,9.1,0.6c-5.9,1.4-13.2,0.1-14.4,9.8c6.5-0.6,12.5-1.2,18.4-1.8c-6,1.4-12,2.7-19.8,4.5c4,1.7,6.5,2.7,9.1,3.8
	c-3.9-0.3-7.5-0.6-11.9-1c-0.3,6-0.5,11.4-0.8,16.7c-0.5,0-0.9,0.1-1.4,0.1c-0.6-6.1-1.3-12.2-1.9-18.9c-10.5-4.2-21.3-6.8-33.6-1.4
	c1,3.1,1.4,7.9,3.1,8.4c3.3,1,7.3-0.4,9.9-0.6c0.7,2.1,1.2,4.4,2.3,6.4c1.5,2.9,3.3,5.5,5,8.3c-5.6-5.3-9.5-5.1-11.9,0.5
	c-3.9,9.2,0.8,26.1,9.1,32.5l-0.3-0.5c-0.4,2.8-0.9,8.1-1.2,8.1c-9.4-0.4-7.2,6.6-7.3,11.7c-0.2,9,0,18,0.3,27
	c0.2,4.4,1.1,8.8,1.8,14.1c9.6-4.8,17.9-7.7,16.8-20c-1-11.4,4.4-21.7,10.1-31.3c2.6-4.3,6.3-7.4,12.2-5.4c2.9,1,6.2,0.7,11.9,1.2
	c-4.8-8-8.1-13.6-11.4-19.1c9.9,9.8,19,19,19,35.2c0,12.2,5.9,24.5,9.6,36.6c0.9,2.8,3.8,4.9,6.7,8.4c0.4-2.9,0.8-3.8,0.6-4.6
	c-5.5-22.6,4.9-40.4,17-57.9c3.8-5.5,5-12.9,7.4-19.4c1,2.4,2.9,4.9,2.7,7.1c-1.4,12,4.6,20.7,11.6,29.8c-3.5-1.6-7.1-3.1-11.2-4.9
	c-5.8,12.8-6.2,25.5-3.6,41.3c4.6-5.7,7.6-9.4,10.1-12.3c5.9,1.3,11.5,2.5,17.1,3.6c-6.7,1.8-10.4,6.2-10.9,13.1
	c-0.5,6.7-4.5,10.3-10,13.7c-9.2,5.6-16.8,4.9-23.8-3.3c-1.6-1.9-3.2-3.7-4.7-5.5c-4.5,5-8.5,9.4-12.9,14.1c-1.9-5-3.4-8.9-5.3-13.8
	c-8.2,7.3-15.3,14.5-26.6,12c-11.5-2.6-13.8-12.5-18-24.3c-6.3,9.5-11.8,16.8-16.3,24.7c-2.9,5-5.7,6.2-10,2.2
	c-4.4-4.1-8.8-8.3-11.8-11.2c5.6-23.6,2-46.7,3.5-69.6c-3.8-0.7-6.8-1.3-9.3-1.7c-0.8,8.2-1.5,15.7-2.1,21c3.8,3.4,8.9,6.9,8.4,7.9
	c-1.7,3.7-5.1,6.6-7.9,9.8c-1.8,0.6-1.8,2.7-1.1,4.5c6.5,18.3,3.4,28.2-12.4,39.7c-5.2,3.8-9.8,8.3-14.4,12.3
	c6,6.8,11.1,6.1,17.8,2.7c8.2-4.1,17.4-5.9,26.3-8.5c7-2.1,14.1-3.9,21.2-5.7c0.6-0.2,1.4,0.3,2.7,0.6c-1.3,2-2.3,3.5-4.8,7.3
	c8.6-1.9,15.1-3.4,21.7-4.9c-1,1.7-2.3,3.9-3.6,6.2c15.4,3.3,30,6.7,44.8,9.4c3.2,0.6,6.9-1.3,10.3-2c-0.2-0.7-0.3-1.4-0.5-2.2
	c-4.4-1.1-8.7-2.2-11.6-2.9c8.1-0.4,17.7-0.3,27-1.6c14.8-2.2,29.4-5.4,44.1-8.1c9.1-1.7,18.3-3.2,26.2-4.6
	c-1.5-5.6-3.1-9.3-3.2-13.1c-0.3-8.4,0.4-16.8,0.2-25.3c-0.1-3.8-1.2-8.3-6.8-5.7c-6.6,3-9.1,10.2-6.5,18.8
	c3.5-4.4,6.7-8.3,9.8-12.2c0.5,0.3,1,0.6,1.6,0.9c-6.5,12.8-12.9,25.6-19.9,39.4c-4.6-5.2-8-9-11.2-12.6c3.3-8.3,10.3-15.5,2.6-24.1
	c-0.1-22.2,0.1-44.3-0.5-66.5c-0.2-6.9-4.8-10.3-12.2-7.2c-1.9,0.8-3.8,1.3-5.7,2c-1.1-0.6-2.3-1.2-3.4-1.9c1.3-1,2.5-2.1,3.9-2.9
	c16.5-9.5,33-18.9,49.6-28.4c-0.3-1-0.6-2-1-3.1c-16.6,1.4-33.1,2.9-49.1,4.3c1.3-1.5,2.6-3.1,3.9-4.7c4.3,0.4,8.6,1.3,12.9,1.2
	c9.8-0.2,19.7-1.5,29.5-1.2c10.2,0.4,16.1-4.6,20.9-12.3c-14.3-17.1-6.5-38.1-10.9-57.4c-6.5,2.9-10.2,6.6-9.7,13.4
	c0.7,9.6,1.1,19.2,2.1,28.7c0.2,1.9,2.7,3.7,4.6,6.2c-3.2,3.3-7.6,8.6-12.8,13c-1.7,1.4-5.6,1.4-8,0.6c-2.9-0.9-5.3-3.3-8.3-5.4
	c6.5-18.3,7.3-36.9,6-55.8c-0.1-2.2,1.9-5,3.8-6.7c3.1-2.8,6.9-5,11-7.9c-0.5,3.1-0.9,5.5-1.5,8.9c2.2-0.8,4-0.9,4.6-1.7
	c5.9-7.5,11.9-13,22.5-7.7c1.7,0.8,5.9-3.3,9.2-5.3c-1.2,2.6-2.5,5.7-3.8,8.7c-6.5,4.5-8.6,10.7-8.8,18.6
	c-0.2,11.1,3.3,20.4,9.9,28.8c1.5,1.9,5.4,4.1,6.4,3.5c2.2-1.4,4.5-4.6,4.7-7.1c0.6-7.2-0.2-14.5,0.2-21.7
	c0.4-8.1-0.1-15.4-9.6-18.4c-1.3-0.4-2.1-2.5-3.1-3.8c13,0.3,13.1,0.1,13.5-22.5c3.4,2.2,7.8,3.6,8,5.4c1.1,11.3,8.3,10.7,16.2,9.4
	c1.1-0.2,2.3,0,5.5,0c-5.7,3.3-9.9,5.7-15.9,9.2c5,3.4,8.6,5.8,12.7,8.5c-2.9,9.9-6.9,20.1-8.9,30.7c-1.9,9.9-2.3,20.3,5.8,28.5
	c-3.2-2.1-6.5-4.2-9.5-6.2c-3.6,7.1-7,13.8-10.7,21.2c15.1,3.2,6.7,16,8.8,25.5c-7.9,4-12,12.1-12.8,22.3
	c8.1-10.3,16-20.3,23.8-30.3c1.6,1.6,3.1,3.1,4.7,4.7c-1.4-11.9-1.4-11.9,10.8-18.9c1.2,6.8,1.9,14.3,4.2,21.2
	c0.9,2.9,5.1,5.1,8.3,6.5c0.9,0.4,3.6-3.3,5.5-5.1c1.2,2.2,2.4,4.4,4.7,8.7c-7.7-1.2-14-1.4-19.8-3.3c-10.5-3.4-17.2,2.6-23.7,8.7
	c-6.3,5.9-9.3,13.4-6.9,23.1c13.2-11.3,28.3-12,43.7-11.2c0-0.8,0-1.6,0-2.5c-4.4-1.1-8.8-2.3-13.2-3.4c13.2,4.5,22.5-2,30.8-11
	c0.3-0.3,1.1-0.2,1.7-0.2c2.8,3.5,5.6,6.9,9.8,12.1c-17.5-4.1-17.5-4.1-21.4,3.2c22,0.9,33.7,18.3,48.9,30.3
	c0.6-0.6,1.2-1.1,1.8-1.7c-1.3-2.3-2.6-4.6-2.8-4.9c1.1-4.3,1.9-7.3,2.4-9.2c-6.4-2.3-11.1-3.9-18.2-6.4c7-1.4,12.8-0.9,15.6-3.6
	c3.1-2.9,6.2-10.3,4.6-12.8c-3.1-4.9-9.4-7.8-14.4-11.5c-1.9,5.4-3.4,9.6-5.5,15.3c-2.6-11.3-8.5-13.8-21-10.6
	c6.6-3.6,13.2-7.3,19.8-10.9c15.9,13,33.1,1.9,49.7,2.3c-11.8,3.6-14,6.8-8.5,12.8c-1.8-0.1-3.6-0.2-5.4-0.3c0,0.8,0,1.6-0.1,2.4
	c7.8,0,15.5,0,23.3,0c-5.4,2-10.8,2.1-16.2,1.9c-5.8-0.2-12.2-1.4-10.5,8.9c11.3-1.3,22.4-2.6,33.5-3.9c-4.3,1.5-8.9,2.5-13,4.5
	c-6.5,3.3-14.8,5.8-18.4,11.3c-2.3,3.6,2,11.9,4.4,17.6c0.4,0.8,7.1-1.1,10.5-1.7c-1.4,2.1-3.3,5-5.1,7.9
	c-17.3,27.9-4.8,62.5,25.9,69.2c7.4,1.6,16-2.3,24-3.7l-0.2-0.3c-9.4,9.9-21.1,9.7-32.6,6.2c-11.7-3.5-21-10.9-25.6-22.9
	c-0.9-2.4-2.2-4.7-5.6-7.3c-2,9.6-4,19.1-6.6,31.1c-0.9-7.6-1.9-13-2.2-18.6c-0.5-10.1-0.3-20.2-0.9-30.3c-0.1-2.5-1.9-4.9-2.8-7.3
	c5.9-13.7,3.9-19-8.8-25c2.9,8.1,5.9,16.5,8.9,25c0,8.5,0,17.1,0,28.3c-3.2-3.5-4.5-5.3-6.2-6.7c-2.7-2.3-5.6-5.9-8.4-5.8
	c-2.7,0.1-6.2,3.6-7.8,6.5c-10.5,19.7-26.6,31.8-48.4,36.1c-4.7,0.9-9.9,0.9-14.6,0c-14.5-2.6-29.2-5.1-43.4-9
	c-13.5-3.8-25.6-3.2-36.3,7.2c-0.4-0.6-0.8-1.3-1.2-1.9c2.8-2.3,5.6-4.6,8.5-6.8c-0.2-0.4-0.4-0.7-0.6-1.1
	c-12.9,5.6-25.8,11.2-38.9,16.8c4.1,0,8.5,0,13.7,0c-9.8,4.7-22.5-4.7-29.1,8.6c0-1.9,0-4.1,0-7.4c-18.3-0.1-36.6-5.1-54.4,5.5
	c5.2,0.2,9.7,0.4,14.1,0.6c-10.3,1.7-20.5,3.4-30.8,5c1.3-0.8,2.6-1.7,4.5-2.9c-8.2-0.9-15.4-1.6-22.7-2.4c14.1-0.3,28.4,0.1,42-7.1
	c-14.6-8-15.4-8.1-21.6-4c-1.1-1.9-1.9-5-3.5-5.4c-8.1-2.1-16.2-4.2-24.5-5.1c-6.4-0.7-10.3,5.7-6.3,10.8c3.6,4.6,9.4,7.5,14.2,11.2
	c-3.8-1-8.7-0.9-11.2-3.3c-9.5-9.1-19.6-6.3-31.6-3.3c13.9,11.9,28,18.9,45.6,16.5c3.6,1.4,7.3,2.8,12.5,4.8
	c-14.1,0.7-26.6,0.4-38.1-5.6c-9-4.7-17.6-10.2-26.3-15.4c-6.1-3.6-12-7.6-18.4-10.6c-2.2-1-6.7-0.7-8.3,0.9
	c-11,11.1-22,22.2-32,34.2c-6.4,7.6-4.5,17,3.2,27.6c-0.7,0.4-1.5,0.9-2.2,1.3c-3.6-5.9-7.1-11.7-11.9-19.7
	c-2.7,10.5-5.2,20-7.7,29.9c-5.6-19.9,6.9-34.4,15.3-49.5c-9.2-0.8-18.3-1.5-27.8-2.3c6.6,12.2,12.1,24.6-0.3,36.8
	c-6.4,6.2-11.3,7.8-18.7,5.3c3.8-1.2,8.4-1.8,11.9-4.1c9.2-5.8,7.4-15.2-1.7-21.2c-17.2-11.4-36.5-14-56.2-16.4
	c-11.5-1.4-20.1-9.2-23.1-20.7c-2.3-9,2.8-21.5,12.1-27c14-8.3,28.7-12.5,44.8-2.9c4.1-7.2,9.8-14.1,5.3-22.5
	c-6.7-12.6-16.7-21.3-32-21.4c-5.7,7.6-1,14.6,0.7,21.6l0.2-0.2c-3-6.3-6.1-12.5-9.7-20c-11.7,1.5-23.8,5.8-32.5,16.3
	c-5.1,6.2-6.4,13.8-2.3,21.2c4.4,8,11.6,8.6,23.3,2.2c-6.4,11.2-14.7,10-32.1-4.9c-2.7,7.2-1.4,18.1-14.4,15.3c0,0,0.1,0,0.1,0
	c2.1-6.5,4.3-13,6.4-19.5c0.7,0.2,1.4,0.3,2.1,0.5c-1.1-3.8-2.3-7.7-3.7-12.7c4.1-0.4,7.6-0.8,12.3-1.3c7-15.8,19.7-25.4,39.4-24.9
	c2.6,0.1,5.3-3,7.7-6.1c-14.1,0.9-28.3,4.1-32.9-13.8c6.1,11.4,7.1,11.9,21.1,7.8c9.8-2.9,19.5-6.3,29.2-9.5
	c-0.1-0.9-0.3-1.7-0.4-2.6c-4-2.5-8.1-5-13.7-8.4c19.3,5.5,35.6,12.3,45.9,29.7c0.4-2,1.3-4.1,1.2-6.1
	c-2.1-25.5-10.4-44.1-39.3-50.8c-10.3-2.4-19.3,1.1-26.9,9c2.4-3,4.7-6,7.4-9.4c-1.1-1.4-2.3-3-3.5-4.5c2.4,0,4.9,0.4,7.2,0.1
	c6-0.9,12-2.2,18.1-3.4c8.3,1.1,16.6,2.3,24.9,3.4c4.2,0.5,8.3,0.9,12.5,1.4c-1.2,1.1-2.4,2.1-3.7,3.3c11.9,9.9,23.1,9.9,27.1-1.1
	c1.2,3.8,2.1,6.5,3,9.4c3.1-1.1,6.1-2,9.1-3.2c13.6-5.9,26.8-10.4,42-3.6c10.6,4.7,12.7,6.8,7.4,16.1c3,7.1,5.7,13.8,8.4,20.4
	c-1.9-2.5-3.7-4.9-5.2-6.9c-1.9,6.8-3.9,13.4-5.6,20.1c-0.5,2-1,5.2,0.1,6.2c6.7,6.4,13.9,12.4,20.9,18.5c0.3-0.3,0.6-0.5,1-0.8
	c-0.8-1.7-1.7-3.3-2.5-5c4.3-7.8,3.3-9.9-7.2-15.5c2.7,0.5,5.4,0.9,8.2,1.4c-1.3-6.7-2.6-12.9-4.3-21.4c3.2,2.7,4.1,3.5,4,3.5
	c-0.8-9.6-1.5-20-2.7-30.4c-0.3-2.2-2.8-4-4.4-6.1c5.5,0.3,10.9,0.9,16.4,0.7c2.2-0.1,4.4-1.9,6.6-2.9c-4.5-3.3-0.1-7.3-0.7-10.9
	c-1.4-9.4-9.1-9.3-15.6-10.8c-8.9-2-15.7-5.7-19.9-14.7c-5.6-12-3.3-23.8-1.4-35.8c1.1-7.1,3.3-14.1,5.3-22.3
	c-6,2.9-10.6,5.1-15.3,7.3c0,6.7-0.8,13,0.2,19.1c1.8,12,4.3,23.7-4.8,34c-1.7,1.9-2.7,4.3-4.5,7.2c5.4,5.1,10.4,10.3,15.9,14.9
	c5.8,5,12.1,9.4,18.2,14.1c-7-2-14-3.9-20.9-5.8c1.2-0.4,2.5-0.8,5.2-1.8c-9-8.2-16.8-15.9-25.2-22.9c-5-4.2-14.6-3.6-17.5,0.7
	c-4.3,6.5-0.5,10.7,5.1,14.2c-6.3-0.9-11.7-3.5-10.6-10.2c2-11.4,12-10.3,22.2-10.7c0.3-12.9-0.3-25.4,1.3-37.6
	c2.1-15.7-10-23.5-18.5-31.1c-11.2-10.1-26.2-16-39.5-23.8c-13.7,22.7-11.4,39.9,7,44.6c-3,1-5.9,2-7.5,2.5
	c-4.4-5.4-8.3-10.2-12.3-15.1c-1,0.4-2,0.7-3,1.1c1.9,7.3,2.8,15.1,6.1,21.7c1.5,2.9,7.6,4.3,11.9,4.7c2,0.2,4.9-3.2,6.5-5.5
	c4.4-6.4,8.6-13.1,12.3-19.9c2.2-4,3.4-8.5,5.2-13.2c9.2,4.8,15.8,14.7,22,24.6c1.9,3.1,1.6,8.9,0,12.4c-7.8,17.4-16,34.7-24.8,51.6
	c-2.2,4.2-7.5,6.9-11.3,10.2c6.5-8.8,8.2-18.8,0.7-26.9c-8-8.6-11.3-17.5-8.7-26.7c-8.1-2.7-15-5.1-21.9-7.4c1.6,0.5,3.3,1,4.5,1.4
	c-2.5-6.6-4.9-12.9-7.4-19.5c-5.1,6.7-0.9,12,1.9,17.5c-1,1.3-2,2.5-2.9,3.8c-1.2-1-2.4-1.9-3.8-3c-1.9,12.1,0.4,20.2,8.1,26.6
	c0-3.8,0-6.6,0-9.5c5.8,5.9,5-3.9,9.5-3.5c-5.9,9.5-0.6,15.5,5.9,21.8c6.3,6.2,7.2,13.6,0.9,20.8c-7.4-2.3-10.9-0.3-8.9,7.8
	c-1.8-5.7-3.6-11.4-5-15.7c2.6,0.8,5.9,1.8,9.1,2.8c0.3-3.6,1.6-7.5,0.8-10.9c-0.9-3.8-3.7-7.2-6.7-12.9c-6.6,11-11.9,20-17.5,28.7
	c-1.3,2-3.9,3.1-5.9,4.6c4.7-6.9,7.6-14.4,0.9-21.3c-6.4-6.5-6.9-14.3-6.8-22.4c0-4.5,0.7-9,1.3-15.6c-4.4,3.9-7.5,6.6-10.9,9.6
	c8.8,10.5,5.9,20.5,0.7,30.5c-3.5,6.7-6.7,13.6-10.1,20.4c-5.6,4.5-11.6,8.7-16.7,13.7c-1.1,1.1,0.8,5.3,1.4,8
	c-24.5,15.3-53.9,24.6-78.3,46c8.3,1.6,14.6,2.6,20.9,4c7.2,1.6,14.4,3.5,21.5,5.5c1.6,0.4,3.8,1.4,4.3,2.7c1.3,3.1,1.9,6.5,2.7,9.8
	c-3.2-0.4-6.9,0.1-9.5-1.3c-3.6-2-6.4-5.4-10.3-9c-10.4,0.1-21.1,2.6-30.3,11c-2.4,2.2-7.9,1.2-12,1.6l0.1,0.2
	c-2.3-6.5,0.1-10,6.9-10.7c3.1-0.3,6.2-1,10.5-3.7c-2.6-1.3-5.4-3.9-7.9-3.7c-5.7,0.6-13.2,1.6-13.4-5c-0.2-6.2,4-13.2,8-18.5
	c3.1-4.1,9-6.1,13.7-9.1c3.5-0.8,7-1.3,10.4-2.4c4.3-1.5,8.5-3.4,12.8-5.1c0.2,1.8,0.3,3.6,0.5,6.2c2-0.8,2.9-1.4,3.9-1.7
	c7.7-1.8,12.1-10.2,22.2-8.8c5,0.7,12.9-5.4,16.2-10.6c4.5-7,5.8-16,8.5-24.3c-13.5-4.8-13.5-4.8-12.1-15.6c0.6,3,0.3,5.5,1.3,6.1
	c3.3,2.1,6.9,4.8,10.4,4.9c5.7,0.1,9.6-3.6,10-9.9c0.4-6.2-4.5-5.8-8.3-6.5c-20-3.7-40.3,6.8-50.8,26.9c9,4.3,13,11.7,8.6,21.1
	c-2.2,4.6-7,8-10.6,12c0.1-1.5-0.3-3.5,0.5-4.5c6.2-7.9,4.8-14.5-4.5-18.4c-3.7-1.6-7.7-2.6-11.5-3.9c-9.1-3.2-12.2-8.9-9.5-18.2
	c1.2-4.1,3.4-7.9,5-11.6c-5.6-3.2-11.2-6.4-18.7-10.7c0,6,0,10.9,0,16.7c2.1-1,3.9-1.8,6.9-3.2c-3.5,5.5-6.5,7.5-11.9,4.7
	c-6.4-3.2-10-6.9-5.4-14.1c0.4,3.1,0.7,6.2,1.2,10.5c4.3-8.1,7.8-14.6,11.3-21.1c-0.8-0.7-1.6-1.5-2.4-2.2c-3.5,4.4-7,8.8-10.4,13.2
	c3-5.2,6.1-10.3,8.9-15.1c-7.2-3.6-14.5-7.2-23.3-11.6c1.7,13.7,2.5,26.2,4.8,38.4c3.2,17.4,12.1,29.8,32,31
	c-6.8,1-13.3,0.9-19.8,1.1c-1.8,0.1-3.5,1-5.3,1.6c-9-6.6-18-13.2-29.4-21.5c7.1,13.6,4.4,24.4-1.2,34.8
	c-9.1,16.9-37.8,23.9-53.6,13.1c-15.2-10.4-14.9-31.1,0.8-43.9c6.8-5.5,6.8-5.5,7.5-14.9c-15.1-4.4-14.1-3.6-23.5,8.3
	c-8.9,11.2-20,20.8-30.7,30.4c-2.9,2.6-7.9,3.5-12.1,3.7c-2.1,0.1-5.3-2.6-6.2-4.8c-0.7-1.7,1.4-4.6,3.7-6.5c0,2.3-0.6,6.5,0.1,6.7
	c2.8,0.9,6.7,1.8,8.9,0.5c5.3-3.1,10-7.5,16.9-13c-6.2-0.7-9.8-1-13.2-1.6c-10.1-1.7-15.5-8.4-15.5-18.9
	c-0.1-14.5,8.3-24.2,19.2-32.6c-5.4-11.1-10.1-22.1-3.3-34c-2,11.6-2.7,22.9,6.3,32.2c3.3-1.4,6-2.6,8.7-3.6
	c13.4-4.9,13.4-4.9,12.5-19c0-0.8-0.4-1.9,0-2.2c7-5.7,3.7-13.9,4.9-20.9c0.2-1.2-2.4-2.9-3.6-4.3c7-4.8,7-4.8-9.1-14.9
	c-5.4,7.8-10.8,15.6-16.2,23.5c3.6-6.5,6.3-13.8,11.1-19.3c4.4-5.1,7.6-9.5,7.6-16.6c0-5.3,1.9-10.7,3.5-18.9
	c-8.4,4.2-15.4,6.7-21.2,10.9c-6.5,4.7-12.4,10.6-17.7,16.7c-9.5,10.9-9,20.7,0.7,31.5c-6-2.3-8.9-6.4-9.9-13.1
	c-1.5-10.3,2.3-19.2,8.4-26.7c8.8-10.7,17.5-21.8,31.4-26.9c1.7-0.6,3-4.6,3.2-7.2c0.6-9.8-0.8-19.9,1.2-29.3
	c3.7-17,21.9-27.7,38.1-23.4c4.6,1.2,8.5,5.2,12,9.1c-7.5-8.1-16.5-10.1-26.7-6.6c-10.6,3.7-18.3,10.9-19.4,22.5
	c-1,10.2-0.2,20.6-0.2,30.9c1.1,0.3,2.1,0.6,3.2,0.9c1.7-1.9,3.7-3.6,4.9-5.7c16.6-28,58.9-33.5,77.5,1c4.7,8.7,9.1,17.5,13.8,26.2
	c1.9,3.6,3.8,7.3,6.5,10.2c4.8,5.1,9.2,3.7,11.4-3.4c1.8,6,0.9,7-8.3,9c1.2,1.4,2.2,2.7,3.3,4c-5.8-5.4-11.6-10.8-16.7-15.5
	c-1.1,15.1,12.4,36.7,26.1,40c8.2,1.9,8.9,0.6,9.1-8c0.1-6.9-3.3-10.2-8.4-13c3.9,1.3,9.3,3.2,9.3-3.1c-0.1-11.3,8.6-15.2,15.6-19.5
	c9.4-5.8,20-9.6,31.6-6.4c4.9,1.4,9.6,3.2,14.5,4.9c1.1,0.4,2.3,1.4,3.2,1.2c7.3-2.2,14.6-4.6,23.1-7.4
	c12.9,7.3,26.9,15.2,43.1,24.3c-0.5-5.4-0.8-9.2-1.2-14.2c3.1,2.8,6,5.5,9.9,9c0.5-4.6,1-7.9,1.3-11.3c1.1-12.6-0.2-13.8-12.6-14.8
	c-4.2-0.3-8.3-2.4-12.4-3.7C296,352.4,295.8,352.6,295.8,352.6z M652.5,609.1c-3.8,4.3-7.7,8.6-11.5,12.8c0.5,0.7,0.9,1.4,1.4,2
	c6.9-1.4,13.7-2.8,21.2-4.4c-1.3-3.9-2.2-6.8-2.7-8.5c-3.6-0.9-6.1-1.5-8.6-2.2c2.4-1.7,4.8-3.5,6.6-4.8c0.9-8.4,1.8-16.5,2.7-24.5
	c0.7-5.8-0.7-9.5-7.1-8.7c2.5,10.4,4.2,20.2-0.7,30.2C652.6,603.3,652.9,606.4,652.5,609.1z M87.5,446.5c3.7,0.4,3.7,0.4,7-8.8
	c-2-1.3-4-2.7-6.1-4.1c-0.8,0.2-1.6,0.5-2.5,0.7C86.5,438.4,87,442.5,87.5,446.5c-1.5,0.5-3.8,0.5-4.4,1.5c-5.6,10-11,20.2-17,31.2
	c4.7,1,9,1.9,13.1,2.8C88.2,462.1,89,458.4,87.5,446.5z M265.5,392.9c-1-13.1-8.7-19.8-17.3-16.8c0.5,11,1.3,21.4,1.4,31.9
	c0,3.5-0.2,5.8,4.2,4.6c-11,6.6-8.7,19.3-13.7,28.7c12.3-7.7,21.6-18.1,26.5-31.2C268.4,405.2,266,398.7,265.5,392.9z M86.8,393.8
	c2.9-1.8,6-3.3,8.7-5.5c1.6-1.3,3.6-3.4,3.7-5.2c0.3-8.6-13.4-17-21.1-14.1c-7.2,2.7-6.9,8.5-7.3,14.1c-0.7,12.1,0.8,13.2,12.3,9.5
	c1.1-0.3,2.5,0.6,3.8,1c-1.2,2.2-2.5,4.5-3.7,6.7c0.1-0.9,0.1-1.7,0.2-2.6c-3.9-0.4-7.7-0.8-11.6-1.2c-1.4,14.3-1,15,9.4,19.4
	c0.8-2.3,1.5-4.5,2.3-6.8c0.2,10.4,7.3,13.6,16.9,17.5c0-13.2,0-25.2,0-37.6C94.9,391,90.8,392.4,86.8,393.8z M701.3,605.3
	c1.5-1.8,3-3.6,4.6-5.6c-2.4-1.8-4.3-3.2-6.2-4.5c3.2-0.2,6.5-0.2,9.7-0.6c4-0.6,9-0.3,11.5-2.6c2.9-2.6,5.3-7.9,1.3-9.9
	c0-10.8,0-20.3,0-30.8c-5.2,1.9-9.2,3.4-13.2,4.9c2.9-2.5,5.7-5.1,8.8-7.9c-12.1-4.5-16.8-1.9-23.7,13.9c6.3-2.6,10.7-4.5,15.2-6.3
	c-3.4,3.5-6.5,7.4-10.3,10.4c-9.4,7.4-10.4,14-3.2,23.9c1.3,1.8,2.7,3.6,4,5.4c-3.6-4.1-8.2-7.7-10.6-12.4
	c-5.4-10.3-5.2-10.6-15.1-7.5c-3,14.6,4.8,25.7,11.1,37.2c3.6,6.6,9.1,8.1,16.5,4.9c-2.2-2.6-4.2-5-6.2-7.3
	c18.7,12.5,36.3,7.3,43.7-13.4c-2.5,0.8-4.8,1.4-7,2.1c10.5-9.6,12.7-21,8.1-33.4c-1-2.6-6.9-3.4-12-5.7c1.4,5.1,2.4,8.1,3.1,11.2
	c2.9,13.6-3.5,24.7-15.6,28C710.9,600.5,706.2,603.2,701.3,605.3z M102.5,544.3c10-6.1,16.7-15.1,20.7-25.8
	c2.8-7.4,4.9-16.3-2.7-21.5c-6.8-4.7-15.4-6.9-23.4-9.7c-1.3-0.4-5.1,2.1-5.2,3.6c-0.8,6.8-2.3,14-0.7,20.4
	c2.8,11.3,7.6,22.2,11.4,33.2c-12.2-13.1-28-23.9-26.5-45.8C66.2,507,63.6,521.2,69,532C73.6,541.1,90.3,547.2,102.5,544.3z
	 M634.3,574c19.3,1.7,11.2,16.9,14.7,27.1c2.4-5.2,5.5-11,4-15.2c-5.1-13.7-5.7-13.8,7-21.7c-8.2-15.4-6.2-30.6,1.2-45.8
	c3.2-6.6,4.9-13.4-5.4-16.8c2.9-0.2,7,0.4,7,1c0.1,9.5-0.3,18.9-0.6,27.8c5.8-9.2,16.4-16.7,16.1-31c-0.2-6-1.5-8.8-7.6-8.3
	c-8.6,0.6-17.2,0.8-25.7,2.1c-7.2,1.1-14.8,2.5-21.3,5.7c-8.8,4.3-16.8,10.3-23.8,14.7c3.7,5.2,7.6,10.5,11.7,16.3
	c3.9-3.3,8.4-7.8,13.5-11.5c5.9-4.2,12-5.9,16.6,2.5c-4.4-4.8-8.5-4.3-13.4-0.5c-10.9,8.2-15,21.2-10.9,38.6
	c5.7-4.6,10.8-13.4,18.9-6.3C643.7,559,637.5,565.9,634.3,574z M398.5,618.9c-0.9-0.3-1.7-0.5-2.6-0.8c-2.3,7.2-5.9,13.1-14.6,11.8
	c-2.4-0.4-4.4-3.3-6.6-5.1c0.5-0.7,1-1.5,1.5-2.2c3.5,6.2,9.3,7.1,12.3,2.2c2.1-3.4,1.1-12.6-1.5-14.3c-7.9-4.9-17.5-4.2-26.6-1.5
	c1.8,0.4,3.7,0.8,6.8,1.4c-17.2,1.4-28.9,9.2-31.1,20c-2.7,12.8,0.7,22.3,9.7,27c1.3-9.2,5.6-16.2,13.6-21.2c4.8-3,8.7-7.4,11.4-9.8
	c1.8,2,4.5,4.8,6.5,6.9c-0.1,0.2-2,2.2-1.6,2.7c1,1.5,2.7,3,4.5,3.5c7.2,2,11.5-3.3,14.9-7.9C397.4,628.3,397.4,623.2,398.5,618.9z
	 M145,406.4c-3.9,14.5,6.1,39.3,18.3,45.4c2.7,1.3,7.8,1.4,9.8-0.3c5.6-4.9,10.1-10.9,15.5-17c-2.5-5.3-5.2-11.3-8.2-17.7
	C166,422.8,155.9,413.3,145,406.4z M404.7,623.2c0.8,0.1,1.7,0.3,2.5,0.4c0.3-2.7,1.9-6.2,0.7-7.9c-8.4-11.9-7.9-24.3-3.8-37.4
	c0.6-1.9-0.3-5.8-1.6-6.5c-1.9-1-5.4-0.6-7.4,0.6c-6.9,4.2-12.9,10.2-20.1,13.3c-7.1,3.1-8.7,7.9-9.6,14.4
	C393.8,600.2,401.6,604.8,404.7,623.2z M288,567.3c7.8,4.8,16,8.3,22.3,13.9c7.8,7,11.1,1.1,15.4-3.4c4.9-5.2,5.8-10.4-0.6-15.3
	c-8-6.1-16.8-6.5-26.4-5.3C292,558.1,288.6,560.7,288,567.3z M324.8,623.4c-12.4,6.9-26,14.5-41.9,23.3c16.4,3.7,31,7,43.9,9.9
	C326.1,645.5,325.4,634.3,324.8,623.4z M108.8,428.9c-3.9-18.3,1.4-32.7,16.5-43.4c1.1-0.8,2-2.2,2.3-3.5c1.6-6-6.8-25.4-12.2-28.7
	C105.8,377.9,103.7,403.1,108.8,428.9z M202.9,392.2c-16.6,4.3-20.6,9.2-17.1,23.2c1.2,4.7,3.3,9.5,6.3,13.2c1.9,2.4,7.5,4.9,9,3.8
	c2.7-1.9,5.2-6.5,5.1-9.9C205.8,412.3,204.1,402.2,202.9,392.2z M131.1,389.1c-16.9,6.5-23.3,18.9-19.4,33.6c0.7,2.7,3.1,7.1,4.5,7
	c4-0.2,8.3-1.7,11.6-4c1.9-1.3,3-5.1,3.1-7.8C131.3,408.8,131.1,399.7,131.1,389.1z M360.5,527.4c7.4,12.9,9,31,30.9,25.7
	c1.9-6.3,4.3-13.9-1.9-19.6C381.7,526.2,372,523.9,360.5,527.4z M366.9,635.1c-8.7,3.8-13.7,11.2-14.9,21.5
	c-0.5,4.4,1.2,6.7,6.2,7.2c12.3,1.3,19.7-2.6,24.9-13C377.9,645.8,373,641,366.9,635.1z M781.5,602.2c3.4-15.1-11.6-43.4-26.5-47.1
	c7.3,15.7,14,31,10.5,48.1C771.2,602.8,776.2,602.5,781.5,602.2z M218.8,424.7c2.5-4.4,3.9-8.8,6.7-11.7c7.5-7.9,7.8-13.5-0.2-21.1
	c-6.2-6-12.2-4.8-15.6,3.2C205.5,404.8,208.2,414.7,218.8,424.7z M177.2,460.8c9.6,6.1,15.9,1.4,21.9-1.7
	c18.6-9.7,28.5-19.9,28.8-31.4C208,434.8,196.2,451.8,177.2,460.8z M31.3,491.2c14.1-17.6,14.1-18-0.9-25.4c-3,4.7-6.9,9.2-8.9,14.5
	c-1.4,3.5-1.7,9.5,0.3,11.6c2.9,2.9,8.8,5,12.8,4.3c9.1-1.6,16-7.4,21.6-17.5C43.9,477.2,41.1,491.6,31.3,491.2z M220.5,456.9
	c-0.8-0.7-1.6-1.4-2.4-2c-8.5,8.1-17.5,15.8-25.4,24.4c-4.7,5.1-2.6,11,2.3,15.3c2.7,2.4,6.3,3.8,10.4,6.2c1.2-3.7,2.1-6.5,3.2-9.8
	c-2.9,0.6-4.7,1-5.7,1.2C208.7,480.4,214.6,468.6,220.5,456.9z M270.8,411.3c-8.2,12.3-16.2,24.3-23.4,35.1c2.5,4.5,4.5,8.3,7.7,14
	c3.5-4.3,6.8-8.2,9.7-12.3c0.3-0.5-1.8-2.6-2.8-4C270.1,440.2,273.7,427.2,270.8,411.3z M278.4,440.3c0.7,0.5,1.3,1.1,2,1.6
	c6.8-6.1,14.8-11.5,20-18.8c2.8-3.9,2.3-11.5,0.8-16.7c-1.1-4.1-5.9-7.1-9.1-10.5c-1.7,6.9-3.1,14.6-5.4,22
	C284.4,425.5,281.2,432.8,278.4,440.3z M281.9,643.1c11.5-5.8,20.9-12.2,28.1-22.2c-11.2-5-21.4-3.2-28.3,3.8
	C275.8,630.7,279.2,636.3,281.9,643.1z M501.5,570.8c-3.1,19.3,1.1,29.3,12.8,30.5c-1.1-6.2-3-12.3-3.1-18.4
	c-0.1-6.5,1.9-13.1,2.4-19.7c0.1-1.6-1.6-4.4-3-4.7c-1.6-0.4-5.2,1-5.4,2.1c-0.8,4.3-0.7,8.8-0.9,12.9
	C504,573.1,503.1,572.3,501.5,570.8z M646.1,485.5c8.9,0.8,16.2,1.5,23,2.1c1.3-11.2,2.5-20.7,3.6-30.3c-0.6-0.2-1.3-0.4-1.9-0.6
	C663,465.8,655.2,474.9,646.1,485.5z M85.1,429.2c-1-0.2-2.1-0.3-3.1-0.5c-9.6,15.3-19.1,30.5-29.8,47.5c3.4-0.7,6.8-0.5,7.8-1.9
	c7.9-11,15.6-22.2,22.7-33.8C84.6,437.6,84.4,433.1,85.1,429.2z M353.9,426.7c-9.4,16.7-8.8,20.8,6.7,29.4
	C366.6,443.1,363.6,430.4,353.9,426.7z M441.2,464.7c-2.7,4.4-5.2,8.6-8.4,13.9c4.6,2.1,8.6,3.9,14.9,6.7c-2.6-4.6-3.9-6.9-5.9-10.5
	c11,4.5,17.9,16.4,30.2,10.4C461.8,478.5,451.8,471.8,441.2,464.7z M415.1,605.9c5.6-10.9,2.9-20.9-7.3-28.5
	C401.8,589.8,403.8,598,415.1,605.9z M55.8,394c1.7-8.6,3.4-17.1,5.1-26c-3.1-0.9-5.8-1.6-8.3-2.3C45.3,380,46.5,390.7,55.8,394z
	 M436.7,642.6c16.9,13.6,21,12.8,29.7-5.1C456.5,639.2,447.7,640.7,436.7,642.6z M121.5,474.3c0.9,0.2,1.8,0.4,2.7,0.6
	c0.9-3.2,3.2-6.8,2.5-9.6c-2.7-10.8-12.4-14.2-21.5-19.6c-1.1,3.2-1.9,5.5-3,8.6C117.9,452.6,116.9,466,121.5,474.3z M501.9,475.3
	c-5.6-2.3-10.6-4.3-15.6-6.3c-3.3,4.4-6.4,8.4-9.5,12.6C487.9,486.8,499.2,484,501.9,475.3z M588,642.2c-13.2,2.6-25.9-0.4-37,8.6
	C565.3,655.8,576.9,654.6,588,642.2z M439.6,518.4c-1.5,0.9-3,1.9-4.6,2.8c2.7,6.4,5.1,12.9,8.4,19c0.9,1.6,4.8,1.5,7.3,2.1
	c0.5-2.3,2.3-5.5,1.4-6.9C448.4,529.5,443.9,524.1,439.6,518.4z M94.8,338.7c-12.4-5.2-21.2-2.2-30,10.1
	C77.7,351.6,84.4,339.7,94.8,338.7z M521.7,432c-6.7,9.3-10.7,17.5-5,27.7C524.9,454.3,526.2,447.7,521.7,432z M418.1,520.1
	c-3.5-10.5-19-13-35.8-6.3C393.2,515.7,405.8,518,418.1,520.1z M616.8,579.5c1,0.7,2,1.3,3,2c3.6-4.9,7.4-9.6,10.5-14.8
	c0.7-1.2-1.1-4-1.7-6c-1.8,0.6-3.7,0.9-5.3,1.8C616.3,566.4,616.2,572.9,616.8,579.5z M372.3,578.2c0.6,0.4,1.1,0.8,1.7,1.1
	c4.5-5.1,9-10.3,14.9-17c-6.9-1.2-11.3-1.9-16.6-2.8C372.3,566.9,372.3,572.5,372.3,578.2z M237.4,471c9.9,0.6,18.8,1.2,27.8,1.8
	C260.6,461.1,251.6,460.4,237.4,471z M112.8,487c-5.5-6.4-10.1-11.9-15.6-18.4c-1.7,5.7-2.9,10-4.1,14.3c1.7,0.7,2.4,1.2,3.2,1.4
	C101.3,485.2,106.4,486,112.8,487z M364.2,562.6c-3.8,10.6-6.9,19.4-10.2,28.6C366.3,583.5,368.8,577.6,364.2,562.6z M33.1,462.7
	c4.4,3.4,7.4,5.7,11.5,9c1.9-7.1,3.5-12.6,5-18.2c-0.6-0.3-1.1-0.7-1.7-1C43.5,455.5,39.1,458.5,33.1,462.7z M378.1,405.5
	c-0.5,0.8-1,1.6-1.5,2.4c3.6,2.8,7.3,7.9,10.7,7.7c3.7-0.2,7.1-5.4,10.6-8.4c-0.4-0.6-0.8-1.1-1.1-1.7
	C390.5,405.5,384.3,405.5,378.1,405.5z M533.1,432.2c10.3-3.1,11.5-5.3,8.8-16.3C532.5,418,532,424.5,533.1,432.2z M91.1,362.3
	c3.8,5,6.8,9,9.8,12.9c0.8-0.2,1.5-0.5,2.3-0.7c0.3-5.2,0.6-10.3,0.9-16.7C99.1,359.5,95.6,360.7,91.1,362.3z M512.7,433.3
	c3.8-2.5,7.7-5,12.3-7.9c-5.4-3.5-8.3-5.3-12.3-7.9C512.7,423.8,512.7,428.9,512.7,433.3z M606.7,636.1c-0.3-1.3-0.6-2.6-0.9-3.9
	c-9.9,2-19.7,4.1-29.6,6.1c0.2,1.1,0.5,2.2,0.7,3.3C586.8,639.8,596.7,638,606.7,636.1z M438.8,513c-0.1,1.1-0.2,2.1-0.3,3.2
	c4.3,2.7,8.6,5.4,13.9,8.7c0-5.1,0-8.3,0-13.1C447.6,512.3,443.2,512.6,438.8,513z M611.8,640.4c-0.5-1.1-1-2.3-1.6-3.4
	c-8.2,3.8-16.4,7.6-24.6,11.4c0.5,1.1,1.1,2.3,1.6,3.4C595.5,648,603.6,644.2,611.8,640.4z M281.5,469.2c0.6-0.1,1.3-0.3,1.9-0.4
	c-0.7-5.3-1.5-10.7-2.6-18.4c-4.5,4.7-6.8,7.1-7.4,7.7C276.6,462.4,279,465.8,281.5,469.2z M78.8,352.4c4,1.8,7.3,4,7.8,3.4
	c3.7-3.7,6.8-8,10.1-12.1c-0.8-0.7-1.6-1.5-2.4-2.2C89.8,344.7,85.2,347.9,78.8,352.4z M670.6,609.5c0.8-0.5,1.5-0.9,2.3-1.4
	c-2.5-6.2-5.1-12.4-7.6-18.6C661.4,598.4,663.5,605,670.6,609.5z M104.4,453c-2.2,3.6-4.4,6.4-4,6.8c2.3,2.6,5.1,4.7,8,6.6
	c0.3,0.2,3.8-3.4,3.5-3.9C110.1,459.5,107.7,457,104.4,453z M640.2,628.8c9,0,17.9,0,26.9,0c0-0.8,0-1.7,0-2.5
	C658.1,622.1,649,625.1,640.2,628.8z M117.3,436.4c4.1,5,7.1,8.6,10.1,12.2c0.9-0.7,1.8-1.3,2.6-2c0.2-3.9,0.4-7.8,0.6-12.6
	C126.1,434.8,122.6,435.4,117.3,436.4z M800.4,591c3.3-6.6,5.7-11.4,8.1-16.3c-2.9-1.1-5.1-1.9-8.1-3
	C800.4,577.9,800.4,583.2,800.4,591z M667.4,364.6c-1.5,2.5-2.9,4.4-3.7,6.5c-0.6,1.6-0.4,3.5-0.5,5.3c1.7,0,3.8,0.6,5.1-0.1
	C674.9,372.6,674.6,370.5,667.4,364.6z M241.8,451.9c-1-1-1.9-1.9-2.9-2.9c-4.5,4.7-9,9.4-13.6,14.2c0.7,0.7,1.4,1.4,2.2,2
	C232.3,460.7,237,456.3,241.8,451.9z M686.7,426.7c8.5-11.5,8.5-12,0-15.8C686.7,416.1,686.7,421.2,686.7,426.7z M664.3,569.8
	c1.1,7,2.1,13.3,3.5,21.7C671.5,582,672.3,575.4,664.3,569.8z M363.6,554.5c1-0.4,1.9-0.9,2.9-1.3c-2.8-6.2-5.6-12.4-8.4-18.6
	c-0.7,0.3-1.4,0.7-2.2,1C358.5,541.9,361,548.2,363.6,554.5z"/>
<path d="M801.6,449.5c1.8,0.5,4.9,0.7,5,1.5c1.6,8.8,5.3,17.8-0.7,27.3c-1.8-6-3.4-11-5.7-18.6c-4.5,3-10.1,4.9-12.5,8.8
	c-5,8.2-9.2,10.5-16.2,2.5c-1.9-2.2-5.2-3.1-8.1-4.8c-9.9,8.6-9.6,10.6,2.4,17.6c10.9,6.3,22.6,3.3,34,3.6
	c-28.3,3.5-44,4.6-62.4-21.5c-8.8,0.4-16.3,0.4-23.6,1.2c-2,0.2-3.7,2.8-5.6,4.3c-0.4-2.7,0.1-6.4-1.4-8c-9.7-9.9-5.9-20.6-1.9-30.8
	c3.5-8.9,8.4-17.1,12.7-25.7c-4.3-1.1-3.1-8.6,1.8-12.3c0.9-0.7,2-0.9,1.5-0.7c4.4,4.4,9,8.4,12.9,12.9c6.4,7.4,11.8,0.6,18.7-2.5
	c-1.8,6-4.1,10.3-4.1,14.6c0,6.4,0.9,13.1,3.1,19c1,2.6,7,5.7,9.3,4.8c3.3-1.2,7-5.8,7.4-9.2c0.7-6.2-0.1-12.9-2-18.9
	c-2.7-8.4-7.1-16.3-11.1-25.3c4.4,1.4,8.6,2.8,13.6,4.4c2.8-24.9,15-44.4,35.3-59.1c-9.5,16.1-13.3,32.7-6.7,50.7
	c7.6,20.9,23,31.3,44.7,34.9c12.8,2.1,18.9-8.7,24.7-17.6c5.2-8,3.8-20.9-1.8-27.1c-4.9-5.4-10.6-8.5-17.7-4.3
	c-6.6,3.9-8,9.4-2.7,16.7c-9.7-5.5-11.5-12.7-4.4-20.3c7.9-8.4,6.4-17.4,5-26.9c-0.3-2.1-2-3.9-3.2-5.9c-1.5-2.5-3-5.1-4.5-7.6
	c0.8-0.4,1.6-0.9,2.5-1.3c5.2,8.3,10.4,16.6,15.7,25.1c-0.1,0-1.4,0.2-2.5-0.1c-1.3-0.3-2.4-1.1-4.3-1.9c-0.3,4.1-0.6,7.4-0.8,10.8
	c18.3,2.5,25.8,9.8,27,26.1c1.4,19.4-5.9,30.2-23.3,35.3c-17,5.1-29.8-3.7-42.5-12.5c-2.1-1.4-3.4-3.9-6-7.1c0,5.9,0,10.1,0,14.2
	c-0.4,0-0.7,0-1.1,0.1c-5.5-15.9-10.9-31.8-16.8-48.7c-2,14-7.5,27.1-1.9,41.6c2.2-1.7,3.3-2.5,6.4-4.9c-2.5,5.2-4.8,8-5,10.9
	c-0.8,11.5-2,23.2-0.4,34.4c0.4,2.5,11.4,3.5,17.6,5.2c0.2,0.1,0.5-0.1,1.4-0.2C802.6,452.5,802.1,451,801.6,449.5z M730.7,451.8
	c0.7-0.7,1.3-1.3,2-2c0.8-10.3,1.8-20.5,2-30.8c0-2.2-3.1-4.4-5.7-7.9c-7.4,11.9-7.6,22.9-5.1,33.9
	C724.7,447.6,728.4,449.5,730.7,451.8z M768.7,444.8c-7.9-0.4-14.7-0.7-21.2-1c5.1,16.9,7.3,19,19.1,16.9
	C767.3,455.2,768,449.5,768.7,444.8z"/>
<path d="M812.2,483.7c4.5-1.5,4.3-4.6,4.2-8.9c-0.3-8.8,0.6-17.7,2.3-26.5c-3.8,39.6,13.2,57.7,51.3,59c-11.8-1.2-23.5-2.3-34.2-3.4
	c9.5,14.1,28.7,19.4,44.7,10.9c4.5-2.4,9-5,13.1-8.1c13.8-10.5,29-10.7,44.8-6.9c1.6,0.4,3.2,1.2,4.9,1.5c0.7,0.1,1.6-0.4,1.9-0.5
	c2.5,6.2,5,12.3,7.4,18.4c-5.6-13.7-18.3-18.9-30.7-19.2c-7.2-0.2-14.5,4.1-22.4,6.6c4,3.1,7.5,5.3,10.3,8.1
	c5.8,6,3.8,14.2-3.8,17.6c-7.4,3.4-14.5,7.3-21.9,10.6c-6,2.6-7.7,7.3-7.6,13.2c0.3,20.3,1.8,40.6,0.4,60.8
	c-0.6,8.6-7.3,16.8-11.5,25c-0.1,0.3-3-0.9-4.6-1.3c0,0,0.2,0.3,0.2,0.3c0-5.3,0-10.6,0-17.2c-8,6.1-14.7,11.2-21.4,16.4
	c-0.5-0.6-0.9-1.3-1.4-1.9c6.5-6.5,6.5-6.5,2.4-12.6c-2.1,0.8-4.3,1.8-6.5,2.3c-10.2,2.4-23.8-3.6-25.7-11
	c-6.6-25,13.5-59.3,31.9-71.9c0.5,2,0.9,3.8,1,4.6c6.7-5.1,13.2-10,21.7-16.4c1.2-6.2,5.2-9.3,17-10.1c-1.9,3.9-3.7,7.6-6.5,13.4
	c11-3.7,22.2,1.3,28.9-8.4c1.8-0.1,5.3,0.3,5.5-0.5c1.1-3.2,2.7-7.5,1.4-10c-3.5-6.7-10.9-6.6-20.1-2.9c-14.1,5.8-28.6,10.5-43,15.7
	c-4.7,1.7-9.3,3.7-13.9,5.5c0.7-5,3-6.9,8.5-7.2c7.1-0.3,14-2.6,21.1-4c-1.4-2.7-2.3-3.3-3.4-3.7c-17.3-6.6-31.8-16.2-39.4-34.2
	C818.3,485.2,814.6,484.8,812.2,483.7z M854.7,570.8c-7.4,22.6-4.6,46.6,4.7,49.1c0-22.6,0-45.4,0-69.7c-7.3,2.1-12.5,3.7-17.7,5.2
	c-0.3,1-0.7,2-1,3C845.2,562.4,849.7,566.4,854.7,570.8z M839.2,566.8c-13.9,8.7-16.6,30.4-6.4,36.2
	C834.8,591.5,836.9,579.7,839.2,566.8z M842.9,571c-2.7,10.8-4.8,19.5-7,28.2c0.8,0.2,1.5,0.4,2.3,0.5c2.1-8.3,4.3-16.5,6.4-24.8
	C844.7,574.6,844.2,574,842.9,571z"/>
<path d="M996.5,548.4c-13.1,8.9-26.2,16.3-37.6,25.8c-11.9,9.8-8.8,27.1,4.5,32.9c7.1,3.1,21.7-3.8,27.4-12.7
	c2.4-3.8,5.1-7.4,8.3-11.9c3.1,15.1-1,28.6-11.8,39.8c-9.8,10.2-20,20-30.1,30c-0.3-0.2-1-0.6-1.1-1c-2.1-17.8-11.6-32.5-20.1-47.7
	c-5.5-9.8-6.2-20.3-2.8-30.3c4-11.7,8.5-23.6,15-34c9.8-15.6,27.9-19,45.3-28C987.8,526.5,988.2,538.6,996.5,548.4z M954.2,560.1
	c16.3-5.4,26.7-16.4,24.2-25.9C963.8,534.2,954,544.7,954.2,560.1z M974.5,555.9c-0.7-0.8-1.4-1.5-2.1-2.3
	c-6.6,4.6-13.1,9.2-19.7,13.8c0.7,1,1.4,1.9,2.2,2.9C961.5,565.4,968,560.7,974.5,555.9z"/>
<path d="M887.5,554.3c0,2.6,0,5.1,0,10.5c-2.9-3.6-5.9-5.9-5.5-7.1c1.3-3.8,3.1-8.3,6.2-10.3c2-1.3,7.6,0,9.7,2.1
	c12.1,12.2,13.4,24.6,5.7,42.2c-1.2,2.7-1.9,6.9-0.6,9c1.5,2.4,7,5.3,8.1,4.5c3.1-2.4,6.3-6.3,6.8-10c1.9-13.8,2.6-27.7,4.2-41.5
	c0.7-5.6,2.6-11.1,4.4-18.3c5.5,2.4,9.9,4.4,16.7,7.4c-14,4.1-14.9,14-16.5,23.4c-3.4,19.4,2.3,36.7,13.7,54.6
	c-7.1,5.3-14.3,10.7-22.2,16.6c1-7.7,1.8-13.9,2.6-20.2c-1.2-0.5-2.4-1-3.7-1.5c-6.4,7.4-12.8,14.9-19.3,22.4
	c-5.5-10.3-10.9-20.1-15.7-30.2c-0.8-1.7-0.2-5.1,1-6.7c9.6-11.9,11.1-25.8,10.6-40.2c-0.1-2.6-1.9-5.2-3-7.8
	C889.6,553.8,888.5,554,887.5,554.3z"/>
<path d="M165.5,593.5c-6,1.3-11.9,2.9-18,3.5c-2,0.2-4.3-2.2-6.5-3.4c-1.4-0.8-2.7-2.4-4.1-2.4c-7.3-0.2-14.1,0.8-17.7-8.8
	c-1.1-2.9-10.5-2.8-16.2-3.6c-1.7-0.2-3.6,1.3-5.5,2.1c1.4,11.6,12.8,6.3,17.2,10.1c-2.8,4.2-4.7,9.7-8.5,12
	c-8.2,4.8-0.2,9.6-1.5,15.6c-4.8-0.8-9.6-1.7-15-2.6c-1,2-2.6,5-4.2,8.2c-6.7-9.2-6.7-9.2-18-1.7c-1.4-9,1.6-21.1-14.3-20.4
	c5.8-9.8,16.7-16,16.3-28.4c13.2,4.7,15.9,6,23.1-4.1c4.1,1.2,7.9,3.7,11,3c7.5-1.8,12.7,0.7,19.6,4c8.9,4.3,16.2,13.1,28.1,11.6
	c4.3-0.6,9.3,3.5,14,5.6C165.6,593.6,165.5,593.5,165.5,593.5z"/>
<path d="M219,625.6c1.6,2.3,3.1,4.7,5,7.5c-1.8,2.9-3.8,6.1-7.2,11.4c7.2,1.6,13.4,3,19.4,4.4c-10.1,14.3-10.1,14.3,2.8,27.4
	c-16.6-1-22.6,9.7-26.4,23.8c-5.8-5.7-5.6-19.8-18.7-10.4c-0.3-11.2-8.4-9.2-17.1-8.8c10.3-9.4,9.3-17.6,0.1-24.8
	c4.3-2.5,8.8-4,11.4-7c2.5-2.9,3.2-7.4,4.6-11.2c3,0.4,7.9,2.6,11.8,1.4c3.6-1.1,6.3-5.7,9.3-8.7c1.7-1.6,3.4-3.3,5-4.9
	C219.2,625.6,219,625.6,219,625.6z"/>
<path d="M566.9,430.8c2.7-5.3,6-10.3,8-15.9c4-10.6,10-15.1,18.4-12.8c6.1,1.7,13.9,14.7,12.3,21.2c-0.4,1.8-2.7,3.5-4.5,4.6
	c-6.2,3.7-12.6,7.1-18.9,10.7c-0.7,0.4-1.3,1.1-3.6,3.4c4.4,4,8.1,10.1,12.9,11c3.6,0.7,8.4-5.3,13.9-9.1c-1,5.2-1.8,10.5-3.1,15.7
	c-1.1,4.4-3.1,8.7-4.1,13.1c-1.3,5.6-7.1,7.7-11.7,4c-10.4-8.5-18.2-18.6-18.9-32.8c-0.2-4.5-0.3-8.9-0.5-13.3
	C567,430.6,566.9,430.8,566.9,430.8z M578.2,428c0.8,0.6,1.6,1.2,2.4,1.8c4.1-3.5,8.4-6.7,12.2-10.5c3.5-3.4,3.6-8.1-0.7-10.2
	c-2-1-7.6,1.2-8.9,3.5C580.7,417.2,579.8,422.8,578.2,428z"/>
<path d="M705.2,365.6c1.5,0.7,3,1.3,3.7,1.7c2.9-2.8,5.5-5.5,8.2-8c6.8,7-11.4,11-0.9,17.1c-2.5,5.7-5,11.7-7.5,17.5
	c0-3.5,0-7.5,0-12.6c-4,1.3-7,2.2-9.9,3.1c-1.9,0.6-3.8,1.5-5.8,1.6c-1,0.1-2.1-1.3-3.1-2c1-0.3,2.9-0.3,3-0.9
	c2.4-7.2,16.6-6.1,12.5-17.8C705.4,365.3,705.2,365.6,705.2,365.6z"/>
<path d="M799.7,319.2c-15.3,9.4-26.9,21.9-35.8,38.2c0.9-5.1,0-12.1,3-14.9C776.5,333.2,784.6,321.1,799.7,319.2z"/>
<path d="M750.1,379.9c0-1.7,0-3.5,0-6.6c-3.1,2.6-5.3,4.3-7.4,6.1c-1.9,1.6-3.7,3.3-6.2,4.4c0.3-4-3.7-9,5.3-9.3
	c8.5-0.3,10.5-10.3,4.8-20.5c6-1,10.6-1.4,6.8,6.9c-0.6,1.4-0.6,3.2-0.6,4.8c-0.1,4.7,0,9.5,0,14.2
	C752,379.9,751.1,379.9,750.1,379.9z"/>
<path d="M296,352.4c-12.3-0.8-21.1-13.7-15.1-23.8c2-3.4,9.2-5.9,13.7-5.4c6.6,0.8,7.6,6.6,5.1,13.5c-0.7-3.1-0.5-6.1-1.9-7.3
	c-2.4-2.1-5.9-4.6-8.6-4.3c-2.5,0.3-5.7,3.8-6.5,6.5c-2.4,8,1.8,14.2,13.1,21C295.8,352.6,296,352.4,296,352.4z"/>
<path d="M283.4,531.8c-7.1-6.5-7.1-11.6-2.2-16.6c4.3-4.3,9.4-5.9,14.7-1.5c3.2,2.7,6,5.8,3.2,8.1c-4.7-2.1-8.2-5.2-11.3-4.8
	C280.2,518,280.6,523.8,283.4,531.8z"/>
<path d="M705.4,365.3c-1.4-0.2-2.8-0.4-6.6-0.9c10.8-10.7,20.6-20.3,30.3-30c0.4,0.3,0.8,0.5,1.2,0.8c-1.4,2.1-2.6,4.3-4.2,6.2
	c-6.9,8.1-14,16.1-21,24.1C705.2,365.6,705.4,365.3,705.4,365.3z"/>
<path d="M801.6,437.6c-2.4-7-4.8-14.1-7.4-21.7c3.6,0,5.6,0,7.6,0c0.4,0,0.7,0,1.1-0.1c-0.1,5.4-0.2,10.8-0.4,16.1
	C802.4,433.8,801.9,435.7,801.6,437.6z"/>
<path d="M738.8,321.3c1.8-6.9,3.4-12.9,4.9-18.7c4.4-3.8,9.2-8,13.5-11.8C751.4,300.4,745.3,310.5,738.8,321.3z"/>
<path d="M503.2,367.5c4.6,2.9,9.4,5.6,13.7,8.9c0.6,0.4-0.3,4.5-1.4,5c-2.2,1-5,0.8-8.1-1c1.7-0.7,3.3-1.5,6.6-2.9
	c-4.7-3.2-8.3-5.7-11.9-8.1C502.5,368.7,502.9,368.1,503.2,367.5z"/>
<path d="M286.6,595.6c5.4,0.6,10.7,1.1,15.8,1.7c0.3,0.9,1,3,1.8,5.3c-6.5-0.3-13.8,1.3-17.4-7.2
	C286.8,595.4,286.6,595.6,286.6,595.6z"/>
<path d="M479.5,546.7c0-2.1-0.8-5.7,0.1-6.2c11.4-6.3,4.1-15.2,3.5-23c-0.1-1.4-0.7-2.7-1.1-4.1c11.8,15.6,16.9,40.5,4.1,48.4
	c3.2-8-1.4-12-6.8-15.5C479.3,546.2,479.5,546.7,479.5,546.7z"/>
<path d="M583.9,520.7c-3.6,3.5-7.3,6.9-10.9,10.4c-4.7-0.3-9.6-1.8-13.9-0.7c-14.1,3.3-25.5-2.2-36.4-9.6c-2.7-1.9-4-5.7-5.8-8.5
	c0.9-0.4,3.3-1.5,6.3-2.9c-1.7,8.5,3.5,12.1,9.8,15.2c12.9,6.2,38.4,3.3,47.5-5.6C581.6,519.5,582.8,520.1,583.9,520.7z"/>
<path d="M766.8,511.9c-8.2-2.4-16.3-5.6-24.7-7c-5.8-1-11.8,0.8-12.1,8.8c-2-7.1,1.8-11.2,10.2-12.4
	C751.3,499.6,760.3,502.4,766.8,511.9z"/>
</svg>
