<?xml version="1.0" encoding="utf-8"?>
<!-- Generator: Adobe Illustrator 21.0.0, SVG Export Plug-In . SVG Version: 6.00 Build 0)  -->
<svg version="1.1" id="Layer_3" xmlns="http://www.w3.org/2000/svg" xmlns:xlink="http://www.w3.org/1999/xlink" x="0px" y="0px"
	 viewBox="0 0 1000 1000" style="enable-background:new 0 0 1000 1000;" xml:space="preserve">
<path d="M736.2,319.1c3.1,1,6.2,1.9,9.5,2.9c-4.7,1.2-9.9,2.6-15.5,4.1c-0.5,5.7-0.7,10,7.7,6.3c5.6-2.5,12-3.2,17.9-5.1
	c4.1-1.3,8-3.3,12.3-5.1c5,9,14.7,5.4,22.3,4.8c18.7-1.4,37.3-4.9,56-7.1c5.2-0.6,10.6,0.8,15.9,1.1c5.5,0.3,10.9,0.5,15.8,1.6
	c36.8,26,75.9,47.5,121.8,54.4c0,3.3,0,6.7,0,10c-10.5-2.2-21.2-3.7-31.4-6.9c-7.3-2.3-13-4.2-15.6,6.7c2-10.9-1.5-14.9-11.6-12.5
	c-1.2,0.3-2.8-1.1-4.2-1.8c-14-7.7-28-15.3-42.1-23c-8.5-4.7-17.1-9.3-25.6-13.9c-0.6-0.3-1.4-0.6-1.9-0.4
	c-8.5,3.2-16.6-2.9-25.1-1.1c-9,1.9-18.5,2.5-26.9,5.8c-4.3,1.7-6.9,7.9-10.3,12.1c-15.7-16.5-36.1-8.1-55.1-6.5
	c-8.9,0.8-17.1,17.4-15.7,29.2c2.5-0.2,5-0.3,7.6-0.5c0.1,0.9,0.3,1.7,0.4,2.6c-8,1.7-15.9,3.5-25.2,5.5c4.3-9.9,8.3-19.3,13.6-31.6
	c-22.8,9.7-30.9-5.9-42.1-18.1c4.1-3.3,8-6.6,10.4-8.6c3.7-9.8,6.8-18.3,10-26.8c1.1,0.1,2.1,0.1,3.2,0.2c-1.8,6.5-3.7,13-5.4,19.1
	c6.5-3.5,12.9-6.9,19.3-10.3c2.8,0,5.6,0,9.1,0c-0.7,1.5-1,4.2-2.6,5.6C725.3,318.5,732,318.1,736.2,319.1z M710.1,338.4
	c13.8-1.4,13.8-1.4,15.3-8C716,328.5,716,328.5,710.1,338.4z"/>
<path d="M282,311c6.9,3.6,7.8,4.8,7.9,11.3c0,0.6,0,1.6,0.4,1.8c14.9,10.1,11.2,28.6,19.8,41.5c-0.6,0.6-1.2,1.3-1.8,1.9
	c-4.5-2.9-9-5.9-13.4-8.8c-0.3,0.3-0.5,0.7-0.8,1c2.3,3.6,4.6,7.2,6.9,10.8c-0.9,0.6-1.8,1.1-2.7,1.7c-1.9-4.2-3.1-9.1-6-12.4
	c-2.6-3-7.1-4.3-10.7-6.4c5.8-8.8,4.5-15.5-5.6-22.2c-2.4-1.6-6.1-1.3-9.3-1.5c-0.4,0-1.5,3.1-1.2,3.3c2.2,1.6,4.5,2.9,6.9,4
	c2.1,0.9,4.3,1.5,7,2.3c-7.2,6.5-14.1,12.7-22.9,20.7c-2.1-2.5-5.4-7-9.3-11c-1.9-2-4.8-4-7.4-4.2c-12.9-0.8-25.8-1.5-38.7-1.1
	c-2.6,0.1-6,4.3-7.2,7.4c-0.6,1.6,2.7,4.7,4.6,7.7c-6.5-1.6-13.2-1.6-11.5-11.7c0.4-2.1-3.5-6.6-6.1-7.2
	c-11.5-2.5-23.2-4.3-34.9-5.6c-2.3-0.3-5,2.6-7.2,3.9c-1-5.4-6.3-4.3-10.5-1.9c-19.2,11-38.1,22.7-57.4,33.5
	c-4.4,2.5-11.4,0.9-15.3,3.8c-7.6,5.6-16.5,5.1-24.7,7.6c-9.9,3-20.4,4-30.7,5.9c0-4,0-8,0-12c13.2,3.1,25.2,0.4,36.5-7
	c3.8-2.5,8.5-3.4,12.7-5.2c11.3-4.9,22.7-9.7,33.8-15c6.8-3.2,13-7.6,19.7-11.1c7.8-4.1,11.9-9.9,10-19.1c7.7,1.1,16,4.6,23.1,3
	c18.8-4.3,35.8,3.8,53.7,5c12.4,0.8,24.7,4.9,36.8-1.9c1.7-1,5.5,2.3,8.5,3.2c7.8,2.3,15.7,4.3,26.2,5.4c-1.5-2.5-3.1-4.9-4.4-7.6
	c-1.3-2.7-2.1-5.5-3.4-9c2.8,1,5.1,1.9,7.4,2.7c-5.8-8.8-3.4-13.2,5.6-15.3l-0.3-0.4c0.1,1.2-0.3,3.2,0.4,3.6
	c5.8,3.8,11.7,7.3,17.4,10.8C283.2,315.7,282.6,313.4,282,311z"/>
<path d="M347.4,275.9c17.8-15.1,36-11.3,56.2-6.4c-10.8-14-20.4-25.9-29.4-38.2c-9-12.3-16.1-25.5-17.8-41.4
	c28.8,59.9,74.7,95.4,142.3,93.7c67.8-1.7,114-35.7,135.1-101.6c-2.7,17-7.7,33.2-17.3,47.3c-9.4,13.8-19.9,26.9-31.2,42
	c23.5-1.1,45.1-1.5,58.1,20.7c-13.5-9.3-26.7-17.4-44.7-13.3c-17.3,4-28.4,13.9-36.7,28.9c11.5,6.3,21.9,13.8,33.5,17.7
	c5.1,1.7,12.5-3.8,19-5.7c15.3-4.5,30.7-8.9,46.1-13.3c0.2,0.8,0.5,1.6,0.7,2.4c-18.2,7.1-36.5,14.2-56.1,21.8
	c4.4,4.9,6.9,7.7,9.2,10.3c-10.2,12.8-19.7,5.8-29.5,0.2c-30.8-17.6-63.9-27.4-99.5-26c-49.8,1.9-93,19.5-128.2,55.7
	c-29,29.8-46.4,64.7-51.6,106.3c-4.3,34.1,1.4,66.2,12.8,98.7c-3.2,2.4-6.6,5-10.7,8.1c-5.2-6.7-5.1-18.7-20.2-12.9
	c-10.3,4-15.1,10.4-21,19.9c-0.5-11.1-3.5-18.6-15.6-19.7c21.3-40.6,28.9-81.7,13.2-125.6c-15.6-43.5-44.5-72.9-88.5-87.7
	c16.5,1.1,30.6,7.9,43.6,17c12.7,8.9,25.1,18.3,39.3,28.8c-2-23.9,0.1-44.4,21.4-57.7c-12.9,18.1-21.3,36.9-8.4,58.4
	c5.8,9.7,12.5,18.5,23.7,22.6c8.6-14.3,17.2-27.9,24.7-42c1.4-2.6-0.9-7.4-2-11c-4.8-15.3-9.8-30.5-14.6-45.8c-0.4-1.3,0.3-3,0.4-4
	c7.1,16.9,14.2,34,21.7,52.1c9.7-9,18.1-16.9,26.7-24.7c4.4-3.9,8.9-7.8,13.8-11c6.6-4.2,6.8-8.2-0.2-11.3
	c-16.5-7.2-33.2-13.9-49.9-20.8c3.7,0.3,8.1,0,12,1.2c13.2,4.1,27.3,6.8,38.9,13.6c14.6,8.6,25.5,2.1,37.5-3.6
	c1.8-0.9,3.4-2,5.2-2.9c13.9-6.9,14.2-8.1,5.2-21.3c-13.4-19.7-37.4-28-60-20.8C352.9,275.4,350.9,275.4,347.4,275.9z M414.2,275.8
	c5,11.5,8.5,20.2,12.7,28.5c0.8,1.6,4.7,2.7,7,2.5c5.8-0.7,11.6-2.1,17.2-3.9c2.1-0.7,4.6-2.9,5.2-4.9c0.4-1.4-1.6-4.6-3.2-5.4
	C441.3,287.2,429.2,282.2,414.2,275.8z M264.8,575.9c7-3.7,12-6.7,17.3-9.1c13.6-6.1,13.7-6,9.7-20.5c-0.5-1.9-1-3.9-1.8-5.6
	c-1.3-2.5-3-4.9-4.5-7.3c-2.2,2.1-5.2,3.9-6.5,6.5c-4.4,8.8-8.4,17.8-12.3,26.8C265.8,568.9,265.7,571.5,264.8,575.9z M565.3,285.9
	c-1.2-0.9-2.4-1.9-3.6-2.8c-8.5,3-17.1,5.8-25.4,9.1c-1.3,0.5-1.7,3.2-2.5,4.9c6.9,2.8,15.1,9.1,20.5,7.3
	C559.5,302.6,561.8,292.4,565.3,285.9z M288,457.4c1.9-7.8,6.8-16.4,4.4-21.7c-2.4-5.3-12.2-7.3-20.1-11.4
	C272.9,440.2,280.5,456.1,288,457.4z"/>
<path d="M337.9,715.8c14.9,1.9,29.2,6.1,42.9,4.8c15-1.5,28.7-8.8,36.7-23.7c3.2-6.1,2.3-9.9-3.1-13.1
	c-10.5-6.3-20.9-12.8-31.7-18.3c-2.5-1.3-7.3,0.4-10.3,2c-22.6,12.2-46.9,18-72.1,21.2c58.9-19.4,56.4-17.5,74.8-39.8
	c76.2,50.7,152.4,50.5,229.2,0.1c1.4,1.5,2.8,3.2,4.5,4.7c1.5,1.3,3.2,2.2,5.2,3.6c-1.3,2-2.5,3.7-4.6,6.8
	c15.9,6.9,31.2,13.6,46.6,20.2c-0.3,0.7-0.5,1.5-0.8,2.2c-15.2-5.6-30.4-11.4-45.7-16.7c-2.9-1-7-1.6-9.6-0.4
	c-10.8,4.9-21.4,10.2-31.7,16c-5.2,2.9-5.6,7.3-1.5,12.4c14.6,18,44.5,28.4,67.4,15.3c1-0.6,2.4-0.7,3.8-0.3
	c-13.2,13-29.6,14.6-49.7,12.4c1.9,4.5,2.6,8.5,4.9,10.8c15.1,15.6,27.2,33.1,33.8,54c2.9,9,5.2,18.1,6.6,28.1
	c-19.8-66.3-64.7-103.9-132.3-108.1c-68.2-4.3-114.5,32.3-145.7,94.3c5.5-21,15.2-36.7,26.3-51.8c3.7-5,8.4-9.4,12.1-14.4
	c1.8-2.4,2.5-5.7,3.7-8.6c-3.4-0.7-6.7-1.9-10.1-2.1c-10.6-0.8-21.4-0.3-31.8-2.3C349.3,723.9,343.7,719,337.9,715.8z M419.5,714.7
	c10.2-3.9,18.1-6.5,25.6-10.2c1.1-0.5,1-7.8-0.7-9c-11.9-8.6-19.6-5.2-22.8,9.2C421,706.9,420.6,709.2,419.5,714.7z M559.1,711.5
	c0.9-0.6,1.7-1.2,2.6-1.8c-2.1-5-3-11.8-6.8-14.5c-3-2.2-11.4-1.4-14.1,1.3c-4.1,4,1.4,6.9,5.2,8.7
	C550.4,707.3,554.8,709.4,559.1,711.5z"/>
<path d="M627.5,351.4c4.8,5.4,9.6,10.5,14.1,15.8c4.4,5.3,8.4,10.8,13.5,17.5c17.2-22.1,21.3-47.4,28.6-71.6
	c-2.8,22.4-5.2,45.1-16.6,64.9c-6.8,11.9-6.1,21.4,0.9,31.9c1.6,2.4,2.9,5.2,4.1,7.8c4.7,10.2,9,11.6,16.5,3.2
	c18.1-20.1,26.6-44.1,11-71.6c2.8,4.1,6.8,7.8,8.1,12.3c2.8,10.3,4.1,21,6.2,31.6c0.6,3.2,1.6,6.4,2.8,11.5
	c23.4-25.5,48.8-41.2,81.3-46.9c-15.8,8.8-31.1,15.7-44.7,25.2c-27.1,18.9-43.9,45.8-50.7,77.8c-3.7,17.5-3.1,36-4.6,54
	c-0.2,2.5-0.9,5.1-2,7.3c-4.9,9.8-10.6,19.2-15.1,29.2c-4.3,9.7-2.6,12.1,7.7,15.4c3.4,1.1,6.7,2.4,10.2,3.7
	c7.2-9.2-5.9-14.1-4.3-22.7c3.6-0.2,7.3-0.4,11.2-0.6c4.5,8.9,8.9,17.7,13.4,26.8c-4.2,6.3-8.8,13.1-14,20.8
	c-4-6.8-7.7-13-11.4-19.2c-3.7-6.4-18-6.6-23.3,0.4c-11,14.4-21.4,29.4-32.2,43.9c-5.3,7.1-11.2,13.7-16.8,20.6
	c-0.8-0.5-1.6-1.1-2.4-1.6c2.6-4.2,4.6-8.9,7.8-12.5c38.2-43,53.8-93.5,46.9-150.2c-4.6-37.7-20.3-71.5-45.7-100
	C620,367.4,618.3,360.6,627.5,351.4z M698.8,430.8c-1.1-1.1-2.2-2.1-3.3-3.2c-4.7,3-10.4,5.2-13.6,9.3c-1.6,2.1,1.3,7.7,2.1,11.7
	c2.8-1.4,6.5-2,8-4.2C695.1,440.4,696.7,435.4,698.8,430.8z"/>
<path d="M152,471.2c14.4,40.2,2.4,82.4-29.8,105.4c-3.7,2.6-7.9,4.9-12.2,6.5c-22.7,8.6-41.4-6.2-38.9-31.2
	c2.3-22.9,12.9-41.6,29.3-57.7c11.4-11.2,24-20,39.8-24.4c-12.4-11.2-33.9-11-47.8-0.5c-15.2,11.4-25.9,25.9-32.4,43.7
	c-1,2.8-2.8,5.4-5.2,9.8c1.5-30,35.8-69.6,67.4-65.4c5.8,0.8,12.7,1.3,16.8,4.7c7,5.9,14,4.8,21.2,3.1c17.7-4.2,34.5-1,51.6,3.8
	c4.3,1.2,10.1-3.1,16.7-5.4c-2.8,3.8-4.9,6.7-5.7,7.8c6.2,12.4,13.4,23.4,17.6,35.5c8.9,25.2-11.2,58.5-37.4,61.7
	c-7.3,0.9-15.4-3.8-24.9-6.4c3-2.8,3.6-3.7,3.9-3.6c19.8,7.1,30.2,3.4,38.7-16.3c7.1-16.4,12.5-33.8,3.8-51.5
	c-2.5-5.1-6.5-9.4-9.8-14.1c-1.2,0-2.4,0-3.6,0c-12.2,25.9-24.5,51.8-36.6,77.8c-13.5,28.8-27.8,57-51,79.6
	c-10.6,10.3-23.4,16-37.4,18.9c-12.7,2.6-28.6-6.7-30.9-18.4c-1-5.1,1.6-11.4,3.9-16.5c0.8-1.8,7.9-3.1,8.5-2.2
	c2.7,4.1,5.7,9,5.7,13.7c0,4.8-4.4,9.7,1.3,14.2c6.8,5.4,14.1,5.1,21.5,2.3c13.4-5,22.2-15.5,29-27.3c9.7-16.9,18.9-34.1,26.8-51.9
	c14.7-33,30.4-65.2,57.6-90.1C199.6,466.5,173.3,463.8,152,471.2z M74.9,547.7c0,17.1,4.2,25.2,13.1,29c10.7,4.6,19.3-1,26.8-7.1
	c15.3-12.4,25.2-28.9,31.1-47.4c4.6-14.5,10-29.2,1.3-44.6c-2.6-4.6-4.3-5.3-9-3.7c-19,6.3-33.3,19-45.1,34.4
	C83.4,521,75.2,535.1,74.9,547.7z"/>
<path d="M636.3,405.9c5.9,4.9,15.3,6.3,16.8,17.2c-9.4-1.1-18-2.1-27.5-3.2c-4.9,7.7-10.1,15.9-16.6,26.1c6.5,0.9,11,1.5,15.4,2.2
	c-0.1,0.7-0.2,1.5-0.4,2.2c-0.9-0.2-2.5-0.7-2.7-0.4c-4.3,6.8-8.5,13.6-13,20.9c7.4,2.6,12.5,4.4,17.5,6.2c-0.1,0.6-0.3,1.2-0.4,1.7
	c-3-0.3-6.1-0.6-9.1-1c15.9,9.9,32.1,2.1,48.6,1.5c-0.5,3-0.9,6-1.1,6.9c-16.7,1.1-33,2.1-49.3,3.2c-3.5,9.9,1.7,22.2,14.5,31
	c7.8,5.3,14.7,16.4,26.8,7.5c-1.5,5.6-0.9,13.9-13.2,4.4c0.2,1.4,0.3,2.9,0.5,4.3c4.1,8.7,8.2,17.4,12.3,26.1l0.3,0
	c-2.6-2.7-5.9-5.1-7.8-8.3c-5.3-8.9-10-18.1-14.9-27.2c-0.7,0.4-1.4,0.8-2.2,1.1c-0.3,1.5-0.7,3-1.1,4.7c-5.5-5.2-10.8-10.1-14.9-14
	c-8.5,1-15.9,2-23.4,2.9c-0.6-5.7-0.1-6.8,7-6.8c6.9,0,8.6-2.1,5.1-8.2c-0.6-1.1-1.1-2.4-1.3-3.7c-3.4-17.4-5.4-18.5-22.7-13
	c-4.1,1.3-8.5,1.4-12,1.9c-3.2,5-6.5,10.3-9.8,15.5c-1.4-0.8-2.8-1.5-4.2-2.3c7-14.9,13.9-29.7,20.9-44.6c-0.6-0.3,0.8,0.3,3,1.3
	c-0.2-5.8,7.6-10.3,1-16.8c-0.8-0.8,0.8-4.4,1.8-6.5c3.6-7.8,7.4-15.5,11.2-23.2c1.2-2.4,1.8-5.7,3.8-6.9
	c12.7-8.2,13.5-22.8,20-35.1c0.6,2.3,1,4.3,1.6,6.7c8.1-5.6,11.5,1.7,14.4,6c2.3,3.4,12.4,7.8,1.9,13.7c-0.1,0.1,0.9,2.2,1.4,3.4
	c-4.2,2-8.4,4-12.6,6.1c0.4,0.9,0.8,1.8,1.1,2.7c3.3,0,6.8,0.7,9.7-0.3C634.4,411.2,635.1,407.9,636.3,405.9z M600.6,457.5
	c0.8-0.5,1.6-0.9,2.5-1.4c-2.2-2.9-5.7-8.5-6.5-8.1c-4.2,1.9-7.7,5.3-12.6,8.9c5.4,2.5,8.9,4,12.6,5.7c-1.1,1.9-2.2,3.7-3.2,5.5
	c0.9,0.7,1.8,1.3,2.7,2c1.8-2.5,3.6-5.1,5.1-7.2c-4-2.7-6.7-4.5-9.4-6.3c0.5-0.9,1-1.7,1.5-2.6C595.8,455.1,598.2,456.3,600.6,457.5
	z M578,477.8c0.4,1.1,0.9,2.2,1.3,3.2c3-1,6.1-2,9.1-3c1.7-0.6,3.4-1.1,5.1-1.6c-0.5-1.4-0.6-3.6-1.6-4.1c-1.5-0.8-3.9-1.1-5.3-0.4
	C583.6,473.4,580.9,475.8,578,477.8z"/>
<path d="M459.5,516.5c8.3-6.8,16.6-13.6,25.3-20.8c-14.6-15.5-26.2-32-26.9-53c-0.4-10.9,0.8-23,5.1-32.8c8.5-19.4,34.2-23,50.5-7.9
	c8.1,7.5,14.8,16.7,22.1,25.1c7.5-8.7,15.9-18.4,24.3-28.1c-3,4.8-6,9.7-9.1,14.4c-4.8,7.4-13.3,14.6-13.7,22.3
	c-0.8,15.4,2.7,31.1,4.5,47.2c18.5-43,38.6-85.1,65.4-124c-13.2,9.5-24.8,20.4-36.5,31.2c-3.5,3.2-7.3,6.2-10.9,9.3
	c13.5-13.9,26.5-28.3,40.6-41.5c6.7-6.3,15.5-10.3,24.3-14.4c-31.3,53.9-58.6,109.2-77,169.3c13.3,0.9,20.4-8.4,29.1-16.1
	c-2.7,10.8-11.9,17.9-24.2,20.6c-3,0.6-7.6,2.7-8.1,4.9c-2.6,11-10.4,11.2-20.3,11c1.5-5.5,2.7-10.3,4.1-15.3
	c-7.3-2.7-14.6-4.8-21.3-7.9c-6.5-3-12.6-6.9-18.5-10.2c-9.1,5.9-18.3,12-27.6,18C460.2,517.3,459.9,516.9,459.5,516.5z
	 M488.3,491.3c11.4-15.2,22.8-30.4,34.1-45.6c10.4-13.9,11.2-15.6,0.8-28.6c-17.2-21.6-39.2-22.7-52.5,3.1
	C458.7,443.6,466,473.6,488.3,491.3z M533.3,437.6c-15,19.7-28.9,38-44.3,58.2c11.2,5.6,20.7,10.8,30.5,15.1
	c6.1,2.7,10.7,1.7,12.9-6.4C538.5,483,540.1,461.6,533.3,437.6z"/>
<path d="M770.1,636.4c16.9-18.3,33.3-37,50.8-54.7c6.2-6.3,15.5-8.9,23.6-2.7c8,6.1,8.7,15,5.3,24.2c-2.9,7.7-6,15.4-9.9,25.3
	c5.8-2.3,11.1-2.9,14.1-5.9c6.6-6.6,11.9-14.6,18.1-21.7c6.5-7.5,12.9-15.1,20.2-21.7c6.6-6,14.2-2.6,14.4,6.4
	c0.1,7.7-1.4,15.4-2.2,22.5c7.2-8,14.5-17.1,22.9-25.1c3.2-3.1,8.9-3.6,13.5-5.3c1.4,5.8,5.1,12.2,3.6,17.1
	c-3,10.2-8.8,19.6-13.4,29.4c-2.4,5-5.2,10-7.1,15.2c-0.9,2.5-0.2,5.5-0.2,9.8c18.1-7.7,23.4-24.5,35.5-34.7
	c-7.7,14.5-16.9,27.9-31.1,36.9c-1.5,1-6.2-0.9-7.9-2.7c-6.7-7.1-6.9-15.6-2.8-23.9c5.3-10.6,11.3-20.9,16.8-31.4
	c1.9-3.6,3.3-7.4,5.6-12.8c-13.7,2.5-18.3,12.5-24.2,20c-10.2,12.9-19.4,26.8-27.9,40.9c-5.1,8.4-11,11.8-20.3,9.1
	c11.8-22.5,23.6-45.1,35.5-67.7c-1-1-2-2-3-3c-3.9,2.6-8.6,4.5-11.6,7.9c-8.9,10.1-17.3,20.6-25.5,31.3
	c-5.6,7.3-12.3,11.5-21.7,12.5c-3.4,0.3-6.8,3.2-9.8,5.5c-5.4,4.2-10,9.6-15.8,13.3c-7.8,4.9-16.9,1.3-19.1-7.7
	c-2-8.1-2.5-16.6-3.8-26.2c-6.8,8.2-13,15.7-19.2,23.2C772.4,638.5,771.2,637.4,770.1,636.4z M803.5,639c1,1.9,2.4,7.4,4.7,7.9
	c3.4,0.7,8.6-1.1,11.3-3.7c14.1-12.8,23.3-28.8,26-47.7c0.6-4.5-2.4-10.2-5.4-14.1c-1.1-1.4-8.2-0.5-10.4,1.7
	C814.7,597.8,806.3,616,803.5,639z"/>
<path d="M457.5,642.6c14.9-18.4,29.4-37.2,44.9-55.1c9.5-10.9,23.3-14.4,31-9.6c7.2,4.5,8.6,18.2,3,32.3c-2.1,5.4-4.6,10.7-7.7,17.9
	c5.2-1.4,9.9-1.3,12.3-3.6c7.4-7.1,13.9-15.3,20.9-22.9c6.8-7.5,13.2-15.6,20.9-22.2c7.1-6.1,13.7-2.7,13.9,6.6
	c0.2,7.4-1.3,14.8-1.9,21.9c7.9-8.7,16-18.2,24.9-27c2.4-2.3,7.9-4.5,10.1-3.3c3,1.7,6.3,7.1,5.7,10.1c-2,9.5-5.3,18.8-9.1,27.7
	c-3.6,8.4-8.7,16.2-12.6,24.5c-0.8,1.8-0.2,5.1,1.1,6.7c0.6,0.8,4.6,0.4,6.1-0.8c4.3-3.3,8-7.3,11.9-11.1c0.7,0.7,1.5,1.5,2.2,2.2
	c-6,5.2-11.8,10.7-18.5,14.9c-0.9,0.5-7.9-5.5-9.2-9.4c-4.5-14.4,3-26.3,9.9-38.1c4.3-7.3,8.2-14.8,12.3-22.3
	c-1.2-0.9-2.3-1.7-3.5-2.6c-4.3,3.7-9.4,6.9-12.8,11.3c-12,16.1-23.6,32.4-34.8,49c-5.1,7.5-9.5,14.6-20.8,9.9
	c11.8-22.2,23.6-44.5,35.4-66.8c-1-1.1-2-2.2-3.1-3.2c-4.1,2.7-9.1,4.8-12.3,8.4c-9.1,10.3-16.8,21.9-26.6,31.5
	c-5.5,5.4-14,7.7-21.1,11.4c-3.1,1.6-6.5,2.8-9.1,5c-4.8,4-8.9,8.9-13.9,12.7c-10.1,7.6-20,3.8-22.2-8.8c-1.3-7.4-1.1-15.2-1.7-24.2
	c-8.8,9.7-16.8,18.7-24.9,27.7C458.2,643.3,457.9,642.9,457.5,642.6z M492.4,637.1c1,2.6,1.7,9,3.9,9.6c3.6,0.9,9-1,12.2-3.5
	c4.8-3.9,9.5-8.7,12.2-14.2c5.5-11.1,10.4-22.7,13.8-34.5c1-3.6-2.9-9.9-6.3-13c-1.5-1.4-8.7,0.6-11,3.2
	C503.9,598.9,495.2,615.7,492.4,637.1z"/>
<path d="M375.5,582.6c4.2-2,8.4-3.9,12.6-5.9c1.6,4,4.3,8,4.6,12.1c0.4,5.8-1,11.6-1.7,18.5c4.5-6.1,8.7-11.8,13-17.4
	c2-2.6,3.9-5.8,6.6-7.3c4.7-2.5,10-3.8,15-5.7c1.4,4.7,3.9,9.5,3.9,14.2c0,5.4-2.1,10.9-3.8,18.8c6.7-8.6,12-15.6,17.5-22.3
	c4.8-5.9,10.5-13.7,18.1-9.8c3.6,1.9,5.3,12.7,3.8,18.3c-2.8,10.3-8.5,19.8-13.2,29.5c-2.1,4.4-5,8.6-6.8,13.1
	c-0.9,2.4,0,5.4,0.1,8.2c2.6-0.7,5.3-1.1,7.9-2c1.5-0.5,2.9-1.6,4.3-2.4c0.3,0.3,0.6,0.7,0.9,1c-4.4,2.6-8.7,5.3-13.1,7.9
	c-2.5-5.1-6.4-9.9-7.2-15.3c-1.8-12.8,4.3-23.5,11.3-33.9c4.4-6.4,7.9-13.5,11.7-20.2c-1.3-0.9-2.6-1.8-4-2.7
	c-4.9,5-10.5,9.5-14.6,15.1c-11.4,15.7-22.6,31.6-33,47.9c-4.6,7.2-9.5,10.6-19.3,7.7c6.1-11.4,12.7-22.4,18.1-34
	c5.3-11.4,14-21.7,15.7-34.6c-1.2-0.8-2.4-1.7-3.5-2.5c-5.5,5.6-11.8,10.7-16.3,17c-10.9,15.3-21.3,31-31.3,46.9
	c-4.8,7.6-10.5,10.2-19.6,7c12-22.5,23.9-44.9,35.8-67.3c-0.9-0.9-1.7-1.7-2.6-2.6c-3.4,1.2-6.9,2.3-10.3,3.5
	C376.2,583.3,375.9,582.9,375.5,582.6z"/>
<path d="M429,474c0,0.1-0.8,2.4-0.3,4.4c2.3,8.1-0.5,12.5-8.4,13.2c-3.6,0.3-7.2,1.3-10.6,2c-3.3-1.4-6.7-3.6-10.5-4.4
	c-2.7-0.5-5.8,0.8-8.7,1.3c0-0.1,0.3-1.5,0.5-2.9c-0.5-0.3-1-0.7-1.5-1c-1.7,2.7-3.9,5.3-4.9,8.2c-1.3,3.6-1.1,7.7-2.3,11.3
	c-1.8,5.1-2.9,8.8,4.7,9.1c1.7,0.1,3.3,2.9,4.9,4.5c-0.9,1-1.9,2-2.8,3.1c-5.2-4.3-10.6-8.4-15.3-13.1c-1.5-1.5-2-4.8-1.8-7.3
	c0.2-4.1,1.4-8.2,2-11.7c-4.6-1.4-8.4-2.6-12.2-3.8c0.1-1,0.3-1.9,0.4-2.9c2.9-1.3,5.8-2.6,9.5-4.2c-2-1.7-3.8-3.1-6.8-5.5
	c4.8-0.8,8.4-1.4,14.2-2.3c-1.8-4.9-3.4-9.1-5.5-14.9c7.7-15.5,23.3-25.2,41.1-24c9.8,0.7,24.1,10.6,26,19.5
	c1.3,5.9,0.2,12.4,0.2,18.9c-11.8-1.7-16.6-21.2-31.9-6.3c4.2,4.5,8.2,9.5,12.9,13.5C422.4,479.4,426.8,475.5,429,474z M388.2,461
	c-0.8,0.2-1.6,0.4-2.4,0.5c0.8,17.1,7.7,22.7,20.8,15.9c-5.4-0.6-9.1-9.7-15.5-3.3C390.2,470.2,389.2,465.6,388.2,461z M383.7,456.1
	c5.6,0.8,9.9,1.4,16.9,2.4c-4.5-5.4-7.4-9-10.7-13C387.2,449.9,385.5,452.9,383.7,456.1z"/>
<path d="M370.5,379.9c-0.5-3.2-1-5.8-1.6-9.6c2.1,1.4,4.3,2.1,4.8,3.5c2.8,8,5,16.1,7.7,24.1c0.8,2.4,1.9,5.5,3.8,6.4
	c1.9,0.9,4.9-0.5,8.1-1c-19-32.6-21-40.4-12.1-47.9c5.6,13.2,10.6,26.6,16.7,39.4c7.2,14.8,24,12.1,36.6,20.6
	c0.7-13.4,7.7-13.5,16.3-11.3c-0.2,0.7-0.2,1.4-0.5,1.5c-4,1.7-11.6,3.6-11.5,4.7c0.7,7.5,7.3,4.2,11.7,4.8c1.5,0.2,3.1-0.3,4.8-0.4
	c-1.6,12.7-5.7,15.1-15.6,8c-19.1-13.9-38.4-13.1-58.7-3.3c-2,1-4.6,1.2-7,1.1c-2.1-0.1-4.3-1-8.1-2c2.5,3.3,3.9,5.1,5.3,6.9
	c-0.6,0.8-1.2,1.6-1.8,2.4c-3.2-2.1-6.4-4.2-11.7-7.8c-8.4-0.2-19.9,5.2-31.5,3.4c-0.3-1.9-0.7-3.8-1-5.7c4.2-1.5,8.5-2.8,12.5-4.7
	c5.2-2.4,11.4-4.3,14.6-8.5c1.4-1.8-3.8-8.6-6.6-14.4C352.7,378.8,359.6,375.3,370.5,379.9z"/>
<path d="M773.9,475c-8.3-6.7-13.3,0.5-18.4,4.9c-4.7,4-8.4,9.2-11.7,12.9c10.6,3.9,21.3,7.9,31.9,11.9c-0.5,1.1-1,2.3-1.5,3.4
	c-4.7-2.6-9.3-5.7-14.3-7.7c-4.9-2-10.6-4.8-13.3,0.9c-3.6-0.6-6.5-1-9.5-1.5c-0.1,1-0.3,2-0.4,3c1.8,0.4,3.6,0.7,5.4,1.1
	c-10.8,6.4-21.6,12.8-32.4,19.2c-0.6-0.7-1.1-1.4-1.7-2.1c2.2-2.6,4-5.8,6.7-7.7c6-4.3,11.8-7.5,14.8-15.7c2.3-6.1,9.9-10.6,16-14.7
	c10.5-7.1,18.1-16,20-29.6c2.6,1.6,4.6,3.9,6.1,3.6c14.3-2.3,28.9-5.2,37.5-18.4c5.5-8.4,5.7-18.1,3.5-28.3c-1.9-9-1.8-18.6-1.8-28
	c0-7-5.9-14.2-16.2-16.8c10.4-1.6,19.6-3,31.9-4.8c-5.7-1.8-8.7-2.7-11.7-3.6c0.1-0.8,0.3-1.7,0.4-2.5c3.2,0.8,6.3,1.9,9.5,2.3
	c4.1,0.5,8.4,1.1,12.3,0.2c3.7-0.9,7.5-3.3,10.3-6c2.4-2.3,3.6-6,5.3-9c0.8,0.5,1.6,0.9,2.4,1.4c-1.4,3-2.8,5.9-4.4,9.3
	c12.1,3.2,4.7-7.8,8.1-10.6c2.3,10.5,2.3,10.5-15,18.1c16.5,1.1,31.4,2.1,48.9,3.2c-3.2,2.3-4.9,4.6-6.4,4.4
	c-12.2-1.3-24.4-4.2-36.6-4.5c-12.2-0.3-24.5,1.8-35.7,2.7c0.6,13.7,0.8,26.8,2,39.9c0.3,3.3,3.8,6.3,7.5,8.2c0,3.9,0,7.7,0,12.5
	c4.8-2.4,8-4.1,12.3-6.2c0.3,8.8-15.1,9.5-6.6,19.4c-4.7-1.8-8.2-3.1-11.8-4.4c-0.4,0.9-0.8,1.8-1.2,2.7c1.9,3.3,3.8,6.7,5.7,10
	c-0.3,0.3-0.7,0.6-1,0.9c-2-1.7-4-3.4-6.7-5.8c-1.7,3.2-3.2,5.9-5.1,9.4c3.4,1.4,5.9,2.5,8.4,3.5c-2,4.3-14.8-4.6-10.1,6.3
	c-3.9,4-7.4,7.6-10.9,11.1c-0.3-0.3-0.7-0.6-1-0.9c-0.6-2.4-1.2-4.8-1.8-7.2c-2.5,1.2-5,2.5-7.4,3.6c-0.2-1.3-0.6-3.4-1-5.9
	c-4.6,3.7-13.6,2.5-11.5,12L773.9,475z"/>
<path d="M460.6,517.6c-10.5,4.8-20.6,11.1-31.5,14.1c-19.2,5.2-38,2.7-55.5-7.8c-12.5-7.5-18.4-19.3-20.2-32.6
	c-3.1-23.8,2.2-45.2,21.4-61.9c16.5-14.3,41.6-17,59.5-5c16.5,11.1,21.2,36.5,10.5,57.1c-9.1,17.3-27.8,25.9-44.1,21
	c9.1-3.1,19.4-5.7,29-10c15.9-7.1,18.5-30.2,15.8-42.5c-2.9-12.9-16.2-20.8-32.6-20.8c-36.5-0.1-63.9,37.2-52.7,71.9
	c5.2,16,22.7,27.7,42.5,29c20.5,1.4,39.2-3.7,57-13.6C459.9,516.9,460.2,517.3,460.6,517.6z"/>
<path d="M714.4,649.6c-3.1,0.2-7.2,1.9-9,0.5c-5.7-4.4-9.5-10.5-6.7-18.2c3.4-9.2,7.4-18.2,11.7-28.9c-2.7,1.5-4.3,2.4-7.7,4.3
	c11.6-17.9,22.2-34.2,33.5-51.4c-4.5-0.6-7.2-1-9.9-1.4c12.5,1.5,13.8-8.8,17.3-16.1c3.7-7.7,5.8-17,18.7-12.2
	c-3.7,8.5-7.4,17.1-11.6,27c7.7,0,13.5,0,21.2,0c-2.4,1.2-3,1.9-3.5,1.7c-17.3-3.9-24,6.2-30,20.3c-7.3,17.2-17.1,33.4-25.5,50.1
	c-2.4,4.7-3.9,9.8-5.5,14.8c-1.7,5.3,0.7,8.2,6.2,8.5C713.8,649,714.1,649.3,714.4,649.6z"/>
<path d="M376.5,583.6c-15.5,19.5-30.7,39.2-46.5,58.4c-5.4,6.5-12.7,13.1-21.9,9.8c-11.2-4-14.5-14.4-15.1-25.5
	c-0.2-2.9,0-5.9,0-9.8c-4.7,3.4-8.6,6.3-12.5,9.2c-0.3-0.4-0.6-0.7-1-1.1c10.5-12.2,20.3-25.2,31.7-36.4c5.7-5.6,14.1-9.4,22-11.5
	c8.9-2.3,15.2,3.2,13.3,12c-1.7,7.8-5.9,16.2-11.5,21.8c-5.8,5.8-14.7,8.2-22.1,12.6c-3.3,1.9-8.4,4.8-8.5,7.4
	c-0.2,5.4,0.9,12.1,4.3,15.8c1.7,1.9,11.1,0.4,13.8-2.5c12.4-13.5,23.5-28.1,35.3-42.1c5.6-6.6,11.7-12.8,17.6-19.1
	C375.9,582.9,376.2,583.3,376.5,583.6z M306.3,623.3c8.2-5.5,15-8.4,19.6-13.4c5.6-6,9.9-13.5,13.7-20.9c1.1-2.1-0.4-6.6-2.2-8.7
	c-0.9-1-6.1,0.1-7.9,1.8C318.7,592.7,310.2,604.9,306.3,623.3z"/>
<path d="M713.5,648.7c16.1-20.6,32.3-41.1,48.1-61.9c5.7-7.4,11.1-14,22.6-9.3c-8.6,16.6-17.2,33.1-25.7,49.5
	c-0.8,1.5-1.8,2.9-2.1,4.5c-0.9,5-1.6,10.1-2.4,15.1c4.4-0.7,8.7-1.3,13.1-2c0.3,0.5,0.6,1,0.9,1.4c-5.1,1.8-10.4,5.6-15.3,5
	c-6.3-0.7-10.5-12.4-8.1-20.1c2.5-7.9,5.9-15.6,8-21c-11.7,12.2-25,25.8-38.2,39.5C714.1,649.3,713.8,649,713.5,648.7z"/>
<path d="M258.4,615.5c-7,10.7-13.4,21.9-21.4,31.9c-2.7,3.3-9.4,3.4-17,5.8c11.6-21.5,21.6-39.9,31.3-58.6c2.1-4,2.4-8.8,3.6-13.3
	c-4.3,2.2-9.6,3.4-12.6,6.7c-8.3,9.1-15.6,19-23.3,28.6c-0.9-0.7-1.7-1.4-2.6-2.1c10-11.9,19.7-24,30.1-35.5c1.9-2.1,8-3.2,9.7-1.7
	c2.9,2.3,5.5,7.3,5.2,10.8c-0.9,8.1-3.7,15.9-5.6,23.8c-0.2,0.7,1,1.8,1.6,2.7C257.8,615,258.1,615.2,258.4,615.5z"/>
<path d="M230,698.4c-11.2-7.9-20.5-14.5-29.4-20.7c3.7-0.5,8.2-1,12.6-1.6c1-3.9,2-7.5,2.9-11.2c0.8,0,1.6,0.1,2.3,0.1
	c0.9,2.9,1.8,5.8,2.9,9.4c8.2,0.3,17.8,8,21.5-8.3c2-8.6,9.5-15.9,16.9-23.5c-0.9,5.3-1.8,10.7-2.8,16c0,0.3-0.4,0.5-0.7,0.7
	c-12.2,14.5-12.2,14.5-0.3,27c-2.9,1.9-5.8,3.8-10.6,6.9c4.8,1.2,7,1.7,9.3,2.2c-9.6,0.2-8.9,6.1-7.8,12.7c-1-1.8-2.3-3.5-3-5.5
	c-2.7-7.5-7.8-7.2-12.9-3.5c-6.1,4.3-11.1,10.1-17.4,14c-3.5,2.2-8.5,2-14.7,3.2C209.8,710.3,219.1,704.8,230,698.4z M226.3,678.8
	c-2.4,7.7,0,11.8,6,11.3c3.6-0.3,6.9-3.8,12.4-7.1C236.2,681.1,231.3,680,226.3,678.8z"/>
<path d="M554.7,591.7c-3.4-1.9-7.2-3.2-10.1-5.6c-11-9.1-6.8-22.2-8.1-33.7c-0.5-4.1-1-8.1-1.4-11.4c2.4-1.1,6.1-1.6,6.7-3.2
	c3.9-10.5,9.1-18.9,22.7-16.8c0,1.3,0,3.5,0,7.1c-1.9-2.2-3-3.4-4.9-5.5c-1.4,4-2.6,7.3-4.1,11.9c7.3,0.6,13.2,1.1,19.1,1.6
	c0,1-0.1,1.9-0.1,2.9c-5.1-0.3-10.2-0.6-16.7-1c0.6,3,1.2,6,1.5,7.5c-2.6,1.3-4.8,2.4-7,3.5c3.2,2.8,6.4,5.6,8.8,7.7
	c-1.1,0.1-4,0.3-5.9,0.4c-2.9,4.7-5.4,8.6-8,12.8c4.3,1.6,7.4,2.8,10.5,4c0,0.9,0,1.7,0,2.6c-3.4,0.5-6.8,1-10.3,1.6
	c-1.1,6.6,0.7,11.2,9.8,10.2C556.4,589.4,555.6,590.5,554.7,591.7z"/>
<path d="M674,646.6c-5.4,1.6-12.1,6-16.1,4.2c-7.3-3.2-9.4-11.6-7.3-19.6c1.7-6.6,3.9-13.4,7.3-19.3c5.2-8.8,2.9-20,11.7-28.2
	c6-5.6,10.7-8.9,20.3-6.7c-6.2,12-12.2,23.4-18,35c-4.1,8.2-8.3,16.4-11.8,24.9c-1.2,2.9-0.6,6.6-0.9,10c3.6-0.8,7.1-1.6,10.7-2.4
	c0.9-0.2,1.7-0.6,2.6-0.9C673,644.6,673.5,645.6,674,646.6z"/>
<path d="M779.5,669.3c-3.2,10,6,6.1,10.4,8.3c-0.2,6-4.3,7.3-8.9,7.9c-0.9,0.1-2.4-0.1-2.7,0.3c-6.6,11.4-19.6,8.5-29,13.4
	c-1.1,0.6-1.4,2.6-1.5,2.8c-3.1-2.1-6.3-4.4-9.4-6.5c1.2-0.3,3.2-0.8,5.7-1.5c-1.2-3.2-2.2-6.1-3.3-9c-1.6,1-3,1.9-4.4,2.7
	c-0.4-0.5-0.7-1.1-1.1-1.6c3.4-2.3,6.7-4.6,11.9-8.1c-3.5-5.7-7.3-11.8-11-18.1c-3.6-6-6-12.2-3.9-18.8c0.9-0.1,1.8-0.3,2.7-0.4
	c4.4,7.7,8.9,15.5,13.2,23.3c8,14.5,14.7,16,27.7,6.1C776.5,669.5,777.9,669.7,779.5,669.3z M769.6,681.7c-0.9-1-1.8-2-2.8-3
	c-5.1,1.1-10.2,2.2-15.3,3.4c-0.2,1.3-0.5,2.5-0.7,3.8c4.1,1.4,8.3,4,12.3,3.7C765.5,689.4,767.5,684.5,769.6,681.7z"/>
<path d="M266.2,303.3c1.4-2.1,2.9-4.2,4.3-6.2c-0.7-0.1-1.4-0.2-2.1-0.3c0.4-3.6,0.7-7.3,1.2-12.1c6.4,6.4,6.4,6.4,22.5-2.2
	c-1.2-2.8-2.4-5.7-3.6-8.5c9.6,10.4,21.1,8,32.6,5.4c0.5-7.6,0.5-7.6-15.1-15.9c0.4-0.9,0.8-1.8,1.2-2.8c5.5,2.3,11.3,4.1,16.3,7.1
	c8.5,5,12.9,14.4,20.7,20.2c2.8,2.1,6.9,2.5,12.8,4.5c2.1,5.8,5.3,14.6,8.4,23.4c-0.5,0.4-1.1,0.7-1.6,1.1c-1.9-1.6-5-2.9-5.5-4.8
	c-3.2-12.3-14.6-17.2-22.3-25.3c-1.4-1.4-5.1-2.9-6.1-2.1c-7.7,5.7-15.4,0.5-22.8,0c-9.2-0.7-16.1,3.1-22.2,8.2
	c-2.4,2-1.9,7.5-2.6,11.4c-0.3,1.8-0.4,3.6-0.6,5.4c-1.5-3.8-2.9-7.5-4.6-11.6c-4.2,1.8-7.8,3.4-11.5,5L266.2,303.3z"/>
<path d="M182,456.6c0.7-2.5,1.6-5.6,2.6-8.8c-3-0.6-5.9-1.2-9-1.8c0.6-1.8,1.9-5.8,3.9-11.7c-4.3,1.5-6.2,2.2-7.7,2.7
	c-3.5-4.5-7-8.9-12.2-15.7c3.9,1.7,5.2,2.7,6.6,2.7c2.3,0,6.3-0.1,6.6-1c2.8-8.8,6.8-17.9,6.7-26.8c-0.1-10.5-0.6-20.3,6.1-29
	c0.5,0.2,1.6,0.5,1.6,0.7c-0.7,12.7,0.6,26.1-2.8,38.1c-5.2,18.3-1.1,33.2,13.3,43.4c8,5.7,19.8,6.2,30.1,9.9
	C211.8,458.3,196,457.4,182,456.6z"/>
<path d="M555.2,670.3c-9.6,4.9-19.4,3.2-29.8-0.9c-6.9-2.7-14.9-3-22.5-3.6c-7.9-0.6-15.8-0.8-23.7-0.2c-7.6,0.6-16.2,0.4-22.4,4
	c-9.4,5.3-18.4,3.4-27.6,2.3c-3.1-0.4-5.9-3.1-7.1-3.7c10-1,22.3,0.6,31.2-4c10.2-5.3,19.8-4,29.7-4.8c9.4-0.8,18.8-0.1,28.3-0.1
	c2,0,4.1-0.4,6,0.1C529.9,662.9,542.6,666.7,555.2,670.3z"/>
<path d="M712.5,297.4c-1.1-0.1-2.1-0.1-3.2-0.2c-6.3-4-12.2-9.9-19-11.6c-6.7-1.6-14.5,1-21.8,1.8c-1.2,0.1-2.7,0.3-3.5-0.3
	c-6.6-5.2-11.5-2.1-15.9,3.4c-2.4-5.8,3.6-13.5,15.2-19.8c-1-4.1-2-8.4-3.1-12.7c0.5-0.2,1-0.4,1.5-0.6c0.9,3,1.8,5.9,3.2,10.6
	c4.6-3.3,8.4-6.1,11.9-8.6c2.1,1.7,4.1,3.3,6.1,4.9c-15.3,4.4-16.7,5.6-17.6,15c12.2,2,24.6,6.2,35.2-5.5c-1.2,2.7-2.5,5.5-3.7,8.2
	c5.7,3.4,11,6.6,17.1,10.2c1.3-1.5,3.7-4,4.5-4.9c1.8,1,4.1,2.4,6.5,3.8c-2,2.7-4,5.3-5.9,8C717.5,298.6,715,298,712.5,297.4z"/>
<path d="M427.6,557c1.7-3.7,3.1-6.7,4.5-9.6c-0.8-0.5-1.6-1.1-2.4-1.6c-2.4,1-4.8,1.9-8,3.2c1.8-3.7,2.4-7.3,4.6-9
	c3.2-2.5,7.3-4.4,11.3-4.8c1.5-0.2,4.5,4.4,5,7.2c2.1,10.8,4.2,21.8,4.9,32.8c0.2,3.2-4.5,6.6-6.9,9.8c-3.5-4.3-6.2-7.7-9.2-11.4
	C435.8,568.2,433.8,559.3,427.6,557z"/>
<path d="M831.8,468.4c-3.6-4.1-6.2-7.2-9.4-10.9c0.2-0.4,1.1-2,2.1-3.8c8.8,3.9,16.7,10.4,27.7,5.3c3.1-1.5,8.2,1.4,12.4,2.2
	c-0.2,1.3-0.4,2.5-0.7,3.8c-2.9-0.4-5.7-0.8-8.9-1.2c-8.9,11.9,4.5,16.4,8.6,22.8c-4.1,1.6-8,3-11.9,4.5c0.1,0.9,0.1,1.8,0.2,2.6
	c3.5,0.7,6.9,1.3,11.3,2.2c-5.5,1.4-10.1,2.6-13.5,3.5c-0.5-4.9,0.3-11.5-2.3-16.4c-1.6-2.9-8.2-3.2-13.5-6.7c4-0.3,8-0.6,11.9-0.9
	C844.4,467.2,843.2,466.6,831.8,468.4z"/>
<path d="M473.5,498.4c-1.9-1.1-3.7-2.3-5.6-3.3c-1.7-0.9-3.6-1.4-8.1-3.1c2.4,2.6,3,3.3,2.6,2.9c-4.5,7.4-8.5,14.2-12.8,21.3
	c-5.8-6.8,9.9-15.1-2.2-19.9c11.8-8.5-0.1-23,9.1-32.9c6.5,10.8,13.2,21.9,19.9,33C475.4,497,474.4,497.7,473.5,498.4z"/>
<path d="M257.5,614.7c7.6-9.8,15.3-19.4,18.9-31.7c0.8-2.6,5-4.8,8.2-6c1.9-0.7,5.1,0.3,6.8,1.6c0.8,0.6,0,4.5-1.2,6.1
	c-2.4,3.3-5.9,5.9-8.4,9.2c-4.6,6.2-10,12.3-13,19.3c-3.6,8.5,1.5,13.3,10.7,11.4c0.3,0.4,0.6,0.7,1,1.1c-4,0.5-10.6,2.7-11.5,1.3
	c-2.9-4.7-3.6-10.6-5.2-16.1c-1,0.9-3.2,2.8-5.4,4.7C258.1,615.2,257.8,615,257.5,614.7z"/>
<path d="M268.2,511.1c-6.3-1.7-11.2-3-16.1-4.4c-0.7-1-1.3-1.9-2-2.9c2.7-0.3,5.3-0.7,8-1c-1-1.5-2-3-3-4.4c-3,1-5.9,2-9.5,3.3
	c-0.4-0.9-1.3-3.2-2.4-5.8c2.4-0.5,4.3-0.9,6.5-1.4c-3.8-4.8-7.9-9.1-11-14c-2.5-3.9-13.1-3.9-6.7-12.8
	C244.4,481.7,260.7,492,268.2,511.1z"/>
<path d="M603.4,307.6c5.6,2.2,8.4,3.2,11.1,4.3c-2.2,1.7-4.2,3.6-6.5,5.2c-1.3,0.9-2.9,1.2-4.5,1.6c-2.6,0.7-5.3,1.3-7.9,1.9
	c0.1-2.7,0.5-5.5,0.3-8.2c-0.2-3.4-0.3-7-1.5-10.1c-2-5-4.9-9.6-7.5-14.3c2.9-0.7,5.7-1.4,6.7-1.6c2.7,6.6,5.2,12.9,7.7,19
	c8.2-3.4,14.7-6.2,21.2-8.9c0.2,0.5,0.5,0.9,0.7,1.4C617,300.9,610.7,304,603.4,307.6z"/>
<path d="M411.2,513c6.8-3.5,13.5-7.2,20.5-10.1c1.3-0.5,5.1,2.1,5.9,4c3.6,8.8-2,16.6-11.5,16.6c-1.9,0-3.8-0.5-6.3-0.8
	c0.1-2.7,0.3-5.2,0.4-8.3c-3.1,0-5.8,0-8.5,0C411.6,514,411.4,513.5,411.2,513z"/>
<path d="M399.5,286.1c-4.8,9-9.7,18.2-15.8,29.6c1.6,0.6,4.6,1.8,7.7,3.1c-0.6,0.6-1.2,1.2-1.8,1.8c-4.8-0.3-9.6-0.5-15.6-0.8
	c-2.8-6.4-2.8-6.4,5-9.7c5.6-2.4,12.5-18.6,10.7-25.1C393.2,285.4,396.8,285.8,399.5,286.1z"/>
<path d="M844.3,555.8c0-6.7,0-11.1,0-15.6c0.5,0,0.9,0,1.4,0c0,4.6,0,9.1,0,14c4.8,0.4,9.2,0.8,13.6,1.2c0,0.8,0.1,1.7,0.1,2.5
	c-4.4,0.2-9,1.4-13.2,0.5c-14.3-2.7-27.2-11.6-42.6-9.8c-1,0.1-2.2-1-4.7-2.2C816.3,541,829.8,549.3,844.3,555.8z"/>
<path d="M285,406c7.3-2.9,6.5-7.3,1.9-11.8c-4-3.9-8.7-7.1-12.9-10.7c-1.7-1.5-3.1-3.5-3.7-6.1c14.2,5.8,24.8,15.5,35.1,29
	c-8.1,0.8-14,1.5-19.8,2.1C285.4,407.6,285.2,406.8,285,406z"/>
<path d="M676.1,368.3c2.4-7.9,4.8-15.7,8.1-26.3c5.3,5.7,8.9,9.7,13.1,14.2c-7.3,5.1-13.4,9.4-19.5,13.7
	C677.3,369.3,676.7,368.8,676.1,368.3z"/>
<path d="M690.8,535.1c4.7-4.2,7.9-7.1,11.1-9.9c2,2.3,6.3,5.6,5.7,6.8c-1.9,4.3-5.3,7.8-8.2,11.6
	C697.1,541.4,694.9,539.2,690.8,535.1z"/>
<path d="M667.1,355.6c-4,8.4-7.2,15-11.2,23.4c-4.4-5.6-7.6-9.6-10.7-13.5C652.7,362,658.9,359.2,667.1,355.6z"/>
<path d="M785.7,534.2c4.7-3.8,7.8-6.8,11.4-8.6c0.7-0.3,6,5.6,5.4,6.7c-2.1,4.1-5.8,7.5-8.9,11.1
	C791.6,541.1,789.6,538.7,785.7,534.2z"/>
<path d="M702.2,389.2c-7.3,17.6-19.2,25.8-29.5,21.3C682.1,403.6,691.3,397,702.2,389.2z"/>
<path d="M785.7,570.3c2.3-18.1-10.1-23.8-26.6-25.9c0.6-1.2,1.3-2.3,1.9-3.5c9.9,2.7,19.9,5.3,27.8,7.4
	C787.9,555.1,786.8,562.7,785.7,570.3z"/>
<path d="M796.6,473.6c1.4,1.2,2.7,3.3,4.1,3.4c5.6,0.4,11.2,0.2,16.9,0.8c-12.2,3.6-27.8-4.7-34.9,12.1c-3.6-6.1-6.1-10.5-8.7-14.9
	c0,0-0.1,0.2-0.1,0.2c7.2-1.1,15.2,4.6,21.7-2.5C795.9,473,796.2,473.3,796.6,473.6z"/>
<path d="M655.3,562.6c4.8,10.6,2.6,14.2-14.4,23.7c-3.6-6.9-0.5-10.3,5.7-13.7c3.7-2,6-6.6,8.9-10
	C655.6,562.6,655.3,562.6,655.3,562.6z"/>
<path d="M173.4,634.4c12.7-6.6,25.4-13.2,38.1-19.8c0.4,1.3,1,3.4,1.9,6.7c-12.7,5-25.7,10-38.7,15.1
	C174.3,635.8,173.8,635.1,173.4,634.4z"/>
<path d="M343.4,534.6c-5.6,1.7-9.6,2.9-13.7,4.2c-0.4-1-0.7-2-1.1-3c8.1-3,16.2-6,26.3-9.8c-5.7,9.7-10.4,17.7-15.9,27.2
	C340.6,546.5,341.9,541.3,343.4,534.6z"/>
<path d="M170,362.6c-20.6,1-41.2,2-61.7,3.1c0-0.8,0-1.6,0-2.4C129,363.8,149.5,357.4,170,362.6z"/>
<path d="M256.9,376c-16.9,6.1-27.4-5.6-40.4-7.1c0.3-1.1,0.5-2.2,0.8-3.3C229.8,368.8,242.4,372.2,256.9,376z"/>
<path d="M772.7,703.9c10.1,8.9,27.5,6.9,30.6,26.2c-6.7-7.2-11.7-12.5-16.8-17.9c-0.8,0.5-1.6,1.1-2.4,1.6c0.5,3.7,0.9,7.3,1.3,10.4
	C781.6,718,777.6,711.6,772.7,703.9z"/>
<path d="M476.4,612.5c-5.9,5.7-10.8,10.4-15.7,15.2c-0.9-0.8-1.7-1.6-2.6-2.3c2.9-5.9,5.8-11.9,8.9-18.2
	C469.9,608.8,472.4,610.2,476.4,612.5z"/>
<path d="M623.5,310.8c2.4-6.5,4.7-13.1,7.3-20.1c2.7,1.3,4.9,2.3,8.5,4c-4.1,6.3-8,12.1-11.9,18C626,312.1,624.8,311.4,623.5,310.8z
	"/>
<path d="M338,558.4c-0.6,2.1-1.2,4.1-2.1,7.2c2.3-0.7,3.9-1.2,5.5-1.7c0,0.4,0.4,1.1,0.1,1.4c-4.4,6.9-11.1,8-19.4,7.4
	c-0.8-2.7-1.7-5.7-3.2-10.8C328,567.6,334.3,567.7,338,558.4z"/>
<path d="M553.9,624.4c7.3-4.8,8.3-15.6,19.3-15.4C568.8,623.3,566.4,625.4,553.9,624.4z"/>
<path d="M344.7,488.4c-10.3-3.4-20.5-6.8-30.8-10.2c0.3-0.9,0.6-1.7,1-2.6c10.4,2.7,20.9,5.5,31.3,8.2
	C345.7,485.3,345.2,486.8,344.7,488.4z"/>
<path d="M118.8,399.1c6.9,7.3,8.5,14.6,0,22.8c-1.7-4.3-3.3-8.3-4.2-10.7C116,407,117.3,403.5,118.8,399.1z"/>
<path d="M692.7,610.8c-3.4,2.6-6.9,5.3-12.2,9.4c-0.7-4.6-1.2-8.2-1.7-11.8c4.4,0,8.9,0,13.3,0C692.3,609.2,692.5,610,692.7,610.8z"
	/>
<path d="M907.1,287.7c-2.1,10.7-4.9,20.2-15.4,25c4.2-6.7,8.3-13.3,12.5-20c-2.7-2-4.6-3.4-6.5-4.7c0.2-0.5,0.4-1,0.5-1.6
	C901,286.8,903.8,287.2,907.1,287.7z"/>
<path d="M237.8,268.5c3.1,7.5,5.2,12.4,6.5,15.5c3.6,0.8,6.6,1.4,9.5,2c-0.2,1.2-0.4,2.4-0.6,3.6c-5.3-0.4-10.5-0.9-15.8-1.3
	C248.6,281,235.7,276.9,237.8,268.5z"/>
<path d="M700.5,612.8c-7.5,9.5-15,19-22.5,28.5c-0.7-0.6-1.4-1.2-2.2-1.7c7.4-9.6,14.8-19.1,22.2-28.7
	C698.8,611.5,699.6,612.2,700.5,612.8z"/>
<path d="M209.8,550.2c-8.8-0.5-17.7-0.9-26.5-1.4C192.1,542.1,200.9,545.4,209.8,550.2z"/>
<path d="M575.9,686.4c9.6,3.8,19.2,7.5,29.5,11.5c-3.2,1.3-5.8,2.3-5.9,2.4c-9.3-4.4-16.9-8-24.5-11.6
	C575.3,688,575.6,687.2,575.9,686.4z"/>
<path d="M635.2,631.8c7-9.7,14.1-19.4,21.1-29.1c0.8,0.5,1.5,1.1,2.3,1.6c-7,9.7-14.1,19.4-21.1,29.1
	C636.8,632.9,636,632.4,635.2,631.8z"/>
<path d="M729.5,613.5c-1.3,5.7-2.5,10.8-3.7,15.9c-1.5-0.3-3.1-0.6-4.6-0.9c1-5,1.8-10.1,3.3-14.9
	C724.7,612.9,728.6,613.5,729.5,613.5z"/>
<path d="M735.9,319.3c2.4-8.1,4.7-16.3,7.2-24.4c0.3-0.8,1.9-1.2,2.8-1.8C745,302.8,744.9,312.8,735.9,319.3z"/>
<path d="M740.8,607.9c-3.4-2.3-6.8-4.6-10.7-7.2c1.8-2.3,3.4-4.1,6.2-7.7c2.8,5,5.1,9,7.4,13.1C742.7,606.7,741.7,607.3,740.8,607.9
	z"/>
<path d="M677.8,649.3c1.6,9.3,3.3,18.6,4.9,27.9c-0.8,0.1-1.6,0.3-2.5,0.4c-2.1-9.3-4.1-18.5-6.2-27.8
	C675.2,649.6,676.5,649.4,677.8,649.3z"/>
<path d="M689.9,548c-0.6,3.2-1.1,6.5-1.7,9.8c2.5,1.5,5.3,3.2,10,5.9C683,563.4,681.5,560.6,689.9,548z"/>
<path d="M311,641.9c3.3-6.4,6.7-12.8,10-19.2c1.3,0.7,2.7,1.4,4,2.1c-3.5,6.4-6.9,12.9-10.4,19.3C313.4,643.4,312.2,642.7,311,641.9
	z"/>
<path d="M362.7,609.8c3.7-5.2,6.9-9.7,10.4-14.6C375.9,604.1,372,610.2,362.7,609.8z"/>
<path d="M492.7,408.3c5.2,1.4,8.8,3.3,12.3,3.3c11.2-0.1,19.5,10.9,16.1,22c-2.9-0.6-5.8-1.1-8.8-1.7c0.9,4.1,1.8,8.1,2.8,13.1
	c-3.1-0.3-6.7-0.7-10-1.1c-2.1,2.4-4.2,5-6.6,7.3c-2.3,2.1-5,3.9-7.9,6.1c-6.4-5-12.9-9.9-20.2-15.5
	C473.1,427.3,472.6,409.7,492.7,408.3z"/>
<path d="M498.7,462c-0.3-0.2,1,0.9,2.7,2.3c-1.5,0.8-3.6,1.3-4.6,2.6c-0.7,1,0.1,3,0.3,5.9c-6.5-0.4-12.7-0.9-19-1.3
	c-0.1-1.1-0.2-2.2-0.3-3.2C484.5,466.2,491.1,464.3,498.7,462z"/>
<path d="M571.7,413.1c-6.3,4.4-12.6,8.8-18.8,13.3c1.6-13.3,7.7-18.1,16.8-16.3C570.4,411,571,412.1,571.7,413.1z"/>
<path d="M543.9,458.8c0.4-5.6,0.7-11.2,1.1-16.6c2.9-0.5,6.2-1,10.3-1.7c-2.8,6-5.7,12.4-8.7,18.7
	C545.7,459.1,544.8,459,543.9,458.8z"/>
<path d="M533.1,460.5c-1.7,13.6-3.4,27.2-5.1,41.3c-6.7-2.1-12-9.7-20.1-3.1c-1.5,1.2-6.8-2.2-13.5-4.7
	c12.6-13.2,23.4-24.5,34.2-35.8C530.2,458.9,531.7,459.7,533.1,460.5z"/>
<path d="M527.8,588.7c4.8,20.8-9,42.5-30.7,44.9c4.1-9,2.2-19.6,13.1-24.8c2.3-1.1,2.8-5.8,4.9-10.5
	C517.9,596.1,522.7,592.6,527.8,588.7z"/>
</svg>
