<?xml version="1.0" encoding="utf-8"?>
<!-- Generator: Adobe Illustrator 21.0.0, SVG Export Plug-In . SVG Version: 6.00 Build 0)  -->
<svg version="1.1" id="Layer_3" xmlns="http://www.w3.org/2000/svg" xmlns:xlink="http://www.w3.org/1999/xlink" x="0px" y="0px"
	 viewBox="0 0 1000 1000" style="enable-background:new 0 0 1000 1000;" xml:space="preserve">
<path d="M774,291.2c-0.3-1.3-0.1-3.2-0.9-3.9c-8.4-7.1-2.1-13.9,2.1-18.3c3.4-3.5,11-5.6,15.9-4.5c7.5,1.7,11.1,8.4,11.3,16.6
	c0.6,20.7-4.5,39.3-19.2,54.4c-4.6,4.7-9.9,7.1-16.8,8c-12.8,1.7-25.4,5.1-38.1,8.1c-6.3,1.5-12.9,2.7-18.7,5.5
	c-8.4,4.1-11.5,12.9-8.2,20.4c2.5,5.7,9.6,10.9,15.8,13.1c12.8,4.7,26.9,5.9,39.4,11c14,5.7,26.1,14.2,31.9,30.3
	c4.6,12.8-1.5,21.6-7,30.6c-4.2,6.9-11.1,12.3-17.4,17.7c-3.5,2.9-8.2,4.6-12.6,6.2c-6.9,2.5-14,4.3-21,6.6
	c-6.3,2-12.6,4.1-18.7,6.4c-6.4,2.4-12.6,5.1-18.8,7.9c-20.3,9.1-40.6,18.1-60.8,27.4c-6.9,3.2-13.4,7.2-20,11.1
	c-2.7,1.6-5,3.9-8.7,6.8c10.1,4.7,18,8.3,26,11.9c0.7,0.3,1.6,0.5,2.4,0.4c12-2.3,24.1-4.1,35.9-7c17.3-4.2,34.6-9.3,51.4,1.1
	c11.8,7.3,23.4,14.7,34.8,22.6c5.1,3.5,7,3,10.5-2.3c3.7-5.6,10-9.7,15-14.5c2.7-2.6,7.2-5.2,7.4-8c0.9-13.9,12.3-20.1,20.3-28.3
	c4.7-4.9,7.4-9.5,7.8-15.8c0.1-1.5,0.2-3.6-0.7-4.6c-6.4-7-5.7-15.9-7.1-24.3c-1.6-9.8,3.3-18.9,14.7-23.9c-1.2,2.8-1.6,6.5-3.6,8.4
	c-11.5,11-0.4,21.3,1.1,32.1c1.8-2.5,3.3-5.3,5.6-7.3c1.2-1,3.7-0.3,5.6-0.4c-0.4,1.6-0.3,4-1.3,4.6c-7.4,4.7-8.4,11.6-7.4,19.4
	c0.7,6.2-1.2,11.2-6.3,14.8c-14.5,10-16.7,26.5-21.7,41.5c-0.5,1.5,0.5,4.3,1.8,5.5c0.9,0.9,4.1,0.9,5.1,0
	c15.9-14.5,35.2-15.3,55-13.6c13.6,1.2,22.5-5,28.9-16.6c4.3-7.9,11.4-13.4,19.9-16.5c2.6-0.9,5.9-0.1,8.8-0.1
	c0.2,0.9,0.5,1.9,0.7,2.8c-3.7,2-7.4,3.9-11,6c-2.5,1.4-5.3,2.7-7.3,4.7c-6.1,6.3-11.9,12.9-17.7,19.4c-1.2,1.3-1.7,3.3-2.5,4.9
	c1.9,0.6,3.9,1.7,5.7,1.6c14.2-0.7,26.2-7.5,38.4-14c7-3.7,15.3-5.2,23.1-7.1c2.1-0.5,4.7,1.1,7,1.8c-0.1,0.8-0.1,1.6-0.2,2.5
	c-5.5,0.7-11.1,1.5-16.6,2.2c-0.1,0.7-0.1,1.5-0.2,2.2c6.3,2.7,12.6,5.4,18.9,8.1c-0.2,1-0.4,1.9-0.7,2.9c-3.6-0.7-7.4-0.7-10.6-2.1
	c-4.6-2-8.6-4.4-13,0.4c-1.1,1.2-3.9,0.9-5.9,1.1c-3.8,0.3-7.8-0.2-11.5,0.8c-8.8,2.4-17.3,5.8-26.2,8.2c-2.7,0.7-6.2-0.3-9.1-1.2
	c-14.1-4.4-28.9-11-42.7-2.4c-9.5,5.9-17.5,15.1-24.5,24.1c-4.6,6-6.5,14.2-9.2,21.6c-1,2.7-0.5,5.8-0.8,10.4
	c14.5-6.7,21.6-23.5,37.9-21.8c0.5,1,1.1,2,1.6,3c-4.8,2.6-9.6,5.3-15.3,8.4c6.6,7.1,13.1,3,18.6,0.6c8.7-3.7,13.3-3.1,20.4,6.1
	c-3.3,0.2-6.4,1.3-7.9,0.2c-7.2-5-12.2-0.5-17.2,3.3c-5.1,4-9.6,4.9-13.8-0.7c-3.2-4.1-6.8-3.5-9.5-0.3
	c-8.1,9.8-16.6,19.6-23.4,30.3c-3.4,5.3-3.5,12.7-5.1,19.1c-3.7,14.8-7.4,29.6-11,44.5c-4.7,19.5-9.2,39.1-13.7,58.7
	c-0.1,0.5-0.3,1.1-0.3,1.6c-1.7,20.8-3.3,41.5-5.2,62.3c-1.3,14.9-4,29.8-4.1,44.7c-0.1,9.2,3.7,18.4,5.6,27.7
	c2.8,13.4,5.4,26.8,8.5,40.1c1,4.4,2.6,8.9,4.9,12.8c4.2,7.1,9.4,13.5,13.7,20.6c0.9,1.5,0,4.7-1.1,6.6c-0.6,1-3.8,1.6-5,1
	c-1.4-0.8-1.9-3.2-2.6-5c-2.3-5.7-4.6-11.3-7.5-18.7c-3.8,6.1-6.5,10.5-9.3,14.9c-0.9,0-1.8-0.1-2.7-0.1c-0.1-2.9-1.2-6.1-0.2-8.5
	c3.4-8,1.3-13.4-5.4-18.8c-8.2-6.7-9.2-16.8-2.9-25.1c5.9-7.8,4.6-15.3,1.2-23.4c-1.7-4.1-3-8.6-3.1-12.9
	c-0.2-16.4,0.3-32.8,0.2-49.2c0-2.4-1.1-6.5-2.3-6.8c-2.8-0.6-6.8-0.2-8.8,1.5c-3.3,2.9-7.3,7-7.5,10.8c-0.4,8.3-5.2,13.3-10.1,18.5
	c-3.5,3.7-6.8,7.9-11,10.5c-9.3,5.7-9.8,14.7-8.5,23.2c0.6,4.2,6.1,7.7,9.3,11.6c1.9,2.3,5.2,4.8,5.1,7.2
	c-0.2,7.4,2.1,12.9,7.8,17.5c1.4,1.1,1.7,3.8,2.7,6.3c-5.1-1.2-9-2.1-14.5-3.5c-0.6-4-1.4-9.9-2.3-15.8c-0.2-1.6-0.3-3.9-1.2-4.5
	c-9.4-5.5-14.2-14.5-17.3-24.9c-0.9,0.2-1.7,0.4-2.6,0.6c-0.7,6.1-1.4,12.2-2.2,19.1c-5.5-5.5-6.4-19.6-1.5-25
	c5.5-6,12.5-10.5,18.2-16.3c7.4-7.6,15.3-15.1,20.3-24.2c2.1-3.8-1.4-13.2-5.3-16.7c-2.7-2.5-11.7-1.1-15.9,1.6
	c-15.8,10.2-30.7,21.8-46,32.7c-6,4.3-11.9,4.1-18.5,0.1c-7-4.2-14.7-3.6-22.2,0.2c-1.8,0.9-4.4,0.2-6.7,0.3c1.1-2.3,1.7-6,3.3-6.5
	c9.1-2.8,18.6-6.4,27.4,0.9c4,3.3,7.8,3.6,12.8,0.6c-5.3-4.9-14.7-4.2-16.2-14c2.7,0.4,5.2,0,6.6,1c12,8.7,20.3-1.2,29.3-6
	c19.2-10.3,32.4-27.6,47-43.1c9.6-10.2,17.2-22.4,24.6-34.3c3.2-5.2,4-11.9,5.6-18c2-8.2,3.7-16.5,5.6-24.8
	c2.8-12.7,5.6-25.4,8.4-38.1c0.5-2.1,1.1-4.2,1.1-6.3c0.1-22.9,0.6-45.7-0.2-68.6c-0.4-11.8-7.2-20.6-18-26c-8-4-15.8-8.7-23.7-12.8
	c-8.7-4.5-13.9,2.9-20,6.4c-8.9,5.1-19,3-25.1-8.3c4.6,1.3,7.3,2.4,10,2.9c3.1,0.5,6.7,1.4,9.4,0.4c2.1-0.8,4.9-5.5,4.3-6.6
	c-1.5-2.6-4.8-4.1-7.6-5.9c-10.4-6.9-20.5,0-30.8,0.9c-3.9,0.3-7.9-0.1-11.7,0.5c-7.2,1.1-14.5,2.2-21.5,4.3
	c-7.7,2.2-14.3,5.1-22.8,0.4c-5.9-3.3-14.6-0.4-21.1-5.5c-1.2-0.9-5.3,0.7-7.2,2.1c-7.7,5.8-15.1,11.9-22.5,18.1
	c-1.6,1.4-2.5,3.8-4.3,6.6c8.9,0.4,13.1,5.7,9.6,11.5c-2.9,4.8-10.3,6.8-15.7,10c-0.3-0.6-0.7-1.3-1-1.9c-2.1,2.9-4.3,5.7-6.4,8.6
	c0.1,0.7,0.2,1.4,0.4,2.1c2.1-0.6,4.8-0.5,6.1-1.9c6.5-6.8,14.4-7.8,23.2-7.4c9.1,0.4,18.3,0.4,27.4-0.2c2.2-0.1,6-3.3,6-5.2
	c0.2-11.4,8.9-16.8,16.2-22.7c4.1-3.3,10.2-3.9,15.2-6.2c9.2-4.4,16.9,0.4,25.2,3.2c8.6,2.9,14.6,8.2,19.4,15.6
	c3.5,5.4,9,6.5,15,5.2c6.5-1.5,13-3.3,19.5-5c-0.1-0.8-0.2-1.6-0.3-2.4c-2.9-1-5.8-2-11.1-3.9c5.4-2.6,8.7-5.1,12.3-5.7
	c2.3-0.4,6.5,1.3,7.3,3.2c1.1,2.8,1.3,7.6-0.4,9.6c-4.6,5.2-9.5,11.2-18,10c-13.6-1.9-24.1,1.6-28.4,16.3c-0.9,3-2.4,6.2-4.7,8.3
	c-2.4,2.3-6,4.5-9,4.6c-2.3,0-6-3.1-6.7-5.4c-0.7-2.8,1.1-6.3,1.9-9.5c1,0.1,1.9,0.2,2.9,0.3c0.6,2.8,1.2,5.7,2.3,11
	c2.8-4.9,4.5-8,6.3-11c6.3-10.3,4.4-25.3-4-31.5c-12.4-9.3-27.5-8.6-39.3,1.9c-5.5,4.9-12.7,8.8-12.7,17.6c0,2.4,0.7,5.5,2.4,6.9
	c1,0.9,4.8-0.2,6.4-1.5c5.1-4,8.4-5,9.4,3.2c0.2,1.9,2.8,3.6,5.1,6.4c-5.7,2.9-10.9,5.6-17.6,9.1c5.7,5.2,10.8,10.4,16.6,14.9
	c4.3,3.4,9.4,6.1,14.1,9c12.3,7.5,17.5,19.5,21.4,32.5c0.4,1.3,0.5,2.7,1.1,3.8c9.1,14.9-3.1,31.9-15.1,38.2
	c-11.8,6.2-23.5,12.9-35.6,18.6c-9,4.3-18.8,6.9-27.9,11.1c-14.6,6.7-28.9,13.8-43.2,21.2c-8.2,4.3-16.1,9.3-23.9,14.3
	c-5.1,3.3-6.9,6.7-2.4,13.2c2.9,4.2,2,11.2,2,17c-0.1,5.9,0.8,8.9,7.4,11.8c9.8,4.3,19.7,10.3,22.8,22.1c0.5,1.8-0.8,4-1.2,6.1
	c-1.7-1.5-4.2-2.6-5-4.5c-3.9-8.9-11-14-18.7-18.4c-0.9,0.4-1.8,0.9-2.7,1.3c2,8,3.6,16.1,6,24c1.6,5.5,4.4,10.6,6.3,16.1
	c0.5,1.4-0.6,3.3-0.9,4.9c-1.5-0.8-3.7-1.1-4.4-2.4c-8.2-13.3-11.9-28.1-14.9-43.4c-1.1-5.8-6.6-10.7-11.4-18
	c-3.2,6.5-5,11-7.5,15.2c-2.4,4-4.9,8.4-8.4,11.3c-2.6,2.2-7.3,3.7-10.4,2.9c-2.3-0.6-5.5-5.5-5-8c0.5-3.2,4.2-5.8,7.4-9.7
	c1.6,4.1,2.5,6.2,3.3,8.3c9.4-5.4,14.7-19.1,11.4-30.3c-3,1.9-6.1,3.3-8.4,5.5c-11.4,11-22.3,22.6-34.2,32.9
	c-3,2.6-10.2,3.1-13.7,1.3c-2.9-1.5-4.4-8-4.4-12.2c0.1-5.5,5.1-6.2,9.7-5.6c5.6,0.8,5,4.5,3.5,9c-2.4-0.6-4.8-1.1-8.7-2
	c1,2.9,1.7,6.5,2.4,6.5c2.6,0,5.9-0.4,7.6-2.1c11.2-10.7,22.1-21.9,33.1-32.8c1.1-1.1,2.2-2.6,3.6-3.1c12.4-4.6,12.7-15.3,12.6-25.8
	c-0.1-12.2-0.2-24.5-1.7-36.6c-1.9-15-6.2-29.8-7.8-44.8c-1.2-11.5-4-19.1-17.1-21.6c-6.7-1.3-7.1-13.6-1.8-20.2
	c5-6.2,1.5-17.3-6.4-19.1c-1.4-0.3-4.7,2.5-5.1,4.3c-1,5.2-1,10.7-1.4,16c-1.2,14.3-2.1,28.7-3.9,43c-0.6,5.1-3.6,9.8-5.1,14.9
	c-2.9,9.8-6.8,19.5-8.1,29.5c-2.2,16.1-8.3,28.9-22.7,37.3c-1.8,1.1-1.9,5.1-3.2,8.9c3.2-0.5,3.9-0.6,4.7-0.8
	c3.2-0.9,6.3-1.9,9.5-2.9c0,2.5,1,5.9-0.3,7.2c-3.1,3.2-6.2,8.1-12.2,4.5c-2.4-1.5-5-3.4-7.7-3.7c-5.3-0.5-7.9,2.2-7.2,5.3
	c5.6,2.1,11,2.4,12.8,5.2c1.5,2.4,0.1,9.3-2.3,10.8c-3.7,2.4-10.1,3.8-13.6,2.1c-3.1-1.5-6-8.4-5.1-12c1.8-7.7,2.4-16.5,10.7-21.5
	c1.4-0.8,0.9-4.7,1.3-7.1c-2.4-0.1-5-0.8-7.1,0c-6.9,2.5-13.7,5.2-20.2,8.4c-10.8,5.3-19.9,12.5-23.2,24.9
	c-1.4,5.2,3.8,8.6,10.9,6.9c-0.5-1.2-1.1-2.3-1.3-3.5c-0.3-2.9-0.3-5.8-0.4-8.7c3.2,0.5,6.8,0.3,9.6,1.7c3.3,1.7,3.7,4.6,0.6,7.9
	c-2.9,3.1-4.2,8.4-7.5,10.4c-3.5,2.1-9.9,3.1-12.9,1.3c-3.5-2.2-6.2-8-6.6-12.4c-0.9-10.8,6-18.7,13.1-25.7
	c10.6-10.5,22.6-18.8,37.4-23.2c5-1.5,9.4-7.1,12.8-11.8c6.2-8.5,11.3-17.9,17.3-26.5c5.6-8.1,11.2-15.7,12.7-26.1
	c1.9-12.5,5.8-24.7,8.3-37.2c0.9-4.7,0.2-9.8,0.2-14.7c-1.2-0.3-2.3-0.6-3.5-1c-1.9,4.2-4.7,8.2-5.5,12.5c-2.2,12.6-2.4,25.8-5.8,38
	c-2.5,8.8-6.3,18.5-16.8,23.3c-3-12.3-6.9-23.7-17.6-30.5c-1,0.5-1.9,0.9-2.9,1.4c3,7.4,5.9,14.8,9.1,22.2c1.4,3.2,5.4,7.8,4.4,9.1
	c-2.3,3.4-6.5,6.3-10.5,7.7c-14.4,5-28.5,3.2-42.1-3.7c-0.7-0.4-1.6-0.4-2.3-0.7c-2.9-1-5.7-2-8.5-3c1.9-3.1,3.5-6.3,5.6-9.2
	c4.5-6.2,9.4-12.1,13.6-18.5c1.2-1.8,1.1-5.9-0.2-7.4c-1.1-1.2-5.3-1.2-7.2-0.1c-6.3,3.7-13.8,6.3-15.4,15c-0.2,1.3-2.4,2.2-3.7,3.2
	c-2-2.6-5.5-5.1-5.8-7.9c-0.9-7.7-0.4-15.5-0.6-23.3c-0.1-2.7-0.5-5.4-0.9-9.2c-9.1,10.3-13.2,11.1-18.8,3.7c3.4-1,6.5-1.8,12-3.3
	c-6.2-4.7-10.5-9.1-15.7-11.7c-5.3-2.7-5.3,1.9-5.4,5.6c-0.8,15.3-1.5,30.6-2.5,45.8c-0.6,9.1-0.5,18.4-2.5,27.2
	c-2.6,11-6.3,21.8-10.9,32.2c-5,11.5-10.6,22.9-17.5,33.3c-8.9,13.4-17,28.2-32.5,35.6c-5.9,2.8-12.2,4.9-18.2,7.4
	c-12.9,5.3-26.4,5-40.1,5.4c-14.7,0.5-25.5-7-36.9-14.2c-12.1-7.6-19.5-19.2-26-31.1c-3.5-6.5-5.8-14.7-5.6-22
	c0.5-15.7,1.1-31.9,5.3-46.9c2.7-9.6,10.8-18.4,18.3-25.6c9.3-8.9,19.7-16.6,32.4-21.1c4.3-1.5,6.8-8.9,9.7-13.8
	c4.2-7.1,8.7-14.5,6.2-23.2c-1-3.5-4.4-6.3-6.7-9.5c-4,3.2-9.6,5.5-11.5,9.7c-2.2,4.9,2.7,4.7,6.5,4.3c2-0.2,4.2,0.8,6.3,1.2
	c-1.3,1.8-2.2,4-3.9,5.4c-5,4.2-9.8,3.8-14.1-1.2c-3.7-4.2-2.2-14.9,2.8-19c5.5-4.6,12.7-9.3,18.8-4.7c5.4,4.1,10.9,11.9,11,18.2
	c0.1,10.7-3.9,21.4-6.4,33c3.5,1.2,8.9,2.9,14.3,4.8c5.5,2,11.1,3.7,16.4,6.3c12.4,6,16.8,17.4,20.4,29.8c4,14,2.5,28-0.4,41.4
	c-5.3,24.3-23.7,42.6-52.5,31.9c-8.3-3.1-13.9-8.3-19.9-14c-1.4-1.4-4.4-2.8-5.8-2.2c-1.7,0.7-3,3.4-3.5,5.5
	c-2.8,10.7,7.8,28,18.2,31.7c7.9,2.8,16.3,4.8,24.6,5.4c14.6,1.1,27.3-5.3,37.3-15.1c10.6-10.4,20.5-21.9,28.5-34.3
	c7-10.8,12-23.3,16.3-35.6c5.5-15.9,10.2-32.1,13.9-48.5c1.9-8.5,1.1-17.7,0.9-26.5c-0.1-5.4-4.5-6-7.1-2.8c-7.3,9-19,7.5-27.9,12.8
	c-2.1,1.3-5.8,0.4-8.7,0c-12.2-1.8-14.4,0.4-12.3,13c1.6-2.5,2.6-5.6,4.6-6.5c1.9-0.9,6.8,0.2,7,1.1c0.7,3.7,1.4,8.5-0.4,11.2
	c-4.3,6.4-13.2,7.8-17.5,4c-5.6-4.8-6.2-15.8-3.6-21.9c6.1-14.4,17.6-15.6,30.6-14.7c11.6,0.8,21.4-3.4,29.2-11.9
	c10.3-11.2,5.5-24.9,5.6-37.7c0-5.3-0.4-10.6-0.3-15.9c0.2-15.8,1.5-31.7,0.6-47.5c-0.4-7.6-4.5-15-7.5-22.3
	c-1.7-4.3-5.4-12-6.6-11.7c-8.1,2-16.1,5.1-23.4,9.2c-4.5,2.5-7.8,7.2-11.4,11.2c-6.1,6.7-14,7-22.1,6.6c-5.4-0.3-7.4-3.3-6.5-8.7
	c1.3-7.9,7.9-16.8,14.2-17.5c2.6-0.3,5.3,1.1,8,1.7c0,0.9,0,1.9,0,2.8c-2.4,0.9-5.2,1.2-7,2.7c-2,1.7-2.9,4.5-4.4,6.8
	c2.6,0.5,5.2,1.2,7.8,1.4c0.9,0.1,2.1-0.7,2.8-1.4c7.2-7.2,14.4-14.3,21.3-21.7c4.7-5.1,9.5-10.2,13.3-16c1.5-2.4,1.2-6.7,0.3-9.8
	c-1.5-5-4-9.7-6.3-14.3c-4.5-9-9.2-17.8-13.8-26.7c-4.3-8.4-1.8-16.8,5.3-22.1c5.7-4.3,10.4-5.1,15.3,0.7c4.8,5.7,5.3,14.1,0.6,19.2
	c-2.8,3-6.4,5.3-11,9c8,8.5,16,17.1,25,26.6c1.6-3,3.7-5,3.6-7c-0.7-20.8-0.5-41.8-2.9-62.5c-3.1-26.5-18.7-47.1-35.6-68.2
	c-2.1,3.1-4.2,5-4.9,7.4c-2.4,9.1-4.3,18.4-6.5,27.6c-1.8,7.1-3.8,14.2-5.9,21.3c-2.8,9.2-4.8,18.8-8.9,27.5
	c-5,10.8-10.4,21.8-17.9,30.8c-15.6,18.6-33.5,35.3-49.2,54c-18.2,21.7-41.6,24-67,20.7c-3.7-0.5-7.5-3.1-10.3-5.7
	c-7.1-6.5-14.5-13-20.1-20.7c-4.3-6-7.6-13.5-8.7-20.8c-1.5-9.5-1.7-19.5-0.1-28.9c2.5-15.8,7.6-30.9,19.7-42.7
	c2.2-2.1,3.1-5.7,4.3-8.7c4.1-10.2,7.8-20.7,12.3-30.8c7.6-17,23-27.1,37.2-37c12.3-8.6,26.9-15.3,44.2-8.6
	c8.5,3.3,17.5,4.9,25.4,10.5c4.6,3.3,11.6,3,17.1,5.4c8,3.4,10.7,9.3,8.5,15.9c-3.3,9.8-8.8,13.7-17.5,12.4
	c-1.6,11.9-3.3,23.8-4.9,35.6c0.5,0.5,0.9,1,1.4,1.5c5.2-4.6,12-8.4,15.3-14.1c9-15.4,17.4-31.3,24.5-47.6
	c4.9-11.3-0.6-21.7-6.1-32.3c-6.3-12.3-12.1-25.1-4.4-40.1c2.7-5.3,0.7-14.1-1.3-20.6c-2.7-8.8-3.6-17,0.6-25.4
	c3-5.9,8.6-7.9,13.3-4.9c2.7,1.8,2.6,8.2,3.2,12.6c0.2,1.6-1.2,3.5-1.9,5.2c-3.6,0.3-7.2,0.6-13.2,1.1c2.6,3.4,3.9,6.2,6.1,7.4
	c0.9,0.5,4-2.4,5.6-4.2c0.9-1.1,0.9-3,1.3-4.5c2.8,0.6,5.5,1.1,9.1,1.8c-3.7,4.9-7.3,8.5-9.4,12.9c-1.5,3-2.1,7.5-1,10.5
	c3.2,8.8,7.6,17.2,11.7,26.5c1.5-2.7,3.9-5.5,4.9-8.8c2.5-8.3,4.1-16.9,6.4-25.3c1.3-5,3.3-9.9,4.8-14.9c2.8-9.7,5.3-19.4,8-29.1
	c0.6-2.1,1.3-4.2,1.4-6.3c0.6-13.1,5.3-25,8.9-37.4c4-13.6,8.1-27.5,6.1-42.3c-1.1-8.2-1.4-16.9,0.1-24.9
	c2.9-15.4,7.1-30.7,17.1-43.2c8.1-10.2,2.8-20.1,0.1-29.5c-1.8-6.2-7.2-12.4-12.6-16.3c-11.6-8.2-21.9-3.5-28.5,9.1
	c-7.5,14.3-4.8,29.2-5,44c0,1.9,1.1,4.3,2.4,5.8c2.8,3,6,5.4,9.1,8.1c1.7-3.6,3.3-7.3,5.2-10.8c1.3-2.4,3.1-4.6,4.6-6.9
	c1.9,1.7,4.3,3.1,5.5,5.3c5.1,8.8,0.1,20.9-9.7,23.9c-16.3,5-24.1,0.5-31.3-18.6c-3.8-10-5.6-20.2-5.8-31.2
	c-0.5-24.7,13.4-40.8,30-55.9c0.6-0.5,1.4-1.1,2.1-1c12.5,1.1,26.2-4.5,37.4,4.6c7.8,6.3,15.3,13.4,21.3,21.4
	c3.4,4.6,3.4,11.6,4.9,17.6c0.6,2.3,1,4.6,1.4,6.2c7.8-0.7,14.8-1.6,21.9-1.9c16-0.8,26.4,9.4,35.6,20c17.3,20.1,17,44.7,14.5,69.1
	c-0.9,8.7-5.6,16.7-14.3,20.8c-2.1,1-4.9,1.7-6.9,1.1c-10.2-3.1-20.4-6.4-25.6-17c-2.9-5.9,0.8-17.2,6.8-20.6
	c5.8-3.3,18.5-0.1,20.1,6.1c0.9,3.4-2,7.9-3.6,11.8c-1.1,2.7-3,5.2-4.5,7.7c3.6,0.3,8.1,2,10.7,0.5c8.4-5,11.4-14,12.4-23.1
	c1.8-17.1-2-33.9-10.7-48.2c-5.1-8.4-13.5-15.6-24.7-18.8c-12.3-3.5-22.6-0.6-33,4.8c-1.5,0.8-2.8,2.5-3.5,4
	c-3.2,8.3-6.2,16.8-9.2,25.2c-0.4,1.1-0.1,2.4-0.1,3.8c5.3-1.4,10.1-3.1,15-3.9c7.4-1.2,15.2,0.2,17.6,7.6
	c2.6,7.7,2.5,16.5-3.9,23.5c-3.6,4-11.5,4.6-14,0.4c-1.6-2.6-1.6-6.3-2.2-9.5c2.8,0.3,5.6,0.6,9.9,1.1c2.6-2.6,8.6-5.6,4.3-12.4
	c-4.1-6.4-10.9-6-18.3-2.8c-7.2,3.1-13.5,6.4-16.3,13.9c-2.6,6.9-4.6,14.1-7,21c-1.3,3.6-3.8,6.9-4.7,10.7
	c-3.3,13.6,0.5,26.2,6.5,38.3c1.5,3.1,2.8,6.4,5,9c7.9,9.5,11.6,9.4,22.9,4c13.2-6.4,27.1-7.1,39.3,2.2c3.3,2.5,4.7,8.9,5,13.6
	c0.6,9,1.2,18.4-0.7,27.1c-2.8,13-0.7,23.1,11.8,30.6c11.5-10,18-22.6,16.3-38.6c-0.3-2.6-2.6-5.1-4.4-7.3c-0.7-0.9-2.7-0.7-4.1-1
	c0.2,1.5-0.2,3.6,0.7,4.5c4.5,4.7,3.8,9.3,0.3,14.2c-3.3,4.6-7.8,6-12.6,3.4c-6-3.3-5.7-9.5-4.3-15c2.1-7.8,14.8-15.4,22.4-13.2
	c2.7,0.8,6,3.8,6.6,6.4c3.8,15.4,2.2,30.1-7.2,43.5c-2.2,3.2-3.2,7.2-4.6,10.3c12.5,12.8,20.8,27.3,27.8,43.7
	c7.3,17-5,23.8-12.4,32.5c-7.1,8.3-17.3,14-26.3,20.6c-3.4,2.4-7.5,3.9-11,6.2c-10.4,6.6-12.8,10-8.7,20.9
	c5.4,14.5,12.9,28.1,19.7,42c0.9,1.9,3.3,3.1,5.8,5.3c3-6.1,5.5-11.2,8-16.2c-0.6-0.5-1.2-1-1.8-1.5c-1.7,0.4-3.3,1-5,1.2
	c-4.8,0.7-7.9-2.9-6-7.1c4.4-10.2,10.4-18.1,22.8-19.7c3.2-0.4,6.9-4.8,8.7-8.2c10-18.7,19.4-37.6,29.3-56.4c2.7-5.1,6-10,9.7-14.5
	c6.4-7.8,6-14.8,0.9-23.4c-4.8-8-7.3-17.3-11.8-25.5c-4.9-9.1-11.4-17.3-16.1-26.5c-4.7-9.2-3.9-19.3-0.8-28.8
	c1.4-4.4,16-8.3,19.6-4.4c3.9,4.2,6.9,11,6.7,16.6c-0.2,8-4.9,11.2-14.3,12.5c2.4,7.4,4.2,14.6,7.1,21.4c2.9,6.8,7.1,13.1,10.5,19.8
	c3.3,6.6,6.2,13.3,10.4,22.2c3-7.3,5.3-12.9,7.6-18.4c-0.8-0.4-1.6-0.9-2.4-1.3c-2,1.4-3.9,2.8-6.1,4.3c-4.6-6-0.8-10,3.2-12.2
	c2.8-1.6,9-1.7,10.5,0.2c2,2.6,2.3,8,1,11.3c-2.8,7.1-7.1,13.6-10.6,20.4c-0.7,1.3-1.1,3.3-0.6,4.6c4.1,11.1,8.4,22.2,12.6,33.3
	c0.5,1.2,1.2,2.5,1.3,3.8c2.6,17.3,5,34.7,7.7,52.1c0.4,2.5,1.8,4.9,3.5,9.6c3-8,5-13.6,7.2-19.1c7-17.5,12.7-35.7,21.4-52.3
	c10.8-20.5,23.2-40.2,39.9-56.8c11.8-11.7,22.6-24.5,38.5-30.7c3.4-1.3,8.4-2.2,11.1-0.7c5,2.9,9.4,7.9,7.8,14.5
	c-0.7,2.9-3.3,6.8-5.8,7.7c-4.9,1.7-10.7,2.8-15.1-3.8c2.6-0.2,5.4,0.1,7.8-0.7c2.3-0.8,4.1-2.7,6.2-4.1c-1.9-1.9-4.2-5.6-5.8-5.3
	c-5.5,1.1-12.3,2-15.9,5.6c-17,17.3-34.4,34.5-49.2,53.7c-9,11.6-13.7,26.4-20.2,39.9c-4.4,9.2-8.9,18.5-12.8,27.9
	c-2.8,6.7-4.7,13.8-6.9,20.8c-1.9,6-3.7,12.1-5.5,18.1c-2.8,9.3-5.7,18.6-8.2,28c-2.1,8.2-3.6,16.6-5.5,24.9
	c-0.4,1.9-1.4,3.7-2.1,5.5c-0.9-0.1-1.7-0.2-2.6-0.2c0-5.8-1.8-12.3,0.3-17.2c6-13.8,3.6-28.1,4.6-42.1c0.6-7.7-1-15.6-0.6-23.3
	c0.9-19.2-3-37.6-9.2-55.6c-2.6-7.6-4.4-15.5-7.3-25.7c-9.6,14.8-15.1,28.7-17.6,43.6c1.6,0.9,2,1.4,2.5,1.4
	c5.8,0.4,13.7-0.9,14.1,6.8c0.2,4.4-4.4,9.8-8.2,13.4c-4.3,4.1-10.1,6.7-15.1,10.2c-3.8,2.7-7.3,5.1-7.7,11.2
	c-0.6,10-3.1,19.9-4.5,29.9c-0.3,1.9,0.4,3.9,0.8,7.5c2.8-2.1,4.2-3.8,6-4.4c2.1-0.7,5.2-1.5,6.5-0.5c2.4,1.8,5.1,4.8,5.3,7.4
	c0.5,6.9-11.7,17.1-18.3,15.5c-2.1-0.5-4.9-2.8-5.3-4.7c-3.4-16.3-1.9-32.3,2.6-48.2c0.5-1.6,0.2-3.5,0.3-5.1
	c-13.4-2.8-16.9,7.1-21.4,15.5c-4.7,8.7-9.1,17.6-13.9,26.2c-3.8,6.8,2.3,10.6,4.6,15.1c6.8,13.5,15,26.3,21.8,39.8
	c3.9,7.8,0.8,30.7-9.7,36.5c-4.6,2.5-7.3,2.5-10.1-1.5c-2.4-3.4-5.9-6.9-6.4-10.6c-0.3-2.8,2.8-7.4,5.6-8.9
	c2.4-1.2,6.6,0.9,11.1,1.7c1.9-10,2.4-20.5-5-30.5c-5-6.7-8.7-14.5-13.8-21.2c-1.5-2-5.9-3.5-8.3-2.9c-4.2,1.2-7.9,4.2-11.8,6.4
	c-1.6,0.9-4,2.6-4.9,2.1c-3.1-2-7.3-4.3-8.2-7.4c-1.6-5.4-2.8-12.4,3.7-15.9c3.8-2.1,9-3.9,13.2,2.5c-2.6,0.7-4.6,1-6.4,1.8
	c-2,0.9-4.9,1.9-5.2,3.4c-0.5,2.3,0.2,5.4,1.5,7.5c0.5,0.8,4.3,0.1,6.3-0.8c10.6-4.6,14.8-11.4,6.9-21.6c-7-9-12.4-19.3-17.2-29.7
	c-3.8-8.2-5.7-17.4-8.9-27.8c-11.5,9.4-23.2,16.7-31.5,26.8c-4.7,5.7-3.9,15.9-5.9,25.6c4.5-3.6,7.5-5.7,10.1-8.3
	c7.8-7.8,13.4-1.3,18.9,3.1c6.4,5,5.6,11.5,2.3,18.1c-1,1.9-1.5,4-2.3,6c-6.8,16.8-23.8,22.5-39.2,13.4c-1.8-1.1-4.9-1.6-6.7-0.8
	c-12.2,5.7-16.1,28.9-7.5,39.5c6.7,8.2,12.9,17,18.4,26.1c3.3,5.4,6.8,6.6,12.6,5.3c13.5-3.1,22.2,3.7,27.9,16.6
	c5.2,11.7,5.9,26.3,18.6,34c2.3,1.4,5.2,1.7,7.8,2.6c0.4-2.2,1.1-4.3,1.2-6.5c0.4-7.7,8.4-13.8,15.7-11.9c5.9,1.5,8.6,7,5.2,12.1
	c-4.4,6.6-9.5,12.7-15.1,20.1c4,2.9,8.6,6.4,13.2,9.6c8.5,5.9,17.4,11.3,25.6,17.6c5.5,4.3,10.2,9.7,9.3,17.7
	c-0.1,1.4,1,2.9,1.6,4.3c6.3-3.5,8.8-11,5.3-16.9c-4.2-7.1-7.8-14.2-16.5-17.9c-8.1-3.4-6.2-12.2-4.9-18.7c0.8-3.8,5.4-8,9.3-9.4
	c3-1,9.3,1.2,10.7,3.8c2.7,4.8,5.7,5.5,10.6,6.5c5.4,1,10.1,5,17.1,8.7c10.4-8.9,21.9-18.7,33.3-28.7c2.1-1.9,3.8-4.2,6-6.7
	c-1.9-1.7-4.1-2.7-4.4-4.1c-0.8-3.2-1.7-7.2-0.5-9.8c1-2.1,5.5-4.2,7.8-3.7c7.8,1.7,9.1-2.5,11.6-8.5c2.3-5.5,6.9-10.9,11.8-14.3
	c4.7-3.2,11.1-4.1,16.9-5.5c6-1.4,10-7.2,8.3-13.7c-1.2,0.6-2.3,1.1-3.3,1.8c-1,0.7-2,1.6-4.5,3.7c0-4.2-0.8-8.6,0.1-9.1
	c3.7-1.7,8-2.8,12-2.7c2.2,0.1,5.9,2.7,6.2,4.6c0.6,4.3,2.2,5.5,6.2,6.6c4.6,1.2,5.6,5.7,1.3,8.4c-5.9,3.8-12.8,6.2-19,9.7
	c-2.9,1.6-5.3,4.1-9.1,7.1c7.5,3.2,12.4,4.2,17.4-0.4c5.5-5,11.8-7.2,19.7-6.9c5.3,0.2,11-2.8,16.1-5.2c12.5-6,24.7-12.7,37.1-18.9
	c12.5-6.2,25.1-12.3,37.8-18c8.7-3.9,17.9-6.5,26.4-10.6c20.5-9.8,41.1-19.5,61-30.4c10.9-6,11.1-28.1,2-36.9
	c-13.7-13.1-30.2-19.9-48.3-24.5c-9.4-2.3-18.7-6.3-26.9-11.4c-6.6-4.1-12.7-10.2-10.5-19.9c0.4-1.6-0.7-3.4-1.4-6.5
	c-4.6,5.9-8.8,10.5-12.2,15.6c-8.7,13.1-17.3,26.3-25.3,39.8c-7.3,12.3-8.4,26.2-8.2,40.2c0,2.4,0.5,5-0.4,7c-0.5,1-5.1,1.5-5.2,1.2
	c-2-5.1-4.6-10.2-5-15.5c-0.7-9.6-0.1-19.3-0.1-29c0-2.2-0.4-4.3-0.7-6.4c-0.7-0.2-1.4-0.3-2.2-0.5c-3.5,5.8-6.6,11.8-10.5,17.2
	c-5.3,7.3-11.2,14.2-16.8,21.3c-1.4,1.8-3.5,3.9-3.5,5.9c-0.3,12-0.2,24-0.2,33.5c5.8,3.8,10.5,5.7,13.1,9.1c1.4,1.8,0,7-1.8,9.6
	c-2.4,3.5-6.7,3.8-9.7,0.3c-2.8-3.3-5.7-7.1-6.8-11.1c-2.5-9-3.9-18.4-5.9-28.1c-0.8,0.4-2.2,0.9-3.2,1.8
	c-8.3,7.1-15.8,15.5-25.2,20.8c-5.6,3.1-14.1,2.2-21.1,1.2c-5-0.7-6.1-8.7-2.1-12.5c2.1-2,4.6-3.6,7.5-5.9c2,2.2,3.9,4.3,6.2,6.9
	c-3.4,1.6-5.9,2.7-8.4,3.9c0,0.6-0.1,1.3-0.1,1.9c2.5,0.4,5.2,1.6,7.4,1c17.4-4.9,29-17.6,39.2-31.3c4.3-5.8,0.3-11-7.1-11.5
	c-10.1-0.7-20.1-2.4-30.1-2.7c-5.4-0.2-10.9,1.9-16.4,2.6c-2.6,0.4-5.4,0.3-8,0.2c-10.5-0.4-15-8.1-8.7-16.4c2-2.7,8.6-2.9,13-2.6
	c1.8,0.1,3.3,4.6,5.5,8c5.2,0.5,12.6-14.7,13.7-37.5c-1.5,1.7-3,3.4-4.5,5.1c-1.2,1.4-2.2,3.6-3.7,4.1c-1.3,0.4-4.3-0.8-4.6-1.9
	c-0.7-2-0.8-5.4,0.4-6.5c3.4-3.1,7.6-5.2,11.9-8.1c-2.2-3.8-5.1-8-7.3-12.6c-0.9-1.8-0.8-4.8,0.1-6.5c0.8-1.3,4.3-2.6,5.3-2
	c1.6,1,2.2,3.7,2.8,5.7c0.5,1.8-0.1,4.1,0.9,5.4c1.1,1.5,3.3,2.7,5.2,2.9c1,0.1,3.1-2.5,3.1-3.7c-0.6-7.7,2.9-15.8-3.7-23
	c-2.2-2.3-2.2-7.7-1.5-11.3c0.5-2.3,4-5,6.5-5.5c2.6-0.5,7.3,0.7,8.2,2.6c1.3,2.6,0.4,6.7-0.3,9.9c-0.3,1.5-2.5,2.5-5.1,5.1
	c11.4,4,21.2-1.8,28.9-4.9c7.7-3.1,12.3-14.2,19.1-22.8c3.3,7.6,2.9,15.5,0.8,21.8c-3.1,9.5-9,18.1-14.3,26.7c-1.3,2.2-5,3-7.6,4.4
	c0.5-2.7,0.7-5.7,1.7-8.2c1-2.4,3.5-4.1,4.6-6.4c1.1-2.4,1.3-5.3,1.5-6.2c-9.5,0.9-17.6,2-25.8,2.3c-5.2,0.2-7.6,1.3-7.6,7.3
	c0,21.8-0.2,21.8,22,21.4c5.3-0.1,10.6-0.5,17.9-0.8c-1.7,2.7-2.5,5.3-3.6,5.4c-11.5,1.1-22.1,9.2-34.8,1.5
	c-7.1-4.3-8.5,5.4-10.3,9.8c-3.3,8.2-5.1,17-7.5,25.5c14.6,11.7,29.9,5.8,45,0.7c1.9-0.6,4-7,3.3-7.6c-8.7-7.5-0.8-10.1,4.6-15.6
	c3.3,5.1,6.1,9.5,9.3,14.5c0.8-0.9,2.1-1.9,2.8-3.3c5.8-12.2,12.8-24.1,17-36.9c4.5-13.9,15.4-24.8,16.8-40.3
	c0.7-8.1,6.6-15.7,7.6-23.8c1.5-12.1,0.8-24.6,0.9-36.9c0-0.8-1.7-1.6-3.9-3.5c-0.3,3.4,0.1,5.6-0.8,7c-1.1,1.8-3.5,4.1-4.9,3.9
	c-2.1-0.4-5.1-2.4-5.7-4.4c-1.4-4.9,4.9-14.4,9.4-15.3c4.4-0.9,11.2,5.1,11.5,11.3c1,16,1.5,31.6-3.2,47.6
	c-5.3,17.8-12.9,35.2-11.8,54.7c0.4,6.3-2.4,12.7-3.8,19.1c0.7,0.3,1.3,0.6,2,0.9c5.4-7,10.7-14,16.1-21
	c10.2-13.3,20.5-26.5,30.7-39.8c8.3-10.7,16.6-21.4,24.7-32.3c9.4-12.5,19.9-24.2,34.2-30.6c6.4-2.9,15.1-4.2,22,2.2
	c1.4,1.3,3.8,1.7,5.8,2.5c0.7,9-2.8,16.2-9.9,21.5c-5.3,4-10.1,1.3-13.2-3c-1.1-1.5,0.4-6.9,2.1-7.7c2.4-1.2,6,0.2,10.2,0.6
	c0.3-1.5,0.7-3.6,1-5.7c-3.3-0.5-7.4-2.3-9.8-1.1c-7.7,4-15.6,8.4-22,14.1c-9,8-16.9,17.3-26.8,27.7c4.7,0.3,6.5,0.9,8.1,0.5
	c10.9-2.9,21.5-7.3,32.6-8.7c14.7-1.9,27.3-7.6,38.8-16.5c7.6-5.9,9.7-15.3,5.4-24.7C785.4,290.1,780.7,297.1,774,291.2z
	 M571.9,695.7c0.4-0.8,0.7-1.5,1.1-2.3c-4-6.8-4-10.9,0.3-11.9c4.5-1.1,10-2.4,12.4,3.8c2.2,5.6-1.1,8.4-5.7,10.5
	c-7.6,3.3-15.5,6.2-22.8,10.2c-8.8,4.8-13.1,3.6-15.6-6.1c-1.1-4.5-3-4.1-6.3-2.5c-6.2,2.9-12.7,5.2-18.7,8.5
	c-1.8,1-3.6,5.3-2.9,7.1c4.5,11.9,9.2,23.6,9,36.6c-0.1,3.4,1.1,6.9,1.9,10.3c1.1,4.7,3.7,5.1,6.7,1.7c11.3-12.4,24.4-22.1,40-28.6
	c1.7-0.7,2.8-3,3.9-4.8c4.8-8.1,9.1-9.3,17.4-5.3c2.3,1.1,5.2,0.8,7.8,1.6c3,0.9,8.4,2,8.5,3.4c0.3,4.1-0.2,9.3-2.6,12.2
	c-5.5,6.5-14.1,6.8-21.6,5.1c-16.3-3.6-29.2,1.4-40.4,12.9c-4.8,5-9.6,10.1-14.6,14.9c-7,6.7-13.9,13.7-26.4,9.1
	c0,5.9-0.6,10.9,0.4,15.6c0.3,1.4,5.4,3.4,7.2,2.6c5.2-2.3,9.8-6.1,14.8-8.9c17.6-9.6,35.2-19.3,53-28.6c9.5-5,19.2-9.9,29.2-14
	c15.2-6.3,30.3-11.3,36.7-29.6c5.2-14.9,3.9-35.8-7.6-46.6c-12.2-11.4-25.1-22.2-37.8-33.1c-1.1-1-2.9-1.7-4.3-1.7
	c-9.5,0.3-17.4-3.8-25.1-8.7c-1.6-1-4.3-1.2-6-0.6c-3.7,1.3-7.1,3.4-10.5,5.2c-4,2.2-9.6,3.5-11.6,6.9
	c-8.2,13.8-15.3,28.3-23.3,43.3c3.8,0.8,6.5,1.1,8.9,2c2.5,0.9,4.6,3.1,7.1,3.6c2.4,0.5,5.5,0.2,7.7-0.9c11.4-5.4,13.9-5,23.3,3.4
	C567.1,693.9,569.7,694.6,571.9,695.7z M350,645.9c16.7-15.1,35.2-14.5,53.7-12.7c4.3,0.4,8.6,3.9,12.1,6.8
	c3.8,3.1,2.8,6.7-0.7,10.2c-5.6,5.4-10.9,11-15.9,16.9c-1.5,1.8-1.7,4.7-2.4,7.1c2.2,0.6,4.4,1.9,6.6,1.8
	c10.7-0.3,27.3-17.2,26.7-27.1c-0.1-1.4-1.1-3.1-2.2-4.1c-3.9-3.5-7.6-7.3-12.1-9.8c-12.1-6.8-22.6-17-37.4-18.7
	c-6.2-0.7-11.5-3.6-12.8-10.4c-1.9-9.6-8.8-15.4-15.3-21.7c-8.5-8.1-16.8-16.5-25.2-24.7c-1.3-1.2-3-2.8-4.5-2.8
	c-6,0-20.7,13.2-20.7,19.3c-0.1,19.9,0.1,39.8,0.5,59.7c0.1,5.6,3.8,8.4,9.4,6.2c5.4-2.2,10.6-4.7,15.6-7.5
	c8.1-4.6,15.9-9.9,24.1-14.5c2-1.1,4.9-0.6,7.4-0.8c-7.2,23-28.9,28.2-44.9,40.2c4.3,5,7.6,9.2,11.2,13.2c1.5,1.6,3.4,2.9,5.1,4.3
	c1.7-2.2,3.9-4.2,5.1-6.7c2-4.2,3.3-8.8,5.2-13.1c0.6-1.4,2.4-2.7,3.9-3.1c0.7-0.2,2.2,1.9,3,3.2c2.6,4,4.3,8.9,7.7,11.8
	c3.2,2.7,8.1,3.4,12.4,4.5c1,0.2,3.6-1.8,3.5-2.6c-0.3-2.5-0.9-5.4-2.4-7.1C361.6,657.6,355.9,652,350,645.9z M332.5,402.2
	c4.7-1.7,7.2-2.2,9.2-3.5c4.7-3,8.9-6.8,13.8-9.4c5.7-3,6.7-7,7.7-13.1c1.4-8.6,5.6-17,10.2-24.5c1.5-2.4,7.9-1.8,12-2.6
	c0.6,4,2.8,8.8,1.2,11.7c-1.7,3.2-6.9,4.6-10.4,7c-2.2,1.5-4.4,3.3-6.2,5.3c-0.4,0.5,0.8,3.4,1,3.3c2.5-0.3,5.3-0.4,7.3-1.7
	c11-7.4,22.3-14.5,32.3-23.1c8.1-6.8,12.1-16.7,9.2-27.5c-3.3-12.1-8.5-23.4-18.2-32.2c-4.8-4.4-8.3-4.3-13.2-0.5
	c-4.3,3.4-9.4,5.8-14.1,8.8c-5.3,3.4-12.3,6-15.1,10.9c-4.9,8.5-7.4,18.5-10.6,28c-4.1,12.3-8.2,24.6-11.6,37
	C335.1,383.9,334.3,392,332.5,402.2z M300.6,425.3c8.1-5.6,15.3-10.6,22.5-15.8c0.7-0.5,0.9-1.9,1.2-2.9c3.2-14.3,6.1-28.7,9.5-43
	c2-8.2,4.5-16.2,7-24.3c2.5-8.1,5.6-16,8-24.1c1.9-6.4-1.6-10.1-7.6-10.4c-9.1-0.4-15.6-5.1-21.2-11.5c-4.7-5.4-8.9-11.2-14.1-17.7
	c-0.5,2.8-1.1,5.1-1.1,7.3c0,12.1,0.6,24.2,0.3,36.3c-0.7,26.5,2.2,53.1-4.1,79.4C299,406.9,300.6,416,300.6,425.3z M417.8,720.4
	c1.1-0.4,2.3-0.9,3.4-1.3c1.6-12.3,3.4-24.6,4.6-37c0.6-5.9-2.7-7.5-7.9-5.1c-6.4,3-13,5.8-19.7,7.8c-3.1,0.9-7-0.5-10.5-0.9
	c0.8-4.4,0.4-9.6,2.6-13.1c5.8-9.1,12.8-17.5,20.5-27.8c-4.1-1.7-7.9-4.5-11.8-4.6c-10.3-0.3-20.5-1.3-30.6,4
	c-7.4,3.9-8.5,4.2-3.1,10.4c1.4,1.6,3.1,3,4.4,4.7c5.4,7.6,10.9,15.2,5.4,26.9c-11.7-3.6-23.3-7.3-36.1-11.2
	c-1.6,9.3-3.4,19.9-5.3,30.5c0.8,0.5,1.7,1,2.5,1.5c8.9-7.4,18.9-10.2,30.2-10c5.7,0.1,6.9,2.6,5.6,6.8c-2.7,8.3-5.5,16.7-9.3,24.5
	c-1.9,4-5.9,7-9.7,11.2c4.5,1.2,7.5,2.2,10.6,2.7c7.5,1.2,15.1,3,22.6,2.9c7.4-0.1,8.5-3.7,6.1-10.6c-3.6-10.2-6.7-20.6-9.7-31
	c-1.1-3.9,0.5-6.7,4.9-6c3.4,0.6,7.5,1.4,9.9,3.6C404.7,705.9,411.1,713.3,417.8,720.4z M193.8,765.5c1.1,1.2,1.5,1.8,2.2,2.3
	c15.8,10.7,17,20.4,4.5,34.9c-3,3.5-5.7,7.4-9.7,12.7c4.8-0.4,7.7-0.4,10.4-0.8c14.1-2.3,27.5-23,26.3-35.2c-0.4-4,0.1-8.1,0.3-12.1
	c0.4-11.8,0.2-23.8-6-34.3c-8.3-14.2-22.2-17.7-37.5-18.5c-8.2-0.4-12.5,2.8-14.7,10.1c-0.5,1.5-1.3,2.8-2,4.2
	c-5.8,12.2-11.7,24.3-17.3,36.6c-2.9,6.4-5.6,13.1-7.4,19.9c-1.8,7.1-4.4,14.5,0.5,21.9c4.6-8.8,10.4-17.5,11.4-26.7
	c2-17.7,8.8-30.6,25.2-38.6c6.5-3.2,12.5-4.3,16,2.1c2.3,4.2,1.3,10.3,1,15.5C196.9,761.7,194.9,763.6,193.8,765.5z M100.9,426.9
	c-2.1,2.8-2.8,3.4-3,4.1c-5,22-2.5,43.7,5.6,64.3c2.5,6.4,8.1,14.5,17.8,11.9c9-2.4,17.9-5.6,26.5-9.4c18.9-8.3,32.4-23.2,44.2-39.4
	c7.9-10.9,14.1-23.1,20.8-34.9c0.6-1-0.6-3-1.1-5.5c-10.5,7.7-19.9,15-29.7,21.6c-10.5,7.1-21.6,13.2-32.1,20.3
	c-3.6,2.5-7.6,6.3-8.7,10.3c-3.4,12.4-14.8,18.2-24.5,17.8c-7.2-0.3-10.7-5.9-11.5-11.6c-0.8-5.6,4-8.7,10-9.2
	c1.3,3.1,2.5,5.8,4.6,10.6c4.2-5.1,7.5-9,10.7-12.9c-3.9-1.9-7.6-4.4-11.7-5.6c-9.7-3-16-10.9-16.4-21.2
	C102.3,435,101.6,432,100.9,426.9z M289.7,206.5c-0.9-0.1-1.8-0.2-2.7-0.2c-1.1,3.9-2.1,7.9-3.2,11.8c-2.4,8.6-4.9,17.3-7.4,25.9
	c-2.6,9.1-5.1,18.3-7.7,27.4c-2.2,7.9-4.5,15.8-6.9,23.6c-2.6,8.9-6.2,17.7-7.7,26.8c-1.5,9-3.4,19.2-0.5,27.3
	c3.4,9.7,11.6,17.7,17.9,26.3c2.9,4,5.8,2.6,7-1.3c1.3-4.6,1.9-9.5,2.2-14.2c0.6-8,0.3-16.1,1.2-24.1c2.7-25.5,6.2-51,8.3-76.6
	c1.2-14.7,0.5-29.6,0.5-44.3C290.8,212,290.1,209.3,289.7,206.5z M517.8,767.5c-0.7-9.7-0.1-19.1-2.3-27.8
	c-3.1-12.2-8.8-23.8-12.1-35.9c-1.2-4.3-0.2-10.4,2-14.4c7.4-13.2,16-25.7,23.7-38.7c3.5-6.1,5.6-12.7-0.7-19
	c-1.5-1.5-2.7-5.5-1.8-6.5c6-7,5.8-15.7,8.2-23.8c3.7-12.2,11.9-22.3,25.2-28.1c-3.6-2.5-5.6-3.9-8.7-6c4-1.5,7-2.6,12-4.4
	c-6.6-1.7-8-10.4-15.1-4.6c-13.6,11.1-23.5,24.8-24.9,42.5c-1.1,14-4.2,27.1-10.1,39.7c-5.9,12.4-11.9,24.6-17.7,37
	c-3.2,6.9-9.1,12.5-6,21.9c4,12.4,6.2,25.5,8.6,38.5C500.3,749.9,500.2,763.1,517.8,767.5z M367,262.3c-11.8-12.8-24.3-26.6-37-40.2
	c-5.3-5.7-6.9-5.2-10.8,1.8c-7.3,13.1-6.6,27.2-5.3,41.3c0.6,6.3-1.2,14.1,6,18.2c8.4,4.8,16.7,10,25.8,13.1c2.9,1,9.9-3.1,11.7-6.5
	C361.5,281.6,363.7,272.3,367,262.3z M489.6,674.4c18-30.2,26.7-52.3,29.1-84.3c-20.7,15.8-41,31.3-61.6,47
	c-1.9-2.7-3.2-4.5-4.5-6.4c-0.8,0.3-1.6,0.6-2.4,1c0.9,2,1.2,4.5,2.7,6c6.9,7.4,14.1,14.5,21.2,21.6C479,664.2,484,669,489.6,674.4z
	 M66.9,441.3c-1,0-2.1-0.1-3.1-0.1c-2.1,9.1-3.6,18.4-6.5,27.2c-7.2,21.8,2.4,40,13.7,56.5c10.3,15.1,36.4,18.2,52.6,9.2
	c2.4-1.3,4.7-3,7-4.4c-0.1-0.7-0.2-1.4-0.4-2.1c-2.7-0.3-5.3-0.7-8-0.9c-4.3-0.3-8.9,0.6-12.8-0.7c-20.6-6.8-29.4-24.2-35.9-42.7
	c-4.3-12.1-6.7-24.7-5-37.8C68.7,444.1,67.5,442.7,66.9,441.3z M379,227.7c-0.4-0.2-0.7-0.5-1.1-0.7c-0.8-5.2-0.4-11-2.5-15.7
	c-6.4-14.8-28.4-17.2-39.2-4.4c-1,1.2-0.6,5,0.5,6.3c7.1,7.6,14.4,15,22,22.1c4.2,3.9,9.2,7,13.8,10.4
	C374.7,239.7,376.9,233.7,379,227.7z M104.2,410.6c0.5-0.1,1.3,0,1.5-0.4c9.6-13.6,20.8-23.6,39.2-19c1.5,0.4,4.3-1.1,5.2-2.6
	c5.1-8,9.8-16.3,14.9-25c-18.9-5.3-33,4.3-46.2,15.3C111.2,385.3,102.3,406.3,104.2,410.6z M180.5,386.6c-0.4-0.1-0.8-0.1-1.1-0.2
	c0-4.3,0.3-8.6-0.1-12.8c-0.2-2.1-1.6-4.9-3.3-5.6c-1.6-0.6-5,0.5-6,2c-3.9,5.2-7.5,10.7-10.5,16.5c-5.5,10.8-2.2,29.7,6.1,37.8
	c3.5,3.4,8.1,2.2,8.9-2.5C176.7,410.1,178.5,398.4,180.5,386.6z M154.4,725.6c-7.1-1-20.5,12.4-27,26.4c-9.1,19.5-8,53.1,3.2,62.6
	c0.3-7.8,0.2-15.6-1.1-23.3c-2.6-16.2,1.1-30.7,10.3-44C144.9,740.2,149.5,733,154.4,725.6z M316.5,462.3c5.9,6.3,15.3,8.4,23,5.2
	c8.6-3.6,11.7-14.9,5.5-20.4c-1.3-1.2-3.7-1.2-5.6-1.7c-0.3,1.7-0.5,3.4-0.8,5.1c-0.4,2.7-0.8,5.4-1.2,8.2c-2.6-1.9-5.5-3.4-7.8-5.6
	c-2.4-2.4-4.3-5.4-7.5-9.6C319.9,451.1,318.3,456.3,316.5,462.3z M141,443.3c-0.1,8,2.7,12,7.5,9.8c5.5-2.4,11-5.8,15-10.1
	c2-2.1,1.8-7.9,0.4-11c-1.2-2.8-5.3-5.5-8.4-6C151.5,425.5,141.1,439,141,443.3z M303,234.4c0.9,0.3,1.8,0.7,2.7,1
	c4.3-8.4,8.6-16.9,12.6-24.7c-4-5.8-7.5-10.9-12.2-17.6C298.8,207.5,300.9,220.9,303,234.4z M235.1,287.9c-7.3,13.8-4.4,35,7.2,47.2
	C244.4,317.8,243.2,303.1,235.1,287.9z M167.8,802.5c5.2-12.9,11.1-16.4,19.5-11.9c-2.6,3-5.1,5.9-8,9.2c7.1,4.7,10-1.8,12.4-4.8
	c2-2.4,1.1-7.3,1.2-11c0-0.4-1.2-0.9-2-1.2c-8.2-3.5-20.2-0.1-25.4,7.2C162.3,794.4,163.3,798.2,167.8,802.5z M453.4,356.9
	c-2,2.1-2.9,2.7-3.3,3.5c-5.7,11.7-11.3,23.4-16.8,35.1c-0.8,1.6-0.9,3.6-1.3,5.4c2-0.1,4.8,0.6,5.9-0.5c2.6-2.4,4.8-5.5,6.5-8.6
	c1.6-2.9,2.5-6.3,3.6-9.5c2.2-5.9,4.5-11.8,6.3-17.8C455,362.7,454,360.4,453.4,356.9z M185.7,762.3c1.3-0.1,2.5-0.1,3.8-0.2
	c0-4.1,1.6-9.9-0.4-11.8c-2.3-2.2-9.4-2.7-11.8-0.8c-6.4,5.3-11.6,12.1-13.6,23.3c5.6-1.6,9.9-2.3,13.5-4.2c1-0.6-0.5-5,0.1-7.4
	c0.6-2.7,2.3-5.2,3.6-7.8c0.8,0.4,1.6,0.7,2.3,1.1C183.9,757.1,184.8,759.7,185.7,762.3z M117.5,414c1.3,0.7,1.9,1.5,2.6,1.5
	c6.1-0.1,12.1-0.4,12,8.5c0,0.6,3.8,1.3,5.8,2c1-4.7,2.6-9.4,2.7-14.2c0-2-2.8-5.6-4.7-5.9C128.7,404.9,121.3,405,117.5,414z
	 M295,561.6c7-4.4,11.7-7.1,16.1-10.4c1.4-1.1,2.9-4.9,2.4-5.3c-4.2-3.4-8.6-6.6-13.3-9.4c-0.8-0.5-3.8,0.9-3.9,1.6
	C295.7,545.4,295.4,552.8,295,561.6z M354.6,580.2c0.7-0.7,1.5-1.3,2.2-2c-7.8-24.8-14.6-31.3-28.5-23.9
	C337.4,563.3,346,571.8,354.6,580.2z M429,762.9c-4.4,5.2-7.9,9.4-11.6,13.5c-2.6,2.9-5.9,5.2-8.2,8.4c-1,1.5-0.3,4.2-0.4,6.3
	c2.2-0.3,5.5,0.3,6.4-0.9c5.2-6.8,10-14,14.6-21.3C430.6,767.8,429.5,765.6,429,762.9z M387,278.1c-3.1-2.6-5.2-5.1-7.9-6.5
	c-1.4-0.8-4.9-0.5-5.5,0.5c-2.4,3.8-4.2,8-5.7,12.2c-0.5,1.4,0.4,4.4,1.5,4.8c1.6,0.7,4.4,0.5,5.8-0.5
	C379.1,285.6,382.7,282,387,278.1z M621.9,568.3c-6.7-4-13.2-8.1-19.9-11.7c-1.6-0.8-5.2-0.8-5.7,0.1c-1,1.7-1.2,4.6-0.3,6.4
	C599.7,571.1,613.1,573.3,621.9,568.3z M307.7,92.7c-7.2,8.1-9.6,20.8-5.3,27.2C310.4,109.6,312.3,99.5,307.7,92.7z M504.2,814.8
	c-2,6.7-3.1,13,2,18.5c0.8,0.9,5.3,0.3,5.8-0.7C514.4,827.4,510.6,818.6,504.2,814.8z M451.1,395.7c17-7.5,20.1-11.1,15.9-17.8
	c-3.9,2.9-7.5,6.9-11.9,8.3C448.8,388.2,449.7,391.3,451.1,395.7z M121,438.1c-1,1.2-2,2.3-3,3.5c3.6,3.8,7.1,7.8,11,11.2
	c1,0.9,3.7-0.2,5.7-0.4c-0.2-2,0.3-5-0.9-5.9C129.9,443.3,125.4,440.8,121,438.1z M282.9,507.4c-4.8,8.5-2.5,15.9,5.7,18.1
	C291.5,515.8,290,510.9,282.9,507.4z M257.2,457.2c3.8-3.4,7.4-5.2,8.6-8.1c0.6-1.4-2.8-4.7-4.4-7.1c-2.8,2.9-5.8,5.6-8.3,8.8
	C252.8,451.3,255.1,453.9,257.2,457.2z M146.2,839.3c-4.1-6.9-8.3-13.7-12.8-21.3C130.1,825.3,136.2,836.1,146.2,839.3z
	 M211.6,372.6c-0.6-7-3.6-10.4-9.5-10.3c-1.2,0-3.6,3.5-3.3,5C200.2,375.3,206.6,370.7,211.6,372.6z M296.1,474.9
	c7.7-8.8,7.6-11.7,0-19.9C296.1,462.5,296.1,468.7,296.1,474.9z M584.5,734.5c0.1,1.5,0.2,3.1,0.4,4.6c5.3-0.3,10.6-0.4,15.9-1
	c0.8-0.1,2-1.8,2-2.8c0-0.9-1.4-2.7-2-2.7C595.3,733.1,589.9,733.8,584.5,734.5z M576,626.9c6.3,1.7,12.5,3.4,20.7,5.5
	C590.3,622.6,585.2,621.2,576,626.9z M414,410.7c-4.8,4.5-8.7,8.2-13.5,12.7C411.2,426,416.8,420.5,414,410.7z M757.8,959.3
	c-0.8-5.6-1.2-10-2.2-14.2c-0.3-1.2-2.1-2.3-3.4-2.7c-0.6-0.2-2.2,1.2-2.7,2.1C747,950.1,749.9,956.2,757.8,959.3z M778.4,284
	c1.2,0.1,2.3,0.2,3.5,0.3c0.4-2.4,0.8-4.8,1.1-7.1c3.2-1,6.3-1.9,9.3-2.8c-0.1-1.1-0.3-2.1-0.4-3.2c-3.7,0.3-8.9-0.9-10.7,1.1
	C778.8,275,779.2,280,778.4,284z M510,698c0.3,1,0.7,1.9,1,2.9c5-2,10-4,16.9-6.7C516.6,688.9,513.6,689.9,510,698z M316.4,427.1
	c1.3,6.8-9.6,10.8-4.1,18.6C313.2,439.3,323,435.3,316.4,427.1z M437.4,623.3c1.3-0.8,2.5-1.6,3.8-2.5c-2-3.1-4.1-6.2-6.1-9.3
	c-1.2,0.8-3.5,2.2-3.5,2.4C433.4,617.1,435.4,620.2,437.4,623.3z M426.2,754.8c-0.7-0.3-1.4-0.7-2.1-1c-6.5,5.4-8.1,9.1-5.3,14.8
	C421.5,763.5,423.8,759.2,426.2,754.8z"/>
</svg>
