<?xml version="1.0" encoding="utf-8"?>
<!-- Generator: Adobe Illustrator 21.0.0, SVG Export Plug-In . SVG Version: 6.00 Build 0)  -->
<svg version="1.1" id="Layer_2" xmlns="http://www.w3.org/2000/svg" xmlns:xlink="http://www.w3.org/1999/xlink" x="0px" y="0px"
	 viewBox="0 0 1000 1000" style="enable-background:new 0 0 1000 1000;" xml:space="preserve">
<path d="M152.1,518.8c4.5-11,10-21.7,13.3-33c7.2-24.8,13.2-49.9,20.2-76.6c-5.1-0.3-9.4-0.6-14.3-0.9c6.1-24.9,12.1-49.7,18.2-74.5
	c2.1-0.7,4.3-1.3,6.4-2c8.1,25.2,16.1,50.3,25,78.1c-8.4,1-14,1.6-23.2,2.7c23.1,79.4,33.4,159.2,18.7,241.1c3,0.8,5.9,1.7,8.9,2.5
	c6.1-7.6,15.5-14.3,17.8-22.9c4.9-18.5,14.7-42.5,7.4-56.1c-19.4-35.9,5.9-65.6,5.4-98.1c-0.3-22.1,10.5-38.1,35.4-47.4
	c-27.3,38.7-17.5,79.4-16.7,119.2c0.2,11.9,9.5,27.4-11.5,34.6c-4.1,1.4-3.6,18.5-3.7,28.4c-0.2,20.1-0.1,40.3,1.7,60.3
	c0.5,6,5.8,14.6,11,16.6c11.3,4.4,43.2-26.6,41.7-39.1c-4.1-34.2-2.9-70.2-13.9-102.1c-18.4-53.4,18-84.5,40.4-121.2
	c34.8-56.9,72.2-112.2,105.9-170C388.7,293.7,363,354,326,412.3c0-14.7,0-24.1,0-41.5c-24.7,20.2-44.4,36.3-64.1,52.4
	c50.1-81.8,114.5-149.5,195.9-203.5c5.9,8.3,10.5,15,15.4,21.4c4.3,5.6,9.1,10.8,13.7,16.2c2.7-0.8,5.5-1.6,8.2-2.3
	c-3.6-26.5-6-53.1-11.1-79.3c-3-15.6-15.5-14.4-24.9-6.1c-12.4,10.9-22.8,24-37.3,34.1c11.7-16.1,20.9-35.1,35.6-47.5
	c22.2-18.7,28.7-41.5,29.3-68.1c0.2-6.7,0.7-13.3,3.7-20.1c2.5,29.5,5,59.1,7.5,88.6c1.6,0,3.3,0.1,4.9,0.1c2-33,4.1-65.9,6.1-98.9
	c0.5,0,1-0.1,1.4-0.1c0.6,7.4,1.1,14.8,1.9,22.2c3.3,30.8,8.5,59.8,35.9,81.2c12.7,9.9,20,26.9,27.1,42.4
	c-14.9-14.4-29.8-28.8-47.3-45.6c-22.4,34-20.8,66.2-15.9,101.4c10-12.1,20-24.2,32-38.8c76.4,51.3,139.4,115.1,187.3,195.1
	c-17.2-13.5-34.3-27-57.6-45.2c1.6,19.3,2.7,31,4,47.1c-37.6-57-62.3-119.2-121.9-154.9c21.7,36.1,42.6,72.7,65.2,108.2
	c22.4,35.2,48.2,68.3,69.2,104.3c9.1,15.6,13.9,36.4,13.1,54.5c-1.6,33.5-5.7,67.7-14.9,99.8c-5.6,19.5-22.7,35.8-34.8,53.6
	c16.6,14.7,32.3,12.4,38.8-1.7c11.2-24.7,24.8-52.4,22.5-77.6c-1.3-14.5-8-32.3-2.5-45.3c16.6-38.8,9.2-77.8,5.3-120.1
	c20,16.8,37.6,31.7,56.4,47.6c-5,5.3-10.6,11.2-17,17.9c-4.5-5.7-8.9-11.3-13.4-16.9c-2.3,0.2-4.7,0.4-7,0.6c-1,20-3.1,40.1-2.4,60
	c0.2,5.1,9,13.5,14.5,14c17.9,1.7,16.6,12.5,15.7,23.3c-10.3-3.8-20-7.4-29.7-11c-3.5,9.8-9.5,19.4-10.1,29.3
	c-1.7,28-4.3,56.8,17.4,89.2c8.1-18.2,14-31.4,20.4-45.9c3.3,2.1,8.3,5.4,17.6,11.6c0-14.6,2-26.9-0.3-38.3
	c-13.3-64.5,5.6-125.5,18.7-187.1c2.6-12.4,10.8-26.3-18.1-19.8c8.5-28.7,16.3-55.1,24.1-81.5c2.1,0.5,4.2,1,6.3,1.4
	c5.9,24.4,11.9,48.9,18.3,75.2c-4.9-0.3-9.1-0.5-17.2-0.9c39.6,96.1,39.7,194.6,28.9,294.5c25.8-12.9,39.3-177.1,21.8-254.4
	c-5.3,7.8-10.7,15.9-17.2,25.7c-15.1-56.1,2.7-78.6,55.2-68.7c-6-13.3-11.2-24.8-16.8-37c17.4,5.9,54.6,43.5,49.1,50.5
	c-18.7,23.7,7.2,43.7,2.3,66c-1.6,7.3,5.5,20.5,12.4,24.8c9.5,5.9,26,7.6,26.5-9.9c0.6-21.5-3-43.3-6.9-64.5
	c-0.9-5-10.3-8.5-18.3-14.6c26.1-27.4,12.8-57.8,2-88.7c-11-31.3-30.1-55.4-60.2-71.7c23.2-4.7,43.1,1.2,57.4,22.6
	c15.2,22.6,26.3,47.9,39.1,72.1c4.5,8.6,8.6,17.5,12.9,26.2c0,6.7,0,13.4,0,20.1c-5.5-3.2-10.9-6.4-14.8-8.6
	c0,65.8,6.5,131.6-2.1,195.4c-6.8,50.8,5.6,97,8.8,145.3c2.6,38.6-1.9,78.5-8.8,116.7c-3.1,17.3-19.9,32.1-35,44.4
	c2.4-43.7,4.8-87.5,7.5-137.5c-48.3,21.5-83.3,47.5-112.7,80.4c-3.8,4.2,1.3,18.4,4.8,26.9c10.2,24.5,21.6,48.4,28.1,74.9
	c-10.3-17.7-21.4-35.1-30.9-53.3c-26.2-49.7-73.1-65.2-123-76.6c-8.8-2-17.7-7.6-24.5-13.8c-20.3-18.6-39.8-38.1-59.2-57.6
	c-15.8-15.8-27-33.9-25-58.8c3.9,4.1,7,7.3,10,10.5c2.5-0.3,5-0.6,7.5-0.9c0-67.8,0-135.6,0-203.4c-0.9-0.1-1.8-0.2-2.7-0.3
	c-3.2,37.5-5.2,75.2-10,112.5c-5.7,43.7-22.4,82.5-60.9,107.9c-16.1,10.6-7.9,22.4-6,35.2c1.7,11.4,1.8,23.6-0.5,34.8
	c-4.2,21.2-10.6,42-17,66.3c-4-31.5-7.9-59.8-10.8-88.3c-0.6-6.1,2.3-12.8,4.7-18.9c9.2-23.7,5.4-30.6-20.1-31
	c-12.9-0.2-25.9,2.7-35.2,3.7c0,42,0,80.2,0,118.5c-2.2,0.2-4.5,0.5-6.7,0.7c-7.7-22.1-15.5-44.3-23.1-66.5
	c-0.8-2.2-1.1-5.7,0.1-7.3c22-29.3,2.3-44.5-17.9-63.3c-29.3-27.3-39.9-64.8-44.4-103.8c-5.1-44-10.2-88-15.6-131.9
	c-0.6-4.7-3.1-9.1-6.3-18c-9.1,11.3-17.1,19.2-22.7,28.6c-14.8,24.6-25.3,51.2-21.7,80.4c0.9,7.2,10.5,17.9,16.9,18.5
	c6.2,0.6,15.4-8.7,19.6-15.8c4.4-7.4,4.3-17.5,11.3-26.3c0,32,0,64.1,0,98.3c-4.6-9-9.1-17.7-13.7-26.5
	c-20.8-0.9-27.4,8.7-24.3,29.2c2.8,18.6,2.5,37.7,3.7,60.2c16.6-3.9,29.3-6.8,41.9-9.8c3.1,4.6,6.9,10.3,10.7,16
	c8.8,20.4-5.1,36.1-19.5,51.4c-6.2,6.6-13,12.8-19.8,18.8c-26.8,23.7-46.4,55.2-88.6,59.3c-60.5,5.8-89.6,52.6-115.8,100.5
	c-4.8,8.8-9.1,17.7-17.9,24.8c9.3-21.7,17.7-43.9,28.3-65c18.5-36.9,18.9-40.6-14.2-66c-25.6-19.5-52.8-36.9-85.2-59.3
	c0,30.8-0.8,53.2,0.2,75.6c0.9,21.4,3.6,42.8,5.8,67c-31.2-17.2-40.8-44.8-44.1-74c-6.2-54.4-7.1-108.8,14.5-160.9
	c1.5-3.7,3.5-8.4,2.5-11.9C3.6,563.6,9,478.5,18.9,391c-7.4,2.8-12.9,4.9-18.9,7.2c24.9-99.5,60.6-145.9,100-140.6
	c-15.7,22.7-36.8,46.3-49.8,73.7C37,358.9,24,390.2,46.6,413.1c-4.9,14.8-12.2,25.3-9.7,32.3c3,8.4,14.4,13.9,22.1,20.6
	c5.9-11.2,19.1-29.7,16.4-32.5c-17.9-18.3-0.5-28,6.8-39.7c7.8-12.4,17-23.9,25.6-35.8c3.2,2.6,6.4,5.1,9.6,7.7
	C60.4,468,69.6,571,114.7,673.9c-33.2,6.4-34.2,2.6-33.8-25.8c0.2-16.1-12.8-32.4-22.7-47.4C47,633.1,69.9,691.5,95.8,705.3
	c18.3,9.8,25.2-3.9,27.5-17.6c5.3-31.3,1.9-61.3-16.3-89.1c-22-33.5-16-130.6,8.7-161.9c4-5,9.4-9,16.1-15.4
	c12.4,33.4,32.8,61.9,20.7,98c-2.8,10-5.7,19.9-8.6,29.9c-2.2-0.2-4.4-0.5-6.7-0.7c0-22.3,0-44.6,0-72.2c-7.9,6.9-12.3,8.9-13.4,12
	c-10.8,31-14,61.8,4.6,91.4c3.8,6.1,8.7,12.6,9.4,19.3c3.1,28,4.5,56.2,7.4,84.2c0.7,6.8,5.1,13.1,6.8,17
	C152.1,640.3,152.1,579.5,152.1,518.8z M293.9,735c-17.1-26.6-44.4-14-70.5-17.8c0-14.4,0-29.1,0-43.9c-2.3-0.2-4.5-0.3-6.8-0.5
	c-4.1,8.8-7.1,18.5-12.7,26.3c-6.1,8.4-14.5,15.1-21.8,22.4c21.1,43.6,46.9,56,90.1,47.5c22.3-4.4,27.6-15,21.3-34.7
	c4.5,6.4,9,12.9,14.2,20.2c19.5-13.7,37.4-26.3,55.3-39c-1.1-3.2-2.3-6.4-3.4-9.6c-16.8,2.1-33.6,4.2-51,6.4
	c-1.9-4.3-4.9-11.1-7.8-17.8c-2.3,0.5-4.6,1-6.9,1.5C293.9,709.1,293.9,722,293.9,735z M704.2,740c0-15,0-30.1,0-45.1
	c-2,0-3.9-0.1-5.9-0.1c-2.2,7.4-4.4,14.8-5.2,17.6c-19.2-2.3-36-4.3-52.8-6.2c-1,3.1-2.1,6.3-3.1,9.4c18.5,13,37,25.9,56.1,39.3
	c4.7-6.5,8.1-11.1,11.5-15.7c-4.3,17.4,3.4,24.6,20.1,29.1c48,12.7,81.4-6.1,99.7-61.4c3.5-10.6,5.9-31.2,1.9-33.2
	c-20.6-10-7.4-24.1-7.4-36.2c0.1-11.7,2.8-23.6,1.4-35c-1-7.8-6.9-15.1-10.7-22.6c-2.7,0.8-5.4,1.7-8.1,2.5
	c-12.9,48.9,6.9,103.7-24.3,154.5c-2.5-12.4-4.1-20.2-5.6-27.2C738.9,698.8,720.7,717.4,704.2,740z M578.2,512.7
	c18.1-35.5,34-65.9,49-96.8c1.7-3.6,0.1-10.5-2.4-14.1c-26.7-39.1-53.6-78-81.3-116.4c-3.8-5.2-14.2-11.7-17.4-10
	c-6.2,3.4-13.2,12.2-13.1,18.7c0.4,30.7-2.7,63.3,6.5,91.6C532.8,427.1,555.6,465.3,578.2,512.7z M419.8,508.5c2.4-1,4.9-2,7.3-3
	c3.9-12.2,4.4-27.4,12.2-36.2c44.7-50.3,53.3-109.8,47.8-173.3c-0.6-7.2-5.3-17.9-10.7-19.8c-5.1-1.8-16,4.1-20,9.8
	c-27.6,38.6-54.1,78-80.8,117.3c-2.2,3.2-4.6,8.7-3.3,11.3C387.8,446.1,403.9,477.3,419.8,508.5z M886,673.5
	c29.6-67.7,44.1-137.5,29.7-218.4c-4.6,12.4-6.7,18-9.5,25.8c-3.2-11.7-5.8-21.2-8-29c-6.4,0-11,0-18.4,0
	c4.9,26.3,11,52.3,14.2,78.7c2,16.8,0.9,34.3-1,51.2c-3.7,33.1-10.1,65.9-13,99c-0.7,8.5,7.6,17.8,11.7,26.7
	c8-4.7,18.4-7.6,23.7-14.5c33.1-43.3,43.2-95.4,53.1-147.2c0.9-4.7-6.6-11-10.1-16.5c-6.7,4.7-17.4,8.1-19.3,14.3
	c-8.8,28.7-15.4,58.2-22.3,87.5c-1.1,4.6,0.2,9.9,1.2,14.7C924.2,675.9,919,680.8,886,673.5z M213.6,798
	c-21.4-24.7-41.9-48.5-66-76.4c5.9,20.3,10.5,35.8,15,51.3c-1.5,1.4-3,2.8-4.6,4.1c-6.9-6.8-17.2-12.4-20.1-20.7
	c-7-19.9-17.7-27.5-37.1-17.7c-4.2-5.3-6.5-10.7-10.6-12.8c-8.1-4.4-21-12.3-25.2-9.3c-11.2,7.9-5.7,18.8,3.6,26.9
	c21.9,19.1,43.4,38.8,66,57.1c22.5,18.2,46.3,29.9,70.9,2.3C208.2,799.7,212.7,798.5,213.6,798z M517.4,629.6
	c-6.2,13.8-13.9,23.9-14.6,34.6c-0.5,7.9,6.6,21.2,13.1,23.4c15.1,5,19.9-6.5,19.5-20.2c-1.5-56-1.6-112-5.1-167.8
	c-1.4-22.2-10.3-44-15.8-66c-2.7,0.7-5.3,1.5-8,2.2C504.4,502.7,495.4,570,517.4,629.6z M946.8,735c-18.1-31-19-30.9-47.2,3.4
	c-19.6-11.5-29.1-1.6-36.5,17.3c-3.2,8.2-12.8,13.9-19.5,20.8c-1.7-1.4-3.4-2.7-5-4.1c3.9-14.7,7.8-29.4,12.7-48.1
	c-23.3,26.8-43.5,49.9-63.9,73.3c4.5,2.6,11.8,4.6,15.7,9.4c15.1,18.8,30.7,15.7,47.2,2.9C882.2,785.2,914.1,760.4,946.8,735z
	 M542.4,679.2c3.4,1.7,6.7,3.3,10.1,5c9.1-7.8,21.6-13.8,26.8-23.6c20.9-39.3,16.4-80.9,4.6-121.8c-1.6-5.5-10.6-8.8-16.1-13.2
	c-4,5.6-10.8,10.9-11.5,16.8C551,587.9,546.9,633.6,542.4,679.2z M490.8,438.2c-2.7-0.3-5.3-0.6-8-0.9
	c-25.1,81.2-19.9,164.7-16.1,247.4c25.7,8,33.7-5.7,25.8-22c-12.4-25.6-5.6-48.2-3.1-73.8C494.2,539.1,490.8,488.5,490.8,438.2z
	 M648,640.6c3.7,0.3,7.4,0.6,11.1,0.9c6.5-14.1,14.3-27.9,19.4-42.5c13.1-37.9,15.1-76.3-1.9-113.5c-3.1-6.7-13-10.2-19.8-15.1
	c-2.9,6.2-8.3,12.4-8.3,18.7C647.7,539.6,648,590.1,648,640.6z M405.3,560c-11.7,62.8,8.6,110.5,45.8,119.7c0-37.2,0-74.5,0-111.8
	c-2.5-0.4-5-0.8-7.4-1.2c-4.8,14.4-9.6,28.8-15.1,45.3C420.8,594.6,414.4,580.2,405.3,560z M186.8,648
	c13.1-42.4,26.4-84.9,17.8-130.4c-0.3-1.6-0.6-3.6-1.7-4.6c-2.9-2.7-6.1-6.6-9.3-6.7c-2.8-0.1-7.4,3.8-8.4,6.8
	C171.5,557.7,169.4,602.4,186.8,648z M965.3,838.1c30.3-52.3,18.3-104.6,4.1-159.5c-19.2,22.9-18.6,22.7-11,43.8
	c3.6,10,6.3,20.9,6.7,31.5C965.9,782,965.3,810.1,965.3,838.1z M27.9,832.6c6.5-41.1,13.8-82.5,18.9-124.2c1.1-8.6-6-18.2-9.3-27.4
	C15.7,732.9,7.3,783.1,27.9,832.6z M36.2,564.1c27.7-24.6,33.7-48.9,23.9-75.9c-8.3,2-16.1,3.8-23.9,5.7
	C36.2,515,36.2,536.8,36.2,564.1z M825.9,535.3c-4.7-27.4-8.9-52.2-13.1-77.1c-1.9-0.2-3.8-0.4-5.7-0.6c-5,25.8-10,51.5-15.6,80.5
	C805.3,536.9,813.9,536.2,825.9,535.3z"/>
</svg>
