<?xml version="1.0" encoding="utf-8"?>
<!-- Generator: Adobe Illustrator 21.0.0, SVG Export Plug-In . SVG Version: 6.00 Build 0)  -->
<svg version="1.1" id="Layer_2" xmlns="http://www.w3.org/2000/svg" xmlns:xlink="http://www.w3.org/1999/xlink" x="0px" y="0px"
	 viewBox="0 0 1000 1000" style="enable-background:new 0 0 1000 1000;" xml:space="preserve">
<path d="M305.2,400.2c-0.3-1.7-0.8-3.3-0.9-5c-0.1-7,0-13.9,0-20.9c0-6.5-1.1-12.7-4.3-18.3c-2.1-3.6-4.6-7-7.1-10.3
	c-0.6-0.7-2.3-1-3.4-0.8c-6.6,0.7-10-3.9-12.8-8.4c-2.5-4.1-3.8-8.9-5.7-13.3c-0.3-0.7-0.7-1.4-1.3-1.8c-4.1-2.7-8-5.3-9-10.8
	c-0.4-2.2-2.6-2.4-4.1-0.2c-1,1.4-2.2,2.7-2.8,4.3c-2.2,6.3-7.7,8.8-13.3,9.9c-3,0.6-7.4-0.9-9.7-3.1c-3.5-3.3-6.8-5.3-11.8-4.8
	c-3.4,0.3-7.4-2.2-9.8,2.4c-1.1,2.2-2.3,4.4-3,6.7c-1.2,3.9-1.9,8-3.1,11.9c-0.6,2-1.2,4.3-2.5,5.9c-4.5,5.6-9.5,10.9-13.8,16.6
	c-3.5,4.6-6.5,9.6-9.2,14.6c-0.3,0.5,2.4,2.6,3.9,4.3c-4.4,1.9-9.1,3.9-13.8,5.8c0,0.6-0.1,1.2-0.1,1.8c6,2.6,9,9.6,16.6,10
	c0.9,0,2.2,1.3,2.4,2.2c1.5,6.1,5.3,8.7,11.6,9.5c4.9,0.6,9.6,2.3,14.3,4c1.3,0.4,2.1,2.2,2.5,4.3c-3.4-0.9-6.8-1.9-10.3-2.8
	c-5.6-1.5-11.3-2.6-16.7-4.5c-2.6-0.9-4.7-3.4-7.1-5.2c-1.6-1.3-3.2-2.7-4.9-3.9c-5.1-3.6-10.3-6.9-15.3-10.7c-1-0.8-0.9-3-1.4-4.6
	c-0.6-2-0.9-4.5-2.2-5.9c-4-4.1-8.8-7.3-10.6-13.2c-0.2-0.7-3-1.6-3.7-1.1c-4.9,3.3-9.3,2.1-13.6-0.9c-0.8-0.6-0.9-2.3-1.3-3.5
	c1.3-0.4,3.2-1.5,3.8-1c4.7,3.8,8.8,1,12.7-1.1c0.9-0.5,1.1-3.1,0.8-4.5c-0.2-0.9-1.9-2.1-3-2.1c-8.6-0.1-8.4-0.1-9.3-8.3
	c-0.2-1.9-2.4-3.7-4-5.2c-2.3-2.1-4.6-4.5-7.3-5.7c-2.4-1-5.7-1.4-8.1-0.6c-4.5,1.4-8.6,3.9-12.9,5.8c-3.9,1.7-7,0.4-9.9-4.2
	c-1.6-2.6-3.6-3.1-5.7-1.4c-4.6,3.9-9.9,2.1-14.2,0.8c-5.7-1.7-10.7-5.7-16.2-8.3c-1.5-0.7-4.2-0.7-5.3,0.2
	c-6.2,5.1-12.6,9.4-20.5,11.6c-5.2,1.5-9.9,4.5-14.8,6.7c-1.1,0.5-2.5,1-3.6,0.7c-1.5-0.3-2.9-1.2-4.4-1.9c1-0.9,2-2.1,3.2-2.6
	c6.9-3.1,14-5.8,20.8-9.2c3.2-1.6,5.7-4.7,8.5-7.1c-0.2-0.4-0.4-0.8-0.6-1.2c-1.6,0-3.3,0.2-4.8,0c-9.6-1.6-19.3-3.2-28.8-5
	C3,316,1.6,314.6,0,313.7c0.4-0.7,0.9-1.5,1.3-2.2c2.8,0,5.6-0.2,8.3,0.1c3.6,0.4,7.2,1.8,10.8,1.6c7.4-0.3,14.7-1.3,22-2.3
	c3.4-0.4,4.2-2.6,2.8-5.7c-0.8-1.7-1.4-3.7-1.4-5.6c0-1.2,1.1-2.4,1.8-3.6c1.2,1,2.5,2.1,3.6,3.1c0.2,0.2,0,0.6,0.1,0.9
	c0.5,2,0.9,5.6,1.7,5.7c3.2,0.4,7.2,0.7,9.7-0.8c5.1-3.1,9.4-7.6,14.1-11.3c1.8-1.4,3.7-2.8,5.8-3.5c2.9-1,5.6-0.7,7.5,2.7
	c1.5,2.7,4,4.9,6,7.2c0.4-0.3,0.7-0.6,1.1-0.9c0-1.7-0.5-3.6,0.2-5c0.3-0.7,2.8-1.1,4-0.7c3.8,1.5,6.2,3.9,7.2,8.5
	c0.8,3.9,4.1,7.5,6.9,10.5c2.6,2.8,4.7-0.5,5.9-2.1c4.3-5.8,10.2-4.1,15.7-3.7c3.7,0.2,7.3,1.7,11,1.9c1.4,0.1,3-1.8,4.5-2.6
	c2.9-1.5,5.8-3.8,8.7-4c8.6-0.5,17.3-0.2,26-0.1c1.2,0,2.4,0.3,3.6,0.7c4.6,1.5,8.8,1.7,13.8-0.1c5-1.8,11-1.1,16.5-1.4
	c2.3-0.1,4.6,0.3,6.9,0.4c3.8,0.1,7.5,0.4,7.5-5.4c0-1.4,2.7-2.7,3.9-4.3c5.2-6.6,13-8.6,20.3-9.7c4-0.6,9.8,2.9,13,6.3
	c8.7,8.9,16.8,18.4,21.9,30.1c2.9,6.7,3.4,6.4,9.8,3.2c4.7-2.4,9.8-4.1,15-5.3c4.5-1,6.4-4.2,7.9-7.6c3.3-7.6,8.7-9.9,16.2-6
	c4.5,2.3,8.7,5.2,13.2,7.5c1.7,0.9,3.7,1,5.6,1.5c-1.1,2.5-1.1,2.5-10.5,2.7c1.2,2.2,1.8,4.6,3.3,5.9c4.8,3.9,9.2,8,16.6,8
	c4.9,0,9.8,0,14.7-0.2c7-0.4,14.6-5.9,17.2-12.6c0.8-2.1,1.7-4.8,3.4-5.9c4.4-3.1,4-7.4,3.7-11.7c-0.3-4.2-0.4-8.6-1.7-12.6
	c-2.4-7.4-5.5-14.5-8.4-21.7c-0.4-1-1.1-1.8-2.2-3.6c1.2-0.8,2.6-1.8,3.9-2.7c0.1,0.4,0.2,0.8,0.3,1.2c2.1-0.5,4.3-0.8,6.3-1.6
	c2.7-1,4.9-2.6,8.1-0.6c4.9,3.1,10,5.9,15.4,8.1c6.5,2.6,13.2,4.7,19.9,6.4c4.6,1.2,9.4,1.6,14.3,0.3c1.5-0.4,3.6,1.5,5.4,2.3
	c-1.1,1.2-2,2.7-3.4,3.5c-1.8,1-3.9,1.9-5.9,1.8c-6.8-0.3-13.9,1.7-20.5-2.1c-0.7-0.4-2.1-0.5-2.7-0.1c-6.7,4.1-12.4,0.2-18.5-1.9
	c-0.7-0.3-3,1.3-2.9,1.9c0.1,2.5,0.8,5,1.4,7.5c0.2,1,0.7,2,0.9,3.1c0.9,5.6,1.5,11.2,2.7,16.7c1.8,8.4,8.4,8.7,15.7,6.8
	c2-0.5,4-1.2,6.1-1.6c4.8-0.9,9.6-2.4,14.4-2.1c4.4,0.2,9.1,1.7,12.9,4c5.9,3.4,11.7,6,18.6,5.2c8.2-0.9,16.5-1.3,24.6-2.7
	c5-0.8,9.7-3.1,14.5-4.8c0.6-0.2,1.2-1.2,1.2-1.8c0.1-4.8,3.3-7.5,6.6-10.1c5.5-4.3,7.7-10.7,9.9-16.8c3.6-10,6.2-20.3,9.4-30.4
	c0.3-0.9,1.2-1.6,1.8-2.4c0.6,0.7,1.6,1.4,1.9,2.2c1.9,5.6,3.5,11.1,0.5,17c-1,2-0.9,5-0.4,7.3c1.4,5.9-1.1,10.3-4.2,15
	c-4,6-9.6,11.3-10.5,19.1c-0.1,0.8-1.3,1.6-2.1,2.2c-4.6,3.3-9.1,6.9-14.1,9.5c-4,2.1-8.8,4.3-13.1,4.2c-9.5-0.2-17.3,3.5-25.3,7.8
	c-5,2.7-10.7,4.4-16,6.5c-0.4,0.2-0.9,0.1-1.4,0c-1.9-0.2-3.8-0.5-5.7-0.7c0.2,3.1-0.2,6.4,0.7,9.4c1.4,5,5,8.3,9.7,10.9
	c4.8,2.7,8.6,7,13.3,10c3.7,2.4,8.2,3.6,12.2,5.6c9.2,4.4,16-0.5,22.9-5.7c6.2-4.7,13.1-7.4,20.8-8.9c4.3-0.8,8.7-3.3,11.9-6.3
	c2.4-2.2,2.8-6.5,4.5-9.7c2.1-3.9,5-6.4,9.7-8c7.4-2.5,14.7-0.8,21.9-2.1c6.3-1.1,12.7-3.1,18.4-5.9c6-2.9,12.1-4.1,18.6-3.8
	c1.1,0.1,2.2,1.2,3.3,1.9c-1,0.7-2,1.5-3.2,1.9c-3.8,1.3-7.7,2.5-11.5,3.7c-3.6,1.1-7.2,2.1-10.8,3.3c-3.8,1.3-7.5,3.5-11.4,4.2
	c-5.1,0.8-10.4,0.7-15.7,0.5c-6.4-0.2-9.1,1.2-12.1,7.7c5.8-1.2,11.3-2.5,16.9-3.3c2.5-0.3,7.1-0.3,7.5,0.8c1.4,3.9-2.7,5.1-5.2,6.3
	c-9.7,4.5-19.5,8.5-29.3,12.9c-6.2,2.8-12.3,5.7-18.5,8.7c-0.8,0.4-1.4,1.3-2.1,2c0.9,0.6,1.7,1.7,2.7,1.9
	c5.5,0.9,11.1,1.5,16.6,2.5c2.8,0.5,5.4,1.8,8.1,2.5c3.3,0.8,6.7,2.1,10,2c10.9-0.5,21.9-1.2,32.7-2.5c3.7-0.5,7.2-3.1,10.8-4.8
	c9.3-4.5,18.6-9.1,28-13.4c3-1.4,6.2-2.1,9.4-2.8c1-0.2,3.1,0.6,3.1,1.1c0.1,1.5,0,3.8-1,4.6c-3.6,2.6-7.6,4.5-11.3,6.8
	c-5.2,3.2-10.3,6.6-15.5,9.7c-6.6,4-12.9,8.7-20.1,11.3c-6.1,2.3-13.2,2.3-19.9,2.7c-10.8,0.6-21.7,1.3-32.5,0.9
	c-9-0.3-18-0.6-27-2.6c-7.5-1.7-15.8,0.3-23.8,0.6c-1.6,0.1-3.6,0.7-4.8,0c-10.7-6.1-21.4-12.2-31.7-18.8
	c-14.5-9.3-23.2-23.5-30.4-38.7c-0.3-0.7-0.2-1.6-0.6-2.2c-1.4-2-2.9-5.4-4.4-5.4c-3.3,0-7.9-2.9-10.1,2.5c-0.4,0.9-2.3,1.9-3.4,1.7
	c-5.5-1-8.2,1.9-9.1,6.7c-1.4,7.9-8.1,8.5-13.8,9.8c-5,1.1-9.1,4.6-8.7,9.6c0.7,7.9,2,15.8,3.3,23.6c1.7,9.8,2.1,19.4-0.4,29.3
	c-1.5,5.8-0.5,12.3-0.2,18.5c0.2,5,1.6,10.1,1.5,15.1c0,5.7,1.4,10.8,3.9,15.8c3.6,7.4,8,14.8,10,22.7c1.8,7.1,2.4,15-1,22.2
	c-2.5,5.3-3.6,10.8-2.9,16.6c1.4,11.5-1.6,21.7-6.7,32c-4.9,9.8-4.7,20.8-2.4,31.3c1.4,6.3,4,12.7,7.3,18.2c4.6,7.7,3,15.2,1.5,22.9
	c-1.3,6.6-2.9,13.2-4.4,19.8c-0.2,1-0.4,2.4-1.1,2.9c-4.9,3.5-4.8,9-6.2,14.1c-2,7.1-4.3,14.3-7.7,20.9c-3.6,6.9-9.3,12.6-12.3,20.2
	c-1.8,4.6-6.3,8.1-9.6,12.2c-0.9,1.2-1.8,2.5-2.5,3.8c-0.4,0.6-0.1,1.8-0.6,2.2c-2.1,1.8-4.4,3.4-6.7,5.1c-0.5-2.2-1.9-4.6-1.5-6.5
	c1.3-5.4,3.5-10.6,5-16c1.8-6.5,3-13.1,4.7-19.7c2-7.9,3.9-15.8,6.6-23.5c3.4-9.7,8.4-18.8,11.2-28.6c1.9-6.5,1.4-13.7,1.6-20.6
	c0.2-9.7-4.5-17.2-11-24c-2.3-2.4-3.6-6.6-3.7-10c-0.4-11,0.4-22-0.2-32.9c-0.4-7.8,3-13.8,6.4-20.2c1.6-3,2.7-6.5,3.2-9.8
	c1.9-14.9-4.1-27.9-10.1-40.9c-3.5-7.7-6.5-15.8-8.8-23.9c-2.3-8.4-3.3-17.1-5.2-25.6c-1.6-7.6,0.3-14.3,3.8-20.8
	c0.9-1.7,1.4-3.7,1.5-5.7c0.2-6.1,0.6-12.2,0.1-18.2c-0.4-5.4-10.4-14.2-15.8-15.1c-7.3-1.2-14.6-2.8-21.8-4.2
	c-8-1.6-12.6-0.5-13.5,9.5c-0.7,7.8-0.2,15.8-0.3,23.7c0,1.7-0.5,3.5-0.7,5.2C306.5,400.2,305.9,400.2,305.2,400.2z M164.6,342
	c0.5-5.4,0.6-10.1,1.4-14.6c0.2-1.1,2.3-1.9,3.5-2.9c0.2,1.7,0.7,3.4,0.4,4.9c-1.1,5-0.8,9.6,3.1,13.4c0.8,0.8,1.2,2.1,1.8,3.1
	c0.7,1.1,1.5,3,2.4,3.1c1.5,0.1,3.6-0.5,4.4-1.6c3-3.9,5.7-8,8.3-12.1c0.7-1.1,0.6-2.6,1-3.9c0.6-2.3,1.3-4.5,1.9-6.8
	c0.6-2.2,1.2-4.4,1.8-6.6c-2.1-0.5-4.3-1.4-6.4-1.5c-12.5-0.5-24.7,2-36.9,4.3c-6,1.1-11.8,1.6-13.7,9.2
	C145.5,336.7,154,342.4,164.6,342z M58,315c5.5,2.9,9.8,5.5,14.4,7.5c4.7,2.1,8.7,0.3,9.4-3.5c0.7-3.7,1.6-7.4,2.2-11.1
	c0.4-2.2,0.6-4.6,0.4-6.8c-0.4-4-1.6-4.4-4.9-1.9c-3.7,2.8-7.2,5.8-10.8,8.6C65.5,310.1,62.1,312.2,58,315z M164,355
	c-4.2,1.3-7.6,1.9-10.7,3.4c-1,0.5-1.7,3.3-1.3,4.7c0.5,1.9,2.3,3.5,3.5,5.2c5.8,8.2,7.3,8.3,13.2,0.5c0.1-0.1,0.3-0.2,0.3-0.3
	c1-2.7,3.7-6.4,2.7-8C170.2,357.8,166.3,356.5,164,355z M358.6,337.3c0-0.4,0-0.8,0-1.2c-0.5-0.3-0.9-0.8-1.4-0.9
	c-5.4-1.5-10.9-2.4-13.3-9c-0.7-2.1-3.3-6.8-7.8-3.7c-2.8,1.9-5.5,4-8.1,6.1c-0.7,0.6-1.3,1.7-1.4,2.6c0,0.5,1.2,1.2,2,1.5
	c7.2,2,14.4,4.3,21.8,5.8C353,338.9,355.9,337.7,358.6,337.3z M96,307.5c-3.1,4.6-0.9,10.8,4.6,14.8
	C102.2,316.2,97.5,312.7,96,307.5z"/>
<path d="M442.7,560.7c3.9-1.7,7.8-3.2,11.6-5.1c2.8-1.4,5.4-3.4,8.1-5c6.1-3.7,12.1-7.9,18.5-11.1c11.6-5.7,15-13.9,7.3-26.1
	c-2.1-3.4-4.4-6.7-6.7-10c-1.7-2.4-3.8-3.4-5.6,0.1c-0.3,0.5-0.6,1.4-1,1.5c-5.2,1.1-6,6.2-9,9.3c-0.7,0.8-1.9,1.2-2.8,1.8
	c-0.5-1.1-1.6-2.3-1.3-3.1c1.7-5.2,2.7-11.1,5.8-15.3c7.9-10.5,19.6-15.9,31.4-21.1c6.4-2.8,12.9-2.8,19.5-2.4
	c12.8,0.8,25.5,2.1,38.3,2.4c6.4,0.2,12.7-1.5,19.1-2.1c8.3-0.8,15.4,3.2,22.7,6.3c8.5,3.6,14,10.6,18.4,18.2
	c3.7,6.4,4,13.8,3.2,21.1c-0.1,1.1-1,2.3-1.8,3.1c-4.3,4.4-8.6,8.8-13.1,12.9c-1.5,1.4-3.7,1.9-5.5,3c-4.7,2.6-9.5,4.9-13.9,7.9
	c-5,3.4-10.1,5.2-15.4,1.5c-6.6-4.5-13.5-3-20.5-2.1c-1.2,0.2-2.4,0.4-3.7,0.5c-5.8,0.3-10.3,6.2-7.4,11.2
	c3.9,6.6,9.2,12.5,13.9,18.6c0.9,1.2,2.4,2,3.4,3.2c3.3,4.1,7.1,6.3,12.7,6c2.9-0.2,6,1.2,8.8,2.4c9,3.8,18,7.7,26.9,11.9
	c1.3,0.6,2.2,2.9,2.5,4.5c1,4.9,1.2,9.7-4.1,12.9c-2.4,1.4-1.9,7.6,0.7,9.4c1.9,1.3,4.2,2,6,3.4c1.4,1.1,2.5,2.6,3.7,4.1
	c1.3,1.6,2.1,3.7,3.6,5c3.5,2.7,7.5,4.9,11,7.6c7.1,5.3,10.5,19.8,6.8,27.9c-1.6,3.6-2.6,7.7-5,10.6c-6.3,7.9-9.2,18.7-20.6,22.5
	c-6.6,2.2-12.2,7-18.5,10.2c-2,1-4.7,0.6-7.1,0.8c1.4-1.8,2.5-4,4.3-5.3c2.1-1.4,4.9-1.8,7.2-3c3.2-1.7,6.2-3.8,9.1-5.9
	c2-1.4,3.6-3.2,5.7-4.5c5.4-3.4,8.4-8.4,9.7-14.5c0.2-1,0.8-2,1.3-2.9c3.7-6.8,4.7-13.4,1.8-21.2c-1.6-4.2-2-8.6-6.4-10.9
	c-4.9-2.5-10.1-4.4-14.7-7.4c-5.8-3.7-11.4-7.9-16.5-12.6c-1.2-1.1-0.4-4.9-0.1-7.3c0.5-4.1,1.7-8.1,2-12.2c0.1-1.1-2.5-3.4-3.6-3.3
	c-6.7,0.6-10.7-3.6-15.2-7.5c-5.7-4.8-11.1-9.8-18.7-12c-3.1-0.9-6.1-4.2-8-7.2c-2.9-4.7-4.7-10-7.1-15c-1.7-3.7-7.7-6-11.3-4.3
	c-5,2.4-10.3,4.4-14.8,7.7c-2.2,1.6-3,5.4-3.9,8.3c-1.6,5.4-3.4,10.6-7.9,14.3c-3.1,2.6-6.6,4.8-9.1,7.8c-3.7,4.3-6.9,9-9.8,13.8
	c-2.7,4.4-5.1,8.8-10.2,10.8c-6.3,2.6-10.2,7.9-13.5,13.5c-3.3,5.5-6.7,11.2-8.6,17.3c-1.9,6.3-2.7,13.2-2.8,19.8
	c-0.2,14.8,0.6,29.7,0.3,44.5c-0.1,4.7-2.1,9.2-5.7,13.2c-3.4,3.7-5.5,8.7-7.7,13.3c-1.9,3.9-4.8,6-8.8,6.6
	c-1.4,0.2-2.9-0.6-4.4-0.9c0.4-1.5,0.3-3.9,1.3-4.5c8-4.9,11.5-13.4,14.4-21.1c2.2-5.8,0-13.3-0.4-20c0-0.9-0.9-1.7-0.9-2.6
	c0-11.9-0.1-23.8,0.3-35.7c0.1-4.4,0.8-8.9,1.8-13.3c2.1-9.5,3.2-19.7,7.4-28.3c4.1-8.3,11.4-15,20-19.9c3.8-2.2,6.8-5.9,9.7-9.3
	c8.7-10.2,14-22.3,17.7-35.1c1.3-4.6,1.9-9.5,2.4-14.4c0.4-4.4-1.5-5.7-5.2-3.5c-3.3,2-6.6,4.2-9.1,7c-3.3,3.8-7.2,5.6-12.1,6.5
	c-4,0.8-7.9,2.6-11.9,3.6c-2.7,0.7-5.6,0.7-8.5,1C442.9,562.1,442.8,561.4,442.7,560.7z M542.9,536.2c8.5,0.7,19,0.4,28.8-4.8
	c10.3-5.5,13.4-8.7,12.5-19.1c-0.4-5.1-6.3-10.8-11.2-11.2c-8.5-0.7-16.9-1.5-25.4-2.4c-1-0.1-2.1-0.5-3-1.1
	c-7-4.4-14.5-6.1-22.7-6.1c-4.3,0-6.3,1.2-5.8,5.8c0.9,10.1,1.5,20.1,2.2,30.2c0.1,0.8,0.3,1.6,0.7,2.2c1.8,2.9,1.6,7.6,7.5,6.6
	C531.1,535.5,536,536.2,542.9,536.2z"/>
<path d="M279.5,498.6c-4.6,0.9-9.1,2.4-13.7,2.7c-7.1,0.4-14.2,0-21.3,0c-0.8,0-1.6,0.1-2.3-0.1c-3.2-1.3-6.8-4.2-9.8-1.2
	c-4.4,4.3-6.5,10.2-4.5,16.4c1.5,4.7,1.3,9-0.3,13.6c-1.2,3.6,0.1,6.6,1.9,10.3c5.3,10.9,13.9,20.7,13.5,33.8
	c-0.2,7.7,5.6,10.3,10.3,14c2.4,1.9,5.2,3.3,7.7,5c0.9,0.6,1.5,1.6,2.5,2.1c5.9,3.4,12.2,6.4,17.8,10.3c2.3,1.6,4.2,4.9,4.8,7.8
	c0.9,3.8,1,8.2,0.1,12c-0.9,3.7-3.4,7.1-5.4,10.6c-4.3,7.4-8.7,14.8-13.3,22c-0.8,1.2-2.7,1.8-4.1,2.6c-0.3-1.5-1.4-3.4-0.9-4.5
	c2.9-5.6,6.6-10.8,9.3-16.5c1.8-3.8,3.2-8.2,3.2-12.3c0-8.5-3-15.3-11.9-19.2c-5.7-2.5-10.5-7.3-15.5-11.3c-4.4-3.6-8.3-7.9-13-11.1
	c-4.4-3.1-5.2-7.5-5.7-12c-0.4-3.4-0.3-6.8-0.4-10.2c-0.1-3.1-1.9-5.4-4.6-5.3c-1.3,0.1-3.2,3-3.6,5c-1.3,6.3-1,13.1-3.1,19
	c-2.4,6.6-2.1,14.8-8.6,19.3c-4.4,3.1-9.8,4.7-14.7,7.1c-1.9,0.9-3.7,2.2-5.4,3.5c-2.2,1.6-4.3,3.4-6.4,5.2
	c-4.7,4.2-9.6,8.3-14,12.8c-4,4.1-8.6,6.4-14.3,6.4c-5.1,0-5.2,4.5-7.1,7.3c-0.9,1.3-1.8,2.5-2.7,3.7c-0.4-1.6-1-3.2-1.2-4.9
	c-0.1-1.2,0.3-2.4,0.6-4.7c-3.3,1-6,1.7-8.6,2.7c-4.7,1.8-9.4,3.4-13.8,5.7c-3.3,1.8-6.1,4.5-9.1,6.9c-2.5,2.1-4.6,4.7-7.3,6.4
	c-1.4,0.9-3.7,0.3-5.7,0.4c0.6-1.5,0.9-3.4,1.9-4.6c8-9.4,17.4-16.6,29.6-20.1c5-1.4,9.7-3.6,15.2-5.7c0-3,0-6.7,0-10.4
	c0-2.6,4-5.1,0.3-7.8c-2.3-1.7-4.6-3.7-7.3-4.6c-7.5-2.6-13-7-16.8-14.2c-2.2-4.2-6.1-7.4-8.6-11.4c-2-3.2-2.7-7.1-4.6-10.4
	c-1.1-2-3.3-3.6-5.3-4.7c-4.3-2.4-5.6-5-3.3-9.3c1.3-2.4,3.2-4.5,4.9-6.7c1.8-2.5,3.4-5.1,5.3-7.3c1.3-1.5,3-2.6,4.7-3.6
	c5-2.9,10.2-5.5,15.1-8.6c6.8-4.4,13.8-8.7,19.9-13.9c12.5-10.6,26.3-7.3,39.9-4.4c4.9,1,9.3,4.2,13.7,6.9c2.6,1.6,4.4,1.5,6.5-0.6
	c4.6-4.5,6.7-17,1.1-22c-4.4-3.9-8.4-8.1-12.4-12.4c-1.8-2-2.9-4.6-4.6-6.7c-5-6.2-10.2-12.3-15.3-18.3c-2.7-3.1-5.3-6.3-8.3-9
	c-7.2-6.6-23.6-8.4-31.6-1.5c-3.6,3.1-7.2,6.2-10.4,9.6c-5,5.4-12.3,6.6-18.1,10.3c-4.5,2.9-7.7,8.1-11.1,12.5
	c-0.5,0.6,0.7,3.3,1.8,4.1c6.2,4.5,12.5,8.8,18.9,13.1c3.5,2.4,7.5,4.4,10.7,7.2c5.2,4.5,4.5,10.8-1.2,14.2c-4.2,2.5-8.4,5-12.9,6.7
	c-4.7,1.8-6.4,5.8-7.8,9.6c-2.7,7.8-10.2,8.6-16,11.8c-1,0.5-3.3-1.4-5.2-2.8c10.2-3.6,16.6-10.4,19.9-20.2c0-0.1-0.1-0.2-0.2-0.3
	c-1.5-1.2-3.1-2.4-4.6-3.5c1.9-0.8,3.8-1.8,5.7-2.4c1.7-0.6,3.6-0.9,5.4-1.2c3.9-0.6,5.1-2.8,2.6-5.9c-1.7-2.1-3.8-4.2-6.2-5.4
	c-8.7-4.3-16.4-10-23.1-17c-4.6-4.8-5.6-10.6-2.1-16.4c2.2-3.6,0.6-4-2.7-4.4c-4.1-0.5-8.1-1.5-12-2.5c-0.4-0.1-0.8-2.6-0.5-2.8
	c1.9-1,3.9-2.3,5.9-2.5c12.6-1.2,23.9-6,34.7-12.1c0.4-0.2,1-0.3,1.2-0.7c4.8-7.3,13-10.4,19.2-16c3.1-2.9,6.6-2.4,10-1.7
	c6.6,1.2,13.2,2.5,19.5,4.6c8.8,3,17.6,6.3,25.8,10.6c2.6,1.3,8.1-4.9,8.3,3.6c0.1,2.9,5.2,5.8,8.1,8.6c2.9,2.8,6.1,5.3,8.7,8.3
	c4.3,5.2,7.9,11,12.3,16c7,8.1,15.7,12.6,26.9,11.9c7.3-0.4,14.6-0.3,21.8,0c2.6,0.1,5.1,1.7,7.6,2.6
	C279.7,496.9,279.6,497.7,279.5,498.6z M153.7,624.3c8,0.2,12.5-4.8,17.6-8.4c1.8-1.3,2.8-3.5,4.2-5.3c1.1-1.4,2.1-2.8,3.4-4
	c1-0.9,2.5-1.2,3.6-2.1c2-1.6,3.7-3.5,6.3-0.9c0.4,0.4,2.2-0.2,3-0.7c1-0.6,1.6-2.2,2.6-2.5c8.6-2.9,10.2-10.9,13.1-17.9
	c3.7-9,2-18.6,2.4-27.9c0.2-5.5-1.3-10.4-3.5-15.5c-3.7-8.5-10.3-11-18.4-11.9c-1.7-0.2-3.4-0.4-4.9-1c-3.2-1.1-13.1,0.6-15.3,3.3
	c-6.2,7.5-13.9,11.9-23.8,12.2c-1,0-2,0.7-3,1c-7.5,2.6-11.4,9.2-16.2,14.7c-1.5,1.8-1.6,5.7-0.9,8.3c1.6,5.7,3.8,11.3,6.3,16.7
	c2.9,6.3,5.7,13.3,13.3,15c7.2,1.6,10.6,6.4,10.3,13.5C153.5,615.3,153.7,619.7,153.7,624.3z"/>
<path d="M906.3,618.8c2,0,4.1-0.2,6,0c4.2,0.6,8.3,1.5,12.4,2c3.8,0.5,7.8,1.4,11.5,0.9c8.9-1.3,16.3,2.5,24.2,5.3
	c4.2,1.5,8.7,2.2,13,3.6c3.4,1.1,6.8,2.4,9.9,4.2c4.2,2.4,8.3,5,12.2,7.9c1.8,1.4,3.5,3.4,4.3,5.5c0.5,1.4-0.6,3.4-1,5.2
	c-1.7-0.5-3.5-0.7-5-1.5c-8.4-4.3-16.4-9.2-25.1-12.8c-4.6-2-10.1-1.9-15.2-2.8c-8.4-1.5-17-2.3-25.2-4.5
	c-11.5-3.1-23.2-1.4-34.7-2.8c-8.2-1.1-16.4-4.4-24.1-7.8c-13.7-6.1-22.8-17.1-29.5-30.4c-5.4-10.7-10.2-21.7-19.3-30.2
	c-2.4-2.2-3.1-6.3-4.3-9.7c-1-3.1-2.2-6.4-2.3-9.6c-0.1-9.1,3.2-17.2,8.7-24.5c4.1-5.4,8-10.9,11.5-16.7c1.2-2,0.6-5,0.8-7.5
	c-3.2-0.1-6.7-1.2-9.4-0.1c-6.2,2.5-12.3,3.9-19,4.3c-3.8,0.2-7.2,4.3-11.1,5.3c-4,1-9.2,1.6-12.6-0.1c-8.9-4.6-17-10.7-25.7-15.8
	c-2.6-1.6-6.1-2.4-9.2-2.4c-4.1,0-8.1,1.1-12.2,1.7c-3.4,0.5-6.8,1.3-10.3,1.6c-0.8,0.1-2.6-1.3-2.5-1.9c0.2-1.2,1-2.6,2-3.2
	c4.5-2.4,9-5.3,13.9-6.5c6.6-1.7,13.7-3.5,20.3-2.7c5.2,0.6,10,4.9,14.7,7.9c2.1,1.3,3.6,3.3,5.5,4.9c2.7,2.3,5.3,4.1,9,1.5
	c1.4-1,3.9-0.7,5.9-0.6c10.8,0.5,20.1-3.6,29.5-8.4c7.4-3.8,14.4-8.5,23.6-8.8c6.7-0.2,13.2-4,19.8-6.1c1.4-0.4,3-0.4,4.5-0.5
	c6.3-0.6,12.5-1.2,18.8-1.6c1.3-0.1,2.7,0.2,4.1,0.5c7.6,1.4,14.8,1.5,22.6-0.5c8-2,16.6-2,24.6,2.3c5,2.7,10.4,4.6,15.7,6.6
	c8.3,3.2,13.5,9,15.7,17.6c1,4.1,2.2,8.2,3.2,12.3c0.6,2.5,1.3,5.1,1.3,7.7c0,9.1-1.4,18.1-7.6,25c-3.5,3.9-8.6,6.4-13.3,9
	c-3.3,1.8-7,2.7-10.6,4c-1.1,0.4-2.4,0.7-3.6,0.8c-12.6,1.2-24.7-1.1-36.4-5.2c-4.7-1.6-8.6-5.3-13-7.7c-1.5-0.8-4-1-5.4-0.3
	c-5.1,2.7-10.3,5.5-14.8,9.1c-1.5,1.2-2,5.3-1.3,7.5c1.2,3.9,3.9,7.2,5.7,10.9c0.6,1.2,0.4,2.7,0.5,4.1c-1.4-0.2-3.3,0-4-0.8
	c-3.5-4.1-7.1-8.3-9.9-13c-1-1.7-1-5,0-6.7c3.7-6.8,7.5-13.7,12.3-19.7c4.9-6.1,11.6-6.2,19.1-3.4c7,2.6,14.5,3.8,21.8,5.6
	c1.6,0.4,3.4,0.6,4.8,1.3c6.8,3.3,20.3-1.7,23.6-8.3c2.8-5.6,1.8-11.9-0.2-17.8c-1-3-2-6.3-4.1-8.6c-3-3.3-6.5-6.6-10.5-8.3
	c-4.5-1.9-9.7-2.2-14.6-2.7c-10.1-1-20.3-1.6-30.4-2.5c-4.9-0.4-9,0.9-13.3,3.6c-10.9,6.9-20.7,14.8-27.7,25.8
	c-4.1,6.5-8.5,12.7-12.6,19.2c-1.4,2.3-3.3,4.9-3.3,7.3c0,3.1,1.2,6.5,2.7,9.3c7.1,12.7,14.2,25.4,22.1,37.6
	c4.5,7,10.1,13.5,15.9,19.5c5,5.2,10.9,9.7,16.8,13.8c2.7,1.8,6.5,2.3,9.9,2.8C899.8,619.2,903.1,618.8,906.3,618.8
	C906.3,618.8,906.3,618.8,906.3,618.8z"/>
<path d="M628.7,579.8c4.3,2.4,8.5,4.9,12.9,7.1c4.3,2.1,11.1-2.4,11.5-7.2c0.3-4.2-0.3-7.6-3.8-10.7c-6.1-5.5-6.9-15.6-0.6-22.7
	c3.9-4.4,6.1-10.1,9.6-14.9c1.6-2.2,4.1-3.8,6.3-5.5c6.7-5.1,13.2-10.5,20.2-15.1c3.8-2.5,8.2-4.4,12.7-5.3c5.6-1.2,11.3-0.7,17.1-2
	c8.5-1.9,17.8-0.6,26.8-0.4c2.3,0.1,4.7,1.3,6.8,2.4c6.9,3.9,13.8,1.8,21,1c3.7-0.4,8.2,2.1,11.8,4.1c9.3,5.3,14.8,24.8,12.5,34.5
	c-0.4,1.6-1.5,2.9-2.2,4.4c-2.5,5.5-4.5,11.2-7.4,16.5c-6,11.2-13.7,19-27.9,14.6c-4.1-1.3-9.2,0.9-13.9,1.4
	c-7.3,0.8-14.6,1.8-21.9,2.4c-2.7,0.2-5.6,0.1-8.3-0.6c-2.3-0.6-5.6-1.6-6.2-3.2c-1.5-4-4.3-3.5-7.3-3.8c-1.8-0.2-4.2-1.3-5.1-2.8
	c-1.6-2.6-0.5-4.8,2.9-5c2.2-0.1,4.3,0,6.5,0c7.6,0.1,15.2,0.5,22.7,0.1c4.2-0.2,8.4-1.4,12.3-2.9c5.5-2.1,10.8-4.3,17-4.3
	c4.7,0,9.4-1.2,13.9-2.5c1.3-0.4,2.8-2.9,2.9-4.5c0.4-5.1,0.3-10.2,0.1-15.3c0-1-1.2-2.7-2-2.8c-6.4-0.6-11.9-3.5-17.4-6.6
	c-1.7-1-4.2-0.8-6.3-0.8c-6.6-0.1-13-0.4-19.6-1.5c-10.4-1.7-21.4-2.5-31.5,3.3c-6.5,3.7-13.4,6.6-20,10
	c-7.5,3.9-10.4,10.3-9.8,18.6c0.5,6.9,2.3,13.2,5.5,19.3c1.9,3.6,4.7,5.4,8.7,6.8c11.9,4.4,25,5.5,35.9,12.9
	c7.1,4.8,14.9,7.2,24.3,5c5.8-1.3,12.7,1.1,18.2,5c5.9,4.2,11.7,8.5,17.6,12.7c2.1,1.5,4.5,2.5,6.6,4c5.7,4,9.5,9.4,10.6,16.2
	c1.4,8.5,3.4,17.1-1.3,25.2c-0.8,1.4-2.6,2.7-4.1,3.1c-2.5,0.6-4.3-0.6-2.6-3.3c6.6-10.6,2.5-19.5-2.6-29.6
	c-4.8-9.3-12.6-13.4-21-17c-4.8-2-10.4-2.2-15.7-2.7c-13.1-1.4-25.9-3.4-37.5-10.7c-5.8-3.7-12.8-5.5-19.2-8.2
	c-5-2.1-9.7-5.2-14.9-6.4c-4.1-1-9.2-1.1-13,0.5c-10.6,4.5-24.1,1.3-30.6-8.4c-0.8-1.2-0.7-2.9-1-4.4L628.7,579.8z"/>
<path d="M628.8,579.7c-1.1-0.2-2.4-0.1-3.4-0.6c-1.4-0.6-2.4-1.8-3.8-2.4c-1.3-0.6-2.9-0.7-4.7-2.2c1.8-0.5,4.2-2,5.1-1.3
	c2.6,1.7,4.5,4.4,6.7,6.6C628.7,579.8,628.8,579.7,628.8,579.7z"/>
<path d="M557.6,724.3c3.7,0,6.7,0,10.2,0C563.8,728.6,561.1,728.7,557.6,724.3z"/>
<path d="M137.3,654.9c1-1.7,1.9-3.4,3-5c0.1-0.1,1.4,0.6,2.1,1c-0.9,1.8-1.8,3.5-2.7,5.3C138.9,655.7,138.1,655.3,137.3,654.9z"/>
</svg>
