<?xml version="1.0" encoding="utf-8"?>
<!-- Generator: Adobe Illustrator 21.0.0, SVG Export Plug-In . SVG Version: 6.00 Build 0)  -->
<svg version="1.1" id="Layer_2" xmlns="http://www.w3.org/2000/svg" xmlns:xlink="http://www.w3.org/1999/xlink" x="0px" y="0px"
	 viewBox="0 0 1000 1000" style="enable-background:new 0 0 1000 1000;" xml:space="preserve">
<path d="M801,605.4c17.1-18.8,28.5-40.1,32.1-65.1c-29.3-8.6-28-40.2-25.1-65.4c2.2-19,0.9-38.4-17.6-51
	c-26.4,20.8-27.6,54.8-2.4,67c8.7,38.2-32.1,85.9-66.9,98.4c7.6-5.9,16.2-10.8,22.4-17.9c12.6-14.5,25.4-29.2,35.3-45.6
	c7.5-12.4,2-26.1-7.9-36c-13-12.9-14.4-27.2-6.9-42.5c5.5-11.3,12.1-22.2,19.3-32.5c5-7.2,22.5-3,24.6,5.7c2.7,11,4.7,22.2,6.8,32.5
	c10.1-8.6,20.2-18.4,31.6-26.4c13.1-9.3,24.9-3.7,25.6,12c1,21,0,41.9-11.1,60.9c-3.2,5.5-6.8,10.8-9.3,16.5
	c-9.3,21.8-17.5,44.1-27.7,65.5c-4.6,9.6-13,17.5-19.7,26.2C803.2,606.9,802.1,606.2,801,605.4z M837.4,521.6
	c1.6,0.4,3.2,0.8,4.8,1.2c6-19,11.9-38,17.8-57c0.4-1.1-0.2-2.5-0.1-3.8c0.5-6.5,1.5-13,1.6-19.4c0-4.3-1.3-8.5-2-12.8
	c-4.2,0.7-9.1,0.3-12.5,2.4c-30,18.8-42.6,58.7-28.6,91.3c1.4,3.4,5.5,5.6,10,9.9c1.8-17,3.3-30.6,4.7-44.3c0.4,0,0.9,0.1,1.3,0.1
	C835.3,500,836.3,510.8,837.4,521.6z"/>
<path d="M545.5,491.3c-1.8,17.9-3.3,33.2-4.8,48.5c-7.8-15.2,2.4-32.8-5-48.4c-5.8,24.6-11.4,47.8-16.9,71.1
	c-1.8-0.4-3.6-0.8-5.3-1.2c1.6-5.1,3.3-10.1,4.8-15.2c1.6-5.7,2.5-11.6,4.5-17.1c2.3-6.6,0.2-10.2-5.1-14.8
	c-42.4-37.6-37.9-90.4,4.2-125.3c-13,16.4,1.1,26.5,7.9,37.7c6.1,10.1,9.2,19.7,3.6,31.1c-4.1-15.6-8.9-30.3-26.3-36.9
	c-13.3,22.3-14.2,44.8-3.5,67.7c2.9,6.3,7,12.2,11.3,17.7c1.5,1.9,6.3,3.7,7.4,2.9c2.2-1.8,4.2-5.5,4.1-8.4
	c-0.3-9.5-1.5-19-2.7-32.5c2.9,6.8,4.1,10.2,5.9,13.4c1.3,2.2,3.3,4.1,4.9,6.1c1.8-2.3,5-4.6,5.1-7.1c0.9-14.7,0.8-29.5,1.4-44.2
	c0.5-12.5,1.5-25,2.3-39c14.7,10.8,32.8,17.8,27.6,41.7c-0.9,4.2,0.7,9.4,2.3,13.7c6,16.3,2,28.2-14.2,34.6c0,1.5-0.3,2.6,0,2.9
	c28.8,23.5,16.4,52.6,10.1,80.3c-3.2,14.1-9.4,27.5-16.7,40.6c3.7-12.8,7.7-25.5,10.9-38.5c3.2-13.1,6.2-26.3,7.9-39.7
	C573.8,513.8,562.6,502.1,545.5,491.3z M553.1,416.3c-1.9,0.5-3.7,0.9-5.6,1.4c0,22.2,0,44.3,0,66.5c16.8-0.6,25.9-13.8,19.7-30.1
	c-2.5-6.6-4-13.7-6.5-20.3C558.5,427.8,555.7,422.1,553.1,416.3z"/>
<path d="M159.1,519.7c3.6-31.8,7.2-63.6,10.8-95.4c0.9,0.1,1.8,0.2,2.7,0.3c-4.2,64.3-8.4,128.6-12.1,185.4
	c-11.1-59.7-23.6-126.8-36-193.8c1.2-0.3,2.5-0.5,3.7-0.8c8.8,35.1,17.6,70.1,26.5,105.2C156.1,520.4,157.6,520.1,159.1,519.7z"/>
<path d="M895.5,438.5c-6.2,16.3-13.2,32.4-18.2,49.1c-5.6,18.3-9.9,37-13.6,55.8c-2,10-1.5,20.6-2.1,30.9c1.1,0.3,2.2,0.7,3.3,1
	c22.7-50.1,45.4-100.2,68-150.3c1.3,0.5,2.6,1.1,3.8,1.6c-4.5,10.7-9.1,21.4-13.5,32.1c-8.3,20.3-16.4,40.7-25,60.8
	c-5.5,12.7-12.3,24.8-17.7,37.6c-3.7,8.7-4.7,18.7-9.2,26.8c-2.6,4.7-9.8,6.9-14.9,10.3c-1.8-5.9-5.4-11.9-5.1-17.6
	c0.9-14.7,2.5-29.6,5.9-43.9c4-16.6,9.7-32.9,15.6-49c5.8-15.8,12.8-31.1,19.3-46.6C893.3,437.5,894.4,438,895.5,438.5z"/>
<path d="M374.8,591.9c-1.2-17-2.2-33.9-3.7-50.8c-1.7-19.3,1.5-39.1-13-56.3c-7.3-8.7-10-21.4-17.4-31.5c1.7,27,3.4,54,5.1,81.1
	c-1.3,0.1-2.5,0.2-3.8,0.3c-2.8-37.4-5.7-74.8-8.5-112.2c0.9-0.1,1.8-0.2,2.7-0.3c8.9,15.9,17.7,31.9,26.6,47.8
	c0.8-0.2,1.5-0.4,2.3-0.6c0-25.4,0-50.7,0-76.1c1,0,2-0.1,3-0.1c3.6,65.9,7.1,131.8,10.7,197.7C377.4,591.2,376.1,591.5,374.8,591.9
	z"/>
<path d="M199.6,575.4c9.1-8.8,20-16.4,26.7-26.8c8-12.4,14.3-26.8,17.2-41.2c1.3-6.2-6.5-15.8-12.3-21.6c-6-6.1-14.9-9.3-22.2-14.2
	c-15.9-10.6-19.9-51-4.6-61.9c5-3.5,18.2-0.7,24.3,3.7c8.5,6.2,14.4,16.3,20.2,25.5c2.6,4.2,2.2,10.3,3.7,18.8
	c-6.7-10.3-10.5-18.7-16.5-24.8c-5.9-6-14.1-9.8-21.6-14.7c-11,9.4-10.5,21.7-8.3,32.9c2.3,11.5,10,20.2,22.4,23.5
	c17.5,4.6,25.6,28.1,19.7,45.1c-8.2,23.6-23.3,40.2-42.4,54.7c-3.7,2.8-5.9,7.6-10.5,10.9c1.2-3.1,2.3-6.2,3.5-9.3
	C198.9,575.8,199.6,575.4,199.6,575.4z"/>
<path d="M904.1,552.7c7.7,9.4,26.9,3.3,25.4,21.2c-12-5.4-23.5-10.7-34.2-15.5c6.4-14.3,12.3-27.8,18.4-41.2
	c7.8-17.3,15.9-34.5,23.2-52c1.3-3.2-0.9-7.8-1.6-12.6c14.3-0.6,8.7-18.3,18.7-26.2c-5.1-4-9.5-7.4-13.2-10.4
	c19,3.7,38.6,7.5,59.3,11.5c-2.5,7.2-5.3,14.9-7,19.9c-3.5-4.1-7-12.1-12-13.2c-17.2-3.9-19.8-1.7-30,17.7c10.8,1.7,21,3.3,31.1,4.9
	c-0.2,1-0.4,2-0.6,3c-10.3,0-20.5-0.3-30.8,0.2c-2.3,0.1-5.6,2.1-6.6,4.2c-11.8,23.9-23.3,47.8-34.6,71.9
	C907,541.7,905.7,547.9,904.1,552.7z"/>
<path d="M270.3,465.8c0.5-6.7,0.7-13.5,1.6-20.2c2-14.7,12.7-24.8,27.6-24.4c5.2,0.1,13.4,3.1,14.9,6.9
	c6.7,16.1,12.5,32.8,16.4,49.8c2.2,9.7-16.9,31.7-26.6,34.3c-12.5,3.3-16.7-8.1-21.6-14.2c-7-8.7-9.9-20.5-14.6-31
	C268.7,466.5,269.5,466.2,270.3,465.8z M279.2,464.3c-0.8,0.4-1.6,0.9-2.4,1.3c4.9,12.6,9.2,25.5,15.2,37.5c1.6,3.1,9.8,6.1,13,4.7
	c14.6-6.5,20-31.1,11.5-44.2c-3.2-4.9-3.8-11.4-6.6-16.6c-2.7-5.1-6-12.5-10.3-13.5c-8.2-1.9-15.8,2.5-17.8,12.1
	C280.6,451.7,280.1,458,279.2,464.3z"/>
<path d="M597.6,507.3c-20.9-18.6-12-64.5,3.4-77.2c6.4-5.2,17.1-8,25.5-7.2c9.6,0.8,9.3,11,9.7,19.3c0.4,8.3,2.3,16.5,3.5,24.7
	c3.1,21.5-11.4,33.4-25.5,44.8c-5.9,4.8-14.5,7.6-17.1-4.8c4,1.3,8.6,4.7,11.7,3.7c13.3-4.4,24.4-29.3,20.4-42.5
	c-1.8-6.1-1.8-12.7-3.2-19c-1.1-5.1-3-10-4.5-15c-5.8,1.9-12.2,2.8-17.1,6.1c-3.3,2.2-4.9,7.6-6.5,11.9
	C591.4,470.3,592.7,488.8,597.6,507.3z"/>
<path d="M15.1,411.3c18.9,39.9,15,85.5,22.8,129.1c-1.2,0.2-2.4,0.4-3.6,0.6c-3.8-21.9-7.7-43.8-11.5-65.6
	c-11.3,1.5-17.2,6.1-17.2,19.4c0,23.1-2.6,46.1-5.7,69C1.2,511.9-1.5,459.5,15.1,411.3z M15,445.1c-1.2-0.1-2.4-0.3-3.5-0.4
	c-1.5,9.7-2.9,19.4-4.5,30.1C24,471,24,471,15,445.1z"/>
<path d="M714,417.1c-0.5-1.9-1.1-3.9-1.8-6.7c16.4,1.5,33.1,3,51.3,4.7c-0.6,4.3-1.1,8.5-2.1,16.4c-9-14.3-20.5-10.8-30.5-9.8
	c-3.7,0.4-6.8,7.1-13,14.1c13.8,1.1,23.4,1.9,33,2.7c0,0.8,0.1,1.5,0.1,2.3c-10.7,0.8-21.5,1.6-31.8,2.3
	c-6.6,24.4-13.1,48.2-19.2,70.9c10.3,10.2,27.7,1.2,32.3,17c-12.5-3.2-25.1-6.5-38.7-10c5.7-23.3,11.7-46.3,16.8-69.6
	c0.9-4.3-1.8-9.4-2.9-14.5C717.2,435.2,711.9,424.3,714,417.1L714,417.1z"/>
<path d="M714.1,417.1c-10,0-20.1,0-33.2,0c-14.2,47-19.6,97.6-31.5,147.2c6.7-48.1,13.4-96.2,20.3-145.9c-10.9,0-17.8,0-24.7,0
	C668,411.2,691,406.7,714.1,417.1C714,417.1,714.1,417.1,714.1,417.1z"/>
<path d="M199.6,575.4c0,0-0.7,0.4-0.7,0.4c-2.8-10-6.9-19.8-8.3-30c-3.9-27.6-7.5-55.4-9.7-83.2c-1-13.2,1.4-26.7,4.1-40.3
	C189.8,473.4,194.7,524.4,199.6,575.4z"/>
<path d="M274.9,568.9c-10.7-44.9-21.1-90.1-17.1-136.6c1.3-0.1,2.7-0.3,4-0.4C266.2,477.6,270.6,523.3,274.9,568.9z"/>
</svg>
