<?xml version="1.0" encoding="utf-8"?>
<!-- Generator: Adobe Illustrator 21.0.0, SVG Export Plug-In . SVG Version: 6.00 Build 0)  -->
<svg version="1.1" id="Layer_3" xmlns="http://www.w3.org/2000/svg" xmlns:xlink="http://www.w3.org/1999/xlink" x="0px" y="0px"
	 viewBox="0 0 1000 1000" style="enable-background:new 0 0 1000 1000;" xml:space="preserve">
<path d="M16.2,503.9c-0.6,3.4-2,6.8-1.8,10.2c0.3,3.9,1.6,7.9,3,11.7c1.7,4.5,4.1,8.8,6.2,13.1c0.7,1.4,1.5,2.7,2.3,4
	c4.4,7,8.6,14,13.2,20.8c0.6,1,3.4,1.6,4.3,1.1c2.7-1.6,5.1-3.8,7.4-6.1c2.5-2.5,4.8-5.2,6.9-8c1-1.3,1.2-3.1,1.8-4.7
	c0.3-1,0.6-2.1,1.1-3.9c4.1,3.8,2.4,7.4,1,10.2c-3.7,7.6-7.8,15-15.5,19.5c-0.5,0.3-0.6,1.3-1,2.3c1.6,0.4,2.8,0.6,4.6,1
	c-1.2,1.1-2,1.9-3.2,3c1.3,1.1,2.5,2,4.8,3.8c-1.6,0.9-2.8,1.7-4.4,2.6c1.2,0.9,2.2,1.6,3.6,2.6c-0.7,0.9-1.1,2.3-1.9,2.4
	c-1.5,0.3-3.6,0.6-4.5-0.2c-4.5-3.7-7.1-8.7-8.2-14.5c-0.4-2-1.3-4-2.4-5.8c-3.9-6.2-8.1-12.2-12-18.4c-4.1-6.6-8.2-13.3-11.8-20.2
	C4.8,520.8,0,511,0,499.9c0-2.6,1.5-5.8,3.4-7.7c7.3-7.9,15.2-15.3,22.5-23.1c3-3.2,4.7-6.9,4.9-11.8c0.3-5.2,2.8-10.2,4-15.4
	c0.6-2.5,1-5.3,0.5-7.7c-1.6-7.5,1-14.1,3.6-20.9c5-13.4,16-21.4,26.5-29.9c4.4-3.6,8.6-7.4,12.7-11.4c5.6-5.4,11.2-11,16.6-16.7
	c1.8-2,3-4.5,4.6-6.8c6.6-9.3,13-18.8,19.9-27.8c1.6-2.1,5-2.8,7.4-4.4c3.8-2.5,7.6-5.1,11.1-8c7.2-6,13.8-12.7,21.5-18.1
	c3.7-2.6,9.1-3.2,13.8-4.1c18.5-3.3,37.5-3.9,55.2-11.4c10-4.2,18.9-10.1,26.6-17.8c6.9-6.9,13-15.1,22.6-18.6
	c6.2-2.2,12.6-4.1,19-5.2c12.8-2.3,25.9-3.1,38.5-6.2c6.4-1.5,12.1-6.3,17.9-10.1c5.6-3.7,10.8-8,16.2-12c0.6-0.5,1.5-0.5,3.3-1.1
	c-1,1.6-1.3,2.4-1.9,2.9c-7.5,6.5-14.5,13.7-22.7,19.3c-5.7,3.8-12.7,6.2-19.4,7.7c-8.2,1.9-16.8,1.8-25,3.5
	c-14.8,3-28.2,8.4-38.1,21c-8.6,10.9-18.8,20.4-31.9,25.8c-4.2,1.7-8.7,3-13.1,4.3c-14.1,3.9-28.3,7.6-42.4,11.6
	c-1.7,0.5-3.6,1.7-4.4,3.1c-3.2,5.9-9.2,8.3-14.1,12.2c-4.1,3.3-7.4,7.7-11,11.5c-3.8,4-8,7.6-11.1,12.1c-1.8,2.5-2.8,6.5-2.4,9.6
	c1.5,11.4-6,17.7-13,24.4c-1.4,1.4-3.4,2.1-4.8,3.6c-1.3,1.4-2.6,3.2-3.1,5.1c-0.9,3.6-5.2,7.5-10.9,7.9c2.3-2.9,3.9-5,5.8-7.4
	c-0.5-0.7-1.3-1.7-2.7-3.4c3.5-2.5,6.8-5.1,10.4-7.1c3.5-1.9,4.6-3.8,1.2-6.7c0.9-1.2,1.6-2.3,2.4-3.3c-0.1-0.3-0.3-0.6-0.4-1
	c-1.4,0.3-2.7,0.7-5.5,1.3c2.3-4.5,4.3-8.3,6-12.2c1.8-4,3.1-8.2,4.8-12.3c1.1-2.5,2.1-5.3,4-7.2c9.9-10.1,20-19.9,30-29.8
	c0.8-0.8,1.4-1.9,1.4-3.6c-4.1,3.4-8.3,6.8-12.3,10.3c-4.1,3.6-8.1,7.4-12.2,11c-4.1,3.7-8.6,7-12.4,11c-2,2.1-2.9,5.1-4.2,7.8
	c-0.3,0.7-0.3,1.6-0.8,2.1c-6.7,8.2-9.6,19-18,26.3c-6.5,5.6-12,12.4-18.3,18.2c-5.8,5.4-11.9,10.7-18.2,15.4
	c-6.1,4.6-8.4,11.3-11.3,17.9c-5.3,12-1.8,24.5-3,36.8c4.4,6.9,0.3,13.4-0.6,20.2c-1,6.6-1.8,13.3-1.5,19.9c0.2,5.7,2,11.4,3.2,17
	c0.1,0.7,0.7,1.4,1.3,1.9c5.4,5.4,10.9,10.7,16.3,16.1c0.9,0.9,1.4,2.4,2.2,3.4c1.4,1.7,2.1,3.4,5.5,3.3c2.7,0,7.3,4.1,7.8,6.9
	c0.9,5.3-0.2,11.1-1,16.6c-0.5,3.6-2.2,3.9-5,1.6c-2.1-1.8-4.3-3.4-6.2-5.4c-3.7-3.8-6.8-8-5.6-13.9c0.7-3.4-1.1-5.1-3.5-7.6
	c-8.4-8.7-19.8-15-23-28c-2-7.7-4.4-15.2-1.2-23.2c1.7-4.4,2.4-9.3,3.6-13.7c-5.3,1.7-9.9,10.3-10,18.9
	c-10.5,4.9-15.6,15.6-26.4,21.3c3,1.8,4.6,2.7,6.9,4.1C11.7,508.5,11.5,504.8,16.2,503.9L16.2,503.9z"/>
<path d="M806.6,479.5c5.4-3.4,10.8-6.8,16.2-10.2c2.2-1.4,4.4-2.8,6.8-3.8c5.5-2.3,10.4,0.5,11.3,6.6c0.7,4.7,2.4,8.9,6.2,12
	c4.8,3.9,7.1,9.5,9.5,14.9c0.3,0.6,0.3,1.4,0.7,1.7c9.8,7.6,13.8,20.6,25.5,26.7c3,1.5,4.6,5.6,7.1,8.1c5,4.9,9.8,10.2,15.5,14.2
	c12.2,8.6,21.3,19.9,29.6,31.9c4.1,6-0.1,15.1-7.6,18.8c-5.9,2.9-11.5,6.4-17.3,9.5c-2.3,1.2-4.9,1.8-7.4,2.7
	c-0.3-0.4-0.5-0.8-0.8-1.3c1-1.3,1.8-2.7,3-3.8c5.4-4.5,10.7-9.1,16.4-13.3c4-3,5.8-7.3,3.2-12.6c-5.5-11.1-13.3-20.2-24.7-25.7
	c-6.7-3.3-10.2-9.9-15.8-14.3c-3.5-2.8-7.2-5.3-10.9-8c-0.6-0.4-1.3-0.8-1.8-1.4c-4.8-5.9-9.3-12-14.4-17.7
	c-1.1-1.3-3.9-1.7-5.8-1.5c-3,0.4-6,1.3-8.7,2.7c-2.6,1.4-5.2,3.2-7,5.5c-1.9,2.4-0.2,5.5,2.8,6.1c0.6,0.1,1.2,0,1.8,0
	c5.7-0.6,11.4,0.1,17.1,0.7c0.6,0.1,1.2,0.6,2.3,1.1c-0.9,0.6-1.4,1.2-1.8,1.2c-6.2,0.2-12.5,0.3-18.7,0.5c-0.5,0-1.1-0.1-1.3,0.2
	c-4.5,4.3-8.8,1.4-13.2-0.2c-3.8-1.4-7.7-2.7-11.5-4.2c-1.9-0.8-3.7-2.2-5.5-3.4c0.5-0.5,0.9-0.9,1.4-1.4c0.1-0.3,0.2-0.7,0.4-0.8
	c2.3-0.6,5.8-0.3,6.7-1.7c2.1-3.2,2.9-7.2,4.2-10.9c0.7-2.1,1.3-4.2,2-6.4c0.1-0.4,0.5-1,0.3-1.3c-4.1-9,4.4-10.3,8.8-13.2
	c3.4-2.2,4.2-4.6,4-7.9c-0.2-3-1-4-4.9-3.8c-11.4,0.8-19,7.8-26.7,14.6c-5.3,4.7-11.3,7.2-18.3,7.8c-4,0.3-8.1,0.2-11.9,1.2
	c-2.6,0.6-4.9,2.7-7.2,4.4c-0.1,0.1,1.1,3.3,1.9,3.3c4.8,0.4,10.2,2.8,13.9-2.8c0.3-0.5,1-1,1.5-1c6.3-0.7,12.7-1.7,19-1.7
	c1.7,0,3.5,2.9,5.2,4.4c-1.7,1.3-3.2,2.8-5.1,3.8c-10.4,5.3-21.3,4.5-32.4,3.3c-4.1-0.4-8.5,0.7-12.7,1.6c-6,1.3-11.9,1.4-17.5-1.7
	c-1.4-0.8-2.9-1.6-4.3-2.4c0.4-0.6,0.8-1.3,1.3-1.9c1.3-0.2,2.6-0.1,3.8-0.6c1.1-0.4,2.9-1.3,3-2.2c0.9-5.4,5-8.4,8.7-11.6
	c6-5.3,12.5-10,18.1-15.6c2.7-2.7,5-6.8,5.2-10.4c0.2-3.3-2.5-6.8-4-10.4c-3.7,1.4-6.7,2.3-9.6,3.7c-2.7,1.3-5.1,3-7.6,4.5
	c-0.3-0.3-0.6-0.5-1-0.8c0.6-1.2,0.9-2.6,1.8-3.6c7-7.5,14.2-14.9,21.3-22.4c0.4-0.4,0.8-1.1,1.3-1.2c1.2-0.4,2.5-0.5,3.7-0.8
	c-0.3,1.3-0.2,2.9-0.9,4c-1.1,1.7-3.9,3.2-3.9,4.7c0,4.1,0.4,8.6,2,12.3c3.8,8.6,2.8,15.6-3.7,22.2c-3.9,4-7.4,8.5-11.2,12.7
	c-0.8,0.9-2.2,1.5-3.4,2c-5.2,2.2-9.3,7.7-8.7,13.7c2.7-2.4,4.6-4.3,6.7-5.9c3.4-2.6,6.7-6.4,10.6-7.4c9.9-2.5,16.3-9.4,22.8-16.3
	c0.7-0.8,0.9-2.3,1-3.4c0.2-5.6,2.8-9.5,7.1-13.1c4.7-4,9.7-8.1,12.6-13.3c2.7-4.9,2.2-11.5,4.2-16.9c1.5-4,4.3-7.7,7.3-10.8
	c1.6-1.7,7.3,3.2,7.4,6.3c0.2,7.1-0.1,14.3,0.6,21.4c0.6,6.3-2.2,10-7,13.4c-6.4,4.5-12.3,9.5-18.4,14.3c-0.5,0.4-0.7,1.2-1,1.8
	C806.1,479.1,806.4,479.3,806.6,479.5z"/>
<path d="M703.7,484.5c-2.4,0.8-5.1,1.1-7.3,2.3c-8.2,4.4-15.9,9.5-22.9,15.7c-5.4,4.8-11.8,8.8-18.1,12.3c-2.7,1.5-6.6,1.3-9.8,1
	c-6.8-0.7-13.6-2.1-20.3-3.2c-1.8,4.2-8.5,5.6-11.4,1.9c-1.8-2.3-3.4-2-5.5-1.4c-3.5,0.9-7.1,1.6-10.7,2.3c-0.7,0.1-1.4,0-2.8-0.9
	c1.6-1.5,2.9-3.4,4.8-4.3c8.6-4,17.5-7.4,26-11.7c3.9-2,7.2-5.3,10.5-8.4c0.4-0.4-0.4-3.2-1.4-4c-2.2-1.8-3.6-3.4-2.8-6.6
	c0.3-1.1-1.3-2.6-2-4c-0.7,0.9-1.7,1.8-2.1,2.8c-1.6,4.4-8.4,9.1-12.8,8.8c-3.5-0.3-4.5-2-2.6-4.8c1.9-2.7,3.9-5.5,6.4-7.6
	c4.2-3.5,8.9-6.4,13.1-9.9c4-3.3,7.8-7,11.3-10.8c2.2-2.4,6.9-3.9,4.2-8.8c0-0.1,2.3-2,3.5-2c3,0.1,6.2-0.1,6.7-3.4
	c0.4-2.4-0.5-5.7-2.1-7.4c-6.4-6.8-13.3-13.1-20.1-19.6c-1.1-1.1-2.2-2.3-3.6-3.9c4.3-1.8,6.6,0.6,9.2,2.3c2.9,1.9,6,3.3,8.9,5.1
	c2.3,1.4,4.1,4,6.5,4.7c7.8,2.4,11.6,9.2,16.9,14.3c0.8,0.7,1.2,2.6,0.8,3.6c-0.9,3-2.3,6-3.8,9.6c-2.4-3.6-4.5-6-3.2-10.4
	c0.6-2-1.7-4.9-3.5-7.2c3.8,5.3,1.6,10.1-0.9,14.7c-0.9,1.6-3,2.5-4.6,3.7c-0.2,0.2-0.7,0.1-0.9,0.2c-4.9,5.2-9.8,10.4-15.1,16
	c4.1,1.9,6.2-0.3,8.7-1.6c1.8-1,4-1.2,6.1-1.7c1.7-0.4,3.5-0.7,5.2-1.2c6.6-1.9,12.1-5.1,16.3-11c3.6-5.1,0.9-9.9,0.7-14.8
	c-0.1-1.6-0.5-3.3-1-4.8c-0.9-3-2-5.9-3.1-8.8c-0.4-1.2-0.8-2.4-1.1-3.6c1.5-0.2,3.1-1,4.3-0.6c8.3,2.8,13.2,9.1,15.9,17.2
	c0.5,1.4-0.7,3.4-1.3,5.1c-1,2.9-1.4,5.4,2.1,6.9c0.3,0.1,0.5,0.3,0.8,0.5c8.1,5.6,8.2,6,0.3,11.9c-3.4,2.5-6.9,4.8-10.4,7.3
	c-0.3-0.3-0.6-0.7-1-1c1.9-2.2,3.5-4.7,5.7-6.4c4.2-3.2,3.5-6.2,0.5-9.6c-0.6-0.6-1-1.5-1.4-2.2c-0.5,0.2-1,0.3-1,0.4
	c-0.4,7.9-7.1,11.5-11.4,16.7c-1.4,1.7-3.1,3.8-3.2,5.7c-0.1,5.3-3.2,7.1-7.6,8.2c-6.5,1.5-8,3.7-6.6,10.3c3.4-2.3,6.5-4.5,9.7-6.5
	c4.3-2.6,8.8-5,13.2-7.4c0.4-0.2,0.9-0.3,1.2-0.7c7.6-8.5,19.4-12.5,24.8-23.3c1.6-3.2,4.1-3.2,6.1-0.4c1.7,2.4,2.5,5.4,4.3,7.8
	c2.2,2.8,4.8,5.6,7.7,7.7c4,3,8.5,5.2,12.5,8.1c1.6,1.2,3.2,3,3.8,4.9c1.2,3.7,1.7,7.6,2.3,11.4c0.1,0.7-0.4,1.9-1.1,2.4
	c-4.6,3.8-9.1,7.7-14,11.2c-1.3,1-3.5,0.8-5.2,1.1c-0.2-0.4-0.4-0.8-0.6-1.2c1.6-2.7,3.2-5.4,4.9-8.4c-3-1.8-2.7-3.7,0-5.8
	c1.4-1.1,3-2.6,3.2-4.2c0.4-2.3-0.2-4.8-0.4-7.2c-3.6,0.5-7.7,0-10.5,1.7c-4.8,2.9-8.8,7-13,10.8c-3.4,3-7,3-10.8,1.9
	c-0.6-0.8-1.3-1.5-1.9-2.3c2.6-1.7,5.3-3.4,7.9-5.2c3.4-1.7,6.8-3.5,10.2-5.2c-0.3-0.5-0.6-1-0.9-1.4
	C708.4,477.8,705.3,480,703.7,484.5z M706.2,473.8c0.6,0.5,1.3,1,1.9,1.5c3-2.8,6.1-5.6,9-8.6c0.5-0.5,0.3-2.8-0.3-3.1
	c-0.9-0.6-3.2-0.9-3.6-0.3C710.7,466.5,708.5,470.2,706.2,473.8z M650.6,485.4c-5.5,4.9-11.6,10.4-17.4,15.7
	C638.1,501.7,650.1,490.6,650.6,485.4z M655.7,493.6c-2.5,2.1-4.3,3.6-6.4,5.3C655.7,501.1,656.4,500.6,655.7,493.6z M645.3,510
	c3.2,0.7,6.5,2.5,9.8-0.9C651.2,506.1,648.3,509,645.3,510z M678,487.8c-0.2-0.4-0.2-0.6-0.3-0.6c-0.1-0.1-0.4-0.1-0.4,0
	c-2.4,2.4-4.7,4.8-7.1,7.2C676.7,495.7,675.9,490.4,678,487.8z M694.5,474.9c-0.7-0.7-1.3-1.4-2-2.1c-2.2,2.3-4.4,4.5-6.5,6.8
	c0.4,0.4,0.8,0.9,1.3,1.3C689.6,478.9,692,476.9,694.5,474.9z"/>
<path d="M122.4,522c4.4,4.5,8.6,9,12.9,13.4c0.6-0.5,1.1-0.9,1.7-1.4c-2.5-3-4.8-6.3-7.7-8.8c-3.5-3-6.3-6-5.1-11.5
	c8.4,8.7,20.8,13.3,25.5,26.3c3.6-1,7.7-2,11.8-3.1c2.9-0.9,6.5-1.8,7.8,1.3c0.8,2-0.2,5.9-1.8,7.6c-4.9,5.4-10.6,10.2-15.7,15.4
	c-3.1,3.1-5.7,6.7-8.5,10.1c0.3,0.4,0.7,0.8,1,1.2c1.3-0.8,2.7-1.5,3.9-2.5c3-2.3,5.8-5,9-7.1c1.4-0.9,3.7-0.5,5.6-0.7
	c0.1,1.5,0.9,3.6,0.2,4.5c-2.6,3.2-5.5,6.3-8.7,9c-2.5,2.1-5.8,3.3-8.3,5.4c-4.7,4.1-9.4,6.9-16,4.3c-5.4-2.1-11-2.2-15,3.1
	c-0.8,1-1.3,2.8-1,4.1c1.1,4.4,2.3,8.8,4,12.9c1.3,3,3.3,5.7,5.2,8.4c3.8,5.5,7.6,11,11.5,16.5c1.6,2.2,3.1,4.6,5.2,6.2
	c10,7.6,20.7,14.4,30.4,22.4c11,9.1,21.6,18.6,31.6,28.8c7.8,7.8,13.5,17.5,17.5,27.8c6.3,16.3,18,28.1,31.4,38.3
	c7.3,5.6,16,9.3,24.1,13.9c0.3,0.2,0.6,0.3,0.8,0.5c5.5,4.3,11.1,8.5,16.6,12.9c0.6,0.5,0.9,1.4,0.7,3c-3.3-1.8-6.8-3.5-10-5.5
	c-6.8-4.1-13.5-8.3-20.1-12.6c-8.1-5.2-16.3-10.1-24-15.9c-5.1-3.9-9.8-8.6-13.7-13.8c-4.2-5.6-7.7-11.8-10.4-18.3
	c-6.9-16.2-17.2-29.7-30.9-40.5c-8-6.3-16.8-11.8-25.2-17.6c-0.3-0.2-0.5-0.3-0.8-0.5c-5.1-4.1-9.7-7.7-16.8-9.5
	c-8-2-15.6-8.4-19.3-17.2c-1.9-4.5-3.5-9.1-5.4-13.6c-0.9-2.2-2.1-4.2-3.2-6.3c-0.5,0.1-1,0.2-1.6,0.4c0,1.1-0.5,2.8,0.1,3.2
	c4.4,3.5,1.6,8.2,0.6,11.1c-1.4,3.9-7.7,4.2-12.3,1.7c-3.3-1.8-6.3-4.4-9.7-6.1c-5.4-2.8-11.2-4.8-16.6-7.7
	c-6.7-3.6-13.3-7.5-19.6-11.8c-2-1.3-3.2-4-4.3-6.3c-0.5-1,0.1-2.5,0.2-3.7c1.3,0.2,2.7,0.1,3.8,0.5c2.5,1,5.1,1.9,7.4,3.4
	c2.3,1.5,4.2,3.1,7.2,3.9c4.4,1.2,7.9,5.1,12,7.4c1.3,0.7,3.9,0.6,5-0.3c4.8-3.6,9.2-7.8,13.9-11.5c2.2-1.7,3.3-2.8,1.4-5.5
	c-2.6-3.8-2-8.1,1.3-11.5c4.2-4.4,8.4-8.9,13-13.1c1.9-1.8,4.8-2.6,7-4.1c4.1-2.9,7.6-6.3,8-11.7c0.1-0.7,0.5-1.5,0.9-2.1
	c5.2-8,2.8-13.9-6.7-16.1c-1.2-0.3-2.5-0.4-3.5-0.9c-2.8-1.3-3.9-3-1.1-5.6C120.4,525.3,121.2,523.7,122.4,522z M163.6,538.8
	c-0.9,0.3-1.7,0.5-2.6,0.8c0.5,1.8,0.9,3.6,1.4,5.4c0.9-0.4,2.5-0.9,2.5-1.2C164.7,542.1,164.1,540.5,163.6,538.8z"/>
<path d="M788.1,750.9c1.8-3.2,3.6-6.5,5.6-9.6c6.1-9.5,11.9-19.3,18.7-28.3c6.9-9.3,16.4-15.8,26.2-22c6.7-4.2,12.7-9.6,19-14.5
	c14.3-10.9,21.5-27,31-41.4c4.2-6.4,9.3-13,17.1-16.5c11.4-5.2,22.8-10.5,33.6-17c10.6-6.4,19.8-14.3,26.1-25.8
	c5-9.1,9.2-19,17.9-25.9c2.9-2.3,3.7-7.4,4.8-11.4c1.3-4.8,1.6-10,3-14.7c1.8-6,0.2-11.8-5.2-15.3c-2.5-1.7-5.6-2.8-7.6-5
	c-2.1-2.2-3.2-5.3-4.9-7.9c-1.6-2.4-3.4-4.6-5.1-6.9c-0.2,0.4-0.4,0.8-0.5,1.3c-3.9,0-7.7,0-12.4,0c-0.2,0.2-1.2,1.1-2.2,2.1
	c-1.2-1-2.2-1.8-3.4-2.7c-2.5,3.2-4.7,6.2-7.2,9c-0.6,0.7-2.2,0.7-3.3,1c-0.2-1.3-1-3.7-0.6-3.9c4.7-2.5,4-7.5,5-11.4
	c0.5-1.9-1.5-5.5-3.4-6.7c-4-2.6-8.7-4.1-13.1-6.1c-0.4-0.2-0.8-0.5-1.5-1c4.4-3.4,8.4-6.5,11.5-8.9c6,3.2,11.7,6.1,17.3,9.1
	c1.7,0.9,3.7,1.7,5.1,3c8.5,8,16.8,16.2,25.1,24.3c3.7,3.6,8,6.8,11.1,10.8c2.1,2.8,3.3,6.8,3.8,10.4c1.5,11.7-2.5,22.7-4.5,34
	c-0.7,3.8-3.9,7.2-6.3,10.5c-3.9,5.4-7.9,10.9-12.3,15.9c-6.7,7.5-13.9,14.7-20.8,22c-1.8,1.9-3.3,4-5.2,5.8
	c-1.9,1.9-3.9,3.9-6.2,5.2c-4.4,2.6-9.1,4.9-13.7,7.3c-4.7,2.4-9.3,5.2-14.2,7.1c-9.8,3.7-18.5,8.9-24.8,17.4
	c-1.5,2.1-3,4.2-4.3,6.4c-6.4,10.7-13.6,20.9-23.3,28.8c-8,6.5-17.3,11.6-25.4,18c-7.2,5.7-14.2,11.9-20.3,18.7
	c-6.1,6.7-10.7,14.7-16.4,21.7c-3.9,4.9-8.5,9.2-12.8,13.7C788.6,751.4,788.3,751.2,788.1,750.9z M947.2,487
	c0.3,0.3,0.5,0.5,0.8,0.8c2-1.6,4.2-3,6-4.8c0.7-0.7,0.4-2.3,0.5-3.5c-1.1,0.3-2.6,0.3-3.1,1C949.7,482.5,948.5,484.8,947.2,487z"/>
<path d="M496.6,334.1c0.7,15.3,0.8,30.6,2.5,45.8c0.8,7.2,4.4,14.2,7.4,21.1c1.9,4.3,4.3,8.7,7.4,12.1c2.8,3.2,6.5,5.1,3.5,10.3
	c-0.7,1.2,1.5,3.8,2.1,5.9c0.9,2.5,2,5.1,2.3,7.7c0.4,3.9,0.4,7.5,2.8,11.3c1.9,3,1.9,7.6-1.6,10.9c-1.4,1.4-3,3.6-3.1,5.4
	c-0.1,7.7-5,11.2-10.8,14.5c-3,1.7-5.7,4-8.6,5.9c-2.3,1.4-10.7-2.9-10.5-5.6c0.1-0.8,2-1.8,3.3-2.3c1.5-0.6,3.3-0.6,4.6-1.4
	c3.1-1.9,6.3-3.9,8.9-6.4c3.3-3.1,3.1-8.5,0.5-12.3c-0.5-0.7-0.2-2.3,0.3-3.2c2-3.2,4.4-6.1,6.4-9.3c0.6-0.9,0.1-2.4,0.1-3.6
	c-1,0.5-2.5,0.7-3.1,1.5c-3.2,4.4-6.1,8.9-9.3,13.7c2.1,1.1,3.3,1.7,4.3,2.2c0.5,4.4-1.2,7.1-5.2,8.7c-4.2,1.6-8.1,3.9-12.1,6
	c-5.1,2.7-5.2,5.2-0.7,8.8c2.6,2,4.7,4.8,7.1,7.2c-0.3,0.5-0.7,1-1,1.6c-3.1-1.5-6.2-3-9.3-4.4c-3.9-1.8-7.9-3.5-11.8-5.1
	c-3.1-1.3-6.4-2.1-9.2-3.8c-2.5-1.4-4.1-3.1-1.5-6.6c1.3-1.7-0.2-5.6-0.8-8.5c-0.6-3-1.9-5.9-2.2-8.9c-0.5-4.8-0.6-9.6-0.6-14.4
	c0-3,5-4.8,7.5-2.6c3.4,3.1,7.4,5.3,5.4,12.1c-1.1,3.9-1.7,8.9-1.7,13.5c0,1.4,0.9,2.9,1.3,4.3c0.5,2,0.8,4.1,1.5,6
	c0.5,1.4,1.5,2.7,2.3,4c1.1-1.2,3.3-2.9,3.1-3.4c-4.4-8.2,2.9-15.2,2.3-23.1c-0.3-4.7,0.4-9.8,2.2-14.1c2-4.8,3-9.5,3.8-14.6
	c0.3-1.9,2.9-3.7,4.8-5.1c5.2-3.9,4.4-9,3-14.2c-2.3-8.6-3.8-17.2-2.8-26.2c0.5-4.3,0-8.6,0.4-12.9c0.9-9.5,2-19,3-28.6
	C495.4,334,496,334,496.6,334.1z"/>
<path d="M873,394.8c-3.4,6.9-3.2,12.9-0.8,18.4c1.4,3.2-0.1,5.2-0.9,7.7c-1.3,4.4-2.9,8.7-3.7,13.2c-0.6,3.7-0.3,7.6-0.2,11.4
	c0,0.7,1.2,1.4,2.5,3c0.5-2.4,1.2-3.9,1.1-5.3c-0.5-8.4,5.4-13,10.6-17.8c0.7-0.7,2.6,0,4,0c-0.2,1.2,0,3.1-0.6,3.5
	c-10.5,6.3-12.1,16.1-10.9,27c0.4,3.4,0.8,6.9,2,10c1.3,3.3,3.9,3.5,6.5,0.8c3.7-4,7.2-8.4,11-12.3c2.1-2.2,5.1-3.5,7.1-5.7
	c1.6-1.7,2.3-4.1,3.7-6.5c1.2,0.9,3.6,2.4,5.7,4.3c0.7,0.6,0.7,2.3,0.6,3.5c-0.1,1.6-0.7,3.2,0,5.2c-1.5,1-3.1,1.9-4.5,3
	c-1.1,0.8-2.8,2-2.7,2.9c0.6,5.9-3.1,9-7,12.3c2.1-0.5,4.2-1,6.3-1.6c0.2,0.4,0.3,0.8,0.5,1.2c-2.4,2-4.7,4.1-7.2,6.2
	c1.7,4,4.1,1.8,6.2,0.6c1.3-0.8,2.2-2.4,3.5-2.9c1.3-0.5,2.9,0.1,4.3,0.7c-10.2,7.8-15.9,7.4-25.2-0.9c-1.2-1.1-2.6-2.3-4.2-2.7
	c-8.6-2.1-14.7-7.5-20.4-13.8c-2.5-2.8-4.3-5.5-4.5-9.6c-0.4-8.4-2.2-16.7-2.3-25.1c-0.1-4.8,2.2-9.6,3.3-14.4
	c0.9-3.9,1.8-7.8,2.3-11.7c0.8-6,1.2-12,1.7-18c0.1-0.6,0.3-1.4,0.1-1.8c-1.7-2.9-2.2-5.6,0.5-8.3c2.1-2.1,4.3-4.2,6.3-6.4
	c2-2.1,4.6-4,5.5-6.5c1.9-5.1,2.9-10.5,4.2-15.9c0.1-0.4-0.1-1,0.1-1.4c1.9-2.9,3.9-5.8,5.9-8.7c2.3,1.8,4.7,3.3,6.7,5.4
	c5,5.2,1.4,10.5-0.1,15.7c-1.2,4-3.3,7.7-4.3,11.6c-2,7.8-3.6,15.7-5.2,23.6c-0.4,1.8,0,3.8,0.1,5.7c0.8,12.2,9.5,18.7,17.9,25.9
	c8.9,7.7,16.7,16.6,24.9,25.2c2.8,2.9,5.6,5.9,7.7,9.3c2.8,4.5-3.2,5.5-4.1,8.6c-1.9-0.7-4.4-0.8-5.4-2.1c-1.6-2-2.5-4.7-3-7.2
	c-1.4-7-5.8-11.1-11.6-14.5c-4.5-2.6-9.2-5-11.8-10.5c-1.8-3.8-5.3-7.3-8.8-9.5c-7.2-4.5-10.8-10.8-12.2-18.8
	C874,399.2,873.6,397.6,873,394.8z M896.3,465.9c-0.3-0.4-0.6-0.8-0.9-1.2c-3.1,2.2-6.3,4.2-9.3,6.5c-0.6,0.5-0.4,2-0.6,3
	c1.1-0.1,2.6,0.2,3.2-0.4C891.3,471.3,893.8,468.6,896.3,465.9z"/>
<path d="M199.1,461.8c4.4-4.7,0.7-8.3-0.9-11.9c-1.7-3.6-3.4-7.1-5.4-10.5c-1.7-2.9-0.4-4.9,1.4-7c2.7-3.1,5.8-6,8.1-9.4
	c3.5-5.3-0.8-13.1-7.4-13.8c0.9,2.6,1.7,5,2.6,7.5c-0.3,0.2-0.6,0.4-0.9,0.7c-3.4-4.2-7.2-8.1-10-12.6c-1.5-2.5-2-6.1-1.7-9
	c1.1-11-7.5-13.1-14.4-11.6c-3.6,0.8-7.5,0.3-11.2-0.1c-2.4-0.2-4.6-1.3-6.8-2c0.5-10.9,1-22.1,1.5-33.2c-0.2,0-0.3-0.1-0.5-0.1
	c-1,3.5-2.5,7-2.8,10.5c-1.1,16-9.9,28.7-17.3,42c-1.6,3-3.8,5.9-4.4,9.1c-1,5.3-5.3,6.4-9,8.7c-4.9,3-9.1,7.2-14,10.1
	c-2.8,1.6-6.5,1.6-9.8,2.2c-2.4,0.4-5.1,0.1-7.2,1.1c-3.2,1.4-6,3.5-9.6,5.8c0.4,1,0.9,2.5,1.7,3.8c2.3,3.8,2.1,7.4-0.8,9.9
	c-2,1.8-3.7,1.6-4.3-1.3c-0.6-3.1-0.9-6.3-1.2-9.5c-0.2-2.8-4.7-7.7-7.7-8.6c-1.1-0.3-1.9-1.4-2.8-2.1c1.3-0.3,3.1-1.3,3.8-0.8
	c2.6,1.9,3.6,0.3,5.3-1.4c3-3,6.3-5.6,9.5-8.4c1.7-1.5,3.4-3.2,5-4.8c-0.3-0.3-0.6-0.7-0.8-1c-2.8,1.7-5.5,3.4-8.9,5.5
	c2.7-9.1,9-12.6,16.7-10.2c2.9,0.9,4,2,1.6,4.8c-1,1.2-1.3,3-2.3,5.4c-3.7,2.5-9.8,4.2-11.9,10.5c0.8,0.3,1.3,0.6,1.3,0.6
	c5.8-6,16-4.9,20.9-12.5c0.6-0.9,1.9-1.6,2-2.5c0.7-6.5,6.2-9.5,10.3-13c4.9-4.2,7.2-9.1,8.2-15.2c0.5-3.1,2.3-6.3,4.3-8.8
	c4.1-5.2,8.5-10.1,13-14.9c3.8-4,5.2-8.6,4.5-13.9c-0.9-7.2,2.1-12.6,7-17.5c1.2-1.2,1.6-3.1,2.5-4.6c1.3-2,2.7-3.9,4-5.8
	c0.5,0.3,1.1,0.6,1.6,0.9c-1,2.9-2.3,5.7-3.1,8.6c-0.3,1.2-0.2,3,0.5,3.8c2.4,2.7,5.1,5.3,7.8,7.7c4.2,3.7,2.7,8.8,3.7,13.3
	c0.8,3.4,1.6,7.2,3.6,9.9c7.8,10.2,16.8,19.5,24,30c4.5,6.5,7.1,14.4,9.6,21.9c0.9,2.7-0.5,6.4-1.6,9.3c-1.3,3.7-3.7,7-5.1,10.7
	c-0.5,1.2,0.3,3.5,1.3,4.6c4.9,5.9,3.1,14-1.3,18.5C201,461.5,199.9,461.5,199.1,461.8z"/>
<path d="M542,519.4c1.4,0.9,2.8,1.8,3.5,2.2c9.3-7.5,18.2-14.9,27.2-22.1c2-1.6,4.4-2.6,6.5-4.1c1.8-1.3,1.9-2.9-0.5-3.7
	c-4.1-1.3-4.3-4.4-3.9-7.8c1.2-10.7,1.2-10.7-1.9-20.7c-5.8,2.8-9.1-1.8-12.5-4.8c-3-2.7-7.8-4.5-6.8-10.3c0.2-0.9-3.3-3.6-4.7-3.4
	c-10.4,2.2-15.1-5.3-20.3-11.7c-2.8-3.4-5.2-7.2-7.8-10.9c0.4-0.4,0.8-0.8,1.2-1.2c3.7,3.3,7.9,6,10.9,9.9
	c4.5,5.9,11.1,7.2,17.2,9.9c2.4,1,5.4,2.6,6.3,4.7c3.5,8.5,10.7,12.3,18.3,15.9c1.2,0.6,2.5,1.2,3.6,1.9c3.3,2.3,6.6,4.8,10,7.3
	c0.8,2.7,1.8,6.1,2.8,9.5c0.7,2.5,1.6,5,1.8,7.6c0.1,1.4-0.7,3.8-1.7,4.3c-4.6,2.1-6.6,6-8.8,10.1c-0.8,1.4-2.9,2-3.5,3.4
	c-6.5,13.6-20.7,20.2-28.8,32.4c-3.1,4.7-7.7,8.5-11.7,12.7c-0.3,0.3-0.7,0.7-1.2,0.7c-7.9,1.4-10.1,8.5-13.9,13.9
	c-3,4.3-5.7,8.9-8.1,13.6c-1.4,2.8-1.9,6.2-2.9,9.5c-4.4-3-6.5-6.4-5.8-11.7c0.8-5.6,0.7-11.3,1-16.9c0-0.6,0.2-1.3,0-1.8
	c-2.9-5.3-1.2-9.6,2-14.3c1.9-2.8,2.3-6.7,3.5-10.5c1.3,1.1,2.4,2,3.4,3c6.5-8.2,6.8-8.3,11.6-3.7c4.2-4.3,5.5-9.3,4.7-15.4
	c-0.4-3.1,1.7-6.6,1.4-9.7c-0.5-5.7-2.3-11.3-2.9-17c-0.6-5.4-0.4-11-0.6-16.4c-0.1-2.1-1.3-4.7-0.4-6.2c2.3-4.3,5-8.6,8.4-12.2
	c2.6-2.8,6.2-4.6,9.5-6.7c0.6-0.4,2.3-0.6,2.4-0.4c0.6,1.3,1.5,3,1.1,4.1c-0.6,1.6-2.3,2.8-3.4,4.3c-1.4,1.9-4.5,3.5-1.5,6.5
	c0.3,0.3,0.1,1.2-0.1,1.7c-3.5,9-3.5,17.9-0.1,26.9c0.3,0.7,0.3,1.5,0.3,2.3c-0.5,5.9-0.8,11.7-1.7,17.6c-0.4,2.7-1.9,5.3-2.9,8
	c-1,1-2.1,1.9-2.8,3c-1.5,2.7-2.8,5.5-4.1,8.2c-1.6,2-3.4,3.8-4.7,5.9c-2.7,4.4-5.1,9-7.7,13.6c-0.2,0.4-0.6,0.8-1,0.9
	c-5.5,2.2-6.1,7.7-8,12.2c-0.8,2-0.5,4.4-0.7,6.9c6.1-8.1,12.5-15.2,17.2-23.3c2.6-4.7,6.1-10,4.8-16.2c2-0.3,4-0.7,6.2-1
	c-1.6,4.3-3.3,8.8-5,13.4c0.3,0.1,0.6,0.3,0.8,0.4c11.5-11.6,23.1-23.2,34.6-34.8c-0.4-0.4-0.8-0.9-1.2-1.3
	c-7.2,5.4-14.5,10.8-21.6,16.4c-0.6,0.5-0.4,2.2-0.6,3.3c-1.6,0-2.9,0-3.7,0C543.8,524.4,542.9,521.9,542,519.4z M514.9,548.4
	c-0.5-0.4-1-0.8-1.5-1.2c-3.1,0.9-4.9,2.7-4.5,5.9c0.5,0.4,1,0.7,1.5,1.1C512,552.3,513.5,550.3,514.9,548.4z M541.4,502.9
	c0.3-2.6,0.7-5.2,1-7.7C537.8,497.3,538.7,500,541.4,502.9z"/>
<path d="M230.4,521.4c-3.3-2.5-6.4-4.8-9.4-7.2c-1.8-1.3-4.1-2.4-5.1-4.2c-1.8-3-3.6-2.3-5.7-1c-4.5,2.8-9,5.7-13.5,8.5
	c-1,0.6-2.4,0.7-3.6,1.1c-0.2-1.6-1.1-3.6-0.5-4.7c1.8-3.7,4.4-7,6.4-10.6c1.4-2.5,2.2-5.3,3.6-7.7c1.9-3.1,4-6,6.3-8.9
	c3.5-4.6,7.1-9.1,10.9-13.5c1.6-1.8,3.4-3.9,5.6-4.6c9.1-3.2,15.5-8.8,20.5-17.2c5.4-9,14-15.2,24.7-15.6c4-0.2,8.7,3.3,12.3,6.2
	c5.5,4.4,10.2,9.7,15.4,14.4c1,0.9,3,0.7,5.4,1.2c3.8,4.3,7.4,3.7,10.7-2.6c0.6-1.1,1.8-2,3.4-3.7c0,2.6,0,4.3,0,6
	c0.4,0.3,0.9,0.6,1.3,0.9c1.4-1.6,3.2-3.1,4.2-4.9c1.6-3,4-3.5,6.5-2.3c1.7,0.8,3.5,2.9,1.1,4.7c-4.4,3.4-4.6,8.7-5.4,13.1
	c-0.9,4.8-2.7,6-6.7,5.7c-1-3.2-1.9-6.5-3.1-9.6c-0.1-0.2-2.1,0.3-3.2,0.5c-0.4,0.6-0.8,1.2-1.2,1.8c1.6,0.7,3.3,1.4,4.7,2.1
	c-1,3-6.7,3.3-2.4,6.9c-6.2,2.2-11.7,4.5-17.4,6.2c-3.6,1.1-7.5,1.3-11.3,1.7c-0.9,0.1-1.8-0.8-2.8-1.2c0.5-1,0.7-2.5,1.5-3
	c4.3-2.6,8.7-5,13.1-7.4c1.2-0.7,2.8-0.9,3.6-1.9c0.5-0.5-0.3-2.1-0.5-3.2c-2.9,1.1-6.5-1-9.1,2.5c-1.8,2.4-4.8,3.8-7.5,5.8
	c-5.5-12.9-5.5-15.3-0.6-14.9c-0.1,2.6-0.3,5.3-0.4,8c0.4,0.1,0.9,0.3,1.3,0.4c3-2.6,6.2-5,9-7.8c0.4-0.4-0.4-2.9-1.3-3.7
	c-4.6-4.1-8.9-8.7-14.2-11.5c-2.8-1.5-8.5-1-10.9,1c-7.2,5.8-13.3,12.7-19.8,19.1c4,4.4,7.4,7.9,10.6,11.6
	c4.9,5.6,3.1,10.8-4.2,12.5c-2.1,0.5-4.1,1.3-6.2,1.8c-7.1,1.7-9.1-0.2-8.1-7.6c-3.5-1-5.8-0.6-7.1,3.6c-1.7,5.7-3.5,11.6-9,15.1
	c-1.9,1.2-3.9,2.1-6.6,3.5c3,1.2,5.2,2.2,7.4,3c6.8,2.5,11.4,7.6,16,12.9c1.6,1.9,1.8,3.9-1.3,4.9c-3.8,1.2-7.4,2.7-11.2,3.8
	c-1.4,0.4-3.1-0.1-4.7-0.2c0.6-1.3,0.9-2.8,1.9-3.7C225.3,525.2,227.5,523.7,230.4,521.4z M236.8,475.2c1.7,2.6,3,4.6,4.6,7
	c1.5-0.9,4.5-1.7,1.9-4.1c-2.2-2.1-1.6-3-0.3-4.8c0.9-1.2,1.1-2.8,1.7-4.6C238.6,467.9,240,474,236.8,475.2z M207.6,502.6
	c0.4,0.5,0.8,1.1,1.2,1.6c4.8-3.5,9.5-6.9,14.3-10.4c-0.5-0.6-1-1.3-1.5-1.9C217,495.5,212.3,499.1,207.6,502.6z"/>
<path d="M958.3,274.7c2,1.2,4.4,1.9,5.9,3.6c7.3,8.1,14.8,16,21.2,24.7c2.8,3.7,3.5,9.1,4.5,13.9c1.8,8.1,2.3,16.3-0.1,24.5
	c-2.7,9.3-5.4,18.6-7.8,28.1c-0.7,2.9-0.3,6-0.6,9.1c-0.8,8.5-2.6,17.1-2.4,25.6c0.3,12.7,3.7,25,8.5,36.9
	c3.1,7.5,5.5,15.3,7.9,23.1c0.7,2.4-1,3.5-3.2,2.7c-1.2-0.4-2.1-1.7-2.9-2.8c-2.4-3.1-4.9-6.1-7-9.4c-0.8-1.2-0.6-2.9-0.9-4.3
	c-0.9-3.3-1.3-6.9-2.9-9.8c-4.2-8-4.3-16.8-6.3-25.3c-2.2-9.6-1.4-19,0.4-28.3c0.7-3.7,3.4-7.1,5-10.7c0.6-1.4,0.8-3,1.1-4.4
	c-0.3-0.2-0.7-0.3-1-0.5c-0.7,0.6-1.5,1.2-2.1,1.9c-5.9,7.7-10.7,15.8-12.7,25.6c-0.7,3.4-4.9,6.2-8.4,10.3c1.2,4,2.8,9.6,4.7,16
	c-0.5,0.7-1.6,2.7-3.1,4.1c-3.1,2.8-1.1,3.9,1.3,5.4c2.1,1.3,3.9,3.1,5.8,4.7c1.2,0.9,2.2,2.3,3.6,2.6c3.6,0.9,4.9,3.4,4.4,6.5
	c-0.6,3.8,1.5,5.8,4.2,7.4c2.5,1.6,4.1,5.2,8.1,4.1c0.2,0,0.6,0.9,0.9,1.4c-6.2,4.1-14.5,1.9-19.5-4.2c-3.6-4.5-8.5-8-11.7-12.7
	c-3.7-5.5-7.2-11.2-7.3-18.5c0-5.4-1-10.9-2.1-16.3c-1.5-7.5,0.4-14.1,5-19.9c2.6-3.3,6.6-5.6,9.5-8.7c2.3-2.5,4.3-5.4,6-8.3
	c3.4-5.9,7.1-11.8,9.6-18.1c4.4-10.9,10.4-21.6,8.3-33.9c-1.7-10-3.9-20.2-10.2-28.6c-3.4-4.6-8-8.3-12-12.5c-1-1-1.9-2.2-2.8-3.3
	C957.5,275.7,957.9,275.2,958.3,274.7z"/>
<path d="M845.2,309.8c0.5,0.6,1.1,1.5,1.9,2.2c5.3,4.8,10.9,9.5,16,14.5c1,1,0.6,3.4,0.8,5.2c-1.7,0-3.9,0.6-5.2-0.2
	c-6-3.6-12.1-7.2-17.4-11.6c-4.6-3.8-8.4-8.6-12.4-13c-1.8-2-3.2-4.6-5.3-6.3c-6.6-5.4-11.5-11.8-14.8-19.9c-1.6-4-5.2-7.4-8.5-10.5
	c-5.3-5-11-9.7-16.7-14.3c-16.2-13.3-34-22.7-55.6-23.8c-9.9-0.5-19.1-4-27.7-8.9c-1.4-0.8-2.5-2.2-3.8-3.3c0.2-0.3,0.4-0.7,0.6-1
	c2.6,1,5.1,2.3,7.7,3c8.5,2.1,17.1,4.3,25.7,6c7.5,1.4,15.4,1.2,22.7,3.4c8.1,2.5,15.8,6.5,23.4,10.5c5.9,3.1,11.2,7.4,17,10.7
	c14.2,8,21.4,22.9,33.2,33.3c6.4,5.6,12.8,10.9,20.8,14.1c1.3,0.5,2.7,0.9,3.6,1.9c3.6,3.6,8,5.7,12.9,6.5
	c7.8,1.3,15.6,2.6,23.5,3.5c2,0.2,4-1.3,6.1-1.6c1-0.1,2.4,0.4,3.1,1.1c0.4,0.5,0.2,2.3-0.4,2.9c-2.1,1.9-4.4,4.8-6.9,5
	c-6.5,0.5-13-0.1-19.5-0.5c-2.5-0.1-5.2-0.3-7.5-1.2C856.7,315.1,851,312.4,845.2,309.8z"/>
<path d="M316.7,434.4c5.9-2.5,11.1-4.8,16.3-6.9c1-0.4,2.6-0.5,3.5,0c6.1,3.5,12.2,3.6,18.4-0.1c0.3,0.3,0.6,0.6,0.8,0.9
	c-1,1.8-2.3,3.6-3.1,5.5c-0.6,1.4-0.6,3.1-0.5,4.6c0,0.3,2.1,1,2.3,0.8c0.9-1.2,1.6-2.6,2.1-4c1.9-5.7,3.2-11.4,7.7-16.1
	c5.8-6.2,10.6-13.3,15.8-20.1c4.6-6.1,9.1-12.3,13.8-18.3c0.8-1,2.6-1.1,3.9-1.6c0,1.5,0.5,3.2,0,4.4c-4.5,11.1-8.8,22.2-13.9,33
	c-1.8,3.8-2.3,7.7-3.4,11.6c-1.1,3.8-4.5,6.9-7,10.2c-0.6,0.8-2.1,1.5-2.1,2.3c-0.1,6.1-6,7.8-8.8,11.8c-2.9,4.1-6.5,7.7-10.3,11
	c-1.3,1.1-3.9,0.8-5.9,1.1c0.1-1.6,0.4-3.3,0.4-4.9c0.1-1.9,0.7-4.2-0.2-5.6c-2.3-4.1-5.2-7.8-7.9-11.7c-1.4-2-0.9-4.9-4.6-6.1
	c-4.2-1.4-8.2-2.1-12.5-1.5C320.1,435,318.5,434.5,316.7,434.4z"/>
<path d="M371.2,528.4c-2.5-4.8,0.6-7.1,3.2-9c4.8-3.5,10-6.3,14.9-9.6c2-1.3,3.6-3.2,5.1-5.1c2-2.5,3.9-5.1,5.3-7.9
	c0.8-1.6,1.3-3.9,0.9-5.6c-1.2-4.6-0.4-8.3,3-11.8c1.4-1.5,2.1-4,2.4-6.1c1.1-7.9,1.9-15.7,2.7-23.6c0.3-3.4,0-6.8,0.3-10.1
	c0.9-8.4,1.8-16.7,3-25c0.1-1,1.5-2.6,2.5-2.7c1-0.1,2.2,1.2,3.1,2c0.4,0.3,0.4,1.1,0.5,1.7c3.4,17.9,4.8,35.9,1.5,53.9
	c-0.8,4.4-4.4,8.3-6.1,12.7c-1.7,4.3-2.9,8.9-3.6,13.4c-0.2,1.1,2,2.7,3.7,4.8c-9.1,5.8-18.3,11.7-28.8,18.3c5.6,0,9.8,0,14,0
	c1.5,0,3.1-0.1,4.6,0.3c0.8,0.2,1.5,1.3,2.2,1.9c-0.7,0.7-1.3,1.9-2.1,2c-1.9,0.4-4,0.2-5.9,0.6c-4.6,0.9-9.7-1.4-14,2.4
	c-0.8,0.7-3.7-1.2-6.3-2.1C375.8,525.1,373.6,526.7,371.2,528.4z"/>
<path d="M933.4,375.1c1,1.1,2,2.2,2.2,2.4c-0.4,3.2-0.6,5.5-0.9,7.8c0.5,0.1,0.9,0.2,1.4,0.3c-0.7,0.9-1.3,2.2-2.3,2.7
	c-1.6,0.9-3.6,2-5,1.6c-1.2-0.4-1.7-2.8-2.4-4.5c-0.8-2.1-1.1-4.6-2.3-6.3c-4.1-5.7-8.7-11-12.7-16.9c-1.6-2.4-2.3-5.6-2.9-8.6
	c-0.9-4.9-3-8.8-6.8-12.1c-6.3-5.5-6.7-12.7-1.6-18.7c4.4-5.1,13.6-5.6,19.2-1.1c1.8,1.4,3.8,2.6,5.4,4.1c1,1,2.3,2.4,2.2,3.6
	c-0.1,1.1-1.6,2.3-2.7,3.3c-2.3,2.3-5.3,4.2-7,6.8c-2,3.3-2.1,6.7,0.6,10.6c3.5,5.1,5.3,11.4,8.4,16.8c1.8,3.1,4.8,5.5,7.2,8.2
	L933.4,375.1z"/>
<path d="M353.3,621.5c-6.8-7.4-11-16.2-13.4-26c-3.2-13.2-3.1-26.6-3.5-40.1c-0.2-5,1.9-8.9,5.1-12.3c4-4.2,7.7-8.4,9.7-14.2
	c1.3-3.7,5-6.7,8.1-9.7c1.1-1,3.4-0.8,5.1-1.2c0.4,2.5,2,5.8,1,7.5c-2.6,4.2-5.9,8.2-9.7,11.5c-4.8,4-7.3,8.7-6.3,14.7
	c1.4,8.7-1.2,17-1.5,25.4c-0.2,5.5-0.6,11.2,0.1,16.6C349.4,603.1,351.5,612.3,353.3,621.5z"/>
<path d="M199.1,472.1c-3.5-3-1.4-4.7,1.1-6.3c1.7-1.1,4.2-1.6,5.1-3.1c4.4-7.4,12.1-11.9,15.9-20c2.2-4.8,7.3-8.9,12.2-11.5
	c5.5-3,9.2-7.3,12.9-12c0.9-1.1,2.8-2.5,3.9-2.2c1.5,0.4,3.3,2,3.7,3.5c2,6.9-5.7,18.5-12.9,19.8c-6.6,1.2-11.7,10.4-9.4,16.9
	c0.3,0.9-0.2,2-0.3,3.7c-4.7-5.1-8.8-4-12.9,0.7c-5.3,6.2-11.5,11.5-17.5,17c-0.7,0.6-2.7-0.2-4.2-0.4c0.2-1.3,0.3-2.7,0.6-3.9
	C197.4,473.5,198.2,473,199.1,472.1z"/>
<path d="M817.1,416.4c-2.1,3.2-5,6.5-6.5,10.4c-2.2,5.5-3.5,11.4-5.1,17.2c-0.1,0.4-0.4,1-0.2,1.3c1.6,3,1.1,5.8-2.1,6.6
	c-1.1,0.3-3-2.9-4.6-4.5c-3-3-6-6-9-9c-0.9-0.9-1.9-1.9-2.8-2.8c-1.1-1.2-2.1-2.6-3.3-3.7c-2.1-2.1-4.5-4-6.4-6.3
	c-0.5-0.6-0.1-3,0.6-3.5c1-0.7,3.2-1.2,4-0.6c5,3.5,9.2,2.9,13.1-1.7c4.2-4.8,9.6-7.8,15.2-10.5c0.9-0.4,2.9,0.5,3.6,1.4
	C815,412,815.7,414,817.1,416.4z M808.1,420.3c-0.5-0.5-1.1-1-1.6-1.6c-2.2,2.2-4.3,4.4-6.5,6.6c0.6,0.6,1.2,1.1,1.8,1.7
	C803.9,424.8,806,422.5,808.1,420.3z"/>
<path d="M923,486.1c3.7,4.7,7.3,9.5,11,14.2c0.8,1.1,1.8,2.1,2.8,3c4.2,3.5,8.9,6.5,12.5,10.5c7.7,8.6,15.1,3.5,20.8-2.7
	c0.8-0.8,1.9-1.4,2.8-2.1c0.2,1.3,0.9,3.2,0.4,4c-2.4,3-5.1,5.7-7.8,8.4c-3.5,3.4-4.3,8.3-3.2,13.3c1.5,6.6,2.4,13.4,2.9,20.2
	c0.4,5.6-4.3,8.5-8.1,11.4c-0.5,0.4-3.7-1.8-4.5-3.4c-0.7-1.3-0.4-3.9,0.4-5.3c4.2-7.1,1.8-14.7,2.2-22c0-0.5,0-1-0.2-1.4
	c-4.6-10.1-9.6-19.8-19.1-26.4c-2.3-1.6-3.7-4.6-5.6-6.9c-2.6-3.1-5.3-6.1-7.7-9.4c-0.9-1.2-1.1-2.9-1.6-4.3
	C921.7,486.7,922.3,486.4,923,486.1z"/>
<path d="M432.5,370.9c0.2,1.7,0.6,3.5,0.6,5.2c0.1,13.6-0.4,27.3,0.4,40.9c0.5,7.7,3.6,15.2,4.7,22.8c0.5,3.7-0.5,7.8-1.7,11.4
	c-1,2.8-7.9,1.7-8.4-1.8c-0.8-5.8-5.6-11.2-1.3-17.9c1.5-2.3-0.8-6.9-1-10.4c-0.4-8.4-1.2-16.9-0.7-25.3c0.4-7.3,2.4-14.5,3.9-21.6
	c0.3-1.3,1.6-2.4,2.4-3.6C431.8,370.7,432.2,370.8,432.5,370.9z"/>
<path d="M933.5,375.3c-0.5-2.1-1-4.1-1.6-6.4c0.8,0.3,1.9,0.7,2.8,1c5.7-3.7,11.2-7.2,17.8-11.5c-7.8-3.2-7.5-9.4-9.1-14.8
	c-0.4-1.5-1.5-3-2.6-4.2c-2.9-3.1-6.3-5.9-9-9.2c-0.9-1.1-0.6-3.2-0.9-4.8c1.4,0.4,3,0.4,4,1.2c9.7,7.8,18.4,16.6,25.9,26.6
	c1.8,2.4,0.4,6-3.3,8.7c-6.3,4.5-12.6,9.1-19.1,13.4c-1.2,0.8-3.3,0-5-0.1C933.4,375.1,933.5,375.3,933.5,375.3z"/>
<path d="M318,514.7c0.6,1.6,1.3,3.1,2,5c1.8-2.3,3.9-4,4.6-6c0.7-1.9-0.1-4.3-0.1-6.4c0-1.4,0.3-2.9,0.8-4.2c0.1-0.3,1.3-0.3,2-0.4
	c0.2,1.3,0.6,2.6,0.6,3.8c0.1,5.2-2.1,10.3,0.7,15.7c3.2,6,5.1,6.9,11,3.6c0.8-0.5,2.4-0.4,3.3,0.1c0.5,0.3,0.7,2,0.4,2.9
	c-1.9,5.8-3.2,11.9-8.1,16.3c-1.5,1.3-2.2,3.3-3.3,5c-1-2.1-1.9-4.2-2.9-6.2c-3.9-7.2-7.7-14.5-11.9-21.5c-1.8-2.9-1.3-5.2-0.4-7.7
	C317.1,514.7,317.5,514.7,318,514.7z"/>
<path d="M307.5,542.4c-2.5-2-4.6-3.2-6-5c-2.5-3.1-4.9-6.5-6.9-10c-1.4-2.3-2.3-5-3.1-7.6c-0.4-1.1-0.2-2.6,0.2-3.7
	c0.6-1.5,1.4-3,2.4-4.4c1.1-1.4,3.2-3.9,3.6-3.7c2,1.1,4.4,2.6,5.2,4.6c3.1,7.6,5.6,15.4,8.4,23.1
	C312.8,539.9,309.7,541,307.5,542.4z"/>
<path d="M595.3,461.6c-5.6-1.9-5.6-6.4-4.5-10c1.7-5.8-0.7-7.6-5.7-8.9c-4.7-1.2-9.2-7.6-9.4-11.9c-0.2-3.1,1.2-4.7,4.2-4.8
	c3.9-0.1,7.4,0.3,9.7,4.5c1.6,3,4.8,5.2,6.7,8.1c2.4,3.7,4.5,7.4,0.9,12.1c-1.5,2-0.7,5.8-1,8.8
	C596.1,460.1,595.7,460.6,595.3,461.6z"/>
<path d="M517.3,507.7c-3.6,1.3-7.1,2.5-10.4,3.7c0.8,2.5,2,4.9,2.2,7.3c0.1,1.2-2,2.5-3.1,3.7c-0.8-1.2-1.5-2.4-2.3-3.6
	c-1.9-2.6-3.8-5.3-5.8-7.8c-0.6-0.8-2-1-2.6-1.7c-0.9-1.1-1.4-2.5-2.1-3.7c1.4-0.3,2.8-0.8,4.2-0.9c4-0.3,7.9-0.3,11.9-0.9
	c1-0.1,1.7-1.9,2.6-2.9c1.5-1.6,3.2-4.4,4.6-4.3c2.5,0.2,5.2,1.6,5.2,5.3c0,1.8,1.2,3.7,1.9,5.5c0.2,0.6,0.8,1,0.9,1.6
	c0.3,2.3,0.6,4.5,0.7,6.8c0,0.2-2.2,0.9-2.7,0.5c-2.2-1.6-5.5-2.7-4.4-6.6C517.9,509.5,517.6,509,517.3,507.7z"/>
<path d="M295,425.8c-0.3,6.9,2.2,10.6,7.6,12.2c3.6,1.1,7.9,7.5,6.9,11.2c-0.3,1.1-3,2.6-4.2,2.3c-2.3-0.6-4.6-2-6.4-3.6
	c-4.2-3.7-8.4-7.6-12.2-11.8c-3.5-3.8-2.7-9.8,1.5-12.5c1.3-0.8,3.5-0.8,5.2-0.4C294.3,423.5,294.8,425.4,295,425.8z"/>
<path d="M425.1,509.2c-4.4,0-8.9,0-13.7,0c0.3-3.7,1.7-5.6,5.1-5.4c4.7,0.3,9.8-1.4,13.9,2.7c0.8,0.8,2.9,0.4,4.4,0.5
	c3.1,0.2,6.2-0.1,9.2,0.5c1.4,0.3,2.5,2.1,3.8,3.2c-1.1,0.8-2.1,2.1-3.4,2.4c-2,0.6-4.3,0.4-6.4,0.9c-3.3,0.7-6.6,1.8-9.9,2.4
	c-2.4,0.5-4.8,0.6-7.3,0.5c-0.7,0-2-1.2-2-1.9c0-0.7,1.1-1.7,1.9-2.1c1.5-0.7,3.1-1.1,4.6-1.7C425.4,510.7,425.3,510,425.1,509.2z"
	/>
<path d="M400.6,394.7c0,4.2,0.5,8.4-0.1,12.4c-1.2,7.8-1.2,15.9-5.7,22.8c-1.3,2-3.3,3.6-5,5.4c-0.6-0.3-1.3-0.7-1.9-1
	c0.7-2.4,1.5-4.7,2.2-7.1c0.6-1.8,1.2-3.7,1.5-5.5c1.6-9.3,2.9-18.6,6.7-27.2C399.1,394.6,399.9,394.7,400.6,394.7z"/>
<path d="M294.2,506c-2.6,2.3-4.8,4.8-7.6,6.6c-1.4,0.9-4.4,1.2-5.4,0.3c-4.4-4-8.7-8.2-12.2-13c-1-1.3,0.7-4.6,1.1-7
	c1.7,0.8,3.7,1.3,4.9,2.6c4.2,4.1,8.1,8.6,12.3,12.6C290.2,508.1,290.8,502.1,294.2,506z"/>
<path d="M100.3,523.7c0.6-4.4-0.8-7.2-4.2-9.4c-1.3-0.8-2.6-3.5-2.1-4.7c0.9-2.3,3.1-3.5,6.1-2.3c3.2,1.4,5.1,2.9,4.9,7.1
	c-0.3,5.6,0.7,11.2,0.9,16.8c0,1.1-1.1,2.2-1.6,3.4c-1-0.9-2.7-1.7-3-2.8C100.6,529.1,100.6,526.1,100.3,523.7z"/>
<path d="M567.9,482.4c5.1,10.2-9.7,26.1-21,33.4c0.9-2.6,1-4.4,1.9-5.5c1.8-2.2,4-4.2,6.1-6.2c4.8-4.5,7.7-9.9,9.3-16.2
	C564.8,486.2,566.4,484.7,567.9,482.4z"/>
<path d="M982.9,532.7c-0.8,1.8-1.4,3.6-2.4,5.3c-3.2,5.3-8.5,5.3-11.3-0.2c-0.6-1.2-0.2-3.8,0.8-4.9c4-4.8,8.4-9.3,12.8-13.8
	c0.5-0.5,1.8-0.9,2.4-0.6c0.6,0.3,1.2,1.7,0.9,2.3c-0.6,1.7-1.5,3.4-2.6,4.7c-2.8,3.1-5.9,5.8-8.6,8.9c-0.9,1-0.8,2.8-1.2,4.2
	c1.5-0.5,3.3-0.6,4.4-1.6c1.5-1.3,2.5-3.3,3.7-4.9C982.1,532.2,982.5,532.5,982.9,532.7z"/>
<path d="M790.7,525c-2.1,0-4.2,0.4-6.2-0.1c-6.6-1.5-13.2-3.3-19.8-5.2c-0.9-0.2-1.5-1.5-2.2-2.3c0.7-0.5,1.4-1.3,2.1-1.3
	c6.9,0.5,14.2-1.1,20.4,3.2c2.1,1.4,4.1,2.9,6.2,4.3C791.1,524.1,790.9,524.5,790.7,525z"/>
<path d="M556.4,541.6c0.9-1.3,1.8-2.7,2.8-4c3.2-4.2,6.5-8.4,9.8-12.6c0.5-0.6,0.9-1.3,1.5-1.7c1.8-0.9,3.6-1.6,5.5-2.5
	c-0.3,1.9-0.1,4.4-1.1,5.8c-3.9,5.1-8.1,10-12.6,14.7c-1.1,1.2-3.5,1.1-5.3,1.7C556.9,542.5,556.6,542,556.4,541.6z"/>
<path d="M576.8,534.1c3.8-8.4,28.3-19.8,32.8-16.1C599,523.2,588.3,528.5,576.8,534.1z"/>
<path d="M2.3,485.1c4.9-10.1,12.7-17.5,21.6-23.9C20.2,472.4,9.1,476.7,2.3,485.1z"/>
<path d="M16.2,504c3.3-2.5,6.7-4.8,9.8-7.5c1.5-1.3,2.3-3.5,4-4.7c1.3,4.9-4,12.8-11.1,19C18,508.6,17.1,506.2,16.2,504
	C16.2,503.9,16.2,504,16.2,504z"/>
<path d="M759.3,776.6c9.2-7.3,18.2-14.3,27-21.2C784.3,761.7,765.2,777.1,759.3,776.6z"/>
<path d="M442.6,448.9c1.1-6,2.2-11.9,3.4-18.9C450.3,435.4,448.5,445.6,442.6,448.9z"/>
<path d="M728.3,483.6c-0.9,1.1-1.8,2.2-2.7,3.3c-1.6,1.9-2.9,4.1-4.8,5.7c-1.1,1-2.9,1.3-4.5,1.6c-0.6,0.1-2.1-1.1-2.1-1.2
	c0.5-1.3,0.9-3,1.9-3.7c3.5-2.5,7.3-4.6,10.9-6.9C727.6,482.8,727.9,483.2,728.3,483.6z"/>
<path d="M524.3,483.4c-1.8-2.2-3.8-4.3-5.4-6.6c-0.5-0.7,0.1-2.1,0.2-3.2c1.2,0.4,3,0.4,3.3,1.1c1.3,2.5,2.1,5.3,3,8
	C525.1,482.9,524.7,483.2,524.3,483.4z"/>
<path d="M298.1,785.1c3.5,3.1,7,6.2,10.4,9.3c-0.5,0.6-1.1,1.2-1.6,1.8c-3.4-3.2-6.9-6.3-10.3-9.5
	C297.1,786.2,297.6,785.7,298.1,785.1z"/>
<path d="M218.3,421c2.3,2.5,4.7,5.1,7.5,8.2c-1.4,0.6-3.1,1.5-3.2,1.4c-1.9-2.8-3.7-5.8-5.4-8.7C217.5,421.6,217.9,421.3,218.3,421z
	"/>
<path d="M276.4,460c-0.3-3.7-0.5-5.9-0.7-8.1c0.5-0.2,1.1-0.4,1.6-0.6c1.2,1.7,2.6,3.3,3.3,5.1C280.8,456.9,278.6,458.2,276.4,460z"
	/>
<path d="M120.7,541.1c-0.5,2-1.1,4-1.6,6c-1-0.4-3-1-3-1.2c0.5-1.9,1.2-3.7,1.9-5.6C118.9,540.6,119.8,540.8,120.7,541.1z"/>
<path d="M519.3,527.8c-0.8-1.9-1.6-3.2-1.4-3.5c1.4-1.6,3.1-2.9,4.8-4.2c0.4,0.7,1.4,1.7,1.3,2C522.8,523.8,521.3,525.4,519.3,527.8
	z"/>
<path d="M24.2,514c1.4-2.4,2.7-4.8,4.1-7.4C30,510.4,29.2,512.2,24.2,514z"/>
<path d="M42.5,529.1c2.5,2.7,5,5.4,7.6,8.1c-0.4,0.4-0.8,0.7-1.1,1.1c-2.5-2.7-5.1-5.4-7.6-8.1C41.8,529.8,42.1,529.4,42.5,529.1z"
	/>
</svg>
