<?xml version="1.0" encoding="utf-8"?>
<!-- Generator: Adobe Illustrator 21.0.0, SVG Export Plug-In . SVG Version: 6.00 Build 0)  -->
<svg version="1.1" id="Layer_2" xmlns="http://www.w3.org/2000/svg" xmlns:xlink="http://www.w3.org/1999/xlink" x="0px" y="0px"
	 viewBox="0 0 1000 1000" style="enable-background:new 0 0 1000 1000;" xml:space="preserve">
<path d="M266.1,722.9c-1.1-0.6-2.3-1-3.3-1.8c-5.9-4.9-12.2-9-19.6-11.4c-3.8-1.2-7.5-2.7-11.4-3.6c-3.3-0.8-6.6-0.9-10-1.2
	c-2.6-0.2-5.2,0-7.8-0.3c-2-0.3-3.9-1.3-5.9-1.9c-0.8-0.2-1.7,0-2.5-0.2c-1.7-0.4-3.3-0.8-4.9-1.4c-0.8-0.2-1.5-0.6-1.9-0.8
	c-0.8,1.2-1.6,2.1-2,3.2c-0.4,1.2-0.5,2.5-0.7,3.7c-0.1,0.7-0.4,1.3-0.5,2c-0.6-0.5-1.4-0.8-1.7-1.4c-0.9-1.7-1.1-4.1-2.4-5
	c-2.8-2-6.2-3.2-9.6-4.8c-0.6,1.9-1,3.4-1.4,4.8c-1.9-0.4-1.9-0.4-2.8-5.8c-2.3,1-2.3,1-2.3,3.2c-0.1,4.7-0.3,9.5-0.5,14.2
	c0,0.6-0.4,1.2-0.6,1.8c-0.3,0-0.6,0.1-0.9,0.1c-0.3-1.3-0.9-2.5-1-3.8c-0.1-4.4-0.1-8.8,0-13.2c0-1.9-0.6-2.7-2.5-2.5
	c-2.4,0.2-4.8,0.4-7.5,0.6c0,3.1,0,6.3,0,9.4c0,1,0.1,2,0,3c-0.1,0.8-0.6,1.5-0.9,2.3c-0.4-0.7-1-1.5-1-2.2c-0.1-2.8,0-5.6,0-8.4
	c0-1.4,0-2.9,0-4.4c-4-1.3-7,0.9-10.2,2.3c-1,0.5-1.9,1.4-3,1.7c-2.5,0.6-2.9,2.1-2.5,4.3c0.4,2.1,0.7,4.3,1.1,6.6
	c-0.7,0.2-1.3,0.4-2.2,0.7c-0.9-2.9-1.8-5.6-2.7-8.4c-0.7-2.3-5.7-6.3-8.1-6c-1.1,0.1-2.2,1.1-3,2c-1.7,2-6.5,3-8.6,1.6
	c-2.8-1.9-5.8-1.2-8.8-0.6c-1.9,0.3-3.8,0.7-5.7,1c-1.1,0.1-2.3,0-3.4,0c0,3.9,0.2,7.8,0,11.7c-0.3,5.2-1.2,10.3-1.5,15.5
	c-0.2,5.3,0.1,10.6,0.2,15.9c0,5.6,0,11.2,0,16.8c0,0.9-0.1,1.8-0.2,3.3c-2-1.6-2.2-3-2.2-4.9c0.1-8.9,0.1-17.7-0.2-26.6
	c-0.1-3.9-0.8-7.9-1.4-11.8c-0.7-4.3-1.8-8.6-2.5-12.9c-0.3-2.1-0.1-4.3-0.1-6.7c-0.5,0-1.3,0-2.1,0c-4.1-0.2-4.3,0-4.9,4
	c-0.2,1.2-0.7,2.3-1.1,3.7c-2.2-1.4-0.6-3.9-1.9-5.7c-2.5-1.1-5-1.2-7.7,0.6c-1.1,0.8-3,0.4-4.5,0.7c-1.6,0.4-3.2,1-4.8,1.5
	c-2.8,0.8-5.7,1.6-8.5,2.5c-1.5,0.5-2.9,1.2-4.4,1.8c-7.5,2.8-13.6,7.7-19.8,12.5c-0.6,0.5-1.5,0.7-2.2,1.1
	c-0.2-0.3-0.4-0.5-0.7-0.8c0.9-1,1.6-2.1,2.6-2.9c6.1-4.4,11.9-9.5,19.1-12.3c1.6-0.6,2.4-1.4,1.7-3.4c-0.6-1.5-0.6-3.3-0.6-4.9
	c-0.1-7.9,0-15.7,0-23.6c0-2.2-0.3-4.5-0.4-6.8c-7.8-1.3-14.5,0.4-20.7,4.9c-7.7,5.7-15.6,11.3-23.2,17.1c-3.1,2.4-6,5.1-9,7.7
	c-0.6,0.5-1.2,1-1.9,1.5c-0.2-0.2-0.5-0.5-0.7-0.7c2.2-2.4,4.3-5,6.7-7.3c6.6-6.4,13.1-12.7,19.9-18.9c4.5-4.2,9.1-8.3,14.1-12
	c3.5-2.6,7.8-4.1,11.6-6.3c6.7-3.8,13.3-8,20.2-11.5c5.5-2.8,11.2-5.4,17-7.3c4.6-1.5,9.6-1.8,14.5-2.7c1.9-0.3,3.8-0.7,5.5-1.4
	c3.2-1.3,3.8-3.9,2.6-7.1c-3.5-9.4-11.3-14.5-19-19.6c-1-0.6-1.9-1.2-2.9-1.9c0.1-0.2,0.2-0.4,0.3-0.6c1.8,0.8,3.7,1.4,5.3,2.4
	c6.6,4,13.1,8.2,18.7,13.8c2.2,2.2,5.7,3,8.6,4.4c0.3,0.1,0.8,0,1,0.2c2.3,1.9,3.8,0.3,4.4-1.5c0.6-1.8,3.1-2.7,2.2-5.1
	c-0.1-0.2,1-1,1.2-0.9c3.6,2.2,7.1,0.4,10.6-0.3c5-1,9.7-2.8,13.4-6.4c2.2-2.1,3.9-4.8,5.9-7.2c0.7-0.9,1.4-1.9,2.2-2.7
	c4.4-4.5,4.2-10.5-0.6-14.4c-1.7-1.4-3.6-2.7-5.5-3.9c-1.2-0.7-1.3-1.2-0.8-2.6c1.4-3.9,3.5-7.9,3.5-11.8c0.1-6.5,1.9-13.1-0.1-19.7
	c-0.3-1.1,0.8-3,1.8-4.1c2.6-3.2,2.5-4.3-1.2-6.3c-0.4-0.2-0.8-0.6-0.5-1c1-4.2,1.9-8.4,2.9-12.6c0.5-2.2,1.6-4.3,1.9-6.4
	c0.3-2,0.1-4.2-0.2-6.3c-0.3-2-0.9-3.9-1.5-6.1c-1,0.2-2.4,0.7-3.8,0.9c-0.6,0.1-1.5-0.3-1.9-0.7c-0.2-0.3,0.1-1.2,0.4-1.7
	c1.4-2,2.8-3.9,3.9-6.4c-1.7,0.6-3.5,1.1-5.2,1.7c-1.6,0.6-3.4,1.1-4.8,2c-1.1,0.6-2,1.7-2.6,2.8c-0.6,1.2-0.1,3.3-2.2,3
	c-0.8-0.1-1.3-1.8-2.2-3.1c-1.7,0.7-4.5,0.6-4.3,4.6c-1.1-0.9-1.8-1.4-2.7-2.1c-1.5,9.2-2.1,18.4,0.1,27.5c0.2,0.8,0.3,1.8,0,2.4
	c-0.4,0.7-1.3,1.1-2,1.7c-0.4-0.7-1-1.4-1-2.1c-0.2-6.2-0.2-12.4-0.6-18.5c-0.2-2.8-0.8-5.6-1.6-8.3c-0.7-2.3-3-1.7-4.7-1.9
	c-3.3-0.4-6.6-0.5-10.5-0.8c2.5-3.5,5.6-5.7,8.7-7.9c8.2-6.1,17.9-8.4,27.1-12.1c2.2-0.9,4.3-1.8,6.5-2.7c-1.2-1.3-2.4-2.5-3.4-3.7
	c-0.4-0.5-0.8-1.3-0.8-2c0-4.7,0.2-9.4,0.2-14c0-3.5-0.8-4-4.3-3.3c0,4.2,0.1,8.4,0,12.6c0,0.7-0.7,1.4-1.1,2.2
	c-0.3-0.7-0.9-1.4-0.9-2.1c-0.1-7.1,0-14.2,0-21.3c0-0.7,0.2-1.5-0.1-2c-2.4-3.7-0.5-7.6-0.7-11.4c-0.1-2.2-0.4-4.5-0.8-6.7
	c-0.6-3.6-1.5-7.2-1.8-10.8c-0.6-7.8-3.5-14.8-7-21.6c-0.8-1.6-2.8-2.6-4.3-4c-0.5,0.6-1.1,1.2-1.9,2.1c-0.5-0.8-1.2-1.4-1.5-2.2
	c-0.5-1.2-0.6-2.4-1.1-3.6c-0.8-1.9-1.9-3.6-4.4-3.4c-0.9,0.1-1.9-0.4-3-0.6c-0.7,1.2-1.6,2.5-2.8,4.6c-1.4-1.5-2.6-2.7-3.6-4.1
	c-0.9-1.4-1.5-3-2.2-4.6c-0.3,0.1-0.7,0.2-1,0.3c-0.1,2.5-0.3,5-0.4,7.6c-0.2,0-0.3,0-0.5,0c-0.2-2.4-0.5-4.9-0.7-7.4
	c-2.6-0.1-3,1.1-2.9,3c0.1,4.6,0.1,9.2,0,13.9c0,0.9-0.4,1.8-1.2,2.7c-0.3-6.1-0.6-12.3-0.9-18.6c-1.2-0.3-1.9,0-2,1.7
	c-0.1,2.1-0.7,4.2-1.5,6.3c0-2,0-4,0-6c-0.3-0.1-0.5-0.2-0.8-0.3c-0.4,0.9-1.3,1.9-1.3,2.8c0.2,7.1,0.6,14.1,0.8,21.2
	c0,0.7-0.6,1.4-0.8,2.2c-0.2,0.8-0.4,1.8-0.4,2.6c0.4,3.2,0.8,6.3,0.7,9.7c-0.6-1.3-1.4-2.5-1.7-3.8c-1.7-6.9-0.6-13.9-0.8-20.9
	c-0.2-7.4-0.2-14.8-0.4-22.1c0-0.6-0.8-1.6-1.5-1.8c-3.7-1.3-7.2-3.5-11.4-2.7c-0.5,0.1-1.1-0.7-1.7-1c0.5-0.3,1-0.9,1.6-0.9
	c6.9-0.6,13.8-1,20.8-1.6c5.4-0.4,10.8-1.1,16.2-1.4c1.3-0.1,3.1-0.8,3.9,1.3c0.1,0.3,1.9,0.2,2.6-0.2c1.6-0.8,3.1-2,4.7-2.7
	c2.4-1.1,5-1.9,7.4-3c2-0.9,2.7-2.4,2.2-4.6c-0.4-1.8-0.6-3.8-0.6-5.6c-0.1-2.4-1.6-4.6-3.7-5.4c-0.5-0.2-0.8-0.8-1.1-1.3
	c-0.5-0.7-1-1.5-1.5-2.3c-0.4,0.1-0.7,0.1-1.1,0.2c-0.6,5.4-1.1,10.9-1.7,16.9c-0.5-1.1-1.1-2-1.2-2.9c-0.3-5.1-0.4-10.2-0.7-15.2
	c-0.1-1.5-0.7-2.9-1.4-4.3c-0.9-1.8-2.1-3.5-3.2-5.4c0.2,0,0,0-0.1,0c-2.4,1.2-3.2,2.8-2.9,5.8c0.4,4.8-0.3,9.7-0.3,14.6
	c0,1.5,0.8,3,0.9,4.6c0.1,1.1,0.5,2.8-1.5,2.8c-1.8,0-1.4-1.6-1.4-2.7c0-9.2-0.3-18.4,0.1-27.6c0.2-5.4-1.7-9.7-4.8-14.3
	c-0.3,1.2-0.5,2.1-0.8,3.6c-1-3,0-6.3-3.9-7.9c0,4.4,0,8.4,0,12.4c-0.3,0-0.7,0-1,0c-0.4-2.9-1-5.8-1.2-8.8
	c-0.2-3.5-1.1-5.9-4.2-8.3c-3.7-2.8-7.6-5.2-11.9-6.6c-3.1-1-6.4-1.3-9.7-1.6c-0.6-0.1-1.8,1.3-1.9,2c-0.6,5.7-0.9,11.5-1.3,17.2
	c0,0.5-0.2,1-0.4,1.5c-1.6-0.2-2.3-0.9-2-2.5c1-6,0.1-11.8-1-17.7c-0.2-1.1-1.5-2-2.4-3c-0.4,0.1-0.8,0.3-1.2,0.4c0,2.8,0,5.6,0,8.4
	c-0.4,0-0.8,0-1.2-0.1c0-1.5,0-3.1,0-4.6c0-4.4-0.7-5-5-4.7c-1.3,0.1-2.5-0.1-3.8,0.1c-1.7,0.2-3.6,0.2-5.2,0.9
	c-5.3,2.4-10.7,4.7-15.7,7.8c-5,3.2-9.5,7.2-14.5,11c0.4-0.9,0.6-2,1.2-2.6c5.1-5.1,10.6-9.8,17.1-13.1c2.6-1.3,5.1-2.7,7.6-4.1
	c5-2.7,10.3-4.1,16.1-4c5.4,0.1,10.8-0.4,16.2-0.1c4,0.3,7.9,1.4,11.8,2.3c8.6,2.2,16.7,5.9,24.6,9.7c5.3,2.6,10.6,5.2,15.7,8.2
	c2.9,1.6,5.4,3.9,8.1,5.9c1.7,1.2,3,0.8,3.3-1.2c0.3-1.7,0.4-3.6,0.1-5.3c-0.6-4.2-1.4-8.3-2.1-12.5c-0.1-0.8,0.2-1.7,0.6-2.5
	c2,9.4,4.5,18.5,10,26.5c0.8,1.1,1.7,2.1,2.6,3.1c4.2,4.6,8.2,9.4,12.7,13.8c1.5,1.5,4.1,2,6.1,3c2.2,1.1,4.5,1.9,6.4,3.3
	c3.1,2.3,6.6,3.2,10.1,4.2c5.2,1.5,8.6,5.4,11.4,9.7c1.8,2.9,3,6.1,4.3,9.2c0.3,0.8,0.3,1.8,0.1,2.8c-0.4-0.6-0.9-1.2-1.3-1.9
	c-1.7-3.5-3.8-6.7-6.1-9.9c-1.9-2.7-4.1-4.4-6.8-5.8c-4.2-2-7.4-1.4-10.5,2.2c-0.2,0.2-0.5,0.4-1,0.8c-0.2-0.6-0.3-1-0.4-1.5
	c0,0-0.2,0-0.2,0c-0.6,1.7-1.7,3.4-1.8,5.2c-0.3,4.5,2.5,7.3,6,9.6c0.8,0.5,1.6,1,2.4,1.5c3.3,2,3.3,2,6.5,0.7
	c1.5,4.2,3.1,8.4,4.6,12.5c1.6,4.1,3.1,8.3,4.7,12.4c0.8,1.9,1.8,3.8,2.3,5.8c1.1,4.1,3.9,6.6,7.1,8.8c1.6,1.1,2.9,2.3,3.2,4.6
	c0.4,2.9,1.9,5.6,3,8.3c0.1,0.3,0.6,0.5,0.9,0.8c0.6,0.6,1.3,1.2,1.9,1.8c-0.1,0.2-0.2,0.4-0.4,0.6c1.8,0.2,3.7,0.4,6.1,0.6
	c-0.3,1.4-0.5,2.7-0.7,4c-0.2,1-0.4,2-0.4,2.9c0.2,3.2,0.5,6.4,1.1,9.5c0.2,1,1.4,2.2,2.4,2.6c1.3,0.5,2.9,0.4,3.2-1.7
	c0.5-3,1-6,1.5-9c0.1-0.6,0.3-1.1,0.7-2.4c3.1,5.3,5.7,10.2,8.8,14.7c3.2,4.7,3.6,10,4.4,15.3c0.1,0.8-0.3,1.7-0.6,3.1
	c-1.7-2.3-3-4.1-4.4-5.8c-0.5-0.5-1.7-1.1-2.1-0.9c-1.2,0.8-3.1,2.1-3,3c0.3,2.3,1.3,4.4,1.6,6.8c0.1,1.2,1.8,2.4,2.9,3.2
	c2.2,1.6,4.5,3,7,4.2c1.4,0.7,3.1,0.9,4.8,1.3c1.8,0.4,2.4,1.2,2.5,3.2c0.3,6.5,3.5,11.7,8.5,15.8c0.5,0.4,1.1,0.8,1.6,1.3
	c2.9,3.5,6.5,3.8,10.7,1.9c1.1,3.5,2.1,7,3.4,10.4c1.7,4.2,4.7,7.5,8.2,10.1c3.1,2.3,6.9,3.6,10.2,5.7c1,0.6,1.9,2.3,1.8,3.5
	c-0.6,10.5,2.7,20,7.8,28.9c1.8,3.1,3.3,6.4,5.2,9.4c0.6,0.9,1.7,2.3,2.5,2.2c1.7-0.1,4,1.2,4.9-1.7c0.4-1.4,1.4-2.6,2.3-4.3
	c0.3,3.4,1.1,6.5,0.8,9.5c-0.5,5.2,1.7,9.4,3.9,13.8c2.8,5.6,7.5,9.5,11.7,13.9c0.5,0.5,0.9,1,0.9,1c-2.4,1.9-4.7,3.6-6.9,5.5
	c-0.4,0.3-0.3,1.7,0.1,2.3c3.2,4.8,6.9,9.2,9.7,14.2c1.7,3.1,2.3,6.9,3.2,10.5c1.3,4.9,2.4,9.9,3.6,14.8c0.6,2.5,3.7,3.9,7,3.4
	c0.9-0.2,1.8-0.3,2.6-0.5c0.1,0.2,0.2,0.4,0.2,0.6c-2,1-3.9,2.1-6,2.9c-1.5,0.5-1.9,1.3-1.9,2.8c0.1,4.1,0,8.2,0,12.8
	c-0.7-1-1.2-1.6-2-2.6c-0.2,1.1-0.5,2-0.5,2.9c0.1,3.9,0.4,7.9,0.5,11.8c0.1,3.4,0,6.8,0,10.2c0,1.9,0.1,3.8,0,5.7
	c-0.1,0.8-0.5,1.6-1.4,2.5c-0.5-1-1-2-1.8-3.4c-1.1,7-1.6,13.4-1,20.1c0.5,5.7-0.2,11.4-0.2,17.2c0,3.7,0.2,7.4,0.4,11.1
	c0.3,3.9,0.4,7.8,1.2,11.5c0.9,4,0,7.9,0.2,11.8c0,0.6-0.5,1.2-0.8,1.7c-2.7-1.5-3.6-3.4-3.2-6.1c0.3-2.5,0.6-5,0.6-7.5
	c0.1-10.7-0.1-21.4,0.1-32c0.1-6-0.3-11.9-3.2-17.3c-0.4-0.7-0.3-1.6-0.4-2.4c-0.2-5.6-0.3-11.2-0.6-16.8c-0.1-2.2-0.4-4.5-1.1-6.7
	c-0.9-2.9-1.2-5.7-0.5-8.6c0.2-0.7-0.5-1.5-0.7-2.3c-0.3,0-0.6,0.1-0.9,0.1c-0.3,3.1-0.6,6.2-0.9,9.4c-0.4,4.5-0.8,9.1-1.1,13.6
	c-0.1,1.3,0.2,2.7,0.2,4c0,1.4-0.3,2.9-0.4,4.3c-0.3,0-0.6,0-0.9,0c-0.3-2.1-0.7-4.2-0.8-6.2c-0.4-8.1-0.7-16.3-1.1-24.4
	c-0.2-3.4-0.8-6.8-0.8-10.2c0-1.2,1-2.5,1.9-3.5c1.5-1.8,1.5-3.3-0.2-4.8c-2-1.8-3.7-3.6-3.6-6.8c0.1-2.7-2.4-3.8-6.7-3.5
	c0,5.8,0.1,11.6,0,17.4c0,1.2-0.6,2.3-1,3.5c-0.3-1.2-0.9-2.3-1-3.5c-0.1-4.1,0-8.3-0.1-12.4c0-0.9-0.3-1.9-0.5-3.3
	c-0.9,0.9-1.5,1.4-2.1,2c-1.1-1.3-2-2.7-3.3-3.7c-1.7-1.4-3.6-2.6-5.6-3.6c-7.7-3.6-16.2-4.2-24.4-6.2c-5.6-1.3-11.2-0.5-16.7-0.8
	c-2.3-0.1-4.6,0.9-7,1.3c3-1.9,5.9-3.9,9.7-3.4c6.4,0.7,12.5-1,18.5-2.8c3.8-1.1,5.1-5,5.9-8.7c0.1-0.6,0-1.2,0.3-1.7
	c3.1-5,1.1-9.6-1.2-14c-1.3-2.5-3.3-4.7-5.1-6.9c-0.6-0.8-1.8-1.1-3.1-1.9c-0.4,7-0.8,13.5-1.2,20c-0.3,0-0.5,0-0.8,0.1
	c-0.2-1.5-0.6-3-0.5-4.5c0.1-3.6,0.4-7.2,0.4-10.8c0.1-3.8-0.1-7.5,0.1-11.3c0.1-2.3-1.5-2.5-2.9-2.6c-0.6,0-1.3,1.4-1.7,2.3
	c-0.3,0.7-0.2,1.6-0.4,2.5c-0.2,0-0.4,0.1-0.7,0.1c-0.2-1.5-0.5-2.9-0.9-5.1c-6.6,0-13.3,0-20,0c-0.6,0-1.2-0.6-1.8-0.9
	c0.6-0.5,1.2-1.5,1.9-1.5c6.4-0.4,12.2-2.7,17.5-6.1c2.8-1.8,4.1-4.2,3.8-7.6c-0.1-1.3,0.8-2.6,0.9-3.9c0.2-1.9,1.4-1.7,2.6-1.8
	c0.3,0,0.8-0.7,0.9-1.1c0.5-1.9,0.8-3.9,1.2-5.9c0.3-1.6-1.3-2.9-3.1-2.2c-3.4,1.1-5.2,2.6-4.9,6c0.2,1.8-0.4,3.6-1.2,5.5
	c-2.6-3.3-0.7-7.2-1.9-11.1c-2,0.8-3.9,1.7-6.4,2.7c-0.1-0.4-0.6-1.3-0.5-2c0.5-4.8,1.1-9.6,1.6-14.4c0.2-1.7-0.2-3.5,0.3-5
	c1.1-3.3-0.9-5.5-2.5-7.8c-1-1.4-1.8-1.3-3.8,0.3c-0.8-1.1-1.6-2.2-2.7-3.9c-0.6,1.5-1.4,2.6-1.5,3.7c-0.8,7.6-1.4,15.2-2.2,23.5
	c-0.5-1.7-1.3-2.9-1.3-4.2c0-4.5,0.2-9,0.4-13.5c0.1-2,0.3-4.1,0.2-6.1c-0.2-2.8-0.6-5.6-1.4-8.5c-4.3,5.1-2.7,11.3-3.3,17
	c-3,0.7-3.4,0.5-3.6-2.3c-0.3-3.4-0.1-6.8-0.6-10.1c-0.5-3.4-1.5-6.7-2.3-10.1c-0.4-1.8-0.9-3.5-1.3-5.1c-1.3,0.6-2.3,1-3.2,1.5
	c-0.3-0.9-0.7-1.8-0.9-2.7c-0.6-2.2-1.1-4.4-1.8-6.5c-0.5-1.3-1.1-2.5-3.1-1.4c-1.3,0.7-2.8-1-2.7-2.7c0-0.4,0.3-0.8,0.3-1.2
	c-0.2-1.3-0.4-2.6-1.3-4.2c-0.5,0.9-1.4,1.8-1.6,2.8c-1.2,7.3-2.4,14.6-3.3,22c-0.4,3.5,0.1,7,0.1,10.5c0,0.9,0.1,1.9,0.1,2.8
	c-0.1,2.9-0.3,5.8-0.4,9c-2.4-1-1.8-2.8-1.9-4.2c-0.1-3.1,0-6.2-0.1-9.3c0-4.7,0-9.4-0.2-14.1c-0.2-6.4-0.4-12.8-1-19.1
	c-0.3-2.9-1.1-5.9-2-8.7c-1.7-5.4-2.7-6-8.6-5.3c0.6-1.2,0.9-2.1,1.4-2.9c0.7-1.2,1.7-2.3,2.4-3.5c0.3-0.6,0.5-1.6,0.2-2
	c-0.4-0.4-1.4-0.7-2-0.5c-2,0.7-4,1.5-5.9,2.6c-0.5,0.3-0.7,1.6-0.7,2.4c0.2,5.7,0.5,11.5,0.8,17.4c-3-0.5-2.9-2.4-2.9-4.2
	c0-4.4,0-8.9,0-13.9c-2.1,0.5-4,0.6-5.8,1.3c-4.3,1.7-8.5,3.6-12.8,5.4c-1.4,0.6-3.5,0.8-2.6,3.3c0.1,0.2-0.1,0.4-0.3,0.7
	c-0.5,0.8-1.7,2-1.4,2.5c0.6,1.2,1.8,2.1,2.8,3c0.2,0.2,0.6,0.3,1,0.5c0,0.4,0.1,0.8-0.1,1c-5,5.6-3.9,12.3-3.6,18.9
	c0.1,3.1,0.2,6.2,0.4,9.3c0.1,1,0.2,2.2,0.7,3c2.1,3.3,2.1,6.8,1.8,10.5c-0.3,4.9-0.2,10,0.5,14.9c0.7,5.6,2.2,11.1,3.4,16.6
	c0.4,1.6,1.2,3.2,1.8,4.8c0,0.1-0.1,0.3-0.2,0.4c-2.5,2.7-2,3.4,0.5,6.2c3.2,3.7,7.4,3.4,11.4,3.8c6.9,0.8,13.8,1.4,20.7,2.1
	c2.1,0.2,4.1,0.8,6.2,1.3c0.4,0.1,0.8,0.6,1.2,0.9c0,0.3-0.1,0.6-0.1,0.9c-2.7,0.2-5.4,0.3-8.1,0.6c-2.1,0.2-4.2,0.6-6.3,0.8
	c-1.3,0.2-2.7,0.1-4,0.3c-4.1,0.6-8.1,1.2-11.5,4.1c-2,1.7-0.8,4-1.8,5.8c-0.1,0.3-0.1,0.6-0.2,1.1c-0.7-0.1-1.3-0.2-2.3-0.4
	c-1.8,9.2-2.8,18.3-2.3,27.6c-3-2.3-1.1-5.5-2.7-8.3c-0.2,1.1-0.6,2.2-0.6,3.2c0,16.8,0,33.6-0.1,50.5c0,2.1-0.6,4.1-0.9,6.4
	c-5.1-2.6-5-2.9-4-7.8c1-4.9,1.4-9.9,1.9-14.9c0.1-1-0.3-2.2-0.8-3.1c-3.9-7.4-7.9-14.7-11.9-22.1c-0.1-0.3-0.3-0.5-1.1-0.7
	c0,4.3,0,8.7,0,13c-0.3,0.1-0.6,0.2-0.9,0.3c-0.7-1.1-1.4-2.1-2.6-3.9c-0.4,4.3-1.1,7.9-1.1,11.5c-0.1,7.3,0.2,14.6,0.3,21.9
	c0,2.2-0.2,4.4-0.1,6.7c0,0.5,1.1,1.5,1.3,1.5c4.1-1.9,7.8,0.9,11.8,0.9c1.8,0,3.5,0.9,5.3,1.4c0.5,0.1,1,0.4,1.4,0.3
	c4.5-1.1,8.2,1.3,12.1,2.8c0.8,0.3,1.6,0.8,2.4,0.7c5.8-0.5,10.7,2.2,15.9,4c9.1,3.2,16.6,9,24.6,14c1.3,0.8,2.6,1.8,4,2.5
	c2.1,1.1,3.4,2.7,4.8,4.6c1.7,2.3,4.3,3.9,6.6,5.7c0.2,0.2,0.4,0.4,0.6,0.7C266.5,722.2,266.3,722.5,266.1,722.9z M108.7,666
	c-1,1.9-2.1,3.1-2.3,4.4c-0.5,5.7-0.7,11.5-1,17.3c-0.1,1.2,0.7,1.8,2,1.6c2-0.3,3.9-0.7,5.9-1c3.6-0.5,7.1-0.8,10.7-1.4
	c3.2-0.5,6.4-0.9,9.6-1.7c5.4-1.4,11.1,0.7,16.4-1.3c0.1-0.1,0.3,0,0.5,0c3-0.4,5.9-0.7,8.8-1.3c0.5-0.1,1.2-1.3,1.3-2
	c0.2-2.6-0.2-5.3,0.1-7.8c0.7-5.5-2-9.3-5.6-12.3c-1.7,0.2-3.2,1-4.3,0.5c-1.1-0.5-1.6-2.1-2.7-3.7c-0.8,1.4-1.9,2.5-2.1,3.7
	c-0.5,3.4-1.5,4-4.8,2.3c-0.7,0.5-1.3,1-2,1.5c-0.3-0.4-0.6-0.6-0.7-0.8c-0.6-1.7-1.5-2.5-3.6-1.9c-1.7,0.5-3.8,0.7-5.3,0.1
	c-1.8-0.7-3.1-1.3-4.9-0.2c-0.8,0.5-1.9,0.5-2.2,0.6c-1.4-1.2-2.7-2.8-3.4-2.6c-1.2,0.4-2.2,1.8-2.8,3c-0.6,1.3-0.8,2.9-1.1,4.4
	c-0.4,1.9-0.7,3.9-1.2,6.5C112,671,110.6,668.9,108.7,666z M166.5,407.7c3.9,3.9,5.4,8.4,6,13.1c0.9,6.1,1.7,12.2,4.5,17.8
	c3.4,6.7,4.6,14.3,8.9,20.6c2.1,3.1,4.9,4.7,7.7,6.6c1,0.7,2.8,1,3.9,0.6c5.4-1.7,10.8-3.6,16.1-5.7c1-0.4,2.1-2,2.2-3.1
	c0.1-1.1-0.9-2.4-1.6-3.5c-3.3-4.9-6.5-9.9-9.9-14.7c-1.3-1.8-3.2-3.3-4.9-4.8c-2.1-1.8-5.1-2.6-6.1-5.5c-0.1-0.4-0.8-0.6-1.8-1.3
	c0.6,6.3,1.1,12,1.7,17.7c-0.6-0.2-1-0.6-1-0.9c-0.9-7.1-1.8-14.2-2.7-21.4c-0.1-0.9-0.3-1.8-0.7-2.5c-1.7-3.5-4.9-5.3-8.2-6.9
	C176,411.9,172.6,407.7,166.5,407.7z M59.6,705.9c0.2,0,0.8-0.1,1.2-0.4c7.1-4.2,14.6-7.3,22.5-9.4c2.4-0.7,3.2-1.9,3.1-4.3
	c-0.3-5.1-0.4-10.3-0.7-15.5c-0.2-2.6-0.7-5.2-1.1-7.8c-1.9,3.5-1,7.7-3.7,10.9c-0.9-2.1-1.7-3.8-2.5-5.6c-0.4,0.1-0.7,0.2-1.1,0.3
	c0,5.5,0,11,0,16.6c-0.3,0.1-0.7,0.1-1,0.2c-0.4-1-1.1-2-1.2-2.9c-0.2-5.4-0.1-10.9-0.3-16.3c-0.1-1.7-1.1-3.4-1.6-5.1
	c-0.4,0.1-0.8,0.2-1.2,0.3c0,2,0,4.1,0,6.1c-0.3,0.1-0.6,0.2-0.9,0.3c-0.4-0.8-0.7-1.6-1.1-2.4c-0.4-0.7-0.7-1.7-1.2-1.9
	c-0.8-0.2-1.9,0.1-2.5,0.6c-0.7,0.7-0.9,1.9-1.5,2.8c-0.5,0.7-1.4,1.7-2.1,1.6c-1.6-0.1-2.2,0.4-2.4,1.8c-0.3,1.7-0.9,3.4-0.9,5.1
	c0,6.6,0.3,13.1,0.5,19.7c0,0.2,0,0.3,0,0.5C59.8,702.7,59.7,704.3,59.6,705.9z M189.8,481.3c0,0.2-0.1,0.4-0.1,0.6
	c0.2,0,0.4,0.1,0.5,0c7.9-3,15.9-5.8,23.8-8.9c9.3-3.7,18.5-7.7,27.9-11.4c3.4-1.3,7-3.1,10.1,1.3c-1.2-7-4.9-12.2-8.8-17.8
	c0,1.6-0.3,2.9,0.1,4c0.4,1.4,0.1,2-1,2.6c-2.6,1.4-5.1,3.3-7.8,4.4c-5.6,2.4-11.4,4.3-17,6.6c-5.3,2.1-10.4,4.6-15.7,6.8
	c-2.6,1.1-5.3,1.9-7.8,2.9c-3.1,1.3-6.1,2.8-9.4,4.4C186.4,478.4,188.1,479.8,189.8,481.3z M154.6,628.6c-0.3,0.3-0.7,0.5-1,0.8
	c-1.5-0.3-2.9-0.6-4.4-0.8c-1.8-0.3-3.3-0.1-3.8,2.1c-0.9,3.6-1.5,7.3-4,10.3c-0.9,1.1-1.1,3-3.3,1.8c-0.2-0.1-1.2,0.8-1.4,1.3
	c-0.3,0.8-0.2,1.7-0.1,2.5c0.1,0.7,0.4,1.6,0.8,1.8c0.5,0.2,1.6,0.1,2-0.3c2.2-2.2,4.3-1.7,6.5-0.2c1.6,1.1,2.9,1.2,4.3-0.4
	c1.9-2.1,2.3-1.9,3.3,0.6c0.3,0.8,0.7,1.5,1.1,2.3c2.7-3.1,3.2-4.1,3.1-6.7c-0.1-2.1-0.3-4.2-0.8-6.2
	C156.3,634.4,155.4,631.5,154.6,628.6z M125.2,504.5c1.1,0.1,2.1,0.3,2.9,0.2c1.9-0.2,3.8-0.5,5.6-0.9c2.6-0.5,5.3-0.9,7.7-1.8
	c7-2.6,14-5.5,20.9-8.4c0.8-0.3,1.7-1.4,1.7-2.1c-0.1-1.6-0.7-3.1-1.1-4.5C149.1,490.7,136.5,495.5,125.2,504.5z M171.3,393.3
	c-1.5,1.2-3.1,2.1-4.2,3.5c-1.3,1.6,0.2,2.9,1.4,3.7c1.3,0.9,2.8,1.5,4.2,2.2c2.8,1.6,5.5,3.5,8.5,4.7c1.2,0.5,3.1-0.2,4.5-0.8
	c0.7-0.3,1.6-2.1,1.3-2.6c-1.3-1.9-2.7-3.6-4.4-5.1c-1.3-1.1-3.2-1.6-4.8-2.4C175.7,395.6,173.7,394.6,171.3,393.3z M94.3,693.4
	c-0.3-1.2-0.5-2.1-0.7-3c-0.3-1.1-1.2-2.3-0.9-3.2c1.7-5.5-1.2-10.6-1.4-15.9c0-0.1-0.3-0.1-0.7-0.4c-3.3,7.5,0.3,15.5-3.1,23.3
	C90.3,693.9,92.2,693.7,94.3,693.4z M192.2,649c2.8-4.2,1.6-18.9-1.3-21.4c-0.6,1.8-1.1,3.5-1.7,5.5c-0.6-0.8-1-1.2-1.3-1.6
	c-0.2,0.1-0.3,0.2-0.5,0.3C189,637.5,190.6,643.3,192.2,649z M165.9,673.2c-3.7,2.5-1.8,5.7-2.4,8.5c2.6,0.3,4.9,0.7,7.8,1
	c-0.7-4.5-1.4-8.6-2-12.7c-0.3,0-0.7,0-1,0.1c-0.1,2.2-0.2,4.4-0.4,6.6c-0.1,0.7-0.5,1.3-0.8,1.9c-0.4-0.6-1-1.2-1.1-1.9
	C165.8,675.7,165.9,674.6,165.9,673.2z M299.9,602.1c2.3-4.1-1.5-6-3-8.6c-0.5-0.9-2.1-1.3-3.6-2c0,2.5,0,4.5,0,5.7
	C295.9,599.1,297.9,600.6,299.9,602.1z M185.9,471.1c0.5-0.1,0.9-0.3,1.4-0.4c0.2-4.1-1.7-7.6-3.9-10.9c-0.2,0.1-0.5,0.1-0.7,0.2
	C183.8,463.7,184.9,467.4,185.9,471.1z M136.3,633.7c0.7-1.6,1.4-2.9,1.9-4.4c0.2-0.5-0.2-1.6-0.6-1.8c-0.6-0.3-1.7-0.3-2.3,0.1
	C133.1,628.8,133.3,631.3,136.3,633.7z M350,656c-2.1,2.3-1,5.5,2.3,6.4C353.4,659.9,352.7,657.9,350,656z M162.7,658.1
	c2-1.9,2.3-5.8,0.8-8.4C161.2,651.3,161,653.6,162.7,658.1z M192,609.8c-2.9,2.2-2.9,5.8,0,8.6C192,615.3,192,612.7,192,609.8z
	 M303,606.8c0.9,2.2,1.6,4.1,2.4,6c0.1,0,0.3,0,0.4,0c-0.1-2.6-0.2-5.1-0.4-8.3C304.3,605.6,303.6,606.2,303,606.8z M173.8,386.1
	c-1.1,1.2-2.3,2.2-2.2,2.6c0.4,0.9,1.4,1.6,2.3,2.1c0.2,0.1,1.6-1.1,1.5-1.7C175.4,388.2,174.6,387.4,173.8,386.1z M335.5,611.2
	c-1.4-1.1-2.2-2-3-2.1c-0.7,0-2,1.1-1.9,1.6c0.1,0.8,1,2,1.7,2.2C333.1,613,334,612.1,335.5,611.2z M175.6,640.2c-1.5-1-2.3-2-3.1-2
	c-0.7,0-2,1.2-1.9,1.7c0.1,0.8,1,2,1.8,2.1C173.1,642.2,174,641.2,175.6,640.2z M255.4,481.7c0,2.9,1.2,4.7,4.2,5.8
	C259.3,484.7,258.4,482.6,255.4,481.7z M124.6,328.9c0,2.4,0,3.9,0,6c1.2-0.9,2.7-1.7,2.6-1.9C126.6,331.8,125.7,330.7,124.6,328.9z
	 M302,599.4c-0.2,2.2-0.3,4-0.5,5.8c0.2,0,0.3,0.1,0.5,0.1c0.8-0.9,1.6-1.8,2.4-2.7C303.6,601.6,303,600.7,302,599.4z M189,470.1
	c1.2-0.5,2.2-0.9,3.4-1.4c-1.3-1-2.3-1.7-3.8-2.8C188.8,467.6,188.9,468.6,189,470.1z M194.4,414.7c-0.3,0-0.5,0-0.8-0.1
	c-0.2,0.6-0.8,1.4-0.6,1.9c0.4,1,1.2,1.8,1.8,2.8c0.3-0.2,0.6-0.3,0.8-0.5C195.3,417.4,194.9,416,194.4,414.7z M81.7,660.3
	c-0.3,0-0.6-0.1-1-0.1c-0.2,1.3-0.4,2.6-0.7,4.5C82.5,663.2,83.1,661.9,81.7,660.3z M165.5,395.8c0.8-1,1.3-1.8,2-2.7
	c-1.2-0.2-2.1-0.3-3.4-0.4C164.7,393.8,165,394.6,165.5,395.8z"/>
<path d="M680.8,636.7c-0.2-0.1-0.6-0.3-0.7-0.3c-2.6,2.5-6.6,3.5-7.4,7.8c-0.7,4.3-1.8,8.5-2.8,13.4c-0.9-1.5-1.5-2.5-2.2-3.6
	c-1.4,1.6,3,4.7-1.4,5.6c-0.4,2.6-0.7,5.5-1.4,8.3c-0.7,2.6-2.1,5.1-2,7.9c0,0.3-0.2,0.8-0.4,0.9c-4.4,1.7-3,6-3.9,9.1
	c-1.3,4.6-1.6,9.4-2.1,14.2c-0.4,4-0.5,8-1.1,12.1c-3.1-6.2-1.3-13.4-4.5-20.5c-0.5,1.5-0.9,2.3-1,3.2c-0.4,3.7-0.7,7.4-1.1,11.2
	c-0.2,0-0.4,0-0.6,0c-0.4-7.9-0.8-15.8-1.1-23.7c-0.4,0-0.7-0.1-1.1-0.1c-0.8,4.2-1.5,8.4-2.3,12.7c-1.2-0.8-1.2-0.8-2.1-5.7
	c-2.5,2-2.8,3.8-2,7.1c0.4,1.9-0.1,4-0.3,6c-0.2,3-0.3,6-0.5,9c0,0.5-0.1,0.9-0.3,2.1c-0.7-1.4-1-2.2-1.4-2.9
	c-0.2,0-0.5-0.1-0.7-0.1c-0.7,3.4-1.7,6.7-2.1,10.1c-0.3,3.3,0.1,6.7,0,10c-0.1,2.7-0.3,5.4-0.5,8c-0.2,0-0.5,0-0.7,0
	c-0.5-4.7-0.9-9.3-1.4-14c-3.1,13.6-6.7,27.1-5.4,41.3c-0.3,0-0.7,0-1-0.1c-0.2-3.1-0.6-6.1-0.5-9.2c0-3.6,0.7-7.1,0.6-10.7
	c-0.1-3.6-0.7-7.2-1.1-10.9c-1.9,0.1-1.6-1.4-1.1-2.8c1-3.1,1.7-6.1,0.7-9.3c-1.3-3.9-2.6-7.9-4.1-11.7c-0.4-0.9-1.3-1.6-2.6-3.1
	c-0.4,1.9-0.9,3.1-0.9,4.3c-0.1,8.5,0,16.9,0,25.4c0,0.5,0.1,1.1,0,1.5c-0.3,0.7-0.7,1.3-1.1,1.9c-0.3-0.6-0.9-1.2-0.9-1.8
	c-0.1-3.5,0-7.1,0-10.9c-2.3,0.5-2-1.1-2-2.4c0-1.5,0.3-3.1-2-3.4c0,8.6,0,17.2,0,25.9c0,4.6,0,9.1,0,13.7c0,0.9-0.6,1.7-0.9,2.6
	c-0.3-0.8-1-1.7-1-2.5c-0.1-12.9,0-25.9-0.1-38.8c0-0.9-0.1-1.7-0.1-2.6c-0.2,0-0.5,0-0.7,0c-0.8,10.1-1.5,20.3-2.3,30.4
	c-0.4,0-0.7,0.1-1.1,0.1c-0.5-1.3-1.1-2.7-1.5-3.7c-0.9,0.7-2.1,1.2-2.6,2.1c-0.9,1.5-1.8,3.3-2,5c-0.7,7.8-1.6,15.6-1.5,23.4
	c0.2,7.1-1.7,14-1.7,21c0,0.3-0.4,0.7-0.6,1c-0.1-0.1-0.2-0.2-0.3-0.2c-0.3-5.9-0.6-11.7-1-17.6c-0.2-3.2-0.8-6.3-1-9.5
	c-0.1-2.3,0.4-4.7,0.4-7c-0.1-5.3-0.4-10.7-0.5-16c-0.1-4.5-0.2-8.9-0.1-13.4c0-1.7,1-3.4,1-5.1c0-2-0.7-4.1-1.1-6.1
	c-0.4-0.1-0.7-0.1-1.1-0.2c-0.2,0.5-0.4,1.1-0.6,1.6c-0.2-0.1-0.5-0.2-0.7-0.3c-0.1-0.9-0.4-1.9-0.3-2.8c1.1-6.6,0.2-13.2-0.8-19.7
	c-0.2-1.6-1.5-3-3.8-2.7c-0.1,1.6-0.3,3.1-0.4,4.6c-0.2,0-0.5,0-0.7,0.1c-0.2-0.5-0.4-0.9-0.5-1.4c-0.2-1-0.1-2.1-0.6-2.9
	c-0.5-0.8-1.6-1.3-2.5-2c-0.5,0.8-1.4,1.6-1.5,2.5c-0.4,4.6-0.6,9.2-0.9,13.8c0,0.5-0.3,0.9-1,1.4c-0.4-6-0.7-12.1-1.1-18.3
	c-3,0.5-5.7,0.9-8.3,1.3c-0.7,0.1-1.5-0.1-2.2-0.2c0.3-0.8,0.5-1.8,1.1-2.4c1.9-2.2,4.2-4.1,5.8-6.4c1.5-2.1,2.2-4.8,3.3-7.1
	c0.3-0.6,1-1.1,1.8-2c-0.9-2.1-2.3-4.8-3-7.6c-0.6-2.8-0.4-5.8-0.6-9.1c-3,1.6-3.8,3.6-3.9,6.3c0,2.3-0.7,4.5-1.6,6.8
	c0-3.1,0-6.2,0-9.4c-5.1,1.9-6.7,3.4-6.1,9.3c0.3,3.4-0.1,6.9-0.2,10.4c-0.3,0-0.6,0-0.9,0c-0.3-2.3-0.7-4.6-0.7-6.9
	c0-4,0.3-8,0.5-12c0-0.5,0.5-1,0.9-1.4c3.1-4.5,5.2-9.5,6.7-14.7c1.5-5.1,3.5-10.2,5.1-15.3c0.5-1.5,0.5-3.3,0.3-4.9
	c-0.3-2.3-1.6-3.5-4.1-4.1c-2.6-0.7-5.1-2-7.5-3.3c-1.5-0.8-2.6-0.7-3.8,0.4c-3.3,2.9-6.7,5.8-10.3,8.9c3.5,3.2,6,6.7,7.1,11.2
	c1.5,6.5-0.1,12.4-4.5,17.3c-3.9,4.3-6.4,8.8-5.7,14.7c0.2,1.7,0,3.4,0,5.2c-0.3,0-0.5,0-0.8,0c-0.1-0.7-0.2-1.3-0.2-2
	c0-3.1,0.1-6.3-0.1-9.4c0-1-0.4-2.6-0.9-2.7c-1.2-0.3-2.6,0-3.8,0.3c-0.6,0.2-1,1-1.3,1.3c-0.9-0.4-2-1.1-2.5-0.9
	c-0.7,0.4-1.2,1.6-1.3,2.5c-0.4,3.1-0.5,6.1-1.4,9.2c0-3.7,0-7.4,0-11.7c-0.9,0.9-1.3,1.4-1.8,1.9c-0.4-1.4-0.8-2.6-1.1-3.9
	c-0.3,0-0.6,0-0.8,0c0,1.2,0,2.3,0,3.5c0,2.3,0.3,4.6-0.1,6.8c-1.5,8.6-0.7,17.2-1,25.8c0,0.3-0.2,0.6-0.7,0.9c0-10.3,0-20.6,0-31.5
	c-2,3.7-2.2,10.4-1.2,13.8c0.3,1-0.5,2.3-0.5,3.4c-0.1,2.5,0,5,0,7.5c-0.2,0-0.5,0-0.7,0.1c-0.3-1.7-0.7-3.4-0.7-5.1
	c-0.2-8.7-0.2-17.4-0.7-26c-0.1-2.3-1.9-4.4-2.9-6.6c-0.3,0.1-0.6,0.1-1,0.2c-0.3,2.2-0.6,4.4-0.9,6.7c-0.2-0.1-0.5-0.2-0.5-0.2
	c-0.5-5.8-1.7-11.6-1.4-17.3c0.7-13.3,13.5-22,25-17.9c3.7,1.3,6.8,0.7,9.7-1.7c3.7-3,7.8-5.6,8.8-10.8c0.6-3.2-1.2-6.6-4.2-7.8
	c-0.3-0.1-0.5-0.3-1.3-0.8c2-1.7,3.7-3.3,5.6-4.8c4.3-3.3,7-7.7,8.4-12.7c0.9-3.4,1.1-7.1,1.1-10.7c0.1-11.5,0.3-23-0.1-34.5
	c-0.1-4.3-1.9-8.6-2.3-12.9c-0.5-6.5-6.5-8.4-9.8-12.5c-1.6-2-3.6-3.8-5.3-6.3c1,0.3,2.2,0.3,3.1,0.9c4.2,2.9,8.3,5.9,13.2,9.4
	c-0.9-4.5-1.2-8.5-2.7-12c-1.5-3.5-4.2-6.6-6.8-10.4c4.4,1.3,6.1,5.4,10.1,7.1c-0.8-4.3-1.4-8.3-2.2-12.3c-0.3-1.3-1-2.4-1.6-3.6
	c-1.4-2.9-3.4-5.7-0.4-8.7c0.4-0.4,0.4-1.1,0.4-1.7c0.3-6.8,1.6-13.6,0.7-20.6c-0.5-4.3,0.5-8.9,0.8-13.3c0.2-3.4-1.3-6.4-2.9-9.2
	c-0.7-1.2-1.7-2.3-2.5-3.5c-1.5-2.5-4.1-3.7-7-3c-0.6,0.1-1.1,0.3-2.2,0.7c0,10.7,0,21.5,0,32.3c-0.4,0.1-0.7,0.1-1.1,0.2
	c-0.3-1.1-0.8-2.3-0.8-3.4c-0.1-6-0.1-12-0.1-18c0-0.5-0.2-1-0.4-2c-0.4,1.2-0.7,1.8-0.8,2.5c-1.5,6.8-3.2,13.5-4.3,20.4
	c-0.8,5.5-1,11.1-1,16.6c0,4.4,0.8,8.8,1,13.2c0.2,3.6,1.3,7.3-0.7,10.8c-0.3,0.5-0.3,1.3-0.1,1.7c2,3.9,0.8,8.1,1.2,12.1
	c0.2,2.2,0.9,4.4,1.3,6.6c0.4,2.5,0.6,5.1-1.3,7.1c-0.6,0.7-1.9,1.6-2.3,1.4c-1-0.5-2.1-1.6-2.3-2.6c-0.3-1.5,0.2-3.1,0.3-4.7
	c0.5-4.4,1.2-8.8,1.5-13.1c0.2-3.5-0.3-7.1-0.3-10.7c0-4.7,0.4-9.4,0.3-14c-0.1-7.6-0.2-15.1-0.5-22.7c-0.4-8.1-0.8-16.2-1.6-24.3
	c-0.4-4.1-1.9-8-2.4-12.1c-0.4-3.7-0.6-7.5,2.7-10.5c0.7-0.7,0.7-2.2,1.1-3.3c1.5-4.5,2.5-9.3,4.6-13.5c2.4-4.9,3.8-9.8,3.3-15.2
	c-0.2-2.7,0.9-4.7,2.8-6.4c0.3-0.2,0.5-0.7,0.7-0.6c1.3,0.1,2.9-0.1,2.4-1.7c-0.6-1.9-1.6-4.3-3.1-5c-4.2-2.1-5-3.4-3.6-7.9
	c0.2-0.7-0.3-1.7-0.5-2.6c-0.3-1-0.7-1.9-1.1-3c0.9,0.1,1.2,0.2,1.4,0.2c0-3.2,0-6.4,0-9.6c-0.3-0.1-0.5-0.2-0.8-0.3
	c-0.7,1.3-1.3,2.6-2,3.9c-1.3-1.3-0.9-2.6-0.4-4.3c1.4-4.8,3.5-9.6,2.1-14.9c-0.3-1.3,0-2.8,0-4.3c-0.1-6-0.7-11.8-2.8-17.5
	c-0.9-2.5-1.3-5.2-2.3-7.7c-1.4-3.5-3.1-6.8-4.6-10.2c-0.9-2.1-1.4-4.4-2.3-6.5c-0.8-1.9-2-3.6-3.5-5.4c-0.8,3.4-4.1,5.5-3.2,9.5
	c0.5,2.1-0.3,4.5-0.3,6.7c-0.1,3.7,0.2,7.3,0,11c-0.2,4.5-0.7,8.9-1.1,13.4c-0.2,0-0.4,0.1-0.7,0.1c-0.2-0.7-0.7-1.3-0.7-2
	c0.2-4.7,0.6-9.4,0.9-14.2c0.2-4,0.5-7.9,0.5-11.9c-0.1-3.7-0.6-7.3-1-11c-0.3-2.4-1.1-4.9-0.8-7.2c0.4-2.6-1.5-3.7-2.7-4.9
	c-2.1-2.2-4.8-3.8-7.6-6c0.4,5.1,0.8,9.8,1.1,14.5c-0.2,0-0.5,0-0.7,0.1c-0.5-2.9-0.9-5.8-1.4-8.8c-0.2-1.2-0.6-2.3-0.5-3.5
	c0.2-4.7-2.8-6.5-6.5-8c-3.2-1.3-6.1-3.3-9.3-4.4c-3.8-1.3-7.9-1.9-11.8-2.7c-2.1-0.5-4.2-0.9-6.3-1.4c0.1-0.4,0.1-0.7,0.2-1.1
	c3.2,0.3,6.5,0.1,9.5,0.8c5.3,1.3,10.4,3.5,15.7,4.7c4.4,1,8.4,2.9,12.2,4.8c3.8,1.9,7.2,4.8,10.9,7.1c5.2,3.3,7.2,9.3,11.3,13.6
	c2,2.2,3.3,5.2,4.9,7.8c0.1,0.2,0.3,0.4,0.5,0.6c5.3,4.5,8.2,10.4,10.1,17c0.3,1,1.1,1.9,1.6,2.8c1.6,2.7,3.3,5.3,4.9,8
	c0.6,1.1,1.2,2.2,1.6,3.4c0.6,1.6,0.9,3.3,1.3,5c0.7,2.8,1.3,5.7,2,8.5c0.6,2.1,1.4,4.1,2.2,6.5c5.3,0,10.9,0,16.5,0
	c0,0.2,0.1,0.3,0.1,0.5c-6,2.6-12,5.2-18.3,7.9c1.5,0.8,2.6,1.3,3.6,1.9c0.5,0.3,1.2,0.7,1.2,1.1c0.5,4.6,4.1,7.2,6.3,10.6
	c2,3,3.6,6.4,5.6,9.5c1.2,1.9,2.8,3.5,4.2,5.2c0.3,0.4,0.9,0.6,1.1,0.9c1.8,2.5,1.4,3.2-2.6,3.6c-0.9,2.1-0.2,4,1.4,5.3
	c1.3,1,5.4,0.1,6.2-1.3c1.4-2.3,2.8-2,4.5-0.4c0.5,0.5,1.7,0.9,2.2,0.7c3.8-1.5,6.4,1.3,9.3,2.5c3.4,1.4,6.3,4,9.2,6.4
	c3.2,2.6,6.1,5.5,9.3,8.1c1.2,1,2.8,1.7,4.4,2c1.8,0.3,2.1,0.9,1.6,2.5c-0.2,0.7-0.6,1.8-0.3,2.3c1,1.6,2.3,2.9,3.6,4.3
	c0.2,0.2,1,0.2,1.2,0c1.9-1.8,2.7-0.2,3.6,1.1c1.4,2.4,3.2,4.1,6.2,4.1c0.8,0,1.7,0.3,2.4,0.7c3.1,1.8,6.1,2.4,8.7-0.9
	c0.2-0.3,0.7-0.3,1.6-0.7c-0.2,1.2-0.2,2-0.4,2.8c-1.2,3.9-3.3,7.5-2.6,11.9c0.1,0.5-0.2,1.2-0.5,1.7c-1,1.5-0.7,2.7,0.9,3.5
	c0.2,0.1,0.4,0.1,0.4,0.3c2,5,6,9.3,4.7,15.4c-0.3,1.4-0.2,2.9,0,4.3c0.1,0.7,0.8,1.4,1.3,2c0.1,0.1,0.6,0,0.7,0.1
	c3.6,3.8,7.2,1.7,10.9,0.2c2.1-0.9,4.5-1.4,7.2-2.2c-0.8,2.1-1.7,4-2.2,6c-1.6,6.5-4.5,12.9-3.6,19.8c0.6,4.2,2.4,8.2,3.6,12.3
	c0.7,2.5,1.3,5,1.9,7.5c0.2,1,0.2,2.4,0.8,2.8c2.6,2,0.8,2.6-0.8,3.2c-0.1,0.3-0.2,0.5-0.2,0.6c2.2,2.9,2.1,6.3,2.3,9.8
	c0.4,5.8,3.5,10.6,6.2,15.6c1.4,2.6,3.1,5,4.6,7.5c0.3,0.6,0.3,1.4,0.4,2.1c-0.3,0.1-0.6,0.3-0.8,0.4c-2.1-2.4-4.2-4.8-6.4-7.4
	c-0.5,0.8-0.9,1.7-1.5,2.3c-1.6,1.8-1.1,3.3,0.8,4.3c2.1,1.2,2.2,2.3,0.3,3.8c-1.9,1.6-2.1,3.4-1.5,5.9c1.1,4.9,1.9,10,2.6,15
	c1.3,8.6,0,17-1.4,25.5c-0.3,2-0.6,4-0.5,6c0.1,1.1,1.1,2.2,1.8,3.2c0.4,0.6,1.2,0.8,1.9,1.2c1.3,0.9,1,1.6-0.3,2.1
	c-0.2,0.1-0.3,0.1-0.5,0.2c-1.3,0.3-3.5,0.2-3.9,1c-0.8,1.5-0.7,3.6-0.8,5.4c-0.1,2.1,0.7,4.6-2.6,5.3c-0.7,0.2-1.2,2-1.3,3.1
	c-0.4,2.4-2.2,4.7-1,7.4C681,636.6,680.9,636.6,680.8,636.7z M594.8,460.9c1.3,1.6,2.1,3.4,3.5,4.5c1.7,1.4,1.5,2.7,0.6,4.1
	c-1.2,2.1-0.5,5.1-3.2,6.5c-0.3,0.1-0.1,1.1-0.1,1.7c0,3.8,0.2,7.6,0,11.4c-0.2,3-0.3,5.8,2.2,8.1c0.7,0.7,1.2,1.9,1.2,2.9
	c-0.2,2.7-0.8,5.3-1,7.9c-0.2,2.8-0.1,5.6-0.3,8.4c-0.2,2.2-0.6,4.4-1,6.6c0,0.1-0.3,0.2-0.4,0.3c-0.5,1-1.4,2.1-1.3,3
	c0.9,5.8,1.9,11.5,3,17.3c0.1,0.6,1,1.1,1.6,1.4c3,1.4,5.9,2.7,8.9,4c6.1,2.5,12.2,4.9,18.5,7.4c1.7-4.1,3.6-7.7,4.9-11.6
	c2.5-7.4,4.8-14.9,7.2-22.4c1.6-5,3.7-9.8,4.9-14.9c1.4-6.2,2.1-12.7,3.2-19c0.8-4,1.2-8-0.6-11.8c-0.7-1.4-2-2.7-3.3-3.4
	c-0.6-0.3-2.3,0.8-3.1,1.7c-0.7,0.7-1.1,2-1.1,3c0,3,0.3,5.9,0.3,8.9c0.1,3.2,0,6.5,0,9.7c-0.3,0.1-0.7,0.2-1,0.2
	c-0.3-0.9-0.8-1.9-0.9-2.8c-0.4-7.8-0.6-15.7-1.1-23.5c-0.2-2.7-1.2-5.4-1.9-8.1c-0.4,0-0.7,0.1-1.1,0.1c-1.5,5.2,0.3,10.8-1.3,16.1
	c-0.6-5.1-0.8-10.3-1.1-15.4c-0.1-1-0.6-1.9-0.9-2.8c-0.5,0.9-1.2,1.8-1.3,2.8c-0.4,2.5-0.6,5-0.7,7.5c-0.4,6.6-1,13.2-1.2,19.9
	c-0.2,7.2-0.1,14.3,0,21.5c0,6.1,0.2,12.2,0.2,18.3c0,1.4,0.8,3.3-1.5,4.3c-0.3-0.6-0.9-1.1-0.9-1.7c-0.1-1.8,0.1-3.7,0-5.5
	c-0.1-5-0.2-10-0.3-14.9c0-1.7,0.1-3.3,0-5c-0.1-2.5-0.5-5-0.5-7.5c0-7.5,0.1-15-2.2-22.3c-1.4-4.5-0.9-3.7-4.6-4.3
	c0,3.6,0.1,7.2,0,10.8c-0.1,3.7-0.2,7.3-0.4,11c-0.1,3.5-0.3,6.9-0.5,10.4c-0.5,0-1,0-1.5,0c-0.2-2.2-0.6-4.3-0.4-6.5
	c0.5-6.4,1.2-12.7-0.8-18.9c-0.9-2.7-0.8-5.6-1.7-8.3c-1.2-3.6-2.9-7-4.3-10.6c-0.3,0.1-0.6,0.2-0.9,0.2c0,6.7,0,13.4,0,20.4
	c-0.6-2.1-1.1-3.7-1.5-5.4c-0.1-0.6-0.2-1.1-0.3-1.7c-0.1-5-0.4-10.1-0.1-15c0.2-2.5-0.9-4-2.7-4.4c-1.8-0.4-3.9,0.5-5.8,0.9
	c-0.2,0.1-0.4,0.7-0.5,1.1C595.5,458.7,595.1,459.9,594.8,460.9z M646,523.8c-3.7,9.6-7.4,19.2-11.1,28.7c-3,7.6-5.7,15.2-5.3,23.6
	c0.2,4.3,0.1,8.6,0.7,12.8c0.8,5.9,2,11.8,3.4,17.7c0.5,2,1.8,3.9,2.9,6.2c3.9-4.7,6.7-9,6.9-14.5c0.1-2.4,0.8-2.8,2.9-1.8
	c1.6,0.8,2.9,0.6,3.4-1.2c0.4-1.4,0.3-3,0.4-4c1.1-1.7,2.6-2.9,2.8-4.4c0.6-4.1,0.8-8.4,1.1-12.5c0.2-2.3,0.4-4.5,0.7-7.3
	c0.8,0.9,1.1,1.3,1.5,1.7c0.3,0,0.6,0,0.9,0c0.8-6.9,1.9-13.8,2.4-20.8c0.2-3.4-0.6-6.8-1.3-10.2c-0.5-2.6-1.3-5.2-2.5-7.5
	C653.8,526.5,650.6,524.3,646,523.8z M613.9,647.4c0.3-1.1,0.8-2,0.6-2.8c-1.1-4.3,1.7-5.6,4.8-6.8c0.5-0.2,0.9-0.5,1.3-0.7
	c6-2.7,7.9-10,7.6-15.1c-0.4-5.3-1-10.7-1.8-16c-0.8-4.7-2.4-9.1-6.1-12.5c-2.4-2.2-7.8-2.5-9.6,0.1c-2.2,3.1-4.2,6.6-5.1,10.2
	c-1,4-0.8,8.4-0.9,12.6c-0.1,2.8,0.5,5.4,2.7,7.5c0.5,0.5,0.8,1.3,1.3,2.3c-7.4,0.1-10.4,5-13.3,11c4-2,7.6-3.7,11.5-5.6
	c0.6,3.5,1.4,6.6,1.5,9.8c0.1,5-0.3,10-0.4,15.1c0,4.1,0.2,8.2,0.3,12.2c0.6-1.4,0.9-2.8,1.1-4.2c0.5-5.3,0.9-10.5,1.5-15.8
	C611,647.3,611.6,645.7,613.9,647.4z M596.9,571.2c0.9,3.1,1.8,6.1,2.5,8.5c2.5,0.8,4.9,1.6,7.3,2.3c0,0.3,0.1,0.7,0.1,1
	c-1.5,1-3,2-4.4,3.1c-0.9,0.7-1.9,1.6-2.1,2.6c-0.3,1.4,0.1,3,0.2,4.6c0.1,1.2,0.3,2.5,0.5,3.7c0.3,0.1,0.7,0.2,1,0.3
	c4.3-6.1,8.8-12.1,12.9-18.3c1.5-2.2,3.1-4.8,3.4-7.3c0.6-4.5,0.2-9.1,0.1-13.7c0-0.8-0.8-1.8-1.4-2.2c-5.4-2.6-10.9-5.1-16.4-7.5
	c-0.9-0.4-1.8-0.7-2.6-1.1c-0.5,3.5-0.9,6.7-1.3,9.9c-0.6,4-0.2,7.6,2.7,10.8c1,1.1,1.8,2.3,2.6,3.5c-0.2,0.3-0.3,0.6-0.5,0.8
	C600.1,571.8,598.5,571.5,596.9,571.2z M567.3,441c0.1-0.2,0.2-0.4,0.3-0.6c-0.7-4.3-2-8.5-2-12.8c0-4.2-3-8.4,0-12.6
	c0.1-0.2,0.1-0.5,0-0.7c-0.5-0.9-1.2-2.7-1.4-2.6c-1.5,0.4-3.2,0.9-4.4,2c-1.3,1.2-2.3,2.9-3.1,4.5c-1.3,2.6-2.1,5.3-0.6,8.1
	c1.7,3.1,3.4,6.3,5.5,9.2C563.1,437.4,565.3,439.1,567.3,441z M627,671.6c-0.5,2.6-0.9,4.7-1.3,6.7c-0.5,2.2-0.1,4.8-3.1,5.7
	c-0.5,0.1-0.8,1.4-0.9,2.2c-0.1,1.5-0.2,3,0,4.5c0.1,1.1,0.3,2.7,1.1,3.1c2.2,1.3,2.7,3.2,3.2,5.4c0.4,1.4,1,2.7,1.7,4.5
	c0.5-0.7,0.8-1,0.9-1.4c0.5-4,1-8,1.5-12.1c0-0.4-0.2-1-0.5-1.4c-1.3-1.7-1.1-3.5-0.7-5.5C629.7,679.5,630.4,675.5,627,671.6z
	 M640.5,653c-0.4,0-0.7,0-1.1,0c-1.4,3.3-2.9,6.7-4.3,10c-0.2,0.5-0.1,1.4,0.2,1.9c1.6,3,3.4,6,5.4,9.5c2.1-4.3,1.7-9.2,6.6-11.1
	c-1.1-2-1.9-3.9-3-5.6C643.2,656.1,641.8,654.6,640.5,653z M661.6,514c-0.4,11.3,3.3,21.9,4.9,33.4C669.2,540.6,665.7,518,661.6,514
	z M653.1,509.5c-0.4,0-0.8-0.1-1.2-0.1c-1.8,4.1-3.5,8.2-5.3,12.3c2.1,0.6,4,1.2,6.5,1.9c0.8-1.5,2.4-3.1,2.3-4.7
	C655.3,515.6,654.8,512.3,653.1,509.5z M613,452.4c0.3,0,0.7,0,1,0c0-2.8,0.2-5.5-0.1-8.3c-0.4-3.9-0.6-3.9-4.7-4.6
	C608,443.8,608.7,446.2,613,452.4z M644.5,645.3c-0.5,1.1-3.4,1.4-1.8,3.6c2.5,3.6,5.3,6.9,8.1,10.5
	C650.7,653.8,649.5,648.8,644.5,645.3z M605.9,447c2.1-6.2-1-10.7-6.7-10.2C599.4,441.5,602.1,444.5,605.9,447z M623.4,576.1
	c-3.4,3-4,6.8-5.4,10.2c3.9,1.7,5.2,1.4,6.1-1.4C624.9,582,624.7,579.3,623.4,576.1z M618.4,442.9c-0.8,3.6-1.5,6.8-2.2,10.1
	c2.7,0.5,4.4-0.3,5.3-2.1C623,448,622.4,446.3,618.4,442.9z M620.7,569.1c2-3.7,3.7-6.8,5.5-10.1c-2-0.7-3.6-1.2-5.5-1.8
	C620.7,561.2,620.7,564.8,620.7,569.1z M615.7,479c-0.5-7,0.5-13.8-5.5-17.7C611.8,466.7,613.7,472.6,615.7,479z M601.3,718.7
	c-0.3,0-0.7-0.1-1-0.1c-1.5,1.3-2.5,7.4-1.5,8.7c0.2,0.3,0.7,0.5,1.1,0.5c0.3,0,0.8-0.4,0.9-0.7C601,724.3,601.1,721.5,601.3,718.7z
	 M615.9,656c-0.2,0-0.4,0-0.7,0c0,4.3,0,8.6,0,13C618.2,664.8,617.2,660.4,615.9,656z M558.2,434.4c-0.7-0.9-1.2-1.5-1.6-2.1
	c-0.8-1.3-1.8-2.9-3.4-2.1c-0.8,0.4-0.7,2.4-1,3.7c0,0.1,0.2,0.3,0.3,0.5C554.2,434.4,555.9,434.4,558.2,434.4z M611.8,720.7
	c0-3.3,0-6.5,0-10C609.1,713.8,609.2,719,611.8,720.7z M656.5,495.7c-1.7,3.1-0.9,5.7,0.2,8.2C658.3,501.3,658.2,498.7,656.5,495.7z
	 M593.3,448.8c1.8-0.5,3.1-1.3,2.4-3c-0.4-1.1-1.7-1.9-2.5-2.9c-0.3,0.2-0.6,0.4-0.8,0.6C592.7,445.2,593,446.9,593.3,448.8z
	 M623.3,453.6c-2.4,0.8-3.9,1.2-5.6,1.8c0.6,1.2,1.2,2.2,2.2,4.1C621.1,457.3,622.1,455.7,623.3,453.6z M612.6,690.6
	c2.8-3.1,3.1-5.4,1.3-7.9C611.7,685,612.5,687.6,612.6,690.6z M527.3,290.4c0.2,0,0.4,0,0.6,0c0.5-1.3,1-2.7,1.5-3.9
	c-0.8-0.9-1.6-1.8-2.6-2.9C527,286.1,527.2,288.3,527.3,290.4z M606.9,438.4c1-1.4,1.9-2.2,1.9-3c0-0.7-1.1-1.3-1.7-2
	c-0.7,0.7-1.8,1.3-2,2.1C604.9,436.2,606,437.1,606.9,438.4z M621.1,673.8c-0.9,1.3-2,2.1-1.8,2.7c0.1,0.8,1.1,1.8,1.9,2
	c0.5,0.1,1.9-1.1,1.9-1.7C623,676,622,675.2,621.1,673.8z M560.2,372.9c0.3-0.3,0.6-0.5,0.9-0.8c-0.7-1.3-1.4-2.7-2-4
	c-0.4,0.1-0.7,0.1-1.1,0.2c-0.2,1-0.9,2.2-0.6,2.8C558,371.9,559.3,372.3,560.2,372.9z M620.3,471.8c-0.3-1.5-0.6-2.6-0.9-4
	C617.2,470.1,617.4,471.1,620.3,471.8z M634.2,708.6c-0.4,0-0.8,0-1.1,0c0.2,1.4,0.4,2.8,0.6,4.2c0.2,0,0.4,0,0.6,0
	C634.2,711.3,634.2,710,634.2,708.6z M656.8,527.5c-0.1-1.8-0.2-3.1-0.3-4.9c-0.9,1-1.5,1.6-2,2.2
	C655.2,525.6,655.9,526.4,656.8,527.5z M591.2,644.7c-0.4-0.3-0.8-0.5-1.2-0.8c-0.5,0.8-1,1.5-1.4,2.3c0,0.1,0.7,0.6,1.1,0.8
	C590.3,646.3,590.8,645.5,591.2,644.7z M672.4,478.1c0.3-0.1,0.6-0.1,0.9-0.2c0.2-1,0.5-2.1,0.9-3.7c-1.3,0.7-2.4,1-2.6,1.6
	C671.3,476.4,672,477.4,672.4,478.1z"/>
<path d="M516.7,731.9c1,0.2,1.9,0.5,2.5,0.6c-0.1,4.9-0.1,9.6-0.3,14.4c-0.1,5.1-0.5,10.3-0.5,15.4c0,6.2,0.3,12.4,0.5,18.5
	c0,1.1,0.1,2.2-0.1,3.3c-0.1,0.6-0.9,1-1.3,1.5c-0.4-0.5-0.8-1-1-1.5c-0.2-0.5-0.1-1.2-0.1-1.8c0-9.4,0.1-18.8,0-28.1
	c-0.1-4.9-0.2-9.8-1.1-14.6c-0.5-2.8-2.5-5.3-4-8c-0.5-0.8-1.2-1.5-2.1-2.7c-0.1,1.2-0.1,1.9-0.1,2.6c0,11,0,22,0,33
	c0,0.7,0.1,1.4-0.1,2c-0.1,0.4-0.6,0.7-1,1c-0.3-0.3-0.8-0.6-0.9-1c-0.2-0.6-0.1-1.3-0.1-2c0-11.4-0.1-22.8,0.1-34.2
	c0-2.7-1.2-3.5-3.5-3.9c-0.2,3.9-0.4,7.7-0.5,11.5c-0.2,0-0.4,0.1-0.6,0.1c-0.3-1.1-0.9-2.2-1-3.4c-0.1-2.5,0-5.1-0.1-7.6
	c-0.1-1-0.6-2-0.9-3c-0.3,0.1-0.6,0.1-0.9,0.2c0,0.9-0.1,1.7-0.1,2.6c0,12.8,0,25.7,0,38.5c0,0.6,0.1,1.2,0,1.8
	c-0.2,0.6-0.6,1-0.9,1.5c-0.3-0.5-1-1-1-1.5c-0.4-4.7-0.7-9.4-1.1-14c-0.1-0.8-0.4-1.6-0.6-2.4c-0.2,0-0.4,0.1-0.6,0.1
	c-0.4,20.2-0.9,40.4-1.3,60.7c-2.9-1.9-3.1-4.6-3.3-7.2c-0.4-7.2-0.8-14.4-1.1-21.6c-0.1-2.3,0.3-4.7,0.2-7c-0.1-5-0.3-9.9-0.6-14.9
	c-0.2-3.4-0.6-6.9-0.9-10.3c0-0.5-0.3-0.9-0.6-1.8c-1,1.4-1.8,2.5-2.6,3.6c-0.3,0-0.5,0-0.8,0c-0.7-5.3-1.4-10.6-2.1-15.9
	c-0.2-0.1-0.5-0.1-0.7-0.2c-0.8,1.9-1.8,3.6-2.3,5.6c-0.5,2-0.4,4.1-1.1,6.2c-0.2-2-0.7-4-0.6-5.9c0-4.7,0.5-9.5,0.3-14.2
	c-0.1-3.2-1.2-6.3-1.8-9.4c-0.4,0-0.8,0-1.2,0c-0.5,2.4-1.3,4.9-1.4,7.3c-0.2,5.8,0,11.7-0.2,17.5c-0.1,5.5-0.6,11.1-0.8,16.6
	c-0.1,3.7,0,7.3-0.2,11c-0.1,1.5-0.4,2.9-0.7,4.3c-0.3,0-0.6,0.1-0.9,0.1c-0.3-1-0.8-2-0.8-3c-1-12.9-1.9-25.8-1.6-38.8
	c0.2-7-0.9-13.9-2.4-20.8c-0.3-1.5,0-3.1-0.1-4.7c-0.1-0.9-0.4-1.7-0.8-2.9c-2.7,2.8-2.5,6-2.6,8.9c-0.2,4.9-0.1,9.8-0.1,14.7
	c-0.3,0-0.6,0.1-0.9,0.1c-0.2-1.2-0.7-2.4-0.7-3.6c0.1-4.9,1-10,0.2-14.7c-0.6-3.3,0.5-7.4-2.7-10.1c-0.4-0.3-0.4-1-1.1-1.5
	c0,4.4,0,8.8,0,13.2c-0.3,0.1-0.7,0.2-1,0.3c-0.3-0.8-1-1.6-1-2.4c-0.1-3.2-0.2-6.4,0-9.6c0.2-3.6-1-6.5-3.3-9.2
	c-0.6-0.7-0.7-1.8-1.1-2.7c-0.4-1-0.7-1.9-1.1-2.9c-0.3,0-0.5,0-0.8,0c-0.5,2-1,3.9-1.5,5.9c-0.3,0-0.6,0.1-0.8,0.1
	c-0.2-1-0.5-2-0.7-3.1c-0.5-2.7-0.7-5.5-1.7-7.9c-2.6-6.3-5.8-12.4-8.4-18.8c-2.7-6.6-4.9-13.4-7.3-20c-0.1-0.4-0.4-0.7-0.7-1.3
	c-0.3,3.5-0.6,6.6-0.9,9.8c-0.2,0-0.5,0-0.7,0c-0.2-4.4-0.7-8.8-0.6-13.2c0.5-15.6-7.9-26-19.9-34.2c-2.7-1.8-4.7-3.9-6.2-6.7
	c-0.9-1.6-1.9-3.2-2.8-4.8c-0.3-0.6-0.7-1.3-0.6-1.9c0.3-3.3-1.3-5.8-3-8.5c-3.5-5.5-6.7-11.2-10.1-16.7c-0.8-1.2-2.1-2.1-3.2-3.1
	c-0.8-0.7-1.6-1.3-2.4-1.9c-2.7-1.9-2.9-4.8-3.4-7.8c-0.9-5.7-2.4-11.1-5.4-16.1c-0.3-0.5-0.7-0.9-1.4-1.7
	c-2.4,11.6,0.3,22.9-0.8,34c-0.4,0.1-0.8,0.1-1.1,0.2c-0.3-1.3-0.9-2.6-0.9-4c-0.1-4.4,0.4-8.9-0.1-13.3c-0.8-6.8-2.3-13.5-3.6-20.2
	c-0.9-5-2.7-9.7-6-13.6c-3.8-4.4-7.8-8.7-12.2-12.9c0.3,4.5,0.7,9,1,13.5c-0.3,0-0.6,0.1-0.9,0.1c-0.3-2.5-0.6-5-1-7.5
	c-0.4-2.4-0.9-4.8-1.2-7.2c-0.4-3-2.9-3.9-4.9-5.2c-2.6-1.7-5.1-3.3-7.7-5.1c-0.5-0.4-0.8-1-1.2-1.6c1.9,0,3.6,0,5.3,0
	c3.6,0.1,5.8-2,7.8-4.6c0.4-0.5,1.2-0.9,1.8-1c2.1-0.4,3-1.7,2.2-3.6c-0.7-1.5-1.8-2.7-2.7-4.1c-0.6-0.9-1.7-1.7-1.7-2.6
	c-0.3-6.8-3.4-12.8-5.3-19.1c-0.2-0.8-0.8-1.4-1.4-2.2c-5.2,3.2-7.9,7.9-8.3,13.5c-0.6,7.8-0.5,15.6-0.6,23.4c0,1.7,0.6,3.4,0.9,5.1
	c-0.2,0.1-0.4,0.1-0.6,0.2c-1.1-3-2.5-6-3.4-9.1c-0.7-2.4-0.9-4.9-1.1-7.4c-0.2-3-2.6-5.2-5.2-4c-3,1.3-5.3,1.2-7.5-1
	c8.5-2.9,11.8-10.5,14.9-18.1c2.8-6.7,4.3-13.7,4.4-21c0.1-3.1-0.6-6.3-1.4-9.4c-1.6-6-3.5-11.9-5.3-17.9
	c-1.7-5.6-2.2-11.6-5.7-16.7c-1.6-2.3-3.4-2.3-4.9,0.1c-1.8,2.9-2.5,6-2.4,9.4c0.1,6.4,0,12.8,0,19.2c0,0.9-0.3,1.8-0.4,2.8
	c-0.3,0-0.6,0-0.9,0.1c-0.2-0.9-0.6-1.8-0.6-2.8c-0.4-7-0.6-13.9-1-20.9c-0.1-1.5-0.8-3-1.7-4.5c-0.4,1.6-0.8,3.2-1.3,5.2
	c-0.8-0.7-1.3-1.1-2.5-2.2c0,5,0,9.2,0,13.5c-0.3,0-0.6,0-0.9,0c-1.7-2.4,0-5.4-1.2-8.6c-0.7,1-1.5,1.6-1.5,2.3
	c-0.4,4.5-0.7,9-1,13.6c-0.1,1.2,0,2.5,0,3.7c-0.3,0.1-0.5,0.3-0.8,0.4c-0.4-0.6-1.1-1.1-1.2-1.7c-0.3-2.8-0.4-5.7-0.5-8.5
	c-0.1-2.3-1-4-3.4-4.7c-2.3-0.6-4.2,0.2-5.8,1.7c-0.8,0.7-1.4,1.6-2.1,1.8c-2-0.1-4.1-0.5-6.1-0.3c-6.7,0.5-13.2,0.3-19.7-2
	c0.4,0,0.8-0.1,1.2-0.1c10,1.6,18.6-1.5,26.8-7c6.9-4.5,12.5-10.4,17.1-16.9c5-7,10.5-14,12.7-22.6c0.9-3.4,0.9-6.9,1.5-10.4
	c0.9-4.9,2.2-9.7,3.1-14.6c0.7-4,0.8-8.1,1.5-12.2c1.8-10.1,3.8-20.3,9.4-29.2c6.3-10,10.5-20.9,15.2-31.6c1.9-4.2,4.9-7.9,7.5-11.8
	c1.8-2.7,3.6-5.4,5.8-7.8c3.5-3.8,7-7.5,10.9-10.9c11.4-10,22.4-20.5,35.5-28.4c14.5-8.7,30.1-14.7,47-16.6
	c12-1.3,23.9-0.7,35.5,3.2c3.9,1.3,8,2,12,3.1c0.5,0.1,0.9,0.4,1.3,0.9c-14.3-2.9-28.6-3.9-43-1.7c-14.3,2.1-28.4,5.1-40,14.9
	c0.8-0.1,1.6-0.3,3.2-0.5c-6,4-7.2,9.5-7.4,15.3c-0.2,7.1-0.1,14.3,0,21.5c0,2.3,0.4,4.5,0.4,6.8c0,0.8-0.3,1.7-0.8,2.3
	c-0.5,0.5-1.3,0.7-2,1.1c-0.1-0.7-0.4-1.5-0.3-2.2c0.2-4.5,1-9,0.8-13.6c-0.3-5.9,0.3-11.7,0.4-17.6c0-1.4-0.2-2.9-0.3-4.7
	c-4.1,3.8-5.7,8-5.8,12.8c-0.2,5.8-0.3,11.6-0.5,17.4c-0.2,5-0.5,10-0.4,15c0.1,7.4,0.5,14.8,0.7,22.2c0,1.6-0.3,3.2-0.3,4.7
	c0.1,7.7,0.1,15.5,0.3,23.2c0.1,5.8,0.4,11.6,0.8,17.4c0.1,1.5,1,2.9,1.5,4.4c0.1,0.4,0.5,0.8,0.4,1.1c-0.5,3.6,1.4,7.3-0.3,10.9
	c-0.1,0.3-0.1,0.8,0.1,1.2c1.3,3.1,1.2,6-0.4,8.5c1.3,2.5,2.7,4.7,3.6,7.1c3.3,8.5,6.8,16.9,9.6,25.5c2.4,7.4,2.1,15.2,1,22.9
	c-0.7,4.6-2.2,8.5-5.4,11.8c-4.9,5-10.3,8.2-17.8,7.2c-6.7-0.9-10.8-4.7-14-10.2c-3.4-5.9-6.4-12-5.5-19.2c0.6-4.4,1.4-8.8,2.3-13.2
	c0.9-4.5,1.8-9,3.3-13.4c1.4-4,3.5-7.9,5.5-11.7c1.4-2.5,3.1-4.8,4.8-7.4c-2.3-1.8-2-3.5-0.8-5.6c1-1.6,1.6-3.4,0.7-5.5
	c-0.3-0.7,0.3-1.7,0.5-2.6c0.2-1,0.7-2.1,0.4-2.8c-0.9-2,0.2-3.5,0.9-5.2c0.8-2,1.8-4.1,1.8-6.3c0.2-8.3,0.2-16.6,0.1-24.9
	c-0.1-7-0.4-13.9-0.5-20.9c0-6.5,0.4-13,0.5-19.4c0.1-5.1-0.7-10.2-2.5-15c-0.3-0.8-1.6-2-2.2-1.9c-1.5,0.2-3.2,0.7-3.1,2.9
	c0.1,2.9,0,5.8,0,8.7c-0.3,0-0.7,0.1-1,0.1c-0.3-1.9-0.6-3.7-0.9-5.6c-0.6-3.8-1.1-7.6-1.9-11.3c-0.5-2.4-2.1-2.8-4-1.1
	c-2.3,2-2.9,4.8-3.3,7.7c-0.1,0.3,0.1,0.7,0,1c-0.4,0.8-0.9,1.5-1.4,2.2c-0.5-0.6-0.9-1.2-1.6-2.2c-0.5,1.7-1.4,3.3-1.4,4.9
	c0.1,2.4-1,3.2-2.6,3.4c-0.6,8.5-1.5,16.8-1.8,25.1c-0.2,5.2,0.3,10.4,0.3,15.6c0,1.3-0.8,2.6-1.7,3.9c-0.5-10.1-1-20.2-2.3-30.1
	c-4.3,7.4-2.6,15.5-3.2,23.4c-0.2,0-0.5,0-0.7,0.1c-0.6-3.2-1.2-6.4-1.8-9.9c-3,1.8-3.2,1.9-3.4,6.9c-0.4,9.5-0.7,19-1,28.5
	c-0.1,2.9,0.2,5.8-0.1,8.7c-0.1,1.4-1.1,2.8-1.8,4.1c-0.1,0.1-1.2-0.1-1.3-0.2c-0.1-1.5-0.3-3-0.1-4.4c0.3-2,1.2-4,1.2-6
	c0-6.7-0.3-13.3-0.4-20c-0.1-3.2,0-6.5-0.2-9.7c-0.1-1.6-0.8-3.1-1.5-5.4c-2.2,4.5-4.2,8.2-5.9,12.1c-3.2,7.2-4.3,14.9-4.4,22.8
	c-0.1,4.4,0.4,9.4-1.3,13.2c-1.9,4.4-0.5,8.3-0.4,12.4c0,3.9,0.4,7.8,0.8,11.7c0.1,1.3,0.8,2.6,1.4,4.4c-1.4-0.2-2.3-0.4-3.7-0.6
	c-0.1,1.9-0.2,3.8-0.4,5.6c-0.2,3.2-0.6,6.3-0.7,9.5c-0.1,1.6,0.1,3.2,0.3,4.7c0.8,4.6,1.4,9.3,2.6,13.8c0.7,2.9,2.2,5.7,3.4,8.5
	c0.3,0.1,0.6,0.1,0.9,0.2c2-3.1,3.9-6.3,5.9-9.4c0.2,0.1,0.4,0.2,0.6,0.3c-0.5,1.8-0.9,3.7-1.7,5.3c-2.4,4.8-1.8,9.8-0.8,14.7
	c1.3,6.4,2.8,12.9,4.6,19.2c1.7,6.1,2.2,12.6,5.4,18.4c1.4,2.4,2.2,5.2,3.3,7.8c1.7,4.1,3.6,8.3,5.3,12.4c0.4,0.9,0.4,2,0.7,2.9
	c0.7,1.7,1.3,3.6,2.3,5.1c0.9,1.3,3.4,0.6,4-1.3c0.7-2,1.8-2.2,3.5-2.2c4.2-0.2,8.3-0.7,12.5-0.8c1.8-0.1,3.5,0.5,4.9,0.7
	c-4,2.9-8.2,5.5-12,8.6c-4.1,3.4-5.2,10-2.7,14.8c0.4,0.7,1.5,1,2.9,1.9c-2,12.1,5.4,22,10.2,32.8c10-2.6,18.7-7.3,26-14
	c5.6-5.1,10.7-10.9,15.7-16.7c1.4-1.6,1.8-4.2,2.8-6.2c1-2.2,2.1-4.5,3.3-6.6c1.3-2.3,2.5-4.6,4.2-6.5c1.4-1.7,3.2-3.2,5-4.5
	c2.2-1.6,2.9-3.2,2-5.8c-0.2-0.6,0.1-1.6,0.5-2.2c1.5-2,3.2-3.9,4.7-5.9c0.3-0.4,0.6-1.1,0.4-1.4c-2.3-3.4,1.6-6.8,0-10.2
	c1.6-1.6,1.1-3.7,1.6-5.6c0.6-2.1-0.2-3.1-1.4-4.4c-1.9-2-2.9-4.1-2.4-7.2c1-6.1,1.5-12.3,1.7-18.5c0.2-5.8-0.6-11.6-0.3-17.3
	c0.3-5.5,1.6-10.9,2.4-16.4c1.2-8.9,4.6-17.2,7.4-25.6c0.2,0,0.5,0.1,0.7,0.1c-0.2,2.7-0.5,5.4-0.7,8.1c-0.5,9-1.1,17.9-1.2,26.9
	c-0.1,4.2,0.9,8.4,1.5,12.6c0.1,0.9,0.8,1.7,1,2.6c0.2,1.2,0.2,2.5,0.4,3.7c0.2,1.6,0.4,3.3,0.6,4.9c0.9,5.1,1.8,10.3,5.3,14.4
	c1.4,1.7,1.1,3,0.6,4.6c-1,3.3-1.1,3.3,1,6.5c0.2-0.4,0.4-0.7,0.6-1.3c1.3,1.8,2.2,3.4,1.7,5.7c-0.7,2.9,1.7,6.6,4.6,7
	c1.2,0.2,2.8-0.3,3.9-1c2.4-1.6,4.7-3.4,7-5.3c1.1-0.9,2-1.9,2.9-2.9c1.9-2.2,3.7-4.5,6-6.5c-6.9,10.6-6.4,22.7-7.3,34.8
	c-2.3-4.7-1.7-9.2-1-13.8c-5.2,10.4-5.8,21.6-7,32.7c-1.5-5.6-0.3-11.2,0.1-16.8c-2.6,1.9-6,17.9-4.7,22.3c1.7-1,3.3-2,5-3
	c0.2,0.2,0.5,0.4,0.7,0.6c-0.8,1.3-1.6,2.6-2.5,3.9c-0.5,0.8-1.1,1.4-1.7,2.2c-0.6,0.8-0.9,2-1.7,2.4c-2.7,1.5-2.8,3.7-2.1,5.9
	c-0.9,1.1-1.6,2.1-2.6,3.4c1.7-0.4,2.8-0.6,3.9-0.9c0.9,1.3,1.3,2.2-0.9,2.5c-1.1,0.1-2.2,0.9-3.1,1.5c-0.4,0.2-0.7,1.1-0.5,1.4
	c2,3.7-0.5,6.3-2,9.2c-1.4,2.9-3,5.7-4.7,9.2c4.5-2.3,8.3-4.3,12.2-6.3c0.2,0.2,0.4,0.4,0.7,0.6c-0.6,1-1.3,2-1.8,3.1
	c-0.8,1.5-1.9,3.1-2,4.7c-0.4,4.9-0.3,9.8-0.4,14.7c0,0.5-0.1,1.3,0.1,1.5c3.7,2.3,1.4,5.8,1.9,8.7c0.1,0.3,0.1,0.6,0.3,1.2
	c3-0.9,3,0.6,2.3,2.8c-0.3,0.9,0.1,2.1,0.3,3.1c0.2,1,0.7,2,0.5,3c-0.5,5,1.2,9.4,3.1,13.9c0.8,1.9,1.3,4,1.8,6
	c0.7,2.4,2.1,2.8,4.5,2.5c2.9-0.4,6-0.1,9.7-0.1c-1.7,0.9-2.8,1.7-3.9,2.1c-4.4,1.7-6.1,5.8-8.5,9.3c-0.4,0.7-0.4,1.9-0.2,2.7
	c1.4,5.8,2.6,11.8,4.6,17.4c1.6,4.4,4.3,8.4,6.5,12.5c0.2,0.4,0.9,0.7,1.4,0.9c2.5,1.2,5,2.4,7,3.5c-0.3,3.8-0.4,7-0.9,10.3
	c-0.5,3.2-1.3,6.3-2.4,9.3c0-2.4,0.1-4.8-0.1-7.2c-0.1-0.6-1.1-1.1-2-1.5c1.9,2.4-0.4,4-0.9,5.8c-0.8,3.3-2.2,6.5-2.6,9.9
	c-1.3,12.6,2.7,24.4,5.6,36.3c0.1,0.2,0.2,0.5,0.3,0.7C509.5,717.8,513.2,724.9,516.7,731.9c-0.9-0.2-2-0.5-3.3-0.9
	c1,1.6,1.8,2.9,2.8,4.6C516.4,734,516.6,733,516.7,731.9z M395.5,542.8c1.6,2.8,3,5.7,4.9,8.4c4.7,6.7,9.5,13.3,14.3,19.9
	c0.9,1.2,1.8,2.6,2.9,3.4c5.3,3.8,10.5,7.6,17.2,9c5.3,1.1,12.1-1.6,14.6-6.4c2-3.8,1.4-7.6,0.7-11.5c-0.3-1.8-0.9-3.6-1.1-5.4
	c-0.5-5.9-0.9-11.9-1.3-17.8c-0.1-1-0.1-2,0-3c0.1-3.7,0.1-7.5,0.2-11.2c0.1-3,0.1-6,0.2-8.9c0.1-1.7,0.4-3.5,0.2-5.1
	c-0.4-2.7,0.7-5.8-1.9-8c-2-1.6-4-3.2-6.1-4.8c-0.8,1.3-1.6,2.3-2.2,3.4c-3.3,6.3-5.8,12.6-4.8,20.2c0.8,5.6,0.2,11.4,0.2,17.1
	c-0.2,0-0.3,0-0.5,0c-0.5-6.7-1.1-13.3-1.6-20.2c-1.7,0.2-3,0.5-4.3,0.6c-4.2,0.4-7.8,1.8-10.6,5.2c-1.9,2.3-4.6,4.2-7.1,5.9
	C404.9,536.8,400.3,539.7,395.5,542.8z M398.8,363c-5,2.5-5.3,2.6-6.4,5.2c-5.1,12-9,24.3-8.7,37.6c0.2,7.1,4.4,14.2,11.5,16.5
	c3.4,1.1,8.5,0.9,11.6-3c3-3.8,3.6-8.2,3.9-12.5c0.3-4.3-0.9-8.8-1.3-13.2c-0.6-6.5-1.8-12.9-4.2-19
	C403.7,370.5,402,366.3,398.8,363z M456.4,612.3c0.4-0.3,1.2-1.2,2.2-1.9c1.3-1,1.8-3.6,0.5-4.4c-2.7-1.6-2.1-3.8-1.8-6.2
	c0.2-2,0.7-4.1,0.2-5.9c-1-4.5-4.7-8.6-9.8-6.6c-3.1,1.2-6.3,2.7-8.7,4.9c-3.6,3.2-4.5,5.3-2.3,9.5c1.8,3.5,3.5,7.1,5.4,10.6
	c1.6,3,3.2,6.2,5.4,8.7c4.3,5,9.1,9.6,13.7,14.3c3.7,3.7,7.5,7.2,13,9.2C468.2,633.7,462.5,623.4,456.4,612.3z M317.8,376.3
	c0-0.3-0.3-1-0.2-1.6c0.3-1.9-0.1-3.2-2.2-3.3c-2.2-0.1-3.7,1.3-3.6,3.5c0,1.4,0.6,2.8,0.5,4.2c-0.1,2.8,1.7,2.8,3.7,2.7
	c2.6,0,1.7-2,1.9-3.3C317.9,377.9,317.8,377.3,317.8,376.3z M492.3,712.1c3.3-2.8,0.8-12.7-1.2-17.7
	C491.2,700.3,488.9,706.3,492.3,712.1z M488.6,721.1c-2.6,2.5-1.5,12.4,1.3,14.3C491.7,730.5,490.4,725.9,488.6,721.1z M394.3,232.5
	c-3-0.5-4.4,0.5-3.8,2.5c0.6,2,1.3,4.1,2.1,6.1c0.2,0.5,0.9,0.8,1.4,1.2c0.2-0.5,0.7-0.9,0.7-1.4C394.6,238,394.4,235.2,394.3,232.5
	z M424.7,519.5c0.1,0.2,0.2,0.3,0.2,0.5c1.2-0.4,2.4-0.7,3.5-1.1c0.9-0.4,2.1-0.8,2.4-1.5c1-2.8,1.7-5.7,2.6-9.1
	C430.3,512.3,427.5,515.9,424.7,519.5z M480.2,723.2c-0.2,0.1-0.5,0.2-0.7,0.3c0,3.9,0,7.8,0,12.2c1-1.4,2.1-2.3,2.2-3.3
	c0.2-1.9-0.1-3.9-0.4-5.9C481.2,725.4,480.6,724.3,480.2,723.2z M397.6,304.6c1.3,0.1,2.2,0.1,3,0.2c-2.5,1.6-3.1,3.6-2.4,6.3
	c0.9-0.5,2.3-1,2.3-1.5c0.1-3.1,1-6.4-0.5-9.4c-0.3-0.1-0.5-0.1-0.8-0.2C398.7,301.5,398.1,303,397.6,304.6z M411.7,414.8
	c-0.3,1.4-0.6,2.9-0.7,4.4c0,0.1,1.6,0.7,1.8,0.5c1.3-1.1,2.4-2.5,3.8-4C414.6,415.3,413.5,415.2,411.7,414.8z M415.7,390
	c-2.1,1.8-4.2,3.5-1.7,6.4C417,394.6,417.5,393.1,415.7,390z M426.9,587.3c1.4,2.5,2,5.2,5.5,4.9c0.2-1.2,0.5-2.3,0.7-3.3
	C430.9,588.3,429.2,587.8,426.9,587.3z M358.2,276.5c-0.3,0-0.7-0.1-1-0.1c-0.4,2.4-0.8,4.8-1.2,7.4c1.2-0.2,2.1-0.4,3-0.6
	C358.7,280.8,358.5,278.6,358.2,276.5z M387.6,244.9c0.3,0.2,0.6,0.3,0.9,0.5c0.8-0.8,2.2-1.7,2.3-2.5c0-1.6-0.5-3.5-3.1-3.4
	C387.6,241.4,387.6,243.1,387.6,244.9z M408.8,420c-2.4,2.9-2.4,2.9-0.5,5.3c1.2-1.1,2.5-2.2,3.7-3.3
	C410.7,421.3,409.8,420.7,408.8,420z M394.7,424.3c-1.9-0.4-2.6,0-2.8,1.7c-0.2,1.9,0.9,2.5,4.8,2.5
	C396.1,427.4,395.5,426.1,394.7,424.3z M411.5,377c-1.6,2.2-1.4,4.6,0.4,6.7C413.9,381.5,412.7,379.4,411.5,377z M416.8,397.2
	c-3.2,1.6-3.5,2.2-2.4,5.6C416.8,401.5,417.5,399.7,416.8,397.2z M448.5,495.1c0.6,1.5,1,2.7,1.7,3.7c0.2,0.3,2.1-0.1,2.2-0.4
	c0.2-1.2,0-2.5-0.1-3.8C450.9,494.7,450.1,494.8,448.5,495.1z M324.9,399.3c0,2-0.1,3.6,0.1,5.2c0.1,0.5,0.9,1,1.4,1.5
	c0.4-0.5,1.3-1.1,1.3-1.5C327.5,402.7,327.6,400.6,324.9,399.3z M414.1,408.6c2.6-0.9,3.7-3.1,2.7-5c-0.9,0.5-1.9,0.9-2.7,1.3
	C414.1,406.1,414.1,407.2,414.1,408.6z M407.3,426.2c-1.4-1-2.6-2.4-3.3-2.2c-1.7,0.6-2.1,2.3-1.5,4.2
	C404.1,427.6,405.4,427,407.3,426.2z M322.9,384.8c-1.5-1-2.3-1.9-3.1-1.9c-0.7,0-1.9,1.2-1.8,1.7c0.1,0.8,1.1,1.9,1.8,2
	C320.5,386.8,321.4,385.8,322.9,384.8z M460.5,486c-0.2-0.3-0.5-0.5-0.7-0.8c-0.8,0.3-2,0.4-2.2,0.9c-0.4,0.9-0.3,2.2-0.3,3.2
	c0,0.1,1.4,0.5,1.5,0.3C459.5,488.5,460,487.2,460.5,486z M412.8,390.3c1.8-1.8,2.5-3.6,1.3-5.9
	C411.3,385.8,411.6,387.9,412.8,390.3z M397.6,293.2c2.5-1.3,3.2-3.3,2.9-5.9C397.8,288.4,397,290.3,397.6,293.2z M400.9,428.5
	c-0.1-0.9,0.2-1.9-0.2-2.7c-0.3-0.6-1.3-1-2.1-1.2c-0.4-0.1-1.2,0.7-1.3,1.2C397,427.2,399.4,428.9,400.9,428.5z M400.7,311.9
	c-2.8,1.3-2.8,3.3-2.6,5.5C401.7,316.9,400.7,314.4,400.7,311.9z M382.1,400.2c-1.4,0.1-2.6,0.2-4.6,0.4c0.8,1.3,1.5,3.2,2,3.2
	C381.3,403.6,382.4,402.3,382.1,400.2z M413.4,413.9c1.3-0.3,2.2-0.5,3-0.8c0.1-1,0.1-1.9,0.2-2.9c-1-0.1-2-0.2-3.2-0.3
	C413.4,411.3,413.4,412.5,413.4,413.9z M315.6,389.4c1,1.2,2,2.3,2.9,3.4c0.3-0.1,0.5-0.2,0.8-0.3c-0.3-1.7-0.5-3.4-0.8-5.4
	C317.4,388,316.6,388.6,315.6,389.4z M397.6,287.4c1.7-1.7,3.6-2.9,2.4-5.5C396.9,282.7,397.4,284.9,397.6,287.4z M390.1,426.9
	c0.3-1.2,0.6-2,0.6-2.8c0-0.6-0.2-1.3-0.4-1.9c-0.7,0.3-1.7,0.3-2.1,0.8C386.6,425.2,388.7,425.8,390.1,426.9z M397.9,298.8
	c0.3,0.1,0.6,0.2,0.9,0.4c0.6-1.6,1.2-3.1,1.8-4.7C397.6,295,396.9,296.5,397.9,298.8z M448.6,501.6c0.2,0,0.4-0.1,0.6-0.1
	c-0.5-1.1-0.9-2.3-1.3-3.4c-1.6,0.2-2.9,0.4-4.3,0.6C445.4,499.8,447,500.7,448.6,501.6z M358.9,262.8c-0.8,2.1-2.7,3.5-0.5,5.9
	C358.9,266.7,361.4,265.5,358.9,262.8z M409.9,371.2c-2.9,2.1-1.9,3.7,0,5.3C409.9,375,409.9,373.4,409.9,371.2z M380.6,413.7
	c2.6-1.8,2.7-2.3,1-4.3c-0.7,0.5-1.4,1-2.1,1.5C379.8,411.8,380.1,412.6,380.6,413.7z M400.7,335.7c0.6,1.5,1,2.7,1.4,3.9
	c0.4-0.3,1-0.6,1.1-1C403.5,337.3,403.5,335.9,400.7,335.7z M382.2,414.5c-0.2,0.3-0.4,0.6-0.6,0.9c0.5,1.1,1,2.2,1.2,2.8
	c0.9-0.5,1.6-0.8,2.9-1.5C384.2,415.8,383.2,415.2,382.2,414.5z M400.6,318.8c-0.3-0.2-0.6-0.3-0.9-0.5c-0.7,1.3-1.4,2.5-2.1,3.8
	C400.1,322,401.3,321,400.6,318.8z M407.3,366.2c-0.4,0.1-0.8,0.1-1.3,0.2c0.3,1.5,0.5,3.1,0.8,4.6c0.4-0.1,0.8-0.1,1.2-0.2
	C407.8,369.3,407.5,367.7,407.3,366.2z M379,408.9c2.8-1.8,2.8-1.8,2.5-3.5c-1.1,0.3-2.2,0.6-3.4,1
	C378.4,407.4,378.7,408.1,379,408.9z M397.6,348.3c-2.4,0.4-2.8,1.7-1.2,4.3C396.8,351.3,397.2,349.9,397.6,348.3z M399.2,335.2
	c-0.3,0-0.5,0.1-0.8,0.1c-0.2,1-0.4,2-0.4,3.1c0,0.4,0.4,0.7,0.6,1.1c0.4-0.3,1-0.5,1-0.8C399.6,337.5,399.4,336.3,399.2,335.2z
	 M380.5,387.5c-0.2,0.2-0.5,0.5-0.7,0.7c0.9,1,1.8,2,3.1,3.4C383.7,388.5,382.2,387.9,380.5,387.5z M378.9,394.8
	c-0.1,1.4-0.1,2.4-0.2,3.9c1.3-0.4,2.3-0.7,3.4-1C381,396.7,380.1,396,378.9,394.8z M404.4,360.5c-0.3,0.1-0.6,0.1-0.9,0.2
	c0.3,1.2,0.6,2.5,1,4.2C406.6,362.8,405.4,361.7,404.4,360.5z M401.9,345.9c0.3,0.1,0.6,0.3,0.9,0.4c0.3-1,0.8-2,1-3.1
	c0.1-0.3-0.5-0.8-1.2-1.6C402.3,343.6,402.1,344.7,401.9,345.9z M399.2,346.2c1.5-4.4,1.5-4.6-0.9-4.1
	C398.6,343.2,398.8,344.4,399.2,346.2z M385.1,422.6c0.4,0,0.9,0.1,1.3,0.1c0.2-1.1,0.3-2.2,0.5-3.3c-0.6,0.1-1.6,0-1.6,0.2
	C385.2,420.6,385.2,421.6,385.1,422.6z M402.1,359.6c0.2-0.1,0.5-0.2,0.7-0.3c0.2-2.3-2.4-2.7-3.5-4.1
	C400.3,356.6,401.2,358.1,402.1,359.6z M506.7,651.4c-0.4-0.1-0.8-0.3-1.3-0.4c-0.4,1-0.8,2.1-1.1,3.2c0,0,0.8,0.3,1.2,0.4
	C506,653.5,506.4,652.4,506.7,651.4z M397,343.2c-0.4-0.2-0.8-0.4-1.2-0.6c-0.4,0.9-0.8,1.7-1,2.6c0,0.2,0.7,0.5,1,0.8
	C396.2,345.1,396.6,344.2,397,343.2z M381.8,383.9c0,0.3-0.1,0.6-0.1,1c0.9,0.3,1.8,0.6,2.6,0.9c0.1-0.7,0.1-1.3,0.2-2
	C383.6,383.8,382.7,383.9,381.8,383.9z M400.2,347.8c-0.4,0.1-0.7,0.2-1.1,0.2c0.3,1.1,0.6,2.2,0.9,3.4c0.3-0.2,0.8-0.5,0.8-0.7
	C400.7,349.8,400.4,348.8,400.2,347.8z M400,274.8c-0.3-0.1-0.5-0.3-0.8-0.4c-0.6,1.4-1.3,2.8-1.9,4.1c0.2,0.1,0.4,0.2,0.6,0.3
	C398.5,277.5,399.2,276.2,400,274.8z"/>
<path d="M681.1,636.5c3.1,2.5,4.4,2.2,7-0.9c8.2-9.7,23-9.7,30.6,0.9c4.9,6.9,5.2,14,1,21.3c-0.3,0.5-0.2,1.6,0.2,1.9
	c3.8,3,7.9,5.5,12.9,5.5c6,0,9-3.4,8.3-9.4c-0.1-0.5-0.1-1.2,0.2-1.4c2.6-1.9,0.9-4.2,0.9-6.4c0-1.3-0.2-2.9,0.4-4
	c1.1-2.2,0.7-4.4,0.7-6.7c-0.1-6.8-2.6-12.9-4.6-19.2c-1.4-4.5-3-9-4.9-13.4c-2.3-5-2.7-10.4-3.7-15.7c-1-5.2-1.5-10.4,0.1-15.6
	c1.2-4.3,2.7-8.5,3.8-12.8c0.5-1.9,0.6-4,0.2-5.8c-0.8-3.2-2.1-6.3-3.4-9.4c-0.3-0.8-1.6-1.8-2.3-1.7c-0.8,0.1-1.9,1.2-2.1,2.1
	c-1,3.5-3,6.3-5.7,8.6c-0.8,0.7-1.7,1.2-2.6,1.8c-0.2-0.1-0.4-0.3-0.6-0.4c0.4-0.8,0.9-1.6,1.4-2.4c0.9-1.5,2.3-2.9,2.8-4.5
	c2.3-7.5,2.8-15.3,2.9-23.1c0-3.8,1-7.6-0.8-11.2c-0.6-1.2-1.1-2.4-2.1-3.6c-0.2,1-0.4,2-0.5,3c-0.1,1.9,0.1,3.7-0.1,5.6
	c-0.1,1.2-0.6,2.4-1,3.5c-0.8-1.1-2-2.1-2.5-3.3c-0.9-2.2-1-4.5-0.6-7.1c0.4-2.5-0.8-5.2-1.2-7.9c-0.5-3-0.6-6.1-1.4-9
	c-0.7-2.6-2.2-5-3.4-7.5c-0.3-0.7-1-1.2-1.2-1.9c-2.4-7.7-6.9-14.1-11.8-20.4c-2.1-2.7-4.4-5.4-6.5-8.1c0.2-0.2,0.3-0.4,0.5-0.6
	c1.8,1.3,3.9,2.4,5.3,4.1c2.6,3.1,4.6,6.5,7,9.7c3.7,4.9,7.5,9.7,11.1,14.8c2.4,3.4,4.3,7.2,6.7,10.6c2.3,3.4,4.8,6.9,7.6,9.9
	c0.9,1,3,1.1,4.7,1.6c0,0.2,0,0.6-0.2,0.8c-0.7,0.8-2.2,1.6-2.2,2.3c0.2,2.5,0.8,5.1,1.4,7.6c0.1,0.5,0.9,0.9,1.5,1.1
	c2,0.7,4.1,1.3,6.2,1.9c1.8-2.9,5.2-5.4,2.1-10c6.7-1,8.7-6.1,9.4-11.4c0.7-5.2,1.9-11.1-4.6-15.1c2.1-1.2,3.5-2.1,5-2.9
	c0.8-0.4,1.6-0.8,2.4-1.2c1.5-0.7,1.3-1.6,0.2-2.5c-1.9-1.4-3.7-2.9-5.7-4.1c-1.1-0.7-2.6-1-3.1,1.1c-0.2,0.9-0.5,1.8-1,2.5
	c-2.6,4.2-2.6,8.6-1.9,13.3c0.3,2.5-0.1,5.1-0.2,7.6c-0.3,0.1-0.6,0.1-0.8,0.2c-0.3-0.6-0.7-1.1-0.8-1.7c-0.3-3.1-0.4-6.2-0.8-9.3
	c-0.6-5-1.3-10-2-15c-0.5-3.4-1.6-6.7-1.7-10c-0.1-4.3,0.5-8.7,1-13c0.1-0.7,0.9-1.9,1.5-2c0.7-0.1,1.7,0.7,2.1,1.4
	c1.3,2.3,2.5,4.6,3.5,7c0.8,2,1.9,2.4,3.9,2.3c3.1-0.3,6.4,0.6,9.2-1.8c-3.8-12.7-8.3-25.1-20.7-32.7c0.2-0.3,0.4-0.5,0.6-0.8
	c0.7,0.1,1.5,0,2,0.3c5.5,3.6,11.1,7.3,16.5,11.1c1.5,1.1,2.5,2.9,3.8,4.3c0.8,0.9,2,2.2,2.9,2.2c3.4-0.2,4.2,2.5,5.2,4.6
	c1.3,2.6,3.1,3.5,4.8,1.2c2.1-3,3.7-6.5,5.2-9.9c1.3-2.9,2.2-6,3.2-9c0.3,0.1,0.6,0.2,0.9,0.3c-0.5,1.2-1.1,2.4-1.8,4.1
	c0.8-0.4,1.5-0.5,1.6-0.8c1.6-3.8,4.9-7.1,3.3-11.9c-0.3-0.8-0.1-1.7-0.1-2.5c0.2-3.9,0.2-3.7,4-4.6c3.6-0.8,5.6-3.9,8-6.3
	c3-3,5.5-6.4,7.7-10c1.4-2.3,4-3.9,5.7-6c2-2.4,3.8-4.9,5.3-7.6c3.8-6.9,4.5-14.5,4.1-22.2c-0.3-4.6-0.6-9.2-0.9-13.8
	c0-0.4,0.2-0.9,0.6-1.3c0.6,3.6,1.1,7.2,1.9,10.8c0.5,2.3,1.3,4.6,2.3,6.8c0.6,1.4,2,1.5,3.1,0.2c1.3-1.5,2.4-3.2,3.9-4.6
	c2.1-1.9,4.5-3.5,6.6-5.4c1.2-1,1.9-2.5,3-3.7c4.6-5.3,10.9-7.3,17.4-9c4.8-1.2,9.1-3.1,11.7-7.8c0.9-1.7,2.6-2.7,4.7-2.3
	c3.8,0.7,7.1-0.6,10.1-2.6c5-3.4,10.5-5.5,16.6-6.1c1.5-0.1,3.2-1,4.2-2c1.8-1.8,3.6-1.5,5.6-1c4.7,1.3,9.5,2.5,14.2,3.9
	c1.9,0.6,3.8,1.3,5.5,2.2c6.7,3.5,13.5,7.1,20.1,10.7c4.9,2.7,9.4,5.7,12.9,11.2c-1.3-0.3-2.3-0.2-2.9-0.6c-3.7-2.8-7.1-6.1-11-8.5
	c-4.5-2.7-9.4-4.9-14.4-6.7c-4.4-1.6-9.1-2.7-13.8-3.7c-2-0.4-4.1,0-6.2,0.3c-1.8,0.3-2.6,1.3-2.7,3.4c-0.3,6.4-1,12.7-1.5,19.1
	c0,0.2-0.3,0.3-0.5,0.7c-1.5-8,1.5-15.9-0.4-23.7c-0.4,0-0.8,0-1.2,0c0,2.7,0,5.4,0,8.2c-0.2,0-0.4,0-0.6,0c-0.3-2-0.7-4.1-0.9-6.1
	c-0.3-2.2-1.6-2.8-3.5-2.1c-3.7,1.4-7.3,2.7-10.9,4.3c-4.4,2-8.2,4.7-11.6,8.2c-2.8,2.9-3.3,4.1-1.8,8.1c0.4,1-2.4,3.8-3.6,3.3
	c-1.9-0.7-1.9,0.3-2.1,1.6c-0.8,4.9-1.7,9.9-2.5,14.8c-0.1,0.3-0.2,0.6-0.3,0.9c-0.2,0-0.5-0.1-0.7-0.1c0.4-5.1,0.8-10.2,1.3-15.2
	c-2.3,0.1-3.5,1-4.2,4.2c-0.8,3.7-1.3,7.6-1.6,11.4c-0.5,6.1-0.8,12.3-1.5,18.5c-2.2-5.9-0.3-11.9,0-18c-0.5,0.1-0.9,0.1-0.9,0.1
	c-0.7,3.5-2.8,6.6-2.3,10.5c0.2,1.9-0.2,3.8-0.1,5.7c0.1,2.4,0.3,4.8,0.4,7.3c0.1,3.3,0.1,6.5-0.1,9.8c-0.2,4.4-0.8,8.8-1,13.2
	c-0.2,5.4,0,10.7-0.1,16.1c0,1.2-0.5,2.3-0.5,3.5c0,1.3,0.4,2.5,0.6,3.8c0.1,0.7,0.5,1.4,0.3,1.9c-0.3,1-0.9,1.9-1.5,2.7
	c-0.1,0.2-1.4-0.1-1.5-0.4c-0.3-0.8-0.4-1.8-0.3-2.7c0.3-3.2,1-6.4,1.1-9.7c0.1-5.7-0.3-11.5-0.2-17.2c0-3.3,0.8-6.7,0.7-10
	c-0.1-6-0.6-12.1-0.9-18.1c-0.1-1.6,0.2-3.1,0.1-4.7c-0.1-1.9-0.3-3.7-0.5-5.9c-3.7,2.7-4.7,6.4-5.8,10c-0.3,0.9,0.3,2,0.2,3
	c-0.5,7.8-0.9,15.5-1.5,23.3c-0.1,1.8-0.8,3.6-1.3,5.5c-0.3,0-0.6-0.1-0.8-0.1c0.1-1.7,0.2-3.4,0.2-5.2c0.2-4,0.4-8.1,0.5-12.1
	c0.1-3.4,0.5-6.9-0.1-10.2c-0.7-4.1-2.2-8-3.3-12c-0.3,0-0.5,0-0.8,0c-0.3,1.5-0.7,3.1-0.8,4.6c-0.4,6.4-0.9,12.7,0.3,19.1
	c0.7,3.6,0.6,7.6-0.9,11.6c-2.3-2-1.9-4.4-2.2-6.7c0-0.4,0.2-0.8,0.2-1.2c-0.6-5.9-1.1-11.8-2.1-17.7c0,5.7,0.1,11.5,0,17.2
	c-0.1,5,0.9,10.2-1.3,15.1c-0.1,0.3-0.1,0.7-0.1,1c0,3.3,0,6.7,0,10c-0.1,7.7-0.3,15.5-0.5,23.2c0,0.7-0.1,1.3-0.2,2.5
	c9.1,0.6,18.3,0.6,26.8,5.7c-8.7,2-16.6,6-25.5,6.2c-1.3,0-2,0.4-2.1,1.8c-0.3,5.6-0.6,11.2-0.9,16.9c-0.1,2.6-0.2,5.2-0.4,7.8
	c0,0.4-0.3,0.7-1,1c0-2.9,0.1-5.9,0-8.8c-0.3-4.5-0.7-8.9-1.2-13.4c-0.1-0.6-0.4-1.1-0.5-1.7c-0.6-2.8-1-3.1-4.4-2.9
	c-0.8,5.4-1.6,10.8-2.4,16.3c-1.9-5.3-0.9-10.9-1.9-16.7c-5.3,0.4-10.4,0.7-15.6,1.1c-1.6,0.1-3.2,0.2-4.8,0.1
	c-1.6-0.1-2.4,0.7-3.1,2c-3.1,5.9-4.8,12-4.9,18.7c-0.1,6.8-0.9,13.7-1.5,20.5c-0.1,1.2-0.4,2.3-1.2,3.6c-0.2-0.7-0.6-1.4-0.6-2.1
	c0.2-3.6,0.8-7.2,0.6-10.8c-0.1-2.8-1-5.6-1.9-8.4c-0.1,1.1-0.3,2.2-0.4,3.3c-0.7,6.6-1.5,13.2-1.9,19.8c-0.4,7.9-0.4,15.9-0.6,23.9
	c-0.1,2.9-0.4,5.9-0.6,8.8c-0.2,6.3-0.4,12.5-0.6,18.8c-0.2,4.7-0.5,9.4-0.8,14.1c-0.3,3.4-0.9,6.8-1,10.2c-0.1,2.8,0.2,5.7,0.3,8.5
	c0,0.9,0,1.8,0,2.6c-0.3,0-0.5,0-0.8,0.1c-0.3-2.4-0.6-4.8-0.7-7.2c-0.5-10.6-1.1-21.2-1.5-31.9c-0.2-5.4,0.4-10.8-0.2-16.2
	c-0.5-5.6-2-11.2-3-16.7c-0.1-0.4-0.4-0.7-1-1.7c-0.5,1.4-1.2,2.3-1.2,3.2c0,4.6,0.4,9.2,0.4,13.8c0,2.4-0.5,4.9-1.4,7.2
	c-0.4-7.8-0.8-15.6-1.2-23.4c-0.4,0-0.8,0-1.1,0c-0.2,3.8-0.4,7.5-0.6,11.3c-0.3,0-0.5,0-0.8,0.1c-0.3-2.9-0.6-5.8-0.9-8.8
	c-0.2,0-0.4-0.1-0.6-0.1c-0.5,2.3-1.1,4.5-1.4,6.8c-0.5,3.8-0.7,7.7-1,11.5c-0.1,0.8,0.2,1.7,0.2,2.5c-0.1,5.8-0.2,11.6-0.3,17.3
	c0,0.4-0.3,0.8-0.4,1.3c-0.2,0-0.4,0-0.7-0.1c0-8,0-16,0-24.1c-2.8,0.5-3.7,2.1-3.9,4.3c-0.5,4.8-1.1,9.7-1.4,14.6
	c-0.1,2.5,0.6,5.1,0.8,7.6c0.5,5.3,0.9,10.7,1.4,16c0,0.5,0,1.1,0.3,1.5c1.5,1.8,0.4,2.8-0.9,3.9c-2.2,2-3.4,4.6-3.2,7.6
	c0.2,2.2,2.9,4.4,5.3,4.9c1.1,0.2,2.3,0.5,4.1,0.9c-1.5,1.3-2.5,2.4-3.6,3.2c-2.1,1.5-2.6,3.5-1.9,5.9c0,0.2,0.1,0.3,0.1,0.5
	c0.2,4.1,1.4,7,6.4,5.8c0.3-0.1,1.5,1.3,1.3,1.8c-1.4,4.1,1,6.8,3.6,8.9c2.1,1.7,5.1,2.4,7.7,3.2c1.7,0.5,3.7,0.2,5.5,0.4
	c0.5,0.1,1,0.5,1.9,0.9c-0.7,0.5-1.1,0.9-1.8,1.4c1.7,2.1,4.4,2.2,6.6,3c1.8,0.6,3.7,0.9,5.6,1.4c0.3,0.1,0.6,0.4,0.9,0.4
	c5.3-0.7,10.8,0.5,15.7-2.3c1.2-0.7,2.7-0.5,4.1-0.8c1.6-0.4,3.3-0.6,4.7-1.3c3.1-1.6,4.1-1.2,5.3,2.1c0.5,1.2,1.5,2.6,2.7,3.2
	c5.7,3.1,11.5,4.7,18.3,4c6.5-0.7,9.7-5,13.5-9c3.8-3.9,7.2-8.1,10.8-12.2c1.4-1.6,2.9-3.2,4.3-4.8c0.3,0.2,0.5,0.3,0.8,0.5
	c-1.4,2.2-2.6,4.6-4.4,6.5c-3.9,4.2-6.4,9.1-8,14.3c-1.5,5.1-0.9,8.8,4.7,10.3c5.6,1.4,11.2,2.6,16.7,4.3c7.5,2.3,15.2,4.3,22.2,7.6
	c12.3,5.8,24.3,12.5,36.4,18.9c7.1,3.8,14.3,7.7,21.1,12c7.5,4.8,14.8,10,22,15.2c2.3,1.7,4,4.1,5.9,6.2c-0.2,0.3-0.4,0.5-0.6,0.8
	c-0.9-0.5-1.9-0.8-2.5-1.5c-6.7-7-14.4-12.5-23.3-16.3c-3.5-1.4-7.1-2.4-11-3.7c0,3.6,0,6.8,0,10c0,0.7,0.1,1.4,0,2
	c-0.2,0.6-0.7,1.1-1,1.7c-0.3-0.6-0.9-1.2-0.9-1.8c-0.1-3.5-0.1-6.9,0-10.4c0.1-1.8-0.5-2.8-2.2-3.7c-4.6-2.3-9.1-4.9-13.7-7.3
	c-0.7-0.4-1.6-0.7-2.4-0.7c-3.5-0.1-7-0.1-10.4-0.1c-2,0-3.4,1.5-3.6,3.4c-0.5,3.9-1,7.7-1.6,11.6c-0.3,0-0.6,0-0.9,0
	c0-1.5,0-2.9,0-4.4c0.1-3.6,0.3-7.1,0.5-10.7c0.1-1.6,0-3.3-1.9-3.6c-2.2-0.4-4,1.4-4.2,3.7c-0.1,1.2,0,2.4,0,3.5
	c-0.1,1.1-0.2,2.2-0.3,3.3c-0.3,0-0.5,0-0.8,0c0-2.3,0.1-4.5-0.1-6.8c0-0.7-0.8-1.3-1.2-2c-0.6,0.5-1.6,0.8-1.7,1.4
	c-0.5,2.9-0.7,5.8-1.2,8.6c-0.7,4,0.2,8.1-1.7,11.9c-0.3,0.6-0.1,1.5-0.2,2.2c-0.3,6-0.4,12.1-0.9,18.1c-0.2,2.9,0.5,4.6,3,6.3
	c2.8,1.9,5,4.6,7.6,6.9c0.9,0.8,1.9,1.8,3,2.2c5.3,1.9,8.5,6,11.6,10.3c0.4,0.5,0.7,1.3,1.2,1.5c3.2,1.2,4.8,3.9,6.7,6.5
	c1.6,2,3.9,3.5,5.7,5.3c1.5,1.5,2.9,3.2,4.4,4.8c-0.3,0.3-0.6,0.7-1,1c-1.5-1.4-3.1-2.8-4.6-4.3c-0.4-0.4-0.5-1.1-0.9-1.4
	c-2.7-2.6-5.2-5.4-8.2-7.6c-5.3-3.9-10-8.6-16.8-10.3c-2.9-0.7-5.6-2.6-8.3-4.1c-0.6-0.3-0.8-1.2-1.2-1.8c-0.4-0.5-0.7-1.4-1.2-1.6
	c-1.9-0.4-2.4-1.8-3.2-3.2c-1.4-2.4-3.8-1.7-5.9-1.5c-4.6,0.4-8.6-1.3-12.7-2.9c-1.5-0.6-3-1-4.7-1.6c-0.4,5.6,0.3,10.6-0.5,15.5
	c-0.4,0-0.8,0.1-1.2,0.1c-0.3-0.9-0.7-1.8-0.7-2.7c-0.1-4,0-7.9,0-11.9c0-0.6,0-1.5-0.4-1.8c-1.6-1.3-3.2-2.5-5-3.4
	c-1.2-0.6-2.5-1.1-4.2-0.1c-1.4,0.8-4,1.3-6.1-1c-0.4,4-0.7,8.1-1.2,12.1c-0.6,4.2-1.5,8.4-2,12.6c-0.5,4.2-0.6,8.4-1.1,12.5
	c-0.5,4.1,1.5,8.2,0,12.2c-0.3,0-0.7,0.1-1,0.1c-0.3-1.9-0.9-3.8-0.9-5.7c-0.1-8.7-0.1-17.4,0-26.1c0.1-5.5,0.5-11.1,0.8-17.2
	c-3.5,1.2-6.3,0.9-8.1-2.3c-1.3,1.7-2.5,3.2-3.7,4.8c-1.8-2.5-3.6-4-6.2-5.4c-4-2.2-8.4-2.1-12.4-3.4c-1.3-0.4-3,0.7-4.5,0.7
	c-3.7,0.1-7.5,0-11.6,0c0,2.5,0,5.3,0,8.1c-0.3,0.1-0.6,0.2-0.9,0.4c-0.4-0.7-0.9-1.5-1.1-2.2c-0.4-2-0.7-4.1-0.9-6.2
	c-0.2-1.5-1.1-1.8-2.3-1.5c-3.6,0.9-7.2,2-10.8,2.8c-1.5,0.3-3.3,0.3-4.8,0c-1.8-0.4-3.4-0.8-4.8,0.9c-1,1.1-2.2,1.5-3.6,0.8
	c-0.5-0.3-1.2-0.6-1.7-0.5c-2.6,0.8-5.1,1.7-7.9,0.6c-0.7,2.1-3.5,2.2-4.2,4.5c-1.4,4.5-1.2,9.1-1.2,13.7c0,1-0.3,2-0.4,3.1
	c-0.3,0-0.7,0.1-1,0.1c-0.3-1-0.8-1.9-0.8-2.9c-0.1-5.4,0-10.8,0-16.2c-0.5-0.1-0.7-0.2-0.9-0.2c-4.2,0.8-8.4,1.4-12.5,2.4
	c-3.9,0.9-8,1.6-11.5,3.5c-5,2.7-10.7,2.7-15.7,4.8c-0.6,0.2-1,1.3-1.1,2c-0.1,0.7,0.6,1.4,0.6,2.1c0,1.1-0.4,2.2-0.6,3.3
	c-0.5-0.1-1.3-0.1-1.3-0.3c-0.2-1-0.3-2-0.2-3c0.1-0.9,0.5-1.9,0.9-2.9c-3.5-0.3-5,4.5-8.9,3.1c2.7-2.2,5.1-4.1,7.5-6.1
	c0.6-0.5,1.1-1.5,1.2-2.3c0.2-3.2,0.2-6.5,0.2-9.7c0-3.4-0.1-6.8,0.2-10.2c0.5-5.7-0.7-11.1-2-16.5c-0.3-1.3-1.2-2.6-2.1-3.7
	c-1.1-1.5-2.4-0.6-3.5,0.1c-4.6,2.9-8.5,6.5-11.2,11.3c-2,3.4-4.2,6.7-6.4,10.1c-0.2,0.2-0.5,0.3-0.7,0.5c-0.2-0.1-0.5-0.3-0.7-0.4
	c1.7-3.4,3.3-6.7,4.9-10.1c0.3-0.6,0.5-1.4,0.5-2.1c0.1-1.5,0-3,0-4.6c0-10.1,0-20.1,0-30.2c0-0.9,0-1.8,0-3.4
	c-0.9,1-1.4,1.5-1.7,1.9c-0.9-0.7-1.7-1.3-3.2-2.4c-0.6,4.8-1,8.7-1.5,12.7c-0.2,0-0.3,0-0.5,0c0-3.7,0-7.4,0-11.2
	c-1.4,1.9-2.7,1.5-4.2,0.1c-0.4,1.2-0.6,2.1-0.9,3.2c-0.8-0.6-1.5-1.1-3-2.2c0,5.1,0,9.4,0,13.8c-0.5,0-1,0-1.4,0
	c-0.1-4.1-0.2-8.3-0.2-12.4c0-0.9,0.3-1.8,0.4-2.7c0.3-2.7-0.1-5.2-2-7.5c-3.1-3.8-5.3-8.5-4.5-13.4c0.7-3.9,1.6-7.2-2.8-9.2
	c-0.2-0.1-0.2-0.5-0.2-0.7C680.9,636.6,681,636.6,681.1,636.5z M754.7,682c-0.2-0.1-0.4-0.3-0.6-0.4c-0.9,1.1-1.8,2.3-2.9,3.2
	c-1.2,1-2.5,2.3-3.9,2.4c-3,0.3-4.4,1-5.4,3.9c-0.6,1.5-1.2,3-1.8,4.5c-0.2,0-0.5-0.1-0.7-0.1c-0.3-1-0.6-2-1.1-3.6
	c-1.7,1.3-4.1,2.3-4.4,3.7c-1.7,7.3-2.9,14.8-4.2,22.2c-0.3,2-0.4,4-0.5,6c-0.1,2.8,0,5.6,0,8.4c0,1.4-0.3,2.9-0.6,4.8
	c3.2-1.7,5.8-3.2,8.6-4.6c1.7-0.9,3.5-1.7,5.4-2.3c1.6-0.5,3.4-0.6,5-1.1c2.1-0.6,4.1-1.3,6.1-2.1c0.9-0.3,2-0.6,2.6-1.3
	c2.9-3,6.5-5,10.4-5.3c5.6-0.5,10.4-3.6,15.8-4.5c2.6-0.5,5.3-1.2,7.9-1.1c3.4,0.1,6.7,1.4,10.3,1.2c3.1-0.2,6.2,0.1,9.4-0.7
	c1.6-0.4,2.1-1.2,2.1-2.8c0.2-4.2,0.6-8.5,0.9-12.7c0.2-2.4-1.1-6-2.7-6.1c-2.9-0.3-3.5-2.2-4.2-4.3c-0.5-1.7-1.2-3.3-1.5-5
	c-0.3-1.4-0.6-1.9-2.2-1.9c-1.4,0-3.4-0.3-3.3-2.6c0.1-3.8-0.5-4.5-4.1-5.2c-1.1-0.2-2.2-0.7-3-1.5c-1.4-1.4-2.5-1.2-4.1,0
	c3.9,3.2,7.7,6.4,9.6,11.3c-1.7-0.3-3.1-1-4.6-1.4c-6.4-1.4-13-1.8-19.5-0.9c-2.8,0.4-5.6,1.8-8.3,2.8c-0.6,0.2-1.1,0.9-1.5,1.5
	c-0.6,0.7-0.9,1.5-1.6,2.1c-3.1,2.8-6.4,5.3-9.2,8.4c-2.9,3.2-6.5,5.9-7.8,10.3c-0.2,0.6-0.8,1.1-1.3,1.6
	C744.4,698.5,748.8,689.9,754.7,682z M861.7,683.2c-0.3,0-0.5,0.1-0.8,0.1c0.1,1.7,0.2,3.4,0.2,5.1c0,1.1,0.1,2.7-0.4,3.1
	c-1.7,1.1-1.4,2.5-1.4,4c0,3.9,0.3,7.8,0.2,11.6c0,1.6-0.7,3.3-1,4.9c-0.3,0-0.7,0-1,0.1c-0.5-1.2-1.4-2.5-1.6-3.8
	c-0.4-2.7-0.5-5.5-0.6-8.3c-0.2-5.5-0.3-11-0.6-16.6c0-1-0.7-1.9-1.1-2.8c-1.2,0.3-1.9,0.5-2.6,0.7c-1-2.4-1.9-4.6-2.8-6.7
	c-0.4,0.1-0.8,0.1-1.2,0.2c0,7,0,13.9,0,20.9c-0.3,0-0.5,0-0.8,0c-2.5-6.4-0.8-13.3-1.7-20c-4.4,1.1-8.3,2.1-12.1,3.2
	c-0.8,0.2-1.4,1.1-2,1.9c-0.6,0.8-1,2.5-1.5,2.5c-1,0-2-0.9-3-1.4c-0.7-0.3-1.5-1-2-0.8c-0.5,0.2-1.1,1.2-1.1,1.9
	c-0.1,10-0.1,19.9,0,29.9c0,0.8,1.1,2.1,1.7,2.2c2.9,0.2,6,0.5,8.8-0.1c2.3-0.5,4.2-0.3,6.2,0.7c2,1,3.9,1.9,5.5-0.5
	c0.2-0.2,0.6-0.4,0.9-0.4c4,0.3,7.9,0.5,11.9,0.9c3,0.3,3.8-0.3,4-3.4c0.1-1.1,1-2.2,1.3-3.3c0.4-1.5,0.8-3,0.9-4.5
	c0-0.5-1.3-0.9-1.6-1.5c-0.5-1-1.2-2.1-1-3.2c0.3-2.4,1.4-4.7,1.4-7C862.9,689.5,862.1,686.3,861.7,683.2z M902.1,695.2
	c-0.3,0-0.6,0-0.9,0c0-1.5,0.1-2.9,0-4.4c-0.3-3.9-0.8-7.7-1-11.6c-0.1-1.3,0.4-2.7-1.4-2.8c-1.4,0-3,0.2-3.3,2.3
	c-0.1,0.7-0.9,1.3-1.4,1.9c-0.6,0.6-1.6,1.2-1.7,1.8c-0.3,2.5-0.3,5-0.4,7.6c0,0.7-0.1,1.5-0.2,2.2c-0.3,0-0.6,0-0.9,0c0-4,0-8,0-12
	c-0.2,0-0.5-0.1-0.7-0.1c-0.6,1.7-1.4,3.4-1.6,5.2c-0.5,3.9-0.8,7.9-1,11.8c-0.3,7.9-0.6,15.9-0.8,24.4c8,3.7,15.8,7.2,23.6,10.8
	c1-13.6,2.4-27.1-1.4-40.5c-0.9,0.3-1.6,0.6-2.1,0.8c-0.3,5.9-0.6,11.5-1,17.2c-0.2,0-0.5,0-0.7-0.1c-0.2-1.5-0.6-3-0.6-4.5
	c0.1-7,0.3-14.1,0.5-21.1c0-0.5,0-1,0-1.5c-0.1-1.7-1.1-2.1-2-0.8c-0.7,1-0.9,2.6-1,4C902,689,902.1,692.1,902.1,695.2z
	 M811.2,451.2c-3.5,0.8-6.2,1.3-8.7,2.2c-0.8,0.3-1.4,1.6-1.7,2.5c-0.1,0.3,1.1,1.3,1.8,1.4c3.2,0.3,6.5,0.4,9.7,0.4
	c6.6,0,13.2-0.3,19.8-0.3c1.9,0,2.6-0.9,2.7-2.8c0.4-6.2-0.6-11.8-4.5-16.9c-3.5-4.6-7.5-8-13.3-8.9c-1.8-0.3-3.4,0-4.2,1.8
	c-1.9,4.2-4,8.4-5.4,12.8c-0.4,1.4,1.2,3.5,1.9,5.3C809.5,449.3,810.1,449.9,811.2,451.2z M710.1,670.3c-0.1,0-0.2,0-0.3,0
	c-0.5,10.9-1,21.8-1.6,32.7c0.3,0.1,0.6,0.1,0.9,0.2c6.8-12.1,14-23.7,25.5-32.8c-5.1-3.1-9.7-5.9-14.4-8.6c-0.9-0.5-2.3-0.8-3-0.4
	c-1.4,0.7-2,2-1.5,3.8c0.4,1.6,0.5,3.3,0.5,5c0,0.5-0.5,1-0.8,1.5c-0.4-0.5-0.9-1-1.1-1.6c-0.4-1.3-0.5-2.6-0.8-3.9
	c-0.3,0-0.7,0-1,0c-0.6,2.1-1.1,4.3-1.7,6.4c-0.1,0-0.3,0-0.4,0C710.3,671.8,710.2,671.1,710.1,670.3z M884.2,721.7
	c0-10.5,0-20.2,0-29.8c-0.6,5-0.5,10-0.6,14.9c0,0.9-0.6,1.7-0.9,2.6c-0.4-0.1-0.7-0.2-1.1-0.3c0-7.5,0-15,0-22.5
	c-0.3,0-0.5,0-0.8-0.1c-0.7,4.4,0.2,9.1-2.3,13c-0.3,0-0.7,0-1,0c-0.3-1.9-0.7-3.7-1-5.7c-0.3,0.2-0.7,0.3-0.8,0.6
	c-2.7,7-4.6,14.1-3.3,21.7c0.1,0.5,1.1,1.3,1.3,1.2c1.9-0.9,3.2,0.4,4.6,1.2C880.2,719.6,882,720.5,884.2,721.7z M793.8,461.2
	c0,0.3-0.1,0.6-0.1,0.9c1.9,2.5,4.1,4.6,7.7,4.1c1.6-0.2,3.1-0.4,4.7-0.5c5.3-0.2,10.6-0.3,15.9-0.5c6.2-0.3,12.4-0.5,18.5-1
	c5.4-0.5,10.9-1.3,16.3-2c0-0.3,0-0.6,0-0.9c-6.9-0.4-13.8-0.9-20.7-1.1c-6-0.1-11.9,0.3-17.9,0.4C810.1,460.8,802,461,793.8,461.2z
	 M742.1,477.6c0.3,0,0.6-0.1,0.9-0.1c0.2-0.6,0.5-1.2,0.7-1.8c0.8-2.7,2-4.8,5.2-5c2.3-0.1,4.5-0.3,6.7-0.5c3.1-0.3,6.2-0.3,9.1-1.2
	c1.3-0.4,2.8-2.5,3-3.9c0.2-1.7-1.7-2-3.4-2c-5.4,0.1-10.8-0.1-16.2,0.1c-2.3,0.1-3.6-0.9-4.5-2.9c-1.1-2.4-2.2-4.9-3.2-7.4
	C739.2,461.4,741.4,469.4,742.1,477.6z M827.2,398.7c-2.7,1.4-3.5,3.3-3.5,5.8c0,2.7-0.6,5.4-2.6,7.3c-1.9,1.8-2.5,4.1-2.4,6.6
	c0.1,2.4,2.1,4.2,4.1,3c3.3-2,6.5-4.4,9.2-7.1c3.6-3.6,1.5-7.8,0.1-11.7c-0.5-1.3-1.2-2.5-1.8-3.8c-0.2,0.1-0.5,0.1-0.7,0.2
	c-0.6,2.8-1.3,5.5-1.9,8.3c-0.2,0-0.3-0.1-0.5-0.1C827.2,404.5,827.2,401.8,827.2,398.7z M781.4,502c-0.2,1.9-0.2,3.6-0.6,5.3
	c-0.5,1.9-0.9,4.2-2.1,5.4c-1.3,1.3-2.2,2.4-2.4,4.1c-0.1,1.4-0.3,2.8-0.4,4.2c-0.2,2.1,1.4,3.3,3.3,2.5c0.8-0.3,1.6-0.7,2.5-1.1
	c0.1,0.6,0.2,1.1,0.5,2.3c1.2-4.2,2.8-7.8,3-11.5C785.6,509.3,785.1,505.2,781.4,502z M833,431.6c1-3.4,1.9-6.8,2.9-10.1
	c-6.3-3.3-10.4,2-15.7,2.7C823.6,428.1,827.8,430.2,833,431.6z M819.6,695.5c-0.1,0-0.2,0-0.2,0c-0.9,6.4-1.8,12.7-2.7,19.5
	c1.5-0.4,2.2-0.6,2.9-0.8C819.6,707.9,819.6,701.7,819.6,695.5z M731.3,690.8c-3.4,0.6-3.4,0.6-3.7,3.8c0,0.4-0.3,0.8-0.2,1.2
	c0.5,3.2,1,6.4,1.5,9.7c0.1-0.1,0.3-0.1,0.4-0.2C730,700.5,730.7,695.7,731.3,690.8z M850.9,362.7c-0.2-0.1-0.4-0.2-0.6-0.3
	c-1.5,2.9-3.1,5.7-4.9,9.1c1.8-0.1,3-0.2,4.2-0.2c2-0.1,2.6-1.2,2.3-3C851.6,366.4,851.2,364.6,850.9,362.7z M846.5,373.4
	c1.4,3.1,2.6,5.9,3.9,8.8c0.2,0,0.3,0,0.5,0c0.3-3.1,0.7-6.1,1.1-9.5C849.9,373,848.2,373.2,846.5,373.4z M735.5,528.4
	c1.4-1.7,2.6-3.1,4-4.8c-2.4-0.7-4.5-1.3-6.4-1.9C731.1,525.1,733.5,526.5,735.5,528.4z M844.3,672.2c-0.7-1.7-0.6-3.7-3.2-3.1
	c-3.7,0.8-4.2,1.4-3.7,5C839.6,673.5,841.8,672.9,844.3,672.2z M757.3,476.8c1.4,0.2,2.7,0.1,2.7-2.1c0-2.1-1.3-2-2.7-2
	c-1.4,0-2.9-0.3-3,2C754.2,477,755.6,476.9,757.3,476.8z M754.5,598.9c1.1-1.4,2.3-2.3,2.1-2.9c-0.2-0.9-1.4-1.6-2.1-2.4
	c-0.8,0.8-2,1.4-2.2,2.3C752.2,596.4,753.4,597.4,754.5,598.9z M791.9,471c0.4,1.7,1.3,3.5,3.1,3.1c1.4-0.3,2.4-2,3.6-3.1
	c-0.1-0.2-0.3-0.4-0.4-0.6C796.1,470.6,794,470.8,791.9,471z M853.5,377.1c2.6-1.7,3.7-3.7,3.1-6.5
	C853,371.6,853.7,374.4,853.5,377.1z M832.1,387.8c-0.9,1.5-1.8,2.4-1.8,3.2c0,0.7,1.3,1.9,1.8,1.8c0.8-0.2,1.9-1.2,2-1.9
	C834.1,390.1,833.1,389.3,832.1,387.8z M846.3,666.4c-0.9,1.3-1.9,2.1-1.9,2.9c0,0.7,1.1,1.4,1.7,2c0.7-0.7,1.8-1.4,2.1-2.2
	C848.4,668.6,847.3,667.7,846.3,666.4z M835.7,418.9c-0.2-1.8-0.4-3.6-0.6-5.7c-1.4,1.9-2.7,3.5-3.9,5.1
	C832.7,418.5,834,418.7,835.7,418.9z M909.5,689.7c-0.4-2.3-0.7-4.3-1-6.4C906,688.5,906.2,689.8,909.5,689.7z M856.2,364.2
	c-0.3-0.1-0.6-0.2-0.9-0.3c-0.5,1.8-1.1,3.5-1.7,5.5C858.4,368.8,854.4,365.6,856.2,364.2z M770.7,519.5c-2.1,2.1-0.5,3.7,0.7,5.3
	C771.2,523,771,521.2,770.7,519.5z M795.4,478.3c-1.1-0.7-1.8-1.4-2.3-1.3c-0.6,0.1-1.4,1-1.4,1.5c0,0.5,0.9,1.3,1.5,1.4
	C793.7,479.8,794.3,479.1,795.4,478.3z M891.9,674.2c0.6-1.1,1.2-1.8,1.1-2.3c-0.1-0.6-0.9-1.1-1.4-1.6c-0.4,0.6-1,1.1-1,1.7
	C890.6,672.6,891.2,673.2,891.9,674.2z M725.9,695.1c0-1.7,0-3.2,0-5.1c-0.9,1-1.6,1.6-2.2,2.2C724.5,693.2,725.1,694,725.9,695.1z"
	/>
<path d="M390.5,671.7c-1.1,2.1-2.5,1.8-4.1,0.6c-0.4,1-0.7,1.8-1.2,2.9c-0.4-0.7-0.7-1.3-1.1-1.9c-0.2,0.1-0.5,0.3-0.7,0.4
	c-0.6,1.8-1.2,3.5-1.7,5.3c-0.1,0-0.3-0.1-0.4-0.1c-0.4-3.5-0.6-7.1-1.1-10.6c-0.2-1.5-0.8-3-1.4-4.4c-1.3-2.8-2.8-5.6-4.4-8.7
	c-0.5,0.1-1.6,0.2-2.6,0.3c-0.2-0.2-0.4-0.3-0.6-0.5c4.6-1.1,3.1-4.9,3.9-7.6c2.7-9,10-14.9,18.9-14.9c9,0,16.8,6.2,19,15
	c1.5,6.3,0.2,12.1-4.1,16.7c-2.6,2.8-2.5,5.3-1.7,8.4c0.3,1.4,0.6,3-1.6,3.2c-0.4-1.9-0.8-3.7-1.2-5.4c-0.3,0-0.6-0.1-0.9-0.1
	c-0.6,1.8-1.1,3.5-1.8,5.6c-0.2-0.6-0.3-1-0.5-1.4c-0.3,2.5-0.7,4.9-0.9,7.3c-0.4,3.8-0.6,7.7-1.1,11.5c-0.1,0.8-0.7,1.5-1.1,2.3
	c-0.2-0.1-0.4-0.2-0.7-0.2c0-7.9,0-15.8,0-23.7c-0.3-0.1-0.6-0.1-0.9-0.2c-0.5,2-0.9,4-1.4,6c-0.1,0-0.3,0-0.4,0c0-2,0-3.9,0-5.8
	c-1.7-0.6-2.5-0.3-2.7,1.4c-0.2,2.5-0.5,5-0.7,7.5c-0.1,0.7-0.2,1.4-0.9,2C390.5,679,390.5,675.3,390.5,671.7z"/>
<path d="M783.2,735.1c0.6,0.9,1.8,1.8,1.6,2.6c-0.1,0.9-1.3,2-2.2,2.2c-0.6,0.1-2-1.2-2.1-2c-0.1-0.9,0.9-1.8,1.4-2.8
	C782.4,735.2,782.8,735.1,783.2,735.1z"/>
<path d="M102.2,431.7c0.3,0.4,1.5,1.4,1.4,2c-0.2,0.9-1.3,1.9-2.3,2.2c-1.3,0.4-2.2-0.4-2.2-1.9C99.2,432.4,99.9,431.6,102.2,431.7z
	"/>
<path d="M349.9,320.8c-0.9,0.6-1.8,1.7-2.7,1.6c-0.8,0-2.2-1.4-2.1-2c0.2-0.9,1.3-2.1,2.1-2.3c0.7-0.2,1.7,1,2.5,1.5
	C349.9,320.1,349.9,320.5,349.9,320.8z"/>
<path d="M156.2,593.2c1.1,1.6,2.2,2.5,2.2,3.4c0,0.7-1.5,2.1-2.1,2c-0.9-0.2-2-1.3-2.2-2.2C154,595.8,155.1,594.8,156.2,593.2z"/>
<path d="M285.7,650.4c-1.5,1-2.3,1.9-3.2,2c-1.3,0.3-2.5-0.4-2.1-1.9c0.3-1,1.2-2.1,2.1-2.3C283.1,648,284.1,649.3,285.7,650.4z"/>
<path d="M881.6,342.6c1.6-0.9,2.5-2,3.2-1.8c0.8,0.2,1.5,1.4,2.2,2.1c-0.8,0.7-1.5,1.9-2.4,2.1C883.9,345.2,883,343.9,881.6,342.6z"
	/>
<path d="M593.9,800.1c0.3,0.6,0.9,1.2,0.9,1.8c0,2.6-0.2,5.2-0.5,7.7c0,0.3-0.5,0.6-1.4,0.8c0.2-3.5,0.4-7.1,0.6-10.6
	C593.7,799.9,593.8,800,593.9,800.1z"/>
<path d="M483.7,447.6c-2.8-0.4-2.1-2.2-1.9-3.6c0.1-0.4,1.3-1,1.6-0.8C485.4,444.4,484.1,445.9,483.7,447.6z"/>
<path d="M209.1,574.5c0.8,1,1.6,1.6,1.6,2.1c0,0.6-0.8,1.1-1.3,1.6c-0.5-0.5-1.4-0.9-1.5-1.4C207.8,576.3,208.4,575.6,209.1,574.5z"
	/>
<path d="M391.8,593.6c-0.7-1-1.4-1.5-1.3-2c0.1-0.6,0.8-1.1,1.2-1.7c0.6,0.5,1.6,0.9,1.6,1.4C393.3,591.9,392.5,592.6,391.8,593.6z"
	/>
<path d="M399.2,710c-1.7-1.1-2.5-4.3-1.7-5.2c0.2-0.2,0.7-0.4,0.8-0.3c0.4,0.2,0.8,0.6,0.9,1C399.2,706.8,399.2,708.2,399.2,710z"/>
<path d="M479.2,750.9c0.2,2.4,0.4,4.8,0.5,7.3C478,757.4,477.9,754.2,479.2,750.9z"/>
<path d="M611,490.2c0.3,0.7,0.9,1.6,0.7,2c-0.5,1-1.4,1.8-2.2,2.6c-0.3-0.6-1-1.2-0.9-1.7c0.3-1.1,1-2,1.5-3
	C610.5,490.1,610.8,490.1,611,490.2z"/>
<path d="M638.2,587.3c1.3,1.8,1.2,4-0.1,4.7c-0.4,0.2-1.6,0.1-1.7-0.2C635.7,589.9,636.5,588.5,638.2,587.3z"/>
<path d="M454.5,607.9c0.2,0.8,0.9,1.7,0.6,2.3c-0.4,1-1.4,1.8-2.2,2.7c-0.6-0.6-1.7-1.3-1.6-1.8c0.2-0.9,1-1.7,1.6-2.5
	C453.5,608.4,454,608.2,454.5,607.9z"/>
<path d="M820,441c1.5,1.2,2.5,2.3,1,3.9c-0.3,0.3-1.7,0.1-2.1-0.3C817.3,443,818.7,442.1,820,441z"/>
</svg>
