<?xml version="1.0" encoding="utf-8"?>
<!-- Generator: Adobe Illustrator 21.0.0, SVG Export Plug-In . SVG Version: 6.00 Build 0)  -->
<svg version="1.1" id="Layer_2" xmlns="http://www.w3.org/2000/svg" xmlns:xlink="http://www.w3.org/1999/xlink" x="0px" y="0px"
	 viewBox="0 0 1000 1000" style="enable-background:new 0 0 1000 1000;" xml:space="preserve">
<path d="M970.3,425.9c-3.9,3.4-6.1,6.4-9.1,7.8c-11.1,5.2-22.2,10.8-33.9,14.3c-13.7,4.1-27.6,8.5-42.4,6.6c-4.8-0.6-8-1.5-8.4-7
	c-0.4-4.3-3-4.6-6.8-3.6c-14.5,3.7-29,7.3-43.6,10.6c-13.4,3-27,5.5-40.5,8.2c-2.2,0.5-4.5,1.1-6.7,1.3c-6.5,0.5-8.7-2.7-6.4-8.9
	c3.2-8.5,1.8-9.8-7.4-10.2c-9.5-0.4-18.2,1.4-26.8,5.2c-2.8,1.2-6.1,1.1-9.2,1.3c-4.7,0.3-6.7-2.7-4.1-6.6
	c5.1-7.5,10.7-14.6,16.3-21.7c2.8-3.6,5.1-2.6,7,1.1c2.6,5.2,10.7,7.4,15.6,4.1c1.1-0.8,2.4-2.8,2.2-3.9c-1.7-7.7,2.7-13.3,6.1-19.2
	c8.6-14.6,11.9-30.5,12.1-47.2c0-0.3-0.4-0.7-1.3-1.9c-1.5,1.6-3.3,2.9-4.2,4.7c-6.3,12.3-12.4,24.6-18.5,36.9c-2.7,5.5-5.5,6-9,1.1
	c-4.8-6.6-7.5-13.5-2.2-21.4c2.5-3.8,3.4-10.2,6.7-11.7c14-6,15.2-20.4,21.9-31.1c6.6-10.6,11.9-22,18.2-32.8
	c1.4-2.4,4.8-3.6,7.3-5.4c1.1,2.9,3.4,5.9,3.2,8.8c-0.8,16.9-2.1,33.8-3.2,50.6c-0.2,2.7,0,5.5,0.9,8.4
	c16.3-22.3,21.4-49.5,33.8-73.6c19.1,16.1,39.6,14,60.5,8.6c5.2-1.4,10.3-3,15.6-4.4c1.7-0.4,3.5-0.1,5.3-0.2
	c-0.1,2.2,0.5,4.8-0.5,6.4c-3.1,4.9-6.8,9.4-10.2,14.2c-4.3,6.1-8.9,12-12.7,18.4c-2.2,3.8-4.7,5.6-9,5.3
	c-6.2-0.6-12.5-0.9-18.7-1.8c-4.7-0.6-8.3,0-10,5c-0.1,0.4-0.5,0.7-0.6,1.1c-1.4,3.2-2.8,6.4-4.2,9.6c5-0.4,10-0.6,14.9-1.5
	c1.6-0.3,2.7-2.6,4.2-3.6c1.4-0.9,3.6-2,4.8-1.5c1.3,0.6,2.6,2.9,2.5,4.5c-0.4,10.6-1,21.3-1.7,31.9c-0.2,3.1-1.5,4-5,3
	c-4.2-1.2-8.9-1.3-13.3-1c-5.3,0.3-10.7,1.1-15.9,2.4c-2.8,0.7-5.7,2.4-7.6,4.6c-3,3.5-1.7,7.1,2.8,8c4.4,0.9,9.1,1,13.7,0.7
	c5.8-0.4,11.6-1.5,17.4-2.3c5-0.6,6.5,1.1,5.2,6c-1.2,4.3-1.2,10.4-4,12.5c-3,2.2-8.8,0.1-13.3,0.6c-11.4,1.1-22.9,2.3-34.2,4
	c-5.5,0.8-8.2-1.1-9.2-6.4c-2-11.1-4.1-22.1-6.3-33.1c-0.5-2.5-1.7-4.8-2.6-7.1c-0.6,0-1.2,0.1-1.9,0.1c-0.6,2.2-1.6,4.5-1.6,6.7
	c0.3,8.1,0.5,16.3,1.5,24.3c1.3,10.3-1.1,13.9-11.6,14.8c-4.2,0.4-8.5,0-12.5,0.9c-2.2,0.5-3.9,3-5.9,4.6c2,0.9,4.1,2.7,6.1,2.6
	c19.2-0.8,38.3-2,57.5-3c20.2-1,40.4-2.1,60.6-2.8c4.3-0.2,5.8-1.8,4.8-5.8c-0.4-1.6-1.2-3.1-1.8-4.7c-1.6-4.3-1.2-8,3.8-9.5
	c5.2-1.7,7.2-5.3,8.3-10.5c2.8-12.8,6.9-25.4,9.4-38.3c1.8-9.1,2.3-18.6,2.5-28c0.2-10.2-0.8-20.4-0.9-30.7c0-2.1,1.9-4.1,3-6.2
	c1.5,1.5,3.6,2.8,4.2,4.6c2.6,7.3,4.7,14.8,7.1,22.1c1.8,5.3,3.7,5.8,8.2,2.8c6.4-4.3,12.9-6.8,20.9-3.1c4.6,2.1,10.1,2.2,15.1,3.3
	c11.3,2.5,16.3,11.4,17.3,21.3c0.6,5.2-3.9,11-6.4,16.4c-1.1,2.4-3.1,4.5-4.2,6.9c-2.4,5.4-5.2,9.9-12.2,9.8c-1.3,0-2.6,1.8-4.1,2.6
	c-2.6,1.4-5.3,2.5-7.9,4c-2.9,1.7-5.6,3.6-8.4,5.4c1.9,2.2,3.4,5.2,5.8,6.3c5.5,2.5,11.3,4.4,17.1,6c13.1,3.6,20.5,13.2,18.2,26.5
	c-2.1,12.3-4.7,24.5-7.5,36.7c-3.2,13.8-5.7,27.9-10.5,41.2c-7.7,21.2-16,42.2-25.9,62.4c-11.8,24.1-25.1,47.6-38.7,70.8
	c-10.9,18.6-23,36.6-35.2,54.4c-4.8,7-11.4,12.6-17.1,19c-1.9,2.1-3.1,5.1-5.2,6.9c-1.8,1.5-4.6,1.9-6.9,2.8
	c-0.3-2.4-1.7-5.5-0.8-7.1c6.9-11.4,13.7-22.9,21.5-33.7c12.4-17.3,24.4-34.7,32.6-54.6c10.4-25.3,21.3-50.4,31.7-75.7
	c7.7-18.9,14.9-38,22.4-57c0.2-0.4,0.4-0.8,0.5-1.2c4.1-18.9,8.2-37.8,12.2-56.7C971.3,431.1,970.7,429.5,970.3,425.9z M973.1,421.5
	c2-3.5,1.3-6.8-4.5-9.7c-10.5-5.2-18.7-12.9-26.2-21.7c-1.1-1.4-3.4-1.8-5.2-2.6c-0.7,1.6-1.6,3.2-2,5c-0.4,1.8-0.1,3.8-0.2,5.6
	c-0.9,14.3-2.6,16-16.9,18.2c-1.9,0.3-3.5,2.6-5.2,4c1.9,1.2,3.7,3.5,5.6,3.6c8.3,0.3,16.7,0,25-0.2c4.3-0.1,8.7-0.4,13-0.7
	C961.6,422.5,966.4,422,973.1,421.5z M948,336.6c-0.7,0.4-3.7,1.1-4.3,2.7c-2.6,6.8-4.7,13.8-6.4,20.8c-0.4,1.5,1.1,4,2.5,5.1
	c0.9,0.6,4-0.1,4.7-1.2c4.3-6.2,8.9-12.4,12-19.2C958.7,340,955,336.5,948,336.6z"/>
<path d="M292.8,434.5c6.3,0.3,12.6,0.7,18.9,0.7c3.3,0,6.7-0.6,9.9-1.4c5.7-1.5,9.9-0.5,11.6,5.9c0.3,1,1.7,2.5,2.3,2.4
	c1.2-0.3,3-1.3,3.2-2.3c1.4-7.1,6.5-7.1,12-6.9c1.9,0.1,3.8,0,5.6-0.1c3.8-0.3,5.3-1.7,3.1-5.7c-4.2-7.8-8.5-15.6-11.9-23.8
	c-1.2-2.9-0.2-6.7-1.7-10.8c-2,4.5-4.7,8.9-5.9,13.6c-4,15.5-13.7,22.7-29.4,20.9c-4.3-0.5-5.3-4.8-2.6-9.9
	c4.5-8.2,9.2-16.4,13.2-24.8c3.4-7.3,6.6-14.9,8.9-22.7c5.9-20.2,11.2-40.7,17.1-60.9c0.6-1.9,3-3.3,4.6-5c0.9,1.9,2,3.8,2.5,5.8
	c2,8,2.6,16.7,6.1,24c5.7,12,3,22.3-3.2,32.6c-3.2,5.4-5.8,10.2,0.4,15.3c1.3,1.1,0.8,4,1.6,5.9c1.3,3.2,3,6.3,4.6,9.4
	c0.8-0.1,1.6-0.3,2.3-0.4c0.8-2.9,2.3-5.7,2.4-8.6c1.3-23.1,2.3-46.3,3.4-69.4c0-1-0.4-2.2-0.2-3.1c0.7-2.8,1.7-5.6,2.5-8.3
	c2,2,4.5,3.8,5.8,6.2c3.5,6.1,7,12.4,9.4,18.9c1.6,4.3,1.9,9.3,1.8,14c-0.3,18.2-1.5,36.4-1.5,54.6c0,8.2,2,16.5,3.2,24.7
	c0.6,4.4,2.9,6.7,7.8,6c2.3-0.4,4.6-0.1,6.9-0.3c8.2-0.5,11.4-3.3,13-11.5c1.6-8,3.8-15.9,4.8-23.9c1.7-13.6,3-27.3,3.8-41.1
	c1-15.8,1.3-31.7,1.8-47.6c0.2-5.2-0.2-10.4-0.2-15.6c0-2.1,0-4.2,0.7-6.1c0.4-1.1,2-2.5,3.1-2.5c1-0.1,2.6,1.1,3.2,2.2
	c6.5,11,14.2,20.9,25.4,27.7c4.5,2.7,4.8,7.1,3.2,12.2c-5.6,17.7-11.6,35.3-16,53.4c-5.1,21.2-4.7,42.6,0.8,63.9
	c1.6,6.3,3.2,12.6,4,19c0.3,2.7-1.4,5.6-2.2,8.5c-2.3-1-4.8-1.6-6.8-3c-10.5-7-22-7.7-33.9-5.4c-1.7,0.3-3.7,3.4-4,5.4
	c-0.6,5.3-3.6,7.4-8.2,7.7c-3.5,0.3-7.2,0.5-10.6-0.1c-7.4-1.3-14.6-3.3-21.9-4.7c-4.7-0.9-9.5-1.2-14.2-1.9c-3.1-0.4-6.1-1-9.2-1.4
	c-1.8-0.3-4.2-1.2-5.4-0.5c-7.8,5.1-14.8,0.6-22.1-1.2c-6-1.5-11.9-3-18-4.2c-12.2-2.3-24.6-4.1-36.8-6.7c-2-0.4-3.6-4-4.6-6.5
	c-0.7-1.8,0-4.1,0-6.2c0-6.7,1.6-8,8.3-7.2c3,0.4,6,0.1,10.4,0.1c-1.6-3-2.3-5.2-3.7-6.8c-9.1-10.5-13.8-22.5-13.8-36.6
	c0-10.8-0.9-21.7-1.2-32.5c-0.1-5.5,3-8.8,7.3-12.3c5.2-4.2,9.3-9.9,13.7-15.1c4.5-5.4,8.7-11.2,13.3-16.5c2.7-3.1,5-1.6,5.8,1.8
	c0.6,2.4,0.5,5,0.6,7.5c0.5,13.3,5.3,24.1,17.7,30.8c2.3,1.3,4.8,5.7,4.3,8c-1.7,7.6-4.8,15-7.3,22.4c-1.3,4.1-2.6,8.2-3.6,12.4
	c-2.6,11.1-5.1,22.3-13.5,31c-1.3,1.3-2.3,2.9-3.4,4.4C292.6,433,292.7,433.8,292.8,434.5z M277.5,365.1c0.5,7.7,0.9,15.4,1.7,23.1
	c0.3,2.4,1.3,4.9,2.6,6.9c3.4,5,8.2,4.9,11.7,0.1c3.1-4.4,6.5-8.7,8.8-13.6c1.4-2.9,2.3-7.8,0.8-9.8c-5-6.5-12.1-10.6-20.3-12.2
	C278.9,358.9,277.1,361.2,277.5,365.1z"/>
<path d="M530.7,418.8c2.9-4.5,6.1-8.9,8.5-13.7c7.8-15.4,16.1-30.7,22.7-46.6c6.4-15.6,10.9-31.9,16.3-47.9c0.4-1.2,0.5-2.6,1.2-3.5
	c1.1-1.3,2.7-2.2,4.1-3.2c0.8,1.6,2,3.1,2.1,4.7c0.2,2-0.6,4.1-0.6,6.2c0.1,7.9-0.3,15.6,3.8,23.1c3.9,7.3,1.6,9.9-3.6,16.2
	c-6.9,8.4-13.5,17.6-17.8,27.5c-4.7,10.7-7,22.5-9.4,34.1c-1.4,6.8-2.8,13-11.3,15.1c0.4,0.6,0.8,1.2,1.1,1.8c2,0.5,4,1.5,6,1.6
	c7.7,0.1,15.5,0,23.2-0.4c1.6-0.1,3.9-1.1,4.4-2.3c2.1-5,4.3-10.1,5-15.4c0.4-3.1-1.2-7.4-3.5-9.6c-1.2-1.2-5.8,0.8-8.7,1.8
	c-2.6,0.9-4.4,5.7-7.8,1.8c-2.9-3.3-1.7-6.8,1.2-9.5c3.2-2.9,6.9-5.3,10.2-8.1c1.7-1.5,2.9-3.7,4.8-6c-11.2-2.6-11.9-3.9-6.7-12.6
	c2.7-4.4,5.8-8.7,9.1-12.7c3.5-4.4,10.5-5.9,12.4,1.8c3.1,12.7,6.4,25.4,9.2,38.2c1.1,4.9,1.4,9.9,1.8,14.9c0.4,5.2-0.9,9.4-7,10.8
	c-1.6,0.4-2.8,2.6-4.1,3.9c1.6,1,3.1,2.3,4.9,2.8c1.7,0.5,3.9,0.6,5.6,0.1c10.6-3.2,21.3-2.6,32.2-2.6c13.7,0,27.4-1.6,41.2-2.8
	c9.7-0.8,11,0.6,7.4,9.8c-1.6,4.1-3.6,8-6,11.6c-2.6,3.9-6.2,5.6-11.4,6.1c-13.7,1.3-27.3,3.8-40.9,5.9c-2.7,0.4-5.4,0.8-8,1.5
	c-6.3,1.6-10.9,0.3-13.3-6.4c-1.3-3.6-4.6-4.1-8.4-3.5c-14.4,2.6-28.8,4.7-43.2,7.3c-6.1,1.1-12.1,3.3-18.1,4.9
	c-6.3,1.6-8.6,0.2-9.8-6c-2.2-11-11.2-15.4-21.4-9.5c-4.6,2.6-8,7.1-12.1,10.6c-1.7,1.4-3.8,2.4-5.8,3.5c-1.2-2.3-3.9-5-3.3-6.7
	c3.1-9.5,2.5-20.2,10.5-28.2c3-3,4.3-8.4,5.2-12.9c1.3-6.3,1.3-12.9,2.2-19.3c0.7-5.1-1.1-8.4-5.9-10.4c-9.8-4.1-19.7-8.2-29.2,0.3
	c-2.3,2-4,4.8-6.1,7c-1.1,1.1-3.1,2.5-3.9,2.2c-1.4-0.7-2.6-2.5-3.2-4.1c-0.5-1.2-0.2-2.9,0.1-4.3c2.1-8.9,4.4-17.8,6.5-26.8
	c1.9-8,4.6-9.2,12.6-7.3c8.2,2,16.7,3,25,4.7c6.2,1.2,8-1.9,7.8-7.2c-0.5-10.7-0.6-21.3-1.6-31.9c-0.9-9.4,0.5-11.7,11-15.9
	c2.4-1,4.7-2.9,6.3-5c3.4-4.5,6-9.5,9.4-13.9c1.3-1.7,4.3-3.6,5.8-3.2c1.7,0.6,3.5,3.7,3.5,5.7c0,10.9,0.2,21.8-1.1,32.5
	c-1.9,15.5-5.4,30.8-7.7,46.3c-2.3,14.9-4,29.8-5.8,44.8c-0.3,2.2,0,4.5,0,6.7C529.1,418,529.9,418.4,530.7,418.8z"/>
<path d="M99.2,423c-8.1,8.8-26.3,11.9-36.4,6.4c-4.1-2.2-4.9-7.6-1.6-11.3c1.1-1.2,2.6-2.2,3.6-3.5c3.4-4.3,1.5-8.8-3.8-9.7
	c-5.5-0.9-10.9-2.4-16.4-2.8c-1.6-0.1-4.6,2.3-5,4.1c-3.9,14.9-9.8,28.8-5.1,45.6c5.9,20.7,7,42.8,11.6,64
	c3.3,15.2,8.8,29.9,13.4,44.9c1.1,3.6,2.9,6.9,4,10.5c6.5,23.4,18.7,44,31.2,64.5c5.2,8.5,9.4,17.6,15.1,25.8
	c4.4,6.4,10.4,11.7,15.8,17.4c3.4,3.6,7.3,6.9,10.5,10.7c1.6,2,2.5,4.8,3,7.4c0.3,1.3-0.7,3.6-1.8,4.1c-1.1,0.6-3.4,0.1-4.4-0.8
	c-9.4-8.1-19.3-15.9-27.9-24.8c-6.3-6.5-11.2-14.5-16.2-22.1c-7.1-10.8-14.3-21.5-20.2-32.9C59,602,50.3,583.3,41.7,564.6
	c-5.3-11.5-10.2-23.3-14.4-35.2c-5-14.2-9.6-28.5-13.4-43c-2.9-11.2-3.8-23-6.3-34.3c-1.8-8.2-5-16.1-7.1-24.3
	c-0.7-2.7-0.9-6.5,0.5-8.7c11.4-18.4,23.7-36.2,34.9-54.7c11-18.1,21-36.9,31.6-55.2c1.1-1.9,3.4-3.2,5.1-4.8
	c1.2,2.3,3.5,4.6,3.5,6.8c-0.2,10.9,0.4,22-1.9,32.5c-1.8,7.8-7.5,14.7-11.6,22c-4.1,7.3-8.3,14.5-12.6,21.6
	c-2.5,4.2-1.8,6.7,3.5,7.1c0.6,0,1.2,0.3,1.9,0.3c2.4,0.1,4.8,0.2,7.2,0.2c-0.4-2.7-0.9-5.5-1-8.2c-0.2-3.4-1.2-7.2,0-10.1
	c2.5-5.9,6.1-11.4,9.5-16.8c0.7-1.1,2.9-2.2,4.1-1.9c1.2,0.3,2.7,2.1,3,3.4c2.4,12.3,4.5,24.6,7,36.9c0.8,4,2.9,7.7,4.4,11.6
	c0.6-0.2,1.2-0.3,1.8-0.5c7.9-18.5,15.7-37,23.7-55.5c4.6-10.5,9.7-20.7,14.4-31.2c1.4-3.2,1.7-6.9,3.1-10.2
	c0.7-1.6,2.8-2.6,4.2-3.9c1,1.7,2.1,3.3,3,5.1c0.3,0.7,0.2,1.7-0.1,2.5c-5.8,16.2,3.1,29.1,9.3,42.7c1.6,3.6,2.8,7.4,3.8,11.2
	c2.8,10.7,5.6,21.3,8.1,32.1c1.4,6.3,2.4,12.7,2.9,19.1c0.4,5.5-2.4,7.4-7.8,6.8c-3.5-0.4-7.1-0.7-10.6-0.5
	c-4.7,0.3-6.7-1.6-6.2-6.2c0-0.4,0-0.8,0-1.3c0.7-10.4,0.7-10.4-9.3-11.6c-0.2,0-0.5,0-0.6-0.1c-8.9-6.2-10.4,0.8-12.7,7
	c-1.2,3.3-3,6.4-4.7,9.5c-3.1,5.8-5.3,6-9.6,1.2C101.4,424.8,100.3,423.9,99.2,423z M125,395.8c2.5,0.4,3.9,1,5.3,0.8
	c3.3-0.3,8,0.3,9.4-1.6c2.8-3.7,1.3-8-2-11.8c-1.4-1.6-1-5.2-0.6-7.8c0.5-3.2,1.8-6.3,2.8-9.5c-0.7-0.2-1.4-0.4-2.1-0.7
	C130.7,374,129,385,125,395.8z"/>
<path d="M770.7,328.3c-0.6,1.4-1.6,4.1-3,6.5c-8.2,14.2-16.6,28.4-24.9,42.6c-1.9,3.2-3.4,6.6-5.5,9.7c-6.9,10.3-6.1,21.4-3.1,32.6
	c1.3,4.8,0.6,8.1-4.1,11c-3.4,2.1-6.5,5.5-8.4,9c-10.3,18.8-20.4,37.8-30.2,56.9c-2.8,5.5-4.7,11.6-6.7,17.6
	c-4.5,13.5-12.1,25.3-19.4,37.5c-10.8,18.2-19.3,37.8-29.1,56.6c-11.6,22.2-25.7,42.8-42.1,61.8c-8.8,10.2-17.3,20.7-26.2,30.9
	c-1.1,1.3-3.7,2-5.4,1.7c-1-0.2-2.7-3.3-2.2-4.4c2-4.7,4.5-9.2,7.1-13.5c4.3-7.1,9.3-13.7,13.4-20.9c11.4-20.2,22.6-40.4,33.5-60.8
	c9.4-17.6,18.4-35.5,27.5-53.3c7.9-15.6,15.9-31.2,23.4-47c9.1-19.5,17.5-39.3,26.6-58.7c7.4-15.9,15.1-31.6,23-47.3
	c12.3-24.4,23.2-49.4,32.3-75.2c1-2.9,0.8-6.5,2.3-9c3.1-4.9,7-9.4,11-13.7c0.3-0.4,4.3,1.2,4.6,2.4
	C767,309.6,768.6,318.2,770.7,328.3z"/>
<path d="M196.1,403.2c2.5-10.1,4.8-20.3,7.6-30.3c1.2-4.2,4.3-4.6,6.7-0.8c3.2,5,4.8,2.5,7-0.9c11.1-17,16.5-36.3,24-54.9
	c1.3-3.1,4.1-6.7,7.1-7.8c5-1.9,9.4,4.8,7,10.5c-7.4,18.1-8.7,36.8-7,56c0.6,7.7,0.2,15.5,1.2,23.2c0.8,5.6,3.4,11,4.7,16.6
	c0.7,3.2,0.9,6.7,0.5,10c-0.6,5.1-3.3,10.2-2.7,15c2.3,16.5,5.5,32.9,8.7,49.3c3.6,18.4,7.9,36.8,11.1,55.3
	c5.8,33.1,15,64.5,38.2,90.4c7.5,8.3,13.4,18.1,19.7,27.4c1.3,1.9,1.9,4.7,1.8,7.1c-0.1,4.2-3.3,5.8-6.2,3.2
	c-22.7-21-45.2-42.5-55.6-72.5c-6.9-19.9-12.5-40.3-17.2-60.8c-6.1-26.8-10.7-54-16.1-81c-0.8-4.1-2.8-8-3-12.1
	c-0.6-13.3-0.8-26.6-0.7-39.9c0-10,0.7-20,0.8-30.1c0-1.8-1.4-3.5-2.2-5.3c-1.5,0.9-3.2,1.6-4.5,2.7c-7.4,6.2-8.3,13.8-5.2,22.7
	c1.3,3.8,1.6,8.2,1.1,12.2c-0.3,2.1-3,4-4.8,5.8c-0.7,0.6-2,0.5-2.9,1c-3,1.7-4.4,8.1-8.6,4.9C201.5,415.8,195.2,411.6,196.1,403.2z
	"/>
<path d="M51.6,437.3c22.5,0.8,45,1.7,67.5,2.4c5.4,0.2,10.8-0.9,16.2-0.8c16.9,0.3,33.8,1,50.8,1.1c8.3,0.1,16.7-0.8,25-1.5
	c2.2-0.2,4.5-1,6.5-2.1c5.7-3,7.8-2,9,4.5c1.2,6.8,2.4,13.5,3.5,20.3c0.9,5.9-1.9,8-7.7,6.1c-1.8-0.6-3.6-1.3-5.4-1.3
	c-20.7-0.3-41.3-0.6-62-0.7c-4.7,0-8.9-0.2-12.7-3.8c-1.8-1.8-4.9-2.1-7.4-3.3c-4.8-2.2-7.4-1.2-8.2,4.4c-1,6.8-5.2,9.3-11.7,7
	c-11.6-4.1-23-8.7-34.6-12.8c-6.9-2.4-14-4.2-20.9-6.5c-3.7-1.2-7.6-2.6-10.9-4.6c-1.8-1.1-3.9-4.3-3.4-5.7c0.7-1.9,3.7-3.1,5.7-4.5
	C51.2,436.2,51.4,436.8,51.6,437.3z"/>
<path d="M669.5,326.1c0.3,7.6-3.3,13-7,19.2c-6,10.1-10.2,21.3-14.9,32.2c-3.5,8.1-6.2,16.7-10,24.7c-2.7,5.8-4.3,11-1.2,17.2
	c2.6,5.3,0.1,8.9-5.7,9.7c-12.4,1.9-18.3-2.9-16.5-15.4c1.6-10.6,5.1-21,8.4-31.2c4.5-14.1,9.6-28,14.4-42.1c0.7-2.1,1.4-4.6,1-6.8
	c-2.4-13.4,5-22.2,14-30.1c2.8-2.5,6.3-4.1,9.5-6.1c1.4,3.5,3.3,6.8,4.2,10.4C667.3,313.8,668.2,320,669.5,326.1z"/>
<path d="M687.6,349.1c-1.4,2.2-2.6,3.5-3.2,5.1c-6.9,16.8-13.8,33.6-20.8,50.3c-0.7,1.7-2.5,3-3.7,4.5c-1.2-1.7-2.6-3.4-3.5-5.3
	c-2.1-4.9-3.7-10-6.1-14.8c-1.7-3.4-1.9-5.9,0.3-9.2c2.8-4.4,4.9-9.2,7-13.9c1.7-3.7,3.3-6.3,8.4-5c1.8,0.5,5.6-2.3,6.7-4.5
	c4.2-8.4,7.6-17.2,11.3-25.8c3.2-7.5,6.3-15,10-22.3c1.1-2.2,4-3.5,6-5.2c1.4,2.5,4.1,5,4,7.5c0,12.7-0.4,25.5-1.4,38.2
	c-0.5,6.8-3,13.5-3.6,20.3c-0.5,5.7,0.4,11.5,0.8,17.3c0.2,3.7,1.1,7.4,0.7,11.1c-0.6,6.6-2.1,13.2-2.9,19.8c-0.5,3.9-1.5,6.2-6.3,5
	c-5.7-1.4-11.7-1.8-17.5-2.9c-5-0.9-5.9-4-4.2-8.4c1.7-4.5,3.4-8.9,5.2-13.4c1.1-2.6,2.1-4.9,6-3.5c1.3,0.5,4.8-1.3,4.9-2.4
	c1.5-13,2.7-26.1,3.8-39.2C689.7,351.8,688.7,350.9,687.6,349.1z"/>
<path d="M217.5,309.8c-2.8,15.9-0.2,31.5-8.5,45.1c-5.5,9.1-10.5,18.4-15.7,27.7c-6.1,10.8-6.9,22.6-5.6,34.6
	c0.8,7.7-3.5,12.9-10.8,12.7c-5.3-0.1-8.2-2.9-7.7-8.3c1-10.2,2-20.3,3.8-30.4c0.6-3.7,3.3-7.1,5-10.7c4-8.7,8.4-17.3,11.5-26.3
	c1.6-4.5,1-9.8,1-14.7c0-2.5-1-4.9-1-7.4c-0.1-8.8,0.7-17.1,11-20.6c2.8-0.9,4.8-4,7.5-5.5c2-1.2,5.2-2.8,6.6-2
	C216.3,305.2,216.8,308.4,217.5,309.8z"/>
</svg>
