<?xml version="1.0" encoding="utf-8"?>
<!-- Generator: Adobe Illustrator 21.0.0, SVG Export Plug-In . SVG Version: 6.00 Build 0)  -->
<svg version="1.1" id="Layer_2" xmlns="http://www.w3.org/2000/svg" xmlns:xlink="http://www.w3.org/1999/xlink" x="0px" y="0px"
	 viewBox="0 0 1000 1000" style="enable-background:new 0 0 1000 1000;" xml:space="preserve">
<path d="M423.4,354.5c-5,8.4-3.3,17.4-2.8,26.5c0.5,9.3,1.1,18.3-1.1,28.1c-2.4,10.4-8,17.4-13.8,25c-6.4,8.5-13.5,16.4-21.5,23.9
	c5.3-8.5,10.6-17,15.9-25.5c0.3-0.5,0.7-0.9,1.1-1.3c12.7-13.6,13-30.3,11.9-47.3c-0.1-1.7-1.2-3.4-2.2-5
	c-5.6-9.5-16.9-8.7-25.2-13.6c-1.2-0.7-4.2,1.7-6.3,2.6c1.9,0.4,3.8,0.7,5.6,1.4c2.1,0.8,4.4,1.7,6.1,3.2c3.9,3.3,7.6,6.8,11.2,10.5
	c1.2,1.2,2.1,3.1,2.3,4.8c1.2,12.5,0.8,24.2-13.6,29.7c-2.4,0.9-4.5,2.9-7.6,4.9c-7.7-7.2-15.4-14.4-23.2-21.7
	c-4.2,11.2-8.2,22.3-12.5,33.7c-1.7-1-3-1.7-5.5-3.2c-1.9,20.5-3.7,40.2-5.6,60.2c-11.4,3.3-14.5,0.4-13.7-12
	c0.7-10.2,0.1-20.5,0.1-31.8c-8.7,1.4-18.2,2.9-28,4.4c-5.7-7.6-11.5-15.4-18.1-24.2c-7.3,9.5-14.1,18.3-20.8,27.2
	c-3.4,4.6-6.3,9.6-10,14c-6.3,7.6-7.8,16.4-8,25.8c-0.4,28.4-1,56.8-1.4,85.2c-0.4,33.7-0.6,67.5-1,101.2c0,3.1-1.2,6.3-1.9,9.4
	c-1-0.1-2-0.3-2.9-0.4c0-25-0.3-50.1,0.1-75.1c0.4-29.5,1.3-59,2.2-88.4c0.8-24.5-0.9-49.5,3.7-73.3c6-30.7,17.2-60.5,26.3-90.6
	c1.7-5.6,4.1-10.9,6.8-17.9c-10.2,4.2-16.2,8.7-18.5,18.7c-5.1,22.6-12.7,44.6-17.2,67.3c-4.3,21.8-6.7,44.1-8.5,66.3
	c-2.1,25.7-3.1,51.6-3.8,77.4c-0.4,14.3,0.9,28.6,0.8,43c-0.1,20.7-0.9,41.3-1.1,61.9c-0.1,6.3,0.9,12.6,1.5,20
	c3.2-1.3,4.5-1.8,5.9-2.4c0.2,0.5,0.6,1.1,0.4,1.4c-4.1,8.4,1.4,15.1,5.1,21.2c6.7,11,9,21.8,5,34.2c-3.3,10-5.5,20.4-8.3,30.6
	c0.8-5.3,1.6-10.7,2.5-16c1.7-9.6,5.8-19.5,4.6-28.7c-1.4-10-7.8-19.2-13-30.8c-5.6,10.5-10.3,19-14.6,27.7
	c-0.9,1.7-0.8,4.4-0.2,6.3c5.3,17,10.9,33.9,16.3,50.5c1.5-3,3-6.1,4.6-9.3c-1.4,6.3-2.7,12.6-4.1,19c-0.5,0.1-1,0.2-1.5,0.3
	c-3.1-9.7-6.3-19.5-9.3-29.3c-1.4-4.7-1.5-10-3.7-14.2c-8.7-16.4-3.5-30.6,5.9-44.3c4.8-7,4.5-13.5,1.7-21.9
	c-3.3-10-2.8-21.4-2.9-32.2c-0.1-38.7,0.2-77.4,0.4-116.2c0-7,0-14.1,0-21.6c-8.8,1.6-15.2,5.2-20.2,12.6
	c-7.9,11.6-17.4,22.2-25.7,33.6c-1.9,2.6-2,6.6-2.6,10c-0.7,4.3,0.3,9.7-1.9,12.8c-10.3,14-21.4,27.4-33.3,40.8
	c5.7-17.2,11.5-34.4,17.2-51.6c-0.2,3,0.1,6.2-0.7,9.1c-1.4,5.5-3.4,10.8-5.1,16.1c0.6,0.4,1.2,0.7,1.8,1.1
	c4.9-4.6,9.6-9.3,14.6-13.7c5-4.4,7.3-10.2,2.5-14.6c-2-1.9-8.7,1.4-13.3,2.3c2.3-1.9,4.3-4.3,6.8-5.6c4.4-2.2,7.9-3.8,8.9-9.9
	c1.3-8.5,4.7-16.8,7.1-24.7c-2.5,0.7-6.7,2-11.7,3.5c-1.4-3.3-2.6-6.3-3.8-9.2c2.9,1.6,6.6,5.3,8.5,4.6c16-6.6,31.9-13.8,47.4-21.5
	c2.8-1.3,4.2-5.5,6.2-8.3c-0.7-0.5-1.3-1-2-1.5c-8.5,3.6-16.8,7.5-25.4,10.9c-21.8,8.5-21.8,8.4-25.8,6.7
	c9.7-3.7,22.2-2.8,26.3-16.3c-13.7-5.9-27.1-11.1-40-17.4c-5.1-2.5-8-1.8-10.9,2.3c3.1-5.7,6.2-11.4,9.3-17.2c-1,3-1.9,6.1-3.1,9.9
	c18.1,7.7,36.2,15.5,55,23.6c0.8-3.9,1.4-7,2-9.9c-16.5-7.4-32.3-14.6-48.1-21.7c-1.9-0.8-4.1-1.1-6.1-1.6c0.9-2.5,1.8-5,2.6-7
	c2.5,2.6,4.2,5.7,6.7,6.9c13.5,6.4,27.3,12.3,42.7,19.2c1.3-4.6,2.9-8.7,3.7-12.9c6.2-33.2,11.9-66.6,18.6-99.7
	c2.3-11.6,7-22.8,10.5-33.9c-25.4-12.9-101.4-32-147.8-39.1c10.2,1.1,20.5,1.4,30.4,3.5c23.4,4.8,46.8,9.9,69.9,15.9
	c18.2,4.7,36.2,10.3,53.8,16.8c8.3,3.1,13.3,0.4,19.4-5.8c-14.9-4-29-7.6-42.9-11.7c-4.2-1.3-7.9-4.1-11.9-6.3l0,0
	c7.1,1.7,14.2,3.4,21.3,5.1c7.3,1.9,14.6,3.6,21.8,5.7c17.7,5.1,17.7,5.2,22.9,0.1c-16.1-2-30.5-3.8-45-5.6
	c-2.6-1.7-5.2-3.3-7.8-5.1c-2-1.4-3.9-2.9-5.9-4.3l-0.2,0.2c20.1,4.7,40.2,9.3,62.5,14.5c-6.5,18.6-13.4,36.5-19.1,54.7
	c-5.7,18.1-10.2,36.5-14.3,55.3c27.5-40.7,60.4-76.6,94.4-113.2c-24.3-5.6-47.2-10.9-71.2-16.5c17.9-2.9,34.6-1.3,51.3,0.8
	c6.2,0.8,12.4,1.3,18.6,1.9c5.6,2.7,11.9,19.3,8.5,23.9c-4,5.3-8.9,10-13.4,14.9c2.8-4.3,5.9-8.4,8.2-12.9c1.4-2.7,1.6-6,2.3-9
	c-0.8-0.2-1.6-0.4-2.4-0.6c-6.1,7.2-11.9,14.9-18.5,21.7C296.7,382.9,273,411,252.9,442c-1.8,2.7-3.9,5.4-6.3,7.5
	c-6.3,5.3-6.1,11.7-4.7,19.6c16.7-21.8,32.7-42.7,48.8-63.6c11,4.3,20.7,8.1,30.3,11.8c4.1-9.8,3.6-11.1-4.6-14.2
	c-5.5-2.1-10.9-4.5-16.8-6.9c1.9-3.1,3.2-5.8,5-8.1c8.7-11.1,15.2-24.1,28.4-31c-9.5,12.3-19,24.6-28.5,37
	c7.3,3.1,14.3,6.1,21.6,9.2c2.2-8,3.8-15.8,6.5-23.1c2.8-7.6,6.5-15,10.2-22.2c3.5-6.8,7.7-13.2,11.6-19.9
	c-10.4,30.5-24.5,59.9-32.4,93.5c3.1-1.6,4.9-2,5.1-2.7c7.1-35,25.4-66.2,36.4-99.8c-0.8-0.3-1.5-0.6-2.3-1c-2.3,3.4-4.7,6.9-7,10.3
	c1-3,2.1-6,2.8-9.1c0.4-1.6,0.4-4.7-0.1-4.9c-6.4-2.2-13-3.9-19.5-5.7c-1.8-3.1-3.6-6.3-5.5-9.4c-0.7-1.1-1.5-2.5-2.6-2.9
	c-12.2-5.2-20.9-15.4-32-22.3c-0.1,0,0.2-0.5,0.2-0.7c0,0-0.2,0.2-0.2,0.2c18.1,10.8,36.5,21.3,54.4,32.6
	c9.1,5.7,17.4,12.8,26.2,19.4c2.2-2.9,3.9-5.3,6.4-8.6c-5-3.4-9.7-7-14.7-10c-19.2-11.2-38.5-22.5-58-33.3
	c-12.7-7-25.8-13-38.7-19.7c-3.4-1.8-6.3-6.4-9.4-6.3c-19.2,0.2-33-13.9-50.7-17.2c0.2-0.8,0.4-1.5,0.6-2.3
	c7.8,2.2,15.9,3.7,23.4,6.6c21,8.1,41.8,16.9,62.8,25.2c1,0.4,2.8-1.1,4.2-1.8c2.5-0.9,5-1.8,7.7-2.7c5.7,5.7,8.2,5,13.1-4.2
	c-13.1-1.1-18.3-13.9-28.8-19.6c-0.2,1.4-0.4,2.7-0.5,4c-13.5,4.1-17.1-8.7-24.7-14.6c0,0,0.2,0.2,0.2,0.2c2.7-3.2,5.4-6.4,7.9-9.3
	c16,13.6,28,29.8,49.1,37.4c1,0.7,3.8,2.6,6.7,4.4c5.9,4,11.9,8,17.7,12.1c0.2,0.2-0.6,1.9-0.9,2.8c-8.9-5.1-10.5-4.6-16,6.3
	c2.1,1.4,4.3,2.8,6.7,4.3c3.2-3.8,6.2-7.3,9.1-10.8c11.1,3.8,14.2,14.1,18.7,23.3c1.1,2.2,3.2,4.2,5.3,5.6c3.9,2.7,7.8,5.9,12.2,7
	c3.8,1,8.2-0.5,14.4-1c-12.3-18.5-23.3-35.2-34.3-51.9c0.6-0.5,1.3-1.1,1.9-1.6c17.1,17,34.2,34.1,52.1,52
	c6.2-5.4,11.3-10.5,17.1-14.8c2.4-1.8,5.8-2.8,8.9-3.1c5.1-0.5,10.4-0.1,16.9-0.1c-1.9-11.9-3.8-22.3-5.2-32.7
	c-0.3-2,1.2-4.2,1.9-6.3c0,0,0,0,0,0c2,12.4,4,24.8,6,37.2c1,0,2,0,3,0c4.2-18.5,8.4-36.9,12.7-55.4c0.6,0,1.2-0.1,1.8-0.1
	c4.1,18.6,8.3,37.3,12.4,55.9c0.6,0.3,1.1,0.7,1.7,1c1.2-2.7,2.3-5.4,3.4-7.9c1.5,6.4,11.3,11.3,20.1,9.1c6.3-1.6,9.4,0.9,13.8,5.1
	c8,7.6,17.7,13.5,25.9,19.6c6.5-3.1,12.9-6.2,19.2-9.2c-1.7,2.1-3.4,4.3-5.1,6.4c-7.9,9.8-7.9,9.8,1.4,18.9c0.7,0.7,1.6,1.3,2.7,2.2
	c13.3-21.7,26.4-43.1,39.4-64.3c-2.9,1.7-5.8,3.5-8.7,5.3c5.5-5.8,11-11.6,16.5-17.4c0.5,0.3,0.9,0.6,1.4,0.9
	c-1.2,2.5-2.4,5-3.6,7.5c-5.8,12.8,2.8,18.5,11.9,24.3c1.1-2.8,2.2-5.4,3.3-8.1c-3.9-3.5-7.6-6.6-11-10.1c-1.8-1.8-2.9-4.1-4.4-6.2
	c0.7,0.3,1.7,1.1,2.1,0.9c6.2-3.2,12.3-6.6,18.4-10c0.2-0.4,0.5-0.7,0.8-0.9c2,2.8,3.6,6,6.1,8.1c1.3,1,4.3-0.1,6.6-0.2
	c-0.4-1.5-0.7-3-1.3-5.3c2.2,0.7,4.7,1.6,7.3,2.4c0,0,0,0.1,0,0.1c-1.5,2.4-2.9,4.8-5.2,8.4c0.4,1,1.6,3.7,3.1,7
	c1.9-2.5,3.4-4.6,5-6.7c-1.1,10.8-8.6,9.8-17.7,7.7c2.8,4.3,4.6,7.1,5.6,8.5c-1.8,3.3-4.8,6.2-5.1,9.4c-2.2,26.1-3.9,52.2-5.8,78.7
	c-3.3-2-6.7-4-10.1-6.1c-0.5,0.3-0.9,0.6-1.4,0.8c4.1,8,8.1,16,12.2,24c0.7-0.1,1.3-0.2,2-0.3c0.9-16.7,1.9-33.4,2.8-50.1
	c0.7,0,1.4,0,2.1,0c0,7.3,0,14.5,0,21.8c0.9,0.1,1.7,0.2,2.6,0.4c1.2-9.4,2.3-18.7,3.7-29.8c9.2,4.9,17.6,9.4,26,13.9
	c-0.2,0.9-0.5,1.7-0.7,2.6c-5.4,0.3-10.9,0.5-16.2,0.8c-2.9,7.6,0.8,9.7,7.1,9.9c5.1,0.2,10.2,0.5,15.4,0.7c0.3,0.8,0.6,1.5,0.9,2.3
	c-6.1,2.6-12.2,5.1-18.3,7.8c-3.6,1.6-7.2,3.4-10.8,5.2c-0.1-6.1,2.6-8.6,8.9-8.1c3,0.2,6.1-1.5,9.2-2.4c-0.1-0.7-0.3-1.3-0.4-2
	c-5.3-0.3-10.5-0.5-16.7-0.8c0.4-5.7,0.7-10.7,1-15.8c5.4,0,9.7,0,14,0c-2.8-2.3-5.9-3-8.7-4.4c-7.1-3.8-8.2-0.2-8.9,6
	c-0.7,6.1-2.8,12.1-4.5,18.9c7.8,1.9-0.4,9,1.6,14.3c1.8-2.3,3.3-4.2,4.7-6c-2.2,6.8-4.4,13.6-6.6,20.4c-0.6-0.2-1.3-0.3-1.9-0.5
	c0.5-8.2,0.9-16.4,1.4-24.6c-1.1-0.1-2.1-0.1-3.2-0.2c-0.6,7.9-1.6,15.8-1.4,23.7c0,1.7,4.5,4.4,7.1,4.6c8.4,0.6,16.9,0.2,25.4,0.3
	c2.9,0.1,5.7,0.7,8.7,2.6c-9.1,2.8-18.2,5.6-27.3,8.4c3-2.5,6-4.9,11.4-9.3c-28.7,8.7-35-12.2-45.3-30.8c2.3,16.3,9.9,27.1,19.7,37
	c3.9,3.9,7.6,5.9,12.8,3.3c-3,2.6-6,5.1-9,7.7c-0.9-2-2-4.4-3-6.8c-0.6,0.1-1.2,0.3-1.9,0.4c-0.5,8.7-1,17.4-1.5,26.1
	c-0.7,0-1.4,0-2.1-0.1c0-8.9,0-17.7,0-26.6c0-1.6,0.3-3.5-0.5-4.7c-5.9-9.4-12-18.7-18.1-28.1c-3.2-23.4,3.1-45.5,10.7-67.5
	c-15.5-0.1-25,10.4-37.2,17.1c6.6,9.5,13.2,19.1,20.9,30.2c-6.7,0-11.7,0-15.7,0c7.3,6.7,14.4,13.4,21.5,20
	c0.5,3.6,1.2,7.2,1.3,10.8c0.1,4.3-0.6,8.6-0.7,12.8c-0.1,4.2,0.1,8.4,0.1,12.6c0,3,0,6.1,0,9.1c-0.9,0.5-1.8,1-2.8,1.6
	c-3.7-3-7.4-6-11.1-9.1c0.5-1,1-2.1,1.5-3.1c-1.5,2.3-2.9,4.6-4.8,7.6c-9.1-6.5-17.2-12.2-27-19.2c-4.6,5.3-9.3,10.8-14,16.2
	c1.7-5.2,0.3-8.8-4.6-11.7c-8.2-4.8-16-10.2-24.4-15.7c-2.4,1.8-4.8,3.7-6.4,4.9c6.5,3.8,11.8,6.7,16.9,9.9
	c6.4,4,12.6,8.2,18.8,12.4c-2.2,5.2-4.5,1.4-6.7,0c-6.4-3.9-12.8-7.8-20.4-12.5c-0.4,4-0.7,6.9-1.2,11.2c-1.4-2.5-2.1-3.8-3.2-5.7
	c-2.5,1.6-4.8,2.9-6.9,4.3c1.2,4.1,2.4,8,3.5,11.9c-0.4,0.1-0.7,0.2-1.1,0.4c-1.7-3.5-3.4-7-5.8-12c-3.7,2.9-6.5,5.1-8.3,6.5
	c-3.3-0.2-6.4-0.5-9.4-0.7c0-2,0-4.1,0-5.3c-4.3,0-8.2,0-12.7,0c2.1,6.2,5,9.7,11.5,7.8c-0.3,0.4-0.6,0.9-0.9,1.3
	c-8.6,10.8-7.3,15.7,4.4,23.3c5.7,3.7,10.4,9.1,15.1,14.1c8.1,8.5,15.9,17.3,24.1,26.4c11.7-8.6,22.7-17,34-25
	c2.4-1.7,5.7-2.1,8.6-3.1c0.1,3.3,1.1,6.9,0.2,9.8c-4.2,12.9-8.8,25.7-13.6,38.5c-1.8,4.8-2,8.9,1.9,12.7c-1.6-0.5-3.3-1-4.9-1.5
	c-0.1,1.7-1,4.1-0.2,5.1c5.7,7.4,11.5,14.8,17.8,21.7c5.7,6.4,12.1,12.1,18.2,18.2c0,0-0.1,0.3-0.1,0.3c-0.5,0.3-1,0.6-1.5,0.9
	c0.6,0.9,1.3,1.8,1.9,2.7c4.7,6.3,9,13,14.2,18.9c4.1,4.6,9.3,8.1,14.2,12.3c-1.2-3.5-3.1-6.4-3-9.2c0.5-7.8-4-13-8.5-18.3
	c-1.5-1.7-2.5-3.7-3.8-5.6l-0.2,0.2c2.2,1,4.4,1.9,7.8,3.4c-2.3-10.1-4.3-19.4-6.5-29.4c4.7-0.3,8.6-0.6,13.8-1
	c0-16.2-0.1-32.1,0-48c0.1-9.5,0.7-19,0.9-28.5c0-2.3-1.1-4.7-1-7c0.1-2.5,0-6.3,1.5-7.3c5.5-3.9,10.6-7.5,9.8-15.4
	c0.3,2.2,0.6,4.5,1,7.3c2.7-1,4.9-1.8,7-2.6c0.2,0.2,0.4,0.5,0.6,0.7c-6.1,4.6-12.3,9.2-18.6,14c15,12.8,105,42,133.4,44.1
	c3-3.3,5.6-6.3,8.2-9.2c0,0-0.2-0.2-0.2-0.2c-5,9.9-9.9,19.9-14.9,29.8c1.8-4.9,3.6-9.9,5.1-13.9c-13.3-3.6-25.7-7-39.5-10.8
	c0,12.2,0,24.1,0,35.9c0,29.9-0.2,59.9,0.1,89.8c0.1,14.9,1.6,29.9,1.7,44.8c0,7.1,0.1,15.3-3.2,21.2c-5.5,9.8-2.4,17.8,2.9,24.8
	c9.2,12.5,9.5,25.4,5.8,39.6c-2.9,11.2-4.9,22.7-9,33.7c2.2-11.7,4.5-23.3,6.7-35c1.8-9.4,3.4-18.5-2.5-27.5
	c-3.6-5.6-5.7-12.2-9.1-19.6c-5.4,9.5-10,17.5-14.5,25.5l0.2,0.2c3.5-8.5,7.1-16.9,10.5-25.4c0.9-2.3,2.3-5.8,1.3-7.4
	c-8.3-12.6-6.8-26.9-6.9-40.6c-0.2-37,0.9-74,1.1-111c0.1-16.1-0.5-32.2-1.1-48.3c-0.1-2.1-1.3-5.3-2.9-5.9
	c-21-8.2-42.1-16-64.9-24.6c0,26.6,0,51.4,0,76.8c3.7,0.3,7.6,0.7,12.6,1.2c-2,5.1-3.7,9.5-5.4,13.9c0.2-3.7,0.3-7.4,0.5-11.2
	c-3.9,0-7.7,0-11.6,0c0,13.7,0,26.9,0,42.3c4.3-11.9,7.8-21.7,11.3-31.4c-0.3,3-0.1,6.1-1,8.9c-3.7,11.4-8.8,22.7-1.2,34.5l0.2-0.2
	c-1.9-1.3-3.8-2.6-5.7-3.9c-1.2,3.5-2.5,6.9-3.2,9c10.9,11.7,20.9,23.1,31.7,33.8c9.5,9.5,19.8,18.1,29.7,27.1l0.1-0.2
	c-11.7-1.6-18.5-10.5-26.5-17.6c-6.7-6-13.5-12-19.8-18.4c-6.7-6.8-12.9-14.2-19.4-21.2c-3.6-3.8-7.3-7.5-11-11.2
	c-5.7-5.6-11.5-11.1-17.2-16.7c-9.9-9.9-19.5-19.9-29.4-29.7c-5.8-5.8-12-11.2-18.3-17.1c7.2-21.1,14.5-42.3,21.8-63.6
	c-0.6-0.5-1.1-1.1-1.7-1.6c-9.1,6.5-18.1,13.1-27.3,19.4c-12.8,8.6-25.8,17-38.7,25.4c4.7-4.3,9.4-8.6,13.8-12.6
	c-12.3-11.8-24.6-23.7-36.5-35.1c0,19.9,0,40.1,0,61.2c8.7-5.2,15.8-9.5,23-13.8c-5.8,4.8-11.4,9.7-17.3,14.3
	c-3.2,2.5-5.5,4.4-4.7,9.7c1,6.7-0.7,13.8-1.3,22.8c14.7-10,27.7-18.9,41.6-28.4c-2.9,13.8-5.6,26.5-8.3,39.2
	c-5.7-3.6-11.3-7.3-17.1-10.8c-1.4-0.9-3.5-1.9-4.9-1.5c-8.7,2.3-10.5,8.8-6,13.6c0.2,4.3-0.6,7.7,0.7,9.2c1.5,1.8,4.9,2,8.2,3.1
	c1.4,1.7,3.5,5.3,6.5,7.6c16.5,12.2,33.2,24,49.9,36c1.4,1,2.7,2.3,4,3.5c-0.1,0.8-0.2,1.6-0.2,2.3c-11.6,0-23.2,0-36.7,0
	c2.4,3.5,3.2,4.7,4.1,5.9c-4.6,4.2-9.3,8.4-7,15.7c5.2,0,10.4,0,16,0c0.3-1.7,0.7-3.8,1.1-5.9c0,0,0.5,0.1,0.5,0.1l0.5,0.2l-0.2,0.5
	l0-0.3c1.3,1.1,2.6,2.2,3.9,3.2c0,0-0.2,0-0.2,0c1.1-0.2,2.1-0.4,3.2-0.6c0.7,0.6,1.4,1.3,2.1,1.9c0.3,0,0.6-0.1,0.9-0.1
	c1.1-0.6,2.3-1.1,3.4-1.7c0-0.4,0-0.7,0-1.1c4,1.5,8,3.9,12.1,4.2c9.4,0.7,18.9,0.3,28.3,0.4c10.4,0.1,19.3-3.6,28.1-10.2
	c-3.9-3.1-7.1-5.6-10.3-8.1c-6.3-5-12.7-9.9-19-14.9c0.3,0,0.6-0.1,0.8,0c28.3,20.9,60.4,34.4,94.3,46.8c-19,7.1-37,12.9-54.2,20.6
	c-10.5,4.7-17.5-0.5-24.8-5.4c-6.7-4.5-13.6-6.2-21.5-6c-23.5,0.6-47,0.5-70.5,1.3c-2.8,0.1-6.8,3.4-7.9,6.1
	c-5.7,14.2-10.4,28.8-16.1,42.9c-3.1,7.6-2.8,14.5,2.1,20.5c8.1,9.9,5.8,20,2.7,30.9c-5.9,20.7-11,41.6-16.5,62.4
	c-0.7,2.6-1.6,5.1-2.4,7.7c-0.4-1.9-1.3-4-0.9-5.8c3.8-16.9,7.2-34,12-50.7c4.8-16.9,11.6-33.3-1.9-49.3c-1.2-1.4-1.6-3.4-2.2-5.2
	c-1.7-4.7-3.3-9.4-5-14.2c0.9-14.6,1.7-29.1,2.6-43.6c-0.8,0-1.6,0-2.4-0.1c0,14.5,0,29,0,43.6c1.7,8.6,2.7,17.3,5.2,25.6
	c2.2,7.2,4.2,13.5,1.2,21.2c-3.2,8.3-4.7,17.3-6.7,26c-2.3,9.8-4.3,19.6-6.5,29.8c-5.1-18.6-10.8-36.4-14.7-54.6
	c-1.4-6.4,0.7-13.8,2.3-20.4c1.5-6,6.5-11.6,6.6-17.4c0.1-19.1-1.3-38.3-2.1-57.4c-0.7,10.9-0.9,21.8-0.7,32.7
	c0.3,11.1,1.9,22.4-5,32.4c-2.8,4-5.2,8.3-8,12.4c-2.9,4.3-4,8.3-1.4,13.6c6.3,12.4,9.5,25.6,11.6,39.6c2.3,14.9,8.2,29.2,12.6,44
	c1.9-1.1,2.8-1.6,3.8-2.1c-0.9,4.4-1.8,8.9-2.7,13.3c-0.5,0.2-0.9,0.3-1.4,0.5c-3.2-10.1-6.6-20.1-9.5-30.3
	c-4.8-17-9.3-34.1-13.9-51.2c-1.6-6-4.6-12.1-4.6-18.1c0-6,3.2-12,4.7-18c0.7-2.9,1.8-6.3,1-9c-5.4-19.4-11.2-38.7-16.7-57.4
	c-26.4,0-52.5-0.9-78.6,0.5c-8.5,0.5-16.6,7.3-25,10.7c-2.8,1.1-6.5,1.7-9.2,0.8c-19.5-6.5-38.9-13.4-58.7-22
	c12.4-4.5,24.8-9,37.2-13.5c-9.8,4.7-19.6,9.5-29.6,14.3c16.9,6.4,33.1,12.8,49.6,18.5c2.9,1,7.4,0.4,10.1-1.3
	c12-7.6,23.9-13.1,39-11.3c11.5,1.4,23.2,0.2,34.9-0.1c4.3-0.1,8.6-0.8,12.9-0.9c10.3-0.1,20.6,0,30.9,0c0-0.8,0-1.5,0-2.3
	c-2.1,0-4.3,0-6.4,0c-26.7,0.1-53.4,0.4-80.1,0.3c-12,0-23.3,1.6-33.4,8.5c-1.3,0.9-3.2,1.9-4.4,1.5c-12.6-4.1-25.2-8.4-37.8-12.6
	c0.1-0.9,0.3-1.8,0.4-2.7c8.5-3.7,16.8-7.8,25.5-10.9c6.1-2.2,12.3-2.6,18.9,0.3c5,2.3,10.9,3.6,16.5,3.6
	c20.7,0.1,41.4-0.6,62.1-0.9c14.8-0.2,29.7,0,44.5,0c0-0.7,0.1-1.5,0.1-2.2c-0.6-0.3-1.2-0.8-1.8-0.8c-30.9,0.6-61.7,0.9-92.6,1.9
	c-9.4,0.3-18.4,0.5-26.4-5.4c-7.4-5.5-14.6-5.6-22.4-0.5c-2.8,1.9-6.9,1.8-10.4,2.7c4.9-2.5,9.9-4.8,14.7-7.4
	c6.8-3.7,13.4-7.7,20.2-11.6c-2.4,3.1-4.8,6.1-7.8,9.9c9,4.8,17.3,10.1,28.2,9.7c34.1-1.2,68.2-1.9,101-2.8c1-5.9,2.1-12.3,3.2-18.8
	c-25.2,0-50.5,0-75.8,0c-0.2-0.5-0.5-1-0.7-1.5c10.4-7.3,20.8-14.7,30.4-21.5c-4.7-1.5-9.3-2.9-14-4.4c0.2-0.6,0.3-1.1,0.5-1.7
	c2.5-0.4,4.9-0.7,7.7-1.1c-1.1-2.3-2-4.2-2.9-6.2l-0.1,0.3l0.3-0.1c-4.3-4.6-7.6-5.4-13.6-0.8c-17.4,13.6-35.7,25.9-53.7,38.8
	c9.7-8.2,19.1-16.8,29.1-24.6c11.2-8.7,22.8-16.9,34.6-24.8c4.4-3,5.2-5.6,3.6-10.6c-4.5-13.9-8.3-28.1-13-44.5
	c-17.1,16.9-32.7,32.4-49.6,49.1c4,3,7.8,5.9,13.2,9.9c-7.7,1.5-17.3-9.7-17.4,5.8c-1.2-0.4-2.8-1.2-3.2-0.8
	c-6,5.9-15.3,6.6-20.8,14c-5.2,7-12.1,12.8-18.4,18.9c-6.1,5.9-12.4,11.5-18.6,17.3c-8.1,7.4-15.2,16.4-27,18.3c0,0,0.1,0.2,0.1,0.2
	c4.1-2.9,9-5.1,12.3-8.8c13.2-14.6,29-26.5,40.8-42.6c3.5-4.8,5.2-8.3,2.7-14.3c-2.6,1.9-6,3.1-7.6,5.6c-6.2,9.3-14.1,16.5-23.7,22
	c0,0,0.2,0.1,0.2,0.1c3.6-4.5,6.9-9.2,10.9-13.4c5-5.3,10.5-10,15.6-14.9c-7.4-15-7.4-15-19.7-12.9c3.3-5.8,11.4-5.5,12.3-14.4
	c1-10-10-8.2-10.8-16c2.8,0.7,5.1,1.1,7.2,1.9c5.3,2.1,9.4,1.5,13.7-3c2.2-2.3,7-3.9,9.9-3.1c10.4,2.6,17.1-1.5,23.2-9.6
	c-1.1,3.4-2.6,6.6-3,10.1c-0.3,2.2,1.2,4.5,2,6.8c1.9-0.9,4.1-1.4,5.7-2.7c6.3-5.2,12.3-10.6,18.4-15.9c-4.4,4.6-8.7,9.5-13.4,13.9
	c-6.3,6-6.6,11.6-2.4,13.6c13.8-13.7,27-26.9,40.6-40.4c-2.5-2.3-4.6-4.2-6.6-6c8.3-7.2,7.3-15.3,3.8-24.6
	c-3.4-8.9-5.2-18.3-7.3-27.6c-0.4-1.7,0.3-5,1.4-5.5c1.5-0.7,4.3,0.1,5.8,1.2c5.9,4.3,11.7,8.9,17.3,13.6c5.1,4.3,10.3,10.2,17.1,5
	c5-3.8,9.7-9.3,12.1-15c3.5-8.2,7.3-16.7,4.2-26.6c-1.6-4.9-0.3-10.8-0.3-16.2c0.8-0.1,1.5-0.2,2.3-0.3c0.7,5.4,1.5,10.8,2.2,16.1
	c0.9,0.1,1.8,0.2,2.6,0.3c0.4-5.3,0.9-10.6,1.3-15.9c0.7,0.1,1.5,0.1,2.2,0.2c-1,8.3-2,16.6-3.1,26c1.8-0.6,3.5-1.3,5.2-1.9
	c-0.3,2.3-0.6,4.7-1,8c4.9-3.8,8.7-6.4,12.1-9.4c1-0.9,1.1-2.7,1.7-4.1c-1.4-0.3-2.9-0.6-4.3-0.9c5.4-5,3.7-8.7,1.1-15.5
	c-3-7.9-8.2-7.3-12.7-8c-5-0.8-10.4,1.4-16.4,2.4c0.4,1.2,0.3-0.5-0.3-0.7c-10.4-3.2-7.4-10-5.4-17.2c0.9-3.3-0.2-7.2-2.3-11
	c-0.6,1.6-1.2,3.2-1.9,4.8c-0.6,0-1.3,0-1.9,0c-0.7-7.4-1.4-14.8-2.1-22.3c3.4-1.1,6.2-1.9,10.6-3.3c-4.1-1.2-6.8-2-9.8-2.9
	c0-5.1,0-10.2,0-16.2c5.2,2.8,9.6,5.2,14.1,7.6c0.5-1,1.1-2,1.6-3c-5.8-2.8-11.7-5.7-17.5-8.5c2.4-0.9,5.9-3.4,7.1-2.6
	c5.5,3.5,10.3,8,16.8,13.3c-5.1,2.2-8.2,3.5-11,4.8c4.5,2.4,8.9,4.8,13.3,7.2c-1.1,1.2-2.3,2.5-3.4,3.7c0.4-1.9,0.9-3.8,1.3-5.7
	c2.8,15.1,0.3,30.5,3.7,45.4c3.1-16.2-0.2-32.7,3.7-49.5c6.4,3.2,11.1,5.6,16,8c1.6-9.5,1.8-18.6-3.6-27.3
	c-6.3-10.1-6.5-20.8-2.7-32c1.8-5.2,2.3-11,3.3-16.4c-0.6-0.7-1.1-1.4-1.7-2c-5.3,2.6-10.5,5.2-15.8,7.8c-2.4,1.2-5.1,3.3-7.4,3.1
	c-8.8-0.8-13.5,4.8-19,10.2c17.7,8.4,31.3,27.7,26.3,39.5c-14.7-8.2-23-21.2-31.1-36.4c-4.1,3.4-8.1,6.6-11.8,9.6
	c2.9,5.1,4.8,9.6,7.7,13.3C417.1,351.3,420.6,352.7,423.4,354.5z M538.5,490.7c0.6-0.3,1.3-0.6,1.9-1l0-0.2c-0.7-0.7-1.4-1.3-2.1-2
	c0.1,1.1,0.2,2.2,0.3,3.3C538.6,490.9,538.5,490.7,538.5,490.7z M458.2,393.2c3.9-0.5,7.9-0.7,11.6-1.7c1.2-0.3,2.5-2.7,2.6-4.2
	c0.1-1.3-1.5-3.7-2.4-3.7c-1.6-0.1-3.4,1.1-4.7,2.2c-2.5,2.4-4.6,5.1-6.9,7.6c-0.8,1.1-2.6,2.9-2.3,3.2c3.8,5.5,8,10.8,12,16.1
	c0.7-0.4,1.3-0.9,2-1.3C466.1,405.3,462.2,399.2,458.2,393.2z M392,350.5c-8.5,4.1-17,8.1-26.2,12.5c3.9,5.4,6.6,9.2,9.4,13
	c0.8-0.3,1.6-0.6,2.4-0.8c-0.5-2.9-1.1-5.7-1.7-9.1c4.8-6.1,10.9-9.4,18.5-4.7c-0.9-3.9-1.7-7.4-2.6-11.1c1.6-5.4,3.2-10.8,4.8-16.2
	c-0.8-0.5-1.6-0.9-2.5-1.4c1.8,9.2-3.1,8.4-9.3,5.5c-0.2,0.7-0.4,1.4-0.6,2.1C386.9,343.8,389.4,347.1,392,350.5z M499,705.7
	c-3,6-3.2,11.4,4.1,17.3c0-4.8,0-7.9,0-10.9c1.4-1,3.5-1.8,4-3.2c2.9-7.7,5.5-15.6,8.2-23.7c-6.3,0.3-11.7,0.6-18,1
	C497.9,693,498.4,699.3,499,705.7z M455.9,690.9l0.3-0.2c-0.9,1.1-2.7,2.4-2.5,3.1c2.2,8.4,4.7,16.8,6.8,24c4.8,0,8.2,0,11.6,0
	c0-10.5,0-21.7,0-35.8c-5.7,2.3-9.7,4-13.8,5.7c-0.3-0.3-0.6-0.6-0.9-0.9c-0.1,0.2-0.2,0.4-0.4,0.6c0.4,0.1,0.8,0.1,1.1,0.2
	C457.4,688.8,456.7,689.9,455.9,690.9z M579.5,381.9c1.2,1,2.8,1.7,3.4,2.9c0.8,1.5,0.2,4.3,1.3,5.1c6.1,4.5,12.5,8.6,18.8,12.8
	c0.7-0.5,1.3-1.1,2-1.6c-0.6-7.5-1.3-15-2-23.9c-4.5,3.1-6.7,4.6-7.1,4.9c-6.9-6.9-13.2-13.3-19.6-19.7c-2.3,3.3-4.3,6.1-6.2,8.7
	c3.4,3.8,6.6,7.4,9.7,11.1c-1.6-0.2-3.3-0.4-5.5-0.7c0.6,10.4,1.2,20.1,1.7,29.8c0.9,0,1.8,0,2.8,0
	C581.9,401.7,581.7,391.8,579.5,381.9z M523.6,362.4c4.1,1.4,8.3,2.9,12.4,4.3c-10.2,3-10.6,3.8-5.7,11.4c3.7-4.3,10.2-6.8,7.5-14.5
	c-0.3-0.9,2.1-2.8,3.4-4.2c7.7-8,15.4-15.9,22.8-23.6c-16.1-21.1-41.7-25.9-64.3-36.7c0.8,2.6,4,5.5,3.4,6.8
	c-3.9,8.7,1.9,16.4,1.8,24.6c-3-9.5-6.5-18.9-8.9-28.5c-4.2-17-7.8-34.1-11.6-51.2c-7.2,26.6-13.2,52.5-18.8,78.6
	c-0.7,3.5,0.1,7.6,1.2,11.1c2.3,7.2,7.3,14,7.7,21.2c1.6,33.5,2.4,67.1,2.7,100.7c0.2,34.4-0.7,68.8-1,103.2c0,2,0.3,4.1,0.4,6.1
	c0.8-0.1,1.7-0.1,2.5-0.2c0-5.1,0-10.1,0-15.2c-0.4-54.5-0.7-109.1-1.4-163.6c-0.2-16.3-1.7-32.6-3-48.9c-0.3-4.2-3.5-8.6-2.8-12.5
	c2.7-15.1,6.4-30.1,9.8-45.1c0.7-0.1,1.4-0.2,2.1-0.3c1,2.3,2.4,4.5,3.1,6.8c2.8,9.4,5.8,18.8,7.9,28.4c0.9,4.3,0.3,9-0.3,13.5
	c-1.3,8.8-4.5,17.6-4.4,26.4c0.3,32.1,2,64.2,2.5,96.2c0.4,31.4-0.2,62.8-0.3,94.2c0,5.6,0,11.2,0,16.8c0.8,0.1,1.6,0.2,2.4,0.3
	c0.5-2.1,1.3-4.3,1.3-6.4c-0.4-31.6-0.9-63.3-1.3-94.9c-0.5-32.5-0.6-65-1.6-97.5c-0.5-14.8,3-27.8,11.9-39.5c0.2,1.5,1,3.2,0.5,4.4
	c-2.4,6-6.2,11.7-7.4,17.9c-1.7,8.9-1.5,18.2-2.2,27.3c1.4,0.2,2.8,0.4,4.2,0.7c2.5-10,5-20.1,7.5-30.1c0.8,0,1.5,0,2.3,0
	c1.9,9.1,3.7,18.3,5.8,27.4c0.4,1.5,2.3,2.7,3.5,4c1.4,4.3,2.8,8.6,3.7,11.3c4-3.4,8.3-7.1,12.7-10.9c-3-0.2-5.9-0.4-9.5-0.7
	c0-3.8,0.3-7.3-0.1-10.8C525.6,368.2,524.4,365.3,523.6,362.4z M459,622.8c-0.7-0.5-1.9-0.8-2.1-1.5c-3.9-13.8-7.6-27.7-11.5-41.5
	c-4.4-15.6-9-31.2-14-48.4c10.8,7.8,20.1,14.8,29.7,21.4c1.8,1.3,5.5,2.3,6.9,1.3c2.1-1.5,3.7-4.7,4.4-7.4
	c2.6-10.5-1.4-18.2-11.1-23.1c-2.1-1.1-3.8-3.1-5.8-4.5c-11-7.8-22-15.5-33-23.3c-2.5,3.5-4.3,6.1-6.1,8.7c-0.4-0.3-0.7-0.5-1.1-0.8
	c0.2-2,0.5-4,0.8-6.2c-4.9-0.3-9.3-0.6-13.7-0.9c0-0.2,0.1-0.5,0.1-0.7c2.6-0.3,5.1-0.6,7.8-0.9c-4.8-2.9-8.8-5.4-13.6-8.3
	c0.6,6,1.3,12.3,1.9,18.4c4.4,0.4,7.9,0.8,11.3,1.1c-0.1,0.5-0.1,0.9-0.2,1.4c-3,0.9-5.9,1.9-9.9,3.1c3,6.7,5.4,12.4,7.9,18
	c0,0.8-0.5,2.5-0.1,3.9c2.2,9.1,10.6,3.6,16.4,7c-5.2,0.3-9.4,0.5-14.1,0.8c0.8,3.2,1.3,5.5,1.9,7.9c7.3,27.4,14.5,54.8,21.8,82.1
	c-2-3.2-3.9-6.4-5.9-9.6c-6.8,5-13.5,9.9-21.3,15.6c7.7,0,13.9-0.4,20,0.1c5.2,0.4,6.8-1.9,7-6.4c1.1,2,2.2,4,4.2,7.7
	c5.7-4.4,10.9-8.4,16.1-12.5c0.7,0.7,2.4,2.6,5.7,6C459.3,626.8,459.2,624.8,459,622.8c4.9,3.5,2.7,14.6,14.4,11.7
	c0-11.6,0.2-24-0.2-36.3c0-1.6-2.7-4.1-4.5-4.4c-5.2-0.9-12.8,9-11.6,14.1C458.2,612.7,458.4,617.8,459,622.8z M497.3,590
	c0,13.1-0.2,25.8,0.2,38.4c0.1,2.1,2.3,4.2,3.5,6.4c1.9-1.4,3.9-2.7,5.7-4.2c0.7-0.6,1-1.6,1.6-2.4c0.3,0.1,0.5,0.2,0.8,0.3
	c-3,9.8-6,19.7-9.4,31.1c8.5-0.6,15-0.8,21.3-1.7c2.1-0.3,4.7-2.3,5.6-4.2c3.9-8.9,6.8-18.4,11-27.2c3.7-7.8,1-11.8-5.7-15.5
	c-5.2-2.8-9.8-6.8-14.7-10c-3.8-2.5-7.7-4.8-11.6-7C503.5,592.8,501.5,592,497.3,590z M723.6,495.9c0,20.7-0.1,40.2,0,59.7
	c0.1,11.6,0.7,23.3,0.6,34.9c-0.1,9-1.2,17.9-1.2,26.9c0,20.1,0.1,40.3,0.6,60.4c0.2,6.3,1.8,12.6,2.7,18.9c1.4,0,2.7,0,4.1,0
	c1.2-5,3.7-10.1,3.5-15c-0.6-15.7-3-31.4-3.2-47.1c-0.4-34,0-68,0.4-102c0.1-11.5,1.2-23,1.8-34.7
	C729.2,497.1,726.6,496.5,723.6,495.9z M485.3,577.3c1.2-0.1,2.4-0.1,3.6-0.2c-0.2-3.9-0.7-7.9-0.6-11.8c0.2-22.6,1-45.3,0.7-67.9
	c-0.6-44.1-2-88.3-2.7-132.4c-0.1-8.8,0.7-18,2.9-26.5c2.7-10.5-0.5-19-6.1-27.8c-2.5,10.1-5,20.3-4.5,30.4
	c0.3,7.2,3.5,13.8,3.2,21.9c-0.9,23.3,0.4,46.8,0.7,70.2c0.5,38.1,0.8,76.2,1.3,114.3C483.9,557.4,484.8,567.4,485.3,577.3z
	 M314.4,597.1c1.4-2.1,2.6-4,3.9-5.9c0.7,0,1.3-0.1,2-0.1c0.5,3.5,1,7.1,1.6,10.8c12.2,2.2,12.2,2.2,22.4-7.7c0.6-0.6,1.3-1.3,2-1.3
	c7.4,0.4,5.5-5.3,6.4-8.4c-2.4-1.3-4.2-2.2-6-3.2c1.8-1.7,3.6-3.4,5.8-5.4c-2.4-3.8-4.7-8.5-8-12.2c-1.6-1.7-5.7-0.9-8-2.2
	c-6.7-3.9-12.2-4.7-15,5.1c-2.9-6.6-5.3-5-8-0.8C306.9,575.4,307.1,586.1,314.4,597.1z M334.3,488.7c3.1-25.9,4.5-52.2,9.7-77.9
	c5.2-25.9,15.9-50.2,32.2-72.1c-2.8-2-5.1-3.7-7.4-5.3c-26.3,44.4-47.5,120.3-42.8,152.8C329.2,487.2,332.5,488.2,334.3,488.7z
	 M690.4,673.8c-1.6-1.1-2.6-2-3.8-2.5c-15.4-6.3-30.7-12.6-46.2-18.6c-1.8-0.7-4.5,0.5-6.6,1.3c-7.5,2.8-14.8,7.9-22.4,8.3
	c-23.4,1.3-46.9,0.9-70.4,1c-12.1,0.1-24.3,0-36.5,0c1,1,2,1.4,3.1,1.4c29,0,58,0.1,86.9-0.1c14.6-0.1,29.5,1.5,43.1-6.1
	c0.8-0.4,2.1-0.1,3.1,0.2c11.4,4,22.8,8.1,34.3,12.2c0,0.9,0,1.9,0,2.8c-11.2,4.1-22.2,8.5-33.6,12c-3.1,1-7.1-0.3-10.4-1.2
	c-7.2-2-14.2-6.1-21.4-6.4c-24-0.9-48-0.6-72-0.7c-9.2,0-18.3,0-27.5,0c26.8,1.9,53.6,2.3,80.4,1.8c15.3-0.3,28.8,3.5,41.1,12.6
	c1.9,1.4,5.6,1.8,7.9,1C656.3,686.7,673.1,680.2,690.4,673.8z M212.7,482.8c8.3-7.2,12.2-14.4,12.7-23.8c0.4-7.9,1.8-15.8,3.6-23.4
	c6.4-26.9,13.1-53.6,19.8-81.1c-0.9-0.3-3.6-1.1-6.6-1.9C231.2,395.7,217.5,437.4,212.7,482.8z M472.6,468.7
	c-6.4,6.7-12.6,11-15.6,17c-3.5,6.7-9,9.3-14.6,12.8c-1.2,0.8-1.9,5.5-1,6.1c9.9,7.9,20.1,15.3,31.2,23.7
	C472.6,508,472.6,489.5,472.6,468.7z M465.9,670.5c-0.1-0.7-0.1-1.4-0.2-2.1c-1.5-0.2-2.9-0.5-4.4-0.5c-24.3,0.6-48.5,1.5-72.8,1.8
	c-14.7,0.2-30.1,2-43.8-1.8c-13.2-3.7-22.1,1.5-34.2,6c7,2.6,12.4,4.3,17.6,6.6c5.7,2.5,10.6,1.5,16.3-0.6c8-2.9,16.7-5.1,25.1-5.4
	c28.7-1.1,57.3-1.3,86-2C459,672.5,462.4,671.2,465.9,670.5z M485.3,803.8c1.4-7.8,1.8-16,4.4-23.4c3.4-9.5,2.8-18.4,0.9-27.9
	c-2.1-10.6-3.7-21.3-4.3-32c-0.7-13.2-0.2-26.4-0.2-39.6c-2.4,0.7-3.8,1.7-3.8,2.8c0.1,12,0.6,23.9,0.8,35.9
	c0.1,9.2,3.2,20.3-0.9,27.2C470.3,766.9,479.8,784.8,485.3,803.8z M504.8,669.4c0.1,0.6,0.1,1.1,0.2,1.7c16.3,0,32.6-0.3,48.9,0.1
	c18.5,0.4,37,1.1,55.5,2c4.8,0.2,10.3,0.6,14.1,3.1c13.7,9,25.1,1.6,38.6-3.5c-12-5.4-22.1-12.3-34.7-5c-3.3,1.9-8,1.7-12,1.7
	c-27.8,0.1-55.6,0-83.3-0.1C522.9,669.4,513.9,669.4,504.8,669.4z M470.8,556.8c-22,8.1-25,14.2-17.8,35.4c0.4,1.1,0.7,2.3,1.1,3.6
	C469.4,586.4,476.4,569.4,470.8,556.8z M305.1,435.1c4.2-0.9,7.5-1.1,10.6-2.2c4.6-1.6,6.5-9.9,2.7-11.8
	c-7.7-3.9-15.8-7.1-23.9-10.2c-1.3-0.5-4.1,0.4-4.7,1.4c-0.8,1.5-0.9,4.2,0,5.7c2.8,4.6,6,9.1,9.5,13.2
	C300.8,433.1,303.4,434.1,305.1,435.1z M279.9,425.5c1.2,1.1,2.3,1.7,2.7,2.6c7,15.3,16.8,23.1,35,17.2c6.3-2.1,9.8-2.9,8-10.6
	c-6.3,1.1-12.5,2.7-18.9,3.1c-3.1,0.2-7.4-0.9-9.4-3.1c-4.5-4.9-8-10.8-12.2-16.7C283.1,420.9,281.6,423.1,279.9,425.5z
	 M644.1,310.6c-0.7-0.1-1.4-0.2-2.1-0.3c-4.2,15.1-8.5,30.3-12.6,45.5c-1.5,5.8,1.2,9.3,7,10.8c1.3-9.6,2.6-18.9,3.9-28.2
	C641.6,329.1,642.9,319.8,644.1,310.6z M648.6,466.7c-1.6,0-3.2,0-4.8,0c0,25.5,0,50.9,0.1,76.4c0,1.2,1.6,2.3,3.1,4.4
	c0.5-10.6,1-19.5,1.3-28.4c0.3-9.3,0.4-18.6,0.5-27.9C648.8,483.1,648.7,474.9,648.6,466.7z M381.8,374.4c-7.4,5-12.7,8.7-18.8,12.9
	c7.3,6.6,12.7,11.5,18.8,16.9C381.8,394,381.8,385.5,381.8,374.4z M603.7,347.5c-7.4,5.3-14.1,10.1-21.6,15.4
	c5.5,5,10.2,9.3,14.8,13.5c0.9-0.1,1.8-0.1,2.6-0.2c-3.7-8.5-9.2-17.6,1.8-20.3c5.6,2.7,9.5,4.7,14.1,6.9c0-2.1,0.2-2.8,0-3
	C611.7,355.9,608,352,603.7,347.5z M558.1,354.2c4.1,2.4,7.5,4.3,12.9,7.5c-8.8-16.2-10.6-16.7-21.5-7.2c-3.4,2.9-6.2,6.5-9.2,9.7
	c10.6,13.4,10.6,13.4,15.7,7.8c-2.3-3.2-4.6-6.4-7.1-9.7C552.6,359.1,555.6,356.5,558.1,354.2z M642.8,588.1c0.3,0,0.7,0.1,1,0.1
	c0-12.6,0-25.2,0-38.2c-4.5,0-8.3,0-12.6,0C635.2,563,639,575.6,642.8,588.1z M194.9,535.8c-13.3,1.3-25,16.9-21.8,30.6
	C180.1,556.5,187.1,546.7,194.9,535.8z M562.2,382.2c-1.3,18.1,2,27.7,10.3,30.4C574.4,390.2,574,389,562.2,382.2z M334.6,289
	c-0.2,0.4-0.5,0.9-0.7,1.3c15.8,10.3,31.6,20.7,47.5,30.9c1.8,1.2,4.6,0.8,7,1.2c0.1-0.9,0.3-1.8,0.4-2.7c-9-5-18-10.1-27-15.1
	C352.7,299.4,343.7,294.2,334.6,289z M539.1,635.5c8.8,0,16.7,0,26.6,0c-8.1-5.9-14.4-10.6-22.2-16.3
	C541.9,624.7,540.7,629.5,539.1,635.5z M441.6,545.3c-0.6,0.3-1.2,0.7-1.7,1c2.2,7.5,4.4,15.1,6.9,23.3c5-3.7,9-6.7,13.6-10
	C453.4,554.3,447.5,549.8,441.6,545.3z M502.6,391.5c-2.4,8.2,2.1,22,8.8,24.1c5.5,1.7,12,7.4,19.3-0.3
	C512,418,510.2,402.3,502.6,391.5z M211.2,508.6c10.7-9.9,12.6-15.2,10.3-27.2C210.2,492.6,209.4,494.4,211.2,508.6z M584.7,396.5
	c0.4,9.3,9,11.1,13.1,16.4c2.9,3.7,7.2,6.4,11.2,9.9c1.9-2.5,3.3-4.2,4.5-5.7C603.9,410.2,594.6,403.6,584.7,396.5z M384.2,381.1
	c4.5,10.2-5,22.5,7.3,29.9C388.6,401.5,398.9,389.1,384.2,381.1z M558.7,383.3c-4.6,4.2-8.4,7.7-12.7,11.6
	c5.2,3.1,10.1,6.1,15.8,9.5C560.7,396.9,559.7,390.4,558.7,383.3z M618.9,380.6c0,9.7,0,19.4,0,30.3
	C626.1,403.1,625.1,385.4,618.9,380.6z M360.9,394.1c-0.1,0.8-0.1,1.6-0.2,2.5c6.7,6.3,13.3,12.7,20.2,18.9c1.2,1.1,3.5,1.1,5.3,1.6
	c-0.4-1.8-0.2-4.2-1.3-5.3c-5.5-5.5-11.2-10.9-17.1-15.9C366.1,394.4,363.2,394.6,360.9,394.1z M303.6,318.7
	c11.9,3.3,24.3,6.8,36.7,10.3C340.8,321.6,326.6,317.8,303.6,318.7z M533.8,547.3c-0.4-0.4-0.8-0.7-1.2-1.1
	c-3.9,2.9-8.1,5.5-11.6,8.9c-1.6,1.5-2.2,4.6-2.2,7c0,1.1,2.9,3.3,3.7,3c2.3-0.8,5.1-2.2,6.1-4.2
	C530.9,556.7,532.1,551.9,533.8,547.3z M525.7,469.9c-4.1,3.4-11.5-9.4-12.9,2.8c-0.3,2.4,4,7.3,6.7,7.7
	C526,481.3,525.7,475.5,525.7,469.9z M396.2,381.4c0,11,0,19,0,27c0.9,0.2,1.9,0.3,2.8,0.5c1-6.9,2.4-13.9,2.8-20.8
	C402,386.4,399.1,384.6,396.2,381.4z M576.4,343.3c1.4,3,2.6,6.3,4.5,9.3c0.7,1.1,3.2,2.1,4.3,1.7c1.3-0.5,2.8-2.7,2.7-4
	c-0.4-3.9-1.6-7.7-2.5-11.3C582.8,340.2,580.1,341.5,576.4,343.3z M446.3,462.8c1.1,6.7,2.3,13.4,3.4,20.1
	C453.2,475.6,458.3,468.1,446.3,462.8z M444.6,354.4c-0.2-9.2-12.3-22.2-16.8-20.5C433.4,340.8,439,347.6,444.6,354.4z M482.3,663.4
	c-0.8,2.2-3.6,6.8-2.7,7.8c4.4,4.5,9.4,3,14.2-0.3C490.4,668.7,487.2,666.6,482.3,663.4z M643.4,370.4c0-11.7,0-22.2,0-34.4
	C639.5,354.9,639.2,367.1,643.4,370.4z M603.9,318.3c-0.8-0.8-1.6-1.7-2.4-2.5c-2.9,2.5-7,4.6-8.3,7.8c-0.7,1.7,3.4,5.4,5.6,8.4
	C600.9,326.4,602.4,322.4,603.9,318.3z M609.4,391.7c0.2,7.4-5,16.6,7.2,21.1C613.9,405.1,611.7,398.4,609.4,391.7z M571,384.9
	c2.5-8.3-2.8-10.3-6.5-13.1c-0.6-0.5-2.8-0.1-3.3,0.6c-0.6,0.8-0.6,2.8,0.1,3.5C564,378.8,567.1,381.4,571,384.9z M621,295.8
	c-0.3,7.7,1.7,9.3,9.8,7.9C630.8,297.7,630.8,297.7,621,295.8z M415.4,323.6c0.8-0.8,1.6-1.5,2.4-2.3c-5.7-6.1-11.4-12.3-17.1-18.4
	c-0.5,0.4-0.9,0.9-1.4,1.3C404.7,310.7,410,317.1,415.4,323.6z M418.5,318.4c-0.5-9.6-8.2-12.6-12.9-18.4c-0.6,0.5-1.1,1-1.7,1.5
	C408.8,307.2,413.7,312.8,418.5,318.4z M431,420.8c9.5,0.7,10.6-1.7,5.9-12.7C434.7,413,433.1,416.4,431,420.8z M612.2,382.1
	c1-0.5,2-1,3-1.4c-1.6-3-2.8-6.3-4.9-8.8c-0.5-0.7-3.7,0.8-7.1,1.7C607.2,377.4,609.7,379.8,612.2,382.1z M506.7,365.2
	c-1.9,8.2-3.5,15.1-5.2,22.5C508,384.4,508,384.4,506.7,365.2z"/>
<path d="M661.5,444.3c4.3-4.9,7.9-5.6,13.2-0.3c8.2,8.1,17.3,15.4,30.3,10.8c12.7-4.5,20.1-17.4,21.5-32.7
	c2.8-29.9-7.8-55.4-23-79.8c-5-8.1-9.3-16.7-14.3-24.8c-1.3-2.1-3.9-3.3-5.8-5c-0.5,0.5-1.1,1-1.6,1.5
	c13.8,26.1,27.7,52.2,41.5,78.3c-0.7,0.4-1.4,0.7-2.1,1.1c-16.4-28.4-32.7-56.9-49.6-86.2c3.2-1.9,6-3.9,9-5.3
	c21.2-9.8,42.5-19.6,63.8-29.2c9.4-4.2,18.9-8,28.5-11.7c3-1.1,6.3-1.6,9.5-1.8c14.6-1.1,29.2-2,43.8-3c7-0.5,14-1.1,21.4-0.1
	c-46.8,19.2-93.5,38.5-141.7,58.3c5.3,7.7,8.8,13.5,13,18.7c1.1,1.4,4.3,1.8,6.5,1.7c20.4-1.4,32.9-6.8,55-23.2
	c8.3,12.2,16.7,24.5,25,36.7c0.3,0.9,0.5,1.7,0.8,2.6c2,4.7,4.1,9.4,6.5,15c-18.1,11.3-36.6,22.7-55,34.2c-0.5-0.8-1.1-1.6-1.6-2.4
	c12.7-9.6,25.3-19.2,37.9-28.8c-10.4-13.1-20.5-26-29.8-37.8c-13.5,3.4-26.5,6.6-38.7,9.7c6.6,17,14.6,34.5,20.1,52.9
	c4.5,14.8,1.5,30.3-7.3,43.1c-5.8,8.5-10.9,15.8-5.8,26.1c-2-3.2-4.1-6.5-6.1-9.7c-2.9,16.8-2.2,18.6,7.3,18.7
	c-0.5-3.1-1-6.2-1.5-9.2c4.3,13.4,15.8,16.1,27.5,18.7c6.6,1.4,13,3.3,19.5,5c0.5-0.6,1-1.1,1.6-1.7c-10.9-20.7-21.9-41.4-33.9-64.3
	c10.4,4.5,18.9,8.1,25,16c0,0-0.4,0.4-0.4,0.4c-5-2.8-10-5.5-15-8.3c37.4,68.1,73,137,104.6,207.9c-0.8,0.4-1.6,0.8-2.4,1.1
	c-5.2-11.3-10-22.9-15.5-34c-13.2-26.5-26.7-52.9-40.5-79.2c-1.5-2.9-5.5-6-8.5-6.3c-2.2-0.2-5,4.1-7,6.7c-2.6,3.3-4.7,7.1-7,10.6
	c2.8-5.8,4.5-12.6,8.6-17.2c6.7-7.5,3.8-13.5-0.6-20c-1.1-1.6-2.3-3-3.4-4.5l0.2,0.2c-3-1.6-5.8-3.5-9-4.6
	c-24.2-8-48.8-15-72.7-24.1c-10.3-3.9-19.5-11.4-28.4-18.3c-4.6-3.6-8.2-4.2-13-1.9C661.9,444.8,661.7,444.6,661.5,444.3z
	 M747.1,290.7c0.2,0.4,0.4,0.7,0.6,1.1c22.7-9,45.4-17.9,68.1-26.9c-0.2-0.7-0.5-1.4-0.7-2.1c-3,0-5.9,0.1-8.9,0
	c-15.8-0.4-31.2,0.3-45.7,8.5c-14.9,8.4-30.8,15-46.4,22.2c-9.7,4.5-19.6,8.5-31.1,13.5c3.8,1,6,2.4,7.4,1.8
	c25.9-10.3,51.7-20.8,77.6-31.2c0.3,0.5,0.5,0.9,0.8,1.4C761.4,282.9,754.2,286.8,747.1,290.7z M694.8,312.7
	c-0.6,0.6-1.2,1.3-1.8,1.9c7.6,13.4,14.4,27.3,22.9,40c14.5,21.7,19.7,45.1,15.2,70.6c-1.2,6.9-3.8,13.5-5.7,20.3
	c4-2.5,7-5.6,8.8-9.3c9.4-19.1,10.3-39.5,2.1-58.5c-8.7-19.9-20.5-38.4-31.5-57.2C702.7,317.2,698.2,315.3,694.8,312.7z
	 M780.9,315.9c-1.9,1.6-2.9,2.5-4,3.3c-11.8,8.8-9.1,6.3-3.5,17.2c2.8,5.5,6.7,10.6,10.6,15.5c4.9,6.2,10.3,11.9,15.7,18.1
	c2.9-1.7,6.2-3.6,9.7-5.6C799.8,348.2,790.5,332.5,780.9,315.9z M705.1,463.5c6.6,2.3,11.5,4,16.6,5.7c0-5.4,0-9.8,0-15
	c-4.7,2.4-8.6,4.3-12.3,6.3C708.5,461.1,707.7,461.7,705.1,463.5z M706.2,308.4c0.2,0.5,0.4,1,0.6,1.4c8.7-3.8,17.4-7.5,26.1-11.3
	c-0.3-0.6-0.6-1.3-0.9-1.9C723.5,300.6,714.9,304.5,706.2,308.4z"/>
<path d="M771.9,436.3c3.7,3.6,8.2,6.7,10.9,11c5,8,9,16.7,13.8,25.8c3.2-5.3,5.9-9.8,9-15.1c4.5,2.6,9,5.3,13.5,7.9
	c-0.4,0.8-0.7,1.6-1.1,2.3c-1.9-0.2-3.8-0.6-5.8-0.6c-3.1,0.1-7.3-0.6-9.1,1.1c-3.4,3.2-5.7,7.4-2.8,13.1
	c5.7,10.9,13.2,18.5,25.7,21.7c22.6,5.8,45,12.4,67.3,19.1c5.6,1.7,10.8,4.8,16.3,7.3c-20.9-5.9-41.7-11.9-62.6-17.8
	c-11.1-3.1-22.2-6.1-33.3-9.1c-0.5,0.7-1,1.5-1.4,2.2c2,2.1,3.7,5,6.2,6.3c3.8,1.9,8.2,2.7,12.4,3.9c30.5,9.2,60.9,18.4,91.4,27.5
	c12.2,3.6,24.4,7,36.7,10.4c0.2-0.7,0.5-1.4,0.7-2c-6.6-2.9-13.2-5.8-19.8-8.6c-10.2-4.4-20.4-8.7-30.6-13c12,4.3,24.2,8.1,36,13
	c16.1,6.6,31.9,13.9,47.7,21c2.4,1.1,4.5,2.8,6.9,4.2c-61.1-1.5-116.4-26-174.9-40.9c22.5,43.2,44.7,85.7,66.6,127.6
	c1-5,2.3-11.5,3.6-18c0.7-0.1,1.3-0.3,2-0.4c10.2,32.5,20.4,65,30.5,97.4c-0.6,0.2-1.3,0.4-1.9,0.6c-9.3-29.1-18.5-58.2-28.5-89.3
	c-2.3,9.3-4.1,16.7-5.8,23.7c-3.3-8.2-6-16.8-10-24.6c-15-29.9-30.3-59.6-45.7-89.2c-17.2-33.1-34.5-66.1-52.1-99
	c-3.6-6.7-8.2-12.8-12.3-19.1C771.5,436.8,771.9,436.3,771.9,436.3z M961.9,561.4c0.2-1.1,0.5-2.2,0.7-3.2
	c-48.1-14.4-96.2-28.8-144.3-43.2c-0.4,0.7-0.8,1.3-1.2,2c3.5,2.4,6.6,5.7,10.5,7.1c9.2,3.2,18.8,5.4,28.3,8.1
	c31.1,8.9,62.2,18,93.3,26.9C953.4,560.1,957.7,560.6,961.9,561.4z"/>
<path d="M212.8,387.7c-2.8-3.5-5.7-7.1-9-11.2c-15.9,23.8-31.3,46.8-46.7,69.7c-0.8-0.5-1.6-1-2.4-1.5c14-21,27.9-42,41.9-63
	c-0.4-0.8-0.7-1.7-1.1-2.5c-34.9,7.3-69.9,14.5-104.8,21.8c0,0.5,0,0.9,0,1.4c7-3.9,13.8-8.5,21.2-11.5c20.3-8.3,40.8-16,61.3-23.8
	c6.9-2.6,13.9-5,20.9-7c1.9-0.5,5.5-0.1,6.3,1.1c5.1,8.2,9.6,16.7,14.4,25C214.2,386.7,213.5,387.2,212.8,387.7z M197.2,362
	c-25.1,9.1-49.3,17.9-73.5,26.7c24.8-3.1,49.2-7.3,73.5-11.5c4.9-0.8,5.8-3.5,4-7.6C200.1,367.2,198.7,364.9,197.2,362z"/>
<path d="M806.3,350.8c-0.3-0.9-0.5-1.7-0.8-2.6c-1.5-3.3-2.5-6.5,2.7-7.4c-0.5,1.2-1.8,2.9-1.4,3.6c2.7,5,5.2,10.3,9,14.3
	c1.1,1.1,6.2-1.5,9.5-2.4c1-0.3,2.1-0.7,3.2-0.6c26.8,0.9,53.7,1.7,80.5,2.8c7.8,0.3,15.6,1.6,23.5,2.6c7.5,0.9,15,1.9,22.5,2.9
	c-47.8-15.7-97.2-20.6-147-22.9c3.5-0.8,7.1-2.4,10.6-2.2c38.4,2,76.6,5.9,113.9,15.5c16.8,4.3,33.5,9.4,50.2,14.3
	c1.4,0.4,2.6,1.5,4.3,2.5c-29.1-3.5-57.4-7.9-85.8-10.1c-28.4-2.3-57.1-8.5-86.2,1.5C812.3,359,809.3,354.9,806.3,350.8z"/>
<path d="M270.7,231.2c0.5,2.1,0.9,4.1,1.9,8.4c-6.4-2.4-11.3-4.2-18.4-6.8c3.8-1.6,5.3-2.3,7.5-3.2c-3.6-4.8-7.1-9.5-10.6-14.1
	c-0.7,0.5-1.3,0.9-2,1.4c2.2,3.4,4.3,6.8,7.7,12.2c-6.7-3.9-10.8-7.2-9.4-13.6c2-9,6.5-15.7,17-17c7.3-0.9,10.7,1.2,13.3,8.2
	c1.4,3.7,5,6.5,7.3,9.8c0.6,0.9,0.3,2.5-0.1,4.6c-4.3-7.9-9.3-8-15.7-3.5c-1.1,0.8-4.4-0.5-6.1-1.6c-2.7-1.8-4.8-4.3-7.3-6.6
	c-1.8,5.3-0.5,7.5,5.2,12c3.7,2.8,6.6,6.6,9.8,10C270.9,231.4,270.7,231.2,270.7,231.2z"/>
<path d="M691.5,221.1c-2-0.4-3.9-0.9-7.4-1.6c4.9-6.4,8.7-12,13.2-17c6.4-7.3,20.3-4.3,23.9,4.8c1.6,4.2,3.4,8.3,5.1,12.4
	c-0.9,0.4-1.8,0.8-2.7,1.2c-0.6-1.6-1.2-3.2-2.2-5.8c-3.9,5.1-7.3,9.7-11,14.5c2.4,0.8,4,1.3,5.6,1.8c0.1,0.7,0.2,1.3,0.3,2
	c-4.9,1.9-9.8,3.8-14,5.4c-0.3-4.2-0.5-6.8-0.7-9.5c0,0-0.2,0.4-0.2,0.4c1.8-0.1,5,0,5.1-0.3c0.8-5.3,4.7-7.7,8.5-10.7
	c1.9-1.5,2.1-5.2,3.1-7.9c-0.5-0.3-1.1-0.6-1.6-0.9c-3.9,3.2-7.8,6.4-9.8,8c-5.9-1-9.8-1.9-13.7-2.1c-0.4,0-1,3.7-1.5,5.7
	L691.5,221.1z"/>
<path d="M937.8,830.5c-4.8-11.4-9.8-22.9-14.5-34.3c-8.6-20.9-17.1-41.7-25.5-62.7c-7.1-17.5-14-35.1-21-52.7
	c-0.9-2.2-1.1-4.6-0.3-7.4c2.2,5.2,4.5,10.3,7.3,16.8c1.5-4.5,2.6-7.7,3.7-10.9c0.3,0.3,0.9,0.7,0.8,0.9
	c-7.5,19.5,6.1,34.4,11.8,50.7c8.2,23.4,18.9,46,27.9,69.2c3.9,10,6.4,20.4,9.6,30.7L937.8,830.5z"/>
<path d="M704.6,182c-2.3-0.1-4.9-1-6.9-0.3c-22.4,7.7-44.6,15.7-67,23.5c-24.2,8.4-47.7,5.1-70.5-5.2c-7.7-3.4-15.2-7-22.4-11.9
	c3.8,1.4,7.9,2.4,11.5,4.3c35.7,19.6,71.6,16.4,107.8,1.8c16.3-6.6,33-12.1,49.6-18.2c0.5,0.6,0.9,1.3,1.4,1.9
	c-1.2,1.3-2.4,2.6-3.6,3.9L704.6,182z"/>
<path d="M604.4,627.1c-14.6-10.3-29.4-20.5-43.8-31c-4.7-3.4-8.7-7.9-13.1-11.9c2.5-3.4,5.6-6.5,7.2-10.2c3.3-7.7,5.6-15.9,8.7-23.7
	c0.7-1.9,2.9-3.2,4.3-4.7c0.7,0.5,1.5,0.9,2.2,1.4c-2.3,7.1-4.6,14.2-7,21.3c-2.3,7-4.8,13.9-7.4,21.5c13.5,9.8,27.2,19.6,40.8,29.7
	C599.4,621.6,601.8,624.5,604.4,627.1z"/>
<path d="M519.2,178.8c4.4-12.6,8.8-25.3,13.3-37.9c-0.5-0.3-1-0.5-1.5-0.8c-7.3,10.7-14.6,21.4-21.9,32.1c-0.7-0.4-1.4-0.9-2.1-1.3
	c12.1-19.3,24.3-38.7,36.4-58c0.6,0.3,1.2,0.6,1.9,0.9c-8,21.9-16.1,43.9-24.1,65.8C520.5,179.2,519.8,179,519.2,178.8z"/>
<path d="M61,669.4c-3.5-9.5-6.9-19-10.4-28.5c-0.7-2-1.3-4-2.3-7.1c-5,19.1-9.7,37.2-14.5,55.2c-0.7-0.2-1.4-0.3-2.1-0.5
	c5.5-21.4,10.9-42.7,16.4-64.1c0.6,0,1.2,0,1.7-0.1c1.6,6.5,3.2,13.1,5.4,21.9c4.4-10.6,8.1-19.3,11.8-28.1c0.8,0.2,1.6,0.4,2.4,0.6
	c-6.1,16.5-17.3,32.3-8.7,50.9L61,669.4z"/>
<path d="M701.3,229.2c-5,6.2-7.6,15.4-17.5,16c-2.8,0.2-5.8-1.6-9.7-2.8c6.7-8.3,12.1-14.8,17.4-21.4c0,0-0.3,0.3-0.3,0.3
	c3.3,2.7,6.6,5.5,9.9,8.2C701.1,229.6,701.3,229.2,701.3,229.2z"/>
<path d="M428.2,115.7c10.6,18.7,21.2,37.5,31.8,56.2c-0.6,0.4-1.2,0.7-1.8,1.1c-6.1-10.3-12.2-20.5-18.3-30.8
	c-0.3,0.1-0.6,0.2-0.9,0.2c2.8,9.7,5.6,19.4,8.4,29.1c-0.5,0.2-1,0.3-1.4,0.5c-6.5-18.4-13.1-36.8-19.6-55.2
	C427,116.5,427.6,116.1,428.2,115.7z"/>
<path d="M409.3,215.2c7.6-2.4,15.3-4.9,22.9-7.2c1.8-0.5,3.7-0.4,5.9-0.6c-1.9-6.7-3.8-13.2-5.9-20.4c-2.1,0-4.8,0-7.6,0
	c0-0.3,0-0.7,0-1c10.9-2,21.8-4,32.8-6.1c0.1,0.6,0.3,1.2,0.4,1.8c-6.3,1.3-12.6,2.7-19.7,4.2c1.9,9.8,3.6,19.1,5,26.3
	c-10.2,0.8-22.1,1.8-34.1,2.8C409.1,215,409.3,215.2,409.3,215.2z"/>
<path d="M656.8,604c6.5,5.6,13.3,10.8,19.3,16.7c8.6,8.5,17.3,17,24.9,26.4c4.9,6.1,7.9,13.9,11.7,20.9c-1.1,0.5-2.2,1-3.3,1.5
	c0,0-0.1,0.2-0.1,0.2c-0.2-14.9-13.2-21.8-20.7-31.9c-9.2-12.4-21.1-22.8-31.8-34.1L656.8,604z"/>
<path d="M579.1,419.9c8,9.8,16,19.6,23.9,29.5c-0.8,0.9-1.7,1.7-2.5,2.6c-9.9-7.1-19.7-14.2-29.6-21.4c0.6-0.9,1.3-1.9,1.9-2.8
	c4.5,3.1,8.9,6.3,15.1,10.6c-4.3-6.6-7.6-11.8-10.9-16.9C577.7,420.9,578.4,420.4,579.1,419.9z"/>
<path d="M714.2,732c3.2,12.2,6.2,24.5,9.8,36.6c2.6,8.5,6.3,16.6,9,25.1c0.7,2.3-0.5,5.2-2.3,8c-6.5-21.1-13.2-42.2-19.4-63.4
	c-0.5-1.6,2-4,3.1-6.1C714.4,732.2,714.2,732,714.2,732z"/>
<path d="M325,196.8c14.3,0.5,30.4,2.8,46.1,1.1c15.6-1.7,30.8-7.5,46.3-11.2C387,199.6,356,207,325,196.8z"/>
<path d="M209.9,392.8c-13.3,19.5-26.5,38.9-39.8,58.4c-0.6-0.3-1.1-0.7-1.7-1c12.7-19.9,25.5-39.8,38.2-59.7
	C207.8,391.3,208.8,392,209.9,392.8z"/>
<path d="M152.4,451.9c-13.2,24.3-26.4,48.6-39.6,72.8c-0.7-0.4-1.4-0.7-2.1-1.1c13.1-24.3,26.3-48.6,39.4-73
	C150.8,451.1,151.6,451.5,152.4,451.9z"/>
<path d="M297.6,283.3c-2.3-0.5-4.8-0.6-6.9-1.6c-18.4-8.8-36.8-17.6-55.1-26.6c-3.8-1.9-7.3-4.4-11-6.6c0.4-0.7,0.8-1.5,1.2-2.2
	c23.9,12.4,47.8,24.8,71.6,37.2C297.4,283.5,297.6,283.3,297.6,283.3z"/>
<path d="M504.9,210.8c5,11.6,3.3,18.5-7.5,25.6c4.7-10.4,7.9-19.8-0.3-28.8c0.3-0.6,0.7-1.3,1-1.9c6.4,0.5,12.9,1,19.3,1.6
	c0,0.8,0,1.7,0,2.5C513.3,210.1,509.1,210.5,504.9,210.8z"/>
<path d="M20.7,822.1c-2.9,9.6-5.5,19.2-8.7,28.7C8.8,860.1,5,869.2,0,878.2c0.6-7,1.3-14,2.1-23.1c1,3.5,1.5,5.1,2.3,7.9
	c4.1-12.5,7.7-24.1,11.7-35.6C16.8,825.3,19.2,823.9,20.7,822.1C20.8,822.1,20.7,822.1,20.7,822.1z"/>
<path d="M937.6,830.7c2.4,4.3,5,8.5,7.1,12.9c4.8,9.9,9.6,19.8,13.8,29.9c1.7,4.1,1.6,8.8,0.8,13.8c-0.8-1.7-1.7-3.4-2.4-5.1
	c-6.3-15.8-12.6-31.7-18.8-47.6c-0.5-1.2-0.2-2.7-0.3-4C937.8,830.5,937.6,830.7,937.6,830.7z"/>
<path d="M770.3,523.3c0,1.1,0.3,2.2,0,3.2c-2.3,9.1-0.4,11,9.8,9.3c0.8,1.7,1.6,3.4,2.5,5.1c0.9,1.7,2,3.2,4.1,6.8
	c-9.5-3.5-17.1-6.3-25.4-9.4C764.6,532.7,767.4,528,770.3,523.3z"/>
<path d="M60.8,669.5c1.1,2.3,2.1,4.6,3.8,8.3c2.4-6.9,4.4-12.8,6.5-18.6c0.7,0.2,1.4,0.5,2.2,0.7c-5.7,17.6-11.5,35.3-17.2,52.9
	c-0.8-0.2-1.6-0.4-2.4-0.6C57,698.2,66,684.8,61,669.4C61,669.4,60.8,669.5,60.8,669.5z"/>
<path d="M409.1,215c-25,8.6-50.2,7.7-75.3,0.5c7.5,0.9,15.2,0.9,22.5,2.8c15.1,3.8,29.5-0.6,44.2-2.6c2.9-0.4,5.8-0.4,8.8-0.5
	C409.3,215.2,409.1,215,409.1,215z"/>
<path d="M616.5,569.5c-1.2-3.4-1.6-7.5-3.9-10c-8.2-9.1-17.1-17.6-25.7-26.3c5.4,4.1,11.1,7.9,16.1,12.5
	c7.3,6.9,14.2,14.4,21.1,21.7c1.4,1.5,2.1,3.6,3.2,5.4c0,0,0.2-0.2,0.2-0.2C623.8,571.6,620.1,570.6,616.5,569.5z"/>
<path d="M20.8,822.1c0.6-6.3,0.2-12.8,2-18.8c3.9-13.1,8.8-26,15-38.4c-5.7,19-11.4,38-17.1,57C20.7,822.1,20.8,822.1,20.8,822.1z"
	/>
<path d="M101.6,544.4c-8.4,19-16.7,38-25.1,56.9c-0.6-0.2-1.1-0.5-1.7-0.7c8.1-19,16.1-38.1,24.2-57.1
	C99.9,543.8,100.8,544.1,101.6,544.4z"/>
<path d="M461.1,254.9c-3.3-1.7-6.6-3.5-11-5.8c0-8.6,0-18.3,0-29.9c2,5.6,4.4,10,5,14.5c1.5,12.3,1.2,12.4,10.4,18.8
	C464,253.3,462.6,254.1,461.1,254.9C461.1,254.9,461.1,254.9,461.1,254.9z"/>
<path d="M83.2,625c6.3-17,12.6-34.1,18.9-51.1c0.8,0.3,1.7,0.6,2.5,0.9c-6.4,17-12.8,34-19.3,51C84.6,625.5,83.9,625.2,83.2,625z"/>
<path d="M12.7,792.5c3.9-23.7,7.8-47.4,11.7-71.1c0.7,0.1,1.3,0.2,2,0.3c-1.3,7.4-2.5,14.8-3.8,22.2c-2.7,15.4-5.3,30.9-8.1,46.3
	c-0.1,0.8-1.3,1.3-2,2L12.7,792.5z"/>
<path d="M469.2,208.9c-9.3,8.6-6.1,18.4-6.9,27.6c-4.3-7.5-2.3-15.6-2.2-23.5c-3-1-5.7-2-8.5-3c0.1-0.7,0.3-1.5,0.4-2.2
	C457.3,208.2,462.4,208.5,469.2,208.9z"/>
<path d="M262.7,669.6c-1-0.5-2.1-1.1-3.1-1.6c3.8-6.9,6.9-14.4,11.7-20.7c4.5-5.8,10.7-10.3,16.1-15.4c0,0-0.2-0.1-0.2-0.1
	c-0.2,1.5,0.1,3.5-0.7,4.3c-6.6,7-13.9,13.5-19.9,21c-2.6,3.2-2.7,8.4-3.9,12.7L262.7,669.6z"/>
<path d="M208.2,324.9c-2.3,0.5-4.8,1.7-6.9,1.3c-18.8-3.9-37.4-8-55.8-13.8c19.6,4.1,39.1,8.2,58.7,12.3
	C205.5,324.9,206.9,324.9,208.2,324.9C208.2,325,208.2,324.9,208.2,324.9z"/>
<path d="M542.9,224.9c-5.8-3.2-11.8-6.5-18-9.9c1.3-2.7,2.9-6,4.5-9.3c0.4,0.1,0.7,0.3,1.1,0.4c-0.5,2.3-1,4.5-1.6,6.8
	c8.5,2,17,4,25.5,6c-0.2,0.7-0.3,1.4-0.5,2.1c-4.5-1.1-9.1-2.2-14.9-3.6C540.9,221.1,542.2,223.5,542.9,224.9z"/>
<path d="M215.6,320.9c-6.2-0.4-12.4-0.2-18.4-1.2c-12-2-23.8-4.7-35.8-7.1c0.1-0.7,0.2-1.4,0.4-2c17.9,3.5,35.8,7.1,53.7,10.6
	C215.4,321.1,215.6,320.9,215.6,320.9z"/>
<path d="M631.1,223.5c3.4-1.6,6.7-3.3,10.1-4.9c13.4-6.2,26.8-12.5,40.2-18.7c0,0-0.1-0.2-0.1-0.2c-11.9,6.5-23.6,13.3-35.7,19.4
	c-4.5,2.2-9.8,2.8-14.7,4.1C630.9,223.3,631.1,223.5,631.1,223.5z"/>
<path d="M139.4,506.5c2.1,1.9,4.8,3.5,6.2,5.8c4.8,8,9.2,16.3,13.7,24.5C151.3,527.6,141.5,519.6,139.4,506.5z"/>
<path d="M630.9,223.3c-13.8,6.5-40.7,9.1-55.7,5.3c12.8-0.8,25.6-1.5,38.4-2.5c5.8-0.5,11.6-1.7,17.4-2.6
	C631.1,223.5,630.9,223.3,630.9,223.3z"/>
<path d="M500.8,172c-11.7-6.5-23.4-8.1-34.9,0.5C476.9,160.7,488.2,160.6,500.8,172z"/>
<path d="M514.7,223.3c0,7.6,0,15,0,23.7c-4,1.6-9.1,3.7-14.1,5.7c-0.8-0.7-1.6-1.5-2.3-2.2C516.4,248.3,509,232.3,514.7,223.3z"/>
<path d="M43.2,312.8c13.7-5.6,25.6-3,37.8,0C68.9,312.8,57.1,312.8,43.2,312.8z"/>
<path d="M646.2,259.7c-0.3,0.2-0.6,0.6-0.8,0.9c0.1-1.3,0.2-2.5,0.2-3.8c10,3.2,14.1-6.2,20.7-10c2-1.1,3.7-2.7,6.4-3.1
	c-6,5.6-11.7,11.6-18.2,16.7C653,261.6,649.1,260,646.2,259.7z"/>
<path d="M268.8,187.5c-7.8-8.5-15.7-17-23.5-25.6c0.7-0.7,1.4-1.3,2.1-2c7.6,8.7,15.2,17.4,22.9,26.2
	C269.8,186.6,269.3,187.1,268.8,187.5z"/>
<path d="M12.5,792.3c-0.6,7.5-0.8,15.1-1.9,22.5c-0.8,5.9-2.6,11.6-5.3,17.2c2.5-13.2,4.9-26.3,7.4-39.5
	C12.7,792.5,12.5,792.3,12.5,792.3z"/>
<path d="M936.1,780.6c-2.4-10.1-4.7-20.3-7.1-30.4c0.5-0.1,1-0.2,1.4-0.3c2.7,10.1,5.3,20.2,8,30.2
	C937.7,780.3,936.9,780.4,936.1,780.6z"/>
<path d="M611,278.6c-8.5,8.9-17,17.7-25.5,26.6C594,296.3,602.5,287.5,611,278.6z"/>
<path d="M704.4,181.8c-4.9,9.6-13,15-23.1,18c0,0,0.1,0.2,0.1,0.2c7.7-6,15.4-12,23.1-17.9C704.6,182,704.4,181.8,704.4,181.8z"/>
<path d="M950.9,841.3c-2.5-10.6-4.9-21.3-7.4-31.9c0.6-0.1,1.3-0.3,1.9-0.4c2.4,10.7,4.8,21.3,7.2,32
	C952,841.1,951.5,841.2,950.9,841.3z"/>
<path d="M531.2,187.5c-6.5-1.1-13-2.1-19.5-3.2c0.1-0.8,0.2-1.6,0.4-2.3c6.6,0.8,13.1,1.5,19.7,2.3
	C531.5,185.3,531.3,186.4,531.2,187.5z"/>
<path d="M117.6,307.1c9.9,0.8,19.9,1.7,29.8,2.5c-0.1,0.6-0.1,1.2-0.2,1.9c-10.1-0.9-20.1-1.8-30.2-2.8
	C117.3,308.1,117.4,307.6,117.6,307.1z"/>
<path d="M468.2,175.5c9.7,0,19.4,0,29.1,0c0.1,0.4,0.1,0.8,0.2,1.2c-9.7,0.4-19.4,0.9-29.1,1.3C468.3,177.1,468.3,176.3,468.2,175.5
	z"/>
<path d="M260.6,168.2c8.7,4.5,17.4,9.1,26.1,13.6c-0.3,0.7-0.7,1.3-1,2c-8.7-4.5-17.4-9.1-26.1-13.6
	C259.9,169.5,260.3,168.9,260.6,168.2z"/>
<path d="M330.3,496.2c1.1,4.4,2.2,8.6,3.3,12.8c-1,0.3-1.9,0.6-2.9,0.9c-1.3-4.2-3.1-8.3-3.7-12.6c-0.2-1.2,3.2-2.8,5-4.3
	c0.4,0.6,0.8,1.2,1.2,1.8C332.1,495.3,331,495.9,330.3,496.2z"/>
<path d="M664.8,264.7C664.8,264.7,664.9,264.7,664.8,264.7c-0.5-1-1-2-1.6-2.9c0.2,0,0.4,0,0.6-0.1c-0.2-0.3-0.3-0.6-0.5-0.9
	c1.1-0.2,2.2-0.3,3.4-0.5C666.1,261.9,665.5,263.3,664.8,264.7z"/>
<path d="M616.6,427.7c0.1,0.2,0.3,0.4,0.3,0.7c0,0.2-0.2,0.4-0.4,0.6c-0.1-0.2-0.3-0.4-0.3-0.6C616.3,428.1,616.5,427.9,616.6,427.7
	z"/>
<path d="M663.4,260.9c0.2,0.3,0.3,0.6,0.5,0.9c-0.2,0-0.4,0-0.6,0.1C663.3,261.5,663.3,261.2,663.4,260.9z"/>
<path d="M458.3,687.9l0-0.1l-0.2,0.2C458.1,687.9,458.2,687.8,458.3,687.9c-0.5-0.1-0.8-0.2-1.2-0.3c0.1-0.2,0.2-0.4,0.4-0.6
	C457.7,687.3,458,687.6,458.3,687.9z"/>
<path d="M538.6,490.9c0.6-0.4,1.2-0.9,1.8-1.3c0,0,0,0.2,0,0.2c-0.6,0.3-1.3,0.6-1.9,1L538.6,490.9z"/>
<path d="M564.9,656.5c-0.6-0.6-1.2-1.2-1.8-1.8c0.6,0.2,1.2,0.5,1.8,0.7C564.9,655.8,564.9,656.2,564.9,656.5z"/>
<path d="M538.5,490.7c0.6-0.3,1.3-0.6,1.9-1C539.8,490.1,539.1,490.4,538.5,490.7z"/>
<path d="M616.7,569.4c-0.3,0.8-0.5,1.6-0.8,2.5c-0.6-0.3-1.2-0.5-1.9-0.8l-0.2-0.1c0,0,0.1-0.3,0.1-0.3
	C614.9,570.2,615.8,569.8,616.7,569.4z"/>
<path d="M612.4,571.8c0.5-0.3,1-0.6,1.5-0.9c0,0,0.2,0.1,0.2,0.1c0.1,0.6,0.1,1.3,0.2,1.9C613.7,572.6,613,572.2,612.4,571.8z"/>
<path d="M455.9,690.9c0,0,0.3-0.2,0.3-0.2C456.2,690.8,455.9,690.9,455.9,690.9z"/>
<path d="M551.6,651.5c-0.1,0.6-0.3,1.3-0.4,1.9c0,0-0.5-0.1-0.5-0.1c-0.1-0.6-0.3-1.1-0.5-1.7c0,0-0.2,0.1-0.2,0.1
	c0.6,0,1.2,0,1.8,0L551.6,651.5z"/>
<polygon points="417.3,603.4 417.6,603.6 417.2,603.7 "/>
<path d="M551.4,654.1c0.1-0.1,0.3-0.1,0.4-0.2c-0.1,0-0.3-0.1-0.4-0.1C551.5,653.8,551.4,654.1,551.4,654.1z"/>
<path d="M556.8,654.7c-0.5,0.8-1.1,1.6-1.6,2.3c0,0,0.2,0,0.2,0C555.8,656.3,556.3,655.5,556.8,654.7z"/>
<path d="M560.5,658.3c-0.2-0.6-0.5-1.3-0.7-1.9c0.5,0.6,1.1,1.2,1.6,1.8C561.1,658.2,560.8,658.3,560.5,658.3z"/>
<path d="M563.4,655c-1.2-0.1-2.4-0.1-3.6-0.2c0,0,0.3,0.2,0.3,0.2c-0.6-0.6-1.3-1.2-1.9-1.9c0,0,0.2,0.2,0.2,0.2c0-0.6,0-1.2,0-1.8
	c0,0-0.2,0.2-0.2,0.2C559.9,652.8,561.7,653.9,563.4,655z"/>
<path d="M555.2,651.7c-1.2-0.1-2.4-0.2-3.6-0.2c0,0,0.2,0.2,0.2,0.2c0-0.6,0-1.3,0-1.9l-0.1,0.3c1.1-0.1,2.2-0.1,3.4-0.2
	C555.1,650.5,555.2,651.1,555.2,651.7z"/>
<path d="M548.2,649.3c0-1,0.1-2,0.1-2.9c0.5,0.6,1.1,1.3,1.6,1.9l0.2-0.1C549.5,648.5,548.9,648.9,548.2,649.3z"/>
<path d="M550,648.3c0.6,0.6,1.2,1.2,1.8,1.8c0,0,0.1-0.3,0.1-0.3c-0.6,0-1.3,0-1.9,0l0.2,0.3c0-0.7,0-1.3,0-2L550,648.3z"/>
<path d="M164.2,523.2c-6.4-8.6-12.7-17.2-19.1-25.7c1-0.7,2-1.4,3-2.2c6,8.9,11.9,17.7,17.9,26.6
	C165.3,522.3,164.8,522.8,164.2,523.2z"/>
<path d="M433.8,617.7c2.7-0.9,5.5-1.9,9.9-3.4c-1.8,2.9-2.7,4.3-3.7,6c1.7,1.2,3.4,2.4,5.4,3.8c-9,7.9-6.3-6.7-12.2-4
	C433.4,619.3,433.6,618.5,433.8,617.7z"/>
<path d="M521.1,360.9c-0.1,4.5-0.1,9-0.5,13.4c-0.2,2.7-1.2,5.4-1.8,8.1c-0.6-6.3-1.3-12.6-1.5-19
	C517.3,362.6,519.8,361.7,521.1,360.9z"/>
<path d="M524.2,624.7c-0.4-0.1-0.8-0.1-1.1-0.2c0.2-0.1,0.4-0.2,0.5-0.1c0.2,0.1,0.4,0.3,0.6,0.5L524.2,624.7z"/>
<path d="M524.1,624.9l-0.2,0.3c0,0,0.2-0.5,0.3-0.5C524.2,624.7,524.1,624.9,524.1,624.9z"/>
<path d="M458.3,687.7c0,0-0.2,0.2-0.2,0.2C458.1,687.9,458.3,687.7,458.3,687.7z"/>
<path d="M614,572.7c0.6-0.3,1.2-0.5,1.9-0.8c-0.6,0.9-1.2,1.8-1.8,2.7C614.1,573.9,614,573.3,614,572.7z"/>
<path d="M548.4,649c0.6,0.4,1.2,0.7,1.8,1.1c0,0-0.2-0.3-0.2-0.3c0,0.6,0,1.2,0,1.8c0,0,0.2-0.1,0.2-0.1
	C549.6,650.7,549,649.9,548.4,649z"/>
<path d="M554.9,651.5c0.6,0.1,1.2,0.2,1.9,0.2c0,0-0.2-0.2-0.2-0.2c0,0.6,0,1.2,0,1.8l0.2-0.2C556.2,652.6,555.5,652,554.9,651.5z"
	/>
<path d="M558.4,654.8c-0.6,0.1-1.2,0.2-1.9,0.2c0.1-0.6,0.1-1.2,0.2-1.8c0,0-0.2,0.2-0.2,0.2c0.6,0,1.2,0,1.8,0c0,0-0.2-0.2-0.2-0.2
	c0,0.6,0,1.2,0,1.9L558.4,654.8z"/>
<path d="M560.1,656.6c-0.6,0-1.2,0-1.9,0c0.1-0.6,0.1-1.2,0.2-1.9c0,0-0.2,0.2-0.2,0.2c0.6,0,1.3,0,1.9,0c0,0-0.3-0.2-0.3-0.2
	C559.9,655.4,560,656,560.1,656.6z"/>
</svg>
