<?xml version="1.0" encoding="utf-8"?>
<!-- Generator: Adobe Illustrator 21.0.0, SVG Export Plug-In . SVG Version: 6.00 Build 0)  -->
<svg version="1.1" id="Layer_3" xmlns="http://www.w3.org/2000/svg" xmlns:xlink="http://www.w3.org/1999/xlink" x="0px" y="0px"
	 viewBox="0 0 1000 1000" style="enable-background:new 0 0 1000 1000;" xml:space="preserve">
<path d="M381.9,762.1c-0.1,0.2,0.9-1.3,2.8-4.1c-6.8,0-12,0-17.2,0c-0.2-0.6-0.4-1.3-0.5-1.9c5.7-2.2,11.3-4.4,17.6-6.9
	c-4.2-29.8,3.7-56.1,25.3-81.4c-11.7-10-21.9-21.3-34.4-29c-22-13.6-34.1-7.1-37.7,18.1c-4.1-23.9,8-35.6,31.3-29.7
	c16.1,4.1,28.3,14.1,37.9,27.6c2.5,3.5,7.1,5.5,10.8,8.2c1.5-1.4,3.1-2.9,4.6-4.3c-13-21.6-25.2-43.8-39.4-64.6
	c-3.4-5-13.7-5.3-24.9-9.3c7.7-4.1,12.8-8.2,18.5-9.6c14.7-3.6,29.7-6,44.6-8.7c2.5-0.5,5.1-0.5,8.2,1.2c-2.6,1.1-5.2,2.2-10.6,4.4
	c19.1,0,35.2,0,52.9,0c0-10.4,0-20.7,0-31.5c15.6,4.7,17.6,7.7,22.7,33.1c2.6-2.3,4.5-4.1,6.4-5.8c-0.1,1.1-0.3,2.2-0.4,3.3
	c14.2,0.7,28.4,1.4,42.5,2.2c0.2-0.7,0.4-1.4,0.5-2.2c-2.5-1.1-5-2.2-10.2-4.6c4.3-0.6,6.1-1.2,7.6-1c19.4,3.4,38.7,6.7,58,10.7
	c3.6,0.7,6.5,4.2,9.8,6.4c-3.4,1.9-6.7,5.2-10.2,5.4c-10.8,0.6-18.1,5.2-23.3,14.8c-8.2,15.1-17.3,29.8-25.4,45
	c-1.7,3.2-0.9,7.8-1.2,11.7c3.3-1.9,7.3-3.1,9.7-5.7c10.9-12,22.3-23.1,38.8-26.8c22.8-5.2,34.4,5.5,31.9,28.9
	c-4.2-23.6-17.3-30.4-38.1-17.7c-12.2,7.4-22.6,17.9-34.5,27.6c22.7,25.9,31.9,52.9,26.7,84.4c5.6,2.1,10.9,4,16.2,6
	c-0.1,0.5-0.2,0.9-0.3,1.4c-5.2,0-10.3,0-16.8,0c1,3,2.8,5.8,2.2,6.7c-23.7,31.1-46.4,63.8-92.3,64c-2.8,19.1-5.5,37.6-8.3,56.1
	c-0.6,0.2-1.3,0.3-1.9,0.5c-1.4-7.4-2.9-14.9-4.3-22.4c-0.3-1.6,0.1-3.3,0-4.9c-1.1-17.2-3.9-30-26.2-34.3
	c-27.2-5.2-46.3-25.1-59-50.2C390.4,769.1,386.2,766.5,381.9,762.1z M455.4,742.7c6.9,17.4,15,34.5,16.3,53.6
	c0.1,1.3,2.6,3.3,3.9,3.4c1.3,0,4-2.3,3.8-3.3c-0.8-6.3-2.2-12.6-3.5-18.8c-0.8-3.5-3.1-7-2.6-10.2c1-6.7,3.5-13.2,5.1-19
	c-9.1-2.1-16.3-3.7-23.4-5.4c1.1-1.1,2.3-3.3,3.2-3.1c4.6,0.8,9,2.1,17.2,4.2c-2.4-12.4-4.1-21-5.7-29.7c-0.2-1.1-0.1-2.4,0.3-3.3
	c6.3-14.9,0-29.2-15.1-34.3c-0.8-0.3-1.2-1.5-1.9-2.2c-7.1-7.8-14.1-15.7-21.2-23.5c-1.2,0.7-2.4,1.5-3.6,2.2
	c10,18.3,20,36.6,30.8,56.3c-18.4,14.4-37.8,29.5-56.6,44.1C420,750,437.7,746.3,455.4,742.7z M534.8,728.5
	c-10.3-6.4-20.6-12.7-30.7-19c13.3-19.7,26.5-36.5,30.8-60c-11.1,9.4-18,19.5-29.3,26c-10.5,6-14.4,18.6-12.9,31.4
	c0.3,2.5,3.5,5.1,3.1,7.1c-1.8,7.6-4.7,14.9-7.2,22.5c5.9,1.1,9.8,1.7,13.7,2.4c0.3,0.4,0.6,0.8,0.8,1.2c0.4,1.4,0.7,2.8,1.1,4.1
	c-5.3,1.3-10.6,2.6-17.5,4.2c4.3,14.6,4,28.8-1,43c-0.7,2,2.7,5.5,4.2,8.4c1.3-2.9,3-5.8,4-8.8c4.8-15.4,9.3-30.8,14-46.2
	c1.1,1.2,2.1,2.5,3.2,3.7c8.2,0.7,16.3,1.4,24.5,2.1c0.2-1.1,0.4-2.3,0.5-3.4c-7.8-2-15.7-4-23.5-6c0.4-1.2,0.8-2.3,1.1-3.5
	c17.8,6.3,35.7,12.6,50.4,17.8c-8.6-8-19.2-17.8-29.8-27.5c13.4,6.7,26.7,13.3,41,20.4c3.6-28.3-1.6-52.3-23.1-75.3
	c-3.3,15.8-6.1,28.9-8.8,41.9c-0.6-0.2-1.1-0.3-1.7-0.5c-0.4-7.6-0.8-15.3-1.1-22.8c-15.8,1.5-15.9,14-19.1,24.3
	C526,720.3,530.4,724.4,534.8,728.5z M464.1,646.8c-7.3,1.3-14.2,2.4-21,3.6c-0.3-1.4-0.7-2.8-1-4.2c7.5-2.7,15.2-4.9,22.4-8.2
	c2.9-1.3,6.6-5,6.7-7.7c0.7-12.2,0.3-24.4,0.3-37.2c-17.2,0-33.4,0-51,0c3.5,1.9,5.9,3.3,8.4,4.7c-0.2,0.7-0.4,1.3-0.6,2
	c-13.2-2.6-26.5-5.2-39.7-7.8c-0.8,1.2-1.7,2.5-2.5,3.7c31.8,20.8,49.1,56.1,82.2,79.3C466.7,664,465.4,655.7,464.1,646.8z
	 M572.8,761.2c-23.4-1.4-44.1-2.6-62.8-3.7c-5.9,21.8-11.5,42.2-17.5,64.4C530.8,816.2,556.1,798,572.8,761.2z M492.9,635.4
	c10.6,3.3,19.9,6.5,29.4,8.8c2.8,0.7,7.4-0.1,9.2-2.1c5.5-5.9,10.1-12.7,15-19.1c1.4-1.9,2.4-4.2,4.2-5.6c9.4-7.5,18.9-14.7,28.4-22
	c-0.8-1.2-1.6-2.3-2.5-3.5c-13.3,2.6-26.5,5.2-43.2,8.5c5.1-3.9,7.1-5.4,9.1-6.9c-17,0-33.2,0-49.6,0
	C492.9,608,492.9,621.4,492.9,635.4z M471.9,819.9c-5.7-21-11.2-41.3-16.9-62.3c-18.8,1-38.4,2.1-58.7,3.3
	C406.2,793.1,438.7,818.5,471.9,819.9z M413.9,676.6c-18.8,16.9-27.7,48.6-19.9,71.1c17.1-10,33.9-19.7,53.4-31.1
	c-7.3-9.9-13.3-18.1-19.3-26.2c-1.4,0.7-2.7,1.4-4.1,2.2c0,8.1,0,16.3,0,24.4c-0.9,0.1-1.7,0.2-2.6,0.2
	C419,704,416.5,690.9,413.9,676.6z M522.8,651.6c-8.2-2.3-14.1-4-21.5-6.1c-1.6,9.9-3,18.2-4.3,26.5c0.9,0.5,1.8,1,2.8,1.4
	C506.9,666.7,514.1,659.9,522.8,651.6z"/>
<path d="M672,636.2c10.2,13.2,24.8,10.8,37.8,8.8c36.9-5.8,59.2-31.3,76.3-61.8c17.3-31,23-63.6,10.1-98.1
	c-1.9-5.1-0.9-11.2-1.2-15.6c7.7,14.2,15.2,29.2,23.9,43.6c7,11.6,12.3,11,18.4-1.3c12.4-25.1,21.2-50.9,17.4-79.7
	c-1-8-0.5-16.3,0-24.4c1.2-20.2-18.6-38.6-42-36.5c-11,1-21.6,6.3-32.3,9.7c6.5-4.9,12.9-9.7,19.4-14.6c0,0-0.4,0.4-0.4,0.4
	c8.5-1.2,16.9-3.4,25.4-3.3c8.5,0.1,17,2.4,27.4,1.5c-3.6-2.6-7-6.5-11-7.5c-25.9-6.2-39.8-24.3-47.9-47.8
	c-5-14.6-10.1-29.5-3.7-48.3c2.3,26.7,6.7,49.7,27.8,64.8c19.9,14.2,42.3,20.8,63.8,19.9c21.8,32.5,42.4,63.3,63.1,94.1
	c4.1,6.1,7.8,12.5,12.6,18c10.5,11.9,21.1,11.1,30.1-2c4.3-6.3,8.3-12.9,13.1-20.4c-13.6,60.3-51.3,108.1-78.2,163.7
	c5.6-2,9.3-3.1,12.8-4.6c3.3-1.4,6.4-3.1,10.6-3.6c-47,30.6-82.1,72.3-115.4,116.6c11.1-20.2,22.4-40.3,33.4-60.6
	c7.4-13.7,14.4-27.5,21.7-41.2c3.2-6,4.3-10.9-1.8-16.2c-4.8-4.2-8.2-9.9-12.8-15.5c-2.9,10.6-5.5,20-8,29.3
	c-0.7-0.1-1.4-0.3-2.1-0.4c0.7-5.3,0.5-10.9,2.2-15.9c4.5-13.2,1-22.9-10.8-29.8l0.4,0.4c-6-5.1-11.9-10.2-19.1-16.3
	c-6.7,14.5-12,27.2-18.2,39.4c-23.4,46-60.6,72.9-112.5,75.2c-21.2,0.9-42.6-4.4-55.8-24.6c-7.7-11.8-8.2-24.4-2-36.4
	c-1.3,23.7,5.3,37.1,22.2,44.2C667.8,639.7,670.2,637.3,672,636.2z M951.1,486.4c-0.9-0.8-1.8-1.6-2.7-2.4c-1.6,2.8-3.2,5.7-4.7,8.2
	c-9.4-14.2-17.7-27.1-26.4-39.7c-3.9-5.7-10.1-9.3-15.2-2.8c-10.3,13.1-20.6,26.5-28.4,41.2c-3.4,6.4-3,17.3,0.2,23.9
	c3.2,6.4,3.4,10.6,1.3,16.6c-6.1,17.4-7,33.4,9.7,46.9c6.6,5.3,9.9,6.1,14.1-1c6-10.1,12.2-20.1,18-30.3
	C928.5,526.8,939.8,506.6,951.1,486.4z M865.8,456.4c6.9-9.4,13.5-17.3,18.8-25.9c3.2-5.2,7.8-13,5.9-17.1
	c-6.2-13.7-15-26.3-22.7-39.2c-0.6,0.4-1.3,0.9-1.9,1.3C865.8,401.8,865.8,428.2,865.8,456.4z M860.8,485.1
	c-8.6,15.6-16.2,28-22.3,41.2c-1.4,3.1,0.7,9.8,3.4,12.3c6,5.6,13.4,9.6,18.9,13.4C860.8,531,860.8,509.3,860.8,485.1z M870.4,482.6
	c12.2-15.2,24.3-30.3,37.3-46.5c-2.3-2.4-5.9-6.2-9.7-10.2C863.4,472.9,862.8,473,870.4,482.6z"/>
<path d="M780.8,380.3c1.3,6.2,2.7,12.4,3.6,16.6c-15.9,11.6-31.4,23-47.9,35.1c14.5,12.6,29.3,20.8,45.2,11.8
	c-2.3,14.5-7.2,30.2-6.6,45.8c0.5,15.5,6.5,30.7,10.2,46.3c-6.4,10.7-13.8,23.1-23,38.5c12.9-30.3-5-54.7-5.8-81
	c-0.3-9.5-1.5-18.9-2.5-31.8c-4.8,3.8-9.4,5.9-11.5,9.5c-12.2,20.6-8.9,41.6,0,63.2c-14.7-15.6-14.8-41.1-0.4-78.8
	c-4.1-2.7-8.3-5.6-14.9-10c0,12.1,0,22,0,31.9c-1.2,0-2.4,0-3.7,0c0-7.3,1.1-14.9-0.4-21.9c-1.2-5.5-5.3-14.5-8.5-14.7
	c-7.2-0.4-15,2.6-15.4,13.3c-0.7,15.9-4,31.7-3.2,47.5c0.3,6.7,7.5,13.4,12.6,19.3c3.4,3.8,8.5,6.1,16,11.2
	c-13.8-1.7-24.1-3-35.4-4.4c-2.1,12.8-4.1,24.4-6,35.9c-0.6-10.4-11.6-20.3-3.8-31.2c-13.4,2.3-30.6,29.2-24.5,42.5
	c1.5,3.4,6.6,5.1,11.1,8.4c-3.9,0.8-7.1,1.4-11.8,2.4c2.5,10.1,4.8,19.5,7.2,28.9c-5.2-9.3-10.4-18.5-16.7-29.8
	c-3.8,0.2-10.2,0.6-16.6,1c-5.8,0.3-11.7,0.7-20.8,1.3c13-16,27.5-4.1,40.3-8.4c-1.2-20.6,3.6-39.6,15.6-57.4
	c2.9-4.3-3.4-15.1-5.9-22.8c-1.3-3.9-4.2-7.3-5.5-11.2c-2.6-8.4-3-17.9-7.5-25.1c-2.8-4.4-11.1-5.6-17.2-7.6
	c-0.7-0.2-2.9,3.8-4.3,5.9c2.1,1.1,4.2,2.3,6.7,3.6c-2.5,16.1-5.1,33.3-7.4,48.6c-2-15.5-4.2-32.8-6.8-52.6
	c-10.5,5.9-19.4,10.9-28.3,16.2c-1.2,0.7-2.6,2.9-2.4,4.1c2.4,10.9-6,17.1-12.5,25.6c14.6,7.2,25.5,19,43.6,15.8
	c-1.5,12.9-3,26.5-4.9,43.4c-3.8-5.2-5.5-8.3-7.8-10.6c-11-10.8-21.4-22.1-38.2-24.9c-9.3-1.5-18.1-6.7-27.4-10.4
	c1.8-5.6,3-9.6,4.3-13.6c0,0-0.4,0.5-0.4,0.5c3.3-0.3,7.3-2,9.7-0.7c9.3,5.2,13.4,0.3,16.8-7.2c2.1-4.8,3.8-9.8,6.5-14.2
	c6.7-11.1,4.2-20.8-3.5-30c4.5,0.5,8.9,0.9,16.5,1.7c2.2-14.9,5.9-30.4,6.1-45.9c0-6.4-6.5-14.4-12.1-18.9
	c-7.5-6.1-14.4-2.9-16.8,11.2c-1.1-21.9,6.7-24.3,34.6-14.9c4.8-9.5,4.8-19.1-3.9-25.8c-9.2-7.1-26.2-5.1-34.9,2.5
	c-10.9,9.4-13.9,18.9-14.2,44.6c-11.9-16-5.7-42.7,13.1-56.7c21.3-15.8,48.2-11.6,64.4,10.2c1.1-16.7-4-24.7-20.8-25.8
	c-14.3-0.9-28.9,2-43.3,3.3c-2.2,0.2-4.3,1.3-6.7,1c20.6-11.7,42.2-14,64.2-4.7c8.2,3.5,13.5,4.4,13.6-8
	c15.2,54.9,30.1,108.1,44.9,161.4c1.5-0.1,2.9-0.3,4.4-0.4c0-15.6,0.3-31.1-0.3-46.7c-0.1-2.1-4-4.3-6.4-6
	c-18-12.6-22.5-30.9-12.3-48.1c0.4,7.4-1,16.3,1.8,23.5c2.6,6.7,9.8,11.5,16,18.3c1.3-6.7,2.9-10.1,2.3-13.1
	c-0.6-3.3-3.2-6.2-4.9-9.2c9.5-4.7,6.8-13.8,4.6-24.6c-4.1,3-7,5.2-10,7.4c-0.5-0.3-1-0.7-1.6-1c2.3-3.6,4.3-7.3,6.9-10.6
	c2.6-3.4,5.6-6.5,8.7-10.1c-10.8-5.5-20.4-10.3-30-15.2c0.3-0.6,0.6-1.3,0.9-1.9c8.5,3.2,16.9,7,25.6,9.6c7.2,2.1,11.5-0.2,11.1-9.3
	c-0.3-6.8,1.7-13.7,4.5-20.7c0.5,9.6-3.2,20.2,11.9,21.2c14.6,1,15.2-9.3,16.8-19.6c0.6,3.3,1.2,6.6,2.7,14.6
	c7.7-10.4,13.6-18.3,19.4-26.2c0.8,0.8,1.6,1.6,2.5,2.5C742.3,340.1,760.4,373,780.8,380.3z M733.3,359.4c-1.3,0-2.6,0.1-3.9,0.1
	c-1.5,13.4-2.9,26.8-4.4,40.2c-0.5,0-0.9,0-1.4-0.1c0-11.8,0-23.5,0-35.4c-22,3-27.4,9.4-24.4,28.2c0.5,3,4.2,5.9,3.9,8.6
	c-1.2,9-3.6,17.9-6.2,30.3c24-9.1,43.1-18.3,58.3-33.8c1.8-1.9,1.9-8.1,0.2-10.4C748.5,377.5,740.7,368.6,733.3,359.4z M618.5,375.5
	c-3.5,2.9-10.5,5.9-11.5,10.3c-3.4,14.8-4.7,30.1-7.1,47.3c12.5-7.5,22.5-13.6,34.2-20.7C628.8,399.9,623.9,388.4,618.5,375.5z
	 M614.5,432.2c-15.4,3.9-17.7,7.2-20.3,28.6C614.7,457.7,617.2,454.1,614.5,432.2z M641.4,442.6c-3.1-8.8-5.6-15.6-7.8-22
	c-15,4-12.7,14.3-12.2,24.1C627.5,444,633.1,443.5,641.4,442.6z"/>
<path d="M203.2,463c1.5,38.1-17.2,67.9-28.2,100.7c-3.2-5.7-6.4-11.2-9.5-16.7c-14.5,5.4-16.4,12.3-8.1,29.4
	c5.7,11.6,11.5,23.1,17.2,34.6c-1,0.5-2,1.1-3,1.6c-10.2-18.3-20.3-36.6-30.9-55.5c2.3-1.6,4.6-3,6.7-4.7c16.2-13,15.9-12.9,6-31.2
	c-5.4-10.1-9.6-20.8-15.6-34.3c-0.9,6.8-2.8,11.1-1.7,14.6c4.9,15.5-1.2,30.4-1.4,45.6c-0.2,19.1-0.1,38.2-0.9,57.8
	c-2.1-12-4.3-24.1-6.2-36.1c-1.2-7.7-1.4-15.5-2.7-23.2c-2-11.2-7.5-21.7,1.2-33.3c2.8-3.7,0.9-13.4-2.1-18.4
	c-8.5-14.3-18.3-28-28.5-41.2c-4.9-6.4-11.3-3.8-15.4,2.1c-8.8,12.8-17.1,25.9-25.7,39c-2-1.9-4.5-4.2-7-6.5
	c-0.4,0.3-0.7,0.6-1.1,0.9c7.1,13.6,13.9,27.4,21.4,40.8c9.4,16.7,19.4,33,28.9,49.6c5.4,9.4,12.1,12.5,24.3,3.6
	c-3,5.1-3.8,8-5.8,9.4c-7.5,5.5-6,11.5-2.3,18.3c14.3,26,28.5,52,42.7,78.1c3.3,6,6.2,12.2,8,19.2c-16.7-20.6-32.1-42.4-50.5-61.3
	c-18.7-19.1-40.3-35.3-60.6-52.7c6.5,2.7,13.4,5.5,23.4,9.6C49.1,548,13.4,501.4,0,444c3.2,4.6,6.4,9.3,9.7,13.9
	c9.8,13.9,21.9,15,31.8,1.3c16.1-22.1,31.2-44.9,46.3-67.7c9.2-13.9,17.7-28.2,27-43.1c52.3,0.4,94.6-27.8,93.2-83.9
	c7.7,23.1-1.2,43.6-10.8,64c-10.2,21.6-32.4,28.1-50.7,40.1c18.6,0,37.2,0,55.8,0c0,1.3,0,2.6,0,3.9c-5.6-0.3-11.2-0.4-16.7-0.9
	c-28-2.6-43.7,13.6-42.2,41.8c0.9,17.1-3.6,34.9-0.1,51.2c4.2,19.4,13.7,37.9,22.1,56.2c3,6.5,8.9,3,11.4-1.8
	c7.8-15.6,15-31.4,22.5-47.2C200.2,469.6,201.2,467.5,203.2,463z M131.2,460.2c0-29.1,0-55.3,0-81.5c-9.6,11.4-17.2,23.4-24.4,35.6
	c-1,1.7-0.9,5,0.2,6.8C114.5,433.6,122.3,445.9,131.2,460.2z M126.8,485c1.2-0.6,2.5-1.2,3.7-1.8c0.7-23.7-21.5-35.2-30.1-55.6
	c-5.1,5.3-8.7,9.2-10.6,11.1C102.6,454.7,114.7,469.9,126.8,485z"/>
<path d="M381.4,505.9c-17.8,15.6-35.6,31.2-47.3,41.4c-1.2-10.6-3.5-30.4-6.1-54c-23.4,21.7-45.7,39.4-47.8,67
	c-7.8-6.4-17.2-15-27.4-22.4c-27.9-20.3-51.4-6.8-56,22.7c-1.7,10.7,7.4,24.2,14,34.9c8.9,14.4,22,24.9,39.2,28.9
	c12.8,3,24.4,2.3,32.7-9.9c1.5-2.2,4.4-3.6,6.7-5.3c6.2-4.4,11.5-10.3,6.5-17.3c-2.9-4.1-10.2-5.1-15.5-7.6c-0.7,0.9-1.3,1.8-2,2.8
	c-0.3-1.9-0.6-3.9-0.7-5c26.6-1.5,52.8-3,79.6-4.6c-0.6,11.2-8.1,9.8-14.8,9.3c-13.4-0.9-26.8-2-42.3-3.2c8.8,21-5.8,31.2-17,41.4
	c-11.6,10.6-27.1,12.5-41.6,5.6c-23.3-11-44.7-23.7-55.5-50.1c-11.2-27.4,3.1-61.3,30.9-70.4c19.4-6.3,23.2-22.9,28.8-38.2
	c2.9-7.9-4.7-11.4-11.3-12.7c-5.7-1.1-11.8-0.8-20.9-1.3c11.8-5.9,20.7-8.1,30.7-4.4c2.7,1,6.2-0.4,9.4-0.8
	c-1.7-3.1-2.6-7.2-5.1-9.2c-11.6-8.9-24.5-7.5-37.5-3.4c-1.5,0.5-3,1-5.6,1.9c11.9-10.2,15.4-10.3,51.8-2.5
	c2.2-14.6,9.2-29-1.3-43.5c-8-11-16.2-11.5-24.4-0.7c0.9-18.3,8.8-17.6,35-10.1c4.9-8.9,4.5-17.7-3.5-24c-8.6-6.9-19.5-6.7-28.9-2.4
	c-21.1,9.7-27.3,35.7-14.9,57.8c-13.4-12.8-16.1-31.3-7-48.8c9.5-18.4,29.7-29.6,47.4-26.1c5.2,1,10.2,3,15.2,4.7
	c14.7,4.9,18.1,3.1,21.8-11.6c0.7-2.7,1-5.4,1.6-8.9c14.6,53.3,28.9,105.7,43.4,158.1c0.8,2.7,2.1,5.3,3.3,8
	c10.5,24,14.7,24.8,34,6.3c0,0-0.3,0.4-0.3,0.4c3.5-1.4,7-2.9,12.1-4.9c-4,5-6.9,8.7-9.7,12.3C381,506.4,381.4,505.9,381.4,505.9z
	 M283.1,531.9c-1-1.3-2-2.5-3-3.8c9.4-7.2,19.6-13.5,27.9-21.8c14.2-14.3,15.3-31,3.3-46.8c-2.9-3.7-9.5-5.1-14.7-6.2
	c-1.7-0.4-4.3,3.5-6.5,5.5c2.4,1.8,4.8,3.6,6.8,5.2c-2.5,16-5,32.4-7.3,47.5c-2.2-16-4.5-33-6.9-50.4c-26.5,8.3-33.6,16-30.4,29.6
	c-4.3,4.9-8.1,9.2-13.9,15.7c15.7,6.7,29.1,12.5,44.2,18.9C282.7,525,282.9,528.4,283.1,531.9z M284.6,374.6
	c-3.7,4-9.7,7.5-10.7,12.1c-3,14.2-4.1,28.8-6.2,45.2c6.9-4.4,12-7.7,17.1-10.9c6-3.7,16.6-3.7,13.7-15c-1.9-7.3-5.1-14.3-8-21.2
	C289.3,381.8,287.3,379.1,284.6,374.6z M260.3,461.4c24.1-8.4,25.3-10.2,20.8-30.6C264.7,433.9,263.4,447.4,260.3,461.4z
	 M301.8,419.1c-11.8,5.5-11.8,5.5-12.7,24.1c5.9-0.5,11.7-0.9,19.1-1.5C305.9,433.7,304,426.9,301.8,419.1z"/>
<path d="M529.7,492.9c3.9-7.3,8.8-14.2,11.5-21.9c2.1-5.8,1.5-12.6,2.2-19.7c-2.1,0.2-4,0.3-7.1,0.6c14.7-20.5-3.5-32.9-11.8-51
	c4.9,3.5,8.6,5.1,10.7,7.9c6.7,9,13.2,18.2,18.9,27.8c2.1,3.5,1.4,8.5,2.6,12.6c0.5,1.8,2.7,3,4.2,4.5c-1.2,1.6-3,2.9-3.6,4.7
	c-5.4,16-10.7,32.1-16,48.2c0,0,0.4-0.5,0.4-0.5c-8.9,11.3-18.5,21-33,26c-21.4,7.4-32.1,5.5-46.1-12.1
	c-24-30.3-37.8-63.9-36.2-103.3c0.2-4.6-3.4-9.3-5.3-14c-1.6,0.1-3.2,0.2-4.9,0.3c-2.6,7.3-5.3,14.6-9.2,25.4
	c-1.4-6.6-4.1-11.6-2.9-15.3c3-9.4,6.1-19,18.8-21.4c4.5-0.9,8.1-8.1,11.5-12.9c10.1-14.3,18.8-29.7,30.1-42.9
	c6.1-7.2,16.5-10.8,25.9-14.2c-10.5,11-21,21.9-31.5,32.9c1,1.3,2,2.6,3,3.9c5.2-2.4,10.4-4.9,15.6-7.3c3.5-1.6,7-3.2,10.6-4.9
	c7.3-5.3,14.6-10.5,23.3-16.8c-4.2,10.8-17.3,20.9-5.1,30.8c8.3,6.7,17.5,0.7,23.7-7.8c0.8,0.7,1.6,1.4,2.4,2.1
	c-8.3,12-16,24.5-25.2,35.8c-4.9,6.1-5.8,11.5-5.2,19.1c2.3,31.6,3.4,63.4,4.9,95.1c0.2,3.8,0,7.7,0,11.5c1.2,0.5,2.3,1,3.5,1.5
	c5.5-6.2,10.9-12.3,16.4-18.5C527.9,496.8,528.8,494.8,529.7,492.9z M494.1,453.8c-0.2,0.8-0.3,1.6-0.8,2.3
	c-6.9,9.6-13.9,19.3-20.9,28.9c-14.5,19.7-11.1,14.4,1.1,34.6c5.2,8.6,14.6,8.3,22,5.4c3.6-1.5,6.4-9.6,6.4-14.7
	c-0.3-30.2-1.4-60.5-2.5-90.7c-0.1-4-1.9-7.9-3.1-12.8C482.7,422,482.3,447.1,494.1,453.8z M458.3,490.1c1.5-0.1,3-0.3,4.5-0.4
	c13.1-41.7,1.2-84.5,3.2-127.9c-5.8,1.8-11.5,4.3-12.7,8.2c-10.2,32.6-4.2,65.6-1,98.5C453.1,475.7,456.3,482.9,458.3,490.1z
	 M485.2,357.9c0.9,4.6,1.9,10.1,3.7,19.1c-0.8,6.3-2.2,16.7-3.5,27.2c0.8,0.4,1.7,0.8,2.5,1.2c8.8-10.7,17.5-21.5,24.6-30.2
	C503.4,369.4,494.8,364,485.2,357.9z"/>
<path d="M391.2,419.8c2.3,2.7,4,6.2,6.8,8.1c16.4,10.7,25.5,25.6,26.8,45.1l-0.3-0.3c4,16.9-1.7,28.5-15.7,39.8
	c-15.4,12.5-27.2,29.5-38.8,42.5c7.1-13.2-1.7-33.5,11.3-49.2c0,0-0.4,0.5-0.4,0.5c4.7,3.2,9.3,6.4,14.7,10.1
	c2.8-2.6,6.1-6.9,10.5-9.5c8.4-5.1,9.2-11.2,2.7-17.6c-9.8-9.7-20.3-18.5-30.4-27.6c-10.1,12.5-12.3,23.3-0.5,33.7
	c0.7,0.6,0.4,2.3,0.6,3.5c0,0,0.3-0.4,0.3-0.4c-3.1,1.7-6.2,3.5-9.7,5.5c-9.5-17.9-18.8-35.2-28-52.5c0.8-0.5,1.6-0.9,2.4-1.4
	c6.2,9.4,12.4,18.9,20.4,31.1c4-9.4,6.6-15.4,9.4-22c-13.6-5.7-23.6-12.3-19.8-28.5c0.7-3-1.2-8.4-3.7-9.9
	c-14.7-9.4-15.4-26.3-21.9-39.9c-1.9-4,1.5-11.8,4.4-16.7c9.7-15.6,29.5-27.9,51.6-14.9c9.2,5.4,19.1,10.7,29.4,12.6
	c6.2,1.2,13.6-4.3,18.9-8.8c-13.8,22.3-27.6,44.6-41.5,66.8c-1.9-2.6-3.4-6.1-5.9-7.6c-13.1-7.5-26.9-13.9-39.8-21.9
	c-11.3-7-11.5-17.9-1.7-23.7c9.4-5.6,21.5-1.4,25.9,7.9c-4.8-2-10.5-5-16.6-6.4c-2.2-0.5-6.1,2.2-7.6,4.5c-0.8,1.2,1.4,5.8,3.3,7
	c13,7.6,26.2,15.1,39.8,21.7c2.4,1.2,9-1.1,9.9-3.2c2.1-5.2,4.6-14.6,2.3-16.5c-15.4-12.4-32.6-22.5-53.5-19.5
	c-13.2,1.8-20.9,21.1-10.7,28.1C353.2,402.3,372.7,410.3,391.2,419.8z M360.7,430.7c18.6,13.1,37.2,26.3,58.1,41
	C403.1,449.9,382.9,439.1,360.7,430.7z"/>
<path d="M472.5,279.4c-7.4,9.5-12.3,15.9-17.3,22.2c-0.2-0.2-0.4-0.4-0.6-0.6c5.7-11.7,13.7-22.8,16.5-35.2
	c2.9-12.6,0.6-26.4,0.6-41.2c-3,4.9-5.3,8.6-7.5,12.3c0.5,0.1,1,0.2,1.5,0.3c5.9-42.3,11.8-84.7,17-122
	c4.6,35.1,9.8,75.2,14.9,114.6c-0.3-0.3-1.9-1.8-4.7-4.4c0,24.8-0.1,48,0,71.2c0.1,19.9,0.2,19.9-20.3,27.2
	C472.5,310,472.5,296.4,472.5,279.4z"/>
<path d="M799.7,366.1c-1.5-1-4.2-1.9-4.3-3.1c-2.5-32.8-23.7-50.6-50.6-64c-2.2-1.1-4.3-2.2-5.7-4.1c34.7,9.7,56,33.2,66.5,67.3
	c-1.7,1.1-3.9,2.6-6.2,4.2C799.3,366.5,799.7,366.1,799.7,366.1z"/>
<path d="M529.7,492.9c-0.9,1.9-1.8,3.9-2.7,5.8c-3-7.8-8.7-15.6-8.5-23.3c0.3-10,5.2-19.9,8.1-29.9c1.1,0.1,2.1,0.3,3.2,0.4
	C529.7,461.6,529.7,477.2,529.7,492.9z"/>
<path d="M176.5,458.2c-5.9,8.3-11.7,6.5-14-1.2c-3.8-12.7-6.2-26-8-39.2c-1.2-9-0.2-18.4-0.2-28.8c1.3-0.2,4.3-0.7,4.4-0.7
	c0,13.1-0.8,26.2,0.2,39.2C160.6,450.6,165.2,457.9,176.5,458.2z"/>
<path d="M424.9,473c0.4-4.4,0.9-8.7,1.4-14c5.2,15,10.1,29.3,15.7,45.5c-4.9,1.1-10.8,2.4-16.7,3.7c4.1-14.1,8.2-24.7-0.6-35.4
	C424.6,472.7,424.9,473,424.9,473z"/>
<path d="M851.7,557.3c-1.4,4.8-2.1,10-4.4,14.4c-7.7,14.3-16,28.2-26,41.2c8.3-18.2,16.5-36.4,25.3-55.6c0.2,0,2.9,0.3,5.5,0.5
	C852.1,557.7,851.7,557.3,851.7,557.3z"/>
<path d="M488.2,346c-3.5,1.6-7,3.2-10.6,4.9c-1.4-1.7-4.2-4.7-3.9-5c5.1-6,10.6-11.8,16-17.6c1.4,0.8,2.9,1.6,4.3,2.5
	C492.1,335.8,490.2,340.9,488.2,346z"/>
<path d="M798.8,436.2c0.6-7.8-1.5-18,2.6-22.6c4.6-5.2,15-7.1,22.8-7c7.4,0.1,14.7,4.6,23,7.5c-3.3-16.8-15.7-21-45.1-17
	c10.6-9.5,34.4-6.7,46,2.6c1.3,1.1,2.2,3.5,2.2,5.3c0.2,14.2,0.1,28.4,0.5,42.6c-1.1-16.1-16.6-32.3-32.9-34.8
	c-10.6-1.6-15.6,2.5-15.6,13.2c0,3.5,0.6,7,0.9,10.4C801.6,436.2,800.2,436.2,798.8,436.2z"/>
<path d="M502.3,739c0.3-0.2,0.7-0.5,1-0.4c0.3,0.1,0.6,0.6,0.6,0.9c0,0.3-0.5,0.5-0.8,0.8C502.9,739.8,502.6,739.4,502.3,739z"/>
</svg>
