<?xml version="1.0" encoding="utf-8"?>
<!-- Generator: Adobe Illustrator 21.0.0, SVG Export Plug-In . SVG Version: 6.00 Build 0)  -->
<svg version="1.1" id="Layer_2" xmlns="http://www.w3.org/2000/svg" xmlns:xlink="http://www.w3.org/1999/xlink" x="0px" y="0px"
	 viewBox="0 0 1000 1000" style="enable-background:new 0 0 1000 1000;" xml:space="preserve">
<path d="M510.2,811.2c-2-11.8-4.1-23.6-6.1-35.3c-2-11.5-3-23.3-6.2-34.4c-2.1-7.3-7.4-13.7-12.9-23.4c6.9-22.6,0.5-49.3-1.5-76.2
	c-2.1-29.9-8.2-58.9-16.3-87.6c-1.5-5.4-2.6-11.3-2.2-16.8c1.9-24.6-2.8-47.9-11.3-70.7c-8.8-23.6-14.7-47.3-15.7-73
	c-0.7-19.6-8.1-39.1-14-58.2c-4.9-15.9-12.1-31.1-18.1-46c9.6-1,19.2-2.1,29.1-3.2c-2.1,2.1-4.6,4.4-7.1,6.9
	c-4.4,4.5-4.8,8.8-2.3,15.2c5.5,14.6,9.1,30,14,46.7c7.6-32.7,20-63.3,19-96.4c-0.4-12,2.8-21.7,10.3-30.4
	c16.7-19.5,38.3-30.9,63-36.9c2.9-0.7,5.6-1.7,8.4-2.5c8.7,0,17.4,0,26.1,0c9.8,3.3,20.4,5,29.2,10.1c13.1,7.6,26.1,16.3,36.8,26.9
	c13,12.7,25.9,24.7,42.1,33.5c23.5,12.9,36.5,33.2,39.5,62.7c-19-25.1-43.8-25.7-69.4-23.7c6.5-7.6,8.5-8.2,39.8-10.3
	c-11-9.4-20.9-18.1-31.3-26.2c-1.9-1.5-5.9-0.2-7.3-0.2c-7.1-4.9-13.9-9.4-20.5-14.2c-2.8-2-6-4.2-7.7-7.1
	c-10.4-16.7-24.4-28.2-44.2-31.8c-3.3-0.6-6.7-1.4-9.5-3c-17.1-9.7-32.3-4.6-48.2,4c-26.8,14.4-42,35.9-46.7,65.8
	c-4.1,26-10,51.8-13.6,77.9c-1.7,12.1,0.1,24.7,0.7,37c0.2,3.2,1,7,2.8,9.5c1.9,2.6,5.4,3.9,8.2,5.8c1.6-3,3.8-5.8,4.5-8.9
	c0.6-2.7-0.4-5.8,1.6-9.1c2.4,19.2,4.9,38.4,7.3,57.5c1.2,0.1,2.3,0.1,3.5,0.2c1.7-3.4,3.4-6.7,5.8-11.3c0.8,15.3,0.1,29.6,2.5,43.4
	c2.7,15.3,7.7,30.2,12.5,45c3.4,10.4,8.5,20.3,12.4,30.6c2,5.3,4.2,11.1,3.8,16.5c-1.1,15.8-1.9,31.1,8.4,44.9
	c1.6,2.2-0.1,7-0.6,10.6c-0.6,5.1-1.5,10.2-2.6,17.2c-4.1-5.8-7.2-11.5-11.6-16c-6.1-6.3-1.2-11.9-1-18.1
	c0.3-10.3-1.3-21.1-4.1-31.1c-6.6-24.1-14.2-47.9-21.6-71.8c-2.9-9.4-6.4-18.6-9.1-28.1c-1-3.4-0.9-7.3-0.9-10.9
	c0.1-31.2-0.9-33.5-27.5-56.9c2.7,12.6,3.7,23.2,7.3,32.8c9.6,25.9,15.8,52.4,17.9,80c0.5,7,0,15.5,8.2,16.3c0,20.5,0,39.8,0,59.2
	c0.9,0.2,1.7,0.4,2.6,0.6c1.6-3.5,3.2-7.1,5.9-13c1.1,4.5,2.2,7,2.1,9.4c-0.2,13.6,0.5,27.3-1.2,40.8c-4.7,38.4,8.4,73.7,17,109.8
	c2.2,9.3,1.5,19.3,2.4,28.9c0.3,3.8,1.3,7.5,2,11.2c1,0.3,2,0.7,3,1c3.4-4.9,6.8-9.8,10.2-14.7c0.8,0.3,1.5,0.7,2.3,1
	c-6,12.8-12,25.5-18,38.3C511.5,811.2,510.8,811.2,510.2,811.2z"/>
<path d="M1000,329.4c-14.1-12.8-32.8-12.3-49.7-14.8c-8.7-1.3-20.2,4.7-27.8,10.8c-10.7,8.6-19,20.4-27.2,29.6
	c6.2-43.3,32-56.4,73.5-50.4c-4.3-15-9-16.8-24-17.8c-10.6-0.7-21.5-4.9-31.3-9.4c-12.7-5.8-24.6-10.5-39.3-8.3
	c-8,1.2-16.7-3.6-25.2-4.6c-2.9-0.3-7.7,2-9,4.5c-8.5,15.9-9.8,32.9-7.8,50.7c1.6,14.1,1.4,28.5,2,42.7c0.2,4.3-0.1,8.9,1.3,12.8
	c0.7,1.9,4.6,3.1,7.3,3.7c3.7,0.8,7.7,0.1,11.4,1.1c7.9,2.1,15.7,4.9,25.5,8.1c-5.7,0.3-10.2,1.1-14.6,0.7
	c-4.3-0.4-8.4-2.1-12.7-2.8c-16.2-2.8-20.9,1.7-20.7,17.7c0.2,12.3-0.5,24.7-1.8,37c-1.4,12.2-4.1,24.2-6.5,37.4
	c2.6-1.1,4.9-1.9,7-3.1c11.2-6.2,23-7.5,34.9-3.3c12.6,4.5,24.7,10.1,37,15.3c3.6,1.5,7.3,2.8,10.9,4.2c0.6-0.7,1.3-1.4,1.9-2.1
	c-10.2-12-20.4-24.1-31.2-36.8c2.9,0.5,5,0.9,8.6,1.6c-3.4-17.6-18.7-33.9-3.6-53.4c0.2,3.3,0.5,5.4,0.4,7.4
	c-1.2,15.4,2.4,29.1,12.8,40.9c3.5,3.9,5.6,9.1,8.2,13.7c8,14.6,16,29.3,23.7,44c2.7,5.1,4.7,10.6,7,15.9c-0.8,0.5-1.6,1-2.4,1.6
	c-1.5-1.3-3.2-2.5-4.6-3.8c-18.5-17.2-40.6-28.4-64.4-35.7c-14.9-4.6-29.9,0-44,5.7c-8,3.2-15.8,7.1-24.7,11.2
	c0.9-3.2,1.7-5.5,2.3-8c5.9-25.3,11.9-50.7,17.7-76c1.6-6.8,3-13.8,3.5-20.7c0.3-5.5-1-11.1-2.8-16.5c6.7-16.8,7.9-33.8,0.9-51.3
	c-1-2.5,0-5.9,0.3-8.8c1.8-23.2,1-45.7-19-63.3c22.1,0,43.6-1.5,64.8,0.4c21.1,2,41.9,7.5,63.6,11.6c-0.9-2.3-1.4-3.6-1.9-4.8
	c0.6-0.9,1.1-1.8,1.7-2.7c10.6,5.7,21.9,10.6,31.8,17.4c17.5,12.1,28.3,29.8,36.6,49.1C1000,328,1000,328.7,1000,329.4z"/>
<path d="M684.9,620.9c-4.5-18.5-7.8-35-12.8-51c-1.4-4.3-7.4-8.8-12.1-10.1c-28.1-7.3-45.6-25.3-55.1-52.1c-2.2-6.3-4-13.2-7.9-18.3
	c-4.8-6.4-11-12.4-17.8-16.4c-7.6-4.5-14.2-8.8-18.7-17c-5.2-9.4-12.5-17.7-20.4-25.8c3.1,27.5-1.1,55.7,13,80.9
	c2.5,4.6,5.9,9.2,10.1,12.2c9.7,7,11.4,16.5,10.7,30.1c-1.4-4.1-1.7-5.8-2.6-7c-1.9-2.6-4.1-5-6.2-7.5c-2.4,2.5-6.8,4.9-6.9,7.5
	c-0.6,20.5-0.3,41-0.3,61.4c1.4,0.5,2.8,1,4.2,1.4c4.5-5.9,9.1-11.7,13.6-17.6c0.8,0.3,1.6,0.6,2.4,0.9
	c-6.5,16.6-13.7,32.9-19.4,49.8c-5.8,17.3-10,35.2-15,53.2c-9.5-6-9.7,1.9-9.8,9.4c0,5.2,0.5,10.5,0.8,15.9
	c18.5-18.2,36.5-35.8,54.5-53.3c1.3-1.3,3-2.1,6.4-1.7c-4.9,7.2-8.7,15.6-15,21.4c-18.5,16.9-32.7,36.1-38.7,60.8
	c-0.4,1.8-1.7,3.5-3,6.1c-9.9-11.8-20.9-21.3-18.2-38.9c1.5-9.6-1.1-19.9-1.9-31.3c9.3,10.4,12.5,2.8,15.2-4.3
	c4.4-11.5,8.6-23.2,12.2-35c3.2-10.8,5.2-21.1-0.7-32.8c-3.7-7.2-2.6-17.7-1.4-26.4c2.5-18.3,3.8-35.5-10.1-51
	c-5.1-5.7-6-15.1-7.3-23.4c4.5,5.6,9,11.2,13.5,16.8c1.4-0.8,2.8-1.5,4.2-2.3c-1.3-23.7-12.1-44.8-17.7-67.4
	c-1.2-0.1-2.3-0.1-3.5-0.2c-2.1,4.1-4.1,8.2-7.2,14.4c-3-15.4-0.8-27.8,6.9-39.3c3.1-4.6,6.1-9.3-0.8-10c0-9.7,1.2-18.9-0.3-27.6
	c-1.6-9.1-5.8-17.7-9.2-26.5c-3.7-9.6-7.5-18.5-4.7-29.8c2.9-11.3-4.2-20.8-10.4-30.3c-10.8-16.6-13.9-35.5-10.7-54.9
	c2.5-15.3,14.8-27.9,33.4-35.8c-2.9,4.1-4.8,6.8-6.8,9.5c-11.4,15.9-8.9,22.9,10.6,26.1c14.5,2.4,29.3,2.5,43.8,4.8
	c18.1,2.8,36.1,6.2,53.9,10.5c6.3,1.5,11.8,6.4,20.1,11c-22.7,8-40.9,17.7-54.2,34.3c-4.7,5.9-8.6,12.5-12.4,18.1
	c3.4,2.7,5.5,4.5,7.6,6.2c-2.8,3.3-5,8.4-8.6,9.6c-15.2,5.1-25.4,15.9-34.4,28.1c-9.2,12.5-7.2,18.3,4.6,28.3
	c6.6,5.5,10.9,13.8,16.3,20.8c6.7,8.6,12.6,18.1,20.5,25.3c3,2.8,10.7,0.4,16.7,0.4c-3.4,10.9,3.9,19.7,10.8,28.9
	c8.4,11.2,15.6,23.4,24.5,34.2c6.7,8.2,14.2,16.5,23,22c8.3,5.2,18.7,6.9,28.2,10.2c0.6-0.9,1.2-1.8,1.8-2.6
	c0,5.9-0.5,11.8,0.1,17.7c1.7,16.9,2.2,34.1,6.3,50.5c4.6,18.6,13.7,20,26.7,6.1c-1.2,15-20.5,53.2-32.9,66.2
	c0.6-9.8,2.5-20.8,1.5-31.4c-1.8-18.3-12.2-24.9-30.1-20.6c-7.1,1.7-13.8,4.8-21.9,7.7c3.4-4,6.1-7.2,8.9-10.5c-0.3-0.7-0.7-1.3-1-2
	c-5.3,2.1-10.7,4-15.8,6.5c-5.3,2.6-10.3,5.9-15.8,9.1C622.5,620.1,646.6,611.9,684.9,620.9z M583.1,290.5
	c3.7-11.6,2-14.7-10.2-15.9c-24.3-2.4-48.4-5.1-69.7-17.5c0.6,11.9,1.2,23.4,1.8,35c0.4,7.9,3.4,12.9,14,9.6
	c-6,10.1-6.2,17.6,2.7,24.8c3.6,2.9,4.9,9.3,6.2,14.4c1.8,7,2.6,14.2,4,22.8c12.7-10.2,16.7-24.2,21.5-34.7
	c5.5-1.2,10.6-0.7,12.4-2.9c8.6-10.5,16.2-21.8,24-32.5c-1.2-1.5-1.5-2.2-2-2.4C586.6,290.9,585.3,290.9,583.1,290.5z"/>
<path d="M706.8,482.4c-9.3,3.8-14.8,10.9-12.1,21.7c4.9,19.3,10.4,38.4,16.2,57.5c0.8,2.6,4.5,4.6,7.1,6.5c4.4,3.1,8.9,5.9,12.7,9.8
	c-12.6,3.7-12.6,3.7-12.3,20.6c-2.2-4.3-3.3-6.8-4.7-9.2c-1.4-2.5-2.9-5-7-7.6c-1.5,5.7-3.1,11.5-5.1,19c-4.9-9.4-3.6-17.7,0.1-25
	c3.7-7.3,3.7-14,1-21.1c-4.5-11.9-8.5-23.9-14.1-35.3c-2.7-5.4-8.5-9.4-12.8-14c-1.1,0.5-2.1,1.1-3.2,1.6c0,7.2,0,14.5,0,23.7
	c-8.3-10.9-8.7-21.4-6.4-32.4c3-14.3-2.4-26.5-10.9-37c-3.1-3.9-9.5-5.2-14.7-7.8c6.5-9.8,2.2-20.5-0.9-31.5
	c-3.6-12.4-7-25-9.1-37.8c-0.9-5.6,1-12,2.9-17.5c3-8.8,7.2-17.3,10.8-25.7c0.5,0.8,2.1,3.3,4.8,7.6c8.9-9.7,17.2-18.8,26.1-28.5
	c-2,10-3.8,19.3-5.6,28.6c0.8,0.5,1.6,1.1,2.3,1.6c3.9-2.4,7.7-4.8,14.1-8.9c-3.2,4.3-4.4,7.7-6.6,8.5c-10.1,3.7-7.1,10.5-5.6,17.8
	c6.5,31.7,15.9,62.2,33.5,89.7c5.9,9.2,12.7,18.1,20.3,26c11.7,12,17.6,12.8,33.3,7.1c-2.7,18.3-14.1,36.6,1.9,55.1
	c-9.1,15.2-18.4,30.7-27.7,46.3c-0.5-0.3-1-0.6-1.6-0.9c3.3-10.7,7.3-21.3,9.7-32.3c1.5-7,0.6-14.5,0.8-21.7c0-1.8-0.4-3.9,0.3-5.5
	c6.2-15.2,3.4-24.9-10.6-33.8c-3.9-2.5-8.4-4.2-12.4-6.4C716.8,488.7,712.4,485.8,706.8,482.4z M689,445.6
	c-7.3-32-34.7-56-31.4-91.3c-2.4,1.1-2.9,2.4-3.8,3.4c-15.6,17.7-13.2,61.8,6.1,83.1c1.6,1.7,4.6,2.6,7,2.9
	C673.8,444.6,680.8,444.9,689,445.6z M690.4,489.1c3.5-7,15.1-13.2,5.7-25.4c-6.5-8.3-15.6-11.4-27.1-8.1
	C676,466.6,683.1,477.7,690.4,489.1z"/>
<path d="M796.6,487.2c0-25.6,0-51.2,0-77.8c-3.2,0.5-5.8,0.3-7.5,1.4c-7.3,4.9-14.3,7.1-23.3,3.1c-6.3-2.8-20.1,7.9-21.3,14.9
	c-1,5.9,9.6,17.6,17.9,19c4.2,0.7,8.6,0.1,13.8,0.1c4.8,23,2.4,45.2-4.6,68.4c5.3-0.7,9.7-1.2,16-2c-9.3,7.9-17.4,14.6-26.7,22.5
	c2.4-11,5.3-20.3,6.3-29.7c1.3-12.3,1.5-24.7,1.4-37c0-3.6-2.3-7.2-3.6-10.8c-4.1,1.6-8.3,3.1-12.4,5c-1,0.5-1.4,2.2-3.8,3.6
	c1.1-16-10.4-23.1-19.1-32.2c-2.7-2.9-6-5.9-7.2-9.5c-5.5-17.3-10.6-34.7-15.1-52.3c-2.6-10.2-3.7-20.8-3.1-31.6
	c1.2,5.9,0.7,12.9,3.8,17.4c5.3,7.6,5.8,15.9,8,24.1c0.6,2.1,6.5,2.9,10.5,4.5c-7.8,14,1.8,24.1,14,34.4c4.9-9.2,9.4-17.9,15.3-29
	c1.2,12.6,8.8,11.9,15.1,10.2c3-0.8,4.7-6.2,8.2-11.2c-0.4-0.1,2.1,0.2,4.5,0.9c12.4,3.9,14.6,2.9,16.7-9.8
	c1.5-9.2,2.4-18.6,2.1-27.9c-0.1-4-4.1-7.9-5.8-12c-0.9-2.1-1-4.8-0.5-7.1c0.7-3.5,3.5-7,3.1-10.3c-1.9-16-4.6-31.9-7-47.9
	c-0.4-2.9-1-5.9-1.7-9.5c-24.1-2.2-44.1,4.2-57.2,26.6c0.5-12,5.6-21.2,15.9-27.6c-0.2-0.9-0.5-1.8-0.7-2.7
	c-12.2,2.1-24.5,4.2-38.6,6.6c28.4-15.7,56.2-22.7,86.3-12.1c3,1.1,6.5,5.4,6.8,8.5c1.2,13.4,2,27,1.6,40.5
	c-0.3,10.1,0.9,18.8,4.8,28.7c4,10.4,1.1,23.5,1,35.4c0,2.3-2,4.7-1.6,6.7c3.9,18-1.6,34.1-8.8,50.3c-2.3,5.1-0.7,12.5,0.4,18.6
	C804.1,466.7,803.7,476.7,796.6,487.2z"/>
<path d="M326.4,386c9.7,26.1,25.1,34.7,48.6,27.4c-3.5-3.3-6.1-6.5-9.4-8.6c-6.9-4.6-10.4-10.2-10.6-19c-0.3-15-9.4-29.8-22.3-38.7
	c-2.7,5.2-5.3,10.3-7.9,15.5c-0.6-0.1-1.2-0.2-1.7-0.3c0-1.7,0-3.4,0-5.1c0.1-11.9-3.2-21.1-16-25.7c-11.3-4.1-21.7-10.4-32.6-15.4
	c-17.7-8.1-32.4-19.8-43.5-36c-6.5-9.5-14.5-16.5-27.4-15c-2.7,0.3-6.5-0.6-8.3-2.5c-10.7-11-24-16.5-39.3-17.7
	c0.1-0.9,0.2-1.7,0.3-2.6c6.8-0.6,13.8-2.5,20.4-1.6c28.5,3.7,56.8,8.3,85.2,12.3c3.6,0.5,7.5-0.8,11.2-1.1c1.5-0.1,3.1-0.1,4.4,0.3
	c24.9,8.8,49.8,17.6,74.6,26.7c9.1,3.4,17.6,8,26.6,11.7c4.4,1.8,8.7,7.2,14.3,1.6c0.6-0.6,4.6,0.9,5.9,2.4
	c4.1,4.7,8.7,9.5,11.3,15.1c10.9,23.6,12.4,48.8,10.8,74.7c-2.3-5.6-3.9-11.7-7.1-16.8c-9.9-15.8-18.8-32.6-31.1-46.4
	C371,307.9,355,299,337,294.4c-29.8-7.6-59.3-16-89-24.1c-1.5-0.4-3-0.7-5.9-1.3c11.5,17.7,26.4,28.4,44.4,36.3
	c21,9.2,41.7,19.6,61.5,31.2c6.8,3.9,11.8,12.3,15.6,19.7c12.5,24.6,23.9,49.8,35.9,74.7c19.4,40.3,40.2,79.6,45.8,125.4
	c3.1,25.5,13.1,50.2,19.6,75.3c4.4,16.8,8.4,33.7,11.9,50.8c1.4,6.8,1.1,13.9,1.7,23.3c-4.7-3-7.8-4.6-10.3-6.9
	c-3.9-3.6-8.2-7.2-10.9-11.7c-16.7-26.9-42.5-33.5-71.3-30.5c-8.8,0.9-18.2,6.7-25,12.9c-9,8.1-15.7,18.8-24.4,29.7
	c-0.6-7.8-1-14.5-1.6-22.9c-8,15.5-9.1,30.1-4.6,45.8c-10.5-37.4-33.4-67.1-56.1-97.5c1.4,0.5,2.8,1,4.1,1.6
	c1.1,0.5,2.2,1.3,3.2,1.9c0.8-0.5,1.6-1,2.4-1.5c-5.4-9.9-10.8-19.9-16.3-30.1c9,1.9,16.1-1,19.9-10.8
	c-8.5,38.8,16.8,63.5,34.1,91.6c7.2-15.5,9.5-31.1,6.8-47.1c-1.7-10.2-5-20-6.9-30.2c-3.3-17.8-10.6-33-25.5-44
	c-9.2-6.8-14.8-15.7-18.1-26.9c-3.5-11.8-11.2-20.8-25.7-26.8c1.5,5.2,2.1,7.9,3.1,10.4c4.5,10.4,5.7,20.4-1.8,30.3
	c-1.4,1.8-0.3,6,0.6,8.9c1.1,3.7,3.2,7.1,5.3,11.6c-14.2-10-29.3-18-23.8-39.2c3.8,4.9,7.2,9.4,10.6,13.9c1.4-1,2.4-1.5,2.3-1.7
	c-6.5-20.8-3.4-43.6-15-63.6c-5.7-9.8-7.5-21.9-11.3-32.9c-0.7-2.1-2.2-3.9-3.5-5.7c-10.1-13-15.9-26.7-15.6-44.1
	c0.3-17.5-9.9-33-23.9-42.1c-14.8-9.7-20.8-23.1-24.9-38.2c-4.6-16.9-18.2-29.6-35.3-31.9c-3.4-0.5-8.1-2.7-9.5-5.5
	c-13.8-29.1-25.9-27.1-49.2-24.1c-1.6,0.2-3.3,0.2-4.9,0.4c-0.1-1.1-0.2-2.2-0.2-3.3c11-0.8,22.2-3.2,33-2
	c20.2,2.3,40.4,5.7,60.1,10.6c12.1,3,23.3,9.4,34.8,14.7c8.1,3.8,16.5,7.4,23.7,12.6c6.6,4.7,12.2,11.2,17.6,17.4
	c7.4,8.5,15.4,16.9,21.1,26.5c4.6,7.7,6.2,17.2,9.3,25.9c1.8,4.9,3.8,9.7,5.8,14.4c4.9,11.6,10,23.1,14.7,34.7
	c1.3,3.3,0.9,7.5,2.4,10.7c1.5,3.1,4.4,5.4,6.7,8.1c2.4-2.1,4.9-4.3,10.1-8.9c-1.4,11-1,20.4-4,28.6c-3.4,9.2-2.6,16.5,2,24.7
	c4,7.2,6.3,15.2,9.8,22.7c5.5,11.6,11.3,23.1,16.8,34.3c0.5-0.1-1.2,0.1-3.7,0.4c0.9,2.4,1,5.4,2.5,6.4c9,6.2,6.8,15.2,7.5,24.2
	c2.1,24.6,5.6,49,8.9,73.5c1.7,12.7,4.2,25.3,6.3,37.6c-0.9,0.5,0,0.3,0.1-0.1c3.4-26.8,12.1-53.5-1.7-80.1
	c-4.1-7.9-5.6-17.1-8-25.8c-0.9-3.3-0.7-7-1.2-13.3c11.1,5.8,19.8,10.5,30.5,16.1c-7.6,2-14.9,2.8-14.9,4.1
	c-0.3,4.9,0.2,11.3,3.1,14.8c13.3,15.9,11.3,34,9.4,52.3c-0.4,4.2-1.5,8.4-2.1,12c19.5-5.7,38.6-11.2,56.6-16.5
	c1.9,4,2.5,7.1,4.3,8.7c12.1,9.8,24.4,19.3,36.7,28.9c1.8,1.4,3.5,2.9,7.9,6.6c1-6.3,3.2-11.1,2.1-14.8
	c-11.7-38.4-24.1-76.5-35.8-114.9c-2.9-9.7-7.9-15.9-17.4-20.3c-8.5-3.9-15.8-10.6-22.5-17.9c4.1,2,7.9,4.9,12.2,5.7
	c4.1,0.7,10.5,0.8,12.6-1.7c2.7-3,4.2-10.7,2.3-13.3c-4-5.4-10.2-10.1-16.4-12.7c-10.7-4.6-22.2-7-33.1-11.1
	c-4.1-1.5-7.3-5.3-12.7-9.4c12.5,1.1,22.5,2.6,32.5,2.5c4.2-0.1,11.2-3.1,11.7-5.8c0.9-4.2-1.3-11.7-4.6-13.6
	c-11.7-6.8-24.4-11.9-36.8-17.5c-6.6-3-14-5-19.9-9.1C325.6,409.7,323,399.7,326.4,386z M263.5,482.5c0.6-0.2,1.3-0.4,1.9-0.6
	c1.9,6,3.2,12.2,5.8,17.9c1.8,3.9,5.4,7,8,10.5c2.7,3.6,5.4,7.3,7.8,11.2c1.3,2.2,1.4,5.3,3,7.2c8.7,10.3,17.7,20.3,26,29.9
	c3.1-33.1-23.4-53.1-37.1-79.5c2.2,0.5,4.1,1,8.6,2.1c-5.4-10.3-11.6-18-13.4-26.6c-1.8-8.3,1-17.6,1.7-26.5
	c-1.4-0.1-2.7-0.3-4.1-0.4c-0.7,5.9-1.3,11.8-2,17.7c-0.8,0.2-1.5,0.5-2.3,0.7c-3.8-15-7.3-30.1-11.5-44.9
	c-1.4-4.9-4.8-9.2-7.1-13.8c-1.1-2.2-2.3-4.4-2.7-6.7c-0.8-5-0.6-10.3-1.8-15.2c-1.4-5.6-4.7-10.8-5.9-16.4
	c-3.4-15.8-11.4-30.6-21-37.1c0,3.4-1.4,8.1,0.2,9.8c9.5,9.6,0.5,18.9,0.4,28.3c0,0.3-0.2,0.6-0.2,1c-4,27.9-9.2,55.9,12.7,79.8
	c2,2.1,1.8,6.3,2.5,9.5c0.5,2.3,0.1,4.8,1,6.8c5.1,12.1,9.9,24.3,15.8,36c2.8,5.7,7.6,10.4,11.5,15.6c1.2-0.6,2.3-1.2,3.5-1.7
	C264.3,492,263.9,487.2,263.5,482.5z M160.4,282.7c-24.1-16.4-24.3-16.5-36.7-16.8c1.4,1.1,2.2,2.2,3.4,2.7
	c20.7,8.3,35,23,43.9,43.4c2.1,4.8,5,9.6,8.5,13.5c2.6,2.9,6.9,4.3,11.9,7.1c3.5,6.4,8,14.7,12.5,23c1.4-0.4,2.7-0.8,4.1-1.1
	c1-4.4,3.4-9,2.6-13.1c-3.1-17-7.1-33.8-11.2-50.5c-0.5-2.2-3.1-4.6-5.2-5.4c-7.2-2.8-14.7-4.8-22.8-7.4
	c5.5,9.3,10.4,17.8,15.4,26.2c-0.5,0.3-1.1,0.6-1.6,0.9c-7.5-9.2-14.9-18.4-23.8-29.4C160.8,279.8,160.6,281.3,160.4,282.7z"/>
<path d="M97.8,432.1c6.5-10.1,13-20.1,19.5-30.2c-0.5-0.6-1-1.1-1.5-1.7c-3,2.2-6.3,4.1-8.9,6.7c-12.8,13.2-23.3,27.7-32.3,44.1
	c-7.6,13.7-21.8,23.7-33.1,35.4c-1-0.8-1.9-1.5-2.9-2.3c5.6-9.6,11.1-19.3,16.9-28.8c9.5-15.7,19.7-31.1,28.7-47.1
	c6-10.7,11.4-22,15.4-33.6c6.7-19.6,0.9-36-15-49.3c-4.8-4-8.8-9-13.1-13.6c-5.6-6.2-10.7-13-16.7-18.7
	C39.6,278.7,22.5,269.2,0,273.8c2-1.5,3.9-3.8,6.1-4.4c18.7-4.5,38.1-10.7,56.4-1.2c15.3,7.9,28.9,19,43.2,28.8
	c4.1,2.8,7.8,7.6,12.2,8.3c12.4,2,16.4,10.5,21.7,20.3c7.4,13.7,17.9,25.7,26.6,38.8c7.6,11.4,14.8,23.1,21.6,35
	c4.5,7.9,7.5,16,9.1,25.6c2,11.6,11,21.8,16.2,32.9c5.9,12.6,11.9,25.3,16.2,38.4c1.8,5.6-0.5,12.5-2.2,19.1
	c-31.2-39.7-70.6-58.2-121-52.1c16.4-9.5,34.7-16.4,50.8-9.3c20.3,8.9,37.8,24.1,56.5,36.7c1.8,1.2,3.4,2.8,6.3,5.2
	c-4.6-19.6-14.9-34.1-24-49.7c-12.4-21.3-31-28-52.9-31c-2.3-0.3-5.1-0.9-6.5-2.5c-8.6-9.4-14.6-3.3-20.6,3.1
	c-5.4,5.8-10.5,11.7-15.8,17.6C99.3,433.1,98.6,432.6,97.8,432.1z M108.9,389.2c7.3-0.4,13.1-2.5,16.9-0.6
	c13.1,6.5,25.3,14.7,38.1,21.8c3.5,1.9,7.7,2.5,11.6,3.7c-0.2-3.7,0.6-7.9-0.7-11.1c-6.8-16.3-13.9-32.5-21.5-48.5
	c-2.2-4.6-5.7-10-10-12c-17.3-8.3-28.5-22.7-40.1-37c-3.6-4.5-8-8.3-12.5-13c-2.7,3.8-4.3,6.1-6.5,9.4C79,285.8,69.3,277,50,277.9
	c6.2,3.2,10.5,4.9,14.1,7.4c3.5,2.4,6.9,5.3,9.4,8.7c6.8,9.2,12.2,19.5,19.7,28c7.5,8.4,14.8,14.7,17.2,27.9
	C112.9,363.3,115.9,375.4,108.9,389.2z"/>
</svg>
