<?xml version="1.0" encoding="utf-8"?>
<!-- Generator: Adobe Illustrator 21.0.0, SVG Export Plug-In . SVG Version: 6.00 Build 0)  -->
<svg version="1.1" id="Layer_3" xmlns="http://www.w3.org/2000/svg" xmlns:xlink="http://www.w3.org/1999/xlink" x="0px" y="0px"
	 viewBox="0 0 1000 1000" style="enable-background:new 0 0 1000 1000;" xml:space="preserve">
<path d="M872.4,490.2c-7.9,25.3-17.1,48.6-22.3,72.8c-4.9,23.1-20.2,38.3-34.2,54.6c-7.5,8.7-16.7,16-26.7,22.3
	c7.9-11.9,16.3-23.4,23.5-35.7c12.4-21.2,23.3-43.2,21.4-69c-0.2-2.1,1.7-4.6,3.1-6.5c1.5-2.1,3.6-3.8,5.2-5.8
	c20.8-25.9,26.1-97.4,9.3-125.9c-6.8-11.6-16.6-19.3-29.4-24.1c-14.4-5.3-28.3-12.1-41.6-20c23.8,5.6,49.8,5.9,69.3,22.1
	c10.1,8.4,18.9,20.7,23.2,33c8.7,25.5,13.9,52.1,20.6,78.3c7.4,29,19.1,56,41.1,79.6c0.2-14.7,1-29.4,0.3-44.1
	c-0.5-10.3-3-20.5-4.8-30.8c-7.9-45.2,15-89.9,56.4-109.6c4.2-2,8.8-3,13.4-4c-49.7,31.6-56.5,79.2-51.6,132.2
	c2.2,24.2,0.9,48.7,1.4,73.1c0.1,3.9,1.5,7.7,2.6,11.5c2.7,9.4,5.6,18.7,8.5,28c-0.9,0.4-1.8,0.7-2.7,1.1c-3.3-4-6.6-8.1-9.8-12
	c-1.5,0.8-2.5,1-2.7,1.5c-16.9,37.1-45.5,56-86.1,61.2c-20,2.6-39.1,12.4-58.6,19.2c-3.6,1.3-7,3.5-10.5,5.2c-0.7-1.2-1.3-2.4-2-3.6
	c14.1-8.3,27.7-17.6,42.4-24.6c12.6-6,26.6-9.2,39.8-14c30-10.8,47.4-33.2,56.5-62.8c0.8-2.8,0.8-6.7-0.6-9.1
	c-16.6-29.7-33.6-59.2-50.5-88.8C875.3,494,874.1,492.6,872.4,490.2z"/>
<path d="M199.4,637.3c-25.3-11-46.9-26.5-57.8-52.2c-9.9-23.3-17.2-47.8-26.3-73.7C103.6,530,91.6,546.2,82.9,564
	c-3.7,7.6-3.7,20.1,0.1,27.6c7.9,15.6,17.2,31.8,30,43.1c15,13.2,34.3,21.4,51.7,31.8c11.2,6.7,22.3,13.4,33.4,20.2
	c-0.7,1.3-1.4,2.6-2.1,3.8c-3.3-1.2-6.6-2.5-9.9-3.6c-18.2-6.2-36.1-13.9-54.8-18.1c-30.2-6.8-49.9-24.5-62.2-51.9
	c-1-2.2-2.2-4.4-4.2-8.3c-3.9,6.2-6.9,11-9.8,15.6c-3.5-9.8-0.5-23.8,5.1-44.2c7-25.3,12-51.2,6.8-79.4
	c-16.3,11.6-21.3,28.6-27,45.2c-1.1-0.2-2.2-0.3-3.2-0.5c1.1-8.4,0.7-17.4,3.7-25c4.9-12.3,11.5-24,18.6-35.2
	c3.8-6,4.6-10.8,2.5-17.4C50.9,434.5,34.6,413.4,0,388.9c21.3,0,37.8,15.8,73.9,71c33.2-34.1,66.3-68.2,99.4-102.2
	c1.1,0.8,2.2,1.6,3.3,2.3c-35.3,41.2-46.1,88.9-40.7,141.8C141.3,554.7,164.2,598.5,199.4,637.3z M83.1,538
	c25.3-34.4,44.1-86.6,39.3-108.8c-13.5,17.4-26.7,34.1-39.6,51.1c-1.4,1.8-2.1,4.7-2,7.1C81.4,503.6,82.3,519.7,83.1,538z"/>
<path d="M523,566.7c-16.9-21.9-6-47.9-8.1-72.3c-15.3-0.1-28.7,9.1-30.4,25c-1.5,14.7-1.2,30.9,3.6,44.6c7.7,21.8,19.9,42.1,30,63.1
	c4.7,9.9,8.9,20.1,12.2,30.6c-34.9-37.6-67.7-76.1-64.2-132.9c-6.1,2.2-11.5,4.2-16.9,6.2c17.8-11.7,20.7-30.6,26.4-48.9
	c9.1-29.7,21.1-58.5,31.4-87.9c1.8-5.1,1.3-11.2,0.9-16.8c-0.9-11-3-21.9-3.7-32.8c-0.9-14.9-1-29.8-1.4-43
	c7.7,5.6,8.8,8.2,11.4,29.5c1.5,11.9,3,23.9,4.5,35.8c1.3,0.2,2.6,0.3,3.8,0.5c5.8-12.4,11.6-24.9,17.3-37.3
	c0.6,0.2,1.2,0.3,1.7,0.5c-3.8,15.1-7.8,30.1-11.1,45.2c-0.9,4.2-0.7,9.5,0.9,13.4c16,37.5,32.6,74.6,38.7,115.6
	c1.5,10.2,11.1,19.3,17.1,29.1c-4.1-1.3-9.5-2.9-16.5-5c0,7.2,1.1,14.3-0.2,20.9c-3.1,15.9-7.2,31.6-11,47.3
	c-5.8,24.4-11.7,48.8-17.5,73.3c-0.6,2.7-0.7,5.4-1,8.2c-1.2,0-2.5,0.1-3.7,0.1c-0.6-13-2.8-26.1-1.5-38.8
	c1.4-13.5,5.4-26.9,9.8-39.8c8.2-24.1,15.4-48.1,11.9-74c-2.2-16-12.8-27.4-29.6-31.5C526.3,519.1,524.6,543.4,523,566.7z
	 M517.7,445c4,11.4,5,21.1,10.2,27.3c5,6,14.3,8.5,21.8,12.6c0.9-0.6,1.8-1.3,2.6-1.9c-10.3-27-20.7-54.1-31-81.1
	c-1.7,0.1-3.3,0.2-5,0.4c-7.4,25.9-14.7,51.8-22.2,77.9C517.7,479.4,516.2,462.8,517.7,445z"/>
<path d="M462.1,402.7c-21,13.2-42.2,25.9-62.8,39.6c-11.2,7.4-16.6,18.6-15.4,32.5c2.1,25,2.4,50.3,6.6,75
	c3.7,21.7,15.8,40.3,30.4,57.3c6.3,7.4,8.7,18.1,11.4,27.7c-11-12.5-22.6-24.5-33-37.5c-28.3-35.3-35.6-76.6-32.3-120.5
	c0.3-4,0.7-8,1.2-14.1c-4.6,2.1-7.7,3.4-13.9,6.2c4.7-7.8,8.3-13.2,11.4-19c3.2-6,6.2-12.2,8.9-18.5c7.5-17.6,13.8-35.8,22.5-52.8
	c6.4-12.4,18.5-19.7,32.7-23.7c-24.7,17.4-35.3,42.6-41.3,70.9c19.1-10.8,38.4-20.3,56.3-32.1c17.9-11.8,34.3-25.9,50.6-38.4
	c-2.6,43.3-28.5,79.3-43,119.5c-20.4,56.4-7.6,112.7,38.5,151.6c4.4,3.7,8.8,7.3,13.4,11.1c-1.2,0.8-1.6,1.3-1.8,1.2
	c-51.2-16.4-87.3-76.5-77.6-129c5.6-30.6,16.7-59.1,31.4-86.4c3.3-6.1,5.9-12.5,8.8-18.7C464,404,463,403.3,462.1,402.7z"/>
<path d="M706,639.1c-47.2,9.3-93.8,19.9-133.9,50.3c6.5-7.2,12.5-14.9,19.6-21.5c45.5-42.3,79.9-91.8,95.8-152.3
	c13.7-52.1,6-101.5-25.3-146.4c-4.7-6.7-9.9-11-18.1-13.2c-23.4-6.1-44.5-16.9-64.9-33.3c22.9,7.4,43.9,14.3,64.8,21.1
	c0.6-0.8,1.3-1.5,1.9-2.3c-4.3-7.3-8.6-14.7-12.9-22c0.6-0.6,1.1-1.2,1.7-1.7c7.5,7.5,14.6,15.4,22.5,22.3c3.8,3.4,8.9,6.5,13.8,7.3
	c31.7,5.2,61.9,14.3,90.8,31.1c-28.8-6-56.4-11.7-84-17.5c-0.9,1.2-1.7,2.4-2.6,3.5c23,11.5,17.2,37.7,29.6,55
	c5.1-13.3,10-25.8,14.8-38.4c0.8,0.3,1.7,0.5,2.5,0.8c-2.6,12.9-5.8,25.7-7.7,38.7c-1.7,11.6-3.2,23.5-2.8,35.2
	c1,29.2-4.2,57.2-10.7,85.6c-4.4,19.2-0.4,40.3,0.2,60.6c0.1,4.3,1.5,8.6,2.4,12.9c-0.9,0.3-1.8,0.5-2.7,0.8
	c-4.3-15.3-8.6-30.6-13.1-46.8c-16.3,24-32.4,47.8-49.9,73.6c25.3-2.7,46.5-5,67.7-7.2C705.7,636.8,705.9,637.9,706,639.1z"/>
<path d="M325.7,379.1c4.5,10.3,9,20.6,13.5,31.1c13.7-15.1,13.7-39.9,35.8-49.1c-27.7,0.4-54.9,3.9-81.1,13.9
	c16.7-12.8,35.7-22.2,56.3-23c33.6-1.3,61-12.5,81.5-39.4c1.1-1.4,2.7-2.4,5.8-2.5c-4.9,8.6-9.9,17.2-16.3,28.3
	c22.1-7,41.7-13.2,61.3-19.4c0.3,0.3,0.5,0.7,0.8,1c-3.4,2.3-6.5,5.1-10.2,6.8c-14.1,6.6-27.8,15-42.6,18.9
	c-20.5,5.5-36.6,17.2-51.5,30.8c-7.4,6.8-13.7,15.8-17.6,25c-9.9,23.4-15.3,47.3-9,73.5c4.7,19.3,4.6,39.8,8.1,59.4
	c9.9,55.5,43.5,95.5,86.4,129.2c11,8.7,22.1,17.3,32.4,27.1c-43.3-20.8-87.8-37.6-134.6-48c0.2-1,0.4-2,0.6-3
	c19.9,2.8,39.8,5.6,60.7,8.6c-16.1-21.4-32-42.5-47.6-63.2c-3.2,9.9-6.7,20.5-10.2,31.2c-0.7-0.2-1.5-0.4-2.2-0.6
	c0.7-4.3,1.5-8.6,2.1-12.9c2.8-20.3,2.2-39.9-4.1-60.1c-10.8-34.5-14.1-70.1-10.3-106.6c1.3-12.7-4-26.1-6.4-39.2
	c-1.1-5.7-2.5-11.3-3.8-16.9C324.1,379.7,324.9,379.4,325.7,379.1z"/>
<path d="M845.3,483.6c-1.1-0.5-4.6-2.1-10.1-4.5c-6.9,30.5-27.3,56.1-29.6,90.4c8.2-2.7,13.6-4.4,19.1-6.2
	c-14.2,11.3-25.5,23.9-21.7,44.7c-2.2-1.2-2.7-1.3-2.8-1.6c-7.6-19.5-7.6-19.5-28.3-14.7c-3.6,0.8-7.2,1.8-10.8,2.6
	c-28.1,6.3-36.4,15.3-40.5,43.8c-0.2,1.4-0.5,2.7-1.8,4c0-8.5-0.1-17.1,0-25.6c0.3-15.1,0-30.2,1.3-45.2c2-23.9,4.2-47.8,8.1-71.5
	c3.4-20.8,9.8-41,13.8-61.7c2.8-14.2,0-27.4-13.9-36.1c0.7-1,1.5-2.1,2.2-3.1c8,4.1,16,8.3,24.7,12.8c6.7-6.1,15.4-14.1,26.4-24.1
	c-7,10.1-12.4,17.4-17.1,25.1c-4.2,6.8-2.8,11.5,5,15.9c15.4,8.7,30,19,45,28.5c3.7,2.3,7.5,4.3,13,7.5c0.8-12.5,1.4-23.1,2-33.7
	c0.7-0.2,1.4-0.4,2.1-0.6C836.1,448.3,840.8,466.3,845.3,483.6z M759.3,439.9c-11.3,48.2-21.9,94.8-13.1,146.2
	c13.2-4.2,24.7-7.7,36-11.8c2-0.7,3.6-4.1,4.2-6.5c4.3-15.6,7.4-31.6,12.8-46.8c5.6-15.8,13.4-30.9,19.7-45.2
	C799.1,463.9,779.9,452.3,759.3,439.9z"/>
<path d="M657.7,555.4c2-17.8,4-32.6,5.2-47.6c0.8-10-0.5-20.1,0.4-30c1.7-18.8-9.7-29.3-23.5-38.1c-7.7-4.9-16.3-8.6-26.4-13.8
	c3.5,18.2,7.1,34.3,9.7,50.6c8.6,53-2.2,101-37.3,142.7c-6.1,7.2-12.3,14.2-18.5,21.3c-1.1-1-2.2-2.1-3.3-3.1
	c3.6-4.9,7-10,10.8-14.7c25.6-31.9,33-70,32.3-108.8c-0.6-30.9-7.7-61.7-12.2-92.5c-0.4-2.5-2.4-5.7-4.5-7
	c-6.6-3.9-13.7-7.1-23.9-12.2c5.3,18.8,9.7,34.6,14,49.7c-15.5-8.8-34.3-56.8-35.5-91.4c13.6,12.1,28,24.8,42.4,37.6
	c0.8-0.6,1.6-1.2,2.3-1.7c-2.6-10.5-5.3-21-7.9-31.5c0.8-0.3,1.5-0.6,2.3-0.8c6,12.2,11.8,24.5,18.2,36.6c2,3.7,5,7.6,8.5,9.6
	c15.3,8.9,31,17.2,49.3,27.3c-4.6-19.1-8.6-35.7-12.6-52.3c0.9-0.3,1.8-0.6,2.7-1c12.2,33.2,24.5,66.5,36.7,99.7
	c-0.5,0.3-0.9,0.5-1.4,0.8c-2.3-2.9-4.7-5.8-8.5-10.5C677.1,503.3,675,529.8,657.7,555.4z"/>
<path d="M264,334.2c-3.2,2.8-6.1,6-9.6,8.3c-14.4,9.8-28.4,20.2-43.5,28.9c-17.6,10.1-30.5,24.3-36.5,43.1
	c-5.9,18.6-9.5,38-12.6,57.3c-2.5,15.4,5.4,28.2,17.5,36.2c23.5,15.5,35.3,36.8,38.7,64.1c1.7,14,4.7,27.6,14.4,39
	c3.1,3.6,3.8,9.4,4.5,15c-9.1-15.5-21.5-26.4-41.3-32.1c2.1,9.8,3.8,17.7,5.8,26.7c-19-22.3-33.3-46.5-42.6-73.4
	c-10.2-29.7-14.3-60.2-14.3-91.8c0-50.1,25.2-82.1,68.7-102c16.3-7.5,33.3-13.7,49.9-20.5C263.4,333.4,263.7,333.8,264,334.2z
	 M200.2,583.5c9.2-18.9-9.6-54-31.1-65.2c6.1,16.1,11.9,32.8,18.8,49.1C190.3,572.9,195.4,577.3,200.2,583.5z"/>
<path d="M277.2,619.2c-10.6-23.2-29.5-32.8-50.4-41c3.2-16.5,4.1-32.4-15.6-41.3c14.8-24.5,36.5-47.8,16.4-78.8
	c-16.3,17.4-17.2,39.9-14.8,64.1c-15.5-16-15.6-48.9-1.2-68.8c17.7-24.5,17.8-30,1.3-55.8c10.8,6,20.9,20.9,25.8,36.3
	c9.1,28.9,18.5,57.8,28.2,86.5c10.1,30.1,18.5,60.3,11.9,92.5C278.5,614.2,278.2,615.4,277.2,619.2z M246.3,507.7
	c-8.2,11.5-12.6,21.2-6.5,33.5c2.4,4.8,2.9,10.7,3.4,16.2c1.4,15.1,6.1,20.6,22.5,24.2C260,557,262.3,530.9,246.3,507.7z"/>
<path d="M293.3,436.6c-12.5,7-18.5,29.6-12,46c12.8,31.8,23.5,64.1,27.6,98.2c0.6,5.1,1.4,10.4,1.1,15.5
	c-0.8,10.8,5.4,14.1,15.8,15.6c-3.2-30.7,7.3-62.5-13.6-89.7c9.6,1.9,17.4,7.2,20.1,18.4c9.7,40.3,5.7,80.6-2.5,120.6
	c-1.9-10.6-3-21.4-5.8-31.7c-3.5-12.6-13.9-15.2-26.9-14.1c-0.9-68.2-28.3-129.4-47.3-195.4c7,6.8,12.5,12.1,19.5,18.8
	c12.9-14.3,26.1-29.1,41-45.6c-9.7,27.8-5.3,51.7,6.7,75.7c5.5,11.1,5.7,24.8,8.3,37.4c-1.2,0.3-2.5,0.7-3.7,1
	C312.3,484,302.9,460.6,293.3,436.6z"/>
</svg>
