<?xml version="1.0" encoding="utf-8"?>
<!-- Generator: Adobe Illustrator 21.0.0, SVG Export Plug-In . SVG Version: 6.00 Build 0)  -->
<svg version="1.1" id="Layer_2" xmlns="http://www.w3.org/2000/svg" xmlns:xlink="http://www.w3.org/1999/xlink" x="0px" y="0px"
	 viewBox="0 0 1000 1000" style="enable-background:new 0 0 1000 1000;" xml:space="preserve">
<path d="M510.2,849.3c-1-5.9-3-11.8-2.9-17.7c0.3-14.4,1.5-28.7,0.1-43.3c-1.1,3.3-2.2,6.6-3.3,9.9c-0.5-0.1-0.9-0.1-1.4-0.2
	c0-40.8,0-81.6,0-122.4c-0.1,0-0.3-0.1-0.4-0.1c-2.1,23.4-4.1,46.8-6.2,70.1c-0.3,0.1-0.7,0.1-1,0.2c-0.5-2.9-1.1-5.8-1.6-8.8
	c-1-0.1-2-0.3-3-0.4c-1.5,8-4,16-4.1,24c-0.3,14.1,0.5,28.2,1.7,42.3c0.8,10.1,3.8,20.1,4.2,30.3c0.6,15.4-0.1,30.9-0.4,46.4
	c-0.7,28.9-1.5,57.7-2.3,86.6c-0.1,3.9-0.5,7.8-1.8,11.7c0-48,0-96.1,0-144.1c-1.5-0.3-3-0.6-4.4-0.8c-3.2,13.3-6.5,26.5-9.7,39.8
	c-0.6,0-1.1,0-1.7,0c0.9-9.4-0.9-20.2,3.1-27.9c9.3-17.7,8.9-36.4,6.7-54.3c-3.6-28.8,6.9-54.5,12.5-81.4c1.8-8.7,1.2-17.9,1.9-26.8
	c0.2-3.3,0.6-6.6,1.2-9.9c0.5-2.4,1.4-4.8,2.2-7.1c6.5-18.1,13.9-36.4-7.4-50.5c-6.5,7.7,7.3,22.8-8.9,29.9
	c-1.8-8-3.4-15.1-4.9-22.2c-1.1,0-2.1,0.1-3.2,0.1c0,67.6,0,135.2,0,202.9c-1.7,0-3.3,0-5,0c0-30.6,0-61.2,0-91.8
	c-0.7,0-1.4,0.1-2.1,0.1c-1.5,6.5-3,13-4.5,19.5c-0.9-0.2-1.8-0.3-2.7-0.5c3.2-23.2,7.7-46.3,9.3-69.6c1.6-22.9,0.4-46,0.4-69.1
	c-1.5,0-3,0-4.6,0c0,24.5,0,49.1,0,73.6c-0.6,0.1-1.2,0.2-1.9,0.2c-1.3-21-2.5-42.1-3.8-63.1c-0.8-0.2-1.6-0.4-2.4-0.7
	c-1.9,3.2-4.5,6.2-5.6,9.6c-6.7,20.6-9.8,41.7-6.7,63.5c1.1,7.3,0.1,14.9,1.1,22.2c2.4,16.6,5.6,33.1,8.4,49.7
	c0.3,1.5,0,3.1-2.5,5.1c-1.1-7.5-2.3-15-3.4-22.5c-0.9-0.1-1.7-0.3-2.6-0.4c-0.7,3.5-2.2,7-2,10.5c1.2,20.1,1.1,40.5,4.6,60.3
	c4.2,23.5,10.3,46.9,17.9,69.6c8.8,26.3,9.8,53,9.1,80.1c-4.1-26-8.1-52-12.2-78c-1.8,0.1-3.7,0.2-5.5,0.4
	c-0.8,12.5-1.6,25-2.4,37.4c-5.3-30.9,6.1-63.6-8.8-96.3c-6.6,33.3-8.2,63.8-3,94.9c-0.6-1.4-1.4-2.7-1.8-4.2c-0.5-2-0.6-4.1-1-7.9
	c-2.7,3.4-4.6,5.6-6.9,8.4c7-82.7,10.2-164.8,3-247.2c-1.8,15.6-3.6,31.2-5.4,46.8c-1.5-0.2-3-0.4-4.5-0.6
	c2.7-19.1,5.5-38.2,8.1-57.4c1.4-10.1,2.6-20.2,3.2-30.4c0.1-1.2-4.1-2.6-6.2-3.9c-0.8,1.1-1.7,2.2-2.5,3.3
	c-1.1-3.6-2.2-7.2-3.3-10.8c-8.2,70.5,2.1,140.2,9,210.1c-1.5,0.1-3.1,0.2-4.6,0.4c-1.8-23.6-3.5-47.2-5.3-70.8
	c-1.1,0-2.3,0-3.4-0.1c-1.5,3.3-3,6.5-4.9,10.5c0-35.3,0-70,0-104.8c-1,0-2.1-0.1-3.1-0.1c-1.7,17.5-3.5,35-5.2,52.5
	c-0.9,0-1.7,0-2.6,0c0-27.1,0-54.1,0-81.2c-1-0.2-2.1-0.4-3.1-0.6c-1.8,2.2-3.7,4.4-5.4,6.5c-2.1-2.8-4.2-5.6-6.6-8.8
	c4.1-2.4,8.2-4.7,10.3-5.9c-5-26.7-9.7-51.9-14.5-77.2c-1.5,0.3-3.1,0.5-4.6,0.8c2.1,13.3,5.5,26.5,5.9,39.8
	c0.3,12.3-2.4,24.7-4.5,36.9c-1.5,8.8-4.2,17.4-8.4,25.8c2.3-16.9,6-33.8,6.4-50.7c0.4-16.6-2.5-33.4-4.2-53
	c-3.4,8-4.6,14.5-8.3,18.9c-6.2,7.2-3.5,10.7,1.7,17.1c3.2,3.9,0.6,12.5,0.6,21.8c-3.4-4.1-4.9-6-8-9.8c-3.1,9.8-5.5,17.8-8,25.9
	c-1.1-0.4-2.3-0.8-3.4-1.1c3.4-8.9,7.2-17.7,10.1-26.8c1.2-3.9,0.5-8.4,0.6-12.7c0-4.3-1.9-10,0.2-12.8c16.5-22.9,15.1-52-3.8-74.1
	c-13.4-15.6-28.5-28.3-46.9-37.9c-12.2-6.3-22.4-16.5-33.3-25c-0.7-0.5-0.6-2-1.5-5.5c6.9,6.7,12.2,11.8,18.9,18.2
	c2.3-6.2,3.5-9.5,5.6-15.2c2.8,7.1,4.8,12.4,6.8,17.6c12.2-2.3,25.3-22,27.6-40.9c-19.9-8.5-25.3,9.7-34.6,20.6
	c-0.8-0.8-1.6-1.6-2.4-2.4c8.4-14.1,16.8-28.1,25.9-43.3c-12.8-1.7-24.3-3.3-35.8-4.8c0-0.7,0-1.3,0-2c6.2,0,12.4,0,20.8,0
	c-4.8-4.3-8.4-7.6-12.1-10.9c0.5-0.7,1-1.4,1.6-2.1c4,2.9,7.8,6.2,12.1,8.5c3.5,1.9,7.6,2.8,11.5,4.1c0.6-1.4,1.3-2.7,1.9-4.1
	c-18.2-19.1-36.5-38.2-54.7-57.3c0.3-0.6,0.6-1.1,0.9-1.7c8.1,6.2,16.2,12.3,24.6,18.6c-1.7-4.8-3.3-9.6-5-14.4
	c0.8-0.4,1.6-0.8,2.4-1.3c7,13.8,14,27.5,21,41.3c1.5-0.7,3-1.3,4.4-2c-2.9-7.2-5.7-14.5-8.6-21.7c0.8-0.5,1.6-1,2.4-1.4
	c3.2,5.9,6.6,11.8,9.7,17.8c3.4,6.5,6.6,13.2,10.6,21.1c13.2-18.7,14.9-47.6,5.1-59.2c-2.1-2.5-4.5-5.4-7.4-6.6
	c-18.9-7.6-31.1-22-42.7-38c-3-4.1-12.7-4.7-19.3-4.5c-11.6,0.4-23.1,2.7-34.8,1.8c17.7-3.4,35.5-6.9,54.2-10.5
	c-4-20.6-25.7-28-33-46c6.1,7.4,12.3,14.7,18.7,22.4c13.7-11.3,4.3-20,2.1-29.3c10.4,8.5,12.1,14.6,9,26.9c-0.5,2.1,1.7,4.8,2.7,7.2
	c0.9,2.3,1.7,4.5,3.5,9c3.9-5.5,7-9.9,10.1-14.3c0.8,0,1.6,0,2.4,0c-1,4.2-2.2,8.3-3.1,12.5c-1.2,6.1-5.1,13.9-2.7,18
	c5.6,9.9,14.3,18.1,21.7,26.9c2-1.9,4-3.8,6-5.7c-7-4.2-14-8.3-21-12.5c1.7-1.6,3.4-3.3,5-4.9c8.9,8.9,17.7,17.9,25.1,25.3
	c4.8-2.4,8.9-4.1,12.4-6.4c1.8-1.2,4.3-4.1,4-5.7c-3.4-16.6,11.2-24.8,16.8-37.2c2.3-5,5.5-9.5,8.8-15c4.8,8.5,0.6,14.4-4.2,20
	c-4.6,5.3-10.1,10-13.9,15.8c-2.1,3.2-1.4,8.3-2.1,13c16-3,22.3-11.9,22.7-26.4c0.3-10.3,2.9-20.5,3.2-30.8c0.1-3.8-2.8-9-6-11
	c-1.8-1.1-7.7,2-10.3,4.7c-11.3,11.4-26.3,20.5-24.8,40.4c0.4,5.6-3.8,11.6-6,17.5c0,0.1-0.7,0-1.1,0c-0.4-20.3-2.9-41.2,18.5-55
	c-19.5,5.9-27,24-43.2,33.4c10.1-12.7,20.2-25.3,31-38.8c-6.4-5.9-13.5-12.6-20.6-19.2c1-1.2,2-2.3,3.1-3.5
	c6.2,4.8,12.1,10.1,18.8,14.2c3.4,2.1,8.2,2,12.3,2.8c0.2-3.9,2-8.6,0.5-11.7c-8.6-18.3-10.2-35.8-4.9-56.4
	c3.9-15.4-1.3-33.2-2.6-49.9c-0.2-2.8-0.6-5.6-0.9-8.4c1.2-0.2,2.4-0.3,3.6-0.5c1.2,10.5,2.4,21,3.8,32.2c1.9-1.5,3.2-2.5,5.9-4.7
	c-3.5,22.5-6.7,43.6-10,64.7c1.2,0.2,2.4,0.4,3.7,0.6c1.4-4.9,2.8-9.9,4.1-14.8c1.2,0,2.3,0.1,3.5,0.1c0,4.4,0,8.9,0,13.3
	c0.1,6.2-0.9,12.7,0.6,18.6c1.1,4.2,5.5,7.5,8.5,11.2c1.3-4.5,3.5-9,3.6-13.5c0-4.9-1.9-9.9-3.6-17.5c8,8.3,15.6,7.2,16.8-0.6
	c2-13.6,2.3-27.5,3.2-39.9c2.7,4.8,6.7,12.1,11.8,21.3c-12.1,10.7-10.5,27.8-6.3,46.5c4.8,0,10,0,16.5,0c-10.8,19.2-12,39.9-5.1,61
	c1.6-37.1,13.5-73.9,2.5-111.4c-5.3-18-9.7-36.2-14.6-54.4c1.6-0.4,3.3-0.8,4.9-1.2c2.4,13.3,4.7,26.5,7.1,39.8
	c1.3,0,2.5,0.1,3.8,0.1c0.7-10.3,1.4-20.5,2.3-34.4c2.5,6.3,3.7,9.5,6.2,15.9c1.7-21.3,3.1-39.4,4.5-57.7c2.7,0.6,4.1,0.8,4.1,0.9
	c-0.5,13.4,3.4,26.1,0.9,40.5c-4.8,27.3-4.2,55.5-4,83.5c15.7-12.5,2.3-30.7,12.3-46.4c0.7,7.2,1.3,12.7,1.8,18.3c1-0.1,2-0.2,3-0.3
	c-1.2-10.4-2.4-20.8-3.6-31.2c0.7-0.2,1.4-0.4,2.1-0.6c1.4,3.5,2.8,7.1,4.5,11.3c4.1-7,7.9-13.7,11.8-20.4
	c-5.5,14.9,1.7,25.9,9.5,36.7c1.2-0.1,2.5-0.1,3.7-0.2c-1.7-19.8-3.4-39.5-5.2-59.3c0.7-0.1,1.4-0.2,2-0.3
	c2.4,13.1,4.8,26.1,7.2,39.8c5.6-20,13-38.8,6.8-60.7c-6.1-21.7-8.3-44.5-9.9-67.6c2.8,11.3,5.5,22.6,8.3,33.8
	c1-0.1,1.9-0.1,2.9-0.2c0-10,0-20,0-30c1.1-0.1,2.2-0.1,3.4-0.2c0.7,7.5,4.1,16,1.6,22.3c-8.7,21.9-1.3,42.4,2.1,63.5
	c8.3-4.3,8.3-4.3,10.2-27.2c1.2,4.4,1.7,5.8,1.9,7.3c0.3,2,0.3,4.1,2.7,6.8c3.1-9.4,6.1-18.8,9.2-28.3c1.1,0.3,2.2,0.6,3.4,0.8
	c-5.1,8.6,6.9,19.4-6.6,27.8c-3.7,2.3-4.6,10.8-5,16.6c-1.6,22.2-2.7,44.5-3.7,66.8c-0.3,5.9,0.5,11.9,3.5,18
	c0.9-3.2,1.9-6.4,3.7-12.9c2.2,8.4,3.7,13.8,5.3,19.9c-16,3.2-9.1,14.5-7.3,24.3c18.1,0.8,20.8-3.5,14.8-19.9
	c-3.6-9.9-5.5-20.5-8.1-30.7c1.1-0.3,2.2-0.7,3.3-1c2.7,6.8,5.3,13.6,9.2,23.5c-0.7-10.1-1.2-16.7-1.7-23.4c0.7-0.1,1.4-0.1,2-0.2
	c1.3,10.8,2.6,21.6,4,32.4c1.1,0.3,2.2,0.6,3.3,0.8c1.1-6.6,3-13.1,3.1-19.7c0.4-15.4-15.8-26.7-7.7-44.3c-1.3,0.3-2.5,0.6-3.8,0.9
	c-0.4,2-0.8,4-1.3,6c-0.6,0.1-1.2,0.2-1.7,0.3c-2.2-11.3-4.3-22.5-6.5-33.8c1.1-0.2,2.2-0.5,3.3-0.7c1.3,6.3,2.7,12.7,4,19
	c0.7,0,1.3-0.1,2-0.1c-0.8-9.6-1.6-19.2-2.4-28.8c0.7-0.2,1.5-0.4,2.2-0.5c4.2,22.1,8.4,44.2,12.6,66.3c1.7-0.3,3.4-0.7,5-1
	c-5.4-29.2-10.9-58.4-16.3-87.6c0.3-0.1,0.7-0.3,1-0.4c1.8,5.5,3.4,11.1,5.5,16.5c4.3,11,10.5,21.6,13,33c1.8,7.9-1.1,16.9-1.9,25.5
	c1.5,0.2,3.1,0.3,4.6,0.5c1.1-14.9,3.6-29.8,3-44.7c-0.5-12-4.6-22.7,2.5-35.4c4.9-8.7,2-21.7,2.6-32.8c0.1-2.4,0.2-4.7,3.1-7.1
	c0,13.2,3.3,27.5-0.8,39.2c-5.4,15.3-1.4,29.2-0.9,43.7c0.5,14.4,3.2,28.8,5.4,46.5c6.3-21.9,11.7-40.9,17.2-59.9
	c1.1,0.3,2.1,0.6,3.2,0.9c-4.2,15.8-8.5,31.5-12.7,47.3c0.8,0.2,1.5,0.5,2.3,0.7c3.1-4.8,6.2-9.5,9.3-14.3c0.9,0.5,1.9,1,2.8,1.6
	c-3.7,6.9-6.5,14.5-11.3,20.4c-10.5,13.1-13.5,26.7-6.7,42.2c17.4-2.7,25.7-14.5,24.9-31.5c-0.9-20.4,0.1-40.9,0.1-61.3
	c0.1-14.7,0-29.5,1.8-44.2c1.4,34.7,2.7,69.3,4.1,104c0.7,0.3,1.4,0.5,2.2,0.8c2.8-12.6,5.7-25.2,8.9-39.5
	c9,28.2-20.6,49.8-8.3,78.1c15.1-11.1,17.5-27,19-43.3c0.6-6.6,1.3-13.2,1-19.7c-0.2-5.4-2-10.7-2.8-16c-0.7-4.9-0.9-9.8-1.3-14.8
	c1-0.1,2.1-0.2,3.1-0.3c1,3.6,1.9,7.2,3.5,13.2c1.2-8.8,2.2-15.4,3.1-21.9c1.3,0.1,2.6,0.3,3.9,0.4c-2,18.4-4.1,36.7-6.2,55.2
	c16-1.3,18.6-15,24.7-25.3c1.1,0.6,2.2,1.2,3.4,1.9c-3.6,6.9-5.5,16.9-11.2,20.2c-17.7,10.2-17.5,26.6-19.5,44.6
	c13.3,2.1,26.1,4.1,39,6.1c-0.2,1-0.4,2-0.5,2.9c-4.7-0.5-9.3-1-13.4-1.5c5.1,8.4,9.9,16.5,14.8,24.5c1.9,3.2,3.5,8.3,6.2,9
	c18.1,4.4,9.3,18.4,11,28.7c-8.8-15.7-15.7-32.9-26.9-46.5c-7.1-8.6-20.5-16.2-31.2-16.5c-17.4-0.5-23,10.7-15.4,27.1
	c3.4-2.2,6.7-4.1,9.7-6.5c2.8-2.2,5.3-4.9,9.6-9c-0.8,5-1.2,7.7-1.9,12.9c9.7-2.4,17.7-4.4,25.8-6.4c0.3,1.3,0.7,2.6,1,3.9
	c-7.3,2-14.5,5.3-21.9,5.8c-13.5,0.9-20.4,8.3-18.2,22.1c0.4,2.9,0.6,5.8,1.1,8.6c3.2,17.8,4.3,18.4,25.4,13.2
	c-3-5.1-5.7-9.9-10.3-17.7c6.1,3.6,9.8,5.7,15.6,9.1c-1-10.1-1.9-19-2.8-28c3.5,3.2,6.3,5.7,9,8.1c5.1,11.3-13.5,24.5,2.1,39
	c2-4.5,3.7-8.5,6.4-14.7c-0.9,16.9-1.8,31.7-2.6,47.4c19.1-7.3,27.2-16.9,31-35.4c2.6-12.5,5-25.1,8.1-37.5c1-4.2,3.7-8,7.2-11.6
	c-2.2,12.9-4.4,25.8-6.6,38.7c0.5,0.2,0.9,0.4,1.4,0.6c4.3-7.9,10.1-15.3,12.5-23.8c5.7-19.4,15.4-36.1,27-52.6
	c14.8-21.2,29.6-43,36.1-68.9c0.2-1,1.3-1.7,2.9-2.1c-5,35.1-28.3,62-41.5,93.6c3.8-5.5,7.6-11,11.4-16.6c1.2,0.8,2.4,1.6,3.5,2.4
	c-6.9,9.3-13.9,18.5-20.6,27.9c-4.4,6.2-8.9,12.3-12.5,19c-6.7,12.5-12.8,25.2-18.4,36.5c26.9-10.6,39.4-35.3,49.6-65.6
	c2.8,7.5,3.9,10.4,5,13.3c-3.7,5-7.5,9.9-12.6,16.8c21.5-1.3,35.4-10.4,47.7-25.6c-2.8,13-11.9,22-28.4,27
	c-11.2,3.4-20.6,7-29.4,16.4c-18.3,19.3-39.5,35.9-59.3,53.7c-4.2,3.8-7.8,8.4-11.7,12.6c0.8,0.9,1.5,1.9,2.3,2.8
	c6.1-4.5,12.2-9.1,19.1-14.2c-2,18-3.9,35.3-5.8,52.5c-1.5-0.1-3-0.2-4.6-0.3c0-3.3,0.5-6.6-0.1-9.8c-0.9-5.1-1.4-11.1-4.3-14.9
	c-2.3-3-8-3.4-12.3-5c-1.1,5.1-3.8,10.6-3,15.3c1,5.3,5.2,10,6.8,16.2c-2.7-2.8-5.4-5.6-8.1-8.4c-1.1,0.8-2.2,1.5-3.3,2.3
	c2.7,4.7,4.7,12.5,8.4,13.5c5.9,1.5,15.2,0.6,19-3.3c9-9.3,15.5-21,23-31.7c1.3-1.8,2.5-3.7,6.1-4.5c-2.1,6.7-4.2,13.4-6.5,20.7
	c2.8-1.5,6-3.3,9.1-5c0.7,0.9,1.4,1.7,2.1,2.6c-9.7,7-19.5,13.9-29.2,20.9c1.1,1.5,2.2,3,3.2,4.5c7.2-5,14.5-9.9,24-16.5
	c-5.4,9.7-9.6,17.2-13.7,24.6c0.5,0.4,1.1,0.7,1.6,1.1c14.3-18,28.5-36,42.8-54c1.1,0.8,2.1,1.5,3.2,2.3
	c-10.1,12.9-20.2,25.9-30.3,38.8c0.6,0.8,1.1,1.7,1.7,2.5c5.7-2.4,11.3-4.8,17-7.3c0.5,0.6,0.9,1.2,1.4,1.8c-4.2,3-8,7.3-12.6,8.9
	c-21.9,7.2-30.5,28.3-45.7,42.5c-0.6,0.5-1.1,1.3-1.3,2.1c-2.3,11,21.9,38.1,33.2,37.2c1.6-0.1,3.2,0,5.3,0c-1.3,4.5-2.6,8.5-4,13.2
	c-3.9-2.5-8.2-5.2-15-9.6c-1.4,8.6-2.5,15.2-3.6,21.8c-0.9,0.1-1.8,0.2-2.7,0.3c-0.9-6.3-1.8-12.6-3.1-21.6
	c-8.6,5.2-19.3,9.9-27.7,17.3c-14.3,12.6-30.3,26.4-28.8,47.2c1.4,18.2-3.6,38.8,12.4,54.4c3.5,3.5,5,10.1,5.4,15.4
	c0.8,11,0.2,22.2-1.1,33.5c-5.3-5.3-0.8-15.4-10.2-18.2c-0.4-0.1,0.1-6.6,1.7-9c7.2-10.5,2.7-17.5-8.4-25.8c0,15.5,0,28.8,0,42.1
	c-0.3,0.1-0.6,0.2-0.8,0.2c-1.6-7.8-3.3-15.6-4.9-23.4c-0.9,0-1.8,0.1-2.8,0.1c-3.9,20.5-7.7,41-11.6,61.5c-0.6-0.1-1.3-0.1-1.9-0.2
	c2.6-24.2,5.1-48.5,7.7-72.7c-1.8-0.2-3.7-0.5-5.5-0.7c-3.4,17-9.1,33.9-9.6,50.9c-0.3,13.4-0.7,25.9-5.5,38.7
	c-4.2,11.3-5.6,23.6-8.6,37.3c-6.4-28.1,18.4-50.9,6.8-80.2c-13.4,40.3-10.8,80.2-14,119.1c-3.2,38.9-4.1,78.1-7.9,117
	c0-28.2,0-56.3,0-84.5c-0.6-0.1-1.2-0.1-1.8-0.2c-1.6,22.2-3.1,44.4-4.7,66.6c-0.5,0.1-0.9,0.1-1.4,0.2c0-15.7,0-31.4,0-47
	c-0.8-0.3-1.6-0.5-2.4-0.8c-3.3,8.6-6.6,17.2-10.8,28.1c-0.7-8.2-1.2-13.9-1.8-21.2c7.9-3.8,7.6-12,7.3-21.4
	c-0.8-26.9,1.6-53.4,8-79.8c3.5-14.4,0.6-30.3,0.6-45.5c-1,0.1-2,0.1-3.1,0.2c-1.4,8.3-2.8,16.6-4.3,24.9c-0.6-0.2-1.2-0.3-1.9-0.5
	c-1.1-20.4-2.2-40.8-3.3-61.2c-1.2-0.1-2.4-0.1-3.5-0.2c-1.6,13.8-4.3,27.5-4.6,41.3c-0.5,21.5,1.3,43,1,64.5
	c-0.4,22.7-2.4,45.3-3,68c-0.3,11.6,1,23.2,1.7,34.7c0.1,2,0.1,4.7,1.3,5.9c14.5,14.2,4.4,33.6,12.5,49.1c-1.6,0.3-3.3,0.6-4.9,0.9
	c-2-13.7-4-27.4-6-41.1c-0.9,0.1-1.7,0.1-2.6,0.2c-2.9,28.7-5.7,57.4-8.6,86.1c-1.2,0-2.3-0.1-3.5-0.1c0.4-8.1,0.8-16.2,1.2-25.3
	c-9.4,4.8-12.5,12.3-13.2,21.3c-1.3,17.3-2.5,34.7-3.8,52c-0.1,1.3-0.7,2.6-1.9,6.9c0-16.1-0.8-29.2,0.2-42
	c1.3-16.8,1.8-34.1,17.2-46c2.8-2.1,4.4-7.3,4.6-11.2c0.8-21.5,1-42.9,1.3-64.4c0-1-1.2-2-5.7-3.5c-2.7,15-5.4,30.1-8.1,45.1
	c-0.8-0.2-1.6-0.3-2.4-0.5c0.4-4.3,0.9-8.6,1.3-12.9c-1.3-0.4-2.6-0.8-3.9-1.2c-2.4,7.4-4.8,14.8-7.3,22.6
	C494.5,871.3,503.9,860.7,510.2,849.3c3.6-8.3,9.1-16.3,10.3-24.9c3-21.9,4.7-44,5.8-66.1c1-21.8,0.5-43.7,0.8-65.5
	c0.3-23-1.2-46.1,7.5-68.2c1.3-3.3,1.4-7.1,1.9-10.5c-12.7-5-19.5-1.8-20.3,9.9c-0.7,10.6-0.4,21.4,0.7,31.9
	c2.7,25.7,6.1,51.3,9.1,76.9c0.1,0.5-0.7,1.1-1.6,2.3c-1.7-2.9-2.9-5.1-5.8-10.2c0,21,0,38.7,0,56.5c-1.6,0-3.1,0-4.7,0
	c0-40,0-79.9,0-119.9c-1.3,0-2.7,0.1-4,0.1c-0.6,12.2-1.7,24.4-1.7,36.6c-0.1,18.9,0.4,37.8,1,56.7c0.7,21.5,2.2,42.9,2.7,64.4
	C512.1,829.6,510.8,839.5,510.2,849.3z M554.3,285.5c-1.1,7.3-2.2,14.6-3.4,21.9c1,0.1,2,0.2,3,0.3c0.3-2.7,0.7-5.5,1-8.2
	c0.9,0,1.8-0.1,2.7-0.1c0,11.8,0,23.5,0,35.3c0.9,0,1.9,0,2.8,0c0.7-5.7,1.4-11.3,2-17c0.6,0,1.2,0.1,1.8,0.1c0,7.8,0,15.7,0,23.5
	c2.2-14.1,3.4-28.2,1.7-42c-0.6-5.2-7.9-9.5-12.1-14.2c3.5,0.4,7.1,0.9,10.7,1.3c2.8-10.7-0.1-17.1-14-18.5
	C551.9,274.4,553.1,279.9,554.3,285.5z M479.4,343.1c3.6-5.1,7.3-10.2,13-18.3c-6.4,2.4-10.1,3.8-13.9,5.2c-0.1-1.8-0.3-3.4-0.4-5
	c-1.2-0.3-2.4-0.5-3.6-0.8c-2.2,7.3-4.4,14.6-6.7,21.8c3.6-0.1,4.7-1.4,6.2-2c1.8-0.7,3.8-0.9,5.8-1.3c-11.1,11.2-16.5,24-11.6,40.7
	c4.3-1.4,8.2-2.8,12.2-4.1c0.5,0.9,1.1,1.8,1.6,2.6c-4.1,2.9-8.2,5.8-13.6,9.7c6.9,1.3,12.1,2.3,15.9,3.1c4.3-21.3,8.3-41,12.3-60.8
	c-1.1-0.6-2.2-1.2-3.4-1.8C488.6,335.7,484,339.4,479.4,343.1z M549.2,559c-1.1,0.1-2.3,0.2-3.4,0.3c-3.7-18.5-7.3-36.9-10.8-54.1
	c-12.2,19.6,3.1,38.8,3.9,58.9c4.7,1,9,1.9,15.7,3.4c-1.6-19.2-3.1-37.4-4.5-54.6c5.8,0,13.2,2.2,16.1-0.4c7.9-7.2,10-35.2,5-46.7
	c-3.5,14.7-7,29-10.4,43.4c-1.3-0.3-2.7-0.6-4-0.9c1.9-7.4,3.8-14.8,6-23.3c-3.1,1.5-5.5,2.6-8.2,3.9c-0.2-1.8-0.6-2.8-0.3-3.4
	c5.9-10.5,12-20.9,17.8-31.5c1-1.9,1.5-4.9,0.8-6.8c-2.1-5.7-5-11.2-9-19.9c-4.4,5.5-10.4,9.5-10.4,13.6c-0.1,7.2,3.3,14.5,5.4,22.1
	c-2-0.5-5.3-1.3-8.5-2c-1,2.1-2,4.1-4.6,9.3c-2.3-10.5-3.8-17.5-5.6-25.5c-10,21.9,17.4,37.9,8.9,60.5c-3.7-11.3-6.8-20.7-9.9-30.1
	c-1.1,0.3-2.1,0.6-3.2,1C540.3,503.8,544.8,531.4,549.2,559z M443.3,165.2c-14.4,32-23.9,64.6-24.1,99.8
	c19-10.9,11.8-33.3,23.8-47.4c-0.2,3.3-0.4,6.7-0.6,10c4.2-0.8,7.7-3.2,7.8-5.7c0.2-9.5-0.3-19-1.5-28.4
	C447.6,184.5,445.3,175.6,443.3,165.2z M462.7,327.1c8.7-8.6,17.6-17,25.9-26c3-3.3,7.5-9,6.4-11.6c-4.7-11.4-11.3-22.1-17.4-33.5
	C452.6,278.2,465.1,304.7,462.7,327.1z M420.6,609.6c12.8-9.2,13.6-14.6,6.6-19.6c-5.2-3.8-10-8.9-13.2-14.4
	c-6.8-11.5-12.5-23.6-18.4-35.5c-1-2-1.3-4.4-2.9-9.9c5.9,6.9,9.2,10.8,12,14c3.9-8.3,7.7-16.5,10.4-22.3c-5.1-2.5-9.4-5-14-6.7
	c-3.5-1.3-7.7-2.8-10.9-1.9c-1.6,0.5-2.5,6.2-2.2,9.5c0.4,6.2,1.4,12.4,2.9,18.3c1.8,7.1,4,14.1,6.9,20.8c2.4,5.7,6.3,10.9,9,16.5
	C411.5,588.6,415.9,598.9,420.6,609.6z M633.2,337.2c4.7-9.6,7.9-17.7,12.3-25c5.9-9.8,3.2-19-1.9-27.2
	c-6.4-10.2-16.1-12.8-28.1-6.2c2.1,7.6,4.3,15.5,6.5,23.5c5.9-3.9,10.5-7,15.2-10.2c1.4,0.8,2.8,1.5,4.3,2.3
	C618.4,305,624.9,319.9,633.2,337.2z M625.4,374.9c-2.3-9.8-1.6-22.6-7.6-28.6c-6.3-6.3-11.5-11.3-14-20c-1.6-5.4-6.7-9.7-10.2-14.5
	c-1,0.2-2.1,0.5-3.1,0.7c-1.8,14.4-3,28.7,0.8,43.4c2.8,10.7,6.1,20.1,21.6,19.6c-6.1-7.1-11.3-13.2-16.6-19.4c1-0.1,2-0.2,3-0.3
	c-2.2-9.9-4.5-19.8-7.4-32.9C606.1,340.6,601.9,365.2,625.4,374.9z M569.5,259.7c16.7-3.6,23.4-20.7,18.7-41.6
	c-3.3-14.6-8.2-18.4-21.5-15.4C567.6,221.2,568.5,239.9,569.5,259.7z M443.2,340c14.1-22.3,8.5-47.6,6.8-72.9
	c-10.5,14.6-38.6,17.6-30.1,47.2c9.1-11.1,13.1-24.2,30.5-25.9c-6.7,6.4-11.4,10.9-15.7,15C447.9,314.3,437.6,329.6,443.2,340z
	 M392.4,395.2c0.8,0.7,1.5,1.4,2.3,2.2c-4.7,6.9-9.3,13.8-14,20.7c0.8,1.1,1.7,2.2,2.5,3.3c4.3-2.5,11.7-4.5,12.3-7.7
	c2.6-15,3.3-30.3,4.6-44.5c-4.6,3.4-9.4,5.9-12.7,9.7c-8.3,9.4-16.3,19-23.5,29.2c-1.9,2.8-0.3,8-0.3,12.2c4.1-1.5,9.3-1.8,12.1-4.6
	C381.9,409.4,386.9,402.1,392.4,395.2z M403.6,321c-22.1,6.8-39.2,39-33,65.4c5.7-11.1,11.3-22.3,17-33.4c0.6,0.2,1.2,0.4,1.9,0.7
	c-1.1,5.4-2.1,10.9-3.7,18.9C400.4,356.6,405.2,340.4,403.6,321z M598,376.8c2.9,13.9,6.6,26.3,7.9,38.9c1,10.2,5.2,11.8,13,9.4
	c0.8-6.7,1.5-13,2.2-19.2c0.9,0.1,1.9,0.1,2.8,0.2c1,8.1,2,16.2,2.9,24.3c2,1.6,4,3.3,6,4.9c1.2-3.8,4.1-7.9,3.5-11.3
	C632.2,402.2,621.4,385.3,598,376.8z M451,579.2c0.6-10.2,1.3-17.2,1.4-24.2c0.2-21.7,0.1-43.4,0.1-65c-1.4-0.2-2.7-0.3-4.1-0.5
	c-3.7,3-10,5.6-10.5,9c-1.3,8.6-2.7,19,0.8,26.3c6.4,13.4,7.5,25.9,4.8,40.2c-1.3,6.7-2.8,17.8,12.9,19.8
	C452.6,580.8,450.6,578.7,451,579.2z M383.3,476.7c-3.7-12.5-7.1-24.2-10.6-36c-1.5,0.4-2.9,0.7-4.4,1.1c0,4.9,0,9.8,0,18.4
	c-3.9-10-6.4-16.6-8.9-23.1c-1.4,0.4-2.8,0.8-4.3,1.2c-2,11.9-9.4,23.9,1.3,35.6C364.7,482.9,374.3,481.7,383.3,476.7z M506.9,217.8
	c3.9,22.3,7.8,44.7,11.7,67.2c1.1-0.1,2.1-0.1,3.2-0.2c2.1-24.1,4.2-48.2,6.4-72.9C519.7,214.3,514.3,215.7,506.9,217.8z
	 M534.5,350.2c-6.4,32.9,0,71.2,11.4,82.3c16.7-13-0.1-26.7,0.4-40.5c-1.2,1.8-2.4,3.6-4.6,6.9C539.1,381.6,536.8,365.9,534.5,350.2
	z M356.5,333.2c2.1-0.1,4.3-0.3,6.4-0.4c3.5-17.1,7-34.3,10.4-51.4c-1.1-0.5-2.3-1.1-3.4-1.6c-7.6,7.1-19.7,13.2-21.5,21.5
	C346.4,311,353.4,322.5,356.5,333.2z M500.1,579.2c23.1-8.1,30.2-45,12.3-65.4c2,14.6,3.8,28.7,5.7,42.8c-1.6,0.2-3.3,0.3-4.9,0.5
	c0-5.2,0-10.3,0-15.5c-1,0-2.1,0-3.1,0c-1.2,9.9-2.5,19.9-3.7,29.8c-0.8-0.1-1.5-0.2-2.3-0.3c0-17,0-33.9,0-50.9c-1.3,0-2.7,0-4,0
	C500.1,539.7,500.1,559.1,500.1,579.2z M510.4,326.2c-1.3-0.1-2.6-0.2-3.8-0.4c-1.6,3.9-4.3,7.7-4.6,11.7c-0.8,10.6-0.3,21.4-1,32
	c-0.8,12.2,4,15.8,16.4,10.2C515.1,362.5,512.8,344.3,510.4,326.2z M450.5,428.2c-14.2,19.1-21,38.8-10.1,65.1
	c4.3-8.4,9.3-13.9,9.7-19.8C451.3,458.5,450.5,443.3,450.5,428.2z M483,142c1-0.1,2-0.2,3.1-0.3c1.7,11.9,3.3,23.8,5,35.6
	c1.6-0.2,3.3-0.4,4.9-0.6c-2.6-21.8-5.3-43.5-7.9-65.3c-1.1,0-2.3,0-3.4,0.1c-3.5,14.3-8,28.4-9.9,42.9c-0.8,6.2,3.9,13.1,6.1,19.7
	c0.7-0.4,1.4-0.9,2.1-1.3C483,162.6,483,152.3,483,142z M382.9,315.7c20.7-13.6,22.2-17.8,15.8-40.4c-2.1-7.6-3.5-15.4-5.2-23.2
	c-0.5,0-1,0.1-1.5,0.1C389,273.1,386,294,382.9,315.7z M425.2,526c-1.4-0.2-2.8-0.5-4.2-0.7c-2.9,3.7-8.5,7.9-8.1,11.1
	c2,14.8,5.7,29.4,9.1,43.9c0.5,1.9,3,3.4,4.5,5c1.4-0.3,2.7-0.6,4.1-0.9C428.9,565,427.1,545.5,425.2,526z M521,515.3
	c1.2,0,2.4,0,3.6-0.1c-1-18.9-2.3-37.7-2.8-56.6c-0.2-7.5-2.7-10.3-11-9.3C512.9,471.6,510.6,494.5,521,515.3z M563.1,572.6
	c0.9-0.3,1.7-0.6,2.6-0.9c3.3-7.8,5.1-16.8,10.2-23.2c7.5-9.6,8.9-14.8-0.6-21.4c-2.8,10.7-5.5,20.6-8.1,30.4c-1-0.3-2-0.6-3-0.9
	c0.9-7.2,1.6-14.4,2.7-21.6c0.5-3.6,1.7-7,2.6-10.5c-4.2,0.4-8.5,0.9-12.6,1.3C559.3,543,561.2,557.8,563.1,572.6z M610.1,440
	c0,17.8,0,33.8,0,49.8c0.6,0.2,1.1,0.3,1.7,0.5c7.1-15,14.2-30,21.6-45.7C626,443.2,618.8,441.8,610.1,440z M603,468.7
	c5-22.4,0.4-33.2-18.6-43.4C587.3,441.3,583.1,459.9,603,468.7z M588,591c18-16,19.3-41,4.4-59.4c-10.8,15.1,12.7,31.3-2.7,46.7
	c0-6.5,0-12,0-17.5c-0.6,0-1.1,0-1.7,0C588,570.1,588,579.4,588,591z M457.8,178c13.8-17.2,4.9-30.4-5.5-44
	C445.1,148.2,448.4,173.2,457.8,178z M488,501.4c0,8.8-0.6,18.6,0.2,28.4c0.8,9.6,3,19,4.5,28.5c1-0.3,2-0.5,3-0.8
	c1.3-20.3,2.6-40.5,4-61C495.3,498.4,492.5,499.5,488,501.4z M501.8,239.9c-5.1,2-9.6,2.7-12.4,5.3c-2.5,2.3-5.1,7.8-4,9.9
	c5.2,9.5,11.7,18.4,17.8,27.5c1-0.4,1.9-0.7,2.9-1.1C504.7,267.9,503.3,254.4,501.8,239.9z M561.4,773c1.8-28.4,3.6-56.8,5.4-86
	C551.4,715.3,556.6,744,561.4,773z M560.9,203.6c-1.1-0.1-2.3-0.2-3.4-0.3c-8.4,14.5-1.7,31.2-3.6,46.6c-0.3,2.7,4.2,6,6.6,9
	c1-0.6,2-1.1,3-1.7C562.6,239.4,561.7,221.5,560.9,203.6z M489.1,209.1c-8-2.7-14.7-5-21.3-7.3c-1.1,0.9-2.2,1.8-3.3,2.7
	c3.9,11.1,7.7,22.1,12.7,36.4c2.2-7.9,3.1-12.3,4.7-16.3C483.6,220,486,215.7,489.1,209.1z M427.7,268.8c22.9-4.7,27.6-13,19.6-37.1
	C441.1,243.4,434.9,255.1,427.7,268.8z M582.8,371.7c-1.6,0.4-3.1,0.8-4.7,1.2c7.1,14.8-5.6,36.4,21,47.4
	C593.1,402.4,587.9,387,582.8,371.7z M591.6,296.7c0.6,1.5,1.4,6.7,3.5,7.4c3.8,1.2,8.9,0.5,12.6-1.2c1.5-0.7,1.1-6.2,0.9-9.5
	c-0.2-2.8-0.9-5.8-2.2-8.4c-1.3-2.6-3.5-4.7-5.3-7.1c-2.6,2.2-5.9,4-7.5,6.8C592.2,287.5,592.5,291.3,591.6,296.7z M470.2,168.3
	c-2.3,7.6-4.6,15-7.1,23.3c6.9,1.5,12,3.1,17.2,3.6c2.8,0.3,5.8-1.2,8.8-1.9c-1.3-2.6-2.3-5.6-4.1-7.8
	C480.8,180.2,476.2,175.2,470.2,168.3z M414.4,610.4c-5.6-14-10.9-27.1-16.2-40.2c-0.9,0.2-1.7,0.5-2.6,0.7
	c2.5,15.7,5.1,31.3,7.8,48.3c2.9-2.6,4.5-4.3,6.3-5.7C411.6,612.1,413.7,610.9,414.4,610.4z M420.6,319.7
	c4.4,8.8,8.5,17.1,12.6,25.5c1.3-0.5,2.6-1,3.9-1.5c0-10.8,0-21.5,0-34.6C431.3,312.9,426.8,315.8,420.6,319.7z M552.8,641.7
	c10.3,0.2,19.3-1,18.3-13.2c-0.2-3-6.7-8.2-9.5-7.7C549.6,622.7,551.3,632.2,552.8,641.7z M575.3,400.4c-3.9-14.9-7.1-27-10.2-39.2
	C560,389,560,389,575.3,400.4z M486.6,488.9c11.3-11.8,10.3-42.7-2-51.7c2.4,15.6,4.4,29.4,6.5,43.1c-0.7-0.3-1.3-0.6-2-0.8
	C488.3,482.6,487.5,485.8,486.6,488.9z M585.8,477.1c-3.7,13.2-7.3,26.4-11,39.6C590.7,506.7,590.6,492.3,585.8,477.1z M481.3,240.2
	c9.7-1.6,14.4-2.4,20.2-3.3c-1.1-8.1-2.2-15.9-3.3-23.7c-1.1-0.2-2.2-0.5-3.3-0.7C490.9,220.8,486.8,229,481.3,240.2z M442.8,590.5
	c1.2,10.7,2.2,19.8,3.2,29.1c11-1.7,11.2-8.2,11.4-15.7C457.6,594.6,451.9,592.4,442.8,590.5z M484,489.2c-1.2,0.1-2.3,0.1-3.5,0.2
	c-4,17.6-6.2,35.1,3.5,52.5C484,523.7,484,506.5,484,489.2z M549.4,801.8c1.1,0,2.3,0,3.4,0.1c0-17.8,0-35.5,0-53.3
	c-1.1,0-2.3-0.1-3.4-0.1C549.4,766.2,549.4,784,549.4,801.8z M496.8,323c0-7.8,0-14.7,0-23.1c-8.5,6.6-15.4,12.1-23.8,18.7
	C482,320.2,488.7,321.5,496.8,323z M486.9,576.7c-0.6-0.9-1.2-1.9-1.9-2.8c-1.8,3.6-5.2,7.3-5,10.8c0.8,15.3,2.7,30.5,4.2,45.7
	c0.9-0.1,1.8-0.1,2.6-0.2C486.9,612.4,486.9,594.6,486.9,576.7z M470.5,501c1.6,0,3.3,0,4.9,0c-1.5-17.4-2.9-34.9-4.4-52.3
	c-1.6,0.1-3.1,0.2-4.7,0.4C467.7,466.4,469.1,483.7,470.5,501z M539.1,280.2c-0.5,0.1-1,0.1-1.5,0.2c-1.1,10.4-2.6,20.9-3.2,31.3
	c-0.1,2.3,3,4.7,4.6,7c1.6-2.4,4.6-4.9,4.4-7.1C542.6,301.1,540.7,290.6,539.1,280.2z M533.6,280.8c-14.2,10-17.4,22.1-8.7,39.8
	C528.1,305.9,530.8,293.6,533.6,280.8z M555.9,646.4c1.1,10.8,2,20.9,3,31c1,0.1,1.9,0.2,2.9,0.4c2.8-8.8,5.6-17.6,8.3-26.3
	C564,649.3,559.9,647.8,555.9,646.4z M496,131.1c1.3,0,2.7,0,4-0.1c0-13.3,0-26.6,0-42.4C481.9,103.9,501,117.9,496,131.1z
	 M341.5,408.2c3.9-13.2,7.5-25.6,11.1-38.1c-0.8-0.3-1.6-0.5-2.3-0.8c-6.1,11.2-12.2,22.3-18.5,34
	C333.4,404.1,337,405.9,341.5,408.2z M390.2,475.2c4.8-4.6,7.9-7.6,11-10.5c10.6-9.6,10-12.2-5-18c0.7,5,1.4,9.6,2.1,14.2
	c-2.9-0.7-5.5-1.3-8.1-1.9C390.2,464.2,390.2,468.4,390.2,475.2z M410.9,660c9-12.7,7.8-28.4-2.3-37.8
	C409.4,636.2,410.2,648.1,410.9,660z M516.4,425c5.9-22.7,3.9-28.6-8.2-28.2c-0.7,5.8-1.4,11.6-2.4,20.2c4.9-3.8,7.3-5.6,9-6.9
	C515.4,415.4,515.9,420.2,516.4,425z M461.8,225.2c0,10.6,0,20.4,0,30.9C475.9,249.5,475.7,243.1,461.8,225.2z M578.5,633
	c11.3-18.8,12.2-15.3,2.5-46.2C580.1,603.1,579.4,616.4,578.5,633z M419.8,431.2c13.4-1.6,16-6.3,12.5-22.8
	C426.5,415.5,415,418.6,419.8,431.2z M385.6,482.6c-4.4,5.6-8.2,8.6-9.1,12.3c-0.7,3.1,1.4,7.5,3.5,10.4c0.9,1.3,4.8,0.5,7.3,0.7
	c0-3.3,0.2-6.5,0-9.8C387.1,493,386.5,489.8,385.6,482.6z M504,509.9c1,0,2.1,0,3.1,0c0.8-10.9,1.5-21.7,2.3-32.6
	C496.5,487.3,504.7,499,504,509.9z M539.7,323c-2.2,0.5-4.3,1.1-6.5,1.6c2.2,9.6,4.3,19.1,6.5,28.7
	C539.4,343.2,548.4,331.7,539.7,323z M563.9,610.1c-0.9-5.7-1.8-11.2-2.7-16.7c-1.2-0.2-2.3-0.3-3.5-0.5
	c-3.1,6.7-6.2,13.5-10.5,22.8C555,613.1,558.8,611.8,563.9,610.1z M556.1,137.9c-11.2,18-11.1,19.6,0,26.4
	C556.1,155.1,556.1,146.5,556.1,137.9z M478.9,422.3c-15.6,15.9,3.9,27.3,0,35.1C478.9,450,478.9,437.7,478.9,422.3z M619,340.1
	c-2.9-12.6-5.1-21.9-7.3-31.8C603.7,313.5,607,329.1,619,340.1z M572.1,583.1c-1.1,0-2.3,0-3.4,0.1c0,9.3,0,18.7,0,28
	c1.1,0,2.3,0,3.4,0C572.1,601.7,572.1,592.4,572.1,583.1z M610.2,594.1c1.1-0.1,2.2-0.3,3.4-0.4c0-11,0-22.1,0-33.1
	c-1.1,0-2.2,0-3.4,0.1C610.2,571.8,610.2,582.9,610.2,594.1z M497.7,471c1.5,0.2,3.1,0.5,4.6,0.7c0.8-9.4,1.7-18.8,2.5-28.2
	c-1.6-0.1-3.3-0.3-4.9-0.4C499.1,452.5,498.4,461.8,497.7,471z M549,216.4c-5.9,11.6-10.5,20,0,30.3C549,236.6,549,228.1,549,216.4z
	 M594.2,511.9c1.8,0.6,3.6,1.1,5.4,1.7c1.9-9,3.8-18,5.7-27c-1.5-0.4-3-0.8-4.6-1.2C598.5,494.3,596.4,503.1,594.2,511.9z
	 M405.3,484.9c-4.1,6.6-7,11.3-10.7,17.1C407.9,501,410.7,497,405.3,484.9z M536.8,223.8c0-9.3,0-18.6,0-30.7
	C525.7,205.1,536.8,214.5,536.8,223.8z M488.6,423.2c3.4,4.6,6.8,9.1,12,16C502.4,427.3,502.4,420.4,488.6,423.2z M528.8,547.4
	c-0.8,7.1-1.6,14.2-2.4,21.3c1.4,0.1,2.9,0.3,4.3,0.4C537,562.6,534.4,555.2,528.8,547.4z M464.4,519.8c1.9-0.5,3.7-1,5.6-1.5
	c-2.2-7.3-4.4-14.7-6.6-22c-1.3,0.3-2.5,0.6-3.8,0.9C461.2,504.7,462.8,512.2,464.4,519.8z"/>
<path d="M237.8,200.8c-6.9-23.9-13.9-47.8-21.4-73.9c11.6,11.1,15.9,21.8,16.3,35.8c0.3,12.6,5.6,25.1,8.7,37.6
	C240.1,200.5,238.9,200.7,237.8,200.8z"/>
</svg>
