<?xml version="1.0" encoding="utf-8"?>
<!-- Generator: Adobe Illustrator 21.0.0, SVG Export Plug-In . SVG Version: 6.00 Build 0)  -->
<svg version="1.1" id="Layer_2" xmlns="http://www.w3.org/2000/svg" xmlns:xlink="http://www.w3.org/1999/xlink" x="0px" y="0px"
	 viewBox="0 0 1000 1000" style="enable-background:new 0 0 1000 1000;" xml:space="preserve">
<path d="M605.5,494.1c0,8.7,0.6,17.5-0.1,26.2c-1.7,22.5,3.7,43.9,8.5,65.6c3,13.5,4.2,27.5,5.1,41.3c1.4,21.3,1.5,42.7,3,63.9
	c0.5,7.9,3.4,15.7,5.2,23.6c0.8,0.1,1.7,0.2,2.5,0.4c3.5-6.6,7.4-13.1,10.3-19.9c15.1-35.5,19.4-72.9,18.3-111
	c-0.7-25.8,0.4-50.9,12.3-74.4c0.7-1.5,0.4-4.6-0.7-5.7c-5.9-5.6-12.1-10.7-18.2-16c-1,0.2-1.9,0.4-2.9,0.6
	c-3.8,39.3-7.6,78.6-11.4,117.8c-0.2,0-0.5,0.1-0.7,0.1c-0.7-10.3-2.1-20.6-1.8-30.9c0.8-29.3,2.2-58.5,3.7-87.7
	c0.3-6.7-0.4-11.8-6.7-16.1c-6.9-4.7-15.4-9.7-18.5-16.7c-8.8-19.5-14.9-40.2-22.6-60.2c-4.4-11.4-0.2-19.4,8.3-26.4
	c1.3-1,2.6-1.9,3.8-2.8c-0.9-1.6-1.1-2.5-1.7-2.9c-12.1-8.3-12-8.2-2.5-20.1c8.1-10,17.3-18.5,30.6-20.6c5.5-0.9,6.1-3.5,6-8.4
	c-0.8-38.3-1.5-76.6-1.9-115c-0.3-23.5,2.9-46.4,11.7-68.4c8.7-21.7,5.1-43.8,1-65.6c-3-16.4-7.3-32.6-11-48.8
	c-0.6-2.5-1.3-5.1-1.9-7.6c0.8-0.6,1.6-1.2,2.4-1.8c8.1,8.8,16.7,17.2,24.3,26.4c16.4,19.8,32.1,40.2,48.5,60
	c25,30.3,34.7,67.2,45.1,103.8c7.6,26.8,20,51.3,36.6,73.7c0.8-0.5,1.5-0.8,1.5-1c-0.2-16.9,6.9-30.6,17-43.9
	c8.2-10.8,13.9-23.5,21.2-36.1c-27.3-19.6-31.3-50.8-40.3-79.6c9,13.9,18.3,27.6,26.8,41.9c7.7,13,17.9,22,34.4,23.9
	c-3,3.2-5.9,5.7-8,8.6c-17.9,24.9-31.5,51.8-35.6,82.5c-2,14.9,0.2,29.8,7.6,43c3.4,6,9.9,10.4,15,15.4c0.4,0.4,1.1,0.4,1.5,0.7
	c23,25.6,50.1,48.1,60.2,83.8c-61.3,37.4-117,82.4-165.3,137.7c12.2,16.4,24.3,32.7,36.4,49c-0.5,0.4-1,0.8-1.5,1.2
	c-13.1-14.3-26.3-28.7-39.3-43c-26.3,21.1-65.6,115.4-80.4,167c6.5-0.8,12.5-1.5,19.1-2.3c-0.1,8.5,5.5,11,12,11.9
	c5.6,0.8,11.5,1.3,17.1,0.6c13.3-1.6,17.2-0.7,29.6,11.1c-13.7-1.2-25.3-1.5-36.6-3.5c-14.3-2.6-28.3-3.5-42.3,0.5
	c-9.8,2.8-18.5,9.9-15,22.6c2.3,8.4,2.5,17.4,4.6,25.8c2.2,8.4-2.2,14.3-6.2,20.4c-1.6,2.5-5.4,3.6-8.1,5.3
	c-3.9-18.7,3.4-42.1-14.8-58.9c-16.8,11.9-30.9,24.4-40,41.5c-17.5,32.8-34.9,65.7-51.9,98.8c-1.7,3.4-1.8,8.6-0.7,12.4
	c6.6,23.4,13.9,46.7,20.9,70c0.4,1.2,0.6,2.5,0,4.1c-9.4-22-18.9-43.9-29.2-67.8c-9.8,22.9-18.8,43.9-27.8,64.8
	c-0.4-0.1-0.8-0.2-1.2-0.3c2.4-8.3,4.8-16.6,7.3-24.9c4.7-15.7,9.6-31.4,14.1-47.2c0.8-2.6,1-6.2-0.2-8.5
	c-18.5-35.4-37.3-70.6-56.1-105.8c-0.6-1.1-1.6-2-3.3-4c-6.3,25.4-12.2,49.7-18.2,74c-0.4-0.1-0.8-0.2-1.2-0.2
	c1.9-14.8,4.1-29.7,5.7-44.5c1.3-12,2.4-24,2.5-36c0-3.9-2.2-9.3-5.3-11.6c-14.7-10.8-29.9-21.1-45.4-30.9c-5-3.1-8.1-6.4-9.9-12
	c-15.4-47.4-32.5-94.2-57.4-137.6c-6.8-11.8-15-22.7-23.4-35.1c-13.7,14.9-26.1,28.4-38.5,41.9c-0.5-0.4-1-0.8-1.5-1.2
	c11.3-15.2,22.6-30.4,34.7-46.8c-16.3-16.4-32-33.1-48.7-48.8c-34.4-32.3-72-60.7-112.5-85c-5.2-3.1-5-5.8-2.7-10.4
	c16.2-33.3,38-62.7,63.5-89.4c30-31.4,55.5-65.6,69.7-107.2c0.5-1.5,1.2-3.3,2.4-4.2c19.8-14,24.1-35.6,28.5-57.2
	c0.9-4.3,1.9-8.8,1.4-13c-1.7-13.8,5.3-23.9,12.6-34.3c22.1-31.1,45.9-60.7,73.7-87c1.1-1.1,2.5-1.9,4.4-3.4
	c-4.1,18.1-8.2,35.4-11.9,52.7c-6.1,28.3-6.2,55.7,3.8,83.9c6.4,18.4,7.6,39.2,7.9,59c0.6,38-1.1,76.1-1.8,114.2
	c0,1.1,0.1,2.1,0.2,4.2c17.9,1.4,29.7,12.3,39.7,26c6.3,8.5,6.3,8.4-2.7,14c-1.6,1-3,2.1-4.9,3.5c4.6,4.8,8.8,9.3,14.1,14.9
	c4.6-22.8,8.9-44.3,13.2-65.9c0.6-0.1,1.2-0.2,1.9-0.3c5.8,12.3,11.7,24.5,17.4,36.9c4.3,9.3,4.1,9.4,15.5,10.9
	c0-12.4,0-24.8,0-39.4c10.7,14.2,20.8,26.1,14.1,43.8c18.5,7.6,34.5,17.3,45.7,35.6c0-16.5,0.3-31.3-0.3-46
	c-0.1-2.1-4.6-4.1-7.3-6.3c2.2,0.3,4.5,0.6,7.5,1c0-12.8,0-25.2,0-37.6c7.9,11,19.4,20.3,15,35.9c-1.4,5,1.1,7.1,5.5,9
	c20.1,8.7,36.3,21.3,43.3,43.2c8.6,27,1.4,48.7-22.2,64.2c-8.8,5.8-18.8,10.1-28.6,14.2c-4.8,2-6.8,4.1-7,9.3
	c-0.5,13.9-1.5,27.8-4.2,41.8c0-23.2,0-46.4,0-70.4c-4.2,3.8-7.2,7.3-10.9,9.6c-11.6,7.1-23,14.7-35.4,20.2c-6.7,3-8.8,6.1-9,13
	c-0.3,13.9-1.6,27.7-2.5,41.6c-0.7,0-1.5,0-2.2-0.1c0-32.6,0-65.2,0-97.8c-0.8,0-1.6-0.1-2.4-0.1c-13.7,45.4-10.8,92.1-9.1,138.7
	c-0.7,0.1-1.5,0.1-2.2,0.2c-2.4-17.8-5.2-35.5-7.3-53.3c-3.8-33.2,1.4-66.1,3.4-99.2c0.7-10.9-1.6-22.3-4-33.1
	c-1.6-7.3-6.6-13.1-15.9-14.7c-0.4,3.1-1.1,5.9-1.2,8.8c-1.8,27.1-1.9,54.2,4.3,80.9c5.4,23.2,5.3,46.7,4.5,70.3
	c0,0.9-0.4,1.8-2.1,2.6c-5.4-38.8-10.7-77.6-16.3-118c-3,4.5-5.3,7.9-7.9,11.7c-3.4-2.5-6.2-4.6-11.1-8.2
	c-1.1,5.7-3.3,10.5-2.3,14.4c1.3,4.7,0.2,7.1-3.1,9.7c-7,5.3-13.6,11.1-20.8,16c-4.7,3.2-6.3,7-6.1,12.3c1,20.5,2.2,41,2.7,61.5
	c0.4,15.3-0.1,30.7-0.3,46c-0.1,3.5-0.9,7-2,10.4c-1.4-19.1-2.3-38.3-4.2-57.3c-1.9-19.2-4.7-38.4-7.4-59.4
	c-9,7.8-16.4,13.9-23.3,20.4c-1.4,1.4-1.7,4.9-1.2,7.1c3.8,16.5,8.3,32.9,11.8,49.4c1.9,8.8,2.8,18,2.9,27
	c0.6,37.8,4.5,74.9,20.4,109.8c1.6,3.5,3.5,6.8,5.3,10.2c1,1.9,2.3,3.6,4.6,7.2c10.1-31.6,17.5-62,18.6-93.8
	c1.2-31.9-4.1-63.2-10-94.4c10.5,33.5,17,67.8,19.1,103.8c7.3-14,14.2-27,20.7-40.3c0.7-1.4-0.7-4.8-2.1-6
	c-11.5-9.3-17.1-21.8-19.7-35.9c-2.6-14.4-5-28.9-6.8-43.3c4.8,16.5,8.9,33.2,14.8,49.4c2.9,8,7.8,16.1,13.9,21.8
	c5.3,5,13.7,6.6,21.3,10c-1.9,2.4-5.2,5.6-7.7,9.4c-8.8,13.2-17.4,26.5-25.7,39.9c-1.2,1.9-1.1,5.1-0.5,7.5c2,7.7,4.7,15.1,6.6,22.8
	c5.8,22.8,11.5,45.6,16.9,68.5c2,8.5,4.4,17.3,3.9,25.8c-0.9,14.2,7.3,22.6,17.1,31.2c-0.5-3-0.9-6-1.4-9.1
	c-3.5-21.9-5.5-44.1-10.8-65.5c-5.8-23.6-14.4-46.5-22.3-69.5c-1.9-5.4-2.1-9.5,0.8-14.6c8.3-14.7,15.4-30.2,28.3-42.8
	c9.5,8.8,18.9,17.1,27.8,25.9c1.5,1.5,1.6,5,1.3,7.5c-2.1,18.3-9.5,34.2-22.1,47.6c-3.9,4.1-4.4,7.4-1,12
	c9.5,13,18.6,26.3,27.9,39.4c0.7-0.3,1.4-0.5,2.1-0.8c0-46,0-92,0-138c0.7-0.2,1.4-0.4,2.1-0.6c5.5,6.5,12.7,11.2,11.8,22.4
	c-3.1,38.8-5.2,77.6-7.7,116.4c-0.7,11.3,16,23.6,26.7,19.3c7.1-2.8,14.1-5.8,21.8-8.9c2.6-16.9,3.8-35.3,17.3-50
	c-13.4,1.8-26.8,3.6-42,5.7c12-24.7,4.8-48.4-0.4-72.2c1,0,1.8-0.1,1.8,0c7,17.4,21.2,24.6,38.5,28c8,1.6,15.7,4.1,21.7,5.8
	c-10.4,0-22.4,0.7-34.3-0.2c-8.7-0.6-9.1,4.9-10,10.5c-1,6.6,1.9,11.6,8.5,11.3c10.3-0.3,20.6-2.2,30.9-3.5c2.6-0.3,5.1-1.1,8.5-1.8
	c-11.4,22.1-30.3,39.5-30.1,66c12.6,0,25.4,0.3,38.2-0.1c6.5-0.2,15.2-8,16.2-13.7c7.3-38.8,8.9-77.8,2.4-116.8
	c-1.3-7.9-5.2-15.4-7.7-23.2c-1.3-4.1-4-8.4-3.4-12.3c3.5-25.1,7.7-50.2,11.7-75.2C604.7,494.1,605.1,494.1,605.5,494.1z M686,101.3
	c-16.4,27.6-30.5,53.5-37.5,82.6c-4.7,19.9-1.8,38.7,9.7,55.7c3.2,4.8,3.8,8.8,2.2,14.3c-5.6,19.8-6.6,40.1-7,60.7
	c32-7.7,50.4-6.7,63.6,3.5c-23-5.2-39.5,5-54.9,20.6c7.5,13,14.9,25.7,22.1,38.6c1.3,2.3,3,5,2.8,7.4c-1.1,17.5-0.5,35.5-14.5,49.5
	c-4.3,4.3-7,10.4-10.1,15.9c-2.5,4.5-4.9,9.2-6.5,14c-0.6,1.6,0.4,4.9,1.8,6c7.7,6.1,15.8,11.9,24,18c16.9-31.4,37.1-61.7,59.6-90.5
	c-0.2,2.3-1.2,4.2-2.3,6c-17.8,28.9-34.2,58.6-45.8,90.7c-1.2,3.2-2,8.1-0.4,10.5c5.5,8.4,12.1,15.9,19.2,24.9
	c32.1-26.3,63.7-52.1,95.2-78c9.9-8.1,19.3-16.7,29.1-25c13.7-11.6,19.5-28.1,14.2-42.4c-13.6-36.5-32.4-68.5-72.1-82
	c-0.5-0.2-1.2-0.2-1.5-0.6c-1.3-1.8-3.5-3.8-3.4-5.6c1.3-22.5-9.4-38.5-26.4-51.8c-3.5-2.8-6-8.3-6.7-12.9
	c-4.4-29.1-11.1-57.6-25.7-83.5C706.1,132.4,696.2,117.7,686,101.3z M312.2,201.4c-23.6,18.1-46.5,35.3-69,53
	c-10.4,8.2-16.4,19.8-15.8,32.9c0.6,11.9-5.1,16.6-14.9,20.4c-37.1,14.7-52.1,47.4-64,81.7c-4.9,14.1,2.4,26.6,13,35.8
	c36.2,31.3,72.7,62.2,109.3,93.1c5.3,4.5,11.1,8.5,16.9,12.9c5.6-7.1,10.2-13.5,15.5-19.4c4.4-4.9,4.7-9.5,2.5-15.6
	c-11.8-32.3-28.7-62-46.5-91.2c-1.4-2.3-2.8-4.7-4.1-7c1-0.6,2-1.1,2.9-1.7c20.1,31.8,40.3,63.6,60.1,94.8
	c5.5-4.8,11.5-11.8,19-16.3c7.2-4.2,8.5-8.2,5.7-15.6c-2.4-6.3-5.1-13.2-4.6-19.6c1.9-24.8,4.8-49.5,7.7-74.2
	c1.6-13.3-0.9-22.8-13.3-31.4c-15.6-10.8-30.5-19.3-50.1-15.2c20.6-10.8,41.5-12.1,63.7-2.4C346.3,274.8,340.2,236.3,312.2,201.4z
	 M443.7,694.7c-0.6,2.7-0.9,3.3-0.8,3.8c0.7,2.6,1.5,5.2,2.3,7.8c8.1,26.7,16.1,53.5,16.6,81.8c0.2,9.5,0.4,18.5,5.3,27.3
	c5.8,10.5,10.1,21.9,15.5,32.6c5.3,10.5,11.2,20.7,17.1,31.4c34.2-60.6,11.6-110.2-12.9-134.4c-1.2,17.9-2.4,35.4-3.5,52.8
	c-1-18.2-0.9-36.5-1-54.7c0-2.6,0.2-6.1-1.3-7.8C469,721.8,456.7,708.8,443.7,694.7z M605.5,397.9c0.2,23.7,5.4,43.3,22.7,58.5
	c8.5,7.4,20.4,4.7,24.5-6.1c2.3-5.8,5.1-11.8,9.1-16.6c23.4-28,23.6-47.7,0-75.7c-2.3-2.7-4.8-5.2-7.2-7.9c-3.4-3.8-6.9-5-11.3-1.3
	c-1.3,1.1-4.1,1.6-5.7,1c-11.6-4.2-16.5-2.7-22.7,8.1C607.5,370.8,605.9,385.2,605.5,397.9z M466.3,492.4c9.8-5.3,18-9,25.5-13.8
	c29-18.6,34.7-44.6,16.4-73.7c-8.5-13.5-19.2-24.7-34.3-32.8C471.3,412.3,468.9,451.2,466.3,492.4z M533.3,360.3
	c-2.6,40.7-5,79.6-7.6,119.8c17.4-6.9,32.4-14.8,43.4-28.9c8.1-10.3,11-22.3,8-34.8C571.1,391.9,555.6,374.5,533.3,360.3z
	 M330.5,72.8c-11.8,8.5-23.3,26.3-27.3,42.2c-3.1,12.7-5.2,25.8-9.3,38.3c-3.5,10.9-2.9,20.2,5.3,28.4c2.9,2.9,5.8,6.6,9.4,7.9
	c4.7,1.7,10.2,1.3,15.5,1.8c2-4.7,2.9-10.3,6.1-13.4c6-5.6,6.2-12.1,5.1-18.8c-1.2-7.5-2.9-15.1-5.3-22.3c-5-15.5-5.8-31.1-2.9-47
	C328.3,84.2,329.4,78.7,330.5,72.8z M358.9,352.4c-6.5,18.3-7.2,36-1.2,53.7c5.6,16.3,11.7,32.5,6.1,50.8
	c17.1-8,20.6-16.1,16.5-32.5c-1.3-5.2-1.5-11.6,0.4-16.4C388.4,389,378.4,361.9,358.9,352.4z M419.6,759.7c0.7-0.6,1.4-1.2,2.1-1.9
	c0.5-31.4-8.1-60.4-23.8-88.5c-3.5,22.2-6.9,43.1-9.9,64.2c-0.3,2,0.6,5.2,2.1,6.3C399.6,746.7,409.7,753.1,419.6,759.7z
	 M521.4,835.9c20-25.7,15.3-54.2,14.8-82c0-0.5-0.5-0.9-1-1.9c-2,0-4.3,0-7.2,0C531.3,780.3,531.2,807.9,521.4,835.9z M539.1,801.8
	c1.1,0.6,2.1,1.1,3.2,1.7c6.9-8.6,13.8-17.1,20.7-25.7c4-4.9,8.4-9.6,11.9-14.9c1.7-2.6,3.3-7,2.3-9.2c-1.4-2.8-5.5-5.9-8.6-6.1
	c-10.8-0.6-17,8.6-25.1,13.7c-0.5,0.3-0.4,1.5-0.5,2.3C541.6,776.4,540.4,789.1,539.1,801.8z M443.7,612.6
	c-16.5,19.4-18,27.3-8.8,46.2c13.7-0.7,19.9-6.4,23.8-21.7C461,628,456,619.8,443.7,612.6z M441.1,371.8c-4.7-12.4-8.6-23-12.6-33.5
	c-0.6,0.1-1.2,0.2-1.8,0.3c-1.9,8.8-3.9,17.5-5.8,26.4C427.7,367.3,433.5,369.2,441.1,371.8z M393.3,392.9c0.8,9,1.5,17.3,2.4,27.4
	c5.5-5,16.2,0.2,15.7-11.6C410.9,397.9,404.1,391.9,393.3,392.9z M296.5,538c4.1,3,8.1,6,13.6,10c0.5-8.8,0.8-15.9,1.2-22.7
	C306.3,529.6,301.6,533.6,296.5,538z M688.8,545.7c5.3-4,9.2-6.9,13.8-10.4c-5.1-4.8-9.4-8.9-15.3-14.5
	C687.9,530.3,688.3,537.3,688.8,545.7z M448.7,362.5c3.6,9.4,6.8,17.8,10,26.2c1.2-5.5,0.8-10.7,1.2-15.8
	C460.6,365.4,457,362.7,448.7,362.5z M375,344.5c3.5,6.8,7,13.6,11,21.5C389.3,352.7,389.3,352.7,375,344.5z"/>
<path d="M370.5,4.3c-2.9,1.1-6.5,1.5-8.6,3.5C328.5,38.6,300.7,74,276,112c-1.8,2.7-2.3,6.6-2.4,10c-0.7,18.4-2.6,36.8-10.6,53.6
	c-4.2,8.6-11.4,15.7-17.1,23.5c-2,2.8-4.4,5.6-5.5,8.8c-12.8,36.3-33.8,67.3-60,95.1c-28,29.6-53.4,60.9-71.4,97.7
	c-5.6,11.3-5.5,11.2,5.1,17.8c56.7,35,107.8,76.8,152.2,126.5c1.1,1.2,2.1,2.5,3.6,4.3c-13.3,18-26.7,35.9-40,53.9
	c-2,2.6-4.1,5.2-5.6,8.1c-1,1.9-1,4.4-1.5,6.6c0.9,0.5,1.8,1,2.7,1.5c17.6-19.5,35.2-38.9,53.4-59c12.6,13.7,21.4,29.1,29.5,44.8
	c20.2,39.3,35.7,80.4,49.1,122.4c2.3,7.1,6.2,11.2,12.5,14.9c13.8,8.3,26.9,17.7,40.4,26.5c6.4,4.2,8.9,9.5,7.8,17.2
	c-4.3,32-8.4,63.9-12.4,96c-0.5,4.5,0.2,9.1,0.3,13.6l0.1-0.2c-1.3-3.5-4-7.1-3.6-10.4c3.9-32.5,8.3-65,12.8-97.5
	c0.9-6.8-1.1-12-6.5-15.7c-13.1-8.9-26-18.2-39.6-26.3c-7.9-4.6-12.5-10.3-15.4-19c-15.3-46.6-32.4-92.5-56.8-135.2
	c-3.7-6.4-7.7-12.6-12-18.6c-4.7-6.6-7.4-6.7-12.9-0.6c-12,13.1-23.8,26.5-35.7,39.7c-2.2,2.4-4.5,5-7.2,6.6c-1.7,1-5.4,1.2-6.4,0.1
	c-1.5-1.6-2.5-5.1-1.7-7c1.5-4,4.1-7.7,6.7-11.2c10.5-14.4,20.9-28.9,31.8-42.9c4.9-6.2,4.5-10.7-0.7-16.4
	c-42.8-46.8-91.8-86-145.5-119.6c-12.3-7.7-13.4-10.7-6.9-23.9c15.9-32.2,37.3-60.6,61.8-86.6c25.6-27,48.6-55.7,63.2-90.4
	c4.8-11.3,9.6-21.9,19-30.9c11.7-11.2,14.9-27.7,17.9-43.4c1.2-6.4,2.5-13,2.2-19.5c-0.5-11.2,4.2-19.9,10.2-28.6
	C303.3,66,328,35.4,356.8,8.2c3-2.8,7.3-4.4,11.1-6.3c0.3-0.2,1.6,1.6,2.4,2.4C370.3,4.4,370.5,4.3,370.5,4.3z"/>
<path d="M461,566.6c-4.7,0.2-6.2,2.5-6.3,7.4c-0.2,12.6,1.7,24,13.6,31.2c1.9,1.2,4,2.2,8.3,4.5c0-8-0.5-14,0.2-19.8
	c0.4-3.4,2.6-6.6,4-9.9c3.5,1.5,7.8,2.3,10.3,4.8c6.7,6.7,13.7,13.6,10,27c10.8-7.4,15.3-2.3,18.3,4.6c6,13.8,16.8,20.9,31,24
	c8.3,1.8,16.4,4.2,24.5,6.5c6.4,1.9,11.6,4.6,6.7,12.6c-0.5,0.9-1.1,2.4-0.7,3.1c5.5,10.6-2.4,17.4-6.9,25.2
	c-5.5,9.4-11.7,18.5-16.5,28.3c-5,10-1.9,14.4,9.2,14.3c4.9,0,9.9-0.2,14.7-1.3c7.3-1.7,13.3-5.8,14.8-13.6
	c7.1-37.4,8.6-74.8,1.3-112.4c-0.5-2.7-0.7-5.8-2.2-7.9c-11.9-17-8.1-35.1-4.6-53.5c3.2-16.9,5.4-33.9,8.3-50.9
	c0.4-2.4,2.3-4.5,3.5-6.8c-4.1,26.5-8.5,52.9-12.2,79.5c-0.8,5.6-0.3,12.3,2.3,17.1c8.2,15.3,10.1,31.8,11.2,48.4
	c2,29.9,0.8,59.7-4.9,89.2c-1.1,5.7-9.4,13.6-15.6,13.8c-10.6,0.3-21.2,0.1-33.7,0.1c2.6-8.3,3.9-15.7,7.2-22
	c6.6-12.3,14.5-23.8,21.7-35.8c1.1-1.9,1.3-4.4,1.9-6.6c-2.5-0.4-5.1-1.3-7.4-1c-10.3,1.5-20.4,3.6-30.7,4.9
	c-4.5,0.6-9.7,0.5-9.7-6.7c0-6.7,2.8-9.1,9.6-8.4c10.6,1,21.3,1.3,32,1.5c2.3,0,4.6-1.8,6.9-2.7c-1.9-1.8-3.6-4.5-5.8-5.2
	c-11-3.4-22-6.6-33.2-9.1c-10.9-2.4-17.8-8.9-22.8-18.3c-2.5-4.7-5.2-9.3-7.8-13.9c-1,0.2-2.1,0.3-3.1,0.5c-0.2,3-1,6.2-0.5,9.1
	c1.7,9.4,3.7,18.8,5.8,28.1c3,13.2,1.6,26.1-2.9,38.8c-3,8.7-1.6,10.1,7.7,8.8c8.9-1.3,17.8-2.5,25.4-3.6
	c-3.4,13.4-6.7,26.9-10.3,40.4c-0.4,1.5-2.1,2.9-3.6,3.6c-4.2,2-8.8,3.3-12.8,5.6c-6.4,3.7-11.7,2-17.5-1.6c-6.4-4-9-8.5-8.3-16.6
	c3-37.9,4.6-76,7.7-113.9c1-12.5-7.3-18.4-14.3-25c-4.2-4-5.7,1.4-5.8,5.1c-0.2,9.8-0.1,19.5-0.1,31.3c-9.1-8.5-16.9-15.6-24.5-22.8
	c-0.8-0.8-1.3-2.4-1.3-3.6c-0.4-28.7-0.8-57.5-1-86.2c0-2.5,1.7-5,2.6-7.5c1.1,0.2,2.3,0.5,3.4,0.7c0,17.5-0.2,34.9,0.1,52.4
	C458.4,557.1,460,561.8,461,566.6z M504.7,619.3c-0.9,0.1-1.8,0.1-2.7,0.2c-0.5,1.9-1.4,3.8-1.5,5.7c-2.3,32.4-4.6,64.8-6.4,97.3
	c-0.2,3.5,2.1,7.8,4.6,10.6c4.5,5,10.5,7,17.1,4c7.2-3.3,16.3-4.6,16.6-15.5c0.1-3,0.7-6,1.4-8.9c4.4-18,4.4-18-13.9-16.1
	c-12.7,1.3-14.6-1.8-11.7-14.5c2.2-9.7,3.8-19.9,3.1-29.7C510.6,641.2,507,630.3,504.7,619.3z M567.4,663.6
	c-0.1-1.3-0.2-2.6-0.3-3.9c-8.8,0-17.5-0.2-26.3,0.2c-1.5,0.1-3.9,2.6-4,4c-0.1,1.5,2.2,4.2,3.7,4.3
	C549.9,669.2,559,668.1,567.4,663.6z"/>
<path d="M634.3,612.6c-1.3-2.6-3.8-5.2-3.8-7.8c0-32.2,0.4-64.4,0.8-96.7c0.1-7.7,1.3-15.5,0.1-22.9c-0.7-4.1-4.9-8.2-8.4-11.1
	c-8.1-6.6-16.5-12.4-19-23.7c-1.4-6.2-4.7-12.1-7.3-18c-0.4-0.9-1.5-1.4-2.6-2.5c-1,1.4-2.1,2.4-2.4,3.5
	c-6.4,25.8-25.4,39.5-48.2,48.7c-10.1,4.1-13.4,9.9-13.5,20.3c-0.2,16.1-2,32.2-3.3,48.2c-0.1,1.2-1.2,2.2-1.9,3.4
	c1.2-21.6,2.3-43.2,3.8-64.7c0.2-2.2,2.6-5.1,4.8-6.2c8-4.2,16.6-7.1,24.3-11.7c38.6-23,43-70.4,9-100c-7.1-6.2-15.8-10.7-24.1-15.3
	c-3.8-2.1-6.3-3.8-5.2-8.6c3.9-16-8.5-25.6-15.1-37.4c-0.6-1-3.5-2-4-1.5c-1.4,1.4-2.9,3.4-3,5.2c-0.3,7.4,0,14.8,0,22.2
	c0,3.2,0,6.4,0,8.7c-9.3,0-18,0-26.6,0l0.2,0.2c4.6-0.9,9.4-2.9,13.9-2.6c7.7,0.6,10.7-1.9,10.2-9.5c-0.4-6.3-0.5-12.6,0.1-18.9
	c0.3-2.8,2.2-6.4,4.5-7.7c1.5-0.8,6.1,1,7.4,3c7.2,10.7,17.5,20,15.3,35c-0.4,2.4,1.3,6.3,3.3,7.8c12.1,8.8,24.5,17.1,37.1,25.7
	c8.3-6.6,8.5-8.2,4.9-19.3c-0.9-2.8-0.9-7,0.6-9.3c8.3-13.4,18-25.7,33.8-30.9c6.2-2,8.5-5.4,8.4-12c-0.8-32.3-1.2-64.6-1.6-96.9
	c-0.4-29.2,2.2-57.9,13.1-85.4c8.1-20.5,2.7-41.1-1.1-61.4c-3-16.1-7.5-31.9-11.2-47.9c-0.7-3-0.7-6.1-0.2-9.2
	c9.7,33,19.2,66.1,18.8,100.9c-0.1,7.5-1.9,15.3-4.6,22.3c-9,23.7-12.3,48.1-12,73.2c0.6,37.5,1.2,75,1.8,112.5c0,1.1-0.1,2.1-0.2,4
	c-16,2-27.2,11.6-36.8,23.7c-10.1,12.8-10.1,13.2,3,23.6c-17.3,9.7-13,23.7-7.6,37.8c4.7,12.2,10,24.1,15,36.2
	c0.2,0.5,0.5,1,0.5,1.5c0.1,16.9,11.8,25.5,24.1,33.6c5.6,3.6,5.4,8.3,5.1,14.1C632.5,530.1,627.9,571.3,634.3,612.6z"/>
<path d="M664.5,717.8c-6.1-0.4-12.3-0.7-18.3-1.1c12.5-43.7,48.7-131.4,74.9-157.2c17.8,19.6,35.6,39.3,53.4,58.9
	c1.1-0.6,2.2-1.3,3.3-1.9c-1-2.7-1.4-5.8-3-8.1c-12.5-17.3-25.3-34.4-38-51.6c-2.1-2.8-4.1-5.7-7.1-9.7c15.8-15.8,31-31.9,47.1-47
	c34.6-32.2,72-60.7,112.6-84.9c5.4-3.2,6.7-6.6,3.6-12c-9.3-15.8-18.5-31.6-28-47.3c-1.9-3.1-5.4-5.3-8.2-7.9
	c-5-4.7-10.5-8.9-14.8-14.1c-4.5-5.4-9-10.2-15-14.3c-5.6-3.8-10.1-11.1-12.3-17.7c-8.1-24.2-6.4-47.8,6.2-70.5
	c6.7-12.1,11.6-25.3,18.6-37.3c4-6.8,10.6-12,16-17.9c0.6,0.5,1.2,1.1,1.9,1.6c-1.4,1.7-2.6,3.7-4.2,5.2
	c-11.7,10.6-19.1,23.8-24.4,38.4c-5.1,14-11.4,27.8-15.2,42.2c-3.7,14.1-0.5,28.5,5.9,41.5c2.6,5.3,7.9,9.5,12.1,13.9
	c3.2,3.3,6.8,6.2,10,9.5c4.4,4.5,7.9,10,12.8,13.7c20.7,15.4,30.4,38.3,41.5,60.1c4.3,8.4-1.1,12.8-7.5,17.3
	c-27.5,19.4-55.8,37.8-81.8,59c-23.2,19-43.8,41.2-65.7,61.8c-5.5,5.2-5,10-0.6,15.8c11.1,14.6,21.9,29.4,32.8,44.2
	c1.6,2.2,3.9,4.3,4.4,6.8c0.7,3.3,0,6.9,0,10.3c-3.1-0.6-7.1-0.2-9.3-2c-5-4.2-9.2-9.4-13.6-14.2c-8.4-9.3-16.8-18.8-25.2-28.1
	c-7.8-8.5-10.8-8.8-16.5,1.4c-12.9,23.2-25.5,46.5-36.7,70.5c-8.5,18-14.8,37.1-21.9,55.7c-4,10.5-3.8,10.5,6.9,13.6
	c1.4,0.4,2.5,1.9,3.7,2.9L664.5,717.8z"/>
<path d="M426.9,558.4c-1.3-2.3-3.5-4.5-3.8-6.9c-4.5-31.2-8.7-62.5-13-93.8c-0.4-2.6-0.8-5.6-2.3-7.7c-2.7-3.7-7.4-3.7-8.3,0.6
	c-2.4,11.4-11.8,15.8-19.5,22.1c-2.1,1.7-4.2,3.6-6.4,5.1c-6.8,4.5-6,9.5-1.3,14.9c-6.4-1.2-7.3,0.8-5.5,7.1
	c12.5,44.2,21.7,88.9,18.4,135.1c-1.8,25.3-7.6,49.9-17.3,74.5c-3.6-8.4-7.7-16.7-10.7-25.3c-9.4-27.2-13.9-55.4-13.1-83.9
	c0.6-21.9-4.3-42.6-9-63.5c-0.5-2.4-1.3-4.8-1.9-7.1c-5.8-21-5.8-21,14.4-34.5c2.1,16.5,4.7,32.3,6.1,48.1c1.8,21.3,2.7,42.6,4,63.9
	c0.2,2.9,0.7,5.9,1.1,8.8c-1.1-3.2-2.9-6.2-3.2-9.5c-2.9-31-5.4-62-8.4-93c-0.3-3.2-3.3-6.1-5-9.1c-3.1,3.7-6.4,7.3-9.2,11.3
	c-0.6,0.9,0.5,3.1,1,4.7c1.3,5,2.9,10,4,15c4,19.4,9,38.4,8.5,58.8c-0.7,31.2,4,62.1,14.8,91.7c1.4,3.9,3.5,7.5,5.6,11.7
	c18.6-18.1,21.2-140,3.6-156c0,10.6,0.3,20.3-0.1,30c-0.4,12.3-1,24.6-2,36.9c-0.7,8-3.4,9.7-9.8,7.2c5.3,1.2,6.8-1.7,6.9-6.2
	c0.3-27.3,0.7-54.6,0.7-81.9c0-13.7-1.3-27.3-1.1-41c0-3.4,2.5-7.6,5.2-10c6.2-5.7,13.2-10.6,20-15.7c4.5-3.4,7.3-7.2,4.3-13.3
	c-0.9-1.8,0.1-4.5,0.2-5.9c5.5,1,10.3,1.8,16.6,2.9C416.2,481.2,421.5,519.8,426.9,558.4z"/>
<path d="M488.9,344.7c1.2,1.8,2.1,4.8,3.6,5.2c23.6,5.9,23.6,5.8,23.7,30.4c0,2.9,0,5.9,0,7.7c-12.2-7.4-24.4-14.7-36.4-22.4
	c-1.4-0.9-2.2-4.4-1.7-6.4c4.1-16.5-8.8-26-15.3-38.1c-0.5-0.9-3.6-1.5-4.1-0.9c-1.3,1.5-2.6,3.6-2.6,5.5
	c-0.2,10.4-0.1,20.8-1.9,32.8c-2.1-2.1-5-3.9-6.3-6.5c-6.1-12.2-11.7-24.7-17.8-37c-1-1.9-3.2-3.2-4.8-4.8c-1.4,2-3.7,3.8-4.2,6.1
	c-2.8,11.9-5.2,23.9-8.1,37.2c-11.9-15.8-23-31.2-44.3-33.8c0-2.9,0-5.5,0-8.2c0.6-37,1.4-73.9,1.6-110.9c0.1-23.9-3-47.5-11.9-70
	c-9-22.6-4.5-45.4-0.2-68c3.1-16.4,7.6-32.5,11.3-48.7c0.7-3.1,0.7-6.4,1.1-9.7c0,0-0.2,0.2-0.2,0.2c6.5,4,2.1,9.3,1.2,13.7
	c-4.1,20-8.8,40-13.1,60c-4.2,19.4-2.9,38.4,4.7,57c8.3,20.3,9.6,42,9.6,63.7c0,36.1-0.5,72.2-1.1,108.3c-0.1,6.4,2.2,9.3,8,12.3
	c8.5,4.5,15.9,11,23.8,16.7c2.3,1.7,4.8,3.1,7.1,4.7c1.2-2.6,2.9-5.1,3.6-7.8c1.4-5.3,1.7-10.9,3.7-15.9c1.3-3.4,4.4-8.2,7.2-8.5
	c2.7-0.3,7.1,3.5,8.9,6.6c4.6,8,8.2,16.7,12.3,25c1.3,2.5,2.9,4.9,4.3,7.4c0.7-0.1,1.4-0.2,2.1-0.3c0.4-2.4,1.1-4.8,1.2-7.2
	c0.2-5.5-0.3-11,0.3-16.4c0.3-2.3,2.3-5.1,4.4-6.2c1.5-0.8,5.3,0.3,6.3,1.8c7.7,10.7,17.8,20.2,16.5,35.4c-0.3,3.2,2.5,7.7,5.2,9.9
	c6.2,4.9,13.3,8.5,20,12.9c4.4,2.9,6.4,1.6,7-3.3c1.7-12.5-0.7-16.4-12.8-19.5c-3.2-0.8-6.6-1-9.5-2.3c-3.1-1.4-7.8-3.3-2.1-7.5
	C489.1,344.9,488.9,344.7,488.9,344.7z"/>
<path d="M602,484.4c2.6,0.4,5.4,0.2,7.6,1.3c1.2,0.6,1.5,3.4,1.8,5.2c0.3,1.6,0.2,3.3,0.1,4.9c-2,34.2,1.6,67.6,11.5,100.5
	c2.3,7.6,1.8,16.2,2.1,24.4c0.8,21.6,1.3,43.2,2.1,64.8c0.1,2.9,1.5,5.8,2.5,9.1c16.9-11.9,29.7-112.7,17.7-132.3
	c-0.6,6-1.4,12-1.8,18c-0.5,9-0.5,18.1-1,27.1c-0.3,6.6-3,8.9-8.1,7.5c6.5-0.3,5-5.3,5.4-9.1c2.7-31.3,5.2-62.7,7.9-94
	c0.5-5.7,1.8-11.2,2.8-16.8c1.1,0.1,1.7,0,2.1,0.2c13.2,10.3,12.8,10.2,7.6,26c-5.7,17.3-9,34.7-7.9,53.6
	c2.4,42.6-1.8,84.7-19.8,124.3c-1.2,2.7-2.8,5.2-6.1,7.9c-1.1-5.6-3-11.1-3.3-16.7c-1.2-23.5-1.1-47-2.9-70.4
	c-1.1-14.9-3.6-29.8-7.4-44.2c-4.9-18.5-6.9-36.9-6.2-55.9c0.4-9.3,0.2-18.6-0.1-27.9C608.5,487.9,608.6,482.9,602,484.4z
	 M647.8,555.9c1,0.1,1.9,0.1,2.9,0.2c0.9-5.2,1.4-10.5,2.8-15.6c2.6-9.4,6.1-18.7,8.4-28.1c0.6-2.4-1.7-5.6-2.7-8.4
	c-1.9,1-5.2,1.8-5.4,3C651.6,523.3,649.7,539.6,647.8,555.9z"/>
<path d="M632,0c3.3,1.9,7.1,3.3,9.9,5.9c35.7,33.6,67,71.1,90.9,113.8c11.5,20.6,16,45.1,24.3,67.6c6.5,17.7,13.9,35,21.1,52.4
	c1.4,3.3,4,6.1,7.1,10.6c11.5-19.1,22.4-36.6,32.6-54.4c1.2-2,0.2-7.1-1.6-8.7c-16-15-21.4-35.3-28.1-54.9c-3.1-9-5.3-18.4-7.8-27.6
	c-0.2-0.8,0.6-1.8,1-3c6.3,18.4,11.5,36.8,19,54.1c4.8,11,12.8,20.7,20.2,30.3c2.8,3.6,4.1,5.7,1.5,9.7
	c-9.3,14.5-18.9,28.8-27.4,43.7c-3.6,6.3-4.6,14.1-7.3,22.8c-5.6-9.8-12-18.7-16-28.5c-7.8-19.2-15.9-38.5-21-58.5
	c-8-31-21-59-40-84.7c-21.2-28.7-43.3-56.4-69.2-81c-3.1-2.9-6.7-5.3-10-8C631.5,1,631.8,0.5,632,0z"/>
<path d="M616.9,824.4c-6.8,4.5-7.7-0.5-8-5.3c-0.7-10.1-0.7-20.2-1.5-30.3c-0.4-5.4-1.5-10.8-3-16c-2.2-7.5-5.3-8.8-11-3.6
	c-7.6,7-16.2,13.8-21.2,22.5c-19.5,34.2-37.9,68.9-56,103.9c-2.4,4.6-1.6,11.8-0.1,17.2c7.2,25.8,15.2,51.3,22.7,77
	c1.2,4.2,3.3,10.2-5.1,10.1l-0.2,0.2c6.2-2.6,3.3-7.4,2.2-11.2c-7.6-25.7-15.2-51.4-23.3-76.9c-2.2-7-2.4-12.9,1.1-19.5
	c17-31.5,32.8-63.8,50.9-94.6c7.4-12.6,19.3-22.8,29.8-33.4c5.8-5.8,10.9-4.4,12.1,3.6c2.4,16.2,3.5,32.5,4.9,48.8
	c0.3,4.1-0.9,8.8,5.9,7.7C617,824.6,616.9,824.4,616.9,824.4z"/>
<path d="M406.1,895.7c1.8-2.8,4.5-5.4,5.3-8.5c7.6-29.6,14.8-59.4,22.4-90.1c1.6,1.7,3,2.8,3.8,4.2c17,32.2,33.9,64.3,50.6,96.6
	c1.1,2.1,1.4,5.4,0.7,7.7c-8.9,30.3-18.1,60.5-28.6,90.4c0.6-3.9,0.9-8,2-11.8c7.2-24.4,14.9-48.6,21.5-73.1
	c1.4-5.3,1.2-12.3-1.2-17.2c-12.7-26-26.4-51.6-39.8-77.3c-1.4-2.7-3.7-5-7-9.4c-1.9,5.4-3.5,8.7-4.3,12.1
	c-5.8,22.8-11.4,45.6-17.2,68.3c-1,4-1.7,8.9-7.9,7.9C406.3,895.5,406.1,895.7,406.1,895.7z"/>
<path d="M372,492.3c3,4.5,6.1,9,9.3,13.8c2.1-5.5,4-10.5,5.8-15.4c1.7,17.9,2.7,35.9,5.3,53.6c2.7,18,7.2,35.6,24.1,47.1
	c-5.1,9.5-9.9,18.4-14.5,27.1c-5.1-25.3-9.6-50.4-15.3-75.2C382.7,526.2,376.9,509.3,372,492.3z M403.3,582.8
	c-1.4,0.6-2.7,1.1-4.1,1.7c1,6.3,1.9,12.6,2.9,18.9c1.1,0.2,2.2,0.5,3.2,0.7c1.6-3.3,5-6.8,4.5-9.7
	C409.1,590.3,405.6,586.7,403.3,582.8z"/>
<path d="M665,717.3c6.5,9.5,15.5,10.7,25.9,7.9c10.2-2.8,26,3.1,31.6,11.9c1.1,1.8,1.8,5.5,0.8,6.6c-1.7,1.9-5,3.7-7.5,3.5
	c-16-0.9-32-2.4-48-3.7c-3.3-0.3-6.6-0.9-9.8-0.4c-19.7,2.8-31.4,4.4-24.6,30.8c1.1,4.2,1,8.7,2,12.9c4.1,17.6-7,27.6-18.4,37.5
	c0,0,0.2,0.2,0.2,0.2c4-6.1,7.7-12.3,12-18.2c4.6-6.3,5.1-12.8,3.5-20.2c-1.7-7.7-2.7-15.6-3.9-23.4c-1.6-10.8,2.7-17.3,13.6-19.9
	c13.8-3.3,27.4-2.2,41.4,0.6c10.8,2.2,22.2,1.5,33.3,1.7c1.7,0,3.4-2.2,5.1-3.4c-1.2-1.6-2.2-3.7-3.8-4.8c-4.4-3.2-9-6.4-13.8-8.7
	c-2.6-1.3-6-1.1-9.1-1.1c-7.5,0.2-15.1,1.2-22.6,0.9c-6-0.2-9.5-3.6-8.2-10.3C664.5,717.8,665,717.3,665,717.3z"/>
<path d="M413,654.1c21.8,40.4,24.7,85.4,30.9,130.1c-2.1-4.2-6-8.5-5.9-12.7c0.6-21.9-7.3-41.9-12.5-62.5
	C421,690.8,417.2,672.4,413,654.1z"/>
<path d="M426.2,389.8c10.4,6.1,12.6,15.3,13.1,24.4c0.6,13-0.1,26.1-0.9,39.2c-0.9,14.9-2.7,29.8-4.1,44.9
	C425.9,462.8,421.7,427.3,426.2,389.8z M429.7,401.1c-5.2,11.1-3.6,51.8,2.4,60.9C441,450.5,439.3,407.4,429.7,401.1z"/>
<path d="M391.6,490.8c1.7,4,3.9,7.9,5.1,12.1c6.1,20,11,40.4,18.2,60c2.4,6.6,9.8,12,15.9,16.5c4.7,3.5,7.8,0.8,8.1-5.4
	c0.4-8.3-4.7-12-11.1-15c1.8-1.7,5-3.2,5.2-5.1c1.1-8.6,1.4-17.4,2.1-26.5c2.7,18.6,5.3,36.8,7.8,55c-9.2,3.2-18.2,1.2-24.3-7.5
	c-5.4-7.7-10.4-16.3-13-25.2C400.1,530.2,396.2,510.4,391.6,490.8z"/>
<path d="M533.7,999.9c-2.6-2.6-6.3-4.7-7.7-7.9c-7.1-15.7-13.5-31.7-20.3-47.5c-1.2-2.9-3-5.5-5.9-10.6
	c-13,21.7-18.4,44.8-29.8,64.8c-0.7-0.3-1.3-0.6-2-0.9c10.2-24.4,20.4-48.7,31.4-74.9c2.2,4.5,3.8,7.4,5,10.5
	c8.1,19.1,16,38.3,24.1,57.5c1.4,3.2,3.3,6.2,4.9,9.3C533.5,1000.1,533.7,999.9,533.7,999.9z"/>
<path d="M451.9,681c13-14.4,22.7-29.9,26.6-48.8c0,27.8,0,55.6,0,83.5c-0.5,0.3-0.9,0.6-1.4,1C468.7,704.9,460.4,693.1,451.9,681z
	 M475.5,659.7c-1.1-0.4-2.2-0.9-3.3-1.3c-4.6,8-12.3,15.8-12.9,24c-0.5,8.1,7.5,15.7,14,21.9c0.7-0.3,1.5-0.6,2.2-0.9
	C475.5,688.8,475.5,674.3,475.5,659.7z"/>
<path d="M519,553.4c-1.3-3.2-3.6-6.3-3.7-9.5c-0.5-13.9-0.4-27.9-0.3-41.8c0-6.7-2.3-10.2-9.8-9.4c-7.9,0.8-15.6-2.5-23.9,1.7
	c-7.5,3.9-10.3,8.4-10.6,16.4c-0.7,16.3-1.9,32.7-3.1,49c-0.3,4.2-1.2,8.2-7.1,6.5c1.7-3,4.5-5.8,4.8-8.9
	c1.5-18.4,2.6-36.9,3.5-55.3c0.2-4.3,1.4-6.8,5.8-8.3c6.9-2.3,13.5-5.5,20.3-8.3c0.2,0.2,0.4,0.5,0.6,0.7c2.7,1.5,5.3,4,8.1,4.1
	c3.9,0.2,8-1.3,12.5-2.1C517.2,510.3,518.1,531.8,519,553.4z"/>
<path d="M789.5,98.2c1.1,1.5,2.3,3,3.3,4.6c9.8,15.3,20,30.5,29.3,46.2c7.7,13,18.7,19.9,33.3,22.2c-15.7,2.2-26.1-5.7-34.2-17.7
	c-7.3-10.8-14.4-21.7-21.4-32.7c-4.3-6.9-8.2-14-12.2-21C788.3,99.2,788.9,98.7,789.5,98.2z"/>
<path d="M495.1,485.6c6.9-5.1,13.8-10.2,21-15.5c2.2,6.7,0.7,10.5-6.3,12c-4.8,1-9.4,2.8-14.1,4.2
	C495.5,486.1,495.3,485.9,495.1,485.6z"/>
<path d="M453,491.3c1-7.4,1.9-14.8,3-23c0,8.6,0,16.1,0,23.7C455,491.7,454,491.5,453,491.3z"/>
<path d="M761.7,376.5c-2,4.6-3.5,9.6-6.2,13.8C735,422,716,454.6,701.8,489.8c-2.2,5.4-4,10.5-0.1,16.3c9.1,13.3,10.9,14.2,23.3,3.9
	c33-27.1,65.7-54.5,98.2-82.1c6.8-5.8,13.2-12.2,18.6-19.3c5-6.6,5.9-14.6,2.1-22.6c-6.3-13-12.3-26.2-19-39
	c-9.7-18.5-26.6-28.6-45-36.6c-8.5-3.7-12.7-8.4-12.7-18.4c0-15.5-6.7-28.7-19.4-38c-9.3-6.8-13.3-15.3-14.8-26.8
	c-4.8-37.8-18.7-72.3-40.6-103.6c-5-7.1-8.2-7.5-11.6,0.2c-9.5,21.4-19.2,42.9-26.7,65c-5.4,16.1-0.4,32.1,8.9,46.1
	c4.7,7.1,5.1,13.6,3.3,21.7c-2.8,13-4.3,26.4-6.2,39.6c-0.9,6.5,1.7,8.6,8.5,7.8c15.6-2,31.2-1.8,45.9,4.7c5.3,2.4,10,6.3,14.9,9.6
	c-1.3-0.2-2.8,0-3.9-0.7c-21.5-12.1-43.8-16.8-70.1-6.6c2.4-18.3,3.7-35.1,7-51.5c1.9-9.5,2.1-16.8-3.7-25.6
	c-10.2-15.2-11.4-32.9-6.9-50.6c6.7-26.5,19.1-50.5,34.4-76.1c10.1,17,20.1,32.2,28.5,48.3c12.7,24.3,18.4,50.8,22.3,77.7
	c0.6,4.4,3,9.8,6.3,12.3c17.1,13.1,28.4,28.7,26.6,51.5c-0.2,2.2,2.8,4.6,4.4,6.9c0.3,0.4,0.9,0.6,1.4,0.7
	c39.6,13.2,58.5,44.8,71.5,81.3c5.2,14.5-1.3,26.4-11.8,36c-16.8,15.2-33.9,30.2-51.4,44.6c-23.6,19.5-47.7,38.4-72.1,57.9
	c-5.7-7.3-11.1-13.4-15.4-20.2c-1.5-2.3-1.2-6.8-0.1-9.6c11.4-31.2,27.2-60.3,44.8-88.4C747.9,396.2,754.9,386.4,761.7,376.5z"/>
<path d="M730.4,322.3c-1.3,7.9-7,5-10.7,3.6c-14.9-5.6-27.8-1.9-40.3,6.6c-6.5,4.5-8.8,9.2-4.1,16.4c3.9,6,6.5,12.8,10.8,18.4
	c7.2,9.3,6.3,19.5,6.3,30.3c0.1,16.9-6.3,30.5-16.3,43.3c-3.5,4.5-6,9.8-9.2,14.6c-4.2,6.2-3.6,10.6,3.2,14.7
	c10.2,6.2,9.6,6,16.6-4.3c20.3-30.1,41.2-59.9,62.2-89.5c3.2-4.6,7.9-9.7,13.6-2c-4.7-3.4-7.9-1.3-10.7,2.8
	c-16.8,23.9-33.9,47.6-50.5,71.7c-7.5,11-14,22.7-20.6,33.4c-6.2-4.3-12.2-8.9-18.6-12.8c-5.4-3.4-2.8-7.2-0.8-10.4
	c7.3-11.9,15.3-23.3,22.2-35.4c2.8-4.9,4.2-10.8,5.4-16.5c3.9-18.4-0.9-34.6-12.2-49.5c-4.1-5.4-6.7-11.8-10.2-18
	c16-15.9,33.5-24.6,56.2-15.8C724.8,324.4,727.8,322.8,730.4,322.3z"/>
<path d="M238.9,374c1.2,3.9,1.7,8.4,3.8,11.7c21.8,33.5,42.2,67.8,57.4,105c3.8,9.3,4.7,16.8-3.4,24c-3.6,3.2-6.1,7.6-9.6,12.1
	c-13.5-10.5-26.7-20.1-39.2-30.6c-27.5-23.4-54.9-46.9-81.8-71c-14.6-13.1-20.7-26.3-9.8-47.6c4.6-9,8.8-18.2,13.4-27.2
	c11-21.9,30.2-34.1,51.8-43.1c6-2.5,8.8-5.4,8.5-12.7c-0.5-15.4,4.3-29.2,17-39.1c21.2-16.3,42.5-32.5,64.5-49.3
	c24.8,31.9,31,67.3,31.1,105.4c-22.9-8.7-44.2-5.3-64.8,5.2c-1.7,0.9-3.6,1.7-4.9,3c-1.2,1.2-1.7,3-2.6,4.5c1.9,0.4,4.1,1.7,5.5,1.1
	c20.9-8.7,37.5-1.5,54.5,11.5c10.7,8.2,13.8,16.4,12.2,28.8c-3.2,24.6-6,49.4-7.9,74.1c-0.5,6.7,2.4,13.9,4.8,20.4
	c2.2,6.2,0.5,9.1-5,12.3c-6,3.5-11,8.7-17.1,13.7c-3.9-7-7.5-14.9-12.3-22c-19-28.1-38.2-56-57.7-83.7c-1.9-2.7-5.9-4-8.9-6
	c2.8,0.3,6.3-0.3,8.2,1.2c3.8,3,7.1,6.9,9.8,11c19.1,28.4,37.9,56.9,56.9,85.3c1.6,2.4,4.7,5.7,6.9,5.6c9.2-0.7,16.7-13.2,14.3-22.1
	c-1.4-5.5-3.3-11.3-2.8-16.7c2.1-22.8,3.7-45.8,7.9-68.3c3.1-16.3-3.4-25.5-15.6-34.1c-13.7-9.6-27.5-15.8-44.3-9.1
	c-1.3,0.5-2.8,1.3-3.9,0.9c-2.4-0.7-5.5-1.5-6.6-3.3c-0.9-1.3,0.2-5.1,1.6-6.4c3-2.7,6.6-4.9,10.2-6.7c15.8-7.7,32.6-8.8,49.7-6.6
	c4.9,0.6,9,0.7,8.8-5.9c-0.9-28.1-7.3-54.6-22-78.9c-3.5-5.7-7.6-7.7-13.4-3.5c-17.9,13.1-35.8,26.1-53.4,39.5
	c-11.6,8.8-18.3,21.2-17.9,35.4c0.3,12.2-5.6,17.1-15.3,21c-21.9,8.9-38.4,23.8-48.5,45.5c-3.3,7.2-6.3,14.6-10.3,21.4
	c-9.3,16.1-4.5,29.4,7.4,41.4c35.1,35.6,74.6,65.9,114.2,96.2c1.9,1.5,6,2.1,8.1,1.1c8.6-4.2,13-16.2,8.8-25.2
	c-9.2-19.8-18.4-39.7-28.8-58.9c-9-16.6-19.7-32.2-29.4-48.4C237,382.3,232.6,378,238.9,374z"/>
<path d="M485.6,814.9c1.3-20.1,2.6-40.1,3.9-60.8c31.5,30,28.9,91.9,9.1,118c-9.5-19.5-18.2-38.6-28-57.1c-6.1-11.3-3.8-23.3-5.7-35
	c-4-24.2-9.1-48.1-13.9-73.4c9.3,10.3,18.5,20.3,27.3,30.6c1.3,1.5,0.7,4.7,0.7,7.2c0.3,21,0.5,42.1,0.9,63.1c0.1,3.7,0,8.2,6.1,7.1
	c-6.9,3.6-8.7,0-8.8-6.2c-0.2-20.5-0.4-41-0.7-61.5c-0.1-9.3-8.7-20.8-18.5-23.3c2.2,10.4,3.8,20.2,6.5,29.8
	c5.8,20.8-1.2,43.6,11.3,63.6c7.8,12.4,12.9,26.4,19.4,39.6c0.9,1.7,3.5,4.2,4.5,3.9c2-0.6,4.3-2.7,4.9-4.7c2-7.1,3.7-14.3,4.8-21.5
	c3-21,2.1-41.5-9.6-60.2c-1.6-2.5-3.7-4.6-7-8.6c-1,5.2-1.9,8.1-2.1,10.9c-0.7,9.8-1,19.6-1.9,29.4
	C488.3,809.1,486.6,812,485.6,814.9z"/>
<path d="M606.8,398.7c3.4-12.5,5.7-25.5,10.4-37.5c4.3-10.9,9.2-11.8,19.6-7.8c2,0.7,5.4,0.6,6.7-0.6c4.3-3.8,7.2-2.3,10.2,1.4
	c1.9,2.3,4.1,4.4,6,6.7c21.6,25.7,21.6,44,0,69.8c-4.6,5.5-9.6,10.3-10.9,18.5c-1.3,8.7-11.5,10.6-17.9,5
	c-16.8-14.6-22.2-33.6-22.2-55C608.1,399,607.5,398.8,606.8,398.7z M609.4,399.4c0.7,0.2,1.4,0.4,2.1,0.6
	c0.7,19.1,4.8,36.7,20.4,49.8c5.8,4.9,10.3,4.6,14-1.5c5.3-8.8,10.5-17.6,16.3-26c14.3-20.6,14.5-31.3,0.6-52.2
	c-0.6-0.9-1.2-1.8-1.9-2.7c-5.2-7.2-10.3-14.5-21.2-11c-1.2,0.4-2.8,0-4-0.6c-7.9-3.5-13.3,0.3-15.7,7.1
	C615.9,374.8,612.9,387.2,609.4,399.4z"/>
<path d="M470,486.2c2.3-36.9,4.5-71.7,6.8-108.8c5.4,4.5,9.6,7.6,13.4,11.1c10.7,10,18.9,21.8,23.2,36.1c4,13.5,1.8,25.9-7.2,36.9
	C496.8,472.9,484.6,480.1,470,486.2z M474,463.3c0.1,0,0.1,0,0.2,0c-0.2,2.2-0.7,4.4-0.5,6.5c0.2,2.6,0.4,6.8,1.7,7.3
	c2.3,0.8,5.9,0.1,8.1-1.4c6.3-4.3,12.8-8.5,18-14c10.3-10.9,15.1-24.2,8.1-38.2c-5.7-11.5-13.8-21.9-21.3-32.6
	c-1.3-1.8-4.5-2.3-6.9-3.5c-1,2.4-2.6,4.8-2.8,7.2C476.9,417.6,475.5,440.4,474,463.3z"/>
<path d="M529.5,473.5c2.2-35.1,4.5-70.3,6.8-107.3c4.4,3.4,7.8,5.7,10.9,8.5c12,10.8,21.4,23.4,25.9,39.1
	c4.3,15.3,0.9,29.2-10.7,39.8c-9.1,8.3-20,14.7-30.1,21.9C531.2,474.8,530.4,474.2,529.5,473.5z M533.4,451.7
	C533.4,451.7,533.4,451.7,533.4,451.7c-0.1,2.5-0.6,5-0.4,7.3c0.3,2.5,0.7,6.1,2.3,7.1c1.6,0.9,5.3-0.2,7.3-1.5
	c6.4-4.5,13.3-8.9,18.6-14.6c10.5-11.2,14.5-24.9,7.3-39.1c-5.5-10.8-13.1-20.6-20.2-30.5c-1.5-2.1-4.8-2.9-7.3-4.2
	c-1.1,2.6-2.9,5.1-3.1,7.8C536.2,406.5,534.8,429.1,533.4,451.7z"/>
<path d="M324.3,83.1c-0.3,3.7-0.2,5.5-0.5,7.3c-2.7,15.9-1.8,31.5,3.2,47c2.3,7,4,14.2,5.2,21.5c1,6.1,1.7,12.7-4.9,17
	c-0.8,0.5-1,1.9-1.6,2.8c-2.1,3-4.2,8.3-6.5,8.4c-6.4,0.3-12.8,0.2-17.6-7.1c-5.6-8.5-7.3-16-4.2-25.8c3.9-12.5,6.1-25.5,9.2-38.2
	C309.3,103.9,315.4,93.8,324.3,83.1z M317.4,99.9c-2.7,4.9-5.1,7.8-5.9,11.1c-4.5,16.9-8.8,33.8-12.8,50.8c-1.4,6.1,5.7,19,11.7,21
	c2.7,0.9,7.7,0.8,8.9-0.8c6-7.9,12.3-15.5,9.4-27.3c-4-16.1-6.2-32.6-9.2-48.9C319.4,104.7,318.7,103.5,317.4,99.9z"/>
<path d="M371.6,447.6c-3.5-13.9-6.8-28.6-11-43c-4.5-15.7-4.8-31.1,0.1-46.8c13.8,7.8,24.1,31.7,18.1,44.6c-4.3,9.2-4,17.6-1.1,26.8
	C381,439,379,442.8,371.6,447.6z M371.7,417.5c2.1-10.4,5.8-19,5.2-27.4c-0.6-8.7-4.4-17.7-12.1-23.9
	C356.5,375.4,360,404.5,371.7,417.5z"/>
<path d="M418.2,755.1c-9.4-6.3-17.3-11.4-24.9-16.9c-1.3-0.9-2.1-3.8-1.8-5.6c2.5-16.9,5.3-33.8,8.4-52.7
	C411.2,704.2,418.1,727.6,418.2,755.1z M404.1,698.4c-1.3,0.1-2.5,0.3-3.8,0.4c-1.3,7.6-2.6,15.2-4,22.8c-2.5,13.3-0.7,16.8,11,22.7
	c5.5,2.8,8,1.1,7.4-4.7c-0.8-6.7-1.9-13.5-3.7-20.1C409.1,712.4,406.4,705.4,404.1,698.4z"/>
<path d="M543.3,794c0.6-7,1.1-14.1,1.9-21.1c1.2-10.3,11.4-20.7,21.5-21.7c2.2-0.2,5.3,1.3,6.7,3.1c0.9,1.1,0.1,4.6-1.1,6.3
	c-3.8,5.4-8.2,10.4-12.2,15.5c-4.9,6.3-9.8,12.7-14.7,19C544.7,794.8,544,794.4,543.3,794z M548.6,781.3c0.8,0.5,1.7,1,2.5,1.5
	c5.7-8.5,11.3-17,17.4-26.2C555.7,755.3,546.1,768.2,548.6,781.3z"/>
<path d="M437.7,654.9c-11.5-15.7-1.8-26.4,6.7-37.5c10.2,6.8,13,12.1,10.7,20C451.5,650,446.5,654.9,437.7,654.9z M434.3,639.9
	c2.4,3.9,4.3,7.1,6.2,10.2c2.8-2.1,6.2-3.8,8.2-6.6c2-2.7,3.6-6.5,3.5-9.8c0-2.8-2.3-5.8-4.2-8.2c-0.6-0.7-4.1-0.4-4.8,0.6
	C440,630.3,437.4,634.9,434.3,639.9z"/>
<path d="M435.2,366.5c-4.5-1.7-7.3-2.7-10.5-3.9c1.1-4.6,2.1-8.8,3.6-15.4C431,354.7,432.9,360,435.2,366.5z"/>
<path d="M398.9,417.1c-0.8-9.2-1.3-15.1-1.9-21.7c8.6,1.7,10.5,7.9,10.7,14C407.7,411.4,403,413.6,398.9,417.1z"/>
</svg>
