<?xml version="1.0" encoding="utf-8"?>
<!-- Generator: Adobe Illustrator 21.0.0, SVG Export Plug-In . SVG Version: 6.00 Build 0)  -->
<svg version="1.1" id="Layer_3" xmlns="http://www.w3.org/2000/svg" xmlns:xlink="http://www.w3.org/1999/xlink" x="0px" y="0px"
	 viewBox="0 0 1000 1000" style="enable-background:new 0 0 1000 1000;" xml:space="preserve">
<path d="M594.2,169.1c2.7,31,5.4,61.9,8.2,94.6c8.7-7.9,7.6-16.2,7.9-24.2c0.2-4.6,1.5-9.2,2.5-13.7c1.9-8.9,3.9-17.9,5.6-25.7
	c4,11.1,0.8,74.4-5.9,90.1c-0.5-7.2-0.9-12.4-1.3-17.6c-0.9-0.2-1.9-0.4-2.8-0.6c-1.9,5.5-4.9,10.9-5.6,16.5
	c-1.4,11.5-4.4,23.9-1.5,34.4c4.5,16.5,1.9,33.7,6.9,49.2c3.4,10.5,4.9,20.9,7.1,31.4c0.4,2,2,3.8,3.1,5.6c0.9,0,1.8,0.1,2.8,0.1
	c1.4-7.7,3.5-15.3,4.2-23c0.7-7.6,0.1-15.2-0.1-22.9c0-1.7,0-3.7-0.9-4.9c-11.8-16.4-6.3-34.8-5.5-52.8c0.6,3.4,0.8,6.9,2,10
	c1.1,2.6,3.7,6.6,5.2,6.4c2.7-0.3,5.9-2.8,7.3-5.3c2.4-4.2,3.5-9.1,5.9-15.5c1.5,5.7,2.5,9.6,3.9,15.3c21.7-14.3,24-35.5,25.5-56.9
	c3.1,17.7,6.2,35.3,9.8,55.4c2.8-4.3,4-6.2,5.3-8.1c0.9,0,1.8,0.1,2.7,0.1c-7.3,20.5-9.7,41-1.9,63.5c3.9-5.6,6.7-9.5,10.1-14.5
	c-3.5,33.3-3,65.1-1.4,97.1c0.2,3-1.2,6.5-2.9,9.1c-5.2,7.6-7.6,15.3-5.1,24.7c1.2,4.7,0.2,10,0,15c-0.6,15.2-1.3,30.5-2.1,45.7
	c-0.1,2.2-0.9,4.3-3.2,6.4c-0.8-6.7-1.6-13.4-2.5-20.1c-0.4-0.1-0.7-0.2-1.1-0.3c-2.7,15.8-5.4,31.5-8.1,47.3
	c-0.4-0.1-0.9-0.1-1.3-0.2c-1.3-9.3-2.7-18.5-4.1-28.3c-11.4,3.2-9.7,13.2-13.9,20.9c-1.4-14-2.7-27.2-4.2-42.3
	c-4.3,3.1-6.2,4.5-8,5.8c-2-11.5-3.8-22.6-5.7-33.6c-1,0-1.9-0.1-2.9-0.1c-1.4,2.6-2.7,5.1-4.4,8.4c-4.7-9.4,4.6-22.2-7.9-29.5
	c-1.7,2-3.3,3.7-6.5,7.3c0-36.7,0-71.3,0-106c-0.6-0.2-1.3-0.4-1.9-0.6c-1.3,5.4-2.7,10.7-3.9,16.1c-4,17.5-5.5,36.1-12.4,52.4
	c-9.1,21.4-13.7,42.9-14.8,65.8c-0.4,7.7-2.6,15.3-4,23c-0.8-0.2-1.7-0.3-2.5-0.5c0-21.2,0-42.3,0-63.5c-1.4-0.3-2.9-0.6-4.3-0.9
	c-2.5,6.2-5.1,12.4-7.6,18.6c-0.4,0-0.8,0-1.2,0c0.7-13.4,1.4-26.7,2.1-41.5c-9.7,3.6-10.8,9.3-11.6,15.7c-1,8-2.8,16-5,23.8
	c-0.9,3.1-4,5.5-7,7.8c6-13.2,4.2-26.5,2.4-39.9c-0.4-2.6,0.7-5.4,1.6-8c7.8-23.3,9.2-47.1,7.4-71.3c-0.8-0.2-1.6-0.5-2.4-0.7
	c-1.1,3.6-2.3,7.2-3.1,10.9c-0.9,3.9-1.4,7.8-2,11.7c-1.1-0.1-2.2-0.2-3.3-0.3c0.9-10.4-0.2-21.5,3.3-30.9c5.3-14.2,7.6-28,6.7-43
	c-0.8-12.3,1.7-25.1-0.9-36.9c-2.2-9.7-1.9-18.6-1.1-28c0.1-0.8,0.5-1.5,1.5-5c2.4,10.9-0.2,21.2,10.3,29.3c0-15.6,0-29.3,0-43
	c0.9-0.1,1.9-0.1,2.8-0.2c0.5,4.6,1,9.3,1.8,15.9c13.1-12.8,12.9-27.9,14.1-42.8c1.9,5.5,3.8,11.1,5.6,16.6c0.9,0,1.9,0,2.8,0
	C592.7,213.6,586.7,190.3,594.2,169.1z M662.8,518.9c0-2.7,0-5.5,0-8.2c-0.4-21.7-1-43.4-1.2-65.1c-0.1-6.4-0.1-12.8,6.9-16.9
	c2-1.1,3.1-5.3,3.1-8.1c0.1-11.6-0.3-23.1-0.5-34.7c-0.3-12.2,1.2-24.8-9.9-34.1c-3.4,1.5-7.9,6.9-11.2-0.4c-2-4.4-2.5-9.4-3.7-14.2
	c-0.9-0.1-1.8-0.2-2.8-0.3c-2.3,15.5-5.2,31-6.9,46.5c-0.9,7.8,4.2,16.5-4.6,22.7c-0.7,0.5-1,2.1-1,3.2c-0.1,11.6,0,23.2,0,34.8
	c0.7,0.2,1.5,0.4,2.2,0.6c2-5.6,4.1-11.2,6.1-16.8c1.8,11,1.7,21.7,1.9,32.3c0.2,10.8,0.9,21.7,1.4,31.4
	C663.7,492.3,656.9,509.2,662.8,518.9z M573.4,451.6c8-13.3,14.8-25.5,14.1-40.2c-0.3-6.2-0.3-12.4-0.2-18.6
	c0.1-3.9,0.6-7.9,1.2-11.7c0.8-5.1,2.3-10,2.6-15.1c0.4-6-1.6-12-8.3-12.9c-3.7-0.5-7.8,2.2-11.8,3.4c-0.5-4.8-1.1-11.2-1.7-17.6
	c-0.9-0.1-1.8-0.1-2.8-0.2c-1.5,3.3-2.9,6.6-5.2,11.5c-1.2-5.8-2-9.7-2.8-13.6c-0.5,0.1-1,0.2-1.5,0.4c0,15.7,0,31.3,0,47
	c0.6,0.1,1.3,0.2,1.9,0.3c1.5-4.4,3.1-8.9,4.6-13.3c0.5,0.1,1.1,0.3,1.6,0.4c-3.2,15.7-6.4,31.5-10.1,49.8
	c10.1-5.6,11.9-0.2,13.2,5.4C570.2,434.3,571.6,442.3,573.4,451.6z M584.5,281c1.6,0.5,3.3,0.9,4.9,1.4c1.7-7.7,3.4-15.3,5.1-23
	c-0.8-0.2-1.6-0.4-2.4-0.6C589.6,266.2,587.1,273.6,584.5,281z"/>
<path d="M440.3,496.6c-3-11.1-0.1-18.9,11.4-24c9-4,11.1-23.5,3.9-30.3c-3.9-3.7-6.7-1.1-7.9,3.2c-1,3.4-1.5,7-4,10.4
	c-0.3-1.6-1-3.2-1-4.8c-0.5-28-0.9-55.9-1.6-83.9c-0.1-5.3-1.3-10.5-2.3-17.8c-3.8,3.6-5.5,5.2-8.7,8.2
	c1.9-11.7,13.3-18.2,10.3-30.1c-2.5-9.8-1.3-20.5-7.8-29.7c-9.1,13.7-7.7,30-12.8,45c-0.4-5.8-0.7-11.5-1.2-17.3
	c-0.9-11.6-2.3-23.2-2.7-34.9c-0.1-2.7,2.5-6.7,5-7.9c26.7-13.5,24.7-38.1,24-61.8c-0.1-4.1-4.5-8-7.9-13.6
	c14.7-15.1,10.1-37.7,15.3-58c0.7,9.9,0.3,20.1,2.2,29.8c3.1,16.2,7.2,32.2,7,49c0,4.2,5.1,8.4,7.8,12.6c2.3-4.2,5.5-8.1,6.7-12.5
	c1.4-5.1,1-10.6,1.5-15.9c0.3-3.4,0.8-6.8,3-10.1c0.5,7.1,0.6,14.3,1.8,21.4c1.1,6.9,0.3,14.9,8,19.3c1,0.5,0.6,3.6,0.6,5.5
	c0.2,6.8-0.1,13.6,0.6,20.3c1.1,10.7,9.9,16,19.3,11.3c0,7.9-0.3,15.4,0.1,22.9c0.6,12.4,3.4,23.9,12.2,33.5
	c2.1,2.3,3.4,6.5,3.2,9.8c-1.3,21.1-3.4,42.1-4.7,63.2c-0.9,15.2-1.1,30.4-0.9,45.7c0.3,17.4,1.6,34.7,1.8,52.1
	c0,3.3-2.3,7.1-4.5,10c-5.2,7.1-10.9,13.9-16.1,20.5c-1-8.4,2.4-16.3,8.9-22.9c7.5-7.5,7.6-13.5-1-21.6
	c-7.8,9.1-11.1,19.9-13.3,31.2c-0.4,1.9,0,4.6-1.1,5.7c-9,8.6-18,17.3-27.6,25.2c-5.6,4.6-13.8,6.6-18.2,12
	c-5.1,6.2-7.4,14.7-10.8,21.9c-0.3-0.4-1.9-2.7-4.9-6.9c-3.4,6.1-6.8,10.8-8.6,16c-1.8,5.3-2.3,11-2.9,16.6
	c-2.2,21.2-4.1,42.5-6.2,63.7c-0.1,1-0.8,1.9-2.8,2.7c0-19.5,0-39.1,0-60.6c-3.3,3.1-4.9,4.6-6.8,6.4c-0.4-1-1.1-1.7-1.1-2.3
	c0.8-12.7,1.2-25.4,2.6-38c1.3-11.5-4-22.9,1.5-34.6c1.7-3.6-1.9-9.6-3.1-14.5c-1-3.8-2-7.5-3.4-12.7c3.6,4.7,5.7,9.8,9.2,11
	c2.3,0.8,6.6-4.1,10.5-6.8c0,6.8,0,14.2,0,22.9c18.3-10,30.9-22.3,34.5-41.9c0.5-2.7,0.9-6-0.1-8.4c-1.8-4.5-4.7-8.6-7.2-12.8
	C447,491.3,443.8,493.9,440.3,496.6z M489.9,493.7c1,0.2,2,0.4,3,0.6c4.7-13.4,12.2-26.1,11.1-41.1c-1-14-2.6-27.9-4.6-41.7
	c-1.7-11.6-3-23.6-11.8-32.8c-1-1.1-1.5-3.2-1.3-4.7c1-9,2.3-18,3.5-27c1.9,15.5-0.2,31.9,16.6,42.7c0-15.1,1-30-0.4-44.6
	c-0.8-8.3-4-17.7-9.2-24.1c-7.2-9-13-17.9-14.3-32.6c-8.1,10.7-15,9.7-21.8,0.7c0,6.6,0.8,11.6,1,16.6c0.2,3.6-0.1,7.4-0.9,10.9
	c-2.1,9.2-5.5,18.2-6.8,27.4c-1.2,8.9-0.2,18-0.3,27c0,3-0.5,6-0.7,9c1.3,0.1,2.6,0.3,3.9,0.4c1.7-11.8,3.5-23.7,5.2-35.5
	c1.4,6.2,2.1,12.4,1.2,18.4c-1.5,10.4,3.5,20.9-6.4,31.3c-9.2,9.8,0.6,29,13.9,33.2c2.1,0.7,4.9,4,4.8,6.1
	c-0.2,10.1-1.6,20.2-1.9,30.3c-0.4,10.9-0.1,21.9-0.1,32.9c2-4.8,2.1-10.6,4.7-14.6c3.6-5.3,9.2-9.2,14-13.7
	C491.7,476.1,490.8,484.9,489.9,493.7z M467.6,545c-0.7-0.8-1.4-1.6-2.1-2.4c-5.4,4.7-10.8,9.4-16.1,14.2c0.6,0.8,1.3,1.5,1.9,2.3
	C456.7,554.3,462.2,549.7,467.6,545z"/>
<path d="M198.4,577.7c-2-1.1-5.2-2.8-8.9-4.7c-0.2,1.8-0.6,2.9-0.2,3.3c7.4,8.1,6.7,17.9,7,28.1c0.5,16,6.1,30.3,20.3,39.9
	c-0.4,0.7-0.8,1.4-1.2,2.1c-5.3-2-11.6-2.9-15.6-6.3c-10.9-9.3-18.7-20.8-21.5-35.4c-2.8-14.7-7.2-29-9.9-43.7
	c-1.6-8.7-1.1-17.8-1.5-26.7c1.1,0,2.3-0.1,3.4-0.1c0.3,3.5-0.3,7.4,1.1,10.4c1.6,3.5,4.9,6.2,7.5,9.2c1.8-2.7,5.2-5.4,5.2-8.1
	c0.1-17.1-0.1-34.3-1.1-51.4c-0.7-11.8-3-23.5-4.6-35.2c-0.2-1.4-0.8-3-0.4-4.1c9.4-25,2.3-50.3,0.9-75.4
	c-1.7-30.2-10-58.9-25.1-85.4c-7-12.3-18.5-18.7-31-23.5c-5.8-2.3-10,2.3-10.6,11.4c-0.7,11.8-1,23.7-1.2,35.5
	c-0.1,3.9,0.5,7.8-1.1,12.1c-0.9-3.7-2.1-7.3-2.5-11c-1.8-14.8-3.5-29.7-4.7-44.6c-0.5-5.8-0.2-11.9,1.3-17.5
	c7.2-28.7,4.6-57.7,3.7-86.7c-0.6-19.4-1.7-38.8-2.6-58.2c0.8-0.2,1.5-0.3,2.3-0.5c0.5,2.3,1.2,4.6,1.6,6.9
	c3.3,21.1,6.6,42.2,9.6,63.3c0.5,3.5-0.7,7.1-1,10.7c-1.5,18.3,0.4,36.2,7.1,53.3c6,15.3,19.6,22.9,33.8,28.9
	c6,2.6,9.3-2.5,11.3-7.4c1.1-2.8,1.2-6,2.5-9.1c8,22.2,5,46.9,15.5,70.8c2.4-16.1,4.4-29.8,6.7-44.9c1.6,6.2,3,11.3,4.2,16.4
	c3.2,13.5,5.9,27.1,9.5,40.4c1.6,6.2,4.1,12.3,11.4,14.6c7.7,2.4,11.3,1,13.3-6.8c1.3-5.1,1.3-10.4,3.2-15.8
	c1.4,10.9,3.5,21.8,4.2,32.7c0.9,14.6,0.4,29.4,1.3,44c0.3,5.7,1.9,11.7,4.6,16.7c2.9,5.3,7,4.5,8.7-1.3c1.5-5,1.9-10.4,3-16.8
	c4.6,10.9,6.2,20.9,5.6,31.8c-1.8,33.2-2,66.6-3.7,99.8c-1.3,24.1-3.9,48.1-6,72.2c-0.1,1.2-0.9,2.4-1.3,3.6c-1-0.1-2.1-0.1-3.1-0.2
	c0-17.6-0.7-35.2,0.2-52.8c0.8-17.4,0.4-34.6-3.3-51.5c-0.8-0.2-1.5-0.4-2.3-0.5c-1.6,2.9-3.2,5.7-5.4,9.6c-1-4.9-1.8-8.9-2.5-12.9
	c-1-6-3.5-9.9-9.7-12.4c-6.8-2.8-12.5-8.1-19-11.7c-6.2-3.4-9.3,0.4-9.4,6.1c-0.3,14.1,0.2,28.1,0.1,42.2
	c-0.1,8.4-1.3,16.8-1.2,25.2C196.6,563.1,197.7,570.2,198.4,577.7z M203,376c-1.2,0-2.4,0.1-3.6,0.1c-1.8,16-4.6,32-5.3,48
	c-0.7,15.5,1,30.9,11.6,43.9c5.2,6.4,10,12.4,19.3,8.9c3.4,9.5,7.7,11.2,20.1,8.3c-1-10.9-1.8-21.8-3.2-32.7
	c-0.5-3.7-2.1-7.8-4.6-10.3c-1-1-5.8,1.7-9.6,3c-0.5-18-0.3-36-9.3-52.2c-0.9-0.1-1.9-0.2-2.8-0.3c-1,8.6-1.9,17.3-2.9,25.9
	c-0.6,0.1-1.2,0.2-1.9,0.3C208.2,404.7,205.6,390.3,203,376z"/>
<path d="M317.3,813.9c-5.4,10.9-6.3,23-6.3,35.4c-1-0.1-2.1-0.2-3.1-0.3c-0.4-10.8-1-21.5-1-32.3c0-2.5,2.1-5.1,3.7-7.3
	c7-9.8,7.3-22.6,0.5-32.4c-6.8-9.8-17.9-9.8-24.8-0.3c-6.8,9.3-14.6,17.9-20.7,27.6c-4.5,7.3-7.5,15.7-10,23.9
	c-0.9,3.1,1.5,7.3,2.4,10.9c3.6-1.1,7.3-1.7,10.6-3.3c2.4-1.2,4.3-3.5,8.2-4.1c-3.1,4.1-6.7,7.9-9.2,12.3c-4.2,7.5-7.7,15.3-11.4,23
	c-0.3,0.7-0.4,1.7-0.3,2.5c1.4,12.7,1.4,25.7,4.6,38c3.6,13.9,12.9,24.1,27.5,28.2c6.9,1.9,13.9,3.7,20.8,5.6c0,0.8,0.1,1.7,0.1,2.5
	c-5.5,0-11.2,1-16.3-0.2c-23.8-5.6-40.7-19.2-46.2-44c-2.8-12.6-4.2-25.5-6.4-38.3c-1-5.6-2.6-11-3.3-16.6
	c-0.5-4.1-0.1-8.4,1.5-12.5c0.8,3.9,1.6,7.8,2.4,11.7c0.8,0,1.6-0.1,2.5-0.1c0.2-2.8,0.3-5.5,0.5-8.3c0.9-13.1,2-26.2,2.6-39.4
	c0.3-5.9-0.3-11.8-1-17.7c-2-15.9-0.2-30.9,11.2-43.6c-0.9,2.5-1.9,4.9-2.7,7.5c-1.3,4.3-3.5,8.6-3.4,12.9c0.1,3.7,2,9.4,4.6,10.3
	c3,1.1,9.7-0.9,10.9-3.5c4.5-9.5,9.3-19.6,10.4-29.8c1-9.4-5.8-3.2-11.2-3c2.5-3.3,4.4-7.3,7.5-9.6c4.5-3.3,9.6-6.2,14.9-7.8
	c24.2-7,35.5-25.6,43.3-47.3c8-22,9.7-45.1,11.3-68.1c1.1-15.7,2-31.3,3-47c0.8-0.1,1.6-0.1,2.4-0.2c0.5,0.8,1.4,1.7,1.3,2.4
	c-2,20.9,3.4,41.8-0.4,62.8c-3,16.8,2.4,32.4,11.1,46.7c3.4,5.6,3.9,10.8,2.2,17.5c-8.4,33.8-8.4,68.2-5.7,102.6
	c1.2,15.2,3.8,30.4,5.8,45.5c-2-0.7-5.8-1.9-9.5-3.2c6,8.9,6,22.3,20.4,23.9c-8.2,14.2-5.3,29-3.8,43.4
	c1.1,10.7,17.5,19.9,29.2,17.7c4.4-0.8,8.8-2,15.1-3.4c-2.3,2-3,3.2-4,3.5c-7.4,1.9-12.6,4.5-7.9,13.8c1.2,2.3-1.5,6.4-2,9.7
	c-2.5,14.3-4.9,28.6-8.2,42.8c-0.4-20.3-3.9-40.7,1.3-61.5c-0.1,0-1.6-0.3-3-0.1c-17.8,2.2-28.6-6.6-30.4-24.6
	c-1-9.8-2.5-19.6-3.8-29.4c-0.6-4.6-2.9-6.9-8-6.6c-7.5,0.4-11.8-3.8-14.4-10.6c-3.7-9.6-7.8-19.1-11.7-28.6
	C319.8,813.7,318.6,813.8,317.3,813.9z M334.9,805.3c1.1-0.3,2.2-0.5,3.3-0.8c-2.1-8.4-3.3-17-6.4-25c-6.6-16.7-12-33.5-8.7-51.8
	c1.2-6.5,2.6-12.9,4.2-20.5c-8.4,7.5-15.8,13.8-23,20.4c-6,5.5-12.8,10.5-17.3,17.1c-2.3,3.4-0.8,9.8,0,14.7
	c0.1,0.6,5.8,0.4,6.8,0.4c4.3,2.6,7.6,4.5,11.6,6.9c2.4-11,4.2-19.7,6.1-28.5c0.9,0,1.8,0,2.7,0
	C306.9,765.5,326.9,783.4,334.9,805.3z M268.4,775.7c0.9,0.8,1.7,1.7,2.6,2.5c4.3-2.8,8.6-5.6,14.5-9.5c-4.2-2.6-8.5-5.6-8.7-5.3
	C273.7,767.2,271.1,771.5,268.4,775.7z"/>
<path d="M566.6,578.6c0,20.3,0,40.7,0,61c0.6,0.5,1.2,0.9,1.9,1.4c3-3.9,6.4-7.6,8.9-11.9c1.8-3.1,2.9-6.8,3.6-10.4
	c2-10.6,2.5-21.4,9.9-30.7c2.9-3.7,2.9-10.2,3.1-15.5c0.5-9.8,0.1-19.5,0.1-29.3c1.3,0,2.5,0,3.8,0c0,12.9,0.4,25.8-0.1,38.7
	c-0.4,9.8-1.8,19.6-2.8,30.4c-1.6-2.3-2.6-3.9-5.2-7.7c-4.4,23.4-8.3,44.5-12.2,65.7c-0.2-0.6-0.6-1.1-0.6-1.6
	c-0.8-5.4,0.3-12.9-7.7-12.8c-7.6,0.2-10.3,7.6-10,13.6c0.5,12.3,1.7,24.8,4.6,36.8c2.9,12.4,5.9,24.5,4.4,37.3
	c-0.2,2-1.1,4-2.8,5.8c-0.9-6-1.8-11.9-2.7-17.9c-0.6-0.1-1.3-0.2-1.9-0.4c-0.8,1.7-2.4,3.5-2.4,5.2c0,10.3,0.4,20.6,0.6,30.8
	c0.3,14,1.2,28,0.7,41.9c-0.6,16.3-2.5,32.6-3.4,48.9c-0.6,10.3-2.9,19.3-11.6,26c-6.2,4.9-11.9,10.4-17.5,16
	c-9.4,9.3-14.1,20.9-16.5,33.7c-0.9,4.6-1.8,9.2-4.4,13.8c-0.2-1.1-0.6-2.2-0.7-3.3c-1.2-16.2-2.4-32.4-3.6-48.7
	c-0.4-5.3-0.8-10.7-1.7-15.9c-0.4-2.2-1.6-5.5-3.1-6.1c-1.8-0.6-5.7,0.6-6.6,2.2c-2.9,4.9-6.1,10.3-6.9,15.8
	c-1.2,8.8-0.6,17.9-0.7,26.9c0,1.4-0.2,2.9,0.2,4.2c5.6,21.4,1.8,42.9,0.5,64.3c-0.3,4.4-1.4,8.8-4.2,13.2c-1.5-45-3-90-4.5-135.6
	c2.5-3.1,5.5-6.7,8.4-10.5c8.5-11,22.1-9.8,27,3.3c3.8,10.1,5.4,20.9,7.7,30.6c13.4-13.1,15-62.5-3.2-77.5
	c5.7-12.6,0.8-23.3-6.2-36.7c-3.4,6.1-5.8,10.4-8.9,15.9c-0.2-3.1-0.4-5.5-0.4-8c0-6.5,0.4-12.9,0.1-19.4
	c-0.4-7.7-3.6-13.8-9.3-19.8c-6.4-6.7-10.4-15.9-14.8-24.2c-1.1-2.1-0.2-5.3,1.5-8.2c0.4,1.6,0.9,3.3,1.2,4.9
	c2.1,8.8,7.7,12.3,16.4,10.5c1.7-0.3,3.9,0.6,5.6,1.5c2,1,3.5,2.8,5.4,4c0.6,0.4,1.6,0.3,4.9,0.8c-2.6-10-4.8-19.1-7.3-28.1
	c-1.5-5.4-3.3-10.8-5.1-16.2c-0.7-1.9-1.9-3.7-2.8-5.5c-1.4,1.2-3.2,2-4.1,3.5c-2.4,4-4.4,8.3-7.4,14.1c-0.7-12-0.7-22.6-2.2-32.9
	c-0.9-6.7-2.5-14.1-6.3-19.3c-12.7-17.5-14.8-36.6-11.8-57.1c0.6-4.1,1.1-8.2,3.6-12.3c0.4,9.5,0.4,19,1.3,28.5
	c0.6,6.6,0.8,14.2,4.2,19.4c8.2,12.7,18.2,24.2,30.1,36.3c1.3-10.9,2.6-21.8,3.9-32.6c0.7,0,1.5,0,2.2,0
	c3.7,37.8-2.3,77.2,20.2,112.3c0-9.9,0-19.9,0-29.8c0.8-0.1,1.6-0.1,2.4-0.2c1.1,2.5,2.2,5.1,3.2,7.6c0.9,0.2,1.8,0.5,2.8,0.7
	c2.8-6.1,7.1-12,8.1-18.3c1.5-10.5,0.7-21.2,1.1-31.9c0.1-3.3-0.7-7.4,1-9.7c12.1-16.5,12.2-35.9,14.4-54.8c1.1-8.9,1.3-17.8,2-26.7
	C564.8,578.5,565.7,578.5,566.6,578.6z M542.1,823.5c8.2-13.2,3.2-27.5,3.9-41.4c0.7-14.1,1.8-28.1,2.7-42.2c-0.7,0-1.5-0.1-2.2-0.1
	C538.9,767.2,540.1,795.3,542.1,823.5z M534,863.5c9.3-5.6,13-15.8,9.4-25.5C539.9,847.6,536.9,855.6,534,863.5z"/>
<path d="M629.8,589.9c0.3,4.6,0.4,9.3,1,13.8c0.8,6.6,1.4,13.4,3.2,19.7c1.6,5.7,7.5,6.5,10.8,3c3.9-4,11.3-8,6.5-16.1
	c-0.5-0.8,0.5-2.5,0.9-3.7c1.7-6.4,3.5-12.9,6.3-19.6c0.4,4.6,1.1,9.1,1.1,13.7c0,5.1-0.9,10.1-1.1,15.2c-0.4,7.4,2.3,15.9-8.5,19
	c-2.1,0.6-3.6,4.9-4.5,7.7c-2,6.5,0.3,9.5,6.9,8.5c12.7-2,18.6-6.1,20.1-17.7c1.7-13.5,5.9-26.7,10.7-40.3c0,7.5-0.3,15.1,0.1,22.6
	c0.7,13,1.2,26,3,38.8c0.7,5.1,3.6,10.6,7,14.6c6.3,7.3,9.4,15.2,8.6,24.9c-5.9-3.3-8.1-1.2-8.2,4.8c-0.3,16.9-0.8,33.8-1.3,50.8
	c-0.1,2.6-0.2,5.3-1.8,8.1c-0.3-0.9-0.4-2-0.9-2.8c-1.9-4-1.3-10.4-8.5-9.5c-7.6,1-14.7,3.3-16.5,11.9c-1.3,6-1.4,12.3-2,18.5
	c-0.3,2.9-0.4,5.8-1.9,8.6c-1.1-3.9-2.4-7.8-3.1-11.8c-1.4-7.6-6-6.9-11.3-4.8c-13.1,5.1-21,21-19.2,37.2
	c1.3,11.7,1.7,23.5,2.3,35.3c0.1,1.7-1,3.5-1.7,5.7c-1.8-8-3.4-15.4-5.4-24.1c-8.3,7.9-8.1,16.4-0.9,58.4
	c14.7-9.3,29.9-17,42.7-27.6c15-12.4,18.6-30.5,18.8-51c-3.1,2.6-5.1,4.2-7,5.8c-0.8-0.3-1.7-0.5-2.5-0.8c9.5-13.3,11.4-28,9.2-43.4
	c0.7,0,1.4-0.1,2-0.1c0.6,2.4,1.4,4.7,1.9,7.1c0.5,2.8-0.2,6.1,1.2,8.3c7.5,11.8-0.1,23.9,0.8,35.8c0.9,12.4,0.6,24.8,0.6,37.2
	c0,2.1-1.3,4.1-3.4,6.1c-0.4-4-0.8-8.1-1.3-13.7c-9.3,6.7-11.1,15.3-12.8,23.6c-3.5,17.7-14.1,29-30.4,35.7c-0.7,0.3-1.6,0-2.8,0
	c2.7-4,5.7-7.3,7.5-11.2c2.7-5.5,0.4-8.5-5.8-8.2c-7.6,0.4-14.8,7.1-17,15.4c-1.6,6-3.7,11.8-5.5,17.7c-0.7-0.2-1.5-0.3-2.2-0.5
	c0-2.3,0-4.5,0-6.8c-8.5,0.1-12.5,5.4-13.2,16c-0.6,8-1.7,16-2.6,24.1c-1,0-2,0-3,0c0-9.4-0.1-18.7,0-28.1c0.1-4.7,0.3-9.4,0.8-14.1
	c0.5-4.6,0.5-9.5,2.1-13.8c3.8-10.2,2.2-17.2-6.6-21.2c12.5-16.3,7.6-34.9,6.9-53c-0.1-2.2-1-4.8-0.3-6.6c5.7-14.5,1.4-29,0.1-43.5
	c-0.5-5.9-2.7-11.7-2.7-17.7c5.9,7.9,11.8,15.8,18.3,24.5c6.7-17.9,23-23.3,37.1-31.5c17.3-10,29.8-24,33.7-44.2
	c1.4-7.5,1.2-16.1-6.3-19.5c-5.2-2.4-13.3-2.2-18.4,0.3c-6.8,3.3-10.8,10.6-10.4,19c0.1,2.8,0.4,5.5,0.5,7.6
	c-3.2-2.2-6.5-6.5-9.6-6.3c-7.1,0.5-18.4,13.7-18.7,19.9c-0.1,2.2,0.3,4.4,0.5,6.7c-9.9-5.9-11.1-15.8-3.9-24.1
	c4-4.6,6.8-10.1,10.2-15.3c-1-1.2-1.9-2.3-2.9-3.5c-3.3,1.4-7.5,2-9.8,4.4c-8,8.1-10.9,18.2-9.7,29.5c0.3,2.8,0.7,5.5,1.1,8.2
	c-0.7,0.5-1.3,0.9-2,1.4c-2.9-3.6-7-6.8-8.6-11c-6.3-15.8-7.8-31.6,2.3-46.9c5.4-8.2,10-17.1,15.2-25.4c9.9-15.8,9.9-33.8,11.7-51.5
	c0.1-1.4,0.2-2.8,0.4-4.1C628.4,590,629.1,590,629.8,589.9z"/>
<path d="M488,140.1c3.1-3.1,7.9-5.7,9-9.5c7.9-26.5,44.2-34.9,64.3-19c10.9,8.6,12.8,19.4,12,33.5c-5-6.4-9.1-11.6-13.8-17.7
	c-2.5,4.6-4,7.5-6.1,11.4c-1.1-3.3-1.9-5.6-2.7-7.8c-0.6,0-1.2,0-1.8-0.1c-1.6,8.5-3.1,16.9-4.7,25.4c-0.8,0-1.6,0-2.4,0
	c-0.4-6.2-0.9-12.4-1.3-18.5c-0.6-0.1-1.2-0.2-1.8-0.3c-1,2.7-1.6,5.6-3,8.1c-1.4,2.5-3.6,4.6-5.5,6.8c-0.7,0.8-1.9,1.5-2.1,2.4
	c-2,9.2-2.2,18.2,2.9,28.8c2.6-3.7,4.1-6,6.1-8.9c0.5,7.6-5,17.2,6.2,20.2c18.4,4.9,18.5,4.6,26.9-7.3c-3.2,15.8-6.4,31.5-9.7,47.3
	c-0.5-0.1-1.1-0.2-1.6-0.3c-1.5-4.6-3-9.1-5-15.2c-9,7.6-16.3,13.4-23,19.9c-2.1,2-3.1,5.8-3.4,8.9c-1.1,10.2-1.6,20.5-2.4,30.7
	c-0.7,0-1.4,0.1-2.1,0.1c-1.2-13.6-2.4-27.2-3.6-40.8c-0.9,0-1.9,0-2.8,0c-1.1,7.7-2.2,15.5-3.3,23.2c-0.8,0-1.6-0.1-2.4-0.1
	c0-13.3,0-26.5,0-39.8c-1.2-0.1-2.5-0.2-3.7-0.3c-0.9,8.5-1.8,16.9-2.6,25.4c-1,0-1.9-0.1-2.9-0.1c-0.7-12.4-0.1-25.1-2.5-37.2
	c-2.3-11.3-7.9-22-11.6-32c-20.8,5.9-13.5,25.3-19.8,37.8c-0.8-0.2-1.5-0.3-2.3-0.5c-0.2-2.9-0.4-5.8-0.5-8.7
	c-0.2-3.7,1.1-8.2-0.6-10.8c-5.7-8.8-0.8-16.1,1.2-24.4c3.3-13.6,7.6-28.1,5.9-41.6c-2.3-18.3,6.6-34.3,5.8-51.9
	c-0.4-7.8,0.7-15.8,1.2-23.6c0.1-1.8,0.7-3.5,2.9-5.1c1.3,13.4,2.4,26.9,4,40.3c0.5,4.1,2.7,8,4.1,12c2.2-3.8,5.8-7.3,6.4-11.3
	c1.1-8.3,0.5-16.8,0.5-25.2c0-1.4-0.6-2.8-0.4-4.1c3.2-21,6.5-42.1,9.2-59.9c2.3,20.7,5,44.9,7.8,70c12.1-4.5,15.1-12.9,17.8-22.1
	c1.2,5,1.9,10.3,3.7,15.1c1.6,4.1,3.8,8.3,6.9,11.4c7.1,7,17.1,4.1,19.7-5.4c1-3.8,2.6-8.1,1.8-11.6c-3.1-12.9,9.3-21.4,6.7-33.9
	c0.9,0.1,1.9,0.3,2.8,0.4c2.5,23.3,4.9,46.7,7.4,70c1,0.1,1.9,0.2,2.9,0.3c1.7-10,3.4-19.9,5.4-31.4c1.1,2,1.8,2.7,1.9,3.5
	c3.4,25.7,6.6,51.3,10.2,77c1.2,8.5,3.8,16.9,5.2,25.4c0.4,2.3-1.3,5-1.9,7.5c-0.4,1.6-0.9,3.4-0.5,4.8c0.7,3,1.6,6.1,3.2,8.7
	c5.5,9.4,9.9,18.6-0.1,27.5c-3.8-22.8-7.7-46.2-11.6-69.5c-0.7,0-1.5,0-2.2,0c-1,2-2,4-3.1,6.4c-0.5-0.9-1-1.5-1.1-2.1
	c-1.6-13.1-3.2-26.2-4.9-39.3c-0.8,0.1-1.5,0.1-2.3,0.2c0,4.2,0,8.5,0,12.7c-0.4,0.1-0.8,0.2-1.2,0.2c-2.4-8.1-4.9-16.3-7.9-26.5
	c-3,3.7-4.1,5-6.1,7.4c-0.9-6-1.6-10.7-2.4-15.5c-0.5,0-1-0.1-1.5-0.1c-0.9,2.4-1.9,4.9-3.4,8.8c-1.9-3.3-3.3-5.8-4-7.1
	c-5.8,0-10.8,0-16.4,0c-1.1-2.1-2.2-4.5-4.2-8.5c-0.9,4.8-1.5,7.6-2.1,11.1c-3.1-2.4-5.8-4.4-9.4-7.1c-2.3,5.3-4.2,9.5-6.9,15.8
	c-1.2-4.9-2-8.2-3.3-13.2c-3.3,7.1-5.8,12.6-9.2,20.2c-0.6-2.5-1-4.4-1.8-8c-2.4,7.1-3.5,11.2-5.1,14.9c-2,4.4-4.9,8.3-6.6,12.8
	c-1.1,2.9-0.7,6.4-0.9,9.6c-1.1,10-2.3,20-3.4,30c0.8,0.1,1.5,0.2,2.3,0.3C491.4,159.2,491.6,150.4,488,140.1z M561.2,202.8
	c-6.1,2.8-10.6,6.3-15.6,6.9c-5.4,0.7-13.5,0.9-16.4-2.4c-6.1-6.9-12.4-15.7-13.5-24.4c-1.6-12.5,0.7-25.6,2.8-38.3
	c2.7-16,12-24.7,27.5-27c4-0.6,8.3,0.4,12.9,0.7c-13.4-14.3-34-9.2-42.1,1.4c-15.7,20.5-22.1,43.1-12,67.9
	c4.4,10.9,10.6,21.2,22.1,26.9C538.8,220.5,555,215.7,561.2,202.8z"/>
<path d="M260.3,260.9c0,2.7-0.4,5.4,0.1,8c2.3,13.5,4.2,27.1,7.3,40.4c1.7,7.1,11.5,10.7,20.4,10.1c8.7-0.6,12.5-5.2,13.2-13.4
	c0.7-8.1,1.7-16.1,4.1-24.2c1.1,11.9,2.2,23.7,3.3,35.6c0.9,10.7,1.5,21.4,10.3,29.5c6.7,6.2,11.8,5.7,15.6-2.7
	c1.1-2.5,1.6-5.4,2.1-8.2c0.5-2.4,0.5-4.9,1.9-7.3c0.1,24.2,5.4,48.5-1.6,74.6c-7.2-10-12.6-5.3-17.9-0.3
	c-6.7,6.3-12,13.4-11.9,26.1c8.2-14.7,21.5-17.2,33.3-22.8c5.4-2.6,9.2-8.5,13.9-13.1c-1.4,19.6-2.9,39.9-4.3,60.2c-1,0-2.1,0-3.1,0
	c-0.6-5.1-1.2-10.3-1.8-15.4c-0.8-0.1-1.6-0.2-2.4-0.3c-1.1,3.2-2.5,6.4-3.3,9.6c-5.2,20.5-10.8,40.9-15.4,61.5
	c-3.2,14.4-10.3,26.4-19.8,36.8c-7.7,8.5-13.5,17.2-14.6,28.7c-0.2,1.9-1,3.7-2.9,5.5c-0.4-3.5-0.8-7.1-1.2-10.8
	c-4.2,2.3-4.3,2.3-8.6,21.2c-1.7,7.6-2.7,15.4-5.9,23.1c0-9.8-0.4-19.6,0.1-29.3c0.6-10.4,3.1-20.7,2.8-31
	c-0.6-18.8-3.4-37.5-4.1-56.3c-0.7-19.4,0-38.8,0-58.2c0-11.6,0.4-23.2-0.4-34.7c-0.8-12.6-8.2-21.8-18-29.7
	c12.2-36.9,0.3-75.5,6.2-113C258.6,260.9,259.5,260.9,260.3,260.9z M287.1,539.4c17.7-11.5,28.4-31.7,27.9-51.2
	c-0.4-15.5-0.8-31.1,5.1-45.9c0.7-1.7,0.1-4,0.1-8c-14.1,16.3-23.6,32.2-22,52.7c-3.1-6.9-6.1-13.8-9.2-20.8
	c-0.8,0.2-1.7,0.4-2.5,0.5c-1.2,7.9-2.5,15.9-3.6,23.8c-0.2,1.6-0.6,3.9,0.3,4.9c6,6.8,3.7,14.9,3.8,22.7
	C287.1,525,287.1,531.9,287.1,539.4z M296.9,343.6c-2.9,13.1-5.9,26.4-8.8,39.7c-1.6-7-1.8-13.9-1.5-20.7c0.3-7.8-3.6-12.9-10.9-19
	c2,31.6,3.9,61.1,6,92.8c3.7-5.6,6-8.7,7.8-12.1c1.8-3.5,3.4-7.1,4.6-10.9c5.4-16.5,1.6-38.3,25.9-43.8
	C312.2,360.9,305,352.8,296.9,343.6z"/>
<path d="M818.1,344.9c-1.9,3.8-3.7,7.6-5.6,11.4c-0.5-0.2-1-0.3-1.4-0.5c0.8-4.8,1.7-9.6,2.5-14.3c-13,19.7-28.9,38-25.4,64.1
	c0.8,6.2-2.9,13.1-4.6,19.6c-0.9-0.1-1.7-0.1-2.6-0.2c0.4-8.4,0.7-16.7,1.3-25.1c0.3-4.2,1.2-8.4,1.4-12.6
	c0.3-8.9,0.8-17.1,5.8-25.7c3.9-6.7,2.1-16.8,2.8-25.3c0.7-8.7,1.4-17.3,2.3-28.3c9,8.5,14.5,6,20.2,0.3c10-9.9,15.9-20.8,14.2-35.4
	c-0.6-4.6,1.4-9.5,2.5-15.6c1.8,2,2.3,2.3,2.5,2.7c1.1,4,2.1,11.4,3.3,11.5c6.1,0.2,14.8,0.6,17.9-3c7.5-8.8,15-19.1,17.6-30.1
	c3.8-15.6,3.2-32.3,4.5-48.5c0.1-1.1-0.6-2.6-0.1-3.3c10.2-13.8,6.8-30.4,9.7-45.6c0.2-1,1-1.8,1-1.8c1.1,12.1,2.6,24.7,3.3,37.4
	c0.2,3-2.9,6.1-3.2,9.3c-1.3,15.7-3,31.4-3,47.1c0,9.1,6.1,13.7,12.5,13.3c-3.3,17.6-6.6,35.5-10,53.3c-0.7-0.1-1.4-0.1-2.2-0.2
	c0-13.9,0-27.8,0-41.7c-0.8-0.4-1.7-0.7-2.5-1.1c-3.7,4.3-7.7,8.4-10.9,13c-7.5,11-13.6,22.3-17,35.6c-3.4,13.3-9.9,25.7-14.5,38.6
	c-4.1,11.6-7.5,23.4-11.2,35.1c-0.9,2.8-1.5,5.7-3.9,8.6c-0.9-2.9-1.8-5.7-2.8-9c-6.8,6.6-8.7,24.5-3.1,29.8
	c6.9,6.6,15.1,2.7,22.3,0.6c10.8-3.2,16.6-3.3,24,1.7c10.1-12.7,9-27.4,7.4-42.3c5.6,15.2,9.7,30.4,4.9,46.5
	c-7.4,24.9-8.7,50.5-8.7,76.2c0,18.5,1.5,37-2.1,55.3c-0.6,3.1,1.6,6.8,2.5,10.3c2.8-2.4,5.7-4.7,8.3-7.2c0.9-0.9,1.2-2.3,2.1-3.9
	c9.4,33.9-41.3,92.4-74.7,85.5c23.7-8.8,40.6-23.2,46.5-48.2c0.5,2,1,3.9,1.5,6.1c8.1-7.2,7.5-16.2-0.8-19.5c2-3.7,5.6-7.4,5.6-11
	c0-3.4-3.9-6.8-6.4-10.5c11.1-9.9,9.3-24.2,7.7-36.8c-2.1-16.5,0.6-32.9-1.6-49.2c-1.2-8.7-3.9-17.2-6.2-27.3c-4.5,7-8,12.3-11,16.9
	c-1.2-6.2-0.9-13.1-4-17.4c-2.7-3.7-9.6-6.3-14.4-5.9c-3.5,0.3-7.4,5.7-9.7,9.7c-1.8,3.2-2,7.5-2.2,11.4c-0.7,12.9,7,17.1,17.4,18.4
	c2.1,0.3,4.2-0.1,7-0.3c-7.1,6.1-18.3,5.9-25.6-0.7c-6.8-6.2-9.3-14.2-8.4-23.7c1.8-17.9,2.5-35.8,4.2-53.7c0.5-5.3,1.7-11,4.3-15.5
	C814.7,364.5,819.6,355.9,818.1,344.9z M840.4,306.1c-10.7,8.2-14.6,19.6-11.1,30.6C833,326.7,836.3,317.6,840.4,306.1z"/>
<path d="M394.3,573.5c0.3,3,0.6,5.9,0.8,8.9c1.6,22.7,3.6,45.5,4.4,68.2c0.4,10.2-2.7,20.5-2.6,30.8c0.1,8.2,2.3,16.5,4.3,24.6
	c1.2,4.7,4.9,4.9,8.7,2.3c7.1-4.9,10.1-12,10.6-20.2c0.5-7.8,0.7-15.6,1.8-24.6c3.9,7.7,8,6.4,10.5,1.1c3-6.2,5.3-12.9,6.4-19.6
	c1.1-6.2,0.2-12.6,2.3-19.1c0.4,0.5,1.3,1.1,1.3,1.6c-0.4,12.8,5.8,22,13.4,32.2c16.7,22.6,14.6,61.7-1.9,84.7c-2,2.7-4.6,5-5.8,6.3
	c2.4-10.3,5.6-21.1,7.3-32.1c0.6-3.7-1.5-9.1-4.2-11.6c-1.7-1.6-9-0.5-10.3,1.5c-2.3,3.9-3.9,9.9-2.6,14c4.2,13.1,3.6,17.1-7.4,25
	c-2.7,1.9-5.6,3.5-9.5,4.2c0.8-1.5,2.4-3.1,2.4-4.6c-0.1-3.9-0.9-7.7-1.5-11.6c-3.8,0.9-8.6,0.8-11.4,3c-5.7,4.6-7.7,11.6-4.7,18.4
	c3.1,6.9,6.8,13.8,16.6,12.9c5.9-0.5,11.8-0.4,17.7,0c3.4,0.2,6.7,1.5,9.8,4c-3.4,1.2-6.8,2.5-10.8,3.9c5.5,4.2,10.9,7,14.2,11.4
	c3.3,4.3,4.6,10.2,6.8,15.4c-0.8,0.3-1.6,0.7-2.3,1c-1.2-2.4-2.4-4.8-3.6-7.3c-1,0-2,0-2.9,0c-0.4,5.7-3,12.7-0.7,17
	c4.4,8.1,3,15.8,2.6,23.8c-0.9,20.8-2.3,41.6-3.4,61.1c-5,0-10.6-0.9-15.8,0.2c-7.9,1.7-12.7-1.3-15.3-8c-3.2-8.3-7.1-16.4-4.1-26.1
	c1-3.3-1.2-7.6-2.3-13.4c-7.7,6.8-8.2,13-7,19.9c0.3,1.7,0.7,4.1-0.2,5c-6.9,6.8-9.2,15.3-9.7,24.5c0,0.8-1.2,1.6-2.4,3.2
	c-6.1-12.6-6.1-25.1-5.6-38c0.6-16.5,0.2-33.1,0.2-50.8c-3.5,1-5.6,1.6-9,2.5c1.4-8.5,3.7-16.4,3.9-24.4c0.4-22.5-0.1-45.1-0.1-67.6
	c0-3.3,0.7-6.6,1.1-9.9c1-8.6,3.4-17.4,2.5-25.8c-1.4-13.3-1.2-25.8,1.2-39.2c3.6-19.8,3.1-40.4,4.2-60.6c0.3-6.2,0.1-12.3,0.1-18.5
	C392.8,573.5,393.5,573.5,394.3,573.5z M402.3,783c0,18.8,0,38.7,0,58.8c1-1.5,2-3.2,3.1-4.7c6.6-8.3,13.6-8.3,18.2,1
	c3.3,6.7,5,14.1,7.2,21.3c2.1,6.8,3.8,13.6,5.7,20.4c0.8-0.1,1.6-0.3,2.4-0.4c0.4-1.2,1.1-2.4,1.2-3.7c0.6-14.9,1.1-29.7,1.5-44.6
	c0-1.5-0.8-3.1-1.4-4.5c-1.6-4-4.3-7.9-4.9-12c-1-6.6-0.5-13.5-1.3-20.2c-0.3-2.2-2.2-5.7-4-6.1C421.6,786.2,413,785,402.3,783z
	 M426.5,701.6c9.7-4.2,19.3-8.4,31-13.5c-3.3-7.8-7.1-16.5-10.4-24.2c-6.5,4.6-11.9,8.3-17,12.3c-1.7,1.4-3.3,3.9-3.5,6
	C426.2,689,426.5,695.7,426.5,701.6z"/>
<path d="M755.3,797.8c2.3,11.8,4.7,25.1,7.6,38.3c1.7,7.9,11,8.8,18.2,1.3c3.5-3.6,5.6-8.6,8.3-12.9c1.3,1.2,2.7,2.4,4,3.6
	c-0.5,1.3-0.7,2.8-1.5,3.8c-5.4,7.3-3.8,12.7,4.5,16.3c4.1,1.8,7.9,4.4,12.8,7.2c0-4.2,0-7.1,0-10.1c0.6-0.2,1.2-0.5,1.8-0.7
	c2.1,4.8,4.2,9.5,6.3,14.2c9.8-5.1,14.7-29.9,8.4-47.5c-7.5,6.6-4.5,15.2-6.5,22.7c-8-15.6-2.2-33.3-6.1-51.7
	c-1.9,4.3-2.9,6.7-3.9,9.1c-0.5,0-1,0-1.6,0c0-2.4,0.2-4.9-0.1-7.3c-0.3-3.1-0.3-6.6-1.8-9c-3.7-5.9-7.2-14.1-12.7-16.3
	c-7.2-2.8-14.2,3-18.5,10.8c0.2-11.2-7-18.1-13.6-25.1c-1.9-2-4.5-3.3-6.9-4.6c-4.2-2.3-10.4-3.3-12.4-6.8c-3.4-5.9-4.4-13.2-6-20
	c-0.5-2.3,0.1-4.8,0.3-8.9c-11.2,7.2-7.7,19.1-12.1,27.4c-0.9-0.1-1.7-0.2-2.6-0.4c0.9-7.7,1.7-15.4,2.6-23.1
	c0.1-0.8,0.4-1.7,0.4-2.5c0.5-11.3,0.8-22.6,1.7-33.8c0.2-2.9,2-5.6,3.2-8.4c3.7-9.3,8-18.4,10.8-27.9c2-6.9,2.1-14.3,3-21.5
	c0.9,0,1.7,0,2.6,0.1c0,8.1-0.3,16.2,0.1,24.3c0.3,6.6,0.9,13.4,2.4,19.8c1.3,5.2,7.4,6.1,11.3,1.4c3.5-4.3,6.2-9.4,8.1-14.6
	c2.9-7.5,4.8-15.4,8.9-23.3c0.6,4.4,1.5,8.9,1.6,13.3c0.3,7.8,2.8,13.1,11.7,13.3c4.2,0.1,8.6,0.3,12.6,1.3c4.6,1.3,9,3.6,15.3,6.2
	c-3.2,1.7-3.9,2.2-4.1,2.1c-5.2-4-11.5-4.7-14.8,0.5c-1.6,2.5,1.4,10.2,4.6,12.8c7.4,6.2,15.8,11.7,24.6,16
	c13.5,6.7,20,16.1,17.7,28.1c-3.7-3.8-7.2-10.3-11.6-10.9c-4.3-0.6-9.5,4.8-14.6,7.7c-1.2-7.1,4.4-19.6-10-21.2
	c-10.7-1.1-10.3,9.2-14.4,18c0-8.8-0.5-15.2,0.1-21.5c1-10.4-6-18.2-16.4-17c-9.7,1.2-15.4,8.4-19.2,16.2c-1.9,3.9,0.1,9.6,1.2,14.5
	c-5.9,9.5-5.5,16.6,3.2,24.3c9.7-6.5,8.6-17.3,11.7-26.9c0,7.4,0,14.7,0,22.1c0,2.8-0.9,6.2,0.3,8.3c2.3,4.1,5.9,7.6,8.9,11.3
	c3.1-2.8,6.3-5.4,9.2-8.4c1.5-1.5,2.5-3.6,5.2-6c-1.1,19.4,0.8,36.8,24.8,41.4c1.6-7.2,3.3-15,5.1-23.4c5,11.3,8.6,22,3.7,34.3
	c-2.9,7.3-3.4,15.1,1.9,22.4c2.4,3.2,4.1,7.9,3.9,11.8c-1.1,18.3-2.8,36.5-4.9,54.7c-0.5,4.7-3.5,9.1-7.1,13.1
	c0.7-4.9,1.4-9.7,2.1-14.6c-1-0.5-2-1-3-1.5c-4.8,6.6-11.1,12.6-14.3,19.9c-7.6,17.4-21.7,26.5-38.5,34.7
	c7.4-7.2,15.4-12.8,20.3-20.4c5.1-7.9,8.7-17.5,10.4-26.8c1.8-9.6-6.6-14.8-16.4-12.4c-10.9,2.8-21.4,2.5-29.5-7
	c-0.7-0.9-1.5-1.7-2.4-2.4c-5.9-4.5-11.1-11.3-20.1-7.2c-6.6,3-11.6,13.5-10.8,23.3c0.3,3.2,1.2,6.4,1.2,9.8
	c-6.7-10.6-4.8-22.6-4.8-34.1c0.1-9.7,1-19.5,2.4-29.1c0.6-4.2,3.4-8.1,6.9-11.6c-0.4,3.6-1.1,7.1-1.3,10.7
	c-0.6,15,4.7,19.7,20.5,18.3c1.6,3,3.2,6,4.8,8.9c0.8-0.2,1.5-0.3,2.3-0.5C757.3,824,749.8,809.5,755.3,797.8z"/>
<path d="M748.5,492c1.1-8.8,2.4-17.6,3.3-26.5c1.7-16.8,4.7-33.6,4.2-50.3c-0.4-13.9-4.9-27.6-7.5-41.5c-3.7-19.7-6-39.4-3.4-59.5
	c0.4-3.5,1-7,2.5-10.5c-3.1,22.2,6.3,42,8.4,63.2c1.3,0.1,2.6,0.1,3.9,0.2c1.2-3.1,3.3-6.3,3.3-9.4c-0.2-12-1-24.1-1.6-36.1
	c-0.1-1.9-0.8-4.2-0.1-5.8c7.4-17.2,9.3-35.3,8.9-53.8c0-0.7,0.6-1.5,2.3-2.3c0.2,3.1,0.3,6.1,0.5,9.2c0.1,3.1-0.5,6.4,0.4,9.3
	c3.2,10.4-0.2,20.4-0.5,30.5c-0.4,16.2,2.2,32.4,3.5,48.7c0.3,4.2,0.4,8.4,0.6,12.6c-0.8,0-1.5,0.1-2.3,0.1c-0.3-2.2-0.7-4.3-1-6.5
	c-0.7-0.2-1.5-0.3-2.2-0.5c-1.7,5.7-4.4,11.2-4.8,17c-1.3,19.4-1.4,38.8-2.7,58.2c-0.9,13.7-3.1,27.4-4.7,41.1
	c-0.3,2.5-0.5,5-0.5,7.5c0,1.7,0.7,3.3,0.7,5c0.1,26.8,0,53.7,0.1,80.5c0,9.3,0.7,18.6,0.3,27.8c-0.4,8.9-1.7,17.8-3.5,26.7
	c-1.1-12.5-7.9-23.8-4.4-37.3c4-15.4,1.8-30.5-5.9-44.9c-2.4-4.5-2.8-10-4.4-16.1c-2.4,1.6-4,2.7-6.1,4c-0.4-1.1-0.8-2-1-3
	c-2.1-11.9-3.6-23.9-6.4-35.6c-0.7-2.9-5.8-7.4-7.6-6.9c-3.3,1-7.6,5-7.9,8.1c-1.4,12.5-4.6,25.3,2.1,37.4c0.6,1.1,0.9,2.7,0.7,4
	c-3,21.5-6.1,42.9-9.5,66.3c-1.1-10.8-2.7-20.1-2.9-29.4c-0.6-26,1-52.1-1.8-77.8c-1.5-13.6-0.6-25.7,1.2-39
	c2.8-20.5,1.4-41.6,1.7-62.4c0.1-9,0.1-18,0.1-26.9c0-2.8,0.6-5.8-0.2-8.4c-1.3-4.3-3.5-8.4-5.3-12.6c-3,2.9-5.9,5.8-8.9,8.6
	c-0.3,0.3-0.9,0.4-3.7,1.6c1.6-4.8,2-8.7,3.9-11.4c6.6-9.5,8.6-20,8.4-31.3c-0.3-14.6-0.1-29.2-0.1-43.8c1.1,0,2.1,0,3.2,0
	c1.4,12.4,2.8,24.7,4.2,37.1c1,0.1,2,0.3,2.9,0.4c0.9-6.5,1.8-13.1,2.8-19.6c0.4,0,0.8,0,1.2,0.1c0.6,6.2-0.7,13.6,2.2,18.4
	c11.4,18.7,8.6,39.6,11.2,59.6c1.6,12,5.8,22.1,13,31.5c2.6,3.4,3.4,8.1,5.6,13.5c-2.8-0.8-3.5-0.7-3.8-1c-2.6-3-5.1-6.1-7.6-9.1
	c-2.3,3.9-5.4,7.5-6.7,11.6c-3,10.3,1.6,19.3,6.4,28.1c2.2,4.1,5.5,8.3,0.1,12.7c-0.8,0.6-0.9,2.8-0.5,4c4,11.8,8.2,23.5,12.3,35.3
	C746.3,492.4,747.4,492.2,748.5,492z"/>
<path d="M435.1,518c-11.5,2.6-18.3-1-20.9-9.1c-3-9.1-6.3-18.1-8.1-27.5c-2.1-10.6-2.9-21.5-4.1-32.2c-0.6-5.6-0.4-11.3-1.5-16.8
	c-0.5-2.7-2.7-7-4.6-7.2c-9.4-1.4-17-4.9-20-15.5c-0.7,0.5-1.4,1-2,1.4c-0.7,10.8-1.4,21.7-1.9,32.5c-0.5,9-1.3,18.1-0.9,27.1
	c0.4,8.9,4.3,10.7,10.4,7.4c2.3,9.7,4.6,19.7,7.1,30.6c-3.9-2.8-8.1-5.7-12-8.8c-4.8-3.8-9.3-4.7-14.3-0.1
	c-13.8,12.9-25.1,26.8-28.5,46.6c-3,18-9.6,35.3-13.3,53.1c-2.6,12.1-3,24.6-4.4,36.9c-0.3,2.4-0.6,4.9-0.9,7.3c-0.8,0-1.6,0-2.5,0
	c0-20.8,0-41.5,0-61.5c1.8-2.6,4.6-5,5-7.8c1.3-7.2,1.8-14.6,2.2-21.9c1.3-20.2,10.8-36.8,23.6-51.4c19.2-21.7,21-46.9,17.3-73.7
	c-0.4-3-1.6-6.4-0.7-9.1c6.5-20.7,5-41.8,4.8-63c-0.1-13,1.1-25.9,1.7-38.9c0.9,0,1.8,0,2.7,0c1,11,2.1,21.9,3.2,33.8
	c9.6-4.4,9.6-13.4,12.3-20.2c2.7-6.7,4.2-14.2,4.5-21.4c0.6-12.1,3.2-23.3,8.7-34.3c4-7.9,5-17.3,7.4-26c0.5-1.7,1-3.4,2.5-4.9
	c-0.7,12.5-2.3,25.1-1.7,37.5c0.7,13.2,3.5,26.2,5.3,39.3c0.4,2.7,0.7,5.6,0.5,8.3c-3.4,40.3-3,80.7,0.4,121c0.4,5.2,4.4,10.1,7,15
	c2.7,4.9,3.2,9.3,1.9,15.1c-2.9,13.2-2.9,26.5,9.3,36.2C431.7,517,433.5,517.3,435.1,518z M393.1,404.6c-4.2-3.8-6.3-5.7-8.4-7.6
	c-0.9,1-1.9,2.1-2.8,3.1c5,4.6,10.1,9.3,15.1,13.9c0.8-0.6,1.6-1.2,2.4-1.8c-1-6.5-2.7-13-2.7-19.5c0.1-18.3,1-36.6,1.4-54.9
	c0.1-5.4-0.5-10.7-0.8-17.6c-2.3,2-3.2,2.4-3.4,3.1c-3.5,15.1-7.1,29.9-18.2,42c-2.9,3.2-2.5,8.2,3.1,11.9
	C387.5,382.8,390.9,392.3,393.1,404.6z"/>
<path d="M775.3,318.5c2.6-4.5,4.6-9.5,7.9-13.4c7.6-8.9,8.5-13.5,3-23.4c-2.4-4.4-3.9-8-1.9-13.8c1.2-3.4-3.8-10-7.3-13.9
	c-7-7.8-15.5-14.4-13.9-26.5c0.2-1.3,0.4-2.5,1.9-4.3c-2.3,15.9,8.3,22.8,19,30c9.9,6.7,14.4,16.5,14.5,29c1.2-1.8,2.3-3.6,3.5-5.5
	c-0.8,12.4,0.3,25.3-13.7,32.2c-4.2,2-6.8,7.1-10.2,10.7C777.1,319.1,776.2,318.8,775.3,318.5z"/>
</svg>
