<?xml version="1.0" encoding="utf-8"?>
<!-- Generator: Adobe Illustrator 21.0.0, SVG Export Plug-In . SVG Version: 6.00 Build 0)  -->
<svg version="1.1" id="Layer_3" xmlns="http://www.w3.org/2000/svg" xmlns:xlink="http://www.w3.org/1999/xlink" x="0px" y="0px"
	 viewBox="0 0 1000 1000" style="enable-background:new 0 0 1000 1000;" xml:space="preserve">
<path d="M595.7,741.6c0.6,1.4,0.8,3.3,1.8,4.2c5.7,5,11.6,9.6,17.4,14.5c1.2,1,1.9,2.5,2,4.6c-8.6-6.9-17.2-13.7-25.7-20.6
	c-0.9,0.7-1.8,1.3-2.7,2c2.5,6.8,4.9,13.6,7.7,20.2c3.1,7.4,5.7,15.1,10.2,21.7c7.7,11.3,16.5,22,25.1,32.6c1.1,1.4,4.1,1.5,6.3,1.7
	c14.6,1.1,29,2.6,42.1,10.2c2.5,1.5,5.8,1.7,8.8,2.1c17,1.9,18.7,3.9,20.6,19.5c2.5,0.3,5,0.7,7.6,1c0,0.1,0,0.3,0,0.4
	c-3,0-5.9,0-8.8,0c-3.3-15.4-4.2-15.6-20.3-17.9c-7.9-1.1-15.4-4.5-23.1-6.6c-6.3-1.7-12.8-4.6-19.1-4.3
	c-13.7,0.6-19.7-7.9-25.7-17.8c-2-3.4-5.9-5.7-9-8.4c-0.9-0.8-2.6-0.8-3.3-1.7c-4.7-6.1-11.7-11.9-13.1-18.7
	c-1.7-8.6-4.4-15.8-10-22.5c1.6,1.2,3.1,2.5,4.9,3.8c0.1-0.8,0.6-1.6,0.3-2c-7.4-11.8-16.5-21.8-29.2-28.2
	c-8.5-4.3-10.4-7.9-10.1-17.2c5,0.5,10,1.1,15,1.6c2.2,0.2,4.5,0.3,6.7,0.6c10.4,1.5,20.9,3,31.3,4.8c13.1,2.2,26.2,4.3,39.1,7.4
	c9.2,2.2,18,6.1,26.9,9.1c5.4,1.8,10.7,4.6,16.2,4.8c4.5,0.2,10-1.7,13.5-4.6c9-7.4,19.1-14.7,25.1-24.3c8.5-13.6,26.1-19.4,30-36.4
	c11.2-4,13.5-15.1,18.5-23.9c6.6-11.5,13.3-23.1,18.4-35.3c4-9.7,4.5-21,8.7-30.6c3.1-7,2.4-14,3.8-21.2
	c-6.3,6.7-11.8,14.5-19.1,19.9c-5.6,4.2-7.3,9-8.5,14.9c-0.2,1-0.6,2.2-0.2,2.9c5.7,9.3-1.7,15.2-5,22.1c-0.6-0.2-1.3-0.5-1.9-0.7
	c1.2-2.5,2.4-5,3.6-7.5c2.1-4.1,4-7.7,1.2-12.7c-2.2-3.9,3-15.4,6.9-18.2c11-8,15.8-20.5,22.7-31.6c5.1-8.2,5.4-16.6,1.5-24.5
	c-4.1-8.4-10-15.9-15.5-24.4c-1.7,6.1-2.9,10.8-4.2,15.5c-0.8-0.2-1.6-0.4-2.4-0.6c0-1.8,0.8-4.2-0.1-5.2c-6.2-6.4-1.3-13.4-1.4-20
	c-0.4-15.9,7.1-27,20.6-35.9c8.3-5.5,13.9-15.1,20.5-23c0.8-0.9,0.6-2.9,0.3-4.3c-1.5-7.4-3.1-14.7-6-22.1
	c-0.4,4.4-0.8,8.8-1.2,13.2c-6.4-2.2-6.2-6.1-5-11c1.2-5,0-9.1-5.8-11.1c-1.4-0.5-2-3.1-3.2-5.1c-8,4.5-2.8,11-1.1,14.2
	c7.9,14.8,4.5,27-5.4,39c-1.6,1.9-1.8,5-2.7,7.5c0.6,0.2,1.2,0.5,1.8,0.7c-2.2,1-4.4,2.1-8.5,4c5.4-10,9.5-18.7,14.5-26.8
	c3.7-6.1,2.7-11.9-1.7-15.8c-10.2-9.1-10.8-21.6-12.1-33.2c-1.6-13.9-0.5-28.1-0.8-42.2c-0.1-2.9-1-5.7-1.5-8.5
	c-0.9-0.3-1.9-0.7-2.8-1c-7.7,13.5-16.1,26.7-23,40.6c-4.4,8.9-6.6,19-10.1,28.5c-2.7,7.3-1.9,13.7,2.8,19.9c1.8,2.3,3,5.1,4.6,8
	c5.1-23.8,10.1-47.3,15.1-70.7c0.9,0.2,1.9,0.4,2.8,0.6c-2.2,9.9-4.6,19.8-6.5,29.7c-1.5,7.9-3.1,15.8-3.6,23.8
	c-0.8,13.3-1.1,26.6-0.9,40c0,3.3,2.5,6.5,4,9.9c10.4-9.6,7.1-20.5,6.3-31.1c4.3,7.7,6.3,15.6,4.4,24.5c-2.7,12.7-5.6,25.5-7.2,38.3
	c-2.4,20-3.6,40.2-5.4,60.3c-0.2,1.9-0.7,3.8-2.4,5.6c0-26.6,0-53.2,0-77.8c-9.1-5.7-16.5-10.3-24.5-15.4
	c-4.5,20.1-2.2,39.7,4.9,59.2c7.6-4.5,10.5-13.3,8.2-20.9c-1.8-6.2-2.5-12.8-4-21.1c12.4,10,13.4,60.1,3.9,80.6
	c0.6-5.7,1.2-12.2,2-20.7c-12.4,9.1-18.8,18.9-21,31.3c-0.4,2.2,0.7,4.8,1.7,6.9c2.6,5.6,6.4,10.8,8.3,16.7
	c4.3,13.7,3.8,14.1-8.9,20.7c0.3,2.4,0.6,4.8,0.9,7.3c-3.1-4.4-4-8.1,1.8-11c2.8-1.4,6.9-2.2,2.9-8.5c-6.2-9.8-9.5-21.5-13.6-32.5
	c-2.5-6.9-0.3-13.2,5.2-18c6.6-5.8,5.7-16.2-1.7-21c-2.1-1.3-4.4-3.9-4.8-6.1c-2.4-15.2-4.3-30.4-8-46.4c-2.6,7.1-5.9,14.1-7.6,21.4
	c-1.8,7.5-2.1,15.4-2.8,23.1c-0.8,7.9-1.4,15.9-3,23.7c0-16.4,0-32.8,0-50.5c-7.3,13.2-7.3,27-9.4,42.2c0-11.5,0.1-21.1-0.1-30.6
	c0-1.5-2-2.9-3.6-5.1c-11.7,12.7-7.1,28.6-10.7,43.2c-0.5-2.2-1.1-4.4-1.4-6.6c-0.8-6.1-1.7-12.1-2.1-18.2c-0.2-3.4-0.3-7.3,1-10.2
	c5.2-11.7,11.1-23.1,16.6-34.7c1.5-3.1,2.1-6.6,3.2-10.3c-10.4,2-13.1,10.6-16.9,17.4c-3.4,6-4.5,13.2-7.1,19.7
	c-2.5,6.1-5.6,11.9-7.9,16.7c2.6,5.7,4.8,10.8,7.1,15.8c-0.5,0.2-1,0.5-1.5,0.7c-2.8-4.6-5.8-9-8.3-13.7c-0.7-1.3-0.7-3.6,0-5.1
	c5.5-13.1,11.2-26.2,16.8-39.3c1.2-2.8,1.8-5.9,1.7-9.3c-19,7.4-13.2,26.2-17.7,40.2c-0.9-0.1-1.7-0.2-2.6-0.3
	c0.3-4.9,0.5-9.9,0.8-15.4c-6.6,14.2-3.5,27.6,0.2,41.1c3.2,11.4,10.2,20,18,28.4c10.7,11.5,20.8,23.5,30.4,34.4
	c-1.8-7.4-4-15.6-5.8-24c-0.2-1,2.1-2.5,3.9-3.7c-4.4,10,0.8,17.1,5.8,24.7c2.1,3.2,1.3,8.3,1.9,13.9c-5.7-2.2-9.3-3.7-14.4-5.7
	c1.3,8,2,14.9,3.5,21.5c2.1,8.9,0.3,17.1-3.6,25c-5.3,10.8-20.2,14.5-32.3,7c4.5-4.6,8.5-9.3,13-13.3c4-3.5,5.7-7.2,6.9-12.5
	c4.6-19.8-10-29-21.5-42.3c-6.6,13.1-1.4,27.1-6.6,41.4c-4.4-17.9,2-35.2-9-49.9c-0.6,5.3-1.2,10.6-1.7,15.9
	c-0.4,0.1-0.9,0.1-1.3,0.2c-0.9-8.9-1.8-17.8-2.8-26.9c-5.3-0.6-6.7,1.9-6.5,7c0.4,8.2,0.1,16.5,0.1,24.8c-0.8,0-1.6,0-2.4,0
	c0-8.3,0-16.6,0-24.9c0-8.3,0.7-16.6-0.2-24.8c-0.9-8.1-3.3-16.1-6.6-23.7c-0.7,3.8-1.3,7.6-1.7,9.4c-2.1-7.5-4.5-16.3-6.9-25.1
	c-0.8,0.2-1.6,0.4-2.4,0.6c-0.3,3-0.7,5.9-1,8.9c-0.6-0.1-1.1-0.1-1.7-0.2c0-3.8,0-7.5,0-11.3c-2.5-1.6-4.8-3.2-6.6-4.3
	c-3.1,3.4-6.2,6.7-9,10.2c-0.9,1.1-1.9,2.9-1.5,3.9c2.9,7.6,6.1,15,9.2,22.5c0.4,0.9,0.9,1.9,0.8,2.8c-1.3,10.2,3.5,17.8,10,24.9
	c1.3,1.4,1.6,5.6,0.6,6.7c-4.8,5.1-3.3,10-0.8,15.3c4.5,9.6,8.8,19.2,13.1,28.8c0.5,1.1,0.7,2.2,0,3.7
	c-5.9-12.3-12.4-24.4-17.4-37.1c-1.5-3.8,1.4-9.3,2.5-14.8c-4.6-6.2-10.1-13.6-15.6-21c-3.6,12.1,0.3,22.4,5,32.1
	c8.9,18.6,19.3,36.4,28.2,55c5.8,12.2,4.1,23.4-11.5,26.2c-6,1.1-11.5,4.9-17.3,7c-2.1,0.8-4.6,0.5-6.4,0.7
	c6.9-5.1,13.9-9.8,20.5-15.2c3.4-2.8,3.9-6.3,0.9-10.6c-5.3-7.8-9.6-16.4-15-24.2c-1.6-2.3-5.3-3-8.1-4.5c-1.2,2.8-3.8,5.9-3.4,8.4
	c0.6,3.6,1.2,6.1-1.3,9.7c-2.1,3-1.8,7.7-2.1,11.6c-0.3,2.7,2.5,6.3-2.5,7.6c-0.1,0,0.4,2.5,0.8,4.9c-3.4,3.2-6.7,2.9-8.7-3.3
	c-3.2-9.7-5.8-19.6-7.5-29.7c-1.5-9-1.5-18.2-1.5-27.4c5.7,17,1.8,36,10.5,53c9.7-17.2,7.1-56.3-5.4-87.9c-9,7,0.1,22.1-12.4,27.8
	c10.6-28.7,16-68.3,10.2-77.2c-0.9,6.9-1.7,13.2-2.4,19.5c-0.4,0-0.8-0.1-1.2-0.1c0-8.5,0-17-0.1-25.5c0-0.5-1-1-2-1.9
	c-0.8,4.6-1.5,9-2.6,15.1c-1-5.8-1.3-9.8-2.4-13.6c-0.6-1.9-2.5-3.4-3.7-5.1c-0.7,2.2-2,4.4-1.9,6.6c0.2,8,0.8,16.1,1.2,24.1
	c0,0.7-0.3,1.5-0.7,3.3c-1.8-13.1-3.4-25.2-5.1-37.2c-0.5,0.1-1,0.1-1.6,0.2c1.2,13.2,4.4,26.6,3.1,39.5c-1.9,18.6,2.3,37.4-4.6,56
	c-3,8,0.3,18.5,1.2,27.8c0.5,4.7,2.3,9.3,3,14c1.1,7.6,2.7,14.7,8.4,20.5c4.3,4.4,7.3,10.1,11.8,14.2c11.1,10.1,24.1,7.6,37.2,4.9
	c16.1-3.3,32.2-6.3,48.5-8.6c4.5-0.6,9.6,1.1,14.1,2.8c10.2,3.7,20.3,7.8,30.2,12c4.7,2,9.2,4.6,15.4,7.8c-6.6,2.5-11.6,4-16.4,6.2
	c-12.3,5.7-24.1,12.9-36.8,17.2c-6.2,2.1-14.8,0.8-21.2-1.8c-22.3-9.1-45.8-9.6-69.2-11c-15.8-1-31.7-0.6-47.5-0.8
	c-1.5,0-2.9,0.5-5.5,1c2.3,15.7,3.2,31.5,7.3,46.4c4.5,16.7,1.3,30-9.6,43c-5.5,6.5-8.9,14.7-13,21.7
	c-11.3-10.8-23.2-21.6-34.3-33.1c-2.2-2.3-2.4-7.6-1.9-11.3c2.8-20,6.1-39.9,9.3-59.9c0.3-2,0.3-4,0.6-6.7c-4.8,0-9.3-0.4-13.7,0.1
	c-19.6,2.1-39.1,4.5-58.7,6.7c-13.5,1.6-27,3.7-40.6,4.4c-4.6,0.3-9.5-2.7-14.1-4.5c-10-4-20-8.2-29.9-12.5
	c-1.9-0.8-3.7-2.2-5.5-3.3c1.6-1.7,3-3.8,4.9-5c9.8-5.8,19.4-11.8,29.7-16.6c4.4-2.1,10.5-2.7,15.3-1.6c22.6,5.2,45.3,8,68.4,7.7
	c10.8-0.2,19.3-7.5,20.6-18.4c0.3-2.2,0.6-4.6,1.5-6.6c5.2-12.1,1.3-23.6-1.5-35.3c-1.1-4.4-1.2-9.6,0.2-13.9
	c7.9-24.3-0.3-46.7-6.4-70.1c-2.2,5.6-4.1,10.3-6,15.1c-0.7-0.2-1.3-0.3-2-0.5c-0.2-1.8-0.3-3.7-0.5-5.5c-0.6,0-1.1,0-1.7,0
	c-0.7,13.5-1.4,26.9-2.1,40.4c-0.4,0-0.8,0-1.2-0.1c0-9,0-18,0-27c0-9.1,0-18.2,0-27.3c-0.8,0-1.6-0.1-2.4-0.1
	c-0.7,4.6-1.3,9.2-2.3,16c-0.8-6.7-1.3-11.2-1.8-15.7c-1.1-0.1-2.1-0.2-3.2-0.2c-1,8.9-2.2,17.7-2.9,26.6
	c-0.6,8.7-0.6,17.5-1.6,26.1c-1.5-13.7-2.9-27.3-4.4-41c-0.8,0-1.7,0-2.5,0c-1.1,17.9-7.5,35.6-2.2,53.6
	c5.1,17.1,5.4,36.2,20.2,48.9c4.1-7.9,4.3-11.5,1.4-37.8c5.9,6.7,9,14.2,6.9,22.9c-2.7,11.2-3.4,22.3-2.4,33.9
	c1,10.8-1.8,12.1-12.4,9.7c-9.9-2.2-19.2-6-29.8-6.8c-13.3-1.1-25.1-8.3-32.6-20.7c-1.9-3.1-5.4-5.3-8.1-7.9c0.5-0.5,1-1,1.5-1.5
	c5.4,5.8,10.7,11.6,16.2,17.2c1.2,1.2,2.8,2.3,4.4,2.8c11.1,3.9,22.4,6.5,34.2,6.3c4.7-0.1,9.3-1.1,16.1-1.9
	c-10.1-14.8-18.7-27.3-28.2-41.3c-0.7,7.5-1.2,13.4-1.9,20.2c-1.9-13.8-3.6-26.7-5.4-39.6c-1.2,0.1-2.5,0.2-3.7,0.3c0,12,0,24,0,36
	c-1.1,0-2.3,0-3.4,0.1c0-20.9,0-41.8,0-62.7c-1-0.1-1.9-0.2-2.9-0.4c-0.6,2.2-1.1,4.3-1.7,6.5c2.3-15.3,5.2-30.6-4.5-45.9
	c-1,22.5-1.9,43.7-2.9,64.8c-1.1,0-2.1,0-3.2-0.1c-3-18.1,6-37.1-3.3-55.8c-8.6,10.4-3.2,23.3-8.6,34c-0.4-7.5-0.7-14.9-1.2-24.7
	c-2.7,4.1-4.6,6.3-5.6,8.9c-0.9,2.4-0.7,5.2-2.8,7.7c-0.2-1.7-0.5-3.3-0.7-5c-0.6-0.3-1.2-0.5-1.8-0.8c-1.7,3.4-4.5,6.8-4.9,10.4
	c-1.7,16.2-2.7,32.4-4,48.7c-4.5-10.4,0.8-22-3-32.4c-1-0.1-1.9-0.2-2.9-0.3c-4.1,7.1-8.8,13.9-12.2,21.3c-4.3,9.4-0.5,17,9.1,20.3
	c4.1,1.4,7.9,2.4,9.1,7.6c0.6,2.4,3.4,4.2,4.7,6.6c1.9,3.5,5.3,7.8,4.5,10.8c-2.2,8.3-2.9,8.1-10.1,8.1c-3-2.9-4.9-4.4-6.4-6.1
	c-2.6-3-6.4-5.8-7.2-9.2c-1.8-8.3-6.7-13.8-13-18.8c-2-1.6-4.4-5-3.9-6.9c1.8-8,4-16.1,7.3-23.6c5.7-13.1,12.2-25.9,18.4-38.8
	c0.5-1.1,0.9-2.5,1.7-3.4c15.8-17.2,10.5-37.6,8.8-57.4c-0.1-1,0-2-0.1-3c-0.1-0.7-0.3-1.3-1-3.8c-2.2,10.9-4.1,20.2-5.9,29.1
	c-3.3-11.8,8-26.5-8.3-37c-1,7.3-2,14.5-3,21.7c-0.6,0-1.2-0.1-1.8-0.1c0-7.8,0-15.6,0-23.4c-0.9,0-1.9-0.1-2.8-0.1
	c-1.8,20.9-3.6,41.8-5.4,62.6c-0.5,0-1.1,0-1.6,0c0-8.1,0.9-16.4-0.2-24.3c-1.4-9.2-1.2-17.9-0.1-27.1c0.8-6.1-3.8-12.8-5.9-19.3
	c-1.4,0.1-2.7,0.2-4.1,0.3c-1.3,7.7-2.8,15.3-3.9,23c-1.9,13.6-3.7,27.2-5.1,40.8c-0.2,2,1.8,4.3,2.9,6.5c1.3,2.8,2.7,5.7,3.2,9
	c-3.6-4.3-7.2-8.6-10.5-12.5c-10.9,9.5-9.2,24.1-5.2,33.3c4.2,9.6-0.6,11.1-4.3,16c-3.4,4.5-5.6,9.9-9.1,15c2-5.9,2.4-13.7,6.4-17.1
	c7.1-6.1,3.8-12.1,2.3-17.8c-1.7-6.4-5.3-12.3-8.2-18.3c-4.6-9.4-10.7-18.3-10.6-29.4c0-0.7,0.5-1.4,0.6-1.8
	c5.2,9.4,10.5,19,16.7,30.4c1.4-3.6,2.7-5.4,2.8-7.3c0.2-6.6,0.2-13.1,0-19.7c-0.3-8.2-0.8-16.3-1.3-24.5c-0.1-1.1-0.9-2.1-1.4-3.2
	c-0.9,0-1.8,0-2.7,0c-1,12.3-2,24.6-3.1,36.9c-0.6,0-1.3,0-1.9,0c0-10.4,0-20.9,0-31.4c-7.9-1.5-11.6,1.7-13.5,7.2
	c-5.5,15.8-5,32.2-4,48.6c0.3,4.4,0.6,8.8,0.2,13.3c-4.9-15.9,0.4-33.3-6.8-49c-12.5,5.7-19.4,18.3-17.9,34.1
	c2.2-5.4,3.7-9.5,5.6-13.5c1.9-4,4.1-7.8,6.1-11.8c0.6,0.2,1.1,0.5,1.7,0.7c-1.7,4.6-3.8,9.1-5.2,13.8c-2.7,9.4-5.8,18.8-7.2,28.4
	c-1.4,9.8,5.5,16.4,13.4,20.1c7.6,3.6,11.6,8.9,13.2,16.4c-4.9-3.9-9.9-7.8-15.7-12.4c-2.7,11.2,2.7,16.5,9.2,21.4
	c7.7,5.9,15.5,11.9,22.6,18.6c3,2.8,4.3,7.4,5.2,12.7c-3.4-3.1-6.8-6.3-10.2-9.4c-0.9,0.3-1.8,0.7-2.7,1c0.9,3.5,1.1,7.5,3,10.3
	c5.5,8.1,11.7,15.7,17.6,23.4c-3.7-4.7-7.5-9.4-11.2-14c-0.7,0.7-1.4,1.4-2.1,2.1c3.8,7.3,6.8,15.1,11.5,21.7
	c4.9,6.9,11.6,12.6,17.5,18.8c2.5,3.3,5.9,6.3,7.4,10.1c3.5,8.9,10.2,12.2,18.9,12.5c8.9,0.3,17.8,0.1,26.9,1.3
	c-11.7,1.2-23.5,2.3-36.3,3.6c3.2,5.8,6,10.9,8.9,16.2c13.4-3.5,26.6-6.8,39.7-10.4c12.8-3.6,25.5-7.6,38.5-11.5
	c-1.5-0.4-2.9-0.7-5.6-1.4c22-5.9,42.8-11.4,64.4-17.2c4,19.4-14.8,29.1-19.2,44.3c-4.5-4-7.6,0.4-10.8,3.1
	c-7.9,6.6-15.6,13.4-23.3,20.2c-0.1-1.5-0.2-3.1-0.2-4.6c8.1-7.3,17-13.9,24.2-22c6.6-7.5,11.5-16.6,16.9-25.1
	c0.6-1-0.1-3.3-0.9-4.6c-0.3-0.5-2.8-0.2-3.9,0.4c-32.9,17.9-68.8,26.8-104.8,35.1c-5.2,1.2-10.3,2.6-15.4,3.8
	c-4.4,1.1-5.3,3.1-2.4,6.9c3.3,4.3,6.2,8.9,9.4,13.5c7.8-3.7,16.2-7.8,24.6-11.8c0.1,0.3,0.2,0.7,0.4,1
	c-8.2,5.1-16.4,10.2-24.6,15.2c0.3,0.5,0.6,1,0.9,1.5c-0.5,0-1.2,0.1-1.4-0.1c-6.3-9.9-16.7-16.8-20.7-28.6
	c-1.6-4.9-4.3-9.6-7.5-13.7c-13.1-16.6-27-32.6-39.8-49.4c-12-15.8-22.8-32.4-34.5-48.4c-4.7-6.4-10.2-12.3-15.6-18.8
	c0.5,11.6,5.7,23.2-0.7,36.5c0-9.1,1.1-16.4-0.3-23.3c-1.6-8-3.9-16.4-8.2-23.2c-8.5-13.6-13.1-28.5-17.6-43.6c-0.6-2-2.1-4.7-3.7-5
	c-1.4-0.3-3.8,1.7-5.2,3.3c-1.3,1.4-2.1,3.4-2.6,5.3c-1.8,6.8-3,13.9-5.5,20.4c-0.7,1.8-4.3,7-8.4,1.9c-3.2-4-6.8-7.7-9.3-12.1
	c-4.9-8.7-11-17.3-13.2-26.8c-2.8-11.7-2-24.2-3-36.4c-0.7-8,0.3-15.2,5.9-21.7c5.4-6.3-1.2-9-4.7-13.2c2.8,1,5.8,1.8,8.4,3.2
	c4.9,2.7,6.4,6.4,2.1,11c-7.3,7.6-10.5,15.9-4.7,26c0.8,1.5-0.7,4.2-0.9,6.4c-0.4,6.2-3.3,15.9-0.6,17.9c7.3,5.4,5,14.6,10.8,20
	c3.2,2.9,5.4,6.9,8.6,11.1c5.6-8.6,8.2-18.1,9.3-28.4c0.6-5.5,1.6-11.4,4.1-16.3c6.3-12.3,7.2-25.4,5-38.2
	c-1.2-7.2-6.8-13.6-10.9-21.3c9.6,6.8,11.6,17.6,17.1,25.8c12.4-10.7,11.9-24.6,8.5-39.6c0.5,0.9,1,1.7,1.5,2.6
	c0.7-0.2,1.5-0.3,2.2-0.5c-2.5-11.7-5.1-23.5-7.6-35.2c-1,0.2-2,0.4-3,0.6c1.2,4.6,2.3,9.2,3.5,13.9c-0.4,0.1-0.8,0.2-1.2,0.3
	c-2.3-8-4.7-16-7-24.1c-3-10.4-5.8-12-16.2-10.1c-4.1,0.7-8.3,0.6-12.4-0.7c6.3-1.5,12.7-3,19-4.5c-2-13.8-11.2-18.6-30.6-16.6
	c3.1-1.4,6.1-3.2,9.4-4.2c3.1-0.9,6.5-1,10.6-1.6c-8.5-8.6-16.2-16.4-23.9-24.2c0.3-0.4,0.6-0.9,1-1.3c1.6,0.4,3.1,0.9,5.6,1.6
	c4.6-12.5,9.3-25.1,13.6-37.7c0.5-1.5-1-3.7-1.5-5.5l0,0c4.9,0.7,9.8,1.5,13.1,2c-2.2,2.5-5.5,4.8-6.8,8c-3,7.4-5.1,15.1-7.6,22.7
	c-0.3,0.9-0.3,2-0.8,2.8c-4.5,8-3.5,11.4,4.9,14.2c1.9,0.6,5.6,0.1,6.5-1.3c3.3-4.9,6.3-10.2,8.6-15.7c4.1-9.5,7.7-19.3,12-28.9
	c-2.7,12.2-7.8,24.1-2.8,38.8c2.6-4.2,5-6.8,6-9.8c3.2-9.3,6.3-18.6,8.6-28.2c0.6-2.4-1.6-5.8-3.3-8.3c-3.5-5.1-7.2-10.1-11.6-14.5
	c-8.4-8.5-17.2-16.6-26.1-24.7c-4.5-4.1-10.5-7.1-14-11.8c-5.4-7.2-11.8-8.7-20.1-8.5c-5.6,0.2-11.3-2-17.1-2.8
	c-9.1-1.3-18.2-2.2-27.3-3.6c-2-0.3-3.8-2-5.5-3.7c26.5,3.5,54.2-2.6,79.5,12.5c2.8-5.3,0.9-9.7-3.4-12c-7.9-4.3-16.2-7.8-24.6-11.1
	c-21.4-8.6-43-17-64.5-25.4c-4.2-1.6-8.5-2.9-12.8-4.4c-11.3-4.1-22.4-8.8-34-12.3c-4.9-1.4-10.5-0.2-15.8-1.3
	c10.6-2.9,20.9-6.8,31.9,0c4.7,2.9,11.1,2.9,16.7,4.4c2.9,0.8,5.7,1.8,8.4,2.9c25.8,10.6,52.1,19.7,79.3,26.4
	c6.3,1.6,12.4,4.2,18.1,7.3c9.2,5,13.9,2.8,15-7.8c0.6-6.5,1.2-13,1.9-19.5c0-0.4,0.6-0.7,1.6-1.8c0.3,2,0.9,3.5,0.7,4.9
	c-2.2,15.7,0.1,31.1,3.5,46.4c2.8,12.3,2.5,12.4,14.9,14.9c-1.5-16.3-6.6-33.5-3.5-49c2.9-14.7,7.8-30.9,20.7-44.3
	c-6.2,22.5-16.8,42.1-15.9,64.4c0.4,10.7,15.9,58.3,20.4,60.3c2.4-15.3,4.7-30.3,7.1-45.3c0.4,0,0.9,0,1.3,0
	c-0.8,9.5-1.7,19-2.5,28.5c0.5,0.1,1,0.2,1.4,0.3c1.4-6.9,2.2-13.9,4.3-20.6c3.6-11.7,7.1-23.6,12.5-34.5c2.8-5.8,4.1-10.4,1.8-16.2
	c-1.9-5-1.7-9.6,1.9-14c1.3-1.6,1-4.4,2.5-6.9c0.2,2.1,1.3,4.9,0.3,6.3c-3.4,5.1-1.6,9.6,0.7,14.2c2.8,5.5,1.7,10.3-1.5,15.6
	c-2.5,4.1-3.6,9.2-4.5,14c-2.5,13.8-4.5,27.6-6.7,41.4c-0.4,2.4-0.7,4.8-1,7.2c0.8,0.3,1.6,0.6,2.3,0.8c1.8-4,3.6-8,5.3-12
	c0.4,0,0.8,0,1.2,0c-0.9,3.8-0.4,8.9-2.8,11.1c-11.8,10.7-12.1,23.7-8.8,37.5c1.4,5.7,4.2,11.2,6.3,16.7c0.6-0.2,1.3-0.4,1.9-0.6
	c1-9.5,2-18.9,3.1-28.4c0.7,0,1.3,0,2,0.1c0.4,7.9,0.6,15.9,1.2,23.8c0.6,7.9,2.6,15.3,10.4,21.1c1.5-1.8,2.8-3.5,4-5.1
	c-0.2-7.1-11.3-7.6-8.8-16.7c1.7-6-1-13.2,5-19c-5.4,16.3,0.4,26.9,16.2,33c0.5-3.7,1.1-7.5,1.5-9.9c1.5,6.3,3.9,13.9,5.1,21.6
	c1.1,7.5,0.9,15.2,1.3,22.8c1.2,0.1,2.4,0.3,3.7,0.4c2-8,4.6-16,5.8-24.1c1-7.2,1.5-14.8,0.4-21.9c-1.9-11.4-1.4-23.8-12.5-32.3
	c-4.8-3.7-7.8-9.8-11-15.6c0.9,0.5,1.9,1,4,2.2c-0.8-2.1-0.8-4.1-1.8-4.8c-6-4.4-3.2-9.7-1.7-14.7c1.3-4.3,4.7-8.4,4.6-12.5
	c-0.1-5.1-1.8-10.8-4.5-15.1c-2.4-3.8-6.6-5.7-5.1-11.9c0.9-3.8-1.9-8.5-3-12.8c0.7-0.3,1.3-0.5,2-0.8c1.1,2.8,1.9,5.7,3.4,8.3
	c3.7,6.4,7.5,12.7,11.8,18.7c2.2,3.1,4.4,16.3,1.5,19c-9.3,8.7-3.5,16.3,0.9,24.2c1.7,3,3.8,5.8,6.3,9.5c6.5-0.2,8.1-5,8.4-11.8
	c0.8-21,1.9-42,3.7-63c2.7,31.3,5.3,62.5,8,93.8c0.4,0,0.9,0,1.3,0c0.3-3.5,0.6-7,0.8-10.4c0.2-3.8-0.1-7.5,0.3-11.3
	c0.4-3.5,1.3-6.9,2.7-10.2c0,5.6-0.6,11.2,0.1,16.7c1.5,11.5,3.6,22.9,5.7,34.3c0.3,1.5,2.4,2.7,3.7,4.1c1-1.7,2.9-3.4,3-5.2
	c0.4-5.9,0.1-11.8,0.1-17.8c1.1,0,2.2-0.1,3.3-0.1c0.5,9.2,0.5,18.6,1.6,27.7c0.8,6.2,3.1,12.3,4.8,18.4c1.2-0.1,2.4-0.3,3.6-0.4
	c0.5-6.8,1-13.5,1.4-20.3c0.3,0,0.6-0.1,0.9-0.1c1.5,9.8,3,19.6,4.4,28.8c2.1-7.2,5.2-14.1,6-21.3c1-9.5,0.3-19.1,0.3-27.8
	c1.6-7.2,3-14,4.5-20.7c0.5,0,0.9,0.1,1.4,0.1c-0.7,6.7-1.5,13.3-2.2,20c1.2,10.5,5.2,21-0.5,32.4c-4.7,9.4-1.9,17.7,6.5,25.4
	c1,0.9-0.2,4.2,0.8,5.3c3.9,4.2,8,8.5,12.6,11.8c3.5,2.5,7.2-1.5,7.2-6.4c0-3.7,1.5-7.4,1.5-11.2c-0.1-5.1-1-10.3-1.7-16.9
	c2.5,4.7,4.5,8.3,6.9,12.8c3.8-4,7.4-7.8,11.1-11.6c0.3,0.2,0.7,0.4,1,0.6c-1.9,2.9-3.6,6-5.7,8.7c-5.5,7-8.7,15.1-7.7,23.8
	c0.6,5.7-0.7,8.5-8,9.2c2.5,2.8,3.8,5.7,5.5,5.9c11.4,1.5,8.7,13.6,14.4,19.3c0.3,0.3-2.7,6-5,6.7c-8.5,2.8-17.4,4.6-26.2,6.7
	c-6.4,1.5-12.8,3-19.6,5.9c17.1,9.7,35.6,16.9,49.3,34c1.3-4.5,2.3-6.3,2.3-8.2c-0.3-14.5,5.4-27.4,9.3-41c3-10.5,6.7-21.6,0.6-33.2
	c-2.8-5.5-1.7-13.1-2.1-19.7c-0.2-2.2,0.4-4.5,0.4-6.8c0.6-16.5,1.2-33.1,1.9-49.6c0-0.4,0.7-0.7,2.6-2.5c0.7,4.7,2.8,9.3,1.3,11.6
	c-5.5,8.7-1.7,18.1-2.7,26.9c-1.2,11.1,1.4,22.6,2.4,35c3.1-4.5,8.9-7,4.2-13c-0.5-0.6-0.4-2.1,0-2.9c5.9-10.5,6.1-21.6,4.2-33.1
	c1,2.7,2,5.4,3.3,8.8c9.6-15.1,18.6-29,11-47.9c-6-15.1-9.8-31.2-14.2-46.9c-0.7-2.6,0.1-5.8,0.7-8.6c0.9-4.9,2.1-9.7,3.1-14.5
	c1.6-7.4,0.3-13.3-7.9-15.7c0.2-0.2,0.4-0.5,0.7-0.7c10.3,3.8,13.9,7.4,11.5,16.4c-5.8,21.9,3.7,39.3,14.7,58
	c3-9.9,5.7-18.8,8.4-27.8c1.4-4.6,2.5-9.2,3.8-13.8c2.6-9.6,0.1-12.6-12.1-11.1c1.5-4.2,2.1-7.8,4-10.5c5.4-7.8,7.4-16.3,5.9-25.4
	c-0.3-2.2-3.3-4.2-5.3-5.8c-2.7-2.2-5.8-4-8.7-5.9c0.3-0.5,0.6-1.1,0.9-1.6c5.6,2.4,11.2,4.8,17.7,7.5c0.6,10.1,1.2,21.7,1.8,33.3
	c0.5,0,1.1,0.1,1.6,0.1c1.5-2.4,3.1-4.7,4.6-7.1c0.9,0.2,1.8,0.5,2.8,0.7c-1.9,11.8-3.8,23.7-5.8,35.5c-0.9,5.5-2.6,10.8-3.3,16.3
	c-1.4,11.7-3.8,23.6-3.1,35.2c0.6,10.1,4.9,19.9,8.6,29.7c8.2-12.9,8-26.5,7-40.3c3.7,11.4,2.2,22.5,0.4,34.1
	c-1.7,10.9,0,22.4,0.6,33.6c0.3,5.3,1.8,10.4,2.8,15.7c-0.7,0.2-1.5,0.3-2.2,0.5c-2.1-8.2-3.5-16.8-6.6-24.6
	c-3.2-8-8.1-15.3-12.9-24.2c-1.2,9.2-1,18,3.5,25c11.2,17.5,16.1,37.8,25.8,55.8c1.1,2,2.6,3.8,5.2,7.4c0.6-4.2,1.1-6,1.1-7.8
	c-0.4-31.9-0.2-63.7-1.5-95.5c-1.2-30.5-3.6-60.9-6.3-91.3c-1.2-13.5-5-26.7-6.7-40.1c-0.5-4.1,0.7-9.2,2.9-12.6
	c10.2-15.3,21.2-30.1,31.8-45.2c3-4.2,5.6-4,7.8,0.4c2.4,4.7,4.4,9.6,6.9,14.2c3.9,7.3,7.9,14.5,12.2,21.6c4,6.5,5.9,12.8,3.3,20.6
	c-9.2,27.7-9.6,56.6-11.2,85.3c-1.2,21.9-4.1,43.6-6.1,65.4c-1.1,12.1-2,24.2-2.8,36.3c-0.2,2.9,0.5,5.9,2.3,9.3
	c0.9-1.5,2.1-2.9,2.6-4.5c1.4-4.3,2.7-8.6,3.7-13c0.7-3.1,1.1-6.3,1.2-9.4c0.1-3.7-0.5-7.5-0.3-11.2c0.2-4.1,1-8.2,1.6-12.3
	c1-7.7,1.8-15.4,3-23.1c0.6-4.4,1.7-8.8,3.4-13.2c-1.1,16.9-2.3,33.8-3.4,50.8c7.7-3.7,8.6-9.8,8.7-16.1c0.2-11.1-0.5-22.2,0.4-33.2
	c1-12.1,3.4-24.1,6.4-36.1c-1.1,20.2-4.4,40.3-0.6,60.6c1.5-0.5,2.1-0.5,2.3-0.8c1.8-2.9,1.5-6.3,5.1-9.2c3.4-2.7,4.5-9.9,4.4-15
	c-0.7-25.7-3.1-51.3-3-77c0-12,4.3-23.9,6.7-35.9c0-0.2,0.2-0.5,0.4-0.6c12.1-7.7,9-19,7.7-30.3c2.5,6.1,5.4,12.2,7.3,18.5
	c0.4,1.4-2.2,4.2-4,5.6c-13.4,9.7-13.7,24.4-14.7,38.6c-0.4,6,0.6,12.1,1.4,18.1c1.6,12.7,3.4,25.5,5.4,38.2
	c0.4,2.4,1.7,4.6,2.6,6.8c0.8,0.3,1.6,0.6,2.4,0.9c3.2-6.1,8.4-12,9.1-18.3c2-17.2,1.4-34.7,3.2-51.9c0.6-6.1,4.2-12.7,8.4-17.2
	c2-2.1,8.6-0.3,13.1,0.4c1.8,0.3,3.4,2.1,5.8,3.7c1-2.7,1.8-4.9,2.6-7.2c0.9-2.6,1.6-5.4,2.9-7.8c2.5-4.4,8.5-9.5,7.5-12.6
	c-2.9-8.9-7.5-17.7-17-22.1c-1.1-0.5-2.1-1.2-2.7-2.6c9.3,0.7,16.4,6.2,21.4,13.2c6.8,9.7,9.1,11.9-1.1,21.7
	c-4.1,3.9-6.6,9.8-9.2,15.1c-2,4-3.2,6.2-8.2,3.2c-10.4-6.2-14.8-4.1-16.4,8.1c-1.8,13.7-3.6,27.6-3.6,41.4
	c-0.1,9.6,3.7,19.2,4,28.9c0.2,7.9,3.7,13.4,7.5,19.7c3.5,5.7,4.8,13,6,19.8c0.4,2.5-2.2,5.6-3.9,9.7c-3.6-9.4-6.2-17.1-9.5-24.5
	c-2-4.6-7.1-4.4-9,0.4c-1.8,4.6-3.2,9.8-3,14.7c0.8,18.9,6.6,36.4,17,52.1c3.3,5,9.4,8.2,12.5,13.3c1.9,3.1,0.5,8.2,0.4,12.4
	c-0.1,3.2-0.9,6.4-0.8,9.5c0.5,13.3,1.2,26.5,1.8,39.8c-0.7,0-1.4,0-2.1,0.1c0-7.2,0.3-14.5-0.1-21.7c-0.3-6-1.9-11.9-2.3-17.9
	c-0.3-3.9-0.4-8.1,1-11.6c2.5-6.1-1.6-9.6-4.6-13c-1-1.1-5.6-0.3-7.3,1.1c-1.3,1.2-1.4,4.9-0.6,7c7.4,20,12.4,40.4,9.1,62
	c-1.1,7.3-2.2,14.6-2.5,22c-0.1,1.9,2.4,4.9,4.4,5.8c3.4,1.5,8.8,3.6,10.7,2c6.6-5.1,11.8-11.9,17.9-17.7c3.7-3.5,8.1-6.4,12.5-9.1
	c1.4-0.9,5.4-0.2,5.4-0.5c0.3-3.7,1.6-8.7-0.2-11c-3.3-4-8.7-6.2-13.1-9.3c-3.1-2.1-6.4-4.1-9-6.8c-10-10.4-12.9-21.9-9.6-36.8
	c3.1-14.2,1.4-29.5,2-44.3c0.2-4.5,1-8.9,1.5-13.4c1-2.6,2.1-5.2,3.1-7.8c0.6,2.8,1.8,5.6,1.7,8.3c-0.2,5.4-2.8,11.2-1.4,16
	c2.7,9.3,2.4,17.9,0.1,27.1c-1.5,5.7-2,12-1.4,17.9c0.4,3.4,3.9,6.4,7.3,11.4c3.4-12.5,8.5-22.5,6.9-34.2c-0.5-3.6,0.1-7.5,0.5-11.2
	c0.4-4.3,1.1-8.5,1.7-12.7c1-6.5,2.1-13,3.1-19.5c1,0.1,2,0.2,3,0.3c-1,9.5-2.1,19-3.3,30.8c7.6-11.2,14.2-20.5,20.1-30.3
	c0.9-1.5-1.1-5.5-2.7-7.6c-2.9-3.8-6.5-7.1-11.1-12c4.1,2.3,6.6,3.7,9.1,5.1c7.6,4.2,13.5,1.1,14.3-7.3c0.3-2.8,1.7-5.6,1.7-8.4
	c0-3.6,0.1-7.7-1.5-10.6c-5.2-9-11.2-17.6-17.8-27.9c8.4,2.4,9.5,3.9,10.5,10c0.3,2.1,0.7,4.5,2,6.1c4.5,5.3,9.3,10.3,14.3,15.6
	c9.5-4.6,11.1-19.7,3.1-30.7c-3.1-4.3-6.4-9.7-6.5-14.6c-0.2-5.2,3.2-10.5,5.3-15.7c2-5.1,4.4-10,6.6-15c0.8,0.3,1.6,0.6,2.5,0.9
	c-2.1,4.7-3.1,10.4-6.4,14c-5.9,6.5-3.9,12.8-1.8,19.5c0.4,1.4,1.4,2.7,2.3,3.8c2.5,3.2,4.9,6.4,7.7,9.2c1.1,1,4.3,1.7,5,1
	c12.6-13.9,18.4-31,20.9-49c0.8-5.5-3.8-11.6-5.5-17.6c-2.1-7.4-4.9-14.1-12.4-17.7c-1.3-0.7-2-2.7-2.5-4.5
	c6.6,5.5,14.3,8.2,19.6,16.7c6.8,11,7.6,21,6,32.8c-1.4,10.7-5.3,18.3-8.1,28.9c-3.3,12.4-8.6,23.2-15.1,33.9
	c-0.4,0.6-0.6,1.7-0.3,2.2c7.1,9.5,8.4,21.4,13.6,31.7c0.6,1.1,1.4,2.1,2.1,3.2c6.4-6.9-4.2-15.6,3-22c-0.3,1.6-1,3.3-0.7,4.8
	c1.3,8.6,2.9,17.1,4.4,25.7c1.1,6.2,2.5,12.4,3.7,18.6c1.3-0.2,2.6-0.5,3.9-0.7c-1-6.3-2.1-12.5-3.1-18.8c0.4-0.1,0.8-0.2,1.3-0.3
	c2,4.6,3.9,9.2,6.3,14.9c2.4-3.8,6.1-7.2,6.4-10.9c0.3-3.6-3.2-7.3-4.5-11.2c-1.1-3-3.1-7.8-1.8-9.2c6.6-6.9,3.3-13.4,0.4-20.1
	c-0.4-0.9-0.8-1.7-1.3-2.9c9.4,4,10.6,6.6,8.3,15.7c-0.6,2.4-0.1,5.1,1.7,7.8c0.7-1.8,1.3-3.6,2-5.4c0.7-1.8,1.4-3.6,2.2-5.5
	c0.8,0.1,1.5,0.3,2.3,0.4c-0.8,4.9-1.7,9.8-2.9,17.3c6.8-3.7,12-6.6,17.2-9.4c-0.3-0.8-0.7-1.7-1-2.5c-2.1-0.3-4.2-0.7-6.7-1.1
	c0.8-6.1-7.7-11.6,0-19.3c3.4,4.5,6.5,8.8,9.7,13c0.7,0,1.4,0,2.1,0c0.4-4.7,1.6-9.5,0.9-13.9c-2.2-12.8-5.9-25.2-5.5-38.5
	c0.2-6.2-6.1-11.8-4-18.9c0.2-0.6,0.4-1.2,1.1-3.5c3,8.3,1.2,17.5,10.9,21.9c-1-3.3-1.7-5.8-2.6-8.2c-2.8-7.1-2.3-13.9-0.9-21.4
	c1.5-8.1,0.1-16.8,0-25.2c0.5-0.6,1.1-1.2,1.6-1.7c2.9,9.4,5.8,18.6,3.2,29c-1,4.2,2.2,9.5,3.8,14.1c4.2,11.7,8.7,23.3,13.6,36.4
	c14.3-24.3,27.2-47.9,29.3-74.8c1.8-0.7,4.1-0.9,4.5-1.9c4.3-10.9,11.3-20.7,12.2-33c0.4-6.4,3.4-12.6,6-18.6
	c-2.2,10.1,2.1,20.8-4.2,30.6c-4.4,6.9-6.1,15.4-10.2,22.5c-3.9,6.7-4.2,12.5,0.9,19.4c6.6-4.6,13.4-8.9,19.7-13.8
	c14.3-10.9,29.5-19.8,46.4-26.1c11.5-4.3,22.8-9.2,34.3-13.6c10.9-4.2,22-5,33.2-1c1.4,0.5,3.4-0.6,5.1-0.9
	c9.9-1.5,19.8-2.9,29.9-2.6c-8.6,2-17.6,3.1-25.8,6.4c-6.5,2.6-12.3,2.3-18.8,1.2c-9.9-1.7-18.9,0.5-27.4,6.1
	c-13.7,9.2-27.4,18.5-41.6,26.8c-11.5,6.6-24.2,11.1-35.6,17.8c-18.1,10.6-21.5,15.5-31.1,38c7.4-3.9,13.4-6.5,18.8-10.2
	c7.5-5.1,15.8-8.9,20.4-18.2c2.7-5.4,10.5-8.2,15.2-12.8c13-12.8,30.8-15.5,46-23.7c0.3,0.7,0.7,1.4,1,2.1
	c-6.6,2.8-13.4,5.5-19.9,8.6c-2.5,1.2-4.3,3.7-6.5,5.4c-8.4,6.3-17.1,12.3-25.2,19c-3.9,3.3-6,8.7-9.9,12.2
	c-5.1,4.5-10.6,9.2-16.8,11.7c-9.4,3.7-17.5,8.6-24.2,16.3c1.6,0.6,2.9,1.1,4.2,1.6c-0.3,0.9-0.4,1.6-0.6,1.6
	c-11.2,2.8-17.6,11.3-22.5,20.6c-1.3,2.4,0.9,6.8,1.6,10.2c0.8,3.9,1.7,7.8,2.6,11.7c0.3,1.2,0.5,3.2,1.2,3.4
	c8.7,2.2,3.8,9,5.1,13.8c1.8,6.3,5.2,12.2,9.1,18.2c0.2-15.9-0.8-31.7,6.5-45.7c1.2,0.3,2.4,0.5,3.6,0.8c-1.7,6.4-3.3,12.7-4.9,19.1
	c-0.2,0.7-0.3,1.6,0,2.2c3.1,6,3.1,12.7,4.3,19.1c1.2,6.6,5.7,12.5,8.8,18.7c3.2-0.7,5.4-1.1,8.1-1.7c-1.1,1.6-1.9,2.7-3.5,4.9
	c11.8,0.8,8.8,10.9,10.2,17.2c1.8,8.1,7.6,11.4,12.9,15.5c1.1,0.9,5.8-0.3,6.2-1.5c2.1-5.8,5-11.8,0.7-18c-4.2-6-8.1-12.3-12.5-18.1
	c-4.3-5.7-8.1-10.9-6.3-19c1.5-6.2,0.8-13,0.7-19.6c-0.2-9.6,5.1-16.7,11-23c2.7-2.8,8.4-2.8,13.3-2.7c-1.6,0.6-3.2,1.3-4.9,1.7
	c-7.9,2.2-11.6,8.5-9.9,16.6c0.3,1.4,1.1,3.2,0.6,4.3c-5.1,11.1-2.4,22.8-2.3,34.1c0,4.4,5.5,8.8,8.7,13.1c1.6,2.2,3.4,4.1,5.2,6.1
	c0.9,1.1,1.7,2.4,2.8,3.4c10.8,9.6,11.4,16,2.7,27.6c-2.1,2.8-3.9,5.9-6.3,9.6c5.4,2,9.8,4.9,11.4-3.9c0.3-1.8,4.6-3.5,7.3-3.9
	c5.7-0.9,8.9-3.2,7.5-10.4c3.6,5.7,2.1,9.8-4,11.7c-4.4,1.4-7,3.2-9,7.9c-1.3,3.1-6.4,6-10.1,6.4c-10.5,1.1-18.2,6.2-24.8,13.9
	c-7.3,8.6-15.2,16.7-21.7,25.8c-6.2,8.5-6,18.8-5.4,29c0.3,5.4-0.9,10.9-0.4,16.2c0.4,4.7,1.6,9.5,3.3,13.9c1.2,3.2,4,5.7,6,8.6
	c11,15.6,22,31.2,33.3,47.2c10.5-12.4,10.2-16.1,0.4-26.3c-7.8-8.1-15.1-16.6-22.6-25c-3.6-4.1-1.7-10.6,3.5-14.2
	c1.8-1.2,3.1-3.3,4.3-5.2c6.7-10.1,17.3-14.4,27.4-19.5c-5.8,7.5-18.1,9.7-17.4,22.6c-6.3,0.7-7.7,2.9-7.3,11
	c0.8,13.7,8.7,17.1,19,20.3c7.3,2.3,13.6,15.1,11.1,24.4c-3.3,12.2-8,24.1-11.6,34.7c-2.9-1.2-6.2-2.1-9.1-3.7
	c-7.6-4.3-17.6-6.5-17.8-18.5c-0.8-0.2-1.6-0.5-2.4-0.7c-2.8,4.5-5.5,9-8.5,13.3c-1.4,2.1-3.8,3.7-4.8,5.9
	C828,619,823,629.2,819,639.7c-3.7,9.8-7.7,19.3-9.9,29.9c-2,10-8.9,20.1-16.2,27.5c-9,9-8.4,13.9-0.9,23.1
	c6.4,7.9,5.4,10.6-7.5,13.1c9.6-4.2,9.7-7.6,4-13.6c-7.9-8.2-6.7-14.1-0.1-23.5c6.1-8.6,11-18.1,16.4-27.2c-0.6-0.6-1.3-1.1-1.9-1.7
	c-3,2.2-6.3,4.2-9,6.8c-7.1,6.9-14.5,13.2-18.2,23.2c-2.5,6.8-7.5,12.9-12.4,18.4c-12.4,13.7-22.3,30.4-40.1,38
	c-9.3,4-19.5,6.2-29.6,8c-14.7,2.7-29.6,4.3-44.3,6.5c-9.7,1.5-14.5-5.4-19.8-11.4c-1-1.1-2-2.4-2.4-4.4c3.2,2.6,6.7,5,9.4,8
	c4.7,5.2,9.7,5.6,16.4,3.8c7.9-2.1,16.3-2.4,24.3-3.5c-3.2-11.3-13.8-13-22.1-15.8c-19.1-6.3-38.7-10.8-58.2-15.8
	c-1.3-0.3-3,1-4.6,1.6c-11.8-4.1-11.8-4.1-15.7-0.9C581.8,735.6,586.1,742.9,595.7,741.6z M564.8,468.1c-1.6-1.5-3.3-3.1-5.1-4.8
	c-1.1,1.6-2.2,3.2-4.1,6c2.5-12.9,2.5-12.9-0.8-17.3c-10.2,7.5-12.5,17.6-9,29.5c-6.4-7.1-4.2-15-2-24.1c-4.1,4-7.1,6.6-9.8,9.6
	c-7.1,7.9-4.5,17.2,5.6,20.5c10.2,3.3,24.2-7.7,24.9-19.6c4.8-6.2,4.1-13.9-2.9-16C562.8,457.7,563.8,462.9,564.8,468.1z M531,433.1
	c-9.2,0.2-2,8.3-5.5,11.4c3.3-2.2,9.7,0.4,9.6-6.5c2.2-0.1,5,0.5,6.5-0.6c3.7-2.6,6.4-7,10.3-9c7.8-4,10-11.2,12.1-18.5
	c0.6-2.1-0.5-5.8-2.1-7.1c-5-4.2-22.2-0.7-24.5,5.5C534.4,416.3,528.5,423.7,531,433.1z M454.6,447.2c2.1,1.7,4.2,3.3,6.2,5
	c0.5-0.5,0.9-1.1,1.4-1.6c-5.1-6.1-10.2-12.2-15.3-18.2c-0.3,0.2-0.7,0.5-1,0.7c0.2,1,0.4,1.9,0.6,2.9c-3.2-2.2-6.5-8-10.3-3.5
	c-2.8,3.3-2.7,9.2-3.3,14c-0.4,3.4,0.4,6.8,0.7,10.3c-0.8,0-1.6,0-2.4,0.1c-0.1-2-0.2-4-0.3-5.9c-2.1,3.6-3.1,7.4-2.7,11.1
	c0.6,4.8,2.6,9.4,3.7,14.2c1.3,5.8,1.9,11.7,3.5,17.4c0.7,2.5,3.3,4.4,5,6.6c2.4-2,5.6-3.6,7.2-6.1c5.7-9.1,10.9-18.4,16-27.8
	c0.9-1.7,0.9-4.8-0.1-6.4C460.9,455.4,457.6,451.3,454.6,447.2z M318,408.1l0.1,0.1c-2.5-6-5-11.9-7.9-18.8c-0.8,4-0.5,7.7-2.1,9.9
	c-11.6,15.5-9.6,31.6-1.6,47.3c1.8,3.5,8,6.4,12.2,6.6c3.8,0.1,8-3.6,11.6-6.3c1.9-1.4,2.4-4.7,4.3-6.1c6.5-5,6-10.6,3.2-17.4
	c-3-7.2-5.8-14.7,2-21.9c-3.4-1.5-6.1-2.3-8.2-3.9c-4.4-3.4-8.5-7.2-12.7-10.9c-1.1-3.1-2.1-6.2-3.4-9.2c-2.8-6.2-5.7-12.3-8.6-18.5
	c-0.9,0.2-1.9,0.5-2.8,0.7c0,11.3,0,22.7,0,33.2c4.2-11.8,5.1-12.3,12.3-6.3c-0.8,0.9-2.5,2.2-2.3,2.8c1.5,4.1,3.8,8,5.1,12.2
	C319.8,403.5,318.5,405.9,318,408.1z M681.8,384.1c-4.3,6.2-9.5,11.9-12.5,18.6c-5.7,12.9-0.8,25.9,2.3,38.4
	c2.1,8.4,6.2,16.4,9.6,25.1c11.6-7.5,1.5-19.8,10.2-27.8c0,8.7-0.2,16.2,0.1,23.6c0.1,2,2,4,3.8,7.3c9.8-23.2-0.5-44.9,1.7-66.2
	c5.9,20.3,10.9,40.7,5.9,62.3c4.6-7,8.2-14.2,10.9-21.8c1.4-4,1.7-8.7,1.1-12.9c-1.7-12.2-4.8-24.2-6.2-36.4
	c-1.1-9.9-1.4-11-11.5-12.6c-1.2-0.2-3-0.4-3.4-1.1c-2.6-5-5.8-2.2-8.8-0.8c-2.7-0.5-6.7-2.4-7.9-1.3c-2.4,2.2-3.2,6.1-4.6,9.3
	c0.6,0.3,1.3,0.7,1.9,1C676.9,387.2,679.3,385.7,681.8,384.1z M217.7,391.7c-6.6-3.9-12.4-0.2-13,8.9c1.7-1,3.1-1.8,4.5-2.6
	c-7.6,6.1-8.7,12.8-3.3,21.3c11.8,18.1,25.8,34,43.5,46.5c3.1,2.2,6.9,3.4,10.3,5c1.5-4.4,3-8.7,4.4-13.1c0.2-0.5,0-1,0-1.5
	c2.4-23.7-8.4-43.4-19.2-63c-0.8-1.5-3-3.3-4.4-3.3C232.9,390.2,225.3,391.1,217.7,391.7z M517.3,494.5c-1,0.1-1.9,0.2-2.9,0.2
	c-0.2,1.6-0.4,3.2-0.5,4.8c-0.1,11.1,0.4,22.2-0.4,33.3c-1.5,20.5-2.3,40.9,2.2,61.1c0.7,3.3,3,6.2,4.5,9.3c0.9-0.3,1.8-0.6,2.7-0.8
	C529.9,565.9,527.5,530,517.3,494.5z M517.3,638.2c-0.8,0.2-1.6,0.4-2.3,0.5c1.1,16.6,2.1,33.2,3.2,50.6c12.6,0,23.5,0,36.4,0
	C541.5,671.4,529.4,654.8,517.3,638.2z M487.4,499.1c-0.7-0.1-1.3-0.2-2-0.3c-0.5,1.1-1.4,2.1-1.6,3.2c-1.6,9.6-3.4,19.1-4.4,28.7
	c-0.8,7.7-1.8,15.6-0.6,23.1c2.9,18.3,2.8,36.2,0.5,54.6c-0.9,7,3.2,14.7,5,22c1-0.2,2.1-0.4,3.1-0.6
	C487.4,586.3,487.4,542.7,487.4,499.1z M566,367.5c-0.6-2-1-4.4-1.9-6.6c-2.6-6.3-6.3-7.1-10-1.7c-2.8,4-6.1,8.9-6,13.3
	c0.1,4.3,3.3,10.3,7,12.3c5.3,3,7.2-3,8.6-7.2C564.7,374.6,565.2,371.3,566,367.5z M483.6,684c1.1-6.8,2.2-12.4,2.7-18
	c0.1-1.2-1.3-3.4-2.5-3.8c-1-0.3-3,0.9-3.9,2c-1.8,2.3-2.7,5.5-4.8,7.4c-3.7,3.4-1.6,5.9,0.7,8.1C477.5,681.4,480.1,682.1,483.6,684
	z M254.8,485.1c-5.5-4.8-9.6-3.6-14.3,3.7c1.6,2.3,3.1,4.6,5.6,8.3c5-5.6,10-11.3,15.1-17c-0.4-0.4-0.9-0.8-1.3-1.2
	C258.3,480.8,256.7,482.7,254.8,485.1z M451.9,503c0.9,0.6,1.8,1.1,2.7,1.7c6.5-7.4,14-14.2,14.9-24.8c-0.7-0.5-1.5-0.9-2.2-1.4
	C462.2,486.7,457,494.9,451.9,503z M218.7,385.2c7.5,1.2,13.4,2.1,19.3,3.1c0.2-0.9,0.3-1.7,0.5-2.6c-2.6-2.2-5.2-4.3-8.8-7.4
	C227.3,379.8,223.4,382.3,218.7,385.2z M265.3,373.9c0.5-0.3,1-0.6,1.5-0.8c-1.4-3.7-2.8-7.4-4.3-11.1c-2.4,1.2-4.8,2.4-7.9,4
	C259.1,369.3,262.2,371.6,265.3,373.9z"/>
<path d="M743.3,262.8c0-2.9-0.8-6.1,0.2-8.6c3.2-8,7-15.8,10.6-23.6c0.5-1.1,1.7-2.7,1.3-3.4c-4.9-9.5-8.1-20.9-15.5-27.7
	c-10-9-16.1-19.5-21.4-31.1c-0.8-1.8,1.2-4.9,1.4-5.7c1.2,3.4,1.6,8.2,4.2,11.2c6.5,7.8,14,14.8,21.1,22.1
	c4.4-5.6,8.1-10.1,11.5-14.8c3.2-4.6,6.1-9.5,9.1-14.3c0.6,0.3,1.1,0.6,1.7,0.9c-1.5,5.3-2.3,11-4.8,15.8
	c-2.8,5.6-4.1,16.8-1.9,22.1c2.7,6.7,5.3,13.6,6.4,20.7c0.4,2.7-2.9,6.7-5.5,9.1c-6.4,5.8-13.3,10.8-11.8,21.2
	c0.3,1.8-2.8,4.2-4.4,6.3C744.7,262.9,744,262.8,743.3,262.8z"/>
<path d="M403.7,843.4c16-4.1,28.3-11.2,32.4-27.6c0.7-2.8-0.9-6.1-0.3-8.9c0.9-4.6,1.4-10.7,4.4-13.2c9-7,12.9-15.7,14.9-26.6
	c2.2-12.6,5.8-24.9,9.5-37.2c1.4-4.7,4.7-8.8,7.1-13.1c0.8,0,1.6,0,2.4,0.1c0.5,2.5,1.8,5.2,1.3,7.5c-1,4.6-2.9,9.1-4.4,13.6
	c-2.2,6.5-4.3,13-6.6,19.5c-2.1,6.2-5.7,12.2-6.3,18.5c-0.8,8-4.4,13.6-9.6,18.7c-0.4,0.3-0.6,1.1-0.9,1.1c-11.3-0.2-6.7,7.9-6.4,13
	C442.1,829.8,425.6,845.5,403.7,843.4z"/>
<path d="M556.6,792.3c-1.9-4.2-5-8.3-5.4-12.6c-1.3-12.8-6.4-23.8-12.8-34.7c-3.8-6.4-8.1-13.2-6.2-21.8c0.7-3.2-0.5-6.8-0.6-8.8
	c1.9,1.2,5.6,2.4,7.3,5c3.2,4.9,6,10.4,7.7,16c2.7,8.8,3.5,18.2,6.9,26.7c3.1,7.9,4.1,15.5,2.8,23.7c-0.3,2.2,0.1,4.5,0.2,6.7
	L556.6,792.3z"/>
<path d="M410.5,776.6c0.1,1.5,0.2,3.1,0.2,4.6c-4.5,3.2-8.6,7.1-13.5,9.3c-7.4,3.4-14.6,5.9-12.5,16.4c0.3,1.6-2.2,4.1-4,5.6
	c-5.6,4.8-11,10.2-17.4,13.8c-7,4-15,6.4-23.4,9.9c0.4-2.1,0.4-2.8,0.5-2.9c15.6-2.8,22.7-18.2,36.2-24.3c2-0.9,3.5-4,4.4-6.4
	c2.7-7.1,5.9-13.5,14.5-14.5C402.9,787.4,406.1,781.3,410.5,776.6z"/>
<path d="M556.5,792.4c6.8,2.8,15.5,0.6,20.5,8c1.9,2.9,3.9,5.8,5.3,8.9c4.7,10.7,9.2,21.5,13.3,32.6c-6-7-14.9-12.5-16.1-22.5
	c-1.6-12.7-6.3-21.5-19.9-23.7c-1.1-0.2-1.9-2.2-2.9-3.4C556.6,792.3,556.5,792.4,556.5,792.4z"/>
<path d="M476,800.4c8.4,5.8,8.7,10-0.5,16.3c-8.3,5.7-12.8,13.3-14.3,25.2c-0.9-3.7-2.5-6.2-1.8-7.7c3.3-7.2,7.2-14,10.8-21.1
	C472.3,809.1,474,804.9,476,800.4z"/>
<path d="M539.3,817.9c-5.9-3.9-11.6-7.7-18-11.9c1.6-2,2.7-3.5,3.4-4.4c6.8,5.4,13.2,10.6,20,16.1c-3.2,5.1-7.7,10.4-2.2,16.6
	c3.8,4.3,7.9,8.4,11.3,13C535.6,830.5,535.6,830.5,539.3,817.9z"/>
<path d="M413.4,233.8c-5.9-2.1-12.3-3.5-17.7-6.6c-13.7-7.7-18.8-27.3-11.3-42.1c0.2,0.9,0.6,1.7,0.4,2.3
	c-5.9,15.9,3.5,26.7,13.1,36.7c4.1,4.3,10.7,6,16.2,8.9C413.9,233.3,413.7,233.5,413.4,233.8z"/>
<path d="M625,339.6c-1,2.6-2.1,5.2-3.1,7.8c-0.2-6.7-1-13.4-0.6-20c0.4-6.3,1.9-12.6,4.2-18.8c-0.5,6.2-1.3,12.3-1.5,18.5
	C623.8,331.2,624.6,335.4,625,339.6z"/>
<path d="M772.3,208.9c-0.5,0.6-1.1,1.2-1.6,1.7c-6.4-6.3-6.2-22.1-0.8-25.6C770.7,192.6,771.5,200.8,772.3,208.9z"/>
<path d="M158.6,324c0.1-7.3,0.8-14.8-0.3-22c-0.3-1.9-5.9-3.3-9.2-4.5c-1.4-0.5-3.2,0.3-6.4,0.6c6.8-3.3,14.1-2.4,16.7,1.1
	C163.1,304.2,162.6,318.7,158.6,324C158.6,324,158.6,324,158.6,324z"/>
<path d="M495.4,840.6c-0.5-7.4-1-14.7-1.4-22.1c1,0,2.1,0,3.1-0.1c0,7.4,0,14.7,0,22.1C496.5,840.5,496,840.5,495.4,840.6z"/>
<path d="M38.8,261.7c6-2.1,12.1-4.1,18.1-6.2c0.3,0.7,0.6,1.5,0.8,2.2c-5.9,2.2-11.9,4.5-17.8,6.7C39.6,263.5,39.2,262.6,38.8,261.7
	z"/>
<path d="M515.7,818.3c10.5,3.3,2.8,12.3,7.3,17c-0.8,0.2-1.5,0.5-2.3,0.7C519.2,830.4,517.6,824.7,515.7,818.3z"/>
<path d="M318,408.1c-3,6-3.1,11.8,1.1,17.5c-1.7-1.3-3.4-2.7-5.5-4.4c-2.1,7.2-4,14.1-5.8,20.4c-2.8-3.5-1.5-7.5,0.8-12.3
	c2.5-5.4,3-11.6,4.9-17.3c0.6-1.6,3.1-2.6,4.7-3.8C318.2,408.2,318,408.1,318,408.1z"/>
</svg>
