<?xml version="1.0" encoding="utf-8"?>
<!-- Generator: Adobe Illustrator 21.0.0, SVG Export Plug-In . SVG Version: 6.00 Build 0)  -->
<svg version="1.1" id="Layer_2" xmlns="http://www.w3.org/2000/svg" xmlns:xlink="http://www.w3.org/1999/xlink" x="0px" y="0px"
	 viewBox="0 0 1000 1000" style="enable-background:new 0 0 1000 1000;" xml:space="preserve">
<g>
	<path d="M290.9,364.7c-0.1,0-0.2,0-0.3,0c0,0.1,0.1,0.1,0.1,0.2c0,0,0,0,0,0C290.8,364.9,290.9,364.8,290.9,364.7
		C290.9,364.8,290.9,364.7,290.9,364.7L290.9,364.7z"/>
	<path d="M448.7,194.6c0.1,0,0.2,0.1,0.3,0.1c0-0.1,0-0.3,0-0.4c0,0,0,0,0,0c-0.1-0.1-0.2-0.3-0.3-0.4
		C448.6,194.2,448.6,194.4,448.7,194.6z"/>
	<path d="M620,136.1C620,136.1,620,136.1,620,136.1c0.1,0,0.2,0,0.2,0L620,136.1z"/>
	<path d="M726.8,283.2c-0.1,0.1-0.1,0.1-0.2,0.2c0.1,0,0.2,0,0.3,0L726.8,283.2z"/>
	<path d="M630.4,493C630.4,493,630.5,492.8,630.4,493L630.4,493z"/>
	<path d="M675.1,484.2C675.1,484.2,675.1,484.2,675.1,484.2c-3.7,2.8-6.4,6.8-6.1,11.1c0.7,8.4-0.2,14.2-10.8,11.9
		c-0.3,0.3-0.6,0.6-0.9,0.9c-1.9,1.6-4.6,2.4-5.3,5.2c-4.2,4.2-0.7,10.3-3.7,14.9c-0.2,2-0.3,4-0.5,6.1c-0.1,0-0.3,0.1-0.4,0.3
		c-2.2,1.7-5,2.8-5.4,6.2c-0.8,2.8-1.7,5.5-2.5,8.3c-2.2,3.5-4.4,6.9-6.5,10.4c8.6,2.2,6.4-4,6.5-8.4c0.1,0,0.2-0.1,0.3-0.2
		c3.5-2.5,3.8-6.3,4.1-10.1c2-0.7,3.4-2,4-4c0,0,0,0,0,0c4.3-2.7,11,0.2,14.3-5.5c-4.5-3.6-8.2,3.6-12-0.5c4.5-3.3-0.8-9.5,3.8-12.8
		c0.1,4,2.2,6.3,3.7,1.2c2.1-7,8.1-7.4,11.2-5.3c6.5,4.5,11.8,1.4,19.7,0.9c-19.9-4.8-19.4-4.7-16-20.2c1.1-4.9,6.7-4.6,6.9-9
		C677.3,487.8,676,486.9,675.1,484.2z"/>
	<polygon points="430.5,659.8 430.5,659.8 430.5,659.8 	"/>
	<path d="M375.6,548.4c-0.2-0.7-0.6-1.4-1-2.3C374.9,546.9,375.2,547.7,375.6,548.4z"/>
	<path d="M739.8,193.4c-10.6-2.4-23.4,8.3-25.1,19.3C727.2,211.1,725,192.5,739.8,193.4z"/>
	<path d="M350.5,222.3c-4,4.1-6.7-4.3-11.3-2.5c8.6,10.7,15,12.4,27.6,7.8c-3.4-7.2-9,2.3-12.1-1.3c-2.9-3.3,1-10.7-7.1-12.1
		C347.1,218,353.5,219.3,350.5,222.3z"/>
	<path d="M380,583.4c10.7,5.2,21,6,31.9,6c-8.3-1.2-12.3-8.3-18.6-12.2c-3-3.3-6.2-5-11.5-1.3c4.6,0.8,8,1.5,11.5,2.1
		c1,2,2,4,3.4,6.8C391.2,582.2,386.3,581.6,380,583.4z"/>
	<path d="M645.7,563.4c-2.3,1.6-3,4-3.3,6.6c-1.3,3.1-6.1,3.7-5.8,8.2c5.3-0.4,5.7-4.9,7.4-8.3c2.6-0.3,2.7-2.7,3.4-4.4
		c0.6-5.1,9.4-3.2,8.7-10.1c-2,0.9-3.6,1.7-7.5,3.5c4.2-5,6.7-8.1,9.5-11.5C644.5,546.3,644.4,554.3,645.7,563.4z"/>
	<path d="M648.8,135.3c0.9-0.2,2.5,0.6,2.2-1.9c-1.4-11.7,3.3-22.3,5.7-33.5c-7.9,9.8-7,22.5-10.7,33.7
		C645.4,135.2,647.4,135.6,648.8,135.3z"/>
	<path d="M629.4,127.1c5.6-3.5,8.9-7.8,5.2-14.8c-2.1,2.6-2.3,7.5-7.4,6.3l-0.2,0.2c0.5,4.5-2.1,7.4-5.1,10.4
		c-1.8,1.7-5.5,3.6-1.9,6.8C622.2,132,625.7,129.4,629.4,127.1z"/>
	<path d="M620,136.1c0,0,0.3,0,0.3,0c-0.1-0.1-0.1-0.1-0.2-0.2C620,136,620,136,620,136.1z"/>
	<path d="M410.3,136.3c0.3-10.9-13.5-17.4-7.6-31.2c-7.8,6.6-6.4,11.9-2.8,17.1C403.2,127.1,405.6,132.6,410.3,136.3z"/>
	<path d="M410.5,136.5c-0.1-0.1-0.2-0.1-0.2-0.2c0,0.1,0,0.3,0,0.4L410.5,136.5z"/>
	<path d="M263.8,392.4c8.5,7.1,15.3,12.8,23.7,19.8C277.1,393.5,276,392.5,263.8,392.4z"/>
	<path d="M636.7,170.8c11.8,1.3,3.8-12.5,12.7-12.5c-2.5-2.6-3.7,0.5-5.2-0.2c-4.5-2.2-4.5-2.2-4.7,2.3
		C639.4,163.9,640.2,167.6,636.7,170.8z"/>
	<path d="M250.2,335.9c0.2,0,0.4,0,0.6,0l-0.2-0.3C250.4,335.7,250.3,335.8,250.2,335.9z"/>
	<path d="M230.8,335.7c-0.3,0-0.6,0-0.9-0.1c-2-0.2-4.5-2.7-6,1.9c9.1,1.2,17.9,4.1,26.3-1.6c-6.4-0.4-12.9-0.8-19.3-1.2
		C230.9,335,230.8,335.3,230.8,335.7z"/>
	<path d="M637.8,593.1c-4.6,5.3-0.1,14.1-6.6,18.6c-5.6,2.3-10.6,5.3-11.5,14.8c-2.1-10.3-0.8-16.7,5.2-21.9c1.4-1.2,5.6-2.8,3-5.3
		c-6.6-6.1-3-15-7-21.5c-1.8-2.8-2.1-4.5,0.2-7c3.2-3.5,5.8-7.5,8.7-11.3c0.6-6.6,6-11.1,7.8-17.2c1.5-5,3.3-9.6,2.2-15.2
		c-1.9-9.7,6.7-14.8,11.3-21.6c1.2-1.8,3.4,1.4,5.3,1.7c-0.5-10.3-6.2-3.9-12.7-1.8c10-10-4.7-24.2,10.1-31
		c3.5,4.6,5.1,9.9,4.5,15.9c-0.2,0-0.5,0-0.7,0c-1.3-0.4-1.3-3.1-2.1-3.6c-0.3-0.2-0.8-0.1-1.5,0.6c-1.2,1.2-1,4.4,1,6.6
		c0.4,0.4,0.8,0.7,1.2,1c2.2,2.3,3.7,7.3,7.2,5.6c2.6-1.3,3.2-5.9,3.2-9.8c0-6.4-2.1-13.7,4.6-18.5c-3.8-2.2-5.2,2.9-8.5,3.2
		c0.1-8.6-8.5-18.4,3.8-25.1c0.2-0.1,0.5-0.2,0.7-0.3c1.8-0.6,3.8-0.9,4.3-3.3c-0.7-0.6-1.2-1-1.8-1.1c-1.6-0.5-2.7,0.7-3.8,1.8
		c-0.5,0.5-1,1-1.5,1.4c-7.9-4.7-3.9-10.8-1.9-16.6c0.1,0,0.1,0,0.2,0c3.2-0.6,0.9,8.1,5.8,4.7c0.2-0.2,0.5-0.3,0.7-0.5
		c-1.3-2.2-1.7-5.1-4.3-6.4c-4.5-8.6,1.7-15.3,3.8-22.8c-1.6,1-2.9,2.2-4.1,3.5c-3,3.7-4.3,8.8-3.5,13.8c0.1,1.9,0.6,3.7,1.8,5.7
		c-0.1,0.5-0.3,0.9-0.4,1.4c0,0.1-0.1,0.3-0.1,0.4c-8.3-1.1-9.1-7.8-7.7-13.5c1.4-5.8-0.1-15.9,11.5-13.8c-5.2-3-5.9-12.4,0-14.9
		c6.4-2.7,10.3-11.1,19.2-8.5c1.3,0.4,6.5-0.8,1.8-6.1c-6.5-7.2,2.9-22.2,13.2-22.5c-6.1-7.8-5.7-14.3,3.6-18.8
		c-5.8-0.7-2.5-2.8,0.1-3.8c7.6-2.7,15.4-4.8,23.2-7.2c0.6,0.2,1,0.4,1.3,0.8c0.7,0.9,0.5,2.3,0.7,3.4c0,0,0,0-0.1,0.1
		c-6.4,5.9-15.3,0.5-22,4.9c-0.2,0.1-0.3,0.2-0.5,0.2c-0.4,0.1-0.8,0.2-1.2,0.3c-0.5,0.2-0.8,0.5-0.9,1.2c0,0,0,0,0,0c0,0,0,0,0,0
		c0,0,0,0,0,0c-0.2,0.1-0.3,0.2-0.5,0.2c0.2,0,0.3,0,0.5,0.1h0c0,0,0,0,0,0c0-0.1,0.1-0.2,0.1-0.2c0.2,0.1,0.4,0.1,0.7,0.2
		c7.5,2.3,15,3.2,22.5-0.1c0.6-1.3,1.2-2.6,1.8-3.9c0.4-0.4,0.5-0.8,0.6-1.2c2-3,6.9-6.1-1.1-8.7c-4.9-0.3-4.1-3.6-3.6-6.7
		c4.6-0.8,7.2-3.6,8.9-8.2c-4.1-0.2-4.7,3.5-7.2,4.1c-3.3-5.3-4.6-1.5-6.2,1.4c-3.2,0.8-3.9-0.6-4.2-3.6c-0.9-9.7,2.9-17.2,9.8-23.5
		c-8.8-1,2.3-5.9-1.3-7.9c9.3-6.5-3.1-8.2-2.9-12.7c1.8-3.2,2.3-6.1-1.3-8.4c0,0-0.1-0.1-0.1-0.1c0,0,0.1,0.2,0.1,0.2
		c-3.6,2.6-2.8,5.4-0.5,8.4c0,0,0,0,0,0c0,0,0,0,0.1,0c3.3,4.4-3.7,9-1,13.3c0.3,0.5,0.7,0.9,1.3,1.4c0.1,2.4,0.1,4.4-1.4,6.8
		c-4.4,6.9-10.1,13.3-10.6,22.4c-3.8-6.1-1.5-12.5-2.5-18.6c-1.2-6.5,3.6-11.6,4.2-19c0-0.3,0-0.6,0.1-0.9c-0.3,0.2-0.6,0.3-0.9,0.5
		c-6.3,3.7-6.6,9.7-8.4,14.6c-6.6-2.8-5.1-8.8-5.6-13.9c0-0.1,0-0.2,0-0.4c-0.4,0.1-0.6,0.3-0.9,0.5c-2.4,1.8,0.4,5.6-2.9,7.9
		c-0.2-7.9-12.3-11.1-6.6-21c-6.9-0.2-9.7-3.8-8.5-10.6c0.3,0.1,0.6,0.1,0.9,0.1c11.1,1.7,7.3-7,7.9-12.7c2.7-2.1,4-5,4.4-8.3
		c-5.3,0.8-4.4,5-4.6,8.5c0,0,0,0,0,0c0,0,0,0,0.1-0.1c-2.8,4-3.2,9.9-8.3,11.9c-0.7-0.3-1.4-0.1-2,0.5c-4.5,2.6-8.5,1.1-10-3.1
		c-1.8-5.1,0.9-9.4,5.9-11.4c4.3-1.7,5.3-4.4,4.1-8.5c9-7.6,2-18.5,5.8-27.2c-1-6.1,4.7-12.7-1.1-19.6c-0.4,7.2-0.8,13.3-1.1,19.4
		c-3.2,8.1,0.1,17.7-5.8,25.2c-3.5,2.8-1.5,11.6-9.9,9.1c2.5-1.6,1.1-4.4,2.1-6.4c4-8.1,1-17.8,5.8-25.7c3.2-1.8,5.3-4,3.8-7.9
		c-4.2,0.8-3.1,5.6-5.7,7.4c-0.1,0.1-0.2,0.2-0.4,0.2c-3.2-2.3,0.2-6.7-2.2-8.6c-8.6,11.8-3.1,25-3.7,37.8c-5.9,2-13.8-3.1-14.4-9.6
		c-0.4-4.2,0.5-8.7-4.4-11c-2.5,2.1-0.3,3.4-0.3,4.9c0.1,2.2,3.1,5.1,0.3,6.4c-1.8,0.8-5.2-0.1-6.6-2.9c-0.5-0.9-0.9-1.9-1.6-2.7
		c-3.6-3.6-8.3-1-12.5-1.7c-1.7-0.3-2.4,2.9-0.1,4.6c10,1.2,12.2,6.9,9.1,16.7c-3.5-1.6-3.8-5.9-7-6.6c0,0,0,0-0.1,0c0,0,0,0,0,0.1
		c-0.6,2.1,1.8,6.2-0.7,6.1c-4.6-0.3-3.7-4.7-2.9-8.1c-0.2-1.3-0.4-2.6-0.6-3.9c-2.8-0.1-4-3.5-6-5.2c2.2,8.3,0.2,17.2,6.9,22.7
		c2.3,1.9,5,3.6,2.9,6.1c-1.5,1.8-2.8-3.6-5.7-2.3c-3.1-0.2-6.3-0.3-9.4-0.5c-0.3,0-0.7,0-1-0.1c-0.4,2-0.8,3.9-1.2,6.2
		c4.6-0.9,6.9-5.7,11.6-4.1c0.7,4.4,9,6.2,4.2,12.5c-6.6,3.1-5.5,7.4-2.4,12c0,0,0,0,0,0c0,0,0,0.1,0.1,0.1c0,0,0.1,0.1,0.1,0.1
		c0.1,0.1,0.1,0.2,0.2,0.2c0,0,0,0.1,0.1,0.1c0.5,2.6-1.4,5.8,1.5,8.3c3.5-4.1,2.4-6.5-1.4-8.3c1.4-4.2,1.3-8.9,4.6-12.2
		c0,0,0,0,0,0c0.6,1.9,1.2,3.8,1.7,5.6c4,0,11-1.3,11.6,0.1c1.9,4.7,1.5,10.4,2.2,15.7c0.4,2.8-1.1,4.2-3.1,5.7
		c-3.9,3,0,3.4,1.6,4.5c5.3-2.6,7.1-2,10,4.7c5.7,13.3-2.3,21.3-7.8,30.8c-2.6-0.5-1.7-3.2-2.7-4.6c0.9-4.5,1.7-8.9,2.7-13.9
		c-5.7,3.7-3.3,9.8-5.9,13.9c-0.3,2-0.6,4.1-0.9,6.1c-0.2,0.2-0.3,0.3-0.4,0.5c-0.8,1.4-0.6,3.8-1.5,5c-0.3,0.2-0.6,0.5-0.9,0.7
		c-0.5,0.2-1.1,0.2-2,0.1c0.2-0.2,0.3-0.4,0.5-0.6c0.3-0.6,0.5-1.2,0.7-1.8c0-0.1,0-0.1,0.1-0.2c0.1-0.3,0.1-0.6,0.2-0.9
		c0.1-0.8,0-1.7,0-2.4c0-0.6,0-1.1,0.2-1.6c0.2-0.6,0.6-1.1,1.4-1.4c-3-3-1.6-9.6-8-9.7c0.3,1.1,0.8,2.2,1.3,3.3
		c1.8,4.2,4.2,8.2,3.1,13.2c-0.1,0.7-0.1,1.4-0.1,2c-0.5,0.5-0.9,1.1-1.4,1.6c-0.2,0.2-0.4,0.3-0.6,0.5c-6.9-3.4-9-12.5-4.7-20.5
		c-5.4-1.1-6.2-5.8-5.7-9.6c0.9-6.1,5.6-4.5,9.6-3.1c1.6,0.5,3.4,1.9,4.7,1.5c3.4-1.1,8.1,3.1,10.2-1.2c2.5-5.2-5.3-1.6-5.4-5.3
		c0-1.4-0.1-2.7-0.2-4.1c-3.7,0.8-8.1,6.8-10.5-1.4c1.6-0.8,1.8-2.3,2-3.8c0.2-1.7,0.3-3.5,2-4.4c0,0,0,0,0,0
		c5.6-2.6,4.3-5.1,2.2-7.7c-0.8-1-1.6-1.9-2.3-2.9c-0.1,2.5-0.2,5-0.3,7.5c-4.4,2.6-4.2,6.8-4.1,11c-1,0-2.3,0.2-2.6-0.3
		c-6.2-9.1-7.8-8.9-13.4,1.8c-0.3,0.6-0.9,1-1.6,1.8c-2-4.5-4.2-8.1,0.5-12.9c3.3-3.3-4.8-1-3.7-4.4c1.5-4.7,3.3-9.4,5.3-15
		c-3.4,1-8,7.5-9.9-0.7c0,0,0.1,0,0.1,0c-2.7-5.4-6.3-10.6-7.6-16.3c-0.6-2.8,3.4-6.4,8-5.9c4.5-7,8.9-14.1,14.2-22.3
		c-1.4-0.9-3.2-1-5.9,1.1c1.2-8.1,7.1-8.8,12.2-10.5c-3.6-2.7-6-5.4-1.7-9.7c1.9-1.9,2.9-4.6,4.4-6.9c0.1-0.7,0.3-1.9,0.2-1.9
		c-8.9-3.2-4-7.7-0.6-11.1c2.5-2.5,0.4-4.1,0.2-6.1c-0.5-4.7-3-9.2-2-14.1v0c2.6-2.2,3.4-5.3,4.4-8.3h0c2-1.3,4-3.9,5.9-3.8
		c7.5,0.3,6.3-4,5.1-8.7c-2.6,6.1-11.3,5.4-13,12.3c-1,2.4-4.1,3.5-4.1,6.5c-0.7,0.5-1.9,1.5-2.1,1.3c-9.7-7.6-0.8-12.2,3-17.6
		c-6.5-0.5-7.3,5.9-11.3,9.5c-0.7-2.1-1.2-3.9-1.8-5.8c2.8-8.9,5.6-17.7,8.4-26.6c0.4-1.2,0.8-2.5,0.9-3.7c0.1-1-0.5-0.8-1.4-0.3
		c-4.5,2.2-3.8-1.4-4.5-4c-2.1-7.1-1.5-14.8-1.2-21.4c0.6-14.1,2.1-28.1,1.4-42.4c-0.3-6.4-2.2-9.8-8.3-11
		c-3.9-6.6-10.1-12-9.3-20.8c-3.2,9-3.4,9.4-5.6,8.8c-5.8-1.7-10.4-4.3-11.7-11.1c-1.5-7.8-5.5-7.7-10.7-2.1
		c3.7,1.7,8.7,3.7,8.8,7.3c0.3,8.3,6.5,9.3,11.6,11.1c6.2,2.2,11.1,6.2,16.6,9.5c4.7,7.4,5.6,15,2.7,23.4
		c-2.1,6.3-4.2,12.2,0.7,19.2c3.6,5.1,0.7,13.9-2.6,17.2c-4.2,4-1.7,5.7-0.6,8.3c2.7,6.4,7.7,11.9,5.8,19.8
		c-1.5,6.2-2.4,12.5-3.5,18.8c-1.4,2.7,1.1,6.5-2.7,9.1c-4.3-5.7,0-12.6-4.4-20.8c0.6,7.7-2.1,12.3,0,17.4
		c-8.7-1.4-10.6-9.2-15.4-13.9c-3.6,7.7-7.7,14.5-17.5,14.1c-0.6-5.5,2.8-8.3,7.3-9.3c1.5-0.3,2.5,1,3.1-1.6
		c2.3-9.1,12.8-14.7,9.9-26.3c4.1,2.1,0.8,6,4,7.4c1.6-7.2,5.2-14.6,4.3-21.5c-1.6-12.3-2.4-24.8-7.3-36.9
		c-10.4-25.3-26-43.9-53.6-50.6C524,4.8,515.7,6,507.4,6c-19.8-0.2-41.2,15.3-49.5,33c-12.2,25.8-8.9,52.1-4.5,78.7
		c0.3-3.5,0.5-7,0.9-11.2c5.5,6.3,2.4,14.2,6.6,20c2.6-1.5,0.2-4.7,2.3-6.4c0.7,1.2,2,2.4,1.9,3.6c-1.2,13.4,14.8,14.4,17.6,24.9
		c10.2-2.4,9.6,4.7,9.1,11.3c6.4-1.3,1.9-7.1,5.5-9.9c6.1,11.8,3.3,24.8,6.1,36.9c1.1-11.1,2.1-22.3,3.2-33.7
		c6.9,4,0.4,12.3,7.1,17.5c0.3-4.3,0.3-7.2,0.7-10.1c0.3-2.4-1.8-6.3,2.8-6.4c5.4-0.2,3.3,4.3,3.4,6.9c0.2,12.2,0,24.4,0.2,36.5
		c0.1,3-1.9,7.2,3.4,8.8c2.8-17.1-2.4-34.8,3.2-51.9c5.7,2.5,1.9,7.4,5.3,9.8c0.4-4.1,0.8-7.9,1.3-12.9c11.6,7.3,5.5,18.4,8.8,28.3
		c6.3-9.6-1.1-22,7.3-29.8c3.8,2.2-0.5,7.5,5.1,8.9c0.6-3.3,1.2-6.5,1.9-9.6c1.5-6.9,4-5.7,6.9-1.6c0.1,0.2,0.3,0.5,0.5,0.8
		c-2.7,10.2-15.7,19.9-1.7,31c0.8,3.2,1.6,6.4,2.6,10.5c2-4.4,2.4-7.6-0.4-10.5c3.7-5.2-3.6-10.9,0.7-16.1c11,5.1-0.4,14.6,3.6,20.4
		c11.5-9,0-25.5,11.3-35.7c1.4,3.8-4.7,7.9,1.7,10.3c2.4-3.1,1.4-10.1,6.3-9.4c5.3,0.8,2.3,6.9,3,10.6c0.1,0.3,0.1,0.7,0.1,1
		c-1.4,1.3-2.9,2.5-4.3,3.8c-2.6,1.9-6.8,2.1-7.4,5.9c-0.1,0.7,2.9,2.9,4.4,4c1.7,1.3,0.2-4.7,3.8-3.4c-0.1,6.1-5.3,12.5,0.7,18.1
		c4.2-8.1,2.7-17.1,3.1-25.8c4.7-3.1-0.4-9,5.7-14.8c-3.5,8.2,10.8,11.2,0.5,18.3c4.6,3.4,5.5,9.3,8.8,13.5
		c8.6,10.9,4.7,22.3-8.8,24.7c-2.5,0.3-2.8-4.6-6.4-2.4c0.7,3.3,2.9,4.6,6.1,4.7c3.1,3.4,2.6,7.4,1.9,11.5c-3.4-0.2-5.4-4.1-9.7-2.9
		c2.2,2.4,1,5.3,1.6,7.9c-3.1-0.5-6.2-1-11.6-1.9c9.2,5.3,5.3,8.8,1.5,12.4c-6.4,1.9-12.6-1.4-20.3-1.8c4.1,5.9,12.8,5.3,13.1,10.6
		c0.3,5.9,3,9,6.6,12.3c9.4,8.3,11.1,11.1,10.7,21.4c-0.2,5,2.2,8.3,5.3,11.8c7.3,8.4,7.3,22.5,0.6,31.5
		c-8.4-22.7-16.8-45.7-25.2-68.6c-2.6,0.7-1.5,5.6-5.4,4.5c0.4-1.5-2.3-4,1.3-4.6c0,0,0,0,0,0c0.1,0,0.2-0.1,0.2-0.1
		c-0.1-0.2-0.1-0.3-0.2-0.4c0.5-2.7,1.7-5.7-2.9-6.6c-1.7,3.5-0.2,5.5,2.8,6.9c0,0.1,0,0.2,0.1,0.2c-9.2,1.2-5.6,6.1-2.3,10.1
		c3.9,4.7,7,9.3,9.5,15.2c4.8,11.3-7.3,19.4-3.1,30.1c-1.9-1.6-2.4-3.5-3.3-5.2c-4.3-7.4,1.1-20.7-2.9-22.2
		c-10.1-4-5.4-14.3-11.8-19.3c-3.9-3.1,0.2-15.9-12-9.7c-0.4,0.2-2.2-2.4-3.3-3.7c-0.2-3.5,7.3-6.2,0.6-10.5
		c-0.8,2.8-1.6,5.5-2.4,8.2c-1.8,0.8-3.3,1.9-3.7,3.9c-2.7,2.4-4.6,2.2-6.1-1.6c-3.3-8.3-3.7-17.2-5.6-27.5
		c-2.7,9.6-3.3,18.2-4.6,26.2c-1.2,7.4-7.8,13-6.3,19.7c1.5,6.6-1.9,12.2-1.1,18.3c0.1,1-1.9,5.2-3.1,3.5c-4.9-7.1-5.9,2.9-9.1,1.8
		c-3.9,10.5,0.5,18.9,6.8,27c6,7.8-2.4,14-3.4,21.1c-1,7.1-1,10.3,5.4,14.9c5.2,3.8,12.1,10.5,3.5,19.6c-5.2,5.5,0.6,13,1.4,19.4
		c0.5,3.9,1.3,6.3-3.1,7.6c-0.4,0.1-0.9,0.2-1.4,0.3c0.6,0.2,1.2,0.5,1.8,0.7c10.1,4.5,10,10.8,1.2,22.7c-3.6,4,0.7,10.1-3,14.1
		c-0.2,0.3-0.5,0.5-0.8,0.7c0,0,0,0,0,0c-0.5-0.8-0.7-2-1.4-2.5c-2.6-1.7-7.8-0.9-6.6-6c1.1-4.8,5-6.8,9.9-6.4c0,0,0,0,0,0
		c0,0,0,0,0,0c-12.1-14.1-9-31.7-4.9-46.1c2.7-9.3-5.1-13.6-2.7-20.6c0.1-0.2-0.4-0.8-0.5-0.8c-12.2,2-6.2-7.8-8.6-12.4
		c-3.8-7.4,0-14.1-0.7-21.6c-0.8,3.6-4,5.1-5.9,7.9c-2.7,3.7-4.4,6.8-2.4,11.2c1.7,3.7,0.7,7.4,0.6,11.1c-5.5,0.7-4.9-4.2-5.3-6.2
		c-0.9-3.6-3.8-5.3-5.5-4.7c-3.2,1.2-1.5,4.4-0.3,6.7c2,3.9,3.9,7.9,6.1,11.7c1.7,3,1.3,5.1-1.4,7.2c-3.7-3-2.8-8.1-5.7-11.7
		c-1.4,8-0.2,11.6,6.1,19.8c1.1,1.4-0.1,22.3-1.4,23.6c-0.7,0.7-2.3,1.7-2.3,1.7c-3.3-4-10.4-2-12.4-7.9c0.2-0.2,0.3-0.4,0.5-0.6
		c2.3-3.1,4.5-6.2,6.8-9.5c-4.3-1.8-4.8,3.5-7.9,3.6c-0.2-0.2-0.3-0.4-0.5-0.5c-2.9-3.2-0.2-7.9-3.2-12.5c0,5.3-5.4,9.6,1.7,13
		c0.1,1.8,0.3,3.6,0.4,5.4c0,0.3,0,0.6,0.1,0.9c-1.3,3.9-4.4,5.2-6.9,2.3c-2.9-3.4-4.7-7.3-3.3-12.8c2.3-8.5,7.2-15.3,11.4-22.6
		c2.7-4.6,3.9-8.5,0.4-15.2c-3.1-6,3-14.9,12.6-16.4c0.8-4.2-0.9-9.7,5.9-10.6c0.3-3.4-0.4-6.9,2.4-9.8c1.1-1.2,1.4-3.2,3.8-1.8
		c1.5,0.9,4.9-1.2,5.7-2.6c0.9-1.7,1.1-3.2,0.7-5.1c-3.6-0.7-2.4,5.1-5.9,4.4c-0.5-0.4-0.9-0.8-1.4-1.2c3.5-3.8,1.2-12.6,10.1-11.7
		c1.2,0.1,2.4,0.3,3.6,0.5c0.2-2.7,0.4-5.3,0.5-8c3-3.8,2.3-7.8,0.7-11.9c-1,4-0.6,8.1-2.6,11.8c-2.9,4.5-3,4.6-4.6,1.9
		c-2.2-3.8-3.5-7.7-0.3-11.7c0.4,0.7,0.9,1.3,1.3,2c0.2-0.2,0.6-0.4,0.7-0.7c1-5.4,0.8-10.5-3.9-14.4c-4-8.9,5.3-17.4,0.4-26.7
		c-1.3-2.5,0.3-6.7-1.5-10.4c-1.1,7.9-1.8,15.3-3.4,22.6c-1.1,4.9-3.7,8.3-8,2.1c-1.6,6.9,5.3,13.4,1.1,20.6
		c-4.3-1.1-8.6-2.7-13.2-1.9c7.3,6-2.4,10.3-1.9,15.7c0.2,1.5-2.9,3.8-3.1,2.8c-1.5-7.2-11.4-2.4-12.1-8.2c-0.8-6.7,4.3-11,9.8-14.2
		c0.7,0.3,1.3,0.7,2,1c1.6,0.9,3.2,1.7,4.8,2.6c0.5-3.5-1.7-5.8-3.7-8.1c-0.1-0.1-0.1-0.2-0.2-0.2c-2.9-7.1,4.2-3.1,6.2-5.1
		c-4.9-4-9.1-5.4-12.4,1.2c0.9,1.4,1.7,2.7,2.6,4.1c0.5,0.7,0.9,1.5,1.4,2.2c-4,0-8.1,0.6-12,0c-4.4-0.7-0.3-2.5-0.1-3.8
		c0,0,0,0,0,0c0.5-0.1,1.1-0.2,1.7-0.2c1.7-0.1,3.5-0.2,4.4-2.2c-0.6-2.2-2.3-2-4-1.8c-0.6,0.6-1.3,1.1-1.9,1.7
		c-0.2,0.2-0.5,0.4-0.7,0.6c-7-0.2-13.3-1.7-17.4-8.1c-2-3.1-2-5.3,2.6-5c-2.9-6.5,7.6-4.7,6.3-10.2c-3.6-3.7-1.4-8.2-1.5-12.4
		c0,0,0-0.1,0-0.1c0-0.2,0-0.3,0-0.5c1.1,0.2,1.7-0.4,2-1.5c0.3,0.1,0.6,0.2,0.8,0.4c4.5,2.4-1.7,8.9,3.5,11.1
		c0.7,0.3,1.3,0.1,1.8-0.4c0,0,0,0,0-0.1c-1.4-5.2,3.8-12.3-4.5-15.6c1.3-2.8,3.8-7.7,2.1-8.4c-5.8-2.3-4.8-5-1.7-8.1
		c4.1-3.9,6.9-1.3,9.5,2.1c0.5-2.5,6.7-5.6-0.9-7.5c-1.6-0.4-0.7-3.7,0.9-5.4c1.5-1.7,4.1-2.9,2.9-6c-4.7-6.5-0.1-12.1,2.6-17.2
		c1.7-3.2,1.3,3.4,3.9,2.5c0,0.2,0,0.3-0.1,0.5c-0.3,3.4,1.5,7.2-2.1,10v0c0.3,1.6,1.3,2.6,2.7,2c3-1.2,0.8-4.2,1.9-6.1
		c-0.6-1.6-0.3-3.4-0.5-5.1c-0.2-1.2-0.7-2.3-2-3.2c0-2.3,0.6-4.2,3.4-3.6c1.1,0.2,1.9,1.6,2.9,2.5c-4.7,3.1,1.9,8.2-1.9,11.5
		c2.5,6.9,1.5,14.3,2.6,21.4c5.2-7.9,1.6-16.6,1.6-24.9c4.7,0.9,9,3.8,7.7,7.2c-3.2,8.1,1.6,14.2,2.6,22.5
		c5.4-7.3-1.5-15.1,3.4-22.6c2.2,8.1-1.3,16.2,4.9,21.6c5-12.8,0-25.9,0.5-39.2c-4.9,2-10.4,1.4-12.6-5.8c-2.2-7.1-4.8-4-8.2-0.9
		c-1.5,1.4-2.6-0.9-3.1-3.3c-0.7-3.2,0.1-7.5-4-9.2c-1.7-0.7-4.4-2.2-4.9-3.7c-3.4,22.1-3.4,22.1-9,19c-0.3,4.6-0.6,9.2-0.9,14.4
		c-6.9-2.2-10.9-8.7-18-7.3c2.1-2.2,2.2-4.7,2-7.7c-1.4-15.1-1.3-15,14.1-19.8c1.7-0.5,3.4-1.1,3.2-5.5c-0.4-13.2-9-25.2-5.1-38.9
		c1.6-5.7-0.1-11.3-4.7-16c-3.6-3.7-4.1-8.2-1.4-13.1c7.8-14.2,15.3-28.5,22.9-42.8c6-2.5,12.5-4.4,15.5-14.2
		c-6,3.9-12.2,4.2-15.6,8.8c-0.1-0.2-0.3-0.3-0.6-0.5c-2.5-0.9-5.3-1.3-5.7,3.3c-0.3,3.9-1.8,7.7-2.9,12.5c-0.7-1.9-0.8-3.4-1.6-4.1
		c-1.3-1.2-1.5,0.5-1.5,1.2c0.4,7.9-9.9,12.3-7.1,21.2c0.3,1.1-1.2,4.5-3.8,5.6c-6.7,2.8-9.1,8.9-5.8,14.3c3.1,3.8,2.3,9.7,7.1,12.6
		c1.1,0.7,4.1,1.7,1.9,4.4c-2,2.5-3.7,2.1-5.8-0.1c-1.6-1.7-3.6-3-5.4-4.4c-3.7,6.8,5.7,7.2,5.6,10.2c-0.2,9.6,5.9,16.3,8.7,24.4
		c3.1,9.1-2.4,18.6-10.4,19.5c-2.2,0.3-7.7,1.9-5.3-3.9c2.7-6.7,0.4-13.7,1.8-20.4c3.1-2.8,1.9-6.1,1.2-9.6c-3,1.7-3.3,4.3-3.3,7.1
		c-0.8,0.7-1.7,1.4-2.5,2.1c0.2-5-3.3-8.3-5.7-13.3c-1.7,6.8,2.2,10.3,5.1,14.1c0,0.3,0.2,0.6,0.7,0.9c2,3.7,3.2,7.3,0.9,11.5
		c-2,3.7,0.5,9.4-5.2,11.5c5.4,9.3,3,20.7,7.7,30.2c0,0.4,0.2,0.8,0.7,1.3c0.7,1.9,2.1,3.8,1.9,5.6c-0.3,2.4,5.2,4.6,0.6,6.4
		c-2,0.8-6.2,2.1-7.2-2.9c-0.2-1.2-2.4-2-3.7-2.9c-0.1-0.2-0.3-0.4-0.5-0.5c-3.3-3.9-3.6-10.5-10.1-11.7c0.7,1.9,1.5,3.7,2.2,5.6
		c-4.2,0.1-10.4,1.8-9.6-4.9c0.5-4.3-2-7.6-1.3-11.5c-0.9-11.2-5.2-21.1-11.9-31.3c-1.3,12.7,9.3,20.5,10.2,31.3c0,2,0.7,4.4,0,6.1
		c-4.8,10.9-1.1,14.8,10.2,12.9c3,1.3,6,2.6,9,3.9c1.9,4.7,4.4,9.2,5.5,14.1c0.9,4.2,5.1,9.4-1.4,13c4.2-0.2,6.9,0.5,6.6,6
		c-0.3,5.1-4.7,5.9-6.9,5.7c-4-0.4-0.8-4.9-2.1-7.3c-3.5,0.7-1.1,4.3-2.7,5.7c-4.4-1.5-5.5-8.1-11.1-7.6c0,3,3.9,3.1,3.5,6
		c5.7,5.5,10.1,12.1,13.5,19c4.7,9.6-3.6,17.5-17.2,17.1c0,0.1,0.1,0.2,0.1,0.3l0,0c-0.1,0-0.2,0.1-0.3,0.1c0,4.4-1.2,8.4,2.4,13
		c4.2,5.5-0.7,11.1-5.4,14.5c-2.4,1.7-5.1,3-7.2,5.2c-2.7-4.2,2.2-6.9,1.8-10.5c0,0,0.1,0,0.1-0.1c1.9-1.5,5.7-2.2,2.2-5.8
		c-0.8,0.8-1.5,1.5-2.3,2.3c0,0.4,0,0.8,0,1.3c-0.4,0.2-1,0.3-1.6,0.3c0,0.1,0,0.3-0.1,0.4c0,0.3-0.1,0.5-0.1,0.8
		c0,0.3-0.1,0.6-0.1,0.9h0c-1.2,1.9-2.5,3.8-3.9,6c-0.8-3.2-2.1-6.1,1.4-8.2c1.2-1.9,2.4-3.9,3.7-5.8c0.1-0.2,0.3-0.4,0.4-0.6
		c3.5-3.8,3-10.2,7.8-13.1c0.1-0.2,0.2-0.5,0.2-0.8c0.2-0.1,0.4-0.2,0.6-0.3c0-0.1,0.1-0.2,0.2-0.2c-2.3-5.3,0.8-10.9,1.1-15.9
		c0.3-4.7-3.3-4.6-3.5-7.2c0.4-0.6,0.9-1.2,1.4-1.8c2.4-3.1,4.8-6.2,4.8-10.5c-5.3,1.2-4.6,6.2-6.3,9.8c-1.5,0.3-3.1,0.6-4.6,0.9
		c-0.5,8.1,3.8,16.5-0.3,24.4c-4.5,0-3-7.2-7.9-5.8c0.4,1.2,0.5,2.8,1.3,3.6c7.1,7.6-0.7,11.6-4.2,16.1c-1.7,2.2-6.1,1.9-8.5,0.2
		c-1.8-1.4,1.3-3.4,1.5-5.4c1.6-2.5,6.5-5.5,2.3-7.9c-4.1-2.3-1.4,4.9-4.5,5.7c-3.9,0.7-6.6,0-6.5-4.9c0-1.4-2-1.7-3.4-1.4
		c-0.7,0.2-2.8,0.3-1.7,1.6c7.7,8.9-7.5,9.8-5.6,16.6c-3.8,0-6.6,4.1-11.3,1.4c-4.8-2.8-2.6-5.4-1.2-8.4c2.9-6,0.2-10.9-3.7-17.6
		c0.3,7.3-1.7,11-8.3,9.1c-5.6-4.3-12-3.1-18.3-2.7c5.4,4,12,3.6,18.1,4.8c1.8,3.7,12.1-0.5,8.2,7.7c-2.5,5.2,0.3,6.9,2.6,10
		c1.5,2,7.3,5.2-0.2,7.4c-4.4,1.4-8.9,3.7-13.2-0.5c-2-3.4-0.1-8.9-7.8-11.8c3.5,4.8,2.8,9,6.3,11.7c-1.1,2.9-3.8,7,2.8,5.7
		c4-0.8,7.7-2.2,11.9-1.4c-2,9.5-10.2,3-15.4,5.2c1.4,3.8,6.2,2.8,6.9,6.4c-7,11-16,6.2-24.8,3c-3.6-3.3-7.3-6.6-10.8-9.9
		c-1.2,6.7,2.1,10.3,8.9,11.4c2,2.2,3.6,5.1,6.1,6.5c1.9,1.1,5.4,0.3,3.8,4c-1.5,3.5-3.4,6.9-7.8,7.8c-7.9,1.6-14.2,12.5-13.7,14.1
		c3.7,11-4.2,4.9-7.2,5.8c-4,1.3-6.9-2.8-10.7-1.9c-0.8-3.1-3.3-2.5-5.4-2.6c-2.9-1.8-5.2-6.8-9.5-2c-3.2-0.1-5.8,0.8-7.7,3.7
		c3.9,1.7,6.8-1.6,10.1-1.8c1.3,0.1,2.6,0.3,3.9,0.4c2,3.5,6.3,1.4,8.8,3.6c1.4,1.5,2.8,2.9,4.1,4.4c2.1,1.1,6.3-2.5,6.3,3.2
		c0,3.8-2.3,3-4.5,2.9c3.5,4.4,5.9,9.8,10.6,13.3c4.5,1.4,1.7,4.7,2.3,9.6c-2.1-3.9-3.2-5.9-4.3-7.8c-2.9,1-1.8,2.5-1.1,4.6
		c1.1,3.2,3.2,6.9-0.8,9.6c4.3,12.9,16.6,18.9,25.7,28.6c-7.3,3.3-9-3.9-13.3-5.3c-4.5-6.8-10.5-11.6-19.5-14.3
		c1.7,4.6,4.9,5,7.8,6.3c0.8,0.4,1.4,3.6,0.8,4.5c-2.7,3.8-5.2,0-7.9-0.7c-2.6-1.9-4.7-5.3-9.4-3.5c2.2,1.9,3.4,4.1,6.1,3.9
		c3.5,5,11.6,3.5,14,10.1c1.8,4.2,3.6,8.4,5.6,12.8c-4.1,0.4-6.4-2-8.7-4.4c-1.3-2.3-1.7-5.7-5.6-5.3c-0.4,3.1,1.6,4.3,3.7,5.4
		c-0.3,4.9,3.8,6.7,7,7.2c7.1,1.1,9.7,6,12.3,11.5c0,2.7,0.7,6.3-4.2,4.2c-6.9-2.6-11.5-8.4-17.7-13.1c2.8,4.5,2.1,7.2-3.5,7.8
		c6.3,4.8,13.1,4.7,19.2,6.8c1.5,2.7,7.3,1.7,6.1,6.8c4.3-4.5,1.8-9.6,1.5-14.6c-1.3-4.5-2.9-8.7-5.8-12.6c-2.5-3.4-6.2-7-4.4-12.1
		c0-0.1,0.1-0.3,0.2-0.4c0,0-0.1,0-0.1,0c-0.1,0-0.2,0-0.3,0c-1-0.1-2-0.2-3.1-0.3c0-0.4,0-0.8-0.1-1.2c-0.5-2.9-3.3-5.2-2.1-8.7
		c1.9,1.3,3.7,2.5,5.4,3.7c0.1,0.1,0.2,0.1,0.3,0.2c2.1,2,1.7,4.1,0.3,6.3c17.4,3.3,20.9,8.2,17.3,29c-0.8,4.5-1.3,7.1,4.4,9.3
		c4.4,1.7,8.1,6.3,7,13.4c-3.4-1.8-6.1-4.9-10-3.4l0,0v0c6.4,5.7,15.3,8.9,19.2,17.7c-5,1-8.7-5.7-13.6-1.4
		c-5.8-1.9-11.6-3.8-20.2-6.7c8.3,6.8,14.6,10.2,22.8,8.5c2.9,0.9,6.1,1.2,8.5,2.8c2.2,1.4,5.9-0.7,6.8,2.4c1.4,5.1-6,1.2-6.1,4.2
		c2.5,4.1,8.2-1.6,8.5,3.6c0.3,5.8,5.6,9.1,5.4,14.6c1.9,0.5,4.6,2,5.5,1.3c2.2-1.8-0.7-3.4-1.3-5.2c-1.9-5.7-3.9-11.3-5.8-17
		c-1.7-3.8-3.3-7.7-5.2-12c6.3-0.8,8.2,4.1,10.9,7.8c-0.1,0.1-0.3,0.1-0.4,0.2c-1.3,0.5-2.9,0.9-3.4,2.2c-0.1,0.3-0.2,0.6-0.2,0.9
		c0,0.3,0,0.6,0,0.9c0.3,0.3,0.7,0.5,1,0.8c5.2,4,10.4,7.9,15.6,11.9c2.9,1.9,0.4,6.6,4.2,8.1l0,0c0.1-1.2,0.2-2.3,0.2-3.5
		c0-2.8-0.6-5.4-4.1-6.7c-0.2-0.2-0.3-0.3-0.5-0.5c-3-4-3.5-10.6-11-10c-1.2,0.1-1.8-2.2-1.3-3.9c0-0.1,0.1-0.2,0.1-0.3
		c2.8-1.4,2.1-3.9,2.1-6.3c-12.3-3.6-20.7-9.9-16.9-24.7c0.1-0.6-0.9-1.5-1.5-2.2c-0.1-0.2-0.6,0-1.2,0c-3.7,2.4,3,5.2-0.2,7.7
		c-5.6-4.6-12.1-8.3-5.6-17.6c2.2-3.1,0.7-9,0.4-13.6c-0.3-5.6,2-3.8,4.6-1.9c0.2,0.4,0.5,0.9,0.8,1.3c3.3,5.3,7.8,9.5,12.8,13.1
		c0.1,0.1,0.2,0.1,0.3,0.2c-1.3,2.3,3.6,4.1,1.1,5.8c-2.9,1.9-4.6,0-5.8-3.2c-0.8-1.9-3.2-3.2-5.6-5.4c0,0-0.1-0.1-0.1-0.1
		c0,0,0,0.1,0,0.1c2.1,8,2.1,8,9.4,11.6c2.6,1.3,0.5,3.7,0.9,5.5c0,0,0,0,0,0c-0.1,0.2-0.3,0.4-0.4,0.6c-2.4,3.7-2.2,7,1.8,10.2
		c2.7-4-0.8-6.5-0.9-9.5c0-0.2,0-0.5,0-0.7c8.1,0.6,14.6,9.4,13.2,18.6c-0.4,2.4,1.1,2.8,1.6,4.1c3.9,4.1,0.1,9.3,2.5,13.8
		c2.2,0.1,3.5-2.2,3.1-3.7c-5.3-19.6,2.5-40.5-5.8-59.8c-0.7-1.7-0.7-5.4,0.3-6c9-5.5,4.2-10.9,1.1-16.2c0,0,0,0,0,0
		c-0.3-0.5-0.5-1-0.8-1.4c7,0.5,9.3,4.1,8.2,11.3c-1.6,10.5-0.6,21-0.1,31.5c0.5,10.4,8.9,22.5-0.4,33.4c-1.7,2,0.8,5.1,1.8,7.6
		c-0.7,0.8-1.2,1.6-1.5,2.4c-1.4,3.5,0,7.3,1.1,11.1c0.7-2.9,1.3-5.8,2-8.7c0-0.2,0.1-0.3,0.1-0.5c1.1-3.3-0.7-7.3,2.7-12.2
		c2.4,10.7,11.2,18.1,3.8,29c-2.7,4,5.4,3.9,6.1,7.7c-1.5-0.6-3-0.9-4.6-1.1c-2-0.2-4-0.3-6-0.4c-1.3-0.1-2.5-0.2-3.7-0.5
		c-2.1-0.4-4.1-1.2-5.9-2.8c-0.3-0.2-0.6-0.5-0.9-0.8c-2.7-0.8-3.2-5.6-7.6-3.6c0.9,2.3,5,4,1.6,7.1c-6.7,0.2-14.1,2.4-18.1-5.8
		c-1.5-3.2-4.4-1.7-6.7-2.1c5.3,11.1,15.7,12.8,25.3,14.6c3.6-2.1-2.1-1.8-2-3c0-0.3,0.5-0.8,1.7-1.5c0.2,0,0.5,0,0.7,0
		c8.7,0.3,17.5,0.6,25.6,4.2c0.2,0.1,0.5,0.2,0.7,0.3c0.1,2,4.6,3.9,0.1,6c0,0,0,0,0,0c2.8,5.2,10.1,4.6,12.9,10.2
		c1.6,3.1,3.1,5-0.6,7c-0.4,5.9,9.4,11.2,0.7,18.1c-0.1,0-0.1,0.1-0.2,0.1c-1.3,1-0.3,2,1.4,2.9c1.2,0.6,2.8,1.2,4.2,1.6
		c4.5,1.3,12.8,1.4,8.6,10.5c-0.2-0.1-0.5-0.2-0.7-0.3c-3.8-1.7-7.6-4-11.5-4.6c-6.3-0.9-8.4-5.3-10.6-10c0,0,0,0,0,0c0,0,0,0,0,0
		c-0.1-5.1-3.1-7.3-7.4-8.2c-0.3-0.1-0.6-0.1-1-0.2c-2.3-4.1-4.6-8.2-6.9-12.3c0-0.1,0-0.3,0.1-0.4c0.2-1.2,0.4-2.5,0.6-3.7
		c0,0,0,0,0.1,0c3.3-2.1,3.2-4.1,0.1-6.2c0,0-0.1,0-0.1-0.1c-0.1-0.9-0.2-1.7-0.2-2.6c0-0.5-0.1-0.9-0.1-1.4c0.1,0,0.2,0,0.3,0
		c2.4,0,4.9,0,7.3,0c0.8,0,1.5,0,2.3,0c0.3,0,0.5,0,0.8,0c0,0-0.1-0.4-0.1-0.4c-0.1,0-0.2,0-0.3,0.1c-0.2-0.2-0.4-0.3-0.5-0.5
		c-3.2-2.7-6.4-2.3-9.7,0.7c-0.1-0.1-0.1-0.1-0.2-0.1c0,0,0,0,0,0c0,0,0,0,0,0c0,0,0,0,0,0c-9,0.1-18,1.4-26.7-1.8
		c-2.1,3.7-5.6,2.4-8,1.2c-4.2-2-7.9-1.5-13.8-0.4c13.1,4.2,25.6,3,36,9.5v0c-1-1.6-1.9-3.1-3.4-5.6c-0.1-0.1-0.2-0.3-0.3-0.5
		c1.4,0.2,2.6,0.3,3.8,0.5c1.4,0.2,2.7,0.4,4.1,0.5c0.7-0.3,1.4-0.6,2.1-0.9c1.1-0.4,2.1-0.6,3.1-0.1c0.6,0.3,1.2,0.8,1.7,1.7
		c0.2,0.3,0.3,0.6,0.4,0.9c0.6,1.8,0.5,3.7-0.4,5.5c-2.3,3.9-4.4-1.8-6.7-0.1c1.1,3,3.3,4.9,6.1,6.3c0.6,2.5,2.5,6.1,1.5,7.1
		c-2.4,2.7-5.4-0.4-8.1-1.1c-1.9-0.5-3.9-0.9-5.9-1.3c-3.4-0.3-6.7-0.6-10.1-0.9c-4.7-3.9-8.3,0.1-14.1,1.3
		c5.2,1.7,8.5,1.3,11.8,0.6c4.1,0.1,8.3,0.2,12.4,0.3c5.4,7.6,14.4,2.4,20.9,6c4.1,1.8,5.3,6.2,8.2,9c-0.7,9.5-8.3-2.2-10.7,4.5
		c11.3,3.1,22.5,6.2,33.8,9.3c0.7,0.2,1.7,0.2,1.9,0.6c6.6,11.2,5.1,23.8,6,36c0.2,2.3-2.4-1.1-3.9-0.5c-5.6-10-5.2-21.6-8.5-32.7
		c0.8,6.9-0.5,9.6-7,4.9c-2.7-2-6.1-3-9.2-4.5c-6.9-4.9-17.1-5.2-22-14.3c2.2,6.3-4.4,7.4-9.1,11c10.5,0.8,18.7,3.2,26.6,6.4
		c2.9,4.2,8,4.3,12,6.3c7.4,3.8,12.2,9.8,10.6,17.8c-1.1,5.4,2.3,5.3,4.6,7.1c7.7,6.9,9.1,15.8,8.5,25.7c-0.6,9.5,0.1,19.1,0.3,28.7
		c0,0,0,0,0,0s0,0,0,0c-0.2,0.3-0.3,0.7-0.5,0.9c-0.2,0.2-0.7,0.4-0.7,0.4c-3.8-5.4-6.6-10.9-5.7-18c0.5-4.2,2.6-10.1-4-12.3
		c0,3.9,0,7.8,0,11.7c-5-0.7-5.1-6.2-11.7-8.9c10,12.5,11.4,27.3,24.3,34.4c0.8-1.7,2.9-3.2,0.5-5.3c-0.1-0.2-0.3-0.4-0.4-0.6
		c0.2,0.1,0.5,0.1,0.7,0.1c3-5.4,0.1-11.5,1.9-17c0-12.5-2.8-25.2,1.7-37.6c0.1-0.1,0.2-0.2,0.3-0.3c4.2-4.5,1.1-7.8-1.1-11.3
		c-0.6-0.9-1.1-1.8-1.4-2.8c-2.4-2.4-1-6.4-0.5-7.9c4.4-13.5,2-24.5-9.7-33c-0.5-0.4-0.1-2-0.1-3c0.7-0.2,1.1-0.6,1.4-1.1
		c0.4-0.6,0.5-1.3,0.5-2.1c0.1-2.7-0.7-6.1,3.9-5.3c3.4,0.6,3.6,3.7,4.3,6.2c3.1,10.7,3.6,23.2,9.8,31.6c7.4,10,3.5,19.7,4.9,29.4
		c0.2,1.6-0.2,3.4-0.3,5.3c-5.6-1.5-3.3-6-3.8-9.3c-0.1-0.7-0.4-1.4-0.9-2c-0.7,1-1.2,2.1-1.5,3.1c-1.9,5.5,0.1,11.1,2.2,16.6
		c-1.5,0.4-2.4-0.8-3.3-1.9c-0.7-0.8-1.5-1.5-2.7-1.3c-0.5,3.7,0.7,6.2,2.5,8.4c0.5,0.6,1,1.2,1.5,1.7c0.4,5.2,3.1,8.5,8.1,10
		c0.1,0,0.1,0,0.2,0.1c0,0,0-0.1,0-0.1c-0.6-21.3,5.8-42.1,4.3-63.4c0-0.7,0.3-1.5,0-2.1c-4.8-10.7-4.1-21.4-0.5-32.2
		c-0.1-0.3-0.2-0.6-0.3-0.9c-0.7-1.8-1.4-3.6-2.1-5.7c-1.1,1.2-1.3,2.3-1.4,3.4c0,1,0.2,2,0.2,3c-3.8-0.9-5-4.2-6.8-7.1
		c-1.8-2.9-2.9-7.2-0.6-8.4c3.6-1.9,7.6-3.2,11.4-4.9c1.6-0.7,1.8,2.6,1.5,4.8c-1,7.1,0.2,13.1,7.7,16.9c1.8,0.9,4.2,4.9,2.1,9.3
		c-6.6,13.9-3.8,28.1,0.8,41.8c2.2,6.6,4.4,11.6-0.9,18.7c-4.1,5.5-8.4,12.6-6.8,20.9c-2.4-0.3-1.7-2.6-2.4-3
		c-3.4-1.4-1.1,1.9-2,2.7c-2.7,2.4,7.7,7.7-1.8,8.7c2.6,5.2-0.1,11.1,2,16.4c-1.4,0.5-2.4,0.5-3.3,0.2c-3.1-1.1-3.8-6.1-7.2-6.8
		c0.4,1.1,0.4,2,0.3,2.9c0,0.1,0,0.3-0.1,0.4c-0.6,2.9-3,5.3-4.3,8.6c3.5-3.7,7.5-3.2,11.4-3.1c0.3,0,0.7,0,1,0
		c0.1,5.6,7.5,5.3,8.3,10.3c0.1,0.6-0.9,1.6-1.6,2.1c-5,3.6-20.4,1.4-25.8-3.5c-0.4-0.3-1-0.4-1.5-0.5c1.1,2.7,2.2,5.4,3.9,9.5
		c-6-1.3-10.4-2.3-14.9-3.3c-0.8-2-1.6-4.1-3.4-8.5c-0.2,5.4-1.7,8.4,1.7,10.6c4.1,7.3,11.2,2.6,16.7,4.2c-0.6,3-6.2,1.6-5.3,6
		c2.9-0.7,5.8-1.3,8.6-1.9c0,0,0,0,0,0c-0.9-1.2-0.3-1.8,0.4-2.4c0.6-0.5,1.2-0.9,1.1-1.6c3.4,3.3,4.5-0.4,6.1-2.2
		c2.7-3,6.1-3,9.3-1.6c2.6,1.2,4.7,21.7,2.7,24.3c-0.2,0.3-1.3-0.1-2-0.1c-0.1-0.3-0.3-0.5-0.4-0.7c-1.9-2.5-6.3-0.4-7.8-3.7
		c1.6-7.2-4.9-8.5-8.5-12c-1.6,5.6,6.1,6.2,6,11.4c-4.1-1.1-7.5-0.2-10.9,3.7c4.5-0.2,7.8-0.4,11.1-0.5c3.1,2.4,6.5,4,10.6,3.7
		c2.7,4,5.2,8,6.2,12.8c-6.1-0.6-4,3.5-3.7,6.6c-5.4,5.6,1.6,12.3-1.4,17.9c-1.6,3-2,2.8,9,7.9c2.3,1.6,4.7,3.5,7.6,1.2c0,0,0,0,0,0
		c-1.4-3.4-5.3-2-7.5-3.8c-5.2-3.9-7.4-8.7-4.8-15.1c-0.2-0.3-0.4-0.7-0.4-1.1c0.1,0.4,0.3,0.8,0.4,1.1c0.3-4.7,0.5-9.4,0.8-14.1
		c0-0.1,0-0.3,0-0.4c4.8,3.2,9.7,6.1,3.6,12.9c-2.1,2.3,1.8,4,3.3,5.9c5,6.6,14.6,9.9,15.2,21.4c-4.2-1.9-4.6-9-9.9-5.6
		c-0.8,4.9,1.2,9.1,3.3,13.1c2.1,4,0.7,4.7-2.9,4.1c-3.9-2.1-7.7-4.2-13.5-7.3c4,6.8,8.1,9,13.5,9.2c16.3,10.2,24.4,24.9,23.1,44.6
		c-1.5,0.7-2.4-2.2-4.3-2.6c-0.2-2.7,1-6.3-4-6.2c-0.8,4,1.6,6.3,3.9,8.8c0,0,0,0,0,0c1.8,8.7,2.4,17.6,5.2,26.2
		c0.8,2.6,9,1.7,3.4,6.7c-3.6,3.1-3.2,6.9-2.5,10.3c2,9.9-5.2,20.1,1.3,30.1c0.7,1.1,1.4,6.6,0.9,10.3c-2.1,14.6-6.3,29-9.7,42.9
		c-5.2,20.9-2,40.5-2.2,60.8c4.9,0.3,9.2-3.5,13.5-1.1c3.6,1.9,6.8,4.6,11.1,7.6c-2.9-10.4,2.5-13.3,21.6-12.5
		c-10.1-7.9-7.2-14,1.6-19.2c1.5-0.9,2.1-1.6,0.1-3.7c-7-7.3-10.9-16.9-11.6-26.5c-0.4-5.5-2.4-9-4.6-13.3
		c-3.5-6.8-10.5-14.6-6.3-21.4c3.1-4.9,4.1-8.6,4.3-13.8c0.5-9.9,4.7-19.7-0.1-29.6c-1.2-2.6,0.4-5.6,0.1-8
		c-0.9-9,9.2-13.2,9.1-20.9c-0.1-5.9,2.4-9.9,4.2-14.7c1.3-3.5,6.5,2.7,4.2-1.9c-3-5.7-0.4-7.7,3.6-10.4c4.6-3.1,3.9-8.9,2.3-12.2
		c-4.6-9.3-3.4-18,0.6-27.2c-2.3,0.9-4.2,1.5-6,2.2c0,4.3,0,8.6,0,13c-0.4-1.3-0.8-2.6-1.1-3.8c0-0.1-0.1-0.3-0.1-0.4
		c-1.4-5.2-1.9-10.5,1-15.5c0.1-9.6,6.1-17.7,6.8-27.2c-2.8-16.1,8.6-26,16.4-37.5c0,0,0,0,0,0c0.3-0.2,0.6-0.3,0.9-0.5
		c1-0.6,1.9-1.1,2.9-1.7c0,0,0,0,0,0c5.6-1.9,8-7.6,12.6-10.7c0,0,0,0,0,0c2.2-1.3,4.4-2.5,6.5-3.8c0,0,0,0,0,0
		c3.7,0.2,7.6,1.3,11,0.3c2.5-0.7,6.8,2.1,7.9-3.6c1.3-6.8-6.4-0.8-6.2-5.1c3.3-2.9,4-6.9,5.5-10.3c-4-2.4-3.5,6.8-7.6,2.2
		c-0.1-0.1-0.2-0.2-0.3-0.3c-1.1-3.1-2.3-6.1-3.3-9.2c-1.1-3.3-2.4-6.8,3.1-7.4c3.9,7,10.1,3.7,15.8,3c-4.4-1.1-8.8-2.1-13.2-3.2
		c0.2-7.1,8.1-1,9.6-5.2c-7.7-8.8-14.2,1.4-21.4,1.2c-0.3,0-0.7,0.1-1,0.2c-4.6-2.3,0-7.3-3.6-10.7c-1.6,5.7-3.1,11.1-4.6,16.5
		c3.1,0.1,5.6-1.3,7.8-3.3c0.2-0.2,0.3-0.3,0.5-0.5c4.4-0.5,4.1,2.7,4.1,5.4c-0.2,6.1,2,11.2,6.1,15.5c0,0,0,0,0,0
		c0.2,1.8,0.3,3.5,0.5,5.3c0,0.2,0,0.4,0.1,0.6c-1.3,7.8-8.6,4.4-12.8,6.8c-0.2,0-0.4,0.1-0.6,0.1c-0.7,0.1-1.3,0.3-2,0.4
		c-0.4,0.1-0.8,0.2-1.2,0.3c-0.1-1.2-0.2-2.4-0.3-3.6c0-0.3,0-0.5-0.1-0.8c0,0,0,0,0,0c0,0,0,0,0,0c-0.2,0.1-0.5,0.2-0.7,0.4
		c-1.7,1.4-3.2,5.2-5.6,0.6c0.9,0,1.3-0.4,1.6-1c0.5-0.8,0.5-2,1.1-2.8c0.3-0.4,0.6-0.7,1.2-0.7c-0.1-1.3-0.2-2.6-0.2-3.9
		c0.3-2.3,4.3-4,1.2-6.9c-3.5,1-2.6,4.3-3.6,6.7c-2.3,2.3-1.4,5.2-1.5,7.9c0,0.2,0,0.4,0,0.6c-3.7,3.7,0,11.7-6.3,14
		c-0.5,0.2-1.1,0.3-1.7,0.4c-0.1-1.7-0.2-3.4-0.3-5.4c-3.3,1.6-3.4,6.2-8.2,7c4.7-7.6-4.1-15.6,2.2-22.9c0.7,0.2,1.1,0.7,1.4,1.3
		c0.8,1.9,0.4,4.9,3.4,4c3.1-0.8,1-4.2,1.6-6.4c0.4-1.6,1.4-3,2.2-4.5c0.1-0.1,0.2-0.1,0.4-0.2c2.6-1.3,4.5-3.4,5.8-5.9
		c0.4-0.1,0.7-0.3,1-0.5c3.1-1.7,3.5-4.7,3-8.1c-2.9,0.9-2.3,4.4-4.1,6c-2,1.4-4.1,2.8-6.1,4.1c0-2.1-0.5-4.3,0-6.2
		c5.9-19.9,14.8-39,16.6-60c0.1-1.7,1-2.5,2.6-2.3c0.9,0.2,2.5,0.8,2.6,1.4c0.7,9.4,10.8,15.3,9.3,25.4c-1.3,0-2.6,0.7-3.7-0.8
		c-1.9-2.5-1-9.9-6.3-6.5c-3.5,2.3,3.3,5.2,3.9,8.6c0.1,0.4,1.1,0.7,1.7,1c-0.7,3.4,4,4.4,3.7,5.5c-0.8,3.1-0.9,5.5,2.1,6.7
		c4.6,1.9,3.7-5.1,8.4-5.7c2.9-0.4-2.3-2.3-3.6-3.4c-2.5-2.2,1.1-3.6,0.1-5.3c-3.6-2.6-1.9-6-1.5-9.2c1.1-9.2,2.8-18.3,7.8-26.3
		c0,0,0,0,0,0c0,0,0,0,0,0c-2-5.7-3.9-11.3-5.9-16.9c-0.7-2,0-3.3,1.3-4.6c10.3-10.9,4.3-26.5,10.8-38.6c1-2,0.6-6-2.9-9.6
		c-7.7-7.9,1.7-13.4,5.1-19.7c0-0.1,0.1-0.1,0.1-0.2c0-1.7-0.1-3.3-0.1-5c0-2.2-0.1-4.4-0.1-6.6c0-0.3,0-0.7,0-1
		c-0.1-1.1-0.4-2.2-0.7-3.2c-2-6.9-6.3-14.1,3.3-19.7c0.2-0.2,0.4-0.4,0.5-0.7c2.4-3.2,0.8-6.6,1.2-10.7c0-0.2,0-0.4,0.1-0.6
		c-0.1,0.1-0.2,0.2-0.3,0.3c-0.6,0.5-1,1.1-1.2,1.7c-1.3,3,0.9,6.3-2.7,7.7c0,0,0,0,0,0c0-5.5-0.1-11-0.1-16.5
		c-4,2.7-4.3-2.6-6.1-3.2c-6.7,14.9-1,30.2-2.2,45.4c0,0.2,0,0.5-0.1,0.7c-0.3,2.7-0.8,5.4-1.6,8.1c-0.3-4.5-0.7-9.1-1-13.6
		c1.6,16.6-10.4,30.4-9.3,46.6c0.1,1.4-1.3,4-2.4,4.1c-11,1.9-13.7,12.1-19.3,19.8c-2.8-3.3-3-7.5-1.1-8.9
		c12.5-9.5,7.1-21.8,6.1-33.5c0-0.4,0.9-0.9,1.4-1.4l0,0c0.7-0.2,1.3-0.5,1.8-0.7c6.3-3-0.1-6.2-1.6-9.2c-0.8-2.7,1.9-7.4-1.8-7.8
		c-0.1,0-0.1,0-0.2,0c-4.3-0.4-0.9,4.1-1.7,6.1c-4.3-8.2-3.8-12.5,3.5-19c0.8-0.7,1.6-1.4,2.5-2.1c-0.8-0.4-1.5-0.7-2.2-1.1
		c-8.9-5.3-5.1-12.8-1.4-20c1-2,1.2-3.9,1-5.9c-7.2-0.7-4.9-7.2-7.6-12.7c-0.1-0.2-0.2-0.3-0.2-0.5c0,0.3,0,0.5-0.1,0.8
		c-0.6,8.8,0.9,16.6-3.5,23.3c-4.4-0.7-2.6-4.2-3.1-6.6c-7.3,6.8,1.7,13,0.8,19.7c-1.5,11.9,0,23.5,3.2,35.1
		c0.7,2.4-1.6,3.1-3.6,3.5c-0.1,0-0.2,0-0.3,0.1c-0.1,0.1-0.1,0.2-0.1,0.3c-1.7,4.3,3.9,4.1,5,7.2c2.2,6.2,2,6.4-3.6,11.3
		c-2.5,2.2-4.5,8-2.5,12.1c2.4,4.8-1,9.6,0.9,14c1.8,4.3-2.5,3.6-4.8,4.4c-0.9,0.4-1.5,1-1.2,2.3c0.1,0.1,0.3,0.2,0.4,0.3
		c0.1,0.1,0.3,0.2,0.4,0.4c2.4,0.9,2.2,3.1,4.2,7.2c4.1,8.2,4.5,16.8,6.1,25.4c2.2,11.7,0.9,22.2-3.7,33.3
		c-5.2,12.5-7.6,26.1-9.4,39.6c-0.2,1.4-0.3,2.7-0.8,3.8c-0.3,0.6-0.7,1.2-1.4,1.7c-6.4-5.4-6.3-13.7-2.6-18.6
		c5.2-6.9,3.7-12.7,2.4-19.5c-0.4-1.9-0.5-5.2,0.5-5.9c6.3-4.3,2.5-12.6,8-17.6c5.3-4.8-1-13.2,4-19c0.1-0.2,0.3-0.3,0.4-0.5
		c-0.5-0.2-0.9-0.3-1.2-0.3c-4.2-0.5-2.6,6.4-6.3,5c-3.3-11.3-1.6-22.8-1.2-34.3c-4,2.2-4.9,6.9-6.9,9.4c-6,7.4-0.4,19.9-11.7,23.8
		c-1.9,0.7-1.8,1.3-1,2.7c3.1,5.3-2.2,6.3-4.5,8.9c-0.3-0.1-0.5-0.1-0.8-0.1c-0.5,0-0.8,0.3-1.2,0.6c-1.4,1.4-1.9,4.5-4.2,2.6
		c-2.2-1.8-1-5,0.3-7.7c4.6-9.6,5.2-20.2,7-30.4c0.6-3.6,1.3-8.3,5.1-7.7c5,0.7,9.2-1.7,9.1-4.8c-0.3-5.3-6.4-0.3-8.6-2.2
		c-0.1-7.7,12.8-5.5,10.5-16.7c-0.7-3.5,6.6-11,8.3-18.7c0-0.1,0.1-0.2,0.1-0.3c-0.1,0.1-0.3,0.1-0.4,0.2c-6.3,2.7-3.9,9.7-7.5,14.3
		c-4.3-12.1,3.8-19.1,7.1-27.3c0.8-2,3.4,2.7,5.7,0.8c-4-5.9-6.1-11.7-4.5-19.4c1.4-6.7-0.7-14.1-0.7-21.2c0-2.1,0.1-3-2.2-3.2
		c-2.3-0.2-3,1-3,3c0,6.9-0.7,13.9,0.2,20.7c1.2,8.9-3.5,14.7-8.3,20.8c-0.1,0.2-0.5,0.1-1,0c0,0.5,0,1,0,1
		c-1.5,0.2-2.5,0.4-3.3,0.6c0,1.7,0,3.8,0,5.8c3.6,2.5,2,5.8,1.6,9.3c-3.2-0.4-0.5-7.7-5.9-4.9c0,0.3-0.1,0.8,0,1
		c10,12.5-0.7,22.1-4.6,32.7c-0.5,1.2-1.5,2.8-2.6,3.1c-11,2.6-11.3,11.2-11.8,20c-0.1,2.4-1.5,3.9-3.9,3.3c0,0,0,0,0,0
		c-0.3-0.1-0.7-0.2-1.1-0.4c0,0-0.1,0-0.1,0l0.1,0c-1-1.8-3.3-4.4-2.8-5.2c7.2-11.8,2.4-25.3,5.8-37.6c0.2-0.3,0.5-0.7,0.7-1
		c2.6-4.1,3.5-8.7,3.1-13.6v0c0-2.1,0-4.3,0-6.4c-0.5-6.6,1.8-12.7,4.9-18.1c3-5.2,1.4-8.2-2.3-11.4c2-4-0.7-7.9-0.3-11.9
		c-0.8,0.3-1.4,0.3-2,0.2c-0.7-0.2-1.3-0.6-1.8-1.1c-0.7-0.5-1.3-1-2.1-1.3c1.2,5.4,6,10.4,2.1,16.5c0.5,0.1,0.9,0.2,1.4,0.3
		c0.2,0,0.5,0.1,0.7,0.1c0.5,0.1,1,0.2,1.6,0.3c0.1,1.7,0.3,3.4,0.3,5.1c-0.1,2.7-1.3,5.2-4.1,4.5c-1.2-0.3-1.8-0.7-2-1.1
		c-0.3-0.6,0.1-1.3,0.6-2c0.5-0.7,1.2-1.5,1.2-2.2c0.1-0.7,0.1-1.4,0.1-2.1c0-0.9-0.1-1.8-0.1-2.7c-7.2,2-3.1,7.9-3.9,12
		c0,0.1-0.1,0.3-0.1,0.4c-8.2,5.5-3.9-6.8-9.8-5.9c-1.5,6.2-1.1,12.9,0.3,19.1c0.9,4.2-0.9,3.5-2.9,3.5c-0.2-0.3-0.3-0.5-0.5-0.8
		c-1.7-3-3.4-6-5.1-8.9c-0.2-0.3-0.3-0.6-0.5-0.8c0.1-12.3-10-3.2-14.4-7c6.5-4.5,16.7-2.5,20.2-11.6c-2.4,0.2-5.7-0.4-6.9,0.9
		c-2.4,2.5-4.1,4.8-7.5,2.2c-1.6-1.3-3-3.5-2.1-5.5c1.3-2.7,3.1-5.5,6.6-5.8c1.6-0.2,3.3,1.2,5-1c-6.8-3.9-10.8,0.6-14.7,5.2
		c-9.1-11.1,5.4-20.2,1.1-30.8c4,4.2,11.1,5.4,10.3,13c-0.3,3,2.1,3.3,4.2,2.9c3.1-0.6,2-3.1,1.7-5c-1.1-5.4-2.5-10.8,2.6-15.2h0
		c0.7-0.3,1.3-0.5,2-0.7c3.1-0.9,5.3-0.2,4,4.8c-1.6,6.2-3.2,12.4-5.6,18.2c-2.4,5.7-2.2,10.5,1.6,15.2c5.2-11.6,8.3-23.8,10.5-36.3
		c0.6-3.4-1.3-7.4,4.7-8.4c7.8-1.3,11.3,3.3,13.6,9c2,5-1.1,7.6-5.8,8.6c-0.2,0.1-0.4,0.2-0.7,0.3c0,0,0,0.1,0,0.1
		c-1,0.6-1.8,0.9-2.4,0.9c-2.7,0.2-3.6-3.2-4.9-6c0.5,6.4-1.2,11.2-5.8,14.9c-0.5,0.4-2,2.5,0.6,2.7c0.8,0.1,1.7-0.7,2.6-1.1
		c0.6-1.2,1.3-2.4,2.2-3.4c0.8-0.9,1.8-1.7,3-2.3c0.4-0.2,0.8-0.3,1.3-0.5c-0.4-2.8,3.6-1.9,3.9-4c0-0.2,0-0.4,0-0.6
		c6.8,2.4,8.5-1.4,8.4-7.1c-0.1-8.4,4.1-14.5,10.2-19.7c-5.6-7.8,3.1-9.7,5.9-15.7c1.3,7-1.1,11.4-3.8,15.8c0.9,5.7-1,11.6,2.2,17.1
		c0.7,1.3,0.4,3.5-2.1,3.7c-10.4,0.8-10.5,1.3-12.5,11.7c-1.6,8.8-5.4,17.3-2.2,26.7c0.6,1.8-1.1,4.5-1.9,6.7
		c-5.2,14.7-6.8,29.6-3,47.4c0.2,0.8,0.4,1.7,0.6,2.5c0.3-0.8,0.6-1.7,0.8-2.5c3.3-11.3-0.7-21.3,4.1-29.8c0.7-1.9,1.2-4.7,1.6-5.7
		c5.4-15.7,9.4-31.4,11.5-47.9c0.6-4.3,7.4-7.6,10.8-11.9c1.1-1.4,5.6-4.9-1.4-6.8c-4.2-1.1-1.4-6.8-1.9-12.4c2.8,4.2,1.8,8.6,6,9.4
		c-2.3-3.3,2.5-8.6-3.2-11c-0.8-0.3-1-3.5,0.6-3.1c6.3,1.7,9.5-6.1,15.6-4.6c-5.8-6.8,5.3-11.5,0.6-19.2c6.2,3.6,1.8,9.7,7.1,12.6
		c0.9-12.9,1.8-25.2,2.6-37.6c0-0.7-0.9-1.9-1.6-2c-11.8-1.8-6.6-9-4.8-15.1c0.6-0.6,1-1.2,1.3-1.8c2-3.8,0.4-8.2,1.4-12.1
		c-0.2-0.2-0.5-0.5-0.7-0.7c-0.5-0.4-0.9-0.9-1.4-1.3c-0.1-0.1-0.1-0.1-0.2-0.2c-5.7-7.1-1.3-14.6,0.1-21.5c1-5.1,1.4-10.1,1.9-15.3
		c8.4,7.2,6.2,28,1.9,37c12.4,5,16.6,15.7,9.9,26.7c-3.3,5.5-0.6,9.8,1.8,14.4c2.9,5.6,5.2,10.4-3.3,14.7c-8,4-2.7,13.3-4.5,19.9
		c5.2,2.3,5.2,2.3,2.2,11.8c-0.2,0.1-0.3,0.2-0.4,0.4c-1.6,1.5-1.7,4-2.8,5.8c-0.6,0.9-1.4,1.7-2.7,2v0c2.3,0.7,4.4,0.3,6.3-0.7
		c0.6-0.3,1.2-0.7,1.8-1.1c-5.8,22.9,1.8,45.8,0,69.3c3-5.8,6-17.7,5.4-22.8c-1.9-15.9-1.6-31.5,6.4-46.1c1.4-2.6,1-4.6-0.8-6.6
		c-4.2-4.4-4.9-9.3-2.3-14.7c0.7-0.5,1.2-1.1,1.6-1.7c1.1-2.1,0.8-4.8,2-6.8c0.8-3.1,4.6-5.8,1.4-9.7c-0.1,0.1-0.2,0.2-0.3,0.3
		c-0.9,1.1-0.6,3.2-2.7,3.1c-0.8-5.5,4.4-10,1.2-16.4c9.4,2.4,15.6,6,15.5,15.4c0,2.1,1.4,6.1-3.7,3.5c-1.5-0.8-4.5-1-4.5,2.2
		c0,0.6-0.1,1.2-0.2,1.8c-0.2,1-0.2,2.1,0.4,2.9c0.4,0.5,1,0.9,1.9,1.3c6.4,2.2,4.6,6.7,1.1,9.4c-2.4,1.8-3.6,3.3-3.8,4.7
		c-0.2,1.1,0.1,2,0.9,2.8c1,1,2.7,1.7,4.6,2.1c4.7,1,2.7,3.9,3.3,6.1c3.5,9.2,16.3,13.7,12.9,26.3c8.8-5.6,13.8-16.4,14-30.6
		c2.4,2,4.1,4.3,6.4,5.2c4.4,1.7,5.5,3.8,2,7.2c-2.5,2.4-2.9,4.8-2.1,8c0.8,3.2-0.2,5.2-4.3,4.8c-6.2-0.6-6,4.3-6.3,8.4
		c6.4,3.7,5.3,7-0.5,10.1c-4.2-2.3,1.6-6.1-1.3-8.6c-2.8,4-4.3,8.7-11,3c-3.6-3.1-9.5,0.1-11.9,5.5c0,0.1-0.1,0.1-0.1,0.2
		c0.1,0.1,0.1,0.1,0.2,0.2c0,0,0,0,0,0c5.7,4.4,1.7,9.7,1.3,14.6c3.8,10.5,7.3,0.6,11-0.1c-0.5-2.5-7.7-3.1-2.3-7.3
		c3.9-3.1,6.5,2.7,10.2,1.8c0.1,4.1-1.2,7.1-5.7,7.8c-0.6,4.3,3.5,2.8,4.8,4.1c3.8,3.6-0.1,9.6-2.3,9.8c-6.4,0.6-5.7,5.9-8.3,8.9
		c-4.7,5.5-2.4,11.5-2.7,17.3c-0.2,3.1-0.4,2.9-4.9,4.6c-2.5,0.9-1.8,3.8-0.6,4.6c9.2,6.8,3.6,13.4-0.3,21.8
		c-0.3-4.4-0.5-7.5-0.8-11.4c0-0.7-0.1-1.4-0.1-2.2c-0.2,0.5-0.4,1-0.6,1.6c-3.2,9.4-2.1,18.4-7,25.9c3.2,3,2.6,7.2,2.1,10.5
		c-3.4,21.1,10.1,40,6.7,61.1c4.6-3.1,4.7-7.3,5.7-11.4c2.3-9.1-1.2-21,11.1-25.9c3.3-1.4,7.2-1.9,8.3-4.8
		C634.7,604.2,643.2,596.4,637.8,593.1z M557.7,99c-0.4,2.3-4.3,1.6-6.6,1.6c-11.1,0.1-22.3,0-33.4,0c0-0.1,0-0.2,0-0.3
		c-8.7,0-17.4,0.6-26.1-0.2c-4.6-0.4-15.4,6.4-11.8-7.6c-11.4-2-6.4-11-7-17.4c-0.4-4.4-2.2-10.3,5.5-11c2.3-0.2,0.9-1.8,0.6-2.9
		c-1.3-5.6,2.1-6.4,6.4-6.4c21.9,0,43.8,0,65.7-0.2c4.7,0,6.5,0.8,7.7,6.5c0.9,4.6,4.9,8.5,6,14.3C566.6,85.3,558.9,90.9,557.7,99z
		 M608.9,153c8,5.6,7.1,13.4,4.8,22.7C609.5,165.8,608.3,159.4,608.9,153z M584,236.1c-0.7,1.7-1.8,4.8-4,3.3c-3-2,0.6-3.6,1.3-5.4
		C582.8,234,585.7,232.1,584,236.1z M589.8,233c-1.1-3.6,2.2-6,2.2-9.1c0-0.1,0-0.2,0-0.3c0,0,0,0,0.1,0c2-0.4,5.2-0.8,5.1,0.4
		C596.6,227.9,595,232,589.8,233z M436.7,208.2C436.7,208.2,436.6,208.2,436.7,208.2C436.6,208.1,436.6,208.1,436.7,208.2
		c-7.2-3-3.3-10.4-5.9-15.1c0.9-0.4,1.9-1.2,2.6-1c0.6,0.2,1.4,1.6,1.3,2.3C433.9,199.2,436.4,203.5,436.7,208.2z M431.1,180.2
		c4.7-0.9,3.2-10.6,10.5-7.1c1.5,0.7,1.8,1.9,1.4,5.1c-3.5,2.6-8,5.8-12.6,9.1c-0.2,0.1-1.2-0.6-1.4-1.1
		C427.9,183.6,428.8,180.6,431.1,180.2z M431.1,211.4c3.5-2.2,3.9,0.2,3.7,2.8c-0.2,0.1-0.4,0.1-0.6,0.2c-0.1,0-0.2,0.1-0.3,0.1
		c-3.6,1.7-3.4,6.2-4.3,12C424.7,218.5,426.3,214.5,431.1,211.4z M588.6,573.8c-2.1,3.9,1.5,11.1-4.9,11.7c-3.5,0.3-2.1-5.6-3.3-8.9
		c0.7-2.4-0.6-6.4,4-6.6C586.9,569.9,589.9,571.5,588.6,573.8z M595.1,582.2c-1.5,1.3-3,2.7-4.8,4.3c-1.6-3.7,0.5-5.5,1-7.7
		c0.6-2.7,0.8-5.4,3.6-6.5c0.5-0.2,2,1.7,2.7,2.9C599.4,578.4,597.2,580.3,595.1,582.2z M594.4,528.5c0.1-0.9,2.3-2.4,3-2.1
		c3.5,1.3,2.7,4.2,1.9,7.4C596.7,532.2,594.1,531.3,594.4,528.5z M580.5,549.6c1.9-3.3,4.3-6.5,7.8-8.5c1.4,1.8,0.9,2.9,0,4.1
		c-1.8,2.3-5.2,5.3-1.6,7.6c3.1,2,4.1-1.6,5.1-4.4c0.7-2.1,3.1-2.8,4.9-1c1.7,1.7,1.2,3.9-0.2,5.6c-2.6,3-6.6,4-10,5.5
		c0.8,2.1,1.9,3.2,4,3.1c1.8-0.1,3.9,0.2,2.7,2.7c-0.6,1.3-2.6,2-4,2.9c-2.2-3.3-7.6-2.1-8.9-3.9C577.6,559.3,578,553.9,580.5,549.6
		z M516.3,498.8c0.6,0.7,1,1.4,1.5,2.2c1.1,1.9,1.9,4,2.2,6.2c0.2,1.3,0.2,2.7,0.1,4.2c0,0-0.1,0.1-0.1,0.1
		c-0.1,0.1-0.2,0.2-0.3,0.4c-2.2,2.6-2.1,5.1,0.1,7.5c0.2,0.2,0.4,0.4,0.6,0.6c0,0,0,0,0,0c-0.3,0.4-0.5,0.8-0.8,1.2
		c-1,1.8-1.2,3.7-1.2,5.7c0,0.1,0,0.2,0,0.4c0,1.4,0,2.9,0,4.3c0,0.2,0,0.5-0.1,0.7c-7.3-4.9-0.3-12.7-3.6-19
		C512.8,509.7,515.6,503.7,516.3,498.8z M460.8,405.1c3.9,1.7,3.9,4.5,2.5,8.4C460.9,410.3,458.7,408.5,460.8,405.1z M446.5,358.2
		c-1.3-7.7-0.2-13.3,3.9-21.8C454.2,351.5,454.2,351.5,446.5,358.2z M479.6,272.9c3.2-0.6,5.1-0.2,4.1,2.8
		c-1.5,4.2,0.8,8.9-2.3,12.9c-1.7,2.1-1.1,1.9-5.2,1.3c-2.7-0.4-0.8,3.9-3,4.9C465.6,284.6,468.5,274.9,479.6,272.9z M458.9,311.5
		c-4.1-0.6-5.1,4.3-9,3.1c-2.5-5,10.9-7.7,2.3-13.6c-1.4,2.2,0.3,5.8-2.3,6.6c-3.9,1.5-4.2-9.7-1.3-13.6c0.4-0.5,0.5-1.2,0.8-1.8
		c-1.8-0.4-4.7,0.1-3.6-3c0.5-1.5,1.7-4.2,4.3-3c2.1,0.9,3.9,2.6,5.8,3.9c5.4,3.2,11.6,3.3,17.4,5c0.5,1.6,1.7,3.8,1.2,4.5
		c-7.7,9.1-6.8,24.1-21.3,29.3c-3.8,1.4-6.8,3.6-11.1,2.6C444.8,322.7,456.5,321.1,458.9,311.5z M441.1,281.6c0,3-1.4,5.2-4.4,6.2
		c-7.5,2.5-13.1,11.7-11.1,19.4c1,3.9,1.7,6.7-3.2,7.8c-1.5-1.1-1.4-4.5-4-3.7c-0.9,0.3-1.5,1.9-2.1,3.3c-0.1,0.3-0.3,0.5-0.4,0.8
		c1.5,0.4,3,0.8,4.5,1.2c2.2,6.8,0.3,20.2-3.5,25.8c-1.6,2.4-1.6,5.4-0.2,7.8c2.2,4,1.3,8.1,1.4,12.2c0,2.4,0.3,5.2-3.5,4.7
		c-5.9-0.8-0.7-4-1.2-6c-0.8-3.2,0.2-7.8-5.7-6.4c-2.3-0.5-2.8-2.5-1.9-3.8c4.1-6.4,1.3-11.5-1.6-17.4c-3-6,3-8.2,6.9-10.6
		c2.4-1.5,6.2-1.3,5-5.8c-0.2-0.3-0.4-0.6-0.7-0.8c-2.9-2.9-6.3,1.1-10.8,0.3c3.1-3.5,6.2-5.8,7.7-8.9c2.4-5,10.4-7.7,6.3-15.8
		c-1.1-2.1,0.7-7.4,3.8-8.7c5.7-2.5,11.9-3.8,17.9-5.5C440.5,279,441.1,280.3,441.1,281.6z M395.8,346.4c-2.7,0.2-6.2,0.5-5.9-3.4
		c0.1-2,2.2-4.7,4.8-4.8c3.3-0.1,4.5,2.6,5.3,5.2C400.3,347,397.7,346.3,395.8,346.4z M408.4,269.9c4.9-5.5,8.3-10.9,3.9-18.6
		c-1.8-3.1,0-6.7,3.3-7.6c6.2-1.6,0.4,3.8,1.4,3.5c10.3-3.1,4.8,10.7,11.8,10.8c2.7,1.1,6.7-0.5,8,3.3c0.7,2.2-1,4.2-2.7,5.1
		c-3,1.6-6.4,4.7-9.7,0.2c-1.5,7.8-6.5,11.2-13.3,8.8C407.8,274.3,406.4,272.1,408.4,269.9z M374.8,260.7c5.6-0.4,2.5,5.8,5.6,7.2
		c-0.4,1.4-0.5,3.4-2.2,3c-3.8-0.9-4.1-5.1-5.8-7.8C371.6,261.8,373.1,260.8,374.8,260.7z M368.1,248c0.2-1.6,1.6-2.4,2.8-1.6
		c0.8,0.6,1,2.3,1.2,3.5c0.2,1.7-1,2.2-2.2,2.4C367.5,251.5,368,249.6,368.1,248z M367.1,262.2c5.3,6.1,7,11.1,12.7,14.8
		c-5.8,1-10.1,7.7-13.9,2C364.4,276.6,369,270,367.1,262.2z M365.8,296.4c0.9-0.3,2.2,0.6,3.3,0.9c-0.9,2.3-2.2,4.1-4.8,4.8
		C364,299.9,362.3,297.3,365.8,296.4z M328.1,311.6c2.6,1.9,5.2,1.8,8.9,0.2c-3.6-1.2-6.1-2.1-8.7-3h0c2.6-4.9,8.4-0.7,11-4.2
		c4.8,2.3-4.6,7.4,1.8,8c4.3,0.4,3.4-4.9,3.9-8.1c1.2-8.1-0.5-17.3,9.9-24.3c-5.2,13.4,8.9,24.1,0.4,36.2c-3.8-2,0.2-3.3,0.1-4.9
		c-0.1-2.3-1.4-4.3-3.5-4.1c-2.1,0.2-0.8,2.8-1.2,3.9c-2.1,5.6-0.2,12.5-8.6,15.9c-12.8,5-12.2,5.8-19.7-6.3
		C317.7,313.1,319.8,310.7,328.1,311.6z M351,379.3c-4.8-2.7-13-0.7-12.2-9.4c0.5-5,4.1-5.3,7.5-4.6
		C355.1,367.2,348.5,374.6,351,379.3z M342.8,336.5c0-1,0.1-2.9,2.1-1.6c1.7,1.2,5,0.7,4.3,4.3c-0.2,1.2-0.1,3-1.9,2.7
		C344.4,341.6,342.7,339.6,342.8,336.5z M311.4,349.4c-2.7-4.3-4.9-8.1-10-9.4c-2.1-0.5-4.9-1.3-3.7-4.3c1-2.4,2.3-5.3,5.2-6
		c2.9-0.6,3.4,3,4.8,3.8c7.2,4.2,11.8,10.8,17,16.9c-0.2,0.3-0.3,0.5-0.5,0.8c-1,1.6-2,3.2-2.9,4.8c-0.1,0.1-0.2,0.3-0.3,0.4
		c-0.3-0.1-0.6-0.2-0.9-0.3c-0.6-0.2-1.1-0.3-1.7-0.3c-2.5-1-5.1-2.8-7.5-2.1c-1.1,0.3-2.2,1.1-3.2,2.7c-3-6.8-3-6.9,3.8-6.4
		C311.4,349.9,311.4,349.7,311.4,349.4z M308.1,363.5c3.9-0.1,7.1,1.5,9.8,5.2c-5.1,1.6-8-1-11.2-2.8
		C307.1,365.1,307.6,363.5,308.1,363.5z M308.2,372.4c3.6,0,6.3,0.4,9.4,6.1C312.7,376.3,309.5,376.7,308.2,372.4z M329.9,413.6
		c-1.6-3.3-4.3-5.2-3.3-9.3C331.3,406.4,330.6,409.6,329.9,413.6z M357.8,406.8c-0.7-0.4-1.4-0.8-2.1-1.3c-1.3-0.8-2.6-1.6-3.9-2.4
		c0,0,0,0,0,0c-0.6,1.3-0.8,2.2-0.7,2.9c0.3,1.4,1.7,1.9,3.3,2.3c0.4,0.1,0.8,0.2,1.2,0.3c2.1,5,1.8,9-4.2,10.6c0-0.3,0-0.5-0.1-0.8
		c-0.6-4.9-6.2-6.6-8-10.8c-0.2-0.4-0.3-0.7-0.4-1.1c-1.3-0.5-2.6-1-3.9-1.4c-0.2-0.1-0.3-0.1-0.5-0.2c0.1-1.4,0.2-2.8,0.3-4.1
		c0.2-0.2,0.4-0.4,0.6-0.5c3.5-3.4-2.1-4.4-2.9-6.7c0,1.2,0,2.3,0,3.5c0,0.5,0,1,0,1.6c-13-2.4-21.9-13.5-18-24.2
		c2.8-7.7,0.2-11.1-6.3-13.2c-2.4-0.8-4.3-1.7-4.8-4.3c1.8-0.5,3.6,1,5.4,1.1c0.7,0,1.3-0.1,2-0.7c0,0,0,0,0,0
		c3.4,3.2,7.9,2.6,11.1,1.1c3.2-1.5-0.2-4.6-0.4-7.2c0-0.2,0-0.4,0-0.6c0-9.7,1-10.5,9.5-6.7c2.7,1.2,3.6-1.7,5.4-1.4
		c2.2,0.4,4.9,1.3,2.9,4.4c-2.9,4.5-3.6,11.1-8.9,13.4c-0.9,0.4-2,0.7-3.3,0.8c-3.2,0.3-3.8,2.6-2.8,4.2c2.4,3.7,2-1.4,3.6-1.5
		c0.7,0,1.3,0,1.8,0.1c3.1,0.6,3.2,3.3,2.7,6c-1.4,7.3-0.7,11.9,8.6,12.1c11.6,0.3,10.1,9.9,10.4,18.1c3.9-3.4,0.4-7.8,3-11.3
		C363.2,395,363.3,401,357.8,406.8z M366.4,383.3c-0.1,0-0.2,0-0.2,0.1c-0.1,0-0.2,0.1-0.4,0.1c-4.2,0.9-6.4-2.2-7.1-5.5
		c-1.6-7.6-5.2-14.9-3.7-23c-6.3-0.8-3.8-5-2.8-8.1c0.4-1.5,2.6-3.4,3.9-2.2c3.1,2.8,1,6.8,1.1,10.3c8,2.7,6.4,10.1,7.2,16
		c5,1.2,5.3-4.5,9.4-4.5C373.9,372.9,370.1,378,366.4,383.3z M366.5,340.5c5.9,0.1,4.6,5.9,7.2,9.2c-4.8,1-9.4,2.7-11.2-2.6
		C361.9,345.3,362,340.4,366.5,340.5z M372.9,319.5c-4.2,3.5-3.8,9.1-6.1,13.5c-0.8,1.6-1.5,3.4-3.6,2.7c-2.1-0.8-1-2.3-0.6-4
		c1.2-5.6,3-10.8,7.5-14.7c1.8-3,3-6,1.6-9.6c-2.8,0.1-0.6,3.9-3.2,4.1c-2.2-9.1,3.9-14.2,9.2-19.5c3.9,0.9,1.3,6.1,4.9,6.8
		c0-0.1,0-0.2,0-0.3l0.4,0.4c0,0-0.4-0.4-0.4-0.4c0.1-0.1,0.3-0.1,0.4-0.2c0.3-4.9-2.5-10.5,3.3-14.7c2.9,6.1,4,11.4-3.3,14.7
		c0,0.2,0,0.4,0,0.6c-0.1,0-0.3,0-0.4-0.1C381.3,306.7,380.7,314.8,372.9,319.5z M384.6,327.3c-0.2-9.6,4-17.8,9-25.4
		c4.9-7.5,7.6-14.7,5.4-23.8c-0.8-3.3,1.1-6.7,6.1-8.4c-1.7,6.4,0.2,10.8,6.2,12.9c-4,7.4,2.3,17.5-6,23.8c-0.6-1.3-1.1-2.6-1.7-3.9
		c2.5-2.1,3.1-4.5,1.4-7.5c-2.4,1.8-3.1,4.3-3.2,7.1l0,0c0,0,0,0,0,0c-0.8,2.2-1.6,4.4-2.4,6.5c-4,0.8-6.8,1.8-4.4,7.2
		c1.7,3.8,3.8,8.1,1.6,13.2c-3.7-5.5-7.1-3.3-10.4,0.4c-1.8,3.6-3.1,7.4-7.2,9.6C380.7,335.1,372.4,327.1,384.6,327.3z M381.5,379.9
		c1.7-3.9,5.3-3.7,8.5-0.8c0.7,0.6,2,0.5,3,0.7c0.6-3.3-1.6-3.3-4.1-4.4c-7.6-3.3-11.3-13.8-8.4-21.1c0.6-1.6,1.4-2.1,3-1.9
		c1.4,0.2,2.4,0.3,2.9,2c0.8,2.7,1,2.5,3.5,2.8c6.8,0.8,12.8,2.6,13.4,11.9c-3.5-0.9-5.4-3.8-8-5.2c-5.6-3-3.2,6.9-7.8,4
		c-1.1,3.3,1.7,2.7,3.3,3.7c6.2,3.6,12.1,7.7,18.3,11.2c3.6,2.1,3.6,5.4,2.4,8c-1.7,3.7-3.7-0.4-5.7-0.7c-3-3.2-5.7-7-10.5-7.9
		c0.2,0.7,0.4,1.3,0.6,1.9c0.8,2.5,1.2,4.8-3.3,6.2c-0.7,0.2-1.1,0.4-1.3,0.6c-1.2,1,1.7,2.1,2.4,3.1c3.8,1.6,6.5-2.3,10-2
		c1.2,2.6,6.4,6,1.4,7.7c-4.6,1.6-6,12.2-13.5,5.6c0,0,0,0,0-0.1c0.1-0.2,0.3-0.5-0.1-0.3c0-0.1,0-0.1,0-0.2
		c-0.1,0.1-0.1,0.2-0.2,0.3c0,0,0.2,0.2,0.3,0.3c0,0,0,0,0,0c-5.8-4.3-11-8.7-2.7-15.4c3-3.6-0.8-4.1-2.5-5.5
		C384.6,383,380.1,383.2,381.5,379.9z M409,425.8c0.7-0.5-0.1-2.6,0.2-3.6c0.2-0.8,1-0.9,3.4,0.9c7.1,5.2,5.6,11,1.4,16.2
		c-3.7,4.7-3.5,9.7-1,13.2c3.7,5,2.3,8.8,0.1,12.7c-0.4,0.8-0.9,1.5-1.3,2.3c-0.7-1.9-1.6-3.7-2.1-5.6c-0.4-1.6-1.2-0.9-3.4-3.7
		c-3-3.9-5-9.3-1.4-14.2C409.2,438.5,410.9,432.6,409,425.8z M392.9,456c-1.9,1.4-3.3-0.8-3.6-2.1c-1.7-7.9-5.3-15.4-2-24
		c2.5,7.2,4.9,14.5,7.5,21.7C395.5,453.7,394,455.2,392.9,456z M386.5,425.6c-0.3,0.1-1.6-0.8-1.5-1c1.7-5.3,0.8-9.9-1.8-14.9
		c-0.7-1.3,1.3-6.5,6.3-2c6.9,6.3,10.4,13,11.2,27.5C395.2,433.2,396.9,420.4,386.5,425.6z M416.6,532.3c1.9-4.1,1.3-4.7-2.3-7.4
		c-6.9-5.1-3.9-13.7-4.7-20.8c-3.1-2.6-3.7,5-6.4,1.5c-4.4-5.6-2-12.4-2-18.7c0.1-4.4,3.9-2.4,6.4-2.6c0,0.3,0.1,0.6,0.1,1
		c0.1,1,0.2,2,0.3,3.1c-1,2.3-1.7,4.4-1.8,6.1c0,0.3,0,0.6,0,0.9c0.3,2.6,2.5,4.1,8.1,3.8c1.5-0.1,3,1.5,4.6,2.9
		c0.4,0.4,0.8,0.7,1.2,1c3.3,11.4,3.5,22.8,0.9,34.2c-0.1,0.4-0.2,0.8-0.3,1.2C416.2,538.6,414.4,536.9,416.6,532.3z M426,506.7
		c-3.8-0.3-3-4.3-4.9-6c-0.2-0.1-0.3-0.3-0.5-0.4c0-0.2,0-0.3,0-0.5c0-0.3-0.1-0.6-0.3-0.9c-2.5-3.2-11-0.2-8.7-8.4
		c0.5-2.9-0.7-5.1-2.4-7c-0.4-0.5-0.9-1-1.3-1.4c0,0,0,0,0,0c-3-2.4,7.6-10-3.6-9.2c0.7-2.8,1.4-5.7,2.1-8.7
		c2.4,1.1,2.3,4.9,5.2,5.5c0.1,0,0.2,0.1,0.3,0.1c0.1,0.4,0.2,0.8,0.3,1.3c8.5,7.4,7.5,18.4,10.1,27.9
		C426.3,500.3,427.5,502.9,426,506.7z M425.8,462.6c-3.8-5.4-5-10.9-1.5-16.9c1.7-2.8,4.2-5.3,4.1-8.9c-8.1-3.4-6-9.2-4-15.1
		c0.2-0.1,0.3-0.2,0.5-0.3c2-1.3,4-2.7,6-4c-1.2,7.2,5,10.2,8.4,14.8c0.6,0.8,1.1,1.7,1.5,2.6c-1.4,4.4-2.8,8.9-4.3,13.3
		c0,0.1-0.7,0.2-0.9,0c-0.5-0.4-0.9-0.9-1.3-1.4c0,0,0,0,0,0c0-1.2,0.1-2.4,0.1-3.6c0.1-2.6,0.1-5.2,0.4-7.7
		c0.3-3.4-2.6-4.2-4.5-4.7c-2.8-0.7-1.6,2.1-1.9,3.5c0.8,0.6,1.4,1.2,1.8,2c1,1.8,0.8,4,0.8,6.1c0,0.1,0,0.3,0,0.4
		C431.2,449.6,424.4,455,425.8,462.6z M428.5,473.6c-1.5-7.9,6.1-9.4,9.9-13.3c0.7-0.7,8.2,2.8,7.5,8.9c-0.1,0.8,0.9,1.8,1.4,2.7
		c1.5,2.6,4,5.5-0.2,7.7c-4,2.1-5.2-2.2-7.3-4c-1.7-1.5-0.3-4.8-3.6-6.6c0.3,1.6,0.6,2.7,0.8,3.8c0.4,2.9-0.1,5.5-3.1,6.9
		C434.2,475.8,429.1,476.9,428.5,473.6z M440.1,542.4c-2.7,1.1-5.4-0.2-5-3.1c0.6-3.9-4.1-6.6-1.9-10.8c4.1,1.1,5.1,4.9,7.2,7.8
		C442.2,538.6,444,540.7,440.1,542.4z M454.4,504.6c-1.9,0.1-2.6-1.9-3.2-3.5c-0.3-1.7-0.6-3.4-0.9-5.1c-0.1-0.4-0.2-0.9-0.2-1.3
		c-5,1.5-3.4,3.9-0.8,6.4c-0.7,6.8-1.6,13.6-10.8,13.7c-2.5,0,0.1,5.9-3.8,3.4c-2.8-1.8-2.2-4.4-0.5-7.2c1.5-2.5,1.8-4.8,5.5-6.3
		c5.5-2.2,6.3-6.8-0.3-9.9c-0.6,2.5,1.2,5.3-1,7.6c-0.2,0.2-1.2-0.3-1.7-0.7c-3.5-2.8,1.4-4.6,0.9-7c-0.2-0.7-0.7-1.4-0.5-2
		c1.4-4.1-6.4-11,1.3-11.8c4.4-0.4,13.6,2.4,13.3,11.6c0.3,0.3,0.4,0.6,0.5,0.9c1.3,2.4,2.7,4.7,3.6,7.2
		C456.1,501.7,456.9,504.4,454.4,504.6z M495.2,767.6c-6.8-11.1-2.1-22.1,0-33.2C495.2,745.5,495.2,756.5,495.2,767.6z M500.8,787.5
		c-2-6.6-5.2-12.1-2.1-19C505.5,774.5,502.5,780.5,500.8,787.5z M505,787c2.1-5.8-1.4-13,5.3-17.4c-4.1-2.3-4.4,0.3-4.8,3.1
		c-2.5-4.6-2.7-7.8,1.4-9.7c1.7-0.8,4.6-1.5,5.8-0.7c3.2,2.3,0,5.5,0.1,8.1c0.2,6.4-6.7,10.1-5.3,16.6c0.8,2.8,0.3,5.2-2.8,7.3
		C503.2,791.8,502.7,789.5,505,787z M507.6,836.9c0.1,4.6,2.2,7.5-1.6,8.8c-0.8,0.3-2-0.2-3-0.3
		C504.2,843.2,505.3,841.1,507.6,836.9z M510.8,848.5c1.4,5.3-1.2,7.2-4.9,10.2C505.9,853.9,507.8,851.7,510.8,848.5z M493.2,956
		c-2.5-3.8-2.9-7.2,2.1-9.9C494.5,949.9,493.8,952.9,493.2,956z M502.1,988.7c1.7-4.7,6.8-1.1,9.2-4.2
		C508.5,990.3,508.5,990.3,502.1,988.7z M527.7,960.5c0.5,0.6,1.7,1.5,2,2.6c0.5,2.1-1.6,1.4-2.5,1.5c-1.4,0.2-2.5-0.5-2.5-2.1
		C524.7,960.9,525.6,960.3,527.7,960.5z M519,944.4c0.1-0.4,1.2-0.9,1.7-0.8c4.3,1,4,4.6,3.6,8C523.7,948.3,517.9,948.7,519,944.4z
		 M511.8,941.7c3.7,5.3,8.3,9.5,8.1,17.3c-0.3,9.6-4,17.2-12.8,20c-3.3,1.1-3.1-1.6-3.8-3.2c-4.1-8.8-9-17.5-2.1-27.4
		c1.8-2.6-2.6-7.3,2.2-9.8c1.6-2.5,3.2-5,4.9-7.4h0c-0.3-2.6-1.1-5.2,0.8-8.8c1,2.8,1.7,4.8,2.5,6.8h0
		C511.5,933.4,517,937.5,511.8,941.7z M513.5,844.9c-1.9-3-2.3-5.1-1.4-8C515.6,839,514.5,841.5,513.5,844.9z M507.9,822.2
		c1-4.2,3.9-4.8,7.9-5.7C513.8,820.3,512.9,823.4,507.9,822.2z M520.4,822.4c-0.3,1.5-1.3,2.4-1.3,2.4c-2.8-0.4-3.6-0.8-3.2-2.1
		c0.4-1.5,1.3-2.4,2.9-2.2C519.9,820.6,520.7,821.1,520.4,822.4z M524.8,822.3c-4.9-6-2.8-9.1-0.7-13.1
		C529,813.9,523.7,816.7,524.8,822.3z M526.1,797.2c-2.1-1.5-5-3.2-2.4-5.5c2.7-2.4,3.1,0.6,3.1,2.7
		C526.8,795.3,526.4,796.2,526.1,797.2z M527,779.7c0.2,3-1,1.9-3.2,2c-4.4,0.4-3.8-1.6-2.7-3.6c1.9-3.4,2.3-6.9,2.5-10.5
		C528.3,770.7,526.8,775.5,527,779.7z M528.7,762.2c-1.6-0.1-2.3-1.4-2-2.7c0.3-1.1,1.1-2.5,2.1-2.9c2-0.8,1.6,1.2,2,2.2
		C530.8,760.4,531.3,762.4,528.7,762.2z M536.1,804.1c-4.4-6.8-2.8-13.6-2.4-20.3C535.6,790.1,543.7,795.4,536.1,804.1z M539,695
		c2-4.2-1-9.1,1.7-14.6C541.6,686.3,542.4,690.9,539,695z M548.7,605c0.3-4.3,0.5-8.3,3.9-14.6c1.4,6.8,2.8,11,2.8,15.2
		c0,1.4-0.4,5.9-5,4.6C546.4,609.1,548.5,607.4,548.7,605z M536,600.6c3.1,3.2,4.3,6.8,2.9,11.2c12.6,2.7,5.8,13.3,8.6,20
		c-4.3-6.2-11.2-11.2-10-20c-0.6-3.3-3.5-6.3-2.2-9.9c0,0,0-0.1,0-0.1C535.6,601.3,535.8,600.9,536,600.6z M512.6,640
		c8.9-16.1,6.1-32.7,2.3-49.4c-1.1-5-1.5-10.2,0.4-15.2c0.3,0.5,0.6,0.9,1,1.4c0,0,0,0.1,0,0.1c0,0,0,0,0-0.1c2,2.9,3.9,5.7,6,8.5
		c1,1.4,2.5,2.4,2.2,4.4c-2.1,12.9-0.3,22.9,5.4,32.3c1.4,2.2,3.4,5.1-2.2,2.9c-1.4-0.5-0.2,3.3-0.1,5.6c-4.4-1.6-2.9-6.4-5.9-7.9
		c-3.3,9.6-3.3,9.6,6.8,10.1c6.8,0.3,18.1,14,16.8,22.7c-1,6.6,3,15.6-7.1,19.9c-1.8,0.8-0.8,7.8-1.6,11.8c-0.4,1.7-1.5,4.6-4.1,3.7
		c-2.4-0.9-1.2-3.3-1-5.3c0.9-10.7,9.4-19.7,7.4-31.4c0-0.1,0-0.3-0.1-0.4c-0.2,0.1-0.4,0.2-0.6,0.4c-3.3,2.4-1.9,6.4-3.9,9
		c-3-1.7,0.8-6.2-4.2-7.9c1.4,10.4,2.3,19.8-2.6,29.6c-2.5,5.1,2.5,12.6,6,17.7c5.4,8,2.8,14.7-0.3,22c-1.9,10-3.5,20.1-9.1,30
		c-4.2-13.1,4.1-22,7-32.2c0-0.1,0.1-0.2,0.1-0.3c-0.1,0.1-0.2,0.2-0.2,0.2c-2,1.8-3.9,2.1-5.6-0.3c-0.1-0.1-0.2-0.2-0.3-0.4
		c0-5.7,0-11.4,0-17.1c-1.9,6.3-5.9,12.8-1.4,18.7c0.3,0.4,0.7,0.9,1.1,1.3c0.6,4.3-0.6,8.1-3.3,12.6c-5.1-21.3-3.3-41.6,2.3-62.1
		c0.1-0.2,0.1-0.4,0.2-0.6c-0.2,0.1-0.3,0.2-0.4,0.3c-4.7,3.2,0.2,11.6-8.7,11.6c-2.2-13.9,5-24.3,12.7-34.6
		c0.6-0.9,2.1-1.4,2.7-2.3c0.2-0.4,0.4-0.8,0.2-1.3c-0.1-0.3-0.2-0.6-0.4-0.9c-1.3-2.1-3.3-2.3-5.3-0.5c-0.2,0.2-0.6,0.3-1,0.3
		c-6.2,0.5,2.7-7-3.1-6.2c-3,0.4-3.8,6-7.2,5.2C510.9,645.6,511.6,641.7,512.6,640z M513.1,725.5c-4.3,7.6-7.9-6.9-11.1,2.3
		c5.9,0.9,3.6,4,1.9,7c2.3,1,6.1-2.7,7.1,2.3c1.3,6.4,6.3,12,4.7,19.1c-0.4,1.6-2,1.7-3.3,1.6c-2.6-0.2-2.5-1.9-1.5-3.5
		c2.2-3.5,1.4-5.1-2.8-4.6c1.5,5.8-6.3,7.2-8.1,9.9c-0.1-6.8-1.6-15.9,1.1-24.9c0.2-1.1,0.3-2.3,0.5-3.4c-5.7-4.8-0.1-10.5-0.8-15.9
		c-0.8-7.1-6-14.6-1-22c2.7-3,3.4-7.8,8.3-8.7C506.7,699.3,507.4,713.6,513.1,725.5z M510.1,622c-3.8-1.8-0.6-6.7-4.6-7.7
		c-1.4-0.4-1.9,1-1.6,1.7c5,10.1,2.4,19.7-1.7,29.2c-2,4.7,1.8,7.7,3.4,11.3c1.5,3.4,2.4,6.9,0.5,10.4c-0.6,1.1-1.5,0.8-2.4,0.1
		c-2.9-2.3-4.8-4.9-4.1-8.9c0.2-1.3,0-2.6,0-4.1c-2.3,0.7-4.2,1.3-6.2,1.8c0.3,3.1,7.1,4.5,2.3,9.1c-0.9,0.9-0.8,3.1,2.2,4.2
		c5.9,2.2,6,8.7,8.1,13.6c-3.5,0.9-5.5-2-7.9-3.8c-2.3,4.6,2.8,7.8,1.3,11.8c-2.8,0.9-1.6,5.3-5.4,5.8c-2.6-6.5,0.6-12.8,1.7-19.1
		c-3.4-0.8-4.1,2.8-7.4,3.3c1.9-9.8-1.3-19.5,4.8-27.8c2.5-13.8,12.3-26.7,5.3-41.8c8.5-9.4,2.4-20.4,3.5-30.6
		c0.1-1.2,3.5-2,6.8-3.8C504.7,592.4,513.3,606.6,510.1,622z M493.5,511.6c1-0.5,1.9-0.7,2.7-0.5c2.5,0.4,4.6,2.9,7.1,2.6
		c0.1,0,0.2,0,0.3,0c1,3.1,4.6,4.7,2.8,9.5c-1.8,4.9-0.8,12.3-7.1,12.8c-2.4,0.2-2.4-1.5-2.2-3.5c0.2-2.3,0.7-5.1-1.8-6.2
		C497.4,521,491.9,516.8,493.5,511.6z M489.4,506.6c-3.9-1.7-6.3-3-6.5-7.4C486.4,500.5,488.3,502.2,489.4,506.6z M486,537.4
		c-0.5,2,2,0.6,3.1,0.9c-0.4-2.9,0.6-4.4,3.7-3.7c0.2,0.7,0.4,1.5,0.4,2.2c0.1,1.2-0.3,2.3-1.7,3.1c4.3,1.7-2.9,6.1,1.8,7.6
		c4.1,0.6,3.4-10.3,10.7-3.9c6,5.4,5.5,11.4,2.6,16.4c-2.5,4.3-4.3,8.7-5.8,13.4c-6.6-3.7-6.1-8.6-3.4-14.1c0.3-0.3,0.6-0.5,0.9-0.8
		c2.5-1.7,6.3-2.5,4.8-7.9c-2.3,2.2-4.4,4.1-6.4,6c-0.3,0.2-0.5,0.5-0.8,0.7c-4,1.7-4,1.7-3.8-1.1c0.2-2.3,0.5-4.5,0.8-6.8
		c-8.1,4.4-2.8,11.5-3.3,17.3c-0.4,5.5,9.8,11.3-0.4,16.7c0,0,0.5,1.2,0.8,1.8c8.3,12.6-1.4,25.7,1,38.5c0.1,0.3,0.1,0.9,0,1
		c-11.2,6.9-6.5,20.5-12.5,29.6c-0.2,0.3-1.3,0.2-1.9,0.2c-0.1-0.6-0.1-1.5-0.1-2.2c-0.1-0.8-0.1-1.5-0.5-1.6
		c-1.9-0.7-2.2,1.3-1.9,2.4c0.3,1.1,0.3,2.3,0.3,3.6c0,1.8,0.2,3.6,1.8,5.1c-4.8,6.8-2.4,12.3,2.4,18.1c3.3,4,7.4,9,1.5,14.4
		c-2.6,2.3-1.2,3.9,0.5,6.1c5.1,6.6,5.2,15.2,8.1,22.7c1,2.5,1.5,6.8-2.2,8.2c-3,1.1-3-3.5-4.5-4.1c-9.9-4.1-5.5-13.5-6.9-20.1
		c-1.5-7.1-1.6-6.8-4.3-13.7c-3.2-8.3-6.9-17.5-4.2-26.9c0.6-2,1.8-3.6,0.5-5.6c-8.1-12.6-2.8-22.3,6.7-31.2
		c1.7-1.6,3.7-3.3,2.8-6.4c-3.4-0.6-3.1,5.9-6.6,3.9c-2.2-1.2-1.7-4.3-2-6.7c-1.1-7.8,2.3-13.7,7.4-19.4c2.3,4.9-4.3,9.7,1.1,15.1
		c0.1,0.1,0.2,0.2,0.3,0.3c0-0.1,0-0.2,0-0.3c1.7-11.2,3.9-21.8-0.8-31.5c-2.8-5.8,3.9-8.3,2.3-13c0.3-0.4,0.6-0.7,0.9-1.1
		c3.7-4.7,6-9.8,7.1-15.3c0.1-0.7,0.2-1.4,0.3-2c0.3-2.5,0.4-5,0.3-7.6c0-0.4,0-0.7-0.1-1.1c0,0,0,0,0,0c-1.8,0-2.2-2.9-4.3-2.3
		c-0.5-5.7,2.7-13.6-6.5-14.5c-0.6-0.1-1.2-0.1-1.8-0.1c-1.7-4.1-7.4-4.9-8.3-9.5c-0.7-3.6-6.2-5.9-0.8-11.5
		c3.3-3.4-5.8-8.4-5.6-14.3c-3.2-3.7-5.9-7.6-2.3-12.5c-10.2-6.2-4.7-17.3-8-25.8c-3.9-9.8,1.6-20.3-0.5-30.7
		c-5.2,0.7-2.8,7.6-7.7,7.7c0.2-0.9,0.1-1.7-0.2-2.3c-1-2-4-3-3.8-5.6c-0.4-0.2-0.8-0.5-1.1-0.7c-3.1-2.4-1.1-4.5,0.8-6.6
		c0.3-0.3,0.6-0.6,0.8-1c-0.2-0.7-0.5-1.3-0.7-2c-3.1-2-3.8-4.2-2.6-8.1c1.3-4.1-0.7-4.7-3.5-1.6c0,0,0,0,0,0c0,0,0,0,0,0
		c-0.1,3.2-0.3,6.4-0.4,9.5c-2.9,1.9-6,3.6-6.4,7.3c0,0.2,0,0.5,0,0.7c-6.4-3.2-6.5-4.4-2.5-8.6c3.2-3.4,8.3-6.1,7-12.3
		c-4.5-0.5-7.4,2.2-10.2,5.2c-2.1,2.2-3.8,5.1-7,5.7c-0.5,0.1-1,0.1-1.6,0.1c-0.1,1.2-0.3,2.3-0.7,3.3c-0.2,0.7-0.5,1.3-0.7,2
		c-0.7,1.7-1.7,3.2-2.8,4.7c0.2-3.9-1.4-8.5,4-10.3c1-9.1,12.3-9,14.9-16.7c-1.2-0.5-3.4-1.2-3.4-1.6c1.6-12.6,3.9-24.9,13.5-34.2
		c2.4-3.6-16.3,1.4-2.6-6.7c-9.8-9.6,1.2-19.1,0.2-28.6c0,0,0,0,0,0h0c0.3-5.4,0.6-10.8,0.9-18c5,5.2,8.9,9.6,9.4,14.9
		c0.3,3.1-4.4,3.5-7.6,3.3c0,0,0,0,0,0c0,0,0,0,0,0c-0.1,4.4-1.4,8.8,2.7,12.5c5.1,4.6-1.1,9.6,0,15.1c1.8,9.1,5.3,18.4,1.9,28.3
		c-2.3,6.8-0.1,15.6,4,19.4c9.4,8.9-1.2,5.2-3.8,7c2.7,2.5,6,4.7,6.1,9.2c0,0.3,0,0.5,0,0.8c0.3-0.2,0.5-0.4,0.7-0.6
		c3.2-3.3,2-7.5,4.2-10.3c1.2-1.5,1.1-4.6,3.9-3.9c2.9,0.8,3.8,3.8,2.3,5.8c-4.5,6.2-2.3,8,4,11.3c5.7,3,2.6,12.1,6.1,17.7
		c0,0,0,0,0,0c0,0,0,0,0,0c3-0.7,0-3.6,2.7-5.7c4.9,5.7,6.7,11.7,3,18.6c-2.7,4.9-4.4,9.6-0.4,14.5c0.5-3.5-1.7-7.8,3.7-10.1
		c0,4.3,2,8.5-1.4,12.2c-1.4,2.2,2.2,8.3-4.8,6.2c-0.3-0.3-0.6-0.6-1-1c-2.5-2.2-5.7-3.8-3.1-8.8c1.1-2.2,2.1-6.8-1.7-9.3
		c-1.2-3.5-2.3-6.9-3.8-11.3c-3,2.4,1.6,6.1-2.4,6.8c-1.7-1.8-2.7-5.2-6.4-2.7c1.4,2.6,3.6,4.2,6.2,5.2c1.3,1.5,2.6,3,3.9,4.4
		c0.9,2.9,1.2,5.8,0.4,8.8c-2.2,7.5-2.2,7.6,5.4,7.9c0.1,0,0.3,0,0.4,0c-1.1,4.8,3.9,9.6,0.1,14.5c-0.1,0-0.2,0-0.3,0
		c-2.3-0.2-0.7-4.2-3.5-4l0,0c0,1,0,2,0,3c0,0.8,0,1.7,0,2.5c0,0.1,0,0.2,0,0.4c0,0,0,0,0,0c1.9,0.2,4,0.9,5.5-0.5
		c0.3-0.3,0.6-0.7,0.9-1.2c2-0.3,3.5-4.2,6-0.8c3.3,4.5,2.6,8.7-1.1,12.8c-3.5-2.3-5.7-7.5-11.3-5.5c4.9,4.3,11.8,7,10.5,15.6
		c-0.2,1.1,0.7,3,1.6,3.4C487.8,517.3,488.6,526.6,486,537.4z M483.2,655.5c-1,5.8-1.7,9.9-2.4,13.9
		C479.6,665,476.3,660.2,483.2,655.5z M474.4,561.6c5.1-2-0.5-8.3,4.3-10.1c0.3,1.7-0.5,3.7,0.5,5.2c0.2,0.3,0.6,0.7,1,1
		c2.3,4.7-0.8,8.1-2.6,11.8c-0.1,0.2-0.2,0.4-0.3,0.6c-1.2,2-2.4,4-3.6,6c1.5-7.7-9.9-14.1-2.5-22.4
		C474,555.8,470.7,560,474.4,561.6z M477.2,531.4c2.8,2,2.8,5.9,4.1,8.9c0.4,0.9,0.8,1.6,1.5,2.3c0,0,0.1,0.1,0.1,0.1
		c0.2,0.6,0.3,1.2,0.5,1.8c0.6,3.5,0.1,6.9-0.5,10.4c-1.2-0.2-1.7-0.8-1.9-1.7c-0.2-0.8-0.1-1.8-0.3-2.7c-0.2-0.9-0.6-1.6-1.8-1.8
		c2.9-7.1-6.2-11.6-4.2-18.5C475.7,530.6,476.5,530.9,477.2,531.4z M492.8,452.7c-1.8-5.8-2-9.2-0.7-12.5
		C494.7,443.4,493.4,446.7,492.8,452.7z M495.1,422.4c-3.9,7.6-4,7.6-3.2,17.3c-3.7-0.6-5,3.1-7.3,5.1c-6.2-9.1,1.6-17.7,0.3-26.4
		c-4.1-0.7-3.7,3.3-5.6,5.4c-4.4-8.2-4.9-15.4,2.9-21.4c3.3-2.5,5.2-4.2,2.8-9.2c-1.2-2.5,2.3-7.2,3.8-11.3c5.7,4.4,3.6,9,2.9,13.7
		c-1.1,7.4-2,15,2.5,21.9C495.4,419.1,495.9,420.8,495.1,422.4z M493.5,379.5c-1.9,0.2-6,1-6-1.6c0-5.4-4.4-11.3,1.2-17.1
		c2.3,4.9,4.4,9.4,6.3,13.9C495.8,376.5,496.2,379.1,493.5,379.5z M524.7,433.7c-2.5,0.9-5,1.8-7.7,2.8c-1-4.8-1.9-9.1,2.4-12.4
		c3.3,1.8-1.5,7.2,3.7,8.1c2.1-5.6-0.8-11.4,0.9-17.4c1.3-4.5,2.8-7.2,6.3-8.8c4,9.4-2.4,19.6,2.1,29.5
		C529.5,438,527.3,434.7,524.7,433.7z M523.4,368.3c5.1,10.7,2.3,19.4-3.8,29.9C517.3,386.6,512.3,377,523.4,368.3z M517.1,350.7
		c6.4,5.5,8.7,9.7,8.4,14.9c0,0.7-2,1.9-2.1,1.8C519.2,363.5,518.7,358.3,517.1,350.7z M528.8,399.5c2.7-7.4,0.9-14.5,6.8-19.5
		C534.2,386.2,537.7,394.1,528.8,399.5z M530.6,338.6c-2.9-0.5-0.3-5-3.8-4.8c-0.8,5-1.3,9.9-0.1,14.9c5.2,3.2,5,7.9,3.7,13.2
		c-5.1-1.6-4.2-6.4-5.6-9.9c-7.6-2.8-9.7-11-14.9-16.1c-4-3.9,2.4-9.4,7.7-12c-7.7-7-10-12.4,0.2-25.7c0.5-3.4,3.6-6,2.8-9.7
		c-0.5-2.4,4.9-4.5,0.9-6.9c-3.5-2-2.4,4.6-5.8,3.9c0.3,0.4,0.5,0.8,0.7,1.2c1.9,3.5,1.7,6.7-2.2,9.4c0-1.4,0-2.9,0-4.3
		c-3.9,1.2-1.8,4.3-1.9,6.6c-0.1,2.3-0.9,4-2.7,5.1c-0.5,0.3-1.8-0.3-2.5-0.8c-2.8-2.2-0.9-4.2,0.4-6.1c2.1-3,4.3-5.9,6.5-8.8l0,0v0
		c0.3-0.7,0.6-1.3,0.8-2c0,0,0,0,0,0c6.7-9.4,6.2-20.2,5.3-31.3c3.3,6.5,1.6,13.9,8.1,19.4c3.1,2.6,2.8,4.7,5.2,0.3
		c1.1,1.8,2.7,3.4,3.2,5.4c0.7,2.4-0.2,4.8-2.9,5.6c-4.3,1.2-4.5,1.3-1.3,5.6c5.2,7,12.2,13.3,7.8,23.5c-5.9-1.4-5.3-7.3-7.4-11.8
		c1.9,5.7-1.4,11.3,2.9,17.4C540.9,326.5,534.3,332.8,530.6,338.6z M551.4,392.6c-3.8,3.6-4.7,12.9-7.1,19.7
		c-1.3-16,3.8-31.2,7.3-46.7C552.6,374.5,562.1,382.4,551.4,392.6z M571.3,396.5c-3,4.8-8,8.2-8.6,14.7c-0.2,2.5-3,2.7-4.9,1.2
		c-1.2-0.9-3.8-0.7-2.6-4.2c1.3-3.6,2.2-8.5,4.9-9.9c9.2-4.7,7.2-10.9,3.9-17.8c-5.8-6-1.3-12.8-1.6-19.2c0.5-0.9,1-1.7,1.4-2.6
		c0.4-0.8,0.7-1.6,0.8-2.4c0.4-1.8,0.1-3.6-1.6-5.4c-0.2-0.3-0.5-0.5-0.8-0.8c-0.4,0.4-0.8,0.8-1,1.2c-0.7,1.2-0.6,2.7-0.7,4.1
		c0,0.5,0,0.9-0.1,1.4c-9.9-5.6-5.5-14.6-4.6-22.5c-3.9-0.7-4.1,1.6-4,3.6c0.4,6.2-2.2,11.1-5.8,15.9c-2.1,2.7-5.5,5.9-2.4,10.1
		c5.3,7.1-1.6,7.2-5.4,10.5c-1.7-5.4,0.7-10.2-0.5-13.9c-1.2-3.8,11.7-9.3-1.4-10.9c2.5-5.5,0.5-12.8,6.4-17
		c4.2-2.9,10.1-3.8,5.6-11.8c-2.1-3.6,6.8-3.3,7.5-8c-2.7-0.8-6.9,4.8-7.6,0.5c-0.9-5.5-2.8-12.8,5.9-16.1c0,0,0-0.1,0-0.1
		c-10.6,1.3-14.5-5-11.5-18.7c1.5-6.6-0.5-11.9-5.7-14.1c-9.9-4.4-7.5-10.1-3.7-16.6c0,0,0,0,0,0c0,0,0.1,0.1,0.1,0.1c0,0,0,0,0-0.1
		c8,3.8,12,9.9,14.7,18.7c3.4,11.1,9.6,21.2,12.5,32.8c1.4,5.6,1.9,9.7-2.6,13.5c2.8,6,6.5,11.7,7.9,18c0.7,2.9,4.8,7.4,0.6,10
		c-2.8,1.7-3.8-2.6-6.6-3.8c-0.6-0.2-1.2-0.4-1.9-0.3c0.1,0.4,0.2,0.9,0.2,1.4c0.1,3.5-2.1,7.3,2,10.3c4.1-4.8,5.3,0.1,6,2.3
		c2.5,8.4,3.6,17.4,6.9,25.5c3.8,9.2-4.5,0.7-4.5,3.6C575.9,384.4,575,390.8,571.3,396.5z M577,346.4c-0.2,0.7,0.5,1.8,1.1,2.8
		c0.8,1.3,1.6,2.6,0.2,3.2c-0.6,0.3-1.7,0.4-3.4,0.3C575.5,350.5,573.2,347.4,577,346.4z M601.8,400.9c-0.3,2-0.7,4-1,6c0,0,0,0,0,0
		c-1.8,1,0,4.4-3.1,4.5C598,407.4,596.1,402.6,601.8,400.9z M611.8,383.6c-4.7-0.9-1.3-5-3.4-6.8c-2.9-2.6-3.3,3.1-6.5,1.4
		c3.4-11,3.1-21.5-1.5-32.9c-3.3-8.1,0.3-17.6,10.6-25.3c-2.4,8,1.5,12.5,3.4,17.5c1.9,5,2.2,4.7-0.8,11.1
		c-3.6,7.7-6.6,15.7-4.8,24.9c7-2.4,5.2-8.9,6.8-13.7C616.5,368.2,618.6,376.7,611.8,383.6z M684.2,277.8c3.4,1.9,4.3,4.1,2.7,7.2
		C683.5,283.8,682.9,281.4,684.2,277.8z M665.4,268.6c2.2-1.4,3.7-2.9,3.5-5.7c-0.2-2.4-0.1-5.6,3.6-3.7c1.7,0.9,6.5,0.8,3.8,5.3
		c-5.3,8.9-3.2,18.1-1.2,27.4c7.9,8.5,18.9,12.6,28.2,19.1c3.4,2.4,6.7,4.8,7.5,11.7c-11.1-8-19.3,2.8-29.2,1.8
		c-0.1,0-0.3,1.9-0.5,2.9c-1.4,0-3-0.4-4,0.2c-3.1,1.8-4.7-6.4-6.9-1.5c-1.7,3.9,4,3.3,6.2,5.1c0.6,0.5,1.9,0.3,2.9,0.4
		c3.8,2.1,5.9,4.7,2.6,8.9c-0.9,1.1-0.1,3.5-2.7,3.4c-4.4-0.1-8.6,2.9-7.4,6c1.5,4.1-0.2,8.5,1.7,12c4.5,8.6,0.6,12.6-7.2,14.8
		c2.6-6.6,1.9-13-2-19.4c0,1.1,0,2.2,0,3.3c-0.1,0-0.1,0.1,0,0.1c0,3.9,0,7.8,0,11.8c-2.9,4.7-2,14.4-12.1,9.5
		c0.5-1.4,1-2.9,1.5-4.3c0,0,0,0,0,0c0-0.2,0.1-0.4,0.2-0.6c0.1,0,0.1,0,0-0.1c1.3-2.4,5.9-3.3,3.5-7.6c-2.6,2.4-5.6,4.2-6.3,7.9
		c0,0,0,0,0,0c-0.9-2.5-2.5-3.9-5.3-3.2c-4.4-3.9,2.9-4,2.2-6.7c14.3-0.9,17.5-8.1,13-31.2c-0.7,11.3,2.2,24.4-13.2,28.7
		c0.8-5.3,0.2-11.4,2.8-15.6c6-9.8,10.5-19.4,7.8-31.2c-1.3-5.8,4.1-9.9,3.9-15.5c-4.7-2.7-0.4-7.2-2-10.5
		C655.8,285.4,658.4,272.9,665.4,268.6z M651.2,251.6c-1.7-6.5-5.9-6.5-8.5-9.7c-2.1-2.5-8-3.4-3.9-8.4c3.6-4.4,7.3-2.2,10.7,0.6
		c3.7,2.9,6.5,7.1,6.4,11.4c0,8,1.8,15.6,2.4,20.9c0,4.3,0,6,0,7.7c0.1,2.7-1.3,5.4-3.7,5.4c-3.6,0.1-2.2-3.4-2.6-5.6
		C650.7,266.6,653.3,259.6,651.2,251.6z M629.4,340.8c-3.3-0.4-1.6,4-4.4,3.5c-3.5-4.8,0-8.5,2-12.4c9.1,4,9.8-5.9,14.8-8.8
		c1.3,0.8,3,3.2,4,1c1.1-2.3,0.1-6,4.5-4.6c3.4,1.1,1.2,4,1.7,6.1c1.8,8.1-5.7,12-8.5,17.9c-0.7,1.4-3.6,2.8-3.4,3.3
		c5.4,14.1-9.4,18-13.9,27.4c3-7.9-5.7-15.2-0.9-23C632,349.6,628.5,344.5,629.4,340.8z M636.8,412.6c-5.4,6-6.6,10.8-1.7,16.7
		c1.5,1.8,4.8,6,1.6,8.1c-3.9,2.6-6.3-2.4-7.6-4.8c-2.5-4.7-2.3-10.3-2.9-15.7c-1.1-11.2,10.5-22.3,0-33.4c-1.8-1.9,1.1-5.3,3.8-8
		c9.1,17.4,14,34.8,16.1,54.4C639.6,425.4,637.6,419.8,636.8,412.6z M649.2,400.1c-3.7-5.7-3.9-11.8-2.9-18c1.9-1.2,3.7-0.8,5.6-0.1
		C660.9,389.3,652.9,394.2,649.2,400.1z M617.4,578.9c2,3.5,4.6,6.5,2.6,11.7C617.5,586.7,615.1,583.4,617.4,578.9z M620.3,643.3
		c-2.3-6.5-1.8-9.9-0.9-15.1C621.5,633.5,620.8,636.9,620.3,643.3z"/>
	<path d="M630.5,89.3c0.3-2,0.6-3.2-1.4-3.6c-0.5-0.1-1.9,1.2-1.8,1.7c1.3,10.5-6.4,20.9-0.3,31.4c0,0,0.2-0.2,0.2-0.2
		C628.2,108.8,629.1,99,630.5,89.3z"/>
	<path d="M739.7,364.9c0.1-1,0.2-2,0.3-3c0.1-1,0.2-2,0.3-3c-1.3-3.9,2.1-6.1,3.2-9.1c1.5-4.2,3.4-9.6-3.5-11.7
		c-0.7,4.9,1.6,9.8-1.8,15.1C736.6,355.5,735.5,361.5,739.7,364.9z"/>
	<path d="M404.1,595.9c1.3,5.6,1.3,5.6-8.8,8.3c7.1,1.9,13.1,2.5,17.7,6.4C411,603.6,408.8,600.1,404.1,595.9z"/>
	<path d="M729.5,177c-1.9-3.3,3.8-4.7,2.6-8.3c-5,1.3-4.9,5.5-6.4,8.5c-0.5,4.8-0.9,9.6-1.4,14.7C733.2,189.1,734.1,184,729.5,177z"
		/>
	<path d="M686.6,486.2c-2.4,2.9-5,3.5-7-0.6c0,0,0,0,0,0c0,0,0,0,0,0c0,0-0.1,0.1,0,0c0,0,0,0,0,0c0,0,0,0,0,0
		c-0.3,5.5,4.9,6.3,7.8,9.1c0.7,2-1,4.9,2.1,5.9c0.5,0.2,1.5-0.1,1.7-0.4c0.9-2.1,1.6-4.4-1.3-5.6c-2.9-3.1-2.4-5.5,0.7-8.4
		c2.3-2.2,6.1-3.8,4.7-9.2C691.8,479.5,689.4,483,686.6,486.2z"/>
	<path d="M628.7,74.9c-12.7,9.8-9.7,1.4-9.6-3.6c9.1-4.7-0.2-5.9-2-8.6c0,2,0,4,0,5.9c-0.3,6.2-0.7,12.4-1.1,19.9
		C620.1,84.5,624.6,82.4,628.7,74.9z"/>
	<path d="M394.8,192.5c-10.1,7.3-2.8,13.5-0.3,20C395.9,205.8,395.2,199.2,394.8,192.5z"/>
	<path d="M394.4,212.5c0,0.2-0.1,0.4-0.1,0.6l0,0c0.1,0,0.2,0,0.3-0.1c0-0.1,0-0.1,0-0.2C394.5,212.7,394.5,212.6,394.4,212.5z"/>
	<path d="M635.5,185.6c0.2-0.4,0.4-0.7,0.4-1c1.4-2.3,4.8-3.7,3.4-7.7c-4,0.7-6.1,2.5-5.5,6.6c-0.7,0.7-1.5,1.4-2.2,2.1
		c-0.2,7.2-7.9,11.1-8,18.3C630.9,200.1,631.9,192,635.5,185.6z"/>
	<path d="M374.1,173.1C374.1,173.1,374.1,173.1,374.1,173.1C374.1,173.1,374.1,173.1,374.1,173.1L374.1,173.1c0.1,0,0.1,0,0.2,0
		c0-0.1,0-0.1,0-0.2c-0.1,0-0.1,0-0.2,0C374.1,172.9,374.1,173,374.1,173.1L374.1,173.1z"/>
	<path d="M385.2,185.2c3.7-6.8,1.9-10.6-1-14.2c-1.8-2.9-3.5-5.8-5.5-9.2c-3,5.3,4.6,7,2,11.3c-2.1,0-4.2-0.1-6.3-0.1
		C375.1,180.2,386.3,175,385.2,185.2z"/>
	<path d="M276.1,357.6c-5.9-1.6-1.8-8.8-6.2-11.2c0,0,0.1,0,0.1,0c0-3.5-1.5-7-5-6.1c-2.6,0.7,2.2,3.4,0.8,5.7
		c1.3,0.1,2.5,0.3,3.8,0.4c0,0,0.1,0,0.1,0c0.8,4.9-0.5,7.6-6.1,5.9c-0.4,0.4-0.9,0.7-1.3,1.2c-0.1,0.2-0.1,0.8,0,0.9
		c4.6,1.4,9.2,2.7,13.9,4c4.2,6.3-1.5,4.6-4.3,5.3c-6.3-0.4-12.9,0.3-18.6-6.1c3.5,14.2,10.8,11.7,18.6,7c6.2,0.7,12.4,1.1,18.6,0.1
		C287.3,359.4,281,359.8,276.1,357.6z"/>
	<path d="M773.6,302.2c5.1-6,7.4-11.5,2.9-17.7C770.4,289.1,773.4,295.4,773.6,302.2z"/>
	<path d="M739.4,222.7c-3.6,3.3-6.7,7.1-9.9,10.7c-2,0-4,0-6,0c0,0,0-0.1,0-0.1c1.7-3.2,2.9-6.4,1.4-10.1c-2.1,2.7-4.2,5.5-6.2,8.2
		c0.6,2.5,2.4,2.3,4.2,2.3c-1.6,2.8-3.1,5.6-4.7,8.3c0.6,0.5,1.1,1.1,1.5,1.7c2,3.2,0.9,7.1,1.4,10.6c2.7,0.2,4-2.8,3.5-3.8
		c-3.6-7.3,1-11.9,4.8-16.9c7.1-1.1,9.8-7.7,14.4-12c0.1-0.1,4-8.1-3.7-4.8C740.7,219,741.7,220.7,739.4,222.7z"/>
	<path d="M677.1,160c0.1,0,0.2,0,0.4-0.1c10.1-3.3,2.8-10.3,3.2-15.7c-2.2,4.5-0.6,9.9-3.4,14.3c-5,3.2-14,3.7-9.8,14.2
		C671,168,674,164,677.1,160z"/>
	<path d="M649.9,204.9c4-5.5,5.2-10.8,4-17C647.5,192.3,648.2,198,649.9,204.9z"/>
	<path d="M698.4,202.2c-0.5-3-0.9-5.2-1.4-7.4c-0.4-1.8,4.7-3.2,0.5-4.8c-2.9-1.1-5.2,1.1-6.1,3.7
		C689.7,199,692.6,201.3,698.4,202.2z"/>
	<path d="M661.5,134.6c-0.9,6.5-2.3,12.8-3.3,19.2C665,148.5,661.9,141.3,661.5,134.6z"/>
	<path d="M324.2,206.4c0.1,3.5,0.3,7,0.4,10.5c-1.1,8.9-3.8-3-5.7,1.3c0.1,4.9,5.4,7.1,7.9,11c1.8,5.7,5.5,7.8,13.3,5.7
		c-5.7-1.9-9.5-3.8-11.5-7.9c-1.9-2.3-2.7-4.9-2.1-7.9c3.1-1.3,1.7-4.1,2.1-6.3c2.5-2.2,3.1-4.7,1.2-7.6c-1.1,1-2.1,1.9-3.2,2.9
		c-0.5-0.9-1.1-1.8-1.6-2.7c0-0.4-0.2-0.7-0.6-1.1c1-5.5-2.3-10-3.7-14.9C320.8,195.3,314,202.7,324.2,206.4z"/>
	<path d="M755,327.9c-2,6.9,4.2,6.6,6.5,7.4c4.9,1.6,3.9-4.7,6.7-7.5C763.7,331.7,759.3,331.3,755,327.9z"/>
	<path d="M752.3,293.9c-0.4,0.3-0.7,0.7-1.1,1c-1.9,1.8-3.8,3.6-5.6,5.5v0c5.9,4.9,5.3-1.4,6.9-4c1.9-5.8,7.9-3.4,12.2-6.6
		c-5.4,2.5-5.5-5.6-10.3-3.8c-6.6-1.1-9.7,2.1-10.5,8.3c3.6-0.5,4.4-6.2,8.3-6.1c0.2,0,0.4,0,0.7,0.1c0.4,0.1,0.8,0.2,1.3,0.4
		C752.1,289.9,752.4,292,752.3,293.9z"/>
	<path d="M758.6,308.6C758.6,308.6,758.6,308.6,758.6,308.6c-0.3,0.3-0.5,0.6-0.6,0.8c-1.8,2.2-4.8,4-3,7.6c2.3-1.2,4.1-2.7,3.8-5.7
		h0c3.6-4.7,9.7,0,13.6-3.7C767.7,305.8,762.6,299.2,758.6,308.6z"/>
	<path d="M622.1,47c5.6-5.1-0.6-10.3-0.7-15.6c-0.6,4.3-0.3,8.9-2,12.6C617.1,49,621.2,47.8,622.1,47z"/>
	<path d="M288.8,237.3c2.7-0.3,5.4-0.6,8.1-3.6c-3.5,0-5.9,0-8.2,0c-5.8,1-11.6,1.9-17.4,2.9C277.4,239.3,283,235.5,288.8,237.3z"/>
	<path d="M244.5,322c0.1-0.1,0.2-0.1,0.4-0.2c0,0-0.1-0.1-0.1-0.1L244.5,322z"/>
	<path d="M256.8,265.2c1.4,3.2,4.2,2.1,6.6,2.2c0,0,0,0,0,0c0.3,6.9,5.1,3.7,8.4,3.7c2.9,0,5.8,0,8.7,0c0-0.5,0-0.9,0-1.4
		c-2.9-0.1-5.8-0.3-8.7-0.4c-2.8-1.3-5.6-2.6-8.3-4c-1-2.9-3-4.4-6.1-4.4c-4.2,3.5-10.6-0.2-15.6,4.7
		C247.6,267.5,252.2,264.8,256.8,265.2z"/>
	<path d="M470.1,238.5c-2.5-1.6-3.7,0.5-4.6,2.2c-2.6,5.2,3.7,4.5,5.2,7.5C468.7,244.8,474.5,241.3,470.1,238.5z"/>
	<path d="M743.8,326.1l-0.5-0.1c0,0,0,0,0,0c0,0,0,0,0,0c0,0,0,0.1,0,0.1l0,0c-5.2,2.4-7.2,9.5-13.8,9.9c-5.5,1.8-10.5,4.4-14.2,8.7
		c-0.9,1.1-1.8,2.3-2.5,3.6c-0.7,0-1.4-0.1-2,0c-2.1,0-4.1,0.3-5.3,2.1c-0.4,0.6-0.7,1.3-0.9,2.2c3.4-0.3,7-0.1,8.4-4.2
		c7.9-4.3,15.3-9.9,24.8-10.5c-1.4-5.5,7.6-6.1,5.8-11.8c0,0,0,0,0.1,0l0.2,0c9.4,4.5,9.9-2.6,11.3-8.7
		C749.6,318.1,749,325.2,743.8,326.1z"/>
	<path d="M440.7,695.4c1.6,4.6,4.4,8.1,8.7,10.3c-1.8,2.3,3.7,6.3-1.8,7.7c-1.3-2.5-2.6-5.1-6.1-2.7c1.5,2.3,3.2,4.5,5.9,5.5
		c3.2,3.3,5.6,4,6.3-1.7c0.5-3.4-1.6-5.9-2.8-8.7C449.2,700.6,445.1,697.8,440.7,695.4z"/>
	<path d="M418.1,622.1C418.1,622.1,418.1,622.1,418.1,622.1c-0.2,0-0.2,0.1-0.3,0.1l0,0c0.1,0,0.2,0.1,0.3,0.1
		C418.1,622.2,418.1,622.2,418.1,622.1C418.1,622.1,418.1,622.1,418.1,622.1z"/>
	<path d="M419.3,610c-2.1-0.1-4.4-1.9-6.2,0.7c0,0,0,0-0.1,0c0,0,0,0,0,0l0,0c0,0,0,0-0.1,0c0,0.1,0,0.1,0,0.2l0.5,0
		c5.6,1.9-0.4,9,4.5,11.3C422.6,618.5,418.7,614,419.3,610z"/>
	<path d="M374.1,141.7c0.7,0.1,1.7,0.5,2,0.3c3-3.1-0.6-6.4,0.3-9.6c0.2-1-0.1-2-0.1-3.1c0-3.2,0-6.4,0-10.5c-4,3.7-2,7.1-2.1,10.3
		C368.2,133.2,375.7,137.4,374.1,141.7z"/>
	<path d="M499.5,264.4c6.3,1.8,9.3,0.5,8.5-6c-0.4-3.4-0.5-6.8-0.8-10.2c-1.6-2.7-0.6-6.9-6-8.3c1.4,3.3,2.5,5.8,3.5,8.4
		C506.5,254.7,508.2,260.9,499.5,264.4z"/>
	<path d="M386.3,231.6C386.3,231.6,386.3,231.5,386.3,231.6c-0.2,0-0.2,0.1-0.3,0.2l0,0C386.1,231.7,386.2,231.7,386.3,231.6
		C386.3,231.7,386.3,231.6,386.3,231.6C386.3,231.6,386.3,231.6,386.3,231.6z"/>
	<path d="M386.1,221.9c-1.9,2.2-6.1-0.6-7.2,3.3c-1.8,0.7-4.4,1.6-3.5,3.7c0.7,1.7,3.5,0.9,5.4,0.5c2.4-0.7,3.8,1.1,5.5,2.2
		C388.7,228.3,386.6,225.1,386.1,221.9z"/>
	<path d="M301.8,252.4c-3.6,1-6,1.6-8.4,2.3c2,2.6,0,5-0.3,7.5C299.1,261.9,299.4,256.9,301.8,252.4z"/>
	<path d="M639,58.1c-0.4,0-0.8,0-1.1,0c-1.9,4.7-3.8,9.4-6.2,15.5C639.5,69.7,639,63.8,639,58.1z"/>
	<path d="M416.1,689.7c2.7-3.5,8.3-3.4,9.9-8.5C417.8,683.5,417.8,683.5,416.1,689.7z"/>
	<path d="M735.8,266.1c0.3-4.8,6-6.1,5.1-11.5C737,257.2,734.9,260.8,735.8,266.1z"/>
	<path d="M312.8,273.4c1.7,0.1,3.4,0.5,5.1,0.7c4.7,2.6,5.2-1.2,7.8-5.5c-3.8,1.6-5.9,2.5-8,3.4c-4.7,0.4-7.9-1.7-9.5-7.4
		C306.3,273,306.3,273,312.8,273.4z"/>
	<path d="M464.5,190.6c0.1,0.1,0.1,0.1,0.2,0.2l0,0.1c0-0.2-0.1-0.4-0.1-0.6C464.6,190.4,464.6,190.4,464.5,190.6
		C464.5,190.5,464.5,190.6,464.5,190.6z"/>
	<path d="M463.3,189.7c-4.5,5.6-2,11,1.2,16.3c0-5.2,0-10.3,0-15.5c-0.2-0.2-0.3-0.4-0.5-0.5C463.8,189.9,463.3,189.7,463.3,189.7z"
		/>
	<path d="M371.8,545.8c-4.1-5.8-4.1-5.8-10.9-1.6C365.2,544.9,368.9,543.2,371.8,545.8z"/>
	<path d="M744.3,359c-0.3,2.7-1.1,5-3.6,6c-0.2,0.1-0.4,0.2-0.7,0.2c-0.1,0.7-0.2,1.3-0.3,2c-10.5,0.5-12.4,10-17.1,16.6
		c-2,4.9-4,9.8-6,14.8c-2.4,2.2-4,4.9-3.9,8.3c0,0,0,0,0,0c1-0.4,2-1.1,3-1.8c2.2-1.7,4.3-3.4,7.4-0.6c0.1,0.1,0.3,0.3,0.4,0.4
		c-2.8,2.9-5.3,6.1-8.3,8.7c-2.3,2-3.1,1.3-3.5,0c-0.2-0.8-0.3-1.8-0.5-2.6c-2.4,2.8-4.8,5.6-7.2,8.5c-3.5,0.7-7.5-1.5-10.4,2.1
		c-3.7,0.1-7.8-0.6-9.5,4.1c1.1-0.1,2.3-0.2,3.4-0.4c2.5-0.3,5-0.8,7.2-2.1c0.6-0.4,1.2-0.8,1.8-1.3c1.5-0.5,2.7-0.4,3.7,0.1
		c1.6,0.8,2.6,2.6,3.9,4c1.5,4.9,3,9.7,4.4,14.6c7-5.9,1.6-10.2-2-14.7c-2.9-3.1-0.5-4.5,1.6-5.9c0.2-0.1,0.3-0.2,0.5-0.4
		c8.7-1.2,14.6-5.5,16.2-14.6c2.8-6.8-6-2.4-6.1-6.3c2.2-3.2,3.5-7.2,7-9.5c5.9-6.5,5.6-17,14.1-21.8c0,0,0,0.1,0,0.1c0,0,0,0,0,0
		c3.6-0.3,6.6-2.3,8.3-5.1C751.4,356.6,745.9,359.7,744.3,359z"/>
	<path d="M702,462.7c-4.4-0.3-6.9,3.4-10.4,5c5.1,6,6.3-5.1,10.6-2.6c3.8-2.1,9.1-0.4,11.9-5.2C709.4,457.6,706.1,461.8,702,462.7z"
		/>
	<path d="M718.3,190.4c-4.8-1.8-8.6-0.9-11.7,3.2C711.8,196,714.4,190.5,718.3,190.4z"/>
	<path d="M313.7,237.4c0,0,0.1,0.1,0.1,0.1c0,0,0,0,0,0c0.1,0,0.3,0,0.4,0c-0.1-0.1-0.2-0.1-0.3-0.2
		C313.8,237.4,313.7,237.4,313.7,237.4z"/>
	<path d="M300.9,237.4c4.7,0.5,8.7,2.1,12.8,0.1C309.8,233,305.7,233.2,300.9,237.4z"/>
	<path d="M365.4,150.5c0,0.4,0,0.8,0,1.2C365.5,151.3,365.6,150.9,365.4,150.5z"/>
	<path d="M365.4,162.5c0-4.2,0-7.6,0-10.9C364.7,155.1,358,158.4,365.4,162.5z"/>
	<path d="M285.1,224c-3.4,0.1-6.4-3.8-11.7-0.8C278.2,225.5,281.6,226,285.1,224z"/>
	<path d="M224.6,325c-3.6-3.5-7.7-5.9-15.1-6.2C215.2,323.4,219.3,325.9,224.6,325z"/>
	<path d="M225,324.9c-0.1,0-0.3,0-0.4,0.1c0,0,0.1,0.1,0.1,0.1c0,0,0,0,0,0c0.1,0,0.1,0.1,0.2,0.1C224.9,325.1,225,325,225,324.9
		L225,324.9z"/>
	<path d="M691.9,461c4.5-2.9,7.4-6.8,8.1-12.2C695.2,451.5,692.2,455.3,691.9,461z"/>
	<path d="M373.5,220.7c2.1,0.6,1.8-2.3,2.2-3.9c5-8.3,4-15.8-3.7-22.4c4.9,7.2,3.9,14.8,2.3,22.5c-2.9-0.1-1.6-4.1-4.1-4.5
		c-0.1-1.9-0.2-4.9-2.7-3.7c-4.3,2.1,0.4,3.9,1,5.9C369.1,217.6,371,220,373.5,220.7z"/>
	<path d="M639,58.1c1.5-2.8-0.7-5.1-1.3-7.6c1.8-4.1,2.1-8.2,1.3-14.8c-1.6,4-2.4,5.9-3.2,7.9c-0.2,5-2.2,10.2,2.1,14.5l0.6,0
		L639,58.1z"/>
	<path d="M305.2,201.8c0.5-4.6-1.4-7.3-6.8-10.1C300.3,196.6,300.7,200.1,305.2,201.8z"/>
	<path d="M404,70.6c1.8,4.3,2.6,8,5.6,10.8c1.3,2.2,3.2,2.4,5.1,1.1c0.6-0.4,0.6-1.6,0.9-2.5c-1.3-0.2-2.6-0.4-3.9-0.6
		C408.5,77.4,409.6,71.7,404,70.6z"/>
	<path d="M726.8,283.2c0,0,0.1,0.2,0.1,0.2c0.3,0,0.5-0.1,0.7-0.2C727.4,283.3,727.1,283.3,726.8,283.2z"/>
	<path d="M739.3,278.7c-5.2-0.4-7.9,3.5-11.6,4.6C731.9,283.7,736.3,284.6,739.3,278.7z"/>
	<path d="M403.7,182.8c-0.9,2.5,1.8,3.8,3.8,4.9c1.6,3.1,4.6,1.8,7,2.1c0.9,0.1,2.4-0.5,1.7-1.5c-0.5-0.8-2.3-0.7-3.5-0.9
		c-0.5-1.3-1-2.6-1.5-3.9c-1.9-2.4-0.1-7.4-5.3-7.5c-1.3,2.9,3.2,4.4,1.5,7.3C406,183.9,404.7,180,403.7,182.8z"/>
	<path d="M344.8,190.8c0.3-0.2,0.3-1.7,0-1.8c-3-1.7-6.2,1.5-9.2-0.4C338.5,191.3,341.4,192.9,344.8,190.8z"/>
	<path d="M386.3,159.6c-2.9-1.4,0.4-7.2-4.6-6.6c-0.2,0,0.1,3.4-2.5,3.5C380.3,159.7,383.1,159.7,386.3,159.6z"/>
	<path d="M261.3,245.6c0-0.4,0-0.8,0-1.2c-3.8-0.8-7.2-4.9-11.9-1.1C253.6,244.3,256.8,248.1,261.3,245.6z"/>
	<path d="M249.6,311.9c2.4,3.9,5.1,4.8,8.8,1.6C255.7,310.1,252.7,311,249.6,311.9z"/>
	<path d="M545.6,730.8c4-1.2,5.5-5,8-7.8C547.1,721.7,546.7,726.6,545.6,730.8z"/>
	<path d="M783.7,311.3c4.1-1.9,5.8-4.2,6.7-9.7C786.6,304.7,783.8,306.4,783.7,311.3z"/>
	<path d="M758.5,202.1c4.4-0.3,7.9-2.4,12.1-5.6c-6.1-1-10.2,0.6-14.2,3.3c-2.9,0.6-5.5,1.7-7.5,4.2
		C752.8,205.5,755.7,204,758.5,202.1z"/>
	<path d="M374.1,172.8c-0.5-2.6-1.5-5.1-4.3-5.6c-2-0.4-1.6,1.8-1.5,2.9C368.5,174.5,371.7,172.9,374.1,172.8z"/>
	<path d="M636.1,583.4c6.4,2.2,8.8-0.4,12.5-3.2C643.2,578.7,641.2,582.4,636.1,583.4z"/>
	<path d="M229.1,295.8c3.5,0,6.9,0,12.6,0C235.4,290.7,232.5,295.2,229.1,295.8z"/>
	<path d="M405.2,154.2c0,0.1-0.1,0.2-0.1,0.3l0,0c0.1,0,0.2,0,0.4,0.1c0-0.1-0.1-0.2-0.1-0.3C405.3,154.3,405.2,154.2,405.2,154.2z"
		/>
	<path d="M401.1,143.8c1.1,4.8,1.2,8.2,4.1,10.4C406.3,150.5,406.4,147.1,401.1,143.8z"/>
	<path d="M219.8,295.9c1.4,0.3,2.8,0,3.2-1.5c0.4-1.9-1.3-2.2-2.6-2.2c-1.1-0.1-2.3,0.4-3.4,0.6
		C217.2,295.1,218.5,295.6,219.8,295.9z"/>
	<path d="M602,615.8C602,615.8,602,615.8,602,615.8L602,615.8C601.9,615.8,602,615.8,602,615.8C602,615.8,602,615.9,602,615.8
		C602,615.8,602,615.8,602,615.8z"/>
	<path d="M607.8,613.4c0.1-1-1.5-3.2-2.1-3.1c-3,0.4-4.3,2.4-3.7,5.5C604.3,615.8,607.4,617.5,607.8,613.4z"/>
	<path d="M246.7,286.8c-0.9,6.8,2.4,6.3,6.4,4.6C251.6,289,249.8,286.9,246.7,286.8z"/>
	<path d="M409.7,56.3c1,6.6,2.1,13.2,3.4,21.3c1.9-16.3,1.3-19.5-3.6-24.4c-4.2,0.6-2.3-6.4-8-5.5C403.6,51.7,403.9,56.2,409.7,56.3
		z"/>
	<path d="M230.9,334.4c4-6.8-2.6-7-6-9.2c-1.4,4.9,5.2,5,5.9,8.6l-0.1,0.8c0,0,0.1,0,0.1,0c0,0,0,0,0,0
		C230.9,334.5,230.9,334.5,230.9,334.4z"/>
	<path d="M310.2,252.4c1.8-0.1,3.7-1.1,3.3-2.9c-0.2-1.1-2.5-1.7-3.4-2.3c-2.9-0.7-2.2,1.1-2.5,2.1
		C307.1,251.6,308.1,252.6,310.2,252.4z"/>
	<path d="M269.9,246.3c2.8,2.9,6.3,3.9,10.2,3.9C278,245.6,274,246,269.9,246.3z"/>
	<path d="M745.4,239.2c-2,2.3-3.7,4.1-6.1,6.8C746.8,247.2,747.7,244.7,745.4,239.2z"/>
	<path d="M691.5,467.5C691.5,467.5,691.5,467.5,691.5,467.5l-0.4,0.3c0.2-1.4,0.4-2.8,0.5-4.1c-0.6-0.1-1.2-0.3-1.8-0.4
		c-0.1-2.3-0.3-4.7-0.5-8.5c-2.1,4.4-7.1,6.8-1.9,10.9c-0.8,2.7-1.5,5.3-2.3,8c-2.3,2.9-7.6,3-7.4,8.2c6.3,1,7.1-4.5,9.5-8.1
		c1.3-2,2.6-4,3.9-6c0.1,0,0.2-0.1,0.3-0.1C691.6,467.6,691.5,467.6,691.5,467.5C691.5,467.5,691.5,467.5,691.5,467.5z"/>
	<path d="M475.5,235.9c-4.3-0.1-1.5,2.5-1.1,3.8c0.4,1.5-1.2,4.3,2.2,4.1c0.3-1.5,0.5-3.2,1.1-4.6C478.5,237,477.4,236,475.5,235.9z
		"/>
	<path d="M476.6,243.8c0,0.1,0,0.2,0,0.2l0,0c0,0,0.1,0.1,0.1,0.1c0-0.1,0.1-0.2,0.1-0.4C476.7,243.8,476.6,243.8,476.6,243.8z"/>
	<path d="M441.6,236.2c-1,2-2.6,3-4.6,3.5c-0.7,0.2-1.4,0.3-2.1,0.3c1.4,2.8,3.1,4.6,6.2,1.9c0.7-2.1,1.4-4.2,2.1-6.2
		c7.6-3.9,8.5-7.8,0.1-11.6c3.7,4.4-0.1,7.8-1.5,11.5C441.8,235.8,441.7,236,441.6,236.2z"/>
	<path d="M547.9,226.3c-1,4.7-1.6,7.8-2.4,11.4C551.4,235.2,551.9,231.8,547.9,226.3z"/>
	<path d="M259,289.6c4.4-0.3,0.6-3.5,0.7-5.3c0-1.4-0.8-2.5-2.4-2.7c-0.6-3.3-0.6-7-6.7-8.3c2.7,4.5,4.5,7.6,6.4,10.8
		C257.9,285.9,255.6,289.8,259,289.6z"/>
	<path d="M246.8,303.2c-3-3.4-5.5-3.4-10-1.4C240.9,304,243.3,304.3,246.8,303.2z"/>
	<path d="M253.2,291.6l0.2-0.3c-0.1,0.1-0.2,0.1-0.4,0.2C253.2,291.5,253.2,291.5,253.2,291.6c0.1,0,0.2,0.1,0.3,0.1
		c0-0.1,0-0.2-0.1-0.4C253.5,291.3,253.3,291.5,253.2,291.6z"/>
	<path d="M658.9,177.4c1.4-2.5,2.8-5,4.6-8.3c-4.4,0.8-5.3,2.9-5.2,5.7c-3.7,3.7-1.8,7.8-1.6,12.9c2.7-3.7,1.3-7,2-9.9
		C658.7,177.7,658.8,177.6,658.9,177.4z"/>
	<path d="M633,173.4c-3.1,1.3-4.9,3.1-5.3,6.7C631,178.9,633.5,177.8,633,173.4z"/>
	<path d="M410.5,136.6c0,0-0.2,0.2-0.2,0.2c0,0.1,0.1,0.1,0.1,0.2C410.4,136.8,410.5,136.7,410.5,136.6z"/>
	<path d="M410.8,149.2c1.1-4.1,2.3-8.2-0.4-12.2C409.2,141.1,409.8,145.1,410.8,149.2z"/>
	<path d="M305.6,212.6c2,3.6,0.1,8.8,7,12.6c-3.4-4.9-2.8-8.8-3.2-12.5c0-2.3,1.9-6.1-2.4-5.8C303.8,207.1,305.5,210.5,305.6,212.6z
		"/>
	<path d="M604.6,194.1c-1.4-3.9,1.1-7-1.7-10.1C604,187.1,596.9,190.1,604.6,194.1z"/>
	<path d="M596.5,51.8c-1.5,4.7,0.5,7.1,2.9,9.9C601.1,57.3,597.8,55.4,596.5,51.8z"/>
	<path d="M332.4,477.1c-3.3-0.6-5.5-2.2-6.4-5.4c-3.3-3.7-7.6-5.4-12.2-6.8c1.8,4.6,5.6,6.2,10,7.1
		C323.9,478,327.6,478.4,332.4,477.1z"/>
	<path d="M449,194.8c0.4,3.6,0.7,7.1,1.1,10.7C449.9,201.9,455.8,197,449,194.8z"/>
	<path d="M253.1,331.8C253.1,331.8,253.1,331.8,253.1,331.8c-2.1-2-4.8-3.3-4.1-7.3c0.6-3.5-1.6-3.8-4.1-2.6c5,5.9-2,3.6-3.8,5
		c2.7,2.8,5.6,4.9,9.6,5c0,1.3,0,2.5,0.1,3.8c2.7,0,5.4,0,10.1,0C257,333.7,255.1,332.7,253.1,331.8z"/>
	<path d="M250.5,335.6c0,0,0.3,0.3,0.2,0.3c0-0.1,0-0.2,0-0.3C250.7,335.6,250.6,335.6,250.5,335.6z"/>
	<path d="M314.4,438.3c-0.9-3.7-5.8-0.8-6.9-4.2c-1.5,0.2-3,2-2.3,2.6C307.8,438.6,311,439.8,314.4,438.3z"/>
	<path d="M632.9,101.9c3-0.9,5-2.1,4.3-6.4C634.9,97.5,632.2,98.2,632.9,101.9z"/>
	<path d="M405.7,96.2c-0.6-3.9-1.5-5.9-3.8-6.9c-0.3-4.3-0.6-8.6-0.9-12.9c0.3,4.4-5,8.4-1.3,13C400.2,92.6,402.7,93.8,405.7,96.2z"
		/>
	<path d="M319.7,482.7c-0.5,0.2-1,2.2-0.7,2.4c1,0.8,2.2,1.4,3.4,1.5c0.7,0.1,2.1-0.3,1.2-1.9C322.5,483.7,321.6,482,319.7,482.7z"
		/>
	<path d="M755.2,233.7c1.3-0.1,3.8-0.1,3.9-0.5c0.6-3-2-2.1-3.2-1.9c-1.3,0.2-2.6,0.8-3.9,1.4c-0.6,0.1-1.2,0.4-1.8,0.8
		c-1.8,0.6-2.9,1.8-3.1,3.6C750.3,237.3,753.3,236.9,755.2,233.7z"/>
	<path d="M267.9,299.9c5.5,0.1,11.2-2.4,16.5,0.7c1.4,3.4,2.8,6.8,4.1,10.2c0.7,1.8,1.9,4.3,3.7,3.6c2.3-0.9,3.5-4.5,1.8-6
		c-3.9-3.6-2.2-8-3.1-12c3.3-1.4,5.5-3.1,1.9-6.5c0-5.3,0-10.6,0-15.9c-3.7,0.7-0.3,4.9-4.1,5.3c0-4.9,0-9.7,0-14.4
		c-3.6-5.4-3.6-5.4-6.1-2.2c2.1,9.1,4.2,18.1,6.3,27.2c-0.5,0.5-0.8,1.1-0.8,1.8c-3.1,1.4,0.3,6.1-3.6,7c-5.5-5.2-11.1-3.3-16.7-0.2
		c-1.6-2.5-3.6-0.9-5.4-0.5c-2.5-2.8-5-5.5-8.8-6.4c0.5,3.4,3.2,5.1,5.8,6.7C261.7,301.7,264.8,300.5,267.9,299.9z"/>
	<path d="M704.8,199.1c-3.6,1.1-6.9,2.3-3.7,6.9C702.4,203.5,703.6,201.3,704.8,199.1z"/>
	<path d="M763.8,275.7c-3-0.3-5.1-1.2-8.2,0.8C758.5,278,760.8,278.3,763.8,275.7z"/>
	<path d="M753.8,270.9c-4,1.1-5.9,2.5-5.4,7C751.2,276.1,753,274.4,753.8,270.9z"/>
	<path d="M726.4,427.3c0.4-0.9,0.8-1.8,1.3-2.7c-2.1-0.7-4.1-1.4-7.6-2.6C721.6,427,724.8,425.7,726.4,427.3z"/>
	<path d="M761.8,260.8c-1.5,2.4-4.8,2.7-3.9,6.6C759.4,265.6,764.1,266.4,761.8,260.8z"/>
	<path d="M765.8,260.5c3.1,0.8,4.4-1.7,6.5-3.5C768.4,255.8,766.2,256.6,765.8,260.5z"/>
	<path d="M383.3,185.9c-1.3,1-2.3,1.8-3.4,2.6c1.2,0.9,2.4,2.5,3.7,2.7c1.9,0.3,1.4-1.8,1.4-3C385,187.1,385.1,185.4,383.3,185.9z"
		/>
	<path d="M560.1,703.4c-3.2,2.1-2,6-3.6,8.7c-0.6,2.8-0.4,5.8-2.6,8.1c3.4,0.7,5.2-0.9,5.9-4.1c0.6-3.6,1.3-7.1,1.9-10.7
		c-0.2-3,3.7-4.8,2.4-8.1C561.3,698.4,560,700.4,560.1,703.4z"/>
	<path d="M345.1,501c-0.8-3.4-3.2-5.2-6.3-6.2c-0.7-1.4-1.4-2.8-2.1-4.2c-2.6,0.3-5.3-1.5-9.5,1.9c5.7-0.6,8.5,2.1,11.6,4.3
		C339.9,499.7,341.6,501.6,345.1,501z"/>
	<path d="M357.8,195.8c2.3,0.4,2.8,3.8,6.7,3.2c-2.4-2.6-1.9-7.5-7.3-5.2c0,0-0.1,0-0.1,0c-2.1,0.7-4.2-3-6.6-0.4
		C352.5,196.5,355.3,195.9,357.8,195.8z"/>
	<path d="M713.4,212.1c-0.3-2.3-1.1-3.7-3.2-3.5c-0.6,0.1-1.5,1.3-1.6,2c-0.1,2.1,1.8,2.7,3.3,3.1
		C712.3,213.9,713,212.5,713.4,212.1z"/>
	<ellipse transform="matrix(0.1961 -0.9806 0.9806 0.1961 236.8388 1019.1402)" cx="740" cy="365.1" rx="0" ry="0"/>
	<path d="M704.9,181.8c2-2.9-1.1-4.2-1.9-6.5c-0.7,2.8-1.5,5.2,0.4,7.5C703.4,182.8,704.5,182.2,704.9,181.8z"/>
	<path d="M238.5,315.6c-0.1,4.8,4.7,3.4,6.1,5.8C245.1,317,242.6,315.8,238.5,315.6z"/>
	<path d="M244.5,322c0,0,0.2-0.3,0.2-0.3c0-0.1-0.1-0.2-0.2-0.3C244.6,321.6,244.5,321.8,244.5,322z"/>
	<path d="M713.4,221.8c1.6-0.1,3.2-0.6,3.6-2.4c0.2-0.8,0.3-2.9-2-1.7c-1.4,0.7-3.6,0.7-4.1,1.8
		C710.2,220.6,712.1,221.3,713.4,221.8z"/>
	<path d="M336.9,202.1c-0.4,4,1.3,5.4,3.5,6.6C341.9,205.5,340,203.9,336.9,202.1z"/>
	<path d="M692.6,154.8c-1.7,3.2-0.6,5.7,0.2,8.6C693.7,160.6,695.2,158,692.6,154.8z"/>
	<path d="M754.9,317.2c0,0.1,0,0.2-0.1,0.3c0.1,0,0.3,0,0.4,0l0,0c-0.1-0.1-0.1-0.2-0.2-0.3C755,317.1,755,317.2,754.9,317.2
		C754.9,317.2,754.9,317.2,754.9,317.2z"/>
	<path d="M697.7,229.3L697.7,229.3c2,4.2,5.5,1.6,8.4,1.8c0,0,0,0,0,0c3,1.7,5.9,4.5,9.1,0.4c-2.7-2.5-5.8-2.2-9.1-1.7
		C703.4,228.8,700.6,228.1,697.7,229.3z"/>
	<path d="M495.7,289.2C495.6,289.2,495.7,289.2,495.7,289.2L495.7,289.2z"/>
	<polygon points="391.1,507 391.1,507 391.1,507 	"/>
	<ellipse transform="matrix(4.756515e-02 -0.9989 0.9989 4.756515e-02 -248.6146 1058.4084)" cx="430.7" cy="659.6" rx="0" ry="0"/>
	<polygon points="463.9,263 463.9,263 463.9,263 	"/>
	<path d="M526.5,333.4c-0.3-4.1,4-7.6,0.6-14c-0.3,5.8-6.1,9.1-1.1,13.6c0.1,0.3,0.3,0.6,0.6,0.9c0,0,0,0,0,0c0,0,0,0,0,0
		c0,0,0,0,0,0c0.1,0,0.1,0,0.2,0c0-0.1,0-0.1,0-0.2C526.7,333.6,526.6,333.5,526.5,333.4z"/>
	<path d="M574.9,419.5C575,419.5,575,419.5,574.9,419.5C575,419.5,574.9,419.5,574.9,419.5C574.9,419.5,574.9,419.5,574.9,419.5
		C574.9,419.5,574.9,419.5,574.9,419.5C574.9,419.5,574.9,419.5,574.9,419.5z"/>
	<path d="M538.4,612.1c0-0.1,0-0.2-0.1-0.3C538.4,611.9,538.4,611.9,538.4,612.1C538.4,612,538.4,612.1,538.4,612.1z"/>
	<path d="M538.4,611.7c-0.2,0-0.5,0-0.7,0L538.4,611.7L538.4,611.7C538.4,611.7,538.4,611.8,538.4,611.7
		C538.4,611.8,538.4,611.7,538.4,611.7l0.6,0C538.8,611.7,538.6,611.7,538.4,611.7C538.4,611.7,538.4,611.7,538.4,611.7z"/>
	<path d="M503.9,734.8C503.9,734.8,503.9,734.9,503.9,734.8C503.8,734.9,503.8,734.9,503.9,734.8
		C503.9,734.9,503.9,734.9,503.9,734.8C503.9,734.9,503.9,734.8,503.9,734.8C503.9,734.8,503.9,734.8,503.9,734.8
		C503.9,734.8,503.9,734.8,503.9,734.8z"/>
	<path d="M670.5,436.7c0.3,1.7,0.4,3.5,1.8,3.9c0.6,0.2,1.5,0.1,2.7-0.4c-0.2-4.3-0.1-8.5,3.3-11.6c0.2-0.2,0.5-0.4,0.8-0.7
		c-4.8-3.8,1.4-5,1.8-7.6c-1-0.1-1.8-0.4-2.4-0.8c-0.4-0.2-0.7-0.5-0.9-0.9c-0.5-0.8-0.6-1.9-0.2-3.4c-6.2,5.7-6.8,13.3-6.9,20.9
		C670.5,436.4,670.5,436.5,670.5,436.7z"/>
	<path d="M680,396.7c2.4-1.6,1.3-3.7-0.5-5c-2.7-2-3.6,0.7-4.1,2.3c-1.8,5.1-3.6,10.4-1.1,18.5C675.8,405.5,675,399.9,680,396.7z"/>
	<path d="M685.7,402.5c1.7,0.7,3-0.3,4.4-1.1c0.6-0.3,1.2-0.6,1.8-0.7c0.6-0.1,1.2,0,1.8,0.3c0,1.3,0,2.5,0.1,3.8c0,0.7,0,1.5,0,2.2
		c0,0,0,0,0,0c6.5-0.6,10.1-3.3,10.8-10.6c0.5-5.1,1.8-11.1,8.6-13c1.5-0.4,4.6-1.4,2.9-4.1c-1.6-2.6-4.1-2.4-6,0
		c-4.7,5.7-9.3,11.4-13.9,17.2c0,0,0,0,0,0c-0.6-1.9,0.5-4.9-1.9-5.4c-3.1-0.6-2.7,2.5-2.6,4.3C692.1,399.8,686.2,398.8,685.7,402.5
		z"/>
	<path d="M716.6,359.1c-4.5,3.7-8.1,6.6-12.6,10.3C711.9,369.5,715.6,366.7,716.6,359.1z"/>
	<path d="M727.5,368.4c-0.2-3-0.3-6-0.5-9.8C721.7,362.9,725.8,365.5,727.5,368.4z"/>
	<path d="M681.5,440.6c0.6,7.9-2.8,12.2-6.4,16.5c-0.2,0-0.3,0.2-0.5,0.6c-2,2.3-4.2,4.5-3.6,8c0.2,1.2,0.6,2,1.2,2.1
		c-0.9,0.9-1.1,2.1-0.9,3.5c0,0.3,0.1,0.6,0.2,0.8c0,0,0.1,0,0.1,0c2.9-0.3,5.3-1.6,7.6-3.6c-1.8-0.6-3.5-1.2-5.2-1.8
		c0,0,0-0.1,0-0.1c0,0,0,0,0,0s0,0,0,0c0,0,0,0,0,0c0,0,0,0,0,0c0,0,0,0,0,0c-2.5-2.9,3.1-4.6,1.2-7.4
		C678.3,454,691.1,453.1,681.5,440.6z"/>
	<path d="M706,256.6c-0.6,0.4-1.2,0.7-1.8,1.1c-2.8,1.4-6,2.3-6.4,5.7c-0.1,0.8,0,1.7,0.2,2.7c0,0,0,0,0,0c2.8-2.4,5.6-4.9,8.5-7.3
		c2.1-3.3,4.3-6.7,6.4-10c0.6-0.9,1.1-1.8,1.7-2.6c-4.6,1-8.7,2.9-12.1,6.1c1.1-0.1,2,0,2.7,0.3c0.6,0.3,1,0.8,1.2,1.6
		c0.1,0.6,0.1,1.3,0,2.2C706.3,256.4,706.1,256.4,706,256.6z"/>
	<path d="M481,315.1c-0.2,0.4-0.4,0.8-0.7,1.2c-1.2,1.7-3.1,3-3.7,5c-0.2,0.6-0.2,1.3,0,2.1c4.5,1.9,4.9-4,8.6-4.4
		c3.6-0.4,0.7-4.1,0.4-4.7C484,311,482.7,315.2,481,315.1z"/>
	<path d="M431.4,392.5c-1.3,1.2-0.8,4.3-2.1,5.6c-0.2,0.2-0.4,0.3-0.6,0.4c0.3,0.1,0.6,0.2,0.9,0.3c0,0,0.1,0,0.1,0.1
		c0.3,0.1,0.7,0.2,1,0.4c1.4-2.3,2.8-4.6,4.1-6.8C433,391.7,432,391.9,431.4,392.5z"/>
	<path d="M438.3,415.3c0.3,1.3,0.6,2.6,0.9,3.9c2.7-0.4,4.5-2.8,3.7-4.6C441.8,412.1,439.8,414.5,438.3,415.3z"/>
	<path d="M328.7,380.5c1.6,2.9,3.1,5.8,5.2,9.7C335.8,383.7,331.9,382.4,328.7,380.5z"/>
	<path d="M342.8,385.5c-0.7,0.3-1.5,2-1.4,2c1.5,1.3,3.1,2.5,4.7,3.7c0.4-0.9,0.8-1.8,1.6-3.6C345.4,387.9,345.9,384,342.8,385.5z"
		/>
	<path d="M403.5,524C403.5,524,403.4,524,403.5,524c-0.1-0.1-0.2-0.2-0.3-0.2c-0.1-1-0.5-1.8-0.9-2.4c-1-1.3-2.8-1.7-4.8-1.7
		c-3.2-3.4-6.7-2.5-10.7-1.2c2.7,3.1,6.2,1.4,8.7,2.9c2.3,0.7,4.5,1.4,6.8,2.2c0.2,0.1,0.5,0.2,0.7,0.2c0.1,0.2,0.2,0.3,0.3,0.5
		c0.1,0,0.2-0.1,0.3-0.1C403.4,524.1,403.5,524.1,403.5,524C403.5,524,403.5,524,403.5,524z"/>
	<path d="M391.4,404.9c1.2-2.1,2.4-4.2,4.2-7.4C390.6,399.5,390.9,402.2,391.4,404.9z"/>
	<path d="M688.9,315.8c0.4-1-1.7-4.5-2.8-4.6c-3.2-0.2-3,3.3-5.1,6.8C684.5,316.1,687.5,319,688.9,315.8z"/>
	<path d="M675.6,306.3c1,0.7,2,1.6,3.2,2c0.7,0.3,2,0,2.1,0.3c-1.6-3.5-2.9-4.3-4.8-3.6C675.6,305.2,673.8,305.1,675.6,306.3z"/>
	<path d="M522.3,303.5c-3,3.1-5,6.5-3.3,10.7c0,0.1,1.7-0.3,2.5-0.7C527.3,310.7,519.5,306.9,522.3,303.5z"/>
	<path d="M525.2,307.1c5.6-4.9,3.3-9.7,2-14.1C526.6,297.3,526,301.5,525.2,307.1z"/>
	<path d="M599.6,258.1c0,0,0.2,0.3,0.2,0.3c0.1-0.1,0.2-0.1,0.3-0.2c5.3,0.7,6.2-3.1,6.3-7.6c-2.1,2.4-4.2,4.9-6.3,7.3
		C600,258,599.8,258.1,599.6,258.1C599.7,258.1,599.7,258.1,599.6,258.1C599.6,258.2,599.6,258.2,599.6,258.1z"/>
	<path d="M585.2,421.9c-2.8-0.1-5.5-0.2-8.3-0.4c0.2,0.5,0.4,0.9,0.6,1.4c1.6,3,4.3,4.2,7.8,3.1c2.2-0.7,0.4-2.1,0-3.4
		C585.2,422.3,585.1,422.1,585.2,421.9C585.2,421.9,585.2,421.9,585.2,421.9z"/>
	<path d="M565.8,436.4c3.3-2.1,3.4-4.7,1.2-8C568.5,431.4,562.1,432.3,565.8,436.4z"/>
	<ellipse transform="matrix(9.950372e-02 -0.995 0.995 9.950372e-02 -13.0269 954.2033)" cx="520.7" cy="484.3" rx="0" ry="0"/>
	<path d="M551.5,73.7c-5.7-4.6-9.2,1-13.1,0.4c-7.6-1-16.7-2-22.5-0.3c-11.1,3.1-21-6.3-31.4-0.5c-0.3,0.2-3-4.8-3.7,0.8
		c-0.5,3.7-1,10.3,1.1,10c6.9-1.1,14,0,20.6-1.5c9.9-2.2,20-1.1,29.6-0.4c3.2,0.2,10.1-3.9,12.6,3c1.8-5.5,13.3,4.4,11.4-7.2
		C556.1,73.9,554.4,76,551.5,73.7z"/>
</g>
</svg>
