<?xml version="1.0" encoding="utf-8"?>
<!-- Generator: Adobe Illustrator 21.0.0, SVG Export Plug-In . SVG Version: 6.00 Build 0)  -->
<svg version="1.1" id="Layer_3" xmlns="http://www.w3.org/2000/svg" xmlns:xlink="http://www.w3.org/1999/xlink" x="0px" y="0px"
	 viewBox="0 0 1000 1000" style="enable-background:new 0 0 1000 1000;" xml:space="preserve">
<path d="M63,753.9c0.8,0,1.7-0.3,2.3,0c5.2,3.2,6.5,0.1,7-4.2c0-0.3,0.3-0.6,0.3-0.9c1.7-13.5,9.8-22.3,20.9-29.2
	c6.9-4.3,9.9-11.6,13.1-18.6c3.6-8,7.6-15.8,10.6-24.1c1.1-3.1-0.1-7.1-0.2-10.3c4.1,1.8,5.6,8.6,2.4,14.4c-1.7,3.1-3.6,6.2-4.6,9.5
	c-0.8,2.5-0.5,5.4-0.3,8.1c0,0.5,2.6,1.6,3.1,1.2c5.9-4.2,11.7-8.4,17.2-13c1.4-1.2,1.9-4.3,1.7-6.3c-0.6-4.9,0.6-9,3.4-13
	c1.6-2.3,1.8-5.4,2.8-8.1c1-2.5,2.4-4.9,3.6-7.3c0.5,0.1,0.9,0.2,1.4,0.3c-0.1,1.9,0.2,3.9-0.4,5.7c-1.5,5-3.5,9.8-4.7,14.9
	c-0.5,1.9,0.6,5.9,1.3,6c2.6,0.3,5.8,0,8.1-1.2c2.3-1.3,3.6-4.2,5.7-5.9c2.4-1.9,5.3-3.2,8-4.7c0.6-0.4,1.7-0.5,1.9-1
	c2.4-4.7,5.4-9.3,6.9-14.3c1.1-3.6,1.1-6.9,6.2-5.2c0.3-1.2,0.7-2.1,0.7-3c-0.2-11.4,0.9-22.7-6.4-33.1c-5.6-7.9-10.8-16-19-21.5
	c-1.9-1.3-4.6-1.8-6.9-1.9c-1.1-0.1-2.7,1.5-3.3,2.6c-0.3,0.6,1.2,2.2,2.1,3.1c1.9,1.7,4.5,2.8,6,4.8c3,3.8,1.8,6.3-2.9,7.3
	c-1.2,0.3-2.4,0.8-3.6,1.2c-0.3-0.4-0.5-0.8-0.8-1.1c0.7-0.7,1.4-1.5,2.2-2.1c3.2-2.3,3.2-3.8-0.2-5.5c-6.1-3-9.9-9.6-8.7-16
	c0.4-2.2,1.9-4.7,3.7-6.1c3.6-2.8,3-4.8-0.3-7.1c-5.5-3.9-6.1-9.7-5.7-15.7c0-0.8,0.8-1.5,1.6-2.9c0.4,3.4-0.1,6.4,1.1,8.6
	c1.9,3.7,4.8,6.9,7.5,10c0.4,0.5,2.8,0,3.5-0.7c0.7-0.7,1-2.5,0.8-3.6c-0.4-1.7-1.3-3.3-2.4-5.5c2.8,1.1,4.8,1.9,7.3,2.9
	c-2.1,7.7-8.4,12.8-13.5,20.2c2.7-0.3,4.2,0,5.2-0.6c5.7-3.1,9.8-0.3,14.1,3c2.9,2.2,6.2,4,9.2,6c2.3,1.5,6.9,1,5.4,6.1
	c-0.1,0.3,2.1,1.4,3.4,1.9c1.4,0.6,3,0.9,5.5,1.7c-2.3,1.6-3.6,2.5-5.5,3.8c3.9,5.1,7.8,10.1,11.7,15.2c1.2,1.6,2.6,3.1,3.7,4.7
	c1.9,2.9,4.1,3.5,7.5,2.2c5.7-2.1,11.2-1.9,15.8,3.1c0.5,0.6,2.3,0.3,3.4-0.1c3-0.9,5.9-2.7,8.9-2.7c3.6-0.1,5.9-1.3,7.4-4.3
	c5.3-10,10.5-20.3,11.9-31.7c0.8-6.2-0.7-12.7-1.2-19.1c-0.1-1.5-0.3-3-0.6-4.5c-0.3-1.5-1-2.9-1.4-4.4c-1.2,0.7-2.4,1.4-3.6,2.1
	c-0.4,0.2-0.8,0.4-1.4,0.8c-2.3-2.8-2.3-5.9-1.2-9.1c1.4-4.1,0.6-7.9-3.1-10.2c-1.8-1.1-4.7-1.1-6.8-0.4c-1.4,0.5-2.5,2.8-3.1,4.5
	c-0.3,0.9,0.3,2.9,1.1,3.2c5.2,2.2,6.4,7.5,9.2,11.6c1.7,2.5,3.7,4.8,5.5,7.2c0.7,1,1.5,2,1.7,3.1c1.2,5.7,3,11.3-0.1,17.1
	c-0.9,1.7-0.2,4.2-0.6,6.3c-0.5,2.6-1.4,5.2-2.1,7.8c-0.5,0-1-0.1-1.5-0.1c-0.9-1.1-1.8-2.2-3.1-3.9c-1.2,4.2-3.7,7.5-1.1,11.9
	c1.7,2.8-0.6,6.6-4.9,8.5c-3,1.4-6,2-8.5-1.4c-0.9-1.2-2.4-2.3-3.8-2.6c-7-1.8-10.8-8.5-8.5-16.9c1.3,1.6,2.5,2.7,3,4.1
	c2,5,6.2,7.1,10.8,8.4c0.9,0.2,2.9-1.1,3.4-2.2c1.9-4.7,3.5-9.4,9-11.3c1-0.4,1.7-2.5,2.1-3.9c3.1-9.9-0.4-18.9-4.9-27.3
	c-1.2-2.1-4.8-2.9-7.9-4.6c-1.5,11.2-3,22.4-4.4,33.6c-0.7,0-1.4-0.1-2.1-0.1c-0.2-8.3-0.5-16.6-0.7-25c-0.1-2.8,0-5.6,0.1-8.4
	c0.1-2.3,0.1-4.6,0.6-6.8c0.8-3.9,1.7-7.6-0.7-12.3c-3.5,6.5-2.5,13.8-6.9,19.5c-5.4-6.5,0.3-13-1.4-20.1c-4.8,4.5-9.1,8.1-8.9,14.5
	c0.3,8.6,0.9,17.1,1.1,25.7c0.1,3-1,6-0.9,9c0.1,3.9,0.7,7.8,1.3,11.7c0.2,1.5,1.3,3,1.1,4.4c-0.2,1.7-1.4,3.2-2.1,4.8
	c-1.3-1.5-3.9-3.5-3.6-4.5c2-5.7,0.5-10.9-1.1-16.2c-0.2-0.7-0.2-1.6,0-2.3c3.9-9.3-1.4-16.8-4.5-24.9c-1.8-4.8-2.5-10.1-3-15.3
	c-0.5-5-1.3-10,2.3-15c1.6-2.2,0.7-7-0.2-10.3c-2.4-8.2-7.8-14.3-15.6-17.7c-1.9-0.8-5.2-0.3-6.9,0.9c-4,3-6.4,2.2-8.9-1.8
	c-1.1-1.8-3.3-3-5-4.5c0.1-0.5,0.3-1,0.4-1.5c1.6,0.4,3.5,0.5,4.8,1.4c1.8,1.2,3.3,4.4,4.6,4.3c3.4-0.4,6.5-2.3,9.8-3.6
	c0.4-0.2,0.8-0.5,1.2-0.8c3,2.4,6,4.8,9.7,7.8c0.6-7.1,2.7-12.9,9.5-17.3c-4.4,8.4-8.1,16.1-3.6,25c1.5-1.2,2.8-2.3,4.4-3.6
	c0.7,8.2,5,10.1,12.1,6c4.9-2.8,9.4-6.5,15.5-6c0.6,0,1.7-0.8,1.7-1.2c0-0.8-0.6-1.6-1.1-2.3c-4.9-6.8-9.8-13.7-14.6-20.5
	c-0.6-0.8-0.4-2.1-0.6-3.2c0.4-0.2,0.8-0.4,1.1-0.6c2.7,3.4,5.4,6.8,8.1,10.2c0.3-0.2,0.7-0.5,1-0.7c-1.6-3.7-3.3-7.3-4.6-11.1
	c-0.5-1.5,0.1-3.3,0.3-5c0.2-1.9,0.6-3.9,1-5.8c0.4-2.2,0.9-4.3,1.4-6.5c0.3-1.2,0.6-2.3,0.8-3.5c0.6-5.9,0.3-12,2-17.6
	c1.1-3.5,4.2-6.4,2.8-10.7c-0.2-0.6,0.6-1.8,1.3-2.3c4-3,3.1-6.6,0.9-9.8c-3.8-5.2-7.8-10.4-12.4-14.7c-2-1.9-5.9-1.8-9-2.5
	c-3.4-0.8-8.5-5.7-8.3-9.1c0.3-5.3-2-7.7-7-8.1c-0.4,0-0.7-0.5-0.9-1.1c3.4,0.2,7.7-2.2,8.8,4.1c0.5,2.7,2.4,5.4,4.2,7.6
	c1.3,1.6,3.6,2.4,5.5,3.6c-0.1-0.6-0.2-1.2-0.3-1.9c2.2-2.5,4-5.6,6.7-7.5c2.6-1.9,3-3.8,3-6.6c0-6.6,1-13.2,0.4-19.6
	c-0.7-7.9-2.7-15.6-4.2-23.4c-0.1-0.5-1-0.9-2.2-1.8c-0.9,5.4-1.7,10.2-2.5,15c-0.6,0-1.2,0.1-1.8,0.1c-0.3-1.4-1-2.7-1-4.1
	c0.4-8,1.1-15.9,1.2-23.9c0-1.7-2-3.9-3.7-4.9c-2.9-1.7-4.3-2.7-1.4-5.8c2.4-2.6,1.8-5.6-0.3-8.4c-4.2-5.7-8.5-11.2-12.4-17
	c-1.2-1.7-1.4-4.1-2-6.1c-0.5,0-0.9,0-1.4,0c-0.5,3-1.5,6.1-1.4,9.1c0.2,7.3,1.4,14.3-0.3,21.9c-1.6,7.2-0.5,15.3,0.6,22.8
	c1.4,9.6-0.1,18.7-1.7,28c-0.1,0.3-0.2,0.6-0.2,0.9c1,10.5-2.7,20.5-3.8,30.8c-0.2,1.9-0.6,3.7-1,5.5c-0.5,0-1,0.1-1.4,0.1
	c-0.3-1-0.8-1.9-0.8-2.9c0.4-5.2,1.2-10.3,1.3-15.5c0.3-11.8,0.2-23.7,0.3-35.5c0-1.7-0.1-3.5,0.4-5c4.1-12.6,1.3-25-0.5-37.5
	c-0.4-2.8,0.2-5.7,0.7-8.6c0.7-4.2,1.6-8.3,2.4-12.5c0.7-3.3-0.8-5.1-3.8-6.4c-4.1-1.8-4.2-2.6-0.9-5.6c0.6-0.5,1.1-1.1,1.6-1.6
	c3.2-3,3.9-5.4,0.8-9.6c-3.1-4.1-4.6-9.6-6.2-14.7c-1.1-3.6-2.8-5.8-6.4-7c-7.7-2.7-8.3-5.4-4.1-12.4c0.9-1.6,1.3-4.2,0.7-5.8
	c-2-4.9-4.5-9.6-6.9-14.4c-0.4-0.8-0.9-1.5-1.3-2.2c-0.5,0-0.9,0-1.4,0c-0.4,3-1,6-1.1,9c0,4.3,0.6,8.6,0.6,12.9
	c0,7.2-0.2,14.4-0.4,21.6c-0.4,13.2-0.8,26.4-1.2,39.6c-0.3,10.4-0.7,20.9-1.1,31.3c0,0.9-0.7,1.8-2.2,2.7c-0.4-1.2-1.1-2.4-1-3.5
	c0.4-6.3,1.5-12.5,1.4-18.8c-0.1-6.9-1.2-13.7-1.9-20.5c-0.5-5-1.5-9.9-1.8-14.9c-0.3-6.3-0.6-6.7-6.7-5.6c-1,0.2-2.2-0.6-3.3-0.9
	c0.4-1,0.6-2.4,1.4-3c2.4-1.8,5-3.5,7.7-5c4.8-2.7,5.6-5.3,3.9-10.4c-3-9-3-18.2,0.3-27.2c2.6-7.2-0.3-14.9-7.3-18
	c-2.8-1.2-5.8-1.9-8.7-3.1c-2.6-1.1-5.1-2.5-7.9-3.8c1.6-2.6,4-1.6,6.5-1c3.6,0.9,7.4,2.3,11,1.9c5-0.6,6.5-5.9,2.5-9.4
	c-3.8-3.3-4.5-7.3-5-11.9c-0.3-2.6-1.6-6.1-3.6-7.4c-4.7-3-10-4.9-15.2-7.1c-2.7-1.1-5.6-1.8-8.4-2.7c0.1-0.7,0.3-1.4,0.4-2.1
	c4,0.4,8.1,0.6,12,1.2c3.2,0.5,5.2-0.4,5.3-3.8c0.1-3.6-0.9-6.8-4.3-9.1c-2.1-1.5-4.3-4.1-4.7-6.5c-0.9-5.2-4.1-8.8-7.8-11.5
	c-5.5-4-9-8.6-9.9-15.5c-1.1-8.3-2.8-16.6-4.1-24.9c-0.2-1,0.4-2,1-4.6c1.7,2.6,3,3.9,3.6,5.6c3.3,8.4,6.5,16.9,9.6,25.4
	c0.8,2.2,1.7,4.3,2.4,6.5c1.3,4.5,3.6,7.7,8.5,9.3c3.1,1,5.6,3.8,8.3,5.9c5.1,3.9,10.2,7.8,15.1,11.9c3.3,2.7,6.1,6.1,11.9,5.5
	c-2.5-8.6-4.9-16.9-7.3-25.2c0.5-0.2,1-0.3,1.5-0.5c3.4,7.6,6.6,15.4,10.4,22.9c2,4,4.7,7.9,7.7,11.2c3.8,4.1,4,4.2-1.3,6.4
	c1.5,4,4.8,6.8,8.3,6.8c9.9-0.1,15.2,8.5,23.5,11.5c2,0.7,3.2,4.7,4.1,7.4c2.8,8.2,4.2,9.1,12.7,7.4c3.7-0.7,12.1,3.5,13.8,7.4
	c1.6,3.8,4.4,5.6,8.2,6.7c2.5,0.7,4.8,2,7,3.4c3.1,1.9,5.4,1.5,5.5-2.1c0.2-12.8,1.4-25.9-10.1-35.6c-1.7-1.4-1.8-5-2.1-7.6
	c-0.3-2.2,0.2-4.5,0.5-8.3c0.5,2.3,1.1,3.4,0.9,4.3c-1.2,4.9,1.5,7.9,4.7,10.9c8.4,7.8,11.6,18.3,13.9,29c1.1,5.1,1.1,10.4,1.9,15.5
	c1.6,10.3,7.6,16.7,17.4,20c2.1,0.7,4,2.7,5.6,4.5c4.5,4.9,10.2,6.5,14.8,3.9c2.5-1.4,4-10.2,2.7-14.3c-1.6-5.1-3.2-10.3-4.4-15.6
	c-0.9-3.8-1.2-7.8,1.2-11.2c0.5,0,1,0,1.4-0.1c0.5,4.4,0.8,8.9,1.6,13.3c0.5,3.1,1.7,6.1,2.5,9.2c1.3,5.3,2.9,10.7,3.5,16.1
	c0.2,2.2-1.4,5-3.1,6.8c-2.7,2.9-2.6,5.6,0,8.1c2.8,2.8,5.9,5.2,9,7.6c0.6,0.5,1.7,0.3,2.5,0.4c0.1-1,0.7-2.3,0.3-2.9
	c-2.5-3.9-1.7-7.6-0.1-11.5c0.6-1.5,1.1-3.4,0.7-5c-1.8-8.7,1.1-16.8,3.5-24.9c0.9-3,0.9-4.9-1.7-7.3c-1.4-1.2-1.2-4.6-1.1-6.9
	c0.1-2.8,0.7-5.6,1.4-8.2c1.5-5.9,3.1-11.7,4.9-17.5c1.4-4.7,4.7-9.6,4.1-14c-0.7-5.1-3.9-10.6-7.6-14.2c-3.8-3.7-9.4-5.9-14.6-7.8
	c-2.3-0.8-5.7,0.4-8.3,1.4c-3.1,1.2-5.6,0.5-7.4-1.9c-2.1-2.8-4.5-3.7-7.3-1.6c-5.3,3.9-7.7-1.2-11.3-3.1c2.5-2,2.5-2,7.9,0.4
	c-0.1-6.1-8.7-8.1-7.3-15.3c3.2,3.5,6.3,6.3,8.6,9.6c2.4,3.5,4.7,4.8,8.5,0.7c3.6,9.2,9.7,5.8,16.1,4.1c-3.4-2.2-6.5-4-9.4-6.1
	c-9-6.5-10.6-10-6.6-21c1.4-3.8,0.9-7.2-2.6-9.9c-1.4-1.1-2.2-3-3.6-5c7.2,0.4,11.6,8.8,8.8,14.9c-3.2,7.2-2.7,9.5,3.2,14.7
	c2.2,2,4.4,4.1,7.3,6.8c0.3-2.6,0.6-4.1,0.6-5.5c0.1-4.3,0.3-7.8,6.2-8.6c3.5-0.5,3.4-4.7,2.4-7.8c-1.2-3.8-0.9-7.5,2-11
	c-0.2,1.3-0.5,2.7-0.5,4c-0.1,2.1-0.6,4.4,0,6.4c2.1,7.3,0.9,10-6.6,12.7c2.2,4.6-1.8,10.7,3.3,14.6c4.7,3.6,9.6,7.1,14.8,10.1
	c2.8,1.6,6.3,2.2,9.9,3.4c0.9-4.6,1.9-9.3,2.9-14.1c2.7,1.8,2.9,3.7,1.5,7.2c-0.7,1.7-0.3,3.8-0.4,5.8c1.9-0.6,4.2-0.6,5.6-1.8
	c3.8-3,7.3-6.4,11.5-9.1c-1.9,2.8-4,5.5-5.7,8.5c-1.7,3-2.9,6.2-4.6,9.7c-2.4-0.3-5.4-0.7-8.5-1.1c-0.1,0.5-0.3,1-0.4,1.5
	c4.2,4.4,7.5,9.8,14.9,9.9c1.5,0,3,1.7,4.6,2.7c-0.3,0.7-0.6,1.4-1,2c-6.2-2.3-12.4-4.5-19.4-7c1.5,7.9,7.4,13.1,11.2,19.5
	c-0.2,0.4-0.4,0.7-0.7,1.1c-1.8-1.3-3.8-2.5-5.4-4.1c-1.7-1.6-2.9-3.7-4.3-5.6c-0.7,0.6-1.2,0.8-1.2,0.9c2.9,8.7-4.8,15.6-4,23.8
	c0.2,2.5,1,5,1.6,7.4c0.4,1.8,2,4,1.4,5.2c-2.1,3.8,0.5,4.9,2.7,6.9c1.9,1.6,2.9,4.2,4.6,6c1.8,1.9,4,3.4,6.1,5c0.3,0.2,1,0,1.3,0.2
	c6.8,3.9,10-1.3,13.8-5.3c1.7-1.8,3.8-3.3,6.2-4.3c-6.1,7-11,15.7-22.8,14.7c0,0.6,0.1,1.2,0.1,1.8c5.4,3.6,10.4,8.5,16.3,10.6
	c5.7,2.1,12.4,1.3,18.6,1.8c0.1,0.5,0.3,0.9,0.4,1.4c-5.6,2-11.3,3.9-17,5.9c0.4,0.9,0.4,1.5,0.7,1.7c8.2,3.8,16.3,7.7,24.5,11.4
	c0.9,0.4,2.2,0.5,3.2,0.3c6-1.3,8.6,3.9,12.6,6.4c0.2,0.1,0.3,0.6,0.3,0.8c0,0.3-0.2,0.5-0.8,1.7c-5.6-9.6-13.8-4.8-21.8-3.9
	c2.5,2.5,4.9,5.2,7.5,7.5c5.1,4.4,7.5,9.7,9.2,16.4c2,7.9,0.2,14.7-1,22c-0.4,2.1,1.1,4.6,2,7.5c-5.4,5.6-4.6,13.9,2.9,18.1
	c-1.1-5.6-3.3-11.1,0.2-17.4c2.6,4.7,6.1,8.1,3.8,13.9c-2.2,5.5-2.9,11.3-0.1,17c0.3,0.5-0.1,1.4-0.4,3.1c-2.6-2.9-4.7-5.2-6.9-7.6
	c-3.9,6.8-3.8,9.5,0.5,14.6c-3.6,1.7-2.4,4.3-1.8,7.3c0.8,4,0.5,8.2,0.5,12.2c0,8.4-0.2,16.9-0.3,25.3c0,3.6-0.2,7.2,0.4,10.7
	c0.3,1.6,2.1,3.6,3.6,4.2c1,0.4,3.1-1.3,4.1-2.6c1.1-1.4,1.5-3.4,2.3-5.1c0.4,0.1,0.8,0.1,1.2,0.2c0,1.2,0.3,2.5-0.1,3.6
	c-1.1,3.7-3.2,7.3-3.4,11c-0.2,4.5,1,9.2,1.7,13.8c0.1,0.8,0.7,1.5,0.6,2.2c-0.2,0.9-0.8,1.8-1.2,2.7c-0.7-0.4-1.7-0.7-2.1-1.3
	c-1.9-3-2.7-2.2-4.3,0.5c-2.9,4.8-0.4,9.7-1,14.6c-0.3,2.7,0.5,5.6,1.5,8.7c3.1-4.2,8.9-5.5,9.2-12.1c0.2-5.1,2.2-10.2,3.5-15.3
	c0.2-0.9,1.1-1.6,1.6-2.4c0.5,0.1,1,0.2,1.6,0.3c-0.5,6.2-1,12.4-1.6,18.7c0.6,0.2,1.1,0.4,1.7,0.5c2.2-2.5,4.5-5,6.7-7.4
	c0.6,0.4,1.1,0.5,1.1,0.7c0.4,5.9,0.8,11.7,1,17.6c0,0.8-0.4,2-1,2.4c-4.8,3.4-6.2,8.5-7.1,14c-0.2,1.2-1.6,2.2-2.4,3.2
	c-0.6-1.4-1.4-2.8-1.7-4.2c-0.3-1.8-0.1-3.7-0.1-6.7c-3,2.3-5,3.8-7.4,5.6c-1.1-4.1-2-7.5-2.9-11c-0.5,0-0.9-0.1-1.4-0.1
	c-0.5,5.8-1,11.6-1.5,17.4c-0.6,0-1.1,0.1-1.7,0.1c-0.4-1.5-0.9-3-1.3-4.5c-0.3,0.1-0.6,0.1-0.9,0.2c0.6,5.1,1.3,10.3,1.7,15.4
	c0.2,1.8-0.2,3.7-1.3,5.6c-2-5.4-6.9-9.6-4.4-16.1c2.1-5.4,3.8-10.9,5-16.5c0.6-2.5-0.3-5.4-0.9-8.1c-0.1-0.6-2.1-1.5-2.8-1.2
	c-0.9,0.3-2.1,2.2-1.9,2.6c3.3,5.4-0.3,10.5-0.5,15.6c-0.4,11.6-1.2,23.2-1.2,34.9c0,2.7,2.2,5.5,3.9,7.9c1.6,2.3,2.4,4-0.1,6.3
	c-7,6.4-7,15.4-8,23.9c-0.4,3.5,1.9,4.6,5.1,2.6c6-3.6,12.1-7.1,17.7-11.4c3.2-2.5,5.3-6.3,8.2-9.9c0.1,0.9,0.1,1.8,0.4,2.5
	c0.8,1.6,1.8,3.1,2.8,4.6c1.5-1.1,3.4-1.9,4.4-3.3c1.4-2.2,2.1-4.9,3.3-7.9c0.9,1.2,1.3,1.5,1.3,1.9c0.6,6.7,2.1,7.7,8.6,5.3
	c3-1.1,6.1-2.4,8.5-4.4c1-0.9,0.4-3.8,0.6-6.2c5,0.7,6.3-3.6,8.5-7c9.6-14.9,11.9-31.7,13.1-48.9c0.2-2.4,0.3-4.9,0.5-7.3
	c0.4,0,0.8,0,1.3,0c0,17.6,0,35.2,0,53.3c-1.5-0.4-2.6-0.8-3.1-0.9c-1.4,5.4-3.4,10.8-3.9,16.2c-0.6,5.7,0.4,11.6,0.6,17.6
	c3.9-0.9,7.6-1.5,11.2-2.7c3.4-1.1,3.6-3.9,0.8-6c-0.8-0.6-1.9-1.7-1.7-2.2c0.2-0.8,1.4-1.4,2.2-2c2.1-1.6,4.6-2.9,6.3-4.9
	c2.3-2.7,4.6-3.6,8.5-2.2c-1.9,2.1-3.7,3.7-4.9,5.6c-0.6,0.9-0.9,3.1-0.4,3.6c1.1,1,3.1,2.2,4.3,1.8c6-1.8,10.8-4.8,11.7-11.9
	c0.3-2.5,1.7-4.9,2.4-7.4c0.4-1.6,0.5-3.2,0.6-4.9c0.2-4.5,0.1-9.1,0.4-13.6c0.3-5.1,0.8-10.1,1.3-15.2c0.2-1.6,0.5-3.3,0.7-4.9
	c0.5,0,1,0,1.4,0c0.6,11.9,0.9,23.8,1.8,35.7c0.4,5.5,1.6,11,3.2,16.2c0.5,1.7,3.7,2.6,5.6,3.9c1.3-2.1,2.9-4.1,3.8-6.4
	c1-2.5-0.3-4.1-2.9-4.7c-0.7-0.2-1.4-0.5-2.3-0.8c1-3.6,4-4.3,6.1-3.3c2.6,1.2,5.2,3.6,6.6,6.2c1.5,2.7,1.9,6.2,2.1,9.3
	c0.1,1.7-0.9,3.8-2.1,5.1c-2.8,2.8-3.8,5.4-3.2,9.8c0.9,7.2,0.3,14.7,0.3,22c-0.6,0-1.1,0.1-1.7,0.1c-0.6-3-1.1-6.1-1.7-9.1
	c-0.6,0-1.1,0.1-1.7,0.1c-4.5,8.7,0.2,19.7-5.7,28c-0.4,0-0.8-0.1-1.3-0.1c0-3.6-0.1-7.1,0-10.7c0.2-6.3,0.7-12.5,0.7-18.8
	c0-1.5-0.8-3.2-1.8-4.3c-1.9-2.1-4.2-3.8-6.5-5.6c-0.6-0.4-1.4-0.9-2.1-0.8c-3.3,0.5-6.7,1.1-9.9,1.9c-2.7,0.7-3.7,2.6-2.7,5.3
	c1.4,3.8,0.5,6.9-2.4,9.6c-0.7,0.6-1.2,2.2-0.8,3c2.5,6,3.5,12.1,2.7,18.5c-0.1,0.6-0.4,1.3-0.2,1.8c1.7,3.6,3.5,7.1,5.2,10.7
	c0.6,1.3,1.1,2.8,1.2,4.2c0.5,5.1,4.8,8.1,9.4,5.8c4.5-2.2,9.3-4.5,12.9-7.8c2.1-1.9,2.4-5.9,3.3-9.1c0.7-2.4,1-4.8,2.1-7.1
	c2.9,8.8,5.1,17.5-0.9,25.8c-0.9,1.3-1.6,3.1-1.7,4.7c-0.5,8.3-5.4,14.2-10.5,20c-0.7,0.8-1.8,1.2-3.4,1.4
	c3.8-5.6,9.8-10.4,6.5-19.6c-3,2.7-5.4,4.7-7.6,6.8c-3.4,3.3-6.7,6.7-10.1,10.1c-4.1,3.9-7.9,8.1-12.4,11.6
	c-2.4,1.9-5.7,2.5-9.2,2.8c0.4-0.5,0.6-1.3,1.1-1.6c8-4,11.8-11.9,17.1-18.4c1.2-1.5,2.2-4.6,1.5-6.1c-1.4-2.8-4.2-1.5-6.4-0.3
	c-1.4,0.7-2.9,1.2-4.6,2c0-1-0.2-1.6,0-1.8c2.3-2.6,3.4-5.3,1.4-8.7c-2.3-4-6.2-4.6-10-4.5c-3.3,0.1-4.9,2.4-4.5,6.1
	c0.3,2.5-0.4,5.1-0.7,7.7c-1.3-2-2.5-4-3.8-6c-1.1-1.8-2.3-3.6-4.2-6.7c-2.7,7.7-12.3,7.2-13.9,15.1c-0.1,0.7-1.5,1.7-2,1.6
	c-5.7-1.8-5,3-5.9,5.8c-1.1,3.7-1.7,7.5-3.3,11.5c-0.7-3.7-1.4-7.4-2.1-11.4c-0.6,0.2-1.4,0.2-1.6,0.5c-5.6,9.8-10.9,19.6-10.4,31.4
	c0.2,4.9,0.9,5.9,5.8,6.2c4.1,0.3,8.2,0.8,12.3,1.4c1.1,0.2,2.6,0.8,3.1,1.7c2.1,4.1,3.2,2.4,6.4,0.5c5.9-3.5,12.7-6,19.4-7.6
	c4.2-1,6.6-1.9,5.8-6.6c-1.1-6.7,5.2-7.4,8.7-9.5c6.5-3.8,12.4-7.9,16.7-14c0.8-1.1,2-2,3.1-3.1c0.7,0.9,1.2,1.4,1.1,1.6
	c-1.2,3.7-3,7.8,4,4.9c0.3-0.1,2.1,1.7,2,2.6c-0.4,4.9,1.6,10.5-3.5,14.1c0.9,1.7,1.5,3.5,2.7,4.8c1.8,1.8,3.9,4.4,6,4.5
	c8.3,0.5,16.7,3.4,24.9-0.8c0.7-0.4,1.7-0.2,3.2,0.6c-1.2,1.1-2.5,2.1-3.6,3.3c-0.7,0.7-1.1,1.7-1.6,2.6c1,0.4,2.2,1.4,3.1,1.2
	c3.5-0.6,6.9-1.5,10.3-2.4c4.4-1.2,7.4,0,9.2,4.5c0.6,1.5,1.9,2.6,3.5,4.8c2-8.6-6-11.6-7.6-17.4c0.3-0.3,0.7-0.6,1-0.9
	c1.1,1.3,2.5,2.4,3.4,3.8c2.9,4.3,13,6.5,16.9,3.4c0.9-0.7,1.5-2.4,1.3-3.6c-0.8-7.2-0.7-14.2,0.1-21.4c0.8-7.8,2.2-16.3-1.3-24.3
	c-0.6-1.3,0.4-3.2,0.5-4.9c0.3-2.7,0.5-5.5,0.7-8.2c-0.5-0.2-1-0.4-1.4-0.6c-3.8,2.2-8.5,3.8-11.3,6.9c-2.7,2.9-3.5,7.6-5.5,12.2
	c-0.5-3.4-1-6.3-1.4-9.3c-4.5,0.9-6.1,3.2-6.5,7.2c-0.4,3.8-2,7.5-3,11.3c-0.6,2.2-1.2,4.4-1.4,6.7c-0.4,4.4-0.4,8.9-0.8,13.4
	c-0.1,1.2-0.7,2.4-1,3.6c-0.5,0-1.1,0-1.6,0c-0.4-3.2-1-6.3-1.2-9.5c-0.3-7.2-0.7-14.3,1.7-21.4c2.5-7.4-0.5-11.4-8-12.7
	c-0.7,4.1-1.4,8.3-2.2,13.4c-3.9-3.3-4-6.7-3.4-9.6c1.5-7.9,0-15.6-1-23.4c-1-7.8-1-15.7,4.2-22.6c1.3-1.7,1.9-3.9,2.6-5.9
	c2.3-6,6.6-10.1,12.1-13.2c5.4-3.1,10.7-6.3,16.1-9.4c1-0.6,2.3-0.8,3.4-1.1c2.1-0.6,4.3-1,6.3-1.9c9.2-4.2,10.4-12.3,10.4-21
	c0-1.6,0.5-3.2,0.8-4.7c0.5,0,1,0.1,1.5,0.1c0.2,4,0.2,8.1,0.7,12.1c0.3,2,1.7,5.4,2.7,5.4c2.8,0.1,6.6-0.4,8.2-2.2
	c3.1-3.5,5.6-7.9,6.9-12.3c0.8-2.8-0.9-6.4-1.7-9.6c-0.2-1-1.3-1.7-1.9-2.6c-7.3-9.2-6.8-12.3,2.7-19.7c1.3-1,2.4-2.2,3-3.9
	c-7.7,0.1-8.4,8.8-15.2,11.6c-0.1-2.1-0.4-3.9-0.3-5.6c0.1-3.6,1.9-7.1-2.6-10.2c-1.5-1,0.1-6.6,0.3-10.1c0.6-0.2,1.2-0.3,1.7-0.5
	c1.6,1.3,3,2.7,4.7,3.9c0.9,0.6,2.1,0.7,3.2,1c0.2-1,0.9-2.1,0.6-2.9c-1.8-5.6-0.5-10.7,1.4-16.1c1-2.8-0.5-6.5-1-9.8
	c-0.1-0.4-1.4-1.1-1.8-0.9c-0.9,0.5-2,1.3-2.1,2.2c-1.2,9.9-7.3,17.8-10.6,26.8c-1.9,5.1-1.5,11-2.1,16.6c-0.2,2.6-0.1,5.2-0.2,7.8
	c-0.3,6.7-0.6,13.4-1,20.1c-0.2,2.7-0.8,5.4-1.2,8.1c-0.8,0-1.6,0-2.3,0c-0.4-3.7-1.3-7.5-1-11.2c0.4-5.1,2-10,0-15.4
	c-1.1-2.9,0.2-6.6,0.5-10c0.6-6.5,1.2-13,1.9-19.5c-0.6-0.2-1.3-0.3-1.9-0.5c-0.7,1.5-1.2,3.1-2.1,4.4c-0.6,0.9-1.7,1.5-2.6,2.2
	c-0.4-1.2-1.4-2.4-1.2-3.4c1.4-7.9,3.1-15.7,4.7-23.6c0.2-1-0.1-2-0.9-3.3c-0.8,1.5-1.7,3.1-2.6,4.8c-1.6-1.1-3.2-1.8-4.3-3
	c-0.6-0.7-1-2.3-0.6-3c4.8-9,4.3-12.1-3.2-19c-1.3-1.1-2.6-3.6-3.6-3.4c-3.3,0.5-6.6,1.7-9.6,3.1c-4.1,2-6.2,7.3-5.3,11.8
	c0.1,0.3,0.4,0.4,1.1,1.3c0.8-1.6,1.4-3,2.1-4.3c0.5-1,1.1-2,1.7-2.9c0.8,0.8,2.2,1.6,2.3,2.4c0.3,3.9,3.5,4.7,6.1,5.4
	c1.5,0.5,3.7-1.2,6.3-2.2c-0.1,1.4,0.1,2.8-0.3,4c-0.7,2.1-3.1,4.7-2.6,6.1c1.2,2.8,3.9,4.9,5.9,7.4c0.9,1.1,1.7,2.4,2.2,4.4
	c-5-3.3-7.8,0.5-11.4,3.3c0-3.2,0-5.3,0-8.7c-3.5,2.7-6.1,4.7-9.5,7.4c0.2-7.3,4.6-14.8-4.5-20.4c-1.3,7.7-2.4,14.8-3.6,21.9
	c-0.5,0-0.9,0-1.4,0c-0.3-1.3-0.9-2.7-0.9-4c-0.1-5.7,0.1-11.4-0.2-17c-0.1-1.6-1.5-3.2-2.4-4.8c-1,1.4-2.1,2.7-2.9,4.2
	c-1.5,3.1-2.9,6.2-4.1,9.4c-0.9,2.3-1.4,4.8-1.9,7.2c-0.8,3.5-1.3,7.1-2.1,10.6c-0.9,4.2-2.5,8.3-2.6,12.5c-0.4,8.3,0.1,16.6,0,24.9
	c-0.1,3.1-0.9,6.3-1.4,9.4c-0.4,0.1-0.8,0.2-1.2,0.3c-0.5-1.1-1.4-2.3-1.4-3.4c-1.1-15.8,0.5-31.4,1.6-47.1
	c0.3-3.7,0.9-7.3,1.2-10.9c0.3-4.4,1-8.9-4.6-11.7c2.2-1.4,3.6-2.3,4.5-2.8c0-6.8,0.1-13.2-0.1-19.5c0-1.7-0.9-3.3-1.5-5
	c-2.6,0.8-6.5-0.2-7.1,3.7c-0.8,5.2-0.9,10.4-1.4,15.9c-0.6-0.3-1.8-0.8-3.2-1.4c-1.1,7.4-2.1,14.5-3.2,21.9
	c3.4,0.6,3.3,3.1,3.3,6.6c0.1,10.2,0.9,20.5,2,30.7c0.7,7-0.4,13.6-2.6,20.1c-0.5,0-1.1,0-1.6,0c0-15.5,0-31.1,0-47.3
	c-5.3,1.8-7.6,5.1-8.3,8.7c-2.3,11.7-4.1,23.6-5.8,35.4c-0.8,5.2-0.6,10.6-1.4,15.9c-0.2,1.6-2.1,2.9-3.2,4.4
	c-0.6-1.7-1.4-3.3-1.8-5c-0.4-1.6-0.1-3.3-0.7-4.8c-1-2.7-2.8-3.6-5.3-1.3c-2.3,2.2-4.7,4.4-7.2,6.4c-0.8,0.7-1.9,1.1-2.8,1.6
	c-0.4-1.1-1-2.2-1-3.3c0-4.2,0.2-8.3,0.4-12.5c0.3-6.3,1-12.5,1.2-18.8c0.2-7.3,0.3-14.7,0.2-22.1c-0.2-11.4-0.7-22.7-0.9-34.1
	c0-1.3,0.3-2.8,1-3.9c3.8-6.7,4.3-14,4.2-21.5c-0.1-3,0.3-6.1,1.6-9.6c1.1,3.2,3.1,6.4,3,9.6c-0.3,12.1-1.4,24.2-1.9,36.3
	c-0.1,2.4,0.5,4.9,1.4,7.1c0.5,1.3,2.3,2,3.5,3c0.9-1.3,2.1-2.5,2.5-3.9c2.1-7.5,4-15,6-22.5c0.1-0.5,0.8-0.8,2.5-2.3
	c-0.6,10.1-0.1,18.9,9.6,24.5c0.5-6.4,0.8-12.1,1.4-17.8c0.2-1.7,1.2-3.3,1.6-5c0.4-1.3,0.9-2.7,0.7-4c-0.2-1.1-1.4-2-2.2-3
	c-0.9,0.9-2.3,1.7-2.5,2.7c-0.8,5.8-3.8,11.6-0.2,17.4c0.3,0.5-0.4,1.6-0.7,2.4c-0.5,0.1-0.9,0.1-1.4,0.2c-0.5-2-1.1-4-1.5-6
	c-0.4-2.1-1-4.3-0.7-6.4c1.3-8.2-3.4-12.4-9.5-15.5c-1.5,10.3-3.1,20.7-4.7,31c-0.3,0.1-0.6,0.2-0.9,0.3c-0.4-0.9-1.2-1.9-1.2-2.8
	c0.8-12.1,1.7-24.2,2.5-36.4c0.1-1.6,0.2-3.5-0.5-4.8c-5.6-9.1-5.1-18.6-2.7-28.4c0.8-3.2,1.1-6.5,6.2-6.1c-3.6-7,2-9.5,5.6-12.9
	c6.9-6.4,15.6-8.9,24.5-10.9c4.1-0.9,6.2-2.8,6-7.6c-0.2-4,1.1-8,1.7-12c0.5,0,1,0,1.5,0c0.3,2.1,0.6,4.2,0.9,6.3
	c1.5,9.2,5.7,11.4,13.9,7c2.2-1.2,3.8-3.4,6.7-6c4.7,0.8,4.5-5.8,8-8.4c2.1-1.6,3.8-3.9,5.1-6.2c1-1.8,1.2-4.1,1.8-6.2
	c-2.7,0.2-6.6-0.6-7.9,0.9c-4.3,4.9-10,9.4-9.8,17.1c0,0.4-0.3,0.9-0.5,1.2c-0.1,0.2-0.5,0.3-2,1c0-3.8-0.7-7.3,0.2-10.3
	c1.4-5.1,4-9.9,5.9-14.9c2.9-7.8,5.5-15.6,8.3-23.4c0.5-1.3,1.1-2.6,2.1-3.5c4.1-4,10.7-5.6,11.2-13c1.5,4.5,0.2,7.7-3.4,9.9
	c-8,4.8-10.1,12.8-12.2,21.9c5.4-1.2,6.1-5.7,7.4-8.6c2.2-5.1,6-6.3,10.8-7.5c-3.7,4.1-7.1,7.8-10.5,11.6c0.5,0.5,0.9,1,1.4,1.4
	c3-2.1,6-4.3,9.1-6.4c0.4,0.5,0.7,0.9,1.1,1.4c-1.3,1.5-2.6,3-4.4,5.2c6.1-0.4,11.3-0.7,16.4-1.1c0.1-0.3,0.2-0.7,0.2-1
	c-1.1-0.6-2.4-1-3.3-1.8c-0.7-0.6-1.1-1.6-1.6-2.4c0.9-0.3,1.8-0.8,2.7-0.9c3.1-0.4,6.4-0.2,9.2-1.3c5.6-2.3,6.1-7.4,1.1-11.9
	c2.6-2,4.8-4.4,7.6-5.6c2.9-1.3,2.8-2.9,2.4-5.5c-1.2-7.2-5.2-12.4-11.5-16.1c0.2-0.5,0.4-0.9,0.7-1.4c1.4,0.5,3,0.8,4.2,1.6
	c8.5,6.1,8.8,6.1,9.8-3.7c0.2-2.1-1.1-4.4-1.5-6.6c-0.2-1.8-0.7-4.1,0.2-5.5c3.3-5.2,1.1-10.8,1.3-16.2c0.1-2.3-4.6-3.4-6.9-1.4
	c-2.3,2-4.1,4.6-5.9,6.6c-1.6-3.9,0.2-8.8,5.8-12c3.5-2,4.4-4,2.7-7.8c-1.7-3.9-1.7-8.8-3.9-12.3c-4.4-7.1-10.2-13.1-18.2-16.4
	c-3-1.2-5.4-1-8.2,0.9c-4.4,3.1-9,5.8-13.7,8.7c0.4-4.9,3.6-7.6,17.8-14.9c-0.4-3.5-4.1-7.1-0.2-10.9c3.8,3,1.1,12.6,10.7,8.6
	c-1.7,5,1.8,5.8,4.2,8.1c4.6,4.5,12.5,4.4,15,11.5c0.1,0.4,1.7,0.7,1.9,0.5c0.6-0.8,1.2-1.9,1.1-2.7c-0.2-1.3-1.1-2.4-0.4-3.3
	c1.1-2.5,2.9-5,3.2-7.6c0.4-3.5-1-6.1-5.5-6.1c-1.9,0-4.1-1.6-5.7-3c-2.8-2.3-5.4-5-8.1-7.5c-3-2.7-3.7-6.1-3.2-10.2
	c0.7,0.3,1.3,0.3,1.4,0.6c4.7,10.5,13.1,15.3,24.4,14.1c1.2-0.1,2.5-0.5,3.4-1.2c8.1-5.5,16.1-11.1,24.1-16.8
	c6.7-4.8,11-10.8,12.8-19.3c1.7-7.8,2.1-15.4,1.9-23.2c-0.2-4.6,1.1-6,6.9-8.7c-0.9,1.9-2.1,3.5-2.4,5.1c-0.5,2.7-1.1,5.7-0.6,8.3
	c1,5.5,2,10.7-1.1,16.1c-1,1.8-0.4,4.7-0.2,7c0.6,7.8,1.4,15.5,1.9,23.3c0.1,0.9-1.2,1.8-1.8,2.8c-0.7-1-1.8-1.9-2.1-3
	c-0.7-3.3,0.7-7.5-3.6-9.6c-3,4.4-3.6,8.5-3.1,13.8c0.8,7-1.2,14.3-1.8,21.5c-0.4,4.2-0.7,8.4-2,12.9c-0.3-1-0.8-2-0.8-3
	c-0.2-7.2-0.3-14.4-0.4-21.7c0-1.7,0.1-3.5,0.8-4.9c1.9-3.5,0.1-6.1-1.5-8.9c-7,4.1-7.8,5.6-6.6,12.5c0.1,0.6,0.3,1.3,0.2,1.8
	c-0.5,2-1.1,4.1-1.6,6.1c-0.7-1.9-1.3-3.9-2.2-5.8c-0.9-1.7-2.2-3.2-3.3-4.7c-0.9,1.4-2.4,2.7-2.6,4.2c-0.4,4.1-0.4,8.3-0.3,12.4
	c0.1,6.4,0.4,12.9,0.5,19.3c0,0.9-0.8,1.8-1.2,2.7c-0.6,0-1.1,0.1-1.7,0.1c-1.1-6.4-2.2-12.8-3.3-19.2c-0.5,0.1-1.1,0.2-1.6,0.3
	c0.1,1.4,0.3,2.8,0.4,4.1c0.6,5.1-1.3,9.7-5.8,11.4c-4,1.6-4.7,4.7-3.9,7.7c1,3.7,2.7,7.8,5.3,10.4c10.8,10.5,13.3,13.7,18.6,29.1
	c-2.1-2.9-4.6-5.7-6.2-8.9c-2.9-5.5-7.1-8.5-14.5-8.6c1.9,9.7,2.9,19.1,5.7,28c1.3,4.3,5.9,7.5,9,11.2c1.1,1.4,2.1,2.8,3.2,4.2
	c-0.5,0.4-1,0.8-1.5,1.2c-3.2-2.7-6.5-5.4-9.7-8c-0.9-0.7-2-1.2-2.9-1.8c-0.6,1.1-1.5,2.2-1.7,3.4c-1.2,9.6-2.2,19.2-3.2,28.8
	c-0.2,2-0.3,4-0.1,6c0.4,4.1,1.1,8.2,1.5,12.2c0.1,0.6-0.9,1.7-1.1,1.7c-0.8-0.2-1.8-0.6-2.1-1.3c-1.7-3.7-3.2-7.5-5.8-11.4
	c0,2,0.2,4.1-0.1,6.1c-0.2,1.1-1.3,2-2,3c-0.6-1-1.2-1.9-1.7-2.9c-0.2-0.4,0.1-1-0.1-1.4c-0.6-1.6-1.2-3.1-1.9-4.6
	c-1.3,1.7-2.7,3.4-3.8,5.2c-0.3,0.5,0.4,1.4,0.4,2.2c0.3,3.9,0.8,8-3.9,8.3c1.2,4.7,2.5,9.2,3.4,13.7c0.6,2.8,2.4,4,4.5,3.1
	c2.6-1.1,5.1-3,6.9-5.1c0.5-0.5-1.8-3.7-3.2-5.3c-0.9-1-2.6-1.2-4.3-1.9c2.3-3.4,5-3.1,7.6-2c4.6,1.9,7.5,0.4,10.1-3.6
	c2.7-4.3,6-7.7,11.4-9.3c4.8-1.4,9.7-3.9,13.2-7.3c4-3.9,6.7-9.3,9.6-14.2c1.7-3,2.6-6.6,4.1-9.8c0.6-1.2,1.9-2,4-4
	c-0.3,3.3-0.8,5.2-0.5,6.9c0.3,1.7,1,3.7,2.2,4.6c1,0.6,3.5,0.2,4.5-0.7c9.5-7.7,19.1-15.3,28.1-23.6c2.6-2.4,3.7-6.9,4.4-10.6
	c0.9-4.3,0.7-8.8,5.4-12c-1.1,8.5-2.3,16.9-3.5,26.5c2.3-0.8,3.9-1,4.8-1.8c4.1-3.4,8.2-6.9,12-10.6c2.1-2,4-4.5,5.4-7
	c1.6-2.8,2.9-4.5,6.3-2.1c3.4,2.3,6.6,1,9.6-1.5c2.6-2.3,5.4-4.4,8.3-6.4c6.3-4.2,10.2-10,12.2-17.3c1.5-5.3,2.8-10.6,4.7-15.7
	c0.8-2.1,2.9-3.7,4.4-5.6c0.6,0.4,1.1,0.8,1.7,1.1c-0.8,1.6-1.3,3.5-2.3,4.9c-3,3.9-3.8,8.4-3.2,13.1c0.2,1.4,1.4,3.2,2.6,3.8
	c0.9,0.4,2.8-0.5,4-1.3c3.6-2.5,7.2-5.1,10.7-7.8c2.3-1.8,4.4-3.9,6.4-6.1c1.1-1.2,1.6-3,2.8-4.2c4.2-4.4,7.3-8.9,6.9-15.8
	c-0.1-3,3.8-6.4,6.2-9.3c3.1-3.9,6.6-7.6,9.9-11.3c0.4,0.2,0.8,0.4,1.2,0.5c-0.2,1.2-0.2,2.5-0.7,3.6c-3.2,6.7-6.6,13.4-9.7,20.2
	c-0.8,1.7-0.5,3.9-0.6,5.8c1.6-0.8,3.3-1.4,4.8-2.3c2.7-1.6,5.4-3.3,7.9-5.2c1.3-1,2.6-2.3,3.1-3.8c1.1-3.9,3.7-5.2,7.3-4.6
	c4.2,0.6,7.5-0.5,9.9-4.2c0.8-1.2,2.3-2.1,3.7-2.6c8.1-3.1,13.3-9.1,16.9-16.7c3.4-7.2,7.8-14,10.2-21.5c2.1-6.5,1.8-13.6,2.7-20.5
	c0.4-3.2,0.9-6.4,1.8-9.6c4.2,17.1-0.8,33.1-4.6,49.9c1.4-1.1,2.7-2.2,4.1-3.3c2.4-1.8,4.6-3.8,7.2-5.3c9.4-5.2,17.3-12.1,23.3-21
	c1.7-2.5,3.4-5.3,5.7-7.2c3-2.6,2.2-5.2,1.6-8.3c-0.8-3.4-1.1-6.9-1.6-10.3c0.6-0.1,1.1-0.2,1.7-0.3c1,5.1,2,10.1,3.1,15.9
	c2.8-0.9,6.3-1.1,8.2-2.9c1.4-1.3,0.8-4.7,1.9-7.8c1,2.1,2.8,4.1,2.8,6.2c0.1,1.5-1.8,4.1-3.3,4.6c-8,2.8-13.5,7.8-17.4,15.4
	c-3.8,7.5-9.4,13.8-16.6,18.7c-3.7,2.5-6,7.2-8.9,10.9c-1.5,1.9-2.8,4.1-4.4,5.9c-4.1,4.8-8.6,9.3-7.3,16.6c0.2,1.4-0.1,3.3-0.9,4.5
	c-3.5,5.1-2.1,10.4-1.8,16c0.5,9.9-0.1,19.8-0.4,29.8c-0.1,2.6-0.9,5.1-1.3,7.6c-0.5,0-1,0-1.4-0.1c0.4-5.1,1.1-10.2,1-15.3
	c-0.2-5.2-1.1-10.4-2-15.5c-1-5.2-2.4-10.3-3.9-16.8c-1.4,2.3-2.5,3.5-2.7,4.8c-0.8,5.3-1.4,10.6-2,15.9c-0.2,2-0.4,4-0.7,5.9
	c-0.6,3-1.5,5.8-6.1,3.9c1.2,13.9,2.7,27.2,3.6,40.4c0.9,13.3-3.4,26-3.3,39.2c-0.8-0.1-1.7-0.1-2.5-0.2c-0.1-1.5-0.5-3.1-0.4-4.5
	c0.4-4.5,1.4-8.9,1.3-13.3c0-6.2-0.2-12.6-1.3-18.7c-1.4-7.6-2.8-15-1-22.8c1.1-4.8,2.1-10.5-3.5-14.5c-5.4,4.3-9.8,8.8-10.5,16.5
	c-0.3,2.9-3.2,6.2-5.8,8.3c-2.7,2.2-3.9,4.5-2.7,7.5c1.3,3.2,0.1,5.2-2,7.3c-4.1,4.1-8.4,8.1-12,12.6c-1.5,1.8-2.6,5.3-1.9,7.2
	c3.2,8.7-0.6,17.1-0.1,25.6c0.1,1.7-0.5,3.4-1.4,5c-3.6-6.8-0.9-14.4-2.7-21.3c-0.5-0.1-0.9-0.2-1.4-0.3c-0.6,2.3-1.7,4.5-1.8,6.9
	c-0.4,5.3-2.8,9.2-6.6,12.7c-1.7,1.6-2.6,4.4-3.1,6.8c-0.6,3.1-0.5,6.4-0.7,9.6c0,0.7-0.1,1.9,0.3,2.2c5,3,2.6,7.2,2.2,11.4
	c-0.6,7.2-0.7,14.4-0.6,21.7c0.1,6.7,0.9,13.5,1.3,20.2c0.1,2.4,0,4.9,0,7.3c0,4.1,0.2,8.3,0.2,12.4c0,5.2,0.1,10.4,0,15.7
	c-0.1,5.8-0.3,11.7-0.8,17.5c-0.4,4.6-1.9,9-2.3,13.6c-0.4,4.7,0,9.5,0,14.2c0,0.9,0,1.8-1,2.8c-0.6-4.7-2-9.5-1.6-14.1
	c2-22.4,0.1-44.5-3.1-66.7c-1.1-7.5-0.3-15.2-0.8-22.8c-0.3-4.4-1.2-8.7-2-13c-0.5-2.6-2.6-3-4.1-1.3c-2.8,3.1-6.3,6.3-7.3,10.1
	c-1.5,5.6-4.3,9.8-8.4,13.4c-2.5,2.2-3.4,3.7-2,7.3c1.2,3.2,0.4,7.3,0.2,10.9c-0.5,7.6-1.2,15.3-1.8,22.9c-0.2,2.5-0.4,4.2-3.8,5.1
	c-4.1,1-5.7,5.4-5,9.4c1.2,7.4-0.9,15,2.2,22.2c1.1,2.6,0,6.1,0,9.1c0,11.1,0,22.3,0,33.4c-0.5,0.1-1.1,0.2-1.6,0.3
	c-0.6-1.6-1.6-3.1-1.7-4.7c-0.5-8.4-4.4-16.6-0.9-25.4c1.1-2.7,0.1-6.3-0.5-9.5c-0.9-4.8-2.3-9.6-3.5-14.7c-1.8,2.3-4.9,4.9-6.3,8.2
	c-2.5,6-4.8,12.1-2.3,19.1c1.2,3.5,0.6,7.5,1,11.3c0.5,4.3,1.5,8.4,1.9,12.7c0.5,5.9,0.4,11.8,0.8,17.8c0.3,5.2,0.8,10.3,1.2,15.4
	c0.1,1.4-0.1,2.9-1.2,4.5c-0.5-0.8-1.2-1.6-1.3-2.4c-1.6-9.6-3.1-19.3-4.7-29c-0.4-2.3-1.4-4.4-1.7-6.7c-0.5-4.3-0.4-8.7-0.8-13.1
	c-0.5-5.2-1.2-10.3-1.9-15.4c-0.2-1.5-0.9-3-1.1-4.5c-0.7-4.9-1.4-5.5-5.2-2.6c-2.2,1.6-4.3,4.2-5,6.7c-1.3,5-3.8,8.9-7.6,12.3
	c-1.1,1-1.7,3.3-1.5,5c0.4,5.3,0.9,10.7,2.2,15.8c0.9,3.6,2.9,7.1,4.7,10.4c1.8,3.5,3.1,6.6-0.5,9.9c-1.1,1-1,3.7-1,5.6
	c0.1,2.6,0.6,5.1,1,8c-5.4-2.9-7.1-6.8-5.2-11.7c1.5-3.8,2.1-7.2-1.3-10.6c-1-1-0.7-3.4-0.9-5.2c-0.3-2.8-0.5-5.6-1.7-8.4
	c-4,8.5-2.1,17.4-2.5,26.1c-0.4,9.2,2.9,17.2,11.6,23.1c-4.6,1.5-8.1,2.5-5.3,7c1.4,2.1,3.1,2.8,4.8,0.7c3.6-4.6,6.9-8.9,8.3-15.2
	c1.6-7.6,1.9-15.1,2.3-22.8c0-0.7,0.5-1.3,0.8-2c0.4,0,0.9,0,1.3,0c0.3,2.7,1.1,5.4,0.7,8c-1.5,9.7,1.7,18.6,3.9,27.7
	c1.7,6.8,7.7,9.6,13.9,11.6c0.4,0.1,1,0.2,1.4,0c5.3-2.3,10.8-4.3,15.7-7.1c2-1.2,3-4.3,4.2-6.6c0.6-1.1,0.7-2.5,1.1-3.7
	c0.4,0,0.9,0,1.3,0c0.3,1.2,0.6,2.3,0.8,3.5c0.7,3.5,2.6,4.3,5.1,2c6.4-6,11.7-11.8,12.8-21.8c0.8-7.9,1.1-15.6,1-23.5
	c-0.1-7.8,1-15.6,2.2-23.6c0.2,1.2,0.4,2.4,0.5,3.6c0.5,4.6,0.9,9.1,1.5,13.7c1.4,10.8,2.7,21.6,4.3,32.4c0.2,1.7,1.5,3.3,2.5,4.8
	c2.9,4.3,5.8,8.6,8.8,12.8c0.7,1,1.2,2.3,2.2,2.9c7.6,5,9.7,13.1,12.2,21c0.6,2,0.4,4.3,0.6,6.4c-0.6,0.2-1.2,0.4-1.8,0.6
	c-1-1.7-2.1-3.3-2.9-5.1c-0.9-2.1-1.3-4.5-2.4-6.5c-0.5-1-2.1-1.3-3.3-1.9c-0.5,1.3-1.6,2.6-1.4,3.8c0.9,6.1,2.1,12.2,3.3,18.7
	c-1.7,0.2-3,0.4-4.5,0.6c0.1,0.6,0,1.3,0.2,1.7c4,7,1.7,14.5,1.2,21.6c-0.3,3.7-0.5,6.9,1.4,9.9c2,3.1,4.4,5.9,6.6,8.8
	c0.5,0.6,1.2,1.1,1.4,1.8c0.5,1.9,0.8,3.9,1.1,5.9c-1.5-1.2-3.2-2.2-4.6-3.5c-3.6-3.5-7-7.1-10.7-10.5c-0.6-0.5-2.2,0-3.3,0.1
	c0.2,1.3-0.1,3.1,0.6,3.8c4.4,4.1,9,7.9,13.6,11.7c0.6,0.5,1.7,0.5,2.6,0.7c9,1.3,17.4-0.6,25.1-5.5c1.3-0.9,3.1-1,4.7-1.5
	c0.1,0.4,0.3,0.8,0.4,1.2c-6.6,4.1-13.2,8.2-19.9,12.4c0.7,5.1,1.9,5.7,6.8,5.4c7.4-0.5,14.8-0.9,22.2-0.5c5.8,0.3,9.3-1.9,11.7-6.9
	c0.9-1.9,2.7-3.5,4.7-4.5c-4,7.4-7.4,15.4-16.7,18c-1.6,0.4-3,1.8-4.5,2.8c2,1.6,3.9,3.9,6.2,4.6c2.9,0.9,6.2,0.5,9.6,0.6
	c-0.4,1.1-0.4,1.4-0.6,1.6c-1.4,1.3-2.9,2.5-4.3,3.7c1.5,1.6,2.7,4.2,4.5,4.7c6.5,1.7,13.2,2.7,19.7,4.1c5.4,1.2,10.8,2.6,16.8,4.1
	c-3,3.5-6,2.9-8.8,1.7c-3.8-1.6-7.5-1.4-11.2,0.3c-2.4,1.2-2.8,2.3-0.6,4.4c8.9,8.6,17.7,17.3,26.5,26c1.1,1.1,2.3,2.1,3.6,2.9
	c7.5,4,9.7,10.5,8.8,18.5c-0.2,2.3,0.7,4.8,0.9,7.2c0.1,1.2-0.5,2.3-0.7,3.5c-0.9-0.9-2.3-1.7-2.5-2.7c-0.6-2.5-1.3-5.3-0.7-7.7
	c1.4-5.5-0.8-9.9-4.8-12.4c-10.6-6.6-21.6-12.9-32.8-18.5c-8-4-15.6,2.1-15.1,11c0.1,2.2-0.8,4.5-1.3,6.8c-0.7-0.1-1.5-0.2-2.2-0.2
	c0-2,0-3.9,0-5.9c0-2.5,0.1-4.9,0-7.4c-0.1-2.9-1.7-4.2-4.4-5.6c-6-3.2-11.6-3.6-17.6-0.8c-1.7,0.8-3.6,1.7-4.6,3.2
	c-2.1,2.8-3.8,2.6-4.9-0.4c-1.2-3.2-3.1-4.1-6.4-3.4c-1.8,0.4-3.8-0.7-5.8-0.9c-1.6-0.2-3.8-0.7-4.6,0c-0.9,0.9-0.9,3.1-0.7,4.7
	c0.5,4.3,1.9,8.5,1.8,12.7c-0.1,3.2-1.2,6.7-2.9,9.3c-4.4,6.7-4.6,8.2,0.6,13.9c4.1,4.6,4.8,12.4,0.6,19.4
	c-4.1,6.9-5.7,14.2-5.1,22.1c0.1,1.4-0.2,2.8-1.2,4.2c-1.8-7.1-3.7-14.1-1.3-21.4c0.7-2.2,1.4-4.4,2.2-6.6c2.2-6.2,1.8-12-1.7-17.7
	c-1-1.6-1.8-3.8-1.6-5.6c0.9-7.5,1.4-15.1,3.7-22.2c2.1-6.4-0.4-10.5-3.7-14.9c-0.7-0.9-2.5-1.2-3.8-1.3c-3.2-0.3-6.4-0.6-9.6-0.2
	c-1.3,0.2-3.3,1.9-3.5,3.2c-0.7,4.4-1.8,9.1-0.8,13.3c2.9,12.4-0.2,24.3-1.7,36.2c-1.4,10.5-2.5,21-1.7,31.6
	c0.4,5.6-0.5,11.3-0.5,17c0,2.6,0.4,5.3,1.3,7.6c3.7,9.2,4.5,18.9,3.8,28.6c-0.5,6.4-2,12.8-3.2,20.3c-2.9-4.1-2-7.7-1.6-11.1
	c0.4-3.7,1.3-7.4,1-11c-0.3-3.4-1.3-7.1-3.2-9.8c-5.5-7.8-6.5-15.8-3.4-24.8c2.8-8.1,3.1-16.5,1.1-25c-1.7-7.1-2.5-14.5-3.5-21.8
	c-0.2-1.9,0.5-3.9,0.8-5.9c1.2-7.2,2.5-14.5,3.4-21.7c0.7-5.3,0.6-10.8,1.1-16.1c0.8-7.7-3.5-13.6-11.2-14
	c-16.9-0.9-33.7,0.1-50.3,3.8c-6.1,1.4-12.2,3-18.3,4.4c-1.1,0.2-2.3-0.2-3.4-0.3c0.3-1.1,0.4-2.3,0.8-3.3c0.7-1.4,1.6-2.7,3.1-4.9
	c-4.2,0.7-7.1,1.1-10,1.6c-3.5,0.6-5.5-0.9-5.1-4.5c0.4-3.4-1.8-4.6-4.1-5.2c-1.2-0.3-3,1.1-4.4,1.8c-1.7,0.9-3.3,1.9-5.2,3
	c1.7,1.9,5.1,3.6,1.1,8c5.6,1,10,1.8,14.5,2.6c0.1,0.4,0.2,0.8,0.3,1.3c-3.9,1.4-7.8,3.6-11.9,3.9c-8.3,0.6-15.3,3.9-22.2,8
	c-0.9,0.5-2.2,0.5-3.3,0.8c0.3-1.2,0.3-2.6,1-3.5c1.3-1.8,3.1-3.3,4.6-5c-3.1-1.7-5.8-3.1-9.3-5c0.1,1.6,0,2.8,0.2,4
	c0.2,0.9,1,1.6,1.1,2.5c0.1,0.9-0.1,2.4-0.5,2.6c-5.9,1.8-1.5,9.4-6.4,11.4c-8.6,3.5-9.9,11.1-8.8,18.4c1.6,10.7-2.4,20.4-2.9,30.7
	c-0.1,1.3-1.3,2.5-2,3.7c-0.4-0.1-0.8-0.1-1.3-0.2c-0.2-1.5-0.8-3.1-0.6-4.5c0.9-7,2.1-14,2.9-21c0.3-3-0.3-6.1-0.7-9.1
	c-0.4-2.7-1.3-5.4-1.4-8.1c-0.5-9.7-5.7-15.9-15.5-18.1c-1.4-0.3-2.7-0.5-4.1-0.9c-2.6-0.7-4-2-3.8-5.3c0.3-3.9-0.6-7.8-4.9-11.4
	c0,3.7,0.1,6.4,0,9.1c-0.1,4.8-1.5,5.9-6.2,5.1c-1.3-0.2-2.6-0.9-4-1.2c-3.8-0.9-6.4,0.4-8.1,4.2c-3,6.7-6.3,13.3-9.5,19.8
	c-0.4,0.8-1.3,1.3-2,1.9c-4,3.1-4,3.7,0.5,6.2c0.8,0.5,1.6,0.9,2.5,1.3c7.1,3,7.3,4.2,5.2,11.8c-1.4,4.9-1.4,10.3-1.7,15.5
	c-0.3,5.4-0.1,10.9-0.1,16.3c-0.6,0.4-1.3,0.8-1.9,1.2c-1-2-2.1-4-3.1-5.9c-0.6,0.4-1.3,0.9-1.9,1.3c0.9,2.6,1.4,5.5,2.9,7.7
	c2.7,3.9,2.7,7.9,2.4,12.3c-0.3,5.8,0.3,11.6,0.2,17.4c-0.2,10.9-0.6,21.8-1,32.7c-0.3,7.1-0.9,14.3-1.2,21.4
	c-0.7,14.4-1.2,28.7-2.5,43.4c-0.4-2.4-1.1-4.7-1.2-7.1c-0.8-12.6-1.8-25.2-2.2-37.8c-0.2-4.2,0.3-8.7,1.6-12.7
	c1.6-5,1.5-9.7,0-14.5c-2.4-8-2.9-15.9-1.3-24.2c0.6-3.2-0.5-6.7-0.6-10c-0.3-7.3-0.7-14.7-0.5-22c0.2-6.5,1.1-13,1.8-19.5
	c0.1-1.2,0.5-2.5,1.1-3.5c3.2-5,1.8-10.1,0.7-15.2c-0.6-2.5-4.1-3-7.4-1.1c-5.2,2.9-6.9,12.3-3.3,17.2c1.2,1.6,1.7,3.7,2.7,6
	c-5.1-0.8-9.1,2.3-12,7.7c-1.9,3.6-4.4,6.8-6.4,10.4c-0.5,0.9-0.5,2.7,0.1,3.4c3.1,3.7,6.2,4.9,11.6,4.8c-0.6,0.9-0.9,2-1.4,2.1
	c-2.5,0.4-5.3,1.4-7.5,0.7c-11.8-4-9-1.6-14.7,7.6c-1.6,2.6-2.5,5.6-4.4,7.9c-1.9,2.4-1.8,4,0.8,5c7.9,3.1,8.4,8.6,7.1,16.3
	c-1.5,9.3-0.8,19-1.4,28.5c-0.2,3.9-1.3,7.7-3,11.4c-0.6-15.1-1.2-30.2-1.8-45.4c-0.6-0.1-1.2-0.2-1.8-0.3c-1.3,3.1-2.5,6.2-3.8,9.3
	c-1.7,4.4-2.7,4.7-6.5,1.8c-1.6-1.2-3-2.5-5.1-4.2c-0.1,1.5-0.5,2.5-0.3,3.4c1.3,5.5,2.8,10.9,3.9,16.5c0.3,1.4-0.6,3-0.9,4.5
	c-1.6-0.6-3.4-0.9-4.7-1.9c-1.4-1-2.3-2.7-3.4-4.1c-0.5,0.2-1.1,0.4-1.6,0.7c0.7,2.1,0.9,4.4,2.1,6.1c5,7.7,4,16-0.2,22.6
	c-4,6.2-4.3,12.7-5.9,19.2c-1,4.4-2.9,8.7-4.5,13.2c4.9-0.4,4.6,2.4,3.7,5.8c-2.3,8.7-4.9,17.4-6.6,26.3c-1.1,6.1-0.9,12.4-1.4,18.6
	c-0.2,2.3-0.4,4.6-0.6,6.9c-1.2,0-2.5,0-3.7,0c-0.6-12.3-0.9-24.6-1.8-36.8c-0.8-10.4-1.6-21-7.7-30.1c-0.9-1.3-0.8-3.3-1.2-5
	c1.5,0.3,3.1,0.7,4.6,0.9c0.3,0,0.6-0.2,0.5-0.2c0.7-6.4,1.3-12.6,2.1-20.2c-2.1,3-3.8,5.3-5.4,7.7c-0.8,1.2-1.3,2.6-2,3.9
	c-1-1.4-2.5-2.6-2.9-4.2c-1-3.7-1.7-7.5-2.2-11.2c-0.2-1.7,0.2-3.5,0.4-5.3c1.2,1.1,2.4,2.3,3.7,3.3c0.2,0.2,0.6,0.2,1.2,0.3
	c1.9-5.2,3.8-10.5,5.8-16.1c-4,2.8-7.6,5.3-12.2,8.5c-1.8-3.9-3.4-7.7-5.3-11.2c-2.1-4-2.4-7.7,3-11.1c-4.6-0.4-8.1,1.8-9.9-2.6
	c-4.8-11.5-10.2-22.7-14.8-34.3c-2.5-6.4-3.4-7.1-9.3-3.4c0.5-1.7,1.3-3.4,2.6-4.3c3-2.1,3.9-4.8,2.4-8c-1.9-4-3.9-8-6.4-11.7
	c-2.3-3.4-5.3-6.3-8-9.4c-0.3,0.2-0.7,0.3-1,0.5c-0.1,2.5-0.3,5.1-0.5,8.2c-4.3-4-6-15.4-3.8-19.7c0.9-1.8,1.6-4.2,1.1-5.9
	c-2.1-7.8-6.3-14.6-11.5-20.8c-0.6-0.7-1.9-1.5-2.6-1.3c-0.7,0.2-1.5,1.6-1.5,2.4c0,3.1,0.3,6.1,0.6,9.2c0.5,5.3,1.8,10.7,1.3,16
	c-0.6,7.4-2.4,14.7-3.8,22c-0.3,1.5-0.9,3-1.4,4.5c-0.5-0.1-1-0.1-1.5-0.2c0-2.7,0.2-5.3-0.1-8c-0.3-2.7-1-5.4-1.8-8.1
	c-1.7-5.4-1.4-10.4,0.4-15.8c1.3-3.8,1.6-8.3,1.2-12.3c-0.5-5.5,0.4-10.4,3.2-14.9c1.7-2.6,1.3-4.5-0.1-7.1
	c-2.2-4.3-3.1-9.2-5.4-13.4c-2-3.7-1.8-7-1.3-10.8c0.2-1.4-1.4-3.1-2.1-4.6c-0.5,0-1.1,0.1-1.6,0.1c-0.4,2.1-0.9,4.1-1.1,6.2
	c-0.7,7.2-2,8.3-9.1,8.7c-3.9,0.2-8.4-0.2-11.6,1.6c-6.8,3.9-11.9,9.7-12.1,18.4c0,1.6-1.3,3.2-2,4.8c-1.6-0.7-3.4-1.1-4.8-2.1
	c-8.5-6.3-16.9-12.7-25.3-19.1c-0.7-0.5-0.9-1.6-1.6-2.8c2.8-0.2,5-0.4,7.1-0.5c0.1-0.5,0.1-1,0.2-1.5c-6.6-5.3-15.5-4-23.3-7.7
	c0.1,1.7,0.1,2.4,0.2,3.1c0.1,0.7,0.2,1.4,0.2,2.1c-0.4,0.3-0.7,0.7-1.1,1c-2.4-1.9-5.3-3.6-7-6c-0.5-0.7,1.9-4,3.4-5.6
	c1.9-1.9,2.5-3.3,0.1-5.2c-1.3-1-2.7-2.2-3.4-3.7c-0.5-1-0.2-3.3,0.5-3.8c2.8-1.6,1.9-3.3,0.8-5.4c-2.4-4.3-1.8-5.9,2.5-8.5
	c4.8-2.9,9.4-6.2,14.3-9c2.7-1.6,5.7-2.5,8.6-3.7c0.4,0.5,0.8,1,1.2,1.5c-5.5,4.8-11.2,9.6-9.5,18.3c1.9-0.6,3.1-1.1,5.7-1.9
	c0,2.7,0.9,5.3,0,6.7c-2.5,3.8,0.6,5.8,2.2,8.1c0.5,0.7,3.3-0.3,5-0.6c0.9-0.1,1.8-0.5,2.7-0.7c6.4-1.7,6.2-1.6,6.8,5
	c0.4,3.9,1.6,7.8,5.8,10c0.5-0.7,1.4-1.2,1.4-1.8c0-4.3,2.6-6.6,5.9-8.7c2.3-1.5,4.4-3.3,6.3-5.3c0.4-0.5-0.6-2.3-1-3.5
	c-4.4,1.5-7.6-0.3-10.6-3.4c-0.6-0.6-2.4-0.3-3.5-0.1c-1.8,0.3-3.6,1-5.4,1.3c-1.3,0.2-2.6,0-3.9,0c0.4-1.4,0.6-2.9,1.2-4.1
	c0.8-1.5,1.9-2.8,3.5-5.2c-3.5,0.8-5.7,1.4-8,1.9c-0.2-0.4-0.4-0.8-0.5-1.2c1.1-1,2.1-2,3.2-2.9c3.9-3.5,7.7-6.9,7.9-12.9
	c0.1-2.6,0.6-4.3-2.8-4.8c-3-0.4-4.6,0-5.3,3.3c-0.6,2.6-2,4.9-3.1,7.3c-0.6-0.2-1.1-0.4-1.7-0.6c0.2-1.3,0.4-2.5,0.5-3.8
	c0.1-3.8,0.4-7.5,0.1-11.3c-0.6-5.5-2.3-10.9,0-16.4c0.6-1.3,0.1-3.1,0.1-5.9c-9.5,7.2-13.4,18.3-23.4,23c0.4-1.6,1.3-2.8,2.3-3.9
	c1.5-1.6,3.6-2.8,4.4-4.6c4.7-10.7,9.4-21.4,13.6-32.3c2.3-5.9,3.8-12.1,5.5-18.3c0.2-0.9-0.3-2.6-0.9-3c-2.5-1.5-2.1-3.3-0.6-5
	c3.2-3.5,3.9-7.6,4.1-12.3c0.2-3.9,2.5-7.7-1-11.2c-0.1-0.1,0-0.6,0.1-0.9c3.8-7.4,2.2-15.3,2.4-23.1c0-1.7-1.4-3.4-2.1-5
	c-0.5,0.1-1,0.2-1.5,0.4c-0.9,4.3-1.7,8.6-2.6,12.8c-0.7,0-1.4,0-2-0.1c-0.3-1.9-0.5-3.8-0.9-5.7c-0.2-1.1-1-3-1.2-3
	c-1.7,0.3-3.6,0.8-5,1.7c-0.5,0.3-0.5,2.3,0,3.2c2.1,3.9,4.7,7.6,6.7,11.5c1.3,2.6,2.7,5.6,2.6,8.5c0,3.3-1.5,6.5-2.4,9.7
	c-1.1,3.9-2.3,7.8-3.3,11.8c-1.2,4.9-2,9.8-3.1,14.7c-0.1,0.5-1,0.9-2.1,2c-1.4-5.2-2.1-9.4-1.3-14.4c1.1-6.8,0.3-13.9,0.3-20.9
	c0-0.2-0.7-0.4-1.5-0.8c-0.9,2.5-1.8,4.8-2.7,7.1c-0.5,0-1,0-1.5,0c-0.4-1.6-1.1-3.1-1.1-4.7c0.1-6.4,0.6-12.8,0.6-19.2
	c0-1.2-1.1-2.9-2.2-3.6c-1.3-0.9-3.2-1-5.1-1.5c-3.7,2.6-3.6,2.6-2.6,7.2c0.2,1.2-0.1,2.8-0.7,3.9c-1.7,3-2.2,5.6,0.7,8.2
	c0.7,0.6,1.1,2,1,2.9c-0.9,5.7-2.1,11.3-3,16.4c0.8,1.6,2.4,3.2,2.4,4.7c0,4.2-1,8.5-0.8,12.7c0.1,2.1,2,4.1,3,6.1
	c1.4-1.5,3.2-2.8,4.1-4.6c1.3-2.5,2-5.4,3-8.1c0.5,0.1,1,0.3,1.5,0.4c0.5,8.1-2.2,15.8-3.4,23.7c-1.2,7.8-0.3,15.9-0.3,23.9
	c-1-1.5-0.9-3.1-1.3-4.5c-0.4-1.4-1.4-2.6-2.6-5c-1.3,2.7-2.5,4.1-2.6,5.6c-0.3,6.9-0.3,13.8-0.1,20.7c0.1,3.3,1.3,6.6-1.8,9.6
	c-1.4-1.3-2.6-2.5-4.3-4c-0.4,3.8-0.3,7-1.1,10.1c-3,12.3-0.3,24.5,0.5,36.6c0.6,9.1,2.3,17.8-0.2,26.8c-1.3,4.7-1.3,9.6,2.3,14
	c2.6,3.3,2.7,7.2,1.2,11.4c-1.7,4.7-3.4,9.7-4,14.7c-1,9.8-1.3,19.6-1.7,29.5c-0.3,7.9-0.1,15.7-0.3,23.6c0,1-1.2,2-1.9,3
	c-0.5-0.9-1.5-1.9-1.5-2.8c0.1-9.8,0.3-19.6,0.4-29.5c0-3.1-0.4-6.1-0.5-9.2c-0.1-6-0.4-12,0.1-17.9c0.9-8.5-0.6-16.2-6-23
	c-0.8-1-1.3-2.2-1.9-3.3c0.3-0.4,0.7-0.8,1-1.2c2.2,1.1,4.5,2.3,8.1,4c0.1-3.9,0.7-7.4,0-10.5c-1.1-5.2-2.2-10.1-0.9-15.4
	c0.7-3.1,1-6.4,0.8-9.6c-0.2-6.3-0.9-12.5-1.3-18.8c-0.2-2.8-0.3-5.6-0.4-8.4c-0.7-0.1-1.3-0.1-2-0.2c-0.9,4.8-1.7,9.7-2.7,14.9
	c-2.4-1.4-4.5-2.7-6.6-3.7c-2.8-1.4-6.6-5.9-7.8-8.7c-1.3-3,0.1-4.4,2.6-5.2c4-1.3,8.1-2.5,12.4-3.8c0.8,0.9,1.9,2.1,3.1,3.4
	c3.3-6.3,1.2-25.4-3.8-28.4c-1.2,6.3-2.4,12.3-3.6,18.4c-0.8-0.1-1.5-0.2-2.3-0.3c0.9-13.5,1.9-27,2.8-40.9c-2,0.4-3.6,0.6-5.6,1
	c0-7.1,0-13.9,0-20.8c-1.4,0.4-2.7,0.8-4.1,1.2c0.3-0.4,0.7-0.7,1-1.1c-1.8-3.2-3.3-6.7-5.5-9.7c-2.1-2.8-2.6-5.3-0.9-8.5
	c1.8-3.1,2.2-6.3-0.3-9.5c-0.5-0.7-0.3-2-0.5-3.4c6.6,3.2,8.6,7.3,7,13c-0.8,2.8,0.4,4.6,3.9,6.3c1.4-3.3,3.6-6.2,3.8-9.3
	c0.4-7.1-0.2-14.3-0.3-21.4c0-1.2,0-2.7,0.7-3.4c2.2-2.2,2-4.4,1.2-7.2c-0.6-2.1,0-4.6-0.7-6.8c-1.7-5.8,2.5-12.4-2.5-17.8
	c-0.2-0.3-0.1-0.9-0.1-1.4c0.6-4.2,1.2-8.5,1.9-12.7c0.6-3.5,1.6-6.9-1.6-9.7c-6.2,1.5-2.9,7.6-5.8,10.9c-0.8-2.6-0.8-5.1-0.7-7.7
	c0-2.4,0.4-4.9,0.1-7.3c-0.2-1.2-1.5-2.3-2.4-3.5c-0.8,1.2-2.1,2.2-2.3,3.5c-0.6,3.9-0.8,7.9-1.1,11.8c-0.9-4.2-1.7-8.3-2.8-12.4
	c-0.6-2.6-2.6-3.6-4.9-2.4c-2.9,1.5-7.8,2-6.7,6.7c1.4,6.4,3.9,12.6,5.8,18.9c0.4,1.3,0.4,2.6,0.5,3.9c-1.4,0-2.8-0.1-4.3-0.1
	c-0.9,0-1.9,0-2.8,0c1,1.9,2.2,3.1,3.6,3.5c4.1,0.9,4.2,3.8,4.2,7.1c0,4.1,0.1,8.2,0.2,12.3c0.1,3.4,0.7,7-5.2,8
	c1.8,1.2,2.9,2.5,3.7,2.4c5-0.7,7.9-5,7.5-10.3c-0.2-2.3-0.8-5.1,0.2-6.8c2.6-4.5,2.6-9.1,1.7-13.9c-0.2-1.1,0-2.2,0-3.3
	c0.5,0,1.1,0,1.6-0.1c0.3,7.8,0.5,15.6,0.8,23.4c0.6,0.1,1.1,0.2,1.7,0.2c1.2-1.9,2.5-3.7,4.4-6.7c5,11.6-2.9,21.7,0.8,32
	c-0.5,0-1,0.1-1.6,0.1c-1.1-4.1-2.2-8.3-3.6-13.5c-2.3,2.6-3.3,4.3-4.8,5.3c-4.7,3.2-5.8,7.5-5.5,13.1c0.3,5.1-1.2,10.4-1.9,15.5
	c-0.4,0.2-0.7,0.5-1.1,0.7c-0.3-0.7-0.9-1.4-0.9-2.1c-0.2-5.8-0.7-11.6-0.4-17.4c0.2-3.8,1.3-7.4-1.8-11.6c-0.9,2.9-2.1,4.9-2,6.9
	c0.2,5.4-2.7,9-5.9,13c-4.8,5.8-8.8,12.1-13,18.4c-0.6,0.8-0.6,2.9,0.1,3.5c4.7,5,9.6,9.9,14.6,14.6c1.2,1.1,3.9,2.2,4.9,1.6
	c1.5-1,3.4-3.8,3-5c-1.3-3.9-3.2-7.8-5.9-10.9c-2.3-2.7-5.9-4.3-9-6.4c0.1-0.4,0.3-0.8,0.4-1.1c1.6,0.4,3.6,0.3,4.7,1.3
	c4.1,3.4,8.1,7,11.6,10.9c2.2,2.4,3.3,6,5.6,8.3c5,4.8,1.9,9.8,0.9,14.7c-0.9,4-4.7,4-7.8,4.3c-3.3,0.3-4.3,1.5-3.1,4.8
	c3.4,9.2,6.2,18.6,9.8,27.7c4.6,11.5-1,22.9,0.4,34.3c0,0.3-0.3,0.6-0.3,0.9c-1.2,7.7-3.6,15.5-3.3,23.1c0.2,6.1,0.9,12.1-1.6,17.6
	c-2.4,5.2-0.8,9.5,1.1,14c0.8,1.8,2.2,3.4,2.7,5.3c0.5,1.6,0.4,3.6,0,5.3c-1.7,6.9-3.9,13.8-5.2,20.8c-1,5-0.1,10.3-1.5,15.1
	c-3.4,11.4-4.5,22.9-4.3,34.7c0,1.9-0.8,3.8-1.2,5.7c-0.6,0-1.2,0-1.9-0.1c-0.3-1.5-0.7-2.9-0.8-4.4c-0.2-4.1,0.1-8.3-0.5-12.4
	c-1.3-8.3-0.8-16.2,2.3-24.1c1.5-3.9,2.5-8.2,2.7-12.4c0.5-8.1,0.4-16.2,0.5-24.2c0.1-9.4-0.2-18.8,0.3-28.2
	c0.7-15.2,1.9-30.3,2.8-45.5c0.1-1.4-0.8-2.9-1.3-4.4c-0.7,0.1-1.4,0.3-2,0.4c0,1.7,0.1,3.4-0.1,5c-0.1,1.1-0.7,2.1-1.1,3.1
	c-0.9-0.8-2.5-1.6-2.6-2.5c-0.2-3.2,0.1-6.4,0.4-9.5c0.2-2.6,1.3-5.2,1-7.7c-0.8-7.3-2-14.6-3.2-21.9c-0.5-2.8-1.9-5.1-5.7-5.8
	c0,1.8-0.1,3.1,0,4.4c0.5,4.4,1.2,8.8,1.5,13.3c0.1,1.2-1.1,2.5-1.7,3.7c-1-1.2-2.5-2.2-2.9-3.5c-0.7-2.8-0.6-5.8-1.2-8.7
	c-1.6-7.8-3.3-15.5-5.2-23.2c-0.3-1.1-2-1.9-3.1-2.8c-0.8,1.2-2.3,2.5-2.1,3.6c1.4,10.3,2.9,20.5,4.8,30.7c0.4,2.3,2.9,4.1,3.8,6.4
	c1.5,3.7,4,4.8,7.6,3.2c1.2-0.5,2.6-0.6,4-0.9c0.2,1.8,0.7,3.7,0.3,5.3c-0.3,1-2.2,1.4-3.3,2.2c-1.4,1-3.5,1.9-3.9,3.2
	c-1,3.2-1.1,6.7-1.7,10c-0.2,1.2-0.8,2.2-1.2,3.4c-0.5-0.1-1-0.1-1.5-0.2c-0.3-3.2-1.1-6.5-0.8-9.6c0.7-5.9-6.2-10.3-3-16.6
	c0.2-0.4-1-1.5-1.5-2.3c-0.4,0-0.9,0-1.3,0.1c-0.5,2.8-1.2,5.5-1.5,8.3c-0.2,2.6,0.1,5.2-0.1,7.9c-0.1,0.9-1,1.7-1.5,2.5
	c-0.7-0.5-1.8-0.9-2-1.6c-0.7-2.9-1.9-6.1-1.5-8.9c1.1-7.6,2.6-15.1-2.6-22c-1.3-1.7-2.4-3.7-3.1-5.7c-0.8-2.2-1-4.6-1.5-6.9
	c0.4-0.1,0.9-0.2,1.3-0.3c1.3,1.9,2.7,3.7,4,5.6c0.4-0.1,0.9-0.2,1.3-0.3c0-1.4,0.1-2.8,0-4.1c-0.6-4.7-1.9-9.5-1.9-14.2
	c0.1-8.9-5-13.2-12.6-15.3c-3.7-1-6-2.6-6.5-6.7c-0.1-1.2-1.7-2.1-2.7-3.2c-0.4,0.3-0.8,0.7-1.2,1c0.3,1.7,0.7,3.3,1.1,5.3
	c-1,0.1-1.6,0.2-2.2,0.3c-2.1,0.3-5.5-0.2-6.1,0.9c-1.3,2.3-1.8,5.5-1.2,8.1c0.6,2.9,2.6,5.5,4.4,8c4.8,6.7,11.1,12.6,9.1,22.1
	c-0.2,1,0.2,2.2,0.6,3.2c2,5.1,0.8,9.9-1.1,14.8c-0.5,1.4-0.3,3.1-0.4,4.6c1.5-0.5,3-0.9,4.4-1.6c0.8-0.4,1.2-1.4,1.9-2
	c2.5-2.3,5.1-4.6,7-6.3c1.8,4.2,3.4,7.8,4.8,11.5c0.5,1.3,0.5,2.8,0.8,4.1c-1.4-0.1-2.8-0.1-4.1-0.4c-7.7-1.7-15.6-5.8-22.7,1.9
	c-0.7,0.7-3.6,0.5-4.3-0.3c-2-2.5-3.7-2.3-6.3-0.9c-5.6,3.1-11.5,5.9-17.2,8.9c-3.4,1.8-5.8,4.2-4.6,8.5c0.6,2.2,1.4,4.4,1.7,6.6
	c0.2,1-0.6,2.2-0.9,3.3c-1-0.4-2.2-0.6-3-1.3c-0.8-0.7-1.4-1.8-2-2.7c-0.4,0.1-0.8,0.2-1.2,0.3c0,3.7,0.2,7.4,0,11.1
	c-0.3,5.8-0.7,11.6-1.3,17.4c-0.3,3.1-1.7,6.2-1.7,9.4c-0.1,2.8,1.1,5.7,1.6,8.5c2,13.1,0.4,26-3.1,38.7c-0.7,2.6-1.9,5.1-2.9,7.6
	c-0.5-0.1-1.1-0.2-1.6-0.3c-0.2-2.2-0.8-4.5-0.5-6.6c0.5-3.8,2.1-7.4,2.4-11.2c0.6-7.4,1.2-15,0.6-22.3c-1.2-13.9-5-27.5-0.9-41.6
	c2-6.8,1.5-14.2,3-21.2c1.9-9,2.2-9.8-6.7-9.1c-8,0.6-16.1,2.7-23.5,5.7c-4.3,1.7-8.1,3.9-12.9,3.8c-1.8,0-4.1,0.8-5.4,2.1
	c-5.9,5.8-12.4,11.3-17.1,18c-4.3,6.3-10.1,12.7-8.4,21.6c0.1,0.7-0.6,1.5-0.9,2.3c-0.4-0.1-0.8-0.1-1.2-0.2
	c-1.5-6-1.1-11.9,2.1-17.6c3.1-5.5,6.3-10.9,10-17.5c-3.9,2.1-6.6,3.6-9.3,5.1c-2.3,1.2-5.2,1.8-6.7,3.6c-3.5,4.2-6.4,8.8-9.2,13.4
	c-2.3,3.8-3.8,4.4-7.9,2.3c-1.1-0.6-2.6-0.5-4-0.8C63,755.7,63,754.8,63,753.9z M368.3,664.2c1,7.5,6.6,14.3,12.4,15.1
	c0.1-0.4,0.3-1,0.1-1.3c-3.1-4.3-6.1-8.6-9.4-12.8c-0.6-0.7-2.2-0.6-3.3-0.9c0.2-1.9,0.4-3.8,0.6-5.6c-1.9,0.1-2.4,0.7-3,1
	c-1.2,0.7-2.4,1.2-3.6,1.8c0.1-1.2,0.1-2.6,0.5-3.7c2.3-6.6,1.5-8.2-5.6-10c-1.3-0.3-3.4-1.7-3.3-2.3c0.7-4.6,1.7-9.1,3-13.5
	c0.9-3.2,1.2-6.1-1.3-9.2c-1.8,3.6-3.3,6.8-5,9.8c-2.6,4.6-3.4,9.4-3.1,14.6c0.3,4.4-0.5,8.9-0.6,13.3c-0.1,4.7,0,9.3,0,15.4
	c5.4-3.6,9.3-6.5,13.5-8.9C362.7,665.7,365.6,665.1,368.3,664.2z M280.6,423.4c1.5,6.4-1.1,11.1-5.1,15.8c-5.1-4.4-3.6-9.7-2.5-14.2
	c1.4-5.6,0.2-10.7-1.2-15.8c-0.2-0.8-1.4-2-2.1-1.9c-4.1,0.5-3.7-2.2-3.5-4.7c0.3-4.1,0.6-8.2,0.8-12.3c0.3-6.4-0.7-13.3,1.2-19.2
	c2.7-8.7,7.5-16.8,11.4-25.1c2.7-5.8,5.4-11.7-0.3-17.4c-0.6-0.6-0.4-1.8-0.6-2.8c3.7,3.5,7.7,6.7,6,12.2c-0.9,2.8-2.4,5.4-3.1,8.2
	c-1.7,6.7-3.9,13.4-4.4,20.2c-0.5,6,0.9,12.1,1.6,18.2c0.6,5.7,2.5,6.7,7.5,4.3c0.6-0.3,1.4-0.3,3.5-0.7c-1.3,1.9-1.8,3.1-2.7,3.7
	c-3.1,2.4-2.8,4.8-0.4,7.4c1.3,1.3,2.7,2.5,4.1,3.8c4.7,4.5,9.2,9.3,14.2,13.5c1.2,1,4.2,1,5.6,0.2c12.1-6.5,19.7-17.3,26.4-28.8
	c2.1-3.7,3.6-7.9,4.5-12c1.3-6.1,1.7-12.4,2.4-18.6c0.1-1.2-0.1-2.5-0.3-4.8c-3.1,3.1-5.5,5.5-7.8,7.8c-0.4-0.3-0.7-0.6-1.1-0.9
	c0-1.5,0-2.9,0-4.3c-8.2-2.2-4.9-10.4-8.8-15.9c-1.1,4.1-1.7,7.6-3.1,10.7c-1.3,3-3.5,5.6-5.3,8.4c0.1-8.4,0.4-16.4,1.7-24.2
	c1.2-6.7,1.4-7.1-5.3-5.8c-4.8,1-10,1.9-12.2,7c-3.3,7.5-5.2,15.4-5.2,23.7c0,3.8-0.3,7.8,0.3,11.5c0.6,3.5,1.9,7,3.5,10.2
	c0.3,0.7,3.1,0.9,4.3,0.4c3.4-1.6,6.5-3.8,10.3-6c-1.7,4-11,9.1-14.2,8.4c-0.4-0.1-0.9-0.3-1.3-0.5c-5.4-3.4-9-12.6-7.8-19.2
	c0.4-2.2,0.7-4.6,0.5-6.8c-0.3-4.4-0.8-8.7-1.4-13.1c-1.1-8.7,2.7-15.9,7-22.8c4.1-6.4,4-10.9-1.5-16c-2.2-2.1-2.6-4.1-1.5-7
	c3-7.8,5.7-15.8,8.4-23.7c0.9-2.7,0.2-4.9-2.9-6.3c-2.6-1.2-4.8-3.2-7.1-5c-7.3-6-14.6-12.1-21.8-18.2c-1.7-1.4-3.3-1.4-3.8,0.9
	c-0.8,3.9-1.3,7.8-1.7,11.8c-0.5,6.3,0.4,12.8-1.4,18.7c-1.9,6.6-0.2,12.7,0,19c0.2,4.8,0.9,9.6,1.3,14.4c0.4,5,0.8,10,1.2,15.1
	c0.2,3.3,0.3,6.7,0.3,10.1c0,4.6-0.1,9.1-0.4,13.7c-0.4,5.5-0.9,10.9-1.6,16.3c-0.6,4.5-1.5,9-2.3,13.5c-0.2,1.1-0.3,2.2-0.4,3.3
	c-0.4,0-0.9-0.1-1.3-0.1c0.3-4.6-0.2-9.4,0.9-13.8c1.5-6.4,1.2-12.5-0.2-18.7c-0.7-3-0.7-6.1-1.3-9c-1.3-5.9-1.7-12.4-4.5-17.6
	c-3.2-6-2.7-10.2,0.6-16c4-7.1,7.1-15.6,2.9-23.3c-5.7-10.5-5-20.2,1.1-29.6c4.4-6.7,1.8-12.5-0.8-18.5c-0.7-1.6-2.7-3-4.4-3.5
	c-5.6-1.6-10.9-3.4-14-8.8c-0.4-0.7-1.4-1.3-2.2-1.6c-6.1-2.1-12.2-4.2-18.3-6c-1-0.3-3.2,0.5-3.4,1.1c-1,4.2-2.2,8.4-2.2,12.6
	c0,7.3,2.3,14.3,2,21.8c-0.3,7.6,2.9,15.2,4.5,22.9c0.6,2.7,1,5.4,1.2,8.2c0.8,8.6,0,17.4,6.4,24.8c2.6,3,4.1,6.5,10,3.1
	c-4.6,6.1,0.8,6.8,2.6,9.3c0.9,1.3,1.9,2.5,2.9,3.8c-0.5,0.4-1,0.8-1.5,1.2c-0.6-0.9-1.1-2-1.9-2.6c-0.8-0.6-2.1-0.7-3.1-1
	c0.1,1.1,0.2,2.1,0.4,3.2c0.3,1.2,0.7,2.4,1,3.5c-5.1-11.3-9.5-17.2-17.8-21.9c-0.6,5.3-2.2,10.5-1.2,15c1.1,5,2.9,10.3,7.9,13.7
	c1.4,1,2.9,3.6,2.6,5.2c-1.3,9,3.4,14.4,10.1,18.9c2.1,1.4,2.9,3.3,0.7,5.8c-0.7,0.8-0.2,3,0.4,4.3c1.5,3.3,4.1,6.3,4.9,9.7
	c1.7,7.8,3.6,15.2,9.8,20.9c0.7,0.6,0.4,3.3-0.4,4.4c-1,1.4-2.8,2.5-4.5,3.1c-1.2,0.4-3.1,0.2-4.2-0.5c-3.6-2.3-6.9-5.2-10.6-7.5
	c-2.7-1.7-3.5-3.4-0.6-5.1c3.1-1.8,2.8-3.8,1.6-6.5c-1.9-4.7-3.7-9.4-5.1-14.3c-1.7-5.7-6.5-8.4-11-12.9c0.3,4.1,0.9,7,0.6,9.8
	c-0.7,9.4-1.5,18.9-2.7,28.3c-0.2,1.5-2.1,2.7-3.3,4.1c-0.6,0-1.1,0-1.7-0.1c2.2,3.7,4.5,7.4,7.2,12c1.7-4.1,0.5-8.5,6.4-9
	c-3.9,8.6-0.7,14.3,6.8,18.2c10.7-11.1,20.4-16.1,26-13.1c-0.6,0.7-1.1,1.5-1.8,2c-3.6,2.6-7.2,5.2-10.9,7.7
	c-5.9,3.9-6.7,5.8-5.3,12.6c0.4,2.1,1,4.2,1,6.4c0.2,8.2,0.3,16.5,0.3,24.7c0,1-0.3,2.1-0.5,3.1c-0.3,0-0.7,0-1,0
	c-1.8-8.4-3.7-16.8-5.5-25.2c-0.6,0-1.3,0-1.9,0c-1.2,5.1-2.8,10.2-3.3,15.4c-0.4,5,1.9,10.3-3,14.4c-0.1,0.1,0.1,0.6,0.2,1
	c2.9,0.3,5.8,0.6,8.7,1c0.1,0.5,0.2,1,0.3,1.4c-4.2,2-5.8,4.5-2.3,8.2c0.5,0.5,0.6,1.5,0.5,2.2c-0.4,3.8,1.1,6.2,4.8,7.3
	c0.8,0.3,1.5,1.3,2.4,2.2c-1.7,1.4-3.1,2.4-4.3,3.4c1.5,2.7,2.8,5.1,4.3,7.4c1.5,2.3,3.4,4.2,4.9,6.5c6.8,10.8,14.4,8.1,21.4-0.6
	c-2.7-1.3-5.3-2.6-7.9-3.8c0.2-0.5,0.4-1,0.5-1.5c3.2,0.6,6.4,1.1,9.6,1.8c4.8,1.1,5.4,0.5,5-4.2c-0.1-1.3,0.4-2.7,0.6-4.1
	c0.4,0.1,0.9,0.1,1.3,0.2c0.4,2,0.2,4.5,1.3,5.9c1,1.2,3.5,1.2,6.1,1.9c-0.9-2.9-1.3-4.3-1.9-6.4c3.9-0.1,7.7,0.8,9.4-4
	c1.2-3.4,5-5.8,4.5-10.2c-0.9-6.9-1.4-13.9-2.5-20.8c-0.2-1.5-2.1-3.2-3.6-3.9c-4.2-1.8-6.3-5.1-8.2-8.9c-0.8-1.5-1.8-2.9-2.8-4.4
	c-0.4,0.1-0.8,0.2-1.2,0.4c0,1.2-0.4,2.7,0.1,3.7c2.5,4.6,4.1,9.9,9.5,12.6c1.6,0.8,2.6,3,3.5,4.8c0.8,1.9,0.8,4.1,1.7,6
	c2.3,5,0.6,13.1-3.5,15.5c-0.3-0.4-0.7-0.7-0.8-1.1c-2-8.5-6.7-15.5-11.8-22.3c-1-1.3-1.1-3.3-1.8-4.9c-0.6-1.4-1.3-2.8-2-4.1
	c-1.1,1.2-2.6,2.3-3.2,3.7c-3.3,7.5-1.9,15.3-1.3,23.1c0.4,4.9-0.2,9.8-0.7,14.7c-0.1,0.8-1.5,2.1-2.3,2.2c-0.9,0-2.5-1.1-2.6-1.8
	c-0.5-6.1-1.8-12.4-0.7-18.2c1.4-7.1,1.7-13.9,0.5-21c-0.3-1.5,0.9-3.4,1.7-4.9c1.6-2.7,4.1-5.1,2.4-8.7c-1.3-2.7-2.7-5.4-4.2-8
	c-0.5-0.9-1.8-1.6-2.9-1.7c-0.5-0.1-1.6,1.4-1.6,2.3c-0.4,7.8-0.4,15.7-1.2,23.4c-0.4,3.3-2.5,6.5-3.9,9.7c-0.5-0.2-1.1-0.4-1.6-0.6
	c0-2.7,0.2-5.4,0-8.1c-0.8-12.2,1.7-24,4.2-35.8c0.5-2.6-0.8-5.5-0.9-8.2c-0.1-1.5,0.2-3.4,1.2-4.4c1.5-1.6,3.7-2.6,6.7-4.6
	c1,2.4,2.6,5,3.3,7.8c1.5,6.2-1.3,12.8,2.3,18.9c1.8,3,3.9,5.5,7.1,4.4c2.2-0.8,3.8-3.7,5.4-5.9c0.8-1.2,0.5-3,1.3-4.3
	C287.2,428.1,286.6,426.3,280.6,423.4z M697.8,374.1c-0.1,7-0.1,7,5.2,11.7c0.5,0.4,0.8,1.1,1.4,1.2c2.9,0.8,5.8,1.7,8.7,2.2
	c1.9,0.4,3.8,0.3,5.7,0.5c-1.5,1.1-3.1,2.1-4.6,3.2c-0.3,0.2-0.5,0.3-0.8,0.4c-5.5,2.6-6.3,5.6-3.2,10.9c0.3,0.5,0.2,1.3,0.4,2.9
	c-2.2-1.3-3.8-2.2-5.2-3.1c-3.3-2-6.8-0.9-8.1,2.7c-0.4,1.1,0,2.5-0.3,3.6c-1.6,6.5-3.4,13-5.1,19.5c-0.4,0-0.9,0.1-1.3,0.1
	c0-5.9,0-11.9,0-18.8c-5.3,3-5,9.2-10.1,10.2c-0.2,0-0.3,1.5-0.2,2.2c1.1,10.3-3.1,21.1,2.7,31.1c0.2,0.4,0.1,0.9,0.2,1.4
	c0.4,3.5,2.6,4.1,4.6,2c2.4-2.5,3.9-5.9,5.8-8.9c0.5-0.8,1-2.4,1.6-2.5c5.1-0.6,3.8-3.9,3.1-6.8c-0.7-2.7-0.9-4.8,3-5.1
	c0.8-0.1,2.1-2.1,2.2-3.3c0.3-6,0.2-12,0.4-17.9c0-2,0.3-3.9,0.5-5.9c1.5,1.7,3.1,3.4,4.6,5.2c0.3,0.3,0.2,0.9,0.2,1.3
	c1.5,10.5,3.2,21,4.6,31.5c0.2,1.6-0.5,3.4-0.8,5.1c-0.5,0-0.9,0-1.4-0.1c-1.1-2.3-2.3-4.5-3.7-7.5c-3.1,19.2,1.7,37.8-3.8,55.9
	c-0.8-6.3-0.4-12.6-0.9-18.9c-0.5-6.3-1.9-12.5-3-18.7c-6.7,1.3-2.8,6.1-3.9,9.8c-7.9-4.2-10.4,1.1-13.1,6.8
	c-1.1,2.3-2.9,4.3-4.7,6.2c-1.6,1.7-1.9,3-0.4,5.2c1.5,2.2,2.3,4.9,3.3,7.4c-0.4,0.2-0.7,0.5-1.1,0.7c-1.6-0.9-3.1-1.8-4.8-2.8
	c-3.6,5.8,0.2,11.1,0.6,16.6c-1.6-0.8-2.6-1.8-3.2-3c-1.7-3.4-3.4-6.8-4.7-10.4c-1.4-3.9-2.4-7.9,0.3-11.9c2.2-3.5,4.2-7.2,5.9-11
	c3.3-7.5,2.8-8.9-3.4-14.2c-3-2.5-4.9-1.9-5.4,1.7c-1,6.5-1.6,13-2.4,19.6c-0.2,2-0.5,3.9-0.8,5.9c-0.7,0-1.4,0-2.2-0.1
	c-0.2-8.7-0.5-17.3-0.7-26c-0.5,0-1,0-1.5,0c-1.7,6.5-5.5,12.5-2.4,19.9c0.7,1.6-0.3,3.9-0.5,5.8c-0.5-0.1-1-0.1-1.4-0.2
	c-0.2-0.9-0.1-2-0.6-2.5c-1.3-1.2-2.9-2.1-4.3-3.2c-0.7,1.4-1.9,2.8-2.1,4.3c-0.3,1.9,0.2,3.9,0.4,5.8c7.6,1,8.1,1.8,4.5,7.8
	c1.7,1.3,3.7,2.3,5,3.9c1.4,1.7,2.5,3.8,3.1,5.9c1,3.3,1.2,6.9,2.3,10.2c2.4,7.3,3.2,14.2-1.2,21.3c-2,3.2-3.1,7-3.7,10.8
	c-0.6,3.7,1,6.9,5.1,8.3c0.2-1.5,0-2.8-0.7-3.9c-3.1-5.1-2.2-8.3,3.8-11.2c0,1.8-0.7,4.2,0.1,5.2c3.2,3.7,6.9,6.9,10.5,10.3
	c0.1,0.1,0.5-0.1,1.7-0.4c-1.2-1.8-2.3-3.3-3.2-4.9c-4-6.6-13.1-12.1-4.3-21.3c0.7-0.7,0.6-2.1,1-3.1c0.4-1,1-2,1.6-3
	c0.5,0,1,0.1,1.6,0.1c0.3,3.2,0.8,6.4,0.7,9.6c-0.2,4.8,1.9,8,5.6,11.1c3.1-4.2,5.9-7.9,4.4-13c-0.9-3.1,0.3-4.6,3.2-6
	c5.2-2.6,9-6.4,8.2-13.1c-0.2-1.2,0.4-2.8,1.2-3.8c4.8-6.1,9.6-12.4,14.9-18c2.3-2.4,3.3-4.6,2.8-7.7c-0.4-2.4-0.6-5-1.3-7.3
	c-1.2-3.5-0.2-5.1,3.4-5c3.3,0.1,4.6-1.7,5.3-4.6c0.6-2.5,1.1-5.6,2.8-7.1c3.2-2.8,4-6,4.1-9.8c0.1-4.5,1.9-7.9,6.1-10.1
	c1.2-0.6,2.1-2.5,2.5-4c0.9-3.6,1.3-7.2,2-10.9c1-4.9,2.6-9.8,2.9-14.7c0.2-3.6-1.3-7.2-2.1-11.2c1,0,1.7,0.1,2.4,0
	c3.7-0.5,7.5-0.7,11-1.8c1.2-0.4,2.9-3.8,2.4-4.4c-2.3-3.4-1.8-6.7-1-10.2c0.2-1-0.3-2.3-0.5-3.4c-1.1,1.5-1.2,2.8-1.5,4.2
	c-0.3,1.4-0.9,2.7-1.3,4.1c-0.5,0-1.1-0.1-1.6-0.1c0-3.7-0.4-7.5,0.1-11.1c0.6-4.3-1.9-9.9,4.4-12.3c0.6-0.2,0.6-1.7,1.1-2.5
	c3.5-6.4,3.8-13.4,5-20.4c1.3-7.5,0.1-13.7-4.4-19.8c-1.9-2.5-2.3-6-0.3-9.1c0.7,1.2,0.7,2.6,1.1,3.7c0.5,1.5,1.3,2.9,2,4.4
	c1.6-1.1,3.7-1.8,4.7-3.2c1-1.5,1.4-3.9,1.1-5.8c-0.9-6.2-2.3-12.4-3.2-18.6c-0.4-2.9-0.8-6.4,0.4-8.9c2.8-6,2.1-10.6-3.3-14.5
	c-1-0.7-1.8-1.6-2.6-2.6c-2-2.4-3.5-2.2-5.3,0.5c-5.2,8-15.1,9.6-21.9,15.6c-0.4,0.3-1.2,0-1.8,0.3c-1.7,0.7-4.3,1.1-4.7,2.2
	c-0.6,1.7,0.2,4,0.8,5.9c0.5,1.5,2.4,2.7,2.5,4.2c0.7,5.7,1.9,11.6,1.3,17.3c-0.9,8.4-2.2,16.5,3,24c0.4,0.6,0.2,1.6,0.5,2.2
	c1,2,1.6,4.5,3.3,5.8c7.1,5.6,7.1,13.1,6.4,20.9c-0.2,2.5-1.4,5-2.1,7.4c-0.5-0.1-1-0.3-1.5-0.4c0.6-4.4,2.5-9.1,1.4-12.9
	c-1-3.7-5.2-6.5-8.5-10.2c-0.9,1.8-1.5,2.5-1.5,3.1c-0.7,6.1-1.2,12.2-2.2,18.3c-0.4,2.3-1.7,4.4-2.6,6.7c-0.5-0.2-1-0.4-1.5-0.6
	c0.2-1.2,0.1-2.4,0.5-3.5c2-5.2,2.2-10.5,0.8-15.9c-0.3-1.3-0.6-2.9-0.2-4.1c2.3-8.7-0.4-17.1-1.7-25.6c-1-6.6-2.1-13.2-2.8-19.9
	c-0.3-2.5,1.2-5.5,0.4-7.7c-1.2-3.5-3.6-6.7-5.7-9.9c-0.2-0.3-2,0.1-2.8,0.5c-6.3,3.4-12.8,6.6-18.7,10.5c-5,3.3-9.6,7.5-9.8,14.1
	c-0.5,13.9-0.7,27.9-1,41.9c-0.1,7.2,3.8,12.3,9,16.6c0.7,0.6,2.7,0,3.8-0.6C695.7,376.4,696.7,375.1,697.8,374.1z M365.6,463.5
	c-2.6-3.9-3.5-7.5-3.2-11.6c0.1-1.5-1.5-3.1-2.3-4.6c-0.8,1.5-2.6,3.1-2.4,4.4c1.7,9,3.9,18,5.9,26.9c1.1,4.9,2.8,9.8,3,14.7
	c0.2,6.1-0.7,12.3-1.7,18.3c-0.7,3.8,1,5.2,4.1,5.7c1.6,0.3,3.4-0.1,5.1,0.1c3.3,0.4,6.5,1,9.8,1.6c-0.1,0.4-0.1,0.9-0.2,1.3
	c-4.8,0.8-9.6,1.3-14.3,2.5c-1.9,0.5-4.9,2.1-5,3.4c-0.3,4.6,0.2,9.2,0.9,13.8c1,6.5,2.4,12.8,3.5,19.3c0.2,1-0.5,2.1-0.5,3.2
	c0.2,5.8-0.5,12,1.1,17.5c2.7,9,1.1,17.7,1.4,26.6c-0.6,0.2-1.2,0.3-1.8,0.5c-1.1-3.6-2.2-7.3-3.3-10.9c-1.1,1.8-1,3.8-1.9,5.2
	c-3.3,5.7-2.6,11.7-2.4,17.9c0.2,5.3-0.8,10.6-1.4,15.9c-0.2,1.9-4.3,3-1.3,5.6c1.2-1.8,2.8-3.6,3.7-5.6c0.9-1.9,1-4.2,1.6-6.3
	c0.4-1.5,1.1-2.9,1.7-4.3c0.7,0,1.4,0,2.1,0c-4.5,9.4,3,16.2,3,24.4c4.4,0.6,7.1-5.2,11.1-2.1c-2.1,3.1-4.1,5.9-5.8,8.8
	c-0.5,0.9,0.3,2.4,0.5,3.7c1.1-0.2,2.3-0.3,3.4-0.7c1.3-0.5,2.4-1.4,3.9-2.2c0.3,1.1,0.7,1.7,0.6,2c-3.5,6.8-4.5,13.6-0.3,20.6
	c0.1,0.1,0.1,0.3,0.1,0.5c-0.1,4.2,2,6.9,5.8,8.6c2.4,1.1,3.2,2.9,2,5.6c-1,2.2-1.1,4.7-1.7,7.1c1.8-0.3,2.6-0.7,3-1.5
	c3.8-6.4,8.6-9.7,16.1-5.6c0.6,0.3,1.5,0.2,2.3,0.2c3.3,0,5,1.6,6.1,4.6c0.6,1.6,1.8,3,3.3,5.4c2-4.9,4.3-8.3,4.7-11.9
	c1.1-10.2,1.6-20.5,1.9-30.8c0.3-10.7,0.3-21.4,0.2-32.2c0-1.8-1.4-3.6-2.2-5.3c-2.2,1.7-4.7,3.1-6.6,5.1c-0.8,0.8-0.3,2.7-0.7,4
	c-0.3,1-1.1,1.8-2.1,3.3c-1.1-2.3-1.8-3.7-2.5-5.2c-4,1.3-5.1,3.7-4.4,7.5c0.6,3.3,0.7,6.9,0,10.1c-0.7,2.7-2.9,5.1-4.9,8.4
	c0-7.2,0.1-12.8-0.1-18.4c0-1-0.9-2.9-1.4-2.9c-1.2,0-3.1,0.6-3.4,1.5c-1.9,5-4.4,10-4.7,15.2c-0.6,9.3,0.2,18.7,0.2,28.1
	c0,1-1.1,2-1.7,3c-0.8-0.5-2.2-0.9-2.3-1.6c-0.8-4-2.2-8.2-1.9-12.2c0.6-7.6,2.1-15.2,3.4-22.8c1.3-8-3.2-19.3-9.8-23.4
	c-1.4,4.9-2.8,9.7-4.1,14.5c-0.6,0-1.2,0-1.8-0.1c0-4.8-1.5-10.3,0.3-14.3c3.2-7,3.1-13.3,1.2-20.4c-1-3.6,0-8.1,1.1-11.9
	c1.2-4.3,2.5-8.9,6.8-11.7c0.5-0.3,0.9-1.4,0.8-2.1c-0.6-9.8,0.2-20-2.4-29.2c-1.6-5.6-2.1-8.8,0.8-14.2c5.7-10.5,3.8-22.3,1.7-33.7
	c-0.6-3.4-0.1-7.1,0-10.7c0-1.5,0.2-2.9,0.3-4.4c-2.6,4.7-4.7,9.3-5.6,14.2c-2.2,12.5-2,12.6-5.7,14.5c1-5.5,1.8-10,2.7-14.6
	c0.5-2.5,1.7-5.2,1.2-7.6c-1.1-5.4-0.9-10.6,0.3-15.9c0.3-1.3,0-3.8-0.8-4.2c-5.1-2.6-3-7.1-3.4-11c-0.4-3.7-0.3-7.6-1.2-11.1
	c-1.2-4.3-3.2-8.4-5.3-13.4c6.3,1.7,7.6-3.1,10.4-5.6c1.1-1,1.4-2.9,2.1-4.4c-2,0.1-4.3-0.3-5.8,0.6c-2.4,1.5-4.1,4.1-6.3,6
	c-5.5,4.8-6.8,10.9-4.2,17.7C367.5,454.4,369,458.7,365.6,463.5z M713.6,655.6c-0.7,0-1.5,0.1-2.2,0.1c-0.4,4.9-0.7,9.8-1.3,14.7
	c-0.5,4.3-1.3,8.7-2,13c-0.8,5.2-1.7,10.4-2.3,15.7c-0.1,0.6,1.3,1.7,2.2,2c8.6,3.1,17.1,6,25.7,9c12.8,4.3,25.7,0.7,38.5,0.1
	c0.9,0,2.4-1.7,2.4-2.7c0.5-7.3,2.4-14.5,0.5-21.9c-0.8-3.2-0.2-6.7,0.1-10.1c0.8-8-0.5-15.6-4.2-22.7c-0.7-1.3-2.3-2.1-3.5-3.2
	c-0.5,1.6-1.3,3.1-1.5,4.8c-1.3,7.2-2.4,14.4-3.6,21.6c-0.1,0.3-0.7,0.5-1.2,0.9c-0.4-0.5-1.2-0.9-1.2-1.3
	c0.2-9.4-2.2-18.9,1.2-28.4c3.2-8.7,5-17.7-0.5-26.7c-2.1,0.2-5.2-1.3-5.9,3c-1.1,6.6-2.4,13.2-3.7,19.7c-0.1,0.7-0.9,1.3-2,2.9
	c-2.5-7.6-4.3-14.2-0.6-20.8c2.1-3.8,2.3-7.4,1-11c-2.2-0.4-4.8,0-5.8-1.1c-2.4-2.5,0.1-7.8,3.6-8.8c1.2-0.3,2.7-1.3,3-2.3
	c1-3,1.4-6.2,2.2-9.4c0.3-1.3,0.8-2.6,1.2-3.9c0.6,0,1.3-0.1,1.9-0.1c0.8,3.1,1.8,6.1,2.3,9.2c0.8,4,1,8.2,1.9,12.2
	c0.3,1.4,1.8,2.5,2.8,3.8c1.1-7.4,1.1-14.2,1.1-21.1c0-3.6-0.9-7.2-4.9-7.9c-7.2-1.3-11.5,3.1-11.2,10.5c0.1,2.4-0.8,4.8-1.3,7.2
	c-0.5-0.1-1-0.2-1.5-0.2c-0.5-2.3-1-4.7-1.5-7c-0.6,0-1.1-0.1-1.7-0.1c-0.2,4.9,1.4,10.4-3.9,14.4c-0.6-3.5-1.2-6.6-1.7-9.6
	c-0.6,0-1.3-0.1-1.9-0.1c-0.1,7.7-2.9,14.1-7.9,20.3c0-1.8-0.1-2.8,0-3.8c0.4-3.2,1.3-6.3,1.3-9.4c-0.1-4.5-4.6-3.6-7-5.2
	c-1.3-0.9-1.5-3.6-2.1-5.5c1.5,0.1,3.3-0.3,4.5,0.3c2.8,1.6,4.4,0.3,5.7-1.9c1.2-2.1,2.4-4.3,3.2-6.6c1.7-4.8-1.8-10.6-5.9-9.7
	c-2.7,0.6-5.6,1.8-7.8,3.5c-1.4,1.1-2.4,3.5-2.4,5.3c0,3.7,0.8,7.3-3.1,8.4c0.7,3.3,1.4,6.2,2,9.1c0.5,2.4,0.7,4.9,1.5,7.2
	c0.7,2.3,0.9,4-1.6,5.5c-0.8,0.5-1.1,2.5-1,3.8c0.2,3.1,1.1,6.2,1,9.3c-0.1,3.2,1.2,4.3,4,4.2c5.4-0.1,9.6-3.2,11.5-8.3
	c0.5-1.4,1.2-2.8,2.1-5c2.3,5.8,1.2,11.3-1.9,14c-3.4,3-6.9,6-9.8,9.4c-1.4,1.6-1.9,4.3-2.1,6.5c-0.2,2.6,0.8,5.2,0.8,7.8
	c0,1.3-1.1,2.6-1.6,3.9c-0.9-1-2-2-2.6-3.2C714.2,658.7,714,657.1,713.6,655.6z M622.6,529c-1.2-4-3.2-7.2-2.8-10.1
	c0.4-3.3,3-6.3,4.5-9.4c0.3-0.5,0.1-1.3,0.5-1.8c0.6-0.9,1.3-2.3,2-2.3c5.1-0.3,4.4-4.2,4.8-7.4c0.2-1.3,0.1-3.5,0.8-3.7
	c4-1.5,3.3-4,2.1-7c-0.5-1.3-0.7-3.3-0.1-4.5c3-5.7-0.4-11.1-0.5-16.6c-0.1-5-0.3-10.3,1.3-14.9c1.2-3.5,5-6.2,8-8.9
	c2.2-1.9,2.2-3.4,1.1-6c-1.1-2.7-1.2-5.8-1.8-8.7c0.5-0.1,1-0.2,1.5-0.3c0.4,0.9,0.6,2,1.1,2.8c0.9,1.2,2,2.2,3,3.4
	c0.2-1.4,0.8-2.8,0.6-4.1c-0.4-2.3-1.3-4.4-1.8-6.7c-0.2-1.1-0.4-2.5,0.1-3.4c3.2-5,6.7-9.9,1.3-15.7c-0.5-0.6-0.3-1.8-0.6-2.6
	c-0.5-1.3-1.2-2.6-1.8-3.8c-1.3,0.7-2.7,1.3-3.8,2.2c-1.3,1.1-2.2,2.5-3.3,3.8c-0.4-0.2-0.8-0.5-1.3-0.7c0.5-1.6,0.6-3.4,1.4-4.9
	c2.3-4.3,4.8-8.6,7.4-12.8c0.5-0.9,1.4-2.1,2.2-2.2c4.6-0.8,6.8-3.6,8.2-7.8c0.3-0.8,1.4-1.3,2.4-2.2c0.6,1.7,1.1,2.9,1.8,4.7
	c1.4-1,2.4-2,3.6-2.5c4.7-1.6,7.6-4.3,7.4-9.7c0-1,0.8-2.5,1.7-3.1c3-2.3,2.8-5.4,3-8.7c0.2-6.3,1-12.5,1.6-18.8
	c0.5-5.7,1.1-11.3,1.7-17.3c-8.1,1.7-8.3,1.9-7.4,8.1c0.1,0.7,0,1.5-0.1,2.3c-0.7,10.7-1.4,21.4-2.2,32.1c-0.1,1.4-0.6,2.7-0.9,4
	c-0.7,0-1.3-0.1-2-0.1c0-2.3,0.2-4.7,0-7c-0.3-2.7,0-6.2-1.6-8c-2-2.3-1.5-3.5-0.6-5.9c1.3-3.4,2.1-7.3,2.2-11
	c0.1-3.3-3.2-4.5-5.7-3.4c-4.6,2.1-8.8,5.3-13.3,7.5c-4,1.9-7.2,5.5-12.7,3.9c-3.6-1.1-9.6,6.5-8.5,10.3c1.2,4.2,0.7,7.8-2.1,11.3
	c-0.6,0.8-0.3,3.4,0.5,4c4.7,3.5,6.5,8.4,7.2,13.9c0.3,2.1,0.3,4.4,1,6.3c2.3,5.9,1.1,11.1-3.3,15.2c-3.7,3.4-3.5,6.4-1.1,10.1
	c0.8,1.2,1.2,2.7,1.8,4c-0.4,0.2-0.8,0.4-1.1,0.6c-1.7-1.9-3.8-3.6-4.9-5.8c-1-2-1.7-4.6-1.4-6.7c0.5-4,2.4-7.9,2.8-11.9
	c0.6-6.1,1.9-12.8-6-16.6c-0.9,1.2-2.5,2.4-2.8,3.9c-0.6,2.9-0.5,5.9-0.7,8.8c-3.3-1.3-4-4.4-2.7-9c0.5-1.8,0.7-4.5-0.2-5.8
	c-0.8-1-4.1-1.4-5.3-0.6c-1.4,0.9-1.9,3.5-2.2,5.4c-0.8,4.3-1.1,8.6-1.9,12.9c-0.4,2.4-0.4,4.3,2.5,4.9c0.8,0.2,1.4,0.7,2.5,1.3
	c-0.7,0.7-1,1.4-1.5,1.6c-3.6,1.4-6.7,2.9-2.1,6.9c0.5,0.5,0.7,1.7,0.6,2.6c-0.3,4.5,0.3,9.5-1.4,13.4c-1.9,4.1-2.7,6.8-0.7,11.4
	c2,4.6,3.8,10.6,0.4,16c-0.2,0.3,0.2,1.1,0.4,1.9c3.6-0.1,4-2.6,4.2-5c0.3-3.1,0.9-5.2,4.5-6.5c2.1-0.8,4.1-4.4,4.3-6.9
	c0.4-5.3-0.3-10.6-0.6-15.9c-0.2-3.5-0.7-6.9-1-10.4c0.3,0,0.6,0,0.8-0.1c4.1,9.7,8.3,19.4,12.2,28.6c-0.7,1.6-2.4,3.5-2.2,5.1
	c0.6,4.9,1.9,9.7,2.9,14.6c-1.5-0.6-3.3-1.3-6.2-2.4c-0.3,6.4-0.6,12.1-0.8,17.7c-1.4-2-1.9-4.6-3.1-6.8c-0.9-1.7-2.7-2.9-4.1-4.3
	c-0.8,2-2,3.9-2.3,5.9c-0.3,2.7,0.3,5.4,0.1,8.1c-0.6,7.9-1.6,15.8-2.2,23.8c-0.1,1.2,1.1,2.7,2,3.8c2.3,2.6,4.8,5,7.1,7.5
	c-2.7,2.9-5.1,5.3-7.1,8c-0.7,1-1.1,3.3-0.5,4.1C616,522.4,619,525.3,622.6,529z M484.5,759.6c-5.1-1.1-5.7-4-4.3-7.8
	c0.5-1.4,0.7-3,0.9-4.5c0.5-5.3-7-14.5-12.1-14.8c-8.3-0.4-16.5-0.7-24.8-0.9c-2.9,0-5.1-0.1-3.6-4c0.5-1.2,0.1-2.8,0.1-4.2
	c-0.6-0.2-1.1-0.3-1.7-0.5c-0.9,1.9-1.6,4-2.9,5.6c-1,1.3-2.7,2.8-4.1,2.9c-6.5,0.3-13,0.1-19.5,0.2c-0.5,0-1,0.5-2.8,1.4
	c3.9,3.8,7.3,7.2,11.2,11c-0.6,4.5,0.4,6.5,5,8.1c6.1,2.2,10.6,0.5,14.3-5.4c0,4.9-1.6,8.3-6.5,10c-3.3,1.2-5.2,6.4-3.7,8.3
	c2.1,2.6,4.3,5.1,6.3,7.8c1.9,2.6,3.5,3.7,6.8,1.5c2.7-1.8,6.4-2.1,9.6-3.1c-0.3,1.4-0.9,2.4-1.5,2.4c-4.8,0.6-6.5,4.3-8.3,7.8
	c-1.8,3.5,1.7,11.3,4.8,11.5c4,0.2,8,0.5,12,0.7c0,0.2,0,0.5,0,0.7c-3.2,0.9-6.4,1.7-8.6,2.3c0,3.8-0.2,6.5,0.1,9.2
	c0.2,1.7,0.8,4.2,1.9,4.7c2.2,1,4.9,0.9,7.3,1.2c1.3,0.2,2.6,0.4,4.1,0.6c-2,2.5-3.8,3.9-4.5,5.8c-1,2.5-1.2,5.3-1.6,8
	c-0.9,5.7-1.3,11.4,1.6,16.7c2.5,4.6,5,4.7,7.5,0c3.9-7.3,7.7-14.8,10.9-22.4c2.2-5.4,3.4-11.2,5-16.9c0.2-0.7,0-1.6-0.3-2.3
	c-1.5-4.1,0.2-6.8,3.7-8.8c3.4-2,3.3-4.1,0.6-7c-1.6-1.8-2.4-4.4-3.2-6.7c-0.9-2.7-0.8-5.8-2.2-8.1c-1.8-3.1-1.9-5.3,0.6-7.8
	C483.2,762.3,483.5,761.2,484.5,759.6z M341,312.5c-0.5,0.1-0.9,0.1-1.4,0.2c-0.5-1.2-1.2-2.4-1.6-3.7c-1.1-3.5-1-7.9-3.2-10.4
	c-5.6-6.5-11.9-12.4-18.6-17.8c-1.7-1.4-5.7-0.1-8.6-0.1c0.1,2.6-0.3,5.4,0.5,7.7c2.1,6.2,4.7,12.2,7.3,18.2
	c1.5,3.3,2.7,6.4,8.1,5.3c3.5-0.7,7.7,1.6,11.4,2.9c2.3,0.8,4.2,2.5,6.5,3.3c6.3,2,10.3,5.8,10.7,12.7c0,0.5,0.5,1,0.8,1.6
	c1.3-0.5,2.3-1,4.3-1.8c1.6,4.8,3.5,9.3,4.5,13.9c1.7,8.5,4,17,4.1,25.6c0.1,15.8-1.5,31.5-5.2,47c-0.2,0.8-1,1.4-1.5,2.1
	c-0.5-0.2-1-0.3-1.5-0.5c0.5-5.5,1.1-11.1,1.3-16.6c0.1-3-0.4-6.1-0.7-9.1c-0.7-0.3-1.5-0.6-2.2-0.9c-1.9,2.4-4.2,4.5-5.7,7.1
	c-5.8,10.1-15,15.1-25.6,18.4c-3,0.9-6.4,1.7-8.1,6.1c3.2,0.1,5.6,0.2,7.9,0.4c1,0.1,2.6,0.1,2.9,0.6c1.6,3.3,4.5,3.4,7.6,4
	c2.4,0.5,4.7,2.2,6.6,3.8c2.4,2,4.5,2.3,7.1,0.6c5.4-3.8,10.1-9,17.4-9.3c0.4,0,1-0.4,1.1-0.8c2-5.5,7-5.6,11.6-7
	c1.6-0.5,3.8-2.3,3.9-3.7c0.4-4.2-0.4-8.5,0-12.7c0.4-4-2.4-8.6,1.4-11.8c-0.5-2-1.2-3.7-1.2-5.4c0-5,0.3-10.1,0.7-15.1
	c0.2-2.3-0.1-5.2,1.2-6.7c2.8-3.2,3.8-5.2-1-6.9c-0.3-0.1-0.5-1.1-0.5-1.7c-0.1-3.7-0.2-7.4-0.2-11c0-5.4,0.2-10.7,0-16.1
	c-0.1-4.1-1.7-4.8-5.3-2.4c-3.3,2.2-4.5,7.3-3.8,11c1.1,5.6,2.2,11.4,2,17c-0.4,11.3-1.7,22.6-2.6,33.9c-0.1,1.5-0.5,3.1-0.8,4.6
	c-0.6,0-1.2,0-1.8-0.1c-2.1-7.7,0.2-15.6,0.1-23.4c-0.1-8,0-16,0-24.4c-2,0.9-3.1,1.4-5.2,2.3c0.3-3.8,0.5-6.8,0.6-9.8
	c0.1-3.3,0.1-6.6,0-10c0-1.2-1.1-2.7-0.6-3.4c3-5.1,5.8-10.5,9.5-15c2.8-3.4,3.1-7.2-0.8-9.1c-2.7-1.3-5.5-2.1-8.6-3.3
	c0,1.4,0,2.6,0,3.8c-0.1,2.7,0.4,5.8-0.6,8.1c-1.3,3-2.7,5.3-0.9,8.7c0.5,1-0.7,4.3-1.8,4.6c-4.5,1.4-3.5,4.8-3.5,7.9
	c0,1.2,0.2,2.5,0.3,3.7c-0.5,0.2-1.1,0.4-1.6,0.6c-1.1-2.1-2.8-4.1-3.3-6.3c-0.7-3.3-0.5-6.7-0.9-10.1c-0.6-5.5,1-8.1,5.8-9.5
	c2.6-11.4,0.5-21.1-10.3-28.4c0.4,12.7,2.8,25.2-0.6,37.8c-1.6-1.8-2.5-3.7-2.9-5.7c-0.5-2.6-0.6-5.2-0.9-7.8
	c-0.8-6.5-1.8-13.1-2.2-19.6c-0.3-4.1,0.5-8.2,0.4-12.4c0-1.4-1.3-2.7-2-4c-1.2,0.9-2.4,1.9-3.6,2.9c-0.7,0.6-1.5,1.9-2.1,1.9
	c-0.8-0.1-2-1.2-2.1-2c-0.4-3.9-0.4-7.9-0.6-11.8c-0.1-1.7,0-3.8-1-5c-2.7-3.4-4.3-6.7-2.5-11c0.3-0.7-0.5-1.8-0.8-2.7
	c-0.9,0.6-2.6,1.1-2.7,1.8c-0.5,5.8-0.8,11.6-1.1,17.4c-0.1,2.7-0.1,5.4-0.5,8.1c-0.6,4-1.7,8.1,1.7,11.3c3.5,3.3,7.5,6,11.1,9.2
	c1.7,1.5,3.9,3.2,4.4,5.2c1,4,1.3,8.2,1.4,12.3C342.2,305.5,341.4,309,341,312.5z M547.2,785.4c-0.5-0.4-1-0.9-1.4-1.3
	c0.7-1,1.3-2.3,2.2-3c3.1-2,6.8-3.2,9.4-5.6c2.7-2.5,6-5.9,6.2-9.1c0.2-3.5,1-5.4,3.7-6.9c1.4-0.8,2.6-1.8,4.6-3.1
	c-2.6-1.5-4.3-2.6-6.4-3.8c1.1-0.8,1.8-1.7,2.7-2.1c7.7-2.9,12.3-9.4,17.5-15.1c1-1,1-2.9,1.5-4.3c-1.6-0.3-3.3-1.1-4.7-0.7
	c-4.5,1.3-7.7-0.5-10.6-3.7c-1.8-2-4.1-3.5-7.2-6.1c0.2,2.6-0.1,3.9,0.4,4.8c2.2,3.8,0.1,5.3-3.1,5.6c-7.9,0.8-15.9,1.3-23.8,1.8
	c-2.1,0.1-4.5-0.6-6.4,0c-4.8,1.6-11,0.6-12.8,7.6c-1.8,7,1.5,14.4-2.2,21.2c-0.1,0.1,0.1,0.3,0.1,0.4c0,3.1-0.1,6.2-0.1,9.4
	c0,2.1,0,4.2,0.1,6.3c0,2.9,0,5.8,0,8.7c-0.4,1.8,0.6,3.7,0.7,5.6c0.3,5,0.1,10,0.3,15c0.2,5.2,0.4,10.4,1.2,15.5
	c1.1,6.7,3.5,12.8,9.8,16.4c2.3,1.3,3.7,1.2,4.3-1.7c1.2-5.7,2.7-11.3,3.7-17.1c0.3-1.5-0.5-3.5-1.5-4.7c-1.6-1.9-3.7-3.3-5.6-5
	c0.2-0.4,0.4-0.9,0.7-1.3c2.2,0.8,4.3,1.5,6.5,2.3c1.3,0.5,3.3,1.9,3.8,1.4c1.1-0.9,2.1-2.8,2-4.2c-0.6-5.2,2.1-7.4,6.7-8.1
	c3.3-0.5,4.8-2.5,4.2-5.5c-0.8-3.7,0.3-6.5,2.5-9.4c0.7-1,0.4-2.7,0.6-4.1c-1.4,0.1-3.1-0.3-4.3,0.3
	C550.5,782.8,548.9,784.2,547.2,785.4z M806.7,233.3c-0.7,0.4-3,1.1-3.6,2.6c-2.1,4.9-6.7,6.4-10.7,9c-5.6,3.7-11,7.6-16.5,11.4
	c-1.9,1.3-3.7,2.6-5.7,3.7c-2.7,1.5-5.6,3.6-4.1,6.8c3.3,6.8,3.7,14.1,4.6,21.4c0.4,3.3,0.3,6.7,0.1,10c-0.4,8.8-3.5,17.7,2.3,26
	c0.5,0.7,0.2,2.4-0.3,3.4c-3.6,6.8-3.5,8,1.6,13.7c0.7,0.8,1.4,1.6,2.1,2.4c3.1,3.5,5.7,3.8,8.8,0.2c1.5-1.8,2.2-4.3,3.3-6.5
	c2.5-4.9,4.4-10.2,7.6-14.5c4.5-6,5.3-8.6,1.8-15c-3.2-6-2.9-6.5,3.8-6.8c5.3-0.2,7.4-2.1,8.1-7.5c0.3-1.8,0.4-3.8,1.1-5.3
	c3.2-6.4,1.4-13.1-0.6-18.9c-1.3-3.9-1.2-6.2,0.5-9.6c1.6-3.4,2.1-7.4,2.5-11.3c0.3-2.7-0.8-5.5-0.6-8.3
	C813.3,236.6,811.2,233.4,806.7,233.3z M796,657.8c-2.5-0.9-5.2-2.6-6-2c-2.7,2.2-6.2,4.9-6.9,7.9c-1.5,6.9-1.8,14-1.9,21.1
	c-0.2,8,0.6,16-3.7,23.3c-0.2,0.4,0.1,1.1,0.2,1.6c0.4,0.2,0.7,0.4,1.1,0.6c1.3-1.8,2.7-3.6,4-5.4c1-1.4,2-2.8,2.9-4.2
	c0.7,1.4,1.7,2.7,2.2,4.2c1.2,3.9,3.7,5.8,7.7,6c2.1,0.1,4.2,0.3,6.3,0.4c3.2,0.2,6.5,1,7.2-4c0.2-1.8,2-3.3,3.1-5
	c0.6,0.2,1.2,0.5,1.8,0.7c-0.4,1.7-0.9,3.4-1.2,5.1c-0.4,1.9-0.8,4.3,2.1,3.8c7-1.3,15.5,3.2,20.5-6.3c2.1-4,6.9-6.8,10.9-9.6
	c3.3-2.3,2.9-4.8,2.3-8c-0.7-3.4-2.8-4.2-5.7-5c-2-0.5-3.8-2.4-5.3-4.1c-3.4-4-7.2-7.1-12.9-8.2c-0.5,5.5-0.7,10.4-1.3,15.2
	c-0.2,1.9-1.1,3.8-2.3,5.3c-0.9,1.1-2.7,1.5-4.1,2.2c-0.3-1.8-0.9-3.7-0.8-5.4c0.2-2.2,1.9-4.4,1.7-6.5c-0.5-5.9-1.5-11.7-2.5-17.5
	c-0.7-3.7-1.9-7.3-2.9-10.9c-0.6,0.1-1.3,0.1-1.9,0.2c-0.4,10.5-1.1,21-1.2,31.5c-0.1,5.4-1.1,10.2-4.5,14.4
	c-0.4-1.7-0.1-3.2,0.2-4.7c0.3-1.6,0.9-3.2,0.8-4.8c-0.5-8-1.1-15.9-1.7-23.9c-0.3-5.1-0.3-10.2-1-15.2c-0.2-1.7-2.3-3.1-3.6-4.7
	c-1,1.5-2.4,2.8-2.9,4.4C796.2,653.1,796.2,655.6,796,657.8z M632.1,520c-0.7,0-1.4,0-2.1,0.1c-2.6,6.1-7.9,12,0.1,18.9
	c-3.4,0.5-5.7,0.8-9,1.3c4.5,7.2,9.2,13.9,3.9,22.1c-0.6-0.5-1.3-0.7-1.5-1.2c-1.6-3.3-4.7-5.7-7.7-4.3c-2.8,1.3-5.8,4.9-6.2,7.8
	c-1.2,7.7-1.4,15.7,4.6,22.2c0.9,0.9,1,2.5,1.5,3.7c-0.4,0.3-0.7,0.5-1.1,0.8c-1.2-1-2.5-1.9-3.7-3c-2.5-2.3-3.9-1-4.7,1.4
	c-0.4,1.2-0.5,2.9,0,4.1c2.3,5.6-2,11.9,1.9,17.4c0.4,0.6-0.4,2-0.7,3.1c-0.6,2.1-1.5,4.1-1.7,6.2c-0.2,2.1-0.3,5.8,0.7,6.2
	c2.3,1,5.6,1.2,7.8,0.2c1.8-0.8,3-3.6,4-5.7c1.2-2.2,1.9-4.7,2.8-7.1c0.5,0.1,0.9,0.3,1.4,0.4c0.1,1,0.5,2,0.4,2.9
	c-0.3,2.9-0.9,5.8-1.3,8.7c-0.4,3,0.9,4.3,3.7,3.3c2-0.7,5.2-2,5.4-3.4c0.4-2.9,0-6.5-1.4-9c-1.6-2.7-3-4.5-0.7-7.3
	c0.4-0.5,0.3-1.4,0.6-3.6c-4,1.6-7.2,2.9-10.3,4.2c-0.3-0.3-0.6-0.6-0.9-0.9c1.8-1.7,3.4-3.8,5.5-5.1c8.2-5.4,9.8-6.2,9.5-15.8
	c-0.1-4.2,1.6-8.3-1.1-12.3c-0.2-0.3-0.1-0.9,0-1.4c1.6-7.2,1.6-14.2-0.2-21.4c-0.5-1.9,0.5-4.2,0.6-6.3c0.2-4,1.1-8.3,0-12.1
	c-1.1-3.8-1.3-7,0.2-10.6C633.1,523.5,632.3,521.7,632.1,520z M570.4,408.2c0-5.6,0-10.2,0-14.9c-0.6-0.1-1.2-0.3-1.8-0.4
	c-0.8,1.4-2,2.7-2.4,4.2c-1.3,5.2-2.3,10.5-3.7,15.7c-0.3,1.4-1.4,2.5-2.2,3.8c-0.7-0.2-1.3-0.4-2-0.5c0.2-2.3-0.2-5,0.8-6.9
	c2-3.8,2.4-7.4,1.7-11.5c-0.4-2.5,0.3-5.1,0.6-7.7c0.1-0.9,0.6-1.8,0.4-2.6c-0.9-4.9-2-9.8-3.1-14.6c-0.3-1.2-0.9-2.3-1.7-4.2
	c-1.1,1.7-2.1,2.5-2.2,3.4c-0.8,6.6-1.6,13.2-2,19.8c-0.4,5.7-4.4,11.8,2.5,16.9c-2.2-0.4-3.4-1.5-4.9-1.9c-1.3-0.4-2.8-0.1-4.8-0.1
	c2.4,2.5,4.9,4.1,5.6,6.2c1,3.2,0.8,6.8,0.9,10.2c0.1,6.1,0,12.2,0,18.9c3,0,6.6-0.3,10,0.1c6.7,0.8,13.4-4,20.1,1
	c2.1,1.6,3.7-0.7,3.6-3.5c-0.2-5.4-0.2-10.7-3.9-15.2c-0.5-0.5-0.3-1.6-0.4-2.6c1.8,0,3.2,0,4.5,0c-0.3-3.2-0.1-6.2-1-8.8
	c-1-2.6-3.2-4.8-4.9-7.2c5.3-3,6.9-11.1,5.1-25.3c-1.4,2.9-2.6,5.4-4.2,8.7c-1.4-2.4-2-3.5-3.1-5.4
	C573.1,391.5,579.2,401.4,570.4,408.2z M477.3,609.2c0.6-0.5,1.2-0.9,1.8-1.4c-5.3-6.1,1.8-13.7-3.4-19.9c-0.5-0.6,0.8-2.5,1-3.8
	c0.1-1.4,0.4-3.4-0.4-4c-1-0.9-3.3-1.4-4.4-0.8c-4.2,2.1-9.6,2.8-11.7,8c-0.1,0.2-0.8,0.2-2.4,0.5c0.9-3,1.5-5.3,2.3-7.6
	c1.2-3.3,4.7-7.6,3.7-9.5c-2.9-5.5-0.7-10.9-1.6-16.2c-0.2-1.1-0.7-2.2-1-3.3c-0.6-0.1-1.2-0.3-1.8-0.4c1,7.8-5,11.1-8.6,16.1
	c-1,1.3-0.7,3.6-0.8,5.5c-0.1,2.8,0.3,5.7-0.1,8.5c-0.8,5.7-4.8,10.5-1.5,17.3c2,4.3,0.2,10.4,0.1,15.7c0,1.8,0.9,3.8,1,5.7
	c0,3.2-0.8,6.4-0.7,9.6c0.1,2,0.6,4.3,1.9,5.7c0.9,1,3.5,1,5,0.6c3.2-0.9,6.2-2.4,9.4-3.5c9.1-3.3,12.2-10.3,8.5-19.1
	c-0.9-2.2-1.8-4.5-2.9-7.4C473.5,607.1,475.4,608.2,477.3,609.2z M184.9,669.4c-0.7,0.2-1.5,0.3-2.2,0.5c-1-4-1.9-8-2.9-11.9
	c-0.4,0-0.8,0.1-1.2,0.1c0,3,0.3,6-0.1,9c-0.2,1.2-1.7,3.1-2.6,3.1c-5.5,0-8.3,4-8.7,8c-0.7,7.3-3.4,14.7-0.1,22.3
	c2.9,6.7,6.1,8,10.7,3.1c0.6-0.6,0.9-1.6,1.3-2.4c3.7-6.6,9.1-11.5,15.6-15.4c-1.3,6-8.4,9.4-7.7,15.6c7.2,0,13.8,0,20.3,0
	c2.5-15.8,1.7-26.8-3.1-31.9c-1,4.7-1.9,8.7-2.8,12.7c-0.6-0.1-1.3-0.1-1.9-0.2c0-5,0-9.9,0-14.9c-0.1-5.5-1.4-10.2-4.9-14.9
	c-3-4.1-4.1-9.7-5.9-14.6c-0.5-1.3-0.9-2.7-1.3-4c-0.3,0.1-0.6,0.2-0.8,0.4c-0.5,4.2-1,8.4-1.6,12.5c2.5,0.5,9.7,8,9.4,10.2
	c-0.3,1.7-1.8,3.2-2.7,4.7c-1.3-1.1-2.8-2-3.8-3.3c-0.9-1.3-1.1-3.1-1.6-4.6c-0.4,0.1-0.8,0.2-1.3,0.2
	C184.9,659,184.9,664.2,184.9,669.4z M684.1,646.7c-1.6,0.5-2.1,0.5-2.1,0.7c-2.9,9.2-9.7,16.9-10.3,27.1c-0.1,2-1.7,4.1-3,5.9
	c-0.4,0.6-1.8,0.6-2.8,0.9c-0.1-1-0.5-2-0.4-2.9c0.3-2.2,1.2-4.5,1.2-6.7c0-1.1-1.5-2.2-2.3-3.4c-1,1-2.6,1.8-2.8,2.9
	c-1.1,4.6-2,9,2,13.2c2.4,2.5,3.6,4,7,1.7c4-2.7,8.3-2.8,12.3,0.8c2.6,2.4,5.4,4.7,8.4,6.5c3.6,2.1,7.5,3.7,12.2,6
	c0-7-0.2-12.7,0.1-18.3c0.3-6.2,0.8-12.5,1.8-18.7c1.4-8.2,0.9-15.8-3.7-23c-2-3.1-3.9-3.8-7.2-2.6c-3.1,1.1-5,2.5-4.7,6.3
	c0.2,2.5,0.6,5.7-0.7,7.6c-3.1,4.8-2.5,9.2-0.8,14c0.6,1.6,0.6,3.4,0.9,5.2C680.9,663.6,684.9,654.8,684.1,646.7z M189.1,264.8
	c0.7,0,1.3-0.1,2-0.1c2.1-2.8,4.5-5.4,6.2-8.4c3.1-5.4,6.7-10.8,8.2-16.7c2.1-8.1,2.4-16.7,3.4-25.1c1.1-9.9,1.1-9.8-7.5-14.7
	c-3.3-1.8-5.8-4.2-6.5-8.4c-0.7-4.5-4.5-7.2-9.3-7.4c-4.6-0.2-5.5,1.2-3.9,5.6c1.1,3.1,2.6,6.4,2.8,9.6c0.3,6.7-0.2,13.5-0.3,20.2
	c-0.1,4.3-0.2,8.5,0.1,12.8c0.4,5.6,0.9,11.3,1.8,16.9C186.8,254.4,188.1,259.6,189.1,264.8z M606.5,654.6c0.5-2.1,1.4-3.7,1.1-5.1
	c-0.4-2.5-1.5-4.8-2.4-7.2c-1.7,1.2-4.2,2-5,3.6c-2,3.7-2.5,8.4-5,11.7c-3.5,4.7-4.2,9.6-4.3,15.1c0,3.2-0.7,6.4-1.4,9.6
	c-0.5,2.7-1.5,5.3-2.2,8c-0.9,3.4,0.6,4.6,4,5c3,0.3,6,1,8.7,2.3c5.2,2.5,6.3,2.2,7.5-3.4c0.3-1.4-0.4-2.9-0.3-4.4
	c0-1.6-0.1-3.5,0.6-4.8c1.8-3.1,1.3-4.8-2.3-5.5c-1.7-0.3-3.4-0.3-5-0.9c-1.1-0.4-1.9-1.6-2.8-2.5c0.9-0.6,1.8-1.4,2.8-1.9
	c1.2-0.5,3-0.4,3.9-1.2c4-3.4,8.2-2.7,12.6-1.1c3.1,1.1,5.5,0.4,7.3-2.2c2.4-3.4,4.8-6.7,3.3-11.4c-0.5-1.6,0.2-3.6,0.5-5.4
	c0.2-1.2,0.5-2.3,0.8-3.5c-0.4-0.1-0.9-0.3-1.3-0.4c-1,2.1-2.1,4.2-3.4,7c-2.7-4.5-1.9-8.3-0.5-11.7c1.8-4.7,0.6-7.9-3.7-10.7
	c-3.4,4.7-9.5,7.4-8.3,14.9C612.1,650.9,610.9,653.9,606.5,654.6z M869.5,198.4c-3.7,0.2-5.8,0.8-7.5,0.2c-4.4-1.4-5,1.1-5.6,4.3
	c-0.5,2.7-1.2,5.4-2.4,7.8c-0.5,1-3.1,2.2-3.5,1.9c-4.9-4.5-9.1-2.3-13.3,1c-0.5,0.4-1.5,0.4-2.2,0.5c-12.6,2.4-16,9.3-16.6,18.7
	c-0.4,5.7,3.2,10,8.9,10.8c2.7,0.3,2.9,1.4,2.1,3.7c-0.6,1.7-1.2,4.1-0.5,5.3c0.8,1.2,3.7,2.2,4.8,1.6c1.6-0.8,2.5-3.1,3.3-4.9
	c1.1-2.6,1.5-5.7,2.8-8.1c3.5-6.2,5.9-13.1,12-17.7c1.2-0.9,1.4-3,2.2-4.4c2.5-4.3,4.9-8.7,7.8-12.8
	C863.9,203.7,866.5,201.6,869.5,198.4z M780.7,637.9c0.4,0.2,0.7,0.4,1.1,0.7c3.5-2,6-4.5,5.9-9c0-0.9,1.1-2.1,2-2.7
	c0.4-0.3,2,0.3,2.3,0.9c1.4,3.1,3.9,6.4,0,9.5c-1.9,1.5-4.1,2.5-6,4c-0.6,0.5-0.8,1.6-1.2,2.4c0.9,0.2,2.1,1,2.7,0.6
	c1.7-1,3.5-2.2,4.6-3.7c2.9-3.9,7-7.7,7.7-12.1c1.2-7.4,0.2-15.2,0.1-22.9c0-1.3,0.2-2.8,0.7-4c1-2.9,0.6-4.2-2.8-3.4
	c-0.8,0.2-2.1-0.3-2.7-0.9c-0.3-0.3,0-1.9,0.5-2.4c5.3-4.4,4.5-10,3.4-15.7c-0.9-4.8-3.9-6.6-8.5-4.7c-2.7,1.1-5.3,2.6-7.5,4.3
	c-1.3,1-1.9,2.8-2.6,4.4c-1,2.1-2.1,4.2-2.8,6.4c-0.4,1.3-0.3,2.7-0.4,4.1c1.4-0.1,2.8,0.1,4.1-0.3c1-0.3,1.7-1.3,2.6-1.9
	c0.4,0.3,0.8,0.5,1.3,0.8c-0.7,2.1-1.7,4.1-2,6.2c-1,9.1-1.9,18.2-2.6,27.3c-0.1,0.7,1.1,1.8,1.9,2.2c2.8,1.4,2.3,3.1,0.9,5.2
	C782.4,634.5,781.6,636.2,780.7,637.9z M654,670.5c-1.5,7.1-2.8,14-4.3,20.8c-1.5,6.8,0.6,14.2-3.7,20.8c-1.1-3.8-1.5-7.6-1.4-11.3
	c0.1-2.4,1-4.8,1.1-7.3c0.1-6.7-0.1-13.4-0.1-20.1c0-6.5,3-11.9,8.4-14.9c4.6-2.6,8.4-4.7,10.8-10.1c1.6-3.7,0.4-5.7-1.2-7.8
	c-0.9-1.1-3.4-1-4.8-1.4c-0.7,4.7-1.2,8.3-1.7,11.9c-0.4-0.1-0.9-0.2-1.3-0.2c-0.5-2.4-0.9-4.8-1.5-7.9c-1.9,1.4-2.8,2.4-4,3
	c-4.7,2.4-7.3,5.7-6.3,11.4c0.2,1.3-1.7,3-2.5,4.6c-1.1,2.1-2.8,4.2-2.9,6.4c-0.6,13.5-0.9,27-1.3,40.5c0,1.4,0,2.7,0,3.1
	c2.3,1,3.8,1.9,5.4,2.4c1.5,0.5,3.8,1.7,4.4,1.1c2.3-2.3,4.9-4.9,6-8c1.9-5.2,1.7-11.4,4.1-16.2c3.8-7.5-2.6-13.6-1.2-20.5
	C656,671.2,655.5,671,654,670.5z M531.8,414.2c0-7.7,0-14.5,0-21.9c-0.8-0.3-2.5-0.9-4.1-1.5c1.4-3.2,3-5.8,3.6-8.6
	c0.2-1.2-1.9-4.2-2.7-4.2c-3.7,0.4-8.9,0.5-10.7,2.8c-3.8,4.9-12.2,8.1-8.6,16.9c0.3,0.9-0.2,2.1-0.3,3.2c-0.2,2.3-0.6,4.6-0.6,6.9
	c0.1,5.6-0.2,6.6-3.8,10.6c7.4-3.5,10,4.7,14.3,5.3c1.9,2.3,3.1,4.9,4.4,5c4.8,0.3,7.6-2.5,8.8-7.6c0.1-0.6,0.3-1.4,0.7-1.6
	C538.1,416.3,533.9,415.2,531.8,414.2z M417.3,579.1c-0.4,0.1-0.9,0.3-1.3,0.4c-0.2,0.4-0.5,0.8-0.5,1.2c-0.4,7.3-0.8,14.6-1.3,21.9
	c0,0.8-0.1,1.8-0.6,2.2c-1,0.8-2.2,1.3-3.3,1.9c-0.4-1-1.3-2.1-1.3-3c0.5-6.6,1.2-13.2,1.7-19.7c0.1-1.5-0.2-3.1-0.3-4.6
	c-0.5-0.2-1-0.3-1.4-0.5c-2,2.9-4.5,5.6-6,8.7c-4.8,10.3-3,20.3,2.1,30c1.1,2.1,2.2,2.4,4.4,1.3c3.9-1.9,8-3.8,12.2-5
	c4.9-1.4,8.8-5.4,7.2-10.3c-2-6.2,0-11.9,0.6-17.7c0.4-3.2-0.5-4.7-4.1-5.4c-1.5,2.7-3.1,5.5-5.3,9.1
	C419.2,585.6,418.2,582.3,417.3,579.1z M565,359.2c-0.5,0-1.1,0.1-1.6,0.1c-0.5,5.8-1.2,11.5-1.5,17.3c-0.1,1.7,0.8,3.4,1.2,5.1
	c1.7-0.9,4.1-1.3,4.9-2.7c3.5-5.8,8.9-9,14.7-11.9c3.3-1.7,7.6-3.6,3.1-8.5c-0.3-0.3-0.3-0.9-0.3-1.3c0.4-6,1.5-12.1-0.7-18
	c-0.2-0.6,0.2-1.5,0.4-2.2c0.8-2.1,1.7-4.5-1.7-4.8c-2.5-0.2-5.7-1.1-6.1,3.4c-0.2,2.5-1.1,5.2-2.5,7.3c-4.9,7.6-5.4,16.1-5.9,24.6
	c-0.1,0.9-0.3,1.9-0.6,3.4C563.5,367.7,567.3,362.5,565,359.2z M326.7,512.2c-2.9,0.6-4.8,1.2-6.8,1.5c-4.1,0.6-7.2,4.1-6.5,7.5
	c0.5,2.5,2.1,3.9,4.1,1.9c6.7-6.9,18.1-10.7,16.2-23.5c-0.1-0.8,0.3-1.8,0.6-2.7c3.5-12.5,1.5-25,0.3-37.5c-0.1-0.8-0.8-1.5-1.4-2.4
	c-3.6,2.1-4.6,4.9-4.6,8.6c0.1,7.1-0.2,14.3-0.3,21.4c0,0.7-0.3,1.5-0.6,2.2c-1.8,4.1-3.8,8.1-2.4,12.8c0.1,0.4-0.7,1.1-1.2,1.7
	c-2.1-3.9-6.6-5.4-9.8-3.5c-1.9,1.2-2.8,2.6-0.3,4.2C317.7,506.8,321.5,509.1,326.7,512.2z M688.5,579.5c-0.7-0.1-1.3-0.3-2-0.4
	c0.7-4.5,1.5-9,2.2-13.4c-3-1.3-6.3-2.7-10.6-4.6c1.5,2.2,2.6,3.2,2.9,4.5c1.9,6.5,4.3,13,2.6,20c-0.2,0.9,0.4,2.1,1,2.9
	c4,5.2,5.1,11.1,4.9,17.4c-0.2,6.4-1.1,12.8-1.2,19.2c-0.1,2.4-1.5,5.9,2.3,6.8c0.3,0.1,1.9-4.1,2.5-6.3c0.5-1.9-0.7-4.3,2.6-5.1
	c3.8-0.9,4.1-3.3,2.5-6.7c-0.9-1.8-0.8-4-1-6.1c-0.2-2.4-0.1-4.8-0.1-7.2c0-1.3,0.4-2.6,0.5-4c0.2-2.3,0.5-4.6,0.5-6.9
	c0-2.2-1.1-4.8-0.2-6.5c1.7-3.2,0.8-5.6-0.9-8.1c-2.3-3.2-4.2-3-6.1,0.4C690.1,576.6,689.3,578,688.5,579.5z M210.7,257.6
	c-0.4,0.1-0.8,0.1-1.2,0.2c-2.2,4.8-4.6,9.5-6.6,14.3c-4.6,11.1-4.5,11.7,4.7,19.1c2.6,2.1,3.3,3.6,1.1,6.4
	c-0.9,1.1-1.5,3.6-0.9,4.6c2.7,4.3,5.9,8.3,9.4,13c2.5-8.4,3-15.5,0.1-23.7c-3.2-9-6.9-18.3-5.8-28.4
	C211.8,261.3,211.1,259.4,210.7,257.6z M324.2,472.1c-0.7-2.8-1.2-5.9-2.6-8.4c-0.3-0.5-4.1,0.9-6.2,1.2c-1.2,0.2-2.6-0.3-3.6,0.2
	c-1,0.5-2.2,1.8-2.2,2.7c0,7.4,0.3,14.7,0.4,22.1c0,2.4-1.4,5.1,2,6.2c2.5,0.8,5,1.6,7.5,1.6c1,0,2.7-1.9,2.9-3
	C323.1,487.3,323.5,479.8,324.2,472.1z M657.2,606.5c0-1.2,0.2-1.8,0-2.4c-0.5-1.5-1.2-2.9-1.9-4.4c-1.5,1.4-3.4,2.5-4.2,4.2
	c-0.7,1.5,0.3,3.7,0,5.4c-1.1,5.9,0.3,8.7,7.2,9.3c6.7,0.6,10.3,1,12.9-5.2c1.9-4.6,2.4-10.1,2.1-15.1c-0.1-2.6-3.3-7.1-5.1-7.1
	c-3.4,0-4.2,4-4.5,7.4C663.4,602.4,662,605.5,657.2,606.5z M354.5,500.9c-0.8,0.1-1.6,0.2-2.5,0.2c2.6-10.4,0-20.1-2.8-29.8
	c-0.8,0.7-1.2,1.3-1.3,2c-1,6.4-1.9,12.7-2.7,19.1c-0.1,1.2,0,2.5,0.5,3.6c1.5,3.7,2.8,7.6,5,10.9c1.6,2.4,4.1,4.4,6.6,5.9
	c3.1,2,4.5,0.1,4.6-3c0.1-3.4-0.5-7,0.4-10.1c2-6.8,0-12-5.3-17.3C356,488.9,355.2,494.9,354.5,500.9z M577.8,588.3
	c-0.2-2.2,0-3.9-0.6-5.1c-0.8-1.4-2.3-3.3-3.5-3.3c-2.9-0.1-6.4,6.5-5.9,9.4c1,6.1,6.2,9,10,12.7c1.8,1.7,5.7,1.2,8.7,1.8
	c0.4-2.5,1.1-4.9,1.1-7.4c0.1-5.3-0.3-10.7-0.4-16c0-1.9,0-3.7,0-5.8C578.1,575.5,584.2,585.2,577.8,588.3z M652.6,558.3
	c-0.3,1.7-0.7,2.9-0.7,4.2c-0.3,6.7-0.5,13.5-0.7,20.2c-0.1,1.8-0.2,3.7,0.1,5.5c0.5,2.3,1.8,2.6,3.6,0.9c3.8-3.6,7.4-7.4,11.5-10.7
	c4.4-3.6,3.1-8.5,3-12.8c0-1.5-3.2-3-5-4.6C661.3,566.3,661,567.1,652.6,558.3z M631.5,717.2c0.5-0.1,1-0.1,1.5-0.2
	c0.3-2.3,0.9-4.6,0.8-6.8c-0.2-8.6-3.6-17.2,0-25.9c0.1-0.3-0.1-0.6,0-0.9c0.1-4.7,0.3-9.4,0.2-14.1c0-1.4-1.1-2.8-1.8-4.2
	c-0.9,1-2.1,1.9-2.6,3.1c-2.6,6.8-3.3,14.7-11.7,17.7c-1.2,0.4-2.4,1.7-3,2.8c-0.6,1.2-0.5,2.7-0.8,4.1c1.5,0.2,3.3,1,4.4,0.5
	c2.2-1,4-2.7,6-4.2c1.6-1.3,3.7-1.7,3.4,0.9c-0.5,4,3.6,8.3-0.7,12.1c-0.4,0.4-0.4,1.5-0.2,2.2c0.8,3.4,1.7,6.8,2.7,10.1
	C630,715.4,630.9,716.3,631.5,717.2z M669.4,413c0.4,0.2,0.8,0.4,1.1,0.7c5.3-5.5,12.9-8.6,16.7-15.5c-0.3-0.3-0.6-0.7-0.9-1
	c-2.8,1.1-5.6,2.2-8.4,3.3c-0.3-0.5-0.6-1.1-0.9-1.6c1.6-1.5,3.1-3.2,4.8-4.5c2.8-2,2.5-3.8,0-5.8c-2.3-1.8-4.3-4-6.7-5.6
	c-1.2-0.8-3.7-1.5-4.2-1c-1.3,1.3-2.6,3.6-2.4,5.3c0.3,2.6,1.8,5,2.8,7.3c-0.9,1.3-2.5,2.6-2.6,3.9
	C668.7,403.3,669.1,408.1,669.4,413z M758.3,370.3c3,1.1,5.1,2.2,7.4,2.7c1,0.2,2.9-0.4,3.4-1.2c2.9-5.2,5.6-10.4,8-15.8
	c0.8-1.7,1-4.5,0.1-6c-1.9-3-4.7-5.4-7.8-8.7C762.2,350.2,764,361.7,758.3,370.3z M314.7,557.5c0.4-0.1,0.8-0.2,1.1-0.3
	c1-2.1,2.5-4.2,3-6.4c0.5-2.5,0.2-5.1,0.3-7.7c0-0.3-0.1-0.7,0.1-0.9c0.8-1,1.6-1.9,2.4-2.9c0.8,0.8,1.8,1.5,2.2,2.4
	c0.8,2.1,1.1,4.5,1.9,6.6c0.4,1,1.2,2.5,2.1,2.6c0.9,0.2,2.6-0.9,2.8-1.7c1.4-6.1,5.8-9.7,10.5-13.2c0.4-0.3,0.7-0.6,0.9-1
	c2.3-5.6-6.7-2.3-5.6-7.1c-0.8,0-2.2-0.3-2.4,0c-0.7,1.6-1.1,3.4-1.5,5.2c-1.1,4.3-2.1,8.6-3.2,12.9c-0.4-0.1-0.7-0.2-1.1-0.3
	c-0.4-5.2-0.8-10.4-1.2-15.9c-11.6,5.3-13.1,6.9-12.4,15.7c0.2,2.3-0.6,4.6-0.6,6.9C314.1,554.2,314.5,555.9,314.7,557.5z
	 M697.4,555.2c-1.7,2.2-3,3.3-3.7,4.8c-0.5,1.1-0.4,2.6-0.6,4c1.3-0.8,3.2-1.3,3.7-2.4c2.6-5.8,7.7-10.9,5.7-18.2
	c-0.1-0.4,0.3-0.9,0.4-1.3c1.2-5.8,2.5-11.5,3.5-17.3c0.2-0.8-0.6-1.9-1-2.8c-0.9,0.4-1.9,0.7-2.7,1.2c-3.7,2.3-3.2,6.1-3.1,9.5
	c0.1,3.6-1.1,6.2-3.6,8.5c-2.8,2.6-5.4,5.3-8,8.1c-2.6,2.9-0.9,4.4,2.1,5C692.2,554.7,694.3,554.8,697.4,555.2z M563.3,592.5
	c-1.1,2.3-1.8,4-2.6,5.6c-2.5,4.8-0.6,10.5,4,13.4c1.9,1.2,3.2,3.3,4.3,4.6c-2.4,2.2-4.2,3.6-5.7,5.4c-0.5,0.7,0,2.1,0,3.3
	c2.9-0.2,5.8,0,8.5-0.7c1.2-0.3,2.4-2.2,2.8-3.6c0.9-3.2,1.4-6.5,1.8-9.9c0.1-1,0.2-2.4-0.4-3.1c-2.7-3-5.6-5.8-9.1-9.2
	c0,3.6,0,6.6,0,10.8C562.1,603.8,567.3,597.8,563.3,592.5z M648.9,476.8c0.5-0.2,1-0.3,1.5-0.5c0.1-1.4,0.3-2.9,0.4-4.3
	c0.2-3.6-0.4-7.4,0.6-10.8c1.9-6.7-1.8-11.2-8.9-10.2c-3.5,0.5-6.6,0.7-5.9,5.8C637.7,465.5,644.9,470.1,648.9,476.8z M331.9,453.6
	c-3-2.5-5.4-5.3-8.4-7c-3.9-2.2-8.1-4.2-12.4-5.1c-1.6-0.3-4.4,2.2-5.7,4.1c-0.5,0.8,1.4,3.4,2.5,5c1,1.4,2.7,2.4,3.7,3.9
	c1.7,2.5,3.7,3.4,6.7,2.6C322.4,455.9,326.7,454.9,331.9,453.6z M749,437.8c-7.8,5.9-7.3,15.6-11.2,23.2c-0.7,1.3,0.4,5,1.2,5.2
	c2,0.4,4.8,0.2,6.3-1.1C750.6,460.9,752.6,444.7,749,437.8z M161.1,187.6c0.6-0.1,1.1-0.1,1.7-0.2c1.3-4.6,2.7-9.3,3.9-13.9
	c0.2-0.7,0-2.1-0.6-2.5c-4.6-3.4-9.3-6.7-14.1-9.8c-1-0.6-2.6-0.1-5-0.1C152.1,170.6,156.6,179.1,161.1,187.6z M104.6,720.9
	c0.3,0.5,0.6,0.9,1,1.4c8.2-4.1,16.4-8.1,24.5-12.4c2.4-1.3,4.5-3.2,6.2-5.3c1-1.2,0.8-3.2,1.2-4.9c-1.8,0.4-3.8,0.3-5.3,1.2
	c-3.2,1.9-6.2,4.2-9.3,6.5C116.8,711.9,110.7,716.4,104.6,720.9z M860.4,694.5c-0.8,6.2-1.6,11.4-2,16.5c-0.1,1.2,1.3,3.1,2.5,3.7
	c3.2,1.5,8.4-0.5,9.9-3.7c0.5-1,0.6-2.7,0.1-3.7c-0.8-1.9-1.9-3.9-3.3-5.4C865.4,699.2,862.8,696.9,860.4,694.5z M159.6,704.5
	c1.5-7,2.8-12.8,3.8-18.5c0.2-0.9-0.9-1.9-1.5-2.9c-1,0.6-2.4,1-2.8,1.8c-0.7,1.5-0.6,3.3-1,4.9c-0.3,1.4-0.9,2.8-1.3,4.2
	c-0.4,0-0.8-0.1-1.2-0.1c-0.6-1.8-1.2-3.5-1.8-5.3c-2.6,1-5,2.1-7.4,2.8c-3.2,0.9-4.6,2.5-3.4,6.1c1-0.2,1.9-0.1,2.4-0.6
	c3.6-3.4,5.5-1.5,7.7,1.9C154.5,700.9,157.1,702.3,159.6,704.5z M341.6,459.7c-1.2,14.7-2.2,28.2-3.4,42.7
	C344.9,493.6,347,468.5,341.6,459.7z M174.8,177c-0.5,0.1-1,0.1-1.5,0.2c-7.2,13.2-6.3,20.7,4.5,25.3
	C176.8,193.5,175.8,185.2,174.8,177z M172.2,207.3c-4.6,3.1-6.1,6.4-3.6,8.6c4.8,4.3,6.3,9.6,6.7,15.6c0.2,3.1,1.7,5.1,6.4,5.7
	C178.4,226.9,175.4,217.3,172.2,207.3z M816.6,281.8c0.7,0.1,1.4,0.1,2,0.2c1.4-6.1,3-12.3,4.1-18.5c0.2-1.2-1.2-2.8-1.9-4.2
	c-1.5,0.8-3.2,1.4-4.4,2.5c-2.3,2.2-2.8,4.6-1.3,7.8c1.1,2.3,0.9,5.3,1.2,8C816.4,279,816.5,280.4,816.6,281.8z M306.4,294.9
	c-0.6,0-1.2,0.1-1.8,0.1c-0.3,2-1,4-0.9,5.9c0.1,3.5,0.5,7,1,10.5c0.2,1.3,1.4,3.7,1.7,3.6c2.3-0.6,4.6-1.4,6.6-2.6
	c0.5-0.3,0-2.5-0.4-3.6c-1.3-3.2-2.7-6.4-4.1-9.6C307.7,297.8,307.1,296.4,306.4,294.9z M853.4,700.6c-4.6,2.7-8.2,4.6-11.5,6.9
	c-1.2,0.9-1.9,2.5-2.8,3.9c1.4,0.4,2.8,0.9,4.3,1.2c0.9,0.1,1.9,0,2.7-0.2c2.6-0.9,6.5-1.2,7.5-3C854.8,707,853.6,703.5,853.4,700.6
	z M335.3,350.9c0.5-4.1,1.5-8.1,1.4-12c-0.1-1.9-2-3.9-3.5-5.5c-0.9-1-2.4-1.5-3.6-2.2c-0.4,2.1-1.6,4.4-0.9,6.1
	C330.3,341.7,332.8,345.8,335.3,350.9z M754.2,442c6.6-7.2,7.7-17.9,3-24.8c-0.5,0.8-1.4,1.5-1.5,2.2
	C755.2,426.6,754.8,433.8,754.2,442z M658.3,536.4c1.6-6.2,0.1-12.2-3.5-17.7c-0.3-0.4-2.2,0.2-3.3,0.4c0.9,4.3,1.4,8.6,2.8,12.7
	C654.7,533.5,656.8,534.8,658.3,536.4z M872.8,717.1c5.1,0.8,10.3,1.6,16,2.5C885.9,712.5,878.8,711.3,872.8,717.1z M668.1,440.2
	c8.6-6.1,9.3-10.8,2.9-15.7C670.1,429.5,669.2,434.2,668.1,440.2z M658,638.4c1.5-3.6,2.1-6.6-2.1-7.8c-1.5-0.4-4.6,0.1-4.7,0.7
	C650,636.4,654.5,636.5,658,638.4z M652.1,554.4c0.5,0,1,0.1,1.5,0.1c0-5.5,0-10.9,0-16.4c-0.6,0-1.2,0-1.8,0
	C650.2,543.5,651.1,549,652.1,554.4z M151.4,705.9c-1.5-1.6-2.6-3.1-4-4c-0.9-0.6-3.3-0.9-3.5-0.5c-1,1.9-1.5,4.1-2.1,6.2
	c1.2,0,2.5,0.1,3.7-0.1C147.3,707.2,149.2,706.6,151.4,705.9z M216.4,345.2c4.1-5.5,2.1-7.4-4.5-11.7
	C209.5,339,216.1,340.2,216.4,345.2z M678.4,448.6c-1.5-3.6-2.6-6.2-3.7-8.8c-1.9,1.9-3.8,3.8-6.1,6.1
	C671.9,446.8,674.3,447.5,678.4,448.6z M579.8,615.1c1.3,1.6,2.1,2.4,2.8,3.3c1.4-1.6,3.2-3.1,4.1-5c0.3-0.6-1.3-2.3-2.1-3.4
	C583.1,611.5,581.6,613.1,579.8,615.1z M673.8,626.9c-1.1-1.4-1.9-2.3-2.6-3.3c-1.2,1.3-2.9,2.4-3.3,3.8c-0.2,0.8,1.9,2.2,3,3.3
	C671.7,629.6,672.6,628.4,673.8,626.9z M303.9,472.6c0.8,0,1.6,0,2.4,0c0.1-2.3,0.3-4.6,0.4-7c-1.1,0.2-3.1,0.3-3.1,0.6
	C303.4,468.3,303.7,470.5,303.9,472.6z"/>
<path d="M488.5,63.3c0.2,1.4,0.4,2.9,0.8,5.3c1.6-1.3,3.8-2.3,3.9-3.4c0.2-1.4-1.1-3.6-2.4-4.4c-2.6-1.6-3.1-3.6-2.3-6.3
	c1.4-5,3.2-9.9,4.1-15c0.7-4.5,0.4-9.1,0.6-13.7c0.1-1.8,0.4-3.7,0.6-5.5c0.4-0.1,0.8-0.1,1.3-0.2c0.9,1.6,1.7,3.3,3.2,6.2
	c1.3-7.5,2.3-13.8,3.3-20c0.2-1.2-0.3-2.5,0.1-3.7c0.3-1,1.3-1.8,2-2.7c0.9,0.9,2.4,1.6,2.6,2.6c0.5,2.5,0.7,5.2,0.6,7.8
	c-0.5,11.9,2.2,23.2,6.1,34.3c0.5,1.3,0.7,2.7,1.1,4c-0.4,0.2-0.8,0.5-1.2,0.7c-1.5-1.4-3.1-2.9-4.6-4.3c-0.5,0.2-0.9,0.4-1.4,0.5
	c1,3.3,2.1,6.6,3,9.9c0.3,1.3,0.1,2.8,0.1,4.2c-1.2-0.4-2.3-0.9-3.5-1.3c-1.2-0.4-2.5-0.7-3.7-1.1c-0.1,1.4-0.6,3-0.1,4.1
	c2.8,5.9,6,11.6,9,17.4c0.5-0.1,1-0.1,1.6-0.2c0-8.4,0-16.8,0-25.1c0.6-0.1,1.1-0.2,1.7-0.2c0.9,1.3,1.9,2.6,2.7,3.9
	c5.4,9.6,11,19.1,16.2,28.9c3.1,5.8,5.4,12,8.1,18c0.6,1.3,0.7,2.7,1.5,3.8c3.2,4.7,4.6,9.1,1,14.7c-1.7,2.6-0.6,6.9-1.3,10.3
	c-1.3,7-3.3,13.8-4,20.8c-0.4,3.4,0.8,7.2,2.3,10.3c1.8,3.7,2,6.8,1.1,11c-1.6,7.7-2.1,15.8-2.9,23.7c-0.2,1.6,0,3.2,0,4.7
	c-0.6,0.1-1.1,0.3-1.7,0.4c-0.6-1.5-1.4-2.9-1.7-4.5c-0.4-2.3-0.4-4.6-0.6-6.9c-0.7-7.9-2-15.8-2-23.8c-0.1-10.7,1.1-21.4,1.2-32.1
	c0-3.5-1.8-7-2.4-10.6c-0.3-1.8-0.4-3.8,0.2-5.5c0.8-2.3,2.5-4.2,3.5-6.5c0.3-0.8-0.2-1.9-0.4-2.9c-0.9,0.2-2,0.3-2.8,0.8
	c-0.9,0.6-1.6,1.5-2.1,2.5c-2.4,5.5-4.9,11-6.8,16.6c-1.1,3.2-4.2,6.3-7.6,6.2c-1.2,0-2.4-0.2-3.8-0.3c-0.5,3.3,0.7,4.6,3.7,4.2
	c1.2-0.2,2.4-0.5,3.6-0.8c3.6-0.7,5,0.4,4.5,4.4c-0.9,7.6-1.3,15.3-1.8,23c-0.6,9.8-0.6,19.7-2,29.3c-0.6,3.7-4.4,7-7.1,10.3
	c-3,3.7-6.4,7.1-9.4,11.1c2.7-1.7,5.4-3.5,8.2-5.1c4.4-2.5,6.1-1.5,6.2,3.5c0.2,10.9,0.2,21.8,0.4,32.8c0,1.7,0.5,3.3,0.8,5
	c0.8,5.5,1.2,10.8-5,13.9c-1.7,0.8-2.9,2.5-4,4.8c1.7-0.3,3.4-0.6,5-1c2.6-0.6,3.9,0.3,3.9,2.9c0,1.4-0.1,2.8-0.1,4.2
	c0.1,7.6,0.7,15.3,0,22.9c-0.8,8.8-0.1,17.8-4,26.2c-0.4,0.8-0.9,2.3-0.6,2.6c4.2,3.8,2.1,8.7,2.3,13.1c0.3,6.7-0.1,13.4-0.3,20.1
	c-0.1,2.8-1.3,3.9-4.4,4c-2.2,0.1-5,1.1-6.6,2.6c-4.8,4.6-9.2,9.6-13.8,14.5c-0.9,1-1.4,2.6-2.4,3.4c-3,2.1-3.1,5-2.9,8.2
	c0.2,2-0.2,4-0.8,5.9c-4.4-12-7.6-24.2-5.5-37c0.8-5.3-0.3-11.1,3.5-15.8c1.2-1.5,1.9-3.4,3.3-4.6c3.2-3,3.1-4.8,0-7.5
	c-1.3-1.2-2.4-3.3-2.5-5c-0.4-5.1-1.5-10.4,2.5-15c0.5-0.6-0.1-3-0.9-3.9c-3.2-3.7-3.4-7.6-1.8-12.1c0.8-2.2,0.5-4.8,0.7-7.3
	c0.2-3,0.5-6,0.7-9c0.1-1.5,0.4-3.2-0.1-4.5c-3.5-9.5-1.4-19.2-1-28.8c0.1-3.2,0-6.4,0.5-9.5c0.4-2.8,1.6-5.5,2.6-8.5
	c-4.6-1.1-4.9-4-4-8c0.7-3.2,0.2-6.7,0.5-10.1c0.4-4.7,1.1-9.4,1.7-14.1c0.2-2,0.8-3.9,0.7-5.9c0-4.1-0.4-8.1-0.6-13
	c-2-0.5-2.8-2.8-2.6-6.4c0.5-8.5,0.6-17.1,0.4-25.7c-0.1-6.3-0.2-12.7-1.6-18.8c-0.7-3.1-4.4-5.4-6.7-8.1c-1.6,0.8-3.2,1.5-4.8,2.3
	c0-2,0.2-4-0.1-6c-0.3-1.7-1.2-3.4-1.8-5.1c-1.2,1.2-2.9,2.2-3.4,3.6c-1.8,5.3-2.3,10.7-0.6,16.3c0.9,2.9,0.5,6.1,0.6,9.2
	c0.1,2.3-0.4,4.7,0.2,6.9c2.9,11.8-0.4,22.5-4.8,33.2c-3.5,8.5-3.4,17.4-2.1,26.4c0.2,1.1,0.3,2.3,0,3.5c-4.6-4-3.5-9.5-3.8-14.6
	c-0.6-8.1,2.1-15.5,3.6-23.3c1.6-8.3,4-17.5-1.6-26c-1.2-1.8-1.3-5.6-0.2-7.3c4.1-6.5,3.8-13.5,2.3-20.1c-2.7-11.2,2.5-19,9.7-26.1
	c0.8-0.8,3-0.1,4.2-0.1c-0.1-12.4,8.3-21.6,13-32.3c0.3-0.7,0.7-1.4,1-2.1C487.4,62.8,487.9,63.1,488.5,63.3z M502.6,109.4
	c0.5,0,1-0.1,1.5-0.1c-0.3-2.5-0.5-4.9-0.9-7.4c-0.7-4.2-1.8-8.3-2.3-12.6c-0.2-1.1,0.9-2.4,1.3-3.5c1.1,0.8,2.5,1.5,3.3,2.5
	c1.1,1.4,1.8,3,2.6,4.6c0.4-0.2,0.8-0.4,1.3-0.6c-0.9-6.6-1.8-13.2-2.8-20.4c-1.9,1.5-2.8,2.6-4,3.2c-5.7,2.6-10,13.4-7.4,19.1
	C497.6,99.3,500.2,104.3,502.6,109.4z"/>
<path d="M443.3,313.7c0.2,3.6,0.6,7.2,0.5,10.9c-0.1,3.6,1,7.9-4,9.5c3.2,6.7,3.9,13.3,2.5,20.2c-0.3,1.3,0.1,2.7,0.2,4.1
	c0.1,2.3,0.1,4.7,0.4,7c0.2,1.7,0.6,3.3,0.9,5c0.4,0,0.9,0.1,1.3,0.1c0.8-1.4,2.1-2.7,2.2-4.1c0.3-4.3,0.2-8.6,0.1-13
	c0-4-0.5-8.1,2.5-11.2c0.5,0.1,1,0.2,1.4,0.2c-0.1,1.5-0.1,3-0.4,4.5c-1,4.4-0.3,8.3,1.9,12.4c1.1,2.1,0.8,5.2,0.4,7.8
	c-0.4,2.3-1.8,4.4-2.7,6.6c0.5,0.4,0.9,0.8,1.4,1.2c1.7-1.7,4.3-3.1,5-5.1c0.9-2.8,1.3-6.5,0.1-9c-1.7-3.6-1.7-6.4,0.3-9.5
	c0.4-0.5,1.3-1.1,1.9-1c0.5,0.1,1.4,1.2,1.3,1.5c-1.9,6.2,3.7,8.2,6.6,11.5c6.5,7.4,9.3,15.9,9.7,25.6c0,1,0.8,2,1.3,2.9
	c1,1.7,2.8,3.3,3,5.1c0.9,7.3,1.8,14.7,1.8,22c-0.1,8.1-1.1,16.2-1.9,24.2c-0.1,1.4-1.2,2.8-2.8,3.9c-0.4-3-0.8-5.9-1.2-9.6
	c-7.9,4.7-10.4,11.1-10.9,18.5c-0.4,6.1-0.5,12.3-0.8,18.4c0,0.9-0.7,1.8-1,2.6c-0.5,0-1,0-1.5,0c-0.8-5.6-1.5-11.1-2.3-16.7
	c-0.3-1.7-0.9-3.4-1.4-5c-1.4,0.7-2.9,1.3-4.3,2.1c-1.7,1-3.6,1.8-5,3.2c-1.5,1.4-2.5,3.4-3.7,5.1c0.4,0.4,0.9,0.8,1.3,1.2
	c1.5-1,3-2.1,4.6-3.1c2.5-1.6,4-2.1,5,1.9c3,12.3,0,24.1-1.7,36.1c-0.1,0.6-0.7,1.2-2.3,1.8c-0.4-4.3-1.1-8.5-1.2-12.8
	c-0.1-3.2,0.7-6.4,1.1-9.6c0.6-4.9-1.7-8.6-5.7-12.8c-0.4,3.3-0.8,5.5-0.9,7.8c-0.9,12.3-1.8,24.5-2.6,36.8
	c-0.1,2.3,0.7,4.6,0.6,6.9c-0.3,6.3-1,12.5-1.5,18.8c-0.5,0-1,0-1.5,0.1c-0.3-0.6-0.8-1.2-0.8-1.8c-0.3-8.6-1-17.2-0.8-25.9
	c0.3-12.6,1.3-25.1,2.1-37.7c0-0.3,0.2-0.7,0.1-0.9c-4.5-11.4,4.7-17.6,10-24.7c4.2-5.6,4.7-10.3,1.3-15.9c-2.7-4.4-5.9-8.2-11.1-10
	c0.9,5.2,3.8,9.2,7.5,12.4c3,2.6,3.5,3.8-0.5,5.7c-1.3,0.6-1.9,2.9-2.5,4.5c-0.8,1.9-1.4,3.9-2.1,5.9c-2.5-1.5-4.1-2.4-5.7-3.3
	c-0.7,2.2-2,4.4-2,6.7c-0.5,12.1-0.5,24.2-1,36.2c-0.1,3.2-1,6.4-1.8,9.5c-0.2,1-1.4,1.7-2.1,2.6c-0.5-1-1.3-1.9-1.5-2.9
	c-0.2-1-0.2-2.4,0.4-3.2c3.6-5.1,2.4-10.4,1.4-16c-0.6-3.7,0.2-7.6,0.1-11.3c-0.3-6.1-0.8-12.2-1.4-18.3c-0.1-1.2-1.6-2.2-2.3-3.3
	c-1.7-2.6-3.2-5.3-5.2-7.6c-1.1-1.2-2.9-1.9-4.5-2.6c-1-0.4-2.2-0.3-3.3-0.4c0.1-1.3,0-2.8,0.5-4c0.6-1.2,1.7-2.2,2.8-3
	c5.6-3.7,6.3-7.7,2.5-13.4c-1.5-2.3-2.7-4.9-4.4-8.1c3.3,1,5.2,1.6,7.1,2.1c0-2.1,0.5-4.3-0.1-6.2c-1.3-4.6-3-9-4.6-13.5
	c-0.5-1.3-1.1-2.6-1.6-4c0.3-0.2,0.6-0.5,0.9-0.7c1.5,1.1,3.1,2.3,5.4,4c0.3-4.4,0.8-8.1,0.8-11.9c0-5.2-0.4-10.4-0.4-15.6
	c0-4,1.6-8.9,0-12c-3.2-6,2-12.1-1.5-17.9c-1-1.7,0.7-4.8,0.5-7.1c-0.1-1.5-1.5-2.8-2.4-4.2c-0.9,1.4-2.3,2.7-2.5,4.2
	c-1,7.7,1.4,15.3-0.9,23.2c-1.5,4.9-0.2,10.5-0.2,15.9c0,2.1-0.3,4.1-1.3,6.2c-4.8-6.9-2.8-14.7-3.3-22.1c-0.5-7.5,0.5-15,0.9-22.4
	c-0.7-0.2-1-0.4-1.2-0.3c-1.7,0.3-3.5,0.6-5.2,0.9c1-1.5,1.9-3.1,2.9-4.6c5.5-8.3,13-15.4,12-27.1c-0.6-7.5,1.7-15.1,2.3-22.7
	c0.2-2.5-1.1-5.1-1.1-7.7c0.1-13.3,0.5-26.7,0.8-40c0-1.6,0.8-3.2,1.3-4.8c0.4,0.1,0.9,0.1,1.3,0.2c0.3,3.6,0.4,7.2,0.8,10.7
	c0.9,9.5,2.5,19.1,2.4,28.6c-0.1,6.2,0.8,11.7,4,16.6c3.9,5.9,6.5,12,7.3,18.9c0.1,0.8,0.7,2.2,1.2,2.3c4.3,0.9,4.5,5.1,6.3,7.9
	c2.2,3.3,4,6.9,6,10.3c1.6,2.8,2.3,5.3,1,8.7c-1,2.7,0.2,6.1-0.2,9.1c-0.2,1.7-1.6,3.3-2.5,4.9c-1.1-1.5-2.7-2.8-3.1-4.5
	c-0.7-2.8-0.2-5.9-0.8-8.7c-0.8-3.9-2.2-7.7-3.3-11.6C444.9,313.5,444.1,313.6,443.3,313.7z M458.1,409.8c0.3-0.3,0.7-0.5,1-0.8
	c1.6,0.8,3.1,2,4.7,2.2c0.9,0.1,3.1-2.1,3-2.2c-3-4.7-1.7-9.7-1.5-14.6c0.1-2.9-6.6-7.9-9.5-7.3c-8.4,1.7-12.8,4.4-12.8,15.7
	c0,7.2,0.7,13.2,8.6,16.1c1.9,0.7,3.4,2.9,4.9,4.6c2.2,2.5,4.3,2.5,5.7-0.5c1.3-2.8,2.2-5.7-1.1-8.3
	C459.8,413.6,459.2,411.4,458.1,409.8z M443.5,380.5c0.7,0.2,1.5,0.3,2.2,0.5c0.8-1.8,1.9-3.6,2.2-5.5c0.1-0.7-1.8-1.7-4-3.6
	C443.7,375.9,443.6,378.2,443.5,380.5z"/>
<path d="M515.4,591c0,8.1-0.1,16.1,0.1,24.2c0,1.2,0.8,2.5,1.4,3.7c1.8,3.3,0.3,7.7-3.3,9.1c-5.9,2.4-6.6,1.7-8.2-4.6
	c-1.4-5.7-3.8-11.1-5.4-16.7c-0.5-1.6,0.3-3.5,0.2-5.3c-0.1-2.6-0.3-5.3-0.6-7.9c-0.1-1.3-1-2.9-0.5-3.9c1.8-4.2,3.9-8.3,6.3-12.1
	c0.5-0.7,4.1-0.7,4.6,0.1c2.6,4.1,4.8,8.5,7.1,12.7C516.5,590.6,515.9,590.8,515.4,591z"/>
<path d="M484.2,654.6c1.3-0.5,2.7-1.5,4-1.5c1.5,0,3,0.8,4.5,1.2c-0.6,1.3-1,2.9-2,3.9c-2.9,3.1-6,5.9-9.7,9.4
	c-3.5-9.9,1-19.9-1.8-29.5c1.8-0.2,3.8-0.9,5.3-0.4c1.5,0.5,2.9,2.1,3.6,3.6c0.4,0.8-0.4,2.5-0.9,3.6c-1.5,2.8-3.2,5.4-4.8,8.1
	C483.1,653.6,483.7,654.1,484.2,654.6z"/>
<path d="M473.2,473.8c-0.3-0.2-0.7-0.4-0.8-0.6c-1.4-6.8-3.2-13.5-3.8-20.4c-0.2-1.9,2.9-4.1,4.4-6.1c1.2,1.5,3.4,3.1,3.3,4.5
	c-0.4,7.3-1.5,14.5-2.4,21.7C474,473.2,473.5,473.5,473.2,473.8z"/>
<path d="M604.4,530.7c3.7,1.7,5.5,5.4,5.4,9.3c0,4.1-0.8,8.6-5.4,12C604.4,544.5,604.4,537.9,604.4,530.7z"/>
<path d="M539.5,341.5c1.2,2.6,2.2,5.3,3.6,7.8c0.8,1.5,2.2,2.8,3.4,4.1c0.9,1,2.3,1.9,2.4,3c0.1,0.9-1.5,2.6-2.4,2.6
	c-1.6,0-3.4-0.7-4.8-1.6c-0.7-0.4-0.7-2-0.9-3c-0.8-4.1-1.6-8.3-2.4-12.4C538.7,341.8,539.1,341.6,539.5,341.5z"/>
<path d="M425.9,197.3c0.7,6.3,1.4,11.7,2,17.2c-0.4,0-0.8,0.1-1.2,0.1C426.4,209.1,422.1,204,425.9,197.3z"/>
<path d="M588.2,163.8c3,4.3,6.1,8.5,1.7,13.4C589.4,172.7,588.8,168.2,588.2,163.8z"/>
<path d="M533,342.7c0.8-3.8,1.4-6.5,2.1-9.9C539.1,337.5,538.8,339.4,533,342.7z"/>
<path d="M783.4,201.5c1.1,3.8,4.2,7.2,1.8,12.8c-1.3-4.8-2.3-8.6-3.3-12.5C782.4,201.7,782.9,201.6,783.4,201.5z"/>
<path d="M424.5,189.5c-0.2-3.6-0.4-7.2-0.6-10.9c0.5,0,0.9-0.1,1.4-0.1c0.4,3.6,0.7,7.2,1.1,10.8
	C425.7,189.3,425.1,189.4,424.5,189.5z"/>
<path d="M873.7,750.3c0,2.6,0,5.2,0,7.7c-0.4,0-0.8,0-1.3,0c0-2.6,0-5.2,0-7.7C872.8,750.3,873.3,750.3,873.7,750.3z"/>
<path d="M160,831.1c2.7,3.6,5.2,7.2,1.9,12.7C161.1,838.9,160.6,835,160,831.1z"/>
<path d="M307.6,413.7c4.8-6.2,9.6-12.4,14.5-18.5c6.6-8.4,11.5-17.4,10.2-28.7c-0.2-1.5,0.5-3.1,0.8-4.8c4.5,0.6,5.6,2.8,5,6.5
	c-2,12.7-7,24-15.6,33.7c-3.6,4-7.3,7.8-11.1,11.6c-0.7,0.7-1.6,1-2.4,1.5C308.5,414.5,308,414.1,307.6,413.7z"/>
<path d="M736.2,284.6c1.5-0.9,2.6-1.7,3.8-2.3c2.5-1.2,5-2.4,7.6-3.5c0.7-0.3,1.6-0.3,2.5-0.5c0.1,0.8,0.5,1.8,0.3,2.5
	C748.5,286.2,742,288.2,736.2,284.6z"/>
<path d="M373.5,488.5c0,7,0.1,14.1-0.2,21.2c0,0.5-2.4,0.9-3.7,1.4c-0.6-2.2-2.2-4.6-1.7-6.4C369.4,499.3,371.6,494.1,373.5,488.5z"
	/>
<path d="M383.8,515.5c-2.2-4-2.4-7.1,1-10.8C386.3,508.7,387.2,511.9,383.8,515.5z"/>
<path d="M722.7,583.4c4.3,0.8,6.8,2.6,6.5,5.9c-0.1,1.5-3.4,4.1-3.8,3.8c-2.3-1.4-4.5-3.3-6-5.6C719,587.1,721.7,584.6,722.7,583.4z
	"/>
<path d="M376.4,394.1c4.9,10.5,1.3,18.7-10.1,22.2c2.5-3.3,5.7-6.4,7.4-10.1C375.4,402.6,375.6,398.2,376.4,394.1z"/>
<path d="M625.5,597c0-5.1,0-10.2,0-16.3C630.7,585.6,630.1,594.2,625.5,597z"/>
<path d="M794.2,621.5c0-6.2,0-12.1,0-19C799.1,608.1,798.7,619.8,794.2,621.5z"/>
<path d="M793.8,591.3c0-4.6,0-8.4,0-12.5C798.6,581.6,798.8,587.5,793.8,591.3z"/>
<path d="M526.5,397.3c0.7,1.6,1.8,3.2,1.9,4.8c0.3,5.5,0.3,11,0.2,16.4c0,1-1.8,2.9-2.3,2.7c-1.7-0.6-3.3-1.6-4.5-2.9
	c-0.6-0.6-0.8-2.8-0.2-3.2c4.9-4.1,3.2-9.4,3.2-14.5c0-1.1,0.4-2.2,0.6-3.3C525.8,397.4,526.1,397.3,526.5,397.3z"/>
<path d="M516.3,391.3c0,8.8,0,16.8,0,25.6C510.5,411.6,510.5,396.1,516.3,391.3z"/>
<path d="M421.3,609c0.5-7,0.9-12.7,1.4-18.8C426.1,593.2,425.6,604.9,421.3,609z"/>
<path d="M453.5,414.5c-5.6-2.5-7.5-6.3-5.8-11.8C449.7,406.8,451.6,410.6,453.5,414.5z"/>
</svg>
