<?xml version="1.0" encoding="utf-8"?>
<!-- Generator: Adobe Illustrator 21.0.0, SVG Export Plug-In . SVG Version: 6.00 Build 0)  -->
<svg version="1.1" id="Layer_3" xmlns="http://www.w3.org/2000/svg" xmlns:xlink="http://www.w3.org/1999/xlink" x="0px" y="0px"
	 viewBox="0 0 1000 1000" style="enable-background:new 0 0 1000 1000;" xml:space="preserve">
<path d="M691.9,614.3c-4.1-0.8-8.1-1.7-12.2-2.5c-0.7-0.1-1.3-0.3-2-0.4c-5.2-0.4-10.4-0.9-15.7-1.1c-2-0.1-4,0.7-6,0.8
	c-2.7,0.1-5.3,0.1-8,0c-2.1-0.1-3.8,0.2-4.8,2.4c-0.2,0.4-1.6,0.7-1.6,0.6c-1.6-2.8-3.4-2-5.5-0.7c-0.5,0.3-1.6-0.3-2.2,0.2
	c-2.5,0.7-5.1,1.5-7.9,2.3c0-0.1-0.1,0.6-0.2,1.7c-2.8-2.1-5.1-1.5-7.2,0.5c-0.4,0.4-1.2,0.7-1.8,0.6c-5-0.9-7,3.4-10.3,5.8
	c-0.8-0.1-1.5-0.3-2.3-0.4c-2-0.2-3.8-0.9-5.3,1.7c-0.9,1.5-2.8,3.7-5.8,3c-0.7-0.2-1.8,1.5-2.8,2.1c-1.4,0.7-2.9,1.2-4.4,1.7
	c-0.6,0.2-1.6,0.2-1.7,0.6c-1.4,4.3-6,5.4-9,6.9c-3.5,1.7-5.6,4.7-8.8,6.2c-2.1,1-4.3,1.8-6.5,2.8c-2.6,1.1-5.1,2.2-7.7,3.3
	c-0.3-0.2-0.5-0.4-0.8-0.6c1-1.5,2-3,3.5-5.3c-1.6,0.5-2.4,0.7-3.5,1c0.6-2.8,4.8-3.7,3.4-7.2c-0.3,0.6-0.6,1.2-1.4,2.7
	c-0.5-2.4-0.6-3.9-1.1-5.2c-0.3-0.8-1.4-1.8-2.1-1.8c-1.1,0-2.2,0.7-3.7,1.3c-0.6-1.1-1.2-2.5-2.2-4.4c-3.3,0.1-7.2,0.3-11.1,0.4
	c-0.7,0-1.3,0-2-0.1c-3.4-0.8-3.4-0.8-4.9,2.1c-0.4-0.8-0.7-1.6-1.1-2.4c-0.4,0.3-1.2,0.5-1.3,0.9c-0.4,1.3-1.2,3.3-0.7,4
	c2.9,3.6,6.1,7,9.3,10.3c0.7,0.7,2,0.9,3.2,1.4c1.2,4.3,5.9,3.8,9,5.1c3.4,1.4,7.3,1.4,11.5,2.1c-3.3,1-6.5,2.2-9.7,2.8
	c-2.9,0.6-5.4,0.9-6.9,4.1c-1.1,2.4-3.3,4.4-5.4,7c-0.6,0.1-2,0.5-3.6,0.9c2.1,4.3-1.6,4.2-3.7,5.5c-0.9,0.5-1.5,1.4-2.2,2.1
	c0.7,0.7,1.5,1.3,1.8,1.6c-1.4,2.6-3.1,5.5-4.4,8.5c-1.5,3.4-3.4,6.8-4,10.4c-0.9,5.5-3.1,10.7-3,16.5c0.1,5.7-1.6,11.5-2.4,17.2
	c-0.7,5.4-1.9,10.6-1.6,16.2c0.2,3.4-1.2,6.8-1.7,10.3c-0.8,5.9-1.6,11.8-1.9,17.8c-0.4,6.2-0.2,12.4-0.3,18.5
	c0,0.7-0.4,1.4-0.5,2.1c-0.3,0-0.6,0-0.9,0c-0.1-2.2-0.3-4.3-0.4-6.5c-0.3-5.8-0.7-11.6-0.9-17.4c-0.2-6.7-0.2-13.3-0.6-20
	c-0.1-2.1-1.6-4.1-1.9-6.2c-0.2-1.6,0.5-3.3,0.9-5.1c-1-0.3-2.1-0.5-3.3-0.8c0.3-1.4,0.6-2.6,1-4.4c0.8,0.9,1.3,1.5,1.8,2.1
	c0.2-0.2,0.6-0.5,0.5-0.6c-0.3-1.4-0.8-2.7-1.1-4c-0.8-4.3-2.2-8.7-2.1-13c0-1.7-0.8-3.4-0.2-5.2c0.2-0.8-0.8-1.8-1.1-2.8
	c-0.3-0.9-0.9-2.3-0.5-2.7c3.4-3.1,0.1-5.2-1-7.5c-0.5-1.1-1.3-2-2-3c0.2-0.2,0.4-0.4,0.7-0.5c0.7,0.3,1.4,0.6,2.5,1.1
	c-0.1-0.8-0.1-1.3-0.3-1.6c-3-4.3-5.4-8.7-4.2-14.3c0.2-0.9-1-2.1-2.3-2.9c0.3,0.9,0.5,1.9,0.8,2.8c-0.3,0.2-0.6,0.4-0.9,0.5
	c-0.6-1.1-1.5-2-1.8-3.2c-1.2-4.5-2.2-9-3.3-13.5c-0.7-2.8-6.7-7.4-9.7-7.8c-2.4-0.3-4.8-0.8-7.2-1.5c-0.8-0.2-1.3-1.2-2.4-2.3
	c5.7,0.3,9.3-2.3,12.7-5.1c2.7-2.1,5.1-4.5,7.6-6.9c2.2-2.1,4.2-4.3,6.3-6.5c0.8-0.8-1.5-5.2-2.9-5.5c-3-0.6-6.1-1-9.2-1.6
	c-2.6-0.5-4.9-0.2-6.9,1.5c-0.9,0.8-1.7,1.7-2.8,3c-0.2-0.8-0.5-2-1-3.5c-0.8-0.1-2-0.3-3.4-0.5c0.1,1.1,0.1,2,0.1,2.8
	c-5.1,0.2-8.8,2.4-8.3,4.8c1.2-0.4,2.4-0.7,3.6-1.1c0.2,0.3,0.4,0.6,0.6,1c-1.1,1.6-3.1,3.2-3,4.7c0.2,2.3,1.7,4.6,2.9,6.7
	c0.5,0.9,1.6,1.3,2.5,2c-0.1,0.4-0.2,0.7-0.3,1.1c-1,0-2,0.2-2.9-0.2c-2.4-1-4.7-2.2-7.1-3.3c-1.7-0.8-3.6-1.4-5.2-2.5
	c-3-2.1-5.6-4.7-8.6-6.8c-2.2-1.5-4.2-4.2-7.2-2.4c-1.3-1.6-2.4-3-3.5-4.4c-0.4-0.5-1.2-1.3-1.5-1.1c-4.2,1.4-5.6-3-8.6-4.1
	c-3.2-1.1-6.2-2.8-9.3-4c-1.2-0.5-2.8-0.8-4.1-0.6c-2.2,0.3-3.7-0.1-5.4-2c-0.4-0.4-1.1-0.4-1.7-0.6c-2.6-0.8-5.3-1.5-7.9-2.2
	c-4-1.1-8-2.6-12.1-3.1c-7.1-0.8-14.3-1-21.5-1.2c-5.2-0.2-10.4-0.5-15.5-0.2c-4.6,0.2-9.1,1.2-13.7,1.8c-1.1,0.1-2.3-0.1-3.4-0.1
	c0-0.4-0.1-0.8-0.1-1.2c4.6-1.5,9.2-3,13.8-4.5c1.2-0.4,2.5-0.9,3.7-1.2c1.2-0.3,2.5-0.4,3.7-0.6c0.2,0.3,0.3,0.6,0.5,1
	c0.4-0.7,0.7-1.4,1-2c4.6-0.6,9.2-0.7,13.1-3.7c0.4-0.3,1.1-0.8,1.5-0.7c3.6,1.3,6.6-0.5,9.7-1.8c0.6-0.2,1.4-0.2,2,0.1
	c4,2,7.3-0.3,11.1-1.6c1.4,1.3,2.6,3.4,5.7,1.4c1.7-1.1,4.9,0.2,7.4,0.4c0.4,0,0.9,0.5,1.2,0.4c2.5-0.6,4.9-1.4,7.5-2.1
	c1,3.1,2.3,3.2,4.8,1.3c1.9-1.5,4.5-2,6.9-3c-0.7-3.1-0.8-6.1-4.4-7.1c-0.4-0.1-0.9-1.4-0.7-1.9c1.2-2.3-0.8-3-2-4.2
	c-0.7-0.7-1.3-1.4-1.7-2.3c-1.7-1.2-3.5-2.5-5.2-3.7c0.3-0.5,0.5-1,0.8-1.5c7.3,2.6,14.6,5.3,22.1,8c-0.1,0.3-0.2,0.9-0.3,1.5
	c0.2-0.3,0.4-0.5,0.6-0.8c1.1,0.7,2.2,1.2,3.2,2c0.6,0.4,0.8,1.5,1.4,1.7c4.8,1.6,9.6,3,14.6,4.5c-0.9,5.1,3.8,2.9,6.1,3.9
	c0.4,1,0.8,2.1,1.2,3.1c0.3-0.1,0.6-0.2,0.9-0.3c-0.1-0.9-0.2-1.8-0.4-3.1c0.8,0,2.1-0.3,2.3,0.1c1.9,2.6,6.2,1.4,7.7,4.8
	c0.1,0.3,1.2,0.3,1.8,0.3c1.5,0.1,3.1,0.2,5.3,0.3c0,0,0.5-0.8,1-1.4c2.2-0.5,1.6,4.5,4.6,2c1.3-1.1,2.4-2.2,4-3.7
	c1.3,1.4,2.6,2.8,3.9,4.2c-0.2,0.2-0.4,0.4-0.6,0.5c0.2,0.1,0.5,0.3,0.6,0.2c3.2-1.5,3.2-1.5,6.7-8.7c0.1,2.7,0.3,4.8,0.4,7.6
	c4.2-4.3,0.6-8.5,2-12.4c-1.1-0.1-2-0.1-2.4-0.2c1-2.3,1.9-4.5,2.6-6.2c-0.5-1.5-0.9-2.5-1.3-3.5c-0.4-0.9-1-1.8-1.5-2.8
	c0.8-1.4,1.6-2.9,2.4-4.4c-3.5-3.5-11.4-3-16.3,1c0.5,0.7,1,1.3,1.5,2c-0.1,0.3-0.3,0.5-0.4,0.8c-1-0.5-2.1-0.9-3.7-1.6
	c-0.8,1.4-1.8,3.1-3.1,5.3c-0.2,0-1.1,0.1-2.3,0.1c-0.1,0.9,0,2-0.4,2.8c-0.4,0.8-1.4,1.3-2.1,1.9c-0.3-0.7-0.5-1.5-0.9-2.2
	c-0.4-0.9-1-1.7-1.4-2.5c1.9-3.1,0.4-6-1-8.6c-2.7-5-5.4-10-9.4-14.3c-3.5-3.8-7.9-4.7-12.4-4.8c-3.9-0.1-7.9,7.2-6.5,11.2
	c0.5,1.6,1.4,3,2,4.6c1.4,3.6,4.4,4.3,7.8,4.3c2.7,0,4.1-1.8,5.2-3.9c0.2-0.4,0.5-0.9,1.1-1.2c0.7,2,0.2,3.7-1.6,5
	c-5,3.8-8.9,3.6-13.7-0.7c-8.2-7.5-6.5-17.8,0.5-24.2c-3.6-1-6.9-1.8-10.2-2.8c-2-0.6-4.2-1-5.9-2.1c-2.1-1.4-3.3-1.2-4.6,0.9
	c-2.4,4-4.8,8-8,11.8c0.9-2.6,1.7-5.3,2.8-7.8c1.1-2.6,2.6-5.1,3.9-7.7c-4.1-3.9-8.2-7.8-12.7-12.1c-0.7,0.7-1.8,1.9-2.9,3
	c-3.9,3.8-7.5,8-11.9,11c-2.8,1.9-6.9,2-10.4,2.4c-1.1,0.1-2.5-1.3-3.7-2.1c0.2-0.3,0.4-0.6,0.6-1c1,0.6,2,1.5,3.2,1.7
	c3,0.5,5.9,0.3,8.6-1.6c5.8-4.3,10.6-9.5,13.5-16.2c0.4-0.9,0.2-2,0.3-3c-1.1,0.1-2.2,0.1-3.3,0.2c-0.5,0.1-1,0.3-1.1,0.4
	c0.5-2.5,1-5.1,1.4-7.6c-2.5-0.2-4.9-0.4-8.1-0.6c1.1-0.9,2-1.4,2.6-2.2c0.8-1,1.5-2.2,2.2-3.4c-1.3-0.3-2.5-0.7-3.8-0.7
	c-2.1,0-4.1,0.4-6,0.5c2.5-2.4,5.3-4.1,6.8-6.6c3.3-5.9-0.7-9.1-6.4-9.9c-5.6-0.7-10.2,2.7-14.5,5.9c-1.7,1.2-2.3,3.9-3.2,5.5
	c-1.7,0.2-3,0.4-4.2,0.6c0,0.5,0,1-0.1,1.5c1.7,0.4,3.5,0.7,5.6,1.2c-1,0.6-2,0.9-2.7,1.6c-2,2.1-3.8,4.3-5.6,6.6
	c-0.3,0.3-0.3,0.9-0.6,1.2c-5.9,5.8-11.6,12-19.2,15.5c-4.7,2.2-9.9,3.3-14.8,4.7c-0.7,0.2-1.5-0.2-2.4-0.7
	c7.6-1.9,14.3-5.1,18.9-12.1c-0.1-0.1-0.5-0.9-1.2-1.9c1.4-0.2,2.6-0.3,4.1-0.5c0-1.7,0.5-3.7-0.2-5c-0.5-0.9-2.8-0.7-4.3-1
	c0-0.3,0-0.6,0-1c1.4-0.3,3-1.2,4.2-0.9c3.2,0.8,4-1.5,4.1-3.4c0.2-2-0.9-3.9-3.5-4.1c-0.9-0.1-1.7-0.5-2.6-0.5
	c-1.7,0.1-3.6-0.1-4.9,0.6c-1.6,0.9-1.9,2.8-0.7,4.7c0.3,0.4-0.3,2.1-0.8,2.3c-6.7,2.6-7.2,4.2-3.2,10.5c-0.7-0.3-1.4-0.6-2.2-0.9
	c-1.5-0.6-3-1.4-4.5-1.5c-0.5,0-1.9,2.3-1.6,2.7c1,1.4,2.5,2.4,4.2,3.9c0.1-0.1-0.4,0.7-0.5,0.9c-2.4-1.2-4.5-2.2-6.6-3.1
	c-0.3-0.1-0.8-0.2-1,0c-5.5,4-13.3,4.2-17.2,10.6c-0.4,0.7-1,1.4-1.7,2.4c3.8,0.3,6.6-0.2,7.5-5.4c2.8,7.8,8.8,9.4,14.8,10.4
	c6,1,12.1,0.8,17.8-2.7c-0.9,2.1-3.6,4-6.8,4.7c-4.3,0.9-8.7,1.8-13.1,2.5c-5.8,1-10.9,2.7-12,9.6c-0.1,0.5-0.8,1-1.3,1.6
	c-1-2.1-1.9-3.9-2.8-5.7c-1.2-2.3-6-4.4-8.4-3.5c-0.8,0.3-1.7,1.8-1.7,2.7c0.1,4.4,0.4,8.8,0.8,13.3c0.1,1,0.3,1.9,0,3
	c-2.7-4-3.7-8.5-4.5-13.1c-0.2-1.3,0-2.8-0.4-4c-0.3-0.9-1.4-2-2.2-2c-6.4-0.5-7,0.2-6.5,6.5c0.3,3.2,1.1,6.3,1.7,9.5
	c0.1,0.7,0,1.5-0.1,2.2c-0.1,0.4-0.5,1.1-0.4,1.2c2.8,2.3,1,5.8,2.3,8.4c5.2,10.5,10.8,20.8,15.4,31.6c1.9,4.4,1.5,9.8,2.1,14.8
	c-0.4,0-0.7,0.1-1.1,0.1c-0.5-2.6-0.8-5.4-1.6-7.9c-2.6-7.7-7.5-13.9-12.6-20.2c-5.2-6.4-11.3-12-17.4-17.5
	c-1.8-1.6-4.8-1.9-7.3-2.6c-3.7-1.1-7.5-2.1-11.2-3.2c-0.4-0.1-0.6-0.8-1.4-1.7c6.5,0.2,11.8-1.7,15.2-6.7c1.7-2.5,2.6-5.9,3.1-9.1
	c1.2-6.5,0.9-6.6-5.6-6.3c-2.6,0.1-5.2,0.1-7.6,0.8c-1.9,0.6-3.6,2.2-5.3,3.6c-0.7,0.6-1,1.8-2,3.6c-2-6.4-4.8-11.1-11.8-10.1
	c-1.1,3.7-0.3,5.9,3.8,10.9c-1.2-0.4-2.8-0.3-3.5-1.1c-1.7-2-3.6-4.1-4.4-6.6c-1-3.2-2.6-4.4-5.7-4.4c-1.3,0-2.5-0.3-3.8-0.4
	c0-0.3,0-0.6,0-0.9c2.5-0.2,5-0.4,7.5-0.6c0.5-4.5-0.5-8.9,1.8-13c-4.8,1.3-5.2,5.9-8.2,8.7c0-2.7,0-5.4,0-8.1
	c-0.3,0-0.5-0.1-0.8-0.1c0.8-0.9,1.6-1.9,2.5-2.8c-0.1-0.3-0.3-0.5-0.4-0.8c-1.2,0.4-2.3,0.8-3.6,1.2c-3.5-6.8-7.1-1.6-11,0.8
	c0.4-2.1,0.6-3.6,0.9-5c-0.3-0.2-0.6-0.4-0.9-0.6c-2.8,1.9-5.7,3.9-8.6,5.9c-0.3-0.5-0.6-1.2-1.2-2.2c-2.9,4.2-5.6,8.1-8.3,12
	c-0.2,0-0.5,0-0.7,0c0.2-1.5,0.5-2.9,0.5-4.4c0-1-0.4-2-0.6-3.1c-1,0.3-2.5,0.3-3,1c-1.4,2.1-2.3,4.5-3.4,6.7
	c0.3,0.2,0.6,0.4,0.9,0.6c1.1-0.2,2.2-0.4,3.7-0.8c-4.3,13.6-1.6,25.4,8.3,35.6c-5.4-0.9-9.1-3.7-12.4-7.2c-1.6-1.7-3.9-2.8-4-5.8
	c0-0.6-2.3-1.1-3.5-1.6c1.5-4.4,0.1-5.5-3.3-5.8c-0.1-2.2,0.3-4.4-0.4-6.2c-0.4-0.9-3-0.7-5.2-1.2c-0.8-2.5,6.3-7.6-2.4-9.1
	c4.4-7.6-4.4-8.1-6.9-13c1.4,0.4,2.4,1,3.2,0.8c1.6-0.4,3.6-0.8,4.3-1.9c0.8-1.2,0.2-3.2,0.2-4.9c-1.2,0-2.5-0.4-3.4,0
	c-1.8,0.8-3.4,2.1-5.5,2.6c1.4-2.8,3.3-5.5,4.1-8.5c1.6-5.3,1.2-5.6-3.3-7.3c0.6-0.9,1.2-1.8,1.8-2.8c-3.6-2.7-7.2-2.7-10.9-0.5
	c-1.8,1.1-3.1,1.3-4.3-1.5c-0.4,1.2-0.9,2.5-1.3,3.7c-4.8-0.7-4.8-0.7-5,5.3c-0.1,1.3-0.6,2.5-1,4c-1-2.7-2-5.4-3.3-8.8
	c-3.5,2.8-6.5,4.8-9,7.3c-2.2,2.2-1.4,4.6,2.2,7.9c-0.8,0.5-1.5,0.9-2.2,1.4c-1.5-2.2-2.8-4.2-4.2-6.1c-4.8,1.9-12.9,11.6-13.6,15.7
	c-0.2-2.1-0.3-4.2-0.5-6.3c-0.3-0.2-0.6-0.3-0.9-0.5c-1.3,2.5-3,4.9-3.8,7.6c-1.1,3.5-1.4,3.9-4.5,1.6c-3.6,3.1-1.8,7.3-2.2,11.1
	c-2.1,0.1-2.8-4.5-5.1-1.5c-0.3,0.4,1.5,2.5,2.4,4.1c-0.6,0.1-1.5,0.3-2.4,0.6c-0.7,0.3-1.9,0.6-2,1.1c-0.7,3.5-1.3,7.1-1.5,10.6
	c-0.1,1.1,1.3,2.3,2.4,4.1c-5.5-1.6-6.2-6.5-8.5-10.3c0.3-0.6,0.8-1.4,1.2-2.3c-0.2-0.2-0.5-0.5-0.7-0.7c-1.5,1.5-3.8,2.7-4.4,4.4
	c-1.7,4.7-2.6,9.8-3.9,14.6c-0.2,0.8-0.5,1.5-0.8,2.3c-0.8-0.4-1.9-0.5-2.3-1.1c-1.9-2.9-2.4-6.1-1.8-9.5c-3.6-0.2-7.1,2.8-8.2,7.2
	c-0.5,1.9-0.7,3.9-1.1,5.8c-0.2,0.9-0.6,1.7-0.9,2.5c-0.4,0-0.7-0.1-1.1-0.1c-0.2-1.9-0.5-3.8-0.9-7c-3.8,4.4-10.1,4.2-11.5,10.7
	c-3.1-3.6-4.5,0.4-6.6,0.8c-4.3,0.9-7.4,3.9-11.5,5c-6.1,1.6-12.2,3.5-18.2,5.2c-0.5,0.1-1-0.1-1.7-0.8c3.8-1.7,7.7-3.2,11.4-5
	c4.5-2.1,8.9-4.4,13.3-6.8c0.9-0.5,1.3-1.7,2.2-2.7c-4.7-2.4-7.1,1.8-10.6,3.5c0.1-1.2-0.1-1.7,0.1-2.2c1-2.4-0.3-3.1-2.3-3.2
	c-1.3-0.1-2.6,0.2-3.9,0.1c-0.9,0-1.7-0.3-2.6-0.6c-0.5-0.2-0.9-0.9-1.3-0.8c-6.1,0.9-10.3-3.9-15.7-5.2c-0.6-0.2-1-1.3-1.5-1.9
	c0.2-0.3,0.4-0.6,0.6-0.9c3.1,0.9,6.2,2.3,9.4,2.5c6.9,0.5,13.9,0.7,20.8,0.2c4.4-0.3,8.8-1.9,13-3.5c3.1-1.2,5.8-3.5,8.5-5.5
	c1.6-1.2,0.7-3.8-1.5-4.7c-4.1-1.7-8.4-3.3-12.4-5.2c-1.4-0.6-2.5-2-3.7-3.1c0.3-0.3,0.5-0.7,0.8-1c0.9,0.5,1.8,0.9,2.7,1.4
	c5.7,2.8,11.7,3.5,17.8,2.3c1.5-0.3,3.5-0.6,1.3-3.4c2.8,2.6,4.1,0.9,5.5-1.5c0.4,0.9,0.7,1.5,1,2.1c2.1-1,4.2-2,6.6-3.1
	c-1.1-0.5-2-0.8-2.7-1.4c-0.4-0.3-0.5-1.2-0.4-1.9c3,2.7,4.4,2.2,8.5-3.2c-1-1.4-2-2.8-3.5-4.9c2.5,0.3,4.2,0.8,5.7,0.5
	c2-0.4,4.5-1.1,5.7-2.5c1.5-1.9,0.9-4.3-2-5.5c2-0.5,4.1-0.9,6-1.6c0.6-0.2,1.5-1.1,1.4-1.5c-0.2-0.7-0.9-1.5-1.6-1.7
	c-2.3-0.6-4.6-0.9-7.6-1.4c2.8-0.6,4.9-1,7-1.4c3.9-0.8,5.5-3.6,7.1-6.9c1.3-2.8-0.3-4.6-1.1-6.7c-0.8-2-5.2-1.8-7,0.1
	c-0.5,0.5-1.3,1.2-1.9,1.2c-2.5-0.1-3.3,1.2-4.1,3.4c-0.7,1.9-2.4,3.5-3.6,5.3c-0.3-0.2-0.6-0.3-0.8-0.5c0.3-0.8,0.5-1.8,1.1-2.2
	c2.3-1.7,0.6-3.6,0.5-5.4c0-0.3-0.8-0.9-1.2-0.8c-0.5,0.1-1.2,0.5-1.5,1c-0.4,0.7-0.5,1.6-0.7,2.7c-1.7-0.8-3.1-2.1-4.5-2.1
	c-2.6-0.1-5.3,0.5-7.9,0.8c-0.6,0.1-1.3,0-1.9-0.1c-1.6-0.3-3.2-0.6-4.9-0.7c-2.1-0.4-4.3-0.8-7.1-1.3c-0.6-0.3-2.1-0.9-3.4-1.8
	c-2.6-1.7-5.1-3.6-7.6-5.4c0.2-0.4,0.5-0.8,0.7-1.2c1,0.3,2,0.5,2.9,1c6,3.7,12.8,3.9,19.3,3.2c5.1-0.5,10-2.9,15-4.5
	c0.6-0.2,1.3-0.7,1.4-1.3c1-3.2,3.5-4.3,6.5-4.7c0-0.9,0-1.6,0-2.6c1,0.6,1.7,1,2.7,1.5c1.2-1.6,2.4-3.3,3.7-5
	c3,0.6,4.9-0.8,3.4-2.7c-0.8-1-1.9-1.6-3.2-2.7c11.3-0.8,13.3-2.4,12.7-10c2.3,0,4.7,0,6.9,0c0.3-1.1,0.3-2,0.8-2.5
	c1.7-2.2,1.2-3.6-1.6-4.1c-0.8-0.1-1.6,0-2.3,0c-0.6,0-1.2,0-1.8,0c-0.1-0.3-0.2-0.7-0.3-1c3.5-1.2,7-2.4,10.5-3.6
	c-0.1-0.4-0.1-0.7-0.2-1.1c-3.1,0.4-6.3,0.7-9.4,1.2c-7.8,1.4-15.5,2.3-23.3-0.6c0.9-0.1,1.8-0.3,2.6-0.4c6.8-0.2,13.2-1.9,19.3-5.1
	c2.2-1.2,4.6-2,7-2.9c2.2-0.9,1.8-2.2-0.6-3.7c1.9-0.2,2.7-0.1,3.5-0.3c2.3-0.5,5.3-0.4,4.3-4.3c0-0.1,0-0.2,0-0.3
	c1.7-2.5,3.3-5.1,5-7.6c0.3-0.4,1.1-0.7,1.1-1.1c0.5-2.7,2.1-2.9,4.8-2c-3-1.8-2.7-3.2-0.3-4.5c0.3-0.2,0.6-1,0.5-1.5
	c-0.6-4.7-0.7-4.7,1-8.3c-0.9,0.7-1.3,1.2-1.8,1.5c-0.5,0.3-1.1,0.4-1.6,0.7c0.5-3.2,1.1-6.1,1.4-9c0.3-3.3-0.5-3.8-3.5-2.4
	c-0.7,0.3-1.4,0.6-3,1.3c2.6-6,3.7-11.2-4.3-12.2c0-5.6,0-5.5-6.2-7.8c-0.6-0.2-1.2-1-1.4-1.6c-0.6-2.6-2-3.3-3.9-2.3
	c-5.1-6.1-12.5-6.9-19-9.4c0-0.3,0-0.6-0.1-0.9c1.8-0.3,3.8-1.3,5.5-0.9c5,1,10.2,1.9,14.7,4c3.6,1.7,8,2.7,10.3,6.7
	c0.2,0.3,0.8,0.8,1,0.7c3.2-1.1,4.2,1.2,5.3,3.4c1.4,2.9,3,1.6,4.8-0.2c0.8,2.8,1.5,5.3,2.5,8.6c1.5-1.9,2.3-2.9,3.8-4.7
	c0.1,2-0.1,3.1,0.3,4.1c0.7,1.8,1.2,4.7,2.5,5.1c2.6,0.9,4.1-1.4,4.8-3.8c0.3-0.9,0.6-1.7,1.1-2.9c1.6,2.4,1.3,7.1-0.4,8.9
	c-1.8,1.8-2.4,3.3-0.2,5.3c2.2,2,4,1.3,5.7-0.6c0.3-0.3,0.7-0.4,1.8-1c-0.2,1.6-0.5,2.5-0.3,3.5c0.2,1.4,0.7,2.8,1.1,4.2
	c1-0.8,2-1.6,2.9-2.6c0.6-0.6,0.9-1.5,1.3-2.2c0.3,0.1,0.6,0.1,0.9,0.2c-0.1,1.3-0.1,2.6-0.4,3.8c-0.3,1.6-1,3.2-1.1,4.9
	c-0.1,1.1,0.5,2.2,0.8,3.3c1-0.5,2.2-0.7,3-1.5c1-0.9,1.6-2.3,3-4.3c0,3.5,0,5.9,0,8.4c0,4,1.4,5.1,4.4,2.6c2.6-2.2,4.4-5.4,6.5-8.2
	c0.5-0.7,0.7-1.5,1.1-2.3c0.3,0.1,0.7,0.1,1,0.2c-0.1,1.2-0.2,2.5-0.4,3.7c-0.3,2.4-0.9,4.8-0.8,7.2c0,1.5,1.1,2.9,1.9,4.9
	c0,1.1-0.2,4.5,0,4.5c2.7,0.4,5.7,2,7.7-1.2c5.5,3.3,7.1,2.9,10.1-1.6c1.7-1.1,3.3-2.3,5.2-3.2c1.5-0.7,3.2-0.9,4.8-1.2
	c4.6-1,9.1-1.3,13.5,1.3c-5.6,0.2-10.9,0.7-15.4,4.5c-4.1,3.4-6.8,7.5-8,13.4c-2.7,2.1-3,7.1,0.3,10.2c0.8,0.8,1.3,1.8,2,2.7
	c1.7,2.5,4,2.9,6,0.7c0.6-0.6,0.2-2.5-0.3-3.6c-0.4-0.8-1.8-1-3.4-1.9c4.7-1.1,4.1-3.2,2.1-5.6c-0.3-0.3-0.6-0.9-0.5-1.2
	c1-2.4,1.7-5,3.1-7.2c1.8-2.9,4.5-4.7,8-4.6c1.7,0.1,3.3,0.9,5,1.4c-0.1,0.3-0.2,0.7-0.3,1c-0.7,0-1.4,0.2-2.1,0.1
	c-3.9-0.4-7.5,2.2-7.5,6.1c0,2,1.5,4,2.3,6c2.3-1.2,5.3,1.9,7.5-1.2c0.9-1.2,2.4-2,3.7-3c0.2,0.3,0.5,0.5,0.7,0.8
	c-0.4,0.9-0.9,1.9-1.3,2.8c0.1,0.3,0.2,0.7,0.4,1c1-0.3,2-0.6,2.9-1c1.1-0.5,2.2-1,3.2-1.5c0.6-0.3,1.6-0.3,1.8-0.7
	c2.6-4.4,7.6-5.7,11.2-8.8c4.1-3.5,9-5.8,14.6-6.1c1-0.1,2.1,0.5,3.9,1c-1.2,0.6-1.5,0.9-1.7,0.8c-4.9-1.3-8.1,0.7-9.8,5.3
	c-0.4,1-0.3,2.1-0.5,3.2c1-0.7,2-1.2,2.9-2c0.3-0.3,0.3-1,0.5-1.5c0.2,0.3,0.4,0.6,0.6,0.9c3.2-1.8,6.4-3.5,9.4-5.2
	c-0.3-1.8-0.5-3.2-0.7-4.7c0.2-0.3,0.5-0.6,0.7-0.9c1.7,4.6,4.8,4.7,8.5,2.8c0,0.4,0,0.8,0,1.2c-1.4,0.8-2.8,1.6-4.4,2.5
	c3,3.6,5,7.6,10.1,8.5c2.4,0.4,3.3-0.3,3.4-2.1c0.1-4.8,0.1-9.6-0.2-14.3c-0.1-2-3.3-3.7-5.5-3.1c-2.7,0.7-1.9,2.5-1.4,4.2
	c0.1,0.4,0,0.8,0,1.4c-0.6-0.1-1.2-0.1-1.4-0.3c-4.2-3.6-8.8-4.1-14.3-3.1c-3.3,0.6-7.2-1.7-10.8-2.7c-0.3-0.1-0.6-0.5-0.8-0.5
	c-4.3,0.9-7.7-2.2-11.7-2.8c-2.2-0.4-4.3-1-6.3-1.9c-12.5-5.5-25.1-10.7-35.3-20.2c-0.4-0.3-0.6-0.8-0.5-1.9
	c1.5,0.8,3.1,1.4,4.5,2.4c8.7,6.1,18.5,9.7,28.5,12.7c6.8,2,14,2.6,21,3.3c7,0.7,14,0.8,21,0.9c3.4,0.1,6.8-0.4,10.1-0.6
	c0.3-0.7,0.4-2.2,1.2-2.9c8.5-6.9,9-16.8,10.1-26.5c0-0.4,0-0.9,0.5-1.3c0,8.5,0,17,0,25.7c11.3-2.9,17.4-13.7,27.4-19.2
	c-3.2,4.6-7.8,8.3-7.6,15.2c4.9,6.4,13.5,10.9,18.2,19.6c-12.1-10.7-22.1-8-30.6,4.9c-0.2-0.3-0.4-0.6-0.6-1
	c0.8-2.1,1.9-4.2,2.4-6.5c0.3-1.2-0.3-2.6-0.6-3.9c-1.2,0.5-2.7,0.6-3.4,1.4c-1.5,2.1-3.4,4.4-3.7,6.8c-0.6,4.5-0.2,9.2-0.2,13.8
	c0.3,0.2,0.7,0.4,1,0.7c6.1-5.2,12.2-10.5,18.9-16.2c-1.3,1.9-2.2,3.2-3,4.5c-1.9,3.2-3.8,6.5-5.5,9.8c-0.4,0.8,0.1,2.1,0.6,3.1
	c-0.6,1.5-2.3,3.1,1,4.4c0.2-0.9,0.3-1.8,0.6-2.5c0.3-0.7,0.8-1.3,1.2-1.8c3.2,2.6,7.3,1.5,9.1-1.7c1.9-3.4,4-6.6,6-9.9
	c0.6,2,1.2,4,2,6.4c6.5-8.9,14.9-14,25-16.6c-3.6,3.2-8.4,4.4-11.6,8.6c-3.1,3.9-4.9,8-6.3,13c1.2-0.3,1.9-0.5,2.5-0.5
	c0.5,0,1.1,0.2,1.3,0.5c0.2,0.3-0.2,1-0.5,1.3c-3.3,3.8-2.8,5.7,1.7,8.2c0.6,0.3,0.5,1.9,0.7,3.2c0.3,0,1.2,0.1,2.1,0.1
	c0.8,0.1,1.5,0.2,3.1,0.4c-1-1.4-1.4-2-1.8-2.6c2.4-0.4,4.7-0.9,7.2-1.3c-0.2,0.5-0.6,1.3-1.1,2.4c4.3,2.9,8.8,2.1,13.2,1.3
	c4.7-0.9,6.3-2.6,6.6-7.3c0.1-0.9-1.1-2-1.7-2.9c-0.3,0.2-0.6,0.4-0.9,0.6c0.2,0.7,0.4,1.4,0.6,2c-1.9,0.8-3.8,1.7-5.8,2.6
	c-0.1-0.1-0.2-0.2-0.3-0.3c1.5-1.4,3-2.8,4.5-4.2c-1.9-2.5-3.8-4.9-5.5-7c-0.2,0.2-0.8,0.8-1.1,1c-1.1-4.3-2.1-8.5-3.2-12.7
	c0.2-0.2,0.5-0.3,0.7-0.5c2.9,5.4,7,9.3,12.6,12.9c-4.6-5.9-9-10.9-12.7-16.5c-3.9-5.8-5.7-12.5-5.2-19.8
	c4.1,13.3,11.1,24.2,23.7,30.5c0.2-0.2,0.5-0.4,0.7-0.6c-0.8-0.7-1.6-1.4-2.4-2c-0.8-0.6-1.6-1.1-2.5-1.6c2.5-3.3,1.7-4.9-3.8-8.3
	c1.8-2.1,1.8-4,0-6.5c-1-1.4,0-4.1,0.2-6.3c0.6-5.5,2.3-10.7,5.2-15.4c0.3-0.5,0.9-1,1.6-1.4c-3.1,8-2.8,15.9-0.3,23.8
	c2.6,8.4,8.4,13.4,16.2,17.1c0.3-1.7,0.6-3,1-4.8c5.3,10.7,5.3,10.7,9.3,7.8c5.5,4.3,11.9,6,19.2,7.2c-0.6-1.5-1-2.5-1.5-3.8
	c0.7,0,1.2,0,1.7,0c2.1,0.2,4.5,1.1,6.2,0.5c9.1-3.5,14.8-11.7,13.6-21.9c-0.2-1.7-1.1-3.3-1.7-5c-0.3-0.9-0.6-1.7-1.2-3.4
	c8.1,5,7.7,12.3,6.8,19c-0.9,6.7-4.3,12.5-11.2,16.6c2,0.1,3,0.2,4,0.2c0.1,0.3,0.3,0.5,0.4,0.8c-2.5,1.5-4.9,3-7.4,4.5
	c-2.8,1.6-4.5,3.7-3.6,7.5c1.4,0.5,3.2,1.1,5.5,2c-2.3,2.6-8.7,2.9-5.3,8.8c5.9,1.4,8.3-3.4,11.5-7c-2.7-3.3-2.7-3.3-9-4.3
	c6.2-1.8,9.6-5.8,11.3-11.1c2.4,0.7,3.9,5.1,6.3,1.2c1.9-3-1.7-3-3-4.2c5-4.3,6.8-9.9,7.7-15.9c0.1-0.8,0.8-1.5,1.2-2.3
	c0.4,0.1,0.7,0.1,1.1,0.2c0.1,1.7,0.5,3.3,0.4,4.9c-0.3,2.8-0.9,5.5-1.3,8.2c-0.1,0.7,0.2,1.7,0.6,2c0.4,0.3,1.4-0.1,2-0.4
	c0.4-0.2,0.6-0.8,0.9-0.9c5.8-1.5,7.2-6.7,9.4-11.1c2.3-4.7,3.6-9.7,2-15.1c-0.4-1.3-0.1-2.9,0.4-4.4c6,8.9,2.3,19.1,3.7,29.4
	c2.7-3,4.9-5.5,7-7.8c0,2.5-0.1,5.1,0.1,7.6c0.1,0.7,1,1.8,1.6,1.9c3.7,0.5,7.4,1.2,11,0.9c3.6-0.4,6.9-4.7,6.7-7.6
	c-0.3-5.4-2.6-8.2-7.6-9.2c6.2-6.9,8.2-14.3,2.2-22.7c4.4,2.2,5.2,6,5.7,10.6c2-0.9,3.9-1.4,5.1-2.6c0.4-0.4-0.6-2.4-1-3.9
	c0.4-0.2,1.1-0.6,2.2-1.2c-0.7-0.7-1.1-1.3-1.7-1.4c-3.1-1.1-2.8-3.3-2.3-5.9c0.4-2.1,0.7-4.5-0.1-6.3c-0.6-1.4-3-2.1-5.2-3.4
	c0.9-0.4,2.1-1,4.1-2c-0.1-1.6-0.3-3.9-0.4-6.2c-0.3,0-0.6-0.1-0.9-0.1c0.9-0.6,1.8-1.2,2.9-2c-0.9-0.8-1.8-1.6-2.8-2.5
	c2.6-1.7,1.8-2.8-0.6-3.7c-1-0.4-1.8-1.5-3.3-2.9c1.9-0.2,2.7-0.2,3.6-0.3c0-0.4,0.1-0.9,0-1c-1.1-0.6-2.2-1.2-3.7-1.4
	c-0.5-4.1-2.8-7.6-5.8-11.2c-0.5,0.2-1.4,0.5-2.4,1c-0.2-0.8-0.4-1.6-0.5-2.4c-1,0.3-1.9,0.6-2.8,0.9c-0.8-1.2-1.5-2.3-1.7-2.6
	c-6.5,0-12.3,0-18.2,0c-0.1-0.3-0.2-0.6-0.3-0.9c4.8-2.3,9.5-4.7,13.8-6.8c-1.9-0.5-4.1-1-6.3-1.5c0-0.3-0.1-0.6-0.1-0.9
	c4.6,0.7,6.4-2.6,8.6-5.9c0.4,1.4,0.7,2.7,1.2,4.4c3.3-4.7,5.4-10.1,12.2-9c0.8-2.2,1.7-4.5,2.4-6.8c0.4-1.2,1.3-2.7-0.6-3.7
	c-0.2-0.1,0.1-1.6,0.5-2.3c1.5-3.2,4.4-6.3,1-10c-0.1-0.1,0.2-0.5,0.4-0.8c3.9,3.5,3.8,3.8,1.9,7.9c-0.9,2-1.3,4.3-2,6.9
	c4.9-1.3,6.7-3.7,6.2-7.8c-0.1-0.7,1.3-1.6,2.1-2.5c-0.7-1.3-1.5-2.7-2.3-4.1c0.1-0.1,0.3-0.2,0.4-0.4c0.9,0.7,1.8,1.4,2.6,2.2
	c0.4-2.6,1.6-4.9-0.8-7c-1.2-0.9-1.7-2.7-2.4-4.1c0.3-0.2,0.6-0.4,0.8-0.5c1,0.8,2,1.7,3.4,2.8c1.3-3.1,2.4-5.7,3.7-9
	c-0.5-1-1.9-2.9,0.9-4.2c0.3-0.1,0-1.4,0-2.1c-0.3-2.5-0.7-5.1-0.9-7.6c0-0.3,0.8-0.7,1-1.1c0.3-0.8,0.4-1.7,0.7-3.1
	c-4.3,1.8-7.8,1.3-9.7-2.4c-1.8-3.5-1-6.2,0.8-7.5c0.4-2.8,0.7-4.9,1.1-7c0,0-0.1,0.1-0.1,0.1c0.3,0.3,0.9,0.7,0.8,0.9
	c-1.9,3.7,0.8,4.7,3.3,5.9c0,0-0.1-0.1-0.1-0.1c-0.3,0.9-0.4,2.6-0.9,2.7c-2.1,0.6-3.3,2.1-2.6,3.9c0.5,1.4,2.4,2.2,4,3.7
	c-0.2-2.4-0.9-4.4-0.2-5.1c1.1-1.1,3.1-1.5,5.4-2.4c0.4-1.8-2.8-5.4,1.8-7.5c-0.6-1.2-1-2.3-1.6-3.5c0.6,0,1.2,0,1.1,0
	c0.5-2.4,1-4.4,1.3-6.5c0.2-1.4,0-2.8,0-4.3c0-0.2-0.3-0.5-0.3-0.6c2.6-4.2-2.1-9,1.4-13.4c1.4-1.8,1.2-5.1,1.3-7.7
	c0.3-5.1,0.1-10.3,0.4-15.4c0.1-1.4,1.8-2.6,1.9-4c0.1-1.6-0.7-3.3-1.1-5c0-0.2,0.3-0.5,0.8-1.1c1.9,4.2,2.5,8,1.5,12.3
	c-1,4.1,0.6,8,1.8,12.5c-2.6,2.8-1.8,6.9-0.9,11.2c0.7-0.4,1.2-0.8,2.4-1.5c-0.2,2.1,0.1,4-0.6,5.3c-1.2,2.1-0.6,3,1.5,3.9
	c-3,5.3,3.7,3.4,4.7,6.6c-1.3-0.6-2.2-1-3.1-1.4c-3.4,1.7-1.7,4.6-1.4,6.6c0.8,5.3,2.3,10.4,3.4,15.3c1.7,0.3,3.3,0.6,5,0.8
	c-2.8,1-4.3,2.9-4.3,5.6c0,3.1-0.4,6.2-0.1,9.3c0.2,2,1.2,4,1.7,5.9c0.2,0.6,0.1,1.2,0.1,1.8c-0.1,1.5-0.1,2.9-0.2,4.7
	c2.6-0.5,4.3-0.9,6.7-1.4c-1.3-1.8-2.3-3.4-3.4-4.7c-2.5-3.1-3.6-7.4-2.2-9.6c0.6-0.9,1.6-1.5,3.1-1.7c-0.2,0.5-0.2,1.2-0.5,1.6
	c-2.2,2.8-2,5,0.8,7.4c3,2.5,4.5,6.8,2.9,8.7c-0.6,0.7-1.5,1.3-2.4,1.5c-3.2,0.5-3.6,1.5-1.5,5.8c0.5-1.1,0.8-1.8,1.2-2.4
	c0.2-0.2,1.2-0.1,1.4,0.2c0.3,0.3,0.3,1.3,0.1,1.4c-2.4,1.3-2.1,2.6-0.4,4.3c0.3,0.3-0.2,1.2,0.4,1.2c2.5,2.5,5,5,7.5,7.5
	c1.2,1.1,2.4,2.3,3.8,3.1c0.2,0.1,1.8-1,1.9-1.7c0.4-2.1-0.3-3.7-2.5-4.8c-3.2-1.6-3.2-1.9-2.5-4.2c1.6,1,4,2.3,6.1,4
	c2.5,2,2.5,4.3,0.5,7.3c-1.7,2.6-3.9,2.5-6.3,1.1c-0.9-0.6-1.9-1.2-2.8-1.8c0.5,4.5,5.1,6.6,8.2,5.8c2.7-0.8,3.3,1.1,3.5,2.8
	c0.3,2.2-0.1,4.4-0.2,6.7c1.6,0.2,2.7,0.3,4.3,0.5c0-1.8-0.1-3.3,0-4.8c0.1-1.9,0.2-3.8,0.8-5.6c0.4-1,1.8-2.1,2.9-2.2
	c0.9-0.1,2.2,0.9,3,1.7c0.4,0.5,0.5,1.7,0.2,2.4c-0.1,0.4-1.3,0.5-2.1,0.4c-0.9-0.1-1.7-0.4-3.6-0.9c0.9,5.6,1.8,10.6,2.7,15.6
	c0.1,0.4,1.4,1,2,0.9c1.1-0.1,2.1-0.7,3.6-1.2c-0.6,1.3-1.1,2.2-1.5,3c5.9,1.5,11,3.9,14.5,9.1c-1.8-1-3.6-2-5.5-3.1
	c-3,2.8-6.1-0.8-9.3-0.3c-1.4,0.2-2.7,0.5-4,0.9c-2.4,0.9-4.8,2.1-7.3,3.1c1.3,0.8,2.6,1.5,3.9,2.2c-0.2,0.3-0.3,0.5-0.5,0.8
	c-0.5-0.3-0.9-0.5-1.4-0.8c-3.3-2.1-5.3-1.5-7,2c-0.4,0.8-0.6,1.7-1,2.5c-0.8,1.4-0.2,4-3.2,3.9c-0.6,0-1.9,1.9-1.9,2.9
	c0.2,5.1-1.7,9.4-4.9,13.2c0.9,0.9,1.6,1.5,2.4,2.2c-2.7,1.6-3.4,5.9-1.4,8.5c0.4,0.6,1.2,1.2,1.2,1.8c-0.4,4.4-0.9,8.8-1.4,13.2
	c-2.1,0.2-4.1-0.1-2.6,3.4c1.2,2.7,0.5,6.3,0.7,9.5c0.2,3.3,0.1,6.4-1.7,9.5c-0.7,1.2,0.2,3.3,0.2,5c0,0.9-0.4,1.8-0.6,2.6
	c1.6,1.4,3.2,2.7,5.3,4.6c-0.3-2.2-0.4-4-0.9-5.6c-1.4-4.5,0.1-8,3-11.3c1.1-1.2,1.9-2,0.5-3.9c-1.2-1.7-1-4.4-1.3-6.6
	c0.4-0.1,0.7-0.2,1.1-0.2c0.5,1.8,0.6,3.9,1.6,5.3c0.9,1.3,2.9,2,4.1,2.7c-0.9,1-2.1,2.6-3.5,3.9c-3.7,3.4-2.6,7.5-1.5,11.4
	c1.4,4.9,5.7,7,10.7,6c2.5-0.5,5.2-0.7,7.4-1.8c1.6-0.8,2.6-2.9,3.7-4.2c1.6,1.7,3.2,3.4,5,5c0.5,0.4,2,0.7,2.3,0.3
	c0.8-0.8,1.6-2.1,1.5-3.1c-0.2-1.3-1.2-2.4-1.5-2.9c-0.4-2.1-0.5-3.7-1.1-5.1c-1.7-3.8-0.7-14.3,2-17.8c0.2,0.7,0.7,1.3,0.6,1.8
	c-1.2,8.5,2.1,15.7,6.9,22.3c1.9,2.6,4.5,3.1,7.4,2.1c4.1-1.4,6-3.4,5.7-6.7c-0.1-1.3-1.3-2.6-2.1-4.1c0.6-0.3,1.2-0.6,1.9-0.8
	c2.3-0.9,3.1-2.5,2-4.7c-0.8-1.5-0.6-2.4,0.6-3.7c1.7-2,2.3-4.8,4-6.8c1.7-2.1,3.6-4.4,7.3-3.5c-5.3,5.1-7,11.2-3.9,17.4
	c2.9,5.8,7.1,11,15,10.4c0.1,0.3,0.1,0.6,0.2,0.9c-1.2,0.8-2.3,1.9-3.6,2.3c-3.1,0.8-6.3,1.4-9.4,1.8c-2.2,0.3-3.3,0.8-2.1,3.1
	c0.3,0.6,0.4,1.2,0.9,2.5c-1.7-0.5-2.9-0.7-4.1-1.1c-5.4-1.9-11,2.7-10.1,8.4c0.4,2.5,1.7,4.3,4.7,4.3c1.2,0,2.3,0.1,3.5,0.2
	c0.1,0.3,0.2,0.6,0.3,0.8c-1.4,0.9-2.9,1.6-4.2,2.7c-1.4,1.2-3.2,2.7-3.5,4.3c-0.5,2.5,2.1,2.6,3.9,3.2c0.4,0.1,0.7,0.4,0.8,0.5
	c-1.7,2.2-3.9,4.1-4.7,6.5c-0.8,2.3-1,5.5,2.5,6.4c-1.4,1.6-2.6,2.8-3.8,4.1c1.2,1,2.4,1.9,3.9,3.1c-1,0.7-2.1,1.4-3.1,2.1
	c0.9,4.5,1.7,8.9,2.6,13.2c7.6-0.3,15.6-1.2,22.4,6.2c0.2-2.2,0.9-3.8,0.4-4.6c-0.6-0.8-2.4-0.7-4.3-1.2c1.3-0.8,2.1-1.4,3.1-1.9
	c2.2-1.2,2.5-2.7,0.7-4.5c-0.7-0.7-1.5-1.3-2.3-1.8c-0.8-0.5-1.7-1-2.5-2.1c1,0.2,1.9,0.4,2.9,0.6c0.8,0.1,2.2,0.3,2.3,0
	c0.4-0.9,0.8-2.4,0.3-3c-1.4-1.6-3.1-2.9-5.2-4.7c2.3-0.5,4.4-1,6.7-1.6c-0.4-0.8-0.4-1.4-0.7-1.6c-2.2-1.5-5.4-3,0-4.5
	c0.1,0,0.1-2.5-0.6-3c-1.6-1.3-3.6-2.2-5.4-3.2c-1-0.5-2.1-0.9-4-1.8c3.3-0.7,5.6-0.9,7.8-1.6c3.2-1.1,4.1-4.2,1.9-5.8
	c-0.3-0.2-1-0.1-1.5-0.1c0.1,0.5,0.2,1,0.4,1.4c-1.4,0.1-2.9,0.1-3.7,0.2c1.8-2.1,4.6-4.3,5.5-7c0.9-2.6-0.6-5.9-0.5-8.9
	c0.1-4.4-4.9-4-6.6-7.1c7-1.6,14.2-1.8,19.1-7.8c0.2,0.2,0.3,0.4,0.5,0.7c-0.3,1-0.7,1.9-1,2.9c3.2,1.4,4.1,0.7,5.9-4.8
	c2.5,3.3,4.9,1.2,7.1-0.3c2.9-2,5.7-4.2,8.5-6.4c-0.3-0.5-0.7-0.9-1-1.4c0.6,0.8,1.2,1.6,2.4,3.1c1-2.1,1.8-3.8,2.8-6
	c11.5-10.3,15.4-23.9,12.2-39.9c0.4,0,0.7-0.1,1.1-0.1c0.9,2.6,2.2,5,2.8,7.7c2,8.7,0.6,17-1.7,25.6c-0.9,3.5-4.9,6.9-1.8,11.4
	c6.8-2.5,12.7-6.2,17.3-12.6c-2.1-0.8-3.8-1.4-5.4-2.1c0.1-0.3,0.1-0.6,0.2-0.9c1.3,0.3,2.7,0.9,4,0.7c1.3-0.2,2.6-1,3.2-1.2
	c1.7,1.5,3,2.8,4.4,4c3.8,3.3,7.4,7,11.5,9.8c2.1,1.5,3.8,3.3,5.6,5.1c0.8,0.8,2.5,0.8,3.9,0.8c6.7,7.5,6.8,7.5,16.9,5.1
	c-1.1,1.6-2,2.6-2.6,3.7c-0.3,0.6-0.5,1.6-0.2,2.1c0.3,0.5,1.3,1,1.9,1c5.5-0.2,8.4-4.7,5.8-9.7c-1.9-3.7-4.6-7.1-6.9-10.6
	c3.2,1,6.1,3,8.2,6.1c1.6,2.3,3.2,4.7,5.1,6.7c0.8,0.8,2.5,0.6,4.3,0.9c0.4,0.9,0.9,2.3,1.4,3.6c0.4-0.1,0.8-0.2,1.2-0.2
	c0-4.2,0.8-8.5-1.9-12.1c1.2-1.7,2.6-3,3-4.6c0.2-0.7-1.7-2.1-2.8-2.9c-0.2-0.2-1.3,1-2.9,2.8c-1.4-1.6-2.8-3.3-4.4-5.3
	c-0.6,0.2-1.7,0.6-3.5,1.2c1.6,2.4,3,4.6,4.6,7.2c-1-0.5-1.6-0.7-2.1-1c-3.5-2.1-6.8-4.6-10.4-6.4c-6.6-3.3-13.4-2.3-20.1,0.2
	c-0.5,0.2-0.9,0.3-1.4,0.4c-0.2-0.3-0.3-0.7-0.5-1c6.8-3.6,13.5-7.2,20.3-10.9c3.7-2,7.5-3.9,11-6.3c2.9-2,3.1-5.5,1-8.3
	c-0.8-1.1-1.5-2.3-2.5-3.7c3.1,0.2,5.2,2.4,9,8.4c2.2,3.5,2.8,8.1,7.5,10.4c0.5-8.1,0.9-15.9,1.4-23.7c0.5,0,0.9,0.1,1.4,0.1
	c-0.1,1.8,0,3.7-0.4,5.4c-0.9,5.2,0.6,9.9,2.3,14.6c2.1,5.8,7.4,7.4,12.8,8.2c5.8,0.8,11.6,1.6,17.4,1.4c5.5-0.2,11.2-1,16.3-2.7
	c8.8-3,17.3-6.8,25.9-10.5c1.6-0.7,2.9-2.1,4.3-3.1c0.9-0.7,1.8-1.3,2.8-1.9c0.3,0.3,0.5,0.6,0.8,0.9c-1.7,1.8-3.4,3.7-5.2,5.5
	c-6.3,6-13.9,9.8-22,12.8c-4.5,1.6-8.8,3.7-13.3,5.6c-0.3,0.1-0.6,0-1,0.1c-1.9,0.4-3.8,0.7-5.7,1.1c0,0.4,0,0.8,0.1,1.2
	c-0.7-0.4-1.4-1.2-2.2-1.2c-1.2-0.1-3.3-0.1-3.5,0.5c-1.5,3.2-2.9,3.3-5.6,1.2c-2.7-2-5-0.6-5.8,2.8c-2.4-0.9-4.8-1.8-7.2-2.7
	c-0.2,0.3-0.4,0.6-0.5,0.9c0.9,1.6,1.7,3.2,2.6,4.7c-4.5,1.9-5.3,3.4-3.4,6.2c0.8-1.3,1.5-2.5,2.2-3.7c0.4,0.1,0.7,0.3,1.1,0.4
	c-0.4,1.6-0.6,3.2-1.4,4.6c-2.3,4.2-3.7,8.5-3.5,13.4c0,0.8-0.5,1.7-0.5,2.6c-0.1,1.4-0.4,3.2,0.3,4c0.7,0.8,3,1.2,3.8,0.6
	c0.9-0.7,0.9-2.6,1.1-4c0.1-0.6-0.3-1.3-0.5-2.2c1.2,0.1,2.2,0.2,3.2,0.4c2,0.3,3.3-0.6,4.2-2.5c0.6-1.4,1.9-2.4,2.9-3.4
	c3.3-5.9,5.9-12.1,1.8-19.3c5.2,9.3,11.8,11.3,21.2,5c-1.2,1.6-1.9,2.8-2.8,3.8c-1,1.1-2.2,2.1-3.3,3.1c0.1,0.4,0.2,0.7,0.4,1.1
	c1.4-0.2,2.9-0.3,4.3-0.6c1-0.2,1.9-0.5,2.8-0.8c-0.6,0.9-1.1,1.8-1.7,2.6c-0.3,0.3-0.8,0.4-1,1.1c5.2,0.1,10.9,3.5,14.6-3.5
	c0.7,1.4,1,2.2,1.7,3.6c2.5-2.9,4.7-5.3,7.1-8c-0.1,1.1-0.3,2.2-0.4,3.3c-0.1,0.4-0.4,0.8-0.4,1.3c-0.2,2.5-3.5,5.2-0.3,7.5
	c3.3,2.4,9.8,0.7,11.9-2.6c0.4-0.6,0.7-1.1,0.9-1.8c0.2-0.8,0.5-2,0.1-2.3c-0.5-0.5-1.7-0.6-2.4-0.3c-1.1,0.3-2.1,1.1-3.6,2
	c1.2-2,2.4-3.5,2.9-5.1c0.4-1.5,0.1-3.2,0.1-5.7c-1.7,1.3-2.5,1.8-3.5,2.6c-1-3.3-1.8-7-6.6-5.1c-1-6.2-6.1-4-9.7-4.9
	c-0.1-0.3-0.2-0.6-0.3-0.9c1.4-0.5,3-1.5,4.3-1.3c4.5,0.7,9,2,13.5,2.8c2.6,0.5,4.8,1.3,7,2.8c1,0.7,3.4-0.6,5.1-1
	c1.2,1.4,2.3,2.7,3.4,4c7.9-3.1,8.4-4.2,6.4-15.3c1.7,1.3,3,2.2,4.1,3.3c3.2,3.4,5.4,4.2,7.6,2.6c2.6-1.9,3-5.9,1-9.4
	c-0.4-0.7-0.8-1.3-1.2-1.9c0.1-0.3,0.3-0.6,0.4-0.9c1.4,0.6,3,1,4.2,1.8c1.4,1,2.4,2.8,3.8,3.7c1.3,0.8,3.4,1.6,4.3,1
	c1-0.6,1.2-2.8,1.3-4.3c0.1-1-0.3-2.1-0.5-3.2c0.3-0.1,0.6-0.3,0.9-0.4c0.8,1.1,1.6,2.3,2.5,3.3c0.6,0.7,1.6,1,2.4,1.5
	c0.3-0.8,1-1.7,0.9-2.5c-0.3-2.9-0.9-5.7-1.5-9.3c2.5,2,4.5,3.7,7.4,6.1c2.5-4.5,4.7-8.6,7-12.8c0.1,0.1,0.4,0.3,0.7,0.6
	c0.9,0.9,1.8,1.7,2.7,2.6c0.9-1.4,2-2.8,2.6-4.3c0.5-1.3,0.4-2.8,0.7-4.4c4.8,2.1,4.7,2.1,7.2-2c0.3-0.4,0.8-1.1,1.1-1.1
	c4.8,0.9,7-3.5,10.7-4.9c10.3-3.9,19.9-9.8,31.4-9.8c0.6,0,1.1,0.1,1.7,0.2c0.3,0.1,0.5,0.4,1.1,0.8c-0.8,0.4-1.4,0.8-2.1,0.9
	c-4.8,1.1-9.5,2.2-13.6,5.5c-2.1,1.7-5.3,2.2-8.6,3.5c-0.4,2-1.6,4.1-4.9,4.7c-1.7,0.3-2.3,2.4-0.4,3.9c0.7,0.5,1.4,1,2.1,1.4
	c-0.2,0.3-0.4,0.6-0.6,0.8c-2.2,0-4.5-0.3-6.6,0.1c-1.3,0.3-3.4,1.6-3.4,2.6c-0.1,2.1,1.5,3.6,3.9,3.6c0.6,0,1.3,0.2,1.9,0.2
	c0.1,0.3,0.1,0.7,0.2,1c-1.4,0.3-2.9,0.5-4.3,0.9c-2.4,0.7-5,1.1-7.2,2.3c-3.1,1.8-3,3.4,0.1,5.3c1.3,0.7,2.9,1,5.4,1.7
	c-1.8,0.6-2.8,1-3.7,1.4c-2.9,1.2-6.1,2.1-8.6,3.8c-3.1,2.1-3.5,5.8-1.1,8.8c1.9,2.2,4.4,3.9,6.6,5.8c0.6,0.5,1.2,0.9,2.1,1.7
	c-0.8,0.2-1.1,0.4-1.5,0.5c-0.9,0.2-1.8,0.4-2.7,0.5c0.4,1,0.6,2.3,1.4,2.8c3.2,2.1,6.6,4,10,6c-1.8,3.3-1,4.7,3.8,5.4
	c0.8,0.1,2,1,2,1.6c0.1,2.2,1.3,2.6,3.2,3c1.8,0.4,3.5,1.7,5.1,2.7c4.7,2.8,9.6,3.9,15,3c0.6-0.1,1.2,0.2,1.8,0.3
	c0.1,0.4,0.2,0.8,0.3,1.1c-2.4,0.7-4.7,1.7-7.1,2c-3,0.4-6.7,1.2-9.1-0.1c-2.8-1.5-6.3,0.3-8.6-2.7c-0.5-0.7-2.8-0.1-4.6-0.1
	c-0.8-0.9-1.9-2.4-3.3-3.6c-0.8-0.6-2-0.8-3-1.1c-0.2,1-0.5,1.9-0.7,2.9c-0.1,0.3-0.3,0.6-0.7,1.5c-0.8-1.4-1.4-2.5-2-3.5
	c-1.2-1.8-2.4-3.7-3.9-5.3c-0.7-0.7-2.7-1.1-3.2-0.6c-0.8,0.7-1.2,2.3-1,3.4c0.7,3.5,3.5,4.8,6.7,5.6c-3,5-0.5,10.7,5.3,12
	c2,0.4,4,0.6,6.9,1c-1.6,0.8-2.4,1-3,1.6c-0.8,0.9-1.5,1.9-2.2,2.9c1.2,0.8,2.5,1.6,3.7,2.5c1,0.7,2.8,2,2.6,2.4
	c-1.1,2.9,1.2,3.5,2.8,4.5c0.9,0.6,2.1,0.8,3.1,1c2.5,0.6,5.5,0.3,5.5,4.5c0,0.8,3.1,2.2,4.8,2.5c2.4,0.3,4.4-0.1,6.2,2.5
	c1.2,1.7,4.2,2.6,6.6,3.1c6.4,1.3,12.8,2.7,19.3,1.1c2.7-0.7,5.1-2.3,7.9-3.1c-1.5,3.5-4.2,5.8-7.7,6.8c-4.4,1.3-9.2,3.2-13.6,2.6
	c-2.8-0.3-6,1.4-8.8-1.2c-2.1-1.9-2.8,0.4-3.1,2.3c-8.5-5.2-8.5-5.2-9.5,0.3c-0.7-0.6-1.4-1-1.6-1.5c-1.2-3.1-3.2-5.2-6.5-6
	c-0.7-0.2-1.8-0.7-2-0.4c-0.5,0.6-0.6,1.5-0.7,2.3c-0.1,0.8,0.1,1.6,0.1,2.7c-3.1-2.9-5.7-5.5-8.4-8c-0.3-0.3-1-0.1-2.3-0.3
	c0.5,2.5,1,4.7,1.5,7.1c-4.6-3.7-9-7.3-16.1-6.5c3.6,3.9,5.9,8.2,10.8,9.4c4.6,1.2,9.3,1.8,14.5,2.7c-1.2,0.8-2.2,1.3-3,2.1
	c-0.9,0.9-2.3,2-2.3,3c-0.1,1.6,0.7,3.3,1.2,5c1.3-0.5,2.7-1,4-1.5c0.6-0.2,1.1-0.5,2.3-1.1c-3.6,8.6,3,10.5,7.6,13.2
	c-1.1,1.2-2.2,2.4-3.2,3.5c1.3,0.6,2.6,1.2,4.6,2.1c0.6,5.8,6.6,6.6,11.6,9.1c-0.7,0.9-1.2,1.6-1.8,2.4c1.6,1.7,2.6,4.3,5.9,3.1
	c0.4-0.1,1.7,1,2,1.8c0.6,1.7,0.9,3.3,3.3,3.4c1,0.1,1.8,1.8,2.8,2.5c7.7,5.4,15.8,9.6,25.7,7.4c1-0.2,2.1-0.2,3.2-0.3
	c0.1,0.3,0.2,0.6,0.4,1c-3.3,1.8-6.6,3.6-10.2,5.5c0,0.3,0.1,1.1,0.3,2.4c-1.6-0.9-2.8-1.5-4.3-2.4c-0.7,1-1.3,1.9-2,3.1
	c6.3,4.1,13.4,4.7,20.2,6.1c0,0.4-0.1,0.8-0.1,1.1c-2.3,0.3-4.6,0.5-6.9,0.8c7.1,5.1,14.7,8.2,23.7,6.9c0,0.6,0,1.1,0,1.7
	c-2.3,0.5-4.7,1.4-7,1.2c-6-0.5-11.9-1.6-17.9-2.4c-0.8-0.1-1.7-0.1-2.5-0.1c-2,0-3.7,0.1-5.1-2.1c-1.1-1.7-3.3-2.7-5.1-4
	c-0.3,0.3-0.6,0.5-0.8,0.8c0.4,1.6,0.7,3.3,1.1,4.9c-7.4-5.3-12.9-13-22.7-14.2c-0.5,1.2-1.1,2.4-1.9,4.3c-1.6-3.7-2.7-6.8-4.2-9.7
	c-1.1-2-2.5-3.9-4.1-5.6c-0.5-0.6-2.2-1.1-2.6-0.8c-0.7,0.6-1.4,1.9-1.2,2.8c0.4,1.9,1.3,3.7,1.9,5.6c0.3,0.9,0.6,1.7,0.5,2.8
	c-6.7-5.7-10-13.6-14.3-21.3c-0.5-0.1-1.4-0.2-2.3-0.3c0.2-0.3,0.4-0.6,0.6-1c-1.2-1-2.5-2.8-3.7-2.7c-1.6,0.2-3,1.7-5.3,3.2
	c0.3-1.8,0.5-2.8,0.6-3.7c0.6-4.2-1.3-8.5-4.3-10.2c-3-1.7-4.5-1-5,2.5c-0.2,1.5,0.2,3-0.1,4.7c-3.3-2.6-4.3-6.3-5.2-10
	c-0.5-2.1-0.7-4.4-1.6-6.3c-0.5-1-2.3-1.5-3.6-1.9c-0.6-0.2-1.5,0.4-2.3,0.4c-1.3-0.1-2.7-0.5-4-0.7c0.8-0.9,1.7-1.7,2.3-2.7
	c1.3-2.1,3.8-3.7,2.8-6.8c-1.5-4.8-2.8-9.6-7.3-12.8c-1-0.7-1.4-2.3-2.4-3.1c-1.2-0.9-2.7-1.3-4.1-2c-0.2,0.3-0.3,0.6-0.5,0.9
	c0.5,1.6,0.9,3.1,1.3,4.3c-2.5-1.7-4.7-3.9-7.4-4.9c-3.1-1.2-6.8-3.1-9.8,0.3c-1.2,1.3-1.5,3.4-2.3,5.4c-0.7-1.4-1.3-2.6-2-4
	c-2.5,1.3-2.7,3.6-1.6,5.1c0.8,1.1,3.2,1.5,4.9,1.6c3.4,0.3,6.8,0.2,10.2,0.3c0,0.5,0,0.9-0.1,1.4c-2,0.2-3.9,0.4-5.9,0.5
	c-2,0.1-7.3,4.2-7.2,6.1c0.1,1,1.1,2,1.2,2.2c-1.7,0.8-4.3,1.2-4.8,2.4c-1.3,3.3-2.7,6.9-0.2,10.4c0.7,1,1.5,1.9,1.8,3.4
	c-1.7-1-3.3-2.2-5-3.1c-1.7-0.8-3.6-2.5-5.2,0.1c-1.4,2.2-0.5,4.6,2,6c0.4,0.3,0.8,0.6,1.5,1.1c-0.7,0.6-1.3,0.9-1.7,1.3
	c-1.4,1.3-3.2,2.3-3.9,3.9c-1,2.5-0.2,6.1-4.3,6.6c0.4,3.5-2.8,4.7-4.2,6.9c-6.7,11-17.6,15.1-28.6,19.5c-1.5,0.6-3.1,0.9-4.7,1.3
	c-0.2-0.4-0.4-0.8-0.5-1.1c1.4-0.9,2.6-2.1,4.1-2.8c5-2.5,9.4-5.8,13.1-10c3.3-3.7,4.7-8.1,5.9-12.7c0.3-1,1.5-1.6,1.7-2.6
	c1-4.2,2.1-8.3,2.5-12.6c0.1-1.6-1.7-3.3-3.1-6c2,0.8,3.2,1.2,5.1,1.9c0.1-1.7,0.6-3.3,0.2-4.6c-0.2-0.6-2.1-0.9-3.3-1
	c-2.5-0.3-4.9-0.7-6.5-3.9c3.2,1.2,5.9,2,7.8-1.1c1.3-2.2,1.1-3.9-0.9-5.6c-3.2-2.6-6.8-2.9-10.4-1.7c-7.1,2.4-11.5,7.2-12.9,14.7
	c-0.2,0.9-0.3,2-0.9,2.4c-2.3,1.5-1.5,3.1-0.3,4.6c-0.7,1.2-1.3,2.2-1.8,3.3c1.1,0.3,2.2,0.7,3.4,0.9c2.7,0.5,5.3,0.9,8,1.4
	c0,0.4,0,0.7,0,1.1c-0.8,0.1-1.5,0.4-2.3,0.4c-2.6,0.1-5.1,0-7.7,0.1c-2.2,0-3.5,0.7-4.2,3.2c-1.8,5.9-11.3,12.9-17.6,13
	c5.6-3.7,10.5-7.4,11.7-14c-2.8-1.2-5-0.7-6.3,2c-1.1,2.1-1.9,4.4-2.8,6.6c-0.4-0.1-0.8-0.1-0.8-0.2c-2-5.6-4.7-7.5-10.8-7.8
	c-3.1-0.1-6.1-0.3-9.2-0.6c-2.7-0.3-3.5,1-3,3.3c0.6,2.6,2.4,5.2,2,7.6c-0.6,3.7,2.2,5.6,3.2,8.3c2.3,6.3,8.4,6.5,13.8,7.5
	c1.3,0.2,2.6,0.3,3.8,0.5c0.1,0.3,0.1,0.6,0.2,0.9c-1,0.4-2,1.1-3.1,1.1c-13.7,0.1-25.1,5.7-35.9,13.5c-11.2,8-19.8,18.1-26.8,29.8
	c-0.7,1.2-1.1,2.5-1.6,3.8c-0.3-0.1-0.7-0.1-1-0.2c0.6-2.2,0.6-4.7,1.7-6.5c4.7-7.6,9.6-15.2,14.8-22.5c1.4-2,1.9-5.1,5.2-5.5
	c0.3,0,0.3-1.4,0.6-2c0.4-0.7,0.8-1.7,1.4-1.8c2.9-0.8,4.1-2.3,2.6-5.2c5.8-2.5,6.7-6.5,3.3-13.1c2.2-1.3,3.7-2.9,1.5-5.5
	c-0.3-0.3,0.2-1.2,0.3-1.9c0.2-1.1,0.5-2.2,0.5-3.3c0.2-7.2-2.9-9.7-9.9-7.6c-0.7,0.2-1.3,1.8-1.5,2.9c-0.9,6.8-2.1,9.7-6.4,14.2
	c2.3-5.8,4.1-11,3.6-17.1c-6,0.9-11,2.3-14.3,7.5c-1.6,2.5-3,2.4-3.8-0.3c-2.1-6.9-7.8-8.3-13.8-9.1c-8-1.2-16-2.1-24.1-3.9
	c1.5-0.1,3-0.4,4.5-0.4c6.8-0.1,13.5,0,20.3-0.2c6.7-0.2,10.6-4.2,12.9-10.6c3.6,3.5,7.4,5.9,12.3,5.8c0.3-0.4,0.6-0.7,1-1.1
	c-1.7-1.3-3.3-2.8-5.1-3.9c-2.4-1.4-5-2.6-7.5-3.8c-0.4-0.2-0.9-0.3-1.1-0.7c-1.3-2.6-3.5-2.8-6-1.9c-1.1-2.8-2.9-4.2-6-3.6
	c-0.5,0.1-1.5-0.8-1.8-1.5c-1.1-2.6-2.7-4-5.9-2.8c-0.3-2-0.6-3.8-1-6.5c-1.1,1.4-1.6,2-2.4,3.1c0-5.5-4.3-4.8-8.1-6.1
	c1.4-1.2,2.5-1.9,3.4-2.9c1.3-1.5,2.5-3.2,3.7-4.8c-1.8-1.2-3.5-2.5-5.3-3.7c-0.5-0.3-1.3-0.3-2.1-1c1.2-0.5,2.4-1,3.6-1.6
	c1.7-1,3.4-2.1,5.1-3.2c-0.9-1.4-1.8-2.7-2.7-4.1c-0.2-0.3-0.3-0.8-0.3-0.7c3.2-0.8,6.4-1.5,9.5-2.3c0-0.4-0.1-0.7-0.1-1.1
	c-3.5-1.8-7-3.5-10.6-5.3c0-0.1-0.1-0.4,0-0.5c0.8-1.5,1.6-2.9,2.5-4.4c-1.5-0.5-3-1.2-4.5-1.6c-1.5-0.5-3.1-0.8-4.7-1.4
	c3.8-1.1,8.4,0.3,11-4.2c-0.8-0.6-1.6-1.2-2.6-1.9c2.8-1.4,5.3-2.7,7.8-4c-0.1-0.4-0.2-0.8-0.4-1.2c-1,0.1-2.2,0-3.1,0.3
	c-3.5,1.4-6.9,2.8-10.2,4.6c-1.5,0.8-2.4,2.6-3.5,4c-0.5,0.7-0.8,1.6-1.3,2.3c-3.7,4.2-3.8,5.6-0.1,10.2c0.2,0.3,0.3,0.8,0.5,1.2
	c-5,1.5-5.5,3.8-1.7,7.8c2.6,2.7,6.4,3.1,10.4,1.4c-0.5,0.7-0.9,1.8-1.6,2c-2.7,0.8-5.5,1.3-8.2,2.2c-0.7,0.2-1.8,1.6-1.6,2.1
	c1.1,4,4,5.7,8.2,5c0.6-0.1,1.2-0.2,1.9-0.3c0.2,0.4,0.4,0.7,0.5,1.1c-1.6,0.8-3.1,1.7-4.7,2.4c-1.1,0.5-2.3,0.8-3.5,1.2
	c0.9,1.2,1.7,2.4,2.7,3.6c0.3,0.3,0.7,0.4,1.1,0.6c-1.3,5,5.7,10.8,12.3,10.2c-2.1,2.3-3.1,2.9-6.1,2.1c-2.4-0.6-4.7-1.9-7-2.8
	c-1.3-0.4-2.7-0.6-4.4-0.9c-0.9-1.4-2.3-3.5-3.9-5.9c-1,0.8-1.6,1.3-2.7,2.1c0.3-1.6,0.5-2.5,0.7-3.5c-1.5-1.4-2.9-3.8-4.5-3.9
	c-1.6-0.2-3.4,2-5.9,3.5c0.8-1.4,1.2-2.2,1.7-3c0.7-1,2-1.8,2.2-2.8c0.3-1.4-0.2-3-0.3-4.5c-1.4,0.5-3.4,0.5-4.1,1.5
	c-2.4,3.2-4.1-1-6.2-0.2c2.7-0.3,4.7-1.3,5.1-4.3c0.2-1.3,2-2.7-0.2-3.5c-0.9-0.4-2.3,0.5-3.9,0.9c-1.6-3.2-5.3-4.1-9.3-4.7
	c-4-0.6-7.6-0.5-9.5,4.3c1.4,1.2,2.9,2.5,3.9,3.3c-1.4,2.1-3.7,4.1-3.4,5.7c0.4,1.9,2.9,3.5,4.9,5.6c-2,0-3.7-0.2-5.4,0.1
	c-1.1,0.1-2.1,0.8-3.2,1.2c0.9,1.1,1.7,2.1,2.6,3.2c0.2,0.2,0.5,0.4,1,0.8c-1.1,1.3-2.5,2.4-3.1,3.8c-0.6,1.4-0.5,3.1-0.7,4.8
	c-5.5,1.6-5.5,1.6-4.3,7c-1.3,0.2-2.5,0.4-4.2,0.7c2.6,5.9,3.3,12.4,8.5,16.9c3.3,2.8,6.2,2.9,10.9,0.1c-2,4.1-8,5.2-11.7,2.1
	c-3.8-3.3-6.9-7.1-8.1-12.1c-0.2-0.6-1.2-1.4-1.8-1.4c-1.5,0-3.9-0.1-4.5,0.8c-1.2,1.9-1.9,3.7-4.7,3.3c-0.4-0.1-0.9,0.8-1.3,1.3
	c-0.9,1.1-1.7,2.2-2.7,3.6c1.8,4.5,3.7,9.4,5.6,14.2c-0.4,0.2-0.7,0.3-1.1,0.5c-0.9-2-1.8-3.9-2.7-5.9c-0.6-1.3-1.3-2.6-1.9-3.9
	c-1.5-3.1-3.7-4.4-7-3c-4.1,1.7-8.1,3.4-12.7,5.3c3.9,5.2,3.1,10.7,1.9,16.2c-1.2,5.4-9.4,9.4-14.1,7.1c-2.4-1.2-4-3.2-3.6-5.8
	c0.2-1.5,1.9-2.9,3.1-4.2c0.3-0.3,1.2,0,2.4,0c-3.9,1.9-4.7,3.7-3.3,6.2c1.3,2.2,5.6,3,8,1.5c5.2-3.2,6.6-8.3,3.7-13.6
	c-1.8-3.2-7.3-5.4-10.8-4.2c-2,0.7-3.9,1.5-5.9,2.1c-3,1-4.4,3.5-5.7,6c-1,1.9-2.4,3.8-2.8,5.9c-0.5,2.4-0.1,4.9-0.1,7.6
	c-1.4,0.3-3.6,4.5-3.1,6.9c0.2,1,0,2-0.1,3c-1-0.4-2.4-0.6-3-1.3c-1.3-1.4-1.8-3.5-3.2-4.7c-2.7-2.3-5.6-4.6-8.9-5.9
	c-2.5-1-5.1-2.9-8.4-1.5c-1.5,0.6-2.6,1.3-2.3,3.2c0.1,0.8-0.3,1.7-0.4,2.5c-0.2,1.1-0.5,2.2-0.4,3.2c0.4,3.4,1.5,6.7,0,10.3
	c-1,2.5-0.1,5.1,2.2,7.3c-1,2-2.3,4.3,0.4,6.4c0.9-0.3,1.9-0.7,2.8-1.1c2-0.8,3.1-1.9,1.9-4.3c-2-3.8-1-6.5,3.2-9.1
	c-0.3,0.7-0.5,1.1-0.6,1.4c-3,5.8-2,8.9,3.8,11.5c0.4,0.2,1,0,1.4-0.1c4.3-0.7,8.9-0.6,11.2-5.4c0.1-0.2,0.7-0.3,1.7-0.5
	c-1,2.3-1.8,4.2-2.7,6.4c1.3,0,1.6,0.1,1.7,0c1.5-1.9,3.8-2.9,6.6-4c3.2-1.2,6.1-3.2,9.3-4.5c2.8-1.2,5.9-1.9,8.8-2.9
	c0.8-0.3,2-0.5,2.3-1.1c1.3-3.1,4.2-3.6,6.9-4.6c2.6-0.9,5.2-1.9,8.2-3c0-0.1,0.1-0.9,0.1-1.7c0.2,0.2,0.4,0.5,0.6,0.7
	c1.5-0.7,3.3-1,4.4-2.1c3.5-3.2,7.7-3.7,11.9-4.2c0.2,0.3,0.4,0.5,0.6,0.8c-1.1,1.1-2.1,2.3-3.3,3.3c-1.1,0.9-2.4,1.7-3.6,2.4
	c-3.2,1.9-3.5,4.5-1.8,7.1c-1.1,1.1-2.7,2-2.8,3c-0.1,0.9,1.4,2.7,2.3,2.8c1.4,0.2,2.9-0.8,4.6-1.4c1.4,1.7,2.9,1.5,6.6-1.9
	c0.5,0.6,1,1.3,1.1,1.5c1.8,0,3.2-0.3,4.4,0.1c4.4,1.5,9.1,1.3,12.9-0.3c4.2-1.7,7.3-0.8,11.1,1.6c-0.2-1.6-0.3-2.3-0.6-4.1
	c3.1,4.8,5.8,1.7,8.6-0.3c0.1,0.4,0.2,0.8,0.3,1.2c-0.4,0.9-0.8,1.8-1.3,2.7c0.1,0.2,0.3,0.5,0.4,0.7c1.8-0.8,3.7-1.5,5.8-2.4
	c-0.1,1.1-0.1,2-0.3,3.5c1.3-0.9,2.3-1.6,3.5-2.5c1.2,3.3,3.2,2.7,4.7,1.4c1.3,0.8,2.2,1.6,3.1,1.9c2.7,1,5.3,2.2,8.1,2.5
	c4,0.5,7.2,2.6,10.6,4.3c0.9,0.5,2.2,0.2,3.3,0.3c0,1.1-1.7,3.2,1.3,2.6C691.2,610,691.7,612,691.9,614.3L691.9,614.3z M311,499.9
	c-1,1.1-2,2.2-3.1,3.2c-2.2,2-4.5,3.8-6.6,5.8c-0.6,0.6-0.4,1.9-0.6,2.8c1.2,0,2.8,0.6,3.5,0.1c5.1-3.7,10-7.6,14.9-11.6
	c0.6-0.5,0.5-2,0.8-3c-1,0-2.2-0.4-3.1-0.1c-2,0.8-3.9,1.9-5.9,2.8c1.9-1.8,3.9-3.6,6.4-5.9c-2.3-0.8-4.2-1.4-6-2
	c-0.3,1.5-0.6,3.1-0.9,4.6c-0.2,0-0.5,0-0.6-0.1c-3.2-3.1-6.5-4.2-10.8-1.9c-1.1,0.6-2.9,0.1-4.8,0.1c-1.8,4.5-1.7,9.4-0.4,14.3
	c0.5,1.7,2,3.1,3.4,5.3c0.6-6.4,1-11.5,1.5-16.7c0.2,0,0.4,0,0.6,0c0.2,2.9,0.4,5.8,0.6,9.4c1.7-1.2,2.7-2,3.7-2.7
	C306,502.9,308.5,501.4,311,499.9z M724.6,507.7c-0.7,2.7,0.4,3.7,4,3.2c-1.8-1.3-0.4-4.8-4.1-3.1c0.6-1,1.1-2.1,2-3.7
	c1.5,2.1,2.3,3.7,3.5,4.9c1.1,1.1,2.8,2.3,4.2,2.2c2.5-0.1,3.5-2.3,3.1-4.6c-1.4-9.2,2.1-18.6-1-27.8c-0.1-0.3,0.2-0.6,0.2-1
	c0.1-3.5,0.1-6.9,0.1-10.4c0-1.3-0.2-2.6-0.1-3.9c0.2-2.5-1.3-2.7-2.9-1.9c-0.9,0.4-1.6,1.5-2.1,2.4c-1.2,2.1-2.2,4.4-3.6,7
	c-0.6-2.1-1-3.7-1.5-5.3c-1.4,0.7-2.8,1.4-4.2,2.1c-0.2-1-0.3-2.2-0.5-3.5c-0.3-0.1-0.6-0.2-0.9-0.3c-0.7,1-1.6,1.9-2.1,3
	c-0.6,1.1-0.9,2.4-1.3,3.6c-0.3,0-0.6-0.1-0.9-0.1c0-2.7,0-5.3,0-8c-0.3-0.1-0.7-0.1-1-0.2c-0.7,1.6-1.3,3.2-2,4.8
	c-0.2,0-0.4,0-0.6,0c0.2-1.9,0.3-3.8,0.6-6.8c-1.7,1-3.5,1.6-3.6,2.3c-0.3,4.6-0.1,9.2-0.1,14.4c1.4-0.7,2.6-1.3,4.4-2.2
	c-0.7,1.6-1.4,2.5-1.5,3.5c-0.1,0.7,0.5,1.5,0.8,2.2c2.4-1.2,3.5,1.2,5.2,1.8c4.6,1.6,6.6,5.7,9.3,9.1c1.1,1.4,1.5,3.5,2.1,5
	c-3.7-1.8-6.9-3.6-10.4-5c-4.4-1.8-9-1.4-10.4,0.8c1.3,0.3,2.6,0.7,4.4,1.1c-5.2,1.6-5.2,1.6-5.8,7c0,0.3-0.2,0.6-0.4,1.1
	c-0.3-2.4-0.5-4.4-0.7-6.6c-4.1,1.9-5.2,5.9-3,10.4c1.1-0.5,2.1-0.9,3.4-1.4c0.4,2.3,0.7,4.4,1.1,7c1.6-0.4,3.3-0.8,4.5-1.1
	c2,1.5,3.6,2.8,5.2,4c0.8,0.6,1.8,1.1,2.7,1.6c0.5-1,1.5-2.2,1.4-3.1C722.1,510,722.8,508.7,724.6,507.7z M471.5,348.8
	c4.8,3.5,9.5,6.4,13.4,10c3.1,2.9,5.4,6.8,7.9,10.4c0.6,0.9,1,2.8,0.5,3.3c-1.6,1.7-0.8,3.2-0.2,4.9c1.2,3.1,2.3,6.1,3.4,9.2
	c0.2,0.7,0.2,1.5,0.3,2.2c0.3,2.9,0.6,5.8,0.9,8.7c0.1,1.1,0.4,2.1,0.4,3.2c-0.1,3.3-0.6,6.6-0.5,9.8c0.1,2.9,1.3,5.9,1.2,8.8
	c-0.2,5.6-1.5,11.2,0.9,16.7c0.3,0.7-0.1,1.7-0.2,2.6c-0.1,1.1-0.7,2.3-0.4,3.2c1.5,4.3,0.1,8.7,0.4,13c0.1,2.1,0.5,4.1,0.4,6.2
	c-0.1,2.4-1,4.7-0.8,7c0.4,4-1.8,8.4,1.4,12.1c0.4,0.4-0.2,1.7-0.4,2.5c-0.3,1.3-0.8,2.5-0.8,3.8c0,3.6,0.9,7.3,0.3,10.8
	c-1.3,7.7,2,15.4-0.6,22.9c-0.1,0.2,0.1,0.4,0.2,0.6c0.1,2.3,0.4,4.5,0.4,6.8c-0.1,3-0.5,6-0.5,8.9c-0.1,5.4,0.2,10.9,0,16.3
	c0,1.1-1.7,3.1-2.4,3c-4.9-0.5-10,1.2-14.8-0.6c-1.1-0.4-2.4-0.4-3.6-0.7c-5-1.1-10.1-1.9-15-3.4c-3.9-1.2-7.5-3.2-11.3-4.9
	c-1.6-0.7-3.2-1.6-4.8-2.4c0.2,1.3,0.6,2.2,1.3,2.8c4.5,4.1,9,8.2,13.6,12.3c3.9,3.4,6.8,7.4,8.3,12.5c0.4,1.4,1.2,2.7,1.8,4.1
	c7.5-5.5,15.4-8.1,24.2-7.8c3,0.1,4.5,2,4.4,4.7c-0.2,3.2-0.4,6.4-0.4,9.7c0.1,4.8,0.5,9.6,0.6,14.4c0,4.5,0,9-0.4,13.5
	c-0.1,1.2-1.6,3.3-2.4,3.3c-5.3-0.1-10.5,1.9-15.8,0.3c-1.9-0.6-4.1-0.1-6.2-0.4c-3.2-0.4-6.5-0.9-9.7-1.4c-1-0.2-2.1-0.5-3-0.9
	c-2.9-1.2-5.7-3.6-8.7-3.7c-5.6-0.2-9.1-4.4-14.2-5.7c-4.8-1.3-8.9-5.4-13.3-8.3c-1.8-1.2-3.5-2.5-4.8-3.4c1.6,3.7,3.6,7.5,4.9,11.6
	c0.5,1.6,0.2,4.3-0.9,5.5c-3.2,3.4-7.5,4.2-12,3.7c-1.5-0.2-3.1,0.1-4.3-0.4c-3.3-1.5-6.2,1.2-9.8-0.1c-4.5-1.7-9.9-1.6-14.8-1.4
	c-6.8,0.3-13.5,1.3-20.2,2.1c-0.4,0-0.8,0.2-1.2,0.3c1.9,0.7,3.2,0.8,4.5,0.8c3.4,0.2,6.8,0.2,10.2,0.5c2,0.2,3.9,0.6,5.9,1.1
	c0.9,0.2,1.8,0.7,2.7,1c3.8,1.1,8.2,0,11.3,3.4c0.4,0.4,1.3,0.3,1.9,0.5c4,1,8,1.9,11.9,3.1c2.3,0.7,4.6,2.8,6.6,2.6
	c2.9-0.3,4.3,1.1,6,2.5c0.8,0.7,2,0.9,3,1.4c3,1.5,6.1,3,9.1,4.6c3,1.6,6,3.4,9,5.1c0.6,0.4,1.2,0.9,1.7,1.4c1.7,1.8,3.3,3.7,5,5.5
	c-0.2-10.5,3.7-15.6,13.7-16.9c5.7-0.7,11.5-0.4,17.3-0.6c2.1-0.1,4.2-0.5,6.2-0.3c2,0.3,4,1.6,6,1.7c4,0.3,5.6,0.9,4.9,6
	c-1,7-4.4,12-9,16.6c-2.7,2.8-6,5.1-9.6,8.1c7.8,1.8,9.4,8.8,13.7,13.1c2.3,2.3,3.8,5.6,5.6,8.4c0.3,0.5,0.7,1.2,0.7,1.8
	c0.1,1.8-0.1,3.7,0.2,5.4c0.4,2.5,1.4,4.9,1.7,7.3c0.6,6.7,0.9,13.4,1.4,20.1c0.6,7.8,1.3,15.6,1.8,22.4c0.3-1.2,1-3.2,1.2-5.3
	c0.5-4.9,0.7-9.9,1.3-14.8c0.4-4,1.2-7.9,1.9-11.8c0.5-2.6,1.2-5.1,1.7-7.7c0.3-1.4,0.3-2.9,0.7-4.3c0.5-1.7,1.4-3.2,1.9-4.9
	c1.3-3.9,1.1-8.3,4.7-11.2c0.6-0.5,0.9-1.5,1.3-2.3c1.1-2.1,1.7-4.7,3.3-6.3c3.7-3.9,7.8-7.3,11.9-11.1c-0.6-0.5-1.5-1.1-2.3-1.8
	c-4.4-3.9-8.9-7.9-13.2-11.9c-1-0.9-1.2-2.6-2.1-3.6c-2.6-2.8-1.8-6.4-2.2-9.7c-0.1-0.4,1.6-1.4,2.5-1.6c2.6-0.5,5.3-1.1,8-1
	c7.7,0.2,15.5,0.1,23.2,1.1c6.9,0.9,10,4.7,10.5,11c0.1,1.1,0,2.2,0,3.3c28.3-23.4,59.5-38.1,96.6-38.6c-2.9-0.6-5.8-1-8.7-1.1
	c-6.2-0.1-12.4-0.1-18.6-0.1c-0.8,0-1.5,0-2.3,0.1c-4.2,0.5-8.4,1-12.6,1.6c-6.3,0.8-12.8,0.3-19,2.2c-3.3,1-5.8-0.7-7.7-3.3
	c-1.9-2.5-1.7-4.9,0.1-7.4c0.7-0.9,1.2-2,2.1-3.5c-3.2,1.7-5.8,2.9-8.3,4.5c-3.4,2.2-6.6,4.7-10,7c-0.5,0.3-1.3,0.3-1.9,0.5
	c-1.2,0.4-2.5,0.7-3.6,1.2c-1.8,0.7-3.6,1.8-5.5,2.3c-4.2,1.2-8.5,2.4-12.8,3.2c-5.2,1-10.4,1.5-15.7,2.2c-0.5,0.1-1-0.4-1.6-0.4
	c-1.1-0.1-2.2-0.1-3.3,0c-2.2,0.1-4.5,0.8-6.5,0.4c-1.7-0.4-4.5-2.2-4.5-3.2c0.3-5.3-3.3-10.3-1.3-15.7c0.3-0.7-0.1-1.7-0.2-2.6
	c-0.3-4.4-0.7-8.8-0.7-13.1c0-3.4,0.6-6.8,0.9-10.7c4.4-1.2,9.3,0.2,14.4,0.9c5.5,0.8,9.4,4.1,13.7,8.1
	c2.8-15.6,11.2-26.8,24.2-34.8c-2.5,0.4-4.7,1.2-6.8,2.1c-2.6,1.1-5.1,2.3-7.7,3.4c-1.6,0.7-3.2,1.2-4.7,1.8
	c-2.2,0.9-4.2,2.3-6.5,2.7c-6.7,1.1-13.5,1.6-20.2,2.5c-4.4,0.6-6.4-0.9-6.4-5.3c0-7,0.3-13.9,0.2-20.9c-0.1-5.8-0.8-11.6-0.8-17.4
	c0-7.1,0.6-14.3,0.9-21.4c0-0.5-0.2-1.1-0.5-1.5c-1.9-2.5-1.1-4.9,0-7.5c1-2.4,1.8-5,2-7.6c0.2-3-0.2-6-0.5-9
	c-0.3-3.5-0.9-7-0.9-10.5c0-3.7,0.7-7.4,0.8-11.1c0.1-2.8-0.3-5.5-0.3-8.3c0.1-2.5,0.5-5,0.9-7.6c1.4-9.6-2.8-19.7,2.5-29
	c0.4-0.7,0-1.8,0.1-2.6c0.6-5.6-0.1-11.4,3.2-16.4c-2.2-2-1.3-4,0.2-5.9c0.7-0.9,1.8-1.6,2-2.6c1.7-7.4,6.6-12.6,11.7-17.6
	c1.7-1.7,4.1-2.7,6.4-4.2c-8.1-5.7-15.3-12-19.5-21c-2.7-5.8-6.9-10.9-7.6-17.9c-0.3-2.9-0.7-6.8-3.8-9.1c-0.5-0.3-0.3-1.6-0.3-2.4
	c0.1-2.5,0.7-5,0.3-7.4c-0.9-6.7-2.3-13.3-3.1-20c-0.8-6-1.1-12-1.7-18c-0.8,0.7-0.8,1.4-0.9,2.1c0,3.3,0.1,6.7-0.1,10
	c-0.2,5-2.4,9.9-0.8,15c0.2,0.6-0.4,1.4-0.5,2.2c-1.3,5.1-2.7,10.1-3.8,15.2c-1.2,5.2-2.1,10.5-3.2,15.8c-0.2,0.8-0.2,1.7-0.4,2.5
	c-0.4,1.3-0.9,2.5-1.5,3.7c-0.6,1-1.6,1.8-2.1,2.8c-2.3,4.2-2.1,10.1-8.1,11.9c-0.2,0.1-0.3,0.6-0.5,0.8c-2.6,3.2-5.1,6.5-7.7,9.7
	c-0.3,0.4-1,0.5-1.5,0.7C475.3,346.8,473.2,347.9,471.5,348.8z M541,525.1c-0.2-0.2-0.3-0.3-0.5-0.5c1.2-1.8,2.6-3.5,3.6-5.4
	c0.4-0.7,0.3-2.2-0.1-2.7c-0.7-0.7-2-1.2-2.9-1c-7.1,1.6-11.4,7.3-10.9,14.5c0.4,5.6,5.8,8.7,10.8,6.5c0.5-0.2,1.1-0.5,1.6-0.7
	c0.2,0.2,0.3,0.5,0.5,0.7c-1.1,0.9-2.1,2.1-3.4,2.7c-4.9,2.3-13.1-4.4-12.2-10.4c1.1-6.9,3.6-13.3,9.8-18.1
	c-0.8-0.5-1.7-0.9-2.3-1.5c-0.5-0.4-0.8-1.1-1.1-1.7c-1.3-2.7-2.5-5.5-3.9-8.6c1.6-1.8,0.7-3.7-2.1-5.1c3.7-2,3.7-2,1.5-8.5
	c3.9-0.5,4.2-3.8,5.1-6.6c0.2-0.7,0.1-1.6,0.5-2c2.6-2.7,5.4-5.1,7.9-7.9c2.6-2.8,5.9-3.3,10.1-3.2c-1.6,1.8-2.9,3.1-4,4.6
	c-3.9,5.4-5.8,11.4-6.1,18c-0.1,2.5,0.4,3.2,2.4,2.8c-0.2,2.2-0.3,4.3-0.5,6.3c0.3-0.2,0.5-0.4,0.8-0.6c1.6,1.7,3.3,3.5,4.9,5.2
	c-0.2,0.3-0.4,0.7-0.6,1c2,0,3.9,0,6.9,0c-1.4,1.5-2.4,2.2-3,3.1c-0.6,0.9-0.7,2.1-1,3.2c2.3-0.2,4-0.3,5.9-0.4c3-8.4,3-8.4-3-12.3
	c3-1.7,6.2-2.1,5-7.6c-0.9-4.4-3.3-5.3-6.9-6.7c7.6-2.5,7.9-3.8,3.3-9.2c1.1-0.9,2.1-1.8,3.2-2.6c2.7-2.2-0.1-5,0.8-7.6
	c0.2-0.8-1.3-2.1-2-3.2c-0.8,1.2-1.8,2.2-2.2,3.5c-0.7,2.1-1.1,4.3-1.6,6.5c-0.3,0-0.6,0-0.9-0.1c0.6-3.5,1.2-7.2-2.7-8.9
	c-1.1-0.5-3,1.1-5.1,1.9c-1.6-1.4-2.7-5.3-6.9-4.3c-0.3,0.1-0.8-0.4-1.1-0.7c-4.9-3.7-10.5-6.8-13.1-13c-0.2-0.4-0.7-0.7-1.9-1.7
	c1.4,5.8,2.5,10.7,3.7,15.7c-1.7,0.4-2.7-0.3-2.5-2.6c0.1-1-0.4-2-0.7-3c-0.3,0.1-0.5,0.2-0.8,0.3c0,3-0.1,6,0,9
	c0.2,3.5,0.6,7,0.8,10.5c0.1,2.8,0.6,5.7-1.6,8.3c-0.9,1.1-1.1,2.8-1.7,4.2c1.1,0.2,2.2,0.5,3.3,0.8c0.5,0.1,0.9,0.4,1.7,0.7
	c-1.7,1.2-3,2.1-4.3,3c0.1,0.2,0.2,0.4,0.3,0.6c0.9,0,1.8,0,2.1,0c-0.8,3.8-2.1,7.5-2.4,11.3c-0.3,3.9-0.1,8,0.7,11.8
	c0.4,1.8,1.8,3.1-0.2,4.4c0.8,1.1,2,2.2,1.9,3c-0.4,4.3-1.2,8.6-1.8,13c1,0,1.8,0,2.6,0c-0.6,1.1-1.6,2.1-1.5,3
	c0.2,2.5,2,5.1-0.5,7.5c-0.2,0.2,0.3,1.3,0.6,2c0.3,0.8,0.8,1.5,1.2,2.3c0.5,0.9,1.1,1.9,1.2,2c2.2-0.8,3.8-2.1,5.1-1.8
	c4.7,1.1,8.5-1.2,12.5-2.5c1.3-0.4,2.5-0.9,3.7-1.4c0.1,0.2,0.2,0.4,0.3,0.6c0.7-1.1,1.3-2.2,1.8-3.1c1.4,0.3,2.8,1.1,3.6,0.7
	c2.4-1.1,4.5-2.6,6.7-4c0.1,0.3,0.1,0.6,0.2,1c1.6-0.1,3.2-0.1,4.7-0.4c2.9-0.6,5.8-1.4,8.7-1.9c0.9-0.1,2.3,1.1,2.8,0.7
	c2.3-1.5,4.3-0.8,6.4,0.2c0.9,0.4,1.9,0.7,2.9,0.7c0.5,0,1.3-0.6,1.4-1c0.1-0.5-0.2-1.5-0.6-1.7c-2.2-1.4-4.6-2.7-7-4.1
	c-0.2,0.5-0.3,0.9-0.5,1.2c-0.3,0.4-0.6,0.8-1.1,1.3c-7.6-7.8-15.6-14.3-26.4-9.1c-1-2.1-1.5-4.4-2.5-4.7c-1.3-0.3-3,0.9-4.5,1.7
	C542.8,523.4,542,524.4,541,525.1z M813.1,494.4c-0.3,0.4-0.7,0.8-1,1.1c-0.8-0.4-1.5-0.8-2.3-1.2c-4.7-1.9-9.3-4.2-14.1-5.7
	c-6.2-2-11.7,0.3-16.8,3.8c-0.6,0.4-1.2,1.8-1,2.5c0.2,0.6,1.6,1.3,2.4,1.2c1-0.2,1.8-1.1,2.7-1.6c1-0.6,2.2-1.1,3.2-1.7
	c-1.2,3.1-3.2,5.3-4,7.9c-0.6,1.9-0.2,4.6,0.8,6.5c0.8,1.7,3.1,2.6,4.4,4.1c0.5,0.6,0.3,1.9,0.2,2.8c0,1.4-0.2,2.8-0.3,4.1
	c0.4,0.2,0.9,0.4,1.3,0.5c1.5-1.8,3-3.5,4.6-5.4c2.6,2.2,4.5,0.7,6-1.6c1.2,0.2,2.3,0.7,3.3,0.6c3.4-0.3,6.8-1.2,10.2-1.2
	c2.4,0,5.2,0.7,5.8-2.1c0.3-1.5-1.8-3.4-2.8-5c5.5-2.6,7.5-5.8,5.2-9.2c2.4-1.8,2.9-3.9-0.1-5.4c-2-1-4.4-1.1-7.4-1.7
	c4.1-3.4,8.7-5.9,8-12.1c0.3,0.2,0.7,0.3,1,0.5c0.3,0.8,0.5,1.6,1,3c3-4,2.2-8.1,2.4-12c0.2-4.5-2.7-5-5.9-5.3
	c-4.2-0.4-6.8,2-9.1,5.1c-1.6,2.1-3.7,4-5.5,6c-0.2-0.2-0.5-0.4-0.7-0.7c0.8-1.6,1.9-3.2,2.3-4.9c0.7-3.5-1.1-6.6-3.9-7.8
	c-2.3-1-5.5-0.1-8.2,0.1c-1.2,0.1-2.3,0.7-3.6,1.2c-0.2,0.9-0.4,2.3-0.7,3.7c-0.5,1.9-1.4,3.7-1.7,5.5c-0.3,2.3,0.3,4.7-0.1,6.9
	c-0.4,2.6,0.8,3.6,2.9,4.4c3.6,1.3,7.6,2.2,10.8,4.3C806.3,488,809.5,491.4,813.1,494.4z M165,465.2c1.1-1.7,2.7-3.1,2.8-4.6
	c0-2.2-0.5-4.9-1.8-6.5c-4-4.7-8.5-9-14.4-11.2c-1.3-0.5-3.3,0-4.7,0.7c-0.5,0.2-0.2,2.2-0.4,3.3c-0.1,0.7-0.6,1.3-1,1.9
	c-0.4,0.6-1.5,1.2-1.4,1.6c1,3.7-2.3,5.5-3.7,7.9c-1.7,2.9-4.5,5.1-6.6,7.8c-1.6,2-1.2,3.7,1.6,4.4c0.5,0.1,0.9,0.4,2.1,0.9
	c-3.5,1.2-6.4,1.9-8.9,3.2c-1.5,0.8-2.3,2.6-3.5,4c1.3,0.9,2.6,1.7,3.8,2.7c0.2,0.2,0.3,0.5,0.6,1.1c-3.5,0.5-6.9,1-10.8,1.6
	c1.2,1,1.9,1.6,3.1,2.6c-1.5,0.5-2.7,0.7-3.5,1.3c-1.5,1.1-3.1,2.2-4.1,3.7c-0.5,0.7-0.3,2.4,0.1,3.3c0.2,0.5,1.9,0.4,2.8,0.3
	c1.5-0.2,3-0.6,5.1-1.1c-0.7,1-0.8,1.4-1,1.6c-2.1,1.6-2.3,3.6-0.5,5.4c1.7,1.9,3.8,1.5,5.5-1.1c1.2-1.8,1.9-4,2.8-6
	c5.8,7.5,9.5,0.8,13.7-2.1c1.1,4.1,1.6,4.1,5.6,1.1c4.6,0.3,8.6,0.9,12.5,0.6c1.2-0.1,4.2-0.5,4.1-3.4c0-1.4,0-2.9,0-4.6
	c-3.8-2-6.8,1.3-10.4,2.5c2.1-2.6,4.6-4.5,6.6-6.8c2.1-2.3,3.7-5,6.1-8.2c-2.5,0.5-3.8,0.7-5,1c1.9-2.8,3.5-5.2,5.2-7.8
	C165.9,465.7,165.1,465.3,165,465.2z M428,482.2c1.7-1.5,3.4-3,5-4.6c0.3-0.3,0.4-0.9,0.4-1.4c0-0.2-0.5-0.6-0.7-0.6
	c-1.9,0.7-3.8,1.4-5.7,2.1c-0.3,0.1-0.6,0.1-1,0.2c0.2-1,0.3-2,0.5-3c-4.4-1.4-7.1,2.3-10.6,3c-1.9,0.4-3,1.7-2.9,4.2
	c0,1.7-1.5,3.4-2.3,5.1c-0.3,0.7-0.5,1.4-0.7,2.1c0.8,0.1,1.6,0.4,2.3,0.2c1.2-0.3,2.3-0.9,4.2-1.8c-2.2,3.2-4.9,5.6-5.4,8.3
	c-0.4,2.7,1.5,5.7,2.3,8.4c-1,1-2.4,2.5-3.7,4c1.3,0.7,2.7,1.4,4.2,2.2c0-0.1,0.1,0.2-0.1,0.5c-3.7,7.6-2.3,16.8,3.5,23.1
	c3.2,3.5,3.2,3.4,6.6,0.9c3.1-2.3,6.3-4.7,9.5-6.9c1.2-0.9,2.5-2,3.9-2.2c2.9-0.4,4.6-2.5,3.9-6.1c-1.9,0.6-3.8,1.1-5.7,1.7
	c-0.1-0.2-0.2-0.4-0.3-0.6c0.9-1.1,1.7-2.3,2.6-3.4c-2.5-1.8-9.8-2.1-11.8-0.7c-0.3,0.2-0.5,0.7-0.9,0.9c-0.9,0.6-1.9,1-3.5,1.9
	c0.1,0.4,0.5,1.6,0.8,2.7c-1-0.2-2-0.5-2.8-0.7c-1.9,4.6-3.1,8.9,1.4,12.7c-0.9,0-1.4-0.1-1.8-0.4c-5.6-4.8-6.1-12.9-3.3-18.6
	c3.6-7.3,10.1-11,17.5-13.2c2.4-0.7,5.2-0.6,7.8-0.4c3,0.2,5.9,1,9.2,1.5c0.1,0.4,0.4,1.3,0.7,2.2c2.9-2,5.6-3.8,8.6-5.9
	c0.6,3.6-3.6,7.1,1.3,8.8c1.1,0.4,2.9-1,4.5-1.6c0.7,0.5,2.1,1.5,3.8,2.7c0.4-1.7,0.6-2.5,0.8-3.5c1.1,0.5,2,1,3,1.4
	c1.4-4.3-4-2.8-4.4-5.5c7-0.6,7.6-0.8,9.9-3.5c-0.6-0.6-1.3-1.1-1.7-1.5c1-0.9,2-1.5,2.6-2.3c0.1-0.2-0.5-1.1-0.9-1.6
	c-0.4-0.6-1-1.1-1.5-1.6c0.2-0.2,0.3-0.4,0.5-0.6c-3-0.8-5.9-1.6-9.1-2.5c-0.8,1-1.6,2-2.5,3.3c-0.5-0.6-0.7-0.9-1-1.2
	c-0.9-0.8-1.8-1.6-2.6-2.4c-0.7,1-1.7,2-2.1,3.1c-0.5,1.3-0.4,2.8-0.6,4c-1.7-1.3-3.2-2.5-4.8-3.6c-0.7-0.5-1.6-0.9-2.4-1.3
	c-0.5,1-1.4,2-1.5,3c-0.1,1.7,0.3,3.5,0.6,6.1c-5.5-4-11.5-6.5-14-13.2c-0.8,0.6-1.6,1.1-2.7,1.8C437,480.7,433.9,481.2,428,482.2z
	 M247.9,534.8c0.3-0.1,0.7-0.2,1-0.3c0.3,0.6,0.5,1.3,1,1.8c1.2,1.4,2.3,3.7,3.7,4c5.3,1.1,10.8,1.5,16.2,2.1c2,0.2,3.1-0.7,3.1-2.9
	c0-3.5,0.1-7.1-0.1-10.6c0-0.4-1.8-1.2-2.3-0.9c-3.5,1.9-6.8,4.2-10.4,5.9c-2.3,1.1-4.8,2.9-8.3,1.4c2.6-1,4.6-1.5,6.4-2.5
	c7.3-4.2,14.1-8.8,14.4-18.4c0.2-6.1,0.6-12.2,0.3-18.2c-0.2-5.8-1.2-11.6-1.9-18c-0.1,0.1,0.6-0.4,0.5-0.3
	c0.5-5.7-1.1-10.2-4.2-14.3c1.5,0.3,2.5,1,3.6,1.4c1.6,0.6,2.4-0.8,1.5-2.7c-1.6-3.5-4-0.2-6.3-0.6c0.5-0.9,0.7-1.7,1.2-2.1
	c2.4-2.1,1.5-3.2-0.7-4.8c-1.8-1.3-3-3.6-4.4-5.5c-1.6-2.3-3.1-4.7-4.7-7.3c-3.2,4-7.8,6.6-7.4,12.4c4.1-0.3,4.5,6.8,9.9,4
	c-4.5,4.5-0.4,7.7,0.9,11.1c0.5,1.4,1.3,2.1,0.2,3.6c-0.9,1.2-2,3.3,0.9,4.2c-3,3.6-6,7.1-9.4,11.2c2.1,0.2,3.7,0.3,5.4,0.4
	c-0.2,0.2-0.4,0.3-0.6,0.5c2.1,2.5,4.2,5,6.3,7.5c-0.4,0.6-1,1.5-1.6,2.5c1.3,0.6,2.7,1.3,4.2,2c-1.5,2.9-3.3,6.2,0.8,9
	c-7.2,1.8-3.3,7.1-4.2,11c-0.3-0.8-0.7-1.5-1.4-3.2c-1.7,1.5-3.3,2.6-4.3,4c-2.3,3.3,1.2,5,2.6,7.3c-4.1,0.7-4.2,0.7-8.2-3
	c-1.1,1-3.5,2.7-3.3,3.1c1.8,3.9-0.8,4-3.3,4.6c-0.9,0.2-1.7,1.4-2.3,2.3c-1.5,2.4-2.8,4.9-4.1,7.5c-0.3,0.6-0.5,1.8-0.2,2.1
	c0.5,0.5,1.6,0.7,2.3,0.6c4.1-0.7,7.3-4.9,7.2-9.1C247.9,536.5,247.9,535.7,247.9,534.8z M494.5,535c-0.4-0.1-0.7-0.2-1.1-0.2
	c-0.5,0.4-0.9,0.9-1.4,1.3c-0.2-1.3,0.1-2.9,0.6-3c5-0.6,0.4-2.2,0.3-3.2c3.3-4.2,3.3-4.9,0.1-6c0.6-9.6,3.5-19.3-0.6-28.8
	c-3.5,1-4.4,2.3-2.6,4.4c2.2,2.6,1.4,3.5-1.3,4.7c-4.5,2.1-4.8,4.1-1.4,7.5c-1.8,1-3.4,1.9-5.5,3c1.7,1.5,3,2.6,3.9,3.4
	c-0.2,1.4-0.6,2.6-0.4,3.7c0.5,3.7,1.5,7.4,1.8,11.1c0.4,5.8-5.3,10.6-11,9.5c-2.7-0.5-4.4-2.4-4.4-5.1c0-2.1,0.9-4,4-4.4
	c-0.6,1.2-1.2,2-1.5,2.9c-0.8,2.1,1.3,5.3,3.4,5.2c3.5,0,5.8-1.8,6.8-5.2c1.7-6-0.8-14.5-5.7-18.1c-0.5-0.4-2.4,0-2.8,0.6
	c-2.3,3.3-1.7,7.9,1.4,10.5c0.8,0.7,2,0.9,3,1.4c-0.4,0.7-0.7,1.3-1.1,2c-12.8-10.4-23.5-2.2-34.4,3.5c-0.4-0.6-0.9-1.1-1.3-1.7
	c1.9-0.9,3.8-1.9,5.7-2.8c-0.4-0.5-0.8-1.1-1.2-1.6c-3.7,2.8-9.1,1.1-13.1,5.1c11.1,4.5,21.4,8.7,32.2,13.1c0.4-0.9,0.8-1.8,1.3-2.8
	c1,0.9,1.3,1.1,1.6,1.4c1.6,1.6,6.7,3,7.7,1.7c1.8-2.2,2.4-1.1,3,0.8c0.2,0.7,0.6,1.3,1.1,2.6c0.4-1.4,0.6-2.1,0.9-3
	c1.4,1,2.6,1.8,3.7,2.6c1.4-1.1,2.7-2,4-3C493.3,544.5,493.6,539.7,494.5,535z M869.2,465.5c4.3-4.1,4.3-4.1-1.7-9.5
	c0.7-0.4,1.5-0.6,2-1c1-0.9,2.6-1.9,2.7-3c0.1-0.9-1.5-2.2-2.6-3c-1-0.8-2.4-1.1-3.1-1.4c1.6-1.6,3.8-2.9,4.4-4.7
	c0.8-2.7-3.9-6.3-6.7-4.9c-3.3,1.7-8.5,1.7-8.4,7.6c-5.9-2.6-2.1,2.2-3.4,3.2c-1.6,1.1-3.8,2.5-3.8,3.9c-0.1,5.1,4.9,2.3,7.3,3.8
	c-2.5,2-5,3.7-7.1,5.7c-0.9,0.8-1.9,2.8-1.5,3.4c0.7,1.1,2.3,1.7,3.7,2.3c1.1,0.4,2.3,0.4,3.1,0.6c-2,2.7-4.8,4.8-5.2,7.4
	c-0.6,3.7,2.4,5.6,6.4,5.3c-0.3,1.1-0.5,1.8-0.8,2.6c3.5,1.6,6.6,1.5,8.8-1.1c1.7,1.4,3.2,2.6,4.7,3.8c0.7-1.5,1.4-3,2.2-4.8
	c2.1,1.6,4.6,3.9,8,2c0.2-0.1,0.7,0.4,1.1,0.6c0.9,0.3,1.9,0.8,2.9,0.8c0.9,0,1.7-0.5,2.6-0.8c-0.6-0.6-1.2-1.4-1.9-1.9
	c-0.7-0.5-2.2-0.8-2.2-1.2c0-3.7-3.1-3.4-5.2-4.3c-1-0.4-2.1-0.8-3.6-1.3c5.1-2,5.4-2.8,1.9-6.5
	C872.6,467.5,870.8,466.6,869.2,465.5z M451.1,468.9c0.7,0.7,1.2,1,1.5,1.4c1.6,2.6,3.3,3.5,5.8,0.9c0.5-0.5,1.8-0.2,2.7-0.2
	c0.8,0.1,1.6,0.6,2.5,0.5c2.9-0.1,6-1.2,8.5-0.4c4.4,1.3,8.8,3.3,12.3,6c2.6,2,3.8,5.7,5.6,8.6c0.1,0.2-0.1,0.6,0,1
	c0.2,1.5,0.4,2.9,0.6,4.4c1.7-0.9,2.8-1.5,4-2.1c-3.4-1.9-0.3-3.2,0.3-4.3c-1.1-1.8-2-3.3-3.1-5.2c1.4,0.4,2.2,0.7,3,1
	c0.1-0.2,0.2-0.4,0.3-0.6c-1.4-1.6-2.9-3.3-4.3-5c0.7-0.8,1.3-1.4,2.1-2.4c-1.1-0.8-2.1-1.5-3.6-2.6c2.1-0.2,3.2-0.2,3.4-0.3
	c0-2.1,0-4,0-5.8c0-0.4,0.1-1-0.1-1.1c-2.2-1.1-2.1-2.5-0.9-4.2c0.9-1.2,1.6-2.5,2.5-3.9c-0.6-0.6-1.4-1.3-2.4-2.2
	c2.3-2.5,2.9-5.2,0.6-8c-0.3,0.2-0.6,0.4-0.7,0.6c-4.5,8.6-11.4,13.8-21,15.4c-4.4,0.7-4.4,0.7-7.2-1.7c-1.5,0.5-3.3,1.6-4.2,1.2
	c-2.9-1.6-4.6,0-6.4,1.7c-0.8,0.7-1.6,1.5-2.4,2.3c-0.5-1.9-0.3-3.4-0.3-4.9c0.1-2.8-1.4-3.8-4.1-2.9c-1.9,0.6-4.8,5.5-4.1,7.5
	c0.9,2.7,2,5.4,3.3,7.9c0.5,1,1.9,1.6,3,2.4c0.6-1,1.2-2.1,1.8-3.1C450.5,470.3,450.7,469.8,451.1,468.9z M686.3,433.7
	c-0.8-1.5-1.2-3.1-2-3.4c-2.7-1.1-3.9-3.2-5.3-5.5c-0.8-1.3-2.7-3.2-4.3-1c-2.8,3.9-5.3,8.1-7.9,12.1c-1.4,0.4-2.9,0.8-4.3,1.2
	c-0.1,0.4-0.1,0.7-0.2,1.1c1.8,1.3,3.6,2.6,4.9,3.6c-0.9,0.9-2.6,1.8-3,3.1c-0.3,1.1,0.5,3.6,1.2,3.8c2.9,0.7,6,0.9,9,0.9
	c1.5,0,3-0.8,4.5-1.2c-3.3,4.4-7.3,7.4-12.8,7.7c3.4,6,19,4.4,24.1-2.9c-1.4-0.7-2.6-1.3-3.9-1.9c2.8-2,4-5.7,2.1-9.1
	c-1.6-3-3.9-5.6-6.2-8.7C683.4,433.4,684.4,433.5,686.3,433.7z M332.6,483.7c1.8-2.3,4.3-2.1,6.6-2c2.8,0.2,5.5,0.7,8.3,0.6
	c5-0.2,7.7-6.6,4.6-11c-0.9,0.8-1.9,1.6-3,2.6c-0.2-1.4-0.3-2.3-0.4-3.3c-1.3-0.1-2.4-0.2-3.1-0.3c-0.6-1.2-0.8-2.3-1.5-3
	c-1.1-1.1-2.4-2-3.8-2.7c-1.5-0.8-3.3-2.1-4.7-1.8c-1.4,0.3-2.8,2.2-3.5,3.7c-0.7,1.8-0.4,4-0.9,5.9c-1.4,4.6-2.8,9.2-7.8,11.3
	c-0.9,0.4-1.6,1.2-3,2.2c6.7,1.5,12.6,2.9,18.4,4.2c-0.1,0.1-0.7,0.4-1.3,0.9c-0.9,0.8-2.5,1.9-2.4,2.6c0.2,1,1.5,2.6,2.5,2.7
	c4,0.4,8.1,0.9,12,0.4c2.9-0.4,3.8-4.8,1.4-6.7c-2.5-2-5.4-3.7-8.3-4.7C339.7,484.3,336.3,484.3,332.6,483.7z M199.7,492.2
	c0.4,0.3,0.7,0.6,1.1,0.9c-2.8,3.2-5.4,6.5-8.3,9.4c-2.7,2.7-2.2,6.7,1.3,8.2c0.2,0.1,0.3,0.5,0.5,0.8c-1,0.5-1.9,0.8-2.7,1.3
	c-2.8,1.9-2.7,5.3,0,6.7c2.2,1.1,4.2,2.5,6.3,3.7c-0.2,0.4-0.3,0.8-0.5,1.2c-1.3-0.4-2.6-1-3.9-1.2c-1-0.2-2.4-0.5-3.1,0
	c-2,1.5-1.8,3.8-0.6,5.7c0.5,0.8,2.4,1.7,2.8,1.4c2.7-2,5.2-4.2,7.5-6.6c0.5-0.6,0.3-2.1,0.1-3.1c-0.3-2.4-0.7-4.9-1.1-7.4
	c1.3,0.1,2.2,0.2,3.8,0.4c-0.2-2.5-0.6-4.5-0.6-6.6c0-3.2,0.3-6.3,0.4-9.5c0.1-1.8,0-3.7,0-5.5c-0.1-2.7,0-5.5-0.4-8.2
	c-0.3-2.2-0.8-4.6-2-6.4c-1.3-1.9-3.5-3.2-5.8-5.3c-1.1,1.4-2.3,2.9-3.5,4.3c-0.7,0.9-1.6,1.7-2.4,2.6c-0.5,0-1-0.1-1.5-0.1
	c0.7,1.4,2.1,2.8,2,4.1c-0.1,1.3-1.6,2.6-2.5,3.9c3.9,0.6,3.9,0.6,3.9,2.3c-1,0.9-2.6,2.3-2.4,3c1.3,3.1,6.4,4,9.2,1.9
	C198.3,493.5,199,492.8,199.7,492.2z M758.5,515.5c-0.1,0.2-0.2,0.3-0.3,0.5c-1.4-0.3-2.8-0.7-4.2-0.8c-3.4-0.3-4.1,0.6-3.2,3.9
	c0.2,0.8,0,1.7,0,2.6c-0.2,4.5-0.4,9-0.4,13.5c0,2.2,1.1,3.7,3.8,3.4c3-0.4,6-0.4,9-0.8c1.8-0.3,3.9-0.6,5.3-1.7
	c1.3-1,1.8-3,2.4-4.1c2.4,2.1,5.1,4.7,8.1,6.9c1.6,1.1,3.7,1.5,5.5,2.2c-0.5-1.7-0.9-3.5-1.6-5.1c-2.1-4.6-6.8-7.2-12-6.7
	c-0.3,0-0.7-0.3-1.2-0.5c0.3-0.5,0.5-0.7,0.7-1c0.8-1.3,1.6-2.6,2.4-3.8c-1.7-0.4-3.5-1.1-5.2-1.1c-1.1,0-2.1,1.1-3.2,1.6
	c-0.7,0.3-1.6,0.5-2.3,0.8c-0.3-0.5-0.6-0.9-1-1.4c1-0.6,2.2-1.2,3-2c0.6-0.6,0.8-1.6,1.1-2.5c-0.9-0.2-1.9-0.5-2.8-0.5
	c-1.1,0.1-2.2,0.6-3.1,0.9c0.4-2.1,1.5-4.3,0.8-5.6c-0.7-1.3-3.1-1.7-4.8-2.4c-0.2,0.3-0.3,0.6-0.5,0.9
	C756,513.6,757.3,514.5,758.5,515.5z M382.6,455.2c-2.8,0.4-2.8,0.4-9.1,6.6c-4.5,4.4-5,7.1-2.3,12.4c1.5,0.2,2.9,0.3,4.3,0.5
	c0,0.3,0,0.6,0.1,0.9c-3.3,1.8-5.9,3.9-4.9,8.5c1.4-0.5,2.6-0.9,3.7-1.2c4.7-1,9.4-2.2,14.1-2.9c2.3-0.3,4.1-1.5,3.4-3.8
	c-0.6-1.6-1.9-3.1-3.2-4.3c-1.1-1-2.7-1.4-4.1-2c1.2-0.6,2.3-0.7,3.3-0.6c4.9,0.2,7-2.8,4.9-7.4c-1.7-3.7-3.9-4.6-9.6-3.6
	C382.9,457.3,382.8,456.3,382.6,455.2z M643,465.7c4-0.4,6.9-2.7,6.7-6.2c-0.1-1.8-1.1-4-2.4-5.2c-1.7-1.4-4.2-1.8-6.5-2.8
	c0.5-1.5,4.4-1.9,2.9-5.7c-1.4,0.9-2.6,1.9-3.9,2.4c-1.2,0.5-2.7,0.4-4.4,0.6c0,1,0,2.5,0,4.2c-4.6-1.5-4.6,2.4-5,4.4
	c-0.8,4.3,4,2,5.8,4.2c-3.4,1.8-6.1,4.3-5.8,8.7c4.3,2.5,4.3,2.5,2.7,5.9c3.7,0.6,7.4,1.2,11.5,1.8c-0.8-1.4-1.4-2.3-2-3.4
	c0.8-0.4,1.5-0.8,2.1-1.2c1.2-0.8,2.3-1.6,3.5-2.4c-1-1.2-1.9-2.5-2.9-3.7C644.6,466.8,643.8,466.3,643,465.7z M235.7,513.5
	c0.7,0.1,2.2,0.7,3.2,0.3c1.4-0.6,2.5-2,3.8-3c-1.1-0.5-2.3-1.1-3.4-1.7c-0.1-0.1-0.2-0.3-0.3-0.5c2-1.4,4.1-2.7,6.1-4.1
	c-0.2-0.3-0.3-0.6-0.5-0.9c-1,0.2-2,0.4-3.9,0.7c1.8-1,2.9-1.6,3.9-2.2c-3.9-8.6-3.9-8.6-13.2-1.8c0-0.4-0.1-0.6-0.1-0.9
	c0-1.2,0.5-3.1,0-3.5c-0.8-0.6-2.7-0.7-3.6-0.1c-0.8,0.5-1.2,2.2-1.3,3.3c-0.1,3.5,0.1,7.1,0.3,10.6c0.1,2.2,1.1,3.1,3.2,1.6
	c1.7-1.2,3.5-2.1,5.2-3.1c-2.2,3.2-6.9,3.9-7.7,8.4c2.9,1.3,5.5,4.8,8.7,1.5C236.8,517.5,235.9,515.3,235.7,513.5z M231.6,467.7
	c-0.1-0.5-0.2-1.3-0.6-1.7c-1-0.9-2.1-1.6-3.2-2.3c-0.4,1.3-0.9,2.6-1,3.9c-0.1,0.9,0.6,1.9,0.6,2.8c-0.2,2.8-0.6,5.6-0.8,8.5
	c-0.1,3,0,6,0,8.9c3.5-2,7.1-1,9.8-3.5c1.8-1.7,5.1-5.8,4.3-8.3c-0.8,0.4-1.6,0.8-3.3,1.6c1.4-2.3,2.6-3.6,3.1-5.1
	c1.1-3.1-1.5-2.6-2.8-2.6c-0.5-2-0.9-3.6-1.4-5.2C234.9,465.5,233.4,466.5,231.6,467.7z M589.3,531.1c-0.2,0.2-0.4,0.4-0.6,0.6
	c1.4,2.4,2.8,4.9,4.5,7.2c0.2,0.2,1.9-0.5,2.8-1c0.4-0.2,0.7-0.9,1-1.3c4-4.2,5.3-9.3,4.3-14.9c-0.7-3.7-3.3-4.8-7-3.7
	c-0.9,0.3-1.9,0.5-3,0.7c0,0.7,0,1.4,0,2.2c-1.1-0.4-1.9-0.7-2.3-0.8c-0.6,2.6-1.2,5-1.8,7.4c-0.3,1-0.7,1.9-1,2.9
	C587.2,530.6,588.2,530.8,589.3,531.1z M776.2,477c3.1,3.4,3.1,3.4,6.9,0.6c0.9,0.6,1.7,1.3,2.5,1.5c0.3,0.1,1.1-0.9,1.4-1.6
	c0.2-0.6,0-1.3,0.1-2c0.7-4.2-2-9.1,3-12.5c-1.2-1-2.2-2.5-3-2.4c-1.9,0.3-3.6,1.3-5.4,2.1c-0.1,0,0.2,1.4,0.6,1.8
	c2.5,2.6,2.5,2.5,1,6.1c-0.3-1.7-0.5-3-0.7-4.2c-3.6-0.2-6.8-0.4-10.1-0.6c-0.1,0.3-0.2,0.7-0.3,1c0.9,0.9,1.7,1.9,2.6,2.8
	c0.8,0.8,1.6,1.7,3,3.1c-10.3-1.7-9-1.4-10.7,3.1c1.2,1.3,2.3,2.6,3.8,4.2C772.6,479,774.4,478,776.2,477z M299.3,467.2
	c-1.3-0.2-2.8-0.8-3-0.5c-0.8,1.4-1.2,2.9-1.7,4.4c0.9,0.1,2,0.6,2.8,0.4c2.3-0.8,2.7-0.5,2.3,2c-0.4,2.6-0.1,5.3-0.2,7.9
	c0,2.1,1.1,2.7,2.8,1.7c1.4-0.8,2.4-2.1,3.6-3.1c2.1-1.8,4.1-3.6,6.2-5.4c-0.2-0.4-0.4-0.8-0.6-1.2c-1.3-0.1-2.7-0.2-4.3-0.4
	c1-1.5,2.6-2.9,2.6-4.4c0.1-3.6-2.8-0.5-3.3-1.8c-0.8-1.8-1.6-3.7-2.4-5.4C300.9,462.4,298.7,463.9,299.3,467.2z M289.2,521.9
	c-0.4,0-0.8,0-1.2-0.1c-0.5,0.8-1.2,1.5-1.5,2.4c-1.9,5-1.9,10.1-1.1,15.3c0.1,1,1.2,2.6,2,2.7c2.9,0.3,5.8,0.1,8.2,0.1
	c0.6-2,1.1-3.5,1.6-4.9c0.3,0,0.5,0.1,0.8,0.1c-0.4-0.7-0.8-1.5-1.4-2.5c2.9-1.1,2.8-2.8,0.9-4.8c-0.2-0.3-0.1-0.9-0.2-1.2
	c-0.4-0.9-0.8-1.7-1.3-2.6c-0.6,0.8-1.3,1.6-1.8,2.4c-0.8,1.6-1.5,3.3-2.1,4.6C291.1,529.6,290.2,525.8,289.2,521.9z M760.8,489.3
	c-2.5-1.1-4.9-2.1-7.2-3c-0.8-0.3-1.8-0.4-2.7-0.6c0,0.9,0.1,1.9,0.1,2.8c0,0.6-0.1,1.3-0.2,1.9c-0.4,2.2-1,4.5,3.4,4.8
	c-1.8,0.7-2.6,1-3.5,1.3c0.5,3.7,1.4,7.3,1.2,10.8c-0.1,1.9-1.6,3.6,2,4.6c1.1-1.6,3.5-4,3.1-5c-1-2.2-0.3-4-0.4-6.1
	c0-3.8,1.3-6.7,3.5-9.5C760.5,490.8,760.6,490,760.8,489.3z M304,513.9c2.3,1.5,3.9,2.7,5.7,3.6c1,0.5,2.6,0.9,3.2,0.5
	c2.7-2,6.3-3.3,6.3-7.6c0-0.5,0.8-1,1.1-1.5c0.4-0.7,1-1.5,1-2.3c-0.1-1.5-0.5-3-0.9-4.9C315,505.7,309.5,509.8,304,513.9z
	 M737.3,520.9c-0.6-0.2-1.2-0.3-1.7-0.5c-1.4,1.9-4.2,3.9-3.9,5.5c0.6,3.7-2.1,4.8-3.6,7c0.3,1.1,0.7,2.2,1,3.2
	c-1,0.9-1.8,1.6-2.6,2.4c0.1,0.4,0.2,0.8,0.3,1.2c3.1-0.1,6.2-0.2,9.3-0.5c0.5,0,1.2-1.1,1.2-1.7C737.4,532,737.3,526.4,737.3,520.9
	z M492.2,435.1c0.5-2.5,1.2-4.5,1.3-6.6c0.1-1.6-0.2-3.5-0.8-5c-0.6-1.3-1.8-2.4-2.8-3.5c-0.5,1.1-0.9,2.1-1.5,3.3
	c-0.4-0.4-1.1-1-1.8-1.7c-1.3,2.5-2.4,4.7-3.8,7.2c6.5,2,7.8,7,6.6,13.3C494.6,438.9,495,436.9,492.2,435.1z M424.2,540.4
	c5.1,3.6,9.7,6,15,7.1c2.4,0.5,2.3-1.3,2.3-2.9c-1,0.2-1.9,0.3-2.7,0.5c-1.3-3-2.4-5.8-3.8-8.5c-0.4-0.7-2.2-1.2-2.9-0.8
	C429.5,537,427.2,538.6,424.2,540.4z M591,543.3c0-0.6-0.1-1.2-0.1-1.8c-2.1,0-4.6-0.7-6.4,0.1c-5.6,2.5-11,5.5-16.9,8.6
	C577.3,552.5,583.8,546.7,591,543.3z M703.6,470.5c-1,0.3-1.8,0.5-2.6,0.9c-2,1-2.8,3.8-1,4.9c1.6,0.9,4,1.5,5.8,1.1
	c1.1-0.2,1.8-2.5,2.5-4c0.3-0.7-0.1-1.7-0.1-2.6c0-5-2.2-6.5-7.9-4.6C701.3,467.6,702.3,468.9,703.6,470.5z M346.3,508.2
	c1.4-1.1,3.4-2,4.2-3.6c0.5-1.1-0.2-3.8-1.1-4.3c-1.9-1.1-4.5-1.7-6.7-1.5c-1.5,0.1-3.2,1.7-4,3.2c-0.4,0.7,0.8,2.9,1.9,3.7
	C341.9,506.8,343.9,507.2,346.3,508.2z M223.4,501.3c0,2.6-6.3,4.2-2.5,7.3c-0.6,3.2-1.1,5.7-1.6,8.5c3.4,0.4,5.4-1.1,5.6-3.7
	c0.4-5.2,0.1-10.5,0.1-16.1c-1.5,1.5-4.5-1.5-4.9,2.2C220.1,499.8,222,500.5,223.4,501.3z M390.9,486.8c-6.5-3.4-18.5,2.2-20.7,8.6
	C377.1,492.5,384,489.6,390.9,486.8z M281.7,531c-0.3-2-0.2-3.3-0.7-4.4c-0.6-1.2-1.7-2.1-2.6-3.1c-0.8,1.3-2.2,2.5-2.3,3.8
	c-0.2,2.5,0.3,5,0.7,7.5c0.1,0.7,0.8,1.7,1.4,1.9c0.5,0.1,1.7-0.6,1.9-1.2C281,533.9,281.4,532.1,281.7,531z M294.2,485.1
	c0.2,0.4,0.5,0.7,0.7,1.1c1.1-0.9,2.9-1.7,3.1-2.8c0.4-3.1,0.1-6.2,0.1-9.7c-6.3,3.5-6.9,6.3-2.7,9.2
	C295.1,483.6,294.7,484.3,294.2,485.1z M275.7,516c5-3,5.4-9.9,1-12.8C274.9,507.3,275.8,511.4,275.7,516z M641.6,486.9
	c0.1-0.4,0.2-0.8,0.3-1.2c-1.7-2.7-8.9-4.6-11.1-2.8c-0.3,0.3,0.1,2.2,0.4,2.3C634.7,485.9,638.2,486.4,641.6,486.9z M278.6,446
	c2.8-2.8,2.5-5.9,2.1-8.9c-0.2-1.3-1.2-2.5-1.8-3.7c-0.4,0.2-0.8,0.3-1.1,0.5C277.6,437.8,276,441.7,278.6,446z M697.2,499.4
	c0.3,0.1,1.3,0.5,1.6,0.2c2.7-2.3,5.4-4.8,7.9-7.3c0.3-0.3-0.2-1.4-0.4-2.1c-0.6,0.1-1.3,0.1-1.8,0.4c-1.7,0.9-3.3,1.9-4.9,2.9
	c-0.6,0.4-1.2,1-1.4,1.6C697.8,496.4,697.6,497.8,697.2,499.4z M224.6,475.5c-4.1,1.9-4.4,5.5-0.9,9.2c-0.4,1.2-0.9,2.5-1.4,4
	C225.1,488,225.7,483.8,224.6,475.5z M278.7,485.1c-0.2-0.7-0.2-1.6-0.6-2.2c-0.6-0.8-1.4-1.5-2.1-2.2c-0.4,0.9-1,1.8-1.1,2.8
	c-0.2,1.2-0.1,2.4,0.1,3.6c0.2,0.8,0.8,1.6,1.2,2.4c0.7-0.7,1.6-1.3,2.1-2.1C278.6,486.8,278.5,485.9,278.7,485.1z M779.8,507.7
	c-0.2-3-0.4-5.7-0.6-8.4c-0.3-0.2-0.7-0.3-1-0.5c-0.8,1.4-2.4,2.9-2.3,4.3C776,505.1,776.4,507.9,779.8,507.7z M224,465.8
	c-1.4,0.7-2.6,0.9-3,1.7c-0.6,1-1,2.6-0.6,3.5c0.5,0.9,2.1,1.3,3.2,1.9c0.4-1,1.1-2,1.1-3.1C224.8,468.7,224.3,467.5,224,465.8z
	 M291.4,451.8c-1.4-0.9-2.5-1.9-2.7-1.7c-1.2,0.9-2.2,2.1-3.3,3.2c0.7,0.5,1.7,1.7,2.1,1.5C288.8,454.2,289.8,453.1,291.4,451.8z
	 M197.3,471.7c1.5,1.6,2.3,3.7,4.8,2.7c0.4-0.2,0.9-1.7,0.6-2.1C201.6,470.4,199.9,469.6,197.3,471.7z M587.6,523.8
	c-1.2-1.1-2-1.8-2.8-2.5c-0.9,1-1.8,1.9-2.5,3c-0.1,0.2,1.4,1.8,1.8,1.7C585.3,525.7,586.2,524.8,587.6,523.8z M709,464.4
	c-0.5-2.4-0.9-4.1-1.3-5.8c-0.8,0.5-2,0.8-2.2,1.5C704.9,462.1,705.8,463.5,709,464.4z M235.2,446.5c-1.6,2.1-2.8,3.6-4.2,5.4
	C234.9,452.2,236.2,450.6,235.2,446.5z M446.1,524.6c0.9-1.3,2-2.2,2-3c0-0.7-1.3-1.4-2.1-2.1c-0.7,0.8-1.8,1.5-1.9,2.3
	C444.1,522.5,445.2,523.4,446.1,524.6z M276,497.8c0.4,0.1,0.8,0.1,1.2,0.2c0.3-1,1.1-2.2,0.9-3.1c-0.2-0.8-1.4-1.4-2.1-2.1
	c-0.3,0.2-0.6,0.4-0.9,0.6C275.4,494.8,275.7,496.3,276,497.8z M276.7,474.2c-0.3-2.6-0.6-5-1-7.6
	C273.4,469.7,273.7,471.7,276.7,474.2z M751.7,466.6c-0.6,0.3-1.1,0.6-1.7,0.9c0.6,1.2,1.2,2.5,1.8,3.7c0.7-0.4,1.3-0.8,2-1.3
	C753.1,468.8,752.4,467.7,751.7,466.6z M784.6,511.7c-1.3-0.8-2.1-1.7-2.9-1.6c-0.6,0-1.2,1.2-1.8,1.8c0.7,0.5,1.4,1.2,2.2,1.5
	C782.5,513.4,783.1,512.7,784.6,511.7z"/>
<path d="M468.4,368.4c6.2-1.6,9.4,2.8,12.8,5.8c1.3,1.1,3.9,3.2,2.1,6.4c-2.2-2.8-3.8-5.9-6.2-7.9
	C474.8,370.8,471.6,369.9,468.4,368.4z"/>
<path d="M472.6,330.4c-1.3,2.4-5.3,4.5-2.3,8.7c-0.3,0.2-0.5,0.4-0.8,0.5c-0.8-1-2.4-2.2-2.3-3.1c0.6-3.3-2.3-4.5-3.4-6.7
	c-0.3-0.7-0.5-1.5-0.7-2.2c0.3-0.1,0.6-0.2,1-0.2c1.2,1.5,2.2,3.7,3.8,4.3C469.1,332.2,471.1,330.9,472.6,330.4z"/>
<path d="M536.6,398.2c1.1-0.3,2.3-0.6,3.5-1c0.2,0.2,0.4,0.4,0.6,0.5c-1.5,2-3,3.9-4.4,5.9c-1.4,2-2.6,4.1-4.2,6.5
	C530.4,404.6,537.4,402.8,536.6,398.2z"/>
<path d="M491.5,261.2c-3.4,0-3.9-1.3-2.3-4.4c1.5,0.9,3,1.9,4.6,2.6c3.4,1.3,4.3,5.6,1.7,8.6c0,0,0.1,0.1,0.1,0.1
	c-0.1-1.7,0.1-3.5-0.2-5.2C494.8,260.7,493.6,259.5,491.5,261.2L491.5,261.2z"/>
<path d="M490.5,300.1c1.3-3.8,1.3-3.8,0.1-10.9c1.4,1.6,3.9,3.2,3.8,4.7c0,2.3-1.9,4.5-2.9,6.8C491.2,300.5,490.8,300.3,490.5,300.1
	z"/>
<path d="M691.8,614.4c2.1,0.1,4.2,0,6.3,0.3c0.4,0.1,0.7,1.6,1,2.4c-0.3,0.3-0.6,0.5-0.9,0.8C696.2,616.7,694,615.5,691.8,614.4
	C691.9,614.3,691.8,614.4,691.8,614.4z"/>
</svg>
