<?xml version="1.0" encoding="utf-8"?>
<!-- Generator: Adobe Illustrator 21.0.0, SVG Export Plug-In . SVG Version: 6.00 Build 0)  -->
<svg version="1.1" id="Layer_2" xmlns="http://www.w3.org/2000/svg" xmlns:xlink="http://www.w3.org/1999/xlink" x="0px" y="0px"
	 viewBox="0 0 1000 1000" style="enable-background:new 0 0 1000 1000;" xml:space="preserve">
<path d="M224.4,594.5c-5.6,2.6-10.3,4.5-14.7,7c-13.3,7.4-21.5,17.9-21,34c0.6,22.6,0.7,45.3,1.2,67.9c0.4,16.1,1.4,32.2,1.6,48.3
	c0.4,28.8,0.3,57.7,0.6,86.5c0.2,19.3,0.5,38.6,1.1,57.9c0.4,13.6,1.5,27.2,1.8,40.8c0.2,7.3-0.7,14.6-1.1,21.9
	c-0.5,0-1,0.1-1.4,0.1c-0.3-1.6-0.9-3.1-0.9-4.7c-0.7-17.6-1-35.3-2.1-52.9c-1.6-24.7-10.2-47.4-21.5-69.3
	c-8.4-16.2-18.7-31-32.3-43c-20-17.7-40.4-35.1-64.4-47.2c-20.8-10.4-42.4-18.8-66.2-18.6c-5.5,0-5.1-3.4-4.2-6.8
	c3.2-11.6,6.5-23.2,10.2-34.6c10.7-33.1,29.4-61.5,52.9-86.7c12.9-13.8,26.4-27.1,40.1-40.1c5.3-5,11.9-8.8,18.2-12.8
	c9.7-6.2,19.8-11.7,29.3-18.2c15.2-10.4,27.4-23.2,31.5-42.1c1.7-7.8,0-13.4-6.2-16c-2-0.8-5.7-0.6-7.1,0.7
	c-3.6,3.5-6.4,7.9-9.3,12.1c-2.4,3.5-1.4,6.6,2.1,8.5c3.3,1.8,7.1-0.2,8.5-4.1c0.2-0.4,0.5-0.8,0.8-1.2c0.5,0.1,1,0.1,1.5,0.2
	c-0.3,1.7-0.1,3.6-0.9,4.9c-2,3.4-8.6,4.9-11.7,2.6c-3.4-2.6-5.7-6-2.9-10.5c2.8-4.5,5.3-9.2,8.6-13.3c2.6-3.2,6.5-5,10.9-3.4
	c5.6,2,8.9,6.6,9.1,11.9c0.7,14.2-5.2,26.3-13.6,37c-5.4,6.9-11.9,13-18.7,18.7c-4.4,3.7-4.7,7.3-3.2,12.1c3,9.2,8.7,16.6,16,22.6
	c16.2,13.3,34.8,22.2,54.6,28.6C222.1,593.3,222.8,593.7,224.4,594.5z M42.2,654.9c-1,2.3-1.9,3.9-2.4,5.6
	c-4.1,15.5-8.4,31-12.2,46.5c-1.8,7.2-1.4,7.1,6,8.9c11.8,2.9,24,5,35.2,9.5c13.4,5.4,26.3,12.2,38.6,19.9
	c22.9,14.3,42.7,32.5,61.3,52.1c1.6,1.7,3.3,3.2,5.6,5.5c0.1-2.3,0.2-3.4,0.2-4.4c-0.4-16.6-1-33.2-1.2-49.8
	c-0.3-22.3-0.3-44.6-0.5-66.9c0-2.1-0.6-5-2-6c-14.5-10.7-30.4-15.7-48.3-10.2c-2.6,0.8-5.5,2.3-7.1,4.4c-1.3,1.7-2.2,5.8-1.2,6.9
	c1.4,1.5,4.8,1.6,7.3,1.5c1.6-0.1,3-1.9,4.7-3c0.8,5.8-4,12.3-9.8,13.1c-1.9,0.3-5-0.2-5.9-1.5c-3.1-4.6-5.5-9.6-8.5-15.2
	C81.5,673,60.5,670.2,42.2,654.9z M187.7,590.1c-0.9-0.9-1.4-1.4-2-1.8c-1.4-0.8-2.8-1.5-4.2-2.2c-18.4-9.1-35.6-19.7-48.4-36.3
	c-2.2-2.8-3.9-2.9-6.5-0.7c-6.3,5.7-13.3,10.7-19,16.9c-17,18.6-35.1,36.4-48.7,58c-6.6,10.4-5.2,8.6,1.9,15.1
	c23.6,21.4,49.9,19.9,77.4,10c1.4-0.5,3.2-1.1,4.5-0.6c5.8,2.1,11.5,4.4,17.1,7c3.9,1.8,7.4,4.2,11.2,6.4
	C171.2,636.5,169.8,611.3,187.7,590.1z M47.1,646.7c-3.4,4.8-3.4,4.9,0.6,8.1c16,13,35,15,54.5,13.9c2.7-0.1,5.2-3,7.7-4.6
	c-0.2-0.6-0.5-1.3-0.7-1.9C86.5,665.5,65.8,660.6,47.1,646.7z M131,656.6c15.9,1.4,28.6,7.6,41.5,14.5c-0.9-2.8-2-5.7-4.1-6.8
	c-7.3-4-15.1-7.3-22.6-11.1C140.3,650.4,136.3,653.3,131,656.6z"/>
<path d="M929.9,663c7.9-29.5,10.6-58.2,2.4-87.3c-8-28.8-22.1-54-43-75.5c0.4-0.4,0.8-0.8,1.2-1.2c1.5,0.9,3.1,1.6,4.3,2.7
	c12.8,12.2,22.8,26.5,31.3,41.9c4.2,7.6,8.2,15.3,12,23c13,26.6,12.9,54.7,9.2,83.1c-1.3,10-4.1,19.7-5.8,29.7c-0.4,2.4,0,5.4,1,7.6
	c4.6,9.7,9.3,19.4,14.5,28.9c3.3,6.1,6.8,6.8,11,1.4c6.8-8.7,12.9-18.1,18.2-27.8c4.5-8.1,7.5-17.1,11.2-25.6c0.3-0.6,0.9-1,2.4-2.6
	c0,2.5,0.3,4,0,5.2c-6.3,21-12.9,41.9-23.5,61.2c-3.7,6.7-8.8,12.8-14.1,18.5c-6.3,6.8-11.3,6.1-16.1-1.7
	c-5.2-8.4-9.9-17.1-14.8-25.7c-0.9-1.7-1.8-3.4-3.1-5.8c-1.5,2.6-2.7,4.6-3.9,6.7c-6.4,10.6-12.9,21.1-19.2,31.8
	c-4.7,7.8-4.6,7.8-1.3,15.3c-8.1,3.4-16.2,6.6-24.2,10.1c-17.7,8-32.1,20.5-45.5,34.3c-3.3,3.4-4.8,4-9,0.2
	c-8.2-7.4-17.8-13.2-26.9-19.6c-0.4-0.3-1-0.4-1.5-0.5c-7.9-2.4-7.7-2.3-7.7-10.6c0.2-37.9,0.9-75.8,0.1-113.6
	c-0.4-18-5.8-35-21.4-46.5c-2.8-2.1-6.5-3-10.5-4.8c1.3-0.8,2.1-1.5,3.1-1.8c10.5-3.3,21.6-5.5,31.6-10
	c11.8-5.4,21.1-14.8,28.8-25.3c3.3-4.6,6.1-9.5,9.2-14.2c1.5-2.3,1.3-4-0.9-5.8c-10-8.1-19.8-16.6-29.9-24.6
	c-11.6-9.1-22.9-18.3-29.8-31.8c-4.8-9.5-3.2-18.8,4.9-24.4c4-2.7,7.9-2.5,11.7,0.4c3.2,2.5,6.4,5,9.5,7.6
	c7.2,6.1,6.7,15.2-1.5,19.8c-2.1,1.2-5.9,1.1-8.1,0c-3.2-1.6-5.4-4.8-4.1-10.1c1.5,2.1,2.3,3.4,3.3,4.7c2.1,2.7,4.4,4.8,8,2.3
	c3.2-2.3,6.2-5.9,3.4-9.3c-4-5-8.8-9.7-14.3-12.9c-4-2.4-8.2,1-10.3,5.1c-2.3,4.5-2.3,9.1,0,13.8c7.3,15,20,24.2,33.6,32.8
	c20.7,13.1,42.6,24.8,59.7,42.9c9.8,10.4,18.5,21.8,26.9,33.4C904.8,625.8,916.9,644,929.9,663z M847.8,578.3
	c-15.8,18.8-34.6,31-55.5,40.3c2.9,7.3,6,14.2,8.3,21.4c4.9,15.5,5.7,31.7,6.1,47.7c0.6,28.1,0.6,56.3,0.1,84.4
	c-0.3,17.4-3.1,12.3,13.4,20.1c3.8,1.8,6.4,1,9.4-1.6c14-12.2,30-21.2,47.6-27.2c2.2-0.7,4.5-2.2,5.9-4c14.4-19.7,26.8-40.7,36.8-63
	c0.9-2,0.9-5,0-7.1c-2.7-6.3-5.4-12.7-9-18.6c-13.7-22.4-27.5-44.9-41.9-66.9C863,595,855.3,587.3,847.8,578.3z"/>
<path d="M373.9,36c-2.1,3.2-3.6,5.4-5.3,8c1.4,0.3,2.5,0.5,3.5,0.6c-5.2,3.8-11,6.8-15.2,11.3c-10.7,11.5-17.9,24.5-14.1,41.2
	c1.6,7.2,7,11.7,11.4,16.9c9.9,11.7,13.6,24.7,7.5,39.4c-2.2,5.4-6,10.1-8.1,15.5c-7.2,17.6-7.8,36.1-7.9,54.8
	c-0.1,23.2-0.1,46.3-0.1,69.5c0,27.8-1.7,55.5,1.4,83.2c1.9,16.2,9.6,30.2,17.2,44.2c9.1,16.8,22.4,30.3,34.1,45.2
	c3.8,4.8,5.7,11.2,7.6,17.2c0.6,1.9-0.9,5.2-2.5,7c-3.2,3.7-9.8,3.3-15.2-0.2c-4.9-3.2-6.5-7.7-4.3-13.8c0.4,1.4,0.8,2.1,0.8,2.8
	c0.3,5.9,4,8.8,9.2,10.2c6.3,1.7,10.6-2.4,8.1-8.3c-2.4-5.7-5.7-11.6-10-15.9c-19-19.1-33.1-41.9-47.9-64c-4.3-6.4-8.3-8.2-15.1-5.8
	c-5.9,2.1-8.6,8.4-5.9,14.1c1.1,2.2,2.5,4.3,3.7,6.4c4.5,7.9,4.5,13.4-1.6,20.4c-4.7,5.4-10.4,10.1-15.6,15.1
	c-0.6,0.5-1.5,0.7-3,0.3c0.7-1,1.3-2.1,2.1-3c4.3-5.2,8.8-10.1,12.9-15.5c3.9-5.1,5.1-10.8,0.8-16.1c-7.9-9.7-6.2-19.7-0.9-29.2
	c9.8-17.5,11.3-36.7,12-55.9c0.5-15.3,0.1-30.7,0.1-47.1c-2.1,0.8-3.4,1-4.4,1.6c-14.3,8.8-28.4,17.8-42.8,26.3
	c-14.7,8.7-29.6,17-44.6,25.1c-4.6,2.5-6.9,5.4-7.1,11c-0.7,18.4,1.1,36.3,8,53.6c6.1,15.3,7.3,31.6,8.7,47.7
	c2,22.7,3.5,45.6,11.6,67.2c2.8,7.3,7.3,14.1,12.1,20.3c2.2,2.8,6.7,4.1,10.5,5.1c1.7,0.5,5.3-1,5.8-2.5c0.7-1.9,0.1-5.3-1.3-6.9
	c-4.7-5.5-5.3-11.2-0.6-18.7c-0.2,2.9-0.8,5.2-0.3,7.2c0.7,3.1,1.5,6.5,3.5,8.8c3.3,3.9,5,7.9,2.5,12.5c-2.4,4.4-8.1,5.6-13.6,3.6
	c-10.2-3.7-15.1-12.6-19.6-21.2c-5.9-11.4-10.6-23.4-11.9-36.5c-0.7-6.7-3-13.3-4.6-20.1c-3.7,8-7,15.8-10.8,23.5
	c-4.9,9.7-12.4,17.2-21.5,22.9c-12.6,7.9-20.2-0.4-20.8-11.3c-0.5-9.3,4-17,10.9-23.2c0.6-0.5,1.5-0.5,4-1.3
	c-1.7,2.6-2.8,3.8-3.3,5.2c-2.4,5.7-5.2,11.4-6.9,17.3c-1.2,4.2-0.1,9.5,4.4,10.8c3.5,1,8.7,0.2,11.8-1.9
	c11.1-7.6,18.6-18.1,22.9-31c5.6-16.8,3.3-33.3-1.6-49.6c-4-13.3-9.7-26.1-14-39.4c-7.8-24.1-11.2-49.1-5.4-73.8
	c5.4-23,13.7-45.6,29.8-63.8c8.2-9.2,17.3-17.7,26.9-25.4c20-16.1,41.4-30.4,58.9-49.4c7.3-7.9,14.6-16,20.9-24.7
	c5.8-8,6.4-17.1,1.2-26c-2.2-3.8-4.6-7.6-7.5-10.9c-12-13.7-11.3-28.7-4.9-44.2C344.7,62.9,364.6,40.9,373.9,36z M331.9,192.8
	c-1.9,1.6-2.8,2.3-3.7,3.2c-11.8,11.2-23.5,22.5-35.4,33.5c-12.5,11.6-24.4,23.8-31.9,39.3c-6.9,14.3-13.1,29-19.5,43.5
	c-0.5,1.1-0.4,2.5-0.6,4.5c1.6-0.8,2.4-1.1,3.1-1.5c18.3-10.7,36.6-21.4,54.9-32.1c10.2-5.9,20.4-11.9,30.8-17.6
	c3.2-1.7,4.1-3.9,4-7.2c-0.3-16.5-0.5-32.9-0.9-49.4C332.7,204.1,332.3,199.1,331.9,192.8z M333.5,278.1c-0.3-0.3-0.6-0.7-0.9-1
	c-0.8,0.2-1.6,0.3-2.3,0.7c-8,4.4-16.1,8.8-24,13.4c-11.6,6.7-23.1,13.6-34.7,20.4c-10.2,6-20.4,11.9-30.5,18.1
	c-1.9,1.2-3.1,3.5-4.7,5.3c0.4,0.4,0.7,0.7,1.1,1.1c1.2-0.6,2.5-1.1,3.7-1.8c10.9-6.1,22-11.9,32.7-18.3
	c18.9-11.2,37.7-22.7,56.5-34.2C331.6,281,332.4,279.3,333.5,278.1z"/>
<path d="M596.9,38.8c0,0,0.9-0.7,1.8-1.5c-1.9-2.6-3.6-5.1-5.3-7.5c0.2-0.3,0.5-0.6,0.7-0.9c1.4,0.8,2.9,1.5,4.1,2.6
	c6.6,6,13.5,11.9,19.7,18.4c13.3,13.7,13.9,29.8,8.1,46.9c-1.8,5.3-3.9,10.6-5.8,15.9c-3.3,9.6-1.2,18.6,3.7,26.9
	c6.8,11.4,14.4,22.5,16.5,35.9c1.5,9.7,2.6,19.6,2.9,29.5c0.4,18.9,0.3,37.9,0,56.8c0,3.8,1.1,5.9,4.3,7.5
	c14.1,6.9,28.2,14,42.4,20.7c13.7,6.5,27.6,12.8,41.4,19.1c0.4,0.2,1,0.1,2.2,0.3c0.1-1.6,0.4-3.1,0.2-4.5
	c-4.3-34.2-19.9-61.9-47.4-82.7c-14.8-11.2-21.9-26.7-23.1-44.6c-0.6-9.1,1.9-18.1,7.9-25.8c2.2-2.9,3.6-6.5,5.3-9.8
	c-0.4-0.3-0.7-0.5-1.1-0.8c-0.8,0.5-1.7,0.9-2.4,1.5c-2.2,2.1-5,3.2-6.8,0.5c-1.3-1.9-1.9-5.6-0.9-7.4c2.7-5.3,6.1-10.4,9.9-15
	c5.8-7.1,8.7-15.3,10.1-24.1c0.2-1.4,0.6-2.7,1.5-4c2.8,6.3,1.6,12.5-1.5,18c-4.4,7.8-9.8,15.1-14.6,22.7c-1.1,1.7-1.5,3.9-2.2,5.9
	c1.9-0.6,3.9-1.2,5.8-1.8c1.3-0.4,3-1.5,3.7-1.1c1.1,0.7,2.1,2.6,2,3.8c-0.4,2.7-0.8,5.9-2.6,7.8c-13.6,14.4-10,36.5-1,49.3
	c7.1,10.1,16.6,17.3,25.9,24.9c15.6,12.7,29.9,26.8,39.7,44.4c12.3,21.9,18.8,44.8,14.6,70.7c-4.2,26.1-13.4,49.9-24.3,73.6
	c-8.9,19.5-17,39.5-24,59.9c-3.6,10.6-2.8,22.5,0.1,33.6c2.4,9.1,11.8,11.4,20.3,10.4c6.9-0.8,11.7-7.6,10.8-15.8
	c-0.7-7.3-2.6-14.5-3.4-22.3c1.5,2.5,3.9,4.8,4.4,7.5c1.3,6.7,2.7,13.6,2.3,20.4c-0.2,3.7-3.1,8.2-6.1,10.5
	c-6.6,4.9-14.4,5.1-22.2,2.2c-7.9-3-12.5-8.3-12.8-17c-0.1-4.1-0.1-8.1-0.2-12.2c0-1.7,0-3.5-1.1-5.6c-2.7,6.7-5.7,13.4-8.1,20.2
	c-4.6,12.6-11.1,24.1-20.5,33.7c-2.8,2.9-6.9,4.7-10.8,6.1c-3.3,1.3-5.9-0.7-5.4-4.3c0.5-3.4,1.4-7,3.3-9.8c5.4-8.4,5.6-8.2,4-16.5
	c4.6,1.1,6.9,5.2,4.9,9.2c-1.1,2.3-3.2,4.2-4.7,6.4c-1.3,1.9-2.7,3.8-3.4,5.8c-0.4,1,0.3,2.9,1.2,3.6c0.8,0.6,3,0.7,3.6,0.1
	c3.6-3.8,8.1-7.3,10.2-11.9c6.7-14.6,12.9-29.4,18.4-44.4c5.8-15.7,10.1-32,15.8-47.7c9.3-25.5,16.5-51.5,22.5-77.8
	c1.1-4.8,1-9.9,2.1-14.7c1.5-6.6-1.9-9.1-7.3-11.6c-23.9-11.3-47.6-23.1-71.5-34.6c-6-2.9-12.2-5.3-18-7.8
	c-6.4,11.9-12.7,23.6-19,35.3c-0.9-0.3-1.7-0.6-2.6-0.9c0.4-1.5,0.4-3.2,1.2-4.4c7.4-11,10.1-23.4,11.4-36.4
	c2.9-28.6,1.7-57.2,1.3-85.8c-0.1-9.6,0.3-19.2-3.2-28.3c-2.2-5.7-4.6-11.6-8.4-16.2c-9.2-11.3-11.2-23.2-5.7-36.6
	c3.4-8.1,6.6-16.3,9.7-24.6c4.6-12-0.5-30.8-11.2-40.2C606.6,44.5,601.7,42,596.9,38.8z M733.2,328.8c3.4-5.3-0.4-6.2-3.4-7.6
	c-29.1-14-58.1-28-87.3-41.8c-1.1-0.5-2.7,0.1-4,0.3c0.5,1.4,0.7,3.5,1.7,4.1c3.8,2.2,7.9,3.7,11.9,5.7
	C679,302.4,705.9,315.5,733.2,328.8z"/>
<path d="M740.8,553.8c0.2,2.7,0.6,5.3,0.6,8c-0.1,37.2-0.4,74.4-0.5,111.5c0,26.4,0.2,52.8,0.3,79.1c0,1.2,0.1,2.5,0.1,3.7
	c0.5,16.6,5.5,14.2,16.3,9.7c9.2-3.8,15.7-11.2,20.6-19.9c0.8-1.5,2.1-2.8,3.2-4.2c0.5,0.2,1,0.4,1.5,0.7c-0.3,1.3-0.2,2.9-0.8,4
	c-6.6,11.1-12.6,22.6-20.3,32.8c-3.8,5-10.3,8.6-16.4,10.9c-10.2,3.9-20.7-4.7-22.1-17.3c-0.7-5.6-1.4-11.2-2.3-18
	c-22.9,8.7-40.1,22.9-53.3,43.4c-0.9-1.6-1.7-2.9-2.3-4.2c-7.8-17.7-20.1-31.9-35.2-43.8c-2.3-1.9-4.5-5.3-4.7-8.2
	c-1.5-21.7-2.6-43.4-3.6-65.1c-0.4-7.9-0.2-15.9,0-23.8c0.3-11.3,5-21.1,10-31c2.8-5.5,4.9-11.7,5.9-17.8c0.5-3.1-1.9-6.8-3-10.2
	c5.4-0.5,8.5,1.7,10.6,8c3.4,10.4,10,18.2,19,24c4,2.6,8.2,4.8,12.3,7.3c1.4,0.9,2.7,2,4,3c-0.2,0.4-0.3,0.8-0.5,1.2
	c-1-0.2-2.1-0.1-2.9-0.6c-6.1-3.5-12.3-6.9-18.3-10.7c-6.1-3.9-7.5,1.5-10.1,4.6c-2.8,3.4-1.3,5.7,2,7.7c6.9,4.1,13.8,8.3,20.7,12.5
	c1.5,0.9,2.9,1.9,4.3,2.8c-0.2,0.4-0.4,0.8-0.6,1.3c-5-2.4-10.1-4.6-15.1-7.2c-3.9-2-7.7-4.3-11.4-6.7c-3.1-2-5.2-1.1-6.1,2
	c-1.4,4.7-3.2,9.5-3.2,14.3c0.1,14.1,0.9,28.3,1.6,42.4c0.7,14.5,1.6,29,2.1,43.5c0.2,5.7,1.7,9.8,7.3,12.9
	c5.7,3.1,10.4,7.8,14.9,11.3c12.7-5.5,25.1-10.8,37.4-16.4c1.6-0.8,3.4-3.3,3.5-5.1c0.3-14.3,0.2-28.7,0.2-43
	c0-24.9-0.1-49.8,0.1-74.7c0-2.1,1.8-4.4,3.4-6.1c5.1-5.4,10.6-10.4,15.9-15.6c11.2-11,13.1-24.9,12.7-39.6c-0.1-4.4,0-8.9,0-13.3
	C739.3,553.8,740,553.8,740.8,553.8z M709.1,696.6c8.1-4.5,11.7-9.7,11.5-16.2c-0.1-3.6,0-7.3,0-10.9c0-12.9,0-25.8-0.2-38.8
	c0-1.4-1.2-3.5-2.3-4c-6-2.2-9.5,0.3-9.5,6.5c-0.2,20.7-0.2,41.4-0.3,62.1C708.3,695.6,708.6,695.9,709.1,696.6z M708.9,749.7
	c2.5-0.6,4-1.4,5.6-1.3c5.7,0.1,6.8-3,6.8-8.1c-0.2-11.5,0.3-23,0.2-34.4c0-5-0.5-9.9-0.9-15.9c-7.3,5.9-13.1,10.5-12.4,20.1
	c0.8,10.9,0.2,21.9,0.2,32.9C708.4,745,708.7,747,708.9,749.7z"/>
<path d="M664.8,868.8c-7.6-7-16.3-13.3-22.5-21.4c-7.9-10.3-14.2-21.9-20.4-33.4c-7.7-14.1-14-29-25.1-41c-3-3.2-6.8-5.7-9.7-8.9
	c-1.7-1.9-3.5-4.6-3.7-7.1c-0.9-17.8-1.4-35.7-2-53.5c0-1,0.3-2,1.6-3.2c0.3,1.2,0.7,2.5,0.8,3.7c0.8,16.8,1.8,33.5,2.3,50.3
	c0.2,5.7,2.8,6.5,8.6,5.5c0-4.8,0.2-9.7,0-14.5c-0.6-12-1.4-24-2-36.1c-0.2-5.5-4.4-8.5-8.1-10.2c-4.6-2.1-3.1-4.4-2.6-8.1
	c3.5,4,6.4,7.4,9.5,10.9c2.7-8.8-0.7-13.1-9.9-15.2c0-1.7,0-3.5,0-6.6c3.6,3.2,6.5,5.7,9.7,8.6c0.4-1.3,0.9-2.2,0.8-3.2
	c-0.3-15.9-0.8-31.8-1.1-47.8c-0.1-5.4-4.7-5.4-8.6-8.5c0,16.1,0,30.9,0,45.7c-0.2,0-0.4,0.1-0.7,0.1c-0.3-3.4-0.8-6.9-1-10.3
	c-0.5-11.5-0.7-23-1.3-34.5c-0.1-1.6-0.9-3.5-2-4.6c-4.9-4.5-10.1-8.8-16.3-14c-2.8,3.2-5.5,6.7-8.6,9.7
	c-10.7,10.2-23.1,18-36.3,24.6c-1.5,0.8-2.6,4-2.6,6.1c0.1,10.8,0.6,21.6,1,32.4c0.3,6.6-1.1,12.4-5.2,17.8c-3.3,4.3-5,9.7-7.5,14.6
	c-0.8,1.5-1.9,3-2.8,4.4c-0.6-0.1-1.1-0.2-1.7-0.4c-0.3-6.2-0.9-12.4-0.9-18.6c0-13.5,0.7-26.9,0.4-40.4c-0.2-8.1-1.1-16.2-2.9-24.1
	c-1.7-7.4-5.5-9.2-13.1-8.1c-10.3,1.6-15.9,9.2-21.3,16.9c-1.3,1.8-2.3,3.8-4.7,5.3c0.2-1.3,0.1-2.8,0.7-3.9
	c5.4-9.5,10.5-19.2,16.6-28.3c5.3-7.9,18-9.1,26.9-4.4c7.1,3.8,11.3,9.3,13,17c0.2,1,0.7,1.8,1.3,3.4c20.5-14.7,32.5-34.8,42.1-58.3
	c12.9,26.7,33.3,42.5,62.3,46.7c-2.2,5.1-5.3,9.9-6.2,15c-1.7,10-3,20.3-3,30.4c0,16.6,0.6,33.3,2.1,49.8
	c1.5,17.6,3.8,35.2,6.8,52.5c2.3,13,5.6,26,10,38.4c6.9,19.9,16.9,38.1,34.1,51.4c1.8,1.4,3.2,3.4,4.8,5.1
	C666,867.6,665.4,868.2,664.8,868.8z"/>
<path d="M424.5,887.6c7.6-11.2,15.8-22.1,22.7-33.8c9.8-16.6,18.5-33.9,22.2-53c3.3-16.9,0.6-33.6-3.1-50.4
	c-7.8-34.9-21.7-67.5-34.9-100.5c-1.4-3.4-2.9-3.9-6.6-3.8c-9.5,0.2-19-0.4-28.4-1.2c-2.8-0.3-4.8-0.3-6.2,2.3
	c-0.4,0.8-0.9,1.7-1.6,2.1c-7.7,4-7.4,11.1-7.4,18.2c-0.1,28-11.8,51.9-27.8,73.7c-9.4,12.9-20.8,24.5-32.3,35.6
	c-10.5,10.2-22.7,18.6-36.5,24.1c-2.1,0.8-4.4,1-6.6,1.4c-0.5-0.6-0.9-1.2-1.4-1.7c1-0.3,1.9-0.7,2.9-1
	c13.9-4.1,24.7-13.2,35.4-22.4c17.7-15.3,31.4-33.5,41-54.7c8.5-18.6,12.2-38.3,11.9-58.8c-0.1-7-2.2-13.1-9.2-19.2
	c22.7,1.6,28-9.8,23.6-28c6.6,5.8,12.3,12,19.1,16.6c7.1,4.8,15.6,6.2,25.3,4.6c-4.9-10.8-9.3-21.4-14.4-31.6
	c-8.1-16.1-16.7-32-24.9-48c-0.6-1.2-0.4-3.5,0.5-4.5c7-8.5,10.5-8.1,16.2,1.8c15,25.7,27.7,52.5,38.3,80.3
	c7.8,20.4,16.9,40.4,24,61.1c5.8,16.6,9.4,34,14.1,51c0.5,1.8,1.8,3.5,2.7,5.2c1.6-1.4,3.8-2.5,4.8-4.3
	c6.8-12.6,13.2-25.4,20.1-37.8c5.3-9.5,10.9-18.9,19.7-25.8c-3.7,5.2-7.6,10.3-11.1,15.7c-11.4,17.8-19.5,37.1-25.4,57.4
	c-4.8,16.4-9.1,33.1-14.8,49.2c-10,28.2-27.3,52.1-45.6,75.3c-1.7,2.1-4.1,3.7-6.2,5.5C424.7,887.9,424.6,887.7,424.5,887.6z"/>
<path d="M440.8,133.2c-1,2.9-1.7,5.9-3.1,8.6c-6,11.7-3.6,22.8,3.1,33.1c5.9,9.2,12.7,17.9,19.1,26.7c0.3,0.4,0.9,0.5,1.5,0.8
	c13.7-29.9,32.1-56.5,55.5-79.4c9.9-9.7,21.8-17.3,32.8-25.9c0.4-0.3,1.2-0.2,2.5,0.7c-4.3,3.7-8.5,7.4-12.9,10.9
	c-18.1,14.5-33.1,31.7-46.1,50.9c-8.6,12.8-15.7,26.2-18.4,41.4c-3.3,19-5.4,38.1-4.6,57.5c0.7,14.8,0.2,29.7,0.2,44.6
	c0,1.9,0,3.7,0,7.2c23.3-16.6,37.9-38.3,50.3-61.9c0.5,0.4,1.1,0.8,1.6,1.2c-2.1,4.2-4.1,8.4-6.3,12.5c-7.1,13.2-3.4,25.2,4,36.9
	c4,6.4,8.2,12.9,11.2,19.8c4.9,11.5,4.5,23.7,3.5,36c-0.5,5.7-2.8,9.1-7.3,12.4c-14,10.4-20.9,25.9-28.1,41.1
	c-1.1,2.3-2.1,4.6-3.9,6.9c-1.7-19-14.6-30.2-27.1-42.6c-7.3,25.1-26.1,40.3-43.2,56.7c-5.4,5.1-11,10-16.6,14.9
	c-1.7,1.5-3.9,2.5-6.4,4.1c0-1.5-0.2-2.1,0-2.4c8.4-9.1,17.1-17.8,25.1-27.2c6.2-7.2,11.9-14.9,17.2-22.7
	c7.8-11.6,10.5-25.2,11.6-38.8c2.4-31.4,3.8-62.8,1.5-94.3c-0.8-11.1-0.6-22.3-1.4-33.3c-1.2-16.4-4.9-31.9-16.3-44.9
	c-7.5-8.6-10.2-19.4-9.3-30.7c0.7-7.9,3.9-15,8.4-21.4C439.6,132.7,440.2,133,440.8,133.2z M495.3,385.1c7.3-6.7,16.2-14.8,24.9-23
	c1.2-1.1,2.3-3,2.4-4.5c0.4-9,1.9-18.2,0.2-26.8c-1.8-9.3-6.8-18-10.3-27.1c-1.7-4.4-3.3-9-4.8-13.2c-8.8,6.5-17,12.3-24.9,18.5
	c-1.3,1-2.2,3.2-2.2,4.8c-0.7,18.2-1.2,36.4-1.7,54.5c0,1.5,0.1,3.6,1,4.3C485.4,377.3,491,381.6,495.3,385.1z M473.5,340.8
	c-0.9,0-1.7,0-2.6,0.1c-0.4,6.9-0.6,13.9-1.1,20.8c-0.3,3.9,1.3,5.9,6,6.4C473.8,358.8,479.7,349.2,473.5,340.8z M476.8,314
	c-4.3,0.9-6.2,2.7-6.3,6.5c-0.3,11,1.4,16.2,6.3,18.1C476.8,330.4,476.8,322.4,476.8,314z"/>
<path d="M377.2,312.5c2.3-1,3.9-1.3,5.1-2.1c12-9.1,21.6-20.2,27.7-34.3c3.2-7.3,6.8-14.3,10.5-21.3c1.3-2.4,3.4-4.3,5.2-6.4
	c0.4,0.2,0.7,0.5,1.1,0.7c-2,3.9-4,7.9-6.2,11.8c-6.1,11-3.4,21.8,2,31.7c5.1,9.4,11.9,18,17.9,26.9c4.5,6.5,6.8,13.5,4.9,21.5
	c-1,4.1-1.5,8.3-2.4,12.5c-0.2,1-0.8,2-1.6,2.6c-11.4,9.3-20.2,20.9-27.4,33.4c-3,5.3-3.1,12.4-4,18.7c-0.5,3.3,0.3,6.8,0.6,11.4
	c-4-9.8-6.8-18.7-11.1-26.7c-4.5-8.4-12-14.4-20-21c-1.7,5.8-2.5,10.7-4.6,15.1c-2.9,6-6.6,11.6-10.2,17.2c-1.6,2.6-4.3,2.6-5.3-0.2
	c-1.3-3.4-2.4-7.3-2.1-10.9c0.6-8.4,2.9-16.7,3-25.1c0.6-40.1,0.9-80.3,0.8-120.5c0-9.8-2-19.6-3.8-29.3c-0.5-3-3-5.8-4.8-8.5
	c-2-3-4.8-5.6-2.6-10.7c3.7,3.9,6.9,7.2,11,11.6c9.2-26.9,27.8-46.4,45.2-66.8c16.3-19.2,54.9-50,62.7-49.7c-1.8,1.5-3,2.7-4.3,3.7
	c-22.3,15.5-42,33.6-58.4,55.5c-8.5,11.3-15.8,22.9-22.1,35.4c-5,9.9-8.2,20.4-8.1,31.5c0.2,28.7,0.7,57.3,1.1,86
	C377,307.9,377.1,309.6,377.2,312.5z M414.2,290.2c-8.1,6.8-16,13.4-23.8,20.1c-1.3,1.1-2.6,3.1-2.6,4.7
	c-0.3,16.3-0.4,32.5-0.4,48.8c0,1.5,0.7,3.6,1.8,4.5c4.1,3.3,8.5,6.2,11.9,8.6c9.4-6.9,18.5-13.5,27.5-20.2c0.9-0.7,1.9-1.7,2.3-2.8
	c4.2-11.6,5-23.1-2.1-34C422.5,310.3,415.8,300.9,414.2,290.2z M384.1,364.7c-0.5-9.3,2.6-18.7-6.3-27.1c0,7.4,0.3,13.3-0.1,19.2
	C377.5,361.2,379.3,363.3,384.1,364.7z M384.2,314.9c-6.1,1.5-6.1,1.5-6.6,5.7c-1.1,8.8,1.1,14.5,6.6,17.4
	C384.2,330.3,384.2,322.6,384.2,314.9z"/>
<path d="M302.1,699.2c-2.2,0-4.4,0.1-6.5,0c-22.2-1.4-42.7,4.1-60.1,17.7c-10.2,8-15.4,19.7-12.6,33.5c0.9,4.3,1.2,8.9,2.9,12.9
	c5.3,12.6,21.5,21.1,37,21.1c26.6,0,44.3-15,59.7-34.2c3.6-4.4,6.9-9.1,10.3-13.6c0.5,0.2,1,0.5,1.4,0.7c-0.3,1.2-0.3,2.5-0.9,3.5
	c-16.4,27.6-38.9,47.8-71.3,53.5c-14.8,2.6-37.6-5.5-45.6-21.8c-7.6-15.4-10.4-30.7-3.6-46.9c4.3-10.2,12.3-17.1,20.7-23.7
	c0.8-0.6,1.7-1.2,3.2-2.2c-2.6-1.8-4.8-3.4-7.1-4.7c-8.6-4.6-13.9-11.8-16.7-21c-4.7-15.3-4.3-30.2,4.5-43.8
	c12.1-18.6,35.4-30.1,60.5-22.9c18.4,5.3,32.4,16.2,43.6,31c4.5,6,8.1,12.8,12,19.3c0.6,0.9,0.6,2.2,0.9,3.3
	c-0.4,0.3-0.9,0.5-1.3,0.8c-1.7-2.4-3.6-4.7-5.1-7.2c-10.5-16.9-24.1-29.8-43.4-36.3c-22.3-7.5-46.7,1.5-58.2,21.8
	c-8.7,15.4-1,38.1,16.2,46.4c13.4,6.5,27.8,9,42.6,9.7c5.7,0.3,11.4,0.8,17.1,1.2C302.2,697.8,302.1,698.5,302.1,699.2z"/>
<path d="M235.5,596.8c14.3,0,28.6,1,42.7-0.3c10.6-0.9,20.9-4.5,31.3-7.3c20.6-5.7,39-15.8,55-29.7c12.5-10.9,24.7-22.4,35.4-35
	c12.8-15.2,19.5-33.8,23.1-53.4c1.5-8.5-2.4-15-7.4-21.2c-1.1-1.4-2.1-2.9-3.2-4.3c0.5-0.5,0.9-1.1,1.4-1.6c1.8,1.3,3.7,2.3,5.3,3.8
	c6.6,6,13.8,11.1,22.8,12.8c13.4,2.5,26.2-1.9,27.2-19.7c0.5-9.6,1.9-19.1,3.9-28.7c1.2,60.9,2.5,121.9,3.7,182.8
	c-0.7,0.1-1.5,0.1-2.2,0.2c-0.2-2.3-0.5-4.5-0.7-6.8c-0.2-2.3-0.2-4.6-0.3-6.9c-0.5-7.6-0.5-15.2-1.5-22.7
	c-2.6-19.4-21.6-30-39.2-21.7c-7.4,3.5-15.3,6.7-20.3,15.7c0.4-2.3,0.8-3.4,0.7-4.3c-0.5-3.1-0.3-7.1-2.1-9.1c-3-3.2-7-1.1-10.1,1.2
	c-11.9,8.8-23.4,18.3-35.7,26.6c-13.3,9-27.5,16.5-43.1,21.1c-10.8,3.2-21.3,7.2-32.2,9.5c-8.8,1.9-18.1,2.1-27.2,2.7
	c-5.5,0.3-11,0.3-16.5-0.1c-3.7-0.3-7.3-1.6-11-2.4C235.3,597.5,235.4,597.2,235.5,596.8z M464.7,466c-7.5,5.9-15.3,5.8-23,5.1
	c-7.7-0.7-7.8-1.1-9.7,6.2c-4.7,17.4-9.1,34.9-19.8,49.9c-0.2,0.3,0,1,0,1.6c2.2,0.7,5.3,0.8,6.2,2.3c3.3,5.1,6.5,2.7,9.7,0.4
	c10.9-7.8,23.6-9,36.6-11.1C464.7,503.1,464.7,485.1,464.7,466z"/>
<path d="M679,604.3c-8.6-2.2-17.4-4-25.9-6.7c-17.9-5.8-35.1-13.4-50.4-24.4c-16-11.5-31.3-24.2-46.8-36.3c-1.4-1.1-2.8-3-4.2-3
	c-2.7,0-5.7,0.7-8,2.1c-0.8,0.5,0,3.8,0.3,5.8c0.1,0.9,0.8,1.8,0.3,3.6c-1.6-1.5-3.6-2.8-4.8-4.6c-8-11.6-19.7-9.9-30.8-8.1
	c-11.4,1.9-18,9.9-19.3,21.1c-1.4,12.1-1.6,24.3-2.3,36.4c-0.1,2.3,0,4.7,0,7c-0.7,0-1.3,0-2,0c-2-63.6-3.9-127.2-5.9-190.7
	c0.7-0.1,1.5-0.2,2.2-0.3c0.4,2.2,1.1,4.4,1.3,6.6c0.6,8.6,0.9,17.3,1.6,25.9c0.7,8.6,4,15.7,10.6,21.8c2.8,2.6,3.3,7.8,4.1,12.1
	c-1.3-7.9-1.6-8.2-8.8-7.6c0.3,5.5,0.7,11.1,0.9,16.7c0.2,4.4,0.3,8.8,0.3,13.2c0.1,7.8-0.7,15.7,0.3,23.3c0.8,6.3,4.1,0.9,4.9,0.6
	c4,0.6,6.7,1,9.3,1.5c8.3,1.6,16.8,2.6,24.8,5.1c7.7,2.4,4.8,3.1,12-0.8c-5.6-12.9-11.7-25.7-16.7-38.8c-2.6-7-3.8-14.6-4.8-22.1
	c-0.6-4.5-1.3-7.1-6.5-5.4c-0.5,0.2-1.3-0.3-3.4-0.9c3.5-2.4,6.1-4,8.6-5.9c11.4-8.4,22.7-16.8,34-25.2c3.9-2.9,8.2-1.5,9.2,3.2
	c1.2,5.6,1.9,11.4,2.7,17.1c0.1,1-0.5,2.1-0.8,3.2c-0.5,0-1,0-1.4,0c-0.3-1.7-0.3-3.5-0.8-5.2c-1.5-4.3-3-8.6-4.8-12.7
	c-1.1-2.5-3.3-2.5-5.2-0.7c-5.9,5.3-12,10.4-17.4,16.2c-5.1,5.5-6.5,12.3-4.6,19.8c1,3.8,1.6,7.8,2.4,11.7c6.9-2.1,13.1-4,19.3-5.9
	c0.3,0.6,0.6,1.3,0.9,1.9c-0.9,0.8-1.7,1.7-2.7,2.3c-3.9,2.4-8,4.5-11.6,7.3c-1.3,1-2,4-1.5,5.7c3.3,12.2,10.2,22.6,18.1,32.1
	c19.7,23.8,43,43.7,69.6,59c13.6,7.8,29.1,12.1,43.7,18.1c3.4,1.4,6.5,3.1,9.8,4.7L679,604.3z"/>
<path d="M558.4,248.1c6.6,27.7,25.6,44.5,49,58.9c0.1-1,0.2-0.2,0-0.1c-6.8,2.4-6.7,8.2-5.9,13.5c1.6,10.6,3.8,21,5.8,31.6
	c0.2,1.3,0.3,2.7-0.3,4.3c-0.7-0.9-1.6-1.7-2-2.7c-3.6-9.7-10.8-14.9-20.5-17.3c-9.2-2.2-18.3-3.6-27.8-1.8
	c-3.2,0.6-4.8,1.7-4.5,5.1c0.4,4.9,0.5,9.9,1.1,14.8c0.2,1.7,1.4,3.9,2.8,4.8c15.7,9.8,24.1,24.5,27.7,42.1
	c3.8,18.5,14.1,32.8,27.5,45.5c3.4,3.2,6.4,6.7,9.6,10c-0.3,0.4-0.6,0.7-0.9,1.1c-3-2.3-6.3-4.3-9.1-6.9
	c-17.3-16.3-31.9-34.4-39.6-57.4c-4.4-13.2-12.7-23-25.4-29c-1.4-0.7-2.9-2.8-3.1-4.4c-0.5-6.5-0.8-13-0.7-19.6
	c0.2-15.2,5.3-28.9,12.8-42c7.8-13.7,9.2-28.3,2.8-43.3c-0.8-1.9-1-4.1-1.5-6.2C556.9,248.8,557.7,248.4,558.4,248.1z M552.2,329.5
	c0.5,0.4,1,0.8,1.5,1.2c13.9-3.5,27.7-3.2,41.8,1.3c0-7.7,0.3-14.6-0.2-21.4c-0.2-2.3-1.8-5-3.7-6.4c-7.6-5.7-15.4-11-23.3-16.4
	C563,301.5,557.6,315.5,552.2,329.5z"/>
<path d="M789.7,971.1c-0.3-1.3-0.9-2.7-0.9-4c0.3-16.1,0.8-32.1,0.9-48.2c0.1-9.9-0.4-19.8-0.5-29.6c-0.3-28.7-0.5-57.3-0.6-86
	c0-6.1,1.5-7,7-4.3c10.3,5,19.2,12,26.1,21.1c0.8,1.1,0.9,3.9,0.1,5c-10.5,14.7-17.9,30.9-22.4,48.2c-3.1,12.3-5.3,25-6.2,37.6
	c-1.2,18.1-0.8,36.4-1.1,54.6c0,1.9-0.5,3.8-0.8,5.7C790.8,971.1,790.2,971.1,789.7,971.1z M802.5,833.2c6.6-9.6,6.6-11.1,0-13.9
	C802.5,823.7,802.5,827.9,802.5,833.2z"/>
<path d="M513.6,715c0,12.6,0.5,23.5-0.1,34.3c-2,39.8,14.9,71.8,40.8,100.2c11.3,12.4,22.8,24.6,34.2,36.9c2.2,2.4,4.5,4.6,6.8,6.9
	c-0.4,0.5-0.7,0.9-1.1,1.4c-1.5-1-3.3-1.8-4.6-3.1c-9.8-10.5-19.4-21.1-29.2-31.5c-5-5.3-10.9-9.7-15.2-15.5
	c-12-16.4-23.4-33.2-35-49.8c-1.2-1.8-2.7-3.4-4.7-6c-10,17.5-16.5,35.8-28.2,50.9c-0.6-0.3-1.2-0.6-1.9-0.9c0.9-2,1.7-4,2.8-5.9
	c7.9-14.8,15.8-29.8,18.3-46.6c1.3-8.9,1.1-18,0.6-27c-0.6-10.7,1.9-20.3,6.7-29.6c1.9-3.6,3.5-7.4,5.5-10.9
	C510.1,717.8,511.5,717,513.6,715z"/>
<path d="M319.5,574.6c-4.3-3.6-4.2-18.6,0.2-28.9c4-9.3,9.7-17.4,19.2-21.9c9.1-4.2,18.6-5.3,29.8-1.5c-1.8-3.5-2.7-5.7-3.9-7.7
	c-10.3-16.9-20.6-33.8-30.9-50.7c-1-1.7-2.3-3.3-2.6-5.2c-0.3-1.4,0.6-3.1,1-4.7c1.2,0.5,2.7,0.8,3.4,1.7
	c8.3,10.3,17,20.4,24.6,31.2c9.1,12.8,17.3,26.3,26,39.4c2.3,3.5,2.7,6.3-0.9,9.1c-3.5,2.7-5.6,6-11.6,3c-15.6-7.6-34.8-8-46.2,7
	c-5.7,7.5-5.3,16.6-7.3,25.2C320.2,571.8,319.9,573,319.5,574.6z"/>
<path d="M281.9,494.7c2.1-2.1,4.1-4.5,6.4-6.4c22.2-17.8,39.7-39.7,55-63.5c1.4-2.2,2.1-4.9,3.1-7.3c1.1-2.6,2.6-2.6,4.4-0.8
	c2.8,2.8,3.9,6,1.1,9.4c-6.7,8.4-12.9,17.4-20.4,25c-14.8,14.9-30.4,29.1-45.6,43.5c-0.7,0.6-1.7,0.9-2.6,1.4
	C282.8,495.7,282.4,495.2,281.9,494.7z"/>
<path d="M310.9,144c4.2-5.9,2.7-13-3.7-19.5c-3.5-3.5-6.7-7.2-10.1-10.9c-0.6-0.6-0.8-1.5-1.4-2.5c7.2,3.2,19.1,16.5,20.3,23.3
	c0.5,3,0.1,6.4-0.8,9.3c-0.9,3.3-3.6,4.2-6.7,2.5c-1.8-1-3.5-2.2-6.5-2.7c0.7,2.9,0.6,6.3,2.3,8.5c5.8,7.7,12.3,14.9,18.5,22.3
	c0.8,0.9,2.2,1.5,2.6,2.5c0.4,0.9,0.2,2.6-0.4,3.3c-0.6,0.6-2.7,0.9-3.2,0.4c-9-9.1-19.7-16.9-23.5-30.1c-0.4-1.3-0.9-2.9-0.6-4.1
	c0.6-2.5,1.3-5.4,3-6.9c0.9-0.7,4.2,1.1,6.3,2.1C308.4,142,309.6,143.1,310.9,144z"/>
<path d="M590.5,503.4c19.9,23.9,34.2,50.9,44.5,80.3c-4.1,0.8-5.8-1.8-6.8-5.2c-5-16.7-12.7-32.2-21.1-47.3
	c-4.7-8.5-10.1-16.6-15.1-24.9C591.3,505.5,590.9,504.4,590.5,503.4z"/>
<path d="M406.9,439.3c-8.5-3.8-15.8-7-23.9-10.6c4.5-1,18.9,3.4,22.3,6.4C406,435.9,406.1,437.3,406.9,439.3z"/>
<path d="M314,437.8c-5.5-6.8-10.5-13-15.9-19.7C306.3,421.9,316.3,433.8,314,437.8z"/>
<path d="M678.9,604.4c4.6,0,9.3,0,13.9,0c0,0.7-0.1,1.4-0.1,2.1c-4.7,0.4-9.3,0.3-13.7-2.1C679,604.3,678.9,604.4,678.9,604.4z"/>
</svg>
