<?xml version="1.0" encoding="utf-8"?>
<!-- Generator: Adobe Illustrator 21.0.0, SVG Export Plug-In . SVG Version: 6.00 Build 0)  -->
<svg version="1.1" id="Layer_3" xmlns="http://www.w3.org/2000/svg" xmlns:xlink="http://www.w3.org/1999/xlink" x="0px" y="0px"
	 viewBox="0 0 1000 1000" style="enable-background:new 0 0 1000 1000;" xml:space="preserve">
<path d="M445.3,184.4c2.4,3.2,0.9,6.4-0.3,9.3c-1.8,4.6-4.5,8.8-6.3,13.4c-1.3,3.3-1.6,7-2.5,10.5c-0.3,1.2-0.9,2.2-1.4,3.4
	c-0.5-0.1-0.9-0.1-1.4-0.2c-0.2-1.5-0.9-3.1-0.5-4.4c1.7-5.2,3.6-10.3,5.6-15.3c1.5-4,3.1-7.9,4.7-11.9c-0.3-0.2-0.7-0.4-1-0.6
	c-1.1,1.5-2.5,2.9-3.3,4.6c-1.8,3.8-3.1,7.8-4.9,11.6c-2.3,5-5,9.8-7.3,14.8c-1.4,3-3.2,6.1-3.5,9.3c-0.6,6.1-0.2,12.4-0.4,18.6
	c0,1.4-0.6,3.4-1.6,3.9c-1.4,0.7-3.9,0.9-5,0.1c-3.1-2.3-6-4.9-8.4-7.9c-1.4-1.8-1.9-4.4-2.4-6.8c-0.4-1.6-0.1-3.4-0.1-5.5
	c0.5-0.1,1.6-0.2,2.6-0.4c0-3.7,0-7.1,0-10.6c-2.6,5.1-4.9,9.8-7.3,14.5c-1.4,2.8-0.4,9,1.5,11.7c3.4,5.1,8,8.6,13.1,11.8
	c4.9,3.1,7.6,7.8,9.7,13.2c2.2,5.6,5.3,10.9,8,16.3c2.7,5.6,5.4,11.3,8.1,16.9c0.7,1.6,1.3,3.2,2.2,4.7c2.3,3.9-0.5,6.3-2.6,8.9
	c-3.1,3.8-7.4,3.7-11.7,3.1c-3.1-0.5-3.7-3.2-1.3-6.1c5.1,5,9.8,4.2,12.7-2.5c0.7-1.5,0-4.1-0.9-5.8c-4.1-7.9-8.7-15.6-12.8-23.5
	c-1.9-3.5-3.3-7.3-4.6-11.1c-2.2-6.7-7.2-10.5-12.8-14.3c-6.8-4.7-13.3-10.2-12.6-19.8c0.1-1.6,1.1-3.2,1.8-4.7
	c2.3-4.9,4.7-9.8,7.1-14.6c0.5-1,1.8-2.5,2.2-2.3c1.2,0.6,3.1,1.6,3.1,2.6c0.2,3.8-0.2,7.6-0.5,11.5c-0.1,0.8-0.6,1.6-0.8,2.5
	c-1.1,6.1,1.5,11.7,7,14.8c1.5,0.8,2.7,0.6,2.8-1.5c0-3.4-0.1-6.8,0.1-10.2c0.3-3.5-1.1-7.1,1.8-10.5c1.7-2,1.5-5.6,2.7-8.1
	c2.7-5.6,5.8-11,8.6-16.5c1.7-3.3,2.8-6.8,4.5-10.1c1.2-2.3,2.9-4.3,4.3-6.5C442.8,184.4,444.1,184.4,445.3,184.4z"/>
<path d="M457.4,587.7c2.4,1.6,1.4,3-0.4,3.9c-1.9,1-2.1,1.9-1.3,3.9c3.8,9.4,3.8,18.5-2.5,27.2c-1.7,2.3-3,5.1-3.6,7.9
	c-0.4,1.9,0.5,4.2,1.2,6.2c0.2,0.7,1.7,0.9,2.6,1.4c0-1,0.1-2,0.1-2.9c0-0.5-0.3-0.9-0.8-1.9c5.1-0.4,10.3,0.9,14.4-3.8
	c-2.4-1.7-4.9-3.4-7.3-5.2c0.2-0.5,0.5-0.9,0.7-1.4c1.9,0.6,3.8,1.4,5.8,1.8c2.3,0.5,4.7,0.9,7,0.7c0.9-0.1,1.7-1.9,2.7-3
	c1.6,3.3,3.5,1,5-0.6c0.7-0.7,0.5-2.3,0.8-4.4c-2.2,1.5-3.3,2.2-4.9,3.3c0.8-4.3,4.5-7.1,8.3-6.6c0-1,0-2,0-3.6c3,2.2,5,1.4,7-1
	c0.9-1.1,2.8-1.7,4.4-2c10.8-1.8,19.5,2,26.4,10.4c1.5,1.8,1,3.1-1,4.2c-0.5,0.3-0.7,1.8-0.5,2.6c0.1,0.5,1.1,0.8,1.7,1.2
	c0.4-0.8,0.9-1.5,1.3-2.3c0.2-0.4,0.2-0.9,0.3-1.8c2,1.1,3.6,2.5,5.4,3c1.6,0.5,3.5,0.4,5.3,0.2c3.4-0.5,6.7-1.3,10.1-1.9
	c0.2,0.5,0.4,1.1,0.6,1.6c-1.1,0.7-2.2,1.3-3.2,2.1c-1.2,1.1-2.2,2.4-3.2,3.6c1.3,1,2.4,2.4,3.8,3c2.6,1,6.1,1.1,7-1.7
	c1-2.8,1.2-6.8-0.2-9.3c-4.2-7.9-6.1-15.7-1.9-24.1c0.6-1.2,0.9-2.7,1-4c0.2-2.8-2.7-4.7-5.1-3.4c-1.9,1-3.6,2.4-5.7,3.8
	c0.6-3.7,5.7-7.3,8.1-6.3c1.2,0.5,2.5,0.8,3.8,1.2c-0.3-1.2-0.5-2.4-0.8-3.6c5.4,0.2,8.2,5.5,5.3,10.5c-3.2,5.5-2.9,8.4,0.7,13.5
	c1.5,2.2,2.5,4.9,3.4,7.4c1.8,5.3,3.8,10.5,5,16c0.8,3.8,0.7,8,0.2,11.9c-0.4,3.2-2.3,6.2-2.8,9.4c-0.4,2.5,0.3,5.1,0.4,7.7
	c0,1.1-0.2,2.1-0.3,3.2c-1-0.3-2.2-0.3-3-0.9c-2.6-1.7-5.1-3.7-7.7-5.4c-0.7-0.5-1.8-0.5-2.7-0.8c-0.1,0.9-0.4,1.8-0.4,2.7
	c0,2.6,0.5,5.2,0.1,7.7c-0.9,5.7,1.2,7.7,6.7,5.8c2.4-0.8,4.7-1.8,6.9-3c3.2-1.8,5.7-4.1,6.1-8.1c0.1-0.9,0.6-1.8,0.9-2.8
	c4.5,2.7,5.2,9.6,1.9,12.9c-1.7,1.7-3.9,3.4-3.5,7.6c1.5-1.6,2.2-2.5,3-3.2c1.5-1.3,3-2.6,4.6-3.8c2.9-2.1,4.6-7.2,2.5-10.1
	c-4.1-5.5-3.5-11.7-3.3-17.8c0-2,0.2-4,0.4-6c0.5-0.1,0.9-0.1,1.4-0.2c0.5,1.2,1.1,2.3,1.6,3.5c1.2,2.4,3.1,2.8,4.5,0.5
	c1.4-2.3,2.4-5,3.3-7.6c3.4-10.4,10.7-17,20.2-21.7c3.2-1.6,6.6-3.4,8.9-6c5.7-6.6,5.7-14.8,0.9-22.2c-0.3-0.5-0.4-1.1-0.1-2.4
	c1,0.7,2.4,1.1,2.9,2c2.2,4.7,4.2,9.5,6.1,14.4c0.6,1.6,0.6,3.5,1,5.2c2.3,8.3-1.2,14.8-9.1,18.4c-3.9,1.8-7.8,4.2-10.8,7.2
	c-1.8,1.8-2.6,5.1-2.7,7.8c-0.2,3.1,2.4,4,5.2,2.6c1-0.5,2.9-0.5,3.7,0.2c3.3,2.9,6.4,3.4,9.7,0.4c2.7-2.4,5.1-5.3,6.8-8.5
	c0.7-1.3-0.6-3.8-1.4-5.7c-0.6-1.6-1.8-2.9-2.7-4.4c0.3-0.3,0.7-0.5,1-0.8c0.7,0.4,1.5,0.6,2,1.2c3.7,4.2,8.7,7.4,10.3,13.3
	c0.4,1.3,2.6,2.9,3.9,2.8c1.3,0,2.8-1.8,3.6-3.2c0.9-1.5,1.5-3.3,1.5-5c-0.1-7.1,5.2-9.8,10.1-12.9c3-1.9,6-3.7,8.8-5.8
	c2.2-1.6,3.4-8,2.4-10.8c-0.3-0.9-0.3-2.1-0.3-3.1c0-0.1,1.2-0.4,1.3-0.3c0.5,0.8,1,1.7,1.2,2.6c0.6,2.7,1.2,5.4,1.6,8.2
	c0.7,4.6-0.1,8.5-4.3,11.7c-4.8,3.6-8.9,7.9-10.5,13.9c-3.1,11.7-1.3,22.2,11.8,26.5c3,1,5.7,3.1,6.5,6.7c-0.4,0.2-0.7,0.5-0.9,0.4
	c-10.6-2.2-21.9,3.1-26.1,13.3c-1.4,3.4-0.3,8.1,0.4,12.1c0.7,3.8,1.2,10.4-0.2,13.5c-1.3-1.6-2.2-3.7-3.7-4.5
	c-4.6-2.6-9.4-4.8-14.2-6.9c-1-0.4-2.6,0.2-3.9,0.7c-2.4,0.9-3.9,0.9-4-2.3c0-1-0.8-2-1.3-3.1c-0.6,1-1.3,1.9-1.8,2.9
	c-1.4,3-2.4,6.2-4,9.2c-1.1,2.1-0.9,3.8,1.3,4c4,0.4,8.3,0.8,12.2-0.1c6.9-1.7,11.4-0.1,13.8,6.4c1.2,3.3,3.5,5,6.9,4.8
	c3-0.1,6-0.7,8.9-1.1c0-0.5,0-1.1,0-1.6c-0.9-0.1-1.8-0.2-2.7-0.4c-0.8-0.2-1.9-0.3-2.2-0.8c-0.3-0.6,0.1-1.7,0.5-2.3
	c3.6-5.1,2.2-10.5,0.8-15.8c-0.6-2.1-2.1-4-2.9-6c-0.3-0.7,0.1-2.1,0.7-2.6c5.8-5.8,12.3-10.8,20.2-13.5c2.3-0.8,4-0.6,5.6,1.5
	c2.5,3,5.7,4.9,10,4c2.5-0.5,3.4-1.8,3-4.3c-0.8-4.1-3.1-6.9-6.9-8.4c-2.6-1.1-4.5-2.2-3.4-5.5c0.2-0.7-0.2-1.9-0.8-2.4
	c-3.6-3-7-6.6-12.1-7.1c-2-0.2-4-0.7-5.8-1.4c-0.9-0.4-1.6-1.4-2.3-2.2c0.9-0.8,1.7-1.6,2.7-2.3c3-2,6.4-3.6,9.1-5.9
	c4-3.5,4-6.9,2.4-12c-0.8-2.3-0.5-6,0.9-7.7c4.5-5.1,5.7-10.9,6-17.4c0.2-4.9,1.4-9.7,2.1-14.5c0.2-1.4,0.5-3,0.2-4.4
	c-0.2-1.2-1.1-2.2-1.9-3.5c-1.9,0.8-3.9,1.1-4.7-1.9c-0.1-0.5-1.3-0.9-1.9-0.9c-5.1,0.1-10.1,0.2-15.2,0.7c-1.8,0.2-3.4,1.3-5.1,1.9
	c-1.6-1.2-3.9-2.8-5.9-4.5c-0.7-0.6-1.6-2.2-1.3-2.7c0.5-0.9,1.8-1.9,2.8-1.9c3.5,0.1,7.1,0.2,10.4,1c6.2,1.5,11.6-1.2,17.2-2.8
	c1.2-0.4,2.2-3.9,2.1-5.8c-0.1-1.1-2.8-2-4.2-3c-2.8,4.3-3.1,4.4-5.1,1.8c1.4-2.3,2.7-4.5,4.1-6.7c-0.6-0.4-1.2-0.8-1.9-1.3
	c-0.9,1.2-1.8,2.4-3,4c-1.1-1.2-2.5-2.9-4.5-5.2c-1.8,0.4-5.6,3.6-7.6-1.8c3.1-5.6,3.1-5.6,0.5-7.3c-0.8,4.8-2.2,5.8-7.5,5.2
	c-1.2-0.1-2.6-0.3-3.7-0.8c-6-2.9-12.2-0.2-18.3-0.6c-0.5,0-1,0.1-1.5,0.3c-4.9,1.9-4.9,1.9-8.7-0.2c-0.2,0.2-0.4,0.3-0.6,0.5
	c-1.1,1.5-2.1,3.1-3.2,4.6c-1.4-2.2-5-2.9-4.3-6.6c0.1-0.6-1.3-2.1-1.5-2c-1.1,0.5-2.2,1.3-3.1,2.2c-0.9,0.8-1.6,1.9-2.4,2.9
	c-0.3-0.1-0.7-0.3-1-0.4c0.4,1.1,0.8,2.3,1.2,3.4l0.1-0.1c-2.9-0.5-4.3-2-4.5-5.1c-0.2-2.3-1.6-4.4-1.9-6.7
	c-0.2-1.8,0.4-3.7,0.6-5.5c0.1-0.8,0.1-1.7-0.2-2.5c-1.4-3.1-0.7-5.6,0.5-8.8c3.7-9.2,11.6-14.1,18.5-20.1c0.7-0.6,1.2-1.4,2-1.7
	c1.2-0.6,2.6-0.9,4-1.3c-0.5,1.1-1.1,2.3-1.7,3.8c2.7-0.9,5.4-1.9,8.5-2.9c-0.6-0.7-1.3-1.4-2.7-3c9.8,0,18.7,0,28.2,0
	c-0.9,1.4-1.5,2.2-2.6,3.7c1.8-0.1,3.4,0.2,4.2-0.4c3.7-2.7,7-2.2,10,0.9c3.6,3.7,7.7,7,10.4,11.2c2.2,3.4,4.4,7.4,3.7,11.9
	c-0.2,1.1-1.1,2.1-1.7,3c3.3,3.9,6.7,7.7,9.8,11.8c0.6,0.8,0.6,2.9,0,3.7c-1.4,2-3.4,3.5-5,5.3c-1.4,1.6-2.4,3.1-0.3,5.2
	c0.9,0.9,1.6,3,1.2,4.2c-1.9,5.1-4.1,10.1-6.4,15.4c2.9-0.2,6.4,0.1,9.4-0.9c1.6-0.5,2.5-3.2,3.8-4.9c4.6-6.1,9.2-12.3,13.8-18.4
	c0.3-0.4,1-0.5,2.5-1.1c-0.7,1.7-0.9,2.6-1.5,3.2c-5.5,6.4-9.5,13.5-12.9,21.2c-1.4,3.2-0.8,5.5,0.9,7.9c2.6,3.6,5.2,7.1,8,11
	c0.5-0.3,1.3-0.7,2.7-1.6c-0.5,1.6-0.8,2.5-1.1,3.6c0.4,0,0.8,0.1,1.1,0c6.4-3.1,7-9.7,9.4-15.3c0.9-2.2,1.3-4.7,2.3-6.8
	c0.6-1.3,2-2.2,3.4-3.7c-0.3,4.1-0.7,7.4-0.6,10.7c0,1.1,1.3,2.2,2,3.4c0.8-0.9,1.9-1.6,2.3-2.6c1.7-4.3,3.1-8.7,4.8-13
	c0.7-1.7,1.5-3.5,2.5-5c4.8-7.7,6.6-16.1,5.2-25c-0.8-4.9-2.3-9.8-3.4-14.7c-1.2-5.4-0.2-10.6,1.7-15.6c2.8-7.5,5.6-15.1,5.7-23.3
	c0-0.8,0.9-1.7,1.4-2.4c0.1-0.1,1.2,0.2,1.2,0.4c0.2,0.9,0.3,1.9,0.2,2.9c-0.3,2.5-0.7,5-1.2,7.5c-0.8,3.9-1.5,7.9-2.7,11.6
	c-2.3,7.5-0.9,14.8,0.9,22c1.1,4.5,3.4,8.7,5.2,13c0.5,1.3,1,2.6,1.2,4c1,10.3,0,20.4-3.4,30.3c-0.3,0.9-0.8,2-1.5,2.6
	c-8.5,7-9.5,17.1-10.6,27c-0.2,1.7,1.7,4.3,3.4,5.3c5.3,3,11.1,5.3,16.5,8.2c2.1,1.2,4,3.1,5.5,5c4.8,6.1,11.1,9.7,18.4,12.1
	c4.5,1.4,12.8-2.4,13.5-7.5c-1.5,0.6-2.9,0.7-3.8,1.5c-4.3,3.6-7.7,3-11.3-1.1c-4.6-5.3-9.7-10.1-16.7-12.2c-2.5-0.7-4.2-2.4-3.5-5
	c2.4-9.1,0.6-18-0.1-27c-0.6-7.5,1.3-14.6,4.4-21.3c0.4,0,0.8-0.1,1.2-0.1c0.4,1.3,1.1,2.6,1.1,3.8c-0.1,2.9-0.6,5.8-1.1,8.6
	c-1.1,6.4,3.2,12.7,9.3,14.2c7.8,2,15.6,4.1,23.1,6.7c4.7,1.7,8,5.5,10.3,10.4c-3.1-0.9-5.8-2.3-8.4-2.2c-2,0.1-4.2,2-5.5,3.6
	c-0.6,0.7,0.4,3.4,1.4,4.4c3.7,3.9,8.2,7.1,11.6,11.2c4.6,5.4,7.1,11.8,5.3,19.2c-1.2,5-1,10,0.8,14.8c0.3,0.7,1,1.3,2.4,2.9
	c0.5-2.4,1-3.8,1.1-5.3c0.2-8.4,4.1-14.3,11.6-17.8c5-2.3,8-7.4,5.4-10.8c-2.3-3.1-5.9-5.3-9.3-7.4c-1.8-1.1-4.9-0.3-6.4-1.5
	c-0.9-0.7,0.4-3.8,0.4-5.9c-0.1-9.8-8-19.9-16.8-24.4c-7-3.5-13.1-8.7-19.6-13.2c-1.3-0.9-2.6-1.9-3.9-2.9c-1.8-1.4-3.6-2.8-5.4-4.3
	c0.2-0.4,0.4-0.9,0.5-1.3c1.2,0.1,2.4,0,3.5,0.4c2.1,0.8,4.4,1.5,6.1,2.9c3.3,2.6,6.5,3.4,10.6,2.2c1.1-0.3,2.6,0.6,3.8,1.2
	c6.2,3.6,16.1,1,19.4-5.4c1.9-3.6,3-7.7,4.3-11.6c0.2-0.5-0.4-1.3-0.9-2.8c-1.5,2.2-2.4,3.9-3.6,5.3c-0.7,0.8-2.1,1.7-3,1.5
	c-7-1.6-13.4,0.7-19.9,3c-0.4,0.1-0.7,0.3-1.1,0.4c-0.2,0-0.5-0.1-1.4-0.3c0.7-4.5,1.5-9,1.9-13.6c0.2-2.2-0.3-4.6-0.5-6.8
	c-0.1-1.7-0.5-3.5,0.1-4.9c4.3-9.9,2.5-19.1-4.8-27.5c-6.4-7.4-13.2-14.8-18-23.2c-3.5-6-9.5-6.9-14-10.5c-0.2-0.2-0.5-0.2-0.7-0.3
	c-6-7.1-14.8-8.5-22.9-11.4c-0.4-0.1-0.7-0.6-1.1-0.9c0-0.4,0-0.8,0.1-1.3c1.9,0,3.9-0.3,5.8,0.1c4.9,1.1,9.7,2.5,14.5,3.8
	c1.3,0.4,2.6,1,3.8,1.6c3.4,1.7,6.8,3.6,10.3,5.1c2.9,1.3,4.2,0.2,4.5-2.8c0.7-5.5-2-9.8-5-13.9c-3.2-4.3-5.2-8.9-5.2-14.3
	c0.1-11.6-3.2-22.3-7.8-32.8c-0.6-1.4-2-2.5-3.1-3.7c-3.1-3.3-3-5.4,0.5-8.1c0.9-0.7,2.2-1,2.8-1.8c1.1-1.4,2.1-3,2.7-4.7
	c0.8-2.6,0.5-5.6,1.7-7.9c3.8-7.4,4.8-15.6,6.6-23.5c1.1-4.5,3.1-8.7,4.6-13c2.1-6.1,5.1-12,5.8-18.3c0.9-8.1,5-14.7,7.7-21.9
	c2.1-5.7,3.4-11.8,4.7-17.7c0.7-3.1,0.6-6.5,1.2-9.6c0.2-1.1,1.5-2,2.3-3c0.7,1,1.7,1.9,2.1,3c0.3,0.9,0.1,2-0.1,3
	c-2.2,10.9-4.3,21.9-6.7,32.8c-2,9.3-3.9,18.6-6.7,27.7c-3,9.6-3.5,19.3-4.1,29.1c-0.1,1-0.3,2-0.5,3c-1.1,6.3-2.5,12.6-3.4,18.9
	c-0.8,5.3,0.4,10.2,2.9,15c1.4,2.6,2.4,5.7,2.6,8.6c0.5,7.5,3.5,13.9,7.6,19.9c2.4,3.5,4.2,7.2,3.7,11.6c-0.6,5.3,1.2,9.6,4.9,13.3
	c5.3,5.4,10.5,10.8,15.8,16.2c1.1,1.2,2.3,2.6,3.8,3.1c4.2,1.5,4.6,4.7,4.7,8.4c0.1,8.1,4.1,14.7,8.6,21c3.3,4.6,7,9,12.6,11.1
	c1.7,0.7,3.4,1.2,5.2,1.6c7.9,1.7,14.2-2.3,20.7-5.8c0.8-0.4,1.6-1,2.4-1.1c1.1,0,2.3,0.4,3.5,0.6c-0.7,0.8-1.2,1.8-2,2.5
	c-4.2,4-8.5,7.8-12.6,11.9c-0.4,0.4,0,2.6,0.6,2.9c2.5,1.2,5.1,2.5,7.8,2.7c4.7,0.4,9.5-0.2,14.3,0c2.4,0.1,4.8,1,7.1,1.5
	c1,0.2,1.9,0.6,2.9,0.6c1.9,0.1,3.8-0.1,5.7,0c7.4,0.4,14.2-0.2,20.7-4.8c7.4-5.3,15.9-9.1,23.7-14c3-1.9,5.4-4.8,8.2-7.1
	c5.2-4.2,10.9-7.8,15.5-12.6c8.2-8.6,15.7-18,23.6-26.9c1.6-1.8,3.6-3.5,5.5-4.9c0.6-0.4,1.8,0,2.7,0.1c-0.2,0.9,0,2.2-0.6,2.6
	c-10.7,9.3-16.8,21.7-23.2,34c-0.9,1.7-1.4,3.5-2,5.3c-1.5,5-5.1,7.6-9.4,10.4c-7.3,4.7-12.5,12-16.8,19.7c-2.7,5-3.1,4.8-8.5,3.7
	c-1.5-0.3-3.5,0.4-4.8,1.3c-9.5,6.6-16.8,15.1-21.7,25.6c-2,4.2-4.2,8.3-6.5,12.3c-0.7,1.3-2.1,2.2-3.2,3.2
	c-0.4-0.2-0.7-0.4-1.1-0.6c1.7-7.9,3.3-15.8,5-23.6c0.9-4.5,0.4-5-4-3.8c-4.7,1.3-9.2,1.2-13.6-1c-1.6-0.8-3.6-1-5.5-1.2
	c-6.5-0.5-13-0.7-19.5-1.2c-1.4-0.1-2.8-0.9-5.2-1.8c-0.8,3.6-2,7.2-2,10.7c0,1.5,2.3,4.1,3.9,4.4c8.1,1.4,10.9,7.8,14.4,13.8
	c3.1,5.4,6.1,10.7,9.6,15.8c2.2,3.2,5.5,4.7,9.8,4.7c4.5,0,8.9,1.4,13.4,1.8c4,0.4,8.1,0.3,12.1,0.5c7.7,0.2,13.3-4.4,18.6-9
	c4.6-4,8.3-9,12.4-13.5c0.7-0.8,1.4-1.5,2.6-1.9c0.6,10.4-7.1,17.6-10.7,27.1c2.6-0.5,4.4-0.8,6.2-1.1c6.5-1.3,13-3,19.6-3.7
	c5.6-0.7,10.9-1.9,15.3-5.6c5.7-4.9,11.9-9.4,16.8-15.1c4.8-5.6,7.9-12.6,8.8-20.2c0.1-1.1,1.4-2,2.2-3c0.6,1.1,1.6,2.2,1.6,3.3
	c0.5,8.3-2.5,15.9-5.7,23.3c-3.7,8.7-8.3,17-12,25.6c-1.6,3.9-1.7,8.4-3.2,12.3c-1.4,3.8-3.3,7.5-5.6,10.9
	c-4.3,6.5-8.9,12.8-13.5,19c-1,1.4-2.5,2.4-3.8,3.6c-0.1-1.7-0.5-3.5-0.1-5.2c1.2-5.2,2.6-10.3,4.1-15.3c0.6-2.2,1.7-4.2,2.5-6.3
	c0.4-1.1,1-2.1,1.4-3.1c-0.2-0.3-0.5-0.5-0.7-0.8c-1.6,0.7-3.2,1.5-4.9,2.1c-6.1,2-12.3,3.6-18.2,6.1c-3.6,1.5-6.8,4.1-9.7,6.8
	c-2.7,2.5-4.8,3.8-8.9,2.9c-3-0.6-7.2,0.6-9.8,2.5c-5.1,3.7-9.4,8.6-14.3,12.8c-2.6,2.2-5.5,4-8.3,5.9c-6,4.2-9.7,9.8-10.5,17.1
	c-0.2,1.9-0.9,2.8-3,2.1c-0.8-0.2-1.8-0.2-2.6,0.1c-7.7,3.4-14.7,7.6-19.2,15.1c-2.2,3.7-5.1,6.9-7.7,10.3c-2.2,3-4.3,6.1-6.5,9.2
	c-6.7,9.6-13.5,19.1-20.2,28.8c-9.2,13.2-16.2,27.5-19.6,43.4c-1.4,6.6-3,13.2-4.5,19.8c-0.2,0.7-0.8,1.4-1.3,2c-0.4,0-0.8,0-1.2,0
	c-0.2-1.8-0.8-3.7-0.6-5.4c1.2-7.5,2.6-14.9,4.1-22.3c2.1-10.8,3.4-22,9.2-31.7c0.4-0.6,0.4-1.6,0.9-2.1
	c8.2-8.6,11.6-19.9,17.5-29.8c6.1-10.3,12.2-20.6,17.3-31.4c3.1-6.6,6.3-12.7,11.5-17.9c5.1-5,5.2-10.6,0.6-16.7
	c-2.3-3.1-1.7-4.8,1.2-6.7c5.3-3.4,10.3-7.3,15.8-10.2c4.2-2.2,9-3.2,13.5-4.8c2.9-1,5.9-2,8.7-3.3c2-0.9,1.7-2.3-0.1-3.3
	c-0.6-0.4-1.4-0.4-2.2-0.5c-7.6-1.5-15.2-3-22.9-4.3c-2.6-0.4-5.3,0.1-7.9,0.1c-7.5-0.1-7.6-0.6-9.8-7.5c-1.5-4.8-3.9-9.5-6.6-13.8
	c-2.7-4.4-6-8.4-9.4-12.3c-1.7-1.9-4.1-3.3-6.5-4.4c-3.1-1.5-5-3.6-5.4-7.1c-0.2-1.6-0.8-3.2-1.5-4.7c-0.3-0.6-1.2-1-1.9-1.5
	c-0.4,0.7-1,1.5-1,2.2c0.1,5.2,1.3,10.1,4.8,14c2.5,2.8,5.3,5.5,8.1,8c6.6,6,9.8,13.8,12.1,22.1c0.6,2.1,1.7,4.4,3.3,5.7
	c3.8,2.9,7.9,5.6,12.2,7.7c2.1,1.1,2.6,1.7,1.1,3.4c-3,3.4-5.9,6.9-9.1,10c-3.2,3.2-3.5,7.1-3.1,11.2c0.4,4.4-1.3,6-5.6,5.3
	c-0.6-0.1-1.3-0.2-1.8-0.5c-3.4-2.2-6.5-1.8-9.7,0.6c-3.4,2.6-4.3,6.3-4.2,10.1c0.2,5.4,0.8,10.8,1.8,16.1
	c1.6,8.3,0.2,11.2-6.7,16.2c-5,3.7-9.5,8.2-13.8,12.7c-8.5,8.9-16.7,18.1-25,27.2c-2.1,2.3-4.1,4.8-6.3,7c-1.1,1.1-2.8,1.7-4.2,2.5
	c-0.3-0.3-0.6-0.6-1-0.9c0.6-1.2,1.1-2.5,1.9-3.6c3.8-6.2,7.7-12.4,11.5-18.6c2.8-4.6,6.1-9,8.2-13.9c3.3-7.8,6.7-15.8,4.7-24.5
	c-1.4-6.1-3.5-12.1-6.1-17.8c-2.3-5.2-5.9-9.9-8.2-15.1c-1.4-3-1.3-6.6-2.1-9.9c-0.3-1.1-1.1-2.1-1.7-3.2c-0.9,0.8-2.1,1.4-2.5,2.4
	c-4.2,8.3-11.8,13.2-18.5,19.1c-5.3,4.6-7,11.1-9.7,17.2c-0.2,0.5-0.1,1.7,0.3,2c0.5,0.3,1.5,0.3,2.1,0c2-1.1,3.8-2.5,5.7-3.7
	c3.7-2.4,7.6-3.4,11.8-1.4c2.4,1.1,4,0.4,4.7-1.9c1.2-4.2,2.2-8.4,3.4-13.1c0.6,0.6,1.6,1.2,2,2c1.9,4.2,4,8.5,5.3,12.9
	c0.7,2.3,0.6,5.5-0.4,7.6c-4.7,9.9-4.9,19.9-2.1,30.2c0.3,1,0.3,2.2,0.5,3.2c-0.3,0.2-0.7,0.3-1,0.5c-1.2-1.3-2.7-2.5-3.6-4
	c-2.6-4.2-5.1-8.4-7.3-12.8c-1.7-3.4-3.9-4.7-7.6-3.6c-1,0.3-2.1,0.7-2.9,0.5c-6.7-2.3-11.6,1.7-16.8,4.8c-1,0.6-3.7,0.6-4-0.1
	c-3.8-6.5-11.3-7.8-16.7-11.9c-1.9-1.5-3.9-2.9-5.6-4.2c2.7-2.9,5.3-5,7.2-7.6c3.5-4.9,2.3-10.7,2.4-16.2c0-2.5-0.4-5-0.8-7.4
	c-1-5.5-5.5-7.4-9.8-9.5c-4.5-2.2-4-2.6-2-7c1.5-3.3,2.6-7.8,1.5-11c-1.4-4.1-6.3-4.2-10.5-4.1c-7.4,0.2-11.6,5.6-16.5,9.7
	c-0.3,0.3-0.1,1.1-0.2,1.7c0.7,0,1.5,0.3,2,0c4.8-2.7,4.7-2.7,6.8,2.2c3.8,9,9.2,16.8,18,21.7c1.7,1,3.6,1.6,6.2,2.7
	c-1.2,1.9-2.1,4.2-3.7,5.7c-4.5,4.3-6.4,12.9-4,18.5c0.8,1.9,1.2,4.1,1.4,6.2c0.5,6.7,3.7,11.4,10.3,13.1c5.3,1.4,10.8,2,16.2,3.1
	c0.8,0.1,1.4,0.6,2.2,1c-0.5,0.6-0.9,1.6-1.5,1.8c-4.6,1.2-9.2,2.7-13.9,3.1c-5.2,0.4-10.1,1.4-14.1,4.7c-6.3,5.2-7.6,17.7-3.1,25.3
	c2.1,3.5,4.2,7.1,6.1,10.8c0.4,0.7-0.2,1.9-0.4,2.9c-0.7-0.5-1.5-1-2.1-1.6c-2.3-2.3-4.3-5.2-7-7c-5.6-3.8-9.8-8.1-10.1-15.3
	c-0.2-4.9-3-7.3-7.9-7.8c-3.5-0.4-6.9-1.7-10.4-1.9c-2-0.1-4.7,0.4-6.1,1.7c-8.3,8-13,17.3-13,29.4c0,8.6-1.6,17.6-8.6,24.2
	c-0.9,0.8-2.3,1.1-3.4,1.7c0.2-1.2,0.2-2.5,0.5-3.7c2.5-8.7,5.4-17.5,1-26.3c-2-4.1-5.2-7.7-8.1-11.3c-1.9-2.5-2.6-4.8-0.7-7.6
	c0.8-1.2,1.2-2.8,1.8-4.2c1.3-2.8,0.5-4.6-2.5-5.4c-4-1.1-7.9-3-11.9-3.1c-3.3-0.1-7,1.3-9.8,3.1c-4.8,3-5.3,8.4-5.5,13.6
	c0,1.4-0.1,2.8-0.2,4.2c-0.5,0.1-0.9,0.2-1.4,0.3c-1-2.5-2.3-4.9-2.9-7.5c-1.4-5.4-4.4-9.1-9.1-12.3c-3.9-2.7-8.3-5.6-9.1-11.4
	c-0.3-1.9-3.2-3.4-4.7-4.9c0-2.3,0-4.6,0-7.2c0.6,0,1.4-0.1,2,0.2c7.2,2.7,12.6-0.7,11.8-8.2c-0.8-7.8,1.9-14.3,5.1-20.8
	c2.8-5.8,1.9-11.2-1.4-16.5c-0.3-0.5-0.5-1.1-1.2-2.7c3.3,0.5,5.8,0.8,8.6,1.2c0.4-2.6-1.5-3.6-3.6-4c-3.7-0.6-7.3-0.8-10.1,2.6
	c-3,3.7-2.9,7.6-1.2,11.7c0.3,0.8,0.9,1.5,1.3,2.3c3,4.9,3.2,9.3-0.8,14.1c-2.3,2.8-4.8,6.4-2.8,10.7c0.2,0.5-0.4,1.3-0.6,1.9
	c-0.7-0.2-1.7-0.3-1.9-0.8c-1.1-2.1-2.4-4.2-2.7-6.4c-0.9-5-3.1-8.1-7.3-9c-3.5-0.7-5.1,0.8-3.9,4c1.1,2.9,2.5,5.9,4.7,8
	c2.4,2.3,2.2,3.6-0.2,5.3c-0.6,0.4-1.1,1.1-1.7,1.5c-2.9,2.1-3.4,4.5-0.7,7.8c-1.5-0.1-2.4-0.2-3.3-0.3c-0.2,0.3-0.3,0.5-0.5,0.8
	c2.2,1.8,4.3,3.5,6.5,5.3c-0.2,0.5-0.3,1.1-0.5,1.6c-2.6,0.2-5.2,0.4-8.7,0.6c1.6,1.2,2.5,1.8,3.4,2.4c-0.1,0.3,0,0.7-0.2,1
	c-1.7,2.6-3.4,5.2-5,7.9c-0.3,0.4-0.3,1.4,0,1.7c3.3,4.1,1.1,7.6-1.6,10.4c-7,7.1-9.2,15.6-7.2,24.9c1,4.5,3.6,8.7,5.4,13.1
	c1.7,4.2,3.3,8.5,4.9,12.8c0.3,0.8-0.1,1.8-1.1,3c-1.1-2.2-2.4-4.4-3.2-6.7c-3.8-10.1-9.1-19.2-16.7-27c-2.2-2.2-2.4-4.5-0.4-7.4
	c5.2-7.5,5.7-15.5,1.1-23.6c-1.9-3.3-3.9-6.6-6-10.3c2-0.2,3.6-0.1,5.1-0.5c2.6-0.6,4.5-1.7,4.4-5.1c-0.1-1.9,1.5-3.9,2.5-6.2
	c-3.7-1.7-7.7-3.5-12.1-5.5c1.5-1.6,2.9-3.3,6.1-2.3c1,0.3,2.3-0.2,3.4-0.6c1.9-0.7,3.7-1.5,5.6-2.3c0.9-0.4,2.4-0.9,2.6-1.7
	c0.3-1.1-0.1-2.6-0.8-3.5c-0.5-0.6-2-0.5-3-0.4c-2.7,0.2-5.4,0.2-7.9,0.8c-1.5,0.4-3.7,1.8-3.8,2.8c-0.3,3.8-3.3,4.6-6.1,6.1
	c0.4,1.1,0.7,2.1,1.1,3.2c-1.9-0.4-4.8-0.2-5.4-1.3c-1.7-3.5,3.4-1.1,3.6-4.1c-1-0.2-2.5-1.1-3.1-0.7c-3,1.9-5-0.1-7.2-1.4
	c-1.7-1-2.6-1.1-3.9,0.9c-1.1,1.8-3.3,2.8-5.9,4.9c1,0.5,2.1,1,3.2,1.4c-0.1,0.3-0.3,0.5-0.4,0.8c-1.2,0.1-2.4,0.4-3.6,0.1
	c-0.9-0.2-2-0.9-2.2-1.7c-0.2-0.7,0.3-2,0.9-2.5c1.7-1.5,3.7-2.6,5.4-4c1.2-1,1.9-2.7,3.1-3.7c1.1-0.9,2.6-1.3,4-2
	c-1.3-4.8-4.3-6.7-8.4-5.1c-0.7,0.3-1.5,0.7-1.7,1.3c-1.3,3.9-5,4.2-8,5.4c-1.9,0.8-3.8,1.5-6.1,2.5c1,0.7,2.3,1.3,3.1,2.3
	c0.6,0.8,0.7,2,0.6,3.3c-2.7-1.7-5-3.9-5.3,1.3c0,0.6-1.6,1-2.4,1.5l0.1,0.1c-2.1-3.2-2.9-7.3-7.6-8.5c-1.9-0.5-3.1-3.4-4.9-4.8
	c-2.1-1.7-4.4-3.2-6.8-4.3c-0.8-0.4-2.2,0.7-3.7,1.3c0,0-0.3-0.9-0.8-1c-1.1-0.3-2.3-0.1-3.4-0.1c0.4,1,0.6,2.4,1.4,2.9
	c2,1.3,3.2,2.6,2,5.4c-1.3-1.1-2.4-1.9-3.5-2.8c2.2,5.7-5.5,4.7-5.4,8.6c-3.3-1.5-6.5-2.8-9.6-4.4c-3.2-1.7-5.8-4-3.7-8.7
	c-1,0.3-1.6,0.3-1.9,0.6c-3.1,3.1-6.7,2.9-10.4,1.5c-2.5-1-4.8-1.2-5.9,1.9c-0.9,2.7,0.7,4.8,3.9,5.8c1.3,0.4,3.1,0.7,3.7,1.6
	c2.1,3.3,3.6,1.4,5.2-0.3c3.2-3.4,7.1-3.2,9.9,0.4c0.2,0.3,0.3,1.3,0.2,1.3c-0.8,0.3-1.6,0.6-2.4,0.5c-1.2-0.1-4.8,0.6-5.8,1.3
	c-1.1,0.7-2.3,1.3-3.5,2c0.1,0.4,0.1,0.8,0.2,1.2c3.7,0,7.4-0.1,11,0.1c0.9,0.1,1.7,1.4,2.5,2.2c-6.4,0-12.8,0-19.3,0
	c0,0.5-0.1,1-0.1,1.5c1.7,0.4,3.5,0.9,4.7,1.2c-0.7,1.7-1.3,3.2-1.9,4.7c1.9-0.3,3.9-0.5,5.8-0.8c0.2,0,0.4-0.3,0.6-0.5
	c2.5-1.8,4.3-5.1,8.3-3.9c0.3,0.1,1.1-1.5,1.7-2.4c4-0.8,4-0.8-0.4-6.1c4.4-1.4,5.6,3.4,8.6,4c3.5-3.3,6.8-2.3,8.6,2.5
	c0.6,1.5,1.8,2.9,2.9,4.1c0.8,0.9,2.8,6.2,3,7.5c0.2,1.3,0.9,2.5,1.4,3.8c0.8,2,1.7,3.9,2.6,5.9c-0.4,0.3-0.8,0.5-1.1,0.8
	c-0.9-0.8-1.8-1.6-2.6-2.5c-2.4-2.5-4.5-5.3-7.2-7.3c-3-2.2-8-0.9-10.1,2.1c-1.3,1.8-0.4,2.7,1.4,3.3c0.7,0.2,1.3,0.9,2,1.3
	c-0.5,0.6-1,1.4-1.6,1.9c-0.6,0.5-1.2,1-1.9,1.1c-6.6,1.8-7.1,6.7-6.9,12.4c0.3,8.3,2.4,15.8,8.3,22c0.8,0.8,0.9,2.1,1.4,3.2
	c-0.4,0.3-0.8,0.6-1.2,1c-2.3-2.5-5.1-4.8-6.9-7.6c-4.1-6.2-7.8-12.6-7-20.6c0.2-2.3-1.6-4.7-3-6.9c-2.2,6.5-4.1,12.8-0.1,19
	c1.3,2,1,3.5,0.1,5.6c-2.6,5.7-4.7,11.6-7.4,17.2c-2.1,4.3-5.2,8-7.5,12.2c-1.6,2.9-2.4,6.2-3.7,9.2c-0.4,0.9-1.2,1.6-1.9,2.4
	c-0.4-1.1-1.4-2.3-1.1-3.2c1.1-3.7,2.4-7.3,3.9-10.8c2.9-6.8,6.1-13.5,9.1-20.2c0.2-0.3,0.2-0.7,0.3-1.1c1.6-9.2-4.3-20-12.7-23.5
	c-0.8-0.4-1.7-1.3-2-2.2c-0.5-1.6,0.1-3.7-0.7-4.9c-3.6-5,2.1-10.2-0.9-15.3c-1.9,0.6-3.3,1.8-2.4,4.2c0.8,2.1,0.8,3-1.2,4.9
	c-2.2,2.1-2.7,5.9-4,9c0.3,0.2,0.5,0.4,0.8,0.5c1.4-1.5,2.7-2.9,4.8-5.1c0.9,1.1,1.9,2.2,2.5,2.8c-2.1,1.2-3.6,2-5,3
	c-3,2.1-6,4.3-9.1,6.5c-2.8-1.6-3.8-3.9-2.4-6.8c0.7,0.8,1.3,1.6,1.9,2.4c4.1-2.6-3.2-5.5,0.4-8.2c0.6,0.6,1.1,1.3,2,2.2
	c1.6-2.9,3.7-5.6,4.7-8.7c1.1-3.1,1.2-6.6,1.8-10.1c1.1,0,2.2,0,3,0c2.1-9.7-3.9-15.7-9.7-22.4c1-0.5,2.1-1.1,3.3-1.5
	c2-0.8,4-1.3,5.9-2.3c4.7-2.5,4.6-2.6,2.2-7.4c-1.5-3-3.3-5.1-7.5-4.9c0.8,1.7,1.4,2.8,2.2,4.5c-5.6-0.2-7.2,3.6-8.8,7.7
	c-0.8,2.1-2.8,3.8-4.2,5.6c-0.3-0.2-0.6-0.4-0.9-0.6c0-0.6-0.1-1.3,0.1-1.8c1.6-4,0.5-7.5-1.7-11.1c-1.8-2.9-2.8-6.4-4.3-9.5
	c-0.3-0.6-1.3-1.3-1.9-1.2c-3.1,0.5-4.7,4.2-2.6,6.4c5.2,5.5,4.4,11.9,3.2,18.4c-0.2,1.1-0.2,2.5,0.3,3.5c1.3,2.9,2.9,5.7,4.4,8.5
	c1,1.8,6.4,2,9.1,0.4c1.7-1.1,3.4-2,5.7-3.4c-0.6,5.7-3.9,8.7-7.5,11.1c-4.6,3.1-5,3.5-2.6,8.6c0.7,1.5,1.6,2.9,2.2,4.9
	c-4.3-3.3-8.6-2.1-12.6-0.2c-5.3,2.5-8.1,7.1-9.1,12.7c-0.8,4.4-1.3,8.9-2.2,13.4c-0.1,0.7-1.2,1.3-1.8,1.9
	c-0.5-0.8-1.5-1.6-1.4-2.3c0.3-3.8,0.9-7.5,1.3-11.2c0.2-2.7,0.6-5.6,0.1-8.2c-0.8-4.3,0.5-7.9,2.2-11.6c1-2.2,1.1-4.7,1.6-7.1
	c-2.7-0.3-5.6-1.4-8-0.7c-5.7,1.7-10,5.7-12.5,11.2c-1.3,2.8-0.3,5.2,2.9,6.3c0.8,0.3,1.5,0.9,3,1.8c-3.4,2-6.4,3.3-8.9,5.4
	c-3.4,2.8-6.6,6.1-9.6,9.4c-2.4,2.7-4.5,5.7-6.6,8.7c-5.4,7.6-3.7,15.5-1.1,23.5c0.8,2.4,2.1,4.6,2.7,7c0.3,1.2-0.4,2.7-0.7,4.1
	c-0.9-0.7-2.1-1.3-2.6-2.2c-3.1-5.4-6.4-10.8-9-16.5c-2.5-5.5-0.8-11.3,1.3-16.5c4.1-10,2.7-18.6-5.4-25.9c-3.3-2.9-6.9-5.5-10.5-8
	c-2.1-1.5-3.2-3-2.8-5.6c1.6-8.8-1.3-15.6-9-20.3c-1.8-1.1-1.8-2.4-0.5-4.1c2.7-3.4,5.4-6.9,7.9-10.5c0.7-1,1.4-2.3,1.4-3.4
	c0-0.7-1.3-2.2-2-2.1c-6.2,0.3-11.2,2.9-13.5,9.1c-0.6,1.5-1.1,3.4-0.6,4.9c2.1,6.2,4.5,12.2,6.8,18.3c1.4,3.5,2.2,6.7,0.8,10.6
	c-2.4,6.7-3.6,13.5,1.5,19.8c0.1,0.2,0.1,0.5,0.1,0.7c0,0.2-0.2,0.4-0.6,1.3c-2-1.3-3.8-2.7-5.7-3.8c-1.5-0.8-3.4-2-4.8-1.7
	c-1,0.2-1.6,2.7-2,4.3c-1.8,8-2.2,16.6-8.2,23.1c-0.7,0.8-1.9,1.1-2.9,1.6c0.1-1.2-0.2-2.6,0.3-3.4c4.7-7.6,4-14.9-0.7-22.3
	c-1.4-2.2-2.2-4.8-2.8-7.3c-0.8-3.1-4.8-6.8-9.2-6.4c-8.3,0.8-15.5-3.2-23.2-4.9c-1.8-0.4-3.6-1.1-5.4-1.7c0-0.3,0.1-0.6,0.1-1
	c3.4-1.3,6.9-2.5,10.2-4c1.3-0.5,2.3-1.7,3.4-2.5c-1.4-1.3-3.1-4-4-3.8c-7.7,2-15.8-1.4-23.5,2.3c-9.4,4.5-19.2,4.8-29,0.7
	c-2.7-1.1-5.5-1.8-8.3-2.6c-0.2,0.4-0.5,0.9-0.7,1.3c2.1,1.1,4.1,2.8,6.4,3.2c3.2,0.6,4.6,2.1,5.1,5.1c1.3,7.7,4.3,14.5,9.3,20.7
	c4.2,5.2,7.2,11.3,10.7,17c-0.4,0.4-0.8,0.8-1.2,1.2c-1.3-0.9-2.5-1.8-3.7-2.7c-5.9-4.6-11.8-9.2-17.7-13.9
	c-0.5-0.4-1.4-0.4-1.6-0.9c-4.2-7.4-13.9-9.4-17.5-17.8c-0.8-1.9-5.1-2.4-7.8-3.5c-0.8-0.4-2.3-0.6-2.4-1.1c-0.7-3.8-2.4-8-1.4-11.4
	c2.1-7.3,3-14.5,1.5-21.9c-0.3-1.4,0-2.9,0-4.4c0.4,0,0.8-0.1,1.2-0.1c0.4,0.7,0.9,1.3,1.1,2.1c1.6,5.7,3,11.5,4.8,17.1
	c0.4,1.2,2.4,2.5,3.7,2.6c1.1,0.1,2.9-1.5,3.2-2.7c0.8-2.5,0.8-5.2,1.3-7.8c0.2-1,0.8-2.6,1.4-2.7c2.5-0.4,5.2-0.9,5.4-3.8
	c0.2-3.3,0.2-7-1.1-9.9c-1.9-3.8-4.9-7.2-7.9-10.4c-1.5-1.7-2-2.6-0.7-4.8c4.4-7.3,3-12.3-4-16.9c-3.7-2.4-7.2-5.1-10.6-7.9
	c-1.6-1.3-3-1.6-4.2,0.1c-3.4,4.8-7.1,9.5-9.8,14.7c-1,1.9,0.2,5.1,0.6,7.7c0.6,4.4-0.2,5.5-4.6,5.6c-7,0.1-14,0.2-21.1,0.4
	c-0.9,0-1.8,0.6-2.7,0.9c0.3,0.9,0.4,2,1.1,2.6c5.5,5.3,11.2,10.5,16.8,15.8c1.6,1.5,3.5,3.4,3.8,5.4c2.2,11.3,9.5,19.6,15.6,28.6
	c4.1,6.1,7.3,12.8,10.8,19.3c1.8,3.3,2.9,7.1,5.1,10.1c5.8,7.9,7.8,17.3,11.4,26c1.9,4.6,4.1,9.1,6,13.7c3.6,8.7,7.2,17.3,7.9,26.9
	c0.1,1.7,1.1,3.3,1.4,5c0.2,1.1-0.3,2.3-0.6,3.4c-0.8-0.6-2.1-1-2.4-1.8c-1.5-3.9-2.7-8-4.1-12c-1.9-5.3-3.2-10.8-5.8-15.8
	c-6.3-11.9-13.2-23.4-19.7-35.2c-4.3-7.9-8.1-16.2-12.6-24.1c-3.6-6.3-7.6-12.2-13.4-17.1c-5.8-4.9-10.5-11.1-15.9-16.6
	c-3.2-3.2-6.7-6.1-10.1-9c-1.9-1.6-3.9-1.6-6.3-0.6c-1,0.5-3.1-0.1-4-1c-1.4-1.2-2.2-3-3.4-4.5c-3.2-4-6.6-7.9-9.8-11.9
	c-3.2-3.9-6.3-7.8-9.6-11.6c-2.2-2.5-4.7-4.9-7.1-7.2c-1.4-1.3-3.4-2-4.5-3.4c-3.7-4.8-8.4-4.5-13.3-2.8c-2.6,0.9-4.1,0.5-5.7-1.8
	c-3.1-4.5-7.9-6.6-12.9-8.5c-3.2-1.3-6.1-3.4-9.1-5.2c-1.3-0.8-2.6-1.8-4.5-3.2c-0.6,2.9-1.5,5.1-1.3,7.2c0.4,5.3,1.2,10.5,1.9,15.7
	c0.3,2.1,0.7,4.2,0.8,6.4c0,0.7-0.7,1.4-1.1,2.1c-0.7-0.5-1.6-0.8-2-1.4c-2.5-4.7-4.6-9.6-7.2-14.1c-2.1-3.7-5.4-6.7-7.3-10.4
	c-4.3-8.1-7.9-16.5-10-25.6c-0.6-2.9-2.3-5.5-3.2-8.4c-3.4-11.5-6.6-23.1-9.7-34.7c-0.3-1.2,0.7-2.8,1-4.3c1.1,1.2,2.9,2.2,3.1,3.5
	c1.2,9.3,5.3,16.7,12.1,23.2c6.2,5.9,11.3,12.8,17.3,18.9c2.3,2.3,5.5,3.8,8.6,5c5.1,2,10.5,3.5,15.8,5.3c6,2.1,11.9,4.2,18.4,2
	c1-0.4,2.6-0.1,3.6,0.5c8,4.7,15.8,9.8,23.9,14.3c3.8,2.1,8,3.5,12,5.2c0.4,0.2,1.1,0.3,1.5,0.1c4.3-2,8.6-2.3,13.2-1.4
	c0.6,0.1,2.2-2,2.3-3.2c0.3-2.5,1.3-4,3.8-4.5c4-0.8,2.6-4.5,3.2-6.9c0.3-1.2-1.1-3.6-2.4-4.4c-6.1-3.8-12.8-4.1-19.7-3
	c-1.6,0.2-3.2,0.4-4.8,0.2c-5.5-0.5-11-1.9-16.4-1.7c-6.7,0.3-12.9-0.8-18.3-4.5c-7.8-5.3-15.3-11-22.9-16.5
	c0.1-0.4,0.2-0.8,0.3-1.2c1-0.2,2.3-0.8,3.1-0.4c6.2,2.7,12.2,5.9,18.4,8.5c7,3,14.4,3.5,21.9,1.7c0.9-0.2,1.7-0.4,2.6-0.6
	c6.8-1,13.6-2,20.5-2.9c2-0.3,4.2-0.5,6,0c7,2.3,14.1,0.5,21.1,0.5c4.9,0,7.3-3.6,4.8-7.9c-2.5-4.3-6.1-8-8.6-12.2
	c-2.1-3.4-3.4-7.4-5.1-11.1c0.3-0.3,0.6-0.6,0.9-0.9c3.2,1.9,6.5,3.8,9.7,5.8c2,1.3,3.8,2.9,5.8,4.3c6.6,4.6,14.5,4.6,21.1,0.1
	c4-2.7,5.1-6.8,4.8-11.2c-0.2-3.9-2.7-5.8-6.6-5.8c-5.4,0-10.8-0.1-16.2,0.1c-5.7,0.3-11.7,2.3-17.1,1.2
	c-10.6-2.2-21.1-1.5-31.7-1.5c-0.6,0-1.3-0.1-1.9,0c-6.4,0.5-7.7,2.4-4.8,8.1c2.6,5.2,3.6,10.6,4.2,16.3c0.1,1.2,1.1,2.4,1.5,3.6
	c0.3,1,0.3,2.1,0.2,3.2c0,0.2-1.1,0.6-1.2,0.6c-0.6-0.8-1-1.6-1.5-2.4c-1.9-3.6-3.7-7.2-5.8-10.7c-2.2-3.7-5.7-7-6.9-11
	c-1.7-5.9-5.7-10-9.1-14.6c-2.9-4-6.8-7.1-11.7-9.2c-2.8-1.2-4.7-4.8-7-7.2c-7.2-7.8-14.7-15-25.1-18.8c-1.9-0.7-3.1-3.4-4.6-5.3
	c-3.2-4.1-6-8.6-9.6-12.3c-7.5-7.7-16.6-13.3-25.9-18.6c-0.9-0.5-1.3-1.8-1.9-2.7c1.3-0.1,2.9-0.7,3.8-0.1c7.8,5,15.6,10,23.3,15.2
	c10.3,7.1,20.5,14.4,31.8,19.9c7.1,3.4,13.9,6.9,18.3,13.9c1.4,2.2,4.4,3.4,6.8,4.9c3.9,2.5,7.9,5,11.9,7.4
	c6.1,3.6,12.7,4.4,19.6,3.4c1.8-0.3,3.7-0.3,5.5-0.1c9.7,0.9,19.3,2.3,29,2.7c3.5,0.1,7.1-1.9,10.6-3.3c2-0.8,2-2.1,0.5-3.9
	c-5.2-6.1-10.3-12.3-15.3-18.6c-0.6-0.8-0.6-2.1-0.9-3.1c1.1,0.4,2.4,0.5,3.2,1.1c2.4,1.8,4.7,3.8,6.9,5.9c5.7,5.5,13,6.2,20.1,6.3
	c5,0.1,8.1-4.6,10.9-8.5c3.8-5.2,3.9-11.4,3.7-17.5c-0.1-3.1,0.8-5,3.3-6.5c3.7-2.2,7.2-4.6,10.9-6.7c7.6-4.3,10.7-11.8,14.4-18.9
	c0.7-1.3,1.1-2.8,1.9-4.1c5.1-8.9,7.4-18.3,6.9-28.6c-0.1-2.4,0.8-4.9,1.3-7.4c0.2-1.2,1.1-2.5,0.9-3.6c-1-7.5,3.5-12.8,7-18.5
	c0.7-1.2,0.4-3.1,0.5-4.7c0.1-2.2-0.4-4.6,0.4-6.6c2.9-7.7,2.2-15.4,0.2-23c-1.5-5.8-3.5-11.5-5.7-17.1c-3.1-7.7-3.2-15.9-4.6-23.9
	c-1.4-7.7-3.6-15.3-5.4-23c-0.4-1.5-0.8-2.9-1-4.4c-1-8.2-1.9-16.5-2.9-24.7c-0.1-0.9,0-1.9,0-2.8c0.4-0.2,0.7-0.4,1.1-0.6
	c0.8,1.1,2.1,2.2,2.3,3.4c1.1,5.4,1.9,10.9,2.9,16.3c0.3,1.5,0.7,2.9,1,4.4c1.8,7.2,3.6,14.4,5.4,21.6c0.3,1.1,0.4,2.3,0.9,3.3
	c2.6,5.7,5.7,11.2,7.9,17c2,5.5,4,11.2,4.5,17c0.7,6.8,2.7,13,5.3,19.1c0.6,1.4,1.3,2.9,1.4,4.3c0.2,7.1,4.1,12.3,8.1,17.5
	c1.7,2.2,1.6,4.3,0.4,6.7c-4.9,9.8-10,19.6-10.1,31c0,2.1-0.4,4.3-0.3,6.4c0.4,8.7-2.9,16-8.4,22.5c-1.2,1.4-2.4,3.1-2.7,4.9
	c-0.4,1.7,0.3,3.6,0.5,5.5c1.4-0.3,2.8-0.5,4.1-1c4.6-1.7,9.3-3.3,13.8-5.4c1.8-0.9,3.3-2.8,4.5-4.5c3.4-4.8,8.5-6.9,13.7-8.8
	c1.5-0.5,3.3-0.1,6.1-0.1c-1.3,1.5-1.7,2.4-2.3,2.6c-7.6,1.8-11.7,7.8-16.7,13.1c-8.1,8.7-17,16.8-25.5,25.2
	c-1.6,1.6-2.7,3.8-4.3,5.4c-3.1,3-6.4,5.7-9.5,8.6c-0.9,0.8-2.1,1.8-2.3,2.8c-1.8,9.8-3.4,19.6-4.9,29.4c-0.2,1.2,0.6,2.6,1.1,3.8
	c1.1,2.6,2.2,5.2,3.3,7.8c0.1,0.3,0.1,0.9,0.3,1.1c3.9,2.6,4.8,8.6,10.5,9.1c2.8,0.3,2.9,2.2,1.9,4.2c-1.3,2.7-2.8,5.4-4.1,8.1
	c-1.7,3.5-0.5,6.6,1.4,9.6c1.9,2.9,4.5,3.7,7.8,3.3c3.1-0.4,5-1.9,5.4-4.9c1.3-8.6,2.2-17.2,3.6-25.8c0.6-3.4,2-6.6,3-10
	c0.4,0.1,0.9,0.1,1.3,0.2c0.1,1,0.7,2.2,0.4,3c-3.1,8.2-0.7,16.5-0.5,24.7c0.2,8.7,1.5,17.5,2.6,26.2c0.3,2.6,1.9,5,2.4,7.5
	c0.2,1.1-0.5,3.1-1.4,3.5c-15.2,7.2-24.1,20.2-32,34.1c-0.7,1.3-0.5,3.6,0.1,5c2.6,5.6,4.2,10.9,2.8,17.4c-0.9,4.2,2,8.9,5.9,11.8
	c2.6,2,5.7,3.5,8.9,5.4c-8.5,5.5-16.6,10.6-24.7,15.8c0.2,0.6,0.5,1.2,0.7,1.8c2.7-0.5,5.8-0.3,7.9-1.7c8.6-5.7,16.9-11.8,25-18
	c1.1-0.9,1.6-3.3,1.5-5c-0.8-7.6-4.7-14-8.1-20.6c-2.8-5.5-4.4-11.5-6.5-17.3c0.4-0.3,0.7-0.6,1.1-0.9c1.6,1.1,3.4,2.1,4.9,3.4
	c2.1,1.8,3.9,3.9,6,5.7c2.7,2.3,4.8,2.1,6.5-1c2.8-5.2,5.5-10.5,7.9-15.9c1-2.3-0.7-2.8-2.7-2.6c-3.3,0.3-6.5,0.6-9.8,0.7
	c-1.4,0.1-2.9-0.2-4.3-0.3c0-0.7-0.1-1.1,0-1.2c7.1-4.2,14.3-8.3,21.4-12.4c0.7-0.4,1.3-0.9,2-1c5.5-0.7,5.7-5,7.4-9.1
	c2.8-7-0.8-11.5-4.3-16.5c-4.5-6.4-9.8-12.5-11.3-20.3c-0.9-4.7-0.4-9.7,0.2-14.5c0.4-3.4,2.4-6.6,3.1-10c1.5-7.1,3.4-14.3,3.6-21.5
	c0.3-10.2-0.7-20.4-1.4-30.6c-0.3-4.3-1.4-8.5-1.9-12.8c-0.2-1.4,0.3-2.8,0.5-4.2c0.4-0.1,0.8-0.1,1.2-0.2c0.4,1.3,1,2.5,1.2,3.8
	c1,6.1,1.6,12.3,2.8,18.3c1,5.2,3.4,10.3,3.8,15.6c0.6,7.9,0.3,15.9-0.1,23.8c-0.2,3.7-1.8,7.3-2.1,11c-0.5,6.6,1.3,12.5,6,17.6
	c1.8,2,2.4,5.2,3.3,7.9c0.8,2.4,1.2,4.9,2.1,7.2c0.4,1,1.7,1.7,2.5,2.5c0.6-1,1.8-2,1.8-2.9c-0.4-4.3-1.2-8.6-1.8-12.9
	c-0.3-1.9-0.5-3.8-0.7-5.7c0.6-0.1,1.2-0.2,1.9-0.4c1.8,5.5,4.5,10.9,5.1,16.5c0.6,5.5,2.1,9.8,6.5,12.9c3,2.1,3,4,0.8,6.3
	c0.7,1.5,1.4,2.8,2.4,4.9c2.1-3.9,1.7-9.1,7.2-10.9c-1.6,2.4-2.9,4.3-4.1,6.1c0.3,0.3,0.6,0.5,0.8,0.8c2.2-2.4,4.4-4.9,5.8-6.4
	c1.1-17.5-8.2-29.7-18-41.7c0.4-0.3,0.8-0.6,1.3-1c1.1,0.8,2.4,1.5,3.2,2.5c5.6,7.6,11.3,15,16.4,22.9c3.4,5.2,3,5.4,7.7,1.5
	c0.8-0.6,1.7-1,3.1-1.9c-0.3,1.4-0.5,2.2-0.9,3.9c1.8-1.5,3-2.5,4.3-3.6c-1.5-1.6-2.7-2.9-4-4.3c2.9-0.6,5.4-1.1,7.9-1.6
	c0.6-0.1,1.4-0.2,1.8,0.1c3.6,3.4,7.8,2.7,12.1,1.8c2.9-0.6,5.8-0.8,8.9-1.2c0-2.1-2-4.8,2.6-5.7c-0.5-0.3-0.9-0.7-1.4-1
	c-2,0.6-3.9,1.3-5.9,1.9c-0.1-0.4-0.3-0.8-0.4-1.2c2.1-1.5,4.3-2.8,6.3-4.4c1.3-1.1,2.2-2.7,3.3-4.1c0,0-0.1,0.1-0.1,0.1
	c0.8-0.9,1.4-2,2.3-2.6c0.9-0.6,2.1-0.9,3.1-1.3c0.1,0.9,0.4,1.9,0.2,2.8c-0.7,2.8-4.3,5.3,0,9.1c0.9-2.3,1.6-4.2,2.3-5.8
	c3.1,0.5,6,1.1,9,1.6l0,0c0.8,1.7,1.6,3.4,2.7,5.7c-3.1-1.2-6.5-2.6-9.8-3.9c-0.1,0.4-0.3,0.8-0.4,1.2c1.8,1.4,3.7,2.7,5.9,4.4
	c-0.9,1.1-1.8,2-2.7,3c-1.5-2.3-2.7-4.2-4.2-6.6c-2.2,2-4,3.6-6.1,5.4c2,1.6,2.9,3.3-0.2,5.2c2.2,1.5,4,2.7,5.8,3.9
	c0.5-0.1,1-0.1,1.5-0.2c-0.8,1.3-1.7,2.6-2.5,3.9c-0.8,1.3-1.7,2.6-2.5,3.9l0.1-0.1c-5.5-0.5-6.1,4.8-8.7,7.7
	c-0.3,0.4,1.2,2.4,1.9,3.6l0.1-0.1c-2.6,1.6-4.9,3.9-8.5,3.1c-0.8-0.2-2,1.3-3.3,2.3c-3.2-2.6-6.6-5.3-9.8-8.2
	c-0.7-0.6-0.8-2.1-0.9-3.2c-0.1-1.1,0.1-2.3,0.1-3.9c0.4-0.2,1.2-0.7,2.1-1.2c0.3,2,0.7,4,1,6c-0.4,0.2-0.8,0.4-1.2,0.6
	c2.9,2.4,5.8,4.8,8.7,7.2c0.4-0.5,0.9-1,1.3-1.4c-2.6-1.8-5.2-3.7-8.2-5.8c2.7-1.9,4.2-2.9,5.7-4c1.1-0.8,2.2-1.6,3.4-2.2
	c0.1-0.1,0.7,0.8,1.1,1.3c-1.1,0.9-2.2,1.8-3.2,2.7c-0.5,0.5-1.4,1.3-1.2,1.6c0.3,0.7,1,1.5,1.7,1.6c3.3,0.7,5.1-0.7,4.7-4.4
	c3.9,0.7,4.2-1.5,4.1-4.2l-0.1,0.1c1.2,0.2,2.4,0.4,4.1,0.6c0-6.5,0-12.7,0-18.9c-0.3-0.1-0.7-0.1-1-0.2c-0.4,1.6-1.2,3.2-1.1,4.8
	c0.3,3.7-1.6,5.4-4.8,6c-2.2,0.4-4.5,0.3-6.7,0.4c-2.3,0.1-4.5,0-6.8,0c0,0.4-0.1,0.7-0.1,1.1c0.7,0.8,1.5,1.6,2.2,2.4
	c-1.6-0.3-3.1-0.7-4.7-0.9c-1.4-0.2-2.8-0.2-4.9-0.3c1.1,1.6,1.6,2.4,2.2,3.5c-1.2,0.8-2.3,1.7-3.5,2.5c-0.2-0.2-0.3-0.3-0.5-0.5
	c0.5-1,0.9-1.9,1.4-2.9c-0.2-0.2-0.5-0.4-0.7-0.7c-2,1.8-4,3.6-6.3,5.6c0.7,0.7,1.4,1.2,2.2,2c-7.1,5.6-3.6,13-3.2,19.8
	c0.3,5.2,1.8,10.3,2.6,15.5c0.2,1.2,0,2.6-0.5,3.7c-1.3,3.2-0.6,5.5,1.6,8.3c1.8,2.2,2,5.7,3.5,8.2c1.4,2.3,3.4,4.6,5.7,5.8
	c3,1.6,4,0.3,3.6-3.1c-0.1-0.7-0.2-1.5-0.2-2.1c0.3-0.3,0.5-0.6,0.7-0.6c2.7-0.5,5.7-0.5,6.4-4.1c1-5.1-0.2-9.7-4.2-13.1
	c-4.4-3.7-7.2-8.3-8.5-13.8c-1-4.2,0.8-8.6,5.1-11.5c0,0.9,0.2,1.6,0,2.1c-3.3,7.5-1.2,9.7,4,13.2c3.1,2.1,6.5,3.7,9.4,6
	c4.1,3.2,5.8,7.8,7,12.7c0.5,2.2,0.5,4.8,3.8,4.8c2.5,0,5.1-3.4,6-6c1.3-4.1,3.2-8,5.1-11.9c0.4-0.9,1.6-1.4,2.5-2
	c0.3,0.2,0.6,0.4,0.9,0.6c-0.6,1.2-1,2.6-1.9,3.6c-3,3.7-3.1,7.2-1.3,11.5c1.7,4.2,2.6,8.7,3.6,13.1c0.2,0.9-0.3,2.4-1,3
	c-4.9,3.9-5.4,9.4-5.8,14.9c-0.2,3,0,6.1,0.3,9.1c0.5,5.2,4.5,7.8,8.5,9.9c2.9,1.5,2.3,2.5,0.2,3.9c-1.3,0.8-2.5,1.8-3.9,2.4
	c-3.4,1.5-5.9,3.8-8.4,6.6c-4,4.4-9.4,6.9-16.2,6.1c0.8-1.1,1.6-2.3,2.5-3.3c1.9-2.1,1.5-4.3-1.2-4.7c-4.1-0.6-8.2-0.5-12.4-0.6
	c-0.4,0-0.9,1.2-1.2,1.8c-0.1,0.1,0.1,0.5,0.3,0.7c6.4,4.6,7.7,12.3,11.5,18.6c0.6,0.9,1.9,1.4,2.8,2.1c0.7-1.1,1.9-2.1,2.1-3.2
	c0.7-4.1,3-5.8,7.1-6.5c4.3-0.7,8.7-2.1,12.5-4.2c5.1-2.8,9.8-1.3,14.6,0c2.9,0.8,5.7,1.9,8.5,2.8c0.2-0.4,0.5-0.7,0.7-1.1
	c-1.2-0.9-2.3-2.4-3.6-2.5c-2.5-0.3-3.6-1.7-4.7-3.7c-1.2-2.1-3.1-3.7-4.3-5.8c-0.5-0.9-0.1-2.6,0.4-3.6c1-1.8,3.7-3.6,3.4-5
	c-0.6-3.5-2.4-6.8-3.9-10c-0.2-0.3-2.4,0-3.4,0.5c-1.2,0.6-2.2,1.8-3.1,2.5c-1.6-2.9-3-5.3-4.2-7.9c-3.3-7.2-0.7-13.9,6.5-17.4
	c5.8-2.8,6.7-7.2,2.5-12.1c-1-1.2-1.9-2.4-3.5-4.5c2,0.1,3.1-0.2,3.5,0.2c2.9,2.4,5.8,4.8,8.3,7.5c1.5,1.5,2.2,1.5,3.5-0.1
	c4-4.9,4.4-10.1,0.5-15.2c-2.1-2.7-4.5-5.2-7.2-7.2c-6.5-4.7-9.3-10.7-7.9-18.6c0.8-4.9,1.8-9.7,2.8-14.5c0.5,0,1,0,1.6,0.1
	c0.1,1.6,0.4,3.1,0.3,4.7c-0.6,9.3,3.5,15.7,11.5,20c1,0.5,3,0.9,3.4,0.5c0.7-0.9,1.2-2.9,0.7-3.7c-4.1-5.9-0.4-11.2,2-15.9
	c2-3.8,6-6.7,9.2-9.9c3.1-3.1,2.1-7.4-2.4-8.9c0.5,1.2,0.9,2.1,1.2,3c-0.3,0.3-0.6,0.5-0.9,0.8c-0.9-0.9-1.8-1.7-3.1-2.9
	c-0.6,0.1-2.1,0.2-3.5,0.3c-0.1-0.3-0.1-0.6-0.2-0.8c0.9-0.7,1.9-1.5,3.8-3c-2.5,0-4.1-0.4-5.4,0.1c-5.7,2.3-7.1,2-10.8-3.1
	c1.4-1.8,3-1.9,4.7-0.3c2.7,2.5,5.1,0.4,7.6,0.3c0-0.4,0.1-0.8,0.1-1.2c-1.1-0.3-2.2-0.6-3.3-0.8c-1.6-0.4-3.1-1-4.7-1.1
	c-2.3-0.2-4.8-0.5-6.9,0.2c-3.5,1.2-7.4,2-9.8,5.8c-0.6,1-3.8,0.5-5.8,0.4c-0.3,0-1-1.7-0.8-2c1.7-1.9,3.3-4.3,5.5-5.4
	c4.1-2.1,8.6-3.4,12.9-5c0.8-0.3,1.7-0.1,2.5,0.1c9.6,1.9,18.4,5.5,26.4,11c0.3,0.2,0.9,0.1,1.3,0.1c0.1-0.3,0.3-0.6,0.4-0.9
	c-2.8-1.7-5.7-3.3-8.4-5.1c-0.6-0.4-0.9-1.2-1.4-1.8c0.9-0.2,2-0.9,2.5-0.6c3,1.9,5.8,4,9.1,6.3c0.7-0.9,2.3-2,2.5-3.4
	c2-10.4,3.6-20.9,1.4-31.4c-1.8-8.5-3.4-17.1-6-25.3c-2.6-8.2-6.5-15.9-9.8-23.8c-0.5-1.2-0.9-2.4-1.3-3.5c0.5-0.3,1-0.5,1.4-0.8
	c2,3.2,4.5,6.1,6,9.5c3.3,7.3,6.6,14.7,9.1,22.4c2.2,6.8,3.8,13.8,4.7,20.8c0.9,7.7,1,15.6,0.9,23.5c-0.1,4.7-1.3,9.4-2,14.1
	c-0.2,1.4-0.1,2.8-0.1,4.3c1.2-0.3,2.4-0.6,3.6-0.7c0.8-0.1,1.6,0.1,3,0.2c-1,1.1-1.5,1.7-2.6,2.8c2.9,0.3,5.6,1.3,7.8,0.6
	c1.8-0.5,4.1-2.7,4.4-4.6c2.6-12.3,8.5-22.7,16.3-32.3c1.4-1.8,3.3-3.2,5-4.8c0.4,0.3,0.7,0.5,1.1,0.8c-0.6,1.2-1,2.5-1.9,3.5
	c-5.9,6.3-9.7,13.7-12.7,21.6c-0.9,2.4-1.7,4.9-2.7,7.3c-1.3,3.2-0.3,5.1,2.2,7.5c2.2,2.1,3.6,1.4,4.9,0.7c-0.4-2.4-0.8-4.4-1.1-6.3
	c-0.2-1.8-0.3-3.7-0.4-5.5c-0.4-0.1-0.8-0.2-1.2-0.2c1.9-2.1,3.5-4.6,5.7-6.3c1.2-0.9,3.5-0.4,5.5-0.5c-0.2-0.6-0.5-1.5-0.9-2.9
	c4.3-0.3,7.7-4.7,12.8-0.3c-0.4-1.8-0.6-2.6-0.9-3.7c3.9-1.9,7.5,0,11.2,1.1c0.4,0.1,0.8,1.4,0.6,1.9c-0.2,0.5-1.3,1.2-1.6,1
	c-2.1-1.2-3.3-0.2-4.2,1.6c-0.2,0.3-0.5,0.6-0.9,0.7c-4,0.6-8.1,1.1-12.4,1.6c-0.5,1.1-1.2,2.4-2,4c0.8,0.5,1.6,1,2.3,1.6l-0.1-0.1
	c1.4,2.1,2.1,3.7-1.2,4.8c-1.1,0.3-1.6,2.2-2.7,3c-0.8,0.5-2,0.4-3,0.6c0.2-0.9,0.1-1.8,0.5-2.6c0.9-2.1,2-4.1,3-6.1
	c-4.2-0.2-7.6,5.9-6.1,11.6c4.2-1.3,8.4-2.6,12.8-4c-0.3-0.8-0.6-1.7-1.2-3.2c2.8,0.6,5.1,1.2,7.5,1.7c0.1-0.3,0.3-0.7,0.4-1
	c-0.5-0.7-1-1.5-1.5-2.2c0.2-0.4,0.5-0.7,0.7-1.1c2.7,1.5,5.5,2.9,8.6,4.6c-0.3,1.5-0.7,3-1.1,4.6c0,0,0.1-0.1,0.1-0.1
	c-1.2-0.7-2.3-1.4-3.7-2.2c-7.8,2.6-16,5.5-24.2,8c-2.1,0.6-2.4,1.7-2.5,3.4c-1.2-0.5-2.4-1.1-3.7-1.5c-1.7-0.5-3.4-0.9-5.1-1.3
	c-0.2,0.5-0.3,0.9-0.5,1.4c1.7,1.1,3.4,2.2,5.2,3.2C455.5,590.8,457,590.3,457.4,587.7z M499.4,665.5c-0.9-1-2.7-2.1-2.6-3
	c0.3-3.7-0.7-6.3-3.5-7.3c-0.2-2.7-0.3-4.7-0.4-6.7c-0.2-2.4-0.7-4.7-0.7-7.1c0-4.5,0.1-4.5-0.6-4.6c-0.9,1.9-1.3,4.1-2.7,5.4
	c-1.4,1.3-3.6,2.1-5.5,2.5c-3.2,0.7-6.4,2.2-9.6,0.1c-0.2-0.1-0.8,0.5-0.6,0.3c0.4,3.9,0.7,7.2,1,10.5c1.5-0.5,2.1-0.9,2.1-1.4
	c0.3-3.3,2.2-3.6,5.1-3.1c2.5,0.4,5.2,0.1,8.2,0.1c0.6,2.6-0.5,2.9-3,2.6c-2.4-0.3-5.7-2.5-7.1,0.8c-1.7,4-2.3,8.5-3.5,13.1
	c2.9,0,4.6,0,6.4,0c0,0.3,0,0.5,0,0.8c-0.9,0.6-1.8,1.3-3.2,2.2c2.4,1.1,4.1,2,5.8,2.8c0.1-0.2,0.2-0.4,0.3-0.6
	c-0.7-1.1-1.4-2.2-2.5-4c5.3-0.5,9.8-0.9,14.4-1.5c0.8-0.1,1.4-1.3,2.1-2c0.4-0.1,0.8-0.1,1-0.3c1.1-0.8,2.2-1.7,3.4-2.6
	c-0.5-0.4-1.4-1.3-1.4-1.3c-1,1-2,2.1-2.9,3.2C499.1,664.6,499.4,665.1,499.4,665.5z M440.5,591.1c0-0.2,0.1-0.4,0.1-0.6
	c0.8-0.1,1.8,0.1,2.4-0.2c0.9-0.6,1.5-1.6,2.2-2.4c-0.9-0.3-2-1.1-2.8-0.9c-5.6,1.6-9.7,0.2-13.2-4.4c-0.5-0.6-1.9-0.5-2.8-0.8
	c-0.1,1.1-0.7,2.3-0.3,3.2c0.3,0.6,1.8,0.7,2.7,1c-0.4,0.5-0.8,1.1-1.2,1.6c-0.7,0-1.6,0.3-2,0c-2.8-2.2-4.3-0.8-5.4,1.8
	c-2,4.3-4.2,8.6-6,13c-2,4.7-2.3,9.5,2,13.2c5,4.5,5,9.7,3,15.5c-1.5,4.4,0.6,10.6,4.4,13.4c0.8-1,1.7-1.9,2.7-3.2
	c0.4,0.9,0.8,1.3,0.8,1.7c0.1,6.2-0.5,12.3-3.6,17.8c-0.5,0.9-2.4,1.1-3.8,1.3c-1.7,0.3-3.5,0.3-5.2,0.4c0,0.6,0,1.2,0,1.9
	c4.2,0.7,8.4,2,12.5,1.8c3.7-0.1,10.6,0.9,12.1,4.1c2,4.4,5.2,4.7,9.3,4.5c6-0.3,8.7-3.7,6.9-9.3c-0.3-1,0-2.3,0.1-3.4
	c0.1-0.9,0.8-2.3,0.4-2.6c-0.9-0.7-2.7-1.6-3.2-1.2c-2.1,1.5-4.1,3.3-5.7,5.4c-1.1,1.5-1.5,3.5-2.2,5.4c-1-0.5-1.5-0.6-1.6-0.9
	c-2.2-6.2-6.6-10.5-11.8-14.2c-0.7-0.5-0.8-2.9-0.3-4.1c1.2-2.8,2.7-5.4,1.4-8.6c-0.3-0.9,0-2.2,0.5-3.2c1.8-3.8-0.3-7-4.5-6.9
	c-1,0-2.1,0-3.1,0c-0.2-0.3-0.4-0.7-0.5-1c1.2-1.1,2.3-2.3,3.5-3.4c1.8-1.6,3.7-3,5.6-4.5c2.9-2.3,5.8-4.6,8.7-7
	c1.3-1.1,3.1-2,3.9-3.4c2.8-4.7,3.1-9.8,2-15c-0.6-3-1.5-5.7-5.6-5.1C442,592.1,441.2,591.4,440.5,591.1z M304.6,630.3
	c-1.4-1.1-1.8-1.4-2.1-1.7c-3.6-5.7-7.4-6.2-11.8-1.1c-3.1,3.6-6.9,7.2-2.9,12.6c0.2,0.3-0.6,2-1.3,2.4c-4.2,2.8-8.4,5.8-9.7,11.1
	c-0.4,1.4,0,3,0.1,4.5c1.5-0.3,3-0.3,4.4-0.9c1.6-0.7,3-2.4,4.5-2.5c3-0.2,4.9-1.7,6.6-3.8c2.7-3.3,6.5-4.1,10.6-4
	c-0.6,1.2-1.5,2-2.4,2.7c-3.7,3-5.2,9.4-2.8,12.8c2.2,3.1,5.5,3.2,8.9,2.7c4.8-0.7,9.3-1.2,13.9,1.6c2.9,1.7,6.6,2.1,9.9,3.1
	c-1.2-3.3-3.5-5-6.5-5.5c-5-0.8-6.2-2.3-5.8-7.2c0.1-1-0.2-2-0.4-3c-1.2-5.1-4.1-8.8-8.9-11c-2.4-1.1-3.5-2.2-1.1-5
	c2.3-2.6,4.1-6.1,4.9-9.6c1.1-5,1.3-10.2,1.7-15.3c0.4-5.6,0.3-11.2-2.7-16.7c-0.7,0.5-1.5,0.9-2,1.4c-1.5,1.5-2.7,3.5-4.4,4.6
	c-4.5,3-6.5,8.4-4.5,13.5c1.3,3.4,2.7,6.7,3.9,10.1C304.9,627.1,304.6,628.2,304.6,630.3z M204.9,607.4c4.4-4.3,4.3-8.2,3.4-13.1
	c-0.7-3.6-1.4-6.8-3.6-9.5c-0.7-0.9-1.8-1.5-2.7-2.3c-0.6,1-1.1,2-1.7,3.1c-1,2.1-1.7,4.5-3.1,6.3c-1.6,2-4.5,3.2-5.5,5.4
	c-1.5,3.4-3.7,5.4-7,6.8c-2.7,1.1-2.7,2.8-0.6,4.9c3.3,3.3,7.6,3.5,11.9,4c5.3,0.6,5.8,1.9,3.1,6.4c-0.4,0.7-0.2,1.8-0.3,2.7
	c0.9-0.1,2,0.2,2.7-0.2c4.5-2.8,9-5.7,13.4-8.6c0.6-0.4,1-1.3,1.5-1.9c-0.7-0.5-1.3-1.1-2-1.3C211.6,609.2,208.8,608.5,204.9,607.4z
	 M494.8,627.1c0.4-0.2,0.7-0.5,1.1-0.7c0.4,0.6,1,1.1,1.1,1.7c0.4,3.1,2.2,2.7,4.6,2.7c3.3-0.1,6.8,0.2,9.9,1.3c2.6,1,4,0.6,5.2-1.6
	c0.5-0.9,1.1-1.7,1.9-2.3c1.8-1.7,2-3.1-0.3-4.5c-3-2-6-4-8.9-6.1c-3-2.2-4.8-1.5-5.5,2.2c-0.5,2.6-1.6,2.3-3.2,1.1
	c1.2-3.3,2.4-6.4,3.5-9.4c-2.6,0.1-6-3-9.1,0.4c2.3,1.4,4.2,2.6,6.1,3.8c-0.1,0.5-0.2,1-0.3,1.5c-2.4,0.6-4.8,1.1-7.2,1.7
	c-0.6,0.1-1.1,0.5-1.7,0.8c-2.9,1.3-5.8,2.5-8.7,3.8c-0.7,0.3-1.4,0.7-2.1,1.2c-0.1,0.1,0.2,1.1,0.5,1.2c0.8,0.2,1.7,0.4,2.4,0.2
	c0.9-0.3,1.7-1.1,2.7-1.8c1.4,6.8,2.4,7.6,7.7,6.1C494.8,629.2,494.8,628.2,494.8,627.1z M691,627.9c1.8-6.3,5.7-11,11.1-14.5
	c2.7-1.8,3.4-4.7,2.9-7.7c-0.7-4.9-3.7-8.4-7.7-10.9c-1.4-0.8-2.8-0.7-3-3.2c-0.2-2.1-2.5-3.9-4.4-6.7c-1.7,7.9-1.9,14.7,0.2,21.2
	c0.9,2.8,1.1,5.1-0.4,7.5c-0.8,1.4-1.4,2.9-2.1,4.4C685.8,622.3,687.2,626.5,691,627.9z M531.6,675.1c3.6-3.5-0.5-4.9-1.3-6.2
	c-1.5-2.5-2.7-3.4,1.1-4.1c0.6-0.1,1-2.1,1.4-3.2c-1.1-0.3-2.7-1.1-3.2-0.7c-2.4,1.8-3.3,1.2-4.3-1.5c-2.2-6-3.2-6.4-9.6-5.1
	c-1.7,0.4-3.4,0.9-5.2,1c-2.6,0.3-4,1.8-4.7,4.2c-0.7,2.6-1.7,5.1-2.5,7.6c-0.1,0.5,0.2,1.5,0.5,1.6c0.6,0.2,1.4-0.1,2-0.3
	c1.9-0.4,4.1-1.5,5.8-1c4,1.1,7.6,1.6,11.2-0.8c0.7-0.5,2.4-0.4,2.9,0.2c0.7,0.8,1.3,2.9,0.9,3.3c-1.6,1.4-3.5,2.7-5.5,3.4
	c-2.9,1-6,1.3-9,1.9c-0.1,0.5-0.1,1.1-0.2,1.6c1.1,0.4,2.5,1.5,3.3,1.1c3.7-1.5,7.5-3,10.8-5.2C528.9,671.4,530.4,671.5,531.6,675.1
	z M643.9,541.2c-2.2-3-5.3-2.7-8.5-0.9c-1,0.5-1.9,1.3-3,1.4c-4.3,0.3-8.5,0.4-12.8,0.6c-0.2,0.6-0.4,1.2-0.7,1.7
	c0.7,0.3,1.3,0.8,2,0.9c2.3,0.2,4.7,0.5,7,0.3c6.3-0.7,12.5-2.3,19-0.6c3.3,0.9,7,0.3,9.4-3.3c1.9-2.8,4.1-5.6,6.5-8
	c1.5-1.5,2.2-2.9,1-4.6c-1.6-2.3-3.3-4.6-5.4-6.6c-1-1-2.9-1.1-4.3-1.6c-0.2,0.3-0.3,0.7-0.5,1c-0.1-0.1-0.2-0.2-0.2-0.3
	c-0.5-1.1-0.7-2.5-1.5-3.1c-0.6-0.4-2,0.4-3,0.7c0.4,1,0.8,2,1.1,3c0.3,0.7,0.5,1.4,0.8,2c0.4,1,0.8,1.9,1.2,2.9
	c1-0.4,1.9-1,2.9-1.3c0.8-0.2,1.7-0.2,2.1-0.3c-2.3,4.1-4.2,7.7-6.5,11.8C649,538,646.6,539.5,643.9,541.2z M739.4,653.9
	c0.2,1.6,0.2,3.6,0.6,5.6c0.2,0.8,1.1,1.5,1.6,2.2c0.7-0.6,1.7-1.1,2-1.9c1.4-4.4,4.6-7,8.6-9c5.3-2.7,5.7-4.3,1.3-8.2
	c-3-2.8-6.7-5-10.4-6.9c-1.9-0.9-4.4-0.6-6.6-0.7c-1.4-0.1-2.8,0-4.2,0c0.7,1.4,1.1,3,2.2,4c4.1,3.8,6.9,7.9,5,13.8
	C739.3,652.9,739.4,653.2,739.4,653.9z M516,636.8c1,1.3,2.1,2.6,3,4.1c0.4,0.6,0.5,1.6,0.3,2.3c-0.2,0.4-1.4,0.8-1.9,0.6
	c-2.2-0.8-5.2-0.9-4.1-4.8c0.2-0.9-1.1-2.2-1.7-3.2c-0.6,1-1.3,1.8-1.6,2.9c-0.4,1.5-0.5,3.1-0.7,4.4c1.2,0.5,2.2,1,3.1,1.4
	c-0.7,0.9-1.4,1.7-2,2.7c-0.9,1.5-1.8,3-2.8,4.8c2.3,0.4,3.7,0.7,5.2,0.8c1.1,0.1,2.2-0.2,3.2-0.4c1.7-0.3,3.5-0.5,5.2-1.1
	c1.6-0.5,3.8-0.9,4.7-2.1c2-2.7,3.4-5.9,5.3-9.4C528,633.2,521.6,636.8,516,636.8z M288.7,700.1c0.3-0.2,0.6-0.4,0.9-0.6
	c-1.3-2.8-2.7-5.6-3.9-8.4c-1.5-3.5-3.7-6.7-2.1-11c1-2.7-1.3-3.1-3.1-2c-3.9,2.2-6.9,0.7-10-1.7c-1.1-0.9-2.5-1.4-4.3-2.3
	c1,5.1,1.6,9.3,2.7,13.3c0.3,1,2.3,2.1,3.5,2.2c5.2,0.1,9,2.6,12.3,6.3C285.9,697.3,287.3,698.6,288.7,700.1z M632.7,683.6
	c0.1-1.5,0.6-3.3,0.4-5.2c-0.3-3.9,0.8-6.8,4.3-9c1.5-0.9,2.6-2.7,3.6-4.3c0.4-0.6,0.3-2.2-0.2-2.5c-0.6-0.4-2.1-0.4-2.6,0.1
	c-3.3,3-7.5,3.3-11.6,3.7c-4.6,0.4-5.4,1.2-5.4,5.8c0,1.3-0.3,2.6,0.1,3.8c0.5,1.6,1.3,3.6,2.5,4.3
	C626.3,681.8,629.3,682.4,632.7,683.6z M677.3,710.6c4.2,0,8.6,0,13,0c2.2,0,2.4-1.1,1.9-3c-1-3.6-1.7-7.2-2.7-10.8
	c-0.2-0.8-1.5-1.9-2.2-1.8c-3.1,0.2-6.4,0.5-9.3,1.5c-1.7,0.6-4.1,2.8-3.9,3.9C674.6,704.1,676.2,707.5,677.3,710.6z M682.1,538
	c-0.8-0.9-1.7-1.7-2.3-2.7c-2.1-3.6-7-4.6-10.3-2c-2.8,2.2-4.5,9.8-2.8,12.9c1.5,3,4.9,4.2,6.7,2.2
	C676.3,545.1,679.1,541.6,682.1,538z M357.5,661.3c-0.4-0.6-0.9-1.5-1.5-2.3c-0.6,0.5-1.6,1-1.7,1.6c-0.7,5.3-4.7,7.6-8.6,10.3
	c-2.5,1.8-4.8,4-6.9,6.3c-0.5,0.6-0.1,2-0.1,3.1c0.9-0.1,2,0.1,2.6-0.4c2.3-1.9,4.4-1.3,6.6-0.1c4.1,2.3,5.6,1.4,6.2-3.1
	c0.6-4.3,1.8-8.4,2.8-12.7C357.1,663.2,357.2,662.5,357.5,661.3z M498.1,636.7c-2.6,2.4-3.8,4.4-1.9,7.7c1.6,2.7,2.1,6,3.4,8.9
	c0.3,0.8,1.3,1.4,2.1,1.8c0.3,0.1,1.4-0.7,1.5-1.3c1.2-4.4,2.3-8.7,3.2-13.2c0.2-0.9-0.6-2.2-1.3-2.8c-0.4-0.4-1.7,0.2-2.6,0.5
	c-0.7,0.2-1.2,0.7-1.9,1.2C499.8,638.6,499,637.8,498.1,636.7z M495.8,678.2c3.1-1.7,4.2-0.1,5.2,2.7c0.5,1.3,1.9,2.6,3.2,3.3
	c0.6,0.3,2.3-0.8,2.9-1.7c1.5-2.2,2.7-4.7,4.5-7.9c-2,0-3.6-0.2-5.1,0c-3.4,0.5-6.8,3.4-10-0.5c-0.3-0.3-1.4-0.5-1.7-0.2
	c-0.4,0.4-0.8,1.3-0.7,1.9C494.4,676.4,495.1,677.1,495.8,678.2z M472.3,636.5c0.8,0.7,1.7,1.4,2.7,2.2c-1.2,0.8-2.1,1.4-3,2
	c7.2,3.7,15.2,1.6,15.3-2.9c-2.1-1.2-3.5-2.2-5.2-2.9c-1-0.4-2.2-0.7-3.2-0.5C477,634.8,475,635.6,472.3,636.5z M679.9,551.2
	c-3.1,2.5-2.6,4.7,2.8,10C681.8,558,680.9,554.9,679.9,551.2z M682,548.7c1.5-1.1,2.7-1.6,3.5-2.5c0.6-0.6,0.9-1.6,1-2.5
	c0-0.3-1-1.1-1.2-1.1c-0.8,0.4-1.9,0.9-2.3,1.7C682.5,545.4,682.4,546.9,682,548.7z M417,577.1c-0.2,0.5-0.3,0.9-0.5,1.4
	c2.2,0.9,4.4,1.9,6.6,2.8c0.2-0.6,0.4-1.1,0.6-1.7C421.5,578.8,419.2,578,417,577.1z M662,538.9c-0.5-0.1-1-0.3-1.5-0.4
	c-0.3,1.7-0.7,3.4-0.7,5.1c0,0.4,1.2,0.8,2.2,1.4C662,542.4,662,540.7,662,538.9z"/>
<path d="M323.6,550.4c0.2-1.6,0.3-3.2,0.4-4c-1.7-0.4-4.7-0.9-4.7-1.3c0-2.2,0.8-4.4,1.5-7.2c3.2,1.9,5.3,3.3,7.5,4.6
	c0.3-0.2,0.6-0.3,0.9-0.5c-0.6-1.1-1.2-2.1-1.8-3.1c2.6-0.8,4.1,0.4,6.3,5.2c-0.1,0.2-0.2,0.5-0.4,0.6c-0.9,1-1.9,1.9-2.9,2.9
	c0.7,0.6,1.4,1.8,2,1.7c1.8-0.2,4.2-0.4,5.1-1.6c2.6-3.4,1.1-10.6-2.5-12.8c-1.3-0.8-3.9-1.2-4.8-0.4c-2.6,2.2-4.2,1.4-5.6-1.3
	c-1.1,1-1.9,1.7-2.7,2.4c-2.1-2-2.3-6.4-0.5-9.2c0.5-0.7,1-1.4,1.3-2.1c3.5-8.4,8.5-15.9,15.4-21.8c2.2-1.8,5-5.6,9.2-1.3
	c1.3,1.4,5.3,0.3,8.1,0.3c6,0.1,12.1,0.1,18.1,0.1c1,0,2-0.5,3.1-0.8c0-0.4-0.1-0.8-0.1-1.2c-4.5-0.3-9-0.7-13.9-1.1
	c6.1-2.6,15.2-1.3,18.2,2.5c-1.1,0.7-2.1,1.4-3.2,2.1c0.1,0.4,0.3,0.8,0.4,1.2c1.2-0.3,2.6-0.4,3.4-1.1c2.8-2.5,4.9-2.1,7.9,0
	c7.3,5.3,12.4,12.3,17.1,19.8c0.6,1,0.2,2.7,0.3,4c-0.3,0.1-0.7,0.2-1,0.2c-2.3-3.7-4.5-7.3-6.8-11c-0.6,2.5-1.4,4.7,1.2,6.6
	c1.5,1.1,2,3.7,2.7,5.7c1.1,3.5,2.1,7.1,3,10.6c0.5,2,0.5,4.1,0.8,6.1c-0.5,0.1-1,0.2-1.6,0.3c-0.5-1.6-0.9-3.1-1.7-5.7
	c-1,2-1.7,3.2-2.5,4.6c-0.5,0-1.4-0.1-2.6-0.2c0.2,0.8,0.1,1.6,0.4,1.6c1,0.4,2.2,0.5,3.2,0.9c0.8,0.4,1.9,0.9,2.2,1.7
	c1,2.7-3.7,7.3-6.8,6.7c1.5-1.9,3.1-3.8,4.6-5.7c-0.4-0.3-0.7-0.7-1.1-1c-1.5,1.3-2.9,2.6-4.5,4c-0.7-0.4-1.7-0.9-3-1.6
	c0,1.9,0,3.5,0,5.1c-0.2,0.1-0.5,0.2-0.7,0.2c-0.5-0.8-0.9-1.6-1.4-2.3c-0.6-0.8-1.3-1.5-2-2.3c-0.3,0.9-0.6,1.8-0.9,2.7
	c-0.2,0.5-0.3,1.1-0.6,1.9c-4.6-2.1,2.1-4.7-1.9-7c-2,1.8-4.4,4.1-6.8,6.3c-0.4-0.4-0.7-0.8-1.1-1.3c2.2-2,4.4-4.1,6.5-6.1
	c-0.1-0.3-0.3-0.7-0.4-1c-1.7,0.1-3.3,0.1-5,0.3c-4.8,0.7-9.7,1.7-14.5,0.2c-2.6-0.8-4.7-0.1-6.6,1.7c-1.5,1.4-2.7,1.4-4.7,0.6
	c-1.3-0.5-3.4,0.3-5,0.9c-1.7,0.6-3.3,1.9-5,2.3c-2.7,0.6-5.5,0.5-8.2,1c-2,0.4-3.4,1.6-1.6,3.8c1.1,1.3,2.3,2.5,3.4,3.7
	c-0.1,0.3-0.3,0.6-0.4,0.9c-1.3-0.4-2.6-0.8-4-1.3c-0.6,0.4-1.5,1-2.3,1.6c-0.2-0.2-0.5-0.3-0.7-0.5c0.5-1,1.1-2,2.1-3.9
	c-2.3-0.1-4-0.2-6.3-0.3c0.6,1.8,0.9,2.8,1.5,4.7c-2.3-1-4.1-1.8-5.8-2.6c-0.2,1.4-0.5,3-0.7,4.5c-0.4,0-0.9,0-1.3,0
	c-0.2-2.3-0.7-4.6-0.5-6.8c0-0.6,2.1-1.2,3.3-1.3c0.8-0.1,1.7,0.8,2.3,1.1c1.9-1.7-3.2-4.6,2.8-4.7c-1.5-1.3-2.4-2.1-3.2-2.8
	L323.6,550.4z M376.8,538.9c-0.3,0.1-0.7,0.2-1,0.3c-2.3,1.2-4.8,3.6-6.4-0.8c-0.1-0.3-1.1-0.4-1.7-0.4c-1.7,0.1-3.4,0.3-5.3,0.5
	c-0.5,0.6-1.1,1.4-1.9,2c-0.2,0.1-1-0.6-1.5-0.9c0.6-0.8,1.4-1.5,1.6-2.4c0.3-0.9,0.3-2.1-0.1-2.9c-0.6-1.2-1.7-2.1-2.9-3.5
	c-0.9,0.8-1.8,1.7-2.9,2.4c-0.6,0.4-1.6,0.2-2.3,0.3c0-0.7-0.1-1.5,0.1-2.2c0.2-0.5,0.7-0.9,0.8-1c-0.7-1.4-1.2-2.5-1.7-3.5
	c1.4,0,2.7,0,4.5,0c-0.3-1.2-0.7-2.8-1.1-4.8c4.6,1.3,5.1-2.1,6.8-4.7c-1.9,0.1-3.5,0.2-5,0.3c0.5-1.1,0.9-2.2,1.8-4.3
	c-1.7,0.8-3.2,1-4.1,1.8c-4.3,4.4-8.6,8.8-12.6,13.5c-2.2,2.6-1.4,5.7,1.1,8c1.8,1.7,3.3,3.7,5.2,5.3c1.7,1.4,3.8,3.2,5.8,3.3
	c6.2,0.2,12.5-0.2,18.7-0.5c2.7-0.1,5.6-0.2,8.2-0.9c1.5-0.4,2.6-2.2,3.9-3.4c-0.4-0.5-0.8-0.9-1.2-1.4c-1,0.8-2,1.7-3.1,2.3
	c-1,0.5-2.2,0.5-3.3,0.8C377.1,541,377,540.1,376.8,538.9z M343.8,548.1c0.5-0.2,0.9-0.3,1.4-0.5c-0.3-1.6-0.4-3.3-1-4.8
	c-0.2-0.6-1.5-0.8-2.3-1.2c-0.2,0.8-0.9,1.9-0.6,2.5C341.9,545.5,343,546.8,343.8,548.1z M390.5,539.9c0.6,0.4,1.2,0.8,1.7,1.2
	c1-1.5,2-3.1,3-4.6c-0.5-0.3-1-0.7-1.4-1C392.8,537,391.6,538.4,390.5,539.9z"/>
<path d="M492.3,581.1c6.6-1.9,13.3-3.9,20.2-5.9c0.3-4.6-5.5-3.7-7.2-7c1.9-1.6,3.7-3.2,6.1-5.2c0.2,2,0.3,3.2,0.5,5.1
	c2.1-1.4,3.9-2.7,5.6-3.9c0.3,0.3,0.7,0.6,1,0.9c-0.8,1.2-1.7,2.3-3.2,4.5c1.8-0.3,3.2-0.2,4.2-0.7c1.1-0.5,2.3-1.4,2.9-2.4
	c1.8-3.2,3.6-2.6,4.9-0.8c1.8-1.8,3.3-3.6,5-5.2c0.7-0.7,1.7-1.3,2.6-1.8c0.6-0.3,1.7-0.7,1.9-0.4c3.3,3.5,8.4,4.8,10.6,10
	c1.9,4.4-0.1,7.3-1.7,10.7c5.2,2.1,7.7,0.7,7.3-4.4c-0.7-8.5-2.3-16.8-7.6-23.9c-2.3-3.1-4.6-6.3-6.8-9.5c-0.5-0.7-0.8-1.6-1.2-2.4
	c0.4-0.3,0.7-0.6,1.1-0.8c1.9,1.9,4,3.8,5.8,5.9c5.5,6.8,8.9,14.7,11.4,23c0.7,2.3,0,5.1,0.6,7.5c0.4,1.9,1.3,4.5,2.8,5.1
	c1.4,0.7,3.8-0.7,5.8-1.1c1.7-0.4,3.5-0.9,5.2-0.9c1.8,0,3.6,0.4,5.4,0.6c0-0.4,0.1-0.8,0.1-1.2c-1.1-0.3-2.2-0.5-3.3-0.8
	c0-0.4,0-0.8-0.1-1.2c1.6-0.1,3.2-0.3,5.8-0.5c-9.2-29.9-6.8-58.8,8-87.3c2.4,3.8-0.2,5.8-1,8.1c-1.9,5.3-4.7,10.5-5.8,16
	c-1.7,8.2-2.9,16.7-3.3,25.1c-0.5,9.6,0.3,19.2,3.7,28.3c1.2,3.3,3.7,5.2,7.1,6.3c-0.6-0.7-1.2-1.4-2.1-2.5c1-0.8,2-1.6,2.9-2.4
	c1.3-1.1,2.5-1.7,3.7,0.3c0.4,0.6,1.6,0.6,2.4,0.9c0.1-0.4,0.2-0.7,0.4-1.1c-0.8-0.6-1.7-1.2-2.5-1.9c0.1-0.3,0.2-0.7,0.3-1
	c2.3,0.6,4.7,1.1,7,1.7c0.1-0.3,0.2-0.6,0.3-0.9c-0.9-0.6-1.8-1.2-3-1.9c2.2-2.7,4.2-0.4,6.2-0.2c2,0.2,3.9,0.6,5.9,0.9
	c0.3-0.5,0.6-1,0.9-1.5c-1-0.6-2.1-1.2-4.1-2.2c2-0.6,2.9-0.8,3.9-1.1c1.7-0.5,3.5-0.8,5-1.6c4.6-2.3,4.6-2.4,5.5,2.7
	c0.4-0.5,0.8-0.8,0.9-1.2c0.4-1.2,0.8-2.4,1.2-3.6c0.9,0.8,1.6,2.1,2.6,2.4c3.2,1,6.4,1.8,9.7,2.5c1.5,0.3,3-0.1,4.9-0.2
	c2-1.3-2.1-5.7,2-5.8c2.5-0.1,4.6,2.1,4.2,5.5c2.1,0,4.1,0,6.1,0l-0.1-0.1c-1.2,2-2.4,4-3.9,6.3c0.4,0.3,1.4,0.9,2.4,1.6
	c-0.1,0.3-0.1,0.8-0.3,1c-1.2,0.9-3.4,1.6-3.6,2.6c-0.9,4.4-1.7,8.9-1.6,13.3c0,1.6,2.3,3.5,3.9,4.7c2,1.5,4.5,2.5,7.2,3.9
	c-0.2-0.8-0.2-1.9-0.8-2.5c-2-1.8-4.3-3.3-6.3-5.2c-0.6-0.6-0.6-1.8-0.8-2.7c0.8,0.2,1.9,0.1,2.4,0.6c2,2,3.8,4.1,6.9,1.5
	c0.3-0.2,1.1,0.1,1.8,0.2c-1,1.5-1.7,2.8-2.5,4.1c0.3,0.3,0.6,0.6,1,1c1.8-1.4,3.5-2.9,5.7-4.6c-0.9-0.5-1.7-0.8-2.1-1.3
	c-0.3-0.5-0.2-1.2-0.3-1.9c0.6,0,1.3-0.2,1.7,0.1c1.6,1.2,3.1,2.5,4.6,3.7c-1.9,1.1-3.7,2.2-5.2,3.1c1.8,2.3,3.1,4,4.6,5.9
	c1.3-1.6,5-2.4,1.5-5.9c-0.7-0.7-0.7-2.1-1-3.2c1.5,1.6,4.5,3.5,4.3,4.9c-0.3,2.6-2.5,5-4.4,8.2c-3.3-5-5.7-2.4-7.9-0.7
	c-2.6,2.1-4.9,4.5-8.1,7.4c-3.1-4.1-5.8-7.5-8.5-11c0.5-0.4,1-0.8,1.4-1.2c2.1,3,4.3,6,6.8,9.5c1.1-2,2-3.4,3.2-5.5
	c-3.2-2.4-6.3-4.8-9.5-7.1c-0.4-0.3-1.6-0.3-1.7-0.1c-2.6,5.7-4.8-0.8-7.9,0.8c1.6-2.6,2.5-4.1,3.9-6.4c-1.9,0.9-3,1.4-4.2,2.1
	c-0.7-0.9-1.3-1.7-2.4-3.2c0.2,1.3,0.3,1.8,0.3,2.3c-0.1,0.9-0.2,1.8-0.3,2.8c-0.9-0.6-1.8-1.1-2.5-1.8c-0.3-0.4-0.2-1.2-0.1-1.8
	c0.3-5.2-0.1-4.2-4.7-5.6c-5.6-1.7-10.9-2.5-16.7-1.7c-2,0.3-4.2-1.3-6.6-2.1c-0.3,4.4-2.8,3.5-5.1,2.8c0,3.1,0,3.1-5.5,3
	c2.4,3.3,4.2,5.9,6.3,8.4c2,2.4,4.4,4.5,6.3,7c4.9,6.5,3.1,15.4-3.4,20.2c-4.4,3.2-8.6,6.8-12.7,10.5c-4.5,4.1-9.8,4.8-14.8,1.5
	c-0.4-0.3-0.6-1-1.6-2.5c7.1,1.9,11.9-1,15.6-5.5c5.1-6,9-12.9,6.6-21c-1.4-4.7-4.7-8.8-7.2-13.1c-0.2-0.3-1-0.6-1.3-0.4
	c-2.8,1-3.2-0.9-3.8-2.8c1.9-0.7,3.7-1.3,6.7-2.4c-2.2-1.4-3.3-2.1-5.1-3.2c-0.6,2.3-1,4-1.5,5.7c-0.6,1.3-1.2,2.6-2.3,4.9
	c-0.2-0.1-1.8-0.1-2.4-0.9c-1-1.3-1.6-3.1-3.3-1.5c-0.7,0.6-0.1,2.6-0.1,4.5c-0.6-0.1-1.7-0.4-2.9-0.5c-2.7-0.4-5.5-0.6-8.2-1
	c-1.4-0.2-2.7-0.4-4-0.9c-2.7-1-5.3-2.1-8-3.1c-0.7-0.2-1.9,0.2-2.2-0.2c-1.8-2.8-4.6-1.4-6.9-1.6c-2.1-0.2-4.2,0.3-5.1-2.5
	c-0.1-0.4-1.1-0.8-1.6-0.7c-4.6,0.5-8.4-1.8-12.4-3.6c-2.7-1.3-5.5-2-6.9,2.1c-0.4,1-1.9,1.7-2.9,2.5c0.1,0.3,0.3,0.6,0.4,1
	c2.1-0.7,4.3-1.2,6.2-2.1c2.8-1.4,2.8-1.5,3.9,2.2c-1.4,0-2.7,0-4,0c0.1,3.7-2.2,4.7-6.5,2.3c-3.1-1.7-5.7-3-9.1-0.2
	c-2.2,1.9-7.9,0.1-9-2.2C492.4,581,492.3,581.1,492.3,581.1z M634.8,567.2c1.7-1.1,3.3-2.1,5.1-3.2c-1-1.4-1.6-2.1-2.2-3
	c-2.9,1.9-5.5,2.8-8-0.4c-0.5-0.6-2.2-0.8-3-0.5c-2.5,0.9-4.9,2.2-7.3,3.4c0.1,0.4,0.2,0.8,0.4,1.3c1.5-0.4,3.1-0.6,4.5-1.3
	c3.8-1.9,9.7,0.2,10.6,3.9c-3-0.5-6-1-9.9-1.6c2.5,2.7,4.3,4.7,6.6,7.2C632.7,570.9,633.8,569,634.8,567.2z M601.7,568.6
	c0,0.8,0,1.5,0,2.3c1.7,0.2,3.4,0.2,5,0.6c1.7,0.5,3.3,1.3,5.3,2.1c-0.3-1.2-0.5-2.2-0.7-3.3c0.3-0.3,0.6-0.7,0.8-1
	c2.4,1.5,5.5,2.4,7,4.5c1.3,1.9,2.1,2.6,4.3,2.3c1.1-0.1,2.4,0.7,3.6,0.7c1,0,2-0.6,3-0.9c-0.5-1.1-0.8-3-1.6-3.2
	c-4.7-1.1-9.1-2.8-11.3-6.3C611.4,567.2,606.5,567.9,601.7,568.6z M545.5,577.3c-2.1-3.3-4-6.3-6.4-9.9c-2.1,3.2-3.6,5.4-5.4,8
	C537.6,576.4,540.5,579.5,545.5,577.3z M637.8,577.5c4.2-4.3,4.2-4.3,3.2-7.4c-0.3-0.8-1.1-1.3-1.7-2c-0.3,0.9-0.6,1.8-0.7,2.8
	c-0.1,0.8,0.1,1.5,0.3,2.9c-1.4-0.8-2.1-1.3-2.9-1.7c-3.6,3.5-2.5,7.4,3.3,9.8C638.7,580.1,638.3,578.8,637.8,577.5z M536.9,564.9
	c-3.3,2.2-6.2,4-9,5.9c-0.6,0.4-1,1.3-1.5,1.9C530.2,574.8,532.5,573.1,536.9,564.9z M521.1,570.5c0.1,0.3,0.3,0.7,0.4,1
	c1.4-0.5,2.9-0.8,4.2-1.5c0.6-0.4,0.9-1.4,1.4-2.1c-0.9,0-1.9-0.2-2.7,0.2C523.1,568.7,522.1,569.7,521.1,570.5z"/>
<path d="M476.1,414.4c0-3.6,2.2-7.2,0.4-10.8c-0.7-1.3-1-2.9-1.9-3.9c-1.7-1.9-4-3.3-2.3-6.4c0.2-0.4-0.5-1.7-0.9-1.7
	c-0.7-0.1-2,0.2-2.3,0.7c-1.5,2.5-3.7,3-6.4,3.6c-5.5,1.1-7.6,4.1-6.1,7.5c0.8,1.9,1.9,3.7,3.1,5.5c2.1,3.3,4.6,6.4,6.5,9.8
	c1.3,2.4,1.8,5.2,2.9,8.5c-6.7-2.9-7.9-4-7.7-6.5c0.9,0.4,1.8,0.7,2.7,1.1c0.3-0.2,0.6-0.3,0.9-0.5c-0.8-1.7-1.7-3.4-3-6
	c-0.8,2-0.9,3.1-1.5,3.8c-1.2,1.3-2.6,2.1-3.9-0.1c-0.8-1.4-1.8-2.7-2.5-4.2c-0.8-1.5-1.3-3.1-1.9-4.7c3-1.2,3.3-1.2,3.9,2.3
	c0.4,2.4,1.1,3.8,4.2,2.6c-1.7-2.7-3.1-5.5-4.9-7.9c-0.8-1-2.5-1.2-3.8-1.7c0.9-1.3,1.8-2.6,2.5-4c0.3-0.5,0-1.2-0.1-1.9
	c-0.6-3.3,1.5-4.3,4-5.3c3.6-1.4,7.3-2.9,10.7-4.8c3.3-1.9,6.2-1.4,9.2,0.3c2.7,1.6,5.1,1.3,6.9-1.3c1.2-1.7,1.7-3.4-0.9-4.6
	c-0.8-0.3-1.2-1.5-2-2.6c1.3-0.5,2.4-0.7,3-1.3c0.6-0.7,1.2-2.4,0.9-2.6c-3.1-2.2-4.1-7-8.7-7.2c-1.3-0.1-2.7,0.5-4.1,0.8
	c0.5,1,1.2,1.9,1.3,2.9c0.3,1.7,0.7,3.7,0.1,5c-0.7,1.3-2.7,2-4.6,2.6c2.8-2.8,2.6-5.2,0.1-7.9c-2.4-2.7,0.7-10,4.5-11.7
	c4.7-2,9.2-4.3,13.9-6.4c1-0.5,2.3-0.5,3.4-0.7c0.1,0.4,0.2,0.8,0.4,1.2c-1,0.5-2,1.1-2.2,1.2c-0.6,2.5-0.9,4.6-1.5,6.4
	c-1.5,4.1-2.6,4.2-5.7,1.4c-0.8-0.7-2.1-0.9-3.2-1.3c-0.1,0.4-0.3,0.7-0.4,1.1c1.8,1.6,3.5,3.5,5.6,4.7c0.9,0.5,2.7-0.6,4-1.2
	c1.7-0.8,3.6-2.9,4.9-2.6c1.4,0.4,2.4,2.9,3.4,4.5c0.5,0.8,0.7,1.8,1.1,2.7c0.3-0.1,0.7-0.2,1-0.3c0-0.9,0.2-2-0.2-2.7
	c-2.3-3.4-1.5-8.1-5-10.9c-1.5-1.2-0.5-3.6,1.6-3.9c1.1-0.1,2.2,0.3,3.2,0.5c3.3-4.5,8.2-5,12.1-1.4c0.5,0.5,1.6,0.8,2.3,0.6
	c4.6-1.3,8.2,0.5,11.7,3.3c1.7,1.4,4.1,2,6.2,2.9c2.6,1.1,5.2,2.1,7.8,3.2l-0.1-0.1c-0.1,2.5,0.3,5.2-0.6,7.4
	c-1.2,2.8-3.4,5.3-5.3,7.8c-0.1,0.2-1.8-0.3-1.8-0.6c-0.3-1.7-0.4-3.4-0.4-5.2c0-0.1,1.3-0.4,1.9-0.3c0.7,0.1,1.3,0.5,1.9,0.8
	c0.3-0.3,0.6-0.6,1-0.9c-1.2-1.5-2.1-3.8-3.6-4.4c-3.1-1.2-6.6-1.4-9.3,1.6c-1,1.1-1.7,2.5-2.8,3.5c-0.6,0.6-1.6,0.8-2.5,1.1
	c0-0.9-0.3-2.1,0.1-2.6c2.4-2.5,4.9-4.7,7.4-7.1c0.7-0.7,1.4-1.3,2.5-2.2c-2-1.1-1.7-5.2-5.6-3c0.4,0.9,0.8,1.8,1.2,2.8
	c-2.3,1.8-4.3,3.9-6.4-0.3c-1-2-3-3.6-4.8-5.1c-0.6-0.5-2.8-0.1-2.9,0.3c-1,3.3-1.8,6.6-2.4,10c-0.1,0.7,0.5,1.6,0.8,2.5
	c1.4-2,2.5-4,4-5.5c0.7-0.6,2.7-0.6,3.6-0.1c1.1,0.7,2,2.3,2.4,3.6c0.2,0.7-0.7,2.1-1.5,2.5c-2.9,1.6-5.2,3.4-4.4,7.3
	c5.5-1.8,5.4-1.8,6.2,3.8c0.3,2,0.8,4,1.6,5.8c1.1,2.6,3.2,3.3,5.9,2.8c1.1-0.2,2.4-0.1,3.2,0.5c0.5,0.3,0.2,1.8,0.3,2.8
	c-1,0-2.1-0.2-3.1,0.1c-2.7,0.8-6.3-1.4-8.2,2.4c-0.2,0.5-1.5,0.7-2.3,0.6c-0.4-0.1-0.8-1.2-0.8-1.8c0-1.3,0.2-2.7,0.4-4.6
	c-2.5,1.6-4.9,3.4-4.6-1.3c0.1-0.8-1.2-1.6-2.3-2.3c2.5,6,1.1,11.7-0.3,17.5c-0.3,1.2-1.1,2.3-1.6,3.4c-0.8-0.9-1.5-1.8-2.3-2.7
	c-0.2-0.3-0.5-0.5-1.8-0.5c0.3,1.2,0.5,2.4,0.9,3.6c0.6,1.9,1.8,3.7,1.8,5.6c-0.1,5.1-1.4,10.3,2.8,14.1c1.6,0.4,3.2,0.8,4.6,1.2
	c1.3-4.3,2.7-8.9,4-13.7c0.2-0.8-0.2-2-0.8-2.7c-3.1-3.6-4.7-7.7-4.5-12.4c0-0.9,0.8-1.8,1.2-2.7c0.6,0.7,1.2,1.3,1.7,2
	c0.9,1.5,1.9,2.9,2.6,4.5c0.7,1.8,1.4,3.7,1.6,5.6c0.5,3.6,2.4,6.2,5,8.5c-0.2-2.5-0.4-5-0.6-7.5c0.6-0.1,1.1-0.3,1.7-0.4
	c1.2,2.9,2.5,5.9,3.8,9.1c-1.8,0.5-3,0.5-3.8,1.1c-4.5,2.8-4.6,2.9-0.3,8.2c1.4,1.7,1.4,2.3-0.1,3.9c-0.9,0.9-1,4.1-0.3,4.8
	c2.7,2.4,2,4.6,0,6.5c-2.3,2.3-5.8,1.7-7.6-0.9c-0.2-0.3-0.5-0.5-0.8-0.8c-1.3,2.4-2.7,4.6-3.7,7c-1.1,2.4-2.6,4-4.8,4.9
	c-0.3-0.2-0.5-0.5-0.8-0.7c0.6-0.8,1.2-1.6,1.3-1.6c-1.4-6.9-2.6-13.2-3.9-19.5c-0.7,7.5-0.4,15.3-6.3,21.1
	c-0.7-1.4-1.4-2.7-2.1-4.1c-0.4,0-0.7,0.1-1.1,0.1c0.7,4-1.2,6.1-5.7,7.4c1.8-3.5,3.3-6.1,4.5-8.9c1-2.6,1.5-5.3,2.5-8
	c0.3-0.7,1.2-1.2,1.9-1.8c0.2,1,0.4,2,0.5,2.9c0,0.2-0.4,0.4-0.4,0.6c-0.2,0.8-0.4,1.6-0.5,2.4c0,0.2,1.1,0.6,1.2,0.5
	c0.6-0.7,1.5-1.4,1.6-2.2c0.2-3.7,0.1-7.4,0.1-11.4c-0.9,1.3-1.6,2.3-3,4.4c-0.7-2.2-1.6-3.5-1.4-4.7c0.2-0.9,1.9-1.4,2.7-2.4
	c0.9-1.1,1.9-2.3,2.3-3.7c0.4-1.2,0-2.8,0.4-4c1.4-3.9,1.3-6.9-1.7-10.6c-2.1-2.6-1.5-7.4-2.1-11.1c-0.3-1.9-1-3.9-0.7-5.7
	c0.3-1.7,1.6-3.2,2.4-4.8c0.5-1,1-1.9,1-3.2c-1.8,0.9-2.3,4.5-4.9,2.3c-2-1.6-2.1-4.1-0.3-6.6c0.9,0.8,1.6,1.5,2.6,2.4
	c0.1-3.6-2.6-8-5.7-9.3c-1.1-0.5-2.4-0.3-3.5,0.2c1.5,0.8,3.2,1.5,4.5,2.6c0.5,0.4,0.7,2,0.3,2.6c-2.2,3.3-2.5,5.9,0.7,9
	c3.6,3.5,1.9,11-2.8,12.3c0-3.8,0-7.6,0-11.9c-6.4,7.2-11.3,8.3-15.2,3.7c0.4,1.5,0.3,3.4,1.2,4.4c2.2,2.6,4.8,4.8,3.8,8.8
	c-0.1,0.3,0.3,0.7,0.5,0.9c1,0.8,2.9,1.4,3,2.3c0.4,2.8,0.2,5.7,0,8.5c0,0.3-2.4,0.8-3.2,0.4C478.2,416.9,477.2,415.5,476.1,414.4
	L476.1,414.4z M516.1,432.9c0.4-0.9,0.7-1.9,1.2-2.7c2.5-4.1,2.5-4.1-2-6.3C515.6,427,515.8,430,516.1,432.9c-1.5,6-1.2,6.5,5.3,9.3
	c-0.7-1.4-1-2.8-1.4-2.8c-5.2-0.2-3.3-2.2-1.3-4.5c0.4-0.5,0.5-1.3,1-2.6C518,432.6,517,432.8,516.1,432.9z M507.5,431.5
	c-0.3,0-0.6,0-0.8,0c0,2.6,0,5.1,0,8c1.2-0.8,2-1.3,3.4-2.2c0.6,1.2,1.2,2.4,1.7,3.6c0.3-0.3,0.7-0.5,1-0.8
	c-0.1-2.6-0.3-5.2-0.4-7.8c-0.3,0-0.6-0.1-0.9-0.1c-0.7,0.9-1.4,1.8-2.3,2.9C508.5,433.7,508,432.6,507.5,431.5z M506.2,373.6
	c-0.4-0.4-0.9-0.8-1.3-1.2c-0.6,1.1-1.2,2.1-1.8,3.1c-1.2-0.5-2.2-0.9-3.3-1.4c0,3.2,0,5.9,0,8.7c0.3,0.1,0.7,0.3,1,0.4
	C502.6,379.9,504.4,376.8,506.2,373.6z"/>
<path d="M568.5,320.2c0.9-1.9,1.5-3.9,2.7-5.6c1-1.5,2.6-3.5,3.8-3.5c1.3,0,3.2,2.1,3.6,3.7c2,6.6-0.6,13.2-6.4,16.7
	c-2.9,1.8-6,2.3-8.9-0.6c-1.3-1.3-3.2-1.9-4.7-3.1c-0.8-0.6-1.2-1.8-1.8-2.7c1.2-0.1,2.5-0.6,3.4-0.2c1.4,0.7,2.4,2.3,3.9,2.9
	c1.8,0.8,4.4,1.9,5.7,1.2c2.5-1.5,6.5-2.2,5.7-6.9c-0.4-2.3,0.2-4.9,0.4-7.9c-2.7,3.2-4.6,5.7-6.8,7.8c-0.6,0.6-2.4,0.6-3.2,0.1
	c-2.6-1.7-5.1-3.7-7.4-5.9c-0.8-0.7-1.2-2.7-0.8-3.6c3.8-8.5,7.9-16.9,11.8-25.3c2.1-4.4,3.7-9,6.1-13.2c1.8-3.3,4.4-6.1,6.5-9.2
	c0.9-1.3,1.4-2.8,1.9-3.7c3.1-1.7,6.2-3.3,9.1-5.2c4.7-3,7.2-7.3,7.4-12.9c0.1-1.2,0.9-2.3,1.1-3.5c0.2-1.2,0.5-2.5,0.1-3.6
	c-1.4-3.7-3-7.2-4.5-10.7c0,2.9-1.1,6.2,1.2,9.5c2.5,3.7,0.2,7.1-1.9,9.8c-2.4,3-4.3,7.4-9.6,6.7c-3.8-0.5-6.3-3.5-5.4-7.4
	c1-4.2,1.7-8-0.9-12.4c-2.4-4-2.8-9.1-4.7-13.4c-2.7-6-6-11.8-9-17.7c-1.8-3.6-3.4-7.2-5.1-10.9c-0.4,0.1-0.7,0.1-1.1,0.2
	c0.1,1,0,2.1,0.3,3c0.6,2.1,1.3,4.2,2,6.2c1,2.6,2.2,5.2,3.3,7.8c2.5,5.6,5.2,11.1,7.4,16.7c0.8,2,0.5,4.5,0.9,6.7
	c0.4,1.9,1.1,3.7,1.6,5.6c-0.6,1.2-1.3,2.6-1.8,4.1c-1,2.6-2.5,2.6-4.3,0.9c-4-3.8-8-7.6-12-11.4c-0.4-0.3-0.8-0.6-1.8-1.4
	c-0.1,1.4-0.5,2.5-0.2,3c2.5,3.2,5.1,6.3,7.7,9.3c1.8,2.1,4.2,3.7,3.5,7c0,0.2,0,0.6,0.2,0.7c5.2,3,1.3,7.8,2.1,11.6
	c0.4,1.9,0.4,3.8,0.5,5.9c-0.4-0.1-1.3-0.3-1.9-0.5c-1.6,3.2-3.1,6.2-4.5,9.2c-0.4,0.8-0.5,1.8-0.6,2.7c-0.1,0.8,0.1,1.8-0.3,2.5
	c-1.3,2.3-3.1,4.3-4.1,6.6c-3.8,8.5-7.1,17.3-13.2,24.6c-3.3,3.9-6.2,8-9.4,12c-0.5,0.6-1.2,1.1-2.3,2c-1-3.4,0.6-5.4,1.9-7.5
	c4.7-7.8,8-16,5.6-25.2c-1.3-4.8-3.4-9.4-5.2-14.1c-0.9-2.3-1.9-4.6-3-6.8c-0.5-1-1.4-1.7-2.1-2.5c-0.3,0.2-0.7,0.4-1,0.6
	c0.5,1.2,1.3,2.4,1.3,3.6c0,1.3-0.8,2.6-1.2,3.9c-0.7-1-2-1.9-2.1-2.9c-0.4-2.9-3.1-6.1,0.4-8.6c0.9-0.6,3.2-0.9,3.6-0.4
	c2.2,2.9,4.4,5.9,6,9.2c2.5,5.4,4.5,11,6.7,16.6c0.4,1,0.4,2.2,0.4,3.3c0,4,0,8,0,12.4c0.7-0.5,1.5-0.9,1.8-1.5
	c2.9-5.9,5.7-11.8,8.4-17.8c3.5-7.9,7.2-15.7,10.3-23.8c1.1-2.9,1.3-6.4,0.9-9.6c-0.7-5-2.5-9.5-6.4-13.3c-2.7-2.6-4.9-6-6.6-9.4
	c-0.6-1.2,0.9-3.8,2-5.4c0.3-0.5,3,0.1,4,0.9c3.9,3.4,7.5,7,11.8,11.1c0.5-1.7,1.3-2.8,1.2-3.8c-1.1-7.7-3.4-15-7-22
	c-3.2-6.3-5.2-13.1-7.7-19.7c-0.3-0.9-0.3-2.2,0.1-3c1-1.6,2.3-3,3.5-4.5c1.3,1.4,2.9,2.6,3.8,4.2c2.7,4.9,5,10,7.5,15
	c2.6,5.1,5.5,10,7.7,15.3c1.5,3.7,2.2,7.8,3,11.7c0.6,2.9,0.9,5.8,1.2,8.7c0.1,1.2-0.1,2.4-0.3,3.6c-0.1,1-0.7,2.7-0.4,3
	c1.2,0.8,2.8,1.6,4.1,1.3c3.5-0.6,8.4-7.6,7.8-11c-0.3-1.3-1.9-2.5-2-3.8c-0.3-3.5-0.4-7.1,0.1-10.5c0.2-1.3,2.9-3.4,3.5-3.1
	c1.6,0.7,4,2.8,3.8,4c-0.9,4.8,2.2,8.3,3.4,12.4c1.6,5.4-2.2,16.9-6.6,20.3c-6.4,5.1-13.9,9-17.8,16.7c-2.6,5.2-5,10.5-7.6,15.7
	c-1.9,3.9-4.2,7.7-5.9,11.6c-1.4,3-2.3,6.8-3.9,9.2c-5.1,7.4,3.1,7.3,4.5,10.9C567.7,320.3,568.1,320.3,568.5,320.2z"/>
<path d="M538.7,364.2c0.3-0.8,0.4-2.1,1-2.3c3.2-1.2,6.5-2.4,9.9-3c1.7-0.3,3.8,0.7,5.5,1.4c1.7,0.7,3.2,2,5,2.6
	c4.8,1.5,6.4,6.1,9.2,9.6c0.4,0.5,0.1,1.7-0.2,2.5c-0.6,1.8-1.3,3.6-1.9,5.4c0.3,0.2,0.6,0.3,1,0.5c0.7-1,1.4-1.9,2.9-4
	c3.4,10.6,5.7,20.3,4.5,31.3c1.3-0.4,2.5-0.7,3.4-1.2c5.3-2.6,16.1-0.4,19.3,4.2c0.8,1.2,1.4,3.3,0.8,4.4c-0.7,1.3-2.6,2.7-4,2.7
	c-10.2,0.4-16,6.9-21.2,14.5c-2.4,3.4-5.2,6.5-8.1,9.4c-2.4,2.3-7.2,0.8-7.8-2.8c-0.6-4.1,0.3-8.4,0.8-12.6c0.1-0.8,1.5-1.5,2.8-2.7
	c0.7,2.1,1.1,3.5,1.6,5c0.3,0,0.5,0.1,0.8,0.1c0.3-1,0.9-2,0.9-3c-0.2-4.2,0.9-5.7,5.3-7c0.4-0.1,0.7-0.6,1.1-0.9
	c0.7-0.5,1.4-1.1,2-1.6c0.2,1.1,0.5,2.2,0.6,3.4c0.1,2,0,4,0,6.7c2.6-1.6,4.7-2,2.7-5.1c-1.9-2.9-1-6.9,1.4-10c-1,0.2-2.1,0.2-3,0.6
	c-1.7,0.9-3.3,2-5,3c0.5-1.8,1.1-3.6,1.7-5.4c0.2-0.6,0.6-1.1,0.7-1.2c-1.1-1.3-2-2.3-2.9-3.3c1.1-0.8,2.3-1.6,3.7-2.5
	c0-1,0-2.5,0-3.9c-2,1.2-4.2,2.5-6.3,3.8c-0.2-0.4-0.5-0.7-0.7-1.1c0.9-1.3,1.9-2.6,2.8-3.9c-0.2-0.3-0.5-0.5-0.7-0.8
	c-1,0.9-1.9,2-3.1,2.6c-0.8,0.4-1.9,0.3-2.9,0.4c0.2-0.9,0.1-1.9,0.6-2.5c2.4-2.6,5-4.9,7.3-7.5c0.7-0.8,0.6-2.2,0.8-3.3
	c-0.9,0.5-2,0.9-2.8,1.6c-1.2,1-2.2,2.1-3.2,3.2c-0.4-0.4-0.9-0.7-1.3-1.1c1.3-1.7,2.5-3.4,4.1-5.5c-0.2-0.6-0.6-1.8-1.1-3.3
	c-3.7,3.8-4.9,10.4-12.3,9.6c0.4-1.1,0.4-2,0.9-2.5c2.7-2.7,5.6-5.2,8.4-7.9c4.6-4.4,2.7-11.5-4-13.9c1.5,2.3,2.9,4.1,3.9,6.2
	c0.4,0.8,0,2.3-0.6,3c-3,3.2-6.1,6.4-9.3,9.4c-0.5,0.5-1.7,0.3-2.6,0.4c0.4-0.8,0.6-1.8,1.1-2.5c2.6-3.1,5.3-6,7.9-9.1
	c0.5-0.6,0.6-1.6,0.9-2.4c-0.3-0.2-0.6-0.4-0.9-0.5c-2,2.5-3.8,5.1-6,7.3c-2.7,2.8-5.6,5.5-8.6,8c-0.6,0.5-2.2-0.3-3.3-0.5
	c0.5-0.9,0.8-2.2,1.6-2.6c4.4-2.2,8.1-4.8,9.8-9.8c0.5-1.6,2.2-2.9,3.3-4.3c-0.2-0.3-0.5-0.7-0.7-1c-0.8,0.6-1.7,1.1-2.3,1.8
	c-2,2.7-3.9,5.6-6.3,9.1c-0.9-1.8-1.2-2.6-1.6-3.5c-4.9,3.8-4.9,3.8-6.9,2.8c2.9-3.1,5.8-6.2,8.7-9.3c0.7,0.9,1.3,1.7,2.4,3.1
	c1.2-3.7,2.2-6.7,3.4-10.1c-2.6-0.2-4.9-0.5-8.3-0.8c1.6,1.9,2.5,2.9,3.3,3.8c-1.7,2.2-3.1,4.3-4.8,6.1c-0.8,0.8-2.2,1-3.4,1.5
	c0.2-1.2,0.2-2.4,0.8-3.5c0.7-1.5,1.8-2.8,3.2-4.8c-2.4-0.2-4-0.4-5.6-0.5C538.6,364.1,538.7,364.2,538.7,364.2z M561.9,431.5
	c-0.4,0-0.7,0.1-1.1,0.1c0,2.1-0.1,4.1,0,6.2c0.1,0.9,0.6,1.7,1,2.6c0.9-0.5,2.4-0.7,2.7-1.5c1.3-3,4-4.4,6-6.6
	c0.6-0.6,1.1-1.4,1.6-2.1c2.2-2.9-1.7-3.7-2-5.7c0-0.1-1.3-0.1-1.9-0.1c0.3,1.3,0.6,2.6,0.9,3.9c0.5,1.9,0.6,3.5-1.9,4
	c-1.2,0.2-2.2,0.9-3.5,1.5C563.1,432.9,562.5,432.2,561.9,431.5z M595.9,413.2c-1.9-1.3-4-2.6-6.9-4.5c2.3,7.4-3,4.6-5.2,5.6
	c-0.4,1.3-0.8,2.4-1.1,3.6c-0.6,0.4-1.1,0.8-1.7,1.2c-0.4-1.5-0.9-2.9-1.3-4.4c-0.5,0.2-0.9,0.5-1.4,0.7c0.1,2,0.3,3.9,0.4,5.8
	C584.5,418.7,589.8,416.1,595.9,413.2z M578.7,409.6c1,4.3,4.5,2.3,6.7,3.1c0.8,0.3,2.2-0.8,3.3-1.2c-0.5-0.6-0.9-1.2-1.4-1.9
	C584.6,409.6,581.9,409.6,578.7,409.6z"/>
<path d="M502.1,699.3c2.5,2.1,5,4.1,7.5,6.3c0.8,0.7,1.5,1.7,2,2.6c1.6,2.9,4.1,4.2,7.4,4.3c3.4,0.1,5.5-2,7.3-4.5
	c0.3-0.4-0.4-1.4-0.7-2.2c-0.5,0.4-1.2,0.7-1.5,1.2c-0.4,0.6-0.3,1.8-0.8,2c-1.3,0.6-2.8,0.9-4.2,1.3c0-0.8-0.3-1.7,0-2.5
	c0.1-0.3,1.3-0.2,1.7-0.6c1.5-1.4,2.9-3,3.8-4c2.1,0,3.8-0.3,5.3,0.1c2.4,0.7,4.7,1.7,6.9,2.8c2.9,1.5,5.3,1.6,7.1-1.9
	c2,1.7,3.7,4,7,1.8c-0.3,1.6-0.5,3.2-0.8,4.8c-1.4-0.5-2.8-1.1-4.3-1.5c-0.8-0.2-2.4-0.1-2.5,0.2c-0.9,2.5-1.5,5.2-2.1,7.8
	c-0.1,0.3,0.3,0.7,0.4,1c2.9,10,4.7,20.2,1.6,30.3c-1.6,5.3-4.8,10.1-7.5,15c-0.3,0.6-1.5,0.8-2.2,1.2c-0.1-0.9-0.6-2.1-0.2-2.7
	c4-5.8,6-12.2,6.3-19.3c0.3-6.4-1.1-11.9-6.1-16.3c-1.3-1.2-2.3-2.9-2.9-4.5c-1.7-4.4-4.2-5.7-8.4-3.4c-3.1,1.7-5.9,4.2-9.1,6.6
	c-1.3-3.1,1.7-5.1,2.5-7.7c0.3-1.1,0.9-2.2,1.3-3.3c-1.4-0.3-2.7-1-4.1-1c-6.6-0.2-13.2,0.1-19.7-0.5c-2.8-0.3-5.5-2.4-8.2-3.6
	c0.2-0.6,0.5-1.2,0.7-1.8c1.1,0.4,2.2,0.9,3.3,1.3c1,0.4,2,0.9,3.4,1.5c-1.1-2.6-1.7-4.1-2.4-5.6c2.7-0.6,5.3-1.3,8.8-2.1
	c-1-1.9-2.4-4.5-3.7-7.2c0.3-0.4,0.7-0.7,1-1.1c1.1,0.9,2.2,1.7,3.3,2.6c1,0.8,2,1.5,2.9,2.3C502.2,699.4,502.1,699.3,502.1,699.3z"
	/>
<path d="M515.3,497.8c0-2.1,0-4.1,0-5.5c-1.5-2.8-2.7-5.1-4.1-7.8c-2.4,3.3-5.9,2.6-9.5,0.7c-0.2-0.1-0.5-0.1-0.7,0
	c-4.1,2.1-5.4-0.1-5.5-5c-1.3,1.6-1.8,2.6-2.6,3.1c-0.7,0.5-1.8,0.4-2.7,0.6c0-1-0.2-2.1,0.2-2.9c0.4-0.9,1.8-1.7,1.8-2.5
	c-0.4-4,1.9-4.8,5.2-5.1c3.1-0.2,6.2-0.7,9.3-1.2c3.2-0.5,5.7,0.2,7.3,3.6c0.8-0.9,1.3-1.5,2.1-2.4c-1.4-0.6-2.5-1-3.5-1.5
	c-0.3-3.8-4-5.6-8.2-4.2c-2,0.7-3.9,1.8-5.9,2.1c-1.6,0.2-3.3-0.7-4.3-1c-1.7,2-3.3,4.2-5.2,6.1c-0.4,0.4-1.9-0.4-3-1.5
	c0.9-0.5,2.3-0.8,2.7-1.5c0.7-1.4,1.1-3.1,1-4.6c0-0.5-2.1-1.3-3.1-1.2c-3.3,0.3-5.9-0.6-7.5-3.6c4.2-5.5,6.5-6.7,9.1-4.5
	c0.9,0.7,0.7,2.6,1,4c-0.4,0.2-0.8,0.3-1.1,0.5c1,0.5,1.9,1.1,3.3,1.9c0.4-1.5,1-2.7,1.1-4c0.2-4,1.7-5,5.8-4.7
	c4,0.3,8,0.1,12.4,0.1c0.2-0.9,0.4-2,0.6-3.5c1,0.6,1.9,1.1,3.2,1.9c0-2.4,0-4.6,0-7.5c3.4,2.6,1,8.5,6.2,8.5
	c0.3,1.9,0.5,3.6,0.7,5.2c0.4,0,0.8,0,1.2-0.1c0.2-0.5,0.4-1.1,0.7-1.6c0.5-0.8,1.1-1.7,1.8-2c0.4-0.2,1.7,0.8,1.8,1.4
	c0.1,1-0.1,2.7-0.7,3c-2.1,1.1-4.6,1.7-6.8,2.7c-1.6,0.7-3.8,1.3-4.5,2.6c-0.5,0.9,0.7,3.3,1.8,4.4c1.7,1.7,3.9,2.9,5.8,4.3
	c0.2-0.3,0.4-0.6,0.6-0.9c-0.7-0.6-1.7-1-2.2-1.8c-0.4-0.6-0.5-1.9-0.1-2.4c0.3-0.4,1.7-0.6,2.3-0.3c2.8,1.3,4.4,5.7,3.1,7.9
	c-1.3,2.1-4.7,2.4-7.5,0.8c-0.2-0.1-0.5,0,0,0c-1.3,1.6-2.3,2.9-3.7,4.6c0,4.7,0,4.7,5.3,5c2.5,0.1,3.9,3,3,5.3
	c-0.3,0.9,0.4,2.1,0.9,4.3C521.1,497.5,518.2,497.6,515.3,497.8C515.2,497.7,515.3,497.8,515.3,497.8z M509.5,460.4
	c0-0.3,0-0.6,0-0.9c-0.7-0.1-1.5-0.4-2.2-0.4c-3.4,0-6.7,0-10.1,0.1c-0.9,0-1.7,0.4-2.5,0.6c0.4,1.2,0.6,2.7,1.4,3.6
	c0.5,0.5,2.7,0.5,2.9,0.1c1.8-3.5,5.1-2.5,8-2.9C507.8,460.7,508.7,460.6,509.5,460.4z M510,477.2c-0.2-0.3-0.4-0.7-0.6-1
	c-1.5,0.2-2.9,0.4-4.4,0.5c-2.6,0.2-5.2,0.2-7.8,0.5c-0.7,0.1-1.3,1.1-1.9,1.7c0.6,0.4,1.3,1.1,1.9,1c3.4-0.4,6.9-0.9,10.3-1.5
	C508.3,478.3,509.1,477.6,510,477.2z"/>
<path d="M491.9,506.3c-0.9,0.1-1.7,0.3-2.6,0.4l0.1,0.1c1.4-2.4,2.9-4.7,3.8-6.3c-3.3-0.8-7.1-1.5-10.9-2.7c-0.9-0.3-2.1-2.7-1.8-3
	c1.4-1.6,3-3.6,4.8-3.9c1.3-0.2,3,1.9,4.6,3c-1.7,0.5-3.4,1-5.7,1.8c0.7,0.5,1.8,2,2.8,1.9c1.9-0.1,4.9,0.6,5-2.4
	c0.2-4.2,2.6-5.2,6.2-5.2c3.6,0,7.2-0.2,10.8-0.4c3.6-0.2,4.9,2.6,3.1,7.4c1,0.3,2,0.6,3,1c0,0-0.1-0.1-0.1-0.1
	c-1.8,3.3,0.2,4.8,2.8,6.1c1.5,0.7,3.3,1.2,4.6,2.2c0.9,0.7,1.9,2.6,1.5,3.1c-0.8,1.1-2.3,1.6-3.5,2.4c-0.4-1.2-0.8-2.3-1.3-3.6
	c-0.4,0.3-1.6,1.1-2.7,1.9c0.3,0.2,0.5,0.4,0.8,0.5c-0.5,0.9-1,1.9-1.4,2.8c-0.8,1.8-1.8,3.5-2.1,5.3c-0.1,0.5,2.3,1.4,3.6,2
	c0.7,0.4,1.5,0.5,2,1c1.3,1.2,2.4,2.6,3.6,3.9c-1.5,1.2-2.9,2.6-4.6,3.7c-1.5,0.9-3.1,1.5-5.4,2.6c-0.1-0.1-1-0.6-2.1-1.4
	c-0.3,1.5-0.6,2.6-0.9,3.8c-0.4,0.1-0.8,0.2-1.2,0.3c-0.4-1.4-0.9-2.8-1.4-4.7c-0.8,0.2-2.8,0.2-3.3,1.1c-2.2,3.8-5.7,1.9-7.4,0.8
	c-2.2-1.4-6.2-2.8-4.6-7.3c0.2-0.6-1.4-1.8-2.3-3c0.4-0.7,0.9-1.5,1.4-2.5c-0.2-0.2-0.4-0.5-0.5-0.8c-0.3-1-1.1-2.6-0.7-2.9
	C492.8,512.5,492.3,509.4,491.9,506.3c5.3-0.4,10.6-0.8,15.9-1.1c0.8,0,1.9,0.1,2.4,0.6c2.4,2.3,3.5-0.1,5-0.5
	c-0.1-0.4-0.1-0.7-0.2-1.1c-1.6,0-3.1,0-5,0c0.3-1.8,0.5-3.2,0.8-5.3c-1.4,0.3-2.7,0.4-3.6,0.9c-2.3,1.3-4.3,2.6-7.3,1.3
	c-1.2-0.5-3.4,1.2-5,2.2C493.8,504,492.9,505.3,491.9,506.3z M511.5,515.7c-2.8,1-4.7-4.6-7.7-0.8c0.6,0.5,1.1,1,1.9,1.7
	c-9.5,0-11.1,0.7-11.4,4.5c6.4,0.5,12.8,1.1,18.9,1.6C512.7,521,507.6,519.7,511.5,515.7z M494.1,496.1c5.9-0.8,10.6-1.4,15.3-2
	c0.2-0.3,0.4-0.7,0.6-1c-0.5-0.1-1-0.4-1.5-0.4c-4,0.1-7.9,0.2-11.9,0.6C495.9,493.4,495.1,495,494.1,496.1z M495.3,512.5
	c3.8-1,7.4-2,11.1-3C499.6,507.2,494.6,508.8,495.3,512.5z M507.5,526c0-0.4,0-0.9,0-1.3c-3.4,0-6.8-0.1-10.1,0.1
	c-0.7,0-1.5,0.6-2,1.2c-0.2,0.3,0.1,1.6,0.4,1.6c0.9,0.2,1.8,0.1,2.7,0c1.8-0.3,3.6-0.8,5.4-1.1C505,526.2,506.2,526.1,507.5,526z"
	/>
<path d="M410.2,741.1c-1.4,2.5-2.5,4.6-4,7.2c1-0.2,1.6-0.2,1.6-0.4c2.4-4.7,6.9-7.1,11-9.9c1.1-0.8,3.4,0.1,5.1,0.2
	c-0.3,1.2-0.2,2.6-0.8,3.4c-3.2,4.2-7.4,7.8-9.7,12.3c-3.3,6.3-10.1,8.9-13.6,14.7c-3.1,5.1-5.8,10.4-9.2,15.3
	c-4.2,6.2-8.9,12-13.4,18c-1.2,1.6-2.6,3-4.7,1.4c-2-1.5-3.1-3.3-1.8-5.9c3.8-7.1,7.7-14.1,11.4-21.3c1.4-2.8,2.1-5.9,3.5-8.6
	c1.5-2.9,3.2-5.9,5.5-8.3C397.2,753.3,403.5,747.5,410.2,741.1z M408.7,753.7c-4.4,3.6-7.9,6.7-11.6,9.5c-2.1,1.6-2.7,4.7-0.8,5.9
	C398.9,763.1,406.7,761.4,408.7,753.7z M402.1,752.9c-0.1-0.2-0.2-0.3-0.4-0.5c-2.9,2.9-5.7,5.8-8.6,8.6c0.3,0.3,0.6,0.6,0.9,1
	C396.7,759,399.4,755.9,402.1,752.9z M412.7,749.2c0.4,0.4,0.9,0.8,1.3,1.2c1.7-2,3.5-4.1,5.2-6.1c-0.4-0.3-0.8-0.7-1.2-1
	C416.3,745.2,414.5,747.2,412.7,749.2z M386.9,775.3c2.1-2.2,3.5-3.7,5.5-5.7C387.1,770.2,386.6,770.7,386.9,775.3z"/>
<path d="M590.3,740.9c1.9,0.9,3.8,1.2,4.3,4c0.3,1.7,2.2,3.2,3.6,4.6c0.8,0.8,2.2,1,3.5,0.8c3.2,3.8,6.4,7.5,9.7,11.3
	c0.5-0.4,1-0.7,1.4-1.1c-0.6,0.9-1.2,1.7-1.9,2.9c1.5,0.9,3,1.8,4.4,2.7c0.2-0.2,0.3-0.5,0.5-0.7c-0.8-0.8-1.5-1.7-3-3.2
	c1.7-0.1,3.1-0.6,3.6-0.2c2.3,2.2,5.8,3.9,5.2,7.8c-0.7,4.2,1.6,7.6,3.2,10.7c1.6,3,1,5.1,0.4,7c1.2,1,2.3,1.6,3,2.5
	c0.8,1.1,1.5,2.4,1.8,3.7c1.1,4.3,2.4,8.6,2.7,13c0.3,3.4-1.6,3.9-4.2,1.8c-5.8-4.5-9.4-10.6-11.9-17.4c-0.4-1-0.8-2.1-1.4-3.1
	c-1.8-3.4-1.7-6.5,0.7-9.8c-0.8,0.4-1.7,0.8-2.5,1.2c-0.2-0.1-0.5-0.1-0.7-0.3c-3.5-4.1-7-8.2-10.5-12.2c-1.6-1.8-3.3-3.4-5-5
	c-4.5-4.3-9-8.6-13.5-13c-0.7-0.7-1-1.9-1.5-2.9c0.3-0.2,0.6-0.4,0.9-0.7c2.5,2.4,5,4.9,7.5,7.3c0.3-0.3,0.6-0.6,0.9-0.8
	c-0.8-1-1.7-2-2.4-3c-0.6-0.8-0.9-1.8-1.4-2.6c1-0.1,2-0.2,3.1-0.3c-0.1-1.5-0.3-3.3-0.4-5L590.3,740.9z M592.6,752.5
	c2.3,2.9,3.8,5,5.5,6.9c1.6,1.8,3.2,3.5,4.9,5.1c0.6,0.6,1.7,0.6,2.5,0.9c0.2-0.8,0.5-1.6,0.7-2.3c-6.3-2-7.4-8.4-11.7-12.6
	C593.8,751.4,592.9,752.3,592.6,752.5z M617.6,767.1c-0.2,1.2-0.3,2-0.5,2.7c-0.3,1.1-0.7,2.2-1.1,3.3c-1.1-0.7-2.4-1.1-3.3-2
	c-1.3-1.2-2.2-2.7-3.4-3.9c-0.5-0.5-1.3-0.6-2-0.9c0.1,0.7,0.1,1.6,0.5,2.1c1.5,2,3,3.9,4.7,5.7c0.8,0.8,2,1.5,3.1,1.5
	C619.2,775.7,620.2,771.8,617.6,767.1z"/>
<path d="M439.7,371c-0.7,1-1,1.3-0.9,1.4c3.5,5.7,2.8,13.6,9.1,18c0.5,0.3,0.1,1.9,0.1,3c-0.9-0.2-2.3-0.1-2.8-0.6
	c-2.3-2.7-4.3-5.6-6.7-8.8c-2.5,4.7,3.4,6.6,3.1,10.3c-3.7,0.4-5.7-2-6.6-7.9c-1.4,3.3-1.8,5.5,1.2,7.9c2,1.6,2.8,4.6,4.3,7.3
	c-1,1-2.1,2-3.3,3c-0.2-0.2-0.5-0.3-0.7-0.5c0.3-0.9,0.6-1.9,0.8-2.5c-1.1-0.9-2.2-1.8-3.3-2.7c-2.3,1.6-3,1.3-3.2-1.9
	c-0.2-4.4-1.2-9.2,0.2-13.1c2.2-6,2.8-13.4,10.2-16.7c2.9-1.3,5-4.2,7.8-5.8c2.8-1.5,6-2.2,10.1-3.6c-1.4,3-2.2,4.9-3.1,6.8
	c0.3,0.1,0.6,0.3,0.9,0.4c1.1-0.9,2.3-1.7,3.4-2.6c0.4,0.6,1.2,1.4,1,1.8c-0.4,1-1.2,1.9-1.7,2.5c0.3,1.9,0.9,3.8,1,5.7
	c0.2,4.4,2,7.9,5.2,10.9c0.8,0.8,1,2.3,1.4,3.4c-1.2-0.4-2.7-0.4-3.7-1.2c-5.6-4.2-6.1-10.6-7-16.8c-0.1-0.6-0.2-1.2-0.4-1.8
	c0-0.1-0.2-0.1-0.3-0.2c-2.4,1.9-2.8,4.1,0.3,12.7c1.5,4.1,4.9,7.4,7.5,11.1c-0.2,0.4-0.5,0.7-0.7,1.1c-1.6-1-3.4-1.7-4.6-3
	c-8.3-9.2-9.3-14.7-4.5-26.7c-2.1,1-3.7,1.7-4.9,2.3c-0.3,1.8-0.7,3.4-0.8,4.9c-0.4,4.7-1.2,9.5,2.1,13.7c2.2,2.9,4.2,5.9,6.2,8.9
	c-0.4,0.4-0.9,0.8-1.3,1.2c-2.2-1.9-4.6-3.6-6.4-5.8c-2.6-3.2-4.9-6.6-5-11.2C443.6,374.5,441.2,372.9,439.7,371z M434.5,383.4
	c0.6,0.1,1.2,0.2,1.8,0.3c0.5-2.3,0.9-4.5,1.4-6.8c-0.4-0.1-0.7-0.1-1.1-0.2C435.8,378.9,435.1,381.2,434.5,383.4z"/>
<path d="M438.5,420.3c2-0.1,3.1,0.7,2.8,2.9c-0.2,1.5,0.1,3,0,4.5c-0.2,1.7-0.6,3.4-1,5.1c-0.4,0.1-0.9,0.3-1.3,0.4
	c1.3,1.2,2.5,2.4,4.1,3.8c0.4-3.8,0.7-6.9,1.2-10c0.1-0.6,0.9-1.6,1.2-1.5c0.7,0.1,1.9,0.7,1.9,1.3c0.4,4.3,1.7,8.8-2.4,12.8
	c1.3,1.1,2.5,2.1,3.5,2.9c0.8-3.8,1.4-7.2,2.3-10.6c0.2-0.6,1.5-1.5,1.8-1.4c0.8,0.4,1.9,1.3,1.8,2c-0.2,3.1-0.7,6.1-1.2,9.6
	c1.2,0.9,2,4.1,5.4,1.8c-0.8-3.1-1.8-6.2-2.5-9.3c-0.2-0.8,0.2-1.8,0.4-2.7c1,0.3,2.6,0.4,2.9,1c1.1,2.8,1.9,5.7,2.7,8.5
	c2.2-1.7,4.8-3.7,7-5.4c0,0.2-0.1,1.6-0.8,2.6c-2.4,3.5-4.6,7.5-9.3,8.2c-1.7,0.2-3.5-1.1-5.2-1c-7.6,0.6-10.9-5.3-15.4-9.6
	c-5.7-5.6-11.5-11-17.6-16.2c-2.1-1.8-5-2.5-8.5-4.1c0.8,2,1.2,2.9,1.7,4.2c-1.5-0.2-2.8-0.1-3.9-0.4c-4.3-1.2-4.8-3.2-2-6.7
	c4.4-5.5,9.7-7.5,16.5-5.1c2.6,0.9,6.1,0.2,6.4,4.4c-3.3-0.7-6.6-1.4-9.9-2.1c2.6,2.2,3.8,4.2,0.9,6.8c1.5,0.7,2.7,1.2,3.2,1.4
	c2.1-2.2,4-4.2,5.9-6.1c3-2,3.1-4.4,1-7.2c-0.4-0.5,0-1.7,0-2.5c0.7,0.5,1.8,0.8,2.1,1.5c0.9,2,1.6,4,2.4,6.1
	c1.2,3.3-0.1,4.8-3.9,4.1c0.4,1.3,0.7,2.1,1.1,3.4c-1.3-0.4-2.3-0.7-3.3-1c-2.7,5-2.5,6.1,1.5,8.1l-0.1-0.1c1.7,2,3.4,4,5.4,6.4
	c0.6-4.2,1-7.6,1.5-11L438.5,420.3z"/>
<path d="M471.5,309c1.4,1.2,2.7,2.3,4.6,3.9c2.4-3.7,3.4-8.5,4.5-13.3c0.5-2.1,1.4-4.3,2.7-5.9c1.7-2.1,4.9-1,4.8,1.7
	c-0.2,6.6,1.1,13.2-1.4,19.8c-1,2.5-0.1,5.8,0.1,8.7c0.1,1.1,0.8,2.1,1,3.2c0.8,4.5,1.5,9,2.1,13.1c3.4,1.1,6.1,2.6,8.9,2.8
	c2.3,0.2,4.7-1.6,7.1-1.7c3.7-0.2,3.5-2.8,4.2-5.2c1.4-5.2,3.3-10.2,4.3-15.4c0.5-2.4-0.2-5.3-1.1-7.6c-2.6-6.3-4.1-12.8-3.6-19.6
	c0.1-0.8,1-1.8,1.7-2.1c0.8-0.3,2.3,0,2.7,0.5c1.4,2.3,2.4,4.8,3.5,7.2c1.2,2.7,2.1,5.5,3.4,8.1c1.2,2.5,2.7,4.8,4.3,7.6
	c2.7-5.2,5.4-10.5,8.7-16.7c0.7,1.8,1.7,3.1,1.4,3.8c-1,2.3-2.6,4.4-3.7,6.6c-1.7,3.5-3.2,7.1-4.9,10.6c-0.6,1.2-1.5,2.2-2.3,3.3
	c-0.4-1.2-0.9-2.3-1.3-3.5c-0.7-1.9-1.2-3.8-2-5.6c-2.6-5.8-5.4-11.5-8.4-18c-0.2,1.7-0.7,3-0.5,4.1c0.8,4.3,1.6,8.6,3.1,12.7
	c0.7,1.9,2.3,3.2,2.3,5.8c0.1,7.6-3.5,14.1-5.2,21.2c-0.4,1.8-3.4,3-5.2,4.5c-1.2,0.9-2.4,1.8-4.3,3.2c-3.4-0.9-7.7-1.8-11.9-3.2
	c-1.4-0.5-2.7-1.9-3.5-3.3c-1.1-1.8-2.5-4-2.3-5.8c1.1-7.2-3.8-13.9-0.5-21.4c1.8-4.2,1-9.6,1.2-14.5c0-0.7-0.9-1.5-1.7-2.5
	c-1.1,4.2-1.5,8-3,11.3c-1.7,4-2.9,7.8-2,12.2c0.1,0.5-0.6,1.5-1.2,1.7c-0.5,0.2-1.7-0.2-1.9-0.7C474.8,316.6,470.6,313.8,471.5,309
	C471.7,308.9,471.5,309,471.5,309z"/>
<path d="M471.2,568.1c0.2-1.3,0.4-2.6,0.8-4.8c1.8,1.9,2.7,2.9,3.8,4.1c2.7-4.8,7-1.7,10.5-2.4c2-0.4,4.1-0.4,6.9-0.7
	c-3.5-7.1,2-10.2,5.8-14.8c-1.4,0-2.4,0.3-2.9-0.1c-1-0.7-2.2-1.6-2.6-2.6c-0.2-0.6,1-2.3,1.9-2.5c3.2-0.9,6.6-1.3,9.9-2
	c0.8-0.2,1.6-0.4,2.4-1.5c-1.3-0.2-2.7-0.5-4-0.5c-2.8,0.1-5.5,0.6-8.3,0.5c-1.1,0-2.1-1.1-3.1-1.7c1-0.7,2-2,3.1-2.1
	c3.4-0.3,6.8-0.1,10.2-0.1c2.3,0,4.7,1.1,6.6-1.5c0.3-0.4,2.6,0.6,4,0.9c-0.1,0.4-0.1,0.7-0.2,1.1c-1.5,0.3-2.9,0.6-4.4,1
	c-0.1,0.3-0.1,0.6-0.2,0.9c0.7,0.3,1.6,0.9,2.2,0.8c1.7-0.4,3.3-1.4,5-1.7c1.4-0.2,3.1,0,4.4,0.6c0.6,0.3,1.2,2.3,0.9,2.7
	c-1.1,1.2-2.6,2.7-4.1,2.9c-2,0.2-4.5-2-4.9,2.1c-0.2,2-1.2,3.9-2.1,6.6c-0.1,0-1.5,0.2-2.1-0.4c-0.6-0.5-0.5-2.1-0.2-3
	c0.9-2.3,2.2-4.5,2.7-7.3c-3,2.4-6,4.9-9.1,7.4c2.1,1.8,3.6,3.2,5.8,5.1c-4.2,1-4.7,3.3-4.9,6.2c-0.1,1.1-1.3,2.4-2.3,3.3
	c-1.5,1.3-3.1,2.6-4.9,3.5c-0.9,0.5-2.3,0.4-3.4,0.2c-2.4-0.4-4.7-2.3-7.2,0.3c-0.5,0.6-2.2,0.2-3.3,0.1c-2.1-0.2-4.8-1.6-6.1-0.7
	c-2.5,1.6-4.5,0.9-6.7,0C471.1,568,471.2,568.1,471.2,568.1z"/>
<path d="M554.6,442.9c-1.9,0.9-3.6,2.3-5.6,2.7c-4.4,0.9-7.1-2.3-9.3-5.3c-1.8-2.6-2.9-5.8-3.8-8.9c-0.3-0.9,1.1-2.3,2-4
	c-0.8-1.1-0.9-6.8,0.5-8.9c3.5-4.9,7.1-9.8,10.7-14.7c2.4-3.2,2.1-3.9-1.4-6.1c-4.7-3-9.1-6.4-14.1-9.9c-0.1,1-0.1,2.1-0.4,3
	c-1.2,3.2-2.3,6.5-3.9,9.5c-1,1.9-1.6,11.1,0.2,12.5c2.5,2.1,2.3,4.7,1.2,6.9c-1.2,2.5-3.5,4.6-5.2,6.9c-0.5-0.3-1-0.6-1.5-0.8
	c0.4-1,0.5-2.3,1.2-3c4.1-4.3,4.3-5.1,1.8-10.5c-2.7-5.8-1.5-11,2.3-15.8c2.4-3,2.3-7.3-0.3-9.7c-0.4-0.4-0.7-1.4-0.5-1.8
	c0.2-0.5,1.1-1,1.7-1c1.5,0,2.9,0.3,4.1,0.5c3.7,2.8,7.2,5.8,11,8.4c2.5,1.7,5.5,2.8,7.8,4.7c0.9,0.7,0.7,3.1,0.6,4.7
	c-0.2,3.5-0.7,7-1.2,11c-1.5-0.9-3.1-1.9-5.3-3.3c-2.3,3.4-4.6,6.7-7.3,10.6c3.4-0.4,5.7-0.7,8-1l-0.1-0.1c0.3,0.7,0.8,1.3,0.9,2
	c0.1,0.9-0.2,1.8-0.4,2.8c-0.8-0.2-1.6-0.4-2.3-0.7c-3.2-1.4-5-0.6-5.8,2.7c0.6,0,1.4,0.2,1.7,0c2.6-1.8,4.6-1.1,6.5,1.2
	c2,2.5,1.5,4.8-0.5,6.7c-2.2,2.2-2.9,4.6-1.1,7.2c0.5,0.7,1.7,1.1,2.5,1.6c0.2-0.8,0.5-1.7,0.5-2.5c-0.3-4.7,1.8-8.5,4.3-12.1
	c0.4,0.1,0.8,0.1,1.2,0.2c-0.3,4.8-0.6,9.6-1,14.4L554.6,442.9z M547.9,429.8c-2.5-1.9-5.4-0.5-7.2,1.4c-1.2,1.2-0.7,4-1,6.6
	C542.8,434.9,545.2,432.5,547.9,429.8z"/>
<path d="M426.3,312.9c-0.9-0.8-1.8-1.6-2.7-2.4c-2,7.2-0.2,14.8,6.4,17.6c3.9,1.6,6.6-1.1,9.7-2.3c3-1.1,5.6-3.4,8.6-4.5
	c1.5-0.6,3.9-0.1,5.3,0.7c5.6,3.3,7.5,9.1,9.9,14.7c2.1,4.8,4.9,9.2,7.4,13.8c1,1.9,2.4,3.6,3.2,5.5c0.4,0.8,0.4,2.4-0.2,3
	c-3.1,3.5-6.4,6.8-9.7,10.2c-3.8-1.7-1-4.4-1.2-7.1c1.7,0.8,3,1.5,4.3,2.1c0.2-0.3,0.5-0.5,0.7-0.8c-0.6-1.1-1.2-2.2-1.8-3.2
	c0.2-0.2,0.3-0.5,0.5-0.5c5.3-1.7,5.3-1.7,2.6-6.4c-2.6-4.5-5.4-9-7.8-13.5c-2-3.7-3.2-7.8-5.5-11.2c-4.1-5.9-5.8-5.9-11.9-2.2
	c-3.6,2.2-7.2,4.6-11.1,5.7c-2,0.6-5-1.1-7-2.5c-5-3.6-9.5-13.3-5-20c1.2-1.8,2-4.1,4.8-3.1C427.6,306.9,427.7,309.2,426.3,312.9z"
	/>
<path d="M461.9,306.8c-2.1,0.8-3.6,0.2-3.8-2.1c-0.5-5.2-1.6-10.3,1.7-15.3c1.6-2.4,1.6-5.9,2.7-8.7c2-5.2,4.2-10.4,6.6-15.5
	c0.5-1,2.6-2.2,3-1.9c1.2,0.8,2.8,2.4,2.8,3.6c-0.1,3.4-1,6.8-1.5,10.2c-0.2,1.2-0.4,2.5-0.7,3.6c-0.5,1.9-1.4,3.6-1.7,5.5
	c-0.6,3.6-1.4,7.3-1.2,11c0.1,2.5,2,5,2.6,7.5c0.3,1.3-0.4,2.9-0.6,4.3c0,0,0.1-0.1,0.1-0.1c-1.6-0.2-2.6-0.4-2.7-2.6
	c-0.1-2.8-1.6-5.5-1.7-8.3c-0.1-4.1,0.3-8.2,1-12.2c1.1-6.1,2.7-12.1,4.1-18.2c-0.5-0.2-1-0.4-1.5-0.6c-0.8,1.4-1.8,2.7-2.4,4.2
	c-1.7,4.2-3.8,8.4-4.8,12.9C462,291.6,459.3,299,461.9,306.8L461.9,306.8z"/>
<path d="M461.8,306.8c2.9,5.6,5.8,11.2,8.7,16.9c-0.4,0.3-0.9,0.7-1.3,1c-1.2-0.9-2.6-1.6-3.6-2.7c-3.6-4-7.1-8.1-10.4-12.3
	c-1.5-1.9-2.6-4.2-3.7-6.3c-3.7-7.1-7.4-14.1-10.9-21.3c-2.5-5.2-5-10.5-7-15.9c-0.8-2.2-0.1-5,0.5-7.7c6.7,18.1,15.1,35.2,25,52.1
	C460.3,309,461.1,307.9,461.8,306.8C461.9,306.8,461.8,306.8,461.8,306.8z"/>
<path d="M430.7,221.4c3.4-0.3,5.7,2.6,3.1,5.1c-3.2,3.2-1.1,6.4-2,9.4c0.3,0.3,0.6,0.5,0.9,0.8c2.3-2.6,4.6-5.3,7.1-7.8
	c1.7-1.8,3.8-3.6,6.4-2.1c2.5,1.4,3.1,5.6,1.1,8.5c-2.2,3.3-5,6.2-7.2,9.6c-1.7,2.6-2.7,5.5-4.1,8.3c-0.4,0.8-1.2,1.4-1.8,2
	c-0.5-0.8-1.3-1.5-1.4-2.3c-0.1-1.1,0-2.4,0.6-3.3c3.4-5.4,6.9-10.6,10.3-15.9c0.7-1,1-2.3,1.4-3.4c-0.4-0.3-0.7-0.6-1.1-0.9
	c-2.1,1.7-4.3,3.3-6.2,5.2c-1.9,1.8-3.4,4-5.2,5.9c-0.9,0.9-2.3,1.5-3.4,2.2c-0.5-1.9-1.6-3.9-1.4-5.7
	C428.6,231.9,429.7,226.8,430.7,221.4z"/>
<path d="M514.2,596c-0.8,5.1-1.6,5.8-6.5,5.2c-1.7-0.2-3.3-0.3-5-0.5c0-0.4,0-0.8-0.1-1.2c0.9-0.2,1.9-0.4,2.8-0.5
	c1.2-0.2,2.6-0.1,3.7-0.5c0.7-0.3,1-1.4,1.5-2.1c-0.9-0.4-1.8-1.2-2.7-1.1c-5.3,0.6-9.5,3.8-14.2,5.9c-0.8,0.3-1,2.5-1.1,3.8
	c-0.2,1.9,0.1,4-3.1,3.5c0.2-3,1.3-6.2-1.6-7.2c1.6-2.8,3-5.4,4.4-8c0.6-1.2,1.1-2.5,1.6-3.7c0.3,1.2,0.7,2.5,1,3.7
	c0.2,0.8,0.3,1.7,0.3,1.8c4.7-1.3,9.2-2.6,13.8-3.8c0-0.3,0.1-0.6,0.1-1c-2-0.3-4-0.9-6-0.9c-2,0-4,0.4-5.9,0.7
	c-0.1-0.5-0.2-1-0.4-1.6c1.2-0.3,2.4-1,3.6-0.9c4.1,0.3,8.2,1,12.2,1.3c0.7,0.1,1.5-1,2.6-1.9c0.4,0.3,1.4,0.9,2.5,1.6
	C513.3,591.5,512.4,593.6,514.2,596L514.2,596z"/>
<path d="M476,414.4c1,3.3,0.8,7.6,6.1,7.8c-0.1,1.2-0.2,2.3-0.3,3.4c0.3,0,0.5,0.1,0.7,0.1c0.9-0.2,2.3-0.9,2.5-0.6
	c0.9,1.2,1.8,2.6,2.2,4.1c0.5,1.7,0.4,3.6,0.6,5.4c0.3,0,0.7,0,1,0c0.7-1.8,1.5-3.6,2.2-5.4c0.7,0.1,1.3,0.3,2,0.4
	c-0.3,3.6,0.1,7.5-1.1,10.7c-0.6,1.5-4.3,1.8-7.5,2.9c-0.2,0.9,0.4,2.3,2.9,1.7c2.6-0.6,2.7,0.7,2.5,2.6c-4.2-0.3-8.7-3-8.5-5
	c0.2-2.4,3.8-4.4,8-3.6c-2-2.5-3.6-4.2-4.9-6.1c-1.4-1.9-2.5-3.9-3.9-5.8c-1.4-1.9-2.6-3.9-4.3-5.3C472.8,419.1,474,416.9,476,414.4
	C476.1,414.4,476,414.4,476,414.4z"/>
<path d="M465.1,590.6c3.8,0.4,7.5,0.9,11.3,1.3c0.1,0.6,0.2,1.2,0.3,1.7c-1,0.7-1.8,1.7-2.9,1.9c-0.5,0.1-1.3-1.2-2-1.7
	c-0.6-0.4-1.9-1-2-0.9c-3.1,3.8-5.1,0.7-7.4-1c-0.4-0.3-0.8-0.6-1.8-1.5c4.5-1.3,6.4-6.8,11.8-5c2.6,0.8,5,2.3,7.5,3.3
	c1.2,0.5,2.7,0.8,4,0.6c2.7-0.5,5.5-0.6,6,2.6c0.2,1.4-1.7,3.8-3.3,4.5c-2.8,1.3-6,1.7-9,2.2c-0.7,0.1-1.5-0.4-2.7-0.8
	c3.5-3.7,9-1.9,12.2-4.8c-0.1-0.4-0.3-0.7-0.4-1.1c-0.9,0.1-1.9,0.2-2.8,0.4c-3.9,1-7.6-0.2-10.1-2.7
	C469.8,585.9,467.8,589.8,465.1,590.6z"/>
<path d="M514.3,596.1c0.2-3.1,2.6-4.6,5-4.7c2.3-0.2,5.2-0.8,7,2.3c0.8,1.4,3.2,2,4.8,3c0.1-0.3,0.3-0.6,0.4-0.8
	c-2.1-2.2-4.2-4.4-6.8-7.1c2.7,0,4.6,0,6.4,0c-0.6-1.9-0.6-1.9-8.2-6.9c1.2-0.2,2-0.5,2.7-0.4c0.8,0.1,1.9,1,2.5,0.7
	c3.3-1.6,5.5-1.6,5.2,3.1c0,0.4,1.4,1,2.2,1.2c1.2,0.3,2.5,0.4,3.8,0.6c-1.1,1.4-2.1,2.9-3.4,4c-0.8,0.7-2.1,0.8-3.8,1.5
	c2,1.3,3.2,2.2,4.6,3.1c-2.3,1.2-4.2,2.5-6.3,3.2c-0.9,0.3-2.7-0.4-3.2-1.2c-2.4-3.9-5.7-2.7-8.9-2
	C516.9,595.8,515.5,595.9,514.3,596.1C514.2,596,514.3,596.1,514.3,596.1z"/>
<path d="M590.4,740.8c-1.4,1.1-2.8,2.1-4.4,3.4c-0.5-0.8-1.2-1.9-2.1-3.4c-0.8,1.3-1.5,2.4-2.2,3.4c-2.6-3-2.2-4,1.6-6.2
	c1.9,0.6,3.4,1.1,5,1.6c0.3-0.6,0.6-1.2,0.9-1.8c-1.8-1.1-3.7-2.1-5.4-3.5c-1.9-1.6-4.8-3.3-5.1-5.3c-0.2-2.1,2.1-4.5,3.6-7.3
	c-0.2-0.3-0.9-1.2-2.2-2.8c1.8-0.1,3-0.2,4.5-0.3c0.2-0.8,0.6-2,0.9-3.1c0.3,0,0.6,0.1,0.9,0.1c-0.1,1,0.2,2.3-0.3,3
	c-3.2,4.5-0.8,7.8,2,11.3c1.5,1.8,2.9,3.8,3.4,5.9c0.4,1.5-0.9,3.3-1.4,5C590.3,740.9,590.4,740.8,590.4,740.8z M581.4,727.5
	c-1.1,3.7,0.5,5.2,5.3,4.4C584.7,730.3,583.2,729,581.4,727.5z"/>
<path d="M533.4,358.5c-0.1,0-1.9-0.3-2-0.8c-0.4-1.9-0.9-4.2-0.1-5.8c3.2-6.4,6.7-12.7,10.6-18.8c2.8-4.4,7.1-7.2,12-8.8
	c0.3,0.3,0.6,0.7,0.9,1c-0.6,0.8-0.9,2-1.7,2.3c-5.9,2.7-9.4,7.5-12.2,13c-1.8,3.4-3.9,6.7-5.4,10.2
	C534.3,352.9,534.1,355.4,533.4,358.5z"/>
<path d="M528.4,555c0.6,1.4,1.1,2.8,1.7,4.3c-4.6,3.3-8.9,3.3-13.6-0.1c-2.8-2.1-4.8-1.1-6.8,4.5c-1.1-1.8-2.6-3.2-2.4-4.1
	c0.3-1.2,2-2.2,3.3-2.7c1.9-0.8,4.1-1.2,6.1-1.5c4-0.6,7.9-1.1,11.9-1.6C528.6,554.2,528.5,554.6,528.4,555z"/>
<path d="M487.2,420.7c-0.4-1.7-0.8-3.3-1.1-5c-0.2-1.5-0.5-3.1-0.1-4.4c0.9-2.8,2.2-5.5,3.5-8.2c0.3-0.7,1.5-1.2,2.3-1.2
	c0.5,0,1.4,1.3,1.3,1.9c-0.6,2.7-1.2,5.5-2.4,8c-1.2,2.5-2.5,5.1,0.1,7c2.2,1.7,2,3.7,2.1,5.8c0.1,0.9-0.2,2.4-0.6,2.5
	c-0.8,0.2-2.2,0-2.7-0.6c-1.4-1.7-2.4-3.7-3.5-5.5C486.5,421.1,486.8,420.9,487.2,420.7z"/>
<path d="M489.3,506.7c1.8,5.7,1.7,6.3-3,8c-1.3,0.5-3.9-0.1-4.4-1c-0.7-1.3-0.7-3.9,0.1-5C483.7,506.4,486.4,505.4,489.3,506.7
	C489.4,506.8,489.3,506.7,489.3,506.7z"/>
<path d="M339.3,562.7c0-2.3-0.1-5.2,2.7-5.3c2.4-0.1,3.5,2.2,3.4,5.2c-0.2,3.1-1,5.5-3.7,6.8c-2.4,1.2-4.9,0.6-6.9-1.3
	c-0.5-0.5-0.6-1.4-0.9-2.1c0.8,0,1.8-0.3,2.4,0c3.6,2.2,6.6,0.8,7.1-3.3c0.1-0.6-0.5-1.2-0.8-1.9C341.6,561.5,340.5,562,339.3,562.7
	z"/>
<path d="M480.9,539.8c2-1.4,3.7-2.6,5.3-3.7c1.4-1,2.7-2,4.1-2.9c0.7-0.4,1.6-0.5,2.5-0.7c-0.1,0.9,0.3,2.2-0.2,2.7
	c-1.4,1.6-3.1,2.9-4.6,4.2c0.6,1.8,1.2,3.4,2,5.8c-2.7-1.1-5.4-0.2-5.5-3.8C484.5,541.1,482.8,540.7,480.9,539.8z"/>
<path d="M535.4,297.9c-1.7-6.4-3.4-12.8-5.1-19.4C534.3,279.4,537,285.9,535.4,297.9z"/>
<path d="M487.6,482.5c-3.8,2.2-5-1.7-7.3-1.9c0.3-1.3,0.3-2.7,0.9-3.9c0.9-2,2.4-2.8,4.5-1.1c0.4,0.4,1.3,0.2,1.7,0.6
	c1,0.8,1.8,1.7,2.7,2.6c-1.1,0.4-2.1,0.9-3.3,1.1c-0.9,0.1-1.9-0.1-2.8-0.2c-0.1,0.3-0.1,0.6-0.2,1
	C484.7,481.1,485.7,481.6,487.6,482.5z"/>
<path d="M651,558.4c-0.2-2.6-2.3-2.5-4-3.1c-0.9-0.4-1.5-1.6-2.2-2.4c1-0.4,2.1-1.2,3.1-1.3c4.1-0.3,6.6,2.7,9.4,4.9
	c0.4,0.4,0.3,1.5,0,2.7c-2.1-3.6-4.3-2.2-6.5-0.8C650.9,558.3,651,558.4,651,558.4z"/>
<path d="M483.5,529.6c-0.4-0.5-2.4-2-2.1-3c0.4-1.6,1.9-3.6,3.4-4.1c1.4-0.4,3.4,0.8,5.1,1.3c-0.4,1.3-0.6,2.9-1.4,3.8
	C487.5,528.6,485.9,528.7,483.5,529.6z"/>
<path d="M505.2,573.8c-1.9,0.3-3.9,0.7-5.8,0.8c-0.9,0-1.8-0.8-2.7-1.2c0.8-0.8,1.5-2,2.4-2.2c2.1-0.3,4.3-0.2,6.4,0.1
	c0.9,0.1,1.8,1,2.7,1.5c-0.8,0.7-1.7,1.4-2.5,2C505.5,574.5,505.3,574.2,505.2,573.8z"/>
<path d="M479.9,690.7c1.7,2.1,3.6,4.2,5.1,6.5c0.3,0.5-0.5,2.1-1.2,2.8c-0.6,0.5-1.7,0.5-2.6,0.7c-0.1-0.9-0.2-1.8-0.4-2.7
	c-0.3-1.2-0.5-2.3-0.9-3.4c-0.4-1-1-1.9-1.5-2.9C478.9,691.4,479.4,691.1,479.9,690.7z"/>
<path d="M523.4,600.9c-5.2-0.7-8.6,1.1-9.1,7c-2.1-3.8-0.9-6.6,3.7-9.4c1.2-0.7,3.5,0.2,5.3,0.4
	C523.3,599.5,523.4,600.2,523.4,600.9z"/>
<path d="M375.8,559c3.5-0.4,7-1.9,10.3,0.5c0.8,0.6,1.6,1.3,2.1,2.6C384,561.2,379.6,561.3,375.8,559C375.8,559,375.8,559,375.8,559
	z"/>
<path d="M359.2,499c-4.1,0-8.3,0-12.4,0c0-0.5,0-0.9,0-1.4c4.1,0,8.3,0,12.4,0C359.2,498.1,359.2,498.5,359.2,499z"/>
<path d="M487.8,578.7c2-0.1,4.5-1.2,4.5,2.4c0,0,0.1-0.1,0.1-0.1c-2.8,0.7-3.4,1.9-1.2,4c0.5,0.5,0.9,1.4,1.1,2.1
	c0.1,0.2-1.1,1-1.3,0.9c-0.6-0.4-1.4-1.1-1.6-1.8c-0.6-2.5-1-5.1-1.5-7.7C488,578.6,487.8,578.7,487.8,578.7z"/>
<path d="M463.9,435.8c-1.1-2.3-2.2-4.1-3-6c-0.2-0.5,0-1.7,0.4-1.9c0.4-0.3,1.5-0.2,2,0.1C466,429.1,466.5,432.8,463.9,435.8z"/>
<path d="M363.3,584.9c2.1-1.3,4.1-2.6,6.2-3.9c0.3,0.3,0.5,0.5,0.8,0.8c-1.6,1.9-3.3,3.7-4.9,5.6c-0.7,0.7-1.2,1.6-2,2.1
	c-0.6,0.5-1.5,0.6-2.3,0.8c0.3-0.8,0.5-1.6,0.9-2.4c0.5-1.1,1-2.1,1.5-3.1C363.4,584.8,363.3,584.9,363.3,584.9z"/>
<path d="M339.9,580.2c1.1-0.3,2.2-0.5,3.1-1.1c2.6-1.7,3.6-0.6,3.8,1.3c-2.3,1.3-4.3,2.5-6.4,3.5c-1.2,0.5-2.6,0.6-3.9,0.9
	C337.6,583.3,338.7,581.7,339.9,580.2z"/>
<path d="M431.7,424.8c0-2.8,1.1-5,3.8-5.8c0.8-0.2,2,0.8,3,1.2c0,0,0.1-0.1,0.1-0.1c-0.8,0.7-2.3,1.3-2.3,2c-0.1,3.8-2,3.7-4.7,2.6
	L431.7,424.8z"/>
<path d="M356.6,596.1c3.9,0.8,0.9-3.8,3.9-4.3c0.2,0.9,1.1,2.3,0.7,2.9c-1.7,2.7-3.8,5.1-5.7,7.7c-0.4-0.3-0.9-0.6-1.3-0.9
	c0.8-1.8,1.7-3.6,2.5-5.5C356.8,596,356.6,596.1,356.6,596.1z"/>
<path d="M665.3,571.2c-0.7,0.2-1.9,0.9-3,0.8c-1.7-0.2-5.6-6.2-5.8-8.3C659.3,566,662.2,568.4,665.3,571.2z"/>
<path d="M593.2,732.7c-6.1-8.5-6.1-8.5-5-10.9C591.4,724.6,594.3,730.9,593.2,732.7z"/>
<path d="M562.7,391.4c-0.3,3.1-4.2,6.9-6.2,6.5c-0.5-0.1-1.2-0.6-1.4-1c-0.1-0.5,0.1-1.4,0.5-1.6C557.8,393.9,560,392.8,562.7,391.4
	z"/>
<path d="M391.5,574.9c-3.5,0.7-7.1,1.4-11,2.1c1.2-2.6,7.1-4,10.9-3.2C391.4,574.2,391.4,574.6,391.5,574.9z"/>
<path d="M399.4,560.5c-1.4,0-2.8,0.1-4.2,0c-0.9-0.1-1.8-0.6-2.6-1.1c-0.2-0.1,0.2-1.6,0.7-1.9c0.9-0.5,2.2-0.9,3.1-0.6
	c1.3,0.5,2.3,1.6,3.4,2.5C399.6,559.8,399.5,560.1,399.4,560.5z"/>
<path d="M637.9,554c-1.9,1-3,2-3.6,1.8c-1.5-0.5-2.8-1.6-4.2-2.4c0.5-0.7,1.3-2.2,1.6-2.1C633.5,551.8,635.1,552.7,637.9,554z"/>
<path d="M547.9,419.5c-0.3-0.3-0.7-0.5-0.7-0.8c-0.2-1.3-0.3-2.5-0.4-3.8c0.8-0.1,1.9-0.5,2.3-0.1c0.9,0.9,1.4,2.2,2.1,3.3
	C550,418.5,548.9,419,547.9,419.5C547.8,419.4,547.9,419.5,547.9,419.5z"/>
<path d="M401.8,561.6c4.1-3.1,5.2,2.9,8.7,1.9C406.6,566.5,404.9,561.6,401.8,561.6z"/>
<path d="M664.7,563.1c-1.7-0.9-3.4-1.7-5.1-2.6c0.4-0.8,0.8-2.2,1.2-2.2c2.7-0.3,3.9,1.5,4.6,3.7C665.2,562.4,665,562.8,664.7,563.1
	z"/>
<path d="M349.6,554.2c1,2.3,1.7,3.9,2.7,6.2c-2.4-1.2-4-2-6.4-3.1C347.2,556.2,348.3,555.2,349.6,554.2z"/>
<path d="M369.6,574c-1.6-0.5-3.1-1-4.7-1.6c0.1-1.1,0.2-2.6,0.3-4.2C369,568.5,368.4,572.1,369.6,574z"/>
<path d="M323.5,550.3c-1,0.5-2.5,1.6-2.8,1.3c-1.6-1.2-2.8-2.9-4.1-4.5c0,0,0.6-0.9,0.9-0.9c0.6,0,1.1,0.4,1.6,0.7
	C320.6,548,322.1,549.2,323.5,550.3C323.6,550.4,323.5,550.3,323.5,550.3z"/>
<path d="M482,582.1c-2.7,0.1-3.5,5.3-8.2,2.2c2.9-1.4,5.3-2.5,7.6-3.7C481.7,581.1,481.9,581.6,482,582.1z"/>
<path d="M494.6,486c-0.7,1.4-1.3,2.9-2.2,4.1c-0.4,0.5-1.5,0.7-2.3,0.6c-0.5,0-1.3-0.9-1.2-1.1c0.3-0.7,0.8-1.4,1.4-1.9
	c1.2-0.8,2.5-1.4,3.7-2.1C494.2,485.7,494.4,485.9,494.6,486z"/>
<path d="M359,555.1c-1.8,0.6-3.7,1.1-5.5,1.7c-0.2-0.2-0.3-0.5-0.5-0.7c1.6-1.4,3.2-2.7,4.8-4.1c0.4,1.1,0.7,2.2,1.1,3.3
	C358.9,555.2,359,555.1,359,555.1z"/>
<path d="M603,553.8c1.7-0.9,3.4-1.8,5.1-2.7c0.3,0.5,0.7,0.9,1,1.4c-1.3,1.2-2.5,2.4-3.9,3.5c-0.1,0.1-1.4-1.5-2.1-2.2
	C603.1,553.7,603,553.8,603,553.8z"/>
<path d="M468,377.5c-4.7-1.7-5.5-3.5-3.5-6.4C465.6,373.1,466.6,374.9,468,377.5z"/>
<path d="M596.2,734.7c0,2.2,0,4,0,5.9C592.3,738.7,592.2,738.1,596.2,734.7z"/>
<path d="M490.4,554.7c-0.4-1.6-0.9-3.2-1.3-4.9c0.3-0.2,0.7-0.5,1-0.7c0.9,0.8,2.2,1.4,2.5,2.3c0.3,1-0.6,2.2-0.9,3.3
	C491.3,554.7,490.8,554.7,490.4,554.7z"/>
<path d="M532.2,700.2c-2.1,0-4.1,0-6.2,0c0-0.4,0-0.8,0-1.2c2.1,0,4.1,0,6.2,0C532.2,699.4,532.2,699.8,532.2,700.2z"/>
<path d="M584.3,714.3c-1.5,1-2.5,1.9-3.6,2.5c-0.2,0.1-0.9-0.8-1.4-1.2c0.9-1,1.8-2.1,2.8-2.9C582.2,712.5,583.3,713.5,584.3,714.3z
	"/>
<path d="M577.4,731.9c3.1,4.4,3.1,4.4,2,6.4c-1.2-2.1-2.2-4-3.3-5.9C576.5,732.2,576.9,732,577.4,731.9z"/>
<path d="M599.5,749.8c-1.2-2.5-2.1-4.6-3.1-6.7C600.5,745.4,601.2,747,599.5,749.8z"/>
<path d="M554.5,443.1c0.5-0.1,1-0.4,1.5-0.3c1.1,0.3,2.1,0.8,3.1,1.3c-0.9,0.7-1.8,1.4-2.7,2.1c-0.6-0.8-1.2-1.6-1.8-2.5
	c-0.1-0.2,0-0.5,0-0.7C554.6,442.9,554.5,443.1,554.5,443.1z"/>
<path d="M419.2,713.2c0.2,1.9,0.4,3.8,0.4,5.7c0,0.5-0.8,1-1.2,1.5c-0.3-0.5-1-1.1-1-1.6c0.1-1.8,0.5-3.6,0.8-5.4
	C418.6,713.3,418.9,713.2,419.2,713.2z"/>
<path d="M354.4,584c-1.2,0.3-2.4,0.7-3.7,1c0-1.8,0-3.6,0-5.6c2.6,0.7,4.1,1.9,3.6,4.7C354.3,584.1,354.4,584,354.4,584z"/>
</svg>
