<?xml version="1.0" encoding="utf-8"?>
<!-- Generator: Adobe Illustrator 21.0.0, SVG Export Plug-In . SVG Version: 6.00 Build 0)  -->
<svg version="1.1" id="Layer_3" xmlns="http://www.w3.org/2000/svg" xmlns:xlink="http://www.w3.org/1999/xlink" x="0px" y="0px"
	 viewBox="0 0 1000 1000" style="enable-background:new 0 0 1000 1000;" xml:space="preserve">
<path d="M636.9,242.6c3.9-24.9-15.2-42-19.6-66.7c8,12.3,13.2,22.7,20.6,31c9.6,10.7,18.2,22,25.7,34.2c1.6,2.6,6.2,3.3,9.5,4.9
	c1.8,0.8,4,1.2,5.3,2.4c7,6.8,5.7,25.4,23.7,16.5c14.2,8.7,19-5.3,27.9-11.5c-1.4,5.9-2.9,11.3-4,16.8c-1,5.4-1.5,10.8-2.4,17.5
	c4.2-1.2,7.6-2.1,8.6-2.4c2.3,4.8,3.6,11.9,6.4,12.6c7,1.7,14.7,0.6,23.1,0.6c0.4,5.9-10.2,16.3,4.1,22.3
	c11.7,4.9,19.8,28.4,35.4,6.1c2.3,6,3.1,14.7,7.1,16.6c8.7,4.1,17.3-0.5,23.8-7.6c3.8-4.1,7.5-8.2,12.4-11.8
	c-2.9,5.9-6.6,11.5-8.4,17.7c-2.1,7-0.2,12.1,9,10c7.5-1.7,15.1-2.7,26.3-4.7c-5.6,4.8-8.4,7.3-11.3,9.8c8,16.7,22.7,22.4,47.6,17.8
	c-0.9,3.4-1.7,6.3-3.3,12.2c12.3-0.8,25.7,2.3,33.7-2.9c15.2-10,32,0.3,46.6-7.8c3.4-1.9,10.1,2.4,15.5,3.8
	c-21.3,4.4-42.6,7-62.5,13.6c-9.9,3.2-17.9,13.2-25.7,21.2c-1.4,1.4,1.9,7.5,0.5,5.7c-8.8,10.5-17.7,21.1-25,29.8
	c5.6-15.5,11.6-34.5-4.7-52c-0.8,1.1-2.5,3.5-4.1,5.9c-9-6.7-26.3-3.2-37.8,6.9c-2.4-6.3-4.2-13.5-7.7-19.8c-5-9.2-9.6-9-13.8,0.4
	c-2.6,5.7-3.9,12.1-6.9,21.9c-1-12.6-1.7-21.4-2.3-30.3c-1.5-1-3.1-1.9-4.6-2.9c-1.5,3.4-3,6.7-4.6,10.1c2.4-22.6-25-15.1-27.6-32.3
	c-5.2,4-8.4,6.4-10.6,8.1c-3.1-3.9-5.9-7.6-9.1-10.7c-0.3-0.3-5.8,3.6-5.6,3.9c2.4,4.9,5.5,9.6,7.3,12.6c-2,3.6-6.1,7.3-5.7,10.5
	c1.5,11.6,9.1,15.7,24.9,15c-13,1.3-13.3,12.3-15.9,20.7c-0.8,2.6,3.9,6.9,6.2,10.4c-3.3,11.8,11.5,9.6,13.4,13.4
	c-3.5,6.5-11,14-9.7,19.3c3,11.6,14.3,12,27.7,4.1c2.9,5.6,4.6,14.5,8.8,16c13.9,4.9,20.4,0.6,27.6-12.8c3.2,6.5,7.1,14.1,12.1,24.2
	c7-8.2,11.3-13.3,15.6-18.3c0.4,0.2,0.8,0.4,1.1,0.6c-1.8,4.1-3.5,8.3-6.9,16.2c10.1-3.2,17.4-5.5,25.9-8.2c1.9,4.3,4.1,11,7.6,16.8
	c1,1.6,6.5,2.2,8.8,1c9.8-4.7,19.3-10.3,29.5-15.9c-6.5,18.6-33.1,31.3-17.5,58.5c-7.1,15.1-5,20.5,11.9,22.8
	c-7.5,8.2-14.7,16.8-4.3,26.6c2.9,2.7,8.3,2.7,15.6,4.8c9.7,17.7,15.3,20.5,25.9,9.7c4.7,10.8,9.7,6.4,12.9,1.6
	c4.4,13.3,9,27.3,13.5,40.7c-2.6-1.4-7.5-6.1-10.8-5.1c-3.7,1.1-6,7.2-8.2,10.3c-4.5-0.3-12.7-2.5-13.6-0.7
	c-2.5,4.7-2.8,11.1-2.1,16.6c0.5,3.9,3.8,7.6,6,11.3c1.8,3.2,3.7,6.3,6.4,8.1c-11.9-10.6-23.8-21.3-35.8-31.7
	c-6.9-5.9-13.3-13.5-21.4-16.5c-7.6-2.8-17.1-0.6-26.9-0.6c0-3,0.6-5.6-0.2-7.7c-0.9-2.4-2.8-5.1-5-6.1c-1.3-0.6-4.8,1.6-5.8,3.3
	c-4,7-7.3,14.2-11.1,21.9c-0.2-2.9,0-5.9-0.7-8.6c-1.4-5.7-3.4-11.3-5.1-16.9c-8.1,2.7-16.5,4.7-24.1,8.4c-3.3,1.6-4.7,6.8-9.1,13.5
	c0-10.1,0-16.7,0-25c-12.3,9.8-24.4,16.9-33,27c-5.2,6.1-5.1,16.7-6.9,23.4c-5.6-0.7-15.2-4.9-21.6-2c-7.2,3.2-11.7,12.7-18.2,20.5
	c0.5,0.2-2.4-1-6.4-2.6c-1.6,7.3-3,13.6-5.1,22.7c-2.7-5.4-4.2-8.2-6.1-11.9c-17.5,21.8-34.7,43.2-51.9,64.5c-0.6-0.5-1.3-1-1.9-1.6
	c15.9-26.2,31.8-52.4,48-79.1c-2.6-0.5-6.2-1.3-8.5-1.8c5.2-5.7,13.3-10.9,15.3-17.9c1.5-5.2-5-12.6-9.1-21.5
	c-5,6.6-7.8,10.2-10.6,13.9c-12.1-16.8-18,4.6-27,4.5c1.9-11.1,4.1-22.2,5.5-33.5c1.2-9.5-9.1-17.9-24.4-19.4
	c4,4.8,7.1,8.5,11.8,14.1c-4.6-1.7-7.8-2-9.6-3.7c-11.4-10.8-17.5-1.4-22.5,6.5c-5.4,8.7,0.6,13.9,7.2,20
	c6.3,5.8,9.3,15.2,12.6,23.7c-8.4-2-8.1-19-20.8-10c-3.7,2.6-5.1,8.3-8.6,14.6c-23.4,7.4-5.1,33.3-14.9,46.6
	c-1.2-10.6-2.4-22.1-3.7-33.6c-1.4,0-2.8,0-4.2,0.1c-8.3,12.9-18.1,25-24.4,38.8c-6.8,14.8-14.8,28.4-24.3,41.4
	c-12.1,16.4-22.7,33.5-18.2,56.1c-1.9-0.4-3.9-0.9-5.8-1.3c1.9-12.9,4-25.8,5.5-38.8c1.4-11.6,2-23.2,3-34.8
	c0.1-1.5-0.4-3.6,0.4-4.4c11.2-10.6,2.3-19.1-2.8-29.9c-3.8,4.5-6.7,7.8-10.3,12c0-6.8,0-12.5,0-18.2c-16.3-0.5-22.5,7.3-25.1,29.2
	c-1.5-11.3-3-22.5-4.4-33.8c-1.3-0.4-2.6-0.8-3.9-1.3c-4,7.9-8,15.7-11.9,23.4c-4.3-4-10.2-12.8-13.4-11.9
	c-8.1,2.3-14.9,8.9-20,12.2c9.2,32.3,31.3,57.9,26,95.4c-8-24-9.2-47.3-26.3-66.4c-1.3,4.8-2.1,8.1-3.8,14.5
	c-7.7-24.3-23-41.3-36.2-60.4c-5.1,10.6-10.4,21.6-15.6,32.6c-1-0.1-1.9-0.1-2.9-0.2c1.2-6.9,1-14.6,4-20.5
	c9.3-18.4-3-30.8-10.9-44.4c-3.2-5.6-7.7-10.4-12.5-16.8c-3.1,4.3-6.8,9.4-10.5,14.6c-0.5-0.2-1-0.4-1.5-0.6
	c2.8-12.2,6.9-24.3,7.8-36.6c0.5-6.7-3.4-14.5-7.3-20.5c-1.4-2.2-9-1.7-13.2-0.4c-17.7,5.1-25.1,20.8-16.7,34.1
	c-20.3,1.1-21.6,20.1-29.7,30.1c-3.7-0.5-8.5-2.3-9.8-1c-3.5,3.7-6.4,8.6-7.6,13.5c-0.6,2.2,2.6,6.8,5.2,8.3
	c22.3,13.3,25.8,39.3,39.2,58.8c-5.9-6.7-13.6-12.5-17.2-20.2c-8.4-18.1-26.2-26.3-38.6-40c-2.8-3.1-7.1-6.4-7.5-10
	c-1-8.8-6.2-10-13.2-10.6c-2.6-0.2-6.1-1.3-7.3-3.2c-5.8-9.3-12.3-7.5-19.6-1.5c-2.4-9.7,6.7-21.9-5.5-28.2
	c-3.7-2-10.1,1.3-15.9,2.2c-0.2-0.9-1-4.2-2.4-9.9c-3.3,6.4-5.6,10.8-8.9,17.2c1.3-24-8.2-30.5-29.6-21.5
	c-7.7,3.2-14.3,8.9-21.3,13.4c-0.2-3.1,0.2-9-1.3-14.4c-0.9-3.6-3.9-7.4-7.1-9.4c-1.2-0.7-5.4,3.6-7.8,5.2
	c-11.9-7.1-10.8,4.2-13.4,10c-16.6-2.4-34.3,9.6-41.8,24.7c-3.8,7.7-12.6,12.9-19,19c0.5-6,2.5-13.1,1.4-19.8
	c-1-6.5-5-12.5-6.5-16.2c4.6,0,12.9,2.4,16.6-0.7c3.9-3.2,3.4-11.7,1.9-18.1c4.8-3.2,10.3-5.8,14-9.9c1.7-1.9,1.1-7.5-0.4-10.4
	c-3.1-5.8-7.5-10.8-11.3-16.3c-0.6-0.9-0.7-2.1-1-3c5.5,3.2,10.9,6.4,16.4,9.5c1.2-0.7,2.3-1.5,3.5-2.2c-0.9-7.7-1.7-15.5-2.6-23.2
	c-0.2-1.9-1.1-4.2-0.4-5.8c9.9-23.9,9.8-25.1-6.3-42.6c5.3,1.1,9.9,2,15.8,3.2c-5.2-16.7-9.9-31.8-15.8-50.9
	c14.2,16.1,27.3,25.7,45.4,14c-10.6-27.3-10.9-27.5-29.1-23.9c8.3-20.6-1.1-43.3-19.9-48.2c3.6-15.3-3.8-24.5-22.3-25
	c-17.7-0.5-32.1-8.6-46.4-18c7.8,1.8,15.6,4.8,23.6,5.3c14.9,0.9,30-0.1,44.9,0.7c12.8,0.7,16-8.9,21.3-18.9c1.3,5.3,2.1,8.9,3,12.4
	c39,0.1,34.9-7.9,34.3-31.5c6.1,8.5,11,18.5,22.7,13.2c7.4-3.4,15.8-6.9,20.5-12.9c6.5-8.3,10-19,17.7-28.6c0,5,0,9.9,0,18.1
	c5.3-4.2,8-6.4,9.3-7.4c5.4,2.2,10.2,4.1,18.4,7.4c-2.6-8.6-3.9-12.5-4.8-15.7c6.3,0,14.4,2.4,19-0.6c5.3-3.5,7-12,11.2-17.7
	c2.3-3.2,6.9-4.6,9.7-7.6c8.3-8.6,16.2-17.6,26.9-29.2c-3.8,9.7-6.5,16.3-9.1,22.9c1.1,0.9,2.2,1.9,3.3,2.8
	c3.7-4.2,7.4-8.3,11.7-13.3c0.8,1.6,1.9,3.7,2.6,5.1c7.2-7.1,14.2-14.2,21-20.9c3.9,2.5,7.3,5.9,8.3,5.3c6.5-4,11.9-11.2,18.7-12.8
	c10.2-2.4,11.7-9,15.4-16.6c9.7-20.1,21.2-39.5,31.6-58.5c-0.2,1.3-0.4,3.7-0.8,6.1c-0.5,3-1.3,5.9-1.7,8.9
	c-1,7.8-1.2,15.9-3.1,23.5c-1.4,5.6-4.7,10.8-7.5,16c-2.5,4.6-12.7,6.5-5,14.7c0.2,0.2-0.9,2.3-1.8,3c-9.8,8.2-19.7,16.3-29.5,24.4
	c-2.5,2.1-5,4.2-8.5,7.1c3.9,2.5,6.5,4.2,9.6,6.2c-1.1,1-1.9,2.1-2.9,2.4c-18.3,6-21.3,13-10.2,28.5c5.1,7.2,12.5,12.8,19.1,18.8
	c1.3,1.1,4.3,1.5,6,0.8c8.6-3.6,16.9-7.6,24.7-11.2c3.3,2.3,7.1,7.2,10.9,7.1c6.4-0.1,13.5-1.7,13.2-11.9c-0.1-3.8,4.2-9.2,7.9-11.5
	c13.8-8.6,11.9-22.7,13.9-35.6c0.2-1.2,0.9-2.2,2.4-5.9c0.9,10.9,1.1,19.3,2.4,27.6c0.4,2.8,3,6.4,5.5,7.3c1.8,0.7,7-2,7.3-3.8
	c1.8-10.5,6.2-19.7,11.4-28.8c1.4-2.5-0.2-6.7-0.6-12.2c2.5,3.8,4.1,6.2,5.7,8.6c26.1-19.3,26.7-48.7,33.6-72.9
	c6.1,13.7,4.2,44.2-5.3,59.9c-1.8,2.9-3.4,6-4.5,9.3c-4.2,12.4-8.2,24.9-12.2,37.4c-0.5,1.6-0.5,3.3-1.2,7.8
	c7.3-2.4,13.2-4.3,21-6.9c-9.2,12.4-25.6,19.6-19.1,37.6c4.6,12.9-6.6,29.1,8.9,39.4c-16.2,23.3-9.4,49.8-12.7,75.8
	c-12-33.9-7.7-71.1-25.8-104.5c-10.4,9.4-11.2,21.7-14.9,32.5c-0.4,1.1,3.7,3.7,3.4,3.4c0.4,7.1-1.3,14.1,1.4,17.3
	c7,8.2,4.1,23.6,18.8,26.3c1,0.2,1.1,4.6,1.7,7c3.1,11.6,5.6,23.3,9.6,34.6c1.4,4,6.1,6.9,9.5,10c2.7,2.5,5.9,4.6,9.9,7.6
	c1.7-1.3,4.6-3.5,6.2-4.7c5.3,6.1,10.6,12,17.7,20c4.2-8.9,6.7-14.2,9.7-20.7c1.2,4.2,2.2,7.8,3.8,13.2c4.5-5.3,8-9.5,11.7-14
	c1.2,7.7,2,14.3,3.3,20.9c1.7,9.1,13.4,21,19.1,18.7c9.3-3.9,8.9-12.6,8.1-21c-0.2-1.7,0-3.4,0.8-5.8c5.6,13.2,9.4,28.1,28.2,28.2
	c4.7-13,5.3-24.9-9.1-35c4.6,0,7,0,9.3,0c5.3-19.1,1.3-33.8-11.4-43.1c6.6-14.3-15.6-13.9-13.4-27.4c4.7,3.1,8.4,7.2,12.8,8.1
	c3.8,0.8,8.3-2,14.8-3.9c-4.7-5.4-7.7-8.8-9-10.3c2.3-6.2,6.7-12.1,5.5-16.2c-2.1-6.9-7.8-12.6-13.5-17.4c-0.6-4-1.1-7.9-1.7-11.9
	c-3,0.7-5.9,1.3-9.9,2.2c3.5-7.5,6.8-15.3-4.1-18.4c2.3-6.3,4.3-11.8,6.2-17.3c-1.2-0.5-2.3-1-3.5-1.5c-6.8,8.1-15.7,13.9-14.1,28.1
	c1.4,12.5-1.8,25.5-2.6,38.3c-0.9,14-1.5,28.1-4.1,42.4c-0.5-5.9-1.2-11.9-1.5-17.8c-0.7-19.4-0.3-39-2.3-58.3
	c-1.1-10.2-6.3-20-9.1-28.4c2.4-2.8,7.3-6,6.9-8.4c-3.5-21.1-7.9-42.1-11.7-61.5c7.8,2.8,7.1-4.6,6.2-12.4
	c-2.2-20.7-4.2-41.5-4.1-62.6c3.7,28,9.4,54.8,27.4,78.4c1.8-2.3,3.5-4.3,6.7-8.2c-1.6,22,5.5,34.9,26.6,36.4
	c1.3,3,2.9,6.5,4.5,10.1c6.6-4,13.3-8,18.8-11.4c-0.4,4.7-2.3,12.2-1,19.1c0.7,3.7,6.2,7.6,10.4,9.3c5.4,2.3,11.6,3,17.5,3.5
	c4,0.3,8.2-1.1,13.2-1.9c0.2,2.8,0.3,5.5,0.6,10.7c12.7-3.9,24.8-7.6,35.1-10.8c-2.9,5.3-7.1,13.1-12.8,23.6
	c11.5,0,19.4,1.2,26.5-0.6c2.6-0.6,6-9.3,4.7-12.5c-4.5-11-10.9-21.1-16.5-31.6c-0.6-1.1-1.8-2.6-1.5-3.2
	c8.2-14.8-3.3-14.9-12.8-16.4c12.6-9.5,12.5-13.5,0.4-23.3c-7.3-5.9-14.4-12.1-21.9-17.9C641.5,242.9,638.9,243.1,636.9,242.6z
	 M633.8,547.9c1.2,0.6,2.5,1.3,3.7,1.9c4.3-3.3,8.7-6.5,13.5-10.1c-2.3,10.5-4.5,20.3-7.2,32.3c7.9-4,12.4-6.2,19-9.5
	c-3.2,6.6-5.3,10.3-6.9,14.3c-3.5,9,2.8,22.8,13.5,28.6c9.9,5.4,10.1-6.3,15.2-9.4c0.4-0.3,1.3,0.1-0.1-0.1c0.9,6.9,1.7,13,2.4,19.2
	c3.2-1.1,6.4-2.3,9.8-3.5c5,9.7,9.7,3.2,14.5-1.8c3.6-3.8,7.2-7.5,10.8-11.2c-1.9,10.3-6.1,19.2-4.3,26.6
	c3.1,12.5,10.1,24.1,17.2,39.8c0.8-10.7,1.4-18.1,1.9-24.1c4.3,1.7,9,3.7,15.8,6.4c-3.7-17.7,17.2-32.3-5.5-47.2
	c13.4,3,25.2-2.3,26-10.2c1.2-10.3-1.9-18.5-14.4-20c-10.3-1.2-20.5-3.4-30.5-5.1c11-3.2,22.7-6.6,37.9-11
	c-11.7-10.5-19.8-17.6-29.1-25.9c-0.2,0.5,0.9-2.6,3.4-9.4c-11.5-1.2-21.1-2.7-30.8-3c-6.5-0.2-14.5,4.1-19.2,1.5
	c-7.5-4.1-12.6-2.9-18.9,0.8c-2.5,1.5-6,1.2-9.1,1.8c1.4-3.3,3.5-4.6,5.4-6.1c8.5-7.3,26.3-4.3,25.6-22.4c0-0.3,4-0.4,5.9-1.2
	c10.3-4.6,13.6-23.4,6.9-30.9c3.2-2.9,9.2-6.2,8.9-8.6c-1.2-8.6-4.5-17-7-25.1c10.4,1.3,13.5-2,10.1-14c-2.8-9.8-8.5-18.9-5.7-30.9
	c2.6-11.3-3.7-14-16-9.3c-0.6,0.2-1.5-0.2-2.4-0.3c0-2.4,0-4.9,0-8.4c-9.7-0.5-19.2-1-31.1-1.6c3.6,9.7,6.1,16.4,9.4,25.3
	c2.5-4.3,3.8-6.4,5.6-9.6c2.5,26.9,4.8,51.3,7.3,78.1c-12.1-27.9-23.4-54-34.8-80c-1.5-0.2-3-0.4-4.5-0.7c-1,2.7-2,5.4-3.2,8.6
	c-3.3-5.1-5.2-8.1-7.2-11C635,389.7,621.3,407,632,426c-3.6,5.3-12.2,10.8-3.6,15.2c-1,7.8-1.8,13.7-2.6,19.6
	c1.3,0.2,2.5,0.5,3.8,0.7c2.8-2.5,5.5-5.1,8.3-7.6c1,0.6,2,1.3,3,1.9c-3.5,8.4-8,16.5-10.2,25.2c-2.1,8.2-1.9,16.9-3,28.9
	c6.2-4.2,8.8-6,12.2-8.3C637.8,517.8,635.8,532.9,633.8,547.9z M345.2,520.7c-0.3,0.9-0.5,1.9-0.8,2.8c-15.8-3.2-31.9-5.3-47.3-9.9
	c-11.2-3.4-15.3-0.2-15.9,8.9c-4.2-3-8.6-6.3-13.1-9.6c-3.1,4.4-7,8.4-9.1,13.2c-3.2,7.2-5.1,15-7.5,22.5c-0.8-0.2-1.6-0.5-2.4-0.7
	c-0.5-3.6-0.9-7.1-1.4-10.3c-7.1,18.3-14.3,36.3-21.1,54.4c-2.3,5.9-5.4,12.9,6.1,11.9c-2.8,16.8,5.1,36.7,14.6,38.4
	c-1.1,9.7,6.9,27,15.6,29.8c6.3,2.1,14.8,6.5,19.7-3.7c0.5-1.1,2.6-2.5,3.4-2.2c11,3.4,11.2-5.6,12.6-11.6
	c3.2-13.7-5.5-22.2-14.8-31.3c-3.4,4.1-6.3,7.5-6.7,8c-8.2,0-13.3,0-18.4,0c-1.4-8.8-12.6-14.5-7.9-26.7c2.8-7.1,0.5-16.2,0.5-22.5
	c6.9,2.9,16,6.8,25.8,10.9c2.2-6.9,3.4-10.4,4.8-14.7c4.9,13.4,5.5,13.2,24.6-7.9c1.5,3.9,3.1,7.8,4.5,11.5
	c-19.8,22.6-20.3,34.1-1.6,66.5c2.2-19.9,9.6-34.5,26.6-42.3c-1.6-4.5-2.8-7.9-3.1-8.6c7.1-2,13.5-3.7,19.8-5.5
	c-1.1-3.9-2.2-7.8-3.7-13.2c6.7-6.7,3.4-14.1-3.6-21.5c-6.1-6.5-11.8-13.3-19.6-22.3c13.1,5.4,23.1,9.5,34.3,14.2
	c0-8.9-1.7-15.6,0.3-21.1c5.9-16.2,3.7-29.1-11.7-38.6c-2.7-1.7-4.8-4.3-8.2-7.5c8.8,1.9,16,3.5,23.2,5.1c1.1-1.2,2.1-2.4,3.2-3.6
	c-3.7-5.8-7.3-11.5-11-17.2c9.7-6.3,9-13-2.7-21.2c6.8-11.5-6.5-18.6-5.9-28.8c2.7,2.1,5.2,4,7.7,6c8.5-5.8,15.6-11.3,5.1-19.8
	c2.4-2.6,6.7-5.6,6.3-7.2c-2.8-9.9-6.7-19.5-11.5-33c-3.7,5.4-5.5,10-7,9.9c-13.3-1-15.7,6.7-16.8,17.7c-1,10.4-2,21.9-7,30.5
	c-10,17-11.5,35.2-13.1,51.4c-5.4,2.1-11,2.7-13.9,5.8c-3.6,3.7-7.9,13-6.8,14c7.4,6.4,15.8,11.9,24.6,16.4
	C324.6,513,335.1,516.5,345.2,520.7z M190.8,469.5c10,1.4,28.7-13.8,34.8-28.2c-5.6-0.7-10.8-1.3-18.7-2.3
	c11.1-7,20.4-12.9,29.6-18.7c-2.7-2.4-5.4-4.9-5.4-4.9c3.5-8.9,6.2-15.7,8.6-22.5c0.7-1.9,0-5.7,1-6c14.5-5.7,7.1-15.3,5.1-25
	c-8.4,2.5-16,4.7-20.6,6.1c-4.4-3.9-7.3-8.5-10.1-8.4c-3.6,0.1-8.2,3.1-10.5,6.3c-3.9,5.3-6.3,11.7-9.3,17.8
	c-8.1-12.1-8.6-11.5-16.4-0.4c-3.8,5.4-12.6,12.6-17,11.3c-10.1-3-11.1,2.3-13.3,9.1c-1.5-2.6-2.9-5-5.5-9.4
	c-7.2,7.9-13.5,14.8-19.1,21c-0.5-0.8-2.2-4-3.9-7.1c-13.5,6.6-14.8,13.8-7,25.1c-1.2,6.9-2.9,12.1-2.7,17.1
	c0.5,13.9,16.6,20.7,17,35.1c0,1.3,4.9,2.9,7.7,3.5c16.5,3.2,28.8-1.6,32.1-17.2c3.9,3.9,7.3,10.4,11.5,11
	C185.7,483.6,191.6,479.1,190.8,469.5z M521.2,598.7c0.7,0.3,1.4,0.6,2.1,0.9c-3.2,8.2-7.7,16.1-9.2,24.5c-1.6,8.8-0.4,18-0.4,27.9
	c2.1,0.3,5.5,0.8,9,1.3c-0.4,2.3-0.4,3.7-0.8,4.8c-2.6,7-5,18.6,2.6,18.5c8.7-0.1,10.8,7.8,17.1,7.6c2.2,0,4.8-3.2,6.3-5.6
	c1.9-3,3-6.6,4.8-10.6c8.3,16.5,11.4,17.6,16.1,11.5c7.9-1.4,14.3-0.7,16.1-3.2c8-11.4,5.7-32.6-3.3-43.1c-1.5-1.7-2.2-4.2-2.9-5.6
	c5.1-0.7,9.6-1.4,14.2-2.1c-1.7-4.6-2.9-9.5-5.2-13.7c-2.2-4-5.6-7.3-8.4-10.9c7.3-11.6,7.3-11.6,2.1-30.1
	c-6.1-21.7-6.1-21.7-24.2-8.7c-0.5,0.3-1.5-0.1-1,0c-2-4.4-3.7-8.3-5.4-12.1c-4.7,2.4-9.3,4.9-11,5.8c-7.9-2.2-14.5-4-21.2-5.9
	c-0.9,9.2-7.9,4.2-15.5,4.5c4.2,9.6,7.6,17.4,11.2,25.8c-16.2,7-5.4,19.5-3.7,31.3C514,607.3,517.6,603,521.2,598.7z M793.5,500.4
	c-15.2,13.3-31,6.5-46.2,5.3c0,12.9,14.4,28.5,28,32.7c2.7,5.7,3.8,12.4,7.7,14.9c3.6,2.3,10,0.1,13.7-0.1c-2.4,5-5,10.3-7.6,15.6
	c7.8,3.7,15.6,7.4,22.8,10.8c-6.6,4.7-7,10.5,4.5,14.8c1,0.4,2.1,2.4,2,3.5c-1.7,10.8,4.5,9.2,10.6,6.7c7.4-3.1,14.4-7.7,22-10.1
	c22.9-7.2,27.2-21,13.4-37.4c4.9-1.2,10.9-2.6,16.9-4.1c-1.4-4.7-2.8-9.5-4.6-15.3c5.7-6.7,3-13-11.2-20.4c-2.3,2.5-4.6,5.1-7.7,8.5
	c-3.3-4.8-5.9-8.7-7.2-10.5c-7.1-1.4-13.3-1-17.6-3.7c-10.6-6.7-21.1-5-31.9-1.8c-2.3,0.7-4.4,1.9-7.5,3.3
	C793.5,509.4,793.5,506.6,793.5,500.4z M129.9,569.5c-0.7,4.1-2.7,8.6-1.9,12.4c1,5.1,3.3,10.6,6.7,14.3c3.4,3.7,10.1,4.6,13.2,8.4
	c7.6,9.5,16.6,2.7,24.8,2.7c1.1,0,2.6-10.5,3-16.3c0.2-3.1-1.6-6.4-2.1-8.4c8.7-4.4,16.7-8.3,22.5-11.3c-1.9-9.8-3.5-18.1-4.9-25.4
	c5.8,0.8,11.4,3.3,14.3,1.4c4.1-2.6,1.1-19.2-0.9-20.4c7.4-11.8,14.8-23.7,22.3-35.7c-0.8-1.1-1.5-2.1-2.3-3.2
	c-12.8,6.1-25.7,12.1-40.8,19.3c-4.9-5-12.5-7.5-21.7,2.4c-5.9,6.4-14.9,9.9-21.5,14c0-0.8,0.7-5.4-0.8-9c-0.8-1.9-7-3.9-8.1-3
	c-4.4,4.1-9,8.8-11.3,14.2c-2.6,6-6.7,13.8,2.1,17c-1.3,8.3-2.6,16.1-3.2,23.8C119.2,567.5,125.3,568.4,129.9,569.5z M440.2,527.3
	c6.4-40-4.1-75.9-23.1-110.1c-1.4,5-2,9.9-1.3,14.7c1.2,7.7,5,15.2,4.7,22.7c-0.4,10.1-4,20-5.6,30.1c-0.4,2.6,1.8,5.6,2.8,8.5
	c1.5,0,3,0,4.5,0c-3,5.4-7.1,10.5-8.6,16.3c-1.1,4.1,1.1,9.1,1.9,13.8c0.7-0.1,1.3-0.2,2-0.3c-3.6,14.7-7.1,29.5-10.7,44.2
	c0.9,0.2,1.8,0.4,2.7,0.6c2.3-3.3,4.6-6.7,6.8-10c0.9,0.4,1.9,0.7,2.8,1.1c-6.9,26.7-13.8,53.4-20.7,80.1c1.2,1.2,2.5,2.4,3.7,3.5
	c5.6-4.1,13.5-7.1,16.1-12.6c3.7-7.9,3.4-17.6,4.4-24.4c7.6-2.4,12.8-4,18-5.7c4.7,12.5,19.8,19.6,40,16.8
	c-8.2-15.7-16.1-30.7-24.2-46.1c12-15.6-5.9-30.8-2.8-48.8C447.8,524.1,444.5,525.4,440.2,527.3z M294.7,371
	c-18.1,15.1-13.8,37.1-21.5,57.6c6.2-1.4,9.7-2.1,14.4-3.1c-4.5,9.8-16,14.8-9.6,27.3c3.9,7.7-6.6,20.3,7.2,26
	c25.6-23.4,29-31.9,18.8-42.4c2.1-6.7,4.4-12.5,5.9-18.5c3.2-13.2,3.6-27.6,9.3-39.5c12.3-25.8,5.1-46.7-10.7-67.5
	c-5.8,7.7-5.8,7.7,3,16.6c-7.8,3.6-27.2,33.4-25,39.9C288.7,368.3,291.6,369.6,294.7,371z M437.4,722.6
	c18.3-10.4,20.5-28.3,28.6-42.6c4.5-8,5.9-14.2-1.3-17.2c3-8.7,6.5-16.3,8-24.3c0.7-3.7-1.8-8.7-4.3-12c-0.8-1.2-8.5,0.3-8.7,1.4
	c-0.8,4.1,0.3,8.5,0.6,12.2c-7.9,5.3-16.5,11.1-25.6,17.1c-1.4-1.6-3.2-5.1-6-6.4c-5.1-2.3-10.9-4.7-16.1-4.1
	c-2.4,0.2-6.2,7.4-5.8,11.1c1,9.6,4,19,6.3,28.8c3.1-1.3,4.9-2.1,3.6-1.5C423.7,697.7,430.3,709.7,437.4,722.6z M909.1,600.2
	c9.9,17.2,19.8,34.4,29.7,51.5c1.4,0,2.8-0.1,4.2-0.1c1.3-6.1,3.5-12.3,3.4-18.4c-0.1-2.2-5.8-4.4-8.8-6.5
	C939.7,607.1,921.9,606.2,909.1,600.2z"/>
</svg>
