<?xml version="1.0" encoding="utf-8"?>
<!-- Generator: Adobe Illustrator 21.0.0, SVG Export Plug-In . SVG Version: 6.00 Build 0)  -->
<svg version="1.1" id="Layer_1" xmlns="http://www.w3.org/2000/svg" xmlns:xlink="http://www.w3.org/1999/xlink" x="0px" y="0px"
	 viewBox="0 0 1000 1000" style="enable-background:new 0 0 1000 1000;" xml:space="preserve">
<path d="M430.5,50.4c14,3.5,27.6,8.1,41.8,10c12.2,1.6,22.9,6.1,33.7,10.9c2.5,1.1,5.3,1.6,7.9,2.6c2.1,0.8,4.1,1.8,6,2.8
	c2,1.1,4,2.4,6,3.7c3.2,2.2,6.4,4.3,9.5,6.6c5.3,4.2,10.6,7.1,18,5.6c9.7-2,19.7-2.6,29.4-4.1c6.7-1.1,13.3-3.7,20-4
	c10.5-0.5,21.1,0.4,31.6,0.8c1.9,0.1,3.8,0.7,5.6,0.5c7.7-1.1,15.1,0.6,22.6,1.7c8.8,1.3,17.2-0.1,25.5-3.5c4.9-2,10.2-3.4,15.5-3.9
	c18.6-1.9,36.6,1.3,54.7,5.1c1.1,0.2,2.1,1.3,3.1,2c-1.2,0.6-2.4,1.8-3.6,1.7C746.4,88,735,87,723.7,86c-7-0.6-13.6,1.1-20.3,3.3
	c-9.6,3.2-19,9.2-29.7,4.5c-0.5-0.2-1.1-0.3-1.6-0.3c-12.1-0.8-24.2-1.7-36.3-2.2c-6.9-0.3-13.8,0.8-20.5-1.9
	c-0.9-0.4-2.9-0.2-3.3,0.5c-2.2,3.2-5.7,3.5-8.9,3.8c-6.1,0.7-12.2,0.8-18.3,1.3c-2.7,0.2-5.4,0.3-7.9,1c-3,0.9-5.8,1.9-9.1,1.2
	c-3.2-0.7-4.4,1.7-5.7,4.5c1.3,0.6,2.4,1,3.4,1.6c2.3,1.3,4.5,2.8,6.7,4.2c1.4,0.9,2.8,1.9,4.3,2.6c8.4,3.6,17,6.8,25.2,10.7
	c9.1,4.3,17.9,9.2,26.7,13.7c2.9,1.4,6,2.2,9,3.3c0.7,0.3,1.5,0.5,2.1,1c4.4,4.1,8.7,4,12.2-0.6c0.9-1.1,1.4-2.5,2.1-3.8
	c0.7,0.3,1.3,0.7,2,1c0.3,1.7,1.1,3.6,0.8,5.1c-1.8,7.9,2,12.4,8.5,16.1c11.5,6.6,22.6,14,34.2,20.3c10.7,5.8,20.3,2.7,27.2-7.4
	c1-1.5,3.3-2.8,5.1-2.9c2.3-0.1,4.2,1.4,5,4.1c0.9,3.4,3.2,4,6.5,2.3c3.5-1.8,6.8-3.8,10.5-5.2c1.6-0.6,3.8,0,5.7,0
	c2.5,0,5,0.1,7.5-0.3c2.3-0.4,4.4-1.5,6.6-2.1c10.8-3,22.3-3.6,31.7-10.4c0.7-0.5,1.7-0.9,2.5-0.9c8.5,0.2,15.3-4.2,22.4-7.9
	c4.3-2.2,8.6-4.3,12.9-6.3c1.1-0.5,2.5-0.5,4.5-0.8c-0.7,3.2-1.3,5.9-1.8,8.1c3.2,1.2,5.9,2.8,8.8,3.3c1.8,0.3,4-0.9,5.9-1.7
	c1.1-0.5,1.8-1.6,2.7-2.4c1.9-1.6,2.9-1.5,4.6,0.9c4.3,6.3,8.8,12.6,16.8,14.9c1.5,0.4,3,1,4.3,1.7c3.4,2,6.8,3.1,10.8,1.8
	c1.2-0.4,3.3,0.6,4.3,1.6c2.4,2.3,5,3.5,8.2,3c7.5-1.3,14.6,1,21.8,2.2c1.9,0.3,3.8,1.3,5.6,2.1c4.7,2,9.3,4.2,14,6.2
	c5.9,2.5,11,5.8,15,10.8c1,1.3,2.2,2.6,3.5,3.6c8,5.9,12,14.5,15,23.5c1.9,5.5,5.5,9.6,9.9,13.1c1.1,0.9,2.3,1.8,3.1,2.9
	c0.5,0.8,0.3,2,0.4,3.1c-1-0.1-2.3,0.1-3-0.4c-6.2-4.3-11.9-9.5-14.6-16.6c-4.3-11.1-12-19.3-20.9-26.4c-5.1-4.1-10.6-7.9-16.5-10.8
	c-5.3-2.6-11.4-3.8-17.1-5.5c-0.8-0.2-1.9,0.2-2.7,0.7c-2.6,1.8-4.9,1.8-7.6-0.3c-1.6-1.2-3.9-1.6-6-2c-2.9-0.5-5.9-0.5-8.9-0.8
	c-4-0.3-8.3,0.2-12.1-0.9c-5-1.4-9.8-0.1-14.6-0.2c-2.2-0.1-4.4-1.6-6.6-2.2c-3.9-1.2-5.4,0.3-5.2,4.4c0.2,2.6-0.2,5.3-0.8,7.9
	c-0.2,0.8-1.8,2-2.5,1.8c-0.8-0.2-2.1-1.7-2-2.5c0.5-4.6-1.1-8.7-2.6-13c-1.1-3.4-2.9-5.2-6.2-3.9c-3.2,1.3-5.6,0.4-8.1-1.1
	c-3.2-1.9-6.3-3.6-9.5,0.2c-0.3,0.4-2.7-0.2-3.3-0.9c-2.8-3.5-6.2-4.3-10.4-3.4c-3.8,0.8-7.7,1.4-11.5,2.3c-1.8,0.4-3,1.6-3,3.8
	c0,11.2-0.3,22.3-0.2,33.4c0,2.3,1.5,4.5,2.3,6.8c1.8-1.4,3.6-2.7,5.3-4.2c1.5-1.3,2.7-3,4.3-4.2c2.1-1.7,5.1-1.2,6.5,0.9
	c1.5,2.4,0.3,3.8-1.9,5c-0.6,0.3-1.1,2.2-0.8,2.8c1.9,3.8,4,7.1,8.5,8.8c5,2,8,6.6,10.3,11.5c1.4,3.2,2.9,6.3,4.2,9.5
	c3.9,9.6,12.1,12.9,21.5,14c5.1,0.6,9.1,3.1,12.2,7c3,3.7,5.6,7.8,8.6,11.5c2.1,2.5,4.8,4.6,7.1,6.9c0.7,0.7,1.2,1.6,1.7,2.4
	c1.3,1.9,2.6,3.8,3.9,5.7c0.4,0.6,1,1.4,1,2.1c-0.2,4.4,2.5,7.8,3.9,11.6c0.9,2.4,1.5,4.9,1.7,7.4c0.8,7.3,4.9,11.8,12.3,12.8
	c1.9,0.3,3.7,0.5,5.6,0.9c0.4,0.1,0.7,0.4,1.6,1c-1.6,0.7-2.6,1.5-3.7,1.6c-7.9,0.9-17.5-1.3-21.1-11.5c-2.3-6.6-4.9-13.2-7.4-19.7
	c-1.3-3.4-3.3-5.9-7-7.1c-3.5-1.2-5.6-3.6-6.5-7.4c-1.5-6.2-6.1-10.1-11.6-12.6c-1.7-0.8-3.9-0.8-5.8-0.5c-7.1,1.1-9,0.3-12.2-6
	c-2.3-4.4-6.2-7-11-8c-4.9-0.9-5.8-2-6.8-6.8c-0.8-3.9-1.9-7.8-3.3-11.5c-0.6-1.6-2.3-3-3.9-3.9c-1.6-1-3.3-1.1-4.1,1.6
	c-0.3,1-1.9,1.8-3.1,2.2c-1,0.3-2.2,0-3.6-0.1c-0.3,3.4-0.3,6.8-0.9,10c-0.4,1.8-1.8,3.4-2.7,5.2c-1.1-1.8-2.6-3.5-3.1-5.4
	c-1.1-4-1.6-8.1-2.4-12.2c-0.5,0-1-0.1-1.5-0.1c-1.2,2.6-2.5,5.2-3.7,7.7c-0.4-0.1-0.8-0.2-1.2-0.3c0.1-1.6,0.3-3.2,0.3-4.7
	c-0.1-3,0-6-0.5-8.9c-0.3-2.4-1.8-3.6-4.2-1.9c-1.9,1.3-3.5,1.7-4.6-1.2c-0.4-0.9-2.7-2-3.4-1.7c-1.6,0.8-3.4,2.2-4,3.8
	c-0.7,2-0.3,4.4-0.5,6.6c-0.1,1.4-0.6,2.8-0.9,4.2c-0.4,0-0.8,0-1.2-0.1c-0.2-1.1-0.6-2.2-0.6-3.3c-0.1-2-0.1-4-0.2-6
	c-0.1-3,0-6.3-4.8-4.3c-0.3,0.1-0.7,0-1-0.1c-5.4-1.5-6.2-1.2-8.8,3.7c-0.9,1.7-1.7,3.4-2.4,5.1c-1.1,2.5-1.3,4.8,0.3,7.5
	c2.3,3.9,3,8.2,1.1,12.8c-3.7,9-2.5,17.9,1.1,26.6c1,2.5,2.1,5,2.5,7.6c0.2,1.1-1.1,2.5-1.6,3.7c-1.1-0.8-2.4-1.5-3.4-2.4
	c-0.9-0.9-1.4-2.1-2-3.1c-0.3,0.1-0.5,0.2-0.8,0.2c-2,18.9-3.9,37.8-5.9,57c2.8-1.2,5.2-2.3,7.7-3.2c0.6-0.2,1.3,0,2.8,0
	c-0.5,2.3-1.1,4.3-1.4,6.4c-0.2,1.2,0.2,2.5,0.3,3.7c1.2-0.4,2.6-0.5,3.6-1.2c3.2-2.4,5.2-5.7,5.7-9.8c0.5-4.2,2.6-6.3,6.3-6.6
	c0.1,0.6,0.3,1.2,0.4,1.8c0.9,8.1,7.7,12,15.6,9.8c8.8-2.5,16.7-6.6,23.6-12.6c3-2.7,10.9-2.3,14.5-0.5c5.1,2.5,10.6,2.1,16,0.5
	c3.7-1.1,7.5-2.2,11.1-3.6c2.8-1.1,5.5-2.7,8-4.4c2.2-1.5,6.3-1.2,9.1,0.8c1,0.8,2.5,1,3.7,1.5c1.1,0.5,2.4,1,3.3,1.8
	c2.3,2,4.3,4.2,6.6,6.1c3.1,2.6,6.7,3.3,10.7,2.6c2.7-0.4,5.5-0.4,9.5-0.6c-1.4,3-2.2,5.3-3.6,7.3c-3.1,4.4-4.9,8.8-2.6,14.3
	c0.6,1.5,0.1,4-0.8,5.5c-2,3.1-2.3,5.5-1.2,9.4c1.9,7,6.7,9.3,12.4,11.7c3.2,1.3,5.9,3.6,9,5.1c3,1.4,6.2,2.2,9.3,3.2
	c2.4,0.8,4.7,1.6,7.1,2.3c0.9,0.2,1.9,0,2.8,0.1c2.1,0.2,4.1,0.4,6.2,0.6c0.1,0.6,0.2,1.2,0.3,1.8c-1.6,0.7-3.1,1.9-4.7,2
	c-9.7,0.8-19.1,0.4-27.4-5.7c-3.6-2.6-8.4-3.5-12.6-5.3c-1.8-0.8-3.5-1.9-5-3.1c-1.6-1.3-3-1.9-4.6-0.1c-2.2,2.4-4.3,4.8-6.7,6.9
	c-1,0.9-2.5,1.2-3.9,1.7c-0.5-1.4-1.7-3.4-1.2-4c4.2-4.8,4-10.9,5.5-16.6c0.8-2.9,1.6-5.9,2.5-8.8c0.2-0.9,0.5-1.7,0.9-2.5
	c3.7-6.2,1.5-13.9-4.9-17.3c-1.7-0.9-3.4-1.8-5-2.7c-2.6-1.6-5-2.8-8.3-1.3c-1.7,0.8-4.6,0-6.6-0.9c-2.8-1.4-5.4-1.6-8-0.4
	c-2.5,1.2-4.9,2.7-7,4.6c-0.9,0.8-0.7,2.7-1.2,4c-0.7,1.6-1.3,3.5-2.6,4.6c-0.5,0.5-2.9-0.5-3.9-1.4c-3.3-3-7.6-3.9-12-2
	c-0.1,0-0.2,0.1-0.3,0.2c-5,0.8-8.3,3.4-9.4,8.7c-0.2,1-2.3,1.5-3.6,2.2c-0.3,0.2-0.9-0.1-1.3,0c-2.7,0.1-5.4,0.2-8.2,0.2
	c-0.4,3.8-0.9,7.7-1.2,11.5c-0.1,1.3,0.4,2.8,0,3.9c-3.3,10-3.3,20.4-4,30.7c-0.1,2.3,0.6,4.2,3,5c0.6,0.2,1.4,0.5,1.7,1.1
	c0.7,1.3,1.2,2.7,1.7,4.1c-1.3,0.4-2.5,0.9-3.8,1c-0.9,0.1-1.9-0.3-3.3-0.6c-0.2,4.8-0.5,9.5-0.7,14.1c-0.5,12.4-1,24.8-1.7,37.1
	c-0.3,4.6-1.2,9.1-1.6,13.6c-0.2,2.7-0.9,6,3.1,7.2c0.4,0.1,0.8,2.6,0.3,3.4c-1.6,2.4-3.6,4.5-5.7,6.6c-1.5,1.5-2.9,0.8-3.2-1
	c-0.3-1.8-0.2-3.8,0.3-5.6c2-6.2,2.1-12.4,1.9-18.9c-0.3-9.4,0.2-18.8,0.3-28c0-5.7,0-11.4-0.1-17.1c0-1.4-0.5-2.8-0.7-4.3
	c-3.8,2.1-7.1,10.7-5.8,14.5c0.9,2.6,1.4,4.4-2.4,4.8c-1,0.1-2.2,1.9-2.7,3.1c-1.8,4.5-3.2,9.2-5.1,13.8c-0.6,1.4-2.1,2.4-3.1,3.6
	c-0.7-1.1-1.5-2.2-2.5-3.8c-0.7,1.3-1.4,2.3-1.9,3.4c-1.4,3.2-2.4,6.6-4.1,9.5c-1.3,2.1-3.7,3.5-5.4,5.4c-1.5,1.7-3.1,3.4-4.1,5.5
	c-1.4,2.8-2.3,5.4-5.9,6.6c-4.7,1.7-6.8,8.3-5.1,13.1c0.3,0.8,0.5,1.8,0.4,2.6c-0.7,3.9-0.1,7.4,2.3,10.8c0.9,1.2,0.4,3.9-0.2,5.7
	c-0.8,2.7-0.8,4.7,1,7.1c2.3,2.8,2.1,6.6,2.8,10c2,9.2-2,17.8-1,26.6c0.2,1.7,0.6,3.6,1.4,5.1c1.9,3.4,1.4,6.4-0.5,9.5
	c-3,4.9-4.6,9.9-3.9,15.9c0.3,2.7-0.7,6-2,8.5c-1.9,3.7-1.8,7,0.1,10.5c0.4,0.8,1.5,1.4,1.5,2.2c0.1,2,0.5,4.4-0.5,5.8
	c-1.3,2-3.4,0.6-5-0.5c-1.3-0.9-2.4-2.1-3.6-3c-3.2-2.3-6.5-1.7-8.4,1.9c-0.8,1.6-1.2,3.6-1.4,5.4c-0.5,4.6-1.7,8.7-4.7,12.3
	c-1.3,1.5-2.4,3.2-3.6,4.8c-3.3,4.5-6.6,9-12.3,10.9c-1.1,0.4-2.1,1.3-3.2,1.8c-12.9,6.4-19.9,17.1-22.5,30.9
	c-0.2,1.2-0.7,2.4-0.8,3.6c-0.6,10.4-7.6,18-12.1,26.5c-1.3,2.6-4.2,4.3-6.1,6.6c-5.4,6.3-6.1,14.1-7,21.9
	c-0.6,5.1-2.8,9.4-5.6,13.7c-10.7,16.6-18,34.1-17,54.6c0.4,8.6-1.6,17.3-2.3,25.9c-0.5,5.9-0.6,11.8-1.2,17.7
	c-1.2,11.6-2.4,23.3-3.9,34.8c-2.1,15.9-1.8,31.7,0.2,47.6c0.6,5,1.2,10.1-0.6,15.1c-0.4,0.1-0.7,0.2-1.1,0.3
	c-0.5-1.5-1.3-3.1-1.4-4.6c-2.1-26.2-3-52.3,0.4-78.5c1.9-14.6,3.5-29.2,4.7-43.9c0.6-6.9-0.4-13.9,0.1-20.8c0.7-10.7,1.8-21.3,7-31
	c3.8-7.1,5.8-14.9,5.8-23.2c0-4.7,1.1-9.5,0.8-14.2c-0.3-5.8-2-6.4-7.4-3.9c-1.5,0.7-3.1,1.4-4.7,1.8c-0.7,0.2-1.9-0.1-2.3-0.7
	c-0.4-0.5-0.3-2.1,0.1-2.4c2.4-1.8,4.9-3.5,7.5-5c1.3-0.7,2.8-1.2,4.2-1.5c4.7-1.1,7.8-3.9,9.1-8.6c0.2-0.8,1.4-1.4,2.1-2.1
	c2.1-1.9,3.4-4.1,2.7-7.1c-0.2-0.9-0.1-1.8-0.1-2.7c0-7.8,4.2-12.2,11.9-12.2c2.6,0,3.5-0.8,4.6-3.4c3.8-9.3,8.3-18.3,12.5-27.3
	c5.2-3.2,6.5-9.5,10.6-13.4c1.8-1.7,4.1-3,6.4-4.2c2.4-1.2,5.2-1.7,7.3-3.3c2.6-1.9,5-4.3,6.9-7c2.1-3,3.6-6.4,5.2-9.7
	c1.4-3,0.5-4.3-2.8-4.7c-3.1-0.3-5.5,0.5-7.6,3.2c-1.6,2-4,3.4-6,5.1c-0.9,0.8-2,1.4-2.7,2.4c-2.1,2.9-3.9,6-6,8.9
	c-0.9,1.3-2.1,2.4-3.2,3.5c-0.3-0.1-0.6-0.3-1-0.4c0.2-1.5,0.1-3,0.5-4.4c2.7-8.6,6.4-16.7,11.8-23.9c3.9-5.4,11.4-7.7,17.7-5.8
	c0.7,0.2,2.1,0.4,2.3,0.1c1.8-2.5,4.6-2.8,7.2-3.8c5.8-2.1,8-7.5,10.1-12.7c0.3-0.6-0.1-1.8-0.6-2.4c-2.4-3.4-2.8-5.2,0-8.2
	c4.1-4.2,4.7-9.2,4.6-14.6c-0.1-6.8-0.2-13.6-0.5-20.4c-0.1-2.6-0.1-5.6-3.5-6.5c-2.4-0.7-6.7,1.5-8.4,4c-0.6,0.9-0.9,2.1-1.7,2.8
	c-0.8,0.8-2.2,1.7-3,1.4c-0.8-0.2-1.7-1.7-1.9-2.7c-0.6-2.9,0.7-5.3,2.8-7.1c6.1-5.1,5.7-11.5,3.4-18c-2.6-7.3-10.7-8.9-16.3-3.7
	c-1.1,1-1.9,2.2-3,3.2c-0.8,0.7-2.1,1.6-2.7,1.4c-0.9-0.4-1.8-1.7-2-2.7c-0.9-7.6,0.2-14.7,5-20.9c2-2.6,4.3-4.9,6.2-7.4
	c9.4-12.4,13.9-27.1,18.7-41.5c0.9-2.8,0-6.7-1.2-9.6c-1.9-4.7-6-5-9.2-1.2c-4.3,5-6.5,10.9-6.8,17.5c-0.4,8.7-0.7,17.4-1.3,26.1
	c-0.1,1.2-1.2,2.4-1.8,3.5c-0.5-1.3-1.2-2.5-1.6-3.8c-0.2-0.6,0-1.3,0-2.2c-1.8-0.3-3.5-0.6-5.6-0.9c-0.2,1.5-0.1,2.8-0.6,3.8
	c-0.3,0.7-1.3,1.5-2.1,1.7c-0.4,0.1-1.6-1.1-1.6-1.6c0.2-4.2,0.4-8.4,1-12.6c0.3-2.2,2.2-2.3,4-1.7c2.1,0.7,1.4,1.9,0.7,3.4
	c-0.5,1.1-0.2,2.5-0.3,3.8c0.5,0.2,1.1,0.3,1.6,0.5c0.9-1.7,2.4-3.3,2.6-5.1c0.9-9.9,1.4-19.8,2-29.7c0.2-2.8-2.5-5.5-6.4-6.3
	c-1.6-0.3-3.4-0.4-5,0c-2.3,0.6-4.5,1.5-5.9-1.8c-0.3,0.1-0.6,0.1-0.9,0.2c-0.6,2.6-1.1,5.2-1.7,7.8c-3.3,15.2-0.2,30.3,0.5,45.5
	c0.1,1.6-0.8,3.3-1.3,4.9c-1.2-1.4-3.4-2.7-3.6-4.2c-0.9-5.8-1.2-11.8-1.6-17.6c-0.2-2.7-0.3-5.4-0.5-8.1c-0.5,0-1-0.1-1.5-0.1
	c-0.3,1.9-0.8,3.9-0.9,5.8c-0.5,6.3-0.8,12.7-1.2,19c-0.1,0.8-0.1,1.7-0.6,2.2c-0.7,1.1-1.8,2-2.7,2.9c-0.9-1.3-2.4-2.4-2.5-3.8
	c-0.2-1.9,0.6-3.9,1-5.9c0.4-2,1-3.9-1.8-5c-0.7-0.3-0.9-1.6-1.5-2.4c-0.7-1-1.5-1.9-2.3-2.9c-0.5,0.2-1,0.3-1.5,0.5
	c0,7.6,0,15.1,0,22.7c-0.5,0.1-1.1,0.2-1.6,0.3c-0.7-1.6-1.9-3.1-2-4.7c-0.2-4.7-0.1-9.3,0-14c0.2-11.9,0.5-23.9,0.4-35.7
	c0-3.5-1.5-7-1.9-10.5c-0.1-1.2,1.1-2.5,1.5-3.9c0.5-1.6,1-3.2,0.9-4.8c0-0.6-1.7-1.3-2.7-1.4c-0.3-0.1-1,1.4-1.3,2.2
	c-0.3,0.6-0.1,1.4-0.4,1.9c-0.6,1.1-1.3,2.1-2,3.1c-1-0.9-2.3-1.7-2.9-2.8c-0.6-1.2-0.4-2.8-0.6-4.2c-0.2-1.4-0.3-2.8-0.5-4.7
	c-5.8,9.6-5.8,9.6-9.1,10.5c-0.7-3.1-0.8-5.9,1.7-8.2c0.3-0.3,0.8-0.6,0.9-1c0.2-1.3,0.3-2.6,0.5-4c-1.4,0.1-3.3-0.4-4,0.3
	c-1.6,1.8-3.1,3.9-3.5,6.2c-0.6,2.9-0.3,6,0.1,9c0.2,1.4,1.4,2.6,2.1,3.9c1.4-0.8,2.8-1.6,4.1-2.4c1.2-0.8,2.3-1.8,4-3.1
	c0.9,5.2,1.6,9.3,2.3,13.5c0.1,0.6,0.2,1.3,0.5,1.8c2.5,4.5,0.3,8.2-4.8,8.5c-0.6-2.5-1.2-4.9-1.8-7.3c-0.6,0-1.2,0-1.8,0
	c-0.5,2.1-1.3,4.2-1.4,6.4c-0.4,5.4-0.3,10.9-0.8,16.4c-0.2,1.8-1.8,3.4-2.6,5.1c-0.4,0.8-1.1,1.8-1,2.7c0.3,2.7,0.7,5.5,1.4,8.2
	c0.5,2,1.7,4,1.9,6c0.2,1.5-0.8,3.1-1.3,4.7c-1.5-1-3.8-1.7-4.5-3.2c-1.3-2.7-2-5.9-2.5-8.9c-0.8-4.8-3.4-8.2-7.6-10.4
	c-3.9-2-7.3-0.8-8.6,3.4c-1.1,3.6-1.4,7.4-1.7,11.2c-0.3,3.6-0.1,7.2-0.4,10.7c-0.3,4.7-0.8,9.3-4.8,12.8c-1.3,1.1-1.9,3-2.5,4.7
	c-1.9,4.7-4.8,8.5-9.3,11.1c-3.9,2.3-7.2,5-8.1,10c-0.5,2.9-2.5,5.4-3.8,8.1c-1.8,3.8-2.7,7.7-0.9,11.7c5.7,12.5,6.3,26.2,9.3,39.2
	c0.4,1.8,1,3.7,1.6,5.5c0.3,0.8,0.7,2.1,1.3,2.3c5.9,1.6,4.6,7.6,7,11.3c0.6,1-0.1,3.4-1,4.6c-3.9,5.6-4.5,12-5.3,18.4
	c-0.2,1.4,0.5,2.8,0.4,4.2c0,1.7,0.2,3.8-0.7,5c-2.9,3.7-2.1,7.5-1.1,11.4c0.9,3.5,2.4,7,2.6,10.5c0.5,14.3,0.6,28.5,0.7,42.7
	c0.1,8.5-0.1,17-0.1,25.5c0,3.8,0.4,7.6,0.6,11.3c0.1,1.1,0.2,2.3-0.1,3.3c-0.2,0.8-1.1,1.5-1.6,2.3c-0.6-0.7-1.7-1.3-1.9-2
	c-0.7-4.2-1.4-8.4-1.6-12.6c-0.4-11.3-0.3-22.6-0.8-33.7c-0.4-8.9-2.4-17.8-2-26.5c0.4-8.3-0.7-16-3.8-23.6c-0.4-1-1-2-1.2-3.1
	c-0.3-2.7-1.4-6.1-0.3-8.1c2.9-5,2.6-10.2,2.2-15.3c-1-12.5-2.4-24.9-3.8-37.2c-0.3-2.3-1.1-4.6-2-6.7c-2.3-4.9-3-9.9-3.2-15.3
	c-0.2-4.1-1.4-8.1-1.8-12.2c-0.9-7.6-1.8-15.3-2.2-22.9c-0.1-2.1,1.1-4.6,2.5-6.3c6.2-7.3,12.5-14.6,19.1-21.6
	c4.6-4.8,6.2-10.6,5.9-16.9c-0.3-5.2-2.4-9.9-6.5-13.6c-0.7-0.6-1.1-1.6-1.7-2.4c0.2-0.2,0.4-0.5,0.7-0.7c1.1,0.6,2.3,1.1,3.4,1.7
	c1.8,1,3,0.4,3.1-1.5c0.5-10.3,0.9-20.7,1.2-30.9c0-1.2-0.4-2.4-1-3.5c-0.3-0.7-1.3-1.4-2-1.3c-0.6,0.1-1.7,1.1-1.7,1.7
	c0.1,6.1,0.3,12.2,0.5,18.3c0.1,2.7,0.5,5.3,0.3,7.9c0,0.9-1.2,1.8-1.8,2.7c-0.5-0.9-1.3-1.8-1.6-2.8c-0.4-1.3-0.5-2.7-0.8-5
	c-3,2.9-5.5,5.3-8,7.7c-2.4-2.6-1.3-4.9,0.6-5.9c2.7-1.5,2.6-3.5,2.6-5.9c0-7.5-0.1-15,0-22.5c0-1.3,0.4-2.6,0.7-4.2
	c1.4,1,2.5,1.7,3.5,2.5c0.3-0.1,0.7-0.1,1-0.2c-0.3-3.6-0.6-7.2-0.8-10.9c-0.4-0.1-0.8-0.1-1.2-0.2c-0.8,1.5-1.6,3-2.6,4.4
	c-1.8,2.6-3.6,5.2-5.5,7.7c-1.8,2.2-1.5,4.5,1,5.6c2.1,0.9,2.9,2.7,1.6,4.3c-2.8,3.7-3,7.8-3.3,12c-0.1,1-0.8,1.9-1.2,2.9
	c-0.3,0-0.6,0-0.9,0c-0.4-1-1-2-1.1-3.1c-0.2-2.6,0.1-5.1-0.1-7.7c-0.2-1.6-1.1-3.1-1.5-4.7c-0.3-1.1-0.2-2.3-0.1-3.4
	c0.2-2.1,1-4.2,0.8-6.3c-0.3-4.3-1.1-8.5-1.6-12.8c-0.2-1.5-0.3-3.1-0.8-4.6c-2.1,7.4-0.4,15.2-3,22.5c-0.3,0.1-0.7,0.1-1,0.2
	c-0.5-1.2-1.3-2.4-1.4-3.7c-0.3-6-0.5-12-0.7-18.1c0-1.6,0-3.2,0-4.8c-0.3-0.1-0.7-0.2-1-0.2c-0.6,1.8-1.3,3.5-1.9,5.4
	c-2,6.7-4,13.4-5.9,20.1c-0.4,1.3-0.4,2.6-0.5,4c-0.9,10.3-1.8,20.7-2.8,30.9c-0.1,1.5-0.4,3.2-1.1,4.5c-0.7,1.3-2.2,3.2-3,3
	c-2.1-0.4-2.1-2.5-1.7-4.4c0.8-3.6,1.8-7.2,2.1-10.8c0.6-6.3,0.9-12.7,1-19c0-1-1.2-2.1-1.8-3.1c-1,0.9-2.7,1.7-2.9,2.8
	c-0.7,5.2-0.9,10.4-1.5,15.6c-0.4,4.1-1.1,8.2-1.8,12.2c-0.2,0.9-1.3,2.4-1.8,2.4c-1.2-0.2-2.5-0.9-3.3-1.8
	c-0.4-0.5,0.1-1.9,0.4-2.8c0.8-2.1,1.7-4.2,2.6-6.5c-3.8-0.5-6,1.2-6.1,4.3c-0.1,4,0.5,7.9-1.7,11.7c-0.7,1.3-0.1,3.8,0.5,5.4
	c1.6,4.4,1.3,7.2-2.2,10.1c-2.4,2-2.8,4.4-2.5,7.2c0.5,4.2-0.5,8.4-0.6,12.5c-0.1,9-2.4,17.4-3.5,26.1c-0.8,6-0.8,12-1.3,18
	c-0.1,1.1-1.4,2-2.2,3c-0.6-1.3-2-2.8-1.8-3.9c1.2-6.7,1.4-13.2-0.7-19.8c-0.6-1.9,0.3-4.6,1.3-6.6c1.6-3.4,2.4-6.6,1.5-10.3
	c-1.3-5.6-0.4-11.1,0.7-16.6c0.8-4,1-7.7-2.6-11c-2.6-2.4-2.3-7.4,0.6-9.6c4.4-3.4,3.1-7.6,2.3-11.8c-0.1-0.8-0.4-1.5-0.8-2.6
	c4.6-0.9,4.4-3.5,3.2-7.2c-0.8-2.3-0.1-5.1,0-7.6c0.1-1.9,0.4-3.8,0.3-5.7c-0.1-1.1-1-2.2-1.6-3.3c-0.8,0.8-2.2,1.4-2.5,2.4
	c-1.2,4.2-2.3,8.4-3.1,12.6c-1.1,5.8-2.1,11.6-2.7,17.5c-0.4,3.4-0.3,6.9,0,10.3c0.4,4.2,0.7,8-2.4,11.7c-1.4,1.7-1.7,4.5-2,6.9
	c-0.5,3.6-0.6,7.3-1,11c-0.1,0.7-0.1,1.5-0.5,1.9c-5,5.6-2.8,12.8-4.3,19.1c-2.8,11.4-1.9,23.1-2.1,34.6c0,0.6,0.2,1.2-0.1,1.7
	c-2.9,5.4-1.2,10.7,1,15.5c1.6,3.5,0.9,7.3,2.1,10.4c1.4,3.4,1.9,6.3,1.2,9.8c-0.1,0.6,0.7,1.3,0.9,2.1c1.1,2.8,2.4,5.5,3.3,8.4
	c0.8,2.4,0.3,4.3-2,6.1c-3.5,2.8-4.4,7.2-3.4,11.3c2.7,10.5,6,20.8,8.6,31.1c1,4.2,1,8.6,1.1,13c0.2,11.8,0.1,23.7,0.1,35.4
	c0,1.4-0.4,2.8-0.6,4.2c-0.3,0-0.6,0.1-0.9,0.1c-0.4-1.2-1.1-2.3-1.2-3.5c-0.5-7.3-1.4-14.7-1.2-22.1c0.3-15.1-2.4-29.4-8.4-43.2
	c-2.6-6.1-5.2-12.4-4.6-19.4c0.3-3.5,1-6.6,3.6-9.1c1.8-1.7,1.9-3.7,0.9-5.8c-0.8-1.7-1.9-3.4-2.3-5.2c-0.5-2.2-0.6-4.5-0.3-6.7
	c0.5-3,0.5-5.4-2.2-7.4c-1.3-1-2.4-3-2.8-4.6c-1.4-6.6-3.4-12.8-7.8-18.2c-5.3-6.6-9.9-13.8-14.8-20.7c-0.3-0.4-0.6-0.7-0.9-1
	c-3.8-4-4.7-3.7-6.7,1.2c-0.9,2.3-2.6,4.2-3.9,6.4c-1.1,1.9-2.4,3.9-2.9,6c-1.1,4.5-1.9,9.2-2.5,13.8c-0.2,1.5,0.5,3.2,1.1,4.7
	c1.7,4,2.9,8,2.6,12.3c-0.3,0.1-0.6,0.3-0.9,0.4c-0.6-0.9-1.4-1.7-1.8-2.7c-5.9-14-5.9-27.5,0.4-41.7c2.8-6.3,5-13.2,7.6-19.8
	c0.8-2,0.4-4.7-0.1-6.9c-2.4-9.4-0.5-17.4,6.9-24c2.5-2.2,4.9-4.6,7.4-6.7c2.3-1.9,2.4-4.3,1.8-6.7c-1.5-6-1.7-11.8,1-17.7
	c1.6-3.4-0.1-6.4-2.3-8.9c-2.3-2.7-2.8-5.7-3.6-9c-1.6-6.5-4.1-12.9-6.6-19.1c-1.2-3-3.3-2.9-6.2-0.5c-1.2,0.9-2.7,1.6-4,2.4
	c-0.4-1.7-1-3.4-1-5c0-2.7,0.6-5.3,3.5-6.7c1.8-0.9,1.6-2.2,0.6-3.9c-1.7-2.8-3.2-5.8-4.5-8.8c-1.8-4-8.9-7.2-12.9-5.6
	c-0.5,0.2-1.1,0.7-1.2,1.1c-0.7,4.8-3.1,9.6,0.5,14.5c2.4,3.2,3.7,7,3,11.3c-0.3,1.9,0.9,4,1.5,5.9c0.3,0.8,1.2,1.6,1.2,2.3
	c0,1.3-0.4,2.7-0.6,4c-1.2-0.2-2.7-0.1-3.6-0.8c-2.1-1.6-4-3.6-6-5.4c-1.9-1.7-3.1-1.5-4.1,1.1c-4.4,10.2-6.6,20.9-7.1,31.8
	c-0.2,4.6,0.9,9.5-0.2,13.9c-2.2,9.3,0.4,18.2,0.9,27.2c0.5,9.8,1.1,19.6,1.6,29.3c0.3,5.2,1,10.4,0.8,15.6
	c-0.2,5.7-1.6,11.5-1.8,17.2c-0.1,3.8,1.1,7.6,1.5,11.5c0.2,1.8,0.4,4-0.3,5.6c-1.4,3.2-0.8,6,0.7,8.6c3.8,6.5,4.7,13.7,5.9,20.8
	c0.1,0.7,0.2,1.4,0,2c-3.6,9.9,1.5,18.3,5.8,26.2c3,5.6,6.4,10.9,8,17.1c1.4,5.2,2,10.6,1.6,16.5c-3.9-1.1-3.8-4.1-4.5-6.4
	c-1.4-4.8-2.7-9.6-4.2-14.4c-0.5-1.7-1.4-3.3-2.4-4.8c-3.3-4.5-6.5-9-7.3-14.8c-0.1-0.9-0.8-1.7-1.7-3.3c-1.5,4.6-2.7,8.2,0.1,11.8
	c1.4,1.8,2.3,3.8,3.5,5.7c2.3,3.7,2.5,7.5,2.2,11.8c-1.1,15.5-2,30.9-2.3,46.3c-0.1,5.6,1.8,11.2,2.8,16.8c0.2,1.1,0.4,2.1-0.2,3.7
	c-0.9-0.6-2-1.1-2.5-1.9c-0.9-1.5-1.8-3.2-2-4.9c-1.1-9.1-2-18.1-2.7-27.1c-0.2-2.6,0.3-5.4,0.3-8c0-5.7-0.3-11.3-0.3-17
	c0-3.3,0.7-6.6,0.8-9.9c0.1-1.8-0.2-3.7-0.9-5.4c-0.8-1.9-2-3.7-3.3-5.5c-4.6-6.5-3.9-13.5-2.1-20.6c0.1-0.3,0.1-0.7,0.3-0.9
	c6.1-7,2.8-14.5,0.9-21.6c-1.4-5.1-4.5-9.6-6.5-14.5c-0.8-1.9-1-4.2-0.8-6.3c0.3-2.5,0.2-4.6-0.9-7.1c-2.4-5.5-6.1-10.3-6.9-16.7
	c-0.5-4.1-3.2-8.1-5.6-11.6c-3.8-5.6-8.2-10.8-12.1-16.3c-1.1-1.6-1.9-3.5-2.6-5.3c-1.4-3.5-7.9-5.8-10.9-3.7
	c-0.7,0.5-1,1.6-1.2,2.5c-0.3,1.8-0.1,3.6-0.5,5.3c-0.4,2-0.4,4.9-3.1,4.8c-2.7-0.2-2.6-3-2.5-5.1c0.2-5,0.4-10.1,1-15
	c0.4-2.7,1.9-5.1,2.6-7.8c0.9-3.1,1.3-6.3,2.2-9.4c0.9-3.2,2.2-6.3,3.4-9.4c1.7-4.5,2.7-9,1.5-13.7c-0.2-0.7-0.6-1.3-0.5-1.9
	c1.2-5.7,0.1-11.3-0.4-17c-0.4-5.5,0.2-11,0.2-16.5c0-1.1-0.5-2.1-0.9-3.2c-0.9-2.5-2-5-2.8-7.5c-1.2-3.8-0.9-7.3,1.9-10.6
	c3.8-4.6,1.7-12.1-4-14c-0.4,4.3-0.7,8.5-1.1,12.7c-0.5,0.1-0.9,0.2-1.4,0.3c-0.5-1-1.2-2-1.3-3.1c-0.3-2.2-0.2-4.5-0.5-6.7
	c-0.1-0.8-0.7-1.9-1.3-2c-0.6-0.1-1.9,0.5-2.2,1.1c-0.8,1.9-1.7,3.9-1.9,5.9c-0.3,3.4-0.1,6.8-0.5,10.3c-1.8-4.6-3.6-9.2-5.4-13.7
	c-0.5,0-1,0.1-1.5,0.1c-0.2,2-0.4,4-0.6,6.1c-0.3,3.3-0.4,6.6-0.7,9.8c-0.2,2.7-0.5,5.3-0.6,8c-0.2,4.5-0.1,8.9-0.3,13.4
	c-0.2,4.3-1.1,5-6.2,4.5c0.4-1.2,0.8-2.3,1-3.4c0.7-2.9,1.4-5.8,1.8-8.7c0.2-2,0.4-4.2-2.7-4.9c-0.8-0.2-1.3-2.1-1.9-3.2
	c-2,3.6-1.6,6.3,1.1,8.6c2,1.7,1.6,4.4-0.9,5.2c-2.7,0.9-3.3,2.5-2.8,5.1c1.4,7.6,1.3,15.1-0.2,22.7c-0.4,1.9-1.1,3.8-1.7,5.7
	c-1.7,4.7-2.6,9.4-0.4,14.3c2.1,4.7,4.1,9.4,5.8,14.3c1.1,3.3,1.2,7,2.3,10.4c0.9,2.8,2.6,5.2,4,7.8c0.9,1.8,2.1,3.4,2.7,5.3
	c0.4,1.1-0.2,2.6-0.4,3.9c-1.4-0.3-3.6-0.2-4.1-1c-2.4-3.7-4.3-7.7-6.4-11.6c-0.8-1.5-1.5-3-2.2-4.5c-1.6,1.2-4.2,2-4.7,3.5
	c-1.4,4.2-2.2,8.6-2.7,13c-0.3,2.7,0.2,5.4,0.4,8.2c0.1,1.2-0.1,2.4,0,3.7c0.2,7.9,0.6,15.8,0.7,23.6c0.1,2.9-0.6,5.9-0.4,8.8
	c0.2,3.7,1,7.4,1.6,11.1c0.4,2.7,1.3,5.3,1.4,8c0.1,3.9,0.4,7.5,2.1,11.3c1.7,3.9,1.7,8.4,2.7,12.7c3.5,15,7.2,29.8,10.6,44.8
	c1.1,4.8,1.8,9.7,2.6,14.5c0.1,0.7-0.1,1.5-0.2,2.2c-0.3,0.1-0.7,0.3-1,0.4c-1-1.8-2.3-3.5-2.9-5.4c-3-10.3-6.1-20.6-8.7-30.8
	c-2.1-8.5-3.5-17.3-5.4-25.9c-0.6-2.6-1.8-5.1-2.4-7.7c-1-4.5-1.8-9.1-2.7-13.7c-0.6-2.8-1.3-5.5-2-8.3c-0.3-1.2-0.8-2.3-1-3.5
	c-0.6-2.6-1.3-5.1-1.7-7.8c-0.3-2-0.2-4-0.3-6c0-4.3,0.8-8.8-0.2-12.8c-2.4-10.1-2-20.2-1-30.2c0.1-0.7,0.3-1.4,0.1-2
	c-2.6-10.2-0.2-20.1,2.4-29.6c1.9-7.1,1.6-13.7,0.6-20.7c-0.5-3.3,0.2-6.9,1-10.1c1.1-4.1,1.7-7.8-0.7-11.6
	c-0.9-1.4-1.6-3.2-1.4-4.8c0.8-7.2-2.8-13.2-5.1-19.5c-2.2-5.9-4-6.7-10.3-5.5c-0.4,0.1-0.8,0-1.6,0c0.7-8.6,1.3-17.1,2-25.6
	c-0.3-0.1-0.6-0.2-0.9-0.3c-1.4,1.1-2.7,2.3-4.3,3.6c-0.4-0.8-0.9-1.4-0.9-1.9c0.3-6.1,0.7-12.2,1.1-18.3c0.6-8.1,1.3-16.2,0-24.4
	c-3,0.3-3.4,2.2-3.3,4.1c0.1,6.3,0.3,12.6,0.3,19c0,2.3-1,4.6-1,6.9c0.1,10.5,0.5,21,0.5,31.4c0,4.2-0.9,8.4-1.1,12.6
	c-0.6,14.8-1,29.6-1.5,44.4c-0.1,2.9-0.5,5.8-0.8,8.7c-0.6,0.1-1.2,0.2-1.7,0.2c-0.5-1.6-1.5-3.2-1.5-4.8c0-7.3,0.2-14.5,0.3-21.8
	c0.2-10.7,0.5-21.4,0.6-32.1c0.2-14.4,0.1-28.7,0.3-43.1c0-2.8,0.9-5.5,1-8.3c0.1-1.6,0.2-4-2.5-3.9c-2.7,0.1-2.6,2.3-2.6,4.2
	c0,11.8,0.1,23.7,0.2,35.4c0,1.5-0.3,3.1-0.5,4.9c-4.2-0.5-4.2,2.2-4.5,5.1c-0.4,4.6-1,9.1-1.6,13.6c-0.1,0.7-0.2,1.4-0.5,1.9
	c-0.5,0.7-1.3,1.3-1.9,1.9c-0.3-0.9-0.9-1.8-0.9-2.6c0.5-5.1,1-10.2,1.7-15.3c1.7-12.3,3.6-24.5,5.3-36.7c0.5-3.3,0.4-6.8,0.5-10.2
	c-0.5-0.1-0.9-0.2-1.4-0.3c-0.5,1.8-1.1,3.5-1.4,5.3c-0.8,4.3-0.6,9-2.2,12.9c-5.9,14.6-3,30-5.2,45c-0.7,4.7-0.8,9.6-1.4,14.3
	c-0.2,1.4-0.9,2.8-1.4,4.2c-0.4,0-0.9,0-1.3-0.1c-0.1-1.6-0.3-3.2-0.2-4.7c0.9-12.6,1.8-25.2,2.7-37.7c0.1-1.5-0.3-3-0.6-5.4
	c-2.5,2.2-4.4,3.8-6.2,5.3c-0.4-0.2-0.8-0.3-1.2-0.5c0.3-2.3,0-5,1.1-6.8c1-1.5,3.7-1.7,6.2-2.7c4.2-12.5,1.9-26.3,2.9-40.1
	c1.1,0.2,2,0.4,3.6,0.8c0.7-3.4,1.4-6.8,2.1-10.3c-5.5-0.1-9.3,4.1-9.2,8.6c0.1,4.1-0.5,8.1-0.5,12.2c0,1.8,0.6,3.5,1,5.3
	c-6,1.6-6.9,3.4-4.4,9.7c1.2-0.7,2.3-1.4,4.2-2.4c-0.5,5-1.4,9-4.1,12.4c-0.5,0.6-3,0.5-3.9-0.2c-3.8-2.8-5.7-2.4-6.3,2.2
	c-1.1,7.7-2.1,15.5-2.7,23.3c-0.2,2.6,1.2,5.3,1.3,8c0.1,2.6-0.3,5.2-1,7.7c-0.7,2.7-2.5,5.3-2.6,7.9c-0.1,3.6,1,7.2,1.6,10.8
	c0.1,0.6,0.6,1.5,0.4,1.9c-2.1,3.4,0,6.4,0.9,9.5c0.9,3.4,1.6,7,1.9,10.5c0.1,1.6-1.3,3.3-1.4,5c-0.2,2.7,0.1,5.4,0.3,8.1
	c0.1,1.8,0.8,3.7,0.6,5.5c-0.1,1.1-1.3,2.1-2,3.1c-1-0.8-2.5-1.3-2.9-2.4c-1.1-2.7-1.7-5.5-2.4-8.3c-0.4-1.6-0.7-3.3-1.3-4.8
	c-0.3-0.8-1.5-1.6-2.2-1.6c-0.8,0-1.9,0.9-2.2,1.7c-3.2,7.3-9.6,11.9-14.8,17.5c-0.2,0.2-0.5,0.5-0.8,0.6c-7.6,1.8-8.8,7.8-9.9,14.2
	c-0.7,4.1-1.6,8.1-2.8,12.1c-2.4,7.9-1.1,15.7,0.1,23.6c0.2,1.5,0.7,3.1,0.4,4.7c-0.8,5.5,1.2,9.8,5.1,13.4c4.5,4.2,9,8.3,13.3,12.6
	c2.6,2.7,5.1,5.6,7.3,8.7c1.7,2.5,1.7,5.4-0.1,9.2c-1.8-1.9-3.3-3.4-4.6-5c-0.9-1.1-1.3-2.6-2-3.8c-1.6-2.7-3.8-4.1-7-3.2
	c-4.1,1.1-5.4,2.9-5.9,6.6c-1.5,11.6,4.1,20.5,10.5,29.2c4.6,6.3,8.7,12.9,13,19.4c0.4,0.6,0.8,1.5,0.8,2.2
	c-0.3,10.5,6.1,18.4,10.4,27.1c3.4,7,6.8,14,10.3,21c2.8,5.4,6,10.6,8.8,16c2.6,4.9,4.8,10,7.4,14.8c1.7,3.1,3.6,6.2,6,8.9
	c4.2,4.8,6.6,10.2,7.8,16.4c1.1,5.6,2.8,10.9,6.3,15.7c5,6.8,5.8,14.8,5.5,23c-0.1,2.9,0.2,5.8,0.2,8.7c0.1,7,1,13.8,4.8,19.9
	c3.1,4.9,2.4,10.6,3.3,15.9c0.7,4.1,1.4,8.1,2.5,12.1c6.8,24.4,13.8,48.6,20.6,73c0.7,2.3,0.9,4.8,1.2,7.3c0.1,0.6-0.5,1.3-0.8,1.9
	c-0.7-0.4-1.8-0.7-2-1.3c-0.8-2.2-1.4-4.5-1.9-6.7c-1.5-6.4-2.3-12.9-5.7-18.8c-1.7-2.9-1.7-6.9-2.8-10.3
	c-4.8-14.4-9.7-28.6-14.8-43c-1.8-5.2-3.5-10.3-2.8-16c0.7-5.2-0.7-10-3.3-14.4c-2.9-4.9-3.9-10-3.7-15.7c0.5-9.4-0.9-18.5-4.5-27.1
	c-1.3-3.2-3.1-6.1-4.8-9.1c-0.8-1.5-1.7-2.9-2.4-4.4c-5.7-12.8-11.3-25.7-17-38.5c-1.3-2.9-2.7-6-4.6-8.5c-1.4-1.8-3.6-3.3-5.7-4.1
	c-2.9-1-4.6-2.5-4.3-5.5c0.4-4.7-1.4-8.2-4.1-11.9c-2-2.7-3-6.4-3.7-9.7c-0.6-2.9-1.3-5.3-3.6-7.2c-3.7-3.2-6-7.1-6.7-12.3
	c-0.7-5.4-2.5-10.6-3.9-15.8c-0.3-1-0.9-2-1.6-2.9c-2.4-3.5-5-6.8-7.4-10.3c-1.5-2.2-3-3.3-5.8-2.7c-6.1,1.2-7.1,0.3-7.1-6
	c0-3.1,0.3-6-3.3-7.7c-0.9-0.4-1-2.5-1.4-3.8c-0.4-1.6-0.7-3.2-1.1-4.9c-0.4-0.1-0.8-0.2-1.2-0.2c-1.9,2.7-3.8,5.4-5.8,8.2
	c-4.2-5-3.8-12.6,0.3-16.6c0.7-0.7,1.4-1.5,2.1-2.1c3.4-2.8,4.7-6.2,3.4-10.7c-0.6-2.1,0.1-4.6,0-6.9c-0.1-2.3-0.2-4.7-0.8-6.8
	c-1.1-3.8-2.5-7.4-3.9-11.1c-0.6-1.5-1.4-3-2.1-4.3c-0.6,0-0.8-0.1-1,0c-4.8,1.9-4.8,1.9-5.3-3.2c-0.2-1.6-0.2-3.1-0.6-4.7
	c-0.7-3.2,0.4-5.5,2.8-7.7c1.5-1.4,2.4-3.6,3.2-5.5c1.1-2.6,2.1-5.3,2.9-8c0.5-1.5,0.8-3.1,0.7-4.6c-0.6-9.1,1.5-16.9,8.8-23.3
	c3.7-3.2,6.4-7.7,9.2-11.9c2.7-4,2.2-6.1-1.5-9.7c-5.5-5.4-5-18.6,0.8-23.4c0.3-0.3,0.8-0.3,1.5-0.6c0.2,0.8,0.6,1.6,0.6,2.2
	c-0.3,3.4,0.1,6.5,3.7,8.1c0.5,0.2,0.8,1.2,1,1.9c1,3,3.8,4.1,6.2,1.9c3-2.7,5.1-6,5.3-10.4c0.2-5.8,1.2-11.5,1.3-17.3
	c0.1-2.5-0.9-5.1-1.9-7.4c-1.9-4.5-4.5-8.8-6.1-13.4c-0.7-2.1,0-4.8,0.3-7.1c0.4-3.8,1.6-7.7,1.4-11.5c-0.7-9.8,1.8-18.8,5.7-27.4
	c0.3-0.7,0.7-1.5,1.3-1.9c6-3.9,5.3-10.2,5.4-16c0-3.9-3.3-4.3-6.2-4.8c-2.5-0.4-4.7-0.3-5.3,2.9c-0.2,1-0.8,2.1-1.5,2.9
	c-2.9,3.4-4.4,7.4-5.4,11.7c-0.2,1-0.5,2-1.1,2.8c-2.9,3.4-2.2,7.2-1.5,11.1c0.4,2.7,0.6,5.6,0.2,8.2c-0.2,1.4-1.7,3.2-3,3.7
	c-1.8,0.6-4.3,1-5.1-2.1c-0.1-0.3-1.9-0.4-2.7-0.1c-0.7,0.3-1.1,1.3-1.7,2.1c-2.1-1.7-3.4-3.9-1.2-5.3c5.9-3.7,4-9,3.8-14.3
	c-1.9,0-3.6,0-5.8,0c0,4.4,0,8.6,0,12.8c0,2.8,0.4,5.7-2.6,7.7c-0.9,0.6-1,2.4-1.6,3.6c-0.4,0.7-1.2,1.8-1.7,1.7
	c-0.8-0.1-1.7-0.9-2.2-1.6c-1.2-1.8-2.2-3.8-3.2-5.7c-0.4-0.8-0.6-1.7-0.6-2.5c0-6.8,0.3-13.6,0.2-20.4c-0.1-3.2,0.7-5.3,3.6-6.7
	c1.6-0.8,3.2-2,1.7-4.2c-0.3-0.5-1.1-1.1-1.6-1c-2.4,0.5-4.8,1-7,2c-0.9,0.4-2,2.1-1.8,2.9c0.8,2.9,0.5,5.2-2.6,7.2
	c3.5,1.6,3.3,4.3,3.1,7.2c-0.6,7.9-1,15.8-1.5,23.7c-0.1,1.7-0.7,3.4-1.1,5.3c-3-1.8-4.7-6.6-4.1-9.6c0.7-3.5,1.1-7,1.2-10.5
	c0.1-3.1-0.6-6.2,1.9-8.8c0.6-0.7,0.7-1.9,1.1-2.8c-0.4-0.2-0.8-0.4-1.3-0.6c-0.9,1.8-2.5,3.6-2.7,5.5c-0.9,10.4-1.8,20.9-2.1,31.2
	c-0.2,7.3,0.6,14.7,0.8,22c0.1,5.6-0.3,11.2-0.1,16.7c0.2,6.6,0.5,13.3,1.2,19.9c0.2,2.5,1.6,4.8,2.2,7.3c0.5,2.3,0.4,4.6-2.8,5
	c-3.2,0.5-5.2-0.8-5.5-3.9c-0.2-3.1,0.1-6.3,0-9.4c-0.1-3.6-0.5-7.2-0.8-10.8c-0.1-1-0.4-2.1-0.1-3c3-10,1.1-20.1,0.6-30.1
	c-0.2-3.3-0.5-6.7-0.5-10c-0.2-9.3-0.4-18.5-0.4-27.7c0-1.8,0.7-3.6,1-5.4c0.1-0.5,0.5-1.1,0.4-1.6c-1.6-9.6-2.5-19.3-5.3-28.6
	c-1.6-5.3-1.6-11-2.1-16.6c-0.4-3.5-1.9-6.1-5.1-7.7c-1.6-0.8-3.1-1.9-4.6-2.7c-3.3-1.8-6.5-3.4-10.5-0.9c-1.7,1.1-4.4,0.6-6.7,0.8
	c-0.5,0.1-1.1,0-1.6,0.2c-3,1.1-6,2.5-9.1,3.5c-5.2,1.7-9.4,4.4-12.4,9.1c-2.2,3.4-5,5.9-9.6,5.7c-1.2-0.1-2.8,0.3-3.7,1.1
	c-4.2,3.3-8.8,6.4-12.2,10.4c-6.7,7.8-10.1,17.2-10.4,27.4c-0.1,4.1-0.9,7.7-3.7,10.8c-3.4,4-6.7,8.1-10,12.1c-0.9,1-1.9,1.9-3,2.7
	c-0.6,0.4-1.8,0.7-2,0.5c-0.5-0.6-0.9-1.7-0.7-2.3c0.5-1.3,1.4-2.5,2.2-3.6c3.5-5,7.1-10,10.4-15.1c0.7-1.1,1.1-2.8,0.9-4.1
	c-1.3-7,0.5-13.7,2.3-20.1c1.3-4.9,4.6-9.3,5.4-14.6c0.1-0.8,1.4-1.7,2.4-2.2c1.8-0.9,3.7-1.6,5.6-2.2c3.9-1.2,6.8-3.1,8.7-7.1
	c1-2.1,3.8-3.5,6-4.9c2.9-1.8,6.1-3.1,9-4.9c7.1-4.5,13.8-9.4,21-13.7c2.5-1.5,5.9-1.7,8.9-2.1c4.6-0.5,9.3-0.7,14-1
	c4.9-0.3,9.7-0.7,13.4,4c1.3,1.6,3.8,2.3,5.6,3.5c2,1.3,4,2.7,6.7,4.5c1.4-0.7,2.6,0.6,4.3,2.4c4.1,4.4,9.4,6.5,15.5,4.9
	c8.4-2.2,16.7-4.8,25-7.1c3.4-0.9,5.4-2.8,5.8-6.4c0.2-1.8,0.7-3.9,1.7-5.3c0.8-1.1,2.7-2.1,4-2.1c1.1,0,2.9,1.5,3.2,2.7
	c0.9,3.4,2.4,5.8,5.2,8.1c1.8,1.5,2.5,4.8,3,7.4c0.5,2.5,0.1,5.1,0.1,7.7c1.2-0.1,1.6,0,1.6-0.1c2.2-6,7.1-11,4.2-18.6
	c-3.5-9.2,2.7-22.8,11.5-27.3c1.4-0.7,2.9-1.2,4.4-1.3c1-0.1,2,0.5,3,0.8c-0.4,1.1-0.7,2.3-1.3,3.2c-2.5,3.3-5.3,6.3-7.6,9.6
	c-3.6,5.4-1.7,11,0.4,16.3c1,2.5,3.3,4.5,5.3,6.4c0.8,0.8,2.4,1.1,3.6,1c0.6-0.1,1.4-1.7,1.4-2.6c0.2-3.3,1-6,4-8
	c1.1-0.7,1.6-2.9,1.7-4.4c0.2-3.4,1.3-5.7,4.3-7.7c10.2-6.8,20.2-14,30.2-21.1c0.5-0.3,0.9-0.6,1.4-0.9c4-2.1,7.8-6.5,12.9-0.7
	c0.4-1.5,0.7-2.3,0.8-3.1c0.1-3.7-0.1-7.4,0.3-11.1c0.5-5,1.4-9.9,2.1-14.8c0.3-2.4,0.4-4.9,0.3-7.3c0-0.7-0.7-1.6-1.4-2
	c-0.4-0.2-1.6,0.5-1.9,1c-0.9,2-1.9,4-2.4,6.1c-1,4.9-1.6,9.9-2.6,14.8c-0.2,1.1-1.4,2-2.2,2.9c-0.6-1.1-1.8-2.2-1.8-3.3
	c-0.1-2.4,0.1-4.9,0.8-7.2c1.7-6.3,2.5-12.3,1.1-19.1c-1.4-6.4-0.8-13.3-0.9-20c0-0.9,0.9-1.9,1.6-2.6c2.6-2.9,2.7-6.8,0-8.6
	c-0.4,0.8-0.7,1.6-1.1,2.3c-0.4,0.6-0.9,1.2-1.5,2.1c-0.5-0.7-0.9-1.1-1-1.6c-1-4.7-1.1-5.7-6.4-2.6c-2.2,1.3-4.7,2.3-6.5,4
	c-4,3.6-4.3,8.8-2.6,13c1.7,4.3-0.1,7.5-1.5,11.4c-0.9-1.9-1.8-3.7-2.7-5.6c-0.4,0-0.8,0.1-1.2,0.1c0.2,2.6-0.1,5.3,0.6,7.7
	c1.2,4.1,0.2,9-3.8,12.8c-0.4-2.3-0.8-4.2-0.9-6c-0.1-2.7-0.1-5.2-2.2-7.4c-3.3-3.6-3-4.4,1.8-6c0.3-0.1,0.6-0.3,0,0
	c0.6-3.9,1.2-7,1.7-10.2c0.1-0.9,0.1-1.8,0-2.7c-0.4-3.3-0.8-6.6-1.4-9.9c-0.2-1.3-1.1-2.4-1.7-3.6c-1,1.2-2.6,2.2-2.9,3.6
	c-0.4,1.9,0.1,4,0.2,6c0.1,2.6-0.1,4.9-2.7,6.7c-1.5,1.1-2.6,3.5-2.8,5.4c-0.7,7.1-1,14.2-1.4,21.4c0,0.6,0.1,1.2-0.1,1.7
	c-0.7,1.2-1.5,2.2-2.3,3.4c-0.8-1-2.4-2-2.4-3c0.1-4.7,0.7-9.3,0.9-14c0.3-5.6,0.7-11.1,0.7-16.7c0-4.1-2.3-6.5-6.5-6.7
	c0.1-2.8,0.4-5.7,0.3-8.6c0-0.9-1.5-2.7-1.7-2.6c-1.6,0.7-3.4,1.6-4.5,2.9c-0.6,0.7,0,2.4,0.2,3.6c0.2,0.8,1,1.7,0.9,2.4
	c-1.1,5.2-2.2,10.4-3.6,15.5c-0.3,1-1.7,1.7-2.6,2.6c-0.2-1.3-0.9-2.8-0.4-3.8c1.9-4,2.8-8.1,1.7-13c-1,1.3-2.4,2.5-2.8,3.9
	c-2.4,7.9-4.5,15.8-6.7,23.7c-0.7,2.6-0.8,5.3-1.5,7.9c-0.4,1.4-1.7,2.6-2.6,3.8c-0.5-1.4-1.3-2.9-1.4-4.4c-0.1-2.4,0.2-4.9,0.3-7.4
	c0-1.6,0.1-3.2-0.2-4.7c-0.2-1.1-1.1-2.1-1.7-3.1c-1,0.8-2,1.4-2.9,2.3c-1,1-1.9,2.1-2.9,3.2c-0.4-1.4-0.9-2.8-1.3-4.2
	c-0.6-1.9-1.1-3.9-1.7-5.8c-1.7,1.3-3.8,2.2-5.1,3.8c-4.9,6.2-6.7,13.8-9,21.1c-0.7,2.2,0.6,4.9,0.4,7.2c-0.2,1.8-1.4,3.5-2.2,5.2
	c-0.7,1.4-2.1,2.5-2.3,3.9c-0.7,4.7-1.1,9.5-1.4,14.3c-0.1,0.8,0.3,2.2,0.8,2.4c3.2,1.3,2.4,3.8,2.4,6.2c0,1.9,0.6,3.7,0.4,5.5
	c-0.3,2.9-0.8,5.9-1.8,8.6c-0.4,1-2.6,2.1-3.8,1.9c-1.2-0.1-2.9-1.5-3.3-2.7c-1.4-3.9-1.6-7.7,1.4-11.3c1.1-1.3,1.1-3.7,1-5.6
	c-0.2-3.3-1-6.5-1.2-9.8c-0.2-4.7,0.2-9.4,0-14c0-1.1-1.3-2.3-2.2-3.2c-0.8-0.8-2.1-1.2-2.9-2.1c-2-2.3-3.7-2-5.4,0.3
	c-0.9,1.2-1.9,2.2-2.8,3.4c-3.3,4.4-7.6,6.9-13.1,7.2c-2.6,0.2-3.7,1.4-4.4,3.7c-0.6,2.1-1.6,4.2-2.9,6c-1.7,2.5-3.3,2.4-4.8-0.3
	c-1.3-2.4-2.6-3.5-5.5-2.3c-2.6,1.1-4.6-0.5-6.4-2.4c-4.1-4.4-4.1-4.2-9.7-2.2c-6.6,2.4-13.3,4.5-20,6.5c-4.9,1.5-9.4,3.1-11.7,8.4
	c-0.9,2-3.5,3.2-5.1,5c-2.1,2.4-4.6,4.8-5.6,7.6c-1.6,4.6-3.5,8.4-7.5,11.4c-5.4,4.1-10.3,8.9-15.5,13.4c-1.1,0.9-2.3,1.6-3.5,2.4
	c-2.1-2-0.9-3.5,0.3-4.8c4.1-4.4,8.3-8.8,12.5-13.1c2.7-2.8,4.5-5.8,5.1-9.8c0.4-2.7,2.1-5.7,4.1-7.7c5.5-5.6,11.4-10.7,17.2-16
	c7.1-6.6,16.1-8.8,25.2-10.9c3.5-0.8,7-1.4,10.6-1.8c1.8-0.2,3.8,0,5.5,0.6c4.5,1.4,11.8-1.9,12.7-6.5c0.7-3.4,0.2-7,0.3-10.5
	c0-1,0.2-2,0.4-3c1.1,0.4,2.8,0.5,3.1,1.2c1.4,3.1,2.5,6.3,3.5,9.6c0.6,2,0.8,4.2,1.1,6.3c7-6.8,13.7-13.2,20.3-19.6
	c0.6-0.6,1.3-1.3,1.6-2.1c2.4-6.1,7.9-8.8,12.9-12.2c3.7-2.5,7.6-4.8,11.1-7.5c2.4-1.9,4.4-4.4,6.5-6.6c0.8-0.9,1.5-2,2.4-2.7
	c7.3-5.5,8.8-12.8,3.9-20.4c-1.4-2.3-2.8-4.9-6.1-5.3c-0.5-0.1-1.1-1.9-1.3-3c-0.4-1.9,0.5-4.7-2.4-4.9c-0.7,0-1.6,3.1-2.2,4.8
	c-0.3,1,0,2.2-0.2,3.3c-0.1,0.6-0.7,1.1-1.1,1.7c-0.5-0.5-1.4-0.9-1.5-1.5c-0.3-2-0.3-4-0.5-6c-0.1-1.5-0.2-3-0.3-4.6
	c-3.3,1.4-3.9,3.5-3.3,7.2c0.5,3,0.2,6.1,0.1,9.2c0,0.6-1,1.2-1.5,1.8c-0.5-0.6-1.3-1.2-1.5-1.9c-0.3-1.9-0.1-3.8-0.5-5.7
	c-0.3-1.2-1.3-2.3-1.9-3.5c-0.8,1-1.9,1.9-2.2,3c-0.6,2.8-0.8,5.7-1.1,8.6c-0.1,1.2-0.3,2.3-0.5,3.8c-3-1.7-3-4.1-3-6.6
	s0.7-5.3-2.8-6.3c-0.5-0.1-0.9-1.5-0.9-2.3c-0.2-3.2-0.3-6.3-0.4-9.5c0-0.7,0.1-1.5,0.2-2.2c3.2,0.2,3.2,0.2,4.3,6.7
	c2.5-2.3,2.8-4.8,1.9-7.3c-0.5-1.4-1.4-2.9-2.6-3.8c-1-0.8-2.7-1.2-3.8-0.9c-0.9,0.3-1.7,2-1.8,3.1c-0.1,3.3,0.2,6.7,0.2,10
	c0,1.5-0.3,3-0.5,4.8c-3.7-1-4.6-3.5-4.6-6.5c0.1-3.7,0.5-7.4,0.7-11c0.1-2.4-0.7-3.9-3.4-3.5c-5.3,0.7-10.6,1.5-15.9,2.1
	c-3.1,0.3-6.3,0.2-9.4,0.5c-1.7,0.2-3.4,0.7-5,1.4c-5.8,2.4-11.8,1.3-17.7,1.1c-0.1-0.3-0.2-0.6-0.3-0.9c1-0.5,1.9-1.2,3-1.6
	c4.9-1.9,9.7-3.9,14.7-5.7c3.9-1.3,5.5-4.7,7.6-7.6c0.3-0.4,0.4-1.2,0.1-1.5c-2.2-2.7-4-6.2-6.8-7.7c-3.3-1.6-8-2.7-11.2-1.6
	c-11.4,3.9-21.7,1.8-31.9-3.1c-3.7-1.8-7.6-3.2-11.5-4.6c-9.7-3.5-19.3-3.6-29-0.1c-4.6,1.6-9.9,2.1-14.8,2
	c-8.1-0.2-15.4,1.1-22.1,6.2c-4.1,3.1-9.1,5-13,8.1c-3,2.4-5.7,5.8-7.5,9.2c-5.3,9.8-11.7,18.2-21.9,23.6
	c-8.8,4.7-17.1,10.5-25.3,16.2c-7.6,5.3-15.9,8.9-24.6,12c-1.4,0.5-3,0.4-4.6,0.6c0-0.7,0-1.3,0-2c0.9-0.6,1.8-1.3,2.8-1.8
	c6.4-3.2,12.8-6.3,19.1-9.6c2.4-1.3,4.9-3,6.6-5c4.8-5.8,10.4-10.4,17.3-13.4c15.1-6.5,23-19.2,28.6-33.6c0.1-0.2-0.1-0.4-0.2-0.8
	c-0.8,0.1-1.7,0.2-2.5,0.3c-3.8,0.5-7.5,1.2-11.3,1.6c-2.1,0.2-3.6-1.9-2.6-3.7c0.5-0.8,1.9-1.4,3-1.4c6.2-0.5,11.6-2.4,16.2-7
	c3.2-3.2,7.2-5.6,10.9-8.2c2.1-1.4,4.3-1.4,6.6,0.1c1.2,0.7,3,1.4,4.2,1c4.9-1.6,9.6-1.4,14.4,0.2c4.4,1.5,8.6,2.3,12.8-1.2
	c6.4-5.3,14.3-6.6,22.3-7c1.7-0.1,3.7,0.6,5.3,1.5c7,4.1,13.9,7.9,22.3,8.4c1.8,0.1,4,1.1,5.3,2.4c2.2,2.3,4.7,2.8,7.6,2.3
	c3-0.5,5.9-1.5,8.9-1.7c7.4-0.3,14.3-1.8,20.6-5.7c3.1-1.9,4.4-1.4,6.4,1.8c2.7,4.4,6,7.8,11.9,6.9c1.1-0.2,2.4,0.3,3.5,0.7
	c2.4,1,4.8,2,7,3.3c1.5,0.9,3.5,2.3,3.7,3.7c0.7,4.7,3.6,7.3,7.6,8.5c14.6,4.6,29.1,9,43,15.5c5.6,2.6,11.5,2.7,16.9-1.3
	c11.9-8.8,22.8-18.7,32.3-29.9c3.5-4.1,3.4-5.3-0.4-9.4c-0.5-0.5-1.1-1-1.2-1.6c-0.2-0.9,0-1.9,0-2.8c0.9,0,2-0.2,2.7,0.2
	c1,0.6,1.8,1.7,2.7,2.4c3.9,2.9,7.7,6.1,11.9,8.6c5.3,3.2,11.3,3.8,17.1,1.4c5.8-2.3,11.4-5,17.1-7.5c5.6-2.5,11.2-5,16.8-7.4
	c3.3-1.4,6-3.2,7-7c0.6-2.3,1.8-4.5,3.1-6.7c0.6-1.1,1.8-1.8,2.8-2.6c0.7,1,1.5,2,2,3.1c2.2,5.5,5,6.9,10.7,5
	c6.4-2.1,12.7-4.3,19.1-6.4c12.3-3.9,24.5-8.5,37.3-10.1c3.2-0.4,6.4-0.7,9.5-1.6c5.2-1.5,10.4-3.4,15.6-5c1-0.3,2.2,0,3.3,0
	c0.8-0.1,2.2,0,2.4-0.5c0.4-0.7,0.3-2-0.2-2.7c-2.5-4.6-5.3-8.4-11.1-10.1c-6.4-1.9-12.6-4.3-19.1-5.7c-1.7-0.4-3.6-2-4.6-3.5
	c-2-3-4.5-4.1-7.9-3.8c-3.9,0.3-7.4-0.7-10.8-2.7c-2.4-1.4-5.3-2.2-8.1-2.9c-4.8-1.1-9.7-1.5-14.4-2.9c-4.1-1.2-7.9-3.7-12-4.9
	c-14.8-4.6-29.8-4.6-45-2.5c-0.9,0.1-1.8-0.1-2.7-0.1c-0.1-0.4-0.2-0.8-0.3-1.2c1.3-0.6,2.5-1.5,3.8-1.7c4.1-0.8,8.3-1.4,12.5-2.1
	C417.5,50.4,424,50.4,430.5,50.4z M517.3,569.2c0.2-1.4,0.5-2.1,0.4-2.9c-0.2-10.4-0.5-20.8-0.6-31c0-5.9-0.4-11.9,0.7-17.6
	c1-5.1,2.5-10,0.4-15c-2.1-5-1.5-9.8,0.7-14.5c1.2-2.4,0.6-4.4-0.7-6.6c-0.9-1.5-1.7-3.5-1.6-5.2c0.1-2.7,1.4-5.4,1.4-8.1
	c0.1-7.1-0.3-14.2-0.4-21.3c0-2.8-1.4-4-4.1-4.3c-0.9-0.1-2.2-0.9-2.3-1.6c-0.8-3.1-2-6.4-1.6-9.5c1-8.7,0.4-17.1-0.9-25.7
	c-1-7-1.4-14-6.4-19.7c-0.6-0.6-0.4-2.1-0.2-3.2c0.9-6,1.9-12,3-18c1.4-7.5,2.1-15.2,9.2-20.4c4.6-3.3,4.3-3.7,9-0.8
	c0.1,0.1,0.4,0,0.7-0.1c0.2-1.2,0.5-2.4,0.6-3.6c0.8-8.4,1.7-16.8,2.2-25.2c0.4-5.8,0.3-11.6,0.4-17.4c0.1-4.9-0.3-5.3-5.1-6.2
	c0-1.7,0-3.5,0-5.2c0-2,0.4-4,0.1-6c-0.3-2.4-1.6-3.3-4.3-2.6c-3.4,1-5.8,2.8-7.1,6c-1.1,2.7-1.5,5.7-3,8.1
	c-2.3,3.5-2.1,7.2-1.9,10.9c0.1,2.1,0.3,4.2,0.6,6.3c1,5.8,0.8,12.1,6.7,16.1c0.7,0.5-0.4,4.5-1.3,6.5c-0.7,1.6-2.6,2.6-4,3.9
	c-0.1,0.1-0.7,0-0.9-0.2c-3.6-3.6-5.9-1.6-7.9,1.8c-0.3,0.5-0.8,0.8-1.2,1.1c-3.3,2.3-3.8,3.8-2.2,7.6c1.5,3.6,4.3,7,4.4,10.6
	c0.3,7.6-0.4,15.4-4.8,22.2c-1.8,2.8-4.1,3.6-7.1,3.3c-0.9-0.1-1.8-0.3-2.9-0.5c-0.8,3-0.7,5.4,1.9,7.4c2.5,1.9,4.5,4.4,7,6.3
	c3.6,2.7,5.1,6.2,5.5,10.5c1.5,14.8,3.1,29.4,4.7,44.2c0.5,4.6,0.8,9.2,5.1,12.3c0.6,0.4,1,2,0.7,2.6c-3.6,7.7-2.8,15.4-0.6,23.2
	c1.2,4.3-0.3,9-3.4,10.4c-6.8,3.1-10.8,8.8-14.3,15c-0.8,1.4-1.2,3.3-0.9,4.8c1,6.8,2.2,13.6,5.7,19.8c4.4,7.7,8.5,15.7,12.8,23.5
	C511.5,564.3,513.4,567.3,517.3,569.2z M657.2,304.8c-0.5,1.7-0.8,3.4-1.4,5c-0.5,1.3-0.9,3.1-1.9,3.6c-2.8,1.6-3.3,3.9-3,6.8
	c0.2,2,0.5,4,0.4,6s-0.4,4-0.9,5.9c-0.1,0.6-1.2,1.3-1.7,1.2c-0.6,0-1.4-0.8-1.5-1.4c-0.4-1.8-0.7-3.7-0.8-5.6
	c-0.4-8.6-0.5-17.1-1-25.7c-0.1-1.1-1.3-2.5-2.4-3c-1.4-0.7-3.2-0.9-4.9-0.9c-2.7,0-4.6-1.2-6.2-3.3c-2-2.8-4.1-5.6-6.5-8.1
	c-0.7-0.8-3-1.2-3.6-0.7c-2.3,1.9-4.8,4-6.3,6.6c-3.8,6.6-3.6,6.7-8.6,1.2c-0.7-0.8-2.4-1.5-3.2-1.1c-4.9,2.1-9.8,10.9-9,16
	c0.2,1.2,1,2.5,1.8,3.5c0.4,0.5,1.5,1.1,1.9,0.9c0.6-0.3,1.3-1.3,1.3-2c0-2.2-0.7-4.4-0.5-6.6c0.1-1.4,1.3-3.7,2.2-3.8
	c2-0.2,3.6,1.3,3.4,3.6c-0.2,3-0.7,6-1,8.9c-0.7,5.6-2.2,11.5,1,16.6c3.4,5.3,7.7,10.1,11.8,15c0.8,0.9,2.4,1.5,3.8,1.6
	c4.1,0.3,8.2,0.3,12.3,0.6c3.4,0.2,4.7,2,3.3,5.1c-0.7,1.6-2.3,2.8-3.5,4.2c-0.7,0.8-1.9,1.5-1.9,2.3c-0.3,3.8-0.1,7.3,3.2,10.4
	c4,3.8,7.5,8.2,11.1,12.4c2,2.3,3.7,4.8,5.6,7.1c3.2,3.8,4.5,3.7,7-0.8c1.2-2,2.2-4.2,3.6-6c3.6-4.5,3.7-9.3,1.8-14.5
	c-0.6-1.6-0.7-3.5-0.5-5.2c0.4-3.3,1.3-6.6,1.8-9.9c0.1-0.6-0.2-1.6-0.7-2.1c-2.7-2.8-2.9-6.1-0.2-9.7c0.9,2.2,1.7,4.1,2.5,6.2
	c3.8-3.7,3.4-6.9-0.6-9.3c-0.9-0.5-1.6-2.1-1.5-3.1c0.3-4.9,0.9-9.8,1.5-14.7C665.7,312.7,662.6,307.3,657.2,304.8z M418,417
	c-0.2,1.5-0.4,2.8-0.4,4c-0.2,3.3,0.1,6.7-0.4,10c-1.5,8.8-2.6,17.6-1.9,26.5c0.2,3.3-0.2,6.7-0.8,10c-1,5.1-1.6,10.1,0.4,15.1
	c0.4,1.1-0.1,2.6-0.4,3.8c-0.3,1.1-1.2,2-1.3,3c-0.4,8.4-0.6,16.9-0.8,25.3c-0.1,2.6,0.9,4.6,3.7,5.7c1.1,0.4,2.1,2.1,2.4,3.3
	c1.2,5.5,4.9,9.4,7.6,14c2.4,4,3.7,8.7,5.5,13.1c0.9,2.2,1.4,4.9,2.9,6.5c2.8,3,3.9,6.4,4.6,10.2c0.2,1.2,0.5,2.3,0.7,2.8
	c1.7-4.2,3.8-8.6,5.2-13.3c0.6-2.1-0.1-4.6-0.3-7c-0.2-2.1-0.7-4.2-0.8-6.3c-0.8-12.5-1.6-24.9-2.4-37.3c-0.6-9.2-2.8-18.3-1.6-27.5
	c0.1-1.2-0.2-2.4-0.4-3.6c-1-7.3,0.2-14.2,3.6-21.1c-0.1-0.1-0.3-0.6-0.6-1.1c-2.2-2.4-3.1-4.6,0.5-6.7c0.6-0.3,0.7-1.4,1.3-2.5
	c-1.5,0.4-2.4,0.6-3.3,0.8c-0.3-0.4-0.6-0.6-0.7-0.9c-0.2-0.4-0.3-0.9-0.3-1.3c0-6.3-1.2-12.1-5.6-16.9c-0.1-0.2-0.1-0.5-0.3-0.6
	c-0.9-0.4-2-1.3-2.8-1.1c-1.1,0.2-1.9,1.7-3,1.9c-2.2,0.4-4.4,0.2-6.6,0.3c0.6-1.6,0.8-3.6,1.9-4.7c2.7-2.8,5.4-5.4,6.1-9.3
	c0.7-3.4,2.5-5.8,5.6-7.5c0.7-0.4,1.7-2,1.5-2.4c-2.2-3.8-4.7-7.6-7.5-11.9c-1.2,3.9-1.6,6.9-2.9,9.4c-2.8,5-3.1,10.4-3.9,15.8
	c-0.1,0.8-0.3,1.7-0.5,2.9C420.6,417.9,419.5,417.5,418,417z M404.1,144.7c-0.5-0.3-0.9-0.6-1.4-0.9c-4.7,3.2-9.4,6.3-14,9.6
	c-2.5,1.8-3.3,4.4-3.4,7.6c-0.2,7.7-0.7,15.4-1.2,23.1c-0.1,0.8-1.1,1.6-1.7,2.4c-0.8-0.8-2.2-1.5-2.3-2.4c-0.3-1.9,0-4,0.1-6
	c0.4-5.2,1.1-10.4,1.4-15.7c0.1-1.1-0.9-2.5-1.9-3.2c-0.5-0.3-2.1,0.3-2.8,0.9c-4.2,3.6-8.3,7.1-12.3,10.9
	c-5.9,5.8-6.1,8.8-1.8,15.9c5.1,8.4,12.9,12.7,22.2,14.9c5.5,1.3,11.5,2.2,16.3,4.9c8.2,4.7,15.8,10.4,23.3,16.3
	c2.6,2.1,4.2,5.6,5.9,8.7c2.2,4,4.3,8.1,6.2,12.2c0.8,1.8,1.7,3.8,1.7,5.8c0.1,3.2-0.4,6.5-0.5,9.7c0,0.8,0.6,2.1,1.1,2.2
	c0.8,0.1,2-0.3,2.6-0.9c2.7-3.2,4.8-7.2,2.9-11.1c-2.7-5.5-3.7-10.6-1.5-16.4c0.4-1.1-0.2-3.8-1-4.1c-4.6-1.9-5.4-6.6-5.8-9.9
	c-0.6-4.6-4.4-6.8-5.7-10.5c-0.2-0.5-1-0.9-1.6-1.1c-5.1-2.2-6.8-4.7-6.1-10.1c0.6-4.8,2-9.5,1-14.5c-0.2-1.3,0.5-2.8,1.1-4.1
	c1.1-2.5,1.4-4.6,0.1-7.3c-1.8-3.7-3.1-7.7-4-11.7c-0.5-2,0-4.4,0.7-6.3c2.5-6.2,1.9-8.6-3.8-11.6c-5.3-2.8-6.9-2.2-8.8,3.5
	c-0.2,0.7-0.4,1.5-0.4,2.3c-0.1,8.6-0.2,17.1-0.3,25.7c-0.1,4.2-0.1,8.5-0.4,12.7c0,0.8-0.9,1.8-1.6,2.1c-0.5,0.2-1.6-0.6-2.1-1.2
	c-0.4-0.6-0.5-1.5-0.5-2.3c0-8.9,0.1-17.9,0.1-26.7C404.1,153.5,404.1,149.1,404.1,144.7z M614.7,252.6c-0.7-0.4-1.1-0.5-1.2-0.8
	c-3.1-6.4-3.9-13.2-3.5-20.2c0.1-0.9,0.8-1.8,1.3-2.7c0.7-1.4,1.6-2.8,2.1-4.3c0.7-2.1,0.8-4.4,1.5-6.5c0.8-2.6-0.1-4-2.6-5.2
	c-0.8,1.5-1.6,2.8-2.3,4.1c-2.3,4.7-3.3,10.3-8.1,13.5c-0.4,0.3-0.6,0.9-0.7,1.5c-0.9,4.8-1.3,9.6,0.7,14.1c2,4.5,4.1,9,6.3,13.5
	c0.9,1.9,2.2,3.6,3.3,5.4c1.2,2,2.8,2.2,4.3,0.4c2.4-2.8,4.7-5.7,6.9-8.6c3.1-4.1,5.6-8.7,9.1-12.4c10.6-11,21.4-21.9,32.4-32.3
	c4-3.8,4.5-7.9,4.5-12.9c0-5.8-4.1-11.6,1-17.8c-1.9,0.6-2.8,0.9-3.4,1c-5.5-4.9-10.8-9.6-16.7-14.9c-0.4,2.5-0.7,3.8-0.8,5.2
	c-0.1,7.9,0,15.8,0,23.8c0,4.5,0.2,8.9,2.8,12.9c0.5,0.8-0.3,2.9-1.1,4.1c-0.7,1-2.1,1.3-3.3,2c-0.6-1.1-1.5-2.2-1.7-3.4
	c-0.4-2.7-0.7-5.5-0.7-8.3c-0.1-9.3-0.1-18.5-0.1-27.7c0-2.2-0.2-4.4-0.4-6.6c-7.4,2.1-12.1,8.6-12.7,16.8c-0.2,2.7-0.1,6.1-1.7,8
	c-3,3.6-3.1,7.5-3.2,11.6c-0.2,9.8-0.2,19.7-0.6,29.4c-0.2,4.5-1.1,8.9-1.8,14c-3.1-2.2-2.4-4.1-1.9-6c0.6-2.3,2.3-4.9,0-6.9
	c-3.1-2.8-2.6-5.8-1.7-9.1c0.5-1.8,1.3-3.6,1.4-5.5c0.1-1.8-0.5-3.6-0.8-5.4c-0.4,0-0.9,0-1.3,0c-2.6,3.1-3.6,6.7-3.5,10.9
	c0.1,3.1,0,6.2-0.2,9.3c-0.3,4.2-0.8,8.4-1.2,12.6C615.2,250.1,614.9,251.2,614.7,252.6z M692.7,349.1c0.9-1.6,1.8-2.7,2.3-4
	c4.1-10.7,7-21.4,1.7-32.7c-1.3-2.9-2.6-5.4-5.1-7.5c-1.3-1.1-2.2-3-2.6-4.7c-1.7-7.1-3.3-14.3-4.6-21.6c-0.3-1.6,0.6-3.5,0.9-5.2
	c1.3,1.1,3.1,1.8,3.7,3.2c3.9,9,7.6,18.1,11.2,27.1c0.5,1.2,0.2,2.8,0.2,4.2c0.1,1.4-0.1,2.8,0.3,4c0.6,1.7,1.6,3.2,2.4,4.8
	c1.7,3.4,2.6,3.7,5.3,1.1c1.1-1.1,1.9-3,1.9-4.6c-0.1-4.9-0.5-9.8-1.1-14.7c-0.2-1.5-1-3.2-2.1-4.4c-2.7-2.9-3.1-6.3-2.9-10
	c0.4-5.5,1.4-11,1.2-16.5c-0.2-7,0.1-13.8,2.5-20.4c0.7-2,1.5-4,1.9-6.1c0.7-2.9,1.4-5.9-0.7-8.8c0.6,5.6-2.9,7.9-7.1,9.9
	c-0.6,0.3-1.3,1.3-1.3,1.9c0,2.7,1.5,5.8-2.3,7.4c-0.5,0.2-0.5,1.6-0.6,2.5c-0.1,1.6,0,3.1-0.1,4.7c-0.2,3.9-2.4,5.2-8.1,5.3
	c-4.1,0.1-3.5-3-3.4-5.1c0.3-7-0.2-13.9,3.4-20.7c2.7-5.1,2.7-11.9,3.1-18c0.1-1.9-2.2-4.1-3.7-5.9c-0.3-0.3-2.3,0-2.7,0.6
	c-6,8.2-7.4,17.8-4.9,27c1.8,6.8,1.5,13.2,1.1,19.8c-0.1,1.6-1.2,3.2-1.8,4.7c-0.4,0-0.7,0-1.1,0c-1.2-3.8-3-7.6-3.5-11.5
	c-0.7-4.9-0.3-10-0.4-15c-0.1-3.9-0.1-7.8-0.4-11.7c-0.1-1-1.3-1.8-2-2.7c-0.8,0.7-2.1,1.1-2.5,2c-2,4.2-4.7,8.4-5.4,12.9
	c-2,14.1-3.3,28.3-4.5,42.5c-0.2,2.7,1.1,5.2,4,6.7s6.3,3.3,7.8,6c2.5,4.5,6.1,6.9,10.5,8.1c6.4,1.7,9,6.3,11,11.9s2,11.2,0.2,16.7
	c-0.9,2.8-2,5.5-2.9,8.2C691.1,343.3,690.3,345.9,692.7,349.1z M716,320.1c-0.3,0.9-0.7,1.6-0.8,2.4c-0.5,3.8-0.9,7.5-1.2,11.3
	c-0.6,7.5-0.5,7.4,7,7.9c4.8,0.3,9.7,0.5,14.2,2c6.7,2.2,11.4,0.2,12.6-6.6c0.1-0.4,0.1-0.9,0.2-1.3c2-20.3,4.1-40.6,5.9-60.9
	c0.1-1.6-1.4-3.5-2.2-5.2c-0.6-1.2-1.8-2.5-1.7-3.6c0.5-5.1,1.4-10.1,2.1-15.2c0.2-1.6,0.5-3.4,0.1-4.9c-2.3-7.6-2.6-15.3-0.5-23
	c1.4-5-1.1-8.8-4.3-12c-2.9-2.9-7-2.8-10.7-1.9c-0.9,0.2-2,2-1.9,3c0.1,2.1,1,4.2,1.7,6.7c1.6-1.4,2.6-2.2,3.6-3.1
	c2.3,5.4-2.3,12,4,16.3c0.1-5.2-0.1-10.4-1-15.5c-0.3-2-0.1-2.9,1.8-3.6c0.5,0.8,1,1.6,1.4,2.3c2.8,4.3,1.8,8.9,1.7,13.6
	c-1.1,29.5-1.8,59.1-2.8,88.6c-0.2,5-0.7,10-1.4,15c-0.3,1.8-1.7,3.4-2.5,5.1c-0.4-0.1-0.8-0.3-1.1-0.4c-0.1-1.3-0.4-2.6-0.4-3.9
	c0.1-9.2,0.4-18.3,0.5-27.4c0.2-14.6,0.4-29.2,0.5-43.8c0-1.4-0.7-2.7-1.1-4.1c-0.5,0-0.9,0.1-1.4,0.1c-0.3,2.6-0.9,5.2-1,7.8
	c-0.3,5.1-0.2,10.3-0.5,15.4c-0.1,1-1.3,2-2,3c-0.5-1-1.3-2-1.4-3c-0.3-6.6-0.5-13.2-0.4-19.8c0-1.7,0.7-3.7,1.7-5.2
	c1.1-1.6,1-2.9,0.4-4.6c-0.9-2.3-1.6-4.8-1.8-7.2c-0.3-3.8-0.1-7.6-0.2-11.4c0-1-0.4-2-0.6-3c-0.5,0-1-0.1-1.4-0.1
	c-0.5,2.9-1.1,5.8-1.6,9.1c-1.3-1.3-2.2-2.3-3.2-3.3c-0.4,0.1-0.7,0.3-1.1,0.4c0.4,1.9,0.6,3.8,1.3,5.6c1.2,3,3,5.7,4.1,8.7
	c1.2,3.5,0.1,5.2-3.1,6c-3.8,1-3.5-1.9-4-4.1c-0.4-1.9-0.8-3.9-1.2-5.8c-2.7,5.5-1.6,10,2.3,12.1c-0.2,3-0.2,6.1-0.7,9.2
	c-0.2,1.2-1.5,2.3-2.3,3.5c-0.4,0.5-1.1,1.1-1,1.5c0.2,0.6,0.9,1.3,1.4,1.5c3,0.6,3.1,2.9,2.4,4.8c-0.4,1-2.4,1.4-3.7,2
	c-0.7,0.2-0.7,1.1-0.7,1.9c0.3,11.5,0.7,23,1,34.4C721.2,322,720.5,322.4,716,320.1z M724.1,415c-1.2,5.1,0.3,6.4,5,6.6
	c5.4,0.3,11.5-1.5,16,4.4c0.8-2,1.5-3.6,2.6-6.2c0.9,2.6,1.5,4.4,2.2,6.1c0.9-1.1,1.1-2.1,1.4-3c0.6-1.7,1.3-3.3,1.9-4.9
	c0.9,1.5,2.1,2.9,2.7,4.5c0.7,1.7,1.3,3.1,3.3,1.9c2.6-1.5,5-1.1,7.3,0.1c2.5,1.3,4.1,0.5,5.6-1.7c2.7-4.2,5.6-8.4,8.6-12.4
	c0.8-1,2.3-2.3,3.3-2.2c3.2,0.3,3.6-1.4,3.6-3.8c0.2-8.4,0.4-16.8,0.6-25.1c0.1-4.4,0-8.7,0.2-13.1c0.1-1.4,0.8-2.7,1.3-4.1
	c0.3,0.1,0.7,0.2,1,0.3c0.1,0.6,0.4,1.3,0.4,1.9c0,6.1-0.3,12.3-0.1,18.4c0.1,2.8,1.2,5.5,1.6,8.3c0.2,1.1,0.2,2.8-0.5,3.4
	c-3,2.7-0.6,5.6-0.4,8.3c0.1,0.7,1.6,1.7,2.4,1.8c0.6,0,1.7-1.4,1.8-2.3c0.4-2.9,0.7-5.8,0.5-8.7c-0.4-5.8-1.2-11.5-1.6-17.2
	c-0.2-3.9,0.2-7.8,0.1-11.7c0-5.4-4-8.3-9.2-7c-1.8,0.5-3.8,1.1-5.6,0.9c-2.1-0.3-3.6,0.3-3.7,2.2c0,0.9,1.7,2.6,2.8,2.7
	c2.2,0.3,3,1.6,3.5,3.4c1.7,5.7,3.1,11.3,1.5,17.4c-1.2,4.7-1.6,9.7-2.7,14.5c-0.5,2.4-2.1,4.5-4.9,4c-2.9-0.5-1.6-3.2-1.8-5
	c-0.3-1.8-0.5-3.6-0.7-5.4c-0.4,0-0.7,0-1.1,0.1c-0.6,1.8-0.9,3.7-1.8,5.3c-0.6,1.1-1.9,2.7-2.8,2.7c-1,0-2.7-1.6-2.8-2.7
	c-0.5-4.4-0.6-8.8-0.7-13.2c0-0.8,0.7-1.6,1.1-2.4c1-1.7,2.2-3.2,2.9-4.9c1.1-2.3,2.1-4.7,2.7-7.2c0.4-1.9,0.6-4,0.1-5.8
	c-0.5-1.9-2.2-2.3-3.5-0.5c-1.1,1.5-2,3.3-2.6,5c-3.8,10-5.8,20.4-5.5,31c0,1.8,0,3.6-0.4,5.3c-0.2,0.8-1.4,1.9-2.2,2
	c-0.6,0.1-1.9-1.1-2-2c-0.4-2.2-0.4-4.4-0.6-6.6c-0.1-1.2-0.4-2.4-0.6-3.6c-0.4,0-0.8,0-1.2,0.1c-0.1,2.7-0.2,5.4-0.3,8.1
	c-0.1,2.1,0,4.2-0.3,6.3c-0.1,0.6-1.2,1.4-1.9,1.6c-0.4,0.1-1.5-0.7-1.6-1.2c-1.3-5.8-2-11.7,1.1-16.9c1.4-2.3,1.6-4,1.4-6.4
	c-0.1-1.4,0.2-3.3,1.1-4.1c2.3-2.2,2.4-6.9-0.3-8.4c-0.6-0.3-1.9-0.2-2.3,0.2c-3.4,3.7-7,7.2-7,12.8c0,7-0.2,14.1-0.6,21.1
	c-0.1,2.4-0.8,4.9-4.6,5.9c-0.6-4-1.2-7.7-1.9-11.5c-0.4-2.7-0.2-5,1.9-7.1c0.6-0.6,1-2,0.8-2.9c-0.2-0.7-1.8-1.7-2.2-1.5
	c-0.9,0.5-1.9,1.6-2.1,2.6c-1.4,6.4-2.7,12.9-4,19.3C729,416.4,727.6,417,724.1,415z M444.1,132.9c-1.9,1.5-3.2,2.2-4.2,3.3
	c-2.1,2.3-4,4.8-6.2,7c-2,2.1-2.8,4.5-2.5,7.3c0.8,9.2,1.5,18.5,2.2,27.6c0.6,7.3,2.9,14,7.5,19.7c2,2.5,4.9,4.4,7.5,6.4
	c0.5,0.4,1.8,0.4,2.4,0.1c0.5-0.2,1-1.5,0.7-2c-1.9-3.5,0.4-6.2,1.7-9c2.1-4.4,5.9-8.4,2.9-13.9c0-0.1,0-0.2,0-0.3
	c1-8.6,0.8-17.5,7-24.6c1.2-1.4,2.1-3.2,2.7-5c1.9-5.3,4.8-10.1,9.2-13.3c5.5-4,6.6-9,5.8-15.1c0-0.3,0-0.7-0.1-1
	c-0.2-3.5-1.2-3.9-4.4-2.3c-1.8,0.9-3.9,2-5.7,1.9c-3.5-0.3-5,1.2-5.4,4.3c-0.6,5.8-1.2,11.5-1.8,17.3c-0.2,2,0.7,5.3-2.8,4.9
	c-3-0.3-1.9-3.3-1.8-5.3c0.3-4.9,0.7-9.7,1.1-14.7c-5.8,0.8-9.2,4-9.8,9c-0.2,1.8-0.3,3.6-0.4,5.3c-0.5,9.5-1,19-1.5,28.3
	c-0.1,2.5-0.9,4.9-4,4.6c-3.2-0.3-2.5-3-2.2-5c1-6.3,2.2-12.5,3.3-18.8C446.3,144.6,445.4,139.2,444.1,132.9z M386.5,356.8
	c2,1.7,4.7,4.2,7.7,6.4c1.2,0.9,2.9,1.1,4.4,1.7c0.1-1.6,0.5-3.2,0.2-4.8c-0.4-2.5-1.6-4.9-1.6-7.4c-0.2-7.3,0.1-14.5-0.1-21.8
	c-0.1-3.3,1.6-4.3,4.4-4.6c3.1-0.3,6.2-0.4,9.3-0.8c9-1.1,13.9-6.7,13.9-15.5c0-2.3-0.2-4.7-0.2-7c0-2.6,0.1-5.1,0.3-7.7
	c0.4-5,0.9-9.9,1.3-14.9c0.1-0.9-0.2-2.2-0.8-2.8c-1-0.8-2.4-1.1-3.6-1.7c-0.4,1.1-1.2,2.3-1.2,3.4c0,1.8,0.7,3.5,0.9,5.3
	c0.4,3.2-0.9,6.2-3.7,7.2c-4.6,1.6-4.6,5.1-4.9,8.8c-0.2,2.6-0.5,5.2,2.9,6.2c0.5,0.1,1,1,1,1.5c0.1,3.6,0,7.3,0,12
	c-3.2-2.6-5.5-1.4-8.2,1.6c0.2-4.4,0.7-7.6,0.6-10.8c-0.2-7.2-1.5-14.5,2.8-21.1c0.3-0.4,0.5-1.1,0.5-1.6c-0.2-0.9-0.3-2.1-1-2.7
	c-0.4-0.4-1.7-0.1-2.4,0.2c-7.6,3.5-12,11.5-11.1,19.8c0.1,0.8,0.5,1.5,1,2.7c1.9-2.3,3.3-4.1,5.1-6.3c1.7,2.8,2,5-0.3,6.4
	c-2.8,1.8-3.9,4.3-4.2,7.5c-0.2,2.5-1.8,3-4.2,2.7c-0.3-2.9-0.7-5.7-1-8.5c-0.3,0-0.6,0-0.9,0c-0.4,2.3-0.7,4.6-1.3,8
	c-2.8-2.2-5.1-4-7.4-5.7c-1.6,4.1-1.1,5.6,2,7.9c0.9,0.7,1.6,2.2,1.6,3.4c-0.1,7-0.3,14-0.6,21.1
	C387.3,348.6,386.9,352.3,386.5,356.8z M597.3,124.2c-0.3,1.5-0.6,2.3-0.6,3.2c0.1,8.9,0.2,17.8,0.5,26.7c0.1,1.7,0.6,3.6,1.4,5.1
	c3.7,6.6,3.5,13.8,2.6,20.8c-0.5,4.3,0.7,7.6,3.1,10.8c1.5,2,3.4,2,4.4-0.4c1.2-3,2.1-6.1,2.7-9.2c0.9-4.6,5.6-8.5,10.2-7.8
	c2.7,0.4,3.5-1.2,3.9-3.1c2.3-10.5,3.3-20.9-1.4-30.5c-5.4,0.6-8.5-3.5-13-6.1c-0.3,3.4-0.8,6.3-0.8,9.3c0.2,9,0.5,18.1,0.9,27
	c0.2,4-0.6,5-5.1,4.6c0-4.1-0.1-8.4,0-12.6c0.2-9.3,0.6-18.5,0.8-27.7c0-1.5-0.6-3.5-1.6-4.5C603.1,127.8,600.3,126.2,597.3,124.2z
	 M572.1,255.6c0.3,0.1,0.6,0.2,0.9,0.3c0,0.6,0.2,1.2,0.1,1.7c-0.5,1.7-1,3.3-1.5,5c-1.2-1.3-2.8-2.4-3.3-3.9
	c-0.9-2.4-2.2-2.1-3.8-1.3c-3.9,1.7-4.5,3.4-2.3,7c1.9,3,3.9,5.9,5.6,9.1c1.1,2,1.2,4.6,2.3,6.6c2.6,4.8,5.5,9.4,8.4,14
	c0.7,1.1,1.8,1.9,2.7,2.8c0.9-1,2.2-1.9,2.7-3.1c1.5-3.1,2.1-6.8,4-9.5c4.5-6.5,4.1-13.8,3.9-20.9c-0.2-6.9-1.4-13.7-1.6-20.6
	c-0.1-3.5-1.4-5.7-4-7.5c-3.1-2.2-4.3-2.1-6.1,1.2c-1.6,2.9-3,6-4.2,9.1C574.4,248.8,573.3,252.2,572.1,255.6z M556.5,390.4
	c-0.4-0.1-0.8-0.3-1.2-0.4c-0.5,0.7-1.2,1.2-1.5,2c-0.4,1.5-0.4,3.1-0.9,4.6c-0.3,1-1.3,1.7-1.9,2.6c-0.6-1-1.5-1.9-1.9-3
	c-0.3-0.8,0.1-1.8,0.2-2.6c1.1-5.3,2.4-10.7,3.4-16c0.4-2.2,0.6-4.4,0.4-6.6c-0.2-1.3-1.4-2.6-2.1-3.8c-1.1,0.9-2.4,1.7-3.4,2.7
	c-0.9,0.8-1.6,2.8-2.2,2.7c-4.8-0.6-7.2,2.1-9.1,5.9c-0.1,0.2-0.5,0.2-0.6,0.3c-0.4,1.1-1.2,2.2-1.1,3.2c0.2,1.9,1.5,3.7,1.3,5.5
	c-0.2,1.5-1.4,3.5-2.8,4.3c-2.1,1.2-2.8-1-3.4-2.6c-0.5-1.4-0.6-2.8-1.1-4.2c-0.9-2.6-0.2-4.4,2.3-5.4c2.1-0.8,1.7-2.3,1.1-3.9
	c-0.6-1.8-1.3-3.7-1.9-5.5c-0.4-1.2-0.9-2.3-1.3-3.5c-0.3-0.1-0.7-0.1-1-0.2c-0.7,1.4-1.9,2.7-2.1,4.2c-0.5,4.4-0.7,8.9-1,13.3
	c-0.3,4.5,2.5,9.3-1.8,13.3c-0.2,0.2-0.2,0.9-0.1,1.3c1.9,7.3,4.6,14.2,10,19.7c0.1,0.1,0.4,0,1,0c0.3-1.3,0.8-2.7,0.8-4.1
	c0-4.8-0.2-9.6-0.4-14.4c-0.1-1.9-0.2-3.4,2.5-3c0.6,0.1,2.1-1.2,2.2-2c0.5-4.6,1.5-9.3-1.9-14.3c2.9-0.5,5.6-0.3,7.4-1.5
	c1.8-1.2,2.7-3.8,4.1-5.9c2.6,7.5,1.3,11.9-4.1,13.3c-0.4,4.1-0.7,8.3-1.1,12.5c-0.3,2.6-1,4.9-4.6,3.8c-2.1,5.1-2.2,10.1-0.3,14.8
	c0.9,2.2,3.1,3.8,4.7,5.7c1.8-1.5,4.4-2.7,5.2-4.6c2.9-7.1,5.3-14.4,7.6-21.7C556.3,394.8,556.2,392.6,556.5,390.4z M473.9,314.2
	c0.4,0,0.8,0,1.2,0.1c0.3,1.2,0.8,2.5,0.8,3.7c0.1,3.8,0.1,7.6,0.1,11.4c-0.1,6,0.6,7,6.6,8.3c1.8-4.1,3.6-8.2,5.4-12.2
	c-4-2.7-5.2-5.1-2.8-7.2c3.4-3,2.9-6.8,3.1-10.5c0.2-3.3-2-5.2-5-7.2c0,3.9,0,7.1,0,10.2c0,3.1,1.1,6.6-2.3,9.1
	c-3.8-9.7-7.8-13-15.1-12.2c2.4,7.4-2.8,11.8-6.7,16.7c-0.2-1.9,0.3-3.6,1-5.2c0.5-1.1,1.7-2.1,1.7-3.2c0.2-7.2,3.5-14.1,1.8-21.5
	c-0.3-1.5,0.2-3.3,0.8-4.7c0.3-0.8,1.7-1.5,2.6-1.5c0.5,0,1.2,1.3,1.6,2.2c0.6,1.3,1.1,2.6,1.6,3.9c0.4-0.1,0.7-0.1,1.1-0.2
	c0.3-1,0.7-2,0.9-3c0.6-3.5,1.1-7.1,1.7-10.6c0.5-2.5,0.5-5.3-2.1-5.9c-1.3-0.4-3.3,1.8-5,2.9c-0.3,0.2-0.5,0.8-0.7,1.1
	c-2.1,3.9-4.2,7.8-6.5,11.7c-1.2,2.1-2.7,4-4.2,6.3c1.1,0.7,2.1,1,2.8,1.7c1.1,0.9,2.8,1.9,2.9,3c0,1.4-1.3,2.8-2,4.2
	c-0.8,1.5-2.1,2.9-2.4,4.4c-0.8,4.8-1.4,9.7-1.8,14.6c-0.4,4.6,0.3,9,3.8,12.8c1.1-2.6,1.6-5.3,2.5-7.8c0.6-1.7,1.7-4.2,3-4.5
	c1.3-0.3,3.2,1.6,4.7,2.7c0.9,0.6,1.7,1.4,2.8,2.3C473.7,324.5,469.6,318.6,473.9,314.2z M625.3,412.2c-1.6-4.9-3-9.6-4.6-14.3
	c-1.1-3.2-2.4-6.4-3.8-9.5c-0.3-0.7-1.4-1.3-2.2-1.3c-3.4-0.2-4-2.4-4.3-5.2c-0.2-2.8-0.8-5.5-1.3-8.6c-4.8,3.1-5.1,8.9-1.6,13.2
	c2.2,2.6,4.3,5.4,5.9,8.4c2.8,5.1,4.7,10.9,8,15.6c3.7,5.3,4.5,10.8,4.7,17c0.4,11.8,2.2,23.4,14,29.8c3.3,1.8,5.8,3.8,6.5,7.7
	c0,0.1,0.3,0.2,1.2,0.6c0.2-3,0.6-5.7,0.4-8.4c-0.3-3.9-1.1-7.7-1.4-11.6c-0.1-1.2,0.3-3,1.1-3.5c2.8-1.6,2.6-4.1,2.7-6.8
	c-0.6,0-1,0-1.5,0.1c-0.5,0-1,0.1-1.5,0.2c-1.3-6-1.3-6-3.6-6.4c-2.7,5.5,0.2,12.2-3.7,17.6c-0.9-1-1.6-2-1.5-3
	c0.1-3.9,0.6-7.7,0.8-11.6c0.1-1.6,0-3.3,0-4.9c-0.5-0.1-0.9-0.1-1.4-0.2c-0.6,1.1-1,2.3-1.8,3.2c-0.8,0.9-1.9,1.6-3,2
	c-0.3,0.1-1.6-1.5-1.6-2.3c-0.3-4.6-0.4-9.1-0.5-13.7c-0.1-2,0-4.1,0-6.7C629.3,410.6,627.9,411.2,625.3,412.2z M526.9,171.7
	c-0.6,1.3-1,3.6-1.8,3.8c-2.7,0.7-3.1-1.8-3.7-3.7c-0.1-0.2-0.2-0.4-0.2-0.6c-0.6-3.5-3-2.6-5.1-2c-2.4,0.6-3.3,2.1-2.2,4.5
	c1.9,4,3.8,8,5.7,12.1c1,2.1,2.6,3,4.8,3c3.9,0.1,7.5,3.4,11.6,0.9c0.4-0.3,1.5,0.3,2.2,0.6c2.2,1,8.6-0.4,9.7-2.5
	c2.1-4.4,4.1-8.9,5.6-13.5c1-3.2-0.2-4.5-3.4-3.3c-4,1.5-5.6-0.6-7-3.5c-1.3-2.7-3.3-4.1-6.1-4.7C528.9,161,526.1,163.3,526.9,171.7
	z M487.5,126.1c1.6-1.1,2.8-2,4-2.7c1.3-0.8,2.6-1.6,4-2.1c3.2-1.1,6.5-1.9,9.8-2.9c3-0.9,6-2.6,8.9-2.5c13.1,0.4,26.3,1.1,39.3,2.1
	c5.8,0.5,5.9,0.9,6.5-5.2c0.1-0.8,0.4-1.6,0.2-2.3c-0.3-0.9-0.9-2.2-1.7-2.5c-4.6-1.3-9.2-3.1-13.9-3.3c-6.3-0.2-12.6,0.7-18.9,1.5
	c-3,0.4-6.3,1-8.9,2.5s-5.1,1.8-7.9,1.7c-2.1-0.1-4.2,0.7-6.3,1c-1.9,0.3-4.1,1.1-5.5,0.4c-2.5-1.4-4-0.5-6,0.8
	C486.1,115.7,486,120.1,487.5,126.1z M507.4,169.9c-0.9,1.9-1.3,3-2,4c-2,2.8-1.7,5.3,0.3,8c2,2.6,3.7,5.3,5.7,7.9
	c1.6,2.1,1.4,3.3-1.3,4.2c-4.1,1.3-8.1,2.8-12.1,4.3c2.2,5,3.9,5.2,7,1.2c0.4-0.6,1.1-1.1,1.8-1.4c2.9-1,5.9-2,9.7-3.2
	c-0.1,1.6,0.2,3.6-0.6,5.1c-1.4,2.8-0.4,4.3,3,6.4c-2.1-7.9,4.4-8.6,9.1-11.8c-2.5-1.1-4.2-2.3-5.9-2.4c-6.6-0.4-9.4-5.5-12.7-9.9
	c-0.8-1-1-3.3-0.4-4.3c1.6-2.4,1.1-4.6,0-6.6c-1.1-2-0.3-3.1,0.9-4.4c2.7-2.8,6.1-2.6,9.4-1.8c2.7,0.7,4.5,0.2,5.6-2.5
	c1.2-2.9,3.5-3.9,6.5-3.5c2,0.3,4,0.6,6,0.8c1.7,0.2,3.4,0.3,5.1,0.5c0.1-0.4,0.3-0.7,0.4-1.1c-1.8-1.3-3.5-2.9-5.4-4
	c-2.4-1.3-4.8-2.3-3.6-6.1c-1.1,1.3-1.5,2.7-2.4,3.8c-1.2,1.5-2.7,2.8-4,4.1c-0.9-1.3-2.3-2.5-2.5-3.9c-0.6-3.3-2.6-4.9-5.5-6.1
	c-5.2-2.2-10.4-4.6-15.7-6.7c-2.9-1.2-5.4-2.6-6.6-5.7c-0.7-1.8-1.9-2.1-3.4-0.9c-2.1,1.6-4.3,3.2-6.3,5c-3.3,3-2.6,6.5,2,8.4
	c0.2-0.7,0.6-1.5,0.5-2.1c-0.2-1.6-0.9-3.2,1.4-4.1c2.4-1,4.4-2,6.7,0.2c1.3,1.3,3.1,2.2,4.9,2.8c5.4,2,10.9,3.8,16.4,5.7
	c3.2,1.1,3.6,2.4,1,4.7c-3,2.7-6.3,5-9.5,7.3c-4.1,3-5.2,2.8-7.9-1.6c-0.7-1.1-0.9-2.5-1.4-3.7c-0.7-1.4-1.6-2.8-2.7-4.7
	c-1.3,3.4-1.3,3.6,0.5,5.9c3.8,5.1,3.7,10-0.5,14.9c-1.2,1.4-2.4,2.8-3.6,4.2c0.3,0.4,0.6,0.7,0.8,1.1
	C501.2,178,502.3,171.7,507.4,169.9z M472.8,187.7c0.5,0.1,0.9,0.1,1.4,0.2c1.3-0.8,2.7-1.5,3.9-2.5c5.6-4.4,11.2-8.8,16.8-13.3
	c3.6-3,3.5-6.1,0.3-9.4c-1.2-1.2-1.8-3.1-2.3-4.8c-0.4-1.1,0-2.5-0.2-3.7c-0.5-3.2-2.4-4.2-5.2-2.7c-1,0.5-1.9,1.1-3.1,1.7
	c-1-2.5-1.9-4.6-2.7-6.8c-0.3,0-0.7-0.1-1-0.1c-0.6,1.2-1.1,2.4-1.7,3.6c-0.8,1.6-1.3,3.7-2.6,4.5c-3.2,1.9-3.8,4.8-4.2,7.9
	c-0.5,3.6-1.2,7.3-1,11C471.3,178.1,472.2,182.9,472.8,187.7z M656.4,286.7c2.6-6.7,3.8-12.7,3.1-19c-0.3-3.4-0.2-6.8-0.1-10.2
	c0.1-3.3,0.8-6.7,0.6-9.9c-0.1-1.4-1.5-3-2.7-3.8c-0.5-0.3-2.5,1-3.4,2c-5.1,6.2-10.2,12.4-15.1,18.7c-2.6,3.5-2,10.3,1.5,12.7
	C645.3,280.5,650.7,283.3,656.4,286.7z M392.5,281.2c0.5,0.2,1,0.3,1.5,0.5c3.9-3.9,11.5-2.8,12.7-10.2c0.1-0.5,0.9-1,1.4-1.4
	c5.4-4.4,5.4-4.4,2.3-10.7c-0.6-1.2-1.5-2.3-1.8-3.6c-0.6-2.6-1.1-5.3-1.1-8c0-2.1,1-4.1,1.4-6.2c0.3-1.4,0.6-2.9,0.3-4.3
	c-0.2-1-1.3-2.3-2.2-2.4c-0.8-0.1-2.1,1.1-2.5,2c-0.6,1.4-0.7,3-0.8,4.6c-0.1,4.6,0.1,9.2-0.2,13.7c-0.1,1-1.3,2-2,3
	c-0.8-1-2.3-1.9-2.4-3.1c-0.3-2,0.1-4.2,0.3-6.3c0.2-2.7,0.7-5.3-2.4-7c-0.7-0.4-1-1.9-1.2-2.9c-0.3-1.4-0.3-2.9-0.6-4.3
	c-0.2-0.7-0.9-1.4-1.4-2c-0.6,0.7-1.8,1.3-1.9,2c-0.3,2.3-0.2,4.7-0.3,7c-0.2,8.9-0.6,17.8-0.5,26.6
	C391.2,272.7,392,277,392.5,281.2z M555.6,194.8c0.3-1.1,0.8-2,0.7-2.8c-0.7-4.9,1.3-8.8,3.6-12.9c0.8-1.4,0.3-3.5,0.5-5.2
	c0.1-0.9-0.1-2.2,0.4-2.6c2.5-1.7,2-4.2,2.1-6.6c0.1-1.1-0.2-2.2,0.2-3.2c2-4.9,4.2-9.8,6.2-14.7c2.8-6.8,0.5-10.9-6.6-12.1
	c-2.5-0.4-2.8-1.7-1.4-3.4c1-1.2,2.4-2.2,3.9-3.5c-1.9-1.4-3.8-2.7-5.7-4.1c-1.5-1.1-3.2-2.5-4.5-0.5c-0.6,0.9,0,3.3,0.9,4.2
	c2,2,2.2,3.9,1.2,6.3c-0.4,0.9-0.5,1.9-0.8,3.2c1.1-0.5,1.8-0.8,2.7-1.2c1,2.1,2.4,4.3-0.2,5.8c-3.9,2.3-7.9,4.4-12,6.4
	c-2.6,1.3-5,6.8-3.1,8c3.7,2.4,7.7,4.4,11.6,6.5c0.6-1,1.1-1.5,1.3-2.1c2.1-4.7,4.4-9.3,6.2-14c0.6-1.7,0.5-3.8,0.3-5.6
	c-0.3-2.2,0.5-2.7,2.3-2.3c1.9,0.4,2.6,1.8,2,3.5c-1.8,4.8-3.5,9.6-5.5,14.3c-2.6,5.9-6.2,11.3-4.3,18.4c0.4,1.5-0.9,4.2-2.3,5.3
	C550.5,183.7,550.2,190.6,555.6,194.8z M511.7,136.7c-1.4-1.9-2.3-3.5-3.5-4.9c-0.7-0.9-1.6-1.6-2.4-2.4c-1.2,1.3-2.7,2.5-3.6,4.1
	c-0.3,0.6,0.6,2.4,1.4,2.9c7.6,4.2,15.1,8.9,23.9,9.8c2.3,0.2,5-0.1,6.9-1.2c6-3.6,11.7-7.7,17.5-11.7c0.7-0.5,1.1-1.3,1.7-1.9
	c-5.1-5.2-11.2-3.9-17.2-3.7c-6,0.2-5.8,6.5-9.9,9.1c-1.2-2.1-2.3-4.2-3.5-6.1c-2.3-3.7-4.6-3.9-7.2-0.3
	C514.4,132.2,513.3,134.2,511.7,136.7z M573.9,325.3c-0.6,0.2-1.1,0.4-1.7,0.7c0.2,2.1-0.4,5.2,0.8,6.1c2.9,2.3,2.6,4.9,2.3,7.8
	c-0.7,6.4-1.9,12.8-2.2,19.2c-0.3,6.7,0,13.4,0.3,20.1c0.1,2.9,0.5,5.8,1.3,8.5c0.3,1.2,1.9,2,2.8,2.9c0.9-1.1,1.9-2,2.5-3.2
	c1.2-2.1,2-4.5,3.4-6.4c1.4-2,2.5-3.5,0.4-5.8c-0.7-0.8-0.6-2.5-0.4-3.8c0.3-2.5,1.1-5,1.5-7.5c0.6-3.9,0.5-7.6-1.9-11.2
	c-1.1-1.7-0.3-4.6-0.3-6.9c0-2.1,0.9-4.6,0.1-6.2C580.3,334.6,577,330,573.9,325.3z M557.4,330.7c-4.5,2.3-5.3,1.8-5.1-2.6
	c0-1.6,0.5-3.1,0.5-4.6c0.1-3.2,0-6.4,0-9.5c-0.6,0-1.2-0.1-1.7-0.1c-0.3,1.8-0.3,3.7-0.9,5.5c-0.4,1.5-1.3,3.9-2,4
	c-1.7,0.1-4-0.6-4.9-1.9s-0.8-3.7-0.6-5.5c0.2-1.5,1.1-3,1.8-4.8c-6.9,2.2-7.9,3.6-7.5,9.9c0.1,1.5,0.1,3.2-0.3,4.7
	c-0.2,1-1.1,1.8-1.6,2.8c-0.3-0.1-0.7-0.2-1-0.3c0-1.5-0.1-3,0-4.5c0.4-4,0.8-8,1.5-12c0.3-2-0.5-5.1,3.3-5c0.3,0,0.8-1,0.9-1.6
	c0.4-2.6,1-5.3,1.1-7.9c0.1-2.1-0.2-5.1-2.8-4.8c-2.7,0.3-1.6,3-1.4,5c0.1,1.7,0.1,4.6-0.6,4.9c-3.3,1.1-2.3,3.6-2.6,5.8
	c-0.2,1.9-0.3,3.9-1.1,5.5c-3,6-2.7,12.3-1.8,18.7c0.6,4.2,1.9,5.1,5.8,3.5c2.3-1,4.7-0.3,6.6-0.8c5.3-1.4,8.5,0.8,11.8,4.2
	c1.5,1.5,3,0.8,3-1.5C557.8,335.3,557.5,333.3,557.4,330.7z M482.5,219.4c0.4,0,0.7,0,1.1,0c0.3-0.3,0.7-0.6,0.8-0.9
	c1.9-4.2,1.8-4.1,6.4-2.6c1.2,0.4,3.3,0.1,4.1-0.7c1.8-1.8,3.4-1.7,5.3-0.4c1.6,1.1,3.3,1.9,4.8,3c2.8,2.2,5.6,4.4,8.4,6.7
	c1.7,1.4,3.6,1.7,5.1,0c1.1-1.2,2.6-3.4,2.1-4.3c-3-5.7-6.2-11.4-9.7-16.8c-1.9-2.9-3.6-2.5-5.1,0.7c-0.9,2-1.8,4.1-2.8,6.6
	c-1.1-1.1-1.9-1.6-2-2.2c-1-4.4-4.8-5.6-8.2-7.2c-3.4-1.6-5.9-0.7-6.5,3c-0.6,3.8-2.1,4.4-5.9,2.3
	C481.2,211.4,481.9,215.4,482.5,219.4z M555.9,199.2c-3.6,2.4-5,5.8-6.4,9.2c-2.2,5.4-0.8,7.7,5.2,7.9c6.2,0.2,12.5,0.1,18.7,0.1
	c0.8,0,1.9,0.1,2.2-0.4c3.1-4,6.3-8,8.9-12.3c0.4-0.7-1-3-2-4.1c-0.5-0.6-2.7-0.6-3.2,0c-2.4,2.9-4.5,1.9-6.9,0.1
	c-0.6-0.5-1.6-0.6-2.9-1c-0.2,2.3-0.2,4.2-0.5,6c-0.3,1.7,1.4,4.3-1.5,4.9c-0.4,0.1-1.7-3-2.1-4.8c-0.6-2.9-1.7-3.7-3.8-1.7
	c-2.6,2.4-3.5,1-4.5-1.3C556.9,201,556.5,200.4,555.9,199.2z M710.9,221.6c3.6-0.3,3.6-0.3,3.7,3.9c0,0.9-0.4,1.9-0.1,2.6
	c0.5,1.1,1.4,1.9,2.1,2.9c0.5-1,1.4-2.1,1.3-3c-0.2-2.8-0.9-5.5-1.3-8.3c-0.5-3.4,0.7-5.4,3.6-5.9c2.3,6.8-0.8,14.4,2.8,21.1
	c1.3-8.2,2.9-16.4,2.1-24.8c-0.1-1.6-1.4-3-2.1-4.5c-1.1,1.2-2.1,2.4-3.2,3.6c-0.1,0.2-0.3,0.3,0,0c-3.2-0.3-6.3-1.6-8.4-0.7
	c-4.8,2.1-10.7,3.6-10.8,10.7c0,0.4-0.4,0.8-0.5,1.2c-1.9,5.1-4,10.1-5.6,15.3c-1.2,4.3-0.4,8.4,2.6,12.1c1.7-6.6,0.8-13.6,4.4-19.8
	c0.4,1.5,0.7,3,1.1,4.5c0.4,0,0.7,0,1.1,0c0.6-4.9,1.1-9.8,1.7-14.8c0.4-0.1,0.7-0.3,1.1-0.4C708,218.6,709.2,219.8,710.9,221.6z
	 M421.4,359.5c2.5-2.2,4.2-4.6,6.4-5.6c4.1-1.8,6-4.8,6.5-8.9c0.6-4.4,1.1-8.9,1.6-13.3c0.3-2.6-0.1-5-3-6c-2.9-1.1-5.5-0.2-7.4,2.9
	c-1.8,2.9-3.1,6.2-5.1,9C415.2,345.3,420.9,352,421.4,359.5z M738.4,383.6c0.3,0,0.7,0.1,1,0.1c0.6-1.8,1.1-3.5,1.7-5.3
	c0.7-2.3-1-6.2-3.8-8.2c-2.2-1.6-4-0.6-6.1,0.5c-4,2.3-8.3,4.3-12.4,6.4c-0.6,0.3-1.4,0.5-1.7,1c-2,3.5-4.2,6.9-5.7,10.6
	c-1.3,3.4,0.2,5.2,3.7,4.4c5.3-1.2,10.5-2.9,15.6-4.8c1.1-0.4,2-2.6,2.2-4.1c0.4-2.4,0.1-4.9,0.4-7.3c0.2-1.1,1.2-2.1,1.8-3.2
	c0.6,1,1.4,1.9,1.7,2.9C737.6,379,737.9,381.3,738.4,383.6z M488.5,264c0.4-0.1,0.9-0.2,1.3-0.2c0.2-3.4,0.5-6.7,0.7-10.1
	c0.1-2.1-0.9-3.3-3-3.1c-2.3,0.3-2.5-1.1-2.9-2.7c-0.4-1.7-1.2-3.3-1.9-5.2c-3.8,2.2-4,5.3-4,8.5c0.1,1.8-0.9,2.9-2.5,2.6
	c-1-0.2-2.2-1.3-2.5-2.3c-0.4-1.2,0.3-2.7,0.1-3.9c-0.3-1.4-0.9-3.4-1.9-3.9c-2.2-1-2.7,1.1-3.2,2.7c-0.5,1.8-1,3.6-1.6,5.9
	c-2.8-2.6-3.1-5.1-2.9-7.9c0.1-0.9-0.8-1.9-1.5-2.6c-0.1-0.1-1.6,0.4-1.8,0.9c-2.1,5.6-3,11.3-1.8,17.8c1.7-0.9,3.1-1.4,4.1-2.3
	c2.6-2.3,5-2.4,7.7,0c1,0.9,2.8,1.6,4.2,1.4c4.1-0.6,7.7-0.3,10.9,2.6C486.6,263,487.6,263.4,488.5,264z M715.9,294.3
	c0.4-0.1,0.8-0.2,1.3-0.2c0-3.3,0-6.6,0-9.9c0-14.7,0.1-29.4-0.1-44.1c0-1.3-1.3-2.7-2-4c-0.7,1.2-1.9,2.4-2.1,3.7
	c-0.6,5.3-0.9,10.7-1.3,16c-0.1,1-0.3,1.9-0.7,2.8c-0.7,1.9-1.9,3.7-2,5.7c-0.4,5.7-0.1,11.4-0.5,17.1
	C708.2,287.4,711.7,291,715.9,294.3z M540.7,254.7c-0.4-0.1-0.9-0.2-1.3-0.3c0.2-3.1,0.6-6.3,0.5-9.4c0-2-0.6-4.1-1.2-6
	c-0.2-0.7-1.5-1.3-2.3-1.4c-0.4,0-1.3,1.3-1.3,2c-0.2,7.3-1.2,14.8,4.9,21c3-1.3,7.5-0.2,8.9-5.5c0.6-2.1,2.4-4.1,4-5.8
	c1.4-1.4,3.2-2.4,4.8-3.6c4.4-3.4,4.7-10.9,0.3-15.1c-3.6,2.7-4.6,6.6-5.4,10.7c-0.3,1.5-1.1,2.9-1.6,4.4c-0.4-0.1-0.8-0.2-1.2-0.3
	c-0.1-2,0.1-4-0.4-5.8c-0.3-1.2-1.8-2-2.7-3c-0.6,0.9-1.5,1.8-1.6,2.8c-0.3,2.1-0.1,4.2-0.2,6.4
	C544.7,249.2,543.1,252.2,540.7,254.7z M743.7,445.9c-1.5,2.3-2.9,4.1-3.8,6.1c-3,7.2-5.7,14.5-8.7,21.7c-1.2,3-3,5.7-4.1,8.7
	c-0.4,1.1,0.3,2.7,0.5,4.1c1.3-0.4,2.9-0.3,3.8-1.1c4.1-3.9,7.9-8.2,11.9-12.1c2.9-2.8,2.6-6,2.2-9.6c-0.3-2.8-0.2-5.7,0.2-8.5
	C746.3,452,746.1,449.2,743.7,445.9z M441.9,401.8c0.5-0.1,1-0.2,1.4-0.2c2.6-6,4.9-12.1,3.1-18.8c-1.5-5.9-5.5-6.9-10.2-3.1
	c-0.4,0.4-0.8,1-1.3,1.1c-1.3,0.1-2.9,0.3-3.8-0.4c-0.7-0.4-1-2.4-0.6-3.3c0.9-2.2,2.2-4.1,3.4-6.1c1.4-2.4,0.2-3.6-2.1-3.9
	c-3.3-0.5-6.8,1.4-8.2,4.6c-1.5,3.2-0.8,6.2,2.1,8.7c2.2,1.9,4.4,3.8,6.8,5.4c3.6,2.6,6,5.8,6.9,10.2
	C439.9,398,441.1,399.9,441.9,401.8z M591.3,148.5c0.5,0,1-0.1,1.4-0.1c0-6.4-0.5-12.9,0.1-19.3c0.7-7.2-2.4-11.1-8.8-13.2
	c-0.4-0.1-0.8-0.4-1.2-0.5c-3-1.3-4.3-0.9-4.6,2.4c-0.3,4.3,0,8.6,0.4,12.9c0.1,1.3,1.6,2.6,2.6,3.7c2.3,2.7,4.7,5.2,6.8,8
	C589.4,144.2,590.2,146.5,591.3,148.5z M381.6,375.8c-0.5,0-0.9,0-1.4,0c-0.2-1.6,0-3.3-0.7-4.7c-0.9-1.7-2.4-3.1-3.7-4.7
	c-0.9,1.2-1.9,2.3-2.5,3.6c-0.4,0.8,0,2.1-0.4,2.9c-0.4,1-1.2,2.2-2,2.4c-3.5,0.8-3.1,3.6-2.8,5.9c0.3,2.6,2.8,3.1,4.7,2.3
	c5.7-2.3,11-2.3,16.6,0.3c1.5,0.7,4.5-0.7,6.2-1.9c0.7-0.6-0.1-3.3-0.4-5c-0.2-0.8-0.9-1.5-1.2-2.4c-1.2-4.1-4.6-3.8-7.8-4
	c-3.3-0.2-3.3,2.3-4,4.3C382,375.3,381.7,375.5,381.6,375.8z M691.9,390.1c0.3,0.1,0.6,0.3,1,0.4c2.3-2.7,4.4-5.5,6.8-8.1
	c2.9-3.2,2.7-6.8,1.5-10.6c-0.4-1.2-0.7-2.6-0.7-3.9c0-3.5,0.3-7.1,0.3-10.6c0-0.8-0.7-2-1.4-2.3c-3.8-1.4-7.6,1.1-7.8,5.1
	c-0.3,6.3-0.4,12.7-0.4,19C691.3,382.8,691.7,386.5,691.9,390.1z M695.5,191.4c1.1-1.1,2.8-2.2,3.5-3.8c0.4-0.9-0.5-3-1.5-3.7
	c-2.7-2.3-5.7-4.4-8.8-6.1c-5.4-3-11-5.8-16.7-8.4c-2.6-1.2-4.1,0.2-3.2,2.9c0.8,2.3,1.9,5.1,3.8,6.3c6.3,4.2,12.9,7.8,19.5,11.6
	C692.9,190.6,693.8,190.8,695.5,191.4z M575,148.6c-0.4,0-0.7-0.1-1.1-0.1c-2.7,7.2-5.5,14.3-8,21.6c-0.4,1.2,0.5,2.9,0.8,4.4
	c0.4,0,0.9-0.1,1.3-0.1c0.2-1.3,0.4-2.7,0.6-4.3c6.6,0.6,10.2,7.2,17,8.9C584.8,167.4,579,158.2,575,148.6z M383.4,345.1
	c0.5,0,0.9-0.1,1.4-0.1c1.2-4,1.4-8-0.2-12.1c-1-2.5-2-5-2.5-7.7c-0.5-2.9-0.1-6-0.6-9c-0.2-1.3-1.5-3-2.7-3.4c-2-0.8-3.1,1-3.2,2.8
	c-0.8,10.4-1.5,20.9-2,31.2c-0.1,1.3,1.4,2.7,2.2,4c1-1.1,2.6-2,2.9-3.3c0.8-3.3,1-6.8,1.5-10.2c0.2-1.1,0.7-2.2,1-3.3
	c0.2,0.1,0.5,0.2,0.7,0.2C382.4,338,382.9,341.6,383.4,345.1z M677.4,412.2c0.3,0.1,0.7,0.2,1,0.3c2.8-2.1,6.5-3.5,6.6-7.7
	c0.4-13.4,0.6-26.7,0.8-40.1c0-0.8,0-1.6-0.2-2.3c-0.2-0.5-0.8-1.3-1.2-1.3c-0.6,0-1.7,0.6-1.7,1.1c-0.5,4.7-1,9.4-1.3,14.1
	c-0.2,2.1,0.4,4.4-0.2,6.3c-1.5,4.7-4.5,9-2.6,14.4c0.2,0.7-0.2,1.5-0.3,2.3C677.9,403.6,677.7,407.9,677.4,412.2z M358.9,339.9
	c0.1,0,0.2,0.1,0.3,0.1c0.1,1.4,0,3,0.3,4.3c0.3,1.1,1.2,2.1,1.9,3.2c0.8-0.9,2-1.7,2.4-2.8c1.8-4.4,2.9-9.2,5.1-13.4
	c3.5-6.8,1.7-14.3,3.3-21.3c0.1-0.7-0.8-2-1.5-2.2c-0.6-0.2-1.9,0.5-2.4,1.1c-1.1,1.6-2.3,3.4-2.8,5.3c-1.8,5.8-3.3,11.7-4.9,17.7
	C360,334.4,359.5,337.2,358.9,339.9z M590,335c-0.3,8.2-0.5,16.5-1,24.7c-0.1,2.3-0.8,4.6-1.4,6.8c-0.8,2.9-0.9,5.6,1,9.1
	c4.1-7,11.4-11.8,8.4-21c-0.3-0.9-0.3-2-0.4-3C595.9,345.5,593.9,339.9,590,335z M341.2,424.4c0.4,0.2,0.7,0.5,1.1,0.7
	c1.8-1.6,3.7-3,5.3-4.7c5.2-5.6,5.2-5.6,1.5-12.2c-1.4-2.4-1.2-4.2,1.3-5.5c1.1-0.6,2.2-1.4,3.6-2.3c-1-1-1.6-2-2.5-2.5
	c-3.8-2.1-4.6-5.2-3.8-9.3c0.3-1.4-1-3.2-1.6-4.8c-0.2,0.1-0.4,0.2-0.5,0.4C344,397.7,342.6,411.1,341.2,424.4z M675.6,376.1
	c-0.7,1.3-1.5,2.5-2.1,3.7c-3.2,5.8-6.5,11.4-9.3,17.3c-1.1,2.3-1.8,5.1-1.8,7.6c0,1.2,1.9,2.5,3,3.7c1.2-1.3,2.8-2.4,3.5-3.9
	c0.6-1.3-0.1-3.1,0.1-4.6c0.2-1.2,1-2.4,1.6-3.6c0.4,0.1,0.8,0.3,1.2,0.4c0,1.6,0,3.3,0,4.9c-0.1,2.5-0.4,4.9-0.3,7.4
	c0,0.8,0.8,1.5,1.3,2.2c0.7-0.6,1.6-1.1,2-1.8c0.4-0.6,0.3-1.5,0.3-2.3c-0.2-5.2,0.8-10.4-2.1-15.3c-0.9-1.4-2.2-4.1,1.1-4.8
	C678.9,386,680.5,380.4,675.6,376.1z M632.3,398.3c0.4,0,0.8,0,1.2-0.1c0.6,1.3,1.3,2.6,1.8,3.9c0.6,1.6,0.5,3.5,1.5,4.7
	c1.1,1.5,3,2.5,4.5,3.7c-0.1-1.9,0.2-3.8-0.4-5.5c-0.8-2.7-2.7-5.2-3.3-8c-0.7-3.5-2.7-5.8-5.4-7.6c-2.4-1.6-4.9-3.1-7.4-4.4
	c-1-0.5-2.2-0.6-3.4-0.9c0.3,1.3,0.2,3.3,1,3.8c3.6,2,3.3,5.2,3.2,8.4c0,2.4,0,4.9,0.4,7.3c0.2,0.9,1.6,2,2.5,2.1
	c0.7,0,1.8-1.3,2.2-2.2C631.4,401.8,631.8,400,632.3,398.3z M570.7,351.2c1.6-3.7,1.1-6.2-2.5-7.9c-1.1-0.6-2.2-2.5-2.2-3.8
	c0-4.9,0.3-9.8,0.7-14.7c0.4-5.2-1.2-8-7.1-10.7c-1,2.8-2.1,5.5-2.8,8.3c-0.2,0.6,1,2.3,1.3,2.2c4.2-0.7,3.6,2.2,3.6,4.6
	c0,1.7,0.3,3.4-0.2,5c-2.2,7.9,1.4,12.7,7.9,16.2C569.8,350.6,570.1,350.8,570.7,351.2z M764.9,188c-2,8.9-2,9.4-0.3,11.3
	c0.9-0.8,1.8-1.6,2.4-2.1c3,1.8,5.6,3.6,8.5,5c1.9,0.9,3.5-0.2,3.2-2.3c-0.6-5.5,3.5-10.5,1.3-16c-0.1-0.3,0-1,0.2-1.3
	c2.1-2.9-0.2-5.1-0.9-7.7c-0.7,0.4-1.2,0.6-1.5,0.9c-3.4,2.4-3.3,2.5-0.7,5.8c0.8,1,0.8,3.7,0,4.6c-1.2,1.4-3.5,1.9-5.7,3
	c-0.4-2.1-0.7-3.4-0.8-4.7c-0.1-1.3,0-2.6,0-3.9c-3.2,0.4-3.8,0.9-2.9,2.5c1.2,2.2,2.7,4.3,1.7,7c-0.1,0.2,1,1.1,1.6,1.3
	c1,0.4,2.2,0.4,3.2,0.8c0.7,0.3,1.2,1,1.7,1.5c-0.6,0.5-1.2,1.2-1.9,1.3c-5,0.5-7.2-1.1-8.5-5.6C765.6,188.9,765.3,188.6,764.9,188z
	 M504.7,276.4c0.5,0.1,1,0.2,1.4,0.2c3.5-1.8,6.6-3.6,6.3-8.5c-0.4-5.9,0-11.8-0.3-17.7c-0.1-1.4-1.4-2.8-2.1-4.2
	c-1.4,1-3.1,1.8-4.3,3.1c-0.7,0.8-1,2.3-1,3.5C504.6,260.7,504.7,268.5,504.7,276.4z M540.9,201c-5.1,0-10.1-0.1-15.1,0.1
	c-0.8,0-2.3,2.3-2,3c1.8,4.1,3.5,8.5,6.2,12c2.7,3.5,4.6,2.7,5.9-1.5C537.3,210,536.3,204.6,540.9,201z M364.1,449.3
	c0.5,0,1,0,1.4,0c0.2-1.9,0.4-3.7,0.7-5.6c1-7.8-1.1-15.9,2.1-23.5c0.2-0.4,0-0.9-0.1-1.3c-1.1-4.1,0.7-7.4,2.4-10.9
	c0.5-1.1,0.6-2.7,0.2-3.9c-0.3-1-2.1-2.4-2.5-2.2c-1.2,0.6-2,1.8-2.8,2.9c-0.3,0.4-0.5,1-0.6,1.6c-0.5,8.5-1,16.9-1.4,25.4
	c-0.2,3.2-0.2,6.3-0.1,9.5C363.5,444,363.8,446.7,364.1,449.3z M782.1,193.8c0.2,1.3,0.3,2.8,0.6,4.3c0.3,1.6,0.4,3.5,2.9,3.1
	c2.1-0.4,4.6-0.2,4.7-3.5c0.1-5.2,0.5-10.5,0.4-15.7c0-1.9-1.1-3.8-1.7-5.6c0.2-4.1-0.2-4.5-5.2-5.1c0,2.2-0.1,4.4,0,6.5
	c0.2,2.4-0.5,5.4,2.9,6.4c0.1,0,0.1,1.7-0.3,2.3c-0.4,0.6-1.3,1-1.7,1.2c0.7,1.9,1.3,3.3,1.8,4.8C785.3,192.9,784,193.2,782.1,193.8
	z M560.7,188.1c-0.1,2.7,0.9,4.2,3.3,4c5.1-0.4,10.2-1,15.2-1.7c0.7-0.1,1.7-1,1.8-1.6c0.1-0.6-0.8-1.5-1.4-1.9
	c-2.8-1.6-5.6-3.1-8.4-4.7C563.8,178.2,561,179.8,560.7,188.1z M464.8,166.4c-0.4,0-0.9,0-1.3,0c-0.3,1.3-0.9,2.6-0.9,3.9
	c0,2.4,0.1,4.9,0.5,7.3c0.4,2.5,0.8,5.2,2.1,7.1c3.2,4.4,4.3,8.9,2.6,14.1c-1.3,4,1.5,11.2,6.3,13.7c-1-4.9-2-9.7-3-14.7
	c1.6-0.3,2.9-0.6,4.5-0.9c-0.4-0.7-0.5-1.1-0.8-1.4c-4.8-5.5-8.3-11.5-8.5-19.1c0-2.1-0.1-4.2-0.4-6.3
	C465.8,168.9,465.2,167.6,464.8,166.4z M552.2,307.8c0.4,0,0.8,0,1.2,0c0-3.2,1.3-7.5-0.3-9.5c-2.6-3.3-2.2-6.3-1.7-9.6
	c0.2-1.1,0.4-2.2,0.3-3.3c-0.2-2.3-0.5-5-3.3-5s-2.6,2.9-2.8,4.9c-0.5,4.9-0.8,9.7-1.2,14.6c-0.1,0.8,0,1.6,0.1,2.3
	c0.5,2.2,1.7,2.8,3.6,1.3c0.9-0.7,1.8-1.4,3.1-2.5C551.7,303.8,552,305.8,552.2,307.8z M800.2,165.5c-5.1,1-5.7,2-4.6,6.3
	c0.3,1.3-0.1,2.9-0.2,4.3c-0.1,1.4-0.9,3-0.5,4.2c1.2,4.4,0.8,8.5-0.7,12.7c-0.2,0.7-0.4,1.8,0,2.3c0.8,1,2,1.8,3.1,2.6
	c0.6-0.8,1.7-1.5,1.8-2.3c0.5-8.1,0.8-16.1,1.2-24.2C800.2,169.6,800.2,167.7,800.2,165.5z M333.6,177.9c5.4,0.2,11.9-4.1,12.6-7.9
	c0.3-1.4-0.1-3.5-1-4.5c-0.8-0.9-2.8-1-4.1-0.8c-4.8,0.5-7.5,4.7-11.1,7.1c-0.4,0.3-0.6,2-0.2,2.4
	C331,175.7,332.7,177.1,333.6,177.9z M467,381.6c0.4-1,0.8-1.6,0.9-2.3c0.6-6.5,1.3-13.1,1.6-19.6c0.1-1.9-1.1-3.8-1.6-5.7
	c-0.5,0-1.1,0-1.6,0c-0.8,2.6-1.3,5.2-2.3,7.7c-0.8,1.8-1.8,3.8-3.3,5c-2.4,1.9-2.8,7.1-0.3,9.4c1.3-1.8,2.6-3.7,4-5.5
	c0.3,0.1,0.6,0.3,0.9,0.4C465.1,374.5,463.3,378.3,467,381.6z M568.7,131.4c3.5,4.1,7.2,8.1,10.6,12.2c0.8,1,1.1,2.5,1.3,3.8
	c0.2,2.1,0.1,4.3,0.1,6.8c2.9-1.5,5.9,0.1,5,2.2c-1.8,4.5,2.1,4.8,4,6.9C591.3,153.5,580.6,133.8,568.7,131.4z M349.8,324.6
	c-1.7,3.4-3.7,6.5-4.9,9.9c-0.8,2.3-0.6,5-0.3,7.5c0.3,2.6,2.6,2.6,4.7,2.6c1.9-0.1,3.5-0.6,3.7-3c0.3-3.5,0.9-7.1,1.2-10.6
	C354.4,328.3,353.3,326.1,349.8,324.6z M573.5,127.2c0.3-4.7,0.9-8.4,0.7-12.2c-0.1-3.2-7.4-6.4-9.7-4.5c-2.2,1.8-2.1,10.1,0.3,11.7
	C567.3,123.9,570,125.2,573.5,127.2z M494.2,193.7c0.1-0.2,0.2-0.4,0.3-0.6c2.9-0.2,5.8-0.5,8.6-0.6c1.8-0.1,2.7-0.9,1.9-2.5
	c-1.5-3-3.3-5.9-5-8.8c-2.5,1.3-5,2.6-7.5,3.9c-0.3,0.1-0.6,0.4-0.7,0.7c-1.2,1.9-2.4,3.8-3.6,5.7
	C490.1,192.1,492.2,192.9,494.2,193.7z M350.2,163.4c4.3,0,8-3.8,9-8.8c0.3-1.3-0.3-3.5-1.3-4.3c-1-0.8-3.4-0.9-4.5-0.2
	c-2.3,1.5-4.5,3.4-6,5.7c-0.9,1.4-0.7,3.9-0.1,5.6C347.7,162.5,349.6,163,350.2,163.4z M719,412.7c0.1,0,0.2,0,0.3,0
	c-0.3-2.2-0.5-4.4-1-6.6c-0.1-0.5-2-1.2-2.1-1.2c-2.2,3.2-7.7,3.6-7.2,9.1c0.3,3.4,2.2,6.1,6.3,6.4c3.8,0.3,3.3-2.8,3.6-5.1
	C719.1,414.5,719,413.6,719,412.7z M524.7,122.5c-0.2,0.2-0.4,0.5-0.6,0.7c0.5,1.3,0.8,2.7,1.4,3.9c1.4,2.8,2.8,3,4.7,0.5
	c2.1-2.9,4.5-3.8,7.8-2.5c0.4,0.2,1.3,0.1,1.5-0.1c2.3-3,4.8-2.2,7.7-0.8c0.9,0.4,2.5-0.8,3.7-1.3c-0.6-0.9-1-2.4-1.9-2.7
	c-1.9-0.8-4.1-1.5-6-1.3c-2.9,0.4-6,1.2-8.5,2.7C531.3,123.6,528.2,124.1,524.7,122.5z M246.6,375.3c0.1,0,0.2,0,0.4,0.1
	c0,1.5-0.1,2.9,0,4.4c0.1,2,0.9,3.6,3.1,3.6c2.4,0,1.9-2,2-3.5c0.2-4.4-0.4-8.9,2.2-13c0.5-0.8-1-3.5-2.3-4.4
	c-1.7-1.3-3.2,0.1-3.6,2C247.6,368.1,247.1,371.7,246.6,375.3z M633.5,150.6c-2.2,2.6-2.3,3.7-1.8,9.3c0.7,6.9,0.9,7.1,7.5,5.3
	c1.2-0.3,2.6-1.4,3.1-2.5c0.3-0.6-1-2-1.7-2.9c-1.2-1.6-2.6-3.1-3.8-4.6C635.6,153.7,634.6,152.2,633.5,150.6z M404.9,346.8
	c-2.4,2.5-4.4,5.1-3.6,8.4c1.2,4.8,2.9,9.5,4.5,14.5C408.7,363.7,408.2,350.4,404.9,346.8z M518.3,267.5c3.5-5.2,5.5-9.8,5.1-15.2
	c-0.1-1.1-1.2-2.4-2.1-3.2c-1.4-1.2-2.8-0.9-3.4,0.9C516.4,255.6,516.2,261.2,518.3,267.5z M527.4,459.6c3.9-5,3.5-20.6-0.8-24
	C525.7,443.9,524.9,451.7,527.4,459.6z M553.2,438.4c-0.3,0.1-0.5,0.2-0.5,0.2c-1.2,5.4-2.5,10.9-3.4,16.4c-0.2,1.4,0.9,2.9,2.9,1.5
	C558,452.4,558.6,443.3,553.2,438.4z M481.6,377.2c2.8,0.1,4.5-1.4,5-3.7c0.8-3.5,1.2-7.2,1.3-10.8c0-0.9-1.4-1.9-2.2-2.9
	c-0.7,0.9-1.7,1.6-2.2,2.6c-0.6,1.4-0.3,3.4-1.2,4.4C479.3,370.3,480.9,373.7,481.6,377.2z M479,302.2c1.1-3.6,2.6-6.1,2.7-8.7
	c0.1-4.2-0.7-8.3-1.4-12.5c-0.1-0.7-1.6-1.2-2.5-1.7c-0.4,0.8-1.1,1.6-1.1,2.4c0.3,5.7,0.7,11.5,1.2,17.2
	C477.9,299.9,478.4,300.7,479,302.2z M430.4,286.4c0.2,1.7,0.5,3,0.5,4.3c0.1,2,0.8,4.6-0.2,5.8c-3.4,4.2,0.4,7,1,10.6
	C437,301.3,436.4,288.9,430.4,286.4z M503.5,147.4c-0.6,4,2.2,11.6,4.1,11.4c2.5-0.3,4.7-2.2,7.1-3.4c0.1-0.1,0.1-0.4,0.4-1.5
	C511.5,151.9,507.8,149.8,503.5,147.4z M611.3,370c2.1,2.2,4.2,3.6,5.1,5.5c0.9,2.1,0.6,4.7,0.8,7.3c4.6-2.9,5.3-12,1.4-14.8
	c-0.6-0.4-1.8-0.5-2.5-0.3C614.6,368.2,613.2,369,611.3,370z M680.5,449.3c1.1-1.2,2.3-1.8,2.6-2.7c1-3,1.8-6.2,2.3-9.3
	c0.2-1.2-0.1-2.7-0.7-3.8c-0.4-0.8-1.6-1.3-2.4-2c-0.6,0.8-1.7,1.6-1.8,2.5C680.4,438.7,680.5,443.6,680.5,449.3z M256.1,390.8
	c4.3-1.8,4.1-15.4-0.1-21.4C255.4,376.9,255.2,383.7,256.1,390.8z M678.9,327.8c0.1-1.6,0.6-2.9,0.1-3.4c-1.4-1.6-3.1-3-4.9-4.1
	c-0.4-0.3-2.1,0.6-2.5,1.4c-2,3.3-0.9,7.9,2.6,10.6c0.3-1.1,0.5-2,0.7-2.9c0.2-1,0.2-2.1,0.4-3.2
	C676.5,326.7,677.4,327.1,678.9,327.8z M338.1,364.8c-1.6,5.2-0.9,7.7,1.8,8.8c2.4,1,5.5-0.1,6.6-2.4c1.3-2.5,0.5-5.5-2.3-7.4
	c-0.8,2.2-1.6,4.2-2.5,6.8C340.5,368.5,339.5,367,338.1,364.8z M374.2,427.1c0.4,0,0.8,0,1.2,0c3.7-5.1,2.7-17.6-2.1-18.4
	C373.6,415,373.9,421,374.2,427.1z M496.3,128.1c-1.3-0.6-2.4-1.4-2.9-1.2c-3.3,2-6.5,4.2-9.6,6.4c-0.4,0.3-0.3,1.4-0.4,2.1
	c0.7,0,1.5,0.3,2.1,0.1c2.8-1.1,5.6-2.3,8.1-3.7C494.7,131.3,495.1,129.8,496.3,128.1z M338.9,402.7c1.9-2,3.2-11.2,1.8-13.2
	c-0.3-0.5-1.2-1.2-1.5-1c-0.7,0.3-1.4,1-1.8,1.7C335.1,394.6,337.2,398.5,338.9,402.7z M593.8,188.9c0.4-4,0.6-7.7-1.4-12.2
	c-1.7,4-1.2,9.2-7.2,6.5C585.9,186.4,587.5,187.4,593.8,188.9z M597.6,406.8c-0.5,0-1.1,0.1-1.6,0.1c-0.3,4.8-0.6,9.6-0.7,14.5
	c0,0.4,0.8,0.9,1.2,1.3c0.6-0.6,1.6-1.1,1.6-1.8c0.3-3.6,0.5-7.3,0.5-11C598.7,408.9,598,407.9,597.6,406.8z M350.3,380.7
	c3.4-2,5.1-4.3,4.9-7.2c-0.2-2.3-1.8-4.4-4.9-5.2C350.3,372.4,350.3,376.2,350.3,380.7z M486.2,191.8c-1.1-1.9-1.7-4.1-2.8-4.4
	c-2.1-0.6-4.4,1.9-4.2,4c0.2,2.2,1,4.6,3.5,4.3C484,195.6,484.9,193.4,486.2,191.8z M475.1,144.6c-0.5-0.2-1-0.4-1.5-0.6
	c-2.4,4.5-4.9,9-7.3,13.6c-0.2,0.4,0.4,1.3,0.6,1.9c0.6-0.4,1.3-0.6,1.6-1.1c1.4-2.2,2.9-4.4,4.1-6.8
	C473.7,149.3,474.3,146.9,475.1,144.6z M527,353.2c1-0.8,2.4-1.3,2.8-2.2c1-2.4,1.9-5,2.2-7.6c0.1-1.1-1.2-2.3-1.9-3.5
	c-0.6,1.1-1.6,2.2-1.8,3.3C527.7,346.1,527.4,349.1,527,353.2z M593,405.4c1.3-1.8,2.6-3.2,3.2-4.8c0.4-1.2,0-2.8-0.4-4.1
	c-0.1-0.5-1.5-1.1-1.8-0.9c-1,0.7-2.2,1.7-2.5,2.7C590.8,400.8,590.7,403.3,593,405.4z M701.6,418.7c5-4.3,4.7-9.4,0-11.3
	C701.6,411.3,701.6,415,701.6,418.7z M405.2,381.2c-0.9,3.8,2.9,9.9,6.4,10.5C411.9,388,408.6,382.8,405.2,381.2z M548,202.5
	c0.9-1.5,2.5-3.1,2.2-4c-0.6-1.8-2.2-3.4-3.6-4.9c-0.3-0.3-2,0.3-2.5,0.9c-0.4,0.4-0.3,1.7,0.1,2.4
	C545.1,198.6,546.3,200.1,548,202.5z M517.4,120.4c-4.8-0.7-8.6,2.3-7.9,6c0.2,1.1,1.3,2,2,3c0.6-1.1,1.9-2.4,1.8-3.4
	c-0.3-2.2,0.3-3.4,2.3-4C516.1,121.8,516.5,121.2,517.4,120.4z M780,378.8c-0.2-0.1-0.3-0.2-0.5-0.3c0-0.6,0.1-1.2-0.1-1.6
	c-0.6-0.9-1.4-1.7-2.1-2.5c-0.7,0.9-1.5,1.7-2,2.6c-0.2,0.4-0.2,1.2,0,1.6c0.8,1.6,1.6,3,2.5,4.6C778.5,381.7,779.2,380.3,780,378.8
	z M301.4,381c0.4-0.1,0.8-0.3,1.2-0.4c0-2.6,0-5.2,0-7.8c-0.5-0.1-1.1-0.2-1.6-0.3c-0.5,1.5-1.4,2.9-1.4,4.4
	C299.7,378.2,300.8,379.5,301.4,381z M572.3,174.2c-0.8,4.3,2.1,7.3,7.2,7.5C577,179,574.9,176.8,572.3,174.2z M587.4,216.5
	c-1.9-1.3-3.5-2.8-3.9-2.6c-1.2,0.8-2.1,2.2-2.8,3.5c-0.1,0.2,1.3,1.7,1.7,1.6C583.8,218.6,585.1,217.7,587.4,216.5z M587.7,197.6
	c1,2.4,1.7,4.2,2.4,5.9c1-0.7,2.9-1.3,2.9-2.1C593.1,199,591.5,197.8,587.7,197.6z M267.4,181.6c1.1,1.7,1.8,2.8,2.5,3.9
	c0.9-1.4,2-2.7,2.5-4.2c0.2-0.6-1.1-1.6-1.7-2.5C269.7,179.7,268.7,180.5,267.4,181.6z M731.9,226.2c0.5-0.2,1-0.3,1.5-0.5
	c-0.3-2-0.5-4-1-5.9c-0.2-0.6-1.2-1.1-1.8-1.6c-0.5,0.8-1.5,1.7-1.3,2.3C729.9,222.4,731,224.3,731.9,226.2z M475.8,377.7
	c-1.1-1.3-2-2.2-2.8-3.2c-0.8,0.8-2.2,1.8-2.1,2.4c0.3,1.3,1.4,2.5,2.1,3.7C473.8,379.8,474.6,379,475.8,377.7z M638.7,415.4
	c-2.4,3-2.3,4.8,0.1,7.2C641.3,420.5,641.3,419.3,638.7,415.4z M676.1,442c0.5,0,0.9,0,1.4,0c0-2.8,0-5.6,0-8.4c-0.3,0-0.7,0-1,0
	C675,436.4,674.9,439.2,676.1,442z M482.5,349.9c-0.4,0.1-0.8,0.2-1.3,0.3c0.5,2.5,1,5,1.5,7.5c0.4-0.1,0.8-0.2,1.2-0.2
	C484.4,354.8,485,352.1,482.5,349.9z M479.4,355.5c-4.2,2.2-4.3,3.8-0.7,6.9C479,360,479.2,358.1,479.4,355.5z M756,347.2
	c-1,1.5-2,2.4-1.9,3.1c0.1,0.9,1.2,1.7,1.9,2.5c0.7-0.7,1.9-1.4,1.9-2.1C757.9,349.8,756.9,348.8,756,347.2z M547.7,140.7
	c0,0.4,0,0.9,0,1.3c1.1,0.3,2.8,1.1,3.2,0.7c0.8-0.8,1-2.3,1.4-3.6c-0.3-0.2-0.6-0.4-0.8-0.6C550.2,139.2,549,139.9,547.7,140.7z"/>
<path d="M386.5,431.4c4.1,11.1,3.3,11.7-1.1,14.2C385.8,441,386.2,436.5,386.5,431.4z"/>
</svg>
