<?xml version="1.0" encoding="utf-8"?>
<!-- Generator: Adobe Illustrator 21.0.0, SVG Export Plug-In . SVG Version: 6.00 Build 0)  -->
<svg version="1.1" xmlns="http://www.w3.org/2000/svg" xmlns:xlink="http://www.w3.org/1999/xlink" x="0px" y="0px"
	 viewBox="0 0 357.8 322.6" style="enable-background:new 0 0 357.8 322.6;" xml:space="preserve">
<g id="Layer_2">
</g>
<g id="Layer_1">
	<path d="M356.6,65.2c-1.7-1.4-2.9-3.1-3.6-5.2c-1-2.9-2.4-5.7-5-7.7c-1.8-1.3-3.3-2.9-5-4.4c-0.1-0.1-0.3-0.3-0.5-0.3
		c-3.9-0.9-7.1-3.7-11.3-4.1c-1.6-0.2-3.2-0.3-4.8-0.2c-1.1,0.1-2.1-0.2-2.8-1c-0.6-0.7-1.2-0.8-2-0.6c-1,0.3-1.8,0.2-2.8-0.3
		c-0.8-0.5-1.8-0.7-2.6-1.1c-1.5-0.6-2.8-1.4-3.7-2.8c-0.6-1-1.4-2-2.2-2.9c-0.2-0.2-0.7-0.2-0.9-0.1c-0.4,0.2-0.8,0.7-1.2,1
		c-0.9,0.7-1.8,1.2-3,0.4c-0.6-0.4-1.5-0.4-2.4-0.6c0.2-0.9,0.4-1.9,0.6-3c-0.7,0.1-1.2,0.1-1.6,0.3c-1.5,0.7-3,1.5-4.5,2.2
		c-2.1,1-4.1,2.4-6.3,2.7c-2.2,0.3-3.8,1.3-5.7,2.2c-0.4,0.2-0.8,0.3-1.2,0.4c-2.5,0.6-5,1.1-7.4,1.7c-0.7,0.2-1.3,0.5-1.9,0.6
		c-0.9,0.1-1.9,0.1-2.8,0.1c-0.6,0-1.4-0.2-1.9,0c-1.3,0.5-2.5,1.2-3.6,1.8c-1.4,0.8-1.9,0.5-2.6-1c-0.3-0.6-1.1-1.2-1.7-1.2
		c-0.5-0.1-1.4,0.4-1.7,0.9c-1,1.5-2.2,2.6-3.9,3.3c-1.8,0.7-3.6,0.8-5.2-0.2c-5.1-3-10.1-6.1-15.1-9.2c-1-0.6-1-1.6-1-2.6
		c0-0.8,0.1-1.6,0.1-2.4c0-0.4-0.3-0.7-0.5-1c-0.3,0.2-0.6,0.3-0.9,0.5c-0.1,0.1-0.2,0.2-0.3,0.4c-1.4,1.7-2.8,1.8-4.5,0.3
		c-0.1-0.1-0.3-0.2-0.4-0.2c-3.4-0.6-6.1-2.9-9.2-4.3c-3.1-1.4-6.2-3-9.3-4.5c-1-0.5-2.2-0.8-3.3-1.1c-0.4-0.1-0.9-0.3-1.2-0.5
		c-1.4-0.9-2.7-1.8-4.1-2.8c0.2-1.2,0.8-1.5,2.1-1.5c0.8,0,1.7-0.1,2.5-0.3c1.2-0.2,2.4-0.4,3.7-0.5c2.5-0.3,5.1-0.4,7.6-0.8
		c0.5-0.1,1-0.6,1.5-0.8c0.5-0.2,1.1-0.5,1.5-0.4c2.1,0.9,4.3,0.7,6.5,0.7c2.9-0.1,5.8-0.2,8.7,0.5c0.3,0.1,0.6,0.1,1,0.1
		c2.4,0,4.7,0.1,7,0.7c0.8,0.2,1.7,0.2,2.5-0.1c2.2-0.7,4.3-1.5,6.5-2.3c2.4-0.8,4.8-1.3,7.4-0.8c1.7,0.3,3.5,0.3,5.2,0.5
		c1.9,0.1,3.7,0.2,5.6,0.4c0.2,0,0.5,0.1,0.7,0c0.4-0.2,0.8-0.4,1.2-0.6c-0.3-0.2-0.6-0.6-1-0.7c-7-1.5-14-2.7-21.1-1.7
		c-1.3,0.2-2.5,0.5-3.7,1c-3.5,1.6-7,1.9-10.8,1.3c-2.1-0.3-4.2-0.3-6.3-0.5c-2.4-0.2-4.8-0.4-7.1-0.6c-3.8-0.3-7.5,0.1-11.2,1
		c-3.4,0.8-6.9,1.1-10.4,1.6c-1.1,0.2-2.3,0.3-3.4,0.5c-2.7,0.7-4.5-0.9-6.3-2.4c-0.5-0.4-0.9-0.9-1.5-1.2c-1.3-0.8-2.7-1.6-4-2.4
		c-0.7-0.4-1.5-0.6-2.3-0.9c-1.1-0.4-2.2-0.8-3.2-1.3c-3.5-1.5-6.8-3.3-10.8-3.3c-1.8,0-3.5-0.7-5.3-1.1c-3.4-0.9-6.8-1.8-10.2-2.6
		c-2.3,0-4.6,0-7,0c-1.5,0.2-3,0.4-4.5,0.7c-0.5,0.1-0.9,0.4-1.4,0.6c0,0.1,0.1,0.3,0.1,0.4c0.3,0,0.7,0.1,1,0
		c5.4-0.7,10.8-0.7,16.1,0.9c1.5,0.5,2.8,1.3,4.3,1.8c1.7,0.5,3.5,0.6,5.2,1c1,0.2,2,0.5,2.9,1c1.2,0.7,2.5,1.1,3.9,1
		c1.2-0.1,2.1,0.3,2.8,1.3c0.4,0.6,1,1.1,1.6,1.3c2.3,0.5,4.6,1.3,6.8,2c2.1,0.6,3.1,2,4,3.6c0.1,0.3,0.2,0.7,0.1,1
		c-0.1,0.2-0.6,0.2-0.9,0.2c-0.4,0-0.8-0.1-1.2,0c-1.9,0.6-3.7,1.3-5.6,1.8c-1.1,0.3-2.3,0.4-3.4,0.6c-4.6,0.5-9,2.2-13.4,3.6
		c-2.3,0.7-4.5,1.5-6.8,2.3c-2.1,0.7-3,0.2-3.8-1.8c-0.2-0.4-0.5-0.8-0.7-1.1c-0.3,0.3-0.8,0.6-1,0.9c-0.4,0.8-0.9,1.5-1.1,2.4
		c-0.4,1.4-1.3,2-2.5,2.5c-2,0.9-4,1.8-6,2.6c-2,0.9-4.1,1.9-6.1,2.7c-2.1,0.8-4.2,0.6-6.1-0.5c-1.5-0.9-2.8-2-4.2-3.1
		c-0.3-0.3-0.6-0.7-1-0.9c-0.3-0.1-0.6,0-1-0.1c0,0.3-0.1,0.7,0,1c0,0.2,0.3,0.4,0.4,0.6c1.3,1.5,1.4,1.9,0.1,3.4
		c-3.4,4-7.3,7.6-11.6,10.7c-1.9,1.4-4.1,1.4-6,0.5c-5-2.3-10.2-3.9-15.4-5.6c-1.4-0.4-2.5-1.4-2.7-3c-0.1-0.5-0.8-1-1.3-1.3
		c-0.8-0.5-1.6-0.8-2.5-1.2c-0.4-0.2-0.9-0.3-1.3-0.3c-2.1,0.3-3.3-0.9-4.2-2.5c-0.7-1.1-1.2-1.3-2.3-0.6c-2.3,1.4-4.7,1.9-7.4,2.1
		c-1.1,0-2.1,0.4-3.2,0.6c-1,0.2-1.9,0-2.7-0.8c-0.5-0.5-1.2-0.8-1.9-0.9c-3-0.2-5.5-1.5-8-3c-0.6-0.3-1.3-0.6-1.9-0.5
		c-2.9,0.1-5.7,0.6-8,2.5c-1.5,1.3-3,1-4.6,0.4c-1.7-0.6-3.4-0.6-5.1-0.1c-0.4,0.1-1.1-0.1-1.5-0.4c-0.8-0.5-1.6-0.5-2.4,0
		c-1.3,0.9-2.8,1.8-3.9,2.9c-1.6,1.6-3.6,2.3-5.8,2.5c-0.4,0-0.9,0.2-1.1,0.5c-0.4,0.6,0.2,1.4,0.9,1.3c1.3-0.1,2.7-0.4,4-0.6
		c0.3,0,0.6-0.1,0.9-0.1c0,0.1,0.1,0.2,0.1,0.3c-2,5.2-4.8,9.7-10.3,12c-2.5,1.1-4.5,2.7-6.2,4.8c-0.6,0.7-1.5,1.3-2.4,1.8
		c-2.2,1.2-4.6,2.3-6.8,3.4c-0.4,0.2-0.7,0.4-1,0.7c0,0.2,0,0.5,0,0.7c0.5-0.1,1.1,0,1.6-0.2c3.1-1.1,6.1-2.4,8.8-4.3
		c2.9-2,5.8-4.1,9-5.7c3.7-2,6-4.9,8-8.5c0.7-1.2,1.6-2.4,2.7-3.3c1.3-1.1,3-1.7,4.4-2.7c2.5-2,5.3-2.5,8.4-2.4
		c1.7,0.1,3.5-0.1,5.1-0.7c3.5-1.3,7-1.2,10.4,0c1.4,0.5,2.8,1,4.1,1.6c3.7,1.8,7.4,2.5,11.4,1.1c1.2-0.4,2.8,0,4,0.6
		c1,0.5,1.7,1.8,2.4,2.7c0.1,0.1,0,0.4-0.1,0.5c-0.7,1.1-1.3,2.3-2.7,2.7c-1.8,0.6-3.5,1.3-5.3,2c-0.4,0.1-0.7,0.4-1.1,0.6
		c0,0.1,0.1,0.2,0.1,0.3c2.2,0.1,4.3,0.5,6.4-0.5c0.5-0.2,1.1-0.4,1.7-0.4c1.1-0.1,2.3-0.1,3.4-0.2c1.9-0.2,3.8-0.5,5.7-0.7
		c1-0.1,1.3,0.4,1.2,1.3c-0.1,1.3-0.2,2.6-0.3,3.9c0,1,0.3,1.9,1.6,2.3c0.1-0.5,0.2-0.9,0.2-1.3c0-1.3-0.1-2.6-0.1-3.8
		c0-0.4,0.3-1.1,0.6-1.2c0.4-0.1,1.1,0.1,1.4,0.4c0.4,0.3,0.7,0.8,0.8,1.3c0.3,0.9,0.2,1.8-0.7,2.6c-0.4-1,0.2-2.5-1.6-2.4
		c0,0.3-0.1,0.6-0.1,0.8c0,1.1,0.1,2.3,0.1,3.4c0,0.3,0.1,0.8,0.3,0.8c1.3,0.4,1,1.4,1,2.3c0,0.9,0,1.7,1.1,2.3
		c0.1-0.5,0.1-0.9,0.2-1.3c0.1-0.9,0.1-1.9,0.3-2.7c0.1-0.5,0.6-1,0.9-1.5c0.2,0.5,0.6,1.1,0.7,1.6c0.1,0.5,0,1.1,0.1,1.7
		c0,0.3,0.3,0.5,0.5,0.7c0.2-0.2,0.5-0.4,0.5-0.6c0-1.1,0.1-2.2,0-3.3c-0.2-1.3,0-2.1,1.2-2.6c0,0.6,0.1,1.1,0.1,1.7
		c0,0.7,0.1,1.4,0.2,2.1c0,0.2,0.3,0.4,0.5,0.5c0.1-0.2,0.4-0.4,0.4-0.6c0.1-0.4-0.1-0.8,0.1-1.2c0.2-0.6,0.6-1.7,0.8-1.7
		c1.1,0.1,0.7,1.1,0.9,1.8c0.1,0.4,0.3,1,0.6,1.1c1.2,0.2,1.6,1.1,2.1,2c1.7,2.8,1.1,5.2-1.5,7.2c-0.3,0.3-0.6,0.7-0.9,1
		c-0.8,0.8-1.5,1.7-2.3,2.4c-1.3,1-2.6,1.8-4,2.7c-1.8,1.2-3.7,2.2-4.6,4.3c-0.1,0.2-0.3,0.5-0.5,0.7c-2.4,2.3-4.8,4.6-7.4,7.1
		c-0.1-0.7-0.2-1.5-0.4-2.2c-0.3-1.2-0.7-2.3-1.2-3.4c-0.1-0.3-0.7-0.3-1.1-0.4c0,0.4-0.1,0.7-0.1,1.1c0,0.4,0.1,0.7,0.2,1.1
		c0.4,3.8-1.7,5.6-5.4,4.8c-0.5-0.1-1-0.1-1.4,0c-1.3,0.2-2.5,0.4-3.8,0.7c-3.3,0.7-6.5,1.5-9.1,4c-2,1.9-4,3.7-6,5.5
		c-0.9,0.8-1.5,1.7-1.6,2.9c0,1.5-0.8,2.5-1.8,3.5c-1.5,1.5-3,3.1-4.5,4.7c-0.4,0.5-0.8,1-0.1,1.7c0.4-0.3,0.9-0.5,1.3-0.9
		c1.8-1.6,3.6-3.3,5.5-4.8c1.4-1.1,2.1-2.5,2.7-4.1c0.3-1,1.3-1.9,2-2.7c0.6-0.6,1.5-1.1,1.8-1.8c0.8-1.9,2.4-2.5,4.2-3
		c2.4-0.7,4.8-1.5,7.1-2.3c2-0.7,2-0.8,3.5,0.8c0.6,0.7,1.4,1.3,2.3,0.8c1-0.5,1.5,0,2,0.8c0.5,1,1.1,1,1.7,0.1
		c0.4-0.6,0.8-1.4,1-2.1c0.3-0.8,0.7-1.1,1.6-1.4c1.3-0.3,2.6-0.8,3.7-1.5c0.8-0.5,1.4-1.4,2-2.2c0.6-0.8,1.2-0.9,1.9-0.1
		c0.3,0.3,0.7,0.4,1,0.7c0.3,0.3,0.8,0.8,0.8,1.1c0.1,1.7-0.1,3.4,0,5c0,1.2,0.4,2.3,0.4,3.5c0,0.7,0,1.5-0.4,2
		c-1.1,1.3-1,2.7-0.5,4.1c0.1,0.4,0.8,0.9,1.2,1c0.4,0,1.2-0.3,1.4-0.7c0.4-0.9,0.6-1.9,0.7-2.8c0.1-0.9-0.1-1.8-0.2-2.7
		c-0.1-0.5-0.1-1.3-0.4-1.4c-0.9-0.4-0.8-1.2-0.8-1.9c0-1.1,0.1-2.2,0.3-3.2c0.1-1.1,0.4-2.1,1.3-2.8c0.4-0.3,0.5-1.1,0.6-1.6
		c0-0.9-0.4-1.8-0.1-2.6c0.8-2.6,1.5-5.3,3.2-7.5c0.5-0.6,1.2-0.9,1.8-1.4c0.2,0.7,0.4,1.4,0.6,2.1c0.1,0.5,0.3,1,0.5,1.5
		c0.3-0.4,0.7-0.8,1-1.2c0.3-0.3,0.6-0.6,0.9-0.8c0.2,0.4,0.6,0.7,0.7,1.1c0.1,0.6,0.1,1.2,0.1,1.8c0,1-0.1,1.9-0.1,2.9
		c0,0.4,0.3,0.8,0.5,1.2c0.3-0.3,0.7-0.6,0.8-0.9c0.3-1.1,0.4-2.2,0.7-3.3c0.8-2.8,1.5-5.7,2.4-8.5c0.2-0.5,0.7-0.9,1-1.4
		c0.4,1.8,0,3.4-0.7,4.9c-0.1,0.3,0.2,0.7,0.3,1.1c0.3-0.2,0.7-0.4,0.9-0.7c0.2-0.3,0.2-0.7,0.3-1c0.4-1.5,0.7-3.1,1-4.6
		c0.1-0.3-0.2-0.6-0.3-1c-0.1-0.4-0.3-1.1-0.1-1.3c0.4-0.5,1-0.8,1.6-1c0.1,0,0.6,0.6,0.6,0.9c0,1-0.1,2-0.1,3.1
		c1.5,0.1,2.3,0.9,2.3,2.4c0,2-0.1,4-0.3,6c-0.1,1.7-0.3,3.3-0.3,5c0,0.4,0.5,0.7,0.7,1.1c0.3-0.4,0.7-0.7,0.9-1.1
		c0.1-0.2,0-0.5,0.1-0.7c0.2-2.5,0.2-5.1,0.5-7.6c0.1-0.7,0.5-1.5,1-1.9c0.9-0.7,1-1.5,1-2.4c0-0.7-0.2-1.5-0.1-2.1
		c0.1-0.5,0.7-0.8,1.1-1.3c0.2,0.4,0.5,0.8,0.6,1.3c0.2,1.1,0.3,2.3,0.5,3.4c0,0.4,0.1,0.7,0,1.1c-0.2,1.1-0.4,2.3-0.6,3.6
		c0,0,0,0,0,0c-1.7,0.6-1.8,0.8-0.6,2.2c0.7,0.8,0.7,1.7,0.8,2.7c0,0.7,0.2,1.3,0.3,2.1c1.4-1.4,1.8-3.1,1.3-4.6
		c-0.3-0.9-0.2-1.8-0.2-2.8c0.1,0,0.3,0,0.4,0c0.3,0.7,0.6,1.3,0.9,2c0.5-1.3,1.3-2.3,0.6-3.8c-0.7-1.7-0.6-3.5,0.9-4.9
		c0.6-0.6,1.5-0.9,2.2-1.4c2-1.1,2-0.9,2.4,0.9c0,0.2,0.2,0.3,0.4,0.7c0.3-0.6,0.6-1.1,0.9-1.6c1,0.7,0.9,2.1,0,3.1
		c-0.2,0.3-0.6,0.6-0.6,0.9c0,2.4-0.2,4.9,0.3,7.2c0.5,2.4,0.2,4.6-0.4,6.8c-0.2,0.8-0.3,1.7-0.3,2.6c0,0.4,0.4,0.8,0.7,1.2
		c0.3-0.4,0.7-0.7,0.8-1.1c0.4-1.8,0.6-3.6,0.9-5.3c0.2-0.8,0.5-1.6,0.9-2.3c0.4-0.6,1-0.4,1,0.3c0.1,0.9,0,1.8-0.1,2.7
		c-0.2,1.8-0.6,3.5-0.7,5.3c-0.1,1.3-0.1,2.6-0.1,4c0,0.3-0.1,0.6-0.3,1.1c-1.8-2-3.1-0.6-4.5,0.2c-0.2,0.1-0.4,0.2-0.6,0.4
		c-3.5,2.4-7,5-10.5,7.3c-1.2,0.8-1.9,1.7-1.8,3.2c0,0.5-0.2,1.1-0.6,1.4c-1.1,0.7-1.3,1.7-1.4,2.8c-0.1,1.1-0.9,1.5-1.7,0.7
		c-0.7-0.7-1.6-1.5-2-2.4c-0.8-1.9-1.4-3.9-0.1-5.8c0.8-1.2,1.8-2.3,2.7-3.4c0.2-0.3,0.3-0.8,0.5-1.2c-0.4-0.1-0.7-0.3-1.1-0.3
		c-0.5,0.1-1.1,0.2-1.6,0.5c-3.1,1.7-5.3,6.5-4.1,9.8c1,2.7-0.7,4.5-1.5,6.7c0,0-0.1,0-0.6,0c0-0.9,0.1-1.9,0-2.7
		c-0.2-1-0.5-2.2-1.2-2.7c-1-0.8-1.4-1.6-1.7-2.7c-0.1-0.5-0.8-1.1-1.2-1.1c-0.5,0-1.2,0.4-1.5,0.8c-0.4,0.5-0.5,1.2-0.6,1.8
		c-0.1,1.4-0.9,2-2.2,2.3c-2.9,0.8-5.8,1.7-8.7,2.5c-2.2,0.6-4.2-0.2-5.7-1.7c-0.6-0.7-1.1-1.1-1.5-0.8c-1-0.7-1.7-1.1-2.4-1.6
		c-0.9-0.7-1.9-1.3-2.8-2c-0.4-0.3-0.8-0.6-1.2-0.6c-0.9-0.1-1.8-0.1-2.7-0.1c-1.6,0.1-3.3,0.3-4.9,0.3c-1.3,0-2.5,0.2-3.5,0.9
		c-2.4,1.6-4.8,3.3-7.3,4.8c-1,0.7-2.2,1.1-3.2,1.8c-0.8,0.5-1.8,1-2.1,1.7c-0.7,1.4-1.7,2.1-3.1,2.5c-0.7,0.2-1.4,0.5-2,0.8
		c-0.3,0.2-0.8,0.5-0.8,0.8c-0.3,1.9-1.4,3.5-1.9,5.2c-0.6,2.3-1.3,4.7-0.8,7.2c0.1,0.5,0,1.1-0.3,1.5c-1.2,1.8-2.5,3.6-3.7,5.4
		c-0.3,0.4-0.6,0.8-0.8,1.3c-0.1,0.2,0.1,0.6,0.2,0.8c0.1,0.1,0.5,0,0.7-0.2c0.4-0.3,0.7-0.6,1.1-1c1.2-1.4,2.4-2.9,3.6-4.3
		c1-1.1,1.3-2.4,1.3-3.9c0.1-3.7,1.3-7.1,3.7-9.8c1.2-1.4,2.9-2.5,4.4-3.7c0.3-0.3,0.9-0.4,1.3-0.4c1.6,0.1,2.6-0.8,3.4-2
		c1.1-1.7,2.6-2.6,4.4-3.2c1.1-0.4,2.2-0.8,3.3-1.2c0.2-0.1,0.4,0,0.6-0.1c0.8-0.1,1.9,0.1,2.5-0.3c1.3-0.8,2.2-0.4,3.3,0.2
		c0.6,0.3,1.2,0.7,1.9,1.1c1.2,0.6,1.8,1.5,1.9,2.8c0.2,2,0.2,4,0.8,5.9c1,3.4,1.3,6.8,1.9,10.3c0,0.2-0.2,0.4-0.2,0.7
		c-0.1,0.5-0.3,1.1-0.3,1.6c0,3.7,0.1,7.4,0.2,11.1c0,0.9,0.1,1.7,0.2,2.6c0.2,3.6,0.9,7.2-0.2,10.8c-0.1,0.3,0,0.7,0.1,1.1
		c0.1,1.2,0.2,2.5,0.3,3.7c0,1.2-0.1,2.3,0,3.5c0.1,1.1,0.8,1.5,2,1.4c1.1-0.2,1.2-1,1-1.8c-0.2-0.9-0.7-1.7-0.8-2.6
		c-0.2-2.4-0.4-4.7-0.4-7.1c-0.1-2,0.1-4,0.1-6c-0.1-2.7-0.3-5.3-0.3-8c0.1-3.7,0.4-7.4,0.7-11.1c0.1-0.7,0.6-1.3,1-2
		c0.1,0.1,0.3,0.1,0.4,0.2c-0.1,0.3-0.2,0.8-0.4,1c-0.9,0.9-0.6,2.1-0.7,3.2c0,1.3-0.2,2.5-0.4,3.8c-0.2,1.1,0.4,2.8,1.5,3.4
		c0.1-0.7,0.3-1.3,0.4-1.9c0.2-2.8,0.3-5.7,0.6-8.5c0.1-1,0.1-2-1.1-2.6c1.1-0.7,1.2-1.5,0.9-2.6c-0.1-0.3,0.3-0.9,0.5-1
		c0.8-0.3,1.7-0.5,2.6-0.7c0.2,0,0.4,0.2,0.6,0.4c0.5,0.8,0,1.2-0.6,1.5c-1,0.5-1.3,1.2-1.3,2.3c0.1,2.5,0,4.9-0.1,7.4
		c0,0.3,0.1,0.6,0.2,0.9c0.3,0.7,0.7,1.4,1.1,2.1c0.2,0.3,0.5,0.5,0.8,0.6c0.2,0,0.5-0.4,0.6-0.6c0.2-0.4,0.2-1.1,0.6-1.3
		c1.1-0.7,0.9-1.8,0.9-2.8c0-1.5,0-3,0-4.6c0.8,0,1.4,0,2,0c0.5,2.6,0.4,3.1-1.3,5.1c-0.6,0.8-0.3,1.4,0.5,1.9
		c0.2-0.3,0.4-0.7,0.6-0.8c0.3-0.1,0.9-0.1,1,0c0.3,1,1.1,1,1.7,0.8c0.5-0.2,1.1-0.8,1.2-1.2c0.2-1,0.1-2.1-0.1-3.1
		c-0.2-1.4-0.5-2.7,0.6-4c0.2-0.3,0.3-0.6,0.4-1c0.3-1.5,0.9-3,1.9-4.2c0.3-0.3,0.5-0.7,0.5-1.1c0.2-1.2,1-1.2,1.9-1
		c1,0.2,2.2,0.3,2.2,1.7c0,2.1,0.2,4.3-1.9,5.7c-0.2,0.1-0.3,0.4-0.4,0.7c-1.4,3.1-2.3,6.4-2,9.9c0.1,1.4-0.3,2.7-0.5,4.1
		c-0.1,0.9-0.4,1.8-0.1,2.6c0.6,1.6,1.5,3.2,2.2,4.8c0.4,0.8,0.7,1.8,0.7,2.7c0,2.1-0.4,4.1-0.5,6.2c-0.1,1.6-0.8,2.7-1.9,3.7
		c-0.8,0.8-1.8,0.4-2.2-0.7c-0.1-0.4-0.6-0.7-0.8-1.1c-0.3-0.5-0.7-1-0.8-1.6c-0.2-0.5-0.1-1.1-0.1-1.8c-0.4,0.2-0.6,0.2-0.7,0.4
		c-2.1,1.9-2.1,6.4-0.1,8.4c1.2,1.1,1.4,2,0.5,3.3c-1,1.5-2,3.2-3.3,4.4c-2.6,2.3-3.4,5.1-3.2,8.3c0,0.5-0.1,1.1-0.3,1.6
		c-0.3,1-0.6,1.9-1,2.9c-0.3,0.7-0.6,1.5-1.2,2c-0.9,0.8-1.2,1.6-1,2.7c0.1,0.5,0.1,1.1,0.2,1.7c0.2,1.8,0.2,1.8,1.9,1.1
		c0.1,0,0.2,0,0.4,0c0.2,0.5,0.5,1,0.7,1.5c0.5,1.3,1,2.6,1.4,4c0.2,0.8,0.2,1.6,0.3,2.4c0,0.8-0.2,1.6,0,2.3c0.5,1.7,0,3-1.3,4
		c-0.3,0.2-0.5,0.5-0.8,0.8c-1.4,1.3-1.5,4.1,0,5.8c0.7-1,1.4-2,2.1-2.9c0.1,0,0.3,0.1,0.4,0.1c0.1,0.6,0.2,1.2,0.4,1.8
		c0.1,0.4,0.1,1.1,0.4,1.3c1.4,0.7,1.3,1.9,1.3,3.1c0,1.9,0.5,2.4,2.3,1.9c1.2-0.3,1.8,0.2,2.4,1.1c0.7,1.1,1.6,2.2,2.3,3.3
		c0.3,0.4,0.6,0.8,0.7,1.2c0.5,1.9,1.1,3.8,1.4,5.8c0.2,1.8,1,3.1,2.3,4.2c0.8,0.7,1.2,1.6,1.4,2.7c0.2,1.2,0.6,2.5,1.3,3.5
		c1,1.3,1.6,2.6,1.5,4.3c-0.1,1,0.4,1.7,1.4,1.9c1.1,0.1,1.8,0.8,2.3,1.7c0.5,1,1.1,2,1.5,3c2,4.6,4,9.1,6.1,13.7
		c0.2,0.5,0.6,1.1,0.9,1.6c0.6,1,1.2,2.1,1.7,3.2c1.3,3.1,1.8,6.5,1.7,9.9c-0.1,2,0.3,3.9,1.3,5.6c0.9,1.6,1.4,3.3,1.2,5.2
		c-0.3,2,0.3,3.8,1,5.7c1.8,5.1,3.6,10.3,5.3,15.4c0.4,1.1,0.3,2.5,0.9,3.4c1.3,2.3,1.7,4.8,2.2,7.3c0.2,0.7,0.4,1.4,0.6,2.1
		c0.1,0.2,0.5,0.3,0.7,0.4c0.1-0.2,0.3-0.5,0.3-0.7c-0.1-0.9-0.2-1.8-0.4-2.6c-2.4-8.7-4.9-17.4-7.4-26.1c-0.4-1.4-0.6-2.9-0.9-4.3
		c-0.3-1.9-0.1-3.9-1.2-5.7c-1.4-2.2-1.7-4.6-1.7-7.1c0-1-0.1-2.1-0.1-3.1c0.1-2.9-0.2-5.8-2-8.2c-1.3-1.7-1.9-3.6-2.2-5.6
		c-0.4-2.2-1.3-4.2-2.8-5.9c-0.8-0.9-1.5-2.1-2.1-3.2c-0.9-1.7-1.7-3.6-2.7-5.3c-1-1.9-2.2-3.8-3.2-5.7c-1.3-2.5-2.5-5-3.7-7.5
		c-1.5-3.1-3.8-6-3.7-9.7c0-0.3-0.1-0.6-0.3-0.8c-1.5-2.3-3-4.7-4.7-7c-2.3-3.2-4.3-6.3-3.8-10.5c0.2-1.3,0.6-1.9,2.1-2.3
		c1.2-0.3,1.9,0.2,2.5,1.1c0.3,0.4,0.4,1,0.7,1.4c0.5,0.6,1,1.1,1.5,1.7c0.1-0.1,0.3-0.1,0.4-0.2c0.1-0.6,0.3-1.3,0.1-1.8
		c-0.4-1.8-1.6-3-3-4.2c-1.6-1.5-3.2-3-4.8-4.5c-1.4-1.3-2.1-2.9-1.8-4.8c0.1-0.5-0.1-1.1-0.2-1.7c-0.4-2.8-0.9-5.5-0.1-8.3
		c0.5-1.7,0.9-3.4,1.2-5.1c0.3-2,0.9-3.7,3.2-4.2c0.2,0,0.4-0.2,0.5-0.3c1.9-2,4.2-3.6,5.3-6.3c0.1-0.3,0.5-0.6,0.8-0.6
		c0.3,0,0.7,0.3,0.8,0.6c0.2,0.6,0.3,1.2,0.5,1.8c0.3,1,0.6,2.1,1,3.1c0.1,0.3,0.6,0.6,0.9,0.6c0.3,0,0.7-0.5,0.7-0.8
		c0-0.7-0.1-1.5-0.2-2.2c-0.1-1-0.2-1.9-0.1-2.9c0-0.6,0.6-1.2,0.5-1.8c-0.1-1.2-0.3-2.4-0.7-3.6c-0.3-1.2-1.1-2.2-0.3-3.5
		c0.1-0.1,0-0.4-0.1-0.6c-0.2-1.1-0.6-2.2-0.6-3.3c-0.1-1.2,0-2.5,0.9-3.6c0.5-0.6,0.4-1.8,0.4-2.7c0-1-0.5-1.9-0.4-2.9
		c0.2-2.8,0.6-5.6,1-8.3c0.2-1.6,0.9-1.8,2.2-0.7c0.6,0.5,1.1,0.6,1.5,0c0.8-1.2,1.2-2.6,1.3-4.3c-0.6,0.4-1.1,0.6-1.5,0.9
		c-0.9-2.3-0.6-2.9,1.6-3.5c-0.1-0.6-0.4-1.2-0.4-1.8c0-1.5,0.2-3.1,0.2-4.6c0-1.5,1.4-3,3.3-2.9c-0.3,1.2-0.5,2.5-0.8,3.7
		c-0.4-0.1-0.5-0.2-0.7-0.2c-0.2,0-0.3-0.1-0.6-0.1c-0.3,5,0.5,9.9-1,14.4c-0.9,0.4-1.9,0.5-2.2,1c-0.4,0.6-0.3,1.6-0.4,2.4
		c0.1,0.1,0.3,0.1,0.4,0.2c0.6-0.6,1.3-1.1,2.2-1.9c0.1,0.9,0.2,1.4,0.2,2c-0.3,4.5-0.6,9-0.9,13.5c0,0.6,0.1,1.1,0.1,1.7
		c0.2,0,0.4,0,0.6,0c0.2-1,0.5-2,0.6-2.9c0.9-6.6-0.1-13.5,2.1-20c0.6-1.6,0.6-3.4,0.9-5.1c0.1-0.4,0.3-0.9,0.5-1.3
		c0.1,0,0.2,0.1,0.4,0.1c0,0.7,0.1,1.4,0,2.1c-0.7,4.9-1.4,9.8-2,14.7c-0.2,1.8-0.4,3.6-0.6,5.5c0,0.3,0.2,0.6,0.3,0.9
		c0.2-0.2,0.5-0.4,0.7-0.7c0.1-0.2,0.2-0.5,0.2-0.7c0.2-1.6,0.4-3.2,0.6-4.9c0.1-1.1,0.1-2,1.6-1.8c0.1-0.7,0.1-1.3,0.1-1.9
		c0-4.2,0-8.4-0.1-12.6c0-0.7,0-1.5,1-1.5c0.9,0,0.9,0.8,0.9,1.4c0,1-0.3,2-0.3,3c-0.1,5.1-0.1,10.2-0.1,15.3
		c0,3.9-0.2,7.8-0.2,11.6c0,2.6-0.1,5.2-0.1,7.8c0,0.6,0.3,1.1,0.5,1.7c0.2,0,0.4-0.1,0.6-0.1c0.1-1,0.2-2.1,0.3-3.1
		c0.2-5.3,0.3-10.5,0.5-15.8c0.1-1.6,0.4-3.1,0.4-4.6c0-3.8-0.2-7.5-0.2-11.3c0-0.8,0.3-1.6,0.3-2.5c0-2.3-0.1-4.5-0.1-6.8
		c0-0.7,0.1-1.4,1.2-1.4c0.4,2.9,0.2,5.8,0,8.7c-0.2,2.2-0.3,4.4-0.4,6.5c0,0.2,0.2,0.4,0.3,0.7c0.6-0.5,1.1-0.9,1.5-1.3
		c0.1,0,0.2,0.1,0.3,0.1c-0.2,3-0.5,6.1-0.7,9.2c0.7-0.1,1.2-0.3,1.7-0.2c0.6,0.1,1.4,0.3,1.6,0.7c1.2,2.2,2.4,4.3,2.6,6.8
		c0.1,1.1,0.1,2.3,0.6,3.2c0.7,1.4,0.6,2.7,0.2,4.2c-0.3,1.2-0.5,2.4-0.4,3.6c0.3,2.4,0.5,4.7-0.2,7.2c-1,3.5-1.8,7.1-0.9,10.9
		c0.1,0.2,0,0.5,0,0.7c-0.5,3.9-0.5,7.8,0.6,11.7c0.2,0.9,0.3,2,0,3c-0.7,2.5,0.7,4.6,0.9,6.9c0,0,0,0.1,0.1,0.1c0.2,1,0.5,2,0.7,3
		c0.3,1.6,0.6,3.3,1,4.9c0.2,0.9,0.6,1.8,0.8,2.7c0.7,3.1,1.2,6.2,1.9,9.3c0.9,3.7,2,7.4,3.1,11.1c0.2,0.7,0.7,1.3,1,1.9
		c0.1-0.1,0.2-0.1,0.4-0.2c0-0.3,0.1-0.5,0.1-0.8c-0.3-1.7-0.5-3.5-0.9-5.2c-1.2-5.4-2.5-10.7-3.8-16.1c-0.4-1.5-0.4-3.1-1-4.5
		c-0.6-1.4-0.7-2.6-0.7-4c0-0.9-0.3-1.9-0.5-2.8c-0.2-1.3-0.5-2.6-0.6-4c-0.1-1,0.2-2.1,0.1-3.2c-0.1-2.8-0.2-5.6-0.3-8.3
		c0-0.5,0-1,0-1.4c0-1-0.2-2-0.1-2.9c0.2-1.6,0.5-3.2,1-4.6c0.2-0.5,1.1-0.8,1.7-1.2c0.3,0.5,0.5,1.1,0.8,1.6
		c0.7,1.4,1.4,2.8,2.3,4.1c0.2,0.3,1,0.3,1.5,0.4c0.1-0.5,0.3-1,0.1-1.4c-0.2-0.7-0.6-1.3-1-1.9c-0.5-0.9-1.1-1.7-1.4-2.7
		c-0.4-1.2-0.5-2.6-0.9-3.8c-0.6-1.7-1.3-3.3-2-5c-0.8-1.8-0.5-3.6,0.2-5.3c0.2-0.6,0.4-1.1,0.5-1.7c0.5-2.7,0.6-5.5,0.1-8.2
		c-0.2-0.9-0.1-1.6,1-1.9c0.9-0.3,1-1.3,0.3-1.9c-1-0.8-1.1-1.9-0.4-3c0.3,0.4,0.5,1.1,0.8,1.1c0.7,0.2,0.9,0.7,0.8,1.2
		c-0.2,1.2-0.4,2.4-0.6,3.6c-0.1,0.4-0.2,0.8-0.4,1.2c1.8,0.2,2.1-0.1,2.2-1.6c0.1-1.6,0.1-3.2,0.1-4.8c0-1,0.2-1.9,0.2-2.9
		c0.1-1.2,0.1-2.3,0.2-3.5c0.1-0.7,0.1-1.4,0.2-2.2c0.2,0,0.4,0,0.5,0c0.6,1.6,1.3,3.3,1.9,4.9c0.2-1.3,0.1-2.5,0.2-3.7
		c0.1-0.8,0.4-1.6,0.8-2.2c0.4-0.6,1-0.5,1.1,0.3c0.1,0.8,0.1,1.7,0.2,2.5c0.1,0.4,0.3,0.7,0.5,1.1c0.2,0,0.3-0.1,0.5-0.1
		c0.1-1.5,0.3-3,0.4-4.6c2.1,0.7,2.8,3.4,1.4,5c-0.9,1.1-1.1,2.2-0.8,3.5c0.2,0.9,0.7,1.8,0.9,2.7c0.2,0.8,0.4,1.6,0.4,2.4
		c0,2,0,3.9-0.1,5.9c0,0.2,0,0.4,0.1,0.6c0.7,1,0.3,2.1,0.2,3.1c-0.1,0.7,0.1,1.5,0.1,2.2c-0.1,1.6-0.3,3.2-0.6,4.8
		c-0.2,1.1-0.8,2.1-1.1,3.2c-0.3,1.1-0.5,2.3-0.8,3.5c-0.3,0.9-0.8,1.8-0.9,2.8c-0.2,1.9-0.3,3.8-0.3,5.7c0,0.5,0.6,1,0.9,1.5
		c0.3-0.4,0.8-0.8,1-1.3c0.2-0.7,0.2-1.5,0.3-2.2c0.1-0.4,0.2-0.8,0.4-1c1.1-0.8,3.4,0.1,3.9,1.3c0.3,0.7,0.6,1.4,1,2
		c1.5,2,3,4,4.4,6.1c0.8,1.2,1.7,2.5,1.8,3.9c0.2,2.3,1.6,4,2.5,6c0.4,0.9,0.4,1.6,0.3,2.5c-0.1,0.7,0,1.6,0.3,2.2
		c0.7,1.8,1.8,3.4,2.3,5.2c0.7,2.5,1.9,5.2-0.3,7.7c-0.1,0.1-0.1,0.2-0.1,0.3c-0.7,2.5-0.9,5,0.7,7.4c0.4,0.6,0.9,1.3,1.2,1.9
		c0.2,0.6,0.3,1.3,0.3,1.9c0,1.2-0.3,2.4-0.3,3.5c0,2,0.1,4,0.1,5.9c0,1.1-0.2,2.2-0.1,3.2c0.2,2.6,0.5,5.1,0.8,7.7
		c0.1,1.1,0.3,2.1,0.6,3.1c0.1,0.4,0.6,0.8,1,1.1c0.1-0.1,0.3-0.1,0.4-0.2c-0.1-0.4-0.1-0.8-0.2-1.2c-0.3-2-1-4-1-6
		c0.1-5.5,0.4-11.1,0.8-16.6c0.1-1.6,0.1-2.9-0.8-4.2c-0.5-0.7-0.9-1.4-1.3-2.1c-0.7-1.1-0.7-2.5,0.1-3.8c0.2,0.2,0.4,0.5,0.4,0.7
		c0.3,2.3,1.7,4,2.9,5.8c0.6,1,1.1,2.2,1.4,3.3c0.4,1.3,0.6,2.6,1,3.9c0.2,0.6,0.6,1.1,0.9,1.7c0.1,0,0.3-0.1,0.4-0.1
		c0.1-0.4,0.2-0.7,0.2-1.1c-0.3-2-0.4-4.2-1.1-6.1c-0.6-1.8-2-3.3-2.7-5c-1.1-2.9-3.1-5.8-1.8-9.2c0.1-0.2,0-0.4,0-0.6
		c-0.4-2.6-0.8-5.1-2.1-7.4c-0.5-0.9-0.7-2-0.2-3.1c0.3-0.6,0.2-1.3,0.1-2c-0.1-1.3-0.6-2.7-0.6-4c0-1.8,0.5-3.5,0.6-5.3
		c0.1-2-0.1-4-0.2-5.9c-0.2-4.1-0.3-8.2-0.7-12.2c-0.3-3.2-0.7-6.4,0-9.6c0.3-1.3-0.1-2.8,0-4.2c0.1-2,0.3-3.9,0.7-5.8
		c0.4-1.9,1.2-3.6,1.8-5.5c0.3-1,0.8-1,1.5-0.4c0.7,0.6,1.3,1.3,2,1.8c0.4,0.3,0.9,0.2,1.4,0.4c0.1-0.5,0.2-1,0.2-1.6
		c0-0.2-0.3-0.5-0.4-0.7c-0.2-0.7-0.6-1.4-0.5-2c0.3-1.5-0.1-2.9-0.9-4c-1.4-1.8-0.6-3.5-0.3-5.3c0-0.2,0.3-0.4,0.5-0.5
		c1.4-0.6,4,0.6,4.6,2c0.5,1.1,1,2.1,1.6,3.2c0.4,0.6,0.4,1.1-0.2,1.4c-1,0.5-1.2,1.4-1.2,2.3c0,0.6,0.2,1.3,0.4,1.9
		c0.5-0.3,1-0.5,1.4-0.9c1.1-0.8,1.8-0.9,2.2,0.2c0.9,2.2,1.8,4.5,2.4,6.9c0.3,1.2,0.5,2.3,1.3,3.2c0.8,0.9,1.4,2,0.8,3.2
		c-1,2.1-0.9,4.2-0.3,6.3c0.3,1.1,0,2-1,2.7c-0.8,0.6-1.4,1.4-2.2,2c-2.7,2.4-3.4,5.2-2.5,8.7c0.2,0.7,0.3,1.7,0.1,2.3
		c-1,2.4-1.7,5-2.8,7.3c-2.3,5.1-2.2,10,0,15.1c0.1,0.3,0.4,0.5,0.6,0.7c0.5-1.7,0-3.1-0.6-4.6c-0.2-0.5-0.5-1-0.4-1.5
		c0.3-1.9,0.6-3.8,1.1-5.6c0.2-0.6,0.6-1.2,1-1.8c0.4-0.7,0.9-1.3,1.2-2c0.8-2.1,1.1-2.2,2.6-0.4c0.6,0.6,1.1,1.3,1.6,2
		c1.4,1.9,2.6,4,4,5.8c1.5,1.8,2.1,3.9,2.6,6.1c0.2,0.7,0.6,1.5,1.1,2c0.6,0.6,1.1,1.2,0.7,2c-0.7,1.7,0,3.1,0.7,4.5
		c0.5,1,0.4,1.7-0.3,2.6c-0.5,0.6-1,1.5-1,2.3c-0.1,1.4,0.1,3,0.4,4.4c0.5,1.9,1.1,3.7,1.9,5.4c1.6,3.5,2.1,7.3,2.2,11.1
		c0.1,3.4,0.3,6.7,0.5,10.1c0,0.5,0.3,0.9,0.4,1.4c0.1,0,0.2,0,0.3-0.1c0.1-0.5,0.2-1,0.2-1.5c0-4.2,0-8.5,0-12.7
		c0-1.6,0-3.2-0.4-4.6c-0.9-3.8-2.1-7.4-3.1-11.2c-0.4-1.4-0.1-3,1.1-4c0.9-0.8,1.1-1.6,0.7-2.5c-0.4-1.1-1.4-2.2-1.3-3.3
		c0-1.5-0.6-2.8-0.5-4.2c0-1.8-1.1-3.2-1.2-4.9c0-0.1-0.2-0.2-0.2-0.3c-0.1-0.7-0.2-1.4-0.2-2.1c0-0.7,0.4-1.5,0.4-2.2
		c0.1-4.2-0.2-8.4,0.8-12.5c0.5-2.2-0.2-4.7,1.5-6.6c0.1-0.2,0.1-0.5,0.2-0.7c0.1-1.3,0.2-2.6,0.3-3.9c0.1-0.8,0.2-1.8,0.7-2.4
		c1.2-1.4,1.1-2.8,0.9-4.4c-0.1-1.2-0.1-2.5,0-3.7c0.2-2,0.6-3.9,0.9-5.9c0.3-1.5,0.6-3,1-4.5c0.1-0.4,0.7-0.7,1-1
		c0.2,0.4,0.5,0.9,0.6,1.3c0.1,0.6-0.1,1.3-0.1,1.9c0,1-0.2,2.1,0.1,3c0.4,1.3,0.2,2-1.2,2.3c0.2,0.4,0.4,0.8,0.4,1.2
		c0.1,1.4,0.7,2.8-0.8,3.9c-1.1,0.8-1.3,2.6-0.3,3.5c1.3,1.2,1.2,2.5,0.9,3.9c-0.4,2-0.7,3.9-0.3,5.9c0.3,1.3,0,2.5-0.5,3.7
		c-0.3,0.7-0.7,1.7-0.5,2.4c0.8,2.4,0.7,4.7,0.2,7.1c-0.1,0.4,0.4,0.9,0.7,1.4c0.3-0.4,0.7-0.7,0.8-1.1c0.2-2.3,0.1-4.6,0.5-6.8
		c0.5-2.9,1.1-5.8,1.2-8.9c0-1.5,0.4-3.1,0.2-4.7c-0.1-1,0.1-1.8,0.9-2.5c1.2-0.9,1.4-2.1,0.8-3.5c-0.2-0.6-0.5-1.6-0.2-2
		c0.8-1.4,0.5-2.8,0.6-4.2c0-1.1,0.9-1.7,2.2-1.5c-0.4,0.8-0.7,1.6-1,2.4c-0.1,0.3-0.2,0.8-0.1,0.9c0.3,0.3,0.8,0.6,1.2,0.6
		c0.1,0,0.5-0.5,0.6-0.7c0.3-1.5,0.5-2.9,0.7-4.4c0.2-1.8,0.2-3.6,0.4-5.4c0.1-0.5,0.7-0.9,1.1-1.3c0.2,0.5,0.7,0.9,0.7,1.4
		c-0.1,2.2-0.2,4.4-0.4,6.6c-0.1,1.3-0.5,2.6-0.8,3.9c-0.1,0.7-0.2,1.4,0.6,1.6c0.3,0.1,0.8-0.6,1-1c0.3-0.5,0.4-1.1,0.4-1.6
		c0.4-3.7,0.7-7.5,1-11.2c0-0.5,0.1-1,0.2-1.4c0.7-2.4,1.4-4.7,2.1-7.1c0.2-0.7,0.5-1.3,0.7-2c0.1,0,0.2,0.1,0.3,0.1
		c0,0.6,0,1.2,0,1.7c0.1,2.2,0.1,4.3,0.2,6.5c0,0.4,0.3,0.9,0.5,1.3c0.2,0,0.4,0,0.6-0.1c0.2-2.7,0.4-5.4,0.6-8c0.1,0,0.2,0,0.3,0
		c0.1,0.6,0.1,1.1,0.2,1.7c0.2,1.5,0.5,3,0.6,4.6c0.1,0.7-0.2,1.5-0.3,2.2c0,0.4,0,0.8,0.1,1.2c0.1,0.6,0.5,1.1,0.5,1.7
		c0.1,0.9,0,1.8,0,2.7c0,0.4,0.3,0.7,0.4,1.1c0.1,0,0.2,0,0.3,0c0.1-0.3,0.4-0.7,0.4-1c0.1-1.5,0.2-3,1.2-4.3
		c0.4-0.6,0.1-1.2-0.6-1.5c-0.9-0.4-1-1.2-0.3-2c0.7-0.9,1.3-1.8,2-2.7c0.3-0.5,0.6-1.1,0.9-1.6c0.1,0,0.3,0,0.4,0.1
		c0.1,1.3,0.2,2.6,0.4,4.2c-0.7-0.5-1.2-0.8-1.7-1.1c-0.1,0.6-0.2,1-0.3,1.5c0,2.7,0,5.4,0,8c0,0.9,0,1.6-0.9,2.1
		c-0.7,0.4-1.1,1.2-0.2,2.1c0.9-0.9,1.8-1.7,2.9-2.8c0.1,1,0.1,1.5,0.3,2.1c0.1,0.3,0.4,0.5,0.6,0.8c0.2-0.2,0.6-0.4,0.6-0.6
		c0-1.1,0-2.1-0.1-3.2c-0.1-2.2-0.1-4.4-0.2-6.6c0-0.2,0.4-0.5,0.6-0.6c0.2,0,0.5,0.2,0.6,0.4c0.2,0.4,0.4,0.8,0.4,1.2
		c-0.1,3.7-0.2,7.5-0.4,11.2c0,0.7-0.5,0.8-1.1,0.5c-0.4-0.2-0.8-0.4-1.2-0.6c-0.1,0.1-0.2,0.2-0.2,0.3c0.2,0.3,0.3,0.7,0.5,0.8
		c1.6,0.8,1.9,2.6,2.3,3.9c0.5,1.9,0.4,4.1-1.1,5.8c-2.2,2.7-4.5,5.3-6.9,7.8c-1.5,1.6-2.1,3.2-1.8,5.3c0.5,2.9,1.1,5.8,1.3,8.7
		c0.3,2.9,0.3,5.9,1.8,8.6c0.1,0.2,0.1,0.4,0.1,0.6c0.5,4.8,1.1,9.5,1.5,14.3c0.1,1.7,0.2,3.5-0.8,5.1c-0.3,0.5-0.2,1.4-0.1,2.1
		c0.1,0.6,0.4,1.1,0.6,1.7c0.9,2.8,1.7,5.5,1.4,8.5c-0.2,3.2,0.5,6.5,0.7,9.8c0.2,4.1,0.1,8.2,0.3,12.3c0,1.4,0.3,2.8,0.6,4.1
		c0,0.3,0.4,0.5,0.7,0.7c0.2-0.3,0.5-0.5,0.6-0.8c0.1-0.4,0-0.8,0-1.2c-0.1-1.3-0.2-2.6-0.2-3.9c0-3,0.1-6.1,0-9.1
		c0-5.1-0.1-10.2-0.2-15.3c0-1.3-0.6-2.6-0.9-3.9c-0.3-1.4-0.6-2.8,0.4-4.1c0.3-0.4,0.3-1.1,0.3-1.7c0-0.7-0.2-1.5-0.1-2.2
		c0.2-2.2,0.7-4.3,2-6.2c0.6-0.9-0.5-4.6-1.4-5.1c0,0-0.1-0.1-0.1-0.1c-0.9-0.1-1.1-0.8-1.3-1.5c-0.2-0.9-0.5-1.8-0.7-2.7
		c-0.8-4.4-1.2-8.9-3.1-13c-0.6-1.2-0.4-2.5,0.2-3.7c0.5-1.1,1.3-2.1,1.5-3.2c0.4-1.9,1.7-2.9,3.2-3.8c1.5-0.9,2.4-2.2,3.1-3.7
		c0.3-0.6,0.5-1.4,0.9-1.8c1.4-1.2,1.6-2.8,1.7-4.5c0.1-1.3,0-2.6,0.1-3.8c0.1-1.3,0.2-2.6,0.5-3.8c0.5-1.8,1.9-2.3,3.5-1.3
		c1.3,0.8,2.1,2,2.4,3.5c0.2,1.1,0.4,2.2,0.9,3.2c0.2,0.5,1.1,0.8,1.6,1.1c0.2-0.6,0.5-1.1,0.4-1.7c0-0.7-0.4-1.3-0.6-1.9
		c-0.2-1-0.4-2.1-0.6-3.1c0-0.3,0.2-0.6,0.4-0.9c0.3-0.6,0.9-1.2,0.9-1.8c0.2-1.9,0.2-3.9,0.3-5.9c0.1-0.8,0.3-1.5,0.5-2.3
		c0.2,0,0.4,0,0.6,0c0.2,0.9,0.4,1.8,0.6,2.6c1.9-0.1,2.6-1.5,1.7-3.1c-0.1-0.2-0.1-0.5-0.2-0.8c-0.3-1.4-0.5-2.9-0.8-4.7
		c-0.6,0.5-1,0.9-1.5,1.3c-0.4,0.3-0.9,0.7-1.4,0.7c-0.2,0-0.6-0.7-0.7-1.1c-0.1-1.1-0.2-2.3-0.1-3.4c0.1-0.7,0.6-1.5,1.1-2
		c0.3-0.3,1.1-0.2,1.6-0.2c-0.1,0.5-0.2,1-0.3,1.5c0,0.1-0.2,0.2-0.2,0.3c-0.9,0.8-0.8,1.9-0.6,3.2c0.9-0.6,1.7-0.9,2.2-1.5
		c0.5-0.6,0.6-1.6,0.8-2.4c0.4,1,0.4,2,0.6,2.9c0.1,0.4,0.7,0.7,1.1,1.1c0.2-0.4,0.5-0.7,0.7-1.1c0.1-0.2,0.1-0.5,0.1-0.7
		c0.1-0.3,0.3-0.8,0.5-0.8c0.3,0,0.8,0.2,0.9,0.4c0,0.6,0.1,1.5-0.2,1.7c-0.7,0.5-0.7,1.1-0.6,1.8c0.2,1.1,0.7,2.2,0.7,3.3
		c0,4.2-0.1,8.5-0.1,12.7c0,1.8-0.1,3.5,0,5.3c0,0.6,0.5,1.2,0.7,1.8c0.2,0,0.4-0.1,0.6-0.1c0-2.7,0-5.4,0-8.1
		c0.2-0.1,0.4-0.1,0.5-0.2c0.3,0.4,0.6,0.7,0.8,1.1c0.2,0.3,0.3,0.7,0.5,0.8c0.9,0.3,0.8,1,0.6,1.7c-0.2,0.8-0.4,1.6-0.4,2.3
		c0,0.4,0.6,0.8,0.9,1.2c0.3-0.3,0.7-0.6,0.9-1c0.2-0.2,0.2-0.6,0.2-0.9c0.2-2.3,0.3-4.6,0.4-6.9c0-0.7,0.2-1.3,0.4-1.9
		c0.2,0,0.4,0,0.5,0c0.1,0.9,0.1,1.9,0.2,2.8c0.2,2.1,0.3,4.2,0.5,6.3c0.1,0.8,0.4,1.6,1.3,1.5c0.2,0,0.5-1.1,0.4-1.7
		c-0.3-5.4-1.3-10.9-0.2-16.3c0.2-0.9,0.4-1.9,0.6-2.8c0.1,0,0.2,0,0.3,0c0.5,0.9,1.2,0.9,2,0.6c0.4-0.2,1-0.1,1.4-0.1
		c1.9,0.2,2.8,1.3,2.6,3.2c-0.1,1.8-0.2,3.7-0.3,5.5c-0.1,1.6-0.2,3.3-0.4,4.9c-0.1,0.4-0.7,0.7-1.1,1c0-0.5-0.3-1.1-0.1-1.5
		c0.4-0.9,0-1.2-0.7-1.2c-0.4,0-1.1,0.5-1.1,0.9c-0.2,1.3-0.3,2.7-0.3,4c0,0.3,0.4,0.6,0.6,0.9c0.3-0.3,0.6-0.5,0.8-0.9
		c0.1-0.3,0.1-0.6,0.1-1.1c0.7,0.1,1.3,0.2,2,0.3c0,0.3,0,0.5,0,0.7c0.1,0.5-0.3,1.4,0.6,1.4c0.2,0,0.6-0.9,0.6-1.3
		c0.2-3.1,0.3-6.2,0.5-9.3c0.1-2.4,0.9-4.5,2.5-6.2c1.1-1.2,2.3-1.1,3.1,0.3c0.3,0.5,0.6,1.1,0.6,1.7c0,1.1-0.1,2.2-0.4,3.2
		c-1.7,4.7-3.2,9.6-6.3,13.6c-0.7,0.9-1.6,1.8-2.3,2.8c-1.7,2.1-2.1,4.6-1.8,7.3c0,0.4,0.5,0.8,0.7,1.2c0.4-0.2,0.8-0.4,1.2-0.7
		c0.3-0.2,0.5-0.6,0.8-0.9c2.1-2,5-1.4,6,1.4c0.8,2.4,0.8,4.6-1.3,6.4c-0.9,0.7-1.2,1.7-0.8,2.8c0.3,0.8,0.9,0.9,1.5,0.4
		c0.3-0.3,0.5-0.8,0.8-1.2c0.6-0.9,2.2-1.8,3.1-1.5c1.2,0.3,1.2,1.4,1.2,2.4c0.1,2.8,0.2,5.6,0.1,8.4c0,1.5-0.4,2.9-1.6,4
		c-1,1.1-0.9,1.8-0.1,3c0.2,0.2,0.3,0.6,0.2,0.9c-0.8,1.8-1.5,3.7-3.5,4.5c-1,0.4-2,0.5-2.7,1.4c-0.1,0.1-0.6,0-0.8,0
		c-2.3-0.7-4.9,0.2-6.3,2.1c-1.9,2.6-3.2,5.5-4.2,8.6c-0.2,0.5-0.1,1-0.2,1.6c0.1,0.1,0.2,0.1,0.3,0.2c0.4-0.4,0.8-0.8,1.1-1.3
		c0.7-1,1.4-2.1,2.1-3.1c0.2-0.3,0.6-0.6,0.9-0.9c0.8-0.6,1.7-1.1,2.3-1.9c0.7-1,1.6-1.2,2.7-1.1c1.2,0.1,1.5,0.6,1,1.7
		c-0.5,1.2-1.1,2.4-1.8,3.5c-0.7,0.9-1.5,1.8-2.5,2.5c-0.8,0.5-1.8,0.7-2.6,1.2c-0.8,0.4-1.6,0.9-2.3,1.5c-1.5,1.4-2,3.7-3.8,4.8
		c-1.5,3.3-3.1,6.5-4.5,9.8c-0.4,0.9-0.7,1.2-1.7,1.2c-2.7,0-4.2,1.6-4.2,4.3c0,0.3,0,0.7,0,1c0.2,1.2-0.3,2-1.1,2.8
		c-0.5,0.5-0.8,1.3-1.2,1.8c-0.4,0.5-0.9,1.1-1.5,1.4c-1.3,0.6-2.7,0.9-4,1.5c-0.5,0.2-0.9,0.6-1.3,1.1c-0.2,0.3-0.2,0.8-0.3,1.2
		c0.4,0,0.8,0.2,1.1,0.1c0.5-0.1,1-0.4,1.5-0.6c1.8-0.8,2.4-0.6,2.5,1.4c0.1,2.4,0,4.8-0.5,7.1c-0.6,2.7-1.7,5.3-2.5,8
		c-0.4,1.2-1.1,2.3-1.2,3.5c-0.3,3.4-0.4,6.8-0.6,10.3c-0.1,1.9-0.2,3.8-0.3,5.7c-0.7,8-1.7,15.9-2.2,23.9
		c-0.3,4.6,0.1,9.2,0.3,13.8c0.1,1.8,0.5,3.5,0.8,5.3c0.2,0,0.3,0,0.5,0c0.1-1.8,0.4-3.7,0.2-5.5c-0.6-5.1-0.9-10.1-0.2-15.2
		c0.4-3,1-6,1.3-9c0.5-4.6,0.9-9.3,1.2-13.9c0.2-3.1,0.4-6.2,0.4-9.3c0-6.5,2.9-12,6.1-17.4c0.6-1,1.3-2,1.6-3.2
		c0.4-1.3,0.6-2.7,0.7-4.1c0.1-2.5,1.3-4.5,2.9-6.1c1.4-1.4,2.3-2.9,3.1-4.6c0.2-0.4,0.4-1,0.7-1.2c1.1-0.8,1.2-2.1,1.5-3.3
		c0.8-2.8,1.5-5.5,2.4-8.3c0.3-1,0.9-2,1.7-2.7c1.9-1.5,3.8-3,5.9-4.1c1.7-0.9,2.9-2,4-3.5c0.4-0.6,0.8-1.2,1.3-1.7
		c1.3-1.5,1.9-3.2,2-5.1c0-0.5,0.2-0.9,0.4-1.4c0.7-1.5,1.9-1.8,3.2-0.8c0.5,0.4,0.9,0.8,1.4,1.1c0.4,0.2,1.1,0.4,1.4,0.2
		c0.4-0.3,0.6-0.9,0.6-1.4c0-0.4-0.3-0.9-0.6-1.3c-1-1.4-0.9-2.6-0.1-4.1c0.4-0.9,0.7-2,0.6-3c-0.3-2.1,0.3-3.9,1.4-5.7
		c0.7-1.1,0.8-2.2,0.1-3.4c-0.3-0.5-0.4-1.1-0.5-1.7c-0.4-3.2,1.1-6.4,0.4-9.7c-0.3-1.3-0.2-2.6-1.1-3.7c-0.6-0.7-0.6-1.4-0.4-2.2
		c0.2-0.7,0.5-1.7,0.2-2.2c-0.9-1.3-1.1-2.6-0.9-4.1c0-0.3-0.1-0.6-0.2-0.8c-0.6-1.7,0.2-4.1,1.8-4.7c1.2-0.4,1.6-1.3,2.1-2.3
		c0.4-0.8,0.9-1.4,1.5-2.1c0.6-0.7,1.5-1.1,1.9-1.8c0.6-1.1,1-2.3,1.5-3.5c0.2-0.4,0.4-0.8,0.7-1.2c0.4,0.5,0.6,0.9,0.9,1.3
		c0.4-0.4,0.9-0.8,1.1-1.3c0.7-1.6,1.2-3.3,1.8-4.9c0.2-0.4,0.6-1.1,1-1.1c1.2-0.1,1.2-0.7,0.9-1.6c-0.5-1.5,0.6-4.6,2-5.3
		c0.1,0.5,0.2,1,0.3,1.5c0,2,0,4.1,0,6.1c0,3.3-0.2,6.6-0.1,9.9c0.1,2.3,0.1,4.6-0.7,6.9c-0.2,0.6-0.2,1.3-0.1,1.9
		c0.1,0.7,0.6,1,1.2,0.4c0.7-0.7,1.4-1.5,2-2.4c0.2-0.3,0-1.2-0.1-1.2c-1.4-0.4-1.2-1.6-1.1-2.6c0.1-1.6,0.5-3.2,0.6-4.9
		c0.2-4.4,0.4-8.9,0.6-13.3c0.1-1.7,0.2-3.3,0.2-5c0.5,0.1,0.9,0.3,1.2,0.2c0.5,0,0.9-0.2,1.4-0.4c-0.2-0.5-0.4-1-0.6-1.5
		c-0.1-0.2-0.4-0.3-0.6-0.4c-0.9-0.3-1.1-1-1.1-1.8c0-0.5,0-1,0.1-1.4c0.3-2.9,0.7-5.8,1-8.7c0.1-0.8,0.2-1.7,0.3-2.5
		c0.2-1.3,0.1-2.7,0.7-3.8c0.2-0.4,1.7-0.1,2.7-0.1c0.2,0,0.4,0.1,0.6,0c0.5-0.2,1.2-0.5,1.3-0.8c0.4-1.9,1.6-2.8,3.4-3.1
		c0,0,0.1,0,0.1-0.1c1.6-0.7,3.1-0.3,4.3,0.7c0.4,0.3,1.2,0.7,1.4,0.5c0.4-0.4,0.7-1.1,0.9-1.7c0.2-0.5,0.1-1.1,0.4-1.4
		c0.7-0.6,1.6-1.2,2.5-1.6c0.9-0.4,1.9-0.4,2.9,0.1c0.7,0.3,1.7,0.6,2.3,0.3c1.2-0.6,2-0.1,3,0.5c0.7,0.4,1.4,0.7,2.1,1.2
		c2,1.2,2.7,4,1.5,5.9c-0.3,0.4-0.3,1-0.5,1.5c-0.6,2.2-1.1,4.4-1.7,6.6c-0.1,0.4-0.4,0.7-0.6,1c-0.2,0.3-0.5,0.6-0.5,0.9
		c0,0.5,0.3,1,0.5,1.5c0.5-0.2,1-0.3,1.4-0.6c0.7-0.6,1.2-1.3,1.8-2c0.9-1,1.7-1.2,2.6,0c0.3,0.3,0.8,0.5,1.3,0.6
		c1.6,0.6,3.3,1,4.6,1.9c3,2.2,6.4,2.3,9.8,2.1c0.6,0,1.1-0.5,1.7-0.7c0-0.2-0.1-0.4-0.1-0.6c-0.7-0.1-1.5-0.1-2.2-0.2
		c-0.3,0-0.6,0.1-0.9,0c-1.1-0.3-2.2-0.6-3.2-0.9c-0.9-0.3-1.9-0.6-2.7-1.1c-1.1-0.6-2.1-1.3-3.2-1.8c-2-0.8-3.7-1.7-4.4-4.2
		c-0.4-1.4-0.3-2.2,0.4-3.4c0.3-0.5,0.5-1.4,0.3-2c-0.8-1.9-0.2-3.5,0.9-5c0.5-0.7,0.8-1.6,1.4-2.7c-1.4,0.1-2.4,0.1-3.4,0.2
		c-1.4,0.2-2.7,0-3.8-0.9c-0.8-0.7-1.6-1.5-2.4-2.2c-0.3-0.3-0.8-0.4-1.2-0.6c-0.4-0.2-1-0.3-1.3-0.6c-1-0.7-2.5-0.8-3.3-0.3
		c-0.9,0.6-1.9,1.2-2.9,1.6c-1.3,0.5-2.6,0.9-4,1.3c-1.9,0.6-3.9,0.7-5.7-0.2c-1.3-0.6-4.1-0.8-5.2,0.2c-2.5,2.2-5.3,3.6-8.4,4.5
		c-2.8,0.8-5.3-0.6-5.6-3.5c0-0.2-0.1-0.4-0.1-0.6c-1.3,0.1-2.1,0.9-2.3,2.4c-0.2,1.5-0.9,2.6-2,3.5c-0.3,0.3-0.9,0.3-1.3,0.4
		c0-0.4-0.2-0.9-0.1-1.3c0.1-0.7,0.3-1.5,0.5-2.3c-0.5,0-0.8-0.1-1,0c-0.9,0.3-1.7,0.7-2.7,1.1c0.7-6.9,1.4-13.6,2.1-20.4
		c0.1,0,0.2-0.1,0.3-0.1c0.2,0.4,0.4,0.8,0.7,1.1c0.3,0.3,0.8,0.6,1.2,0.9c0.2-0.4,0.7-0.9,0.6-1.3c-0.2-0.9-0.5-1.8-0.9-2.7
		c-1.3-3.1-1.7-6.3-0.4-9.6c0.7-1.8,0.3-3.3-0.5-4.9c-0.2-0.5-0.4-1.1-0.2-1.5c0.5-1.2,1-2.4,1.7-3.5c0.3-0.4,0.9-0.8,1.5-0.8
		c0.8-0.1,1.7,0.1,2.5,0.2c0.2,0,0.5,0.5,0.6,0.8c0.1,1,0.1,1.9,0.2,2.9c0,0.5,0.2,0.9,0.2,1.4c0.1,0,0.3,0,0.4,0
		c0.1-0.5,0.3-1,0.3-1.5c0.1-0.8-0.1-1.7,0.2-2.4c0.2-0.6,0.9-1.1,1.4-1.4c0.3-0.1,1.1,0.3,1.2,0.6c0.4,1,0.9,0.9,1.6,0.4
		c0.9-0.6,1.4-0.2,1.5,0.7c0.1,1.1,0.1,2.1,0.2,3.2c0,0.6-0.1,1.1-0.1,1.7c0.1,0,0.3,0.1,0.4,0.1c0.4-0.9,0.9-1.9,1.5-3.1
		c1,1.7,1,3.3,1.3,4.8c0.1,0.6,0.7,1.2,1.1,1.8c0.3-0.6,0.8-1.1,1-1.7c0.2-1.2,0.2-2.4,0.3-3.7c0.5,0,0.9,0.2,1.3,0
		c0.4-0.2,1-0.4,1.1-0.8c0.3-0.9,0.9-0.9,1.5-0.6c0.6,0.3,1.2,0.8,1.4,1.4c0.5,1.3,0.9,2.7,1.2,4.1c0.3,1.7,0.7,2.1,2.4,2.4
		c1.7,0.3,3.1,1.3,3.9,2.8c1.2,2.3,1.8,2.6,4.4,2.2c0.7-0.1,1.5-0.1,2.1,0.2c2,0.9,3.6,2.3,4.2,4.5c0.3,1.4,1.1,2.3,2.4,2.7
		c1.2,0.4,1.9,1.3,2.3,2.4c0.9,2.3,1.8,4.6,2.6,6.9c1.3,3.8,4.5,4.6,7.5,4.3c0.4,0,0.9-0.4,1.3-0.6c0-0.1-0.1-0.2-0.1-0.3
		c-0.7-0.1-1.5-0.2-2.2-0.3c-2.8-0.4-4.2-1.9-4.5-4.7c-0.1-0.9-0.3-1.7-0.6-2.5c-0.5-1.4-1.5-2.6-1.4-4.1c0-0.2-0.2-0.5-0.3-0.7
		c-0.5-0.7-0.9-1.4-1.4-2c-0.2-0.3-0.4-0.7-0.7-0.9c-0.7-0.7-1.6-1.3-2.2-2.1c-1.2-1.4-2.2-3-3.3-4.4c-1.1-1.4-2.5-2.3-4.4-2.5
		c-3.4-0.4-6.3-1.6-7.7-5c-0.5-1.1-1-2.3-1.5-3.4c-0.8-1.8-1.9-3.5-3.8-4.2c-1.6-0.6-2.3-1.9-3-3.2c-0.1-0.2,0.1-0.8,0.3-0.9
		c0.8-0.4,1.3-0.9,0.7-1.8c-0.5-0.8-1.5-1-2.3-0.4c-0.6,0.4-1,1-1.5,1.5c-0.6,0.5-1.3,1-1.9,1.5c-0.3-0.8-0.8-1.7-0.8-2.5
		c-0.1-3.9,0.1-7.8,0.1-11.8c0-0.9,0.4-1.4,1.2-1.5c1.2-0.3,2.5-0.5,3.7-0.8c1.6-0.3,3-0.2,4.1,1.2c0.2,0.2,1,0.4,1.1,0.3
		c1.2-1.4,2.4-0.8,3.5,0c0.9,0.6,1.7,0.8,2.8,0.4c1.2-0.5,1.8,0.2,2.2,1.4c0.5,1.5,1.1,3,0.9,4.6c0,0.3,0.4,0.8,0.7,0.9
		c0.3,0.1,0.9-0.4,0.9-0.6c0.2-0.9,0.4-1.9,0.3-2.8c-0.1-1.5,0.5-2,1.9-1.5c0.8,0.2,1.5,0.7,2.3,0.8c1.7,0.1,3.4-0.2,5.2,0
		c1.5,0.1,3,0.2,4.6,0.5c0.9,0.2,1.9,0.3,2.8,0.2c1-0.1,1.7,0,2.4,0.8c0.8,0.8,1.6,0.7,2.5,0.2c0.3-0.2,0.8-0.4,1.1-0.3
		c2.9,0.9,5.9,1.3,8.3,3.1c1.8,1.4,3.7,2.7,5.4,4.2c2.1,1.9,4.1,4,5.2,6.8c1.1,2.9,3,5,5.4,6.8c0.4,0.3,1,0.3,1.5,0.4
		c0-0.3,0-0.6,0-1C357.6,66,357.1,65.6,356.6,65.2z M96.3,48.7c-0.2-0.4-0.5-0.8-0.9-1.4c0.5-0.4,0.8-0.7,1.2-1
		c0.2,0.3,0.7,0.7,0.6,0.9C97,47.7,96.6,48.2,96.3,48.7z M121.9,68.7C122,68.7,121.9,68.7,121.9,68.7L121.9,68.7z M123.4,43.5
		c-0.8,1.5-2.2,2.2-4.2,2.5c-0.4-0.4-1-0.8-1.5-1.4c-0.1-0.2-0.1-0.7,0-0.9c1.3-1,2.5-2.5,4.3-2.7c0.4,0,1.2,0.2,1.3,0.5
		C123.6,42.2,123.7,43,123.4,43.5z M126.3,40.5c-0.6,0.3-1.7,0.2-2-0.2c-0.4-0.5-0.5-1.6-0.2-2.1c0.5-0.9,1.4-1.6,2.3-2.2
		c0.9-0.6,2,0.1,2.1,1.3C128.1,38.5,127.6,39.9,126.3,40.5z M90.7,113.7c-0.9,1.4-0.7,3-0.8,4.5c0,0.5-0.3,1.2-0.6,1.3
		c-0.8,0.1-1.1-0.5-1.2-1.3c0-0.5,0-1,0-1.6c0,0-0.1,0-0.1,0c0.2-1.3,0.3-2.5,0.6-3.8c0.1-0.7,0.5-1.2,1.3-0.8
		C90.5,112.4,91.1,113,90.7,113.7z M91.4,122.3c-0.4-2.5-0.3-5-0.1-7.8C92.8,117.1,92.9,121.5,91.4,122.3z M107.9,118.6
		c-0.2,0-0.5-0.2-0.7-0.3c-0.6-0.8-0.3-1.8,0.8-2.7c0.1,1,0.2,1.8,0.2,2.5C108.2,118.2,108,118.6,107.9,118.6z M123.2,102
		c0.4-1.2,1.1-2.2,1.7-3.4c1.2,0.5,1.6,1.3,1.5,2.3c-0.1,1.3-0.3,2.5-0.4,3.8c-0.1,0.9-0.7,1.1-1.4,1.1c-0.7,0-1.5-0.1-1.6-1
		C123,103.8,123,102.8,123.2,102z M120.7,113c0.5,0.7,0.9,1.3,1.3,2c0.3-0.9,0.6-1.6,0.9-2.4c1,0.7,1.3,1.7,0.8,2.6
		c-0.4,0.8-1.5,1.2-2.4,0.8C120.4,115.7,120.1,114.8,120.7,113z M121,126.5c-0.7-1.5-1.4-3-0.5-4.6c0.1-0.2,0.4-0.5,0.6-0.5
		c0.2,0,0.5,0.2,0.6,0.5C122.1,122.6,121.7,125.9,121,126.5z M125.4,129.8c0.2,0.4,0.2,1.2-0.1,1.6c-0.9,1.2-2,2.2-3,3.2
		c-0.2-0.1-0.3-0.2-0.5-0.3c0.5-4.8,1-9.6,1.6-14.8c0.3,0.7,0.9,1.3,0.7,1.7c-0.4,1.7,0.2,2.8,1.6,3.7c0.2,0.1,0.3,0.3,0.4,0.4
		c0,0.1,0.1,0.1,0.1,0.3C124.1,127.5,124.1,127.4,125.4,129.8z M125.1,118.7c0-1.6,0-3,0-4.4c1.1,0.3,1.7,1,1.7,1.9
		C126.9,117.1,126.4,118,125.1,118.7z M261.3,60.4c0.3,0.2,0.7,0.3,0.7,0.6c0.2,0.7,0.2,1.4,0.4,2.1c-0.2,0.1-0.3,0.1-0.5,0.2
		c-0.4-0.6-0.8-1.3-1-2C260.8,61.1,261.2,60.7,261.3,60.4z M250.7,60.7c0.1-2.6,2.3-3,4-3.8c0.7-0.3,1.7,0.2,2.8,0.4
		c-0.1,0.1,0,0,0,0c0.4-0.4,0.8-0.9,1.2-1.3c0.2,0.6,0.7,1.1,0.7,1.7c-0.1,2.9-0.3,5.9-0.7,8.8c-1.4-2.4-0.2-5.1-1.2-7.7
		c-1.3,0.5-1.3,1.4-1.2,2.4c0.1,1,0.4,1.9,0.4,2.8c0,0.4-0.4,0.8-0.5,1.1c-0.2-0.4-0.5-0.7-0.7-1.1c-0.1-0.3,0-0.6,0-0.9
		c0-1-0.1-1.8-1.4-1.3c-0.5-0.6-1-1.1-1.4-1.6c-0.1,0-0.3,0.1-0.4,0.1c-0.2,1.8-0.4,3.5-0.6,5.3c-0.1,0-0.3,0-0.4,0
		c-0.1-0.5-0.2-1-0.3-1.5c-0.1,0-0.2,0-0.3,0c-1,2.2-0.7,4.7-1.2,7.4c-1.2-1.5-1.5-3-1.1-4.4c0.5-1.9,1.3-3.7,2-5.6
		C250.5,61.1,250.7,60.9,250.7,60.7z M256.6,87c0,0.2-0.1,0.4-0.2,0.8c-1.8-1.4-3-2.8-2.8-5.1c0.2-1.9,0.1-3.8,0.2-5.7
		c0.1-0.7,0.5-1.4,0.8-2.1c0.1-0.4,0.1-0.8,0.2-1.1c0.2-2,0.3-4,0.6-6c0-0.3,0.5-0.6,0.7-0.9c0.2,0.3,0.6,0.7,0.7,1
		C256.6,74.2,256.6,80.6,256.6,87z M240.5,42.9c1.7,0.7,3.3,1.5,4.9,2.4c1.4,0.8,2.8,1.8,4.2,2.8c0.3,0.2,0.6,1,0.4,1.4
		c-0.2,0.5-0.8,0.9-1.2,1.3c-0.6-0.2-0.9-0.3-1.2-0.4c-2.3-1.4-4.7-2.7-7-4.2c-0.6-0.4-1.1-1.4-1.4-2.1
		C239,43,239.5,42.5,240.5,42.9z M226.4,36.2c1.1,1.3,2.3,2.4,3.2,3.7c0.1,0.2-0.2,1.2-0.5,1.3c-0.9,0.3-1.9,0.4-2.9,0.5
		C225.7,39.2,225.7,37.3,226.4,36.2z M225.9,49c0.2-2.9,1.9-5.2,4.7-6.1c0,1.3,0,2.6,0,3.9c0,2.9,0,5.8,0,8.7c0,1.1,0.2,2.2,0.4,3.3
		c0.1,0.8,0.7,0.8,1.2,0.4c0.9-0.7,1-1.4,0.5-2.4c-0.3-0.7-0.7-1.5-0.7-2.3c-0.1-3.6,0-7.1,0-10.7c0-0.4,0.1-0.8,0.3-1.5
		c2.1,1.9,4,3.5,5.9,5.3c0.2-0.1,0.5-0.2,1.2-0.4c-1.8,2.2-0.4,4.3-0.4,6.4c0,1.8-0.2,3.3-1.6,4.6c-4,3.8-7.8,7.7-11.6,11.6
		c-1.3,1.3-2.2,3-3.3,4.4c-0.8,1.1-1.6,2.1-2.5,3.1c-0.5,0.6-1.1,0.6-1.5-0.1c-0.4-0.6-0.8-1.3-1.2-1.9c-0.8-1.6-1.5-3.2-2.3-4.8
		c-0.7-1.6-0.6-3.4-0.3-5.1c0-0.2,0.1-0.4,0.2-0.5c1.7-1.2,2.1-3.2,2.9-4.8c0.2-0.5,0.5-1,0.8-1.5c1,0.5,1.2,1.1,0.9,2
		c-0.3,0.7-0.3,1.5-0.5,2.2c-0.2,0.5-0.5,1-0.8,1.5c-0.2,0.3-0.4,0.6-0.5,1c-0.2,2.5,0.1,4.9,1.2,7.2c0,0.1,0.2,0.1,0.4,0.3
		c0.1-0.5,0.2-0.9,0.2-1.3c0.2-1.5,0.3-3.1,0.5-4.6c0.1-1.1,0.1-2.1,0.1-3.2c-0.1-1.5,0.3-2.8,1.2-3.9c0.2,0,0.3,0,0.5,0
		c0.1,0.6,0.3,1.3,0.3,1.9c0,0.7-0.3,1.3-0.5,2c-0.3,1.2-0.5,2.3,0.6,3.3c0.8,0.7,0.2,1.6,0,2.4c-0.2,0.7-0.6,1.4,0.6,2.2
		c0.2-1.8,0.6-3.4,0.6-4.9c0.1-3.5,0.1-7,0.2-10.5c0-1.5,0.1-2.9,1.1-4.1C225.9,51.2,225.9,50,225.9,49z M235.9,78.1
		c0.2,2.3-0.2,4.4-1.1,6.8c-2-1.2-3.9-2.1-5.7-3.3c-1.3-0.9-1.6-3.3-0.7-4.6c1.8-2.3,3.6-4.6,5.5-6.8c1-1.1,1.9-0.9,2.1,0.6
		c0.2,1.2-0.1,2.5-0.2,3.8C235.8,75.8,235.8,77,235.9,78.1z M213.6,26.7c1.1,0.8,2.1,1.4,2.9,2.1c0.3,0.3,0.5,1,0.5,1.5
		c-0.1,3.3-0.2,6.6-0.3,9.9c0,1.5,0,3,0,4.5c1.6,0.1,1.9-0.2,1.8-1.6c-0.1-3.2-0.3-6.5-0.3-9.7c0-1.1,0.2-2.1,0.3-3.3
		c1.6,0.9,2.7,2.4,4.6,2.1c1.7,3.5,1.3,7.3,0.5,11.1c-0.1,0.6-0.5,1.1-1.4,1c-1.7-0.3-3.3,1.1-3.7,2.9c-0.2,1.1-0.6,2.2-1,3.2
		c-0.3,0.9-1,0.9-1.6,0.2c-0.8-1.1-1.3-2.3-1.1-3.9c0.3-2.5,0.4-5.1-0.9-7.4c-0.3-0.6-0.5-1.3-0.5-1.9c-0.1-3.1-0.1-6.3-0.2-9.5
		C213.4,27.6,213.5,27.3,213.6,26.7z M212.5,50.1c-1.4-0.6-2.8-0.6-3.5-2.4c2.5,1.1,2.3-0.8,2.7-1.9c0.1,0,0.3,0,0.4,0
		C212.3,47.2,212.4,48.5,212.5,50.1z M210.4,53.1c1.1-0.1,1.6,0.4,1.6,1.3c0,0.3-0.7,0.8-1,0.7C210,54.7,210.6,53.8,210.4,53.1z
		 M197.8,89.1c0.6,0.7,0.1,2.2,0.1,3.4c-0.1,0-0.3,0-0.4,0c-0.1-0.7-0.2-1.5-0.3-2.4c-0.5,0.4-0.8,0.6-1,0.8
		c-0.7,0.6-1.2,0.4-1.4-0.5c0-0.2,0-0.5,0-0.7c0.1-1.8,0.3-3.6,0.4-5.3c0-0.3,0-0.6,0.2-0.8c0.2-0.3,0.6-0.8,0.8-0.8
		c0.3,0,0.8,0.4,0.9,0.8c0.2,0.7,0.2,1.4,0.2,2.1C197.1,86.8,196.8,87.9,197.8,89.1z M197.5,71.7c-0.5,0.5-1,1.1-1.2,1.8
		c-0.5,1.2-1.9,2.2-3.1,2c-0.1,0-0.3,0-0.3-0.1c-0.5-1.1-1.3-2.1-1.5-3.2c-0.3-1.3-0.1-2.6,0-3.9c0-0.3,0.3-0.7,0.5-1
		c0.3,0.2,0.8,0.4,0.9,0.7c0.2,0.7,0.3,1.4,0.3,2.2c0,1.1-0.1,2.2-0.1,3.3c0.2,0,0.3,0.1,0.5,0.1c0.9-0.9,1.4-2,1.5-3.2
		c0-0.8,0-1.5,0.1-2.3c0-0.4,0.4-0.7,0.6-1c0.3,0.3,0.8,0.6,0.9,1c0.2,0.7,0.1,1.4,0.2,2.1c0.1,0.1,0.2,0.1,0.3,0.2
		c0.2-0.4,0.5-0.9,0.7-1.3c0.4-1,0.7-2.1,1.1-3.1c0.1-0.4,0.4-0.7,0.7-1.1c1.8,1.8,1.7,4.4,0.1,5.6C198.8,70.7,198,71.1,197.5,71.7z
		 M187.3,55.2c-0.1-0.2,0.6-0.9,1-1c1.7-0.1,3.4,0,5.1,0c0.1,0.1,0.1,0.1,0.2,0.2c-1.5,1-1.6,2.6-1.8,4.1c0,0.3-0.1,0.6-0.3,0.9
		c-0.4,1-0.8,1.2-1.7,0.5C188.2,58.8,187.7,57,187.3,55.2z M189.6,104c0.2,0.4,0.7,0.8,0.6,1.1c-0.1,1-0.4,1.9-0.8,2.9
		c-0.1,0.4-0.6,0.6-1,0.9c0.2-1.5,0.2-2.6,0.4-3.7C188.9,104.7,189.3,104.3,189.6,104z M178.7,59.1c-0.6-0.5-1.2-0.5-1.8,0.2
		c-0.5,0.6-1,0.6-1.7,0.3c-1.4-0.7-1.4-0.6-2.1,0.9c-0.1,0.1-0.2,0.2-0.4,0.5c-0.8-1.5-0.8-3-0.9-4.6c1.5,0.5,1.5,0.5,1.9-0.9
		c0.4-1.4,1.1-1.7,2.4-1.1c1.2,0.6,2.5,1,2.9,2.6c0.1,0.2,0.4,0.4,0.8,0.7c0.4-1,0.7-1.8,1-2.5c0.5-0.9,0.9-1,1.6-0.2
		c0.4,0.5,0.8,1.1,1.1,1.7c0.7,1.2,1.4,2.5,2.2,3.7c0.6,0.9,0.5,1.5-0.3,2.2c-0.8,0.7-1.5,0.5-2.2-0.1
		C181.8,61.3,180.3,60.2,178.7,59.1z M183.1,79.1c0,1-0.9,1.8-2.7,2.4c0-2.9-0.1-5.7,0-8.4c0-0.7,0.4-1.5,0.8-2.1
		c0.2-0.3,0.9-0.5,1.2-0.4c0.3,0.1,0.6,0.6,0.6,1C183.2,74.1,183.2,76.6,183.1,79.1z M169.8,75.2c-0.5,0.1-1.1-0.1-1.5-0.4
		c-1-0.9-1.9-0.8-2.8,0c-0.3,0.3-0.8,0.5-1.5,0.8c0-1.4,0-2.6,0-3.8c0-0.6,0.2-1.3,0.4-1.9c0.2-0.4,0.6-0.7,0.9-1.1
		c0.2,0.4,0.4,0.8,0.5,1.3c0.2,0.8,0.4,1.6,0.6,2.4c0.2,0,0.4,0,0.5,0c0.2-0.7,0.3-1.4,0.6-2.1c0.2-0.4,0.7-0.6,1-0.9
		c0.3,0.4,0.7,0.8,0.7,1.3c0.1,0.5-0.2,1.1,0,1.6c0.1,0.3,0.6,0.7,0.9,0.7c0.3,0,0.8-0.5,0.8-0.9c0.1-1.1,0.1-2.2,1.4-3.1
		c0.3,0.6,0.6,1.1,0.7,1.7c0.2,0.7,0.3,1.3,1.3,1.2c0.2,0,0.8,0.3,0.8,0.6c0.1,1.4,0.2,2.8-0.4,4.3c-0.5-0.3-0.9-0.5-1.2-0.8
		C172.5,75.1,171.2,75.1,169.8,75.2z M172,88c-0.3,0.7-0.4,1.5-0.5,2.2c-0.1,0-0.2,0-0.3,0.1c-0.1-0.3-0.3-0.5-0.3-0.8
		c-0.2-2.1-0.3-4.2-0.4-6.3c0-0.3,0.3-0.6,0.4-0.8c0.3,0.2,0.7,0.3,0.8,0.5C172.2,84.5,172.6,86.2,172,88z M166.7,45.9
		c0.1,2.5,1.3,4.4,2.9,6.3c0.1,0.1,0.2,0.2,0.2,0.3c0,0.1,0,0.1,0.1,0.4c-0.5,0.1-1,0.2-1.5,0.3c0.4,1.8,0.7,3.5,1.1,5.3
		c-0.2,0.1-0.4,0.1-0.6,0.2c-0.7-1.7-2.6-3-1.6-5.3c0.6-1.4,0.4-2.8-0.5-4c-1.3-1.5-1.2-3.2-1.4-4.9c0-0.5-0.1-1,0-1.6
		c0-0.3,0.3-0.5,0.5-0.8c0.2,0.2,0.6,0.5,0.6,0.7C166.6,43.7,166.7,44.8,166.7,45.9z M166.7,38.5c0.8-1.6,1.7-3.2,2.6-4.8
		c0.2,0.1,0.4,0.2,0.6,0.3c-0.4,0.9-0.7,1.8-1.2,2.7c-0.3,0.7-0.8,1.4-1.2,2c-0.1,0.2-0.4,0.4-0.6,0.5
		C166.9,39.1,166.6,38.7,166.7,38.5z M171.3,50.8c-0.1-0.8,0.7-1.7,1.5-1.4c0.4,0.1,0.6,0.9,1,1.6c-0.5,0.6-0.8,1.4-1.2,1.4
		C171.7,52.4,171.4,51.6,171.3,50.8z M174.5,50.8c0.4-0.6,0.8-1.3,1.2-1.9c0.1-0.2,0.3-0.3,0.5-0.4c0.9-0.4,1.8-0.8,2.7-1.3
		c0.6,1.1,1.2,2.1,1.7,3.2c0.1,0.1-0.3,0.7-0.6,0.7c-1,0.2-2.1,0.2-2.9,0.3c-0.2,0-0.3,0-0.4,0C175.9,51.2,175.2,51,174.5,50.8z
		 M185.2,71.8c0.2-0.7,0.7-0.8,1.2-0.3c0.3,0.3,0.7,0.7,0.8,1.2c0.1,1.9-0.6,3.6-1.8,5.4C184.6,75.8,184.6,73.8,185.2,71.8z
		 M185.4,56.1c-1.1-0.7-1.4-1.3-0.9-2.3c0.3-0.5,0.1-1.3,0.2-1.8c-1.3,0.4-2.3,0.7-3.4,1.1c-0.3,0.1-0.5,0.3-0.7,0.5
		c-0.4,0.3-0.9,1-1.2,0.9c-0.6-0.2-1-0.8-1.5-1.3c1.6-0.6,3-1.1,4.4-1.5c1.2-0.4,1.3-0.7,0.5-1.8c-0.6-0.9-1.2-1.8-1.9-2.6
		c-0.7-1-0.8-1.9-0.1-2.8c0.2-0.3,0.4-0.8,0.5-1.1c-0.1-0.1-0.2-0.2-0.3-0.2c-0.6,0.6-1.1,1.2-1.8,1.8c-0.6,0.5-1,1.5-2.2,0.7
		c0.5-0.6,1-1.2,1.5-1.7c1.3-1.6,1.4-3.4,0.1-5.1c-0.5-0.6-0.9-1.1-0.2-2.2c0.4,0.7,0.7,1.2,1,1.7c0.2,0.4,0.2,0.8,0.5,1.2
		c1,1.7,1.4,1.8,2.9,0.6c1.1-0.8,2.3-1.6,3.3-2.5c1-0.9,0.8-1.3-0.3-1.8c-2-0.7-3.9-1.3-5.9-2c-0.6-0.2-1.2-0.5-1.6-0.9
		c-0.8-0.8-1.5-0.5-2.4-0.2c-0.9,0.4-0.7,0.9-0.6,1.6c0,0.2-0.1,0.5-0.2,0.8c-1.6-0.8-1.9-2-0.7-3.1c0.7-0.6,1.4-1.2,2.1-1.7
		c0.6-0.4,1-0.4,1.3,0.3c0.4,1.1,1.3,1.6,2.3,2c1.9,0.8,3.7,1.6,5.6,2.4c1,0.4,1.9,1,2,2.2c0.1,0.5,0.6,0.9,0.9,1.4
		c0.5-0.5,1-1,1.4-1.5c0.3-0.4,0.5-0.9,0.7-1.3c0.1,0,0.3,0,0.4,0c-0.6,1.2,0.1,1.7,1,2.1c0.7,0.3,1.3,0.9,2,1.4
		c0,0.1-0.1,0.2-0.1,0.3c-0.3,0-0.6,0.1-0.9,0c-1.1-0.1-2.1-0.3-3.2-0.4c-0.9-0.1-1.7,0.2-2.1,1.1c-0.4,1.1-1.1,1.4-2.3,1.1
		c-1.2-0.3-2.4-0.3-3.3,0.8c-0.2,0.3-0.3,0.9-0.2,1.3c0.2,0.9,0.6,1.6,0,2.5c-0.2,0.3-0.2,1.1,0.1,1.4c1.2,1.6,2.2,3.4,4.5,3.6
		c0.6,0,1.3,0.5,2.3,1C186.9,52.9,185,53.5,185.4,56.1z M180.1,35.1c1.5,0.8,2.8,1.6,4.1,2.3c-0.1,0.4-0.1,0.5-0.2,0.5
		c-0.8,0.4-1.7,1.1-2.5,1.2C180.8,39.2,179.8,36.4,180.1,35.1z M183.5,27.4c0.1,0.4-0.4,0.8-0.7,1.2c-0.2-0.4-0.6-0.7-0.7-1.1
		c-0.2-1.3,1.1-2.4,2.8-2.1c-0.3,0.3-0.5,0.5-0.7,0.5C183.6,26.2,183.4,26.6,183.5,27.4z M182.9,31.2c0.7-1,1.1-1.8,1.6-2.5
		c0.8-1.1,1.6-1,2.4,0.1c0.5,0.7,0.8,1.5,1.4,2.5c2.4-4.7,5.8-4.4,9.7-2.3c-0.2,0.3-0.2,0.5-0.4,0.6c-2.3,1.6-4.7,3.2-7,4.7
		c-0.4,0.3-1.1,0.3-1.7,0.2c-3.3-0.4-6-2-8.8-3.6c-0.3-0.2-0.6-0.9-0.5-1.1c0.3-0.5,0.8-1,1.3-1.3c0.1,0,0.6,0.5,0.9,0.8
		C182.1,29.9,182.4,30.5,182.9,31.2z M187.3,26c1.6,0.7,2.8,0.4,4-0.3c0.8-0.5,1.8-0.7,2.7-0.9c0.7-0.1,1.6,0.1,2.3,0.4
		c0.3,0.1,0.4,0.7,0.7,1.1c-0.5,0.1-1,0.5-1.4,0.4c-1-0.5-1.8-0.7-2.7,0.3c-0.1,0.1-0.6,0-0.9,0c-0.8-0.1-1.6-0.1-2.2,0.6
		c-1.2,1.4-1.6,1.3-2.2-0.4C187.5,26.9,187.5,26.6,187.3,26z M197.4,32c-0.1,0.5-0.2,1-0.5,1.3c-0.1,0.1-0.7-0.2-1.1-0.3
		c0-0.1,0-0.3,0-0.4c0.4-0.3,0.8-0.5,1.2-0.8C197.2,31.9,197.3,31.9,197.4,32z M195.9,49.5c-0.4,0.8-2.7,1.3-3.5,0.9
		c-0.3-0.1-0.7-0.4-0.9-0.2c-1.5,1-2.8-0.4-4.3-0.4c-0.5,0-1.1-0.5-1.4-0.9c-0.8-1.5-1.5-3-2.2-4.5c-0.4-0.9,0.1-1.4,0.9-1.6
		c0.7-0.2,1.6-0.5,1.7,0.7c0,0.2,0.1,0.5,0.2,0.7c0.4,0.4,0.8,0.7,1.2,1c0.2-0.4,0.3-0.8,0.5-1.3c0-0.1,0-0.2,0-0.4
		c0-2.9,0.8-3.6,3.6-3c1,0.2,1.8,0.6,2.3,1.6c0.5,1.1,1.1,1.9,2.7,1.4c1.1-0.4,1.5,0.1,1.1,1.2C197.3,46.3,196.6,47.9,195.9,49.5z
		 M195.9,54.7c-0.6-0.8-1-1.4-1.4-2c-0.1-0.2-0.2-0.7,0-0.8c0.2-0.2,0.8-0.4,0.9-0.3c0.5,0.5,1.1,1.1,1.3,1.7
		C196.8,53.7,196.2,54.2,195.9,54.7z M198.4,59.7c-2.2-0.1-2.7-0.9-1.9-2.9c0.7-1.9,1.3-2.6,2.3-3.1c0.1,0.2,0.3,0.4,0.4,0.7
		c0.4,0.9,0.7,1.4,1.7,0.5c0.7-0.7,1.2-0.4,1.3,0.6c0,0.3,0,0.7,0.1,0.9c0.2,0.3,0.5,0.6,0.7,0.9c0.2-0.3,0.4-0.6,0.5-0.9
		c0.1-0.5,0-1.1,0-1.7c0-0.4,0.2-0.8,0.3-1.3c0.4,0.1,0.7,0.2,0.9,0.3c0.9,0.7,1.7,1,2.6,0c0.2-0.2,1-0.1,1.2,0.2
		c0.3,0.4,0.7,1.2,0.5,1.5c-0.9,1.4-2,2.8-3,4.1c-0.2,0.2-0.6,0.2-0.9,0.2C202.9,59.8,200.7,59.8,198.4,59.7z M203.4,43.1
		c-0.1,0.6-0.2,1.1-0.3,1.6c-0.2,0-0.3,0-0.5,0c-0.1-0.5-0.4-1.1-0.3-1.5c0.9-2.6,1.9-5.2,3.1-7.8c1.6,3.5,3.7,6.8,4,11
		C207.1,45.6,205.8,43.4,203.4,43.1z M207.1,47.2c-1.8-0.1-2.7-1-2.4-2.6C205.6,45.6,206.3,46.4,207.1,47.2z M204,47.4
		c1.1,0.6,2.2,1.2,3.3,1.8c0.2,0.1,0.5,0.5,0.5,0.6c-0.1,0.2-0.4,0.6-0.6,0.6c-1.9,0.3-3.7,0.5-5.6,0.6c-1.1,0.1-1.2-0.8-1.1-1.8
		C200.8,46.6,201.6,46.1,204,47.4z M208.7,58.9c0.1-0.1,0.7,0.5,1.3,1c-0.8,0.4-1.3,0.7-1.8,0.8c-0.1,0-0.6-0.5-0.5-0.6
		C208,59.6,208.3,59.2,208.7,58.9z M208.3,23.5c0.1,0.1,0.3,0.2,0.4,0.2c2.5,0.7,3.6,2.3,3.3,5c-0.2,2.2,0,4.4,0,6.7
		c-0.2,0-0.3,0-0.5,0.1c-0.4-0.7-0.7-1.5-1.2-2.2c-0.7-1-1.6-1.9-2.4-2.9c-0.3-0.4-0.8-0.7-0.8-1.1c-0.2-1.7-0.2-3.4-0.2-5.1
		C206.9,23.4,207.5,23,208.3,23.5z M210.9,40.7c-0.8-0.7-2.1-0.9-1.5-2.5c0.3-0.7-0.8-1.3-1.8-0.7c0-0.9,0-1.7,0-2.5
		c0-0.3,0.2-0.6,0-0.8c-0.6-0.8-1.2-1.6-1.9-2.3c-0.8-0.9-1.9-1.5-2.3-2.8C206.7,29.4,211.7,37.2,210.9,40.7z M201.9,21.8
		c0.8-0.6,3.4,0.4,3.5,1.5c0.1,1.4-0.1,2.8-0.2,4.5c-1.2-0.7-2.2-1.2-3.1-1.8C201.2,25.4,201.1,22.5,201.9,21.8z M202.1,28
		c-0.5,0.5-1,0.9-1.4,1.3c-0.5,0.6-0.3,1.1,0.5,1.1c1.1,0.1,2.2,0.1,2.5,1.5c0.3,1,0.4,2-0.1,3c-0.8,1.7-1.5,3.4-2.2,5.1
		c-0.1,0.3,0,0.8-0.1,1.1c-0.2,0.8-0.5,1.6-0.7,2.4c-0.1,0.3-0.1,0.7-0.1,1c0,0.6,0.1,1.2-0.1,1.7c-0.9,1.5-1.6,3-1.4,4.8
		c0,0.3-0.1,0.6-0.3,1c-1.9-1.9-1.8-4,0-5.5c0.5-0.4,0.9-1.3,0.7-1.8c-0.7-2.6,0.6-4.5,1.6-6.7c0.7-1.6,1.3-3.3,1.9-5
		c0.3-0.7-0.1-1.2-0.8-1.3c-0.6-0.1-1,0.2-0.7,0.8c0.4,0.8,0.2,1.4-0.2,2.1c-0.7,1.6-1.5,3.3-2.2,4.9c-0.1,0.2-0.2,0.4-0.5,0.8
		c-1.4-0.8-2.8-1.5-4.2-2.3c-0.7-0.4,0.1-2.4,1.1-2.9c1.5-0.7,2.9-1.5,4.3-2.3c0.7-0.4,0.7-0.8,0.1-2.1c-0.3,0.1-0.5,0.2-0.9,0.4
		c0.1-0.5,0.1-0.8,0.3-1.1c0.3-0.8,0.3-1.5-0.4-2.3c-0.3-0.3-0.6-1.2-0.4-1.5c0.5-0.7,1.1-0.3,1.6,0.1C200.7,27,201.4,27.5,202.1,28
		z M175.2,22.9c0.8-0.6,1.5-1.2,2.6-0.5c0.4,0.3,1.2-0.1,1.8-0.1c0.8-0.1,1.6-0.3,2.4-0.5c0.9-0.2,1.8-0.4,2.7-0.6
		c1-0.3,2-0.6,3.1-0.8c1.7-0.3,3.4-0.5,5.1-0.7c2.3-0.3,4.5,0.7,6.7,1.2c0.7,0.2,0.9,0.6,0.8,1.2c0,0.3-0.1,0.6-0.1,0.8
		c-0.2,1.8-0.3,1.7-2.1,1.6c-4.7-0.4-9.5-0.6-14.2-0.8c-1,0-2,0.5-3,0.8c-1.3,0.4-2.6,0.8-3.9,1.2c-0.5,0.2-0.9,0.5-1.3,0.8
		c-0.4,0.3-0.9,0.6-1.5,1C173.9,25.5,173.6,23.9,175.2,22.9z M173,30c1.1-0.8,2.3-1.6,3.5-2.3c0.1-0.1,0.5,0.2,1,0.5
		c-0.4,0.6-0.6,1.1-1,1.3c-0.9,0.5-1.9,0.9-2.8,1.3c-0.2,0.1-0.6,0-0.8,0C172.8,30.5,172.8,30.1,173,30z M172.7,36.2
		c0.2,0.7,0.5,0.9,1.2,0.5c1.5-0.9,2.2-0.4,2.2,1.4c0,1,0.1,1.9,1,2.6c1.2,0.9,1,2.1-0.2,3.1c-2,1.6-4,3.2-6.1,4.8
		c-0.4,0.3-0.9,0.6-1.5,0.9c-0.8-1.8-1-3.6-1-5.3c0-1.2,0.2-2.5,0.4-3.7c0.2-1.2,0.4-2.3,1.6-3c0.4-0.3,0.6-1,0.9-1.5
		c0.2-0.4,0.4-0.9,0.6-1.3c0.1,0,0.3,0,0.4,0C172.4,35.2,172.6,35.7,172.7,36.2z M129.7,49.2c-1.6-2.6-1.5-3.7,0.7-5.8
		c1.4-1.3,2.8-2.6,4.3-3.8c0.3-0.2,0.9-0.5,1.1-0.3c0.3,0.2,0.6,0.8,0.6,1.2c-0.1,1.9-0.3,3.7-0.5,5.6c-0.1,0.7-0.1,1.4,0,2.1
		c0.1,0.3,0.6,0.5,0.9,0.8c0.2-0.3,0.5-0.6,0.6-0.9c0.2-1.6,0.3-3.2,0.4-4.8c0.1-1.1,0.1-2.2,0-3.2c-0.1-1.4,0.4-2.4,1.5-3.2
		c1.6-1.1,3.2-2.1,4.7-3.1c0.1,0.1,0.3,0.2,0.4,0.3c0,1.6,0,3.2,0,4.8c0,3.2,0,6.4,0,9.6c0,0.4,0.5,0.8,0.8,1.2
		c0.2-0.4,0.6-0.8,0.6-1.2c0.1-2.6,0-5.3,0-7.9c0-1.9,0.1-3.7,0.2-5.6c0-0.1,0-0.2,0.1-0.4c0.5-2.2,1.4-2.5,3.3-1.5
		c2,1.1,2.3,2.1,1.2,4.3c-0.2,0.5-0.4,1.2-0.2,1.8c0.4,1.5,0.8,3,1.5,4.4c0.5,1,0.3,1.8,0,2.7c-0.3,0.7-0.3,1.5-0.4,2.2
		c-0.1,1.1-0.1,2.2-0.2,3.3c-0.2,1.3-0.4,2.5,0.4,3.7c0.1,0.2,0.2,0.4,0.4,0.4c1.8,0.3,2.3,2.1,3.4,3.2c0.2,0.2,0.2,0.4,0.3,0.6
		c0.3,1.1,0.6,2.2,1,3.3c0.1,0.3,0.3,0.7,0.5,0.8c1.8,0.8,1.3,2.3,0.8,3.4c-0.5,1.2-0.3,2.1,0.3,3c1.1,1.7,0.9,3.4-0.2,4.9
		c-0.3,0.4-0.8,0.6-1.2,0.8c-0.2-0.4-0.5-0.9-0.4-1.3c0.7-2.9-0.2-5.3-1.8-7.6c-0.5-0.8-0.6-2-1.2-2.7c-1-1.3-2-2.6-3.3-3.6
		c-2.1-1.6-4.2-3.2-6.6-4.4c-1.8-0.9-4-1.4-6-1.9C134.4,53.7,131.6,52.2,129.7,49.2z M153.9,85.8c-0.1-0.3,0-0.5,0-0.8
		c2,0.6,2.3,4.7,0.5,7.3c-0.4-0.8-0.7-1.4-1-2.1c-0.1-0.2-0.1-0.5,0-0.7C154.4,88.4,154.1,87.1,153.9,85.8z M154.7,98.9
		c1,0.3,1.2,1.1,1.1,2c-0.2,1.9-0.5,3.8-0.8,5.7c-0.2,1-0.7,1.7-1.7,2.2c-0.9,0.5-1.7,1.3-2.8,2.2c-0.4-1.9-0.8-3.8-1.1-5.7
		c0-0.2,0-0.4,0.1-0.6c0.9-1.6,1.8-3.3,2.7-4.9C152.8,98.8,153.7,98.7,154.7,98.9z M139.9,66.9c0.1-0.5,0.4-0.9,0.6-1.4
		c0.2,0,0.3,0,0.5,0.1c0.1,0.7,0.2,1.4,0.4,2c0.2,0.5,0.6,1,0.8,1.6c0.2,0.7,0.4,1.5,0.5,2.2c0.1,0.8-0.2,1.6-0.1,2.4
		c0,0.4,0.5,0.7,0.8,1c0.3-0.3,0.7-0.7,0.8-1c0.1-1.2,0-2.5,0-3.7c0-1,0.1-1.9,0.3-2.8c0.1-0.3,0.6-0.6,0.9-0.8
		c0.3,0.3,0.8,0.6,0.8,1c0,0.8-0.1,1.6-0.3,2.3c-0.6,1.8-0.6,3.5,0.6,5.1c0.1,0.2,0.2,0.4,0.3,0.6c1,2.1,1,2.1-0.8,3.4
		c-0.2,0.2-0.6,0.4-0.7,0.7c-0.5,2.7-3.2,2.2-4.5,3.6c-0.2-0.1-0.3-0.1-0.5-0.2c-0.2-1.5-0.5-3-0.5-4.6c0-3.2,0.1-6.4,0.2-9.6
		C139.9,68.3,139.8,67.6,139.9,66.9z M134.2,95.3c0-0.6,0.4-1.3,1.2-1c0.4,0.2,0.9,0.8,0.9,1.2c0.2,1.1,0,2.2,0.2,3.2
		c0.2,0.9,0.5,1.8,0.9,2.7c0.6,1.4,0.5,2.9,0.1,4.3c-0.2,0-0.4,0-0.5,0.1c-0.2-1.3-0.3-2.5-0.5-3.8c-0.1,0-0.2-0.1-0.3-0.1
		c-0.1,0.4-0.3,0.8-0.4,1.2c-0.2,1.2-0.3,2.5-0.6,3.6c-0.1,0.4-0.7,0.8-1,1.2c-0.3-0.5-0.8-1-0.8-1.4
		C133.6,102.8,133.9,99.1,134.2,95.3z M129.1,106.7c-0.2-0.4-0.6-0.7-0.7-1.1c-0.1-0.5-0.1-1.1-0.1-1.7c0,0-0.1,0-0.1,0
		c0.2-0.9,0.3-1.8,0.6-2.7c0.6-2.2,1.1-4.3,1.8-6.4c0.2-0.7,0.6-1.3,1-1.9c0.2-0.2,0.6-0.5,0.8-0.4c0.2,0.1,0.6,0.6,0.5,0.8
		c-0.5,2.5,0.1,5.2-1.2,7.6c-0.8,1.5-1.2,3.2-1.8,4.8C129.8,106.1,129.4,106.4,129.1,106.7z M132.4,128.5c-0.6,1.2-1.2,2.5-0.9,3.9
		c0,0.1,0.1,0.3,0,0.5c-1.2,2.8-0.4,5.8-0.8,8.6c-0.1,0.6-0.1,1.2-0.2,1.8c-0.2,0-0.3,0-0.5,0c-0.1-0.9-0.3-1.8-0.3-2.7
		c0-1.2,0-2.4,0.1-3.6c0.1-2.9,0.3-5.9,0.5-8.8c0-0.3,0.1-0.6,0.3-0.8c0.3-0.4,0.6-0.8,1-0.9c0.2-0.1,0.8,0.4,0.9,0.8
		C132.6,127.5,132.6,128.1,132.4,128.5z M134,135.4c-0.9-2.3-0.4-4.5-0.6-6.8C135.1,129.2,135.3,133.5,134,135.4z M141.3,119.1
		c-0.6,0.5-1.7,1-2.2,0.7c-2.1-1-4-1-6.1-0.1c-0.6,0.3-1.4,0.1-1.6-0.8c-0.3-0.9,0.2-1.8,1-2.1c0.3-0.2,0.6-0.6,0.8-0.9
		c0.1-0.3,0-0.7,0.1-0.9c0.2-0.5,0.6-1.3,0.8-1.3c0.8,0.1,1.4,0.7,1.4,1.6c0,0.5,0.2,1.1,0.3,1.6c0.2,0,0.3-0.1,0.5-0.1
		c0.1-0.1,0.2-0.2,0.2-0.3c0.2-0.7,0.3-1.6,1.4-1.5c1.1,0.1,2.3-0.1,2.8,1.3c0.1,0.4,0.4,0.7,0.5,1.1
		C141.3,118,141.6,118.9,141.3,119.1z M141.8,100.8c0.1,2.6,0,5.2,0.1,7.8c0,0.9,0.5,1.8,0.6,2.6c0.1,0.6-0.1,1.1-0.1,1.7
		c-0.5-0.2-1.1-0.3-1.6-0.6c-1-0.8-2-1.7-2.7-2.3c0.1-1.6,0.3-2.9,0.3-4.3c0.1-2.5,0.2-5,0.2-7.5c0-0.4-0.2-1-0.6-1.2
		c-1.1-0.8-1.3-1.4-0.7-2.9c0.6,0.5,1.1,1.1,1.7,1.6c0.2,0.2,0.6,0.1,0.9,0.2c0.1-0.9,0.3-1.7,0.4-2.5c0.1,0,0.2,0,0.3,0
		c0.1,0.7,0.1,1.5,0.2,2.2c0.1,0.3,0.4,0.6,0.5,0.9c0.4-0.3,1-0.5,1-0.8c0.1-1.3,0.6-2.3,1.7-3.1c0.7-0.5,0.6-1.2-0.1-2.1
		c-0.6,0.7-1.1,1.4-1.9,2.3c-0.5-2-0.5-3.7,0.5-5.1c0.8-1.1,2-2,3.1-3c0.2-0.2,0.8-0.3,1-0.1c0.2,0.2,0.3,0.7,0.3,1.1
		c0,0.1-0.1,0.3-0.1,0.5c-1.5,2.4-1.1,5-1,7.5c0,1.1-0.1,2.3-0.2,3.8c0.6-0.5,1-0.8,1.3-1.1c0.5,0.1,0.9,0.3,1.6,0.4
		c0-1.5,0-2.8,0-4.1c0-0.2-0.2-0.5-0.4-0.5c-1.1-0.3-1.1-1.2-1-2.1c0.1-1.3,0.1-2.6,1.8-3.2c1-0.4,1.5-1.4,1.3-2.6
		c-0.1-0.6-0.3-1.3-0.3-1.9c0-0.4,0.3-0.8,0.4-1.2c0.4,0.2,0.9,0.3,1.3,0.6c0.2,0.2,0.3,0.7,0.3,1c-0.1,1.8-0.3,3.6-0.5,5.3
		c-0.1,0.9-0.1,1.8-0.1,2.7c0,0.8,0.1,1.7,0.1,2.5c0,3.2-1.7,5.2-5,5.5c-1.1,0.1-2.2,0.2-3.3,0.3C142.4,99.3,141.8,99.6,141.8,100.8
		z M143.4,109.4c-0.1-0.9,0.6-1.9,1-3.2c1.5,1.5,1.7,6.2,0.6,8.5C144.4,112.9,143.7,111.2,143.4,109.4z M144.8,118.8
		c1.2,0.5,2.4,2.4,2.3,3.7C145.8,122.4,144.5,120.2,144.8,118.8z M159.1,181.8c-0.5,1.7-1.3,3.2-1.9,4.7c0-0.1-0.2-0.5-0.2-0.8
		c-0.2-1.4-0.7-2.7-1.7-3.9c-0.5-0.6-0.7-1.5-1-2.2c-0.6-1.6-1.1-3.2-1.9-4.7c-1-1.6-2.3-3-2.7-5c-0.1-0.4-0.3-0.9-0.6-1
		c-2.4-1.1-1.8-3.3-1.9-5.2c-0.1-1.6,0.2-3.2,0.4-4.8c0.1-0.8,0.4-1.7,0.6-2.5c0.1-0.4,0.2-0.9,0.1-1.3c-0.8-1.8-0.5-3.6-0.2-5.5
		c0.2-1.2,0.4-2.4,0.3-3.6c-0.3-3.2,0.2-6.3,0.7-9.5c0.2-1.1,0.1-2.3,0.1-3.5c0-0.5,0.1-0.9,0.1-1.5c0.6,0.2,0.9,0.4,1.4,0.6
		c0.2-1.1,0.2-2.1,0.4-3.1c0.3-1.2,0.7-2.3,1.1-3.5c0.3-1,0.6-2,1-3.3c1.1,1.3,2.1,2.6,2.8,4.1c0.1,0.2-0.3,0.6-0.5,0.8
		c-1.1,0.6-1.8,1.5-2.1,2.8c-0.3,1.4-1.2,2.3-2.1,3.2c-0.4,0.4-0.5,1.1-0.7,1.7c0.8,0,1.6,0,2.4-0.1c0.3,0,0.4-0.4,0.7-0.6
		c0.6-0.3,1-0.3,1.5,0.4c1.4,1.8,2,3.9,2,6.1c0,0.3,0.2,0.5,0.3,0.8c0.4-0.1,0.7-0.2,1.1-0.3c0,0.1,0,0.2,0,0.3c0,0,0,0.1,0,0.1
		c-1.5,1.1-1.3,2.2-0.2,3.2c-1.4,2.2-1.5,4.6-1.5,6.9c0,1.5,0.1,3.1,0.2,4.6c0.2,2.4,0.5,4.8,0.7,7.2c0.3,4.4,0.6,8.8,0.9,13.3
		c0.1,0.8,0.2,1.5,0.3,2.2C159,180.1,159.3,181,159.1,181.8z M158.4,126.1c-0.2,0-0.3,0-0.5,0c-0.3-0.7-0.7-1.4-0.9-2.2
		c-0.3-1.5-1.1-2.6-2.3-3.5c-0.9-0.6-1.8-1.4-2.6-2.1c-1-0.9-1.2-2-0.6-3.1c0.5-1.1,1.8-1.8,3-1.5c0.8,0.2,1.1,0.6,0.7,1.4
		c-0.4,0.7-0.9,1.4-1.2,2.2c-0.1,0.3,0,1.1,0.2,1.2c0.4,0.2,1,0.1,1.5,0.1c0,0,0.1-0.1,0.1-0.1c2.3-1.8,3.8-1.2,4.1,1.6
		C159.9,122.3,159.4,124.3,158.4,126.1z M161.4,52.9c-0.2,0.4,0,1-0.1,1.5c0,0.4,0,0.9-0.2,1.1c-0.2,0.2-0.8,0.1-1-0.1
		c-3-1.7-4.5-4.6-5-7.8c-0.6-3.7-0.7-7.6-1-11.3c-0.1-1.1,0.2-1.9,1-2.7c1.1-1.2,2.2-2.4,3.3-3.6c0.2,0.1,0.3,0.2,0.5,0.3
		c0.4,1.9,0.7,3.8,0.4,5.8c-0.4,2.2-0.8,4.5-1.2,6.7c-0.1,0.7-0.4,1.7,0.8,1.8c1.1,0.1,1.4-0.7,1.5-1.6c0.2-3.4,0.4-6.8,0.5-10.2
		c0-0.6,0-1.2,0.1-1.8c0.2-1.9,1.4-3,3.5-3.4c-0.1,1.5-0.2,2.9-0.3,4.4c0,0.5-0.2,1.1-0.1,1.5c0.1,0.5,0.5,0.9,0.7,1.3
		c0.3-0.4,0.8-0.8,0.8-1.2c0.2-1.7,0.3-3.5,0.5-5.2c0-0.4,0.1-0.8,0.2-1.2c0.4-1.9,0.4-1.8,2.3-1.9c0.5,0,1.1-0.4,1.6-0.6
		c1.2-0.7,1.6-0.5,1.7,0.9c0.2,2.3-0.1,4.1-2.1,5.8c-1.4,1.1-2.2,3-3.2,4.5c-0.4,0.7-0.7,1.5-1.2,2.1c-2.2,2.6-2,5.7-2.4,8.7
		c0,0.3,0.1,0.6,0.2,0.8c0.4,0.8,0.2,1.6-0.2,2.4C162.4,50.7,161.8,51.8,161.4,52.9z M167.2,118.3c0,0.2-0.1,0.4-0.3,0.6
		c-0.6-0.6-0.6-0.6-1-3.9c-0.5,0.6-1,1.3-1.4,1.9c-0.9-0.7-0.8-2.6,0.1-3.3c0.5-0.4,0.9-1.1,1.2-1.8c0.4-0.9,0.6-1.8,0.8-2.8
		c0.2,0,0.4,0,0.6,0c0.2,0.7,0.6,1.3,0.6,2C167.7,113.5,167.4,115.9,167.2,118.3z M169.1,118.7c-0.3-0.4-0.7-0.8-0.8-1.3
		c0-0.2,0.5-0.6,0.8-0.9c0.3,0.3,0.5,0.7,0.9,1.1C169.7,118,169.4,118.3,169.1,118.7z M170.1,96.1c0-0.4-0.2-0.8-0.3-1.4
		c-1.3,0.7-1.1,1.8-1.1,2.7c0,1,0.1,2,0.1,2.9c-0.1,0.1-0.3,0.1-0.4,0.2c-0.3-0.3-0.5-0.6-0.9-0.9c-0.5-0.4-1.2-1-1.6-0.9
		c-0.5,0.1-0.9,0.9-1.1,1.5c-0.3,0.9-0.5,1.9-0.9,2.9c-1.3-1.3-1.5-2.8-1.4-4.4c0.2-1.8,0.4-3.7,0.7-5.5c0.1-0.5,0.5-1,0.8-1.5
		c0.3-0.5,0.7-1.1,0.7-1.6c0-0.3-0.6-0.7-1-1c-0.3-0.2-0.6-0.4-1-0.6c0.4-0.6,0.8-1.2,1.2-1.7c0.9-1.6,1.8-3.2,2.7-4.8
		c0-0.1,0.1-0.1,0.1-0.2c0.5-0.7,1-1.6,2-1.2c0.8,0.4,0.8,1.3,0.6,2.2c-0.3,1.2-0.4,2.4-0.6,3.7c-0.1,0.4-0.2,0.7-0.3,1.1
		c-0.1,0-0.2,0-0.4,0.1c-0.2-0.4-0.4-0.9-0.6-1.3c-0.2-0.3-0.4-0.7-0.7-1c-0.3,0.3-0.8,0.4-0.9,0.8c-0.2,0.4-0.3,0.9-0.2,1.4
		c0.6,2.7-0.5,5.2-0.6,7.8c0,0.4-0.4,0.7-0.6,1.1c-0.2,0.6-0.4,1.2-0.4,1.9c1.4-1.8,3.2-3.3,2.4-6.1c3,0,4.2,1,5.4,4.4
		c1-0.4,0.9-1.2,0.9-2c0-1.1-0.1-2.2-0.2-3.2c0-0.5,0.1-0.9,0.2-1.6c1.1,0.7,1.8,1.4,1.8,2.5c-0.1,1.3,0.1,2.7-1.1,3.7
		c-0.7,0.6-0.5,1.6,0.4,2.2c0.2,0.1,0.4,0.3,0.8,0.5c-0.5,0.7-1,1.3-1.3,2.1c-0.3,0.7-0.4,1.5-0.6,2.2c-2.2-0.4-2.6-0.9-2.5-3
		C170.2,98.9,170.2,97.5,170.1,96.1z M172.5,110.4c-0.2-0.9-0.3-1.8-0.5-2.8C173.2,108.1,173.4,109,172.5,110.4z M171.1,112.1
		c-1.3-1.1-1.3-1.7,0.2-2.5C171.3,110.5,171.2,111.2,171.1,112.1z M172.2,117.4c-0.4-1.4-0.8-2.6,0.3-3.8c0.3-0.3,0.2-1,0.4-1.5
		c0.2-0.4,0.5-0.6,0.7-1c0.3,0.3,0.8,0.7,0.8,1c0,1.3-0.2,2.6-0.5,3.9C173.8,116.9,173.2,117.4,172.2,117.4z M186.4,104.9
		c-0.6-0.4-1.1-0.4-1.7,0.2c-0.6,0.6-1.4,1.1-2,1.7c-0.3,0.3-0.6,0.7-0.7,1c-0.3,0.9-0.6,1.8-0.9,2.7c-0.1,0.4-0.2,0.8-0.3,1.2
		c-0.4,2.7-0.9,5.4-1.2,8.1c-0.1,0.4,0.2,0.8,0.4,1.2c1,1.5,1.7,3,1.8,4.9c0.1,1.2,0.4,2.4,0.5,3.6c0.1,2.3,0,4.7,0.1,7
		c0.1,1.3,0.3,2.5,0.6,3.8c0.1,0.3,0.6,0.5,0.9,0.6c0.8,0.2,1.3,0.5,1.3,1.4c0.1,2.6,0.1,5.2,0.2,7.9c0,0.4-0.1,0.8-0.3,1.2
		c-0.4,1.3-0.5,2.4,0.3,3.6c0.3,0.5,0.5,1.5,0.3,2.1c-0.8,1.9-0.9,3.6-0.2,5.6c0.4,1.1,0.5,2.5,0.2,3.6c-1,3-0.6,6-0.5,9
		c0.1,3.1,0.1,6.2,0.2,9.2c0,0.5-0.1,1-0.2,1.8c-1.4-0.7-2.1-1.7-2.7-2.8c-1.5-2.8-3-5.6-4.6-8.4c-1.3-2.2-1.7-4.6-2.1-7.1
		c-0.1-0.6,0.1-1.2,0.3-1.7c1.2-2.2,2.7-4.3,5.1-5.4c1.2-0.5,1.7-2.3,1.2-3.8c-0.8-2.8-1-5.5,0.2-8.2c0.1-0.3-0.1-0.9-0.4-1.1
		c-0.9-0.8-1.3-1.7-1.5-2.9c-0.6-5.7-1.3-11.4-1.9-17.1c-0.2-1.5-0.6-2.8-2-3.8c-0.9-0.7-1.7-1.6-2.6-2.3c-0.9-0.7-0.9-1.6-0.6-2.5
		c2.7,0.5,4.4-1,4.9-4.3c0.1-1.1,0.3-2.1,0.4-3.2c0.1-1,0-2-0.6-2.9c-0.6-0.9-0.9-1.9-1.2-3c-0.2-0.8-0.3-1.7,0.9-2
		c0.2,0,0.4-0.2,0.5-0.4c0.8-1.3,1.6-2,3-0.7c0.1,0.1,0.3,0.1,0.3,0.1c0.5-0.6,1.2-1.1,1.5-1.8c0.3-0.6,0.5-1.8,0.3-1.9
		c-2.1-1.3-2.1-3.5-2.4-5.5c-0.2-1-0.2-2.1-0.3-3.1c-0.1-1.1,0-2.2,0.6-3.2c0.6-0.9,0.7-2,1.1-3c0.5-1.2,1.4-1.9,2.6-2.2
		c0.8-0.2,1.3,0,1.4,0.8c0.1,0.7,0.1,1.3,0,2c0,0.7-0.1,1.4-0.1,2.1c1.8,0.4,1.9,0.5,1.9,2.2c0,2.2,0,4.3-0.2,6.5
		c-0.2,2.9-0.5,5.9-0.8,8.8c0,0.5-0.2,0.9-0.3,1.5C187,105.3,186.7,105.1,186.4,104.9z M188.5,147.2c-0.8-3.1-0.5-5.9-0.2-8.8
		C189.8,139.3,190,145.2,188.5,147.2z M196.1,132.1c-0.4,0.7-1.3,1.2-1.9,1.8c-0.6-0.7-1.4-1.3-1.7-2.2c-0.7-1.7-0.5-3.6,0.2-5.2
		c1.3,0.4,1.5-0.5,1.6-1.3c0.2-1.5,0.3-3,0.4-4.5c1.9-0.5,2.4-2.1,1.5-4.7c-0.5,0.8-0.8,1.7-1.5,2.1c-0.6,0.4-1.6,0.4-2.6,0.5
		c1.2,1.8,0.9,3.5,0.7,5.1c0,0.3-0.5,0.7-0.8,0.7c-1-0.2-0.9,0.4-0.9,1.1c0.1,1.7,0.1,3.4,0.2,5.1c0,0.5-0.2,1-0.3,1.4
		c-0.2,0-0.3,0-0.4,0c-1.9-2-2.9-4.4-3.6-7c0-0.1,0-0.4,0-0.5c1.5-1.4,0.6-3.2,0.7-4.7c0.1-1.6,0.2-3.2,0.4-4.8
		c0.1-0.5,0.5-1,0.8-1.5c0.1,0,0.2,0,0.4,0.1c0.2,0.4,0.3,0.8,0.5,1.3c0.2,0.7,0.5,1.3,0.7,2c0.2,0.5,0.4,1.1-0.4,1.4
		c-0.9,0.4-1.2,1-0.8,1.9c0.2,0.5,0.2,1,0.4,1.5c0.2,0.6,0.5,1.3,1.2,0.9c0.5-0.3,0.9-1,1-1.5c0.1-0.6-0.4-1.3-0.5-2
		c0-0.4,0.2-0.8,0.4-1.2c0-0.1,0.3-0.1,0.3-0.2c0.5-1.5,1.6-2.1,3.1-2.1c0.3,0,0.5-0.7,0.9-1.1c0.3-0.3,0.8-0.6,1.2-0.9
		c0.3,0.4,0.7,0.8,0.7,1.3c0.1,0.8,0,1.7-0.1,2.5c-0.4,1.9-0.8,3.8-1.2,5.7c-0.1,0.3-0.2,0.7-0.1,0.9c0.1,0.4,0.4,0.7,0.7,1.1
		c0.2-0.3,0.6-0.6,0.7-0.9c0.2-0.5,0.2-1.1,0.3-1.6c0.1-0.3,0.3-0.5,0.8-0.7c0,0.4,0.1,0.9,0.1,1.3
		C198.4,126.4,197.6,129.4,196.1,132.1z M197.4,145.8c-0.2,0.1-0.8-0.1-0.9-0.3c-0.1-0.4-0.1-0.9,0-1.4c0.2-1.2,0.4-2.5,0.7-3.7
		c0.1-0.4,0.2-0.7,0.4-1.2C199.8,140.9,199.6,144.5,197.4,145.8z M199.1,103.9c-0.4-0.1-0.8-0.2-1.1-0.5c-0.4-0.3-0.6-0.6-0.9-0.9
		c-0.2-0.2-0.4-0.5-0.6-0.5c-1.4,0-2.8,0.1-4.2,0.2c-0.4,0-0.8,0.3-1.3,0.4c-0.6,0.1-1.1-0.1-1.2-0.8c-0.3-2.4-0.7-4.7,0.4-7.1
		c0.3-0.7,0.4-1.4,0.5-2.2c0.1-0.8-0.2-1.8,1-2.1c0.1,0,0.2-0.5,0.2-0.7c0-0.5-0.2-1-0.1-1.4c0.1-0.5,0.3-1,0.5-1.4
		c0.3,0.4,1,0.7,1,1.1c0,1.3-0.2,2.5-0.4,3.8c0,0.1-0.2,0.3-0.3,0.3c-1.2-0.1-1,0.9-1.1,1.6c-0.3,2-0.5,4-0.7,6
		c0.2,0.1,0.4,0.1,0.6,0.2c0.2-0.5,0.4-1.1,0.5-1.6c0.1-0.3,0-0.6,0-0.8c-0.1-2.4-0.4-2.2,2.7-3.8c-0.3,0.7-0.5,1.3-0.7,1.8
		c-0.3,0.8-0.5,1.6,0.3,2.2c0.5,0.3,1.2,0.6,1.7,0.5c0.3,0,0.5-0.8,0.7-1.3c0.2-0.7,0.2-1.4,0.3-2c0.2,0,0.4,0,0.6,0
		c0,1.2,0,2.3,0,3.5c0,0.5-0.2,1-0.2,1.5c-0.1,1.6,0.2,1.8,1.8,1.1c0.1,0.7,0.2,1.4,0.1,2C199.5,103.2,199.2,103.5,199.1,103.9z
		 M204.1,108.1c-1.1-0.9-2.1-1.6-3.1-2.5c-0.3-0.3-0.4-0.9-0.4-1.3c0-1.6,0.2-3.1,0.2-4.7c0-0.7-0.1-1.3-1.1-1.1
		c-0.2,0-0.7-0.5-0.7-0.7c0.1-1.1,0.4-2.2,1.3-2.9c1.9,1,2.4,1.8,2.2,3.9c-0.1,1.7-0.2,3.3-0.3,5c-0.1,0.7,0.2,1.2,0.8,1.5
		C204.7,106.1,204.7,106.2,204.1,108.1z M209.2,112.4c-0.1,0.9-0.4,1.9-0.5,2.8c0,0.5,0.2,1.1,0.3,1.7c0.1,0.5,0.2,1,0,1.4
		c-0.5,1-1,2-1.6,3c-0.2,0.3-0.5,0.8-0.7,0.8c-0.3,0-0.8-0.4-1-0.7c-0.3-0.9-0.5-1.8-0.5-2.7c-0.1-2.8-0.3-5.6-0.2-8.4
		c0.1-2.2,0.5-4.4,0.8-6.6c0.1-0.9,0.1-1.7-0.8-2.5c-0.4-0.4-0.3-1.5-0.4-2.5c1.9,1.6,3.4,3.2,3.9,5.3c0.2,0.6-0.1,1.3-0.1,2
		c0,0.9-0.3,1.9,0.1,2.6C209.3,109.9,209.4,111.1,209.2,112.4z M208.8,87.4c-0.2,0.4-0.6,0.8-0.9,1.2c-0.4-0.3-0.8-0.6-1.1-1
		c-1-1.6-2-3.2-2.9-4.9c-0.4-0.7-0.4-1.5-0.8-2.2c-0.6-1.2-1.4-2.3-2.1-3.5c-0.7-1.2-0.6-1.7,0.7-2.4c0.8-0.5,1.4-0.4,1.7,0.7
		c0.1,0.4,0.7,0.8,1,1.1c0.2-0.5,0.5-1,0.6-1.5c0.1-0.3,0-0.6,0-0.9c-0.1,0-0.2-0.1-0.3-0.1c0.4-1.2,0.8-2.4,1.2-3.5
		c0.4-1.1,0.9-2.2,1.5-3.2c0.7-1.3,1.1-1.3,2.3-0.5c0.9,0.6,1.4,1.4,1.4,2.6c0.1,2.5,0.5,5,0.6,7.5c0.1,2.6,0.2,5.2-1.4,7.5
		C209.5,85,209.3,86.3,208.8,87.4z M210.5,116.7c-0.7-1.2-0.6-2.2-0.4-3.2c0.2-0.8,0.5-1.6,0.5-2.4c0.2-2.9,0.2-5.9,0.3-8.8
		c1.4,1.8,2.1,3.7,2.4,5.9c0,0.3,0,0.7,0.1,0.9C214.6,112.4,212,114.2,210.5,116.7z M212.1,127.5c-0.8-0.7-0.8-1.6-0.6-2.5
		c0.1-0.4,0.5-0.7,0.9-1c0.1-0.1,0.7,0.2,0.7,0.4c0.1,0.5,0.2,1,0.1,1.4C213,126.4,212.5,126.9,212.1,127.5z M213.9,133.1
		c0,0.2-0.3,0.4-0.5,0.6c-0.2-0.2-0.5-0.4-0.5-0.5c0.1-1.6,0.2-3.3,0.4-4.9c0-0.1,0.2-0.2,0.6-0.5c0.1,0.8,0.3,1.4,0.3,2
		C214.1,130.9,214,132,213.9,133.1z M232.7,138.2c0,1,0,1.8-0.9,2.4c-0.3,0.2-0.4,0.8-0.4,1.2c0.1,1.4,0.4,2.8,0.5,4.2
		c0.1,1-0.1,1.9-0.1,3c-0.3-0.1-0.4-0.1-0.4-0.1c-0.3-1.4-1.2-2.1-2.4-2.8c-4.2-2.4-4.8-6.5-4.9-10.7c-0.1-2.2-0.4-4.1-1.7-6
		c-1.2-1.7-1.9-3.8-2.9-5.7c-0.6-1-1.3-2-2.1-2.9c-1.1-1.3-1.2-3.2-0.3-4.3c0.1-0.2,0.4-0.3,0.8-0.5c0.2,1.3,0.4,2.3,0.5,3.4
		c0.1,0.8,0.4,1.3,1.3,1.6c0.5,0.1,1,0.7,1.2,1.2c0.9,2.3,1.8,4.6,2.6,7c0.1,0.3,0.3,0.5,0.4,0.7c0.6-0.2,1.1-0.5,1.9-0.8
		c0,2.1,0,3.9,0,5.8c0,0.4,0,0.9,0.1,1.3c0.1,0.4,0.4,0.7,0.7,1.1c0.4-0.3,0.8-0.6,1.1-0.9c0.3-0.3,0.4-0.7,0.7-1
		c0.1,0,0.3,0.1,0.4,0.1c0,0.6,0,1.2,0,1.8c-0.1,1.4-0.2,2.8-0.3,4.2c0,0.3,0.2,0.7,0.6,1.1c1.3-1.9,0.4-4.3,1.3-6.3
		c0.9,0.1,0.9,0.1,1.3,2.3c0.2,0,0.3,0,0.5-0.1C232.4,138.2,232.5,138.2,232.7,138.2z M218.5,115.2c0.1-0.2,0.2-0.3,0.3-0.5
		c0.7-0.3,1.4-0.8,2.1-0.8c0.4,0,0.9,0.9,1.1,1.5c0.6,1.6,0.1,3.1-1.2,3.9C220.5,117.6,221.1,115.7,218.5,115.2z M227.8,128.2
		c-0.3-0.4-0.4-1.1-0.6-1.7c-0.2-0.5-0.4-1.1-0.6-1.6c-0.2,0-0.3,0-0.5,0c-0.2,0.6-0.3,1.3-0.6,1.9c-0.1,0.3-0.6,0.8-0.7,0.8
		c-0.4-0.1-0.9-0.4-1-0.8c-0.2-0.8-0.2-1.7-0.2-2.5c0-1.2,0.2-2.4-1.2-3.1c-0.3-0.2-0.2-0.9-0.3-1.3c0.4,0.1,0.8,0.1,1.1,0.3
		c1,0.6,2,1.2,2.9,1.8c0.9,0.6,1.4,1.4,1.7,2.5c0.3,1.1,0.9,2,1.3,3.1c0.2,0.6,0,1.2,0,1.9C228.8,129,228.2,128.7,227.8,128.2z
		 M228.3,133.7c-0.5-0.9-0.8-1.7,0-2.6C229.4,132.1,229.4,133,228.3,133.7z M236.5,118.4c-0.6,0.7-1,1.6-1.4,2.3
		c-0.8,1.3-1.3,1.4-2.2,0.2c-1-1.3-2-2.6-3-3.9c-0.8-1-1.7-2.1-2.7-2.9c-1.3-1-1.8-2.2-1.6-3.8c0-0.4,0.5-0.8,0.7-1.1
		c0.4-0.5,1-0.9,1.2-1.4c0.5-1.1,0.1-1.8-1.2-1.9c-1.5-0.1-2.9-0.1-4.4-0.2c-0.5,0-1.1-0.3-1.3-0.6c-1.5-1.7-3-3.5-4.2-5.4
		c-1.1-1.8-0.6-3.9-0.4-5.8c0.1-1.1,0.3-2.1,0.4-3.2c0.1-0.9-0.4-1.5-1.2-1.4c-0.3,0-0.7,0.9-0.8,1.5c-0.1,0.7,0.2,1.4,0.2,2.1
		c0,0.3-0.2,0.6-0.4,0.8c-0.3-0.1-0.7-0.2-0.9-0.5c-0.3-0.5-0.6-1-0.6-1.5c0-2.2,1-3.9,2.8-5.1c0.6-0.5,1.1-0.5,1.6,0.2
		c1.7,2,1.7,1.9,3-0.3c0.5-0.9,1.4-1.7,2.2-2.4c0.5-0.5,1-0.3,1.4,0.2c0.7,0.9,1.4,1.7,2,2.6c0.7,1,1.6,1.6,2.9,1.6
		c0.5,0,1,0.1,1.4,0.3c0.4,0.2,0.8,0.7,0.8,1.1c0.2,3.1,0.2,6.1,0.4,9.2c0,0.6,0.1,1.3,0.3,1.9c0.1,0.3,0.4,0.6,0.6,0.6
		c0.2,0,0.6-0.3,0.7-0.6c0.2-0.6,0.2-1.3,0.3-2c0-0.7-0.1-1.4-0.1-2.1c-0.1-1,0.1-1.8,1.1-2.4c0.4-0.2,0.5-0.8,0.7-1.3
		c0.2-0.6,0.3-1.2,0.5-1.8c2,0.9,3.1,2.8,2.8,4.7c-0.2,1.7-0.4,3.5-0.6,5.2c0,0.4,0.2,0.9,0.5,1.1c1.5,1,1.7,1.8,0.4,3.4
		c-0.3-0.8-0.6-1.5-0.9-2.2c-1,0.9-1,2.6-0.2,3.3c0.2,0.2,0.5,0.6,0.4,0.8c-0.2,1.2-0.5,2.4-0.6,3.5c-0.1,0.6,0,1.3,0.2,1.8
		C237.8,115.1,237.8,116.8,236.5,118.4z M241.4,128.7c-0.2,0.3-0.5,0.6-0.8,0.9c-0.2-0.3-0.4-0.6-0.4-0.9c0-1.2,0.1-2.4,0.1-3.6
		c0-0.2-0.1-0.5-0.4-0.8c-0.2,0.4-0.5,0.8-0.6,1.2c-0.1,0.5,0.2,1.2,0,1.7c-0.3,0.6-0.8,1-1.3,1.5c-0.4-0.5-1-0.9-1-1.4
		c0-0.9,0.2-1.8,0.6-2.6c1.1-2.2,2.3-4.3,3.4-6.4c0.2-0.4,0.5-0.8,0.7-1.2c1.7,1.5,1.2,3.5-0.6,3.9c-1.1,0.2-0.7,1.1-0.4,1.6
		c1,1.7,0.8,3.5,0.8,5.4C241.5,128.2,241.5,128.5,241.4,128.7z M240.3,97.4c0.2-0.2,0.8-0.5,1-0.4c0.6,0.4,1.2,1,1.7,1.5
		c0.1,0.2-0.1,0.6-0.1,1.1c-0.5-0.2-0.8-0.4-1.2-0.5c-0.1,0.7-0.2,1.4-0.4,2.2C240,100.4,239.5,98.5,240.3,97.4z M242.4,140.9
		c-1-1.1-1-2.2,0-3.6C242.4,138.6,242.4,139.6,242.4,140.9z M245.2,139.1c-0.2,1-0.4,2-0.8,3c-0.1,0.4-0.5,0.7-0.8,1
		c-0.1-0.1-0.2-0.1-0.3-0.2c0-1.7,0-3.3,0-5c0-0.4,0.4-0.7,0.6-1.1c0.3,0.3,0.8,0.5,1,0.9C245.2,138.1,245.3,138.6,245.2,139.1z
		 M245.3,116.5c-0.1,3.5-0.2,7.1-0.3,10.6c0,1.6-1.4,2.1-2.4,2.9c-0.1,0-0.2-0.1-0.4-0.1c0.1-1.6,0.2-3.2,0.3-4.7
		c0-0.2,0.2-0.5,0.1-0.7c-0.7-1.9,0.4-3.5,0.9-5.1c0.2-0.7,0-1.5,0.1-2.3c0.1-1.7,0.3-3.4,0.5-5.1c0-0.2,0.5-0.4,0.6-0.4
		c0.2,0.2,0.5,0.5,0.5,0.7C245.3,113.7,245.4,115.1,245.3,116.5z M250.3,119.3c-0.8,0.9-1.6,1.9-2.4,2.8c-0.1,0-0.2-0.1-0.4-0.1
		c-0.1-1.3-0.2-2.6-0.2-3.9c0-2.3,0-4.5,0.1-6.8c0.1-1.5,1.3-2.3,2.8-1.9c0.2,0.1,0.5,0.5,0.5,0.8c0,1.3-0.1,2.5-0.1,3.8
		c0,0.5,0.1,0.9,0.2,1.4C251.3,116.8,251.3,118.1,250.3,119.3z M251,132.4c-0.1-1.3-0.2-2.4-0.2-3.5c0-0.2,0.3-0.6,0.4-0.6
		c0.2,0,0.5,0.2,0.7,0.4C252.7,129.7,252.4,131.3,251,132.4z M252.9,96.5c-0.3,0.1-0.9-0.1-1.1-0.3c-0.5-0.7-0.8-1.5-1.1-2.2
		c-0.2-0.4-0.1-0.9-0.1-1.3c0-0.5,0.1-1,0-1.4c-1.3-3.3-2.7-6.7-4.1-10c-0.2-0.5-0.8-0.7-1.2-1.1c-0.1,0.6-0.5,1.3-0.4,1.8
		c0.5,2.6,1,5.2,1.6,7.7c0.1,0.5,0.3,1.2,0.6,1.5c3.1,2.8,3.6,6.4,2.9,10.3c-0.3,1.4-0.8,2.8-1.3,4.2c-0.2,0.5-0.5,1-0.8,1.6
		c-0.9-1.1-0.6-2-0.3-2.9c0.3-1,0.7-1.9,1-2.9c0.6-2,0.7-3.9,0-5.9c-0.7-2.1-1.7-3.8-4.1-4.4c-1.5-0.4-2.8-1.3-3.7-2.8
		c-0.5-1-1.7-1.6-2.8-2.2c-1.1-0.6-1.6-1.5-1.5-2.5c0.4-4.9,0.9-9.9,1.6-14.8c0.2-1.7,1.2-3.3,2-5c0.1-0.3,0.6-0.5,1-0.7
		c0.2,0.4,0.6,0.7,0.7,1.1c0.1,1.4,0.1,2.8,0.1,4.2c0,1.8-0.1,3.6,0.2,5.4c0.2,1.4,0.8,2.7,1.2,4c0.1,0,0.2,0,0.4,0
		c0.2-0.6,0.6-1.1,0.7-1.7c0.1-2.4,0.3-4.7-0.4-7.1c-0.7-2.5-0.6-5.3,0.7-7.8c0.1-0.3,0.3-0.6,0.5-0.8c0.4-0.5,0.8-1.2,1.4-1.4
		c0.7-0.1,1.7,1.3,1.6,2.3c-0.1,1.5-0.3,3.1-0.6,4.6c-0.2,1-0.9,1.9-1.1,3c-0.3,1.2-0.5,2.5-0.6,3.7c-0.1,1.1,0,2.2,0,3.3
		c0,0.7,0.4,1,1.1,0.9c0.5-0.1,1,0,1.4-0.1c1.1-0.2,1.5-0.9,1.5-2c0-1.1-0.4-2.3,1-3c0.2-0.1,0.1-0.9,0.1-1.3
		c-0.1-0.7,0-1.2,0.8-1.6c1.4-0.6,2.3-1.6,2.3-3.3c0.1,0.2,0.3,0.4,0.3,0.6c-0.1,1,0,2.1-0.3,3.1c-1,3-1.6,6-1.4,9.3
		c0.1,1.8-0.3,3.7-0.4,5.6c-0.1,1.3,0.1,2.5,1,3.6c0.4,0.5,0.7,1.2,0.8,1.8c0.2,1.7,0.2,3.3,0.4,5C254.3,95.5,253.8,96.1,252.9,96.5
		z M257.2,130c0,0.4,0,0.7,0,1.1c-0.1,0.8,0.1,1.8-1.2,1.8c-1.4,0-2.2-1.1-2.3-2.2c-0.2-2,1.8-2.2,2.6-3.4c0,0,0.7,0.3,0.7,0.5
		c0.2,0.7,0.2,1.5,0.3,2.2C257.3,130,257.3,130,257.2,130z M256.1,123.1c-1.5,0.3-2-0.4-1.5-1.7c0.5-1.2,1.3-2.4,1.9-3.6
		c0.1-0.2,0.4-0.3,0.7-0.4c1.5-0.8,3-1.5,4.4-2.3c0.7-0.4,1.3-0.7,2.1-0.2c0.9,0.6,1.7,2.2,1.4,2.9c-0.2,0.6-0.4,1.2-0.6,1.8
		c0,0.1-0.1,0.1-0.4,0.2c-0.2-0.9-0.3-1.8-0.5-2.7c-0.1-0.3-0.4-0.6-0.6-0.9c-0.2,0.3-0.5,0.6-0.6,0.9c-0.1,0.9-0.1,1.8-0.1,2.8
		c0,0.9-0.4,1.5-1.3,1.8C259.4,122.2,257.8,122.7,256.1,123.1z M266.9,145.3c-0.2,1-0.2,2-0.1,3c0.1,1.3,0.2,2.4-0.8,3.4
		c-1.4,1.4-2.7,2.9-4.2,4.3c-0.3,0.3-0.9,0.4-1.4,0.5c-0.1-0.6-0.4-1.2-0.2-1.6c0.4-1,1-2,1.4-3c1.1-2.6,2-5.2,3.1-7.8
		c0.3-0.7,0.8-1.4,1.3-2.2C266.9,143.2,267,144.2,266.9,145.3z M277.4,117.3c0.2-0.3,0.5-0.6,0.8-0.9c0.2,0.3,0.5,0.5,0.7,0.8
		c0.1,0.2,0,0.5,0.1,0.7c0.1,0,0.1,0.1,0.2,0.1c-0.3,0.5-0.6,1-0.9,1.5c-0.3-0.5-0.6-1-0.8-1.5C277.3,117.8,277.3,117.5,277.4,117.3
		z M270.5,107c0.3,0,0.7,0.3,1.1,0.5c-0.1,0.2-0.2,0.4-0.3,0.5c-0.3,0.2-0.6,0.6-0.8,0.5c-0.3,0-0.7-0.5-0.7-0.7
		C269.9,107.5,270.2,107.1,270.5,107z M269.4,116.6c0.6,1,0.5,1.8-0.3,2.6c-0.3,0.3-0.4,0.9-0.3,1.4c0.1,0.8,0.1,1.5-0.5,2.3
		c-1.2,1.9-0.9,4-0.4,6c0,0.2,0.4,0.5,0.6,0.5c0.3-0.1,0.7-0.3,0.7-0.5c0.1-0.7,0.1-1.5,0.1-2.2c0-1,0-1.9,0-2.9c0.2,0,0.4,0,0.6,0
		c0.1,0.5,0.2,1,0.2,1.5c0.1,0.8,0.1,1.5,0.2,2.3c0.1,0.3,0.4,0.6,0.7,0.6c0.3,0,0.7-0.3,0.8-0.6c0.2-0.6,0.2-1.3,0.2-1.9
		c-0.1-3.9,0.6-7.6,2-11.3c0.2-0.6,0.5-1.2,0.9-1.7c0.1-0.2,0.6-0.5,0.8-0.4c0.3,0.1,0.7,0.4,0.7,0.7c0.1,0.7,0,1.3-0.2,2
		c-0.2,0.8-0.5,1.7-0.9,2.5c-0.3,0.6-0.7,1.2-1,1.8c-0.2,0.3-0.4,0.6-0.4,1c0,1.5,0,3,0.2,4.5c0.1,0.4,0.7,0.8,1,1.2
		c0.4-0.4,0.8-0.7,1.1-1.1c0.3-0.6,0.4-1.2,0.6-1.8c0.2,0,0.3,0,0.5,0c0.1,0.8,0.1,1.6,0.2,2.4c0.1,0.5,0.3,0.9,0.5,1.3
		c0.5-0.2,1.2-0.3,1.5-0.7c0.4-0.4,0.5-1,0.6-1.5c0.3-1.4,0.4-2.9,0.7-4.3c0.5-2.1,0.2-4.2-0.5-6.2c-0.2-0.7-0.5-1.2-1.4-1.4
		c-0.4,0-0.9-0.6-0.9-0.9c0-0.6,0.4-0.9,1.2-0.8c0.7,0.1,1.5-0.1,2.2-0.3c1.7-0.4,3.2,0.6,3.2,2.4c0,2.5-0.1,5,0,7.4
		c0.1,1.7,0.3,3.4,0.5,5.1c0,0.3,0,0.7-0.2,1.1c-0.1,0.3-0.4,0.6-0.6,0.9c-0.3-0.3-0.9-0.6-1-0.9c0-0.9-0.9-2,0.2-2.9
		c0.2-0.2,0.2-0.7,0.1-1.1c-0.2-1.1-0.5-2.1-0.6-3.2c-0.1-2.1,0-4.2,0-6.2c0-0.3-0.1-0.5-0.1-0.8c-0.1,0-0.2-0.1-0.4-0.1
		c-0.2,0.5-0.4,1-0.5,1.4c-0.1,1.6,0,3.1-0.1,4.7c-0.1,3-0.1,6.1-0.2,9.1c0,0.8-0.2,1.3-1.3,1.3c-0.4,0-0.9,0.4-1.2,0.8
		c-1.1,1.5-2.2,3.1-3.2,4.6c-0.5,0.7-1,0.8-1.7,0.5c-0.9-0.4-1.8-0.7-2.7-0.1c-0.6,0.4-0.9,0.1-1.2-0.5c-0.2-0.6-0.6-1.2-1-1.8
		c-0.3,0.7-0.5,1.3-0.8,2c-0.1,0.3-0.2,0.6-0.4,1.1c-0.3-0.8-0.5-1.4-0.8-2.4c-0.4,0.9-0.6,1.5-0.9,2.2c-1.6-2-3.8-1.4-5.8-1.5
		c-1.6-0.1-2.2-0.7-1.6-2.3c1.3,0.7,1.7,0.5,2-1c0.5-2.3,0.9-4.5,1.4-6.8c0.1-0.4,0.4-0.8,0.7-0.9c0.1-0.1,0.8,0.3,0.8,0.5
		c0.1,0.4-0.2,0.8-0.3,1.1c-0.2,0.7-0.7,1.5-0.6,2.2c0.1,1.4,0.4,2.9,0.6,4.4c1.3-0.3,1.6-1.2,1.6-2.1c0.1-2.4,0.3-4.9,0.2-7.3
		c0-2.1,1.2-3.4,2.4-4.8C268.5,115.8,269,115.9,269.4,116.6z M267.6,102.7c0,0.1,0,0.2,0,0.4c-0.4,2.4-2.1,3.2-4.5,2.4
		c-1.6-0.5-3.4-0.6-5.1-0.7c-2.7-0.2-2.7-0.1-2.5-2.8c0.1-1.4,0.3-2.7,0.4-4c0-0.3,0.2-0.5,0.3-0.9c1.6,0.8,1.9,0.7,1.8-1
		c-0.1-4.1-0.2-8.2-0.3-12.3c0-0.3,0-0.6,0-0.6c0.7-0.4,1.4-0.5,1.6-0.8c0.3-0.7,0.2-1.5-0.9-1.7c-0.2,0-0.5-0.3-0.5-0.5
		c0-0.1,0.2-0.4,0.3-0.5c0.3-0.4,0.7-0.8,0.8-1.2c0.2-1.1,0.2-2.2,0.2-3.3c-1.4-0.8-1.8-2.3-0.8-4.4c0.1,0.7,0.3,1.4,0.4,2.1
		c0.2,0.8,0.1,1.8,1.4,1.5c1.2-0.3,1.6-0.9,1.1-2.2c-0.4-1.1-1-2-1.5-3.1c-0.3-0.6-0.3-1.3-0.5-2c0.1-0.1,0.3-0.1,0.4-0.2
		c0.3,0.4,0.7,0.7,1.1,1.2c0.2-1.2,0.4-2.2,0.6-3.3c0.2,0,0.3,0,0.5,0c0.1,0.4,0.2,0.7,0.2,1.1c0,1.4,0,2.7,0.1,4.1
		c0.1,0.9,0.3,1.8,0.6,2.6c0.2,0.6,0.3,1.1-0.1,1.6c-0.4,0.5-0.6,1.2-0.6,1.8c0,2.4,0,4.7,0.1,7.1c0,0.4,0.3,0.7,0.5,1.1
		c0.2-0.4,0.7-0.7,0.7-1.1c0.1-1.8,0.1-3.7,0.2-5.5c0-0.9,0.2-1.9,0.4-2.8c0.2,0,0.3,0,0.5,0c0.1,0.5,0.4,1,0.4,1.6
		c0,5.2-0.1,10.5-0.2,15.7c0,3.2-0.1,6.5-0.2,9.7c0,0.5,0.1,0.9,0.1,1.4c0.1,0.1,0.3,0.1,0.4,0.2c0.3-0.6,0.8-1.2,0.9-1.8
		c0.3-1.9,0.5-3.7,0.5-5.6c0.4-10.5,0.6-21.1,1-31.6c0.1-3.3,0-4.1-1.2-5.5c-0.6,0.2-0.7,0.5-0.6,1.2c0.3,1.8,0.4,3.7,0.3,5.5
		c-2.3-1.5-0.6-3.9-1.5-5.8c-0.3,0.3-0.7,0.6-1.3,1.1c-0.2-0.9-0.5-1.6-0.6-2.4c0-0.4,0.4-1,0.7-1.1c1.3-0.3,2.8-0.4,3.8,0.7
		c1.2,1.2,2,2.5,1.5,4.4c-0.8,2.7-0.6,5.4,0.2,8.1c0.2,0.5,0,1.2,0,1.8c-0.2,1.8-0.6,3.6-0.7,5.4c0,0.4,0.4,0.9,0.6,1.3
		c0.3,0.6,0.8,1.3,0.8,1.8C269.1,88,268.3,95.3,267.6,102.7z M279.1,47.8c0,0,0,0.1,0,0.1c0.7,1.9-0.5,3.6-0.4,5.5
		c0,1.4-0.3,1.6-1.7,1.1c-0.4-0.1-0.8-0.4-1.1-0.7c-0.8-0.9-1.5-1.5-2.5,0.1c-0.1-0.1-0.2-0.2-0.2-0.3c0.1-1.3,0.3-2.6,0.4-4.1
		c0.2,0.2,0.3,0.3,0.3,0.4c0.5,1.7,1.4,2.3,3.1,2.1c0.2,0,0.4-0.3,0.6-0.4c-0.2-0.2-0.3-0.5-0.6-0.6c-0.4-0.2-0.9-0.1-1.3-0.3
		c-0.2-0.1-0.6-0.5-0.5-0.6c0.2-0.8,0.1-1.4-0.5-2.1c-0.5-0.6-0.2-1.2,0.8-1.2c0,0.5,0,1,0.1,1.5c0.1,0.5,0.2,0.9,0.3,1.6
		c0.8-0.4,1.5-0.6,2-1c0.6-0.5,0.5-1.2,0-1.8c-1-1-1-1.1,0.2-2c0.2-0.1,0.3-0.2,0.6-0.3C279.2,45.9,279.9,46.7,279.1,47.8z
		 M282.8,53.1c0,1.2-0.9,1.1-1.7,1.2c-0.9,0.2-0.9-0.6-1-1.1c-0.1-0.5-0.1-1.1-0.2-1.5c0.6-0.2,1.1-0.3,1.6-0.4
		c-0.2-0.5-0.4-1.1-0.7-1.7c0.1-0.1,0.5-0.2,0.5-0.4c0.1-0.3,0.2-0.9,0.1-1c-0.9-0.3-0.9-1-0.9-1.8c0-0.9,0-1.9,0-2.8
		c1.8,0.2,1.9,0.3,1.5,1.9c0.1,0,0.2,0,0.3,0c0.2,0.5,0.6,1,0.6,1.6C283,49.1,282.8,51.1,282.8,53.1z M286.3,43.5
		c-0.1,2.8-0.1,5.5-0.3,8.3c0,0.5-0.4,0.9-0.6,1.3c-0.4-0.3-1-0.6-1.2-1c-0.2-0.3,0-0.8,0.1-1.2c0.3-1.2,0.6-2.3,0.2-3.6
		c-0.2-0.6,0.1-1.3,0.1-2c0-0.5,0.2-1.1,0.1-1.5c-0.4-1.6-0.2-1.9,1.6-2.3C286.3,42.2,286.3,42.9,286.3,43.5z"/>
</g>
</svg>
