<?xml version="1.0" encoding="utf-8"?>
<!-- Generator: Adobe Illustrator 21.0.0, SVG Export Plug-In . SVG Version: 6.00 Build 0)  -->
<svg version="1.1" id="Layer_1" xmlns="http://www.w3.org/2000/svg" xmlns:xlink="http://www.w3.org/1999/xlink" x="0px" y="0px"
	 viewBox="0 0 1000 1000" style="enable-background:new 0 0 1000 1000;" xml:space="preserve">
<path d="M761.7,836.7c8-9.4,15.7-19,24-28.1c3-3.3,7.3-5.7,11.3-7.7c13.9-6.7,21.5-19.5,30.6-30.8c3.5-4.3,7.5-8.1,11.2-12.3
	c1.4-1.5,3.2-3.3,3.4-5.1c1.8-14.2,12.6-21.4,21.8-30.6c8.1-8.1,13.5-19,19.6-29c5.2-8.5,8.7-18.1,14.8-25.9
	c6.7-8.7,7.1-18.4,8-28.2c0.5-5,0.1-10.2-0.8-15.2c-0.7-3.6-3-6.9-4.3-10.5c-2-5.6-4.4-11.3-5.2-17.1c-0.9-6.8-4.1-11.9-8.2-17.2
	c-6.3-8.2-11.7-17-17.4-25.7c-2.3-3.5-4.3-7.1-6.2-10.3c-6.5,1.2-12.9,1.5-18.5,3.8c-7.2,2.9-14.8,6.2-20.5,11.3
	c-10.9,9.6-20.6,20.6-30.8,31.1c-2.3,2.3-4.5,4.7-6.7,7c-6.8,7-11.2,14.9-9.8,25.2c0.3,2.6-0.2,5.6-1,8.2c-3.3,10.6-8,21-3.2,32.5
	c0.7,1.6,0.1,4.4-1,5.9c-7.9,11.8-16,23.6-24.2,35.2c-0.8,1.1-2.6,1.5-3.9,2.3c0-1.6-0.5-3.4,0-4.8c1.3-3.3,3.2-6.3,4.9-9.4
	c-0.5-0.4-1-0.7-1.6-1.1c-3.9,4.5-7.9,8.8-11.5,13.4c-5.8,7.4-11.2,15.1-16.8,22.6c-3.9,5.1-7.9,10.1-12.1,15.1
	c-0.6,0.7-2.8,1-2.9,0.8c-0.6-1.3-1.5-3-1.1-4.1c1.7-4.8,3.8-9.4,5.9-14c4.7-10.3,9.4-20.6,14.2-31c-5.5-3.8-8.9-3.2-11.9,2.3
	c-3.1,5.7-6.8,11-10.6,16.3c-0.9,1.2-3,1.5-4.5,2.2c-0.5-1.5-1.5-3.1-1.3-4.6c0.5-4.1,1-8.2,2.3-12.1c4.7-14,9.8-27.9,14.4-42
	c0.6-1.8-0.8-4.2-1.3-6.3c-1.7,0.8-3.5,1.5-5.2,2.4c-1,0.5-1.8,1.4-3.7,1.7c1.3-3.4,2.5-6.8,4.1-10c1.7-3.4,3.8-6.5,4.7-10.6
	c-1.8,1.5-3.5,3-5.4,4.6c-2-11.9,6.2-26.1,16.8-29.4c-0.3,2.5-0.7,4.9-1.2,8.5c7.7-6.2,14.8-10.4,14.3-21.5
	c-0.6-13.1,2-26.4,1.7-39.5c-0.5-19.4-2.6-38.8-3.7-58.2c-0.9-15.3-1.4-30.6-2.3-45.9c-0.8-14.1-2.2-28-9.3-40.8
	c-2.9-5.3-6-8.6-11.8-6.5c-9.2,3.3-17.6-1.6-26.3-1.7c-15.3-0.2-30.6-0.3-45.8,0c-1.6,0-3.2,2.5-5.9,4.8c-7-2.7-11.5,1.2-14.2,10
	c-1.6,5.4-6.2,9.8-8.4,15.1c-1.6,4-3.2,9.4-1.7,12.9c4.7,10.8,3.5,21.7,3,32.8c-0.4,8.1,0.2,16.2,0.1,24.3c-0.1,7.4-0.3,14.7-0.9,22
	c-0.8,9-1,18.2-3.3,26.8c-3.5,13.2,1.7,26.2-0.5,39.3c-0.2,1.4-0.3,2.8,0,4.2c3,13.9,4.8,28.3,13.8,40.2c3.2,4.2,6,8.9,8.3,13.6
	c1.2,2.4,0.8,5.5,1.3,10c-5.9-9.2-10.4-16.3-15.2-23.2c-1-1.5-2.7-2.8-4.3-3.4c-2.7-1-5.5-1.3-8.3-2c-0.4,2.7-1.3,5.3-1.3,8
	c0.4,11.3,0.9,22.6,1.6,33.9c0.3,4.1,1.3,8.1,1.9,12.2c0.2,1.8,0.8,3.7,0.3,5.3c-4.3,13.3-8.6,26.6-13.4,39.7
	c-0.9,2.4-3.5,4.8-5.8,5.9c-5.6,2.5-11.6,4.3-18.5,6.7c-0.3-2.8-0.9-5.9-0.8-8.9c0.5-13.2-1.6-25.4-8.2-37.5
	c-4.9-8.8-6-19.8-8.9-29.7c-0.9-3-2-5.9-2.6-7.7c-20.4,10.2-39.8,20-59.4,29.6c-7.7,3.7-15.7,7-23.7,9.9c-2.4,0.9-5.6-0.5-8.3-0.4
	c-5.4,0.3-12.7-1.2-15.9,1.7c-8.2,7.4-17,4.5-25.6,4.4c-7.2-0.1-13.5-1.6-21.2,2c-6.2,2.9-15.1,4.3-23.1-2.7
	c-14.9-13.2-31.2-24.6-47.1-36.7c-4-3.1-8.4-5.6-12.5-8.6c-0.6-0.4,0-2.3-0.6-3.1c-8.8-13-17.8-25.9-28.1-38.7
	c1.2,5.6,1.3,11.6,3.8,16.5c2.5,5,7.4,8.8,12.2,14.3c-3.9-1.4-6.8-2.6-10.8-4c0.2,3.6,0.4,7.6,0.6,11.7c0.2,3.5,0.1,7,0.6,10.4
	c0.7,5.1,1.9,10,2.6,15.1c1.5,11.1,5.1,21.3,12.7,29.8c0.6,0.7-0.1,2.4-0.1,3.6c-1.8-0.3-4.3,0-5.4-1.1
	c-7.8-7.3-15.3-14.9-23.4-22.8c-1.9,1.8-3.9,3.6-6.1,5.7c4.3,8.8,8.6,17.3,12.6,26c0.8,1.8,0.6,4.1,0.8,6.2
	c-1.7-0.7-3.9-0.9-5.1-2.1c-6-6-11.5-12.5-17.8-18.1c-2.7-2.4-6.9-3.2-11-5c0.2-1.1,1-2.9,0.9-4.6c-0.2-3.9-1.4-7.3-6.4-4.6
	c-5.8,3.1-8.3-0.2-9.6-5c-4.2-15.2-3.4-30.7-2.4-46.2c0.4-5.9-1.8-12.3-0.4-17.9c2.3-9.1,0.3-16.6-5.3-23.1
	c-2.9-3.3-7.8-4.8-11.1-7.9c-15.2-14.4-35-18.3-53.8-24.7c-7.1-2.4-15.1-4.9-19-12.7c-0.5-1-1.5-2.2-2.3-2.3
	c-6.9-0.8-14.5-3.5-20.5-1.4c-5.2,1.8-9.3,8.4-12.7,13.7c-2.3,3.5-2.4,8.4-3.5,12.6c-1.5,5.6-2.6,10.7-0.5,16.9
	c1.5,4.4-0.9,9.9-1,15c-0.1,3.8,0.1,7.7,1.1,11.4c2.4,9.1,4.9,18.3,8.1,27.2c1.9,5.3,5.6,9.9,8,15.1c2.5,5.2,4.2,10.7,6.7,15.9
	c5.2,10.5,10.9,20.8,16.1,31.3c4.1,8.3,7.6,17,12,25.2c1.9,3.7,4.5,7.6,7.9,9.8c17.8,11.5,26.5,27.9,29.5,48.4
	c0.7,5,4.6,9.9,7.9,14.2c5.9,7.9,12.4,15.4,18.7,23c4,4.8,8.1,9.5,12.4,14.6c-1.1,1-3.4,2.9-5.8,5c0.4,1,0.5,1.8,1,2.2
	c11.3,8.8,22.6,17.6,33.9,26.3c1.1,0.8,2.8,1.4,3.2,2.5c4.4,11.1,15.4,13.3,24.2,18.6c3.1,1.9,6.1,3.8,9.2,5.7
	c-0.1,0.6-0.2,1.3-0.2,1.9c-2,0.4-4,1.3-5.8,1c-4.1-0.5-8.2-1.4-12.3-2.3c-2-0.4-4.4-0.6-5.7-1.9c-5.5-5.2-12.1-6.8-19.3-8.2
	c-5.3-1-10.6-4.2-15.1-7.5c-5.7-4.3-10.2-10-15.7-14.5c-9.7-8.1-19.2-16.8-29.8-23.6c-11.7-7.5-18.8-18.7-27.3-28.9
	c-4.2-5-7.4-10.8-11.5-16.9c-4.8,16.4,5,27.7,10.5,40.2c0.7,1.7,0.3,3.8,0.4,5.8c-1.5-1-3.7-1.7-4.5-3.1
	c-8-13.9-18.5-26.3-23.4-42.2c-2.8-9.1-9.2-17-13.4-25.7c-6.6-13.7-12.3-27.8-19.4-41.3c-5.1-9.7-11.9-18.6-18.1-27.7
	c-1.7-2.5-3.8-4.7-5.9-6.9c-8.5-8.5-17.1-17-25.7-25.5c-0.6-0.6-1.4-1.2-1.8-2c-6.4-12.9-13-25.6-18.9-38.7
	c-2.3-5.2-2.9-11.1-4.1-16.7c-0.2-0.8,1.1-2.7,1.3-2.6c1.6,0.3,3.7,0.7,4.4,1.8c3.5,5.1,6.6,10.5,10,15.7c1.6,2.4,3.6,4.5,6.8,8.4
	c1.1-7.8,2.3-13.7,2.7-19.5c0.6-10.4,0.7-20.9,0.8-31.4c0-1.6-0.9-3.1-1-4.7c-0.2-3.7-0.1-7.4-0.1-11.2c0-10.3,0-20.7,0-32.4
	c-2.3,3.4-3.8,5.5-5.7,8.4c-4.7-6-3.3-12.2-4.1-17.8c-1.2-8.4-3.1-16.7-3.6-25.2c-0.6-9-0.4-18.1,0.2-27.1
	c0.4-7.1,3.3-14.2,2.7-21.1c-1.4-15.9,2.5-32.4-4.8-47.8c-1-2.1-0.4-5.4,0.3-7.9c1.4-4.6,2.5-9.7,5.3-13.4
	c7.7-10.3,3.5-21.5,3.2-32.2c-0.2-9.9-2.4-19.7-3.7-29.6c-0.2-1.5-0.8-3-1.2-4.5c-16.5,12.2-30.9,25.8-35.4,47.4
	c-1.1-0.5-2.3-1.1-3.4-1.6c0.5-4.8,0.9-9.7,1.5-14.5c2.2-18.3,11.2-33.1,23.7-46.1c2.4-2.5,4.3-5.5,5.9-8.6
	c7.3-15,21.8-23.8,31.3-36.9c5.7-7.9,10.9-16.1,16.7-23.8c2.8-3.7,6.6-6.6,9.7-10c1.3-1.5,3.1-3.8,2.7-5.2c-1.8-6.2,1.8-7.5,6.5-9.1
	c3.1-1.1,6-3.4,8.2-5.9c9.2-10.8,18.3-21.7,27.1-32.8c1.7-2.1,2.4-5.4,2.5-8.2c0.2-5,2.3-8.2,7.3-8.6c6.6-0.4,10.2-4.8,14.1-9.2
	c7.1-8.3,14.1-16.6,21.6-24.6c1.7-1.9,5.1-2.1,7.7-3.2c1.8-0.8,3.9-1.3,5.3-2.6c6.7-5.8,13.1-11.7,19.7-17.7c5,7.1,5,7.8-2.8,14.3
	c-9.1,7.6-16.4,16.5-21.1,27.6c22.2-19.6,49-31.8,73.7-47.3c-6.2,11.6-14.2,20.6-26.5,25.9c-6.2,2.6-10.8,8.9-16,13.6
	c-1.9,1.7-3.7,3.6-4.9,5.8c-2.1,3.6-3.1,8-5.6,11.2c-3.6,4.6-8.1,8.5-12.4,12.4c-3.6,3.2-7.7,5.8-11,9.2c-1.2,1.2-1.7,4.5-0.9,6
	c2.3,4.2,0.1,6.1-3,7.7c-14,7.3-23.3,17.8-26.4,34.1c-1.2,6.1-6.6,11.4-10.1,17.1c-0.3,0.5-1.2,1.1-1.7,1.1
	c-14.6-1.6-15.9,12.3-21.2,19.9c-9.2,13.1-15.9,28-23,42.6c-3.4,6.9-5.6,14.1,0.2,22c2.5,3.4,3.6,10.7,1.7,14.2
	c-6.4,11.3-4.4,24-7.7,35.7c-1.3,4.7-1.7,9.6-2.7,14.4c-1.2,5.4-0.5,10.1,2.7,15.1c1.8,2.8,0.9,7.7,0.4,11.6
	c-0.3,2.3-2.6,4.4-3.6,6.7c-3.8,8.9-2.3,10.8,7.2,12.1c4.5,0.6,8.7,2.8,13,4.5c4.4,1.8,8.6,4.2,13.1,6c4.4,1.8,8.5,1.2,12.3-2.1
	c2.6-2.3,5.3-4.5,8.3-6.3c6.2-3.9,10.3-3.2,15.2,2.2c5,5.5,9.5,6.6,15.7,1.8c13.5-10.4,29-8.9,44.4-8.7c1.6,0,4.2,0,4.8-1
	c6.1-9.5,9.8-19.2,5.4-30.8c-1.1-3-0.5-8.2,1.5-10.7c4.9-6,5.9-12.5,5.7-19.8c-0.2-5.2,0.8-10.6,0.2-15.7c-0.9-7.4-2.7-14.7-4.4-23
	c-1,2-1.5,3.4-2.4,4.4c-1,1-2.5,1.6-3.7,2.4c-0.7-1.1-1.4-2.2-2-3.4c-1-2-2-3.9-2.6-6c-0.5-1.5-1-3.7-0.3-4.8
	c6.7-10.4,13.4-20.9,20.7-30.9c3.1-4.2,7.6-7.4,11.7-10.8c1.2-1,3.1-1,4.7-1.5c-0.3,1.6-0.4,3.3-0.8,4.9c-0.3,1-1.1,1.8-1.6,2.7
	c0.5,0.4,1,0.8,1.5,1.3c4.8-5.3,9.3-10.7,14.4-15.7c2.5-2.5,5.9-4.1,9.1-5.9c0.5-0.3,2.3,0.3,2.4,0.8c0.3,1.2,0.3,2.7-0.2,3.7
	c-5.3,9.6-10.7,19.2-16.2,28.7c-3.2,5.6-3,6.4,3.6,9.1c8.9-11.5,17.1-23.8,28.3-33.2c0.7,0.6,1.4,1.2,2,1.8
	c-4.4,9.9-8.9,19.8-13.1,29.2c4.3,1,9,1.2,9.1,2.3c0.6,3.4,0.5,7.6-1.1,10.4c-4,7-11.3,12.4-10.3,21.4c6.6-6.2,12.9-12.8,19.9-18.4
	c2.5-2,6.8-2.3,10.3-2.4c7.9-0.2,15.8,0.1,23.8,0.3c0.8,0,1.7,0.7,2.4,1.3c13.2,11.4,29.7,11.3,45.7,13.4c6.3,0.8,12.7,1.6,19,2.3
	c1.7,0.2,3.5-0.3,5.7-0.6c-1.5-3-2.7-5.4-4.4-8.8c11.6-2.3,22.1-6.8,32.7,1.6c3,2.4,7.8,2.9,11.8,3.5c11.7,1.9,23.4,3.6,35.1,5
	c2.9,0.3,6.6,0.1,8.7-1.5c12.1-9.2,26-8.7,39.9-8.5c9.7,0.1,19.4,0.9,29,1.5c13.1,0.8,25.3-2.3,37-8c8.1-4,16.5-3.5,24.9-0.2
	c3.1,1.2,6.7,1.9,10,1.5c12.3-1.6,24.6-4,36.9-5.3c2.8-0.3,7,1.5,8.9,3.8c9.2,11.5,17.8,23.5,26.7,35.4c4.2,5.6,5.1,14.4,15.2,15.4
	c-8.5-30.9-19.8-59.9-41.2-85.1c13.5-1.1,13.5,12.8,22.3,17.1c-0.2-2.1,0.2-3.8-0.5-4.6c-8.7-10.2-8.6-25.2-18.8-34.7
	c-2.3-2.1-7.4-5.5-2.1-10.5c15.2,16.3,30.1,32.4,45.1,48.5c0.3-0.2,0.7-0.3,1-0.5c-5.2-9.6-10.2-19.3-15.5-28.9
	c-3.9-7.1-8.2-14-12.2-21c-0.6-1.1-0.3-2.8-0.4-4.2c1.4,0.2,3.1-0.1,4.1,0.7c12.3,9.6,25.5,17.9,36.2,29.7
	c11.4,12.5,22.5,25.2,30.3,40.2c3.4,6.6,3,14.9,0.3,22.6c-1.2,3.3-1.1,7.2-1.1,10.8c-0.2,8.9,0.2,17.8-0.2,26.7
	c-0.2,4.8-1.6,9.6-1.8,14.4c-0.1,1.6,1.7,3.2,2.6,4.9c2.6,4.4,6.3,8.6,7.4,13.4c1.3,5.8,3,10.2,8.4,13.4c5.6,3.3,10.3,8,15.9,11.2
	c3.2,1.9,7.4,2.4,11.2,3c12.8,2.2,25.5,4.4,38.4,6.2c3.2,0.4,6.8-0.3,9.8-1.5c8.4-3.2,17-6.3,24.9-10.6c4.7-2.6,7.8-8,12.4-10.9
	c7.9-5.1,6.9-12,6.8-19.9c-0.2-14.4,1.2-28.7,1.7-43.1c0.1-3.3,0-6.8-1-9.9c-5.2-15.5-10.5-31-16.5-46.2c-2.2-5.7-6.4-10.5-9.5-15.9
	c-2.6-4.5-5.9-9-6.9-13.8c-1.9-8.6-5.6-13.8-14-15.9c-6-1.5-9.8-4.5-7.4-11.3c2.7-7.7-0.4-12.8-5.7-18.4
	c-16.9-17.8-33.7-35.7-49.4-54.5c-16.1-19.3-30.9-39.8-46.3-59.7c-0.8-1-1.6-2.1-2.6-3c-7.3-6.4-14.6-12.7-22-19
	c0.4-0.9,0.8-1.8,1.1-2.8c2.2,0,4.5-0.5,6.5,0.1c11.3,3.2,20.1,10.2,28.2,18.5c6.1,6.2,13.1,11.5,19.7,17.2c3.6,3.1,7,6.3,12,8.8
	c-0.4-1.8-0.1-4.1-1.2-5.3c-7.9-8.7-16.3-17-23.9-25.9c-4.3-5-7.4-11-10.9-16.7c-0.3-0.5,0.7-2.7,1.3-2.8c1.4-0.2,3.4-0.2,4.4,0.6
	c13.3,10.4,26.1,21.5,39.7,31.4c18.2,13.3,26.2,34.2,39.9,50.8c1.9,2.3,5.1,3.7,7.9,5.1c11.6,5.4,22.8,11.4,28.8,23.6
	c0.5,1,1.4,2,1.5,3.1c3,18.2,15.6,28.5,30.9,35.9c8.8,4.2,13,10.9,15.9,19.6c1.7,5,5.3,9.6,8.6,13.9c5.6,7.2,11.4,14.2,17.5,21
	c5,5.6,10.3,11.1,15.8,16.2c9.3,8.6,15,19.3,18.6,31.2c3.5,11.7,6.9,23.4,9.8,35.2c0.5,1.8-1.4,5-3.1,6.3c-1.3,1-5.2,0.7-6-0.4
	c-3.6-5-7.5-10.2-9.5-16c-3.5-9.9-12.3-14.5-18.1-21.9c-8.2,7.7-9.1,15.6-4.8,24.4c2.5,5.2,1.6,9.4-2,14.1
	c-8.9,11.6-7.3,24.9-4.7,38c0.8,3.8,6.6,6.7,7,10.4c0.9,7.2,0.7,14.9-1,21.9c-3.6,14.9-3.4,29.1,2.9,43.3c0.8,1.8,0.3,4.7-0.6,6.5
	c-6.7,13-7.3,27.1-6.5,41.1c0.4,7.2,3.7,14.2,5.2,21.3c0.8,3.8,1.2,7.8,0.6,11.6c-0.5,3.9-3.3,7.6-3.5,11.4c-0.2,4,1.7,8.1,2.4,12.1
	c0.7,4,1.2,8.1,1.5,10.2c4.1-1,7.4-1.9,10.8-2.5c7.1-1.2,9.9-7.2,13.3-12.2c1.9-2.8,2.6-6.5,4.4-9.5c0.9-1.6,2.9-2.6,4.3-3.8
	c0.5,2,1.7,4,1.5,5.9c-2.2,18.5-10.2,35-18.3,51.4c-5.6,11.2-11.7,22.1-17.2,33.9c2.8-2.5,5.7-4.9,9.9-8.5
	c0.5,7.3-1.1,11.8-5.5,15.3c-14,11.2-24.5,25.3-33.1,40.8c-4.7,8.4-8.2,17.6-13.5,25.5c-4.5,6.8-11.2,12.1-16.3,18.5
	c-6.2,7.8-11.2,16.5-17.5,24.2c-11.5,14.2-23.7,27.9-35.4,41.9c-5.6,6.6-10.6,13.7-16.2,20.3c-1.7,2-4.4,3.2-8.8,4.4
	c0.3-2.7-0.2-5.7,1-7.9c2.6-4.6,6.2-8.7,9.1-13.2c0.9-1.5,0.9-3.6,1.2-5.5c-2.3,0.4-5.1,0-6.7,1.2c-7.5,5.7-14.6,12.1-22.1,17.9
	c-8.6,6.7-17.7,12.7-25.9,19.8c-9,7.6-17.2,16.1-25.8,24.2c-0.8,0.8-1.7,2-2.7,2.2c-10.7,1.6-16.8,10.8-25.6,15.5
	c-3.7,2-7.7,4.9-11.6,0.6c6.2-7.6,12.2-15,18.2-22.4c2.2-2.7,5.1-5.4,5.9-8.5c3.4-14,14.9-19.9,25.5-27c1.9-1.3,4-2.5,5.5-4.2
	c2.6-2.9,5-6.1,7-9.4c2-3.2,3.3-6.8,4.3-11.4c-5.4,4.1-10.7,8.1-16.1,12.2C762.9,838.6,762.3,837.7,761.7,836.7z M503.4,630.8
	c4.1,6.4,8.5,4,12.5,0.8c2.5-2,4.9-4.4,6.6-7.1c6.1-9.5,12-19.2,17.9-28.9c5.8-9.6,13.6-18.6,9.9-31.2c-0.2-0.8,1-2.9,1.4-2.8
	c6.2,0.3,4.5-4.8,4.2-7.2c-0.6-5-3.7-9.7-3.8-14.6c-0.3-10.3-2.7-19.8-5.9-29.7c-3.5-11-8.1-20.8-15-29.9c-2.7-3.6-3.4-8.9-6.4-12.1
	c-10-10.6-20.5-20.7-31-30.9c-0.6-0.5-1.8-0.3-2.7-0.6c-6.7-2.7-15.6-3.7-19.7-8.7c-6.5-7.9-15.2-7.8-22.7-8.9
	c-6.2-0.9-12.7,0.4-17.7-4.5c-1.5,2.1-2.7,3.8-3.8,5.4c-1.5-1.4-2.9-2.7-4.4-4.1c0.1,0.6,0.1,1.3,0.2,1.9c-6,0.5-12.1,1-18.1,1.7
	c-2.3,0.3-4.7,0.8-6.6,1.9c-4.6,2.7-9,5.5-13.3,8.7c-3.2,2.4-5.8,2.6-9.5,0.9c-2-0.9-6.1-0.5-7.6,1c-9.1,9.1-17.7,18.8-26.6,28.1
	c-6,6.3-12.9,11.8-18.2,18.6c-4.9,6.3-8.5,13.7-12.1,20.9c-7.6,15.2-10.9,31.9-4.7,47.5c4.8,12.1,3.9,24.1,4.7,36
	c1.1,15.4,3.4,24.8,13.2,34.8c0.6,0.6,0.9,1.7,1,2.6c0.9,12.5,10.5,19.6,18.5,26.5c12.2,10.5,27,17.1,43.2,19.6
	c2.1,0.3,6.3-1.2,6.3-1.9c0-5.1,3.5-5.3,6.6-4.9c2.4,0.3,4.6,2.2,7.1,3.5c4.1-5.1,7-5.3,12.4,0.4c11.4-8.1,23.9-12.3,38.3-10.7
	c3.7,0.4,7.6-1.8,11.4-2.5c5.7-1,10.5-2.6,8.1-10.4C487.2,639.2,497,640.2,503.4,630.8z M278.8,469.3c7.3-12,14.8-25.3,23.3-37.8
	c2.6-3.8,7.6-7.6,11.9-8.2c9.6-1.3,15-8.8,22.7-12.8c1.9-1,3.7-4,3.9-6.3c0.7-6.5,5-9.1,10.1-11.2c4.1-1.7,8.2-3.2,12.3-4.8
	c-0.1-0.7-0.3-1.4-0.4-2.1c-3.5,0.3-7.1,0.2-10.5,0.9c-6.3,1.4-12.2,1.4-18.2-1.2c-7.6-3.2-14.6-1.5-22,2.1
	c-6.1,2.9-13.1,3.8-19.6,5.9c-2.1,0.7-4.8,2-5.5,3.8c-5.3,12.3-10.1,24.9-15,37.4c-2.5,6.3-4.3,12,0.9,18.5
	C276.3,457.9,277.1,464.5,278.8,469.3z M515.2,404.4c4.7,4.4,8.4,7.5,11.7,11.1c7.9,8.7,15.6,17.5,23.3,26.3c0.9,1,1.8,2,2.7,3
	c0.5-1.5,1.6-3.1,1.5-4.6c-0.6-8.5-1.9-17-2.1-25.5c-0.1-6.2-3.9-9.5-8.6-10C534.9,403.8,525.9,404.4,515.2,404.4z M290.6,535.8
	c-5.4,9.6,8.9,67.9,16.5,72.1c-0.9-9.7-2-19.7-2.7-29.6c-0.4-5.5,1-11.4-0.8-16.3C300.4,553.2,295.3,545.1,290.6,535.8z
	 M116.2,453.7c-8.1-1.6-15.2-2.9-21.9-4.2c-4.1,6.2-4.1,8.4-0.2,10.4C101.2,463.5,109.5,461.7,116.2,453.7z M195.1,563.9
	c-4.7-5.3-14.1-8.3-20.3-5.9c-1.4,0.6-3.1,4.6-2.5,5.3C176.7,568.9,189.6,569,195.1,563.9z M788.9,570.4c-4.5,4.8-8.6,8.9-12.4,13.3
	c-1.3,1.5-2.4,3.5-2.7,5.5c-0.3,1.6,0.3,4.4,1.3,4.8c1.6,0.6,4.4,0.3,5.5-0.8C786.4,587.1,791.1,580.4,788.9,570.4z M231.1,574.6
	c-6,18.9-5.9,22.3,0.6,26.4C238.2,593.4,238.2,582.3,231.1,574.6z M220.9,575.8c0.7-1,1.4-1.9,2.1-2.9c-1.8-1.9-3.4-4.9-5.6-5.6
	c-5.7-1.7-11.8-2.5-17.7,5.4C207.8,574,214.3,574.9,220.9,575.8z M881.6,559c2.2-2.8,3.7-4.8,5.3-6.7c3.1-3.6,1.2-6.4-2.1-7.7
	c-2.9-1.1-6.4-0.9-9.7-1.2c0.5,3.1,0.6,6.2,1.7,9.1C877.5,554.6,879.4,556.2,881.6,559z M776,569c5-3.5,8.5-5.8,11.7-8.4
	c1.1-0.9,2.2-2.9,1.8-3.9c-0.4-1.1-2.6-2.7-3.6-2.4c-3.9,1.1-8.2,2.1-11.2,4.6C773.6,559.9,775.3,564.5,776,569z M906.8,438.7
	c-0.9-0.1-1.8-0.2-2.7-0.4c-9.3,5.6-9.4,7.8,0.9,17.1C905.6,449.9,906.2,444.3,906.8,438.7z M320.5,342.2c6.8-2.1,12.1-3.7,17.6-5.3
	C331.7,328.2,326.1,329.5,320.5,342.2z M304.8,335.3c-8.8,3.5-14.9,9.1-16.5,18.3c0.6,0.4,1.1,0.9,1.7,1.3
	C295,348.4,299.9,341.8,304.8,335.3z M895,573.4c-0.8-6.3-1.3-10.9-2-16.4C885.1,564,885.4,567.8,895,573.4z M300.4,511.5
	c-6.5,6.9-7.4,11.4-3,16.4C298.4,522.4,299.3,517.5,300.4,511.5z"/>
</svg>
