<?xml version="1.0" encoding="utf-8"?>
<!-- Generator: Adobe Illustrator 21.0.0, SVG Export Plug-In . SVG Version: 6.00 Build 0)  -->
<svg version="1.1" xmlns="http://www.w3.org/2000/svg" xmlns:xlink="http://www.w3.org/1999/xlink" x="0px" y="0px"
	 viewBox="0 0 715.4 590" style="enable-background:new 0 0 715.4 590;" xml:space="preserve">
<g id="Layer_2">
</g>
<g id="Layer_1">
	<path d="M544.9,535.9c5.7-6.7,11.2-13.6,17.2-20.1c2.2-2.4,5.2-4.1,8.1-5.5c9.9-4.8,15.4-13.9,21.9-22c2.5-3.1,5.4-5.8,8-8.8
		c1-1.1,2.3-2.3,2.4-3.6c1.3-10.2,9-15.3,15.6-21.9c5.8-5.8,9.7-13.6,14-20.7c3.7-6.1,6.2-12.9,10.6-18.5c4.8-6.2,5.1-13.2,5.7-20.2
		c0.3-3.6,0-7.3-0.6-10.9c-0.5-2.6-2.2-5-3-7.5c-1.4-4-3.2-8.1-3.7-12.2c-0.7-4.9-2.9-8.5-5.8-12.3c-4.5-5.8-8.4-12.2-12.5-18.4
		c-1.6-2.5-3-5.1-4.4-7.4c-4.6,0.9-9.2,1.1-13.3,2.7c-5.2,2-10.6,4.5-14.6,8.1c-7.8,6.9-14.7,14.8-22,22.2c-1.6,1.7-3.2,3.3-4.8,5
		c-4.8,5-8,10.7-7,18.1c0.2,1.9-0.1,4-0.7,5.8c-2.4,7.6-5.7,15-2.3,23.3c0.5,1.2,0,3.1-0.7,4.3c-5.7,8.5-11.5,16.9-17.3,25.2
		c-0.6,0.8-1.8,1.1-2.8,1.6c0-1.1-0.4-2.4,0-3.4c1-2.3,2.3-4.5,3.5-6.8c-0.4-0.3-0.7-0.5-1.1-0.8c-2.8,3.2-5.7,6.3-8.3,9.6
		c-4.1,5.3-8,10.8-12,16.2c-2.8,3.7-5.7,7.3-8.6,10.8c-0.4,0.5-2,0.7-2.1,0.6c-0.4-0.9-1.1-2.1-0.8-2.9c1.2-3.4,2.7-6.7,4.2-10
		c3.3-7.4,6.7-14.7,10.2-22.2c-3.9-2.7-6.4-2.3-8.5,1.6c-2.2,4.1-4.9,7.9-7.6,11.6c-0.6,0.9-2.1,1.1-3.2,1.6c-0.3-1.1-1.1-2.2-1-3.3
		c0.3-2.9,0.7-5.9,1.7-8.6c3.3-10,7-20,10.3-30c0.4-1.3-0.6-3-0.9-4.5c-1.2,0.6-2.5,1.1-3.7,1.7c-0.7,0.4-1.3,1-2.6,1.2
		c1-2.4,1.8-4.9,2.9-7.2c1.2-2.4,2.7-4.6,3.3-7.6c-1.3,1.1-2.5,2.1-3.9,3.3c-1.4-8.5,4.4-18.7,12.1-21c-0.3,1.8-0.5,3.5-0.9,6.1
		c5.5-4.5,10.6-7.4,10.2-15.4c-0.4-9.4,1.4-18.9,1.2-28.3c-0.4-13.9-1.8-27.8-2.7-41.6c-0.7-10.9-1-21.9-1.7-32.9
		c-0.6-10.1-1.6-20-6.7-29.2c-2.1-3.8-4.3-6.1-8.4-4.7c-6.6,2.3-12.6-1.2-18.8-1.2c-10.9-0.1-21.9-0.2-32.8,0
		c-1.1,0-2.3,1.8-4.2,3.4c-5-1.9-8.3,0.9-10.2,7.2c-1.2,3.8-4.5,7-6,10.8c-1.2,2.8-2.3,6.7-1.2,9.2c3.3,7.7,2.5,15.5,2.2,23.5
		c-0.3,5.8,0.2,11.6,0.1,17.4c-0.1,5.3-0.2,10.5-0.7,15.8c-0.6,6.4-0.7,13-2.4,19.2c-2.5,9.5,1.2,18.8-0.4,28.1c-0.2,1-0.2,2,0,3
		c2.2,10,3.4,20.2,9.9,28.8c2.3,3,4.3,6.3,5.9,9.7c0.8,1.7,0.6,3.9,1,7.1c-4.3-6.6-7.5-11.6-10.8-16.6c-0.7-1-1.9-2-3.1-2.4
		c-1.9-0.7-4-1-6-1.4c-0.3,1.9-1,3.8-0.9,5.7c0.3,8.1,0.7,16.2,1.2,24.3c0.2,2.9,0.9,5.8,1.3,8.7c0.2,1.3,0.6,2.7,0.2,3.8
		c-3.1,9.5-6.2,19-9.6,28.4c-0.6,1.7-2.5,3.4-4.2,4.2c-4,1.8-8.3,3.1-13.2,4.8c-0.2-2-0.7-4.2-0.6-6.4c0.4-9.5-1.1-18.2-5.9-26.8
		c-3.5-6.3-4.3-14.1-6.4-21.3c-0.6-2.1-1.4-4.2-1.9-5.5c-14.6,7.3-28.5,14.3-42.5,21.2c-5.5,2.7-11.2,5-17,7.1c-1.7,0.6-4-0.4-6-0.3
		c-3.9,0.2-9.1-0.9-11.4,1.2c-5.8,5.3-12.1,3.2-18.3,3.1c-5.1-0.1-9.7-1.1-15.1,1.5c-4.4,2.1-10.8,3.1-16.5-2
		c-10.6-9.4-22.3-17.6-33.7-26.2c-2.9-2.2-6-4-9-6.1c-0.4-0.3,0-1.6-0.4-2.2c-6.3-9.3-12.7-18.5-20.1-27.7c0.8,4,0.9,8.3,2.7,11.8
		c1.8,3.6,5.3,6.3,8.7,10.2c-2.8-1-4.9-1.8-7.7-2.9c0.1,2.5,0.3,5.5,0.4,8.4c0.1,2.5,0.1,5,0.4,7.5c0.5,3.6,1.4,7.2,1.9,10.8
		c1.1,8,3.7,15.2,9.1,21.3c0.4,0.5,0,1.7-0.1,2.6c-1.3-0.2-3.1,0-3.9-0.8c-5.6-5.2-11-10.7-16.7-16.3c-1.4,1.3-2.8,2.6-4.4,4.1
		c3.1,6.3,6.1,12.4,9,18.6c0.6,1.3,0.4,3,0.6,4.5c-1.2-0.5-2.8-0.7-3.6-1.5c-4.3-4.3-8.3-8.9-12.8-13c-2-1.7-5-2.3-7.9-3.6
		c0.2-0.8,0.7-2.1,0.7-3.3c-0.2-2.8-1-5.2-4.6-3.3c-4.1,2.2-6-0.2-6.9-3.6c-3-10.9-2.5-22-1.7-33.1c0.3-4.3-1.3-8.8-0.3-12.8
		c1.7-6.5,0.2-11.9-3.8-16.6c-2.1-2.4-5.6-3.4-7.9-5.7c-10.9-10.3-25-13.1-38.5-17.7c-5.1-1.7-10.8-3.5-13.6-9.1
		c-0.3-0.7-1-1.6-1.7-1.7c-4.9-0.6-10.4-2.5-14.7-1c-3.7,1.3-6.7,6-9.1,9.8c-1.6,2.5-1.7,6-2.5,9c-1.1,4-1.9,7.7-0.4,12.1
		c1.1,3.1-0.6,7.1-0.7,10.7c-0.1,2.7,0.1,5.5,0.8,8.1c1.7,6.5,3.5,13.1,5.8,19.4c1.4,3.8,4,7.1,5.7,10.8c1.8,3.7,3,7.7,4.8,11.4
		c3.7,7.5,7.8,14.9,11.5,22.4c3,6,5.5,12.1,8.6,18c1.4,2.6,3.2,5.5,5.6,7c12.7,8.2,18.9,20,21.1,34.6c0.5,3.6,3.3,7.1,5.6,10.2
		c4.2,5.7,8.8,11,13.4,16.5c2.9,3.4,5.8,6.8,8.9,10.4c-0.8,0.7-2.4,2.1-4.1,3.6c0.3,0.7,0.4,1.3,0.7,1.5
		c8.1,6.3,16.2,12.6,24.3,18.8c0.8,0.6,2,1,2.3,1.8c3.1,7.9,11,9.5,17.3,13.3c2.2,1.3,4.4,2.7,6.6,4.1c-0.1,0.5-0.1,0.9-0.2,1.4
		c-1.4,0.3-2.8,0.9-4.2,0.7c-3-0.3-5.9-1-8.8-1.6c-1.4-0.3-3.1-0.5-4.1-1.4c-3.9-3.7-8.6-4.8-13.8-5.8c-3.8-0.7-7.6-3-10.8-5.4
		c-4.1-3-7.3-7.1-11.2-10.4c-7-5.8-13.8-12-21.4-16.9c-8.4-5.4-13.5-13.4-19.6-20.7c-3-3.6-5.3-7.8-8.2-12.1
		c-3.5,11.7,3.6,19.8,7.5,28.8c0.5,1.2,0.2,2.7,0.3,4.1c-1.1-0.7-2.6-1.2-3.2-2.2c-5.7-10-13.2-18.8-16.7-30.2
		c-2-6.5-6.6-12.2-9.6-18.4c-4.7-9.8-8.8-19.9-13.9-29.5c-3.7-6.9-8.5-13.3-12.9-19.8c-1.2-1.8-2.7-3.4-4.2-4.9
		c-6.1-6.1-12.2-12.2-18.4-18.2c-0.5-0.5-1-0.9-1.3-1.4c-4.6-9.2-9.3-18.3-13.5-27.7c-1.7-3.7-2.1-7.9-2.9-12
		c-0.1-0.6,0.8-1.9,1-1.9c1.1,0.2,2.6,0.5,3.2,1.3c2.5,3.6,4.7,7.5,7.2,11.2c1.1,1.7,2.6,3.2,4.9,6c0.8-5.6,1.7-9.8,1.9-14
		c0.4-7.5,0.5-15,0.6-22.4c0-1.1-0.7-2.2-0.7-3.3c-0.1-2.7,0-5.3,0-8c0-7.4,0-14.8,0-23.1c-1.7,2.4-2.7,4-4.1,6
		c-3.4-4.3-2.4-8.7-3-12.8c-0.9-6-2.2-12-2.6-18c-0.4-6.4-0.3-12.9,0.1-19.4c0.3-5.1,2.4-10.1,2-15.1c-1-11.4,1.8-23.2-3.4-34.2
		c-0.7-1.5-0.3-3.9,0.2-5.7c1-3.3,1.8-6.9,3.8-9.6c5.5-7.3,2.5-15.4,2.3-23c-0.2-7.1-1.7-14.1-2.7-21.2c-0.2-1.1-0.6-2.2-0.8-3.2
		C16,179.8,5.7,189.5,2.5,205c-0.8-0.4-1.6-0.8-2.5-1.1c0.4-3.5,0.7-6.9,1.1-10.4c1.6-13.1,8-23.7,16.9-33c1.7-1.8,3.1-4,4.2-6.2
		c5.2-10.7,15.6-17,22.4-26.4c4.1-5.6,7.8-11.5,12-17.1c2-2.6,4.7-4.7,6.9-7.2c0.9-1,2.2-2.7,1.9-3.7c-1.3-4.5,1.3-5.4,4.6-6.5
		c2.2-0.8,4.3-2.4,5.8-4.2c6.6-7.7,13.1-15.5,19.4-23.5c1.2-1.5,1.7-3.9,1.8-5.8c0.2-3.6,1.7-5.9,5.2-6.1c4.7-0.3,7.3-3.4,10.1-6.6
		c5.1-5.9,10.1-11.9,15.5-17.6c1.2-1.3,3.7-1.5,5.5-2.3c1.3-0.6,2.8-1,3.8-1.9c4.8-4.1,9.4-8.4,14.1-12.6c3.6,5.1,3.6,5.6-2,10.2
		c-6.5,5.4-11.8,11.8-15.1,19.8c15.9-14,35-22.8,52.7-33.8c-4.4,8.3-10.2,14.7-19,18.5c-4.4,1.9-7.7,6.3-11.4,9.7
		c-1.3,1.2-2.6,2.6-3.5,4.2c-1.5,2.6-2.2,5.7-4,8c-2.6,3.3-5.8,6.1-8.9,8.9c-2.5,2.3-5.5,4.2-7.9,6.6c-0.8,0.9-1.2,3.2-0.6,4.3
		c1.6,3,0.1,4.3-2.2,5.5c-10,5.2-16.6,12.8-18.9,24.4c-0.9,4.4-4.7,8.2-7.2,12.2c-0.2,0.4-0.8,0.8-1.2,0.8
		c-10.4-1.2-11.4,8.8-15.2,14.2c-6.6,9.4-11.4,20.1-16.4,30.4c-2.4,5-4,10.1,0.2,15.7c1.8,2.5,2.6,7.7,1.2,10.1
		c-4.6,8.1-3.1,17.2-5.5,25.6c-1,3.3-1.2,6.9-1.9,10.3c-0.8,3.9-0.4,7.2,1.9,10.8c1.3,2,0.7,5.5,0.3,8.3c-0.2,1.7-1.8,3.1-2.5,4.8
		c-2.7,6.4-1.6,7.7,5.2,8.7c3.2,0.4,6.3,2,9.3,3.3c3.2,1.3,6.2,3,9.3,4.3c3.2,1.3,6.1,0.9,8.8-1.5c1.8-1.7,3.8-3.2,5.9-4.5
		c4.4-2.8,7.4-2.3,10.9,1.6c3.6,4,6.8,4.7,11.2,1.3c9.7-7.5,20.8-6.3,31.8-6.2c1.2,0,3,0,3.4-0.7c4.3-6.8,7-13.8,3.9-22.1
		c-0.8-2.2-0.3-5.9,1.1-7.7c3.5-4.3,4.2-9,4.1-14.2c-0.1-3.7,0.6-7.5,0.1-11.2c-0.6-5.3-2-10.5-3.1-16.5c-0.7,1.4-1,2.5-1.7,3.2
		c-0.7,0.7-1.8,1.2-2.7,1.7c-0.5-0.8-1-1.6-1.4-2.4c-0.7-1.4-1.4-2.8-1.9-4.3c-0.3-1.1-0.7-2.6-0.2-3.4c4.8-7.5,9.6-15,14.8-22.1
		c2.2-3,5.4-5.3,8.4-7.7c0.8-0.7,2.2-0.7,3.3-1.1c-0.2,1.2-0.3,2.4-0.6,3.5c-0.2,0.7-0.8,1.3-1.1,1.9c0.4,0.3,0.7,0.6,1.1,0.9
		c3.4-3.8,6.7-7.7,10.3-11.2c1.8-1.8,4.3-2.9,6.5-4.2c0.4-0.2,1.6,0.2,1.7,0.5c0.2,0.8,0.2,1.9-0.2,2.6c-3.8,6.9-7.6,13.7-11.6,20.5
		c-2.3,4-2.1,4.6,2.6,6.5c6.4-8.3,12.2-17.1,20.2-23.8c0.5,0.4,1,0.9,1.5,1.3c-3.2,7.1-6.3,14.1-9.3,20.9c3,0.7,6.4,0.9,6.5,1.6
		c0.4,2.4,0.4,5.4-0.8,7.5c-2.9,5-8.1,8.8-7.4,15.3c4.7-4.4,9.2-9.1,14.2-13.2c1.8-1.4,4.8-1.7,7.3-1.7c5.7-0.2,11.3,0.1,17,0.2
		c0.6,0,1.2,0.5,1.7,0.9c9.4,8.2,21.3,8.1,32.7,9.6c4.5,0.6,9.1,1.2,13.6,1.6c1.2,0.1,2.5-0.2,4.1-0.4c-1.1-2.1-1.9-3.8-3.1-6.3
		c8.3-1.6,15.8-4.8,23.4,1.1c2.2,1.7,5.6,2.1,8.5,2.5c8.3,1.4,16.7,2.6,25.1,3.6c2,0.2,4.7,0.1,6.2-1.1c8.6-6.6,18.6-6.2,28.6-6.1
		c6.9,0.1,13.8,0.7,20.8,1.1c9.4,0.6,18.1-1.6,26.4-5.7c5.8-2.8,11.8-2.5,17.8-0.1c2.2,0.9,4.8,1.3,7.1,1c8.8-1.1,17.6-2.9,26.4-3.8
		c2-0.2,5,1.1,6.3,2.7c6.6,8.3,12.8,16.8,19.1,25.3c3,4,3.6,10.3,10.9,11c-6-22.1-14.2-42.8-29.4-60.9c9.6-0.8,9.6,9.1,15.9,12.3
		c-0.1-1.5,0.1-2.7-0.4-3.3c-6.2-7.3-6.1-18-13.5-24.8c-1.6-1.5-5.3-3.9-1.5-7.5c10.8,11.6,21.6,23.2,32.3,34.7
		c0.2-0.1,0.5-0.2,0.7-0.3c-3.7-6.9-7.3-13.8-11.1-20.7c-2.8-5.1-5.9-10-8.7-15c-0.5-0.8-0.2-2-0.3-3c1,0.1,2.2-0.1,2.9,0.5
		c8.8,6.9,18.3,12.8,25.9,21.2c8.1,9,16.1,18.1,21.7,28.8c2.5,4.7,2.2,10.7,0.2,16.2c-0.8,2.4-0.8,5.1-0.8,7.7
		c-0.1,6.4,0.1,12.8-0.1,19.1c-0.1,3.4-1.1,6.8-1.3,10.3c-0.1,1.1,1.2,2.3,1.9,3.5c1.8,3.2,4.5,6.2,5.3,9.6c0.9,4.2,2.1,7.3,6,9.6
		c4,2.3,7.4,5.7,11.3,8c2.3,1.3,5.3,1.7,8,2.2c9.1,1.6,18.3,3.2,27.5,4.4c2.3,0.3,4.9-0.2,7-1.1c6-2.3,12.2-4.5,17.8-7.6
		c3.4-1.8,5.6-5.7,8.8-7.8c5.7-3.6,5-8.6,4.9-14.2c-0.1-10.3,0.9-20.6,1.2-30.8c0.1-2.4,0-4.9-0.7-7.1c-3.8-11.1-7.5-22.2-11.8-33.1
		c-1.6-4.1-4.6-7.5-6.8-11.4c-1.8-3.2-4.2-6.4-4.9-9.9c-1.3-6.2-4-9.9-10-11.4c-4.3-1-7-3.2-5.3-8.1c1.9-5.5-0.3-9.2-4.1-13.2
		c-12.1-12.7-24.1-25.5-35.3-39c-11.5-13.8-22.1-28.4-33.1-42.7c-0.6-0.7-1.2-1.5-1.9-2.1c-5.2-4.6-10.5-9.1-15.7-13.6
		c0.3-0.7,0.5-1.3,0.8-2c1.6,0,3.2-0.3,4.7,0.1c8.1,2.3,14.4,7.3,20.2,13.2c4.4,4.4,9.4,8.2,14.1,12.3c2.5,2.2,5,4.5,8.6,6.3
		c-0.3-1.3-0.1-2.9-0.8-3.8c-5.6-6.2-11.7-12.1-17.1-18.5c-3.1-3.6-5.3-7.9-7.8-11.9c-0.2-0.4,0.5-1.9,0.9-2c1-0.2,2.4-0.1,3.2,0.5
		c9.5,7.5,18.7,15.4,28.4,22.5c13,9.5,18.7,24.5,28.5,36.4c1.4,1.6,3.6,2.7,5.6,3.6c8.3,3.9,16.3,8.2,20.6,16.9
		c0.4,0.7,1,1.4,1.1,2.2c2.2,13,11.2,20.4,22.1,25.7c6.3,3,9.3,7.8,11.4,14c1.2,3.6,3.8,6.9,6.1,9.9c4,5.2,8.2,10.2,12.5,15
		c3.6,4,7.3,7.9,11.3,11.6c6.6,6.2,10.7,13.8,13.3,22.3c2.5,8.4,4.9,16.7,7,25.2c0.3,1.3-1,3.6-2.2,4.5c-0.9,0.7-3.7,0.5-4.3-0.3
		c-2.6-3.6-5.4-7.3-6.8-11.4c-2.5-7.1-8.8-10.3-13-15.7c-5.9,5.5-6.5,11.2-3.4,17.5c1.8,3.7,1.2,6.8-1.4,10.1
		c-6.4,8.3-5.2,17.8-3.4,27.2c0.5,2.7,4.7,4.8,5,7.4c0.6,5.1,0.5,10.7-0.7,15.7c-2.6,10.7-2.4,20.9,2.1,31c0.6,1.3,0.2,3.3-0.4,4.6
		c-4.8,9.3-5.2,19.4-4.6,29.4c0.3,5.1,2.6,10.1,3.7,15.3c0.6,2.7,0.8,5.6,0.5,8.3c-0.4,2.8-2.4,5.4-2.5,8.2
		c-0.1,2.9,1.2,5.8,1.7,8.7c0.5,2.9,0.9,5.8,1.1,7.3c2.9-0.7,5.3-1.4,7.7-1.8c5.1-0.9,7.1-5.1,9.5-8.7c1.4-2,1.9-4.6,3.1-6.8
		c0.7-1.1,2-1.8,3.1-2.8c0.4,1.4,1.2,2.9,1.1,4.2c-1.6,13.2-7.3,25-13.1,36.8c-4,8-8.4,15.8-12.3,24.2c2-1.8,4.1-3.5,7.1-6.1
		c0.4,5.2-0.8,8.5-3.9,10.9c-10,8-17.5,18.1-23.6,29.2c-3.3,6-5.9,12.6-9.7,18.3c-3.2,4.9-8,8.6-11.7,13.3
		c-4.4,5.6-8,11.8-12.5,17.3c-8.3,10.2-16.9,20-25.3,30c-4,4.7-7.6,9.8-11.6,14.5c-1.2,1.5-3.2,2.3-6.3,3.1c0.2-1.9-0.2-4.1,0.7-5.6
		c1.9-3.3,4.5-6.2,6.5-9.4c0.7-1.1,0.6-2.6,0.9-3.9c-1.6,0.3-3.6,0-4.8,0.9c-5.4,4.1-10.5,8.6-15.8,12.8
		c-6.1,4.8-12.6,9.1-18.6,14.2c-6.4,5.5-12.3,11.5-18.5,17.3c-0.6,0.6-1.2,1.4-1.9,1.5c-7.7,1.1-12,7.7-18.3,11.1
		c-2.7,1.4-5.5,3.5-8.3,0.5c4.4-5.4,8.8-10.7,13-16c1.6-1.9,3.7-3.8,4.2-6.1c2.5-10,10.7-14.3,18.2-19.3c1.4-0.9,2.9-1.8,4-3
		c1.8-2.1,3.5-4.3,5-6.7c1.4-2.3,2.4-4.9,3.1-8.2c-3.8,2.9-7.7,5.8-11.5,8.7C545.8,537.2,545.3,536.6,544.9,535.9z M360.2,388.6
		c3,4.6,6.1,2.9,9,0.6c1.8-1.4,3.5-3.2,4.8-5.1c4.4-6.8,8.6-13.7,12.8-20.7c4.1-6.9,9.7-13.3,7.1-22.3c-0.2-0.6,0.7-2.1,1-2
		c4.4,0.2,3.2-3.4,3-5.2c-0.4-3.6-2.6-7-2.7-10.5c-0.2-7.4-1.9-14.2-4.2-21.2c-2.5-7.8-5.8-14.9-10.7-21.4c-1.9-2.6-2.4-6.4-4.6-8.7
		c-7.1-7.6-14.7-14.8-22.1-22.1c-0.4-0.4-1.3-0.2-1.9-0.4c-4.8-1.9-11.2-2.7-14.1-6.2c-4.6-5.6-10.8-5.6-16.3-6.3
		c-4.5-0.7-9.1,0.3-12.6-3.2c-1,1.5-1.9,2.7-2.7,3.9c-1.1-1-2.1-1.9-3.2-2.9c0,0.4,0.1,0.9,0.1,1.3c-4.3,0.4-8.6,0.7-12.9,1.2
		c-1.6,0.2-3.3,0.6-4.7,1.4c-3.3,1.9-6.5,4-9.5,6.2c-2.3,1.7-4.1,1.9-6.8,0.6c-1.4-0.7-4.4-0.3-5.4,0.7
		c-6.5,6.5-12.7,13.4-19.1,20.1c-4.3,4.5-9.3,8.4-13,13.3c-3.5,4.5-6.1,9.8-8.7,14.9c-5.4,10.9-7.8,22.8-3.4,34
		c3.4,8.7,2.8,17.2,3.4,25.8c0.8,11,2.4,17.8,9.4,24.9c0.4,0.4,0.7,1.2,0.7,1.8c0.6,8.9,7.5,14,13.3,18.9c8.7,7.5,19.3,12.3,30.9,14
		c1.5,0.2,4.5-0.9,4.5-1.4c0-3.6,2.5-3.8,4.8-3.5c1.7,0.2,3.3,1.6,5.1,2.5c2.9-3.7,5-3.8,8.9,0.3c8.1-5.8,17.1-8.8,27.4-7.6
		c2.6,0.3,5.4-1.3,8.2-1.8c4.1-0.7,7.5-1.9,5.8-7.5C348.5,394.6,355.6,395.3,360.2,388.6z M199.4,273.1c5.2-8.6,10.6-18.1,16.7-27
		c1.8-2.7,5.4-5.4,8.5-5.9c6.8-0.9,10.7-6.3,16.2-9.1c1.4-0.7,2.6-2.9,2.8-4.5c0.5-4.6,3.6-6.5,7.3-8c2.9-1.2,5.9-2.3,8.8-3.4
		c-0.1-0.5-0.2-1-0.3-1.5c-2.5,0.2-5.1,0.1-7.5,0.7c-4.5,1-8.7,1-13-0.8c-5.5-2.3-10.5-1-15.7,1.5c-4.4,2.1-9.4,2.7-14,4.2
		c-1.5,0.5-3.4,1.4-3.9,2.7c-3.8,8.8-7.2,17.8-10.8,26.7c-1.8,4.5-3.1,8.6,0.7,13.3C197.6,264.9,198.2,269.6,199.4,273.1z
		 M368.6,226.7c3.3,3.1,6,5.4,8.3,7.9c5.7,6.2,11.1,12.5,16.7,18.8c0.6,0.7,1.3,1.4,1.9,2.2c0.4-1.1,1.2-2.2,1.1-3.3
		c-0.4-6.1-1.4-12.2-1.5-18.3c-0.1-4.5-2.8-6.8-6.1-7.2C382.7,226.2,376.2,226.7,368.6,226.7z M207.9,320.7
		c-3.8,6.9,6.4,48.6,11.8,51.6c-0.6-7-1.4-14.1-1.9-21.2c-0.3-3.9,0.7-8.2-0.5-11.7C214.9,333.1,211.3,327.3,207.9,320.7z
		 M83.2,261.9c-5.8-1.1-10.9-2.1-15.7-3c-3,4.5-2.9,6-0.2,7.4C72.4,268.9,78.3,267.6,83.2,261.9z M139.6,340.7
		c-3.4-3.8-10.1-6-14.5-4.2c-1,0.4-2.2,3.3-1.8,3.8C126.4,344.3,135.6,344.4,139.6,340.7z M564.4,345.4c-3.2,3.4-6.2,6.4-8.9,9.5
		c-0.9,1.1-1.7,2.5-2,3.9c-0.2,1.1,0.2,3.2,0.9,3.4c1.1,0.4,3.2,0.2,3.9-0.6C562.6,357.3,565.9,352.5,564.4,345.4z M165.3,348.4
		c-4.3,13.5-4.2,16,0.4,18.9C170.4,361.8,170.4,353.9,165.3,348.4z M158,349.3c0.5-0.7,1-1.4,1.5-2.1c-1.3-1.4-2.4-3.5-4-4
		c-4.1-1.2-8.4-1.8-12.6,3.9C148.6,347.9,153.3,348.6,158,349.3z M630.7,337.2c1.6-2,2.6-3.4,3.8-4.8c2.2-2.6,0.8-4.6-1.5-5.5
		c-2.1-0.8-4.6-0.6-6.9-0.9c0.4,2.2,0.5,4.5,1.2,6.5C627.7,334,629.1,335.2,630.7,337.2z M555.1,344.4c3.6-2.5,6.1-4.1,8.4-6
		c0.8-0.6,1.5-2,1.3-2.8c-0.3-0.8-1.9-1.9-2.5-1.7c-2.8,0.8-5.9,1.5-8,3.3C553.4,337.8,554.7,341.2,555.1,344.4z M648.7,251.2
		c-0.6-0.1-1.3-0.2-1.9-0.3c-6.6,4-6.7,5.5,0.6,12.3C647.8,259.1,648.3,255.1,648.7,251.2z M229.3,182.1c4.9-1.5,8.7-2.6,12.6-3.8
		C237.3,172.1,233.3,173.1,229.3,182.1z M218.1,177.2c-6.3,2.5-10.7,6.5-11.8,13.1c0.4,0.3,0.8,0.6,1.2,0.9
		C211,186.5,214.6,181.9,218.1,177.2z M640.2,347.5c-0.5-4.5-0.9-7.8-1.4-11.8C633.2,340.8,633.4,343.5,640.2,347.5z M214.9,303.2
		c-4.7,4.9-5.3,8.2-2.1,11.8C213.5,311,214.1,307.6,214.9,303.2z"/>
</g>
</svg>
