<?xml version="1.0" encoding="utf-8"?>
<!-- Generator: Adobe Illustrator 21.0.0, SVG Export Plug-In . SVG Version: 6.00 Build 0)  -->
<svg version="1.1" xmlns="http://www.w3.org/2000/svg" xmlns:xlink="http://www.w3.org/1999/xlink" x="0px" y="0px"
	 viewBox="0 0 137.5 64.3" style="enable-background:new 0 0 137.5 64.3;" xml:space="preserve">
<g id="Layer_2">
</g>
<g id="Layer_1">
	<path d="M117.5,43.6c1.1,2,2.9,2.3,4.3,2.9c0,0.5,0,0.9,0,1.3c-1.8-0.8-3.7-1.6-4.9-3.4c-0.6-1-1.1-2.1-2.5-2
		c-1.3-1.6-3.1-1.1-4.7-1.2c-3.8-0.1-6.7,1.7-9,4.6c-1.2,1.5-2.4,3-3.7,4.5c-0.8,1-1.6,1.7-3,1.9c-3.1,0.5-5.8,1.8-8,4.1
		c-0.9,0.9-1.8,1.2-2.9,1.7c-1.1,0.5-2,1.7-2.9,2.7c-0.1,0.1-0.2,0.3-0.2,0.4c-0.4,1.3-1.3,1.8-2.7,1.9c-1.8,0.1-3.6,0.6-5.4,1
		c-1.1,0.2-2,0.5-2.9-0.7c-0.6-0.8-1.7-1.4-2.7-1.7c-1.7-0.6-3.6-1.5-5.4-1.4c-1.9,0.1-3.7-0.2-5.5-0.6c-2-0.5-4.1-0.6-6,0.4
		c-0.1,0-0.1,0.1-0.2,0.1c-2.2-0.5-4,0.8-5.8,1.7c-1.3,0.6-2.6,0.4-3.5-0.4c-1.6-1.4-3-3-4.6-4.5c-0.5-0.5-1.1-0.8-1.7-1.3
		c-1.1-0.9-2.1-1.7-3.1-2.6c-0.9-0.8-1.7-1.6-3.2-1.7c-1-0.1-1.9-1-2.8-1.7c-1.2-0.9-2.4-1.8-3.9-1.9c-0.2,0-0.5-0.3-0.7-0.6
		c-1-1.7-1.9-3.5-3-5.1c-0.5-0.8-1.4-1.3-2.1-1.8c-0.5-0.4-1.2-0.6-1.8-0.8c0-0.1,0.1-0.2,0.1-0.3c0.7,0.1,1.5,0.3,2.2,0.4
		c0.2-1.3-1.1-3-2.9-3.7c-1.6-0.7-3.2-0.8-4.8,0.1c-0.9,0.5-1.9,0.8-2.8,1.1c-0.1-0.2-0.2-0.4-0.2-0.5c1.7-1.2,3.6-1.9,5.9-2.7
		c-0.8-0.9-1.6-1.8-2.3-2.7C8,30.6,7.9,30.1,8,29.8c0.8-1.4,0.4-3.9-1.1-4.7c-1.7-1-3.5-1.9-5.6-1.6c-0.4,0.1-0.9-0.1-1.3-0.2
		c0-0.1,0-0.2,0-0.3c0.2,0,0.4,0,0.7-0.1c-0.2-0.2-0.3-0.4-0.7-1c2.9,0.6,5.4,1.5,7.6,2.5c0.3-0.4,0.7-1.2,0.9-1.1
		c0.8,0.3,0.6,0.9,0.6,1.7c-0.1,3,0.6,5.8,2.4,8.3c0.4,0.6,1.2,0.9,1.8,1.3c0.1-0.1,0.2-0.1,0.3-0.2c-0.3-0.6-0.7-1.3-1.1-2.1
		c0.8-2.1-1.1-3.8-1.7-5.7c0.8-1.3-0.4-2-1.1-3c1,0.1,1.2-0.4,1.1-1.2c-0.1-0.8-0.1-1.5,0-2.3c0-0.4,0.3-0.8,0.6-1.2
		c0.1,0.5,0.1,1.1,0.2,1.7c0.6-0.1,1.1-0.2,1.7-0.4c0.1-0.7,0.2-1.5,0.3-2.2c0.1,0,0.2,0,0.3,0c0.3,0.7-0.6,1.9,0.9,2.2
		c-0.1,0.1-0.1,0.2-0.2,0.4c-0.6,0.2-1.2,0.4-1.8,0.5c-0.6,0.1-1.1,0.3-1.1,1.1c0,0.6,0,1.3-0.1,1.8c0.4-0.1,0.9-0.2,1.7-0.3
		c-1.2,1.7-1.3,3.1-0.4,4.7c0.5-0.9,1-1.7,1.4-2.5c0.1,0,0.2,0.1,0.3,0.1c-0.2,0.6-0.4,1.2-0.5,1.8c-0.2,0.7-0.4,1.3-0.6,2.2
		c2-0.1,3.8-0.2,5.6-0.3c0,0.1,0,0.2,0.1,0.4c-0.3,0.2-0.6,0.3-1,0.5c0.3,0.4,0.5,0.7,0.9,1.2c-1.3-0.1-2-1.8-3.4-0.8
		c1.1,1.6,2.9,1.3,4.5,1.8c0.3-1.1,0.6-2.3,0.8-3.4c0.1-0.3-0.2-0.7-0.4-1C20,27.6,19.4,27,19,26.2c-0.2-0.4-0.1-1.3,0.1-1.4
		c1.2-0.6,0.4-1.5,0.4-2.3c1.2,0.6,0.9,1.8,0.7,2.4c-0.2,0.7-0.7,1.3,0.1,2c0.5,0.4,1.1,0.9,1.7,1.3c0.2,2.6-2,5.5,0.2,8.3
		c1.3-2.1,1.1-10.1,0.1-11.7c0-0.5,0.1-1.1,0-1.6c-0.7-2.3-2.2-4.1-3.7-5.9c-0.7-0.8-1.2-1.7-0.6-3c0.4,0.8,0.7,1.5,1.1,2.3
		c0.6-2.1,1.2-4,1.7-6c0.4-1.3-0.9-1.6-1.5-2.3c-0.3-0.3-0.7-0.5-1-0.7c0-0.1,0.1-0.2,0.1-0.3c0.6,0.2,1.2,0.4,1.8,0.7
		c0.5,0.3,1,0.8,1.5,1.2C22,8.4,22.4,7.7,22.7,7C22.8,7,22.9,7,23,7.1c-0.3,0.8-0.6,1.6-0.9,2.4c-0.7,2.2-1.5,4.5-1.9,6.7
		c-0.2,0.9,0.3,2.1,0.9,2.9c1.6,2.3,2.6,4.8,2.9,7.6c0.1,1.1,0,2.3,0,3.5c0.1,0,0.3,0,0.4,0.1c0.3-0.2,0.5-0.4,0.8-0.6
		c0.5,0.8-1.7,2.2,0.6,2.5c0.1-0.6,0.3-1.2,0.4-1.8c0.1,0,0.2,0,0.3,0.1c0,0.5,0,1,0.1,1.7c0.4-0.1,0.7-0.2,1-0.1
		c1.8,0.7,2.7-0.4,3.4-1.8c0.2-0.4,0.2-0.9,0.1-1.3c-0.1-0.5-0.3-1,0.6-0.6c0.1,0,0.6-0.4,0.6-0.6c0.1-1,0-2.1,0.1-3.1
		c0.1-0.7,0.4-1.5,0.5-2.2c0.1,0,0.2,0.1,0.3,0.1C33.3,23.1,33,24.1,33,25c0,0.8,0.3,1.7,0.5,2.7c-1.3,1-1.9,2.6-2,4.7
		c-1.4,0.2-3,0.5-4.6,0.8c-0.1,0.8,2.4,8.6,3.2,9.2c0-1.4,0-2.8,0-4.1c0-1.3-0.2-2.7-0.3-4c1,0.4,1.6,1.9,3,1.2
		c-0.2-1-0.5-2.1-0.7-3.1c0.1,0,0.3-0.1,0.4-0.1c0.4,0.7,0.8,1.4,1.3,2.4c0.5-0.8,1.2-1.3,1.3-2.1c0.4-1.4,0.5-2.8,0.1-4.3
		c-0.2-0.8,0.3-1.7,0.4-2.6c0.1,0,0.2,0,0.3,0c0,0.3,0.1,0.7,0.1,1c0,1.2-0.4,2.6,0.1,3.5c0.6,1.2,0.9,2.3,1,3.6
		c0,0.1,0.1,0.2,0.2,0.2c0.9,0.6,1.3,1.4,1.2,2.5c-0.1,0.5,0.2,1.1,0.3,1.6c0.1,0,0.3,0,0.4-0.1c-0.1-1-0.3-2-0.4-3.1
		c-0.1-0.9-0.2-1.7-0.2-2.6c0-0.2,0.3-0.3,0.6-0.7c0,0.6,0,0.9,0,1.6c0.4-0.7,0.7-1.2,1-1.7c0.6,1.3-1.6,2.4-0.2,3.8
		C39.7,36.7,40,38,41.7,40c0.8-0.7,1.6-1.4,2.3-2c0,0,0.1,0.1,0.1,0.1c-0.8,1.3-1.7,2.6-2.4,4c-0.4,0.8-0.6,1.6-0.7,2.5
		c-0.1,0.3,0.1,0.8,0.3,0.9c0.8,0.5,2.2-0.2,2.4-1.1c0.4-2.4,0.9-4.7,1.3-7.1c0.2-1.3-0.5-2.4-1.1-3.4c-1.2-1.9-2.6-3.6-3.9-5.4
		c-0.3-0.5-0.5-1.1-0.7-1.7c0.1-0.1,0.2-0.1,0.4-0.2c0.4,0.6,0.8,1.3,1.1,1.9c0.2-0.1,0.4-0.1,0.6-0.2c-0.2-2.2-0.4-4.5-0.6-6.7
		c0.1,0,0.1,0,0.2,0c0.2,0.4,0.4,0.9,0.6,1.4c2.2-2,0.5-3.7-0.2-5.5c0.3,0,0.6,0,0.9,0c0.4,1.1,0.7,2.2,1.1,3.4
		c1.6-0.8,1.4-2.3,1.8-3.7c0.1,0.4,0.2,0.8,0.3,1.3c0.4-0.4,0.8-0.7,1.2-1c0.1,0.1,0.2,0.1,0.3,0.2c-0.8,1.1-1.6,2.3-2.4,3.5
		c0.2,0.1,0.6,0.3,0.8,0.6c0.2,0.3,0.3,0.7,0.4,0.9c-0.8-0.3-1.8-0.9-2.1-0.6c-0.8,0.6-1.8,1.7-1.7,2.4c0.3,2.1-0.2,4.4,1.1,6.3
		c0.8,1.1,1.6,2.2,2.5,3.5c0.5-1.9,1-3.6,1.5-5.2c0.4-1.4,0-2.7-0.8-3.9c-0.2-0.4-0.4-0.9-0.6-1.5c0.4,0.3,0.7,0.5,0.7,0.5
		c0.7-1.3,1.5-2.7,2.2-4c0.2,0.1,0.3,0.2,0.5,0.3c-0.4,0.7-0.9,1.4-1.2,2.2c-0.3,0.9-0.4,1.8-0.4,2.7c0.1,0.9,0.5,1.7,0.7,2.2
		c1.6-1.4,3.5-3,5.4-4.5c0.1,0.1,0.1,0.1,0.2,0.2c-0.5,0.8-1,1.6-1.5,2.4c0.4,0.2,0.8,0.5,1.3,0.8c0,0.1-0.1,0.1-0.1,0.2
		c-0.5-0.1-1-0.2-1.5-0.3c-2-0.5-2.6,1.3-3.3,2.4c-0.9,1.4-1.3,3.1-1.9,4.6c-0.1,0.4-0.1,0.8-0.1,1.3c0.1,0,0.3,0.1,0.4,0.1
		c0.2-0.8,0.5-1.6,0.7-2.4c1.6-0.2,2.2-2.1,3.9-2.6c-0.4,0.5-0.8,0.9-1.2,1.4c-0.3,0.3-0.7,0.5-0.9,0.9c-1.3,2-1.2,2.9,1.5,4.1
		c0.3,0.1,0.6,0.3,0.6,0.5c0,0.5,0.1,1,0.1,1.5c0.6-0.1,1.2,0,1.7-0.3c1.2-0.7,1-1.9,0.8-3c-0.1-0.6-0.3-1.1-0.5-1.7
		c1.1,0.2,1-0.3,1-1c0.1,0.3,0.2,0.5,0.2,0.8c-0.1,2.4,0.7,4.6,2,6.6c0.6,0.9,1.1,1.9,0.2,3c-0.3,0.4-0.5,1.1-0.6,1.7
		c-0.1,0.4,0.1,0.9,0.3,1.5c0.7-0.5,1.1-0.8,1.6-1.2c0.1,0.1,0.1,0.1,0.2,0.2c-0.5,0.9-1.2,1.8-1.6,2.7c-0.3,0.7-0.4,1.6,0.6,2.1
		c0.8,0.4,1.6,0.9,2.5,1.3c1,0.4,1.6-0.1,1.4-1.2c-0.3-1.4-0.8-2.8-1.3-4.2c-0.8-2.2-1.8-4.4-2.3-6.7c-0.3-1.2,0.1-2.7,0.2-4
		c0.2-1.8,0.6-3.6-0.4-5.4c-0.9-1.8-1.2-3.9-1.7-5.8c1.8,1.9,1.9,4.7,3,7c0.1,0,0.2,0,0.4,0c0.1-1.6,0.3-3.2,0.4-4.8
		c0.1,0,0.3,0.1,0.4,0.1c0.2-1.2,0.5-2.3,0.7-3.5c0.1,0,0.2,0,0.4,0.1c-0.4,2.8-0.8,5.5-1.3,8.3c-0.1,0.8,0,1.2,0.5,1.7
		c1.7,1.7,3.4,3.5,4.9,5.1c0-0.4,0.1-1,0.2-1.6c0.1-0.7,0-1.2-0.8-1.4c-0.8-0.2-1.5-0.6-2.2-0.8c0.4-0.5,0.8-1,1.2-1.4
		c-0.6-0.7-1.2-1.3-1.8-1.9c0.1-0.1,0.2-0.2,0.2-0.2c0.6,0.5,0.9,1.5,2.1,1.2c0.3-0.1,0.8,0.9,1.4,1.3c-0.7-1.8-0.8-3.7-1.9-5.3
		c-0.6-0.9-0.5-2.2-0.6-3.4c0.9,2,1.9,4.1,2.8,6.1c0.1,0,0.3,0,0.4,0c0.8-3.2,1.5-6.5,2.2-9.4c0.4,0.8,0.4,2.8-0.2,4.4
		c-1.1,2.7-1.5,5.5-1.6,8.3c0,1.2,0.8,2.4,1.3,3.6c0.2,0,0.4-0.1,0.6-0.1c0-1.2-0.1-2.5,0-3.7c0.1-0.8,0.4-1.5,0.7-2.2
		c0.1-0.1,0.7-0.2,0.9,0c0.9,0.6,1.7,1.2,2.8,2c0.1-0.8,0.2-1.4,0.2-2.1c-0.2-2.5-0.4-5.1,0.2-7.6c0.3-1.2,0-2.6-0.4-3.8
		c-0.6-2,1-4.2,3.3-4c-0.6,0.4-1,1-1.6,1.2c-1.2,0.4-1.2,1.4-0.8,2.1c1.2,2.7,0,5.4-0.2,8.1c0,0.4-0.1,0.7,0,1.1
		c0.1,1.8,0.3,3.6,0.5,5.5c0.7,0,1.5,0,2.4,0c0.1-0.4,0.3-0.8,0.6-1.4c0.1,1.1,0,1.9,1.1,1.9c0.2,0,0.3,0.7,0.5,1.2
		c-0.5,0-1,0-1.4,0c0.1,0.4,0.2,0.8,0.3,1.3c0.2-0.1,0.4-0.2,0.7-0.5c-0.1,0.8-0.2,1.4-0.3,2.1c1,0,0.9,0.5,0.7,1.2
		C78,39.9,77,41,77.5,42.5c1,0,2,0,3,0c-0.1-0.1-0.1-0.2-0.2-0.3c0.2-0.2,0.7-0.4,0.7-0.7c0-0.7,0.1-1.5-0.2-2.2
		c-0.4-1-1-1.9-1.4-2.9c0.4,1,2.2-0.2,2.2,1.7c0.5-0.6,0.9-1.3,1.4-1.9c-0.1,1.5-2,3,0,4.6c0.3-0.9,0.6-1.8,0.9-2.7
		c0.1,0,0.2,0,0.3,0.1c-0.3,1.2-0.6,2.5-0.9,3.8c0.4-0.2,0.8-0.4,1.2-0.5c0.1,0.1,0.2,0.1,0.3,0.2c-0.3,0.5-0.6,1.1-1,1.5
		c-0.8,0.9-0.4,2.6,0.8,3.2c0.1-0.9,0.2-1.8,0.4-2.9c0.6-0.2,1.3-0.5,2-0.8c0.1,0.1,0.1,0.2,0.2,0.3c-1.2,1.2-2.2,2.4-1.1,4.2
		c1.3-0.3,1.5-1.6,1.8-2.6c0.5-1.6-0.4-3.1-0.9-4.5c-0.5-1.3-1.3-2.4-2-3.6c-0.1-0.3-0.2-0.6-0.3-1c0.7,0.9,1.3,1.6,1.8,2.3
		c0.1,0,0.2-0.1,0.3-0.1c0-1.1,0-2.2,0-3.2c0-0.2-0.3-0.5-0.5-0.6c-1.8-0.8-3.6-1.5-5.4-2.2c-1.1-0.4-2.2-0.9-3.3-1.3
		c-0.5-0.2-1-0.2-1.5-0.3c1-0.8,3.1-0.8,5.3,0.3c1.7,0.8,3.4,1.6,5.3,2.3c-0.2-0.4-0.4-1-0.7-1.3c-0.4-0.4-0.9-0.5-1.4-0.8
		c0-0.1,0.1-0.3,0.1-0.4c0.5,0.1,1,0.2,1.4,0.2c-0.1-0.4-0.2-1-0.3-1.5c0.9,0.8,1.5,1.6,1.5,2.8c0,2.2,1.3,3.6,3.5,4
		c0.6-1.9-0.3-3.7-0.6-5.5c0.1,0,0.3-0.1,0.4-0.1c0.3,1.4,0.9,2.7,1,4.1c0.1,1.3,0.4,2.1,1.7,2.7c0.7,0.3,1.4,0.9,2.3,1.6
		c0.2-0.9,0.5-1.6,0.6-2.3c0.3-2.7,0.1-2.9-2.7-3.3c-0.2,0-0.4-0.1-0.7-0.3c1-0.1,2-0.1,3.1-0.2c-0.5-3.5-2.6-5.8-5.2-7.7
		c0.1-0.1,0.1-0.2,0.2-0.2c0.4,0,0.7,0.1,1.2,0.1c-0.1-1.2-0.2-2.4-0.2-3.5c0.1,0,0.2,0,0.2,0c0.3,1.1,0.4,2.4,0.9,3.4
		c0.6,1.3,1.5,2.4,2.4,3.6c0.2,0.3,0.8,0.3,1.3,0.6c0.8-0.1,1.7-0.2,1.5-1.4c1.2,0.1,1.3,2.2,2.9,1.5c0.8,1.9-1.6,4,0.4,5.9
		c0.4,0,1-0.1,1.6-0.1c-0.2-0.8-0.3-1.6-0.4-2.4c0.1,0,0.1,0,0.2-0.1c0.4,0.9,0.8,1.7,1.2,2.6c1.1-2.9,1.3-5.5-0.9-7.9
		c0.2-0.1,0.3-0.2,0.5-0.2c0.4,0.6,0.9,1.1,1.3,1.7c0.3,0.4,0.5,1.2,1.4,0.5c-0.4,1.9-0.8,3.8-1.2,5.5c1.5,0.4,2.7,0.7,4.1,1.1
		c-1.1-2.6,0.2-5.8-2.3-8c-2.1-1.9-3.3-4.9-6.6-5.3c0.7-0.2,1.3-0.3,2.1-0.5c-0.6-0.6-1.1-1.1-1.7-1.7c-1.3-1.3-2.9-1.3-4.6-1
		c-1.6,0.3-3.3,0.5-4.9,0.6c-0.5,0-1-0.2-1.8-0.3c2.9-0.6,5.5-1,8.1-1.5c-1.4-3.1-3.8-5-6.6-3.2c1-1.7,2-1.8,4.2-1.1
		c0-0.7,0-1.4,0-2.1c0.9,2.1,1.5,4.3,3.3,5.9c1.3,1.2,2.7,2.2,4.2,3.4c0-2.8,0.9-5.1,2.9-7c-1.1,2.5-2.8,5-1.6,8.1
		c0.4-0.2,0.8-0.4,1.2-0.6c0.3,0.6,0.3,0.6-1.2,1.7c0.8,0.9,1.5,1.8,2.3,2.6c0.1,0,0.2-0.1,0.3-0.1c0-0.4-0.1-0.8-0.1-1.3
		c0.2,0,0.4,0,0.6,0.1c-0.2-1.2-0.4-2.5-0.7-3.9c1.6,1.4,1.8,3.1,1.7,5c-0.1,1.8,0.6,3.2,2.4,4.3c0.2-0.4,0.4-0.9,0.7-1.4
		c0.1,0.1,0.2,0.2,0.4,0.3c-0.3,0.4-0.6,0.8-0.9,1.1c0.9,1.6,2.7,1.7,4.1,2.2c1.3,0.4,2.5,0.8,4,1.3c-0.3-0.6-0.4-1.2-0.8-1.6
		c-1.6-2.3-3.9-3.9-6.3-5.5c0.5-0.1,1.1-0.2,1.7-0.3c0.5-2.7,2.3-4.8,3.9-7.1c1-1.4,0.7-3.1,0.1-4.7c-0.2-0.7-0.4-1.4-0.5-2.2
		c-0.1-1.1-0.2-2-1.3-2.5c-0.2-0.1-0.3-0.5-0.3-0.9c0.5,0.2,1,0.5,1.3,0.6c0.2-1,0.5-2,0.6-3c0-0.5-0.1-1.2-0.4-1.6
		c-0.9-1.2-1.9-2.4-3.7-2.3c0-1.1,0.4-1.3,1.2-0.8c0.9,0.5,1.7,1.1,2.5,1.7c0.5-0.8,0.9-1.6,1.4-2.4c0.1,0,0.2,0.1,0.3,0.1
		c-0.1,0.3-0.1,0.7-0.3,1c-0.7,1.1-0.9,2.1-0.2,3.3c0.3,0.5-0.2,1.5-0.3,2.3c-0.3,2-0.8,4.2,0.2,6c0.9,1.7,0.7,3.3,0.8,5.3
		c1.4-0.7,2.6-1.4,3.6-1.9c0.7,0.5,1.2,0.9,1.7,1.3c2.2,1.3,3.7,3.2,4.6,5.6c0.4,1,0.9,2,1.4,3c-0.2-0.1-0.4-0.2-0.7-0.4
		c-0.2,1.4-0.4,2.7-0.6,4c-0.1,0-0.2,0-0.3-0.1c0.6-4.2-0.6-7.8-3.8-10.6c-0.6-0.6-1.5-0.9-2.3-1.2c-0.2-0.1-0.6-0.1-0.8,0
		c-1.2,0.4-2.5,0.7-3.4,1.4c-1.2,0.9-2.1,2.2-2.9,3.4c-0.5,0.7-0.7,1.6-0.8,2.5c-0.3,1.3,0.3,2,1.7,2.2c0.1,0,0.2,0.1,0.3,0.2
		c0.8,0.9,1.6,1.7,2.3,2.6c0.7,0.9,1.2,0.8,1.9,0.1c0.6-0.6,1.3-1.1,2-1.6c0.1,0.1,0.2,0.2,0.3,0.2c-0.3,0.4-0.5,0.9-0.9,1.2
		c-1.2,1-2.1,2.1-2,3.7c0,0.4,0,0.8,0.2,1.2c1,1.7,2.1,3.3,3.1,4.9c0.9-0.7,1.9-1.5,2.9-2.4c3.2-2.8,3.2-2.8,4.1-6.7
		c0.9,1.4,0.8,2.3-0.6,5.2c1.5,0.2,2.8,0.4,4.2,0.5c-0.1,0.3-0.2,0.8-0.4,1.4c-0.8-0.2-1.7-0.4-2.5-0.7c-1.4-0.5-2.8,0-3.8,0.8
		c-1.6,1.3-3.2,2.6-3.9,4.6c-0.2,0.4-0.1,1-0.1,1.5c0.4,0,0.8,0.1,1.2,0c1.1-0.2,2.2-0.3,3.2-0.7c0.9-0.4,1.6-1.1,2.5-1.7
		c0.2,0.5,0.4,1.3,0.8,1.7c0.5,0.5,1.3,0.6,1.9,0.9c0.1,0.1,0.2,0.2,0.3,0.4c0.5,1.3,1.8,2,3.2,1.8c0.4-0.1,0.9,0,1.3,0
		c0,0.1,0,0.3,0,0.4c-0.8,0-1.6,0-2.3,0c-0.1,0.7-0.1,1.2-0.2,1.8c-1.6-2.1-3.4-3.6-5.4-4.9c-0.1,0.1-0.2,0.2-0.3,0.3
		c0.2,0.3,0.5,0.5,0.7,0.8c-0.9,0.7-0.6,1.2,0.1,1.9c0.6,0.7,0.9,1.7,1.3,2.5c0.2,0.4,0.6,0.8,0.9,1.3c-1,0.4-1.3,0.2-1.6-0.7
		c-0.1-0.5-0.7-0.9-1-1.4c-0.3-0.4-0.6-0.9-0.9-1.4c-1.1-1.9-1.2-1.9-3.1-1c-1.2,0.6-2.2,1-3.5,0.1C120.9,45,119.3,44.5,117.5,43.6z
		 M35.2,34.8c-0.2,0.3-0.4,0.6-0.7,0.9c1,0.5,1.5,1.6,2.9,1.1C36.7,36.1,35.9,35.4,35.2,34.8c0.8,0.2,1.6,0.5,2.4,0.7
		c0.1-0.1,0.1-0.1,0.2-0.2c-0.6-0.5-1.2-1-1.9-1.6C35.7,34.1,35.5,34.5,35.2,34.8z M45.7,38.8c1.1,0.9,2.2,1.8,3.5,2.7
		c0.1-0.5,0.2-0.9,0.2-1.2c0.1,0,0.3,0.1,0.4,0.1c-0.2,1.1-0.5,2.2-0.8,3.4c0.7-0.1,1.4-0.2,2.2-0.3c-0.3-0.7-0.5-1.3-0.7-1.8
		c0.1,0,0.2-0.1,0.2-0.1c0.4,0.5,0.9,0.9,1.4,1.5c0.6-1.6,0.1-3.8-0.9-4.4c-0.5-0.4-1.5-0.4-0.9-1.5c0,0-0.4-0.3-0.7-0.5
		c-0.2,1.1-0.3,1.9-0.5,2.8c-0.1,0-0.2,0-0.3,0c-0.1-0.6-0.2-1.1-0.3-1.8c-0.5,0.5-1,0.9-1.5,1.3c0-0.4,0.1-0.7,0.3-1
		c0.4-0.6,0.9-1.1,1.2-1.7c0.1-0.2-0.1-0.7-0.3-0.9c-0.2-0.2-0.9-0.2-1,0C46.8,36.6,46.3,37.7,45.7,38.8c-0.2,1.5-0.5,2.9-0.6,4.3
		c-0.1,0.6,0.2,1.2,1,1c0-0.3,0-0.4,0-0.5c0.6,0.1,1.2,0.5,1.6,0.3c0.4-0.2,0.8-0.9,0.7-1.3c-0.1-0.5-0.6-1-1-1.3
		c-0.1-0.1-0.6,0-0.8,0.2c-0.1,0.1,0,0.5,0.1,0.8c0.2,0.4,0.4,0.7,0.6,1c-1.6-0.7-2.1-1.6-1.4-2.5C46.5,40,46.2,39.5,45.7,38.8z
		 M15.5,35.2c0.4-0.8,1-1.6,1.2-2.5c0.1-0.3-1-0.8-1.5-1.2c-0.1-0.1-0.2-0.2-0.7-0.5C14.9,32.7,15.2,33.9,15.5,35.2
		c0.4,0.5,0.8,0.9,1.1,1.4c0.3,0.4,0.9,0.9,0.8,1.2c-0.3,2.2,1.3,3.3,2.4,4.9c0.5-0.9,0.8-1.6,1.2-2.2c0.5-1,0.6-1.8-0.3-2.7
		c-0.4-0.4-0.6-0.9-0.9-1.4c0,0,0.1-0.1,0.1-0.1c0.4,0.5,0.8,0.9,1.3,1.4c-1.4-3.9-1.8-4.4-3.2-4.6c-1.1,1.5,0.7,2.9,0,4.4
		c-0.4-0.9-0.8-1.8-1.1-2.7C16.3,35,15.9,35.1,15.5,35.2z M63.8,43.6c0.9-1,1.2-2.1,0.7-3.2c-0.7-1.7-1.5-3.3-2.5-4.9
		c-0.7-1.1-1.8-2-2.7-3c-0.1,0.1-0.2,0.1-0.3,0.2c-0.2,2.2-0.6,4.4-0.1,6.7c0.1,0,0.2,0,0.3,0c0-1.8,0-3.5,0-5.3
		c0.7,0.9,0.2,2.4,2.1,2.5c-2,1.7-1.9,3.6-1.3,5.4c0.6,1.8,1.6,3.4,2.6,5.3c0.4-1,0.7-1.8,1-2.5c-0.7-0.6-1.4-1.2-2-1.8
		c0.1,0,0.3,0,0.4,0c0.1-1.1,0.2-2.3,0.3-3.4c0.1,0,0.2,0,0.4,0C63,40.9,62.4,42.6,63.8,43.6z M50.4,51.5c1.5,2.9,4,4,7.1,3.6
		c1.1-0.1,1.9-0.8,2.2-1.7c0.4-0.9-0.5-1.4-1.1-1.9c-0.2-0.1-0.4-0.3-0.6-0.4c-1.3-0.6-2.7-1.1-3.6-2.4c-0.2-0.3-0.7-0.5-1-0.7
		c-0.5,0.6-0.8,1-1.1,1.3c0.4,0.2,0.8,0.3,1.3,0.5C52.6,51,50.8,49.8,50.4,51.5z M118.2,34.2c0-0.2-0.1-0.4-0.1-0.6
		c-1.2-0.4-2.5-1.2-3.7-1.3c-1.2-0.1-2.4,0.6-3.6,0.9c-0.2,0.1-0.5,0.4-0.5,0.6c0,1.1,0.1,2.2,0.2,3.3c0,0.3,0.3,0.8,0.6,0.8
		c1.1,0.2,2.2,0.3,3.3,0.4c0.3,0,0.6-0.2,0.8-0.4C116.1,36.8,117.2,35.5,118.2,34.2z M37.9,51.3c0.8,0.9,1.6,1.7,2.3,2.5
		c0.7,0.8,1.4,1.7,2,2.5c0.9,1.1,1.6,1,2.6,0c1.5-1.7,1.8-3.7,1.9-5.8c0.1-1-0.4-1.5-1.3-2c-0.6,0.7-1.7,1.6-1.6,1.9
		c0.8,1.6-0.3,1.7-1.3,2c-0.1,0-0.1,0-0.2,0C41.1,51.4,39.6,51.4,37.9,51.3z M23.6,39.9c0.4,0.7,0.7,1.2,1.1,1.7
		c0.6,0.5,1.2,1,1.9,1.4c0.4,0.2,1,0.3,1.3,0.1c0.3-0.2,0.3-0.9,0.3-1.3c-0.2-1.8-1.1-3.1-2.5-4.2c-0.4-0.3-0.6-0.9-0.9-1.4
		c0.1-0.1,0.3-0.2,0.4-0.3c0.6,0.5,1.1,1,1.9,1.6c-0.5-1.3-0.8-2.4-1.3-3.7c-2.4,1.5-2.2,3.9-2.9,6.1C23.4,39.9,23.6,39.9,23.6,39.9
		z M73.8,34c-0.2,1.5-0.4,2.8-0.5,4.2c1.2,0.3,2.2,0.7,3.3,1c0,0.1,0,0.2,0,0.4c-0.3,0.1-0.5,0.2-0.8,0.2c-0.6,0-1.3-0.2-1.9-0.2
		c-0.3,0-0.9,0.2-1,0.4c0,0.6,0,1.5,0.3,1.6c1,0.5,2.1,0.7,3.1,1.1c0.2-0.7,0.3-1.1,0.4-1.4c0.2-0.8,0.6-1.7,0.6-2.5
		c0-1-0.4-1.9-0.6-2.9C76.2,34,75.2,33.5,73.8,34z M71.9,38.9c-0.8,0.5-1.5,0.9-2.1,1.3c-0.3,0.2-0.8,0.5-1,0.8
		c-0.8,2.2-1.3,4.4-1,6.7c0.1,0.8,0.2,1.7,0.4,2.5c0.1,0,0.2,0,0.3,0c0.4-0.7,0.8-1.4,1.2-2.2c0.8-1.8,1.6-3.5-0.3-5.2
		c0,0,0-0.1,0.1-0.2c0.6,0.3,1.1,0.6,1.8,1C71.6,42,71.8,40.6,71.9,38.9z M119.2,35.2c-0.6,1.1-1.2,2.1-1.6,3.2
		c-0.4,0.9-0.8,2.1,0.3,2.8c1,0.7,2.2,1.1,3.4,1.7C122,39.6,122,38.5,119.2,35.2z M65.4,46.9c-0.4,1-0.9,1.9-1.2,2.8
		c-0.3,1.1-0.6,2.3-0.7,3.5c0,0.5,0.2,1.2,0.6,1.4c0.4,0.2,1.1,0,1.6-0.2c1.1-0.5,1.5-1.5,1.3-2.5c-0.2-1.3-0.6-2.6-1-3.9
		c0,0,0.2-0.1,0.5-0.2C66.1,47.4,65.8,47.2,65.4,46.9z M94.5,40c0-0.1,0-0.1,0.1-0.2c0.3,0.1,0.9,0.2,0.9,0.3c0,1.3-0.1,2.7-0.1,4
		c0,0.8,0.1,1.5,0.1,2.3c0.1,0.1,0.3,0.2,0.4,0.2c1.1-1,2.2-1.9,3.3-2.9c0.1-0.1,0-0.6-0.2-0.8c-1.2-1.3-2.4-2.7-3.8-3.9
		c-0.9-0.8-2.2-1.2-3.3-1.8c-0.1,0.1-0.1,0.2-0.2,0.3C92.6,38.3,93.5,39.2,94.5,40z M71.5,38.3c1.3-1.4,1.3-3,1-4.3
		c-0.3-1.5-1.7-2.2-3.2-2.6c-0.8,2.5-0.3,5,0.1,7.5c1-0.3,1.3-0.6,1.4-1.8c0.1-1.4,0.2-2.9,0.3-4.4C71.9,34.4,71,36.2,71.5,38.3z
		 M31,45.9c1.2,0.9,2.5,1.9,3.5,2.7c0.8-1.5,1.6-3,2.4-4.6c-1.8,0.3-3.3-1.5-5.2-0.6C31.5,44.3,31.3,45,31,45.9z M97.3,34
		c-0.1,0.8-0.4,1.6-0.2,2.3c0.5,1.7,1.3,3.4,2.9,4.5c0.4,0.3,1.2,0.3,1.5,0c0.3-0.3,0.5-1.1,0.3-1.6c-0.3-0.8-0.8-1.6-1.3-2.4
		C99.7,35.7,98.9,34.4,97.3,34z M87.4,35c0.1,0.7,0.5,1.6,0.4,2.4c-0.2,2.1,0.7,3.7,1.6,5.4c2.3-1.2,2.3-1.2,1.6-3.3
		c-0.2-0.7-0.7-1.3-1.2-2c0.4-0.1,0.8-0.1,1.5-0.3C89.8,36.3,88.6,35.6,87.4,35z M54.7,37.4c-1.5,0.9-2.4,1.9-1.7,3.6
		c0.1,0.2,0,0.5,0,0.8c0,1.7,0,1.7,1.8,1.9c-0.3,0.2-0.5,0.4-0.7,0.5c1.7,0.1,1.3-1.5,1.9-2.3C57.5,40,55,39,54.7,37.4z M81.9,52.3
		c-0.9-1-1.7-2.1-2.6-3.1c-0.1-0.1-0.3-0.2-0.4-0.2c-1.1,0.3-1.6-0.4-2-1.2c-0.2,0-0.3,0.1-0.3,0.1c-0.1,0-0.1,0.1-0.1,0.2
		c0.1,1.3-0.4,2.8,1.1,3.7c0.4,0.2,0.7,0.7,1,1C79.8,54,80.8,53.8,81.9,52.3z M90.7,49.1c1.6,0.3,3.6-1.3,3.7-2.8
		c0-0.9,0-1.8,0.2-2.6c0.2-1,0.2-2-0.5-2.8c-0.9,0.8-0.9,1.7,0.1,2.5C92,44.8,90.7,46.6,90.7,49.1z M31.3,36.7
		c0.2,1.8,0.4,3.4,0.5,5.2c0.8-0.3,1.6-0.3,1.8-0.6c0.7-1,1.2-2.1,1.7-3c-0.6-0.7-0.9-1.6-1.5-1.9C33.2,36.1,32.3,36.5,31.3,36.7z
		 M70.9,50.6c-0.2,0.2-0.6,0.3-0.8,0.6c-0.3,0.6-0.8,1.2-0.8,1.8c0.1,0.8,0.6,1.6,0.9,2.3c0.3,0.6,0.8,0.7,1.1,0.2
		c0.6-1,1.2-2.2,1.6-3.3c0.3-0.8,0.2-1.4-1-1.3C71.7,51.1,71.4,50.8,70.9,50.6z M49.2,50.9c1.1-1,2.1-1.9,3.2-3
		c-1.7-0.3-3.2-0.6-4.8-0.9C47.2,48.7,48.3,49.6,49.2,50.9z M101.2,35.3c1.1,1.7,2.1,3.2,3.1,4.8c1.3-1.2,0.8-2.4,0.4-3.4
		C104,35.1,103.4,34.9,101.2,35.3z M28.4,48.2c1.3,0.7,2.7,1.2,3.9,2.1c0.9,0.7,1.5,0.7,2.1-0.2c-1.3-1.1-2.6-2.1-4-3.2
		c-0.2-0.1-0.6-0.1-0.8,0.1C29.1,47.3,28.8,47.7,28.4,48.2z M99.7,33.2c0-0.7,0-1.1,0-1.5c0.1-0.4,0.2-0.8,0.3-1.2
		c0.2-0.7-1.1-2-1.6-1.8c-0.7,0.3-1.3,0.8-2.3,1.4c1.8,0.4,0.5,2.4,1.8,3c0.1-0.1,0.2-0.1,0.3-0.2c-0.2-0.4-0.3-0.8-0.5-1.4
		C98.3,32,98.9,32.5,99.7,33.2z M38.1,38.2c-0.2-0.1-0.3-0.2-0.5-0.3c-1.1,1-1.9,2.2-2.1,3.7c-0.1,0.9-0.1,1.7,1.2,1.5
		c0.2,0,0.5,0.2,1.1,0.4c-0.1-0.6-0.2-1.1-0.3-1.6c1-0.1,0.8-1,0.8-1.6c0-0.3-0.6-0.6-1-1C37.4,39,37.8,38.6,38.1,38.2z M82.9,51.4
		c0.8-1,2.3-1.4,1.9-2.8c-0.3-1.2-1.6-1.2-2.8-1.6c0.2,0.7,0.3,1.1,0.4,1.6c-0.5,0.2-1,0.5-1.7,0.8C81.5,50.2,82.2,50.8,82.9,51.4z
		 M74.1,54.7c1.3-0.5,2.7,0.4,3.9-0.6c-0.9-1.1-1.2-2.6-3-3C74.7,52.3,74.4,53.4,74.1,54.7z M74.6,47.4c1.6-0.6-0.2-1.8,0.4-2.6
		c0.4,0.2,0.7,0.4,1.2,0.6c0.1-0.7,0.1-1.2,0.2-1.8c-1.6-0.2-3.1-0.9-3.6,1.1C73.4,45.6,74,46.5,74.6,47.4z M49.4,52.7
		c-0.1,0-0.3,0-0.4,0c-0.2,0.9-0.6,1.8-0.6,2.6c0,0.4,0.3,1.2,0.6,1.3c0.5,0.2,1.3,0.1,1.6-0.2c0.3-0.3,0.4-1.1,0.2-1.6
		C50.5,54,49.9,53.4,49.4,52.7z M45,46.1c-0.8,0.3-1.6,0.6-2.4,0.9c-0.3,0.1-0.7,0.4-0.6,0.5c0,0.9,0.2,1.8,0.3,2.8
		C44.4,48.7,44.9,48,45,46.1z M91.9,42.9c-0.1-0.1-0.3-0.2-0.4-0.2c-2.2,1.4-3,3.7-3.6,6c0.1,0.1,0.3,0.2,0.4,0.2
		C89.5,46.9,90.7,44.9,91.9,42.9z M107.2,39.3c1.3-0.9,1.7-1.9,1.1-2.9c-0.5-1-1.4-1.1-2.5-0.8C106.2,36.8,106.7,38,107.2,39.3z
		 M72.4,45.8c-1.3,1.5-0.3,3.1-0.4,4.5c0.5-0.1,1-0.2,1.6-0.4C74,48.3,73.1,47.1,72.4,45.8z M81.3,47.1c-1.7-0.1-1.7-0.1-2.2-0.8
		c0.5-0.2,1-0.3,1.6-0.5c-0.2-1.3-1.3-1-2.1-1.4c-0.1,3.3-0.1,3.3,1.7,4.1C80.6,48.1,80.9,47.7,81.3,47.1z M38.9,44.7
		c-2.2,0.5-3.1,3-1.7,5C37.8,47.9,38.3,46.4,38.9,44.7z M66.3,35.8c-0.2,1.6-0.1,3,0.8,4.3c0.8-0.5,1.7-1,1.1-2
		C67.7,37.3,67,36.6,66.3,35.8z M40.4,56.7c-1.1-1.3-2-2.5-3.1-3.9C36.7,55.1,37.8,56.3,40.4,56.7z M40.2,44.1
		c0.2-1.1,0.5-2,0.5-2.9c0-0.3-0.4-0.7-0.7-1c0,0-0.4,0.1-0.6,0.3C38.7,41.5,38.9,42.9,40.2,44.1z M110.1,33.1
		c0.8-0.4,1.5-0.8,2.3-1.2c-0.8-0.6-1.5-1.1-2.2-1.6c-0.1,0-0.2,0.1-0.3,0.1C109.9,31.3,110,32.2,110.1,33.1z M66.9,46.4
		c0.2-1.8,0.4-3.4,0.6-5c-0.1,0-0.2-0.1-0.2-0.1c-0.5,1.4-1,2.7-1.5,4.1C66.1,45.7,66.5,46,66.9,46.4z M55.9,48.5
		c-0.1-0.9-0.1-1.8-0.2-2.9c-0.8,0.3-1.6,0.6-2.4,0.9C54.2,47.2,55,47.8,55.9,48.5z M40.8,50.2c0-0.8,0-1.5,0-2.2
		c-1.4-0.1-1.6,1-2.3,1.8C39.4,50,40,50.1,40.8,50.2z M22.8,43.1c0.1,0.5,0.1,1.4,0.3,1.4c0.8,0.1,1.7,0,2.6-0.1c0-0.1,0-0.3,0-0.4
		C24.8,43.7,24,43.4,22.8,43.1z M93.9,40.4c-0.7-0.8-1.3-1.5-2.1-2.4C91.8,40.2,92.5,41.1,93.9,40.4z M28.5,46
		c-0.1-0.2-0.1-0.4-0.2-0.6c-0.9,0.3-1.8,0.6-2.7,1c0.1,0.2,0.1,0.4,0.2,0.6C26.7,46.7,27.6,46.4,28.5,46z M51.3,47
		c-0.2-0.6-0.4-1-0.6-1.5c-0.6,0.3-1.2,0.6-1.8,0.9c0,0.1,0,0.2,0,0.3C49.7,46.8,50.4,46.9,51.3,47z M82.1,45.7c0.1,0,0.2,0,0.4,0
		c0-0.7-0.1-1.4-0.1-2.1C81.3,44.2,81.6,44.9,82.1,45.7z"/>
</g>
</svg>
