<?xml version="1.0" encoding="utf-8"?>
<!-- Generator: Adobe Illustrator 21.0.0, SVG Export Plug-In . SVG Version: 6.00 Build 0)  -->
<svg version="1.1" id="Layer_1" xmlns="http://www.w3.org/2000/svg" xmlns:xlink="http://www.w3.org/1999/xlink" x="0px" y="0px"
	 viewBox="0 0 1000 1000" style="enable-background:new 0 0 1000 1000;" xml:space="preserve">
<path d="M650.7,403c20.8-4,39.4-7.5,58.2-11.1c-10.8-25.5-24.1-32-47.7-23.9c8.5-12,15-12.8,30.8-8.2c0-4.9,0-9.8,0-14.7
	c0.6-0.1,1.3-0.2,1.9-0.4c1,3.3,2.2,6.5,3.1,9.8c5.3,19.5,17.3,33.8,34.2,44.6c5.2,3.3,9.3,8.4,15.5,14.2c0.3-21.2,6.6-38.3,21-52
	c-7.5,18.6-20.7,36-11.9,58.5c2.9-1.3,6.1-2.8,9.9-4.5c3.8,9.7-7.6,6.9-9.1,13.5c4.9,5.6,10.5,11.9,16.1,18.2
	c0.6-0.3,1.2-0.6,1.9-0.9c-0.3-3.2-0.6-6.3-1-9.5c1.4,0,2.7,0,4.1,0c-1.6-8.9-3.2-17.6-4.8-26.4c8.1,8,6.1,9.1,10.8,18
	c3.7,7,1.4,12.5,1.3,18.6c-0.1,12.5,5.3,21.5,16.7,28.8c2.1-3.3,4.1-6.4,6.1-9.6c0.8,0.7,1.6,1.4,2.4,2.1c-2.1,2.7-4.2,5.3-7.6,9.7
	c6.3,3.9,11.9,8.8,18.3,11.1c13.4,4.7,27.3,8.1,40.7,12c0.3-11.6-10.9-23-51.6-50.3c5.3-1.1,9-1.9,13.5-2.8c1.6-4.5,3-10.9,6.1-16.3
	c5.6-10,11.5-20,18.6-29c10.9-13.8,10-27.9,3.6-42.9c-1.5-3.6-1.9-7.9-1.9-11.8c0-8.2-0.7-15.7-9.6-19.6c-1.4-0.6-2.1-3-2-6.2
	c3.4,1.7,6.8,3.3,9.9,4.8c1.3-8.6,4.4-17.5,3.7-26.1c-1-12-15.2-22.7-28.8-24.5c0-6.6,2.5-8.6,7.4-5.5c6.3,3.9,12.3,8.4,18.6,12.7
	c3.6-5.9,7.2-11.8,10.7-17.7c0.7,0.3,1.3,0.6,2,1c-1.2,3.4-1.6,7.3-3.7,10c-5,6.5-3.3,12.1-1.1,19.3c1.8,6.1-1.7,13.6-1.6,20.5
	c0.2,14.6-2.9,31.1,2.9,43.1c5.8,12,2.6,22.9,5.6,36.1c9.6-4.9,18.8-9.5,26.8-13.6c2,2.4,3.1,4.7,4.9,5.7
	c18.5,10.5,32.5,24.6,39.6,45.1c2.5,7.3,6.7,14.1,10,21c-0.9-0.5-2.4-1.3-4.8-2.7c-1.4,9.8-2.7,19.3-4.1,28.8
	c-0.5-0.1-1.1-0.2-1.6-0.3c0-6.8,0.5-13.6-0.1-20.4c-0.6-7-0.9-14.6-3.8-20.7c-6-12.9-10.8-27.1-23.7-35.5c-5.3-3.5-10.9-6.6-16.7-9
	c-2.2-1-5.6-0.2-8.1,0.6c-6.7,2.3-13.2,5.1-19.8,7.7c-2.1,0.8-4.6,1.2-6.2,2.7c-14.1,12.6-23.3,28-25.5,47
	c-0.6,4.8,9.9,11.9,13.9,10.8c7.3,8,14.1,15.9,21.6,23c1.4,1.3,6.5,0.3,8.9-1.3c5.7-3.8,10.8-8.5,16.1-12.9c0.7,0.5,1.4,1,2.1,1.5
	c-2.2,3.1-3.8,6.8-6.6,9.1c-8.5,6.9-14.9,14.8-14.3,26.4c0.2,3.6,0.9,7.6,2.7,10.6c6.8,11.7,14.2,23,21,33.9
	c7-5.8,14.1-13.5,22.7-18.7c17.6-10.6,24.9-26.6,27.2-45.8c0.1-0.7,0.6-1.3,1.3-2.7c6.1,13.7,4.1,25.6-6.2,38.4
	c12.2,1.6,22.2,2.8,31.8,4.1c-0.7,2.2-1.8,6.1-3.1,10.5c-6.1-1.6-12.5-3-18.6-5c-10.2-3.2-19.5-0.2-27.1,5.7
	c-11.6,9.1-23.2,18.6-28.4,33.2c-1.2,3.3-1,7.1-1.4,10.7c3.2,0.2,6.4,0.4,9.6,0.6c16.3,0.9,29.3-5.8,41.5-19.6
	c-0.2,14,7.6,18.9,17.9,21.4c1,0.2,2.4,1.1,2.7,1.9c4.3,13.9,14.4,15.9,26.9,13.9c2.3-0.4,4.8,0.9,7.1,1.5c-0.1,1-0.2,2-0.3,2.9
	c-5.6-0.4-11.2-0.8-16.4-1.2c-0.7,4.8-1.2,9.2-1.8,13.6c-11.3-15.5-24.6-26.4-39.3-35.7c-0.7,0.7-1.3,1.5-2,2.2
	c0.8,0.9,1.6,1.9,2.5,2.7c0.8,0.8,1.6,1.5,2.6,2.4c-0.6,1.2-1.2,2.2-1.5,3.3c-0.6,2.3-2.3,5.3-1.4,6.8c6.3,10.7,13.1,21.1,19.9,31.7
	c-8.9,2.7-10.1,1.9-11.6-6.7c-0.4-2.2-1.1-5.6-2.5-6.1c-8-3-9.3-11-13.4-16.9c-5.8-8.4-8.6-9.2-17.8-4.3c-9.6,5.1-18.5,9.3-29.6,1.6
	c-9.6-6.6-21-10.6-33.5-16.7c7.5,15,21.3,16.6,30.9,21.2c0.3,3.8,0.5,6.3,0.8,10.1c-13.1-5.9-26-10.8-34.5-23.3
	c-5-7.3-8.1-17.5-20.1-16.6c-10.8-12.8-25.5-8.3-38.8-8.1c-26.7,0.4-46.1,14.5-62.1,34.9c-10.3,13.2-21.1,26-32.2,38.5
	c-2.3,2.6-6.6,4.1-10.2,4.9c-26.8,5.8-51,16.1-68.8,38.2c-1.5,1.9-4.7,3.4-7.2,3.5c-14.9,0.6-21.8,11.4-29.1,21.9
	c-1.5,2.1-2.7,4.5-3.6,6.9c-2.3,5.9-5.8,8.5-12.7,9.2c-13.2,1.3-26.3,4.7-39.4,7.1c-6.5,1.2-13.1,2.1-19.7,3.1
	c-6.7-11.2-16.4-17.9-27.9-21.5c-12.1-3.8-24.7-10.2-36.5-9.1c-14.8,1.3-28-1.8-41.6-5c-14.1-3.3-27.8-3.3-41.1,2.9
	c-0.7,0.3-1.6,0.7-2.3,0.6c-15.6-3.1-28,5.5-40.9,11.8c-8.8,4.2-21,4-28-2.7c-11.1-10.5-21.4-21.8-32.3-32.6
	c-3.2-3.2-7.4-5.4-11-8.3c-8.5-7-16.9-14.2-25.4-21.2c-6.1-5.1-11.5-10-21-10.7c-6.9-0.5-13.7-6.9-20-11.5
	c-9.1-6.7-17.8-13.8-29.8-14.9c-1.7-0.2-3.6-2.6-4.7-4.5c-7.4-12.3-14-25.1-22.1-37c-3.6-5.3-9.4-9.2-14.8-12.9
	c-4-2.7-8.9-4.1-13.4-6c0.2-0.8,0.3-1.7,0.5-2.5c5.4,0.9,10.9,1.7,16.2,2.6c0.9-10-8.9-21.9-21.3-27.3c-11.7-5-22.7-5.5-34.1,1
	c-6.5,3.7-14,5.7-21.8,6.6c11.3-10.5,25.3-15.7,41.2-22c-5.2-6.4-10.6-12.7-15.5-19.4c-1.5-2.1-2.8-6.1-1.8-7.9
	c7.2-12.8,2.9-29.5-10-36.1c-12.2-6.2-24.5-12-38.9-10.1c-2.9,0.4-6-0.5-9-0.8c0-0.7,0-1.5,0-2.2c1.5-0.3,3-0.5,5.3-0.9
	c-1-1.6-2-3.3-3-5c0.4-0.9,0.8-1.7,1.2-2.6c17.8,5.9,35.7,11.8,54.3,18c-0.7,0.5-0.2,0.3,0.1-0.1c2.1-2.4-1.2-9.4,5.2-7.5
	c2.3,0.7,4.4,6.6,4.1,9.9c-1.7,22.5,3.8,43,16.9,61.2c3.3,4.6,9.1,7.4,14.4,10.4c-2.2-4.9,1.1-12.9-7.9-13.5
	c7.3-17.9-6.5-29.9-11.7-44.8c7.9-9.7-3.8-14-5.9-17.8c2.6-5.3,5-8.3,5.4-11.6c0.7-5.7-0.1-11.6,0.3-17.4c0.2-2.8,1.8-5.6,4.4-8.1
	c0.5,3.8,1.1,7.5,1.7,12c4.4-0.9,8.4-1.7,12.3-2.5c0.7-5.6,1.4-10.7,2-15.7c0.5,0.1,1.1,0.1,1.6,0.2c1.1,5.4,2.3,10.8,3.9,18.7
	c-1.9,0.6-6.2,2.2-10.6,3.1c-4.9,1-8.9,2-8.4,8.6c0.4,4.5-0.3,9.1-0.5,13.2c3.2-0.8,6.3-1.6,12.2-3.1c-8.1,12.4-9.5,22.7-3,34.6
	c3.7-6.7,6.8-12.4,10-18.1c0.8,0.2,1.5,0.4,2.3,0.6c-1.3,4.5-2.6,9.1-3.9,13.6c-1.3,4.8-2.6,9.6-4.2,15.5
	c14.7-0.9,27.6-1.6,40.4-2.4c0.1,1,0.2,1.9,0.4,2.9c-2.2,1-4.3,1.9-7,3.1c2.2,3.1,4,5.8,6.1,8.8c-9.1-0.1-13.8-13.2-24.6-6
	c7.5,11.9,20.8,9.4,32.8,13.4c1.9-8.6,4.2-17.4,5.7-26.3c0.3-1.9-2-4.5-3.4-6.5c-3.7-5.1-8.3-9.8-11.2-15.3c-1.4-2.6-0.7-9.2,0.9-10
	c8.7-4.1,2.8-10.3,3-17.2c7.7,5.5,6.5,13.6,4.8,18.3c-2,5.7-4.5,9.8,1,14.2c3.7,3,7.6,5.9,12.3,9.6c-1.9,11.1-4.2,24.3-6.4,37.4
	c-1.6,9,2.1,16.1,9.4,24.4c3.9-30.4,8.7-58.6-1.6-85.6c0.3-4.1,1.5-7.8,0.6-10.9c-4.8-17.5-16.5-31-27.7-44.7
	c-4.8-6-8.4-12.3-4.1-21.5c2.7,6,4.9,11,7.6,17c4-13.9,6.7-26.2,11.3-37.8c4-10.1-0.8-15.7-7.5-21.1c-2.9-2.3-6-4.3-9.4-6.8
	c5.4-0.9,5.4-0.9,25.1,11.2c2.8-5.5,5.5-10.9,8.3-16.3c0.7,0.3,1.4,0.6,2.1,0.9c-2.1,5.6-4.3,11.2-6.2,16.8
	c-4.9,14.5-10.5,28.9-14.1,43.7c-2.4,9.8,0.6,19.5,6.9,27.9c12.1,16.2,18.6,34.6,20.9,54.5c0.9,8.1,0.1,16.3,0.1,26.7
	c4.6-3.1,6.8-4.6,9.2-6.2c2.6,5.6-12.4,15.6,4.1,17.8c1-4.9,1.8-9,2.6-13c0.8,0.1,1.7,0.2,2.5,0.3c0.3,4,0.5,7.9,0.8,11.4
	c4.6,0.4,8.1,0.6,11.7,1c12.4,1.4,24.1-12.2,21-24.5c-1.1-4.3-0.8-4,3.9-4.5c1.9-0.2,4.9-3.4,5.1-5.4c0.6-7.5-0.5-15.1,0.3-22.5
	c0.6-5.1,3.1-10,6.3-14.6c-5.1,13.5-1.9,26.1,0.9,40.4c-9.5,6.4-12,18.4-15,33.7c-9.1,1.6-20.6,3.6-33.4,5.9
	c3.4,10.5,6.8,21.4,10.3,32.3c3.6,11.3,7.3,22.6,10.9,33.9c0.8-0.2,1.5-0.4,2.3-0.5c0-19.1,0-38.2,0-57.6
	c6.1,2.5,10.5,13.6,20.8,7.9c-1.7-7-3.4-14.5-5.2-22c1-0.4,2.1-0.8,3.1-1.1c2.9,5.3,5.7,10.5,9.8,18c3.7-6.2,8.1-11,9.5-16.5
	c2.6-10,3.5-20,0.4-30.7c-1.6-5.3,2.1-12.1,5.2-18.3c0.3,2.3,0.9,4.6,0.9,6.9c0.1,8.6,0,17.2,0,25.8c0,1.2-0.1,3.2,0.3,3.3
	c10,3.5,4.8,12.5,7.1,18.8c0.8,2.2,1.9,4.5,3.4,6.2c4.4,4.7,8.3,9.2,7.5,16.6c-0.5,4.2,1.6,8.8,2.6,13.2c1.2-0.2,2.5-0.5,3.7-0.7
	c-1.8-9.5-3.4-19-5.4-28.3c-1.3-6.1-0.2-11.2,4.9-15.7c0.2,2.2,0.4,4.4,0.7,8.2c2.8-4.3,4.8-7.5,7.2-11.3
	c3.8,9.7-12.2,17.5-1.6,27.5c-5.2,11.9-3.6,23.3,9.6,33.9c5-4.4,10.7-9.3,16.3-14.2c0.6,0.5,1.1,0.9,1.7,1.4
	c-4.4,5.6-8.8,11.1-13,16.8c-1.4,1.8-2.9,3.7-3.6,5.8c-2.5,8-5,16-6.7,24.1c-0.4,2.1,1.4,6.1,3.2,7c5.5,2.8,15.3-2.7,16.4-8.8
	c3.3-17.2,7.7-34.4,9.1-51.7c0.6-7.8-3.3-17-7.7-24.1c-8.5-13.7-18.9-26.2-28.2-39.5c-2.6-3.7-3.6-8.4-5.4-12.7
	c0.9-0.4,1.7-0.8,2.6-1.2c2.7,4.6,5.5,9.2,8.2,13.8c1.4-0.4,2.9-0.9,4.3-1.3c-1.7-16.2-3.3-32.4-5-48.6c0.4-0.2,0.9-0.3,1.3-0.5
	c1.2,3.2,2.4,6.4,4,10.4c15.3-14.6,4-27.5-1.6-40.7c2.6,0,4.7,0,6.8,0c2.7,8.2,5.2,16.1,7.8,24c7.7-5,7.7-5,13-28
	c1,4.3,1.6,7.1,2.4,10.8c3.2-2.7,5.9-5,8.7-7.4c0.7,0.5,1.5,1,2.2,1.6c-5.9,8.5-11.8,17-17.9,25.8c2.7,3.3,11.6,3.8,8.1,13.2
	c-1.6-2-2.7-4-4.3-5.2c-5-3.4-10-4.6-14.3,1.4c-5.9,8.2-11.6,16.3-6,27c0.3,0.5,0.3,1.2,0.2,1.7c-3.2,23.4,10.9,39.2,25.1,56.7
	c3.9-15.6,8.5-30.2,10.9-45.2c0.9-5.9-3.1-12.6-5.3-18.8c-1.4-4-3.5-7.8-6.3-13.9c3.8,2.8,5.5,4.1,5.5,4.1
	c5.4-9.6,11-19.4,16.5-29.2c0.9,0.4,1.7,0.9,2.6,1.3c-3.5,8.9-9,17.6-10.1,26.8c-1,9.3,2.3,19.2,3.4,26.5
	c12.8-10.6,26.6-22.1,40.5-33.7c0.4,0.5,0.9,0.9,1.3,1.4c-3.7,5.9-7.4,11.8-11.2,17.8c3,1.7,6.3,3.5,9.6,5.4
	c-0.2,0.6-0.5,1.1-0.7,1.7c-1.2-0.3-2.5-0.6-3.7-1c-11.9-4.2-17.6-1.7-25.4,8c-9.6,12.1-15.3,25.7-19.1,40.4c-0.9,3.4-0.7,7-1,10.5
	c1.1,0.2,2.1,0.4,3.2,0.6c1.5-5.6,3.1-11.2,4.7-17.3c12.1-0.1,15.6-15.5,28.2-18.6c-2.8,3.3-5.5,6.7-8.5,9.8c-2,2-4.9,3.3-6.5,5.5
	c-11,14.9-7.5,25.2,10.4,31.1c2.4,0.8,4.6,2.2,4.7,2.2c0,5.3,0,8.8,0,12.4c3.9-0.1,8.6,1,11.5-0.7c7.6-4.4,9.5-12.4,6.8-22.7
	c-1-3.9-2.2-7.8-3.4-12.1c7.5,1.4,7.8-2.3,6.9-7.9c0.6,1.7,1.7,3.4,1.6,5.1c-0.9,18.1,4.9,33.9,14.8,48.7c4.3,6.4,7.8,13.4,1.5,21.3
	c-2.6,3.2-3.8,7.9-4.4,12.1c-0.5,3.4,1,7.1,1.8,11.7c5.3-3.9,8.4-6.2,11.5-8.5c0.3,0.5,0.6,0.9,0.9,1.4c-3.9,6.6-8.8,12.9-11.5,20.1
	c-1.4,3.7-0.3,10.7,2.5,13.1c5.1,4.7,12,7.8,18.6,10.6c8.3,3.6,13.2-0.2,11.1-8.9c-2.4-10.1-5.6-20.1-9-29.9
	c-5.6-16.2-13-32-17-48.5c-2.2-9.1,0-19.5,1.6-29.2c2.2-13.8,3.8-26.5-3-40.3c-6.3-12.8-8.4-27.7-12.3-41.6
	c13.1,14.2,13.6,34.5,22,51.1c0.9,0,1.8,0,2.7,0c0.8-11.6,1.7-23.2,2.5-35c1.2,0.4,2.5,0.7,3.2,0.9c1.6-8.3,3.3-16.7,4.9-25.1
	c0.8,0.1,1.5,0.2,2.3,0.3c-0.9,8.7-1.4,17.5-2.7,26.2c-1.8,12-4.5,23.8-6.2,35.8c-0.4,2.9,0.8,7,2.7,9.1
	c12.4,13.2,25.2,26.1,36.7,37.9c0.3-2.9,0.6-7.6,1.3-12.1c0.8-5-0.2-8.2-5.7-9.7c-5.5-1.5-10.8-4.1-16-6.2c3.1-3.9,6-7.5,8.5-10.6
	c-4.6-4.8-9-9.3-13.4-13.8c0.5-0.5,1-1.1,1.6-1.6c5,2.4,6.3,11.3,15.1,7.9c2-0.7,6.8,6,10.7,9.7c-2.3-8.6-4.2-16.6-6.6-24.4
	c-0.7-2.4-3.6-4.1-4.4-6.5c-3.5-10.7-6.6-21.5-8.2-32.8c6.8,14.8,13.6,29.5,20.3,44.3c1.1,0,2.1,0,3.2,0.1
	c5.6-23.5,11.1-47.1,16.3-69.1c2.4,9.3,2.9,20.9-1.5,31.6c-8,19.7-11.4,40.3-11.7,61c-0.1,8.7,6.2,17.6,9.6,26.4
	c1.3-0.3,2.6-0.6,3.9-0.9c0-6.5-0.6-13,0.1-19.4c0.8-7.3,2.4-14.6,4.4-21.7c0.4-1.4,5.6-3.1,7-2.2c6.9,4.1,13.2,9.2,21.9,15.5
	c0-7.5-0.2-13,0-18.6c0.7-17.3,2-34.5,2-51.8c0-9.6-0.6-19.7-3.4-28.8c-4.4-14.2,8.8-30.8,24.8-28.6c-5.9,4-12.6,6.8-16.5,11.8
	c-2.5,3.2-2.3,10-1,14.5c3.5,11.3,4.6,22.3,1.3,33.8c-1.2,4.4-1.3,9.1-1.3,13.7c-0.1,18.4-0.1,36.8-0.1,56.4c6.3,0,12.1,0,18.6,0
	c0.9-2.1,2.1-4.9,4-9.3c0.8,6.9,0.5,13.3,9,13.3c1,0,2,5.2,3.1,8.4c-3.9,0-7,0-10.3,0c0.9,3.3,1.7,6.3,2.6,9.5
	c1.3-1.1,2.4-2,5.1-4.2c-0.8,5.8-1.4,10.1-2.1,15.1c7.7,0.8,6.2,4.9,4,10.5c-3.3,8.3-5.6,17-8.6,26.8c9.9,0,17,0,21.9,0
	c3.1-3.7,6.5-5.9,6.6-8.2c0.1-5.3-0.5-11-2.4-16c-2.6-6.9-6.7-13.1-9.5-20.5c1.3,8.6,16.8-2.1,15.4,12.3c3.5-4.6,7-9.1,10.5-13.7
	c-1.5,11-14.1,21.5-0.1,33.4c2.1-6.6,4.2-12.9,6.2-19.3c0.4,0,0.9,0.1,1.3,0.1c-0.6,4.4-0.8,8.9-1.8,13.1c-1.1,4.7-2.9,9.2-4.9,15.3
	c4.3-2,7-3.2,9.7-4.5c0.6,0.3,1.1,0.7,1.7,1c-1.9,3.5-3.2,7.5-5.8,10.3c-6.6,7.1-4.9,18.6,4.6,24.5c0.9-7.1,1.8-14,2.8-21.6
	c5.4,1.5,8.7-8.5,16.6-3.5c-10,8.9-16.3,18-8.3,31.1c9.7-2.7,11.2-11.8,13.2-19.2c3.2-11.7-3-22.4-7-32.9c-3.5-9.1-9.5-17.3-14.3-26
	c-0.9-1.6-1-3.7-1.8-6.9c5.1,6.2,9.2,11.2,13.3,16.2c0.7-0.4,1.4-0.9,2-1.3c0-7.6,0.2-15.2-0.2-22.8c-0.1-1.8-2-4.3-3.7-5
	c-12.9-5.5-26-10.7-39-15.9c-7.5-3-14.9-6.1-22.5-8.8c-4-1.4-8.2-2-12.2-3.6c29.3-9.5,51.2,10.7,75.8,20.6
	c2.9-12.1-10.2-11.1-14.8-19.9c5.6,1.1,9.1,1.7,12.6,2.4c-0.8-3.3-1.7-6.9-2.6-10.6c0.7-0.3,1.4-0.5,2.1-0.8
	c4.8,5.9,8.8,12.2,8.9,20.6c0.2,16.5,9.7,27.2,28,29.4c-2-13.8-3.9-26.9-5.8-40.1c0.4-0.2,0.9-0.4,1.3-0.6
	c2.1,5.8,4.4,11.5,6.3,17.3c0.9,2.6,2,5.6,1.6,8.2c-3.1,21.6,16.4,23.7,28.3,34.4c5.5-11.6,6.6-22.7,3.8-33.5
	c-0.8-3-7.8-4.9-12.2-6.4c-3.6-1.2-7.7-1.1-11.5-2.9c7.2-0.4,14.5-0.9,22.4-1.4c-3.7-25.3-18.8-41.9-37.6-56.3
	c0.6-0.6,1.2-1.2,1.8-1.7c2.7,0.4,5.3,0.8,8.6,1.3c-0.6-8.9-1.2-17.3-1.8-25.8c0.6-0.1,1.2-0.2,1.8-0.2c1.8,7.6,2.4,15.8,5.7,22.7
	c4.6,9.8,11.2,18.6,17.1,27.8c0.5,0.9,1.8,1.4,2.8,1.8c2.4,0.8,4.8,1.4,7.3,2c0.3,1.3,0.6,2.5,0.9,3.8c3.9-3.7,7.8-7.3,13.5-12.7
	c4.8,0.5,5.9,15,19.2,9.8c-1.4,8.7-3,16.6-4.1,24.6c-2.1,15.6,1.3,19.1,17.3,17.6c-1-3-2.3-5.8-2.8-8.7c-0.5-2.7-0.1-5.5-0.1-10.1
	c3.5,7.9,6.1,13.9,9.5,21.7c7.3-33,7.3-33-5.5-59.1c0.6-0.5,1.2-1,1.8-1.5c3.1,4.2,6,8.7,9.5,12.7c2,2.2,4.9,3.7,7.4,5.4
	c1-0.6,1.9-1.2,2.9-1.9c-2.9,13.5-5.9,27-8.6,39.6c10.6,2.9,19.3,5.3,29.9,8.1c-7.5-18.8,1.6-41.4-16.1-57.6
	c-15.1-13.8-23.8-35.6-48.3-38.8c4.7-1.2,9.4-2.3,14-3.5c-11.9-17.3-27.3-24.7-49.2-18.2c-10,3-21,2.8-31.6,3.5
	C659.3,405.7,655.8,404.1,650.7,403z M256,518.9c-1.6,2-3.1,4-5.3,6.8c6.9,3.6,10.9,11.9,21.4,8c-5.9-5.3-11.1-10.1-16.3-14.9
	c6,1.7,11.9,3.4,17.9,5.2c0.5-0.4,0.9-0.8,1.4-1.2c-4.4-3.8-8.9-7.6-13.6-11.7C259.6,513.8,257.8,516.3,256,518.9z M332.3,548.2
	c8.2,6.5,16.3,12.9,25.1,20c0.7-3.6,1.2-6.2,1.7-8.8c1.1,0.2,2.1,0.5,3.2,0.7c-1.7,7.8-3.5,15.7-5.5,24.8c5.2-0.8,10.5-1.6,16.1-2.5
	c-2-5-3.6-9.1-5.2-13.2c0.6-0.3,1.2-0.5,1.8-0.8c3.2,3.5,6.5,6.9,10,10.7c4-11.5,0.6-27.4-6.4-32c-3.9-2.6-10.9-3.3-6.8-11
	c0.1-0.1-3.1-2-5.2-3.4c-1.4,7.6-2.5,14-3.7,20.4c-0.7,0-1.5,0.1-2.2,0.1c-0.6-4.1-1.2-8.3-1.9-12.7c-3.7,3.3-7.4,6.5-11,9.7
	c-0.1-3.2,1.1-5.3,2.5-7.3c3-4.2,6.5-8.1,8.9-12.6c0.8-1.5-0.4-5.3-1.9-6.3c-1.7-1.2-6.4-1.3-6.9-0.3c-4.5,8-8.3,16.3-12.3,24.6
	c-1.6,10.4-3.6,20.8-4.8,31.3c-0.5,4.6,1.6,8.4,7.6,7.4c-0.1-1.9-0.2-3.2-0.2-3.4c4.2,0.9,8.7,3.4,11.4,2c2.8-1.4,5.6-6.8,5-9.8
	c-0.6-3.6-4.5-7-7.6-9.7c-1-0.9-4.5,0.2-6,1.4c-0.8,0.6,0,3.8,0.8,5.5c1.2,2.6,3.1,4.8,4.6,7.2c-11.9-5.4-15.4-11.5-10.3-17.9
	C337.5,556.8,335.9,552.8,332.3,548.2z M112.2,521.8c3.1-5.9,7.3-11.7,8.6-18c0.4-2.1-6.9-5.7-10.7-8.6c-0.8-0.6-1.7-1.3-4.9-3.7
	C107.9,503.2,110.1,512.5,112.2,521.8c2.8,3.4,5.5,6.8,8.1,10.2c2.2,2.9,6.3,6.2,6,8.9c-2,15.9,9.2,24.3,17.8,35.9
	c3.4-6.3,6-11.3,8.7-16.3c3.7-7,4.6-13.4-2.4-19.4c-3-2.6-4.6-6.8-6.9-10.3c0.3-0.2,0.6-0.4,1-0.6c3,3.3,6.1,6.6,9.1,10
	c-10.4-28.3-13.1-31.9-23.4-33.4c-7.8,10.9,5.4,20.8-0.2,32.3c-2.8-6.6-5.7-13.3-8.4-19.6C118.4,520.4,115.2,521.1,112.2,521.8z
	 M430.3,513.6c5.3,6.4,1.2,17.6,15,18.3c-13.7,12.4-13.3,26.3-8.9,39.4c4.3,12.9,11.9,24.7,18.7,38.4c3-7.3,5.3-13,7.3-18
	c-5.3-4.7-9.9-8.8-14.5-13c1,0,2-0.1,3-0.1c0.6-8.2,1.2-16.5,1.8-24.7c0.8,0,1.7,0.1,2.5,0.1c3.2,9.5-1.9,21.7,8.9,29
	c6.7-6.9,8.5-15.1,5.1-23c-5.3-12.2-11.2-24.2-18.4-35.2c-5.3-8.2-13.2-14.7-19.9-22c-0.8,0.4-1.5,0.8-2.3,1.3
	c-1.5,16.1-4.7,32.3-0.8,48.5c0.8,0,1.7,0,2.5,0C430.3,539.4,430.3,526.5,430.3,513.6z M390.7,628.3c-8.2,8-21.6-0.6-24.7,11.6
	c11.4,21.6,29.7,29.7,52.7,26c5.7-0.9,11.6-6.9,15.1-12.1c1.3-1.9-2.8-9.8-6.3-12.3c-12.9-9.1-26.6-17.1-39.7-25.4
	c-2.1,2.6-4.6,5.8-7,8.8C383.6,625.9,386.4,626.9,390.7,628.3z M859.9,513.8c-9.8-8.9-19.7-12.5-29.5-12.8
	c-8.2-0.3-16.7,3.8-24.9,6.4c-2,0.7-4.9,3.3-4.9,4.9c0.1,8.3,0.8,16.7,2,24.9c0.3,2.1,2.7,5.1,4.6,5.6c6.9,1.6,14,2.6,21.1,3
	c2.6,0.2,6.1-1.1,7.8-3C844.1,533.7,851.5,524.1,859.9,513.8z M308.2,647.4c-9.8-8.2-20.8-8-31.7-8.4c10.4,12.5,20.4,24.4,30.3,36.4
	c6.6,8,11.7,7.5,18.8-0.4c11.1-12.2,12.9-27,13.8-42.4c0.4-6.9-3.2-11.1-9.5-14.2c-4.2,4.9-12.6,12-11.6,14
	c6.2,11.7-2.2,12.2-9.1,14.5C308.9,647.1,308.7,647.2,308.2,647.4z M172.4,556c2.1,3.9,3.2,8.2,5.9,10.7c4.8,4.5,10.4,8.3,16.1,11.6
	c2.3,1.4,7.2,2.3,8.4,1c1.9-2.1,2.7-6.2,2.4-9.3c-1.2-12.8-8.1-22.4-17.8-30.6c-3-2.6-4.7-6.7-7-10.1c1-0.8,1.9-1.6,2.9-2.3
	c4.1,3.6,8.2,7.2,13.9,12.1c-3.1-9.4-5.7-17.1-8.1-24.1c-12.2-1.5-12.5,8.2-14.9,14.5c-3.3,8.4-4.8,17.5-7.3,27.2
	C170.1,556.3,171.7,556.1,172.4,556z M553.4,574.7c3.1-9.9,5.5-17.4,7.7-24.8c0.5-1.6,0.3-3.5-0.1-5.1c-1.2-5.7-3.2-11.2-3.9-16.9
	c-1.7-14.3-11.2-20.1-21.1-14.3c-1.4,10.8-2.7,20.4-3.9,29.7c8.8,2.6,16.4,4.9,24.1,7.2c-0.2,1.3-0.5,2.6-0.7,3.9
	c-6.2-0.6-12.5-1.6-18.7-1.7c-2.6,0-7.3,1.8-7.4,3c-0.2,3.9,0,10.2,2.3,11.4C538.5,570.7,546.3,572.4,553.4,574.7z M522.6,548.9
	c-7.4,4.1-13.5,7.3-19.3,10.9c-1.5,0.9-2.7,3.2-3.1,5c-2.4,12.3-5.3,24.6-6.5,37c-0.9,9.6-0.9,19.6,4.5,29.6
	c2.5-3.9,4.6-6.4,5.9-9.2c6.5-14.6,17.5-29.2,1.6-44.6c-0.2-0.2,0.2-0.9,0.5-1.9c4.2,2.2,8.3,4.4,13.1,7.1
	C520.5,571.3,521.5,560.6,522.6,548.9z M880.8,577.4c8.6-23,0.7-39.8-14.8-55.4c-4.1,7.8-8.7,14.9-11.7,22.7
	c-2.7,6.8-5.8,15.3,2.1,20.6C863.8,570.4,872.6,573.4,880.8,577.4z M475.3,606.6c-3.1,7.3-6.6,13.6-8.6,20.4
	c-2.5,8.6-4.6,17.6-5.2,26.5c-0.7,10.1,6.5,13.8,15.4,9.1c7.7-4.1,11.4-11.2,10.5-19.2c-1.1-9.5-4.5-18.8-7-28.6
	c-0.2,0.1,1.4-0.7,3.5-1.7C480.8,610.7,478.2,608.8,475.3,606.6z M693.2,602.7c1.9,0.2,3.8,0.9,4.6,0.3c7.6-6.2,15-12.5,22.2-19.1
	c0.8-0.7,0.5-4.2-0.5-5.2c-11.4-11.3-22.6-22.7-34.8-33.2c-4.9-4.2-11.8-6.1-17.8-9c-0.4,0.7-0.8,1.3-1.2,2
	c7.1,6.2,14.2,12.4,21.4,18.6c1.6-0.9,3.2-1.7,4.7-2.6c0.5,2,1.4,4,1.4,5.9C693.3,574.3,693.2,588.3,693.2,602.7z M520.5,541.9
	c8.6-8.1,8.6-19.2,6.3-28.9c-2.6-10.8-12.4-16.1-23.5-18.7c-6.1,18.4-2.1,36.3,0.6,54.6c8.3-0.9,9.7-7.1,10.3-13.1
	c1-10.5,1.3-21,2-31.7C522.5,515.9,516.3,529.2,520.5,541.9z M250.9,619.1c5.6-11,11.1-21.9,16.7-32.8c-8.3-2.1-17.4-5-26.6-6.4
	c-3.6-0.5-9.5,1.4-11.3,4.2c-2.8,4.2-2.9,10.1-4.2,15.6C234.3,606.3,243.3,613.2,250.9,619.1z M707.5,512.9
	c-0.7,6.2-3,11.8-1.6,16.2c4.2,13.2,10.1,26,22.1,34c2.4,1.6,8.8,1.2,10.4-0.8c2.2-2.6,2.3-7.7,1.9-11.5c-0.3-2.8-2.9-5.3-4.4-8
	C729.1,530.4,722.1,518.4,707.5,512.9z M667.2,566.1c-4.3-9.3-8.6-18.4-13.1-28.1c1.6-0.3,4.5-1,9.4-2
	c-10.8-6.1-19.9-11.2-28.4-15.9c1.1,5.9,3.6,12.4,3.1,18.7c-1.1,14.8,5.3,26.5,12.3,39C656.1,573.8,661.1,570.4,667.2,566.1z
	 M393,587.5c0.4,0.7,0.9,1.3,1.3,2c10.6-1.6,8.9-13.3,13.2-19.7c9.4-14-7.9-20.4-10.1-31.6c-10.7,6.5-17.6,13.5-12.4,26
	c0.8,2,0.3,4.6,0.1,6.9c-0.9,9,0.5,15.6,12.4,13.4C396,585.5,394.5,586.5,393,587.5z M559.1,613.3c-1.1,0.2-1.8,0.2-2.3,0.4
	c-0.5,0.2-1.2,0.7-1.2,1.1c0.5,9.3-3.8,19.7,6.9,26.5c3.1,2,5.5,5.1,8.1,7.8c9,9.1,16.8,8.2,24.3-3.2c-5.7-6.9-11.5-13.8-17.3-20.8
	c-0.4-0.4-0.6-1-1.1-1.3c-1.2-0.7-2.7-2.1-3.7-1.8C565,624,561.5,619.3,559.1,613.3z M659,623.5c1.8,0.2,3.2,0.7,4.5,0.5
	c11.3-1.8,22-14.4,22.5-25.7c0.3-5.7,2.1-11.4,1.9-17.1c-0.2-6.1-1.9-12.1-3.2-19.4c-8.2,7-8,13.8-1,19.6
	C668.9,591.4,659.1,604.4,659,623.5z M227.7,534.5c1.2,11.2,2.5,23,3.9,36.5c6-2.6,11.4-3.2,13.6-6.2c4.9-6.5,8.2-14.2,11.8-20.6
	C250.8,532.5,242.9,525,227.7,534.5z M514.9,634.4c-0.3,0.3-2,1.1-3.1,2.4c-3.1,4-8.7,8.5-8.3,12.2c0.9,7.5,4.9,14.7,8.2,21.7
	c0.4,0.9,5.5,1.1,5.9,0.3c4.7-9.2,9.3-18.4,13.2-28c1.5-3.8-0.8-6.4-5.6-6.4C522.4,636.7,519.6,635.5,514.9,634.4z M381.4,613.9
	c-12.6-2.3-23.7-4.3-34.8-6.3c-2.3,10.7,1.6,19.4,12.1,27C365.9,628.1,373,621.6,381.4,613.9z M758.7,558.2
	c7.8-10.5,6.8-21.4-2.3-32.4c-4.9-5.9-11.6-5.8-20.4-2.2C743.7,535.2,750.8,546.1,758.7,558.2z M249.7,629.4
	c-9.8-7.9-19.6-15.9-29.6-23.5c-1.1-0.8-4.1-0.3-5.3,0.7c-3.2,2.6-5.9,5.8-9.5,9.5c2.9,1.5,5.4,2.9,7.8,4.1
	c7.2,3.6,15.3,6.2,21.4,11.1C240.9,636.6,244.9,635.8,249.7,629.4z M723,505.9c1.5-7.1,2.7-12.9,3.9-18.7c1-4.9-7.6-14.7-11.7-12.9
	c-5.1,2.3-9.6,5.6-16.9,10c13,3.3,3.7,17.5,12.9,21.5c0.8-0.4,1.7-0.8,2.5-1.3c-1.1-3-2.3-6.1-3.9-10.5
	C714.8,498.5,718.7,502,723,505.9z M270.7,551.5c1.1-1.7,3.3-5.1,5.6-8.5c-0.9-0.5-1.8-1.1-2.7-1.6c-8.9,6.3-13.9,15.3-15.7,26
	c-1.1,6.5-1.1,13.2,9.1,11.6c1.7-0.3,3.8,1.4,7.6,3c-0.9-4.8-1.5-8-2.2-11.4c7.9-0.6,5.5-7.5,5.8-11.8
	C278.3,556.6,273.8,554.3,270.7,551.5z M603.8,640.9c4.8-7.7,12.3-14.4,12.2-21c-0.1-8.6-11-8.7-20.1-12c1,4.9,1.7,8.4,2.5,12.2
	c-2.1,0.6-4.9,0.7-6.9,2.2c-1.4,1-2.8,4.8-2.2,5.4C593.2,631.8,597.6,635.3,603.8,640.9z M566.8,659.1c-6.5-7.9-8.9-19-21.9-21.5
	c-2,8.3-4,16.3-6.4,26.1C548.3,659.9,558.1,666.8,566.8,659.1z M542.4,610.4c11.4-4.5-1.6-13,2.9-19c2.4,1.3,4.8,2.6,10.2,5.6
	c-1.2-6.5-0.7-13.1-3-14.2c-11.1-5.5-17.6-2.5-23.5,8.4C533.7,597.7,538,604,542.4,610.4z M359.2,648.7c-0.9,0-1.8-0.1-2.7-0.1
	c-1.7,6.1-4.3,12.1-4.8,18.3c-0.3,3.5,1.8,9,4.5,10.4c3.1,1.6,9.8,1,11.6-1.3c2.3-2.8,2.5-8.9,1.1-12.5
	C366.8,658.2,362.5,653.6,359.2,648.7z M307.3,633.2c9-11.4,22.6-17.1,20-32.6c-6,2.3-12.2,4.5-18.1,7.2c-1.7,0.8-4.1,2.9-4.1,4.4
	C305.3,618.3,306.3,624.4,307.3,633.2z M668.1,577.6c-1-0.5-2-1-3-1.5c-16.2,10.3-21.5,26.7-25.9,43.8c1,0.6,2,1.2,3,1.8
	C650.9,606.9,659.5,592.2,668.1,577.6z M768.3,523.4c3.7,9.8,7,18.6,10.5,27.9c10.5-5.7,10.6-13.4,7.9-20.7
	C783.9,522.7,776.6,522.2,768.3,523.4z M534.6,628.6c3.3-11.5-2.8-20.2-8.7-29.6c-9.5,10.8-1.7,22-2.7,32.2
	C526.8,630.3,530.4,629.5,534.6,628.6z M570.1,586.5c2.1,13.7-5.4,28.3,13.7,31.7c2.1-3,4.2-6.2,6.1-9c-5.6-1.2-10.7-2.4-15.9-3.5
	c0.1-0.9,0.2-1.9,0.2-2.8c3.9-1.4,7.7-2.8,11.7-4.3C585,589.2,576.3,591.9,570.1,586.5z M268.2,624.6c1,0.2,1.9,0.5,2.9,0.7
	c3.6-11.4,7.2-22.8,11.1-35C267.6,592.7,260.3,610.8,268.2,624.6z M485.6,559.2c11.1-7.8,13.2-11.1,10.2-15.6c-4-6-8.8-11.4-13.3-17
	c-0.6,0.2-1.3,0.3-1.9,0.5C482.1,537.2,483.7,547.4,485.6,559.2z M293.9,678c-7.8-9.8-14.7-18.5-22.5-28.2
	C266.5,666.5,274.4,675,293.9,678z M291.8,586.2c1.5-7.7,3.4-14.5,3.9-21.4c0.2-2.3-3-5-5-7.1c-0.3-0.3-3.1,1-3.9,2.2
	C280.6,568.5,282,578,291.8,586.2z M817,497.5c-5.6-4-10.9-7.8-16.2-11.6c-0.8,0.4-1.6,0.8-2.3,1.3c0.6,6.4,1.2,12.7,1.9,19
	C805.8,503.3,810.7,500.7,817,497.5z M485.9,602.9c1.6-12.5,3.2-24.5,4.7-36.4c-0.5-0.3-1.1-0.5-1.6-0.8
	c-3.8,9.8-7.5,19.6-11.4,29.7C480.4,598,483.1,600.4,485.9,602.9z M387.1,603.8c6.8,5.1,12.8,9.6,19,14.4c-0.6-7-1.2-13.3-1.8-20.7
	C398.7,599.5,393,601.6,387.1,603.8z M279.7,628.5c6.6,1,11.4,1.7,16.9,2.5c0-5.7,0-10.5,0-15.9C286.8,614.5,285,622.4,279.7,628.5z
	 M165.8,578.8c0.8,4.1,1.2,10.4,2.1,10.4c6.1,0.5,12.3-0.3,18.5-0.7c0-1,0-2-0.1-3C180.2,583.6,174.1,581.6,165.8,578.8z
	 M668.2,543.5c-0.8,0.5-1.5,0.9-2.3,1.4c1.4,4.3,2.6,8.6,4.2,12.8c2.6,6.9,4.9,7.2,11.4,0.8C677.1,553.5,672.6,548.5,668.2,543.5z
	 M185.9,603.3c0.6,1.6,1.1,3.2,1.7,4.8c6.5-2.8,13-5.5,19.5-8.3c-0.5-1.3-1-2.5-1.5-3.8C199,598.5,192.5,600.9,185.9,603.3z
	 M368.7,596.3c-4.9,2.5-9.1,4.7-13.2,6.8c0.1,0.7,0.3,1.4,0.4,2c5.2,0.7,10.5,1.4,16.6,2.3C371.1,603.3,370.1,600.4,368.7,596.3z
	 M598.2,582.2c-1.2,0-2.4-0.1-3.6-0.1c-2.5,5.3-2.1,10.6,3.6,17.6C598.2,592.5,598.2,587.4,598.2,582.2z"/>
</svg>
