<?xml version="1.0" encoding="utf-8"?>
<!-- Generator: Adobe Illustrator 21.0.0, SVG Export Plug-In . SVG Version: 6.00 Build 0)  -->
<svg version="1.1" id="Layer_3" xmlns="http://www.w3.org/2000/svg" xmlns:xlink="http://www.w3.org/1999/xlink" x="0px" y="0px"
	 viewBox="0 0 1000 1000" style="enable-background:new 0 0 1000 1000;" xml:space="preserve">
<path d="M736.4,663.5c-5.8-4-11.6-7.9-18.1-12.4c0,6.7,0,13.3,0,21.3c-5.1-4.3-9.2-7.7-13.4-11.3c-4.7,7.5-9.2,14.7-13.6,21.9
	c-0.6-0.2-1.3-0.3-1.9-0.5c-0.6-7-1.2-14-1.8-20.9c-0.7-9.1-2.5-17.4-6.3-26.1c-7.6-17.5-14.9-35.7-14.2-55.7
	c0.2-4.4-0.9-8.9-1.6-15c-6.1,3.4-10.6,5.8-15.9,8.8c0.8-20.6,16.3-38.5,7-59.7c-1.5,9.7-2.5,19.5-4.5,29.2
	c-5.7,27.2-13.2,53.8-27.4,78.2c-5.3,9-12.6,14.7-22.2,18c-6.3,2.2-9.5,7.9-14.1,11.9c-14.4,12.8-7.3,29.7-11.6,44.1
	c-0.5,1.8-0.8,3.6-3.2,6c-4.1-8.9-8.2-17.8-12.2-26.5c-8.2,9.2-16.1,18.2-24.1,27.2c-1-0.6-1.9-1.2-2.9-1.7
	c6.2-20.2,12.3-40.4,18.8-60.5c2.8-8.7,5.4-17-1.3-25.8c-1.9,0.7-4.2,1.5-6.7,2.5c-0.2-0.9-0.7-1.8-0.5-2.6c1.4-5.4,2.2-11.2,4.7-16
	c5.6-10.5,7.5-20.8,2.6-32c-0.9-2.1-0.8-5.6,0.3-7.6c6.2-11.2,3.1-21.9-0.1-33.1c-1-3.7-1.4-9.9,0.7-11.8c5.7-5.1,5-10.7,4.6-16.9
	c-0.5-7.5,0.1-15.1-0.7-22.6c-1.3-13.9-2.1-28.1-5.3-41.7c-2.9-11.9,0.3-22.6,2.3-33.7c0.6-3.7,1-7.5,1.7-12.6
	c-4.9,1.7-8.1,2.9-14.9,5.3c21.2-30.6,8.6-61.2,8.3-92.1c7.1,8.3,14.1,16.6,21.4,25.2c4.7-7.9,9.4-15.9,14.1-24
	c0.8,0,1.6,0.1,2.4,0.1c0,7.9,1.2,16-0.3,23.6c-1.8,9.4,2.1,14.4,9.1,19.4c9.2,6.6,17.5,14.3,26.6,21.9c0.3-0.5,1.7-2.8,3.9-6.6
	c3.9,10,7.3,19,11.2,29c5.7-4.6,11.3-9.2,18.2-14.9c-1.8,23.8-15.5,47,5.6,70c6.8-33.8,13.3-66.1,19.7-97.4c0.4,0.6,2,3.1,3.2,4.9
	c6-8.7,11.8-17,17.5-25.3c0.8,0.4,1.6,0.7,2.5,1.1c0.3,2.7,0.5,5.3,0.7,7.7c5.7,1.9,11.1,3.6,17,5.6c4.9-8.9,10.2-18.5,15.5-28.1
	c0.7,0.2,1.5,0.3,2.2,0.5c0,9.8,0.6,19.7-0.2,29.5c-0.9,11.9-0.1,22.4,5,34.1c6,13.7,6.6,29.8,10.2,44.7c1.2,4.9,4.2,9.3,6.4,13.9
	c0.9-0.4,1.8-0.7,2.7-1.1c4.8-22.4,9.6-44.9,14.6-68.2c2.5,2,3.6,2.9,4.8,3.9c0.7-1.4,1.4-2.5,1.9-3.7c9.7-20.8,25-26.8,46.4-19.3
	c2.8,1,7.6-1.5,10.7-3.6c7.8-5.4,15.2-11.5,22.7-17.3c0.9,0.8,1.7,1.5,2.6,2.3c-5.1,11.6-10.2,23.3-16.2,36.8
	c8.9-2.1,16-3.7,23.9-5.5c-4.3,6.9-10.9,13-11.5,19.7c-0.6,5.8,5.7,12.2,8.9,18.3c1.2-0.5,2.5-1,3.7-1.6c-1-4.8-2.5-9.6-2.9-14.5
	c-0.3-3.6,0-9.8,1.7-10.4c9.1-3.3,11-12.1,14.2-18.9c7.8-16.2,20.2-23.8,37.5-25.7c3.4-0.4,6.6-3.6,9.6-5.9c3.8-3,7.3-6.4,12.6-11
	c-0.6,4.3-0.5,6.7-1.4,8.8c-5.8,13.9,1.6,24,11.1,31.8c4.2,3.4,12,2.3,19.4,3.5c-3.2,6.5-6.9,13.9-10.6,21.4
	c10.1,10.1,21.3,21.3,32.5,32.6c-0.5,0.6-0.9,1.3-1.4,1.9c-9.3-2.5-18.6-5.1-30.5-8.3c2.6,6.1,5,9.5,5.2,13c0.2,3.9-1.5,8-2.4,12
	c-4.3-1.1-9.2-1.2-12.8-3.5c-3-1.8-4.5-6.1-7.4-10.5c-1.3,3.8-2.1,6-3.1,8.9c-4-7.2-7.5-13.5-10.4-18.7c-3.1,6.8-6.9,13.9-9.6,21.3
	c-1.3,3.4-1.3,10.7-0.9,10.7c6.8,1.2,9.2,11.6,18.1,8.3c5.4-2,11.2-3,17.5-4.7c-0.3,2-0.3,2.9-0.7,3.7c-7.6,17.1-7.3,16.7,7.4,26.9
	c5.1,3.6,9.2,9.1,12.8,14.4c3.3,4.8,4.8,10.8,7.9,15.8c2.8,4.7,6.6,8.8,10.6,14c-6.1-0.8-11.1-1.4-18.3-2.3
	c5.7,49.5-9.4,94.1-23.8,140.3c-1-3.2-1.5-5-2.1-6.8c-0.6-1.7-1.3-3.4-2.4-6.4c-9.8,12.9-18.8,24.7-27.8,36.5
	c-0.9-3-1.9-6.6-3.1-10.4c-6.8,5.5-6.8,5.5-3.1,26.6c-3.9-3-6.7-5.2-9.5-7.4c-3-2.5-5.9-5.1-9-7.6c-11.5-9.4-23.2-18.4-34.4-28.1
	c-5.2-4.6-9.3-10.5-15.7-17.9c-4,14.8-7.4,27.7-11,41c-0.2-0.1-2.2-1.4-4.3-2.5c-4.2-2.3-7-1.6-9.3,3.3c-3.2,7-7.3,13.7-13.1,20.1
	c-0.5-7.5-1-15-1.5-23c-15.5-1.8-15.1-18.9-23.2-25.1c-12.3-9.3-8.9-21.9-13.8-32.6c-5.4,6.7-10.3,12.8-15.3,18.9
	c-0.8-0.3-1.6-0.5-2.5-0.8c2-13.2,4.1-26.3,6.4-41.4c-5.1,2-8.7,3.4-13,5.1c4.6,12.9-3,20.5-10.7,28.3c-10.7,10.8-6.5,23.6-4.2,36
	c0.4,2.2,1.5,4.3,2.3,6.4C737.4,662.3,736.9,662.9,736.4,663.5z M593.8,634.5c14.2-2.7,22.9-10.8,29.8-23.6
	c19-35.2,21.1-74.7,30.6-109.8c-2.6-4.2-5.5-6.7-5.6-9.3c-0.5-13.1-0.2-26.3-0.2-40.1c2.6,1.6,4.9,3,7.2,4.5c0.8-0.3,1.6-0.6,2.4-1
	c-9.2-20.4-22.4-40.1-10.4-64.1c-1,0-1.9,0-2.9,0c-2.6,2.3-5.1,4.6-9.7,8.7c-3.1-9-5.8-16.7-8.5-24.4c-10.1,2.9-11.5-6.4-16-11.5
	c-3.5-3.9-7-8-11.1-11.2c-9.8-7.4-23.6-11.9-19-28.7c0-0.1-0.9-0.5-1.4-0.7c-2.2,4.2-4.4,8.4-7.3,13.8c-5.6-7.3-10.2-13.4-16.6-21.7
	c2.6,23.3,9.4,43.9-2.6,63.6c4.1,1.1,6.8,1.8,9.9,2.6c-1.4,9.3-3.2,18-4,26.8c-0.7,7.6-1.2,15.4-0.5,23c1,11.6,3.6,23.1,4.6,34.7
	c1,11.8,0.9,23.6,1.2,35.4c0.1,5.4,1.8,11.1-5,14.6c-1.2,0.6-0.4,5.6-0.1,8.5c0.9,9.7,4.2,19.9,2.3,28.9c-1.4,6.9-1.3,12.8-1,19.5
	c0.3,7.4-2.1,15-3.4,22.4c-0.5,3.1-3,7.3-1.7,9c9,12.2,8.7,24.7,3.7,38.3c-4.5,12.2-7.9,24.8-11.8,37.2c0.5,0.2,1.1,0.3,1.6,0.5
	c4.8-7.2,9.7-14.3,15.8-23.4c2.8,9.5,4.8,16.6,6.9,23.7c1.9-6,1.5-11.6,2-17c0.3-2.9,1.7-5.9,3.2-8.5c3.3-5.3,7.5-10.1,10.4-15.6
	c2.1-4,2.8-8.8,4.1-13.3c0.6,0.1,1.2,0.2,1.7,0.2C592.8,629.4,593.3,632,593.8,634.5z M857.7,622.9c1.8,10.6,14.3,23.3,26.4,25.5
	c2,0.4,3.8,2.7,5.4,4.5c6.6,7,13,14.2,21.3,23.2c-1.6-12.3,4.1-20.9,15.1-26.3c0.7,2,1.3,3.9,1.6,4.7c14.3-7.2,20.4-20.6,24.1-35.9
	c0.7,0.5,1.5,1,2.2,1.5c1,3.1,2,6.1,3.8,11.2c1.9-9.1,2.1-16.4,4.9-22.4c15.8-34.7,15.9-70.7,10.3-107.3c-0.1-0.5,0.5-1.1,1-2
	c3.2,0.8,6.5,1.6,10.7,2.7c-5.6-13.5-10.1-26.6-23.2-33c-9.7-4.7-14-10.9-9.8-22.7c-8.9,2.7-15.2,3.2-22.3-3.1
	c-6-5.3-13.1-8-9.6-18.5c-6.8,4.4-10.7,3-11.4-3.7c-0.7-6.7-1.3-13.7-0.2-20.3c0.7-4.6,3.2-10.8,6.8-12.6c3.5-1.8,9.3,1.1,13.5,1.8
	c1.1-2.2,2.8-5.3,4.4-8.4c2.6,2.6,6.2,4.7,7.5,7.8c5.4,13,18.3,19.5,26,30.5c0.1,0.1,1.1-0.5,2.6-1.1c-3.3-8.4-6.7-16.9-10.7-26.8
	c6.9,1.2,12,2.1,17.1,3c0.8-1.1,1.5-2.1,2.3-3.2c-5.3-4.3-10.8-8.5-16-13c-5.9-5.1-8.1-9.7,1.8-13c2.3-0.8,3.8-3.8,6.1-6.3
	c-16.2-4-30.1-18.8-31.1-31.5c-3.2,0.9-6.5,2.3-9.9,2.7c-14.4,1.8-26,7.4-32.9,21.1c-4.5,8.9-10.2,17.1-16.4,27.4
	c4.7,11.3,3.8,25.6-3,38.7c-3.7,7.1-7.9,12.5-0.4,19.3c0.7,0.6-0.1,3-0.4,4.5c-1,4.7-2.2,9.3-3.4,14.4c10.9-4.5,15.5-2,18.7,9.2
	c2.7,9.5,5.5,18.9,8.7,30.1c2.2-5,3.5-8.2,5.9-13.6c3.7,8.6,6.7,15.5,9.1,21c3.9-4.6,8.8-10.3,15.3-17.7c2.8,11.1,4.7,18.8,7.2,28.9
	c1.5-4.7,2.2-7,3.1-9.6c10.7,15.8,8.4,33.1,8.8,49.9c0,1.8-1,3.7-1.8,5.5c-3.8,8.6-8.1,17.1-11.4,25.9c-4.8,13-9.6,16.6-23.4,16.6
	c-2.9-4.6-5.6-8.7-9.1-14.3c-0.9,5.4-1.5,8.3-2,11.2c-1.3,0.3-2.6,0.7-4,1c-7-16.3-14-32.5-21-48.8c-0.4,0.1-0.8,0.1-1.2,0.2
	c1.3,12.7,2.6,25.5,4,39.2c-6.1-2.9-10.2-4.9-14.4-6.9c-0.8,0.9-1.6,1.9-2.4,2.8c2.1,2.5,4,5.3,6.4,7.6c8.5,7.9,9.5,15.6,3.9,20
	c0.6,5.2,1.1,9.4,1.7,13.6C868.3,626.2,862.5,624.4,857.7,622.9z M808.7,531.9c12.3-6,20.4-5.2,20.9,1.3c1,14,1.1,28.2-0.3,42.1
	c-0.5,5-6.5,9.5-9.9,14.2c-2.9-4.8-5.8-9.7-9-14.9c-0.7,0.2-3.2,1-5.7,1.8c-10.8-24.3-3.2-48.6-3.6-70.7c-3-2.4-6.4-3.7-7-5.8
	c-5.8-18.8-6.2-36.9,10.2-52.5c-9.4-7-8.6-15.5-4.3-24c2.2-4.3,1.4-11.9,10-11c0.8,0.1,1.8-3,2.9-4.5c2.2-2.8,4.5-5.6,6.8-8.4
	c1.7,3.1,3.7,6.2,5.1,9.5c0.9,2.2,1,4.8,1.9,9.2c1.6-4,2.5-6,4.4-10.9c5.3,11.2,9.6,20.3,13.9,29.5c0.6-0.2,1.2-0.3,1.7-0.5
	c-2.5-14.5-4.9-28.9-7.1-41.9c10.1,4.2,21,8.7,34.1,14.1c-6-14.9-25.1-21.3-14.6-39.1c-13.4,3.4-13.4,3.4-7-26.5
	c-4.5,3.1-8.7,6.7-13.6,9.1c-2.4,1.2-6.5,1.2-8.9,0c-12.5-6.6-24.5-5.3-32.6,6.2c-9.1,12.8-17.6,26.3-20,42.3
	c-2.2,15.1-3.9,30.4-6,45.5c-0.9,6.5-0.2,14.1-3.5,19.2c-7.1,11.1-2.8,21.6,0,31.8c3.7,13.4,6.4,26.3,0.2,39.6
	c-0.6,1.3-0.5,3.5,0.2,4.7c4.4,7.4,1.6,13.7-2,20.3c-2.5,4.7-3.9,10.1-6,16.1c4.4-1.1,7.4-1.9,11.2-2.9c-1.3,9.6-2.4,18.2-3.6,26.8
	c0.4,0,0.8,0.1,1.2,0.1c2.3-4.7,4.6-9.4,7.9-16c2.9,15.6,5.4,28.6,7.8,41.9c1.7-1.2,3.1-2.2,5.2-3.8c1.5,4.3,2.6,8,4,11.6
	c2.5,6.4,4.7,12.9,7.9,18.9c1.2,2.2,4.8,3.1,7.4,4.6c0.3-2.7,0.7-5.5,0.7-8.2c0-2.3-0.5-4.6-0.8-7.6c13.5,5.2,7.1,17.2,10.2,25.8
	c4.9-5,1.9-20,14.8-10.1c2.2-6.1,4.6-11.5,6-17c5.3-20.2,11.6-40.2,15-60.7c2.6-15.4,0.8-31.5,2.2-47.2c1.3-15.1,0.4-31,14.8-44.5
	c-16.2-0.1-15.7-9.4-14.1-16.2c-6.5,1-12.4,2.4-18.4,2.9c-9.7,0.8-10.2-7.3-11.6-15.3c-4.9,6.5-8.8,11.6-12.9,17.1
	c-4.2-1.7-8.7-3.5-15.2-6.1c3.9,6.3,6.6,10.4,9.1,14.6c1.6,2.7,5,7,4.2,8.1c-5.9,7.6-0.2,11.8,4.1,15.9
	C814.6,517.1,812.1,523.3,808.7,531.9z M761.3,519.5c-8.6-4.1-8.5-4.3-6.8-15.2c0.7-4.7,1.6-9.9,0.4-14.4c-4.4-16.3-7.7-32.3,0-48.6
	c0.8-1.6,0.1-4.2-0.5-6.1c-1.8-5.5-4.7-10.6-5.9-16.2c-3.1-13.4-3.1-28-8.8-40c-5.6-11.6-8.2-22.4-6.6-34.7
	c0.5-3.8,0.8-7.7,1.2-11.6c-0.4-0.1-0.8-0.3-1.2-0.4c-2.9,5.5-5.8,11.1-8.8,16.8c-8.5-5.9-15.9-13.1-24.1,0.3
	c-1.1-3.8-1.7-5.9-2.4-8.1c-4.1,12.9-16.2,22.3-15.2,36.9c0.2,2.5-0.4,5.4-1.4,7.7c-13.1,29.3-12.7,61.1-17.6,91.9
	c-1,6.1-2.6,12.4-1.7,18.4c2.1,14.8,8,29.2,2,44.5c-2.2,5.5-2.7,11.7-4.2,18.5c4.3-1.4,7.2-2.4,10.6-3.6c1,8.1,1.5,15.6,2.9,22.9
	c2.5,13.1,5,26.1,8.5,39c3.3,12.3,8.1,24.1,11.7,36.3c1,3.4,0.5,7.4,0.8,12.6c2.9-6.5,5-11.5,7.6-17.2c3.5,2.6,5.5,4,6.5,4.7
	c2.9-3.7,4.9-8.9,8.1-9.8c3.2-0.9,7.6,2.4,12.2,4.1c-5.2-14.9,0.1-26.4,10.5-37.1c4.4-4.6,10.8-10.8,3.4-18.6
	c-0.8-0.8-0.6-3.2-0.1-4.6c2.6-7,5.8-13.8,8.2-20.8c0.9-2.5,0.7-5.5,0.4-8.2c-0.4-4.9-2.9-10.3-1.6-14.4
	C752.2,536,757,528.3,761.3,519.5z M883.7,484.9c-18,17.4-23,37.5-17.8,60.5c0.5,2-0.8,4.4-1.2,6.6c-1.3,6.2-3.1,12.2-3.7,18.5
	c-0.8,8,3.7,9.2,9.1,7.5c0-18.2,0-35.5,0-52.8c0.9-0.1,1.7-0.3,2.6-0.4c5.7,14.5,11.2,29.1,17.2,43.5c1.8,4.4,5.1,11.7,7.6,11.7
	c8.3-0.1,11.1,5.8,15.5,10.3c6.1,6.2,13.4,4.1,16.2-4.3c1.6-4.9,3.5-9.8,5.7-14.5c6.4-13.4,11.2-26.8,5.5-43.5
	c-2,5.4-3.4,9.3-5.8,15.6c-2.8-17-5.1-31-7.8-47.3c-5.7,10.9-10.3,19.7-16.1,30.9c-1.8-10.7-3-18.2-4.2-25.6c-0.7,0-1.4-0.1-2-0.1
	c-1.3,4.3-2.7,8.6-4,12.9c-0.6,0-1.2,0-1.8,0.1c-5.3-18.1-10.6-36.2-16.3-55.8c-9.1,7.3-19.5,10-18.1,22.8
	C870.3,482.4,876.1,483.5,883.7,484.9z M849.8,409.8c1.3,17.2,2.5,33.8,3.7,50.3c-0.9,0.1-1.8,0.3-2.8,0.4
	c-6-11.5-12-22.9-18.6-35.4c-3,3.3-5.5,5.9-8.7,9.4c-1.6-7.6-3-14.1-4.4-20.5c-2.4,2.1-4.4,5.3-6.9,5.9c-9.7,2.1-10.6,12.4-8.4,15.9
	c6.3,9.8,5.1,17.2-1.6,25.3c-0.6,0.8-0.2,2.4-0.3,3.7c3.6,1.6,6.8,3.1,11.9,5.4c6.6-10.7,13.2-21.3,19.8-32c0.8,0,1.6,0,2.4,0.1
	c0,8-0.4,16,0.2,23.9c0.2,2.8,2.7,6.6,5.1,7.6c2.3,1,6.6-0.2,8.8-2c4.6-3.6,8.2-8.4,12.6-12.4c6.7-6.2,7.7-13.1,3.5-21.1
	c-2.6-5.1-4.7-10.4-7.6-16.6c2.8,0.6,4.3,1.1,5.9,1.2c1.8,0.1,3.6-0.2,5.5-0.3C867.1,409.3,862.5,407.5,849.8,409.8z M807.3,563.4
	c9.1,1.5,9.1,1.5,13.3,16.1c7.5-15.9,3.7-30.9,2-46.2C802.5,539.8,800.9,542.9,807.3,563.4z M914.8,419.5c6.1-2.7,11.7-5.2,18.7-8.2
	c-5.5-7.3-9.8-12.9-14.8-19.5C912.3,401.1,910.7,409.3,914.8,419.5z M859.5,597.3c-1,0.2-2,0.4-3,0.6c0.8,5,1.7,10.1,2.5,15.1
	c2.4-1.3,5.6-2.1,6.9-4.1C871.4,600.9,862.5,600.8,859.5,597.3z M760.7,535.6c-8.5,12.1-8.2,16.1,2.7,23.8
	C762.5,550.6,761.7,544.3,760.7,535.6z M756.5,462.9c1.7,0.3,3.4,0.6,5.1,0.9c1-6.8,2-13.6,3-20.5c-1.4-0.2-2.8-0.5-4.1-0.7
	C759.1,449.4,757.8,456.1,756.5,462.9z"/>
<path d="M37.1,371.7c5.3-11.6,10.4-23.3,16.2-34.7c1.5-2.9,5.6-4.6,8.6-6.8c8.8-6.6,18.1-12.7,26.3-20c7.5-6.6,13.8-14.4,20.6-21.7
	c0.9,0.5,1.9,1,2.8,1.6c-2.5,8.5-4.4,17.1-7.6,25.3c-3.9,10.1-1.4,16.1,9.1,15.2c9.9-0.9,19.4-4.8,29.3-7.4
	c-4.9,9.7-10.4,20.8-16.4,32.9c6.4,2,13.7,4.2,22,6.7c0-15.7,0-30.5,0-45.4c0.8-0.2,1.5-0.5,2.3-0.7c4,7.4,8.1,14.8,11.8,21.6
	c7.4-8.6,14.9-17.3,22.3-26c0.9,0.5,1.7,1,2.6,1.5c-3,10.3-6,20.6-9.5,32.7c18.5-1.8,23.9-21.7,39.7-23.9
	c-1.4,5.1-2.9,10.9-4.4,16.3c15,2.3,29,4.5,43,6.7c0.1,0.9,0.2,1.9,0.3,2.8c-8,3.9-15.9,7.9-24.3,12c-1.2,17.7,16.1,23.5,25.2,38
	c-8.5-0.5-15.5-0.2-22.1-1.7c-6-1.3-11.1-1.1-13.3,4.6c-1.1,3,0.6,7.5,2.1,10.9c3,6.9,6.7,13.4,10.1,20.1c-0.6,0.8-1.1,1.6-1.7,2.4
	c-7-4.5-14.6-8.3-20.9-13.6c-6.6-5.6-12.1-12.6-19.1-20.2c-7.3,14.7-0.9,29-3,43.2c-1.6-0.5-3.5-1.1-6.3-2c-0.3,2-0.8,3.8-0.8,5.6
	c-0.5,18.1-0.5,18,17.3,13.5c4-1,8.6-2.2,12.4-1.3c7.3,1.8,9.5,9.7,5.5,16.4c-1,1.8-1.8,3.7-1.2,7.3c7.4-4,14.8-8,22.2-12
	c0.7,0.5,1.4,1,2.1,1.5c-6.2,13-12.4,25.9-19.4,40.4c3.1,6.5,7.2,15.4,12.6,26.8c-6.7-2.7-11.1-4.5-16.8-6.9
	c1.3,3.9,2.1,6.4,3.8,11.5c-8.4-5-14.6-8.8-21.7-13.1c-2.1,4.1-4,8.5-6.4,12.6c-2.7,4.6-6.6,8.7-8.7,13.5c-1.4,3.2-2.3,8.6-0.6,10.7
	c5.2,6.5,11.8,11.8,18.1,17.8c3.7-4,9-9.7,15.5-16.7c0.5,7.8,0.9,13.8,1.4,21.2c10.6-4,20.4-6.6,29-11.4c2.8-1.6,2.7-8.7,3.7-13.3
	c1.1-5.4,2-10.8,2.9-16.3c0.4-2.5,1.1-5.2,0.7-7.6c-1.4-8.9-3.1-17.8-4.9-26.7c-1.3-6.3-0.5-11.3,8.6-12.8
	c-11.3-4.9-10.4-12.9-7.9-21.1c2.8-9.1,7.1-17.8,8.8-27c1.1-5.8-1.3-12.2-2.3-18.3c-0.8-4.7-3.7-9.6-2.8-13.8
	c6.5-31,13.8-61.9,21-93.3c0.7,0.5,1.9,1.5,3.3,2.7c4.9-9.8,9.8-19.8,14.8-29.8c0.5,0.1,1,0.2,1.4,0.3c0,3.6,0,7.3,0,13.7
	c2.8-5.4,4.4-8.3,5.7-10.9c21.2,45.1,33.8,92.3,39,142.3c-2.3-1-4.1-1.8-7.2-3.1c1,12.6-2,24.6,7.6,34.9c2.5,2.7,3.2,9,2,12.6
	c-5.2,15.2-4.3,25.5,7.3,42.8c2.8-5.5,5.3-10.4,7.8-15.3c1.2,1,2.5,1.9,3.7,2.9c-4.6,19.3-9.3,38.5-13.6,57.8
	c-0.7,3.2-0.9,7.5,0.7,10.1c7.9,13.1,9.4,27.5,9.6,43c-2.7-1.6-5.2-3-8.8-5.1c-5,18.9,3.9,35.2,4.1,54.1
	c-5.6-4.7-11.2-9.4-16.3-13.7c-7.4,14.1-15,28.4-22.6,42.8c-1.5-0.5-3-1.1-4.5-1.6c2.9-16.8,5.8-33.7,8.9-50.5
	c0.9-4.6,2.6-8.5-2.9-11.8c-1.9-1.1-2.8-5.1-2.9-7.8c-1.1-19-1.7-37.9-2.9-56.9c-0.2-2.6-2.9-5.1-4.4-7.6c-3.3,3.6-8.7,6.9-9.4,11
	c-1.5,8.1-0.4,16.7-0.4,26.7c-3.9-3.4-6.4-5.6-9-7.8c-1,0.2-1.9,0.5-2.9,0.7c0.8,15,1.6,30,2.2,45.1c0.1,3.5-0.7,6.9-1.3,12.7
	c-5.7-7.3-10.1-13-15.1-19.5c-4.5,20.6-8.7,40.2-12.9,59.7c-1.2,0-2.5,0-3.7,0c-1.7-13.2-3.5-26.4-5.2-39.6c-3.8-1.7-7.7-4.4-11.9-5
	c-3.6-0.5-7.6,1.3-11.2,2.7c-12.6,4.7-24.3,1.1-36.2-4.8c-0.6,3.5-1,6-1.7,9.8c-5.8-4.4-10.9-8.3-17-12.9
	c-3.7,6.8-7.1,13.2-10.5,19.5c-0.7,0-1.4,0-2,0.1c-4.6-30.5-9.1-60.9-13.7-91.4c-1.2,0-2.4,0-3.6,0c-18.5,18.6-19.6,41.7-13.9,67.5
	c-5.3-3.6-9.2-6.3-14.2-9.7c-9.7,18.8-19,37-28.4,55.2c-0.7-0.3-1.5-0.5-2.2-0.8c-0.7-6.7-1.4-13.3-1.9-17.9
	c-8.9-2.7-16.8-4.5-24.3-7.4c-7.9-3.1-17-3.2-22.3-13.3c-2.2-4.1-13.8-3.4-21.2-4.6c-2.8-0.5-5.6-0.3-10.2-0.6c4.1-3.5,7-6,9.8-8.5
	c8.1-7.2,16.6-13.6,12.6-27.1c-1.2-3.9,3.3-9.3,4.8-14.1c1-3.2,2.6-7.1,1.5-9.7c-6-14.6-12.7-28.9-18.9-42.7
	c11.8,5.8,27,9.5,32.8,26.9c2.5-2.3,4-3.7,6-5.5c1.2,3.8,2.4,7.2,4.4,13.6c1.8-6.7,2.8-10.6,3.9-14.5c0.6-0.1,1.2-0.3,1.8-0.4
	c3.3,13.4,6.6,26.8,9.8,40.1c16.7-5.9,21.5-18.5,25.8-33.1c5.7-19.1,7.4-37.1-0.4-56c-2.9-6.9-2.9-15-4.2-22.6
	c-0.9,0.1-1.7,0.1-2.6,0.2c0,5.1,0,10.2,0,15.8c-9.2-5.1-15.3-15.7-27.3-12.7c-3.3,11.9-6.5,23.5-9.7,35.1c-0.8,0.1-1.5,0.2-2.3,0.2
	c-1.7-7.6-3.9-15.2-5-22.9c-1.9-12.9-1.8-26.1-11.5-36.8c-2.4-2.7-1.3-8.5-1.9-13.6c0,0-0.8-0.5-1.7-0.7
	c-16.3-4.1-15.1-3.7-10.7-19.4c4.5-15.9,6.3-32.5,9.1-48.9c0.7-3.9-0.4-8.3,1.1-11.7c1.7-3.9,5.3-7,8.1-10.4
	C35.9,371.4,36.5,371.5,37.1,371.7z M306.9,511.1c0.9,4.1,2.9,9.1,2.8,14.1c-0.2,11.1-1.5,22.2-2.2,33.3c-0.1,2.3-0.2,4.8,0.5,6.9
	c2.2,6.5,6.2,12.7,6.9,19.3c2,19.2,2.7,38.5,4,57.9c8.9,0.3,6.5,6.9,5.6,12.2c-1.9,10.7-4.1,21.4-6.2,32.1c0.6,0.2,1.2,0.3,1.8,0.5
	c4.1-10.1,8.3-20.2,12.8-31.3c4.1,3.8,7.3,6.7,10.6,9.7c-1.2-10.7-3-20.8-3.2-30.8c-0.1-6.6,0-14.6,12.8-16.1
	c-15.6-22.5-15.8-45.8-7-69.8c-1.7,2.4-3.5,4.9-6.6,9.2c1.7-10-11.4-17.3-1.7-23.6c-2-9.9-4-18.3-5.4-26.8
	c-1.9-11.2,8-23.9-4.4-33.8c-0.2-0.1-0.1-0.6-0.1-1c-0.7-9.8-1.6-19.6-2.1-29.5c-0.1-2.1,0.3-6,1.2-6.2c7.7-1.9,4.1-7.1,3.3-11
	c-2.7-14.1-4.7-28.5-8.7-42.2c-5.9-20.6-13.3-40.7-20.2-61.5c-7.2,4.7,1.7,17.7-12,15.4c-0.3-3.6-0.6-6.6-0.9-9.6
	c-6.4,10.3-12.3,20.7-15.3,31.8c-5.4,20.2-9.2,40.8-13.3,61.4c-0.6,3,0.3,6.9,1.7,9.6c4.5,8.5,6.1,16.8,2.7,26.4
	c-4.1,11.3-7.1,23.1-10.5,34.6c1-0.3,2.1-0.5,3.1-0.8c2.1,3.5,5.8,6.9,5.8,10.4c0,4.1-3.3,8.1-5.2,12.2c4.7,34.2-1,68.7-4.4,104.4
	c-18-11-18-11-13.9-29.1c-10.6,3.2-21.5,15.2-30-1.2c-11.1,11.5-13,11-18.4-2.2c-1.5-3.6-4.3-7.6-7.6-9.4
	c-10.2-5.3-11.9-16-3.6-23.8c2.7-2.5,4.5-7.2,4.6-11c0.3-7.5-4.1-17.4-0.7-22.1c5.2-7.3,11.7,1.4,17.3,4.6c1.7,1,3,2.6,4.5,3.7
	c0.4,0.3,1.1,0.1,2,0.1c0-2.7,0-5.3,0-8.5c4.5,2.7,8.2,4.9,13,7.8c-3.8-8.8-7-16-10.7-24.5c14.5,0.8,14-10.1,19.9-18.9
	c-14.1,7.8-18.1,6.6-24-5.6c2.7-2.9,5.4-5.9,8.1-8.9c-0.4-1.2-0.8-2.4-1.2-3.6c-5.6,1-11.2,2-16.9,2.9c-4.4,0.8-9.3,3.2-13.1,2
	c-5.9-1.8-10.2-37.4-4.9-39.1c7-2.3,4.4-6.5,4.6-10.2c0.4-5.9-0.8-12.1,0.8-17.6c1-3.5,5.6-6.6,9.3-8.4c1.5-0.7,5.5,2.2,7.5,4.2
	c6.6,6.7,12.9,13.8,19.6,21.1c2.7-9.8-15.8-12.5-3.9-24c8-7.7,16-8,26.8-5c-3.2-4-4.7-6.5-6.8-8.5c-14.3-13.3-13.3-25,3-33.4
	c0.2-0.1,0.1-0.6,0.3-3.5c-9.3,0.7-18.2,1.7-27.2,2c-2,0.1-5-1.8-5.8-3.5c-1-2.1-0.2-5.1-0.2-8.7c-5.4,5-9.2,10.2-14.2,12.7
	c-4.9,2.4-11.2,2.9-16.7,2.3c-1.8-0.2-2.8-6.7-4.5-11.2c-3.3,6.1-6.5,11.8-10.8,19.8c-1.5-7.3-2.5-11.9-3.7-17.8
	c-0.8,2.1-1.3,2.9-1.4,3.7c-2.5,28.6-4.9,57.1-7.3,85.7c-0.1,1.6,0.5,3.2,0.8,4.8c2.3,11.1,6.9,22.4-2.7,32.7
	c-0.8,0.8-0.1,3.1,0,4.8c1.3,14.3,2.7,28.6,3.7,43c0.3,4.1-2.6,10.3-0.7,12.2c10.7,10.6,4.9,21.6,2.7,32.9
	c-1.6,8.2-3.2,16.8-2.2,24.9c1.9,15.9,5.7,31.6,8.3,47.4c1.2,7.2,1.2,14.6,1.8,21.9c0.6,0.1,1.1,0.1,1.7,0.2
	c1.8-5.2,3.5-10.5,6-17.7c5,6.6,8.7,11.6,12.5,16.5c0.8-0.3,1.6-0.6,2.4-1c-0.3-3.4-0.5-6.8-0.8-10.2c-0.2-3.3-0.5-6.5-0.8-9.8
	c0.9-0.2,1.8-0.4,2.7-0.6c1.4,3.1,3.2,6,4.2,9.2c2.8,9,13.7,17.3,23,16.1c4.9-0.6,12.3-2.3,13.6-5.5c3.3-8.2,6.4-5.2,10.7-1.9
	c2.4,1.8,5.1,3.1,8.8,5.2c-3.8-7.9-7.4-13.7-9.3-20.1c-0.9-2.9,0.7-8.2,3-9.9c3.3-2.5,8.3-3.5,12.5-3.5c1.2,0,3.4,5.6,3.5,8.7
	c0.4,14.6,0.2,29.1,0.2,43.7c1.1,0.1,2.2,0.1,3.3,0.2c2.7-14.6,5.4-29.3,8.3-44.6c5.1,4.9,9,8.6,12.8,12.3c0.8-5.3-0.6-9.4-0.7-13.6
	c-0.2-10.5,0.3-21,0.5-31.6c0-3.2-0.3-6.4-0.6-12.3c5.3,4.7,8.3,7.4,11.9,10.6c0.9-6.3,2-11.6,2.2-17c0.2-4.9,0.3-10.2-1.3-14.6
	c-6.8-18.1-3.5-35.6,0-51.3C295.9,512.6,300.6,511.9,306.9,511.1z M79,482c6.7,5.5,13.3,8.5,15.8,13.6c3.1,6.1,2.8,14,4,21.1
	c0.3,1.6,0.8,3.2,1.4,4.7c5.8,15,8.6,30.1,2.2,45.7c-6.3,15.4-4.5,34.2-24,44c-10.8,5.4-12.2,7.9-16.7-4.1c-0.8-2.2-1.8-4.4-3-7.3
	c-1.2,3.5-2.1,6-3.9,11.2c-3.5-10.1-6-17.4-8.8-25.6c-1.4,2.8-2.1,4.4-2.9,6c-4.7-9.3-9.3-18.3-13.9-27.4
	c1.1,10.1,4.3,19.2,5.9,28.6c0.7,4-2.1,8.5-3.3,12.8c-1.2,4.2-4.2,9-3.1,12.3c2.8,8.2-0.5,14-4.9,19.9c-2,2.6-4.2,5.1-7.3,8.7
	c9.7,1.3,17.4,2.4,25,3.5c-0.4,3.4-0.7,6.2-1,9c15,1.6,28,19.5,44,0.7c0.3,6.7,0.5,10.6,0.8,16.2c6.9-14.5,12.5-27.1,19-39.3
	c1.7-3.2,6.1-4.9,11-8.6c-4.3-19.2,7.7-35.6,17.8-49.7c-1.8-6.7-5.4-13.3-3.8-15c8.4-9.1,5.7-18.3,3-28.1
	c-1.5-5.5-2.9-11.1-3.8-16.7c-2.9-18-6.2-36-8-54.1c-1.3-12.9-9.6-20.5-19.7-23c-9.3-2.3-11.5-6.1-10.5-15.7
	c-5.1,3.3-8.8,5.8-12.6,8.2c-8,5.1-20.5-0.7-20-9.8c1-17.8,3.3-35.5,16-48.1c11.2-3.8,12.3,5.7,16,11.4c1.7-4.5,3.2-8.3,4.6-12.2
	c1.3-0.1,2.5-0.2,3.8-0.2c5,13.3,10.1,26.5,14.5,38.1c1.6-5,1.7-13.9,6-16.8c4.2-2.9,12.6,0.1,18.7,0.5c-2.8-5-8.4-10.4-8.2-15.6
	c0.2-4.7,6.7-9.2,11.1-14.6c-9.1-2.3-18.8-3-22.9-12.4c4.1-5.2,7.8-9.9,11.4-14.5c-9.7-1.8-19.5-1.4-26.8-5.6
	c-8.6-4.9-9.5-14.5-4.1-21.4c-12,7.7-25,16-37.9,24.5c-1.2,0.8-1.9,2.7-2.5,4.1c-4.4,10.5-8.4,21.3-13.4,31.6
	c-2.2,4.5-6.4,8-9.3,11.5c-4.3,22.5-8.6,45.4-13.1,69c4.5,0.9,11.1,2.2,19.9,3.9c-8.2,8.9-7,15.9-0.3,22.9c2.1,2.2,2.9,5.8,3.5,9
	c1.6,7.8,2.8,15.7,4.1,23.5c0.5,0,0.9,0.1,1.4,0.1c1.5-7.7,3.1-15.4,4.5-22.7c8.7,2.7,16.1,5,24,7.5C79,493,79,488.6,79,482z
	 M134.8,567.2c2.2,0.2,5.1,1.3,6.3,0.3c6.4-5.1,7.3-24.9,2.6-32.4c-1.8-2.8-2.6-6.6-2.6-10c-0.2-12,0.3-24,0.1-36
	c-0.1-8.4-1.5-16.7-1.2-25c0.2-4.9,4.7-10.4,3.6-14.6c-3.8-13.8,0.2-27,1.2-40.4c0-0.5-0.6-1.1-0.8-1.5c-5-2-9.9-3.9-14.8-5.7
	c-7-2.6-9.5,0.5-9.6,7.4c-0.2,9.8-1.2,19.5-1.7,29.3c-0.1,2.4-0.2,5.4,1.1,7.2c9.7,14.6,12.1,31.3,14.1,48.2
	c1.8,15.4,2.8,31.1,6.9,45.9C142.8,550.1,142.7,557.6,134.8,567.2z M97.5,390.6c-1.5,7-2.6,11.9-3.9,18.3
	c-4.2-8.2-7.6-15.1-11.2-21.8c-0.8-1.6-2.4-2.8-3.6-4.2c-1.5,1.4-3,2.9-4.6,4.3c-10,8.9-8.8,21-9.2,32.6c-0.1,2.5,1.8,6.2,3.8,7.3
	c2.1,1.2,6.1,0.7,8.4-0.5c5.7-3.1,11-7.2,16.4-10.8C105.8,407.9,106.2,406.5,97.5,390.6z M293.3,520.4c-5,23.5-3.6,35.9,7.2,46.8
	c1.2-14.2,2.2-26.4,3.3-38.5C304.5,521,300.9,518.6,293.3,520.4z M114.3,439.3c-3.9-9.8-7.1-17.6-10.3-25.4c-0.7,0-1.5,0-2.2-0.1
	c-1.5,6-3.1,12.1-4.6,18.2C102.9,434.5,107.6,436.4,114.3,439.3z M135,381.5c3.2,3.6,5.7,6.4,9.3,10.5c0.7-7.3,1.2-12.3,1.9-18.7
	C142.1,376.2,139.3,378.3,135,381.5z"/>
<path d="M373.3,540.2c-1.1-11.3-1.8-19.8-2.7-28.3c-1.6-14.9-3.3-29.7-5.3-46.9c3.8,2.7,5.3,3.9,7.9,5.7
	c-5.9-46.6,21.7-80.3,41.8-117.6c1,7.4,2.1,14.9,2.9,22.3c1,9.5,4.8,11.6,13.4,7.4c1.3,4.9,2.6,9.8,4.1,15.1
	c20.4-6.4,14.3-27.8,25.4-40.8c1.7,9.1,3.3,17.2,4.4,23.1c7.3,2.3,13.6,3.4,19,6.2c7.4,3.8,13.7,8.5,21.5-0.2
	c3.1-3.5,9.3-4.3,14.9-6.7c-2.1,7.8-4,15.2-6.2,23.3c8.6,2.1,16.9,4.1,26.8,6.6c-6.1,5.4-10.6,9.4-15.8,14c3.3,5.5,6.8,11.3,10,16.7
	c-6.7,1.1-13.4,2.1-20,3.4c-8.9,1.8-9.8,8.9-10.8,17.3c4.8-0.5,8.8-0.9,14-1.5c-5.4,7.4-10.3,13.8-14.8,20.4c-1.4,2-1.6,4.7-2.7,6.9
	c-1.5,3.1-2.5,7.4-5,8.7c-7.8,4-9.4,10.2-8.4,17.9c2.4,18,4.8,35.9,7.1,53c-1.1-0.7-4-2.5-7.6-4.7c-5.8,18.2,4.6,34.4,3.9,51.6
	c-3.9-2.2-7.8-4.4-13.9-7.8c1.3,12.3,2.4,22.5,3.5,33.2c-3.7-2.1-7.4-4.1-12-6.6c-3.1,11.5-6,22-8.8,32.5
	c-8.6-35.5-7.6-71.3-7.8-107.4c-0.6,2-1.6,4.1-1.7,6.1c-0.8,23.7-13.3,43.1-24.7,62.4c-3.5,6-14.5,8.7-22.6,10.3
	c-2.7,0.5-7.7-6.8-10.5-11.2c-2.6-4-5.5-9.2-5-13.6c2-20.9-9.7-36.2-19.3-52.7c-4.2-7.2-5.8-15.9-9.2-25.9
	C363.9,535.1,367,536.7,373.3,540.2z M410.6,373.2c-4.3,6.9-8.7,13.6-12.7,20.6c-3.7,6.5-7.6,13.1-10.1,20
	c-7,18.9-10.8,38.3-8.8,58.6c0.3,2.6-1.2,5.5-2,8.2c-1,3.2-3.3,6.3-3.1,9.3c0.7,8.8,1.9,17.6,3.7,26.2c2.3,10.8,2.7,20.8-4.6,30.1
	c-1.2,1.5-0.8,5.1,0.1,7.2c3.1,7,5.5,15.1,10.6,20.3c8.7,8.8,9.6,19,9.5,29.9c0,10.4,3.7,18.9,10.2,26.2c3.6-1.9,7.3-5.5,9.7-4.7
	c6.1,2,7.6-1.5,9.6-5.4c3.3-6.4,6.3-13,10.1-19.1c11-17.7,11.8-37.9,14-57.6c1.5-13.4,2-26.8,3-41.6c-1.3-3.2-5.2-8.6-5.4-14
	c-0.5-13.8,1.5-27.7,0.9-41.5c-0.4-9.7-5.3-19.4-4.7-28.9c0.8-12.3-9.3-15.6-14.9-22.1C419.8,388.2,408.6,385.5,410.6,373.2z
	 M503.8,471.5c-15-1-25.2-10.7-23.9-23.9c0.3-2.6,3.2-6.2,5.6-6.9c2.3-0.6,5.9,1.5,8.1,3.5c2.1,1.9,3.2,5.1,4.7,7.7
	c0.5-0.2,1.1-0.4,1.6-0.6c0-3.6,0-7.3,0-10.1c8.2-2.7,15.6-5.1,23.1-7.5c1-1.1,2-2.2,3.1-3.3c-3.9-2.6-7.8-5.1-12.7-8.3
	c4.7-2.9,9.3-5.7,14.8-9.1c-7.3-2.1-14.5-2.1-17.9-5.7c-2.6-2.8-0.5-10.1-0.5-15.3c-10.2,7-11.8,7.5-21.1,3.4
	c-8.4-3.7-15.9-12.7-25.6-1.2c-1.9-5.2-3.2-8.6-4.4-12c-3.6,7.2-6,14.5-6,21.8c0.1,13.6,1.6,27.2,2.7,40.8
	c0.5,6.7,1.4,13.4,2.3,20.1c1.8,14.2,8,28,0.9,43c-4.2,8.8-5,19.2-7.5,29.8c3.4-1.2,5.8-2.1,7.8-2.8c0,31.1,0,61.6,0,92.2
	c0.9,0.1,1.9,0.2,2.8,0.3c1.1-2.8,2.2-5.7,3.5-8.8c2.2,2,4.1,3.8,8,7.4c0-11.4,0-20.3,0-30.6c4.5,2.3,7.2,3.8,10.6,5.5
	c-1.4-7.8-4-15.2-3.6-22.4c0.6-9-4.7-20.3,6.4-26.1c-1.5-11.2-3.3-22.1-4.3-33.1c-1.1-12.3-2.9-25.3,13.5-30.1
	c-1.9-3.5-3.2-5.9-4.4-8.1C495.8,477.5,499.8,474.5,503.8,471.5z"/>
<path d="M593.7,514.9c-1.6-3.7-4.1-7.3-4.5-11.2c-1.3-13-5.1-26.9-2-38.9c4.3-16.7-1.4-33.2,2.9-49.5c0.9-3.4,0.1-7.2,0.6-10.7
	c0.3-2,1.2-5.1,2.6-5.6c1.6-0.6,4.4,0.7,6,2.1c2.4,2.1,5.3,4.6,6.2,7.5c6.5,21.8,24.2,40.2,18.5,65.8c-1.4,6.2,2.9,13.4,3,20.1
	c0.2,16.2-2,32-10.7,46.3c-0.9,1.5,0.6,4.3,0.5,6.5c-0.3,7.5-0.9,15-1.4,22.6c-1.2,0.1-2.5,0.1-3.7,0.2c-0.9-2.4-1.7-4.8-2.7-7.5
	c-2.4,2.2-4.5,4.9-7.2,6.5c-5,3-9,5.2-12.2-3.7c-5.4-14.6-0.1-27.6,3-41.1c0.8-3.5,2.5-6.7,3.8-10
	C595.5,514.5,594.6,514.7,593.7,514.9z M600.8,411.1c-1.2,0.1-2.4,0.2-3.6,0.3c-1.9,19.8-4.8,39.7,4.6,59.5c-2.4,0-4.5,0-7.4,0
	c0.6,11.8,1.1,22.9,1.7,34.4c4.7-0.9,7.8-1.4,9.6-1.8c-3.8,14.4-8.1,28.7-11.2,43.2c-1.1,5.2,0.6,11,1,16.5c1.3,0.2,2.6,0.3,3.9,0.5
	c1.7-2.9,3.7-5.7,4.9-8.8c4.7-11.6,10.7-23,13.1-35.1c2.5-12.1,1.5-24.9,1.8-37.5c0.1-4.1-1.3-8.2-1-12.3
	c1.2-15.6-1.3-29.8-12.6-41.6c-2.2-2.3-2.8-6.3-3.7-9.6C601.2,416.4,601.1,413.7,600.8,411.1z"/>
<path d="M708.7,591.3c0-3.5,0-7,0-10.4c-9.3-3.8-16-20.5-12.1-29.4c0.9-2,2.8-4.8,2.1-6c-9.9-17.6,0.9-32.2,6.3-47.6
	c0.3-0.9,0.7-1.7,1.8-4.3c-5,4.1-8.8,7.1-14.3,11.5c-1.2-6.3-2.8-11.1-3-16c-0.2-6.8,0.4-13.7,1.1-20.5c0.6-5.3-2.5-11.9,5.2-15.1
	c0.9-0.4,0.7-4.9-0.1-7.2c-6.7-20.5,5.4-37.3,10.9-55.4c1.4-4.8,5.8-5.1,8.8-0.3c1.5,2.5,3.3,5.1,3.8,7.9
	c3.2,15.9,7.4,31.7,8.7,47.8c0.8,9.6,0.2,18.7,3.3,28.4c2.7,8.6-0.8,19.1-1.6,28.7c-0.2,1.9-1.2,3.9-0.9,5.6
	c3.9,19.7,1.4,39.2-3.9,58.1c-2.5,8.9-8.2,16.9-12.5,25.4C711.1,592.2,709.9,591.8,708.7,591.3z M725.9,477.6
	c-0.8-0.6-1.6-1.1-2.4-1.7c-3.1,3.3-7.4,6.1-9.2,10c-3.8,8.6-6.3,17.7-9.1,26.7c-3.1,9.6-7.1,19.2-1.1,29.4c1.2,2,0.9,5.2,0.4,7.6
	c-3.7,17-3.2,18,14.8,25.2c1.7-19.5,3.4-38.3,5-57c0.6-7.3,1.3-14.5,1.6-21.8C726.1,489.9,725.9,483.8,725.9,477.6z M711.7,398.4
	c-15.7,23.5-12.5,47.4-3.5,72.6c-5-2.6-8-4.2-10.9-5.8c-0.6,9.6-1.1,18.4-1.7,29c8.6-7.8,18.7-13,22.1-21c4.1-9.6,3.9-21.7,3.2-32.6
	c-0.8-12.5-4.3-24.9-6.7-37.2C714,401.9,712.9,400.7,711.7,398.4z"/>
<path d="M305.5,467.3c-6.7-1.7-11.5-2.9-18.6-4.6c1.9-18,3.8-36.5,5.7-55c0.9-0.1,1.8-0.1,2.7-0.2
	C305.1,426,303.3,446.6,305.5,467.3z"/>
<path d="M412.7,573.2c-0.7-11.8-1.3-22.7-2-33.6c-0.7-0.1-1.4-0.2-2.1-0.3c-1,4.3-2.1,8.6-3.1,13c-1,0.1-1.9,0.2-2.9,0.3
	c-0.7-6-1.4-12-2.1-17.9c-0.7-5.8-1-11.6-2-17.3c-2.7-15-5.9-29.9,1-44.7c1-2.2,1.4-5.3,0.6-7.5c-4.8-12.2,0.5-22.7,4.6-35.5
	c2.9,4.4,4.7,7.2,7.3,11.1c1.3-4.3,2.4-7.9,4.2-14.1c11.8,23,14.9,44.8,13.3,67.5c-0.3,4.2-1.4,8.9,0,12.6
	c2.8,7.6,2.1,13.6-3.1,19.9c-1.6,1.9-1.4,6.4-0.4,9.1c5.4,13.4-2.1,24-7.1,35.1C418.2,572.1,415.4,572.3,412.7,573.2z M407.5,448.7
	c-1.1,0-2.2-0.1-3.3-0.1c2.4,12.9,1.2,25.2-1.9,37.9c-2.9,12-1.6,25.3,4.7,37c0.4,0.7,0.7,1.4,1.2,2.3c1.6-2,2.8-3.5,4.7-5.9
	c2.1,12.6,4,23.8,5.8,35c0.9-0.1,1.9-0.2,2.8-0.4c-0.6-6-1.2-12-1.8-17.9c-0.3-3.5-1.9-8.2-0.3-10.2c5.6-7,5.3-14,3.6-22
	c-0.8-3.7,0.7-7.8,0.5-11.6c-0.9-15.3-2-30.7-3.1-46c-1.2-0.1-2.5-0.2-3.7-0.3c-1.7,3.4-3.5,6.8-5.5,10.6
	C409.8,453.8,408.6,451.3,407.5,448.7z"/>
</svg>
